<?xml version="1.0" encoding="utf-8" standalone="no"?>
<!DOCTYPE svg PUBLIC "-//W3C//DTD SVG 1.1//EN"
  "http://www.w3.org/Graphics/SVG/1.1/DTD/svg11.dtd">
<svg xmlns:xlink="http://www.w3.org/1999/xlink" width="460.8pt" height="345.6pt" viewBox="0 0 460.8 345.6" xmlns="http://www.w3.org/2000/svg" version="1.1">
 <metadata>
  <rdf:RDF xmlns:dc="http://purl.org/dc/elements/1.1/" xmlns:cc="http://creativecommons.org/ns#" xmlns:rdf="http://www.w3.org/1999/02/22-rdf-syntax-ns#">
   <cc:Work>
    <dc:type rdf:resource="http://purl.org/dc/dcmitype/StillImage"/>
    <dc:date>2023-11-07T15:50:08.939950</dc:date>
    <dc:format>image/svg+xml</dc:format>
    <dc:creator>
     <cc:Agent>
      <dc:title>Matplotlib v3.5.2, https://matplotlib.org/</dc:title>
     </cc:Agent>
    </dc:creator>
   </cc:Work>
  </rdf:RDF>
 </metadata>
 <defs>
  <style type="text/css">*{stroke-linejoin: round; stroke-linecap: butt}</style>
 </defs>
 <g id="figure_1">
  <g id="patch_1">
   <path d="M 0 345.6 
L 460.8 345.6 
L 460.8 0 
L 0 0 
z
" style="fill: #ffffff"/>
  </g>
  <g id="axes_1">
   <g id="patch_2">
    <path d="M 57.6 119.740235 
L 414.72 119.740235 
L 414.72 41.472 
L 57.6 41.472 
z
" style="fill: #ffffff"/>
   </g>
   <g id="matplotlib.axis_1">
    <g id="xtick_1">
     <g id="line2d_1">
      <defs>
       <path id="m1ea2e0268b" d="M 0 0 
L 0 3.5 
" style="stroke: #000000; stroke-width: 0.8"/>
      </defs>
      <g>
       <use xlink:href="#m1ea2e0268b" x="57.6" y="119.740235" style="stroke: #000000; stroke-width: 0.8"/>
      </g>
     </g>
    </g>
    <g id="xtick_2">
     <g id="line2d_2">
      <g>
       <use xlink:href="#m1ea2e0268b" x="108.617143" y="119.740235" style="stroke: #000000; stroke-width: 0.8"/>
      </g>
     </g>
    </g>
    <g id="xtick_3">
     <g id="line2d_3">
      <g>
       <use xlink:href="#m1ea2e0268b" x="159.634286" y="119.740235" style="stroke: #000000; stroke-width: 0.8"/>
      </g>
     </g>
    </g>
    <g id="xtick_4">
     <g id="line2d_4">
      <g>
       <use xlink:href="#m1ea2e0268b" x="210.651429" y="119.740235" style="stroke: #000000; stroke-width: 0.8"/>
      </g>
     </g>
    </g>
    <g id="xtick_5">
     <g id="line2d_5">
      <g>
       <use xlink:href="#m1ea2e0268b" x="261.668571" y="119.740235" style="stroke: #000000; stroke-width: 0.8"/>
      </g>
     </g>
    </g>
    <g id="xtick_6">
     <g id="line2d_6">
      <g>
       <use xlink:href="#m1ea2e0268b" x="312.685714" y="119.740235" style="stroke: #000000; stroke-width: 0.8"/>
      </g>
     </g>
    </g>
    <g id="xtick_7">
     <g id="line2d_7">
      <g>
       <use xlink:href="#m1ea2e0268b" x="363.702857" y="119.740235" style="stroke: #000000; stroke-width: 0.8"/>
      </g>
     </g>
    </g>
    <g id="xtick_8">
     <g id="line2d_8">
      <g>
       <use xlink:href="#m1ea2e0268b" x="414.72" y="119.740235" style="stroke: #000000; stroke-width: 0.8"/>
      </g>
     </g>
    </g>
   </g>
   <g id="matplotlib.axis_2">
    <g id="ytick_1">
     <g id="line2d_9">
      <defs>
       <path id="m34948c54d7" d="M 0 0 
L -3.5 0 
" style="stroke: #000000; stroke-width: 0.8"/>
      </defs>
      <g>
       <use xlink:href="#m34948c54d7" x="57.6" y="116.182588" style="stroke: #000000; stroke-width: 0.8"/>
      </g>
     </g>
     <g id="text_1">
      <!-- 0 -->
      <g transform="translate(44.2375 119.981807)scale(0.1 -0.1)">
       <defs>
        <path id="DejaVuSans-30" d="M 2034 4250 
Q 1547 4250 1301 3770 
Q 1056 3291 1056 2328 
Q 1056 1369 1301 889 
Q 1547 409 2034 409 
Q 2525 409 2770 889 
Q 3016 1369 3016 2328 
Q 3016 3291 2770 3770 
Q 2525 4250 2034 4250 
z
M 2034 4750 
Q 2819 4750 3233 4129 
Q 3647 3509 3647 2328 
Q 3647 1150 3233 529 
Q 2819 -91 2034 -91 
Q 1250 -91 836 529 
Q 422 1150 422 2328 
Q 422 3509 836 4129 
Q 1250 4750 2034 4750 
z
" transform="scale(0.015625)"/>
       </defs>
       <use xlink:href="#DejaVuSans-30"/>
      </g>
     </g>
    </g>
    <g id="ytick_2">
     <g id="line2d_10">
      <g>
       <use xlink:href="#m34948c54d7" x="57.6" y="88.195673" style="stroke: #000000; stroke-width: 0.8"/>
      </g>
     </g>
     <g id="text_2">
      <!-- 10 -->
      <g transform="translate(37.875 91.994892)scale(0.1 -0.1)">
       <defs>
        <path id="DejaVuSans-31" d="M 794 531 
L 1825 531 
L 1825 4091 
L 703 3866 
L 703 4441 
L 1819 4666 
L 2450 4666 
L 2450 531 
L 3481 531 
L 3481 0 
L 794 0 
L 794 531 
z
" transform="scale(0.015625)"/>
       </defs>
       <use xlink:href="#DejaVuSans-31"/>
       <use xlink:href="#DejaVuSans-30" x="63.623047"/>
      </g>
     </g>
    </g>
    <g id="ytick_3">
     <g id="line2d_11">
      <g>
       <use xlink:href="#m34948c54d7" x="57.6" y="60.208758" style="stroke: #000000; stroke-width: 0.8"/>
      </g>
     </g>
     <g id="text_3">
      <!-- 20 -->
      <g transform="translate(37.875 64.007976)scale(0.1 -0.1)">
       <defs>
        <path id="DejaVuSans-32" d="M 1228 531 
L 3431 531 
L 3431 0 
L 469 0 
L 469 531 
Q 828 903 1448 1529 
Q 2069 2156 2228 2338 
Q 2531 2678 2651 2914 
Q 2772 3150 2772 3378 
Q 2772 3750 2511 3984 
Q 2250 4219 1831 4219 
Q 1534 4219 1204 4116 
Q 875 4013 500 3803 
L 500 4441 
Q 881 4594 1212 4672 
Q 1544 4750 1819 4750 
Q 2544 4750 2975 4387 
Q 3406 4025 3406 3419 
Q 3406 3131 3298 2873 
Q 3191 2616 2906 2266 
Q 2828 2175 2409 1742 
Q 1991 1309 1228 531 
z
" transform="scale(0.015625)"/>
       </defs>
       <use xlink:href="#DejaVuSans-32"/>
       <use xlink:href="#DejaVuSans-30" x="63.623047"/>
      </g>
     </g>
    </g>
   </g>
   <g id="line2d_12">
    <path d="M 57.6 116.182588 
L 83.746276 116.079656 
L 86.934847 115.856514 
L 89.485714 115.622712 
L 90.123419 115.692176 
L 91.398852 116.155899 
L 92.674286 115.542633 
L 93.31199 115.419066 
L 94.587424 115.534526 
L 97.138291 115.97464 
L 99.689133 116.102779 
L 109.892576 115.99938 
L 112.443419 116.023474 
L 117.545153 116.153569 
L 122.646862 116.046389 
L 125.197705 116.118988 
L 127.748571 116.003985 
L 143.053724 116.101386 
L 146.242295 116.059171 
L 157.083419 116.14227 
L 160.27199 116.140553 
L 162.822857 116.13372 
L 174.939438 115.964427 
L 176.852576 116.088207 
L 178.12801 115.87264 
L 179.403419 115.843931 
L 183.867424 116.116544 
L 189.606862 115.719403 
L 191.52 115.381818 
L 194.708571 114.577439 
L 195.346276 114.608726 
L 195.984005 114.86701 
L 196.621709 115.411697 
L 197.259438 116.155322 
L 198.534847 114.52553 
L 199.172576 114.108061 
L 199.810281 114.043678 
L 200.44801 114.242713 
L 203.636581 115.848754 
L 204.91199 116.161489 
L 210.013724 115.836195 
L 213.202295 115.829705 
L 215.115409 116.159548 
L 217.028571 115.607964 
L 218.303981 115.654714 
L 220.217143 116.164044 
L 223.405714 115.653773 
L 226.594286 115.200312 
L 227.869695 114.858559 
L 229.145153 114.322475 
L 230.420562 113.474224 
L 231.058266 112.878064 
L 231.696019 112.126116 
L 232.333724 111.17869 
L 232.971429 109.988474 
L 233.609133 108.503036 
L 234.246838 106.670909 
L 235.522295 101.882893 
L 236.797705 96.391131 
L 237.435409 94.494145 
L 238.073162 94.421618 
L 238.710867 97.356431 
L 239.348571 104.055575 
L 239.986276 114.141654 
L 240.623981 106.544295 
L 241.261734 95.949279 
L 241.899438 88.858753 
L 242.537143 86.355566 
L 243.174847 87.904251 
L 243.812552 91.976731 
L 245.08801 101.828124 
L 245.725714 105.941246 
L 246.363419 109.132046 
L 247.001123 111.429495 
L 247.638877 112.953593 
L 248.276581 113.842692 
L 248.914286 114.223552 
L 249.55199 114.198129 
L 250.189695 113.842472 
L 250.827448 113.212282 
L 252.102857 111.319611 
L 253.378266 109.083251 
L 254.016019 108.205265 
L 254.653724 107.81984 
L 255.291429 108.220856 
L 255.929133 109.629913 
L 256.566838 112.064648 
L 257.204591 115.25544 
L 257.842295 113.672997 
L 258.48 110.563934 
L 259.117705 108.220578 
L 259.755409 106.828716 
L 260.393162 106.337176 
L 261.030867 106.545756 
L 261.668571 107.208291 
L 264.857143 111.491136 
L 266.132552 112.552158 
L 269.958877 115.028827 
L 270.596581 115.712216 
L 271.234286 115.803998 
L 273.785153 111.937757 
L 274.422857 111.76379 
L 275.060562 112.301549 
L 275.698266 113.503614 
L 276.336019 115.12419 
L 276.973724 115.527736 
L 277.611429 113.991986 
L 278.249133 112.775193 
L 278.886838 111.898472 
L 279.524591 111.309143 
L 280.8 110.650572 
L 282.713162 109.864887 
L 283.988571 108.925767 
L 284.626276 108.242802 
L 285.263981 107.38696 
L 286.539438 105.083196 
L 287.814847 101.966618 
L 289.72801 96.890259 
L 290.365714 95.951488 
L 291.003419 96.075637 
L 291.641123 97.783763 
L 292.278877 101.5033 
L 292.916581 107.375192 
L 293.554286 115.082174 
L 294.19199 108.589472 
L 294.829695 100.211442 
L 295.467448 93.63346 
L 296.105153 90.058079 
L 296.742857 89.922899 
L 297.380562 92.747728 
L 298.656019 102.909688 
L 299.931429 113.052576 
L 300.569133 115.221376 
L 301.844591 108.843723 
L 305.033162 95.333403 
L 306.308571 87.549322 
L 307.583981 77.274212 
L 310.134847 54.652443 
L 310.772552 51.119541 
L 311.410305 49.1909 
L 312.04801 48.86842 
L 312.685714 50.037487 
L 313.323419 52.634658 
L 313.961123 56.671932 
L 314.598877 62.095104 
L 317.787448 94.695544 
L 318.425153 99.125344 
L 319.062857 102.493375 
L 319.700562 104.898732 
L 320.338266 106.473735 
L 320.976019 107.34843 
L 321.613724 107.630545 
L 322.251429 107.396888 
L 322.889133 106.690273 
L 323.526838 105.520071 
L 324.164591 103.864076 
L 324.802295 101.671335 
L 325.44 98.866644 
L 326.077705 95.358996 
L 326.715409 91.058763 
L 327.990867 79.942918 
L 329.903981 60.346711 
L 330.541734 55.41171 
L 331.179438 52.356149 
L 331.817143 51.215918 
L 332.454847 51.504656 
L 333.092552 52.596313 
L 333.730305 54.214969 
L 334.36801 56.647898 
L 335.005714 60.522564 
L 335.643419 66.287366 
L 336.918877 82.282005 
L 338.194286 98.652401 
L 338.83199 105.36848 
L 339.469695 110.884517 
L 340.107448 115.320427 
L 340.745153 113.469159 
L 342.020562 107.902287 
L 343.933724 100.170113 
L 345.209133 93.286285 
L 345.846838 88.868417 
L 347.122295 77.630101 
L 349.673162 51.086684 
L 350.310867 46.959919 
L 350.948571 45.029647 
L 351.586276 45.33357 
L 352.223981 47.63488 
L 352.861734 51.672386 
L 353.499438 57.25263 
L 354.774847 71.863182 
L 356.050305 87.461625 
L 357.325714 99.98164 
L 357.963419 104.607402 
L 358.601123 108.221937 
L 359.238877 110.985017 
L 359.876581 113.076024 
L 360.514286 114.667379 
L 361.15199 115.910246 
L 361.789695 115.432873 
L 364.340562 111.652837 
L 364.978266 110.400255 
L 365.616019 108.880837 
L 366.253724 107.021759 
L 366.891429 104.756547 
L 368.166838 98.904961 
L 369.442295 92.190084 
L 370.08 89.701995 
L 370.717705 89.055587 
L 371.355409 91.359192 
L 371.993162 97.312755 
L 372.630867 106.732151 
L 373.268571 113.926108 
L 374.543981 91.228598 
L 375.181734 83.957759 
L 375.819438 80.846898 
L 376.457143 81.670573 
L 377.094847 85.309927 
L 379.00801 100.224887 
L 379.645714 103.978952 
L 380.283419 106.748013 
L 380.921123 108.598267 
L 381.558877 109.649578 
L 382.196581 110.027772 
L 382.834286 109.83925 
L 383.47199 109.164641 
L 384.109695 108.062568 
L 384.747448 106.581753 
L 386.022857 102.764255 
L 387.298266 98.940451 
L 387.936019 97.907558 
L 388.573724 98.186719 
L 389.211429 100.318017 
L 389.849133 104.575036 
L 390.486838 110.752141 
L 391.124591 114.253901 
L 392.4 100.462246 
L 393.037705 96.063123 
L 393.675409 94.000153 
L 394.313162 94.118845 
L 394.950867 95.88266 
L 396.226276 101.721781 
L 397.501734 107.493455 
L 398.777143 111.726993 
L 400.052552 114.548999 
L 400.690305 115.62019 
L 401.32801 115.791186 
L 403.241123 112.904361 
L 404.516581 110.315048 
L 405.79199 106.748821 
L 407.705153 100.650716 
L 408.342857 99.756007 
L 408.980562 100.557895 
L 409.618266 103.731671 
L 410.893724 115.431941 
L 412.169133 100.993663 
L 412.806838 96.824896 
L 413.444591 95.325058 
L 414.082295 96.019539 
L 414.082295 96.019539 
" clip-path="url(#p88f3ef0ca2)" style="fill: none; stroke: #0000cc; stroke-width: 1.5; stroke-linecap: square"/>
   </g>
   <g id="line2d_13">
    <path d="M 57.6 116.182588 
L 141.140562 116.173856 
L 154.532576 116.176565 
L 181.316581 116.152631 
L 185.142857 116.146085 
L 195.984005 115.865482 
L 197.259438 116.149965 
L 199.172576 115.689226 
L 200.44801 115.693828 
L 204.91199 116.091372 
L 208.738291 116.083826 
L 215.115409 115.874189 
L 216.390867 116.157307 
L 218.941734 115.707475 
L 220.854847 115.859124 
L 224.043419 116.117772 
L 228.507448 116.154019 
L 233.609133 116.007005 
L 237.435409 115.81481 
L 239.348571 116.051275 
L 240.623981 115.709292 
L 241.899438 115.689753 
L 246.363419 116.067401 
L 250.189695 116.022068 
L 254.016019 115.935038 
L 256.566838 116.072979 
L 258.48 115.858061 
L 260.393162 115.944089 
L 264.219438 116.166496 
L 273.147448 115.871842 
L 274.422857 116.15438 
L 276.973724 115.681318 
L 278.886838 115.820776 
L 282.075409 116.117124 
L 284.626276 116.156136 
L 289.72801 115.93555 
L 294.19199 115.596666 
L 294.829695 115.754257 
L 295.467448 116.031086 
L 296.105153 115.984851 
L 297.380562 115.4316 
L 298.018266 115.348042 
L 299.293724 115.48711 
L 301.844591 115.939753 
L 304.395409 116.082122 
L 307.583981 116.005683 
L 312.04801 115.780172 
L 313.323419 115.986032 
L 313.961123 116.175794 
L 315.874286 115.690695 
L 317.149695 115.665327 
L 323.526838 116.131507 
L 331.179438 116.139673 
L 335.005714 116.110124 
L 336.281123 116.143878 
L 338.83199 116.046454 
L 345.846838 115.96471 
L 350.948571 115.750662 
L 352.223981 115.964829 
L 352.861734 116.168171 
L 354.774847 115.627676 
L 356.050305 115.619686 
L 360.514286 116.11764 
L 366.253724 115.574505 
L 368.166838 115.090979 
L 369.442295 114.541818 
L 370.717705 113.750561 
L 372.630867 112.478451 
L 373.268571 112.432513 
L 373.906276 112.921973 
L 374.543981 114.141099 
L 375.181734 116.046374 
L 376.457143 112.329514 
L 377.094847 111.305489 
L 377.732552 111.145236 
L 378.370305 111.619647 
L 380.921123 114.703019 
L 382.196581 115.552364 
L 383.47199 115.937525 
L 384.747448 116.02759 
L 386.022857 115.928594 
L 387.936019 115.515326 
L 390.486838 114.797346 
L 391.124591 114.786488 
L 391.762295 114.955109 
L 392.4 115.333364 
L 393.037705 115.890555 
L 393.675409 115.836163 
L 394.950867 114.802692 
L 395.588571 114.55203 
L 396.226276 114.475946 
L 397.501734 114.651606 
L 400.052552 115.193176 
L 401.965714 115.323335 
L 403.878877 115.214857 
L 406.429695 114.769981 
L 408.342857 114.463916 
L 408.980562 114.515825 
L 409.618266 114.744083 
L 410.256019 115.208476 
L 410.893724 115.921055 
L 411.531429 115.564409 
L 412.169133 114.703727 
L 412.806838 114.079179 
L 413.444591 113.827845 
L 414.082295 113.949017 
L 414.082295 113.949017 
" clip-path="url(#p88f3ef0ca2)" style="fill: none; stroke-dasharray: 9.6,2.4,1.5,2.4; stroke-dashoffset: 0; stroke: #ff0000; stroke-width: 1.5"/>
   </g>
   <g id="patch_3">
    <path d="M 57.6 119.740235 
L 57.6 41.472 
" style="fill: none; stroke: #000000; stroke-width: 0.8; stroke-linejoin: miter; stroke-linecap: square"/>
   </g>
   <g id="patch_4">
    <path d="M 414.72 119.740235 
L 414.72 41.472 
" style="fill: none; stroke: #000000; stroke-width: 0.8; stroke-linejoin: miter; stroke-linecap: square"/>
   </g>
   <g id="patch_5">
    <path d="M 57.6 119.740235 
L 414.72 119.740235 
" style="fill: none; stroke: #000000; stroke-width: 0.8; stroke-linejoin: miter; stroke-linecap: square"/>
   </g>
   <g id="patch_6">
    <path d="M 57.6 41.472 
L 414.72 41.472 
" style="fill: none; stroke: #000000; stroke-width: 0.8; stroke-linejoin: miter; stroke-linecap: square"/>
   </g>
  </g>
  <g id="axes_2">
   <g id="patch_7">
    <path d="M 57.6 213.662118 
L 414.72 213.662118 
L 414.72 135.393882 
L 57.6 135.393882 
z
" style="fill: #ffffff"/>
   </g>
   <g id="matplotlib.axis_3">
    <g id="xtick_9">
     <g id="line2d_14">
      <g>
       <use xlink:href="#m1ea2e0268b" x="57.6" y="213.662118" style="stroke: #000000; stroke-width: 0.8"/>
      </g>
     </g>
    </g>
    <g id="xtick_10">
     <g id="line2d_15">
      <g>
       <use xlink:href="#m1ea2e0268b" x="108.617143" y="213.662118" style="stroke: #000000; stroke-width: 0.8"/>
      </g>
     </g>
    </g>
    <g id="xtick_11">
     <g id="line2d_16">
      <g>
       <use xlink:href="#m1ea2e0268b" x="159.634286" y="213.662118" style="stroke: #000000; stroke-width: 0.8"/>
      </g>
     </g>
    </g>
    <g id="xtick_12">
     <g id="line2d_17">
      <g>
       <use xlink:href="#m1ea2e0268b" x="210.651429" y="213.662118" style="stroke: #000000; stroke-width: 0.8"/>
      </g>
     </g>
    </g>
    <g id="xtick_13">
     <g id="line2d_18">
      <g>
       <use xlink:href="#m1ea2e0268b" x="261.668571" y="213.662118" style="stroke: #000000; stroke-width: 0.8"/>
      </g>
     </g>
    </g>
    <g id="xtick_14">
     <g id="line2d_19">
      <g>
       <use xlink:href="#m1ea2e0268b" x="312.685714" y="213.662118" style="stroke: #000000; stroke-width: 0.8"/>
      </g>
     </g>
    </g>
    <g id="xtick_15">
     <g id="line2d_20">
      <g>
       <use xlink:href="#m1ea2e0268b" x="363.702857" y="213.662118" style="stroke: #000000; stroke-width: 0.8"/>
      </g>
     </g>
    </g>
    <g id="xtick_16">
     <g id="line2d_21">
      <g>
       <use xlink:href="#m1ea2e0268b" x="414.72" y="213.662118" style="stroke: #000000; stroke-width: 0.8"/>
      </g>
     </g>
    </g>
   </g>
   <g id="matplotlib.axis_4">
    <g id="ytick_4">
     <g id="line2d_22">
      <g>
       <use xlink:href="#m34948c54d7" x="57.6" y="210.104471" style="stroke: #000000; stroke-width: 0.8"/>
      </g>
     </g>
     <g id="text_4">
      <!-- 0 -->
      <g transform="translate(44.2375 213.903689)scale(0.1 -0.1)">
       <use xlink:href="#DejaVuSans-30"/>
      </g>
     </g>
    </g>
    <g id="ytick_5">
     <g id="line2d_23">
      <g>
       <use xlink:href="#m34948c54d7" x="57.6" y="163.535522" style="stroke: #000000; stroke-width: 0.8"/>
      </g>
     </g>
     <g id="text_5">
      <!-- 20 -->
      <g transform="translate(37.875 167.334741)scale(0.1 -0.1)">
       <use xlink:href="#DejaVuSans-32"/>
       <use xlink:href="#DejaVuSans-30" x="63.623047"/>
      </g>
     </g>
    </g>
   </g>
   <g id="line2d_24">
    <path d="M 57.6 210.104471 
L 83.108571 209.973724 
L 86.297143 209.690668 
L 88.210281 209.461846 
L 88.84801 209.494113 
L 89.485714 209.694485 
L 90.123419 210.07711 
L 91.398852 208.913788 
L 92.036581 208.717942 
L 92.674286 208.901266 
L 93.949719 209.708719 
L 95.225153 210.101788 
L 96.500562 210.031547 
L 100.326862 210.025216 
L 104.153138 209.934278 
L 106.704005 210.006405 
L 108.617143 209.825928 
L 111.16801 209.972115 
L 114.356581 210.089251 
L 122.009133 209.996488 
L 123.284567 210.058391 
L 125.197705 209.855992 
L 127.110867 209.921222 
L 130.937143 210.094476 
L 134.763419 210.049193 
L 139.227424 210.005288 
L 140.502857 210.085424 
L 142.415995 209.918764 
L 144.966862 209.989661 
L 149.430867 210.068109 
L 167.286862 209.988785 
L 173.664005 209.881219 
L 174.939438 210.100402 
L 176.852576 209.586048 
L 177.490281 209.54899 
L 178.765714 209.771088 
L 180.041148 210.061558 
L 185.142857 209.887329 
L 188.331429 209.648627 
L 190.244567 209.306484 
L 194.070867 208.360199 
L 194.708571 208.595046 
L 195.984005 209.878453 
L 197.259438 207.151942 
L 197.897143 206.499603 
L 198.534847 206.737781 
L 201.085714 210.017134 
L 202.998852 209.690239 
L 212.564591 209.845058 
L 213.84 210.012105 
L 215.753162 209.185562 
L 216.390867 209.145488 
L 217.028571 209.339034 
L 218.303981 210.068137 
L 219.579438 209.655477 
L 220.854847 209.517996 
L 224.043419 209.365697 
L 225.956581 209.021332 
L 227.23199 208.596952 
L 228.507448 207.920905 
L 229.782857 206.84581 
L 230.420562 206.088275 
L 231.058266 205.131851 
L 231.696019 203.926107 
L 232.333724 202.412668 
L 232.971429 200.52891 
L 233.609133 198.22078 
L 234.884591 192.350012 
L 236.16 186.464416 
L 236.797705 185.53223 
L 237.435409 188.125214 
L 238.073162 196.142835 
L 238.710867 209.912517 
L 239.986276 174.242238 
L 240.623981 163.468679 
L 241.261734 162.781502 
L 241.899438 171.280298 
L 243.174847 196.887619 
L 243.812552 205.84116 
L 244.450305 209.230076 
L 245.08801 206.951369 
L 245.725714 206.446943 
L 246.363419 206.887837 
L 247.638877 208.850965 
L 248.276581 210.002037 
L 248.914286 209.016852 
L 250.827448 205.131222 
L 252.102857 202.39867 
L 252.740562 201.307216 
L 253.378266 200.770382 
L 254.016019 201.201686 
L 254.653724 203.015374 
L 255.291429 206.411565 
L 255.929133 209.094151 
L 257.204591 199.523148 
L 257.842295 196.825448 
L 258.48 196.180094 
L 259.117705 197.235736 
L 261.668571 205.339281 
L 262.306276 206.541404 
L 262.943981 207.343937 
L 263.581734 207.845674 
L 264.857143 208.319504 
L 267.40801 208.892617 
L 268.045714 209.204591 
L 268.683419 209.661137 
L 269.321123 209.90613 
L 269.958877 209.044703 
L 271.234286 206.682931 
L 271.87199 205.391164 
L 272.509695 204.385873 
L 273.147448 204.100321 
L 273.785153 204.938609 
L 274.422857 206.996008 
L 275.060562 209.859511 
L 276.336019 205.260494 
L 276.973724 204.037388 
L 277.611429 203.66077 
L 278.249133 203.801732 
L 279.524591 204.474465 
L 280.162295 204.677261 
L 280.8 204.70539 
L 281.437705 204.546529 
L 282.075409 204.201856 
L 282.713162 203.673987 
L 283.350867 202.961456 
L 283.988571 202.057142 
L 285.263981 199.627643 
L 286.539438 196.340685 
L 288.452552 190.801876 
L 289.090305 189.675873 
L 289.72801 189.712887 
L 290.365714 191.631285 
L 291.003419 196.142166 
L 291.641123 203.648539 
L 292.278877 206.323682 
L 293.554286 183.115548 
L 294.19199 174.56597 
L 294.829695 171.12526 
L 295.467448 173.950376 
L 296.105153 182.218714 
L 297.380562 203.814842 
L 298.018266 208.199634 
L 298.656019 202.814087 
L 299.293724 199.664899 
L 299.931429 197.912901 
L 302.482295 193.418465 
L 303.12 191.47295 
L 303.757705 188.918188 
L 304.395409 185.670079 
L 305.033162 181.661718 
L 306.308571 171.292875 
L 308.221734 152.652091 
L 308.859438 147.789627 
L 309.497143 144.968052 
L 310.134847 144.692512 
L 310.772552 146.821838 
L 311.410305 150.675087 
L 312.04801 155.57287 
L 312.685714 161.346432 
L 313.323419 168.26305 
L 315.874286 200.287692 
L 316.51199 204.965025 
L 317.149695 207.654857 
L 317.787448 208.785627 
L 318.425153 208.850024 
L 319.062857 208.252228 
L 319.700562 207.263577 
L 320.976019 204.627353 
L 322.251429 201.215862 
L 322.889133 199.087773 
L 323.526838 196.551343 
L 324.164591 193.48713 
L 324.802295 189.763155 
L 325.44 185.247094 
L 326.715409 173.492466 
L 328.628571 151.941127 
L 329.266276 146.758337 
L 329.903981 144.62445 
L 330.541734 146.057244 
L 332.454847 158.885241 
L 333.730305 164.9891 
L 334.36801 170.705778 
L 335.005714 179.72659 
L 336.281123 201.969123 
L 336.918877 209.459815 
L 337.556581 203.638673 
L 338.194286 200.36149 
L 338.83199 198.77128 
L 339.469695 198.057341 
L 340.745153 197.102351 
L 341.382857 196.246664 
L 342.020562 194.913162 
L 342.658266 192.994808 
L 343.296019 190.397132 
L 343.933724 187.024489 
L 344.571429 182.779293 
L 345.209133 177.578853 
L 346.484591 164.323951 
L 347.76 149.206654 
L 348.397705 142.935121 
L 349.035409 139.186047 
L 349.673162 138.951529 
L 350.310867 142.299828 
L 350.948571 148.284458 
L 352.223981 163.742608 
L 354.774847 199.742459 
L 355.412552 206.13961 
L 356.050305 209.831503 
L 356.68801 207.446018 
L 357.325714 206.376627 
L 357.963419 206.099808 
L 358.601123 206.21395 
L 359.876581 206.6525 
L 360.514286 206.726917 
L 361.15199 206.626884 
L 361.789695 206.324064 
L 362.427448 205.795286 
L 363.065153 205.013369 
L 363.702857 203.94155 
L 364.340562 202.531065 
L 364.978266 200.721645 
L 365.616019 198.447687 
L 366.253724 195.653179 
L 367.529133 188.565214 
L 368.804591 181.424516 
L 369.442295 180.016512 
L 370.08 182.223227 
L 370.717705 189.727739 
L 371.355409 203.008241 
L 371.993162 199.82993 
L 372.630867 181.919742 
L 373.268571 167.411453 
L 373.906276 159.269644 
L 374.543981 158.918283 
L 375.181734 165.831674 
L 377.094847 199.614858 
L 377.732552 206.211219 
L 378.370305 209.689248 
L 379.00801 209.274904 
L 379.645714 209.411783 
L 380.283419 209.882731 
L 381.558877 206.982356 
L 382.834286 203.353215 
L 384.109695 199.023775 
L 386.022857 192.037776 
L 386.660562 190.657673 
L 387.298266 190.7944 
L 387.936019 193.315533 
L 388.573724 198.889117 
L 389.211429 207.498043 
L 389.849133 202.131182 
L 390.486838 191.558161 
L 391.124591 183.217578 
L 391.762295 178.768433 
L 392.4 178.765072 
L 393.037705 182.559086 
L 394.950867 201.073901 
L 395.588571 205.499516 
L 396.226276 208.481908 
L 396.863981 209.911568 
L 397.501734 208.901553 
L 398.139438 208.374432 
L 400.690305 207.246431 
L 401.32801 206.714378 
L 401.965714 205.974825 
L 402.603419 204.986895 
L 403.241123 203.709675 
L 403.878877 202.106986 
L 405.154286 197.906741 
L 406.429695 193.235836 
L 407.067448 191.816943 
L 407.705153 192.264841 
L 408.342857 195.841549 
L 408.980562 203.441032 
L 409.618266 205.57172 
L 410.256019 193.115329 
L 410.893724 182.966065 
L 411.531429 178.084866 
L 412.169133 179.192442 
L 412.806838 184.662994 
L 414.082295 198.412185 
L 414.082295 198.412185 
" clip-path="url(#pe3db22f943)" style="fill: none; stroke: #0000cc; stroke-width: 1.5; stroke-linecap: square"/>
   </g>
   <g id="line2d_25">
    <path d="M 57.6 210.104471 
L 87.572576 209.984787 
L 89.485714 210.02108 
L 90.123419 210.101807 
L 92.036581 209.820847 
L 97.775995 210.094269 
L 106.704005 210.08767 
L 110.530281 210.063699 
L 117.545153 210.082973 
L 131.574847 210.101822 
L 173.664005 210.05822 
L 175.577143 210.05619 
L 177.490281 209.980246 
L 183.229719 210.060564 
L 189.606862 209.93247 
L 194.708571 209.74015 
L 195.984005 210.00242 
L 197.259438 209.322643 
L 198.534847 209.286757 
L 201.723419 210.083072 
L 206.187424 210.059235 
L 211.289133 209.795903 
L 213.202295 209.703786 
L 214.477705 209.88935 
L 215.115409 210.085186 
L 216.390867 209.502389 
L 217.028571 209.344321 
L 217.666276 209.358138 
L 220.854847 210.078528 
L 227.23199 210.0837 
L 232.333724 209.926188 
L 236.16 209.673779 
L 236.797705 209.762699 
L 237.435409 209.994109 
L 238.073162 209.85971 
L 238.710867 209.482606 
L 239.348571 209.239171 
L 239.986276 209.231352 
L 243.174847 210.072228 
L 245.08801 210.096127 
L 253.378266 209.89597 
L 254.653724 210.059555 
L 256.566838 209.620337 
L 257.842295 209.682665 
L 260.393162 210.077049 
L 263.581734 210.015305 
L 268.045714 209.845266 
L 271.234286 209.695793 
L 272.509695 209.92034 
L 273.147448 210.045657 
L 274.422857 209.50187 
L 275.060562 209.329942 
L 275.698266 209.322807 
L 276.973724 209.639143 
L 278.249133 209.964804 
L 279.524591 210.092449 
L 282.713162 210.043573 
L 287.177143 209.943279 
L 290.365714 209.635468 
L 292.278877 209.401997 
L 292.916581 209.423398 
L 293.554286 209.584375 
L 294.19199 209.940481 
L 294.829695 209.728933 
L 295.467448 209.146498 
L 296.105153 208.753269 
L 296.742857 208.710002 
L 297.380562 208.968971 
L 298.656019 209.695482 
L 299.931429 210.073291 
L 305.033162 210.010683 
L 311.410305 209.742233 
L 312.685714 210.04415 
L 313.961123 209.425619 
L 314.598877 209.274218 
L 315.236581 209.291776 
L 319.062857 210.082538 
L 322.889133 210.103954 
L 335.643419 209.922771 
L 336.918877 209.890216 
L 340.745153 210.004045 
L 345.209133 209.867282 
L 349.673162 209.637488 
L 350.948571 209.9 
L 351.586276 210.044409 
L 352.861734 209.369929 
L 353.499438 209.169664 
L 354.137143 209.170527 
L 355.412552 209.605567 
L 356.68801 210.050152 
L 362.427448 209.794805 
L 364.978266 209.514425 
L 366.891429 209.022717 
L 368.166838 208.460975 
L 369.442295 207.630338 
L 371.355409 206.104613 
L 371.993162 205.892952 
L 372.630867 206.252186 
L 373.268571 207.58617 
L 373.906276 210.038175 
L 375.181734 203.092528 
L 375.819438 201.378813 
L 376.457143 201.989756 
L 378.370305 208.581871 
L 379.00801 209.82782 
L 379.645714 209.731825 
L 380.283419 209.474666 
L 380.921123 209.441657 
L 382.196581 209.653344 
L 384.109695 210.104236 
L 386.660562 209.399458 
L 389.211429 208.541132 
L 389.849133 208.499446 
L 390.486838 208.682889 
L 391.124591 209.177015 
L 391.762295 209.990578 
L 393.675409 207.699774 
L 394.313162 207.563359 
L 394.950867 207.799501 
L 396.863981 209.047407 
L 398.139438 209.479197 
L 399.414847 209.590969 
L 401.32801 209.471408 
L 403.878877 209.055742 
L 407.067448 208.387632 
L 407.705153 208.412633 
L 408.342857 208.631499 
L 408.980562 209.145454 
L 409.618266 210.033813 
L 410.256019 208.941036 
L 410.893724 207.594654 
L 411.531429 206.571195 
L 412.169133 206.292752 
L 412.806838 206.859496 
L 414.082295 209.167966 
L 414.082295 209.167966 
" clip-path="url(#pe3db22f943)" style="fill: none; stroke-dasharray: 9.6,2.4,1.5,2.4; stroke-dashoffset: 0; stroke: #ff0000; stroke-width: 1.5"/>
   </g>
   <g id="patch_8">
    <path d="M 57.6 213.662118 
L 57.6 135.393882 
" style="fill: none; stroke: #000000; stroke-width: 0.8; stroke-linejoin: miter; stroke-linecap: square"/>
   </g>
   <g id="patch_9">
    <path d="M 414.72 213.662118 
L 414.72 135.393882 
" style="fill: none; stroke: #000000; stroke-width: 0.8; stroke-linejoin: miter; stroke-linecap: square"/>
   </g>
   <g id="patch_10">
    <path d="M 57.6 213.662118 
L 414.72 213.662118 
" style="fill: none; stroke: #000000; stroke-width: 0.8; stroke-linejoin: miter; stroke-linecap: square"/>
   </g>
   <g id="patch_11">
    <path d="M 57.6 135.393882 
L 414.72 135.393882 
" style="fill: none; stroke: #000000; stroke-width: 0.8; stroke-linejoin: miter; stroke-linecap: square"/>
   </g>
  </g>
  <g id="axes_3">
   <g id="patch_12">
    <path d="M 57.6 307.584 
L 414.72 307.584 
L 414.72 229.315765 
L 57.6 229.315765 
z
" style="fill: #ffffff"/>
   </g>
   <g id="matplotlib.axis_5">
    <g id="xtick_17">
     <g id="line2d_26">
      <g>
       <use xlink:href="#m1ea2e0268b" x="57.6" y="307.584" style="stroke: #000000; stroke-width: 0.8"/>
      </g>
     </g>
     <g id="text_6">
      <!-- 10 -->
      <g transform="translate(51.2375 322.182437)scale(0.1 -0.1)">
       <use xlink:href="#DejaVuSans-31"/>
       <use xlink:href="#DejaVuSans-30" x="63.623047"/>
      </g>
     </g>
    </g>
    <g id="xtick_18">
     <g id="line2d_27">
      <g>
       <use xlink:href="#m1ea2e0268b" x="108.617143" y="307.584" style="stroke: #000000; stroke-width: 0.8"/>
      </g>
     </g>
     <g id="text_7">
      <!-- 12 -->
      <g transform="translate(102.254643 322.182437)scale(0.1 -0.1)">
       <use xlink:href="#DejaVuSans-31"/>
       <use xlink:href="#DejaVuSans-32" x="63.623047"/>
      </g>
     </g>
    </g>
    <g id="xtick_19">
     <g id="line2d_28">
      <g>
       <use xlink:href="#m1ea2e0268b" x="159.634286" y="307.584" style="stroke: #000000; stroke-width: 0.8"/>
      </g>
     </g>
     <g id="text_8">
      <!-- 14 -->
      <g transform="translate(153.271786 322.182437)scale(0.1 -0.1)">
       <defs>
        <path id="DejaVuSans-34" d="M 2419 4116 
L 825 1625 
L 2419 1625 
L 2419 4116 
z
M 2253 4666 
L 3047 4666 
L 3047 1625 
L 3713 1625 
L 3713 1100 
L 3047 1100 
L 3047 0 
L 2419 0 
L 2419 1100 
L 313 1100 
L 313 1709 
L 2253 4666 
z
" transform="scale(0.015625)"/>
       </defs>
       <use xlink:href="#DejaVuSans-31"/>
       <use xlink:href="#DejaVuSans-34" x="63.623047"/>
      </g>
     </g>
    </g>
    <g id="xtick_20">
     <g id="line2d_29">
      <g>
       <use xlink:href="#m1ea2e0268b" x="210.651429" y="307.584" style="stroke: #000000; stroke-width: 0.8"/>
      </g>
     </g>
     <g id="text_9">
      <!-- 16 -->
      <g transform="translate(204.288929 322.182437)scale(0.1 -0.1)">
       <defs>
        <path id="DejaVuSans-36" d="M 2113 2584 
Q 1688 2584 1439 2293 
Q 1191 2003 1191 1497 
Q 1191 994 1439 701 
Q 1688 409 2113 409 
Q 2538 409 2786 701 
Q 3034 994 3034 1497 
Q 3034 2003 2786 2293 
Q 2538 2584 2113 2584 
z
M 3366 4563 
L 3366 3988 
Q 3128 4100 2886 4159 
Q 2644 4219 2406 4219 
Q 1781 4219 1451 3797 
Q 1122 3375 1075 2522 
Q 1259 2794 1537 2939 
Q 1816 3084 2150 3084 
Q 2853 3084 3261 2657 
Q 3669 2231 3669 1497 
Q 3669 778 3244 343 
Q 2819 -91 2113 -91 
Q 1303 -91 875 529 
Q 447 1150 447 2328 
Q 447 3434 972 4092 
Q 1497 4750 2381 4750 
Q 2619 4750 2861 4703 
Q 3103 4656 3366 4563 
z
" transform="scale(0.015625)"/>
       </defs>
       <use xlink:href="#DejaVuSans-31"/>
       <use xlink:href="#DejaVuSans-36" x="63.623047"/>
      </g>
     </g>
    </g>
    <g id="xtick_21">
     <g id="line2d_30">
      <g>
       <use xlink:href="#m1ea2e0268b" x="261.668571" y="307.584" style="stroke: #000000; stroke-width: 0.8"/>
      </g>
     </g>
     <g id="text_10">
      <!-- 18 -->
      <g transform="translate(255.306071 322.182437)scale(0.1 -0.1)">
       <defs>
        <path id="DejaVuSans-38" d="M 2034 2216 
Q 1584 2216 1326 1975 
Q 1069 1734 1069 1313 
Q 1069 891 1326 650 
Q 1584 409 2034 409 
Q 2484 409 2743 651 
Q 3003 894 3003 1313 
Q 3003 1734 2745 1975 
Q 2488 2216 2034 2216 
z
M 1403 2484 
Q 997 2584 770 2862 
Q 544 3141 544 3541 
Q 544 4100 942 4425 
Q 1341 4750 2034 4750 
Q 2731 4750 3128 4425 
Q 3525 4100 3525 3541 
Q 3525 3141 3298 2862 
Q 3072 2584 2669 2484 
Q 3125 2378 3379 2068 
Q 3634 1759 3634 1313 
Q 3634 634 3220 271 
Q 2806 -91 2034 -91 
Q 1263 -91 848 271 
Q 434 634 434 1313 
Q 434 1759 690 2068 
Q 947 2378 1403 2484 
z
M 1172 3481 
Q 1172 3119 1398 2916 
Q 1625 2713 2034 2713 
Q 2441 2713 2670 2916 
Q 2900 3119 2900 3481 
Q 2900 3844 2670 4047 
Q 2441 4250 2034 4250 
Q 1625 4250 1398 4047 
Q 1172 3844 1172 3481 
z
" transform="scale(0.015625)"/>
       </defs>
       <use xlink:href="#DejaVuSans-31"/>
       <use xlink:href="#DejaVuSans-38" x="63.623047"/>
      </g>
     </g>
    </g>
    <g id="xtick_22">
     <g id="line2d_31">
      <g>
       <use xlink:href="#m1ea2e0268b" x="312.685714" y="307.584" style="stroke: #000000; stroke-width: 0.8"/>
      </g>
     </g>
     <g id="text_11">
      <!-- 20 -->
      <g transform="translate(306.323214 322.182437)scale(0.1 -0.1)">
       <use xlink:href="#DejaVuSans-32"/>
       <use xlink:href="#DejaVuSans-30" x="63.623047"/>
      </g>
     </g>
    </g>
    <g id="xtick_23">
     <g id="line2d_32">
      <g>
       <use xlink:href="#m1ea2e0268b" x="363.702857" y="307.584" style="stroke: #000000; stroke-width: 0.8"/>
      </g>
     </g>
     <g id="text_12">
      <!-- 22 -->
      <g transform="translate(357.340357 322.182437)scale(0.1 -0.1)">
       <use xlink:href="#DejaVuSans-32"/>
       <use xlink:href="#DejaVuSans-32" x="63.623047"/>
      </g>
     </g>
    </g>
    <g id="xtick_24">
     <g id="line2d_33">
      <g>
       <use xlink:href="#m1ea2e0268b" x="414.72" y="307.584" style="stroke: #000000; stroke-width: 0.8"/>
      </g>
     </g>
     <g id="text_13">
      <!-- 24 -->
      <g transform="translate(408.3575 322.182437)scale(0.1 -0.1)">
       <use xlink:href="#DejaVuSans-32"/>
       <use xlink:href="#DejaVuSans-34" x="63.623047"/>
      </g>
     </g>
    </g>
   </g>
   <g id="matplotlib.axis_6">
    <g id="ytick_6">
     <g id="line2d_34">
      <g>
       <use xlink:href="#m34948c54d7" x="57.6" y="304.026353" style="stroke: #000000; stroke-width: 0.8"/>
      </g>
     </g>
     <g id="text_14">
      <!-- 0 -->
      <g transform="translate(44.2375 307.825572)scale(0.1 -0.1)">
       <use xlink:href="#DejaVuSans-30"/>
      </g>
     </g>
    </g>
    <g id="ytick_7">
     <g id="line2d_35">
      <g>
       <use xlink:href="#m34948c54d7" x="57.6" y="276.922566" style="stroke: #000000; stroke-width: 0.8"/>
      </g>
     </g>
     <g id="text_15">
      <!-- 10 -->
      <g transform="translate(37.875 280.721785)scale(0.1 -0.1)">
       <use xlink:href="#DejaVuSans-31"/>
       <use xlink:href="#DejaVuSans-30" x="63.623047"/>
      </g>
     </g>
    </g>
    <g id="ytick_8">
     <g id="line2d_36">
      <g>
       <use xlink:href="#m34948c54d7" x="57.6" y="249.818779" style="stroke: #000000; stroke-width: 0.8"/>
      </g>
     </g>
     <g id="text_16">
      <!-- 20 -->
      <g transform="translate(37.875 253.617998)scale(0.1 -0.1)">
       <use xlink:href="#DejaVuSans-32"/>
       <use xlink:href="#DejaVuSans-30" x="63.623047"/>
      </g>
     </g>
    </g>
   </g>
   <g id="line2d_37">
    <path d="M 57.6 304.026353 
L 85.659438 303.893048 
L 86.934847 303.71084 
L 88.210281 303.29008 
L 90.123419 302.282767 
L 90.761148 302.332062 
L 91.398852 302.848683 
L 92.036581 303.634535 
L 92.674286 303.709043 
L 93.31199 303.306528 
L 93.949719 303.225534 
L 100.326862 303.849169 
L 103.515433 303.929001 
L 106.066276 303.654555 
L 107.341709 303.712018 
L 109.254847 304.013861 
L 111.16801 303.806684 
L 114.356581 303.785934 
L 118.820562 303.952003 
L 120.095995 303.988079 
L 123.284567 303.686238 
L 124.56 303.787819 
L 125.835433 303.997804 
L 130.937143 303.813711 
L 136.676581 303.965318 
L 137.95199 303.984146 
L 140.502857 303.77322 
L 142.415995 303.914431 
L 143.691429 303.991453 
L 146.242295 303.879957 
L 155.80801 303.899296 
L 158.358852 303.957421 
L 160.27199 303.905186 
L 165.373724 303.994106 
L 171.113138 303.806658 
L 173.664005 303.455389 
L 174.939438 303.281376 
L 176.214847 303.408155 
L 177.490281 303.926425 
L 178.12801 303.858779 
L 179.403419 303.591919 
L 181.316581 303.646608 
L 187.055995 303.914254 
L 189.606862 303.947954 
L 190.882295 303.719599 
L 192.157705 303.248296 
L 192.795433 302.850813 
L 193.433138 302.2994 
L 194.708571 300.714057 
L 195.346276 299.866236 
L 195.984005 299.339989 
L 196.621709 299.529546 
L 197.259438 300.665646 
L 197.897143 302.512062 
L 198.534847 303.644589 
L 199.172576 302.310597 
L 199.810281 301.693275 
L 200.44801 301.597224 
L 201.723419 301.996417 
L 202.998852 302.395128 
L 204.91199 302.735951 
L 208.100562 302.99945 
L 210.651429 302.977457 
L 214.477705 302.717648 
L 215.115409 302.963258 
L 216.390867 303.983764 
L 217.666276 303.194138 
L 218.303981 303.087365 
L 219.579438 303.292698 
L 221.492552 303.632638 
L 224.043419 303.778136 
L 227.869695 303.755261 
L 229.782857 303.549473 
L 231.058266 303.154322 
L 231.696019 302.782517 
L 232.333724 302.204338 
L 232.971429 301.302999 
L 233.609133 299.897499 
L 234.246838 297.714573 
L 234.884591 294.360422 
L 235.522295 289.316877 
L 236.16 282.022734 
L 236.797705 272.155487 
L 238.073162 248.360894 
L 238.710867 240.653717 
L 239.348571 241.804873 
L 239.986276 254.285576 
L 241.261734 300.778977 
L 242.537143 274.991361 
L 243.174847 271.612039 
L 243.812552 273.352237 
L 245.08801 280.529256 
L 245.725714 283.454792 
L 246.363419 285.692316 
L 247.638877 288.828876 
L 250.189695 293.977297 
L 250.827448 295.675619 
L 251.465153 297.778197 
L 252.102857 300.427492 
L 252.740562 303.745939 
L 253.378266 300.285736 
L 255.291429 287.382836 
L 255.929133 285.492083 
L 256.566838 286.247408 
L 257.204591 289.675945 
L 258.48 300.738987 
L 259.117705 302.13781 
L 259.755409 298.206529 
L 260.393162 295.601885 
L 261.030867 294.082287 
L 261.668571 293.315523 
L 262.306276 293.014256 
L 262.943981 292.97562 
L 264.219438 293.237214 
L 267.40801 294.098638 
L 268.683419 294.397872 
L 269.321123 294.631018 
L 269.958877 295.024199 
L 270.596581 295.711506 
L 271.234286 296.872272 
L 271.87199 298.701312 
L 272.509695 301.316105 
L 273.147448 303.446174 
L 274.422857 297.089034 
L 275.060562 295.61216 
L 275.698266 295.80994 
L 276.336019 297.311201 
L 277.611429 301.45297 
L 278.249133 303.1431 
L 278.886838 303.642944 
L 279.524591 302.72856 
L 280.8 301.535288 
L 283.350867 299.708578 
L 283.988571 299.089018 
L 284.626276 298.302573 
L 285.263981 297.274826 
L 285.901734 295.907623 
L 286.539438 294.072162 
L 287.177143 291.60537 
L 287.814847 288.314954 
L 288.452552 284.001905 
L 289.090305 278.521577 
L 290.365714 264.496579 
L 291.003419 257.197604 
L 291.641123 251.461302 
L 292.278877 249.120366 
L 292.916581 251.882207 
L 293.554286 260.704123 
L 294.19199 275.255089 
L 294.829695 293.584767 
L 295.467448 295.804319 
L 296.105153 280.689441 
L 296.742857 271.614349 
L 297.380562 268.540904 
L 298.018266 269.567253 
L 299.293724 275.837475 
L 300.569133 281.553256 
L 301.844591 285.857423 
L 303.757705 291.739723 
L 304.395409 294.044484 
L 305.033162 296.776697 
L 306.308571 303.633183 
L 306.946276 298.19069 
L 307.583981 291.366117 
L 310.134847 258.967436 
L 310.772552 256.789246 
L 311.410305 260.291182 
L 312.04801 269.492601 
L 313.323419 298.06646 
L 313.961123 295.933246 
L 314.598877 285.158922 
L 315.236581 278.559245 
L 315.874286 275.703771 
L 316.51199 275.435533 
L 317.149695 276.568751 
L 320.338266 284.896629 
L 323.526838 291.92655 
L 324.164591 293.633376 
L 324.802295 295.680414 
L 325.44 298.270808 
L 326.077705 301.695914 
L 326.715409 301.700744 
L 327.353162 295.324258 
L 327.990867 286.739526 
L 328.628571 275.712094 
L 330.541734 238.660314 
L 331.179438 233.704534 
L 331.817143 236.584052 
L 332.454847 247.366932 
L 333.092552 264.488946 
L 333.730305 285.438757 
L 334.36801 301.077909 
L 335.005714 282.612756 
L 335.643419 270.092333 
L 336.281123 264.24005 
L 336.918877 263.595947 
L 337.556581 265.846385 
L 339.469695 275.257607 
L 340.745153 279.892259 
L 343.933724 289.568204 
L 344.571429 292.069497 
L 345.209133 295.169628 
L 346.484591 303.610784 
L 347.122295 296.693916 
L 347.76 287.929881 
L 349.673162 258.333724 
L 350.310867 254.459381 
L 350.948571 257.40053 
L 351.586276 267.223153 
L 352.861734 298.005237 
L 353.499438 295.679689 
L 354.137143 285.260946 
L 354.774847 279.326279 
L 355.412552 277.073428 
L 356.050305 277.162788 
L 356.68801 278.412431 
L 359.238877 284.759896 
L 361.15199 288.47092 
L 364.340562 294.22056 
L 364.978266 295.703756 
L 365.616019 297.54143 
L 366.253724 299.950635 
L 366.891429 303.251134 
L 367.529133 300.163871 
L 368.166838 293.628283 
L 368.804591 284.630034 
L 369.442295 272.916192 
L 370.717705 245.411999 
L 371.355409 235.401377 
L 371.993162 232.873412 
L 372.630867 239.828807 
L 373.268571 255.547191 
L 374.543981 300.443919 
L 375.819438 273.206631 
L 376.457143 266.688686 
L 377.094847 265.981577 
L 377.732552 268.432504 
L 379.645714 278.313053 
L 380.921123 283.092728 
L 382.834286 289.427793 
L 383.47199 291.881464 
L 384.109695 294.783039 
L 384.747448 298.355106 
L 385.385153 302.85968 
L 386.022857 299.490578 
L 386.660562 292.421799 
L 388.573724 267.016975 
L 389.211429 261.565869 
L 389.849133 260.714627 
L 390.486838 265.437927 
L 391.124591 275.243688 
L 392.4 302.02151 
L 393.675409 285.266468 
L 394.313162 280.13119 
L 394.950867 277.992931 
L 395.588571 277.838206 
L 396.226276 278.747413 
L 400.690305 288.082213 
L 402.603419 291.813035 
L 403.241123 293.29489 
L 403.878877 295.06624 
L 404.516581 297.303869 
L 405.154286 300.258347 
L 405.79199 303.79303 
L 406.429695 298.370067 
L 407.067448 291.235592 
L 408.980562 265.023109 
L 409.618266 261.449701 
L 410.256019 264.761786 
L 410.893724 275.09615 
L 412.169133 303.604933 
L 412.806838 292.246683 
L 413.444591 285.558974 
L 414.082295 282.908847 
L 414.082295 282.908847 
" clip-path="url(#pcf3ee63f0c)" style="fill: none; stroke: #0000cc; stroke-width: 1.5; stroke-linecap: square"/>
   </g>
   <g id="line2d_38">
    <path d="M 57.6 304.026353 
L 87.572576 303.926322 
L 90.761148 303.685399 
L 92.674286 303.961294 
L 93.949719 303.861811 
L 104.153138 303.992782 
L 107.979438 303.973252 
L 110.530281 303.98805 
L 116.907424 303.988312 
L 127.748571 303.982541 
L 136.038852 304.013308 
L 139.227424 303.970755 
L 142.415995 304.005296 
L 144.966862 303.990251 
L 160.909719 304.007568 
L 166.649133 304.004097 
L 174.301709 303.870051 
L 176.214847 303.89175 
L 178.12801 303.980603 
L 180.678852 303.931253 
L 190.244567 303.973837 
L 192.157705 303.813423 
L 193.433138 303.565202 
L 195.984005 302.838826 
L 196.621709 302.909482 
L 197.897143 303.668667 
L 198.534847 304.006005 
L 199.172576 303.684122 
L 199.810281 303.524658 
L 201.085714 303.513373 
L 206.187424 303.782309 
L 211.289133 303.968567 
L 213.202295 303.557865 
L 215.115409 303.029697 
L 215.753162 303.050628 
L 216.390867 303.264829 
L 217.666276 304.018562 
L 218.941734 303.567742 
L 220.217143 303.52021 
L 227.869695 303.820333 
L 234.246838 303.92664 
L 235.522295 303.639467 
L 238.073162 302.88609 
L 238.710867 303.071573 
L 239.986276 303.980606 
L 241.261734 303.531078 
L 242.537143 303.538044 
L 246.363419 303.798779 
L 250.827448 303.956132 
L 253.378266 303.523891 
L 254.653724 303.359078 
L 255.929133 303.52272 
L 257.204591 303.977339 
L 259.755409 303.635766 
L 264.219438 303.782186 
L 269.321123 303.908635 
L 271.234286 303.464393 
L 273.147448 302.976481 
L 273.785153 303.007983 
L 274.422857 303.227493 
L 275.698266 303.965924 
L 276.973724 303.56332 
L 278.249133 303.462486 
L 289.090305 303.951321 
L 289.72801 304.017769 
L 291.003419 303.805348 
L 292.278877 303.346962 
L 294.19199 302.30148 
L 294.829695 302.204748 
L 295.467448 302.484769 
L 296.742857 303.888173 
L 298.018266 303.228128 
L 298.656019 303.140417 
L 300.569133 303.364832 
L 303.757705 303.622694 
L 309.497143 303.852864 
L 311.410305 303.247361 
L 312.685714 302.9344 
L 313.323419 302.975214 
L 313.961123 303.22403 
L 315.236581 304.013285 
L 316.51199 303.537566 
L 317.787448 303.44759 
L 333.092552 303.919083 
L 334.36801 303.759173 
L 335.643419 303.821965 
L 336.918877 304.015381 
L 339.469695 303.953644 
L 345.846838 303.921104 
L 347.76 303.713384 
L 349.673162 303.247446 
L 350.948571 302.866904 
L 351.586276 302.748427 
L 352.223981 302.794024 
L 352.861734 303.056069 
L 354.137143 303.997544 
L 355.412552 303.395589 
L 356.68801 303.305816 
L 366.891429 304.009678 
L 368.166838 303.722043 
L 368.804591 303.470746 
L 369.442295 303.094684 
L 370.08 302.530583 
L 370.717705 301.69258 
L 371.355409 300.478491 
L 371.993162 298.806652 
L 373.268571 294.478829 
L 373.906276 292.889842 
L 374.543981 293.047931 
L 375.181734 295.695128 
L 375.819438 300.280316 
L 376.457143 303.170727 
L 377.094847 300.001858 
L 377.732552 298.656811 
L 378.370305 298.586518 
L 379.645714 299.684746 
L 380.921123 300.631071 
L 382.196581 301.203251 
L 384.747448 301.935599 
L 386.660562 302.538651 
L 387.936019 303.199348 
L 388.573724 303.685408 
L 389.211429 303.745269 
L 391.762295 300.795503 
L 392.4 300.761809 
L 393.037705 301.313528 
L 394.313162 303.430719 
L 394.950867 303.653076 
L 395.588571 302.977965 
L 396.226276 302.588192 
L 396.863981 302.405427 
L 398.139438 302.349977 
L 403.241123 302.510494 
L 404.516581 302.361137 
L 405.79199 301.988681 
L 407.067448 301.242897 
L 408.342857 300.040128 
L 408.980562 299.379397 
L 409.618266 298.9012 
L 410.256019 298.9 
L 410.893724 299.667113 
L 411.531429 301.269351 
L 412.169133 303.354852 
L 412.806838 302.758535 
L 413.444591 301.470737 
L 414.082295 300.939024 
L 414.082295 300.939024 
" clip-path="url(#pcf3ee63f0c)" style="fill: none; stroke-dasharray: 9.6,2.4,1.5,2.4; stroke-dashoffset: 0; stroke: #ff0000; stroke-width: 1.5"/>
   </g>
   <g id="patch_13">
    <path d="M 57.6 307.584 
L 57.6 229.315765 
" style="fill: none; stroke: #000000; stroke-width: 0.8; stroke-linejoin: miter; stroke-linecap: square"/>
   </g>
   <g id="patch_14">
    <path d="M 414.72 307.584 
L 414.72 229.315765 
" style="fill: none; stroke: #000000; stroke-width: 0.8; stroke-linejoin: miter; stroke-linecap: square"/>
   </g>
   <g id="patch_15">
    <path d="M 57.6 307.584 
L 414.72 307.584 
" style="fill: none; stroke: #000000; stroke-width: 0.8; stroke-linejoin: miter; stroke-linecap: square"/>
   </g>
   <g id="patch_16">
    <path d="M 57.6 229.315765 
L 414.72 229.315765 
" style="fill: none; stroke: #000000; stroke-width: 0.8; stroke-linejoin: miter; stroke-linecap: square"/>
   </g>
  </g>
 </g>
 <defs>
  <clipPath id="p88f3ef0ca2">
   <rect x="57.6" y="41.472" width="357.12" height="78.268235"/>
  </clipPath>
  <clipPath id="pe3db22f943">
   <rect x="57.6" y="135.393882" width="357.12" height="78.268235"/>
  </clipPath>
  <clipPath id="pcf3ee63f0c">
   <rect x="57.6" y="229.315765" width="357.12" height="78.268235"/>
  </clipPath>
 </defs>
</svg>
