<?xml version="1.0" encoding="utf-8" standalone="no"?>
<!DOCTYPE svg PUBLIC "-//W3C//DTD SVG 1.1//EN"
  "http://www.w3.org/Graphics/SVG/1.1/DTD/svg11.dtd">
<svg xmlns:xlink="http://www.w3.org/1999/xlink" width="460.8pt" height="345.6pt" viewBox="0 0 460.8 345.6" xmlns="http://www.w3.org/2000/svg" version="1.1">
 <metadata>
  <rdf:RDF xmlns:dc="http://purl.org/dc/elements/1.1/" xmlns:cc="http://creativecommons.org/ns#" xmlns:rdf="http://www.w3.org/1999/02/22-rdf-syntax-ns#">
   <cc:Work>
    <dc:type rdf:resource="http://purl.org/dc/dcmitype/StillImage"/>
    <dc:date>2023-10-17T12:54:07.948187</dc:date>
    <dc:format>image/svg+xml</dc:format>
    <dc:creator>
     <cc:Agent>
      <dc:title>Matplotlib v3.5.2, https://matplotlib.org/</dc:title>
     </cc:Agent>
    </dc:creator>
   </cc:Work>
  </rdf:RDF>
 </metadata>
 <defs>
  <style type="text/css">*{stroke-linejoin: round; stroke-linecap: butt}</style>
 </defs>
 <g id="figure_1">
  <g id="patch_1">
   <path d="M 0 345.6 
L 460.8 345.6 
L 460.8 0 
L 0 0 
z
" style="fill: #ffffff"/>
  </g>
  <g id="axes_1">
   <g id="patch_2">
    <path d="M 57.6 119.740235 
L 414.72 119.740235 
L 414.72 41.472 
L 57.6 41.472 
z
" style="fill: #ffffff"/>
   </g>
   <g id="matplotlib.axis_1">
    <g id="xtick_1">
     <g id="line2d_1">
      <defs>
       <path id="m3b4d6d7914" d="M 0 0 
L 0 3.5 
" style="stroke: #000000; stroke-width: 0.8"/>
      </defs>
      <g>
       <use xlink:href="#m3b4d6d7914" x="73.832727" y="119.740235" style="stroke: #000000; stroke-width: 0.8"/>
      </g>
     </g>
     <g id="text_1">
      <!-- 10 -->
      <g transform="translate(67.470227 134.338673)scale(0.1 -0.1)">
       <defs>
        <path id="DejaVuSans-31" d="M 794 531 
L 1825 531 
L 1825 4091 
L 703 3866 
L 703 4441 
L 1819 4666 
L 2450 4666 
L 2450 531 
L 3481 531 
L 3481 0 
L 794 0 
L 794 531 
z
" transform="scale(0.015625)"/>
        <path id="DejaVuSans-30" d="M 2034 4250 
Q 1547 4250 1301 3770 
Q 1056 3291 1056 2328 
Q 1056 1369 1301 889 
Q 1547 409 2034 409 
Q 2525 409 2770 889 
Q 3016 1369 3016 2328 
Q 3016 3291 2770 3770 
Q 2525 4250 2034 4250 
z
M 2034 4750 
Q 2819 4750 3233 4129 
Q 3647 3509 3647 2328 
Q 3647 1150 3233 529 
Q 2819 -91 2034 -91 
Q 1250 -91 836 529 
Q 422 1150 422 2328 
Q 422 3509 836 4129 
Q 1250 4750 2034 4750 
z
" transform="scale(0.015625)"/>
       </defs>
       <use xlink:href="#DejaVuSans-31"/>
       <use xlink:href="#DejaVuSans-30" x="63.623047"/>
      </g>
     </g>
    </g>
    <g id="xtick_2">
     <g id="line2d_2">
      <g>
       <use xlink:href="#m3b4d6d7914" x="117.192265" y="119.740235" style="stroke: #000000; stroke-width: 0.8"/>
      </g>
     </g>
     <g id="text_2">
      <!-- 12 -->
      <g transform="translate(110.829765 134.338673)scale(0.1 -0.1)">
       <defs>
        <path id="DejaVuSans-32" d="M 1228 531 
L 3431 531 
L 3431 0 
L 469 0 
L 469 531 
Q 828 903 1448 1529 
Q 2069 2156 2228 2338 
Q 2531 2678 2651 2914 
Q 2772 3150 2772 3378 
Q 2772 3750 2511 3984 
Q 2250 4219 1831 4219 
Q 1534 4219 1204 4116 
Q 875 4013 500 3803 
L 500 4441 
Q 881 4594 1212 4672 
Q 1544 4750 1819 4750 
Q 2544 4750 2975 4387 
Q 3406 4025 3406 3419 
Q 3406 3131 3298 2873 
Q 3191 2616 2906 2266 
Q 2828 2175 2409 1742 
Q 1991 1309 1228 531 
z
" transform="scale(0.015625)"/>
       </defs>
       <use xlink:href="#DejaVuSans-31"/>
       <use xlink:href="#DejaVuSans-32" x="63.623047"/>
      </g>
     </g>
    </g>
    <g id="xtick_3">
     <g id="line2d_3">
      <g>
       <use xlink:href="#m3b4d6d7914" x="160.551802" y="119.740235" style="stroke: #000000; stroke-width: 0.8"/>
      </g>
     </g>
     <g id="text_3">
      <!-- 14 -->
      <g transform="translate(154.189302 134.338673)scale(0.1 -0.1)">
       <defs>
        <path id="DejaVuSans-34" d="M 2419 4116 
L 825 1625 
L 2419 1625 
L 2419 4116 
z
M 2253 4666 
L 3047 4666 
L 3047 1625 
L 3713 1625 
L 3713 1100 
L 3047 1100 
L 3047 0 
L 2419 0 
L 2419 1100 
L 313 1100 
L 313 1709 
L 2253 4666 
z
" transform="scale(0.015625)"/>
       </defs>
       <use xlink:href="#DejaVuSans-31"/>
       <use xlink:href="#DejaVuSans-34" x="63.623047"/>
      </g>
     </g>
    </g>
    <g id="xtick_4">
     <g id="line2d_4">
      <g>
       <use xlink:href="#m3b4d6d7914" x="203.91134" y="119.740235" style="stroke: #000000; stroke-width: 0.8"/>
      </g>
     </g>
     <g id="text_4">
      <!-- 16 -->
      <g transform="translate(197.54884 134.338673)scale(0.1 -0.1)">
       <defs>
        <path id="DejaVuSans-36" d="M 2113 2584 
Q 1688 2584 1439 2293 
Q 1191 2003 1191 1497 
Q 1191 994 1439 701 
Q 1688 409 2113 409 
Q 2538 409 2786 701 
Q 3034 994 3034 1497 
Q 3034 2003 2786 2293 
Q 2538 2584 2113 2584 
z
M 3366 4563 
L 3366 3988 
Q 3128 4100 2886 4159 
Q 2644 4219 2406 4219 
Q 1781 4219 1451 3797 
Q 1122 3375 1075 2522 
Q 1259 2794 1537 2939 
Q 1816 3084 2150 3084 
Q 2853 3084 3261 2657 
Q 3669 2231 3669 1497 
Q 3669 778 3244 343 
Q 2819 -91 2113 -91 
Q 1303 -91 875 529 
Q 447 1150 447 2328 
Q 447 3434 972 4092 
Q 1497 4750 2381 4750 
Q 2619 4750 2861 4703 
Q 3103 4656 3366 4563 
z
" transform="scale(0.015625)"/>
       </defs>
       <use xlink:href="#DejaVuSans-31"/>
       <use xlink:href="#DejaVuSans-36" x="63.623047"/>
      </g>
     </g>
    </g>
    <g id="xtick_5">
     <g id="line2d_5">
      <g>
       <use xlink:href="#m3b4d6d7914" x="247.270877" y="119.740235" style="stroke: #000000; stroke-width: 0.8"/>
      </g>
     </g>
     <g id="text_5">
      <!-- 18 -->
      <g transform="translate(240.908377 134.338673)scale(0.1 -0.1)">
       <defs>
        <path id="DejaVuSans-38" d="M 2034 2216 
Q 1584 2216 1326 1975 
Q 1069 1734 1069 1313 
Q 1069 891 1326 650 
Q 1584 409 2034 409 
Q 2484 409 2743 651 
Q 3003 894 3003 1313 
Q 3003 1734 2745 1975 
Q 2488 2216 2034 2216 
z
M 1403 2484 
Q 997 2584 770 2862 
Q 544 3141 544 3541 
Q 544 4100 942 4425 
Q 1341 4750 2034 4750 
Q 2731 4750 3128 4425 
Q 3525 4100 3525 3541 
Q 3525 3141 3298 2862 
Q 3072 2584 2669 2484 
Q 3125 2378 3379 2068 
Q 3634 1759 3634 1313 
Q 3634 634 3220 271 
Q 2806 -91 2034 -91 
Q 1263 -91 848 271 
Q 434 634 434 1313 
Q 434 1759 690 2068 
Q 947 2378 1403 2484 
z
M 1172 3481 
Q 1172 3119 1398 2916 
Q 1625 2713 2034 2713 
Q 2441 2713 2670 2916 
Q 2900 3119 2900 3481 
Q 2900 3844 2670 4047 
Q 2441 4250 2034 4250 
Q 1625 4250 1398 4047 
Q 1172 3844 1172 3481 
z
" transform="scale(0.015625)"/>
       </defs>
       <use xlink:href="#DejaVuSans-31"/>
       <use xlink:href="#DejaVuSans-38" x="63.623047"/>
      </g>
     </g>
    </g>
    <g id="xtick_6">
     <g id="line2d_6">
      <g>
       <use xlink:href="#m3b4d6d7914" x="290.630415" y="119.740235" style="stroke: #000000; stroke-width: 0.8"/>
      </g>
     </g>
     <g id="text_6">
      <!-- 20 -->
      <g transform="translate(284.267915 134.338673)scale(0.1 -0.1)">
       <use xlink:href="#DejaVuSans-32"/>
       <use xlink:href="#DejaVuSans-30" x="63.623047"/>
      </g>
     </g>
    </g>
    <g id="xtick_7">
     <g id="line2d_7">
      <g>
       <use xlink:href="#m3b4d6d7914" x="333.989952" y="119.740235" style="stroke: #000000; stroke-width: 0.8"/>
      </g>
     </g>
     <g id="text_7">
      <!-- 22 -->
      <g transform="translate(327.627452 134.338673)scale(0.1 -0.1)">
       <use xlink:href="#DejaVuSans-32"/>
       <use xlink:href="#DejaVuSans-32" x="63.623047"/>
      </g>
     </g>
    </g>
    <g id="xtick_8">
     <g id="line2d_8">
      <g>
       <use xlink:href="#m3b4d6d7914" x="377.34949" y="119.740235" style="stroke: #000000; stroke-width: 0.8"/>
      </g>
     </g>
     <g id="text_8">
      <!-- 24 -->
      <g transform="translate(370.98699 134.338673)scale(0.1 -0.1)">
       <use xlink:href="#DejaVuSans-32"/>
       <use xlink:href="#DejaVuSans-34" x="63.623047"/>
      </g>
     </g>
    </g>
    <g id="xtick_9">
     <g id="line2d_9">
      <g>
       <use xlink:href="#m3b4d6d7914" x="399.029259" y="119.740235" style="stroke: #000000; stroke-width: 0.8"/>
      </g>
     </g>
     <g id="text_9">
      <!-- 25 -->
      <g transform="translate(392.666759 134.338673)scale(0.1 -0.1)">
       <defs>
        <path id="DejaVuSans-35" d="M 691 4666 
L 3169 4666 
L 3169 4134 
L 1269 4134 
L 1269 2991 
Q 1406 3038 1543 3061 
Q 1681 3084 1819 3084 
Q 2600 3084 3056 2656 
Q 3513 2228 3513 1497 
Q 3513 744 3044 326 
Q 2575 -91 1722 -91 
Q 1428 -91 1123 -41 
Q 819 9 494 109 
L 494 744 
Q 775 591 1075 516 
Q 1375 441 1709 441 
Q 2250 441 2565 725 
Q 2881 1009 2881 1497 
Q 2881 1984 2565 2268 
Q 2250 2553 1709 2553 
Q 1456 2553 1204 2497 
Q 953 2441 691 2322 
L 691 4666 
z
" transform="scale(0.015625)"/>
       </defs>
       <use xlink:href="#DejaVuSans-32"/>
       <use xlink:href="#DejaVuSans-35" x="63.623047"/>
      </g>
     </g>
    </g>
   </g>
   <g id="matplotlib.axis_2">
    <g id="ytick_1">
     <g id="line2d_10">
      <defs>
       <path id="mb1d536a3f8" d="M 0 0 
L -3.5 0 
" style="stroke: #000000; stroke-width: 0.8"/>
      </defs>
      <g>
       <use xlink:href="#mb1d536a3f8" x="57.6" y="116.182588" style="stroke: #000000; stroke-width: 0.8"/>
      </g>
     </g>
     <g id="text_10">
      <!-- 0 -->
      <g transform="translate(44.2375 119.981807)scale(0.1 -0.1)">
       <use xlink:href="#DejaVuSans-30"/>
      </g>
     </g>
    </g>
    <g id="ytick_2">
     <g id="line2d_11">
      <g>
       <use xlink:href="#mb1d536a3f8" x="57.6" y="66.038249" style="stroke: #000000; stroke-width: 0.8"/>
      </g>
     </g>
     <g id="text_11">
      <!-- 20 -->
      <g transform="translate(37.875 69.837468)scale(0.1 -0.1)">
       <use xlink:href="#DejaVuSans-32"/>
       <use xlink:href="#DejaVuSans-30" x="63.623047"/>
      </g>
     </g>
    </g>
   </g>
   <g id="line2d_12">
    <path d="M 73.832727 116.182588 
L 96.596489 116.065988 
L 99.30646 115.824386 
L 100.932438 115.681022 
L 101.474424 115.743251 
L 102.558417 116.158679 
L 103.642409 115.609282 
L 104.184395 115.498584 
L 105.268388 115.60202 
L 107.436373 115.996298 
L 109.604337 116.111091 
L 170.307694 116.006672 
L 173.559672 115.987148 
L 175.18565 116.098036 
L 176.811629 115.869656 
L 178.437607 115.981822 
L 180.605593 116.160997 
L 186.567521 115.685594 
L 188.193499 115.323582 
L 190.361484 114.74461 
L 190.90347 114.772639 
L 191.445477 115.004023 
L 191.987463 115.491983 
L 192.52947 116.158162 
L 193.613441 114.698107 
L 194.155448 114.324117 
L 194.697434 114.266439 
L 195.239441 114.444744 
L 197.949412 115.883521 
L 199.033384 116.163686 
L 203.369354 115.872271 
L 206.079325 115.866457 
L 207.705283 116.161948 
L 209.331282 115.667809 
L 210.415254 115.70969 
L 212.041253 116.165976 
L 214.751224 115.708847 
L 217.461195 115.302613 
L 219.087195 114.78355 
L 220.171166 114.179915 
L 221.255138 113.222219 
L 222.339152 111.69983 
L 222.881137 110.633571 
L 223.423123 109.302837 
L 224.507137 105.679277 
L 226.67508 96.752925 
L 227.217108 96.687952 
L 227.759094 99.317114 
L 228.30108 105.318564 
L 228.843066 114.35421 
L 229.385052 107.548092 
L 229.927079 98.056512 
L 230.469065 91.704441 
L 231.011051 89.461953 
L 231.553037 90.849347 
L 232.095023 94.497692 
L 233.179036 103.323095 
L 233.721022 107.007848 
L 234.263008 109.866337 
L 234.804994 111.924514 
L 235.347021 113.289882 
L 235.889007 114.086385 
L 236.430993 114.427579 
L 236.972979 114.404804 
L 237.514965 114.086188 
L 238.056992 113.52163 
L 239.140964 111.826074 
L 240.224936 109.822623 
L 240.766963 109.036077 
L 241.308949 108.690793 
L 241.850935 109.050044 
L 242.392921 110.312353 
L 242.934907 112.493518 
L 243.476934 115.351999 
L 244.01892 113.934363 
L 244.560906 111.149098 
L 245.102892 109.049796 
L 245.644878 107.802891 
L 246.186905 107.362544 
L 246.728891 107.5494 
L 247.270877 108.142935 
L 249.980848 111.979735 
L 251.06482 112.930255 
L 254.316819 115.148987 
L 254.858805 115.761204 
L 255.400791 115.843427 
L 257.568776 112.379842 
L 258.110762 112.223993 
L 258.652748 112.705746 
L 259.194734 113.78262 
L 259.736761 115.234418 
L 260.278747 115.595936 
L 261.362719 113.130062 
L 261.904705 112.344649 
L 262.446732 111.816697 
L 263.530704 111.226714 
L 265.156703 110.522855 
L 266.240675 109.681541 
L 267.324647 108.302996 
L 268.40866 106.239161 
L 269.492632 103.447164 
L 271.118631 98.899492 
L 271.660617 98.058491 
L 272.202603 98.169711 
L 272.744589 99.699941 
L 273.286616 103.0321 
L 273.828602 108.292453 
L 274.370588 115.196778 
L 274.912574 109.38027 
L 275.45456 101.874785 
L 275.996588 95.981878 
L 276.538573 92.778861 
L 277.080559 92.65776 
L 277.622545 95.188392 
L 278.706559 104.292018 
L 279.79053 113.378556 
L 280.332516 115.321483 
L 281.41653 109.608042 
L 284.126501 97.504777 
L 285.210473 90.531383 
L 286.294445 81.326393 
L 288.46243 61.060607 
L 289.004416 57.895645 
L 289.546443 56.167865 
L 290.088429 55.878971 
L 290.630415 56.926283 
L 291.172401 59.252967 
L 291.714387 62.869772 
L 292.7984 73.572325 
L 294.424358 92.001529 
L 295.508371 100.901801 
L 296.050357 103.919062 
L 296.592343 106.073909 
L 297.134329 107.48488 
L 297.676356 108.268479 
L 298.218342 108.521212 
L 298.760328 108.31189 
L 299.302314 107.678867 
L 299.8443 106.630537 
L 300.386327 105.147009 
L 300.928313 103.182635 
L 301.470299 100.670043 
L 302.012285 97.527705 
L 303.096298 89.062357 
L 304.18027 77.817235 
L 305.264242 66.161835 
L 305.80627 61.740798 
L 306.348255 59.003464 
L 306.890241 57.981985 
L 307.432227 58.240651 
L 307.974213 59.218616 
L 308.516241 60.668695 
L 309.058227 62.848241 
L 309.600213 66.319374 
L 310.142198 71.483791 
L 311.226212 85.81264 
L 312.310184 100.478113 
L 313.394156 111.436293 
L 313.936183 115.410218 
L 314.478169 113.751754 
L 315.562141 108.764653 
L 317.18814 101.83776 
L 318.272112 95.67086 
L 319.356125 87.044009 
L 320.440097 75.623103 
L 322.066096 57.86621 
L 322.608082 54.169233 
L 323.150068 52.439993 
L 323.692054 52.712264 
L 324.23404 54.7739 
L 324.776067 58.390913 
L 325.318053 63.389993 
L 326.402025 76.478903 
L 328.028024 96.536957 
L 329.111996 105.81292 
L 329.653982 109.051013 
L 330.196009 111.526328 
L 330.737995 113.399563 
L 331.821967 115.938609 
L 332.363953 115.510953 
L 334.531938 112.124595 
L 335.615952 109.641291 
L 336.157938 107.975829 
L 337.241909 103.516243 
L 339.409895 92.459862 
L 339.951881 91.880776 
L 340.493866 93.944467 
L 341.035894 99.277986 
L 341.57788 107.716384 
L 342.119866 114.161113 
L 343.203838 93.827474 
L 343.745865 87.31387 
L 344.287851 84.526994 
L 344.829837 85.264887 
L 345.371823 88.525214 
L 346.997822 101.88683 
L 347.539808 105.24992 
L 348.081794 107.730593 
L 348.62378 109.38815 
L 349.165807 110.32997 
L 349.707793 110.668776 
L 350.249779 110.499888 
L 350.791765 109.895538 
L 351.333751 108.908242 
L 352.417764 105.96909 
L 354.043722 100.736163 
L 354.585749 99.810843 
L 355.127735 100.06093 
L 355.669721 101.97026 
L 356.211707 105.783924 
L 356.753693 111.317705 
L 357.29572 114.454768 
L 358.379692 102.099468 
L 358.921678 98.158499 
L 359.463664 96.310381 
L 360.005691 96.416712 
L 360.547677 97.996831 
L 361.631649 103.227827 
L 362.715663 108.3984 
L 363.799634 112.191028 
L 364.883606 114.719132 
L 365.425634 115.678762 
L 365.96762 115.831949 
L 367.593577 113.245777 
L 368.677591 110.926133 
L 369.761563 107.731317 
L 371.387562 102.26831 
L 371.929548 101.466782 
L 372.471534 102.185156 
L 373.01352 105.028394 
L 374.097533 115.510118 
L 375.181505 102.57554 
L 375.723491 98.840937 
L 376.265518 97.497302 
L 376.807504 98.119455 
L 377.34949 99.976427 
L 378.975489 106.852723 
L 379.517475 108.529239 
L 380.059461 109.752581 
L 380.601447 110.548269 
L 381.143433 110.961947 
L 381.68546 111.039154 
L 382.227446 110.81427 
L 382.769432 110.306133 
L 383.311418 109.516366 
L 383.853404 108.429832 
L 384.395431 107.016987 
L 384.937417 105.237917 
L 386.021389 100.425561 
L 387.105402 93.996179 
L 388.189374 87.432716 
L 388.73136 85.357585 
L 389.273346 85.065323 
L 389.815373 87.159558 
L 390.357359 91.821873 
L 390.899345 98.729777 
L 391.983317 115.737805 
L 393.609316 87.991545 
L 394.151302 81.135296 
L 394.693288 77.034902 
L 395.235316 76.423733 
L 395.777302 79.244213 
L 396.319288 84.564175 
L 397.945287 103.145873 
L 398.487273 107.731016 
L 398.487273 107.731016 
" clip-path="url(#pec33ae962b)" style="fill: none; stroke: #385989; stroke-width: 1.5; stroke-linecap: square"/>
   </g>
   <g id="line2d_13">
    <path d="M 73.832727 116.182588 
L 158.925824 116.17441 
L 168.13973 116.176011 
L 207.163297 116.139051 
L 209.331282 116.127475 
L 211.499267 116.127745 
L 214.751224 116.154145 
L 220.713152 116.009042 
L 223.423123 115.711235 
L 226.133095 115.304341 
L 226.67508 115.422542 
L 227.217108 115.716281 
L 227.759094 116.17193 
L 228.843066 115.243346 
L 229.385052 115.015127 
L 229.927079 114.995542 
L 231.011051 115.321369 
L 232.63705 115.876001 
L 234.263008 116.132948 
L 236.430993 116.178874 
L 238.598978 116.083984 
L 241.850935 115.925888 
L 243.476934 116.144966 
L 245.102892 115.877975 
L 247.270877 115.871481 
L 251.06482 115.898711 
L 256.484763 115.770918 
L 257.568776 116.13921 
L 259.736761 115.489417 
L 260.820733 115.639296 
L 262.988718 116.160864 
L 265.698689 115.761635 
L 267.866674 115.391836 
L 269.492632 114.843228 
L 270.576645 114.221603 
L 271.660617 113.283941 
L 272.744589 111.975351 
L 273.828602 110.551275 
L 274.370588 110.124361 
L 274.912574 110.259796 
L 275.45456 111.320252 
L 276.538573 115.657903 
L 277.622545 109.540486 
L 278.164531 108.161047 
L 278.706559 108.121247 
L 279.248545 109.023971 
L 280.874502 113.067267 
L 281.41653 114.114286 
L 281.958516 114.918111 
L 282.500502 115.503854 
L 283.042488 115.909981 
L 283.584473 116.175515 
L 284.668487 115.953646 
L 285.752459 115.976977 
L 286.836472 116.172786 
L 287.920444 115.761241 
L 290.630415 114.424253 
L 291.172401 114.524014 
L 291.714387 114.917608 
L 292.256414 115.56412 
L 292.7984 116.021973 
L 293.882372 114.687609 
L 294.424358 114.302711 
L 294.966385 114.105349 
L 296.050357 114.070234 
L 298.218342 114.221623 
L 299.302314 114.074755 
L 300.386327 113.69386 
L 301.470299 113.017633 
L 302.554271 111.954213 
L 303.638284 110.39394 
L 306.348255 105.718581 
L 306.890241 106.010316 
L 307.432227 107.605873 
L 307.974213 110.836049 
L 308.516241 115.577576 
L 310.142198 103.170825 
L 310.684184 102.143718 
L 311.226212 103.047561 
L 311.768198 105.173048 
L 313.394156 112.687572 
L 314.478169 116.08957 
L 315.562141 114.161016 
L 316.646154 112.710054 
L 318.272112 110.62251 
L 319.356125 108.706881 
L 320.440097 105.976265 
L 321.524069 102.180716 
L 323.692054 93.422446 
L 324.23404 92.75007 
L 324.776067 93.853284 
L 325.318053 97.303682 
L 325.860039 103.326864 
L 326.402025 111.635495 
L 326.944011 110.95903 
L 328.028024 92.392725 
L 328.57001 86.693771 
L 329.111996 84.86502 
L 329.653982 86.81613 
L 330.196009 91.483467 
L 331.821967 108.865677 
L 332.363953 113.371987 
L 332.90598 115.380803 
L 333.989952 110.219472 
L 335.615952 104.819019 
L 336.699923 100.957331 
L 337.783895 95.758025 
L 338.867909 88.393498 
L 339.951881 78.247631 
L 341.57788 58.757252 
L 342.119866 52.490648 
L 342.661852 47.573089 
L 343.203838 45.029647 
L 343.745865 45.748587 
L 344.287851 50.028816 
L 344.829837 57.345635 
L 346.997822 92.326913 
L 347.539808 98.383117 
L 348.081794 103.009538 
L 348.62378 106.395065 
L 349.165807 108.768 
L 349.707793 110.34828 
L 350.249779 111.322495 
L 350.791765 111.838755 
L 351.333751 112.00921 
L 351.875778 111.915659 
L 352.417764 111.619007 
L 353.501736 110.61871 
L 354.585749 109.506905 
L 355.127735 109.186388 
L 355.669721 109.262816 
L 356.211707 109.958823 
L 356.753693 111.455994 
L 357.29572 113.797458 
L 357.837706 115.597971 
L 358.921678 109.795023 
L 359.463664 108.052407 
L 360.005691 107.439385 
L 360.547677 107.836887 
L 361.089663 108.94007 
L 363.257648 114.792968 
L 363.799634 115.943837 
L 364.34162 115.428042 
L 365.96762 112.960681 
L 367.051591 111.270234 
L 368.135605 109.170577 
L 369.219577 106.517361 
L 370.303549 103.660199 
L 370.845576 102.57333 
L 371.387562 102.159826 
L 371.929548 102.882957 
L 372.471534 105.177386 
L 373.01352 109.252235 
L 373.555547 114.862448 
L 374.097533 111.1395 
L 374.639519 105.174479 
L 375.181505 100.738327 
L 375.723491 98.515101 
L 376.265518 98.533296 
L 376.807504 100.286247 
L 377.891476 106.15206 
L 378.975489 111.81357 
L 380.059461 115.905337 
L 380.601447 114.928658 
L 382.227446 111.294951 
L 383.311418 108.75938 
L 384.395431 105.34538 
L 384.937417 103.096127 
L 386.021389 97.086486 
L 387.105402 88.751655 
L 388.73136 74.52523 
L 389.273346 71.254525 
L 389.815373 69.666626 
L 390.357359 69.82903 
L 390.899345 71.262306 
L 391.441331 73.106599 
L 391.983317 74.476785 
L 392.525345 74.781981 
L 393.067331 73.894461 
L 394.151302 70.773542 
L 394.693288 70.732954 
L 395.235316 73.12863 
L 395.777302 78.162137 
L 398.487273 112.522604 
L 398.487273 112.522604 
" clip-path="url(#pec33ae962b)" style="fill: none; stroke: #d22027; stroke-width: 1.5; stroke-linecap: square"/>
   </g>
   <g id="patch_3">
    <path d="M 57.6 119.740235 
L 57.6 41.472 
" style="fill: none; stroke: #000000; stroke-width: 0.8; stroke-linejoin: miter; stroke-linecap: square"/>
   </g>
   <g id="patch_4">
    <path d="M 414.72 119.740235 
L 414.72 41.472 
" style="fill: none; stroke: #000000; stroke-width: 0.8; stroke-linejoin: miter; stroke-linecap: square"/>
   </g>
   <g id="patch_5">
    <path d="M 57.6 119.740235 
L 414.72 119.740235 
" style="fill: none; stroke: #000000; stroke-width: 0.8; stroke-linejoin: miter; stroke-linecap: square"/>
   </g>
   <g id="patch_6">
    <path d="M 57.6 41.472 
L 414.72 41.472 
" style="fill: none; stroke: #000000; stroke-width: 0.8; stroke-linejoin: miter; stroke-linecap: square"/>
   </g>
  </g>
  <g id="axes_2">
   <g id="patch_7">
    <path d="M 57.6 213.662118 
L 414.72 213.662118 
L 414.72 135.393882 
L 57.6 135.393882 
z
" style="fill: #ffffff"/>
   </g>
   <g id="matplotlib.axis_3">
    <g id="xtick_10">
     <g id="line2d_14">
      <g>
       <use xlink:href="#m3b4d6d7914" x="73.832727" y="213.662118" style="stroke: #000000; stroke-width: 0.8"/>
      </g>
     </g>
     <g id="text_12">
      <!-- 10 -->
      <g transform="translate(67.470227 228.260555)scale(0.1 -0.1)">
       <use xlink:href="#DejaVuSans-31"/>
       <use xlink:href="#DejaVuSans-30" x="63.623047"/>
      </g>
     </g>
    </g>
    <g id="xtick_11">
     <g id="line2d_15">
      <g>
       <use xlink:href="#m3b4d6d7914" x="117.192265" y="213.662118" style="stroke: #000000; stroke-width: 0.8"/>
      </g>
     </g>
     <g id="text_13">
      <!-- 12 -->
      <g transform="translate(110.829765 228.260555)scale(0.1 -0.1)">
       <use xlink:href="#DejaVuSans-31"/>
       <use xlink:href="#DejaVuSans-32" x="63.623047"/>
      </g>
     </g>
    </g>
    <g id="xtick_12">
     <g id="line2d_16">
      <g>
       <use xlink:href="#m3b4d6d7914" x="160.551802" y="213.662118" style="stroke: #000000; stroke-width: 0.8"/>
      </g>
     </g>
     <g id="text_14">
      <!-- 14 -->
      <g transform="translate(154.189302 228.260555)scale(0.1 -0.1)">
       <use xlink:href="#DejaVuSans-31"/>
       <use xlink:href="#DejaVuSans-34" x="63.623047"/>
      </g>
     </g>
    </g>
    <g id="xtick_13">
     <g id="line2d_17">
      <g>
       <use xlink:href="#m3b4d6d7914" x="203.91134" y="213.662118" style="stroke: #000000; stroke-width: 0.8"/>
      </g>
     </g>
     <g id="text_15">
      <!-- 16 -->
      <g transform="translate(197.54884 228.260555)scale(0.1 -0.1)">
       <use xlink:href="#DejaVuSans-31"/>
       <use xlink:href="#DejaVuSans-36" x="63.623047"/>
      </g>
     </g>
    </g>
    <g id="xtick_14">
     <g id="line2d_18">
      <g>
       <use xlink:href="#m3b4d6d7914" x="247.270877" y="213.662118" style="stroke: #000000; stroke-width: 0.8"/>
      </g>
     </g>
     <g id="text_16">
      <!-- 18 -->
      <g transform="translate(240.908377 228.260555)scale(0.1 -0.1)">
       <use xlink:href="#DejaVuSans-31"/>
       <use xlink:href="#DejaVuSans-38" x="63.623047"/>
      </g>
     </g>
    </g>
    <g id="xtick_15">
     <g id="line2d_19">
      <g>
       <use xlink:href="#m3b4d6d7914" x="290.630415" y="213.662118" style="stroke: #000000; stroke-width: 0.8"/>
      </g>
     </g>
     <g id="text_17">
      <!-- 20 -->
      <g transform="translate(284.267915 228.260555)scale(0.1 -0.1)">
       <use xlink:href="#DejaVuSans-32"/>
       <use xlink:href="#DejaVuSans-30" x="63.623047"/>
      </g>
     </g>
    </g>
    <g id="xtick_16">
     <g id="line2d_20">
      <g>
       <use xlink:href="#m3b4d6d7914" x="333.989952" y="213.662118" style="stroke: #000000; stroke-width: 0.8"/>
      </g>
     </g>
     <g id="text_18">
      <!-- 22 -->
      <g transform="translate(327.627452 228.260555)scale(0.1 -0.1)">
       <use xlink:href="#DejaVuSans-32"/>
       <use xlink:href="#DejaVuSans-32" x="63.623047"/>
      </g>
     </g>
    </g>
    <g id="xtick_17">
     <g id="line2d_21">
      <g>
       <use xlink:href="#m3b4d6d7914" x="377.34949" y="213.662118" style="stroke: #000000; stroke-width: 0.8"/>
      </g>
     </g>
     <g id="text_19">
      <!-- 24 -->
      <g transform="translate(370.98699 228.260555)scale(0.1 -0.1)">
       <use xlink:href="#DejaVuSans-32"/>
       <use xlink:href="#DejaVuSans-34" x="63.623047"/>
      </g>
     </g>
    </g>
    <g id="xtick_18">
     <g id="line2d_22">
      <g>
       <use xlink:href="#m3b4d6d7914" x="399.029259" y="213.662118" style="stroke: #000000; stroke-width: 0.8"/>
      </g>
     </g>
     <g id="text_20">
      <!-- 25 -->
      <g transform="translate(392.666759 228.260555)scale(0.1 -0.1)">
       <use xlink:href="#DejaVuSans-32"/>
       <use xlink:href="#DejaVuSans-35" x="63.623047"/>
      </g>
     </g>
    </g>
   </g>
   <g id="matplotlib.axis_4">
    <g id="ytick_3">
     <g id="line2d_23">
      <g>
       <use xlink:href="#mb1d536a3f8" x="57.6" y="210.104471" style="stroke: #000000; stroke-width: 0.8"/>
      </g>
     </g>
     <g id="text_21">
      <!-- 0 -->
      <g transform="translate(44.2375 213.903689)scale(0.1 -0.1)">
       <use xlink:href="#DejaVuSans-30"/>
      </g>
     </g>
    </g>
    <g id="ytick_4">
     <g id="line2d_24">
      <g>
       <use xlink:href="#mb1d536a3f8" x="57.6" y="168.960937" style="stroke: #000000; stroke-width: 0.8"/>
      </g>
     </g>
     <g id="text_22">
      <!-- 20 -->
      <g transform="translate(37.875 172.760155)scale(0.1 -0.1)">
       <use xlink:href="#DejaVuSans-32"/>
       <use xlink:href="#DejaVuSans-30" x="63.623047"/>
      </g>
     </g>
    </g>
   </g>
   <g id="line2d_25">
    <path d="M 73.832727 210.104471 
L 95.512496 209.988956 
L 98.222467 209.738877 
L 99.848446 209.536714 
L 100.390452 209.565221 
L 100.932438 209.742249 
L 101.474424 210.080297 
L 102.558417 209.052506 
L 103.100423 208.879476 
L 103.642409 209.041443 
L 104.726402 209.754825 
L 105.810394 210.102101 
L 107.436373 210.053426 
L 109.604337 210.058928 
L 113.398301 209.954106 
L 115.566286 210.01783 
L 117.192265 209.858379 
L 119.36025 209.987535 
L 122.070221 210.091024 
L 128.574135 210.009068 
L 129.658128 210.063759 
L 131.284106 209.88494 
L 133.452091 209.982296 
L 136.704048 210.104246 
L 148.627925 210.026123 
L 153.505882 210.075521 
L 165.429759 210.023482 
L 173.017665 209.98379 
L 173.559672 210.100876 
L 175.18565 209.646446 
L 176.269643 209.680955 
L 177.895621 210.066557 
L 182.773557 209.889259 
L 184.941542 209.701734 
L 186.567521 209.399452 
L 189.819498 208.563412 
L 190.361484 208.770898 
L 191.445477 209.904785 
L 192.52947 207.49592 
L 193.071455 206.919581 
L 193.613441 207.13001 
L 195.781427 210.027309 
L 197.407405 209.738498 
L 205.537339 209.87528 
L 206.621311 210.022866 
L 208.24731 209.292618 
L 208.789296 209.257213 
L 209.331282 209.42821 
L 210.415254 210.07237 
L 211.499267 209.707786 
L 212.583239 209.586322 
L 215.29321 209.451767 
L 216.919209 209.147521 
L 218.003181 208.772582 
L 219.087195 208.175297 
L 220.171166 207.225453 
L 221.255138 205.711175 
L 221.797166 204.645904 
L 222.339152 203.308784 
L 222.881137 201.64449 
L 223.965109 197.174628 
L 225.591109 189.218549 
L 226.133095 188.394965 
L 226.67508 190.685859 
L 227.217108 197.769405 
L 227.759094 209.93488 
L 228.843066 178.42029 
L 229.385052 168.901881 
L 229.927079 168.294762 
L 230.469065 175.803424 
L 231.553037 198.42742 
L 232.095023 206.337848 
L 232.63705 209.331945 
L 233.179036 207.318714 
L 233.721022 206.873055 
L 234.263008 207.262584 
L 235.347021 208.997002 
L 235.889007 210.013971 
L 236.430993 209.143563 
L 238.056992 205.710619 
L 239.140964 203.296418 
L 239.68295 202.332121 
L 240.224936 201.85783 
L 240.766963 202.238886 
L 241.308949 203.841274 
L 241.850935 206.841799 
L 242.392921 209.211856 
L 243.476934 200.755902 
L 244.01892 198.372491 
L 244.560906 197.802323 
L 245.102892 198.73498 
L 247.270877 205.894439 
L 247.812863 206.956512 
L 248.354849 207.665547 
L 248.896877 208.10883 
L 249.980848 208.527458 
L 252.148834 209.033801 
L 252.69082 209.309429 
L 253.232805 209.712787 
L 253.774791 209.929237 
L 254.316819 209.168169 
L 255.400791 207.08155 
L 256.484763 205.052106 
L 257.02679 204.799822 
L 257.568776 205.540446 
L 258.110762 207.358152 
L 258.652748 209.88805 
L 259.736761 205.824831 
L 260.278747 204.744221 
L 260.820733 204.41148 
L 261.362719 204.536019 
L 262.446732 205.130377 
L 262.988718 205.309546 
L 263.530704 205.334399 
L 264.07269 205.194045 
L 264.614676 204.889527 
L 265.156703 204.423157 
L 266.240675 202.994679 
L 267.324647 200.848223 
L 268.40866 197.944205 
L 270.034618 193.050683 
L 270.576645 192.055862 
L 271.118631 192.088564 
L 271.660617 193.783463 
L 272.202603 197.768814 
L 272.744589 204.400674 
L 273.286616 206.764155 
L 274.370588 186.259834 
L 274.912574 178.706306 
L 275.45456 175.666449 
L 275.996588 178.16243 
L 276.538573 185.467484 
L 277.622545 204.547602 
L 278.164531 208.421553 
L 278.706559 203.663437 
L 279.248545 200.881138 
L 279.79053 199.333254 
L 281.958516 195.362432 
L 282.500502 193.643575 
L 283.042488 191.38645 
L 283.584473 188.516755 
L 284.668487 180.731631 
L 285.752459 170.364124 
L 286.836472 159.345456 
L 287.378458 155.049483 
L 287.920444 152.55663 
L 288.46243 152.313191 
L 289.004416 154.194444 
L 289.546443 157.598779 
L 290.630415 167.026881 
L 291.714387 180.340687 
L 292.7984 195.465118 
L 293.340386 201.431375 
L 293.882372 205.563785 
L 294.424358 207.940244 
L 294.966385 208.939276 
L 295.508371 208.996171 
L 296.050357 208.468019 
L 296.592343 207.594549 
L 297.676356 205.265453 
L 298.760328 202.25141 
L 299.8443 198.130321 
L 300.386327 195.423098 
L 300.928313 192.132976 
L 302.012285 183.359444 
L 303.096298 171.462982 
L 304.18027 158.717321 
L 304.722256 154.138341 
L 305.264242 152.253058 
L 305.80627 153.518927 
L 307.974213 167.345889 
L 308.516241 170.245169 
L 309.058227 175.295838 
L 309.600213 183.265699 
L 310.684184 202.916914 
L 311.226212 209.534919 
L 311.768198 204.391956 
L 312.310184 201.496575 
L 312.85217 200.091628 
L 313.394156 199.460866 
L 314.478169 198.617135 
L 315.020155 197.861138 
L 315.562141 196.682992 
L 316.104127 194.988132 
L 316.646154 192.693093 
L 317.18814 189.713372 
L 317.730126 185.962754 
L 318.814098 175.904412 
L 320.982083 150.76054 
L 321.524069 147.448244 
L 322.066096 147.241049 
L 322.608082 150.199261 
L 323.150068 155.486665 
L 324.23404 169.143896 
L 326.944011 206.601527 
L 327.486038 209.863304 
L 328.028024 207.755735 
L 328.57001 206.810931 
L 329.111996 206.566363 
L 330.196009 206.877306 
L 331.279981 207.120412 
L 331.821967 207.032033 
L 332.363953 206.764492 
L 332.90598 206.297318 
L 333.447966 205.606497 
L 333.989952 204.659548 
L 334.531938 203.413388 
L 335.073924 201.814771 
L 335.615952 199.805735 
L 336.699923 194.397404 
L 338.325923 184.765812 
L 338.867909 183.521844 
L 339.409895 185.471471 
L 339.951881 192.101686 
L 340.493866 203.834972 
L 341.035894 201.026943 
L 342.119866 172.385311 
L 342.661852 165.192045 
L 343.203838 164.881619 
L 343.745865 170.989581 
L 345.371823 200.836928 
L 345.913809 206.664794 
L 346.455836 209.737622 
L 346.997822 209.371551 
L 347.539808 209.492483 
L 348.081794 209.908564 
L 349.165807 207.346091 
L 350.249779 204.139755 
L 351.333751 200.314707 
L 352.95975 194.142597 
L 353.501736 192.92328 
L 354.043722 193.044078 
L 354.585749 195.271492 
L 355.127735 200.195737 
L 355.669721 207.801699 
L 356.211707 203.060093 
L 356.753693 193.718858 
L 357.29572 186.349977 
L 357.837706 182.41917 
L 358.379692 182.416201 
L 358.921678 185.768201 
L 360.547677 202.125988 
L 361.089663 206.036006 
L 361.631649 208.670941 
L 362.173635 209.934042 
L 362.715663 209.041696 
L 363.257648 208.575987 
L 365.425634 207.5794 
L 365.96762 207.109333 
L 366.509606 206.45594 
L 367.051591 205.583107 
L 367.593577 204.454687 
L 368.677591 201.319954 
L 370.303549 195.20108 
L 370.845576 193.947492 
L 371.387562 194.343208 
L 371.929548 197.50322 
L 372.471534 204.217342 
L 373.01352 206.099798 
L 374.097533 186.127766 
L 374.639519 181.815241 
L 375.181505 182.793781 
L 375.723491 187.626998 
L 376.807504 199.774369 
L 377.34949 204.107036 
L 377.891476 206.817454 
L 378.433462 208.210939 
L 378.975489 208.687213 
L 379.517475 208.580553 
L 380.059461 208.120005 
L 381.143433 206.604114 
L 382.227446 204.491535 
L 383.311418 201.56833 
L 384.395431 197.36976 
L 385.479403 191.440834 
L 387.105402 180.48736 
L 387.647388 177.980101 
L 388.189374 177.614549 
L 388.73136 180.522424 
L 389.273346 187.291224 
L 390.357359 209.399776 
L 391.983317 178.123896 
L 392.525345 170.062446 
L 393.067331 163.994309 
L 393.609316 161.0719 
L 394.151302 162.826136 
L 394.693288 170.023611 
L 396.319288 204.259567 
L 396.861274 209.005892 
L 397.403259 205.308087 
L 397.945287 203.902436 
L 398.487273 203.843838 
L 398.487273 203.843838 
" clip-path="url(#pe2c88adaa8)" style="fill: none; stroke: #385989; stroke-width: 1.5; stroke-linecap: square"/>
   </g>
   <g id="line2d_26">
    <path d="M 73.832727 210.104471 
L 157.841831 210.097385 
L 167.055737 210.096099 
L 220.171166 209.899267 
L 222.339152 209.635813 
L 225.049123 209.124453 
L 225.591109 209.21799 
L 226.133095 209.528497 
L 226.67508 210.066518 
L 227.759094 208.434678 
L 228.30108 208.048113 
L 228.843066 208.217434 
L 230.469065 209.811661 
L 231.011051 210.096157 
L 232.095023 209.916864 
L 234.263008 209.997885 
L 236.430993 210.075862 
L 240.766963 209.800119 
L 242.392921 209.969638 
L 243.476934 209.668751 
L 244.560906 209.653523 
L 247.812863 209.92064 
L 251.06482 209.815878 
L 254.858805 209.615146 
L 255.942777 209.864158 
L 256.484763 210.07056 
L 258.110762 209.069808 
L 258.652748 209.020986 
L 259.194734 209.192176 
L 260.820733 210.103546 
L 261.904705 209.812168 
L 264.07269 209.671745 
L 266.240675 209.448315 
L 267.866674 209.028286 
L 268.950646 208.534528 
L 270.034618 207.764734 
L 271.118631 206.614764 
L 273.286616 203.62901 
L 273.828602 203.525336 
L 274.370588 204.461251 
L 274.912574 207.017476 
L 275.45456 208.763876 
L 276.538573 198.350823 
L 277.080559 196.350848 
L 277.622545 197.776614 
L 279.248545 208.170045 
L 279.79053 210.037868 
L 280.332516 209.2055 
L 280.874502 208.823621 
L 281.41653 208.770971 
L 282.500502 209.055712 
L 285.210473 209.947174 
L 285.752459 210.071544 
L 286.836472 209.588305 
L 288.46243 208.528116 
L 289.004416 208.175374 
L 289.546443 207.966725 
L 290.088429 208.05213 
L 290.630415 208.56049 
L 291.172401 209.546785 
L 291.714387 209.38683 
L 292.256414 208.185081 
L 292.7984 207.38925 
L 293.340386 207.123523 
L 293.882372 207.272135 
L 295.508371 208.323552 
L 296.592343 208.626419 
L 297.676356 208.559287 
L 298.760328 208.218909 
L 299.8443 207.624628 
L 300.928313 206.716614 
L 302.012285 205.37898 
L 303.096298 203.49263 
L 304.722256 200.011224 
L 305.264242 199.240479 
L 305.80627 199.297847 
L 306.348255 200.849811 
L 306.890241 204.606579 
L 307.432227 209.312672 
L 308.516241 193.254147 
L 309.058227 188.326602 
L 309.600213 188.194203 
L 310.142198 192.403435 
L 311.226212 204.727852 
L 311.768198 209.215009 
L 312.310184 208.209009 
L 312.85217 206.731685 
L 313.394156 206.078707 
L 313.936183 205.859708 
L 315.562141 205.689381 
L 316.104127 205.469839 
L 316.646154 205.100943 
L 317.18814 204.562057 
L 317.730126 203.83247 
L 318.272112 202.888666 
L 318.814098 201.70307 
L 319.898111 198.488439 
L 320.982083 194.053507 
L 322.608082 186.878407 
L 323.150068 185.93509 
L 323.692054 187.056009 
L 324.23404 191.218006 
L 324.776067 199.011167 
L 325.318053 210.040888 
L 326.944011 172.63499 
L 327.486038 166.275898 
L 328.028024 166.367991 
L 328.57001 173.285928 
L 330.196009 208.030609 
L 330.737995 205.309405 
L 331.279981 201.526841 
L 331.821967 199.788361 
L 332.363953 199.140266 
L 333.447966 198.737865 
L 333.989952 198.361957 
L 334.531938 197.667507 
L 335.073924 196.582509 
L 335.615952 195.049223 
L 336.157938 193.01385 
L 336.699923 190.41608 
L 337.241909 187.185549 
L 338.325923 178.546888 
L 339.409895 166.789574 
L 341.035894 146.323236 
L 341.57788 141.217665 
L 342.119866 138.951529 
L 342.661852 141.001552 
L 343.203838 148.353749 
L 343.745865 160.573594 
L 344.829837 189.523839 
L 345.371823 200.539238 
L 345.913809 207.655571 
L 346.455836 208.785163 
L 346.997822 207.334893 
L 347.539808 207.258668 
L 348.081794 207.887165 
L 349.165807 209.813213 
L 349.707793 209.417218 
L 351.875778 205.9339 
L 353.501736 203.629472 
L 354.043722 203.169828 
L 354.585749 203.147434 
L 355.127735 203.844868 
L 355.669721 205.57333 
L 356.211707 208.521896 
L 356.753693 207.645153 
L 357.837706 199.302815 
L 358.379692 197.212894 
L 358.921678 197.411322 
L 359.463664 199.556368 
L 361.089663 208.558433 
L 361.631649 209.737517 
L 362.173635 208.477898 
L 362.715663 207.687354 
L 363.799634 206.799705 
L 364.883606 206.033296 
L 365.96762 204.865591 
L 367.051591 203.035394 
L 368.135605 200.451225 
L 369.761563 196.186049 
L 370.303549 195.589621 
L 370.845576 196.242943 
L 371.387562 198.842743 
L 372.471534 208.691837 
L 373.555547 190.977221 
L 374.097533 185.060204 
L 374.639519 183.468097 
L 375.181505 186.304355 
L 377.34949 209.26227 
L 377.891476 208.126692 
L 378.433462 206.503315 
L 378.975489 205.636944 
L 380.059461 204.833253 
L 380.601447 204.471694 
L 381.143433 203.973733 
L 381.68546 203.265977 
L 382.227446 202.290995 
L 382.769432 200.993905 
L 383.311418 199.314376 
L 383.853404 197.182516 
L 384.395431 194.519306 
L 385.479403 187.303791 
L 386.563375 177.530628 
L 387.647388 167.280504 
L 388.189374 163.841845 
L 388.73136 162.920587 
L 389.273346 165.077166 
L 390.899345 179.14085 
L 391.441331 180.466291 
L 391.983317 178.843869 
L 393.609316 168.28425 
L 394.151302 169.687872 
L 394.693288 176.299545 
L 396.319288 209.432728 
L 396.861274 203.74483 
L 397.403259 199.700193 
L 397.945287 197.683516 
L 398.487273 196.72611 
L 398.487273 196.72611 
" clip-path="url(#pe2c88adaa8)" style="fill: none; stroke: #d22027; stroke-width: 1.5; stroke-linecap: square"/>
   </g>
   <g id="patch_8">
    <path d="M 57.6 213.662118 
L 57.6 135.393882 
" style="fill: none; stroke: #000000; stroke-width: 0.8; stroke-linejoin: miter; stroke-linecap: square"/>
   </g>
   <g id="patch_9">
    <path d="M 414.72 213.662118 
L 414.72 135.393882 
" style="fill: none; stroke: #000000; stroke-width: 0.8; stroke-linejoin: miter; stroke-linecap: square"/>
   </g>
   <g id="patch_10">
    <path d="M 57.6 213.662118 
L 414.72 213.662118 
" style="fill: none; stroke: #000000; stroke-width: 0.8; stroke-linejoin: miter; stroke-linecap: square"/>
   </g>
   <g id="patch_11">
    <path d="M 57.6 135.393882 
L 414.72 135.393882 
" style="fill: none; stroke: #000000; stroke-width: 0.8; stroke-linejoin: miter; stroke-linecap: square"/>
   </g>
  </g>
  <g id="axes_3">
   <g id="patch_12">
    <path d="M 57.6 307.584 
L 414.72 307.584 
L 414.72 229.315765 
L 57.6 229.315765 
z
" style="fill: #ffffff"/>
   </g>
   <g id="matplotlib.axis_5">
    <g id="xtick_19">
     <g id="line2d_27">
      <g>
       <use xlink:href="#m3b4d6d7914" x="73.832727" y="307.584" style="stroke: #000000; stroke-width: 0.8"/>
      </g>
     </g>
     <g id="text_23">
      <!-- 10 -->
      <g transform="translate(67.470227 322.182437)scale(0.1 -0.1)">
       <use xlink:href="#DejaVuSans-31"/>
       <use xlink:href="#DejaVuSans-30" x="63.623047"/>
      </g>
     </g>
    </g>
    <g id="xtick_20">
     <g id="line2d_28">
      <g>
       <use xlink:href="#m3b4d6d7914" x="117.192265" y="307.584" style="stroke: #000000; stroke-width: 0.8"/>
      </g>
     </g>
     <g id="text_24">
      <!-- 12 -->
      <g transform="translate(110.829765 322.182437)scale(0.1 -0.1)">
       <use xlink:href="#DejaVuSans-31"/>
       <use xlink:href="#DejaVuSans-32" x="63.623047"/>
      </g>
     </g>
    </g>
    <g id="xtick_21">
     <g id="line2d_29">
      <g>
       <use xlink:href="#m3b4d6d7914" x="160.551802" y="307.584" style="stroke: #000000; stroke-width: 0.8"/>
      </g>
     </g>
     <g id="text_25">
      <!-- 14 -->
      <g transform="translate(154.189302 322.182437)scale(0.1 -0.1)">
       <use xlink:href="#DejaVuSans-31"/>
       <use xlink:href="#DejaVuSans-34" x="63.623047"/>
      </g>
     </g>
    </g>
    <g id="xtick_22">
     <g id="line2d_30">
      <g>
       <use xlink:href="#m3b4d6d7914" x="203.91134" y="307.584" style="stroke: #000000; stroke-width: 0.8"/>
      </g>
     </g>
     <g id="text_26">
      <!-- 16 -->
      <g transform="translate(197.54884 322.182437)scale(0.1 -0.1)">
       <use xlink:href="#DejaVuSans-31"/>
       <use xlink:href="#DejaVuSans-36" x="63.623047"/>
      </g>
     </g>
    </g>
    <g id="xtick_23">
     <g id="line2d_31">
      <g>
       <use xlink:href="#m3b4d6d7914" x="247.270877" y="307.584" style="stroke: #000000; stroke-width: 0.8"/>
      </g>
     </g>
     <g id="text_27">
      <!-- 18 -->
      <g transform="translate(240.908377 322.182437)scale(0.1 -0.1)">
       <use xlink:href="#DejaVuSans-31"/>
       <use xlink:href="#DejaVuSans-38" x="63.623047"/>
      </g>
     </g>
    </g>
    <g id="xtick_24">
     <g id="line2d_32">
      <g>
       <use xlink:href="#m3b4d6d7914" x="290.630415" y="307.584" style="stroke: #000000; stroke-width: 0.8"/>
      </g>
     </g>
     <g id="text_28">
      <!-- 20 -->
      <g transform="translate(284.267915 322.182437)scale(0.1 -0.1)">
       <use xlink:href="#DejaVuSans-32"/>
       <use xlink:href="#DejaVuSans-30" x="63.623047"/>
      </g>
     </g>
    </g>
    <g id="xtick_25">
     <g id="line2d_33">
      <g>
       <use xlink:href="#m3b4d6d7914" x="333.989952" y="307.584" style="stroke: #000000; stroke-width: 0.8"/>
      </g>
     </g>
     <g id="text_29">
      <!-- 22 -->
      <g transform="translate(327.627452 322.182437)scale(0.1 -0.1)">
       <use xlink:href="#DejaVuSans-32"/>
       <use xlink:href="#DejaVuSans-32" x="63.623047"/>
      </g>
     </g>
    </g>
    <g id="xtick_26">
     <g id="line2d_34">
      <g>
       <use xlink:href="#m3b4d6d7914" x="377.34949" y="307.584" style="stroke: #000000; stroke-width: 0.8"/>
      </g>
     </g>
     <g id="text_30">
      <!-- 24 -->
      <g transform="translate(370.98699 322.182437)scale(0.1 -0.1)">
       <use xlink:href="#DejaVuSans-32"/>
       <use xlink:href="#DejaVuSans-34" x="63.623047"/>
      </g>
     </g>
    </g>
    <g id="xtick_27">
     <g id="line2d_35">
      <g>
       <use xlink:href="#m3b4d6d7914" x="399.029259" y="307.584" style="stroke: #000000; stroke-width: 0.8"/>
      </g>
     </g>
     <g id="text_31">
      <!-- 25 -->
      <g transform="translate(392.666759 322.182437)scale(0.1 -0.1)">
       <use xlink:href="#DejaVuSans-32"/>
       <use xlink:href="#DejaVuSans-35" x="63.623047"/>
      </g>
     </g>
    </g>
   </g>
   <g id="matplotlib.axis_6">
    <g id="ytick_5">
     <g id="line2d_36">
      <g>
       <use xlink:href="#mb1d536a3f8" x="57.6" y="304.026353" style="stroke: #000000; stroke-width: 0.8"/>
      </g>
     </g>
     <g id="text_32">
      <!-- 0 -->
      <g transform="translate(44.2375 307.825572)scale(0.1 -0.1)">
       <use xlink:href="#DejaVuSans-30"/>
      </g>
     </g>
    </g>
    <g id="ytick_6">
     <g id="line2d_37">
      <g>
       <use xlink:href="#mb1d536a3f8" x="57.6" y="257.782366" style="stroke: #000000; stroke-width: 0.8"/>
      </g>
     </g>
     <g id="text_33">
      <!-- 20 -->
      <g transform="translate(37.875 261.581585)scale(0.1 -0.1)">
       <use xlink:href="#DejaVuSans-32"/>
       <use xlink:href="#DejaVuSans-30" x="63.623047"/>
      </g>
     </g>
    </g>
   </g>
   <g id="line2d_38">
    <path d="M 73.832727 304.026353 
L 97.680481 303.912632 
L 98.764453 303.757192 
L 99.848446 303.398245 
L 101.474424 302.538915 
L 102.016431 302.580969 
L 102.558417 303.021693 
L 103.100423 303.692097 
L 103.642409 303.755659 
L 104.184395 303.412277 
L 104.726402 303.343182 
L 110.146344 303.875199 
L 112.856315 303.943303 
L 115.02428 303.709175 
L 116.108272 303.758196 
L 117.734251 304.015696 
L 119.36025 303.838955 
L 122.070221 303.821254 
L 128.032149 303.86474 
L 129.658128 303.736204 
L 131.284106 303.910221 
L 131.826113 304.001998 
L 136.162062 303.84495 
L 143.74999 303.8317 
L 145.375968 303.866821 
L 147.001947 303.99658 
L 149.169932 303.901464 
L 157.299845 303.917962 
L 159.46781 303.967548 
L 161.093788 303.922986 
L 165.971745 303.991076 
L 170.307694 303.838933 
L 172.475679 303.539268 
L 173.559672 303.39082 
L 174.643644 303.498974 
L 175.727636 303.941106 
L 176.811629 303.728575 
L 177.895621 303.644246 
L 186.025535 303.959471 
L 187.109527 303.764664 
L 188.193499 303.362599 
L 188.735506 303.023511 
L 189.277492 302.553106 
L 190.361484 301.200663 
L 190.90347 300.477396 
L 191.445477 300.028458 
L 191.987463 300.190168 
L 192.52947 301.159365 
L 193.071455 302.734525 
L 193.613441 303.700674 
L 194.155448 302.562657 
L 194.697434 302.036026 
L 195.239441 301.954085 
L 196.865419 302.482391 
L 198.491398 302.848665 
L 201.201369 303.123977 
L 203.369354 303.158838 
L 205.537339 302.948887 
L 206.621311 302.849335 
L 207.163297 302.909909 
L 207.705283 303.119436 
L 208.789296 303.990021 
L 209.873268 303.316398 
L 210.415254 303.225311 
L 211.499267 303.400478 
L 213.125225 303.690478 
L 215.29321 303.814601 
L 218.545167 303.795087 
L 220.171166 303.619531 
L 221.255138 303.282431 
L 221.797166 302.965248 
L 222.339152 302.472009 
L 222.881137 301.703084 
L 223.423123 300.504065 
L 223.965109 298.641831 
L 224.507137 295.780435 
L 225.049123 291.477833 
L 225.591109 285.255266 
L 226.133095 276.837609 
L 227.217108 256.538658 
L 227.759094 249.963736 
L 228.30108 250.945777 
L 228.843066 261.59295 
L 229.927079 301.256046 
L 231.011051 279.256866 
L 231.553037 276.373998 
L 232.095023 277.858545 
L 233.721022 286.476943 
L 234.263008 288.385753 
L 235.347021 291.061524 
L 237.514965 295.453595 
L 238.056992 296.902418 
L 238.598978 298.696108 
L 239.140964 300.956198 
L 239.68295 303.787134 
L 240.224936 300.835266 
L 241.850935 289.827921 
L 242.392921 288.214936 
L 242.934907 288.859297 
L 243.476934 291.784151 
L 244.560906 301.221931 
L 245.102892 302.415254 
L 245.644878 299.061514 
L 246.186905 296.839516 
L 246.728891 295.543161 
L 247.270877 294.889042 
L 247.812863 294.632034 
L 248.354849 294.599073 
L 249.438863 294.822237 
L 252.69082 295.675666 
L 253.774791 296.011279 
L 254.316819 296.346698 
L 254.858805 296.933033 
L 255.400791 297.923272 
L 255.942777 299.483609 
L 257.02679 303.531408 
L 258.110762 298.108189 
L 258.652748 296.848282 
L 259.194734 297.017006 
L 259.736761 298.297718 
L 261.362719 303.272858 
L 261.904705 303.69927 
L 262.446732 302.919217 
L 263.530704 301.901248 
L 265.698689 300.342899 
L 266.782661 299.143448 
L 267.324647 298.266687 
L 267.866674 297.100339 
L 268.40866 295.534523 
L 268.950646 293.430126 
L 269.492632 290.623102 
L 270.034618 286.943679 
L 270.576645 282.268461 
L 271.660617 270.303864 
L 272.202603 264.077175 
L 272.744589 259.183588 
L 273.286616 257.186557 
L 273.828602 259.542658 
L 274.370588 267.068554 
L 274.912574 279.481851 
L 275.45456 295.118731 
L 275.996588 297.012211 
L 276.538573 284.117847 
L 277.080559 276.375969 
L 277.622545 273.75404 
L 278.164531 274.629609 
L 280.874502 286.79406 
L 283.584473 295.510912 
L 284.126501 297.841737 
L 285.210473 303.690943 
L 285.752459 299.048003 
L 286.836472 286.243373 
L 287.920444 271.106013 
L 288.46243 265.587002 
L 289.004416 263.728808 
L 289.546443 266.716278 
L 290.088429 274.565924 
L 291.172401 298.942023 
L 291.714387 297.122197 
L 292.256414 287.93072 
L 292.7984 282.300596 
L 293.340386 279.864617 
L 293.882372 279.635785 
L 294.424358 280.602523 
L 297.134329 287.706961 
L 300.386327 295.160199 
L 300.928313 296.906509 
L 301.470299 299.11635 
L 302.012285 302.038277 
L 302.554271 302.042397 
L 303.096298 296.602675 
L 303.638284 289.279118 
L 304.722256 268.780202 
L 305.80627 248.263182 
L 306.348255 244.035452 
L 306.890241 246.491942 
L 307.432227 255.690718 
L 307.974213 270.297352 
L 308.516241 288.169445 
L 309.058227 301.511062 
L 309.600213 285.758609 
L 310.142198 275.07755 
L 310.684184 270.085021 
L 311.226212 269.535542 
L 311.768198 271.455371 
L 313.394156 279.483999 
L 314.478169 283.437777 
L 317.18814 291.692238 
L 317.730126 293.826068 
L 318.272112 296.470762 
L 319.356125 303.671835 
L 319.898111 297.771118 
L 320.982083 281.501171 
L 322.066096 265.046388 
L 322.608082 261.741222 
L 323.150068 264.250289 
L 323.692054 272.629879 
L 324.776067 298.889794 
L 325.318053 296.90589 
L 325.860039 288.017756 
L 326.402025 282.954946 
L 326.944011 281.033058 
L 327.486038 281.109291 
L 328.028024 282.17535 
L 330.196009 287.590315 
L 331.821967 290.756155 
L 334.531938 295.661121 
L 335.073924 296.926422 
L 335.615952 298.494124 
L 336.157938 300.549395 
L 336.699923 303.365021 
L 337.241909 300.731305 
L 337.783895 295.155854 
L 338.325923 287.479531 
L 339.409895 265.722113 
L 339.951881 254.022982 
L 340.493866 245.483013 
L 341.035894 243.326428 
L 341.57788 249.260013 
L 342.119866 262.669222 
L 343.203838 300.970212 
L 344.287851 277.734329 
L 344.829837 272.17393 
L 345.371823 271.570702 
L 345.913809 273.661565 
L 347.539808 282.090572 
L 348.62378 286.168069 
L 350.249779 291.572454 
L 351.333751 296.140967 
L 351.875778 299.188264 
L 352.417764 303.031075 
L 352.95975 300.156925 
L 354.043722 287.027664 
L 355.127735 272.45399 
L 355.669721 267.803702 
L 356.211707 267.077515 
L 356.753693 271.106919 
L 357.29572 279.472124 
L 358.379692 302.31604 
L 359.463664 288.022466 
L 360.005691 283.641608 
L 360.547677 281.817479 
L 361.089663 281.685484 
L 361.631649 282.46112 
L 365.96762 291.441892 
L 367.051591 293.607283 
L 368.135605 296.382562 
L 368.677591 298.291464 
L 369.761563 303.827307 
L 370.303549 299.201027 
L 370.845576 293.114672 
L 372.471534 270.753042 
L 373.01352 267.7046 
L 373.555547 270.530109 
L 374.097533 279.346261 
L 375.181505 303.666843 
L 375.723491 293.977224 
L 376.265518 288.272001 
L 376.807504 286.011202 
L 377.34949 285.94031 
L 377.891476 286.916046 
L 379.517475 290.724994 
L 381.143433 293.736697 
L 382.769432 296.603572 
L 383.853404 299.046287 
L 384.395431 300.68398 
L 384.937417 302.807822 
L 385.479403 302.396498 
L 386.021389 298.502876 
L 386.563375 293.171726 
L 387.105402 286.007012 
L 388.189374 265.752816 
L 389.273346 243.34776 
L 389.815373 236.019226 
L 390.357359 233.403635 
L 390.899345 235.621248 
L 391.441331 241.886156 
L 391.983317 251.38609 
L 392.525345 263.810295 
L 393.609316 297.389533 
L 394.151302 291.178483 
L 394.693288 273.369818 
L 395.235316 260.674516 
L 395.777302 254.80542 
L 396.319288 254.741807 
L 396.861274 257.952373 
L 397.945287 266.180321 
L 398.487273 269.549662 
L 398.487273 269.549662 
" clip-path="url(#p0d405803f7)" style="fill: none; stroke: #385989; stroke-width: 1.5; stroke-linecap: square"/>
   </g>
   <g id="line2d_39">
    <path d="M 73.832727 304.026353 
L 125.322178 304.022523 
L 142.665997 304.002382 
L 160.009816 304.00684 
L 163.803759 304.002948 
L 189.277492 303.951498 
L 191.987463 303.825133 
L 193.613441 303.984497 
L 195.239441 303.908361 
L 203.91134 303.957976 
L 208.24731 303.90123 
L 209.873268 303.969685 
L 212.041253 303.944948 
L 219.62918 303.978838 
L 222.339152 303.850254 
L 223.423123 303.649358 
L 224.507137 303.198069 
L 225.591109 302.349364 
L 226.67508 301.502145 
L 227.217108 301.550418 
L 227.759094 302.176545 
L 228.30108 303.235782 
L 228.843066 303.753352 
L 229.385052 303.05015 
L 229.927079 302.779469 
L 230.469065 302.790192 
L 233.179036 303.340331 
L 236.972979 303.594688 
L 239.140964 303.85581 
L 239.68295 303.980345 
L 240.224936 303.917585 
L 241.850935 303.458531 
L 242.934907 303.51619 
L 244.560906 304.019001 
L 245.644878 303.815417 
L 247.812863 303.728889 
L 252.148834 303.611292 
L 253.774791 303.376169 
L 255.400791 302.886022 
L 256.484763 302.589585 
L 257.02679 302.620815 
L 257.568776 302.865221 
L 258.652748 303.891508 
L 260.278747 303.166413 
L 261.362719 303.234311 
L 264.07269 303.597351 
L 268.950646 303.94023 
L 270.034618 303.591816 
L 270.576645 303.291927 
L 271.118631 302.848761 
L 271.660617 302.189666 
L 272.202603 301.212217 
L 272.744589 299.783418 
L 273.286616 297.760765 
L 274.370588 291.826907 
L 274.912574 288.665023 
L 275.45456 286.834027 
L 275.996588 287.900285 
L 276.538573 292.579206 
L 277.080559 299.634306 
L 277.622545 301.641166 
L 278.164531 297.233282 
L 278.706559 295.484799 
L 279.248545 295.507327 
L 281.41653 298.612828 
L 282.500502 299.452191 
L 284.126501 300.224394 
L 287.378458 301.529293 
L 287.920444 301.926625 
L 288.46243 302.478486 
L 289.546443 303.821115 
L 290.630415 301.471841 
L 291.172401 300.593797 
L 291.714387 300.339184 
L 292.256414 300.815308 
L 293.882372 303.995021 
L 294.424358 303.343304 
L 294.966385 302.905962 
L 296.050357 302.549669 
L 297.676356 302.463354 
L 299.8443 302.323549 
L 300.928313 302.049514 
L 302.012285 301.422524 
L 302.554271 300.869114 
L 303.096298 300.058908 
L 303.638284 298.882687 
L 304.18027 297.197018 
L 304.722256 294.830505 
L 305.264242 291.622973 
L 306.348255 282.771066 
L 306.890241 278.183742 
L 307.432227 275.285805 
L 307.974213 276.035409 
L 308.516241 281.729598 
L 309.600213 303.174649 
L 310.142198 295.416218 
L 310.684184 289.880446 
L 311.226212 288.044157 
L 311.768198 288.503728 
L 313.394156 292.717627 
L 314.478169 294.561748 
L 315.562141 295.694971 
L 316.646154 296.391809 
L 317.730126 296.683427 
L 318.272112 296.632968 
L 318.814098 296.397404 
L 319.356125 295.910151 
L 319.898111 295.075368 
L 320.440097 293.754299 
L 320.982083 291.756302 
L 321.524069 288.836321 
L 322.066096 284.708023 
L 322.608082 279.104879 
L 323.692054 263.45311 
L 324.776067 247.170171 
L 325.318053 243.155368 
L 325.860039 244.438087 
L 326.402025 251.970662 
L 326.944011 265.6169 
L 328.028024 303.407655 
L 328.57001 284.777979 
L 329.111996 271.94306 
L 329.653982 266.332958 
L 330.196009 266.422457 
L 330.737995 269.422784 
L 331.821967 276.408646 
L 332.363953 279.013836 
L 332.90598 280.989382 
L 333.447966 282.484478 
L 333.989952 283.628881 
L 334.531938 284.51075 
L 335.073924 285.167287 
L 335.615952 285.615965 
L 336.157938 285.848301 
L 336.699923 285.840443 
L 337.241909 285.555611 
L 337.783895 284.949765 
L 338.325923 283.984515 
L 338.867909 282.645841 
L 340.493866 277.703525 
L 341.035894 277.234497 
L 341.57788 278.820976 
L 342.119866 283.490635 
L 342.661852 291.603248 
L 343.203838 302.073593 
L 344.287851 288.5587 
L 344.829837 285.655372 
L 345.371823 286.254504 
L 347.539808 295.771748 
L 348.081794 297.23408 
L 349.165807 299.300644 
L 351.875778 303.489789 
L 352.417764 303.408467 
L 352.95975 301.994301 
L 353.501736 300.242584 
L 354.585749 295.527257 
L 355.669721 289.838746 
L 356.211707 287.63858 
L 356.753693 286.895999 
L 357.29572 288.364103 
L 357.837706 292.261411 
L 358.921678 304.019988 
L 359.463664 298.92329 
L 360.005691 295.558684 
L 360.547677 293.933288 
L 361.089663 293.575104 
L 361.631649 293.939548 
L 362.715663 295.402028 
L 366.509606 300.906209 
L 367.051591 302.018884 
L 367.593577 303.394189 
L 368.135605 302.906532 
L 368.677591 300.629357 
L 369.219577 297.65092 
L 369.761563 293.795847 
L 370.845576 283.265025 
L 371.929548 271.944594 
L 372.471534 269.046966 
L 373.01352 270.185255 
L 373.555547 276.222617 
L 374.639519 298.836224 
L 375.181505 297.710167 
L 375.723491 289.288059 
L 376.265518 284.691177 
L 376.807504 283.266049 
L 377.34949 283.782131 
L 378.433462 286.746117 
L 379.517475 289.5935 
L 380.601447 291.864552 
L 383.311418 296.966103 
L 383.853404 298.268256 
L 384.395431 299.861995 
L 384.937417 301.912099 
L 385.479403 303.402064 
L 386.021389 299.655768 
L 386.563375 294.503185 
L 387.105402 287.519015 
L 387.647388 278.417558 
L 389.815373 236.088147 
L 390.357359 232.873412 
L 390.899345 234.726293 
L 391.441331 240.886583 
L 391.983317 250.439243 
L 392.525345 262.980093 
L 393.609316 296.770719 
L 394.151302 291.725571 
L 394.693288 273.866872 
L 395.235316 261.135467 
L 395.777302 255.243063 
L 396.319288 255.163466 
L 396.861274 258.366688 
L 397.945287 266.6075 
L 398.487273 270.001846 
L 398.487273 270.001846 
" clip-path="url(#p0d405803f7)" style="fill: none; stroke: #d22027; stroke-width: 1.5; stroke-linecap: square"/>
   </g>
   <g id="patch_13">
    <path d="M 57.6 307.584 
L 57.6 229.315765 
" style="fill: none; stroke: #000000; stroke-width: 0.8; stroke-linejoin: miter; stroke-linecap: square"/>
   </g>
   <g id="patch_14">
    <path d="M 414.72 307.584 
L 414.72 229.315765 
" style="fill: none; stroke: #000000; stroke-width: 0.8; stroke-linejoin: miter; stroke-linecap: square"/>
   </g>
   <g id="patch_15">
    <path d="M 57.6 307.584 
L 414.72 307.584 
" style="fill: none; stroke: #000000; stroke-width: 0.8; stroke-linejoin: miter; stroke-linecap: square"/>
   </g>
   <g id="patch_16">
    <path d="M 57.6 229.315765 
L 414.72 229.315765 
" style="fill: none; stroke: #000000; stroke-width: 0.8; stroke-linejoin: miter; stroke-linecap: square"/>
   </g>
  </g>
 </g>
 <defs>
  <clipPath id="pec33ae962b">
   <rect x="57.6" y="41.472" width="357.12" height="78.268235"/>
  </clipPath>
  <clipPath id="pe2c88adaa8">
   <rect x="57.6" y="135.393882" width="357.12" height="78.268235"/>
  </clipPath>
  <clipPath id="p0d405803f7">
   <rect x="57.6" y="229.315765" width="357.12" height="78.268235"/>
  </clipPath>
 </defs>
</svg>
