<?xml version="1.0" encoding="utf-8" standalone="no"?>
<!DOCTYPE svg PUBLIC "-//W3C//DTD SVG 1.1//EN"
  "http://www.w3.org/Graphics/SVG/1.1/DTD/svg11.dtd">
<svg xmlns:xlink="http://www.w3.org/1999/xlink" width="460.8pt" height="345.6pt" viewBox="0 0 460.8 345.6" xmlns="http://www.w3.org/2000/svg" version="1.1">
 <metadata>
  <rdf:RDF xmlns:dc="http://purl.org/dc/elements/1.1/" xmlns:cc="http://creativecommons.org/ns#" xmlns:rdf="http://www.w3.org/1999/02/22-rdf-syntax-ns#">
   <cc:Work>
    <dc:type rdf:resource="http://purl.org/dc/dcmitype/StillImage"/>
    <dc:date>2023-11-22T17:07:30.748232</dc:date>
    <dc:format>image/svg+xml</dc:format>
    <dc:creator>
     <cc:Agent>
      <dc:title>Matplotlib v3.5.2, https://matplotlib.org/</dc:title>
     </cc:Agent>
    </dc:creator>
   </cc:Work>
  </rdf:RDF>
 </metadata>
 <defs>
  <style type="text/css">*{stroke-linejoin: round; stroke-linecap: butt}</style>
 </defs>
 <g id="figure_1">
  <g id="patch_1">
   <path d="M 0 345.6 
L 460.8 345.6 
L 460.8 0 
L 0 0 
z
" style="fill: #ffffff"/>
  </g>
  <g id="axes_1">
   <g id="patch_2">
    <path d="M 57.6 119.740235 
L 414.72 119.740235 
L 414.72 41.472 
L 57.6 41.472 
z
" style="fill: #ffffff"/>
   </g>
   <g id="matplotlib.axis_1">
    <g id="xtick_1">
     <g id="line2d_1">
      <defs>
       <path id="m730709c463" d="M 0 0 
L 0 3.5 
" style="stroke: #000000; stroke-width: 0.8"/>
      </defs>
      <g>
       <use xlink:href="#m730709c463" x="57.6" y="119.740235" style="stroke: #000000; stroke-width: 0.8"/>
      </g>
     </g>
    </g>
    <g id="xtick_2">
     <g id="line2d_2">
      <g>
       <use xlink:href="#m730709c463" x="105.216" y="119.740235" style="stroke: #000000; stroke-width: 0.8"/>
      </g>
     </g>
    </g>
    <g id="xtick_3">
     <g id="line2d_3">
      <g>
       <use xlink:href="#m730709c463" x="152.832" y="119.740235" style="stroke: #000000; stroke-width: 0.8"/>
      </g>
     </g>
    </g>
    <g id="xtick_4">
     <g id="line2d_4">
      <g>
       <use xlink:href="#m730709c463" x="200.448" y="119.740235" style="stroke: #000000; stroke-width: 0.8"/>
      </g>
     </g>
    </g>
    <g id="xtick_5">
     <g id="line2d_5">
      <g>
       <use xlink:href="#m730709c463" x="248.064" y="119.740235" style="stroke: #000000; stroke-width: 0.8"/>
      </g>
     </g>
    </g>
    <g id="xtick_6">
     <g id="line2d_6">
      <g>
       <use xlink:href="#m730709c463" x="295.68" y="119.740235" style="stroke: #000000; stroke-width: 0.8"/>
      </g>
     </g>
    </g>
    <g id="xtick_7">
     <g id="line2d_7">
      <g>
       <use xlink:href="#m730709c463" x="343.296" y="119.740235" style="stroke: #000000; stroke-width: 0.8"/>
      </g>
     </g>
    </g>
    <g id="xtick_8">
     <g id="line2d_8">
      <g>
       <use xlink:href="#m730709c463" x="390.912" y="119.740235" style="stroke: #000000; stroke-width: 0.8"/>
      </g>
     </g>
    </g>
    <g id="xtick_9">
     <g id="line2d_9">
      <g>
       <use xlink:href="#m730709c463" x="414.72" y="119.740235" style="stroke: #000000; stroke-width: 0.8"/>
      </g>
     </g>
    </g>
   </g>
   <g id="matplotlib.axis_2">
    <g id="ytick_1">
     <g id="line2d_10">
      <defs>
       <path id="m397f462e05" d="M 0 0 
L -3.5 0 
" style="stroke: #000000; stroke-width: 0.8"/>
      </defs>
      <g>
       <use xlink:href="#m397f462e05" x="57.6" y="116.182588" style="stroke: #000000; stroke-width: 0.8"/>
      </g>
     </g>
     <g id="text_1">
      <!-- 0 -->
      <g transform="translate(44.2375 119.981807)scale(0.1 -0.1)">
       <defs>
        <path id="DejaVuSans-30" d="M 2034 4250 
Q 1547 4250 1301 3770 
Q 1056 3291 1056 2328 
Q 1056 1369 1301 889 
Q 1547 409 2034 409 
Q 2525 409 2770 889 
Q 3016 1369 3016 2328 
Q 3016 3291 2770 3770 
Q 2525 4250 2034 4250 
z
M 2034 4750 
Q 2819 4750 3233 4129 
Q 3647 3509 3647 2328 
Q 3647 1150 3233 529 
Q 2819 -91 2034 -91 
Q 1250 -91 836 529 
Q 422 1150 422 2328 
Q 422 3509 836 4129 
Q 1250 4750 2034 4750 
z
" transform="scale(0.015625)"/>
       </defs>
       <use xlink:href="#DejaVuSans-30"/>
      </g>
     </g>
    </g>
    <g id="ytick_2">
     <g id="line2d_11">
      <g>
       <use xlink:href="#m397f462e05" x="57.6" y="71.457576" style="stroke: #000000; stroke-width: 0.8"/>
      </g>
     </g>
     <g id="text_2">
      <!-- 20 -->
      <g transform="translate(37.875 75.256795)scale(0.1 -0.1)">
       <defs>
        <path id="DejaVuSans-32" d="M 1228 531 
L 3431 531 
L 3431 0 
L 469 0 
L 469 531 
Q 828 903 1448 1529 
Q 2069 2156 2228 2338 
Q 2531 2678 2651 2914 
Q 2772 3150 2772 3378 
Q 2772 3750 2511 3984 
Q 2250 4219 1831 4219 
Q 1534 4219 1204 4116 
Q 875 4013 500 3803 
L 500 4441 
Q 881 4594 1212 4672 
Q 1544 4750 1819 4750 
Q 2544 4750 2975 4387 
Q 3406 4025 3406 3419 
Q 3406 3131 3298 2873 
Q 3191 2616 2906 2266 
Q 2828 2175 2409 1742 
Q 1991 1309 1228 531 
z
" transform="scale(0.015625)"/>
       </defs>
       <use xlink:href="#DejaVuSans-32"/>
       <use xlink:href="#DejaVuSans-30" x="63.623047"/>
      </g>
     </g>
    </g>
   </g>
   <g id="line2d_12">
    <path d="M 57.6 116.182588 
L 84.384 116.065024 
L 87.955191 115.96314 
L 89.145595 116.169577 
L 90.336 115.896738 
L 91.526405 115.847129 
L 96.883191 116.145892 
L 170.092809 116.050593 
L 172.473595 116.089225 
L 175.449595 116.152745 
L 181.996809 115.892263 
L 186.163191 115.5128 
L 186.758405 115.632894 
L 187.948809 116.141416 
L 189.139191 115.452659 
L 189.734405 115.286312 
L 190.924809 115.360551 
L 193.900809 116.047266 
L 195.091191 116.179187 
L 199.257595 116.036336 
L 203.424 116.041819 
L 204.614382 116.17524 
L 206.995191 115.901891 
L 208.780809 116.074036 
L 209.971191 116.139354 
L 213.542382 115.890954 
L 216.518382 115.60687 
L 218.304 115.211748 
L 219.494382 114.750164 
L 220.684809 114.021358 
L 221.875191 112.891525 
L 223.065618 111.249774 
L 224.256 109.314742 
L 224.851191 108.607019 
L 225.446382 108.53836 
L 226.041618 109.608592 
L 226.636809 112.197747 
L 227.232 116.170699 
L 228.422382 108.020163 
L 229.017618 106.021648 
L 229.612809 105.826678 
L 230.208 106.910893 
L 231.993618 112.022656 
L 232.588809 113.3288 
L 233.184 114.313357 
L 233.779191 115.008641 
L 234.374382 115.462913 
L 234.969618 115.725109 
L 235.564809 115.836372 
L 236.755191 115.721423 
L 237.945618 115.267033 
L 239.731191 114.159424 
L 240.921618 113.527617 
L 241.516809 113.47948 
L 242.112 113.748625 
L 242.707191 114.391616 
L 243.302382 115.367269 
L 243.897618 115.841652 
L 245.088 113.816748 
L 245.683191 113.236038 
L 246.278382 112.976914 
L 246.873618 112.974578 
L 248.064 113.393896 
L 249.849618 114.161933 
L 251.04 114.475358 
L 252.825618 114.636047 
L 255.801618 114.642684 
L 256.992 114.970409 
L 257.587191 115.334073 
L 258.182382 115.866161 
L 258.777618 115.817568 
L 259.968 114.416106 
L 260.563191 114.014871 
L 261.158382 113.97199 
L 261.753618 114.276574 
L 262.944 115.475421 
L 263.539191 116.121392 
L 265.324809 114.790021 
L 267.110382 113.896549 
L 268.896 112.92415 
L 270.086382 111.938509 
L 271.276809 110.480368 
L 272.467191 108.376652 
L 273.657618 105.579782 
L 274.848 102.6036 
L 275.443191 101.58337 
L 276.038382 101.424402 
L 276.633618 102.660711 
L 277.228809 105.745306 
L 278.419191 115.014769 
L 279.609618 101.883232 
L 280.204809 97.903875 
L 280.8 96.618752 
L 281.395191 97.779138 
L 281.990382 100.585243 
L 283.776 110.936503 
L 284.371191 113.637603 
L 284.966382 115.816639 
L 285.561618 114.812983 
L 286.752 112.229573 
L 289.132809 107.735157 
L 289.728 106.24693 
L 290.323191 104.450246 
L 290.918382 102.255322 
L 291.513618 99.563155 
L 292.108809 96.266671 
L 292.704 92.257663 
L 293.894382 81.780664 
L 296.870382 50.463301 
L 297.465618 48.887519 
L 298.060809 50.942521 
L 298.656 56.580062 
L 299.846382 74.499128 
L 301.036809 92.573468 
L 301.632 99.691931 
L 302.227191 105.318559 
L 302.822382 109.601202 
L 303.417618 112.779049 
L 304.012809 115.10506 
L 304.608 115.555933 
L 305.203191 114.281069 
L 306.393618 112.442712 
L 308.774382 109.192526 
L 310.56 106.006956 
L 311.155191 104.951012 
L 311.750382 104.14052 
L 312.345618 103.85883 
L 312.940809 104.479564 
L 313.536 106.395767 
L 314.131191 109.865335 
L 314.726382 114.801455 
L 315.321618 111.751596 
L 315.916809 106.118838 
L 316.512 101.863881 
L 317.107191 99.831926 
L 317.702382 100.159588 
L 318.297618 102.323278 
L 320.678382 115.091658 
L 321.273618 114.892718 
L 322.464 111.249905 
L 324.844809 105.262369 
L 326.035191 101.190034 
L 326.630382 98.532181 
L 327.225618 95.32639 
L 328.416 86.933572 
L 329.606382 75.838961 
L 330.796809 63.760754 
L 331.392 58.736815 
L 331.987191 55.385702 
L 332.582382 54.322432 
L 333.177618 55.83434 
L 333.772809 59.805346 
L 334.368 65.748208 
L 336.748809 94.158945 
L 337.344 99.527381 
L 337.939191 103.799046 
L 338.534382 107.063311 
L 339.129618 109.470773 
L 339.724809 111.186806 
L 340.32 112.364828 
L 340.915191 113.133878 
L 341.510382 113.595098 
L 342.105618 113.823041 
L 342.700809 113.86905 
L 343.296 113.76505 
L 343.891191 113.52691 
L 344.486382 113.156964 
L 345.081618 112.645555 
L 345.676809 111.971607 
L 346.272 111.102269 
L 346.867191 109.991727 
L 347.462382 108.579327 
L 348.057618 106.787302 
L 348.652809 104.518749 
L 349.248 101.657239 
L 349.843191 98.070846 
L 350.438382 93.625742 
L 351.628809 81.831238 
L 354.009618 53.979612 
L 354.604809 50.238041 
L 355.2 49.206017 
L 355.795191 51.231563 
L 356.390382 56.478981 
L 356.985618 64.672658 
L 359.366382 104.453943 
L 359.961618 111.522971 
L 360.556809 115.293869 
L 361.152 110.983817 
L 362.342382 104.783608 
L 364.723191 94.873681 
L 365.913618 88.432853 
L 367.104 80.10274 
L 369.484809 61.81991 
L 370.08 59.309391 
L 370.675191 58.682116 
L 371.270382 60.150523 
L 371.865618 63.546366 
L 373.056 73.986607 
L 374.246382 85.161969 
L 375.436809 93.857784 
L 376.032 96.94941 
L 376.627191 99.23168 
L 377.222382 100.780354 
L 377.817618 101.680128 
L 378.412809 102.007661 
L 379.008 101.822419 
L 379.603191 101.162898 
L 380.198382 100.046308 
L 380.793618 98.470548 
L 381.388809 96.418019 
L 381.984 93.861561 
L 383.174382 87.138049 
L 384.364809 78.34418 
L 386.150382 63.800401 
L 386.745618 60.018315 
L 387.340809 57.665576 
L 387.936 57.282825 
L 388.531191 59.193146 
L 389.126382 63.320103 
L 390.316809 75.83806 
L 391.507191 88.750172 
L 392.102382 93.968563 
L 392.697618 98.114174 
L 393.292809 101.216263 
L 393.888 103.38521 
L 394.483191 104.758515 
L 395.078382 105.468499 
L 395.673618 105.626463 
L 396.268809 105.317683 
L 396.864 104.603097 
L 397.459191 103.525277 
L 398.054382 102.117707 
L 399.244809 98.481343 
L 401.030382 92.532919 
L 401.625618 91.251716 
L 402.220809 90.812518 
L 402.816 91.469192 
L 403.411191 93.343287 
L 404.006382 96.386888 
L 405.196809 105.173075 
L 406.387191 116.087281 
L 409.363191 88.139633 
L 409.958382 85.962261 
L 410.553618 86.731057 
L 411.148809 90.484529 
L 412.339191 103.592547 
L 412.934382 110.843164 
L 413.529618 114.72763 
L 414.72 103.134509 
L 414.72 103.134509 
" clip-path="url(#p555b1d7bb9)" style="fill: none; stroke: #0000cc; stroke-width: 1.5; stroke-linecap: square"/>
   </g>
   <g id="line2d_13">
    <path d="M 57.6 116.182573 
L 181.9968 116.078732 
L 186.7584 115.990358 
L 187.9488 116.161884 
L 189.7344 115.862763 
L 191.52 115.944522 
L 195.0912 116.179334 
L 204.0192 116.16094 
L 205.8048 116.117165 
L 208.1856 116.128383 
L 210.5664 116.141522 
L 218.304 115.852849 
L 220.0896 115.588723 
L 221.8752 115.08132 
L 224.8512 113.916826 
L 225.4464 114.077021 
L 226.0416 114.653846 
L 226.6368 115.687909 
L 227.232 115.362426 
L 227.8272 114.136735 
L 228.4224 113.347716 
L 229.0176 113.114912 
L 229.6128 113.327733 
L 232.5888 115.565916 
L 233.7792 115.962587 
L 234.9696 116.116143 
L 236.7552 116.08118 
L 238.5408 115.842501 
L 240.9216 115.429227 
L 242.112 115.513926 
L 243.8976 116.02102 
L 245.088 115.470061 
L 246.2784 115.267557 
L 248.064 115.39116 
L 251.04 115.626614 
L 253.4208 115.575852 
L 256.992 115.441758 
L 258.1824 115.722917 
L 258.7776 116.006066 
L 259.3728 115.99724 
L 260.5632 115.306775 
L 261.1584 115.140167 
L 261.7536 115.144285 
L 262.944 115.527056 
L 264.1344 116.04741 
L 264.7296 116.092091 
L 266.5152 115.60433 
L 269.4912 114.921114 
L 270.6816 114.471985 
L 271.872 113.794858 
L 273.0624 112.778441 
L 274.2528 111.321652 
L 276.0384 108.654753 
L 276.6336 108.11713 
L 277.2288 108.243359 
L 277.824 109.449127 
L 278.4192 112.026876 
L 279.0144 115.855628 
L 280.2048 108.324491 
L 280.8 105.967427 
L 281.3952 105.356012 
L 281.9904 106.166383 
L 283.1808 109.728192 
L 284.3712 113.164169 
L 284.9664 114.441987 
L 285.5616 115.423225 
L 286.1568 116.154961 
L 287.3472 115.275873 
L 288.5376 114.737788 
L 292.1088 113.627132 
L 293.2992 113.448491 
L 293.8944 113.550985 
L 294.4896 113.893229 
L 295.0848 114.568198 
L 295.68 115.626896 
L 296.2752 115.367767 
L 297.4656 112.741553 
L 298.0608 112.178928 
L 298.656 112.330136 
L 299.2512 113.056661 
L 301.0368 116.13289 
L 302.2272 114.541804 
L 303.4176 113.452475 
L 305.7984 111.487093 
L 306.9888 109.987842 
L 307.584 108.967454 
L 308.1792 107.69804 
L 308.7744 106.114769 
L 309.3696 104.139111 
L 309.9648 101.676344 
L 310.56 98.614866 
L 311.1552 94.830318 
L 311.7504 90.196614 
L 312.9408 78.05957 
L 315.3216 49.736438 
L 315.9168 46.894269 
L 316.512 47.962994 
L 317.1072 53.065645 
L 317.7024 61.339331 
L 319.488 90.789227 
L 320.0832 98.668977 
L 320.6784 104.989658 
L 321.2736 109.874191 
L 321.8688 113.564995 
L 322.464 116.028784 
L 323.0592 113.918506 
L 324.2496 110.827042 
L 326.0352 106.708594 
L 327.2256 102.997666 
L 327.8208 100.555077 
L 328.416 97.581776 
L 329.0112 93.969481 
L 330.2016 84.457028 
L 331.392 71.873391 
L 332.5824 58.433247 
L 333.1776 53.212863 
L 333.7728 50.360286 
L 334.368 50.710923 
L 334.9632 54.508467 
L 335.5584 61.227271 
L 337.9392 94.811956 
L 338.5344 100.888126 
L 339.1296 105.626817 
L 339.7248 109.193915 
L 340.32 111.808473 
L 340.9152 113.689816 
L 341.5104 115.031412 
L 342.1056 115.991846 
L 342.7008 115.669779 
L 343.8912 114.679795 
L 345.6768 113.410532 
L 346.8672 112.31114 
L 348.0576 110.821169 
L 349.8432 108.129109 
L 350.4384 107.548187 
L 351.0336 107.583851 
L 351.6288 108.656014 
L 352.224 111.119404 
L 352.8192 114.983985 
L 353.4144 112.701387 
L 354.0096 108.314002 
L 354.6048 105.339611 
L 355.2 104.321274 
L 355.7952 105.058554 
L 356.3904 106.912248 
L 358.176 113.47884 
L 358.7712 115.111578 
L 359.3664 115.969298 
L 359.9616 114.97614 
L 361.152 113.576065 
L 364.128 110.859821 
L 365.3184 109.369366 
L 367.6992 105.994278 
L 368.2944 105.717154 
L 368.8896 106.188211 
L 369.4848 107.772013 
L 370.08 110.737489 
L 370.6752 115.04725 
L 371.2704 112.191252 
L 371.8656 107.245202 
L 372.4608 103.611761 
L 373.056 102.042746 
L 373.6512 102.587633 
L 374.2464 104.69887 
L 376.6272 115.991922 
L 378.4128 111.243214 
L 380.7936 105.998163 
L 381.984 102.312705 
L 382.5792 99.879201 
L 383.1744 96.917597 
L 383.7696 93.323698 
L 384.96 83.898005 
L 386.1504 71.563903 
L 387.3408 58.743204 
L 387.936 54.00617 
L 388.5312 51.66334 
L 389.1264 52.380125 
L 389.7216 56.2237 
L 390.3168 62.60875 
L 392.6976 93.7308 
L 393.2928 99.456899 
L 393.888 103.968794 
L 394.4832 107.392958 
L 395.0784 109.911016 
L 395.6736 111.71192 
L 396.2688 112.966284 
L 396.864 113.815358 
L 397.4592 114.370052 
L 398.0544 114.712954 
L 399.2448 114.981515 
L 400.4352 114.897099 
L 401.6256 114.556019 
L 402.816 113.950434 
L 404.0064 113.015222 
L 405.1968 111.70273 
L 406.3872 110.230022 
L 406.9824 109.728942 
L 407.5776 109.741023 
L 408.1728 110.65247 
L 408.768 112.779218 
L 409.3632 116.068625 
L 410.5536 109.262671 
L 411.1488 107.454107 
L 411.744 107.265206 
L 412.3392 108.289874 
L 414.72 114.613031 
L 414.72 114.613031 
" clip-path="url(#p555b1d7bb9)" style="fill: none; stroke: #008800; stroke-width: 1.5; stroke-linecap: square"/>
   </g>
   <g id="line2d_14">
    <path d="M 57.6 116.182588 
L 183.187191 116.075014 
L 186.758405 116.044126 
L 187.948809 116.167246 
L 189.734405 115.952991 
L 191.52 116.012139 
L 195.091191 116.180144 
L 208.780809 116.16402 
L 211.161618 116.142236 
L 218.304 115.947348 
L 220.684809 115.662687 
L 222.470382 115.226615 
L 224.256 114.665118 
L 224.851191 114.597372 
L 225.446382 114.728916 
L 226.041618 115.157628 
L 226.636809 115.902945 
L 227.232 115.536776 
L 227.827191 114.695418 
L 228.422382 114.172815 
L 229.017618 114.03795 
L 229.612809 114.205359 
L 232.588809 115.767344 
L 233.779191 116.037899 
L 235.564809 116.151795 
L 237.945618 116.016471 
L 241.516809 115.653656 
L 242.707236 115.859955 
L 243.302427 116.065671 
L 243.897618 116.065965 
L 245.088 115.683948 
L 246.278382 115.54506 
L 248.659191 115.677552 
L 251.635191 115.78933 
L 255.206427 115.644856 
L 256.992 115.621155 
L 258.182382 115.816207 
L 258.777618 116.021789 
L 259.372809 116.075394 
L 260.563191 115.547299 
L 261.158382 115.410698 
L 262.348809 115.50196 
L 264.729618 116.144591 
L 266.515236 115.781367 
L 270.086382 115.140444 
L 271.276809 114.745486 
L 272.467191 114.145804 
L 273.657618 113.250323 
L 274.848 111.99851 
L 276.038382 110.566296 
L 276.633618 110.032822 
L 277.228809 109.923251 
L 277.824 110.5693 
L 278.419236 112.266578 
L 279.014427 115.044154 
L 279.609618 113.909939 
L 280.204809 110.713182 
L 280.8 108.55043 
L 281.395191 107.774782 
L 281.990382 108.204831 
L 282.585618 109.382349 
L 284.371191 113.574276 
L 284.966382 114.601305 
L 285.561618 115.39151 
L 286.156809 115.978194 
L 286.752 115.961433 
L 287.942382 115.435673 
L 289.728 115.045039 
L 292.108809 114.793642 
L 293.299191 114.888216 
L 293.894382 115.080083 
L 294.489618 115.421358 
L 295.084809 115.939272 
L 295.68 115.747849 
L 296.870382 114.360433 
L 297.465618 114.009829 
L 298.060809 114.055547 
L 298.656 114.462966 
L 299.846382 115.793457 
L 300.441618 115.917066 
L 301.632 114.910737 
L 302.822427 114.25199 
L 305.203191 113.112949 
L 306.393618 112.229086 
L 307.584 110.860304 
L 308.179191 109.906582 
L 308.774382 108.709703 
L 309.369618 107.206751 
L 309.964809 105.31913 
L 310.56 102.949792 
L 311.155191 99.981618 
L 311.750382 96.278979 
L 312.345618 91.696559 
L 312.940809 86.102764 
L 314.131236 71.760413 
L 315.321618 55.35173 
L 315.916809 48.694204 
L 316.512 45.029647 
L 317.107191 45.588005 
L 317.702382 50.65373 
L 318.297618 59.341016 
L 320.083191 91.000048 
L 320.678382 99.493009 
L 321.273618 106.302041 
L 321.868809 111.570908 
L 322.464 115.573747 
L 323.059191 113.748377 
L 324.249618 109.431565 
L 326.630427 102.259188 
L 327.820809 97.166767 
L 328.416 93.85092 
L 329.606382 85.220545 
L 330.796809 73.821628 
L 331.987191 61.35383 
L 332.582382 56.228466 
L 333.177618 53.049114 
L 333.772809 52.619013 
L 334.368 55.260559 
L 334.963191 60.629794 
L 337.939236 96.327118 
L 338.534427 100.93923 
L 339.129618 104.439765 
L 339.724809 106.98475 
L 340.32 108.747025 
L 340.915191 109.886026 
L 341.510382 110.53361 
L 342.105618 110.789677 
L 342.700809 110.722953 
L 343.296 110.373934 
L 343.891191 109.758184 
L 344.486382 108.869079 
L 345.081618 107.679604 
L 345.676809 106.143247 
L 346.272 104.194364 
L 346.867191 101.748857 
L 347.462382 98.706762 
L 348.057618 94.959579 
L 348.652809 90.406979 
L 349.843236 78.742633 
L 351.628809 58.339763 
L 352.224 53.282322 
L 352.819191 50.53245 
L 353.414382 50.736742 
L 354.009618 54.159751 
L 354.604809 60.548524 
L 355.795191 78.5827 
L 356.985618 96.183227 
L 357.580809 103.095777 
L 358.176 108.583707 
L 358.771191 112.807257 
L 359.366382 116.011869 
L 360.556809 111.985411 
L 362.342427 107.487665 
L 363.532809 104.175076 
L 364.128 102.095174 
L 364.723191 99.597336 
L 365.318382 96.578278 
L 365.913618 92.936261 
L 367.104 83.464254 
L 368.294382 71.175944 
L 369.484809 58.367125 
L 370.08 53.538956 
L 370.675191 51.063844 
L 371.270382 51.723437 
L 371.865618 55.711672 
L 372.460809 62.464898 
L 374.841618 94.967081 
L 375.436809 100.709602 
L 376.032 105.151798 
L 376.627191 108.460653 
L 377.222382 110.846729 
L 377.817618 112.516249 
L 378.412809 113.648041 
L 379.008 114.385823 
L 379.603191 114.838812 
L 380.198382 115.086157 
L 380.793618 115.182576 
L 381.984 115.051926 
L 383.174382 114.591519 
L 384.364809 113.865059 
L 385.555236 113.06043 
L 386.150427 112.807466 
L 386.745618 112.838087 
L 387.340809 113.320937 
L 387.936 114.362035 
L 388.531191 115.893288 
L 389.126382 114.741093 
L 389.721618 113.218745 
L 390.316809 112.223761 
L 390.912 111.850333 
L 391.507191 111.991842 
L 392.697618 113.05334 
L 393.888 114.199339 
L 395.078382 114.980505 
L 396.268809 115.389074 
L 397.459236 115.528385 
L 398.649618 115.480362 
L 399.84 115.275277 
L 401.030382 114.891055 
L 402.220809 114.251118 
L 403.411191 113.210961 
L 404.006382 112.471447 
L 404.601618 111.535764 
L 405.196809 110.359827 
L 405.792 108.900033 
L 406.982382 105.055261 
L 408.172809 100.653706 
L 408.768 99.204701 
L 409.363236 99.338367 
L 409.958427 102.035395 
L 410.553618 107.835326 
L 411.148809 116.135951 
L 412.339191 98.920461 
L 412.934382 94.138961 
L 413.529618 93.000234 
L 414.124809 94.762431 
L 414.72 98.13198 
L 414.72 98.13198 
" clip-path="url(#p555b1d7bb9)" style="fill: none; stroke: #ff8800; stroke-width: 1.5; stroke-linecap: square"/>
   </g>
   <g id="line2d_15">
    <path d="M 57.6 116.182588 
L 221.28 115.963387 
L 225.446382 115.70635 
L 226.636809 116.122414 
L 229.017618 115.467857 
L 230.803191 115.769417 
L 232.588809 116.049411 
L 234.969618 116.16847 
L 238.540809 116.101285 
L 242.112 116.031576 
L 243.897618 116.135805 
L 245.683191 115.980661 
L 248.659191 116.021377 
L 254.016 116.032446 
L 258.182382 116.060333 
L 259.372809 116.153857 
L 261.158382 115.932808 
L 262.944 116.013717 
L 264.729618 116.171679 
L 272.467191 115.523231 
L 274.252809 115.029519 
L 277.228809 113.83985 
L 277.824 113.894754 
L 278.419191 114.298012 
L 279.609618 116.015289 
L 280.8 113.647281 
L 281.395191 113.097593 
L 281.990382 113.067721 
L 282.585618 113.407415 
L 284.966382 115.411439 
L 286.156809 115.980889 
L 286.752 116.155248 
L 289.728 115.898031 
L 292.108809 115.939462 
L 294.489618 116.054358 
L 296.275191 115.618734 
L 297.465618 115.661815 
L 299.251191 116.075902 
L 300.441618 115.720273 
L 302.227191 115.469029 
L 305.203191 115.147287 
L 306.988809 114.681931 
L 308.179191 114.12699 
L 309.369618 113.258421 
L 310.56 111.904475 
L 311.750382 109.84628 
L 312.940809 106.930767 
L 314.131191 103.592083 
L 314.726382 102.380102 
L 315.321618 102.188809 
L 315.916809 103.745862 
L 316.512 107.622227 
L 317.107191 113.769946 
L 317.702382 111.158604 
L 318.297618 104.141953 
L 318.892809 99.227869 
L 319.488 97.262644 
L 320.083191 97.997505 
L 320.678382 100.497573 
L 322.464 109.786125 
L 323.059191 112.042143 
L 323.654382 113.73757 
L 324.249618 114.942891 
L 324.844809 115.749364 
L 325.44 116.121209 
L 326.035191 115.866712 
L 326.630382 115.79938 
L 327.225618 115.884672 
L 327.820809 116.103426 
L 328.416 115.916413 
L 329.606382 114.845228 
L 331.987191 111.957969 
L 332.582382 111.73333 
L 333.177618 112.104182 
L 333.772809 113.171411 
L 334.368 114.827066 
L 334.963191 115.604772 
L 335.558382 113.774532 
L 336.153618 112.335902 
L 336.748809 111.403278 
L 337.344 110.939894 
L 337.939191 110.826894 
L 339.129618 111.12503 
L 340.32 111.490149 
L 341.510382 111.53941 
L 342.105618 111.397517 
L 342.700809 111.131599 
L 343.296 110.732646 
L 343.891191 110.191298 
L 345.081618 108.623222 
L 346.272 106.341503 
L 348.652809 100.652194 
L 349.248 99.917847 
L 349.843191 100.168324 
L 350.438382 101.877822 
L 351.033618 105.405216 
L 351.628809 110.796637 
L 352.224 114.73778 
L 353.414382 100.814354 
L 354.009618 96.270758 
L 354.604809 94.551779 
L 355.2 95.633156 
L 355.795191 98.776604 
L 358.176 114.856316 
L 358.771191 114.638386 
L 359.961618 110.262192 
L 362.342382 102.961916 
L 363.532809 97.953779 
L 364.128 94.706959 
L 365.318382 86.262129 
L 366.508809 75.161859 
L 367.699191 63.228784 
L 368.294382 58.405955 
L 368.889618 55.379016 
L 369.484809 54.742247 
L 370.08 56.694763 
L 370.675191 60.991236 
L 371.865618 74.076543 
L 373.056 88.177226 
L 374.246382 99.235468 
L 374.841618 103.235498 
L 375.436809 106.294505 
L 376.032 108.54948 
L 376.627191 110.148477 
L 377.222382 111.229209 
L 377.817618 111.906875 
L 378.412809 112.271199 
L 379.008 112.387619 
L 379.603191 112.297957 
L 380.198382 112.030394 
L 380.793618 111.592955 
L 381.388809 110.982463 
L 381.984 110.185932 
L 382.579191 109.182113 
L 383.769618 106.456312 
L 384.96 102.727017 
L 386.150382 98.615219 
L 386.745618 97.103059 
L 387.340809 96.665462 
L 387.936 97.986772 
L 388.531191 101.638732 
L 389.126382 107.786608 
L 389.721618 115.970499 
L 390.912 98.816756 
L 391.507191 92.62986 
L 392.102382 89.87078 
L 392.697618 90.655985 
L 393.292809 94.111226 
L 395.078382 108.549171 
L 395.673618 112.353995 
L 396.268809 115.357495 
L 396.864 114.704277 
L 397.459191 112.951222 
L 398.649618 110.500338 
L 402.220809 104.714638 
L 404.006382 101.346957 
L 404.601618 100.615688 
L 405.196809 100.457991 
L 405.792 101.201347 
L 406.387191 103.185911 
L 406.982382 106.672385 
L 407.577618 111.717848 
L 408.172809 114.317515 
L 409.363191 101.008456 
L 409.958382 96.434952 
L 410.553618 94.683408 
L 411.148809 95.967027 
L 411.744 99.628273 
L 413.529618 114.606488 
L 414.124809 113.569177 
L 414.72 110.040645 
L 414.72 110.040645 
" clip-path="url(#p555b1d7bb9)" style="fill: none; stroke: #ff0000; stroke-width: 1.5; stroke-linecap: square"/>
   </g>
   <g id="patch_3">
    <path d="M 57.6 119.740235 
L 57.6 41.472 
" style="fill: none; stroke: #000000; stroke-width: 0.8; stroke-linejoin: miter; stroke-linecap: square"/>
   </g>
   <g id="patch_4">
    <path d="M 414.72 119.740235 
L 414.72 41.472 
" style="fill: none; stroke: #000000; stroke-width: 0.8; stroke-linejoin: miter; stroke-linecap: square"/>
   </g>
   <g id="patch_5">
    <path d="M 57.6 119.740235 
L 414.72 119.740235 
" style="fill: none; stroke: #000000; stroke-width: 0.8; stroke-linejoin: miter; stroke-linecap: square"/>
   </g>
   <g id="patch_6">
    <path d="M 57.6 41.472 
L 414.72 41.472 
" style="fill: none; stroke: #000000; stroke-width: 0.8; stroke-linejoin: miter; stroke-linecap: square"/>
   </g>
  </g>
  <g id="axes_2">
   <g id="patch_7">
    <path d="M 57.6 213.662118 
L 414.72 213.662118 
L 414.72 135.393882 
L 57.6 135.393882 
z
" style="fill: #ffffff"/>
   </g>
   <g id="matplotlib.axis_3">
    <g id="xtick_10">
     <g id="line2d_16">
      <g>
       <use xlink:href="#m730709c463" x="57.6" y="213.662118" style="stroke: #000000; stroke-width: 0.8"/>
      </g>
     </g>
    </g>
    <g id="xtick_11">
     <g id="line2d_17">
      <g>
       <use xlink:href="#m730709c463" x="105.216" y="213.662118" style="stroke: #000000; stroke-width: 0.8"/>
      </g>
     </g>
    </g>
    <g id="xtick_12">
     <g id="line2d_18">
      <g>
       <use xlink:href="#m730709c463" x="152.832" y="213.662118" style="stroke: #000000; stroke-width: 0.8"/>
      </g>
     </g>
    </g>
    <g id="xtick_13">
     <g id="line2d_19">
      <g>
       <use xlink:href="#m730709c463" x="200.448" y="213.662118" style="stroke: #000000; stroke-width: 0.8"/>
      </g>
     </g>
    </g>
    <g id="xtick_14">
     <g id="line2d_20">
      <g>
       <use xlink:href="#m730709c463" x="248.064" y="213.662118" style="stroke: #000000; stroke-width: 0.8"/>
      </g>
     </g>
    </g>
    <g id="xtick_15">
     <g id="line2d_21">
      <g>
       <use xlink:href="#m730709c463" x="295.68" y="213.662118" style="stroke: #000000; stroke-width: 0.8"/>
      </g>
     </g>
    </g>
    <g id="xtick_16">
     <g id="line2d_22">
      <g>
       <use xlink:href="#m730709c463" x="343.296" y="213.662118" style="stroke: #000000; stroke-width: 0.8"/>
      </g>
     </g>
    </g>
    <g id="xtick_17">
     <g id="line2d_23">
      <g>
       <use xlink:href="#m730709c463" x="390.912" y="213.662118" style="stroke: #000000; stroke-width: 0.8"/>
      </g>
     </g>
    </g>
    <g id="xtick_18">
     <g id="line2d_24">
      <g>
       <use xlink:href="#m730709c463" x="414.72" y="213.662118" style="stroke: #000000; stroke-width: 0.8"/>
      </g>
     </g>
    </g>
   </g>
   <g id="matplotlib.axis_4">
    <g id="ytick_3">
     <g id="line2d_25">
      <g>
       <use xlink:href="#m397f462e05" x="57.6" y="210.104471" style="stroke: #000000; stroke-width: 0.8"/>
      </g>
     </g>
     <g id="text_3">
      <!-- 0 -->
      <g transform="translate(44.2375 213.903689)scale(0.1 -0.1)">
       <use xlink:href="#DejaVuSans-30"/>
      </g>
     </g>
    </g>
    <g id="ytick_4">
     <g id="line2d_26">
      <g>
       <use xlink:href="#m397f462e05" x="57.6" y="175.275219" style="stroke: #000000; stroke-width: 0.8"/>
      </g>
     </g>
     <g id="text_4">
      <!-- 20 -->
      <g transform="translate(37.875 179.074437)scale(0.1 -0.1)">
       <use xlink:href="#DejaVuSans-32"/>
       <use xlink:href="#DejaVuSans-30" x="63.623047"/>
      </g>
     </g>
    </g>
    <g id="ytick_5">
     <g id="line2d_27">
      <g>
       <use xlink:href="#m397f462e05" x="57.6" y="140.445966" style="stroke: #000000; stroke-width: 0.8"/>
      </g>
     </g>
     <g id="text_5">
      <!-- 40 -->
      <g transform="translate(37.875 144.245185)scale(0.1 -0.1)">
       <defs>
        <path id="DejaVuSans-34" d="M 2419 4116 
L 825 1625 
L 2419 1625 
L 2419 4116 
z
M 2253 4666 
L 3047 4666 
L 3047 1625 
L 3713 1625 
L 3713 1100 
L 3047 1100 
L 3047 0 
L 2419 0 
L 2419 1100 
L 313 1100 
L 313 1709 
L 2253 4666 
z
" transform="scale(0.015625)"/>
       </defs>
       <use xlink:href="#DejaVuSans-34"/>
       <use xlink:href="#DejaVuSans-30" x="63.623047"/>
      </g>
     </g>
    </g>
   </g>
   <g id="line2d_28">
    <path d="M 57.6 210.104471 
L 83.193595 209.992706 
L 86.764809 209.849348 
L 87.955191 210.093668 
L 89.145595 209.604943 
L 89.740809 209.527229 
L 90.931191 209.770665 
L 92.121595 210.041965 
L 93.312 210.078064 
L 108.787191 210.084399 
L 112.953595 210.072079 
L 123.072 210.047781 
L 128.428809 210.091109 
L 141.523191 210.086864 
L 160.569595 210.052851 
L 166.521595 210.052687 
L 167.116809 210.099802 
L 169.497595 209.884692 
L 174.259191 210.039898 
L 180.211191 209.88141 
L 183.187191 209.550456 
L 184.972809 209.407704 
L 185.568 209.513768 
L 186.758405 209.971298 
L 187.948809 208.888157 
L 188.544 208.652102 
L 189.139191 208.774834 
L 191.52 210.083621 
L 193.305595 209.936344 
L 202.828809 210.034287 
L 203.424 210.086062 
L 205.804809 209.683261 
L 206.995191 209.8983 
L 207.590382 210.060263 
L 211.756809 209.84168 
L 214.732809 209.662566 
L 216.518382 209.369308 
L 217.708809 209.024269 
L 218.899191 208.476581 
L 220.089618 207.611017 
L 221.28 206.276847 
L 222.470382 204.38814 
L 223.660809 202.40516 
L 224.256 202.002744 
L 224.851191 202.752921 
L 225.446382 205.447315 
L 226.041618 209.632251 
L 227.232 196.3232 
L 227.827191 193.242822 
L 228.422382 194.596605 
L 230.208 207.534624 
L 230.803191 209.862119 
L 231.398382 209.182759 
L 231.993618 208.769043 
L 232.588809 208.766195 
L 233.779191 209.254733 
L 234.969618 209.898152 
L 235.564809 209.980909 
L 237.350382 208.885092 
L 239.731191 207.2957 
L 240.326382 207.207596 
L 240.921618 207.497012 
L 241.516809 208.29601 
L 242.112 209.621184 
L 242.707191 208.926464 
L 243.302382 207.316053 
L 243.897618 206.175298 
L 244.492809 205.73201 
L 245.088 205.929739 
L 246.278382 207.24499 
L 247.468809 208.426961 
L 248.064 208.786717 
L 249.254382 209.125072 
L 250.444809 209.158409 
L 255.206382 208.922773 
L 255.801618 209.120201 
L 256.396809 209.480393 
L 256.992 210.047974 
L 257.587191 209.374078 
L 258.777618 207.534421 
L 259.372809 206.966735 
L 259.968 207.002817 
L 260.563191 207.698897 
L 261.753618 210.01598 
L 262.944 208.587318 
L 263.539191 208.22909 
L 264.729618 207.968354 
L 266.515191 207.672965 
L 267.705618 207.176181 
L 268.896 206.307119 
L 270.086382 204.943168 
L 271.276809 202.930134 
L 272.467191 200.183464 
L 273.657618 197.084977 
L 274.252809 195.889481 
L 274.848 195.511244 
L 275.443191 196.633199 
L 276.038382 200.010008 
L 276.633618 206.127988 
L 277.228809 205.497116 
L 278.419191 187.370959 
L 279.014382 182.542761 
L 279.609618 182.754709 
L 280.204809 187.595673 
L 281.395191 202.438246 
L 281.990382 208.286871 
L 282.585618 208.100486 
L 283.180809 205.961679 
L 283.776 204.933046 
L 284.371191 204.511712 
L 286.156809 203.980093 
L 286.752 203.574558 
L 287.347191 202.944495 
L 287.942382 202.049285 
L 288.537618 200.846279 
L 289.132809 199.283519 
L 289.728 197.295284 
L 290.323191 194.799984 
L 290.918382 191.700943 
L 291.513618 187.891954 
L 292.108809 183.271397 
L 293.299191 171.40955 
L 295.084809 150.580893 
L 295.68 146.009996 
L 296.275191 145.014677 
L 296.870382 148.965814 
L 297.465618 158.238543 
L 299.251191 198.845459 
L 299.846382 208.050263 
L 300.441618 206.645727 
L 301.036809 203.983997 
L 301.632 203.13374 
L 302.227191 203.241733 
L 304.012809 204.776949 
L 304.608 205.066123 
L 305.203191 205.153035 
L 305.798382 205.036381 
L 306.393618 204.723648 
L 306.988809 204.224181 
L 308.179191 202.706791 
L 310.56 198.722832 
L 311.155191 198.330772 
L 311.750382 198.851653 
L 312.345618 200.824821 
L 313.536 209.404567 
L 314.726382 193.994172 
L 315.321618 188.195896 
L 315.916809 186.284636 
L 316.512 188.888771 
L 317.702382 201.900484 
L 318.297618 208.073489 
L 318.892809 207.736041 
L 319.488 205.047763 
L 320.083191 203.582975 
L 320.678382 202.82204 
L 322.464 201.408937 
L 323.059191 200.636046 
L 323.654382 199.558182 
L 324.249618 198.112981 
L 324.844809 196.237 
L 325.44 193.85921 
L 326.035191 190.900097 
L 326.630382 187.277711 
L 327.820809 177.818126 
L 330.201618 154.768912 
L 330.796809 151.813838 
L 331.392 151.944451 
L 331.987191 155.635222 
L 332.582382 162.584295 
L 334.963191 199.789124 
L 335.558382 205.702311 
L 336.153618 209.430177 
L 337.344 208.081268 
L 337.939191 208.079314 
L 338.534382 208.458342 
L 340.32 210.103881 
L 343.891191 207.091257 
L 345.081618 205.517751 
L 345.676809 204.441796 
L 346.272 203.091979 
L 346.867191 201.389624 
L 347.462382 199.23782 
L 348.057618 196.519165 
L 348.652809 193.096606 
L 349.248 188.821599 
L 349.843191 183.557528 
L 351.033618 169.929497 
L 352.224 154.425572 
L 352.819191 148.393532 
L 353.414382 145.389269 
L 354.009618 146.300192 
L 354.604809 151.09489 
L 355.2 159.352514 
L 355.795191 170.840962 
L 356.985618 199.285615 
L 357.580809 208.86742 
L 358.176 200.81294 
L 358.771191 196.478432 
L 359.366382 194.665632 
L 359.961618 194.203569 
L 361.152 194.212414 
L 361.747191 193.901157 
L 362.342382 193.154222 
L 362.937618 191.900771 
L 363.532809 190.1011 
L 364.128 187.725886 
L 364.723191 184.753387 
L 365.913618 177.037311 
L 368.294382 159.241219 
L 368.889618 157.137301 
L 369.484809 157.486978 
L 370.08 160.727013 
L 370.675191 166.623024 
L 372.460809 189.486332 
L 373.056 195.254892 
L 373.651191 199.346864 
L 374.246382 201.906968 
L 374.841618 203.23867 
L 375.436809 203.666477 
L 376.032 203.463548 
L 376.627191 202.827068 
L 377.222382 201.880448 
L 378.412809 199.261755 
L 379.603191 195.637907 
L 380.793618 190.672502 
L 381.984 183.943315 
L 383.174382 175.314993 
L 384.96 161.191998 
L 385.555191 157.718532 
L 386.150382 155.917364 
L 386.745618 156.506545 
L 387.340809 160.029213 
L 387.936 166.537172 
L 390.316809 200.02485 
L 390.912 204.310963 
L 391.507191 206.589793 
L 392.102382 207.406709 
L 392.697618 207.279023 
L 393.292809 206.590341 
L 394.483191 204.388314 
L 395.673618 201.611279 
L 396.864 198.276517 
L 398.054382 194.288402 
L 399.84 188.166179 
L 400.435191 186.931756 
L 401.030382 186.704569 
L 401.625618 187.855782 
L 402.220809 190.582383 
L 402.816 194.781404 
L 404.006382 205.821574 
L 404.601618 208.571731 
L 406.982382 186.775866 
L 407.577618 181.647097 
L 408.172809 177.485142 
L 408.768 175.601368 
L 409.363191 177.546054 
L 409.958382 184.13779 
L 411.148809 205.817006 
L 411.744 204.443087 
L 412.339191 197.116908 
L 412.934382 192.18839 
L 413.529618 188.821468 
L 414.72 183.780787 
L 414.72 183.780787 
" clip-path="url(#p386a7263a2)" style="fill: none; stroke: #0000cc; stroke-width: 1.5; stroke-linecap: square"/>
   </g>
   <g id="line2d_29">
    <path d="M 57.6 210.104446 
L 88.5504 210.038694 
L 89.7408 209.952409 
L 97.4784 210.095865 
L 117.7152 210.091251 
L 128.4288 210.103606 
L 183.1872 209.906954 
L 185.568 209.897537 
L 186.7584 210.04882 
L 187.9488 209.667338 
L 188.544 209.591173 
L 189.7344 209.763849 
L 191.52 210.096729 
L 194.496 210.051615 
L 204.0192 210.051298 
L 205.8048 209.972638 
L 209.376 210.027611 
L 216.5184 209.854839 
L 218.8992 209.553733 
L 220.6848 209.067497 
L 222.4704 208.24407 
L 223.6608 207.753109 
L 224.256 207.805607 
L 224.8512 208.332935 
L 225.4464 209.55065 
L 226.0416 208.759427 
L 226.6368 206.675011 
L 227.232 205.294087 
L 227.8272 205.240155 
L 228.4224 206.313902 
L 229.6128 209.033198 
L 230.208 209.859231 
L 230.8032 209.904231 
L 231.3984 209.716574 
L 232.5888 209.717402 
L 235.5648 210.067159 
L 238.5408 209.507543 
L 239.7312 209.29537 
L 240.3264 209.276275 
L 240.9216 209.375925 
L 241.5168 209.631781 
L 242.112 210.040594 
L 243.8976 208.93947 
L 244.4928 208.858627 
L 245.6832 209.130244 
L 247.4688 209.625442 
L 249.2544 209.765674 
L 251.6352 209.672192 
L 255.8016 209.435818 
L 256.992 209.712543 
L 257.5872 210.029759 
L 258.1824 209.732806 
L 259.3728 208.763661 
L 259.968 208.541521 
L 260.5632 208.649499 
L 261.7536 209.55824 
L 262.3488 210.039151 
L 264.1344 209.454461 
L 268.3008 208.947627 
L 269.4912 208.551117 
L 270.6816 207.921426 
L 271.872 206.957129 
L 273.0624 205.545423 
L 275.4432 202.041539 
L 276.0384 201.930348 
L 276.6336 202.972057 
L 277.2288 205.784826 
L 277.824 209.531258 
L 279.0144 197.078821 
L 279.6096 193.626029 
L 280.2048 194.033129 
L 280.8 197.56228 
L 281.9904 206.438512 
L 282.5856 209.368043 
L 283.1808 209.124569 
L 283.776 208.286916 
L 284.3712 207.983812 
L 284.9664 207.960689 
L 287.9424 208.342686 
L 289.1328 208.21968 
L 292.1088 207.629529 
L 292.704 207.705997 
L 293.2992 208.019149 
L 293.8944 208.697035 
L 294.4896 209.862098 
L 295.0848 208.666092 
L 296.2752 204.892035 
L 296.8704 204.04534 
L 297.4656 204.600961 
L 298.0608 206.361749 
L 298.656 208.592624 
L 299.2512 209.644259 
L 299.8464 208.273308 
L 300.4416 207.4829 
L 301.0368 207.093066 
L 302.2272 206.812207 
L 303.4176 206.509368 
L 304.0128 206.224782 
L 304.608 205.817031 
L 305.2032 205.263633 
L 305.7984 204.53891 
L 306.3936 203.609431 
L 306.9888 202.431778 
L 307.584 200.94959 
L 308.1792 199.090999 
L 308.7744 196.76625 
L 309.3696 193.866517 
L 309.9648 190.265759 
L 310.56 185.827814 
L 311.1552 180.427579 
L 312.3456 166.596748 
L 313.536 150.728321 
L 314.1312 144.453374 
L 314.7264 141.675076 
L 315.3216 144.278538 
L 315.9168 153.058418 
L 318.2976 207.228307 
L 318.8928 206.365466 
L 319.488 202.952756 
L 320.0832 201.639574 
L 320.6784 201.475525 
L 322.464 202.507456 
L 323.0592 202.55524 
L 323.6544 202.310241 
L 324.2496 201.745094 
L 324.8448 200.836959 
L 325.44 199.555621 
L 326.0352 197.856864 
L 326.6304 195.679239 
L 327.2256 192.943294 
L 327.8208 189.555589 
L 328.416 185.418043 
L 329.6064 174.6239 
L 331.9872 148.863768 
L 332.5824 146.281799 
L 333.1776 147.962071 
L 333.7728 154.634338 
L 334.368 165.65189 
L 335.5584 191.720624 
L 336.1536 201.968049 
L 336.7488 208.882821 
L 337.9392 205.656412 
L 338.5344 205.231312 
L 339.1296 205.495569 
L 340.9152 207.11777 
L 341.5104 207.488633 
L 342.1056 207.717497 
L 342.7008 207.80906 
L 343.296 207.773523 
L 344.4864 207.35217 
L 345.6768 206.471474 
L 346.8672 205.097989 
L 349.248 201.621384 
L 349.8432 201.440456 
L 350.4384 202.327217 
L 351.0336 204.908817 
L 351.6288 209.621397 
L 352.224 204.058289 
L 352.8192 197.257676 
L 353.4144 192.623521 
L 354.0096 192.031815 
L 354.6048 195.365753 
L 355.7952 205.852417 
L 356.3904 209.663181 
L 357.5808 207.039533 
L 358.176 206.549187 
L 358.7712 206.417929 
L 360.5568 206.416003 
L 361.7472 206.05659 
L 362.9376 205.23249 
L 364.128 203.918878 
L 366.5088 200.537507 
L 367.104 200.151942 
L 367.6992 200.502727 
L 368.2944 202.067944 
L 368.8896 205.338416 
L 369.4848 209.65234 
L 370.6752 195.877327 
L 371.2704 190.704458 
L 371.8656 189.24088 
L 372.4608 191.992011 
L 374.2464 209.382202 
L 375.4368 205.004141 
L 376.032 203.870437 
L 376.6272 203.297237 
L 377.8176 202.593674 
L 378.4128 202.107843 
L 379.008 201.401543 
L 379.6032 200.412873 
L 380.1984 199.086646 
L 380.7936 197.363832 
L 381.3888 195.175188 
L 381.984 192.438156 
L 382.5792 189.059625 
L 383.1744 184.945216 
L 384.3648 174.274174 
L 386.1504 154.641131 
L 386.7456 149.772731 
L 387.3408 147.872783 
L 387.936 150.195859 
L 388.5312 157.116239 
L 389.7216 179.792541 
L 390.3168 191.236561 
L 390.912 200.416592 
L 391.5072 206.768351 
L 392.1024 209.661827 
L 392.6976 207.816238 
L 393.2928 207.224786 
L 393.888 207.341722 
L 395.0784 208.356709 
L 396.2688 209.398366 
L 396.864 209.811262 
L 397.4592 210.054523 
L 399.2448 209.269291 
L 401.0304 208.464136 
L 402.2208 207.691639 
L 403.4112 206.585834 
L 405.792 203.667615 
L 406.3872 203.447924 
L 406.9824 204.132281 
L 407.5776 206.31922 
L 408.1728 209.783313 
L 409.3632 198.659337 
L 409.9584 195.705874 
L 410.5536 196.559958 
L 411.1488 200.287622 
L 412.3392 208.405903 
L 412.9344 209.48243 
L 413.5296 208.269194 
L 414.1248 207.773783 
L 414.72 207.67226 
L 414.72 207.67226 
" clip-path="url(#p386a7263a2)" style="fill: none; stroke: #008800; stroke-width: 1.5; stroke-linecap: square"/>
   </g>
   <g id="line2d_30">
    <path d="M 57.6 210.104471 
L 181.996786 210.003241 
L 185.568 209.955424 
L 186.758405 210.063626 
L 188.544 209.734425 
L 189.734405 209.861184 
L 191.52 210.099151 
L 195.686405 210.072139 
L 214.137618 210.011872 
L 217.708809 209.843083 
L 220.089618 209.506062 
L 221.875191 208.999811 
L 223.660809 208.454599 
L 224.256 208.51131 
L 224.851191 208.912671 
L 225.446382 209.804732 
L 226.041618 209.048635 
L 226.636809 207.604609 
L 227.232 206.700341 
L 227.827191 206.736078 
L 228.422382 207.528509 
L 229.612809 209.410599 
L 230.208 209.965966 
L 233.779191 209.946065 
L 235.564809 210.079119 
L 240.921618 209.597106 
L 242.112 210.064637 
L 243.897618 209.290038 
L 244.492809 209.236858 
L 245.683191 209.428487 
L 247.468809 209.769034 
L 249.254382 209.861775 
L 252.230382 209.755338 
L 255.801618 209.594281 
L 256.992 209.78416 
L 257.587191 210.012845 
L 258.182382 209.867082 
L 259.372809 209.126314 
L 259.968 208.939337 
L 260.563191 208.998314 
L 261.753618 209.656355 
L 262.348809 210.01665 
L 265.92 209.530752 
L 268.300809 209.278835 
L 270.086382 208.795642 
L 271.276809 208.232865 
L 272.467191 207.378268 
L 273.657618 206.151427 
L 275.443191 203.993543 
L 276.038382 203.696709 
L 276.633618 204.156651 
L 277.228809 205.883828 
L 277.824 209.270325 
L 278.419236 206.089096 
L 279.014427 200.986813 
L 279.609618 197.553715 
L 280.204809 197.16243 
L 280.8 199.555899 
L 281.990382 206.654852 
L 282.585618 209.13946 
L 283.180809 209.579797 
L 283.776 208.834031 
L 284.371191 208.55128 
L 284.966382 208.518061 
L 288.537618 208.955646 
L 292.108809 208.978648 
L 292.704 209.162098 
L 293.299191 209.503593 
L 293.894382 210.0563 
L 294.489618 209.365496 
L 295.68 207.477616 
L 296.275191 206.921503 
L 296.870382 207.053225 
L 297.465618 207.918288 
L 298.060809 209.20676 
L 298.656 209.740599 
L 299.251191 208.806133 
L 299.846382 208.256245 
L 300.441618 207.997276 
L 301.632 207.864939 
L 302.822427 207.736768 
L 304.012809 207.353527 
L 305.203191 206.599146 
L 306.393618 205.333949 
L 306.988809 204.439059 
L 307.584 203.3127 
L 308.179191 201.89659 
L 308.774382 200.116475 
L 309.369618 197.879152 
L 309.964809 195.069984 
L 310.56 191.552429 
L 311.155191 187.172745 
L 311.750382 181.776138 
L 312.940809 167.581378 
L 314.726427 142.950519 
L 315.321618 138.951529 
L 315.916809 140.681507 
L 316.512 149.407657 
L 317.702382 181.222073 
L 318.297618 196.918668 
L 318.892809 208.611316 
L 320.083191 200.680887 
L 320.678382 199.28809 
L 321.273618 199.109256 
L 323.059191 199.917097 
L 323.654382 199.756964 
L 324.249618 199.22137 
L 324.844809 198.274722 
L 325.44 196.884635 
L 326.035236 195.010117 
L 326.630427 192.596498 
L 327.225618 189.575939 
L 327.820809 185.874343 
L 329.011191 176.213068 
L 331.392 152.412097 
L 331.987191 149.403702 
L 332.582382 149.991843 
L 333.177618 154.99299 
L 333.772809 164.050409 
L 335.558382 196.644363 
L 336.153618 203.581996 
L 336.748809 207.867137 
L 337.344 210.068907 
L 337.939236 209.350214 
L 338.534427 209.40949 
L 339.129618 209.922814 
L 339.724809 209.561837 
L 342.105618 206.171677 
L 343.296 204.076314 
L 344.486382 201.190886 
L 345.081618 199.266504 
L 345.676809 196.897155 
L 346.272 193.9727 
L 346.867191 190.372628 
L 347.462382 185.977635 
L 348.652809 174.516477 
L 350.438427 153.630022 
L 351.033618 148.604876 
L 351.628809 146.588138 
L 352.224 148.54884 
L 352.819191 154.764238 
L 353.414382 164.772313 
L 355.2 202.166791 
L 355.795191 209.570279 
L 356.390382 204.422333 
L 356.985618 201.894921 
L 357.580809 201.02753 
L 358.176 201.01146 
L 359.366382 201.569431 
L 359.961618 201.645248 
L 360.556809 201.439234 
L 361.152 200.905823 
L 361.747236 200.014587 
L 362.342427 198.733806 
L 362.937618 197.021271 
L 363.532809 194.819924 
L 364.128 192.057422 
L 364.723191 188.650203 
L 365.318382 184.514388 
L 366.508809 173.870742 
L 368.889618 149.534283 
L 369.484809 147.416817 
L 370.08 149.443326 
L 370.675191 156.278655 
L 371.865618 180.22022 
L 372.460809 192.529049 
L 373.056 202.193635 
L 373.651236 208.577364 
L 374.246427 208.112119 
L 374.841618 206.62059 
L 375.436809 206.355876 
L 376.032 206.726989 
L 378.412809 209.231689 
L 379.603191 210.094291 
L 382.579191 208.353815 
L 384.96 206.68071 
L 385.555236 206.610899 
L 386.150427 207.041776 
L 386.745618 208.217232 
L 387.340809 209.980204 
L 388.531191 205.048246 
L 389.126382 203.704752 
L 389.721618 203.762809 
L 390.316809 204.903461 
L 391.507191 207.886911 
L 392.102382 208.937545 
L 392.697618 209.596964 
L 393.292809 209.95006 
L 393.888 210.097048 
L 395.673618 209.987741 
L 398.054427 209.515373 
L 399.84 208.951435 
L 401.030382 208.328816 
L 402.220809 207.340014 
L 402.816 206.638984 
L 403.411191 205.750099 
L 404.006382 204.627256 
L 404.601618 203.220639 
L 405.196809 201.485936 
L 406.387191 197.038658 
L 407.577618 192.60649 
L 408.172809 192.027923 
L 408.768 194.310314 
L 409.958427 207.946694 
L 411.148809 181.394512 
L 411.744 174.857818 
L 412.339191 176.237021 
L 412.934382 183.830827 
L 414.124809 202.106076 
L 414.72 207.742007 
L 414.72 207.742007 
" clip-path="url(#p386a7263a2)" style="fill: none; stroke: #ff8800; stroke-width: 1.5; stroke-linecap: square"/>
   </g>
   <g id="line2d_31">
    <path d="M 57.6 210.104471 
L 123.072 210.102271 
L 187.353595 210.024701 
L 189.139191 209.960908 
L 192.710405 210.091487 
L 219.494382 209.938183 
L 222.470382 209.654478 
L 223.660809 209.550383 
L 224.256 209.579807 
L 224.851191 209.732224 
L 225.446382 210.050306 
L 227.232 208.951631 
L 227.827191 208.998877 
L 230.208 210.071557 
L 233.184 210.034668 
L 236.755191 210.047281 
L 240.921618 209.940164 
L 242.112 210.10179 
L 243.897618 209.828326 
L 245.683191 209.884709 
L 248.659191 210.024214 
L 254.611191 209.943669 
L 256.992 209.996256 
L 258.182382 210.035905 
L 259.968 209.727343 
L 261.158382 209.82926 
L 262.348809 210.072087 
L 270.086382 209.681783 
L 271.872 209.372015 
L 273.657618 208.800369 
L 276.038382 207.740972 
L 276.633618 207.710733 
L 277.228809 208.050753 
L 277.824 208.967597 
L 278.419191 209.652813 
L 279.609618 205.855652 
L 280.204809 205.084088 
L 280.8 205.563246 
L 282.585618 209.376388 
L 283.180809 210.08712 
L 283.776 209.743112 
L 284.371191 209.581496 
L 285.561618 209.570793 
L 292.704 210.060712 
L 295.68 209.301139 
L 296.275191 209.411764 
L 297.465618 210.100853 
L 298.656 209.467493 
L 299.846382 209.309531 
L 302.822382 209.360258 
L 304.608 209.116611 
L 305.798382 208.78588 
L 306.988809 208.259199 
L 308.179191 207.433917 
L 309.369618 206.147993 
L 309.964809 205.263555 
L 311.155191 202.858695 
L 312.345618 199.557672 
L 313.536 196.238243 
L 314.131191 195.606287 
L 314.726382 196.80961 
L 315.321618 200.953719 
L 315.916809 208.696648 
L 316.512 200.902806 
L 317.107191 190.071174 
L 317.702382 182.704285 
L 318.297618 181.424054 
L 318.892809 186.043781 
L 320.083191 201.549687 
L 320.678382 207.308651 
L 321.273618 209.424014 
L 321.868809 207.726655 
L 322.464 207.154918 
L 323.059191 207.199422 
L 324.249618 207.984686 
L 326.630382 209.84772 
L 327.225618 209.856664 
L 328.416 208.62515 
L 329.606382 207.006044 
L 330.796809 205.38644 
L 331.392 205.028798 
L 331.987191 205.398346 
L 332.582382 206.772996 
L 333.177618 209.163371 
L 333.772809 208.091421 
L 334.368 205.372362 
L 334.963191 203.604846 
L 335.558382 203.030792 
L 336.153618 203.401683 
L 337.939191 205.983464 
L 338.534382 206.529998 
L 339.129618 206.8312 
L 339.724809 206.918514 
L 340.32 206.829402 
L 340.915191 206.594002 
L 342.105618 205.747393 
L 343.296 204.399928 
L 344.486382 202.459053 
L 345.676809 199.844103 
L 347.462382 195.407875 
L 348.057618 194.535548 
L 348.652809 194.66759 
L 349.248 196.436217 
L 349.843191 200.450125 
L 350.438382 206.99523 
L 351.033618 204.519385 
L 352.224 186.304474 
L 352.819191 180.865654 
L 353.414382 180.227378 
L 354.009618 184.631056 
L 355.795191 208.499496 
L 356.390382 206.663138 
L 356.985618 203.675053 
L 357.580809 202.098923 
L 358.176 201.298687 
L 359.366382 200.318747 
L 359.961618 199.650008 
L 360.556809 198.682526 
L 361.152 197.33368 
L 361.747191 195.532499 
L 362.342382 193.207381 
L 362.937618 190.281631 
L 363.532809 186.677737 
L 364.723191 177.23146 
L 367.104 154.476464 
L 367.699191 151.854002 
L 368.294382 152.500202 
L 368.889618 156.827661 
L 369.484809 164.323803 
L 371.270382 192.63154 
L 371.865618 199.943388 
L 372.460809 205.197264 
L 373.056 208.506482 
L 373.651191 209.944541 
L 374.246382 209.266878 
L 374.841618 209.255208 
L 375.436809 209.605351 
L 376.032 210.086813 
L 379.603191 206.51646 
L 380.793618 204.902827 
L 381.984 202.642888 
L 383.174382 199.454041 
L 385.555191 191.426201 
L 386.150382 190.68814 
L 386.745618 191.866196 
L 387.340809 195.927153 
L 387.936 203.458669 
L 388.531191 206.104326 
L 389.721618 182.608776 
L 390.316809 174.90974 
L 390.912 172.980973 
L 391.507191 177.477692 
L 393.292809 206.486681 
L 393.888 207.689854 
L 394.483191 204.382916 
L 395.078382 202.931191 
L 395.673618 202.511282 
L 396.268809 202.55292 
L 397.459191 202.82206 
L 398.054382 202.779587 
L 398.649618 202.552923 
L 399.244809 202.131427 
L 399.84 201.518887 
L 401.030382 199.78154 
L 402.816 196.602543 
L 403.411191 195.856008 
L 404.006382 195.675806 
L 404.601618 196.440717 
L 405.196809 198.590086 
L 405.792 202.518532 
L 406.387191 208.408189 
L 406.982382 204.17805 
L 408.172809 187.543133 
L 408.768 181.874982 
L 409.363191 180.550358 
L 409.958382 184.521017 
L 410.553618 192.771957 
L 411.148809 202.581012 
L 411.744 209.008268 
L 412.339191 202.910085 
L 412.934382 199.231856 
L 413.529618 197.217826 
L 414.124809 196.085296 
L 414.72 195.257636 
L 414.72 195.257636 
" clip-path="url(#p386a7263a2)" style="fill: none; stroke: #ff0000; stroke-width: 1.5; stroke-linecap: square"/>
   </g>
   <g id="patch_8">
    <path d="M 57.6 213.662118 
L 57.6 135.393882 
" style="fill: none; stroke: #000000; stroke-width: 0.8; stroke-linejoin: miter; stroke-linecap: square"/>
   </g>
   <g id="patch_9">
    <path d="M 414.72 213.662118 
L 414.72 135.393882 
" style="fill: none; stroke: #000000; stroke-width: 0.8; stroke-linejoin: miter; stroke-linecap: square"/>
   </g>
   <g id="patch_10">
    <path d="M 57.6 213.662118 
L 414.72 213.662118 
" style="fill: none; stroke: #000000; stroke-width: 0.8; stroke-linejoin: miter; stroke-linecap: square"/>
   </g>
   <g id="patch_11">
    <path d="M 57.6 135.393882 
L 414.72 135.393882 
" style="fill: none; stroke: #000000; stroke-width: 0.8; stroke-linejoin: miter; stroke-linecap: square"/>
   </g>
  </g>
  <g id="axes_3">
   <g id="patch_12">
    <path d="M 57.6 307.584 
L 414.72 307.584 
L 414.72 229.315765 
L 57.6 229.315765 
z
" style="fill: #ffffff"/>
   </g>
   <g id="matplotlib.axis_5">
    <g id="xtick_19">
     <g id="line2d_32">
      <g>
       <use xlink:href="#m730709c463" x="57.6" y="307.584" style="stroke: #000000; stroke-width: 0.8"/>
      </g>
     </g>
     <g id="text_6">
      <!-- 10 -->
      <g transform="translate(51.2375 322.182437)scale(0.1 -0.1)">
       <defs>
        <path id="DejaVuSans-31" d="M 794 531 
L 1825 531 
L 1825 4091 
L 703 3866 
L 703 4441 
L 1819 4666 
L 2450 4666 
L 2450 531 
L 3481 531 
L 3481 0 
L 794 0 
L 794 531 
z
" transform="scale(0.015625)"/>
       </defs>
       <use xlink:href="#DejaVuSans-31"/>
       <use xlink:href="#DejaVuSans-30" x="63.623047"/>
      </g>
     </g>
    </g>
    <g id="xtick_20">
     <g id="line2d_33">
      <g>
       <use xlink:href="#m730709c463" x="105.216" y="307.584" style="stroke: #000000; stroke-width: 0.8"/>
      </g>
     </g>
     <g id="text_7">
      <!-- 12 -->
      <g transform="translate(98.8535 322.182437)scale(0.1 -0.1)">
       <use xlink:href="#DejaVuSans-31"/>
       <use xlink:href="#DejaVuSans-32" x="63.623047"/>
      </g>
     </g>
    </g>
    <g id="xtick_21">
     <g id="line2d_34">
      <g>
       <use xlink:href="#m730709c463" x="152.832" y="307.584" style="stroke: #000000; stroke-width: 0.8"/>
      </g>
     </g>
     <g id="text_8">
      <!-- 14 -->
      <g transform="translate(146.4695 322.182437)scale(0.1 -0.1)">
       <use xlink:href="#DejaVuSans-31"/>
       <use xlink:href="#DejaVuSans-34" x="63.623047"/>
      </g>
     </g>
    </g>
    <g id="xtick_22">
     <g id="line2d_35">
      <g>
       <use xlink:href="#m730709c463" x="200.448" y="307.584" style="stroke: #000000; stroke-width: 0.8"/>
      </g>
     </g>
     <g id="text_9">
      <!-- 16 -->
      <g transform="translate(194.0855 322.182437)scale(0.1 -0.1)">
       <defs>
        <path id="DejaVuSans-36" d="M 2113 2584 
Q 1688 2584 1439 2293 
Q 1191 2003 1191 1497 
Q 1191 994 1439 701 
Q 1688 409 2113 409 
Q 2538 409 2786 701 
Q 3034 994 3034 1497 
Q 3034 2003 2786 2293 
Q 2538 2584 2113 2584 
z
M 3366 4563 
L 3366 3988 
Q 3128 4100 2886 4159 
Q 2644 4219 2406 4219 
Q 1781 4219 1451 3797 
Q 1122 3375 1075 2522 
Q 1259 2794 1537 2939 
Q 1816 3084 2150 3084 
Q 2853 3084 3261 2657 
Q 3669 2231 3669 1497 
Q 3669 778 3244 343 
Q 2819 -91 2113 -91 
Q 1303 -91 875 529 
Q 447 1150 447 2328 
Q 447 3434 972 4092 
Q 1497 4750 2381 4750 
Q 2619 4750 2861 4703 
Q 3103 4656 3366 4563 
z
" transform="scale(0.015625)"/>
       </defs>
       <use xlink:href="#DejaVuSans-31"/>
       <use xlink:href="#DejaVuSans-36" x="63.623047"/>
      </g>
     </g>
    </g>
    <g id="xtick_23">
     <g id="line2d_36">
      <g>
       <use xlink:href="#m730709c463" x="248.064" y="307.584" style="stroke: #000000; stroke-width: 0.8"/>
      </g>
     </g>
     <g id="text_10">
      <!-- 18 -->
      <g transform="translate(241.7015 322.182437)scale(0.1 -0.1)">
       <defs>
        <path id="DejaVuSans-38" d="M 2034 2216 
Q 1584 2216 1326 1975 
Q 1069 1734 1069 1313 
Q 1069 891 1326 650 
Q 1584 409 2034 409 
Q 2484 409 2743 651 
Q 3003 894 3003 1313 
Q 3003 1734 2745 1975 
Q 2488 2216 2034 2216 
z
M 1403 2484 
Q 997 2584 770 2862 
Q 544 3141 544 3541 
Q 544 4100 942 4425 
Q 1341 4750 2034 4750 
Q 2731 4750 3128 4425 
Q 3525 4100 3525 3541 
Q 3525 3141 3298 2862 
Q 3072 2584 2669 2484 
Q 3125 2378 3379 2068 
Q 3634 1759 3634 1313 
Q 3634 634 3220 271 
Q 2806 -91 2034 -91 
Q 1263 -91 848 271 
Q 434 634 434 1313 
Q 434 1759 690 2068 
Q 947 2378 1403 2484 
z
M 1172 3481 
Q 1172 3119 1398 2916 
Q 1625 2713 2034 2713 
Q 2441 2713 2670 2916 
Q 2900 3119 2900 3481 
Q 2900 3844 2670 4047 
Q 2441 4250 2034 4250 
Q 1625 4250 1398 4047 
Q 1172 3844 1172 3481 
z
" transform="scale(0.015625)"/>
       </defs>
       <use xlink:href="#DejaVuSans-31"/>
       <use xlink:href="#DejaVuSans-38" x="63.623047"/>
      </g>
     </g>
    </g>
    <g id="xtick_24">
     <g id="line2d_37">
      <g>
       <use xlink:href="#m730709c463" x="295.68" y="307.584" style="stroke: #000000; stroke-width: 0.8"/>
      </g>
     </g>
     <g id="text_11">
      <!-- 20 -->
      <g transform="translate(289.3175 322.182437)scale(0.1 -0.1)">
       <use xlink:href="#DejaVuSans-32"/>
       <use xlink:href="#DejaVuSans-30" x="63.623047"/>
      </g>
     </g>
    </g>
    <g id="xtick_25">
     <g id="line2d_38">
      <g>
       <use xlink:href="#m730709c463" x="343.296" y="307.584" style="stroke: #000000; stroke-width: 0.8"/>
      </g>
     </g>
     <g id="text_12">
      <!-- 22 -->
      <g transform="translate(336.9335 322.182437)scale(0.1 -0.1)">
       <use xlink:href="#DejaVuSans-32"/>
       <use xlink:href="#DejaVuSans-32" x="63.623047"/>
      </g>
     </g>
    </g>
    <g id="xtick_26">
     <g id="line2d_39">
      <g>
       <use xlink:href="#m730709c463" x="390.912" y="307.584" style="stroke: #000000; stroke-width: 0.8"/>
      </g>
     </g>
     <g id="text_13">
      <!-- 24 -->
      <g transform="translate(384.5495 322.182437)scale(0.1 -0.1)">
       <use xlink:href="#DejaVuSans-32"/>
       <use xlink:href="#DejaVuSans-34" x="63.623047"/>
      </g>
     </g>
    </g>
    <g id="xtick_27">
     <g id="line2d_40">
      <g>
       <use xlink:href="#m730709c463" x="414.72" y="307.584" style="stroke: #000000; stroke-width: 0.8"/>
      </g>
     </g>
     <g id="text_14">
      <!-- 25 -->
      <g transform="translate(408.3575 322.182437)scale(0.1 -0.1)">
       <defs>
        <path id="DejaVuSans-35" d="M 691 4666 
L 3169 4666 
L 3169 4134 
L 1269 4134 
L 1269 2991 
Q 1406 3038 1543 3061 
Q 1681 3084 1819 3084 
Q 2600 3084 3056 2656 
Q 3513 2228 3513 1497 
Q 3513 744 3044 326 
Q 2575 -91 1722 -91 
Q 1428 -91 1123 -41 
Q 819 9 494 109 
L 494 744 
Q 775 591 1075 516 
Q 1375 441 1709 441 
Q 2250 441 2565 725 
Q 2881 1009 2881 1497 
Q 2881 1984 2565 2268 
Q 2250 2553 1709 2553 
Q 1456 2553 1204 2497 
Q 953 2441 691 2322 
L 691 4666 
z
" transform="scale(0.015625)"/>
       </defs>
       <use xlink:href="#DejaVuSans-32"/>
       <use xlink:href="#DejaVuSans-35" x="63.623047"/>
      </g>
     </g>
    </g>
   </g>
   <g id="matplotlib.axis_6">
    <g id="ytick_6">
     <g id="line2d_41">
      <g>
       <use xlink:href="#m397f462e05" x="57.6" y="304.026353" style="stroke: #000000; stroke-width: 0.8"/>
      </g>
     </g>
     <g id="text_15">
      <!-- 0 -->
      <g transform="translate(44.2375 307.825572)scale(0.1 -0.1)">
       <use xlink:href="#DejaVuSans-30"/>
      </g>
     </g>
    </g>
    <g id="ytick_7">
     <g id="line2d_42">
      <g>
       <use xlink:href="#m397f462e05" x="57.6" y="276.901392" style="stroke: #000000; stroke-width: 0.8"/>
      </g>
     </g>
     <g id="text_16">
      <!-- 10 -->
      <g transform="translate(37.875 280.700611)scale(0.1 -0.1)">
       <use xlink:href="#DejaVuSans-31"/>
       <use xlink:href="#DejaVuSans-30" x="63.623047"/>
      </g>
     </g>
    </g>
    <g id="ytick_8">
     <g id="line2d_43">
      <g>
       <use xlink:href="#m397f462e05" x="57.6" y="249.776431" style="stroke: #000000; stroke-width: 0.8"/>
      </g>
     </g>
     <g id="text_17">
      <!-- 20 -->
      <g transform="translate(37.875 253.57565)scale(0.1 -0.1)">
       <use xlink:href="#DejaVuSans-32"/>
       <use xlink:href="#DejaVuSans-30" x="63.623047"/>
      </g>
     </g>
    </g>
   </g>
   <g id="line2d_44">
    <path d="M 57.6 304.026353 
L 84.384 303.904166 
L 86.169595 303.611985 
L 87.955191 303.045 
L 88.550405 303.072885 
L 89.145595 303.367672 
L 89.740809 303.803436 
L 90.336 303.853108 
L 90.931191 303.623495 
L 92.121595 303.619882 
L 95.097595 303.860745 
L 100.454405 303.967924 
L 103.430405 303.822423 
L 107.001595 303.925201 
L 110.572809 303.89337 
L 117.715191 303.875545 
L 119.500809 303.853375 
L 121.881595 303.986245 
L 124.857595 303.902737 
L 163.545595 303.907093 
L 168.307191 303.70197 
L 169.497595 303.978174 
L 172.473595 303.802165 
L 180.211191 304.018403 
L 181.996809 303.854997 
L 183.187191 303.593705 
L 184.377595 303.069344 
L 186.758405 301.503559 
L 187.353595 301.642762 
L 187.948809 302.28787 
L 188.544 303.296554 
L 189.139191 303.75129 
L 189.734405 303.06692 
L 190.329595 302.760735 
L 190.924809 302.722646 
L 195.686405 303.372554 
L 199.257595 303.482155 
L 201.638382 303.374329 
L 204.019191 303.254737 
L 204.614382 303.377781 
L 205.804809 303.950874 
L 207.590382 303.494342 
L 209.376 303.67154 
L 211.756809 303.841012 
L 215.923191 303.865282 
L 218.304 303.712336 
L 219.494382 303.451076 
L 220.089618 303.205656 
L 220.684809 302.8249 
L 221.28 302.233481 
L 221.875191 301.316576 
L 222.470382 299.905443 
L 223.065618 297.768901 
L 223.660809 294.633205 
L 224.256 290.280822 
L 225.446382 279.087534 
L 226.041618 275.183509 
L 226.636809 275.964758 
L 227.232 283.155184 
L 227.827191 295.055789 
L 228.422382 301.03405 
L 229.017618 293.072605 
L 229.612809 289.943474 
L 230.208 290.045436 
L 232.588809 295.637674 
L 233.779191 297.059321 
L 235.564809 298.47045 
L 236.755191 299.419253 
L 237.945618 300.723852 
L 238.540809 301.64374 
L 239.136 302.829782 
L 239.731191 303.719489 
L 242.112 296.653705 
L 242.707191 296.360485 
L 243.302382 297.333723 
L 243.897618 299.349355 
L 245.088 303.913662 
L 245.683191 302.132826 
L 246.278382 300.962074 
L 246.873618 300.291459 
L 247.468809 299.958459 
L 248.659191 299.794056 
L 252.230382 299.878921 
L 253.420809 299.678697 
L 254.611191 299.225245 
L 256.992 297.881184 
L 257.587191 297.94014 
L 258.182382 298.549745 
L 258.777618 299.904001 
L 259.372809 301.980714 
L 259.968 303.642182 
L 260.563191 301.477028 
L 261.158382 300.101207 
L 261.753618 299.654447 
L 262.348809 299.910089 
L 264.729618 302.309601 
L 265.92 303.068483 
L 267.705618 303.968655 
L 268.300809 303.755116 
L 269.491191 302.900421 
L 270.086382 302.296231 
L 270.681618 301.495075 
L 271.276809 300.40622 
L 271.872 298.902035 
L 272.467191 296.807534 
L 273.062382 293.894616 
L 273.657618 289.893357 
L 274.252809 284.544844 
L 275.443191 269.728697 
L 276.038382 261.509421 
L 276.633618 254.964985 
L 277.228809 252.638879 
L 277.824 256.803602 
L 278.419191 268.190081 
L 279.609618 303.763241 
L 280.204809 288.455994 
L 280.8 278.407195 
L 281.395191 274.372529 
L 281.990382 274.545007 
L 282.585618 276.732453 
L 283.776 281.87391 
L 284.966382 285.555134 
L 286.156809 287.997864 
L 287.347191 289.721853 
L 288.537618 290.908489 
L 289.132809 291.289211 
L 289.728 291.497463 
L 290.323191 291.492814 
L 290.918382 291.217721 
L 291.513618 290.595328 
L 292.108809 289.531207 
L 292.704 287.926164 
L 293.299191 285.713607 
L 295.084809 277.424938 
L 295.68 276.776755 
L 296.275191 279.590063 
L 296.870382 286.810372 
L 297.465618 297.484048 
L 298.060809 299.475769 
L 298.656 291.341363 
L 299.251191 287.652221 
L 299.846382 287.554451 
L 300.441618 289.263281 
L 301.632 293.208439 
L 302.227191 294.57805 
L 302.822382 295.534352 
L 303.417618 296.179506 
L 304.012809 296.601542 
L 304.608 296.856139 
L 305.203191 296.969785 
L 305.798382 296.945632 
L 306.393618 296.767964 
L 306.988809 296.402509 
L 307.584 295.794847 
L 308.179191 294.865858 
L 308.774382 293.506913 
L 309.369618 291.576551 
L 309.964809 288.905346 
L 310.56 285.320096 
L 311.155191 280.707187 
L 312.940809 263.542126 
L 313.536 260.273538 
L 314.131191 261.304805 
L 314.726382 268.171425 
L 315.321618 280.809837 
L 315.916809 296.915105 
L 316.512 295.514109 
L 317.107191 284.04974 
L 317.702382 278.238818 
L 318.297618 277.149553 
L 318.892809 278.761932 
L 320.678382 286.097888 
L 321.868809 289.392592 
L 323.059191 291.809848 
L 325.44 296.254185 
L 326.035191 297.662028 
L 326.630382 299.387667 
L 327.820809 303.566831 
L 328.416 299.757953 
L 329.011191 294.850227 
L 330.796809 276.375027 
L 331.392 272.99026 
L 331.987191 274.065712 
L 332.582382 280.324346 
L 333.772809 301.620511 
L 334.368 297.090908 
L 334.963191 291.019195 
L 335.558382 288.107676 
L 336.153618 287.402276 
L 336.748809 287.88242 
L 339.724809 292.610425 
L 340.915191 294.025755 
L 342.700809 295.756188 
L 343.891191 296.682531 
L 345.081618 297.40116 
L 346.272 297.819036 
L 346.867191 297.848925 
L 347.462382 297.690717 
L 348.057618 297.255333 
L 348.652809 296.404771 
L 349.248 294.929743 
L 349.843191 292.524551 
L 350.438382 288.772536 
L 351.033618 283.179136 
L 351.628809 275.331115 
L 353.414382 245.379965 
L 354.009618 242.979635 
L 354.604809 250.901357 
L 355.2 269.318322 
L 355.795191 293.485185 
L 356.390382 292.249358 
L 356.985618 277.819087 
L 357.580809 272.510246 
L 358.176 273.413826 
L 359.961618 283.478048 
L 360.556809 285.639369 
L 361.152 287.16918 
L 361.747191 288.275718 
L 362.937618 289.818922 
L 364.723191 291.783758 
L 365.318382 292.650128 
L 365.913618 293.798356 
L 366.508809 295.382268 
L 367.104 297.573977 
L 368.294382 303.812524 
L 369.484809 295.401207 
L 370.08 292.248157 
L 370.675191 290.966813 
L 371.270382 291.882793 
L 371.865618 294.571081 
L 373.056 301.646718 
L 373.651191 303.449282 
L 374.246382 301.218157 
L 374.841618 299.632595 
L 375.436809 298.524987 
L 376.032 297.731703 
L 377.222382 296.610875 
L 379.008 295.029692 
L 379.603191 294.325158 
L 380.198382 293.446618 
L 380.793618 292.33461 
L 381.388809 290.92462 
L 381.984 289.155144 
L 383.174382 284.432249 
L 384.364809 278.901617 
L 384.96 276.863933 
L 385.555191 276.413574 
L 386.150382 278.572991 
L 386.745618 284.056149 
L 387.340809 292.66552 
L 387.936 302.925242 
L 389.126382 288.822034 
L 389.721618 285.628234 
L 390.316809 285.386668 
L 390.912 286.88438 
L 393.292809 295.175017 
L 396.268809 303.785194 
L 396.864 301.977205 
L 397.459191 299.20701 
L 398.054382 295.78174 
L 398.649618 291.502325 
L 399.244809 286.169592 
L 400.435191 271.903306 
L 402.220809 245.747807 
L 402.816 238.91055 
L 403.411191 234.503699 
L 404.006382 232.873412 
L 404.601618 233.887822 
L 405.196809 237.174919 
L 405.792 242.431703 
L 406.387191 249.645656 
L 406.982382 259.172594 
L 407.577618 271.65244 
L 408.768 300.87052 
L 409.958382 260.151749 
L 410.553618 246.624654 
L 411.148809 241.110743 
L 411.744 242.494023 
L 412.339191 247.894143 
L 414.72 275.688909 
L 414.72 275.688909 
" clip-path="url(#p85e253b705)" style="fill: none; stroke: #0000cc; stroke-width: 1.5; stroke-linecap: square"/>
   </g>
   <g id="line2d_45">
    <path d="M 57.6 304.026318 
L 86.1696 303.921968 
L 88.5504 303.778067 
L 90.336 303.982393 
L 91.5264 303.906935 
L 102.24 303.977445 
L 109.9776 303.988592 
L 164.1408 303.972193 
L 168.9024 303.934166 
L 170.0928 303.995416 
L 172.4736 303.93282 
L 181.9968 303.968449 
L 183.7824 303.794326 
L 185.568 303.377552 
L 186.7584 303.131499 
L 187.3536 303.188998 
L 187.9488 303.427539 
L 188.544 303.786052 
L 189.1392 303.916673 
L 189.7344 303.67889 
L 190.9248 303.564767 
L 197.472 303.825211 
L 202.8288 303.776912 
L 204.6144 303.832561 
L 205.8048 304.021242 
L 207.5904 303.852781 
L 216.5184 303.968481 
L 219.4944 303.809538 
L 220.6848 303.567146 
L 221.28 303.340467 
L 221.8752 302.992427 
L 222.4704 302.463118 
L 223.0656 301.676894 
L 223.6608 300.555813 
L 225.4464 295.884301 
L 226.0416 295.443596 
L 226.6368 296.828389 
L 227.8272 303.753053 
L 228.4224 301.430863 
L 229.0176 300.048352 
L 229.6128 299.828336 
L 230.208 300.174512 
L 231.3984 301.100735 
L 232.5888 301.697519 
L 234.3744 302.181236 
L 237.3504 302.846 
L 238.5408 303.318601 
L 239.7312 303.938979 
L 242.112 301.905884 
L 242.7072 301.882252 
L 243.3024 302.229701 
L 244.4928 303.556501 
L 245.088 303.875677 
L 245.6832 303.424381 
L 246.2784 303.142487 
L 247.4688 302.915766 
L 249.8496 302.890003 
L 252.8256 302.790322 
L 254.6112 302.448245 
L 255.8016 301.987234 
L 257.5872 301.15971 
L 258.1824 301.133303 
L 258.7776 301.450397 
L 259.3728 302.190891 
L 259.968 303.265996 
L 260.5632 303.646497 
L 261.1584 302.749305 
L 261.7536 302.260966 
L 262.3488 302.148046 
L 263.5392 302.483393 
L 265.3248 303.070248 
L 268.3008 303.65316 
L 270.0864 303.969763 
L 271.2768 303.457891 
L 271.872 303.053293 
L 272.4672 302.481459 
L 273.0624 301.660556 
L 273.6576 300.473105 
L 274.2528 298.758452 
L 274.848 296.315804 
L 275.4432 292.939076 
L 276.6336 283.284871 
L 277.2288 278.105813 
L 277.824 274.757898 
L 278.4192 275.531714 
L 279.0144 281.863131 
L 280.2048 303.539565 
L 280.8 294.454319 
L 281.3952 289.670075 
L 281.9904 288.465348 
L 282.5856 289.239221 
L 284.3712 293.348351 
L 285.5616 295.035582 
L 286.752 296.098943 
L 287.9424 296.800065 
L 289.1328 297.195514 
L 290.3232 297.215459 
L 290.9184 297.035311 
L 291.5136 296.690722 
L 292.1088 296.154447 
L 293.2992 294.495929 
L 293.8944 293.526718 
L 294.4896 292.787675 
L 295.0848 292.760422 
L 295.68 294.045183 
L 296.2752 297.014037 
L 296.8704 301.393654 
L 297.4656 302.019117 
L 298.0608 298.50485 
L 298.656 296.827818 
L 299.2512 296.745118 
L 299.8464 297.538196 
L 301.0368 299.509801 
L 301.632 300.240786 
L 302.8224 301.167249 
L 304.0128 301.668057 
L 305.7984 302.049016 
L 306.9888 302.125123 
L 308.1792 302.008353 
L 308.7744 301.835419 
L 309.3696 301.544172 
L 309.9648 301.0843 
L 310.56 300.384202 
L 311.1552 299.348578 
L 311.7504 297.861942 
L 312.3456 295.815967 
L 313.536 290.16134 
L 314.1312 287.383164 
L 314.7264 286.030095 
L 315.3216 287.4972 
L 315.9168 292.406107 
L 316.512 299.628634 
L 317.1072 301.37999 
L 317.7024 296.607737 
L 318.2976 294.566014 
L 318.8928 294.456443 
L 319.488 295.241316 
L 320.6784 297.099639 
L 321.2736 297.784963 
L 322.464 298.686435 
L 323.6544 299.191207 
L 324.8448 299.42266 
L 326.0352 299.344703 
L 326.6304 299.139619 
L 327.2256 298.775004 
L 327.8208 298.195537 
L 328.416 297.328793 
L 329.0112 296.086081 
L 329.6064 294.377507 
L 330.2016 292.148899 
L 331.9872 284.418092 
L 332.5824 283.939295 
L 333.1776 286.411464 
L 333.7728 292.215456 
L 334.368 300.158541 
L 334.9632 300.21404 
L 335.5584 294.885859 
L 336.1536 292.492546 
L 336.7488 292.305022 
L 337.344 293.228442 
L 338.5344 295.593737 
L 339.7248 297.245628 
L 340.9152 298.266321 
L 342.1056 298.938332 
L 343.296 299.369761 
L 344.4864 299.539445 
L 345.0816 299.487086 
L 345.6768 299.300932 
L 346.272 298.929295 
L 346.8672 298.295248 
L 347.4624 297.289048 
L 348.0576 295.760449 
L 348.6528 293.519783 
L 349.248 290.366617 
L 349.8432 286.174702 
L 351.0336 275.82638 
L 351.6288 271.984517 
L 352.224 271.877379 
L 352.8192 277.443712 
L 353.4144 288.471653 
L 354.0096 301.826349 
L 355.2 288.251316 
L 355.7952 286.145165 
L 356.3904 286.822833 
L 358.176 291.863497 
L 358.7712 292.990316 
L 359.3664 293.816309 
L 359.9616 294.418245 
L 361.152 295.151389 
L 361.7472 295.32123 
L 362.3424 295.354375 
L 362.9376 295.225611 
L 363.5328 294.892448 
L 364.128 294.291946 
L 364.7232 293.336724 
L 365.3184 291.910568 
L 365.9136 289.870551 
L 366.5088 287.062536 
L 367.104 283.367625 
L 369.4848 265.864782 
L 370.08 266.617387 
L 370.6752 272.732107 
L 371.2704 284.251015 
L 371.8656 298.886572 
L 372.4608 295.327119 
L 373.056 285.67899 
L 373.6512 281.27708 
L 374.2464 280.940269 
L 374.8416 282.723882 
L 376.032 287.368163 
L 376.6272 289.225565 
L 377.8176 291.897547 
L 379.008 293.746276 
L 382.5792 298.382147 
L 383.1744 299.496629 
L 383.7696 300.931121 
L 384.3648 302.8334 
L 384.96 302.684922 
L 385.5552 299.397203 
L 387.3408 287.582325 
L 387.936 286.115735 
L 388.5312 287.862196 
L 389.1264 292.733518 
L 389.7216 299.202099 
L 390.3168 302.820403 
L 390.912 298.547928 
L 391.5072 296.23259 
L 392.1024 295.381272 
L 392.6976 295.369107 
L 393.888 296.22018 
L 395.6736 297.600385 
L 397.4592 298.680087 
L 399.2448 299.510213 
L 400.4352 299.899329 
L 401.6256 300.079239 
L 402.2208 300.042226 
L 402.816 299.872515 
L 403.4112 299.510093 
L 404.0064 298.866138 
L 404.6016 297.813301 
L 405.1968 296.182229 
L 405.792 293.778576 
L 406.3872 290.454992 
L 407.5776 281.929739 
L 408.1728 278.894795 
L 408.768 279.438537 
L 409.3632 285.21168 
L 409.9584 295.310639 
L 410.5536 301.997718 
L 411.1488 294.382105 
L 411.744 291.101304 
L 412.3392 290.982295 
L 414.72 296.036324 
L 414.72 296.036324 
" clip-path="url(#p85e253b705)" style="fill: none; stroke: #008800; stroke-width: 1.5; stroke-linecap: square"/>
   </g>
   <g id="line2d_46">
    <path d="M 57.6 304.026353 
L 86.764786 303.918657 
L 88.550405 303.852537 
L 90.931191 303.953112 
L 94.502405 303.986223 
L 110.572786 304.000967 
L 164.736 303.973377 
L 168.902405 303.955435 
L 170.092786 304.004368 
L 172.473595 303.95588 
L 182.592 303.957374 
L 184.377595 303.780692 
L 186.758405 303.381191 
L 187.353595 303.423451 
L 189.139191 303.946317 
L 190.329595 303.702928 
L 192.710405 303.780745 
L 198.067191 303.886961 
L 218.899236 303.914607 
L 220.684809 303.693381 
L 221.875191 303.276992 
L 222.470382 302.89461 
L 223.065618 302.328028 
L 223.660809 301.524328 
L 225.446382 298.271029 
L 226.041618 298.044339 
L 226.636809 299.121443 
L 227.827191 304.022265 
L 228.422382 302.097942 
L 229.017618 301.205894 
L 229.612809 301.096022 
L 230.803236 301.694223 
L 231.993618 302.229169 
L 233.779191 302.645032 
L 237.945618 303.341502 
L 239.731191 303.968607 
L 242.112 302.548393 
L 242.707236 302.535618 
L 243.302427 302.782489 
L 244.492809 303.708956 
L 245.088 303.914831 
L 246.278382 303.411896 
L 247.468809 303.257541 
L 254.016 303.021405 
L 255.206427 302.753072 
L 258.182382 301.857692 
L 258.777618 302.063182 
L 259.372809 302.587996 
L 259.968 303.376702 
L 260.563191 303.81911 
L 261.158382 303.129828 
L 261.753618 302.741567 
L 262.348809 302.637107 
L 263.539191 302.865274 
L 265.324809 303.293149 
L 270.086382 304.011204 
L 271.276809 303.694717 
L 272.467191 303.037743 
L 273.062382 302.484564 
L 273.657618 301.680837 
L 274.252809 300.51121 
L 274.848 298.824263 
L 275.443191 296.447666 
L 276.038382 293.248184 
L 277.824 281.717086 
L 278.419236 281.179097 
L 279.014427 284.983596 
L 279.609618 292.90812 
L 280.204809 302.40674 
L 281.395191 293.405331 
L 281.990382 292.051619 
L 282.585618 292.490708 
L 284.371191 295.725718 
L 285.561618 297.082812 
L 286.752 297.92955 
L 287.942382 298.494838 
L 289.132809 298.845561 
L 290.323236 298.961413 
L 291.513618 298.781341 
L 292.704 298.28514 
L 293.894382 297.786446 
L 294.489618 297.879881 
L 295.084809 298.535238 
L 295.68 299.985937 
L 296.275191 302.220195 
L 296.870382 303.250306 
L 297.465618 301.057492 
L 298.060809 299.837452 
L 298.656 299.657313 
L 299.251191 300.15888 
L 300.441618 301.614151 
L 301.036809 302.173963 
L 302.227236 302.866994 
L 303.417618 303.221815 
L 305.798382 303.594634 
L 308.774382 303.962881 
L 309.964809 303.501106 
L 310.56 303.11053 
L 311.155191 302.537604 
L 311.750382 301.694096 
L 312.345618 300.462716 
L 312.940809 298.708776 
L 313.536 296.329196 
L 315.321618 288.009539 
L 315.916809 288.071106 
L 316.512 291.510472 
L 317.702382 303.53315 
L 318.297618 298.566721 
L 318.892809 296.191248 
L 319.488 295.791374 
L 320.083191 296.371615 
L 321.273618 298.00952 
L 322.464 299.130951 
L 323.654382 299.815026 
L 325.44 300.481179 
L 329.011191 301.61234 
L 329.606382 301.971674 
L 330.201618 302.485026 
L 331.392 303.89706 
L 332.582382 301.693021 
L 333.177618 300.944068 
L 333.772809 300.806364 
L 334.368 301.32047 
L 336.153618 303.997965 
L 336.748809 303.444049 
L 337.344 303.114244 
L 338.534427 302.850427 
L 343.891191 302.392762 
L 345.081618 301.799964 
L 345.676809 301.268476 
L 346.272 300.4779 
L 346.867191 299.306448 
L 347.462382 297.581619 
L 348.057618 295.072078 
L 348.652809 291.49887 
L 349.248 286.598206 
L 350.438427 272.994754 
L 351.033618 266.062874 
L 351.628809 261.951723 
L 352.224 263.580922 
L 352.819191 272.599505 
L 354.009618 303.898953 
L 354.604809 290.699216 
L 355.2 283.352568 
L 355.795191 281.244222 
L 356.390382 282.225829 
L 358.176 288.338144 
L 358.771191 289.747207 
L 359.366382 290.825188 
L 360.556809 292.313443 
L 361.747236 293.211799 
L 362.342427 293.471404 
L 362.937618 293.590982 
L 363.532809 293.544991 
L 364.128 293.295698 
L 364.723191 292.793186 
L 365.318382 291.977974 
L 365.913618 290.790848 
L 366.508809 289.197973 
L 368.294382 283.38438 
L 368.889618 282.846578 
L 369.484809 284.624919 
L 370.08 289.515359 
L 370.675191 297.183107 
L 371.270382 302.271451 
L 371.865618 295.247053 
L 372.460809 291.362833 
L 373.056 290.500002 
L 373.651236 291.500475 
L 374.841618 294.85071 
L 375.436809 296.224103 
L 376.032 297.281714 
L 377.222382 298.71462 
L 378.412809 299.657268 
L 382.579191 302.467983 
L 383.769618 303.97299 
L 384.364809 302.738108 
L 384.96 301.100528 
L 386.150427 296.626404 
L 386.745618 294.301181 
L 387.340809 292.795109 
L 387.936 292.997212 
L 388.531191 295.365327 
L 389.721618 303.69128 
L 390.316809 300.994709 
L 390.912 299.060334 
L 391.507191 298.331103 
L 392.102382 298.325578 
L 393.292809 299.046532 
L 395.078382 300.099955 
L 396.864 300.854805 
L 400.435191 302.031268 
L 402.220809 302.724902 
L 403.411191 303.524595 
L 404.006382 303.873176 
L 404.601618 302.903566 
L 405.196809 301.432071 
L 405.792 299.17268 
L 406.387191 295.709047 
L 406.982382 290.489263 
L 407.577618 282.916268 
L 408.172809 272.665036 
L 409.363236 248.471476 
L 409.958427 241.531877 
L 410.553618 244.434946 
L 411.148809 259.074655 
L 412.339191 301.776953 
L 412.934382 283.703546 
L 413.529618 274.777454 
L 414.124809 273.383389 
L 414.72 275.952785 
L 414.72 275.952785 
" clip-path="url(#p85e253b705)" style="fill: none; stroke: #ff8800; stroke-width: 1.5; stroke-linecap: square"/>
   </g>
   <g id="line2d_47">
    <path d="M 57.6 304.026353 
L 96.288 304.025673 
L 184.972809 303.880024 
L 187.353595 303.767922 
L 189.139191 303.996815 
L 190.924809 303.887911 
L 205.209618 304.004355 
L 208.780809 304.021678 
L 219.494382 303.979502 
L 221.875191 303.768629 
L 223.065618 303.435364 
L 224.256 302.794705 
L 225.446382 302.077378 
L 226.041618 302.045708 
L 226.636809 302.458603 
L 227.827191 303.938567 
L 228.422382 303.331557 
L 229.017618 303.069874 
L 230.208 303.144338 
L 232.588809 303.487957 
L 239.731191 303.992027 
L 242.112 303.528206 
L 243.302382 303.622498 
L 245.088 303.974419 
L 246.873618 303.782644 
L 256.396809 303.482056 
L 258.182382 303.32159 
L 259.372809 303.545505 
L 260.563191 303.972068 
L 261.753618 303.611148 
L 262.944 303.598069 
L 267.705618 303.895013 
L 271.276809 303.946039 
L 272.467191 303.758428 
L 273.657618 303.368426 
L 274.252809 303.027562 
L 274.848 302.527358 
L 275.443191 301.803279 
L 276.038382 300.786972 
L 277.228809 297.828882 
L 277.824 296.250993 
L 278.419191 295.318545 
L 279.014382 295.811401 
L 279.609618 298.120982 
L 280.204809 301.671849 
L 280.8 302.918281 
L 281.395191 300.617915 
L 281.990382 299.665906 
L 282.585618 299.629246 
L 285.561618 301.410905 
L 287.347191 301.877499 
L 289.728 302.199453 
L 293.894382 302.617396 
L 294.489618 302.914601 
L 295.084809 303.377251 
L 295.68 303.991238 
L 296.870382 302.877176 
L 297.465618 302.634467 
L 298.060809 302.705495 
L 301.036809 304.001216 
L 307.584 303.445526 
L 308.774382 303.069129 
L 309.369618 302.730108 
L 309.964809 302.223059 
L 310.56 301.459448 
L 311.155191 300.305687 
L 311.750382 298.564498 
L 312.345618 295.955655 
L 312.940809 292.114075 
L 313.536 286.636237 
L 314.131191 279.25155 
L 315.321618 260.821398 
L 315.916809 253.95378 
L 316.512 253.403206 
L 317.107191 261.902082 
L 317.702382 278.676252 
L 318.297618 298.930594 
L 318.892809 291.697775 
L 319.488 281.143778 
L 320.083191 277.50966 
L 320.678382 278.296438 
L 322.464 285.947951 
L 323.059191 287.741089 
L 323.654382 289.107045 
L 324.844809 291.047209 
L 326.035191 292.470792 
L 327.820809 294.465941 
L 328.416 295.300183 
L 329.011191 296.362798 
L 329.606382 297.787309 
L 330.201618 299.733324 
L 330.796809 302.346813 
L 331.392 302.387985 
L 332.582382 294.932139 
L 333.177618 292.388672 
L 333.772809 291.861087 
L 334.368 293.597955 
L 336.153618 303.958037 
L 336.748809 301.541485 
L 337.344 300.01195 
L 337.939191 299.140355 
L 338.534382 298.682508 
L 339.724809 298.342084 
L 342.105618 297.95527 
L 342.700809 297.710545 
L 343.296 297.334058 
L 343.891191 296.769674 
L 344.486382 295.942233 
L 345.081618 294.746837 
L 345.676809 293.042521 
L 346.272 290.646881 
L 346.867191 287.33857 
L 347.462382 282.885027 
L 348.057618 277.11348 
L 349.248 262.166202 
L 349.843191 254.541397 
L 350.438382 248.98212 
L 351.033618 247.673606 
L 351.628809 252.47801 
L 352.224 264.096184 
L 353.414382 301.440872 
L 354.604809 275.519327 
L 355.2 269.550207 
L 355.795191 269.022183 
L 356.390382 271.438598 
L 357.580809 277.946508 
L 358.771191 282.787225 
L 359.961618 286.101037 
L 363.532809 294.544791 
L 364.128 296.701099 
L 364.723191 299.493809 
L 365.318382 303.171592 
L 365.913618 300.092008 
L 367.104 287.386347 
L 367.699191 280.913045 
L 368.294382 276.529722 
L 368.889618 276.150645 
L 369.484809 280.650203 
L 370.675191 298.764665 
L 371.270382 300.691847 
L 371.865618 294.659664 
L 372.460809 291.290971 
L 373.056 289.922099 
L 373.651191 289.750664 
L 374.246382 290.166044 
L 377.817618 293.870529 
L 379.008 294.704372 
L 380.198382 295.19671 
L 380.793618 295.241046 
L 381.388809 295.090694 
L 381.984 294.668914 
L 382.579191 293.86211 
L 383.174382 292.507155 
L 383.769618 290.373652 
L 384.364809 287.155284 
L 384.96 282.481676 
L 385.555191 275.989182 
L 386.150382 267.502014 
L 387.936 238.282784 
L 388.531191 234.765778 
L 389.126382 238.888593 
L 389.721618 251.676888 
L 390.316809 271.969579 
L 390.912 296.294633 
L 391.507191 288.706076 
L 392.102382 272.144941 
L 392.697618 264.32331 
L 393.292809 263.661386 
L 393.888 266.78262 
L 395.078382 274.588527 
L 395.673618 277.46058 
L 396.268809 279.571006 
L 396.864 281.098666 
L 397.459191 282.199888 
L 398.054382 282.97541 
L 398.649618 283.472845 
L 399.244809 283.699189 
L 399.84 283.629619 
L 400.435191 283.211874 
L 401.030382 282.367255 
L 401.625618 280.991159 
L 402.220809 278.956988 
L 402.816 276.128238 
L 403.411191 272.397569 
L 404.601618 262.237355 
L 405.792 251.114362 
L 406.387191 247.642876 
L 406.982382 247.599602 
L 407.577618 252.537035 
L 408.172809 263.451432 
L 408.768 280.113426 
L 409.363191 300.371183 
L 410.553618 273.378035 
L 411.148809 266.317007 
L 411.744 265.832375 
L 412.339191 269.095582 
L 413.529618 277.753983 
L 414.72 284.222242 
L 414.72 284.222242 
" clip-path="url(#p85e253b705)" style="fill: none; stroke: #ff0000; stroke-width: 1.5; stroke-linecap: square"/>
   </g>
   <g id="patch_13">
    <path d="M 57.6 307.584 
L 57.6 229.315765 
" style="fill: none; stroke: #000000; stroke-width: 0.8; stroke-linejoin: miter; stroke-linecap: square"/>
   </g>
   <g id="patch_14">
    <path d="M 414.72 307.584 
L 414.72 229.315765 
" style="fill: none; stroke: #000000; stroke-width: 0.8; stroke-linejoin: miter; stroke-linecap: square"/>
   </g>
   <g id="patch_15">
    <path d="M 57.6 307.584 
L 414.72 307.584 
" style="fill: none; stroke: #000000; stroke-width: 0.8; stroke-linejoin: miter; stroke-linecap: square"/>
   </g>
   <g id="patch_16">
    <path d="M 57.6 229.315765 
L 414.72 229.315765 
" style="fill: none; stroke: #000000; stroke-width: 0.8; stroke-linejoin: miter; stroke-linecap: square"/>
   </g>
  </g>
 </g>
 <defs>
  <clipPath id="p555b1d7bb9">
   <rect x="57.6" y="41.472" width="357.12" height="78.268235"/>
  </clipPath>
  <clipPath id="p386a7263a2">
   <rect x="57.6" y="135.393882" width="357.12" height="78.268235"/>
  </clipPath>
  <clipPath id="p85e253b705">
   <rect x="57.6" y="229.315765" width="357.12" height="78.268235"/>
  </clipPath>
 </defs>
</svg>
