<?xml version="1.0" encoding="utf-8" standalone="no"?>
<!DOCTYPE svg PUBLIC "-//W3C//DTD SVG 1.1//EN"
  "http://www.w3.org/Graphics/SVG/1.1/DTD/svg11.dtd">
<svg xmlns:xlink="http://www.w3.org/1999/xlink" width="460.8pt" height="345.6pt" viewBox="0 0 460.8 345.6" xmlns="http://www.w3.org/2000/svg" version="1.1">
 <metadata>
  <rdf:RDF xmlns:dc="http://purl.org/dc/elements/1.1/" xmlns:cc="http://creativecommons.org/ns#" xmlns:rdf="http://www.w3.org/1999/02/22-rdf-syntax-ns#">
   <cc:Work>
    <dc:type rdf:resource="http://purl.org/dc/dcmitype/StillImage"/>
    <dc:date>2023-11-22T17:07:30.153073</dc:date>
    <dc:format>image/svg+xml</dc:format>
    <dc:creator>
     <cc:Agent>
      <dc:title>Matplotlib v3.5.2, https://matplotlib.org/</dc:title>
     </cc:Agent>
    </dc:creator>
   </cc:Work>
  </rdf:RDF>
 </metadata>
 <defs>
  <style type="text/css">*{stroke-linejoin: round; stroke-linecap: butt}</style>
 </defs>
 <g id="figure_1">
  <g id="patch_1">
   <path d="M 0 345.6 
L 460.8 345.6 
L 460.8 0 
L 0 0 
z
" style="fill: #ffffff"/>
  </g>
  <g id="axes_1">
   <g id="patch_2">
    <path d="M 57.6 119.740235 
L 414.72 119.740235 
L 414.72 41.472 
L 57.6 41.472 
z
" style="fill: #ffffff"/>
   </g>
   <g id="matplotlib.axis_1">
    <g id="xtick_1">
     <g id="line2d_1">
      <defs>
       <path id="m3c41211240" d="M 0 0 
L 0 3.5 
" style="stroke: #000000; stroke-width: 0.8"/>
      </defs>
      <g>
       <use xlink:href="#m3c41211240" x="57.6" y="119.740235" style="stroke: #000000; stroke-width: 0.8"/>
      </g>
     </g>
    </g>
    <g id="xtick_2">
     <g id="line2d_2">
      <g>
       <use xlink:href="#m3c41211240" x="105.216" y="119.740235" style="stroke: #000000; stroke-width: 0.8"/>
      </g>
     </g>
    </g>
    <g id="xtick_3">
     <g id="line2d_3">
      <g>
       <use xlink:href="#m3c41211240" x="152.832" y="119.740235" style="stroke: #000000; stroke-width: 0.8"/>
      </g>
     </g>
    </g>
    <g id="xtick_4">
     <g id="line2d_4">
      <g>
       <use xlink:href="#m3c41211240" x="200.448" y="119.740235" style="stroke: #000000; stroke-width: 0.8"/>
      </g>
     </g>
    </g>
    <g id="xtick_5">
     <g id="line2d_5">
      <g>
       <use xlink:href="#m3c41211240" x="248.064" y="119.740235" style="stroke: #000000; stroke-width: 0.8"/>
      </g>
     </g>
    </g>
    <g id="xtick_6">
     <g id="line2d_6">
      <g>
       <use xlink:href="#m3c41211240" x="295.68" y="119.740235" style="stroke: #000000; stroke-width: 0.8"/>
      </g>
     </g>
    </g>
    <g id="xtick_7">
     <g id="line2d_7">
      <g>
       <use xlink:href="#m3c41211240" x="343.296" y="119.740235" style="stroke: #000000; stroke-width: 0.8"/>
      </g>
     </g>
    </g>
    <g id="xtick_8">
     <g id="line2d_8">
      <g>
       <use xlink:href="#m3c41211240" x="390.912" y="119.740235" style="stroke: #000000; stroke-width: 0.8"/>
      </g>
     </g>
    </g>
    <g id="xtick_9">
     <g id="line2d_9">
      <g>
       <use xlink:href="#m3c41211240" x="414.72" y="119.740235" style="stroke: #000000; stroke-width: 0.8"/>
      </g>
     </g>
    </g>
   </g>
   <g id="matplotlib.axis_2">
    <g id="ytick_1">
     <g id="line2d_10">
      <defs>
       <path id="mf68945cb3c" d="M 0 0 
L -3.5 0 
" style="stroke: #000000; stroke-width: 0.8"/>
      </defs>
      <g>
       <use xlink:href="#mf68945cb3c" x="57.6" y="116.182602" style="stroke: #000000; stroke-width: 0.8"/>
      </g>
     </g>
     <g id="text_1">
      <!-- 0 -->
      <g transform="translate(44.2375 119.981821)scale(0.1 -0.1)">
       <defs>
        <path id="DejaVuSans-30" d="M 2034 4250 
Q 1547 4250 1301 3770 
Q 1056 3291 1056 2328 
Q 1056 1369 1301 889 
Q 1547 409 2034 409 
Q 2525 409 2770 889 
Q 3016 1369 3016 2328 
Q 3016 3291 2770 3770 
Q 2525 4250 2034 4250 
z
M 2034 4750 
Q 2819 4750 3233 4129 
Q 3647 3509 3647 2328 
Q 3647 1150 3233 529 
Q 2819 -91 2034 -91 
Q 1250 -91 836 529 
Q 422 1150 422 2328 
Q 422 3509 836 4129 
Q 1250 4750 2034 4750 
z
" transform="scale(0.015625)"/>
       </defs>
       <use xlink:href="#DejaVuSans-30"/>
      </g>
     </g>
    </g>
    <g id="ytick_2">
     <g id="line2d_11">
      <g>
       <use xlink:href="#mf68945cb3c" x="57.6" y="68.893521" style="stroke: #000000; stroke-width: 0.8"/>
      </g>
     </g>
     <g id="text_2">
      <!-- 20 -->
      <g transform="translate(37.875 72.69274)scale(0.1 -0.1)">
       <defs>
        <path id="DejaVuSans-32" d="M 1228 531 
L 3431 531 
L 3431 0 
L 469 0 
L 469 531 
Q 828 903 1448 1529 
Q 2069 2156 2228 2338 
Q 2531 2678 2651 2914 
Q 2772 3150 2772 3378 
Q 2772 3750 2511 3984 
Q 2250 4219 1831 4219 
Q 1534 4219 1204 4116 
Q 875 4013 500 3803 
L 500 4441 
Q 881 4594 1212 4672 
Q 1544 4750 1819 4750 
Q 2544 4750 2975 4387 
Q 3406 4025 3406 3419 
Q 3406 3131 3298 2873 
Q 3191 2616 2906 2266 
Q 2828 2175 2409 1742 
Q 1991 1309 1228 531 
z
" transform="scale(0.015625)"/>
       </defs>
       <use xlink:href="#DejaVuSans-32"/>
       <use xlink:href="#DejaVuSans-30" x="63.623047"/>
      </g>
     </g>
    </g>
   </g>
   <g id="line2d_12">
    <path d="M 57.6 116.182586 
L 83.788809 116.083524 
L 87.955191 115.950513 
L 89.145595 116.168847 
L 90.336 115.880253 
L 91.526405 115.828042 
L 96.288 116.139434 
L 105.811191 116.110668 
L 109.382405 116.120907 
L 115.334405 116.137303 
L 119.500809 116.157683 
L 121.286405 116.12541 
L 124.857595 116.120336 
L 132 116.146065 
L 140.928 116.129895 
L 155.212809 116.16489 
L 167.116809 116.085978 
L 168.902405 116.138511 
L 170.688 116.02643 
L 173.664 116.14665 
L 175.449595 116.151052 
L 181.996809 115.875692 
L 186.163191 115.474407 
L 186.758405 115.601528 
L 187.948809 116.139062 
L 189.139191 115.410934 
L 189.734405 115.235076 
L 190.329595 115.21703 
L 191.52 115.470775 
L 193.305595 115.934112 
L 195.091191 116.179025 
L 199.257595 116.027933 
L 203.424 116.03381 
L 204.614382 116.174833 
L 206.995191 115.885975 
L 208.780809 116.068055 
L 209.971191 116.136953 
L 212.947191 115.909707 
L 215.923191 115.661127 
L 217.708809 115.327968 
L 218.899191 114.93998 
L 220.089618 114.326233 
L 221.28 113.362739 
L 222.470382 111.90367 
L 224.851191 108.172886 
L 225.446382 108.100164 
L 226.041618 109.231592 
L 226.636809 111.969295 
L 227.232 116.170101 
L 228.422382 107.552517 
L 229.017618 105.438907 
L 229.612809 105.232894 
L 230.208 106.379264 
L 231.993618 111.784126 
L 232.588809 113.165125 
L 233.184 114.206237 
L 233.779191 114.94135 
L 234.374382 115.421664 
L 234.969618 115.698915 
L 235.564809 115.816559 
L 236.755191 115.695035 
L 237.945618 115.214606 
L 239.731191 114.043571 
L 240.921618 113.375362 
L 241.516809 113.324577 
L 242.112 113.609142 
L 242.707191 114.288959 
L 243.302382 115.32053 
L 243.897618 115.822162 
L 245.088 113.681159 
L 245.683191 113.067278 
L 246.278382 112.793161 
L 246.873618 112.790871 
L 248.064 113.23398 
L 249.849618 114.046104 
L 251.04 114.377494 
L 252.230382 114.525912 
L 254.611191 114.512036 
L 255.801618 114.554426 
L 256.396809 114.670791 
L 256.992 114.900866 
L 257.587191 115.285442 
L 258.182382 115.847889 
L 258.777618 115.796876 
L 259.968 114.314841 
L 260.563191 113.890575 
L 261.158382 113.84515 
L 261.753618 114.167022 
L 262.944 115.434782 
L 263.539191 116.117751 
L 265.324809 114.710178 
L 267.110382 113.765531 
L 268.300809 113.129262 
L 269.491191 112.266855 
L 270.681618 110.998833 
L 271.872 109.135976 
L 273.062382 106.531026 
L 274.848 101.825094 
L 275.443191 100.746292 
L 276.038382 100.578293 
L 276.633618 101.885555 
L 277.228809 105.147027 
L 278.419191 114.947687 
L 279.609618 101.063448 
L 280.204809 96.856034 
L 280.8 95.497109 
L 281.395191 96.723921 
L 281.990382 99.690898 
L 283.776 110.635611 
L 284.371191 113.491692 
L 284.966382 115.795625 
L 285.561618 114.734525 
L 286.752 112.002923 
L 289.132809 107.250902 
L 289.728 105.677362 
L 290.323191 103.777711 
L 290.918382 101.456908 
L 291.513618 98.610418 
L 292.108809 95.125081 
L 292.704 90.886008 
L 293.894382 79.808462 
L 296.870382 46.69565 
L 297.465618 45.029647 
L 298.060809 47.202443 
L 298.656 53.162974 
L 299.846382 72.109329 
L 301.036809 91.220028 
L 301.632 98.746624 
L 302.227191 104.695807 
L 302.822382 109.223933 
L 303.417618 112.583988 
L 304.012809 115.043317 
L 304.608 115.520016 
L 305.203191 114.172069 
L 306.393618 112.228318 
L 308.774382 108.79176 
L 309.964809 106.605485 
L 311.155191 104.307125 
L 311.750382 103.450273 
L 312.345618 103.152368 
L 312.940809 103.808575 
L 313.536 105.834836 
L 314.131191 109.503089 
L 314.726382 114.722186 
L 315.321618 111.497772 
L 315.916809 105.541967 
L 316.512 101.043004 
L 317.107191 98.894464 
L 317.702382 99.240719 
L 318.297618 101.528372 
L 320.678382 115.029096 
L 321.273618 114.818716 
L 322.464 110.96716 
L 324.844809 104.636287 
L 326.035191 100.330488 
L 326.630382 97.520285 
L 327.225618 94.130684 
L 328.416 85.256754 
L 329.606382 73.526174 
L 330.796809 60.755406 
L 331.392 55.443374 
L 331.987191 51.900368 
L 332.582382 50.776086 
L 333.177618 52.374681 
L 333.772809 56.573294 
L 334.368 62.856761 
L 336.748809 92.896483 
L 337.344 98.572581 
L 337.939191 103.089178 
L 338.534382 106.540472 
L 339.129618 109.085986 
L 339.724809 110.900306 
L 340.32 112.145955 
L 340.915191 112.959112 
L 341.510382 113.446767 
L 342.105618 113.687776 
L 342.700809 113.73643 
L 343.296 113.62647 
L 343.891191 113.374671 
L 344.486382 112.983531 
L 345.081618 112.442767 
L 345.676809 111.73022 
L 346.272 110.811044 
L 346.867191 109.63683 
L 347.462382 108.143458 
L 348.057618 106.248638 
L 348.652809 103.850066 
L 349.248 100.824481 
L 349.843191 97.032385 
L 350.438382 92.332327 
L 351.628809 79.861738 
L 354.009618 50.413536 
L 354.604809 46.457568 
L 355.2 45.366179 
L 355.795191 47.50781 
L 356.390382 53.055934 
L 356.985618 61.719569 
L 359.366382 103.781675 
L 359.961618 111.255886 
L 360.556809 115.242901 
L 361.152 110.685767 
L 362.342382 104.130135 
L 364.723191 93.652055 
L 365.913618 86.842163 
L 367.104 78.034363 
L 369.484809 58.703275 
L 370.08 56.048872 
L 370.675191 55.385635 
L 371.270382 56.938113 
L 371.865618 60.528744 
L 373.056 71.567546 
L 374.246382 83.383636 
L 375.436809 92.577951 
L 376.032 95.846801 
L 376.627191 98.259922 
L 377.222382 99.897327 
L 377.817618 100.848718 
L 378.412809 101.195032 
L 379.008 100.999174 
L 379.603191 100.301855 
L 380.198382 99.121234 
L 380.793618 97.455163 
L 381.388809 95.284951 
L 381.984 92.581873 
L 383.174382 85.472906 
L 384.364809 76.17483 
L 386.150382 60.797623 
L 386.745618 56.798519 
L 387.340809 54.311079 
L 387.936 53.906126 
L 388.531191 55.925989 
L 389.126382 60.289511 
L 390.316809 73.525001 
L 391.507191 87.177417 
L 392.102382 92.694911 
L 392.697618 97.0784 
L 393.292809 100.358358 
L 393.888 102.651616 
L 394.483191 104.10356 
L 395.078382 104.854254 
L 395.673618 105.021325 
L 396.268809 104.694817 
L 396.864 103.939275 
L 397.459191 102.799673 
L 398.054382 101.311396 
L 399.244809 97.466546 
L 401.030382 91.177097 
L 401.625618 89.822436 
L 402.220809 89.358103 
L 402.816 90.052394 
L 403.411191 92.0339 
L 404.006382 95.251931 
L 405.196809 104.541902 
L 406.387191 116.08167 
L 409.363191 86.531901 
L 409.958382 84.229777 
L 410.553618 85.04272 
L 411.148809 89.011425 
L 412.339191 102.870506 
L 412.934382 110.536725 
L 413.529618 114.644126 
L 414.72 102.386404 
L 414.72 102.386404 
" clip-path="url(#p83bd86eee7)" style="fill: none; stroke: #0000cc; stroke-width: 1.5; stroke-linecap: square"/>
   </g>
   <g id="line2d_13">
    <path d="M 57.6 116.182586 
L 220.684809 115.994126 
L 225.446382 115.679093 
L 226.636809 116.118961 
L 229.017618 115.426664 
L 230.208 115.61394 
L 232.588809 116.041708 
L 234.969618 116.167694 
L 238.540809 116.09656 
L 242.112 116.022973 
L 243.897618 116.133178 
L 245.683191 115.969249 
L 248.659191 116.012134 
L 253.420809 116.034174 
L 258.182382 116.053192 
L 259.372809 116.152164 
L 261.158382 115.918381 
L 262.944 116.003938 
L 264.729618 116.17097 
L 272.467191 115.485412 
L 274.252809 114.963498 
L 277.228809 113.705627 
L 277.824 113.763723 
L 278.419191 114.19013 
L 279.609618 116.005691 
L 280.8 113.501877 
L 281.395191 112.920577 
L 281.990382 112.888992 
L 282.585618 113.248234 
L 284.966382 115.367195 
L 286.156809 115.969397 
L 286.752 116.153733 
L 289.728 115.881757 
L 292.108809 115.925705 
L 294.489618 116.046776 
L 296.275191 115.586416 
L 296.870382 115.551842 
L 298.060809 115.81359 
L 298.656 116.052236 
L 299.251191 116.069664 
L 300.441618 115.693931 
L 302.227191 115.4282 
L 305.203191 115.087948 
L 306.393618 114.800661 
L 307.584 114.337444 
L 308.774382 113.601514 
L 309.964809 112.452687 
L 310.56 111.659271 
L 311.155191 110.679187 
L 312.345618 108.052644 
L 314.726382 101.588928 
L 315.321618 101.386754 
L 315.916809 103.032949 
L 316.512 107.131473 
L 317.107191 113.631545 
L 317.702382 110.870884 
L 318.297618 103.452052 
L 318.892809 98.256424 
L 319.488 96.178175 
L 320.083191 96.954977 
L 320.678382 99.598404 
L 322.464 109.419462 
L 323.059191 111.804828 
L 323.654382 113.597443 
L 324.249618 114.871791 
L 324.844809 115.724498 
L 325.44 116.117722 
L 326.035191 115.848659 
L 326.630382 115.777443 
L 327.225618 115.867648 
L 327.820809 116.098883 
L 328.416 115.901171 
L 329.606382 114.768656 
L 331.987191 111.715902 
L 332.582382 111.47833 
L 333.177618 111.870452 
L 333.772809 112.998817 
L 334.368 114.749292 
L 334.963191 115.571701 
L 335.558382 113.636236 
L 336.153618 112.115362 
L 336.748809 111.129164 
L 337.344 110.639324 
L 337.939191 110.519806 
L 339.129618 110.835111 
L 340.32 111.221162 
L 341.510382 111.273237 
L 342.105618 111.123212 
L 342.700809 110.842041 
L 343.296 110.420214 
L 343.891191 109.847838 
L 344.486382 109.108665 
L 345.676809 107.080469 
L 346.867191 104.299322 
L 348.652809 99.761869 
L 349.248 98.985448 
L 349.843191 99.250381 
L 350.438382 101.058002 
L 351.033618 104.787438 
L 351.628809 110.48804 
L 352.224 114.655098 
L 353.414382 99.933354 
L 354.009618 95.129218 
L 354.604809 93.311797 
L 355.2 94.454968 
L 355.795191 97.778591 
L 358.176 114.780328 
L 358.771191 114.549943 
L 359.961618 109.922757 
L 362.342382 102.204006 
L 363.532809 96.908839 
L 364.128 93.475756 
L 365.318382 84.546867 
L 366.508809 72.810329 
L 367.699191 60.19306 
L 368.294382 55.093814 
L 368.889618 51.893012 
L 369.484809 51.219851 
L 370.08 53.284347 
L 370.675191 57.827136 
L 371.865618 71.662613 
L 373.056 86.571708 
L 374.246382 98.263963 
L 374.841618 102.493387 
L 375.436809 105.727664 
L 376.032 108.111899 
L 376.627191 109.802575 
L 377.222382 110.945211 
L 377.817618 111.661761 
L 378.412809 112.046974 
L 379.008 112.170073 
L 379.603191 112.075283 
L 380.198382 111.792363 
L 380.793618 111.329873 
L 381.388809 110.684369 
L 381.984 109.842114 
L 382.579191 108.780781 
L 383.174382 107.473869 
L 384.364809 104.048279 
L 386.745618 96.009318 
L 387.340809 95.546813 
L 387.936 96.943616 
L 388.531191 100.804964 
L 389.126382 107.305265 
L 389.721618 115.958314 
L 390.912 97.821044 
L 391.507191 91.279683 
L 392.102382 88.362492 
L 392.697618 89.192501 
L 393.292809 92.845802 
L 395.078382 108.111588 
L 395.673618 112.13449 
L 396.268809 115.310205 
L 396.864 114.619553 
L 397.459191 112.766005 
L 398.649618 110.174602 
L 402.220809 104.057226 
L 404.006382 100.496358 
L 404.601618 99.723106 
L 405.196809 99.556504 
L 405.792 100.342551 
L 406.387191 102.440669 
L 406.982382 106.127293 
L 407.577618 111.461969 
L 408.172809 114.210609 
L 409.363191 100.138489 
L 409.958382 95.302863 
L 410.553618 93.450976 
L 411.148809 94.808232 
L 411.744 98.679366 
L 413.529618 114.51625 
L 414.124809 113.419344 
L 414.72 109.688467 
L 414.72 109.688467 
" clip-path="url(#p83bd86eee7)" style="fill: none; stroke-dasharray: 9.6,2.4,1.5,2.4; stroke-dashoffset: 0; stroke: #ff0000; stroke-width: 1.5"/>
   </g>
   <g id="patch_3">
    <path d="M 57.6 119.740235 
L 57.6 41.472 
" style="fill: none; stroke: #000000; stroke-width: 0.8; stroke-linejoin: miter; stroke-linecap: square"/>
   </g>
   <g id="patch_4">
    <path d="M 414.72 119.740235 
L 414.72 41.472 
" style="fill: none; stroke: #000000; stroke-width: 0.8; stroke-linejoin: miter; stroke-linecap: square"/>
   </g>
   <g id="patch_5">
    <path d="M 57.6 119.740235 
L 414.72 119.740235 
" style="fill: none; stroke: #000000; stroke-width: 0.8; stroke-linejoin: miter; stroke-linecap: square"/>
   </g>
   <g id="patch_6">
    <path d="M 57.6 41.472 
L 414.72 41.472 
" style="fill: none; stroke: #000000; stroke-width: 0.8; stroke-linejoin: miter; stroke-linecap: square"/>
   </g>
  </g>
  <g id="axes_2">
   <g id="patch_7">
    <path d="M 57.6 213.662118 
L 414.72 213.662118 
L 414.72 135.393882 
L 57.6 135.393882 
z
" style="fill: #ffffff"/>
   </g>
   <g id="matplotlib.axis_3">
    <g id="xtick_10">
     <g id="line2d_14">
      <g>
       <use xlink:href="#m3c41211240" x="57.6" y="213.662118" style="stroke: #000000; stroke-width: 0.8"/>
      </g>
     </g>
    </g>
    <g id="xtick_11">
     <g id="line2d_15">
      <g>
       <use xlink:href="#m3c41211240" x="105.216" y="213.662118" style="stroke: #000000; stroke-width: 0.8"/>
      </g>
     </g>
    </g>
    <g id="xtick_12">
     <g id="line2d_16">
      <g>
       <use xlink:href="#m3c41211240" x="152.832" y="213.662118" style="stroke: #000000; stroke-width: 0.8"/>
      </g>
     </g>
    </g>
    <g id="xtick_13">
     <g id="line2d_17">
      <g>
       <use xlink:href="#m3c41211240" x="200.448" y="213.662118" style="stroke: #000000; stroke-width: 0.8"/>
      </g>
     </g>
    </g>
    <g id="xtick_14">
     <g id="line2d_18">
      <g>
       <use xlink:href="#m3c41211240" x="248.064" y="213.662118" style="stroke: #000000; stroke-width: 0.8"/>
      </g>
     </g>
    </g>
    <g id="xtick_15">
     <g id="line2d_19">
      <g>
       <use xlink:href="#m3c41211240" x="295.68" y="213.662118" style="stroke: #000000; stroke-width: 0.8"/>
      </g>
     </g>
    </g>
    <g id="xtick_16">
     <g id="line2d_20">
      <g>
       <use xlink:href="#m3c41211240" x="343.296" y="213.662118" style="stroke: #000000; stroke-width: 0.8"/>
      </g>
     </g>
    </g>
    <g id="xtick_17">
     <g id="line2d_21">
      <g>
       <use xlink:href="#m3c41211240" x="390.912" y="213.662118" style="stroke: #000000; stroke-width: 0.8"/>
      </g>
     </g>
    </g>
    <g id="xtick_18">
     <g id="line2d_22">
      <g>
       <use xlink:href="#m3c41211240" x="414.72" y="213.662118" style="stroke: #000000; stroke-width: 0.8"/>
      </g>
     </g>
    </g>
   </g>
   <g id="matplotlib.axis_4">
    <g id="ytick_3">
     <g id="line2d_23">
      <g>
       <use xlink:href="#mf68945cb3c" x="57.6" y="210.104487" style="stroke: #000000; stroke-width: 0.8"/>
      </g>
     </g>
     <g id="text_3">
      <!-- 0 -->
      <g transform="translate(44.2375 213.903706)scale(0.1 -0.1)">
       <use xlink:href="#DejaVuSans-30"/>
      </g>
     </g>
    </g>
    <g id="ytick_4">
     <g id="line2d_24">
      <g>
       <use xlink:href="#mf68945cb3c" x="57.6" y="172.030872" style="stroke: #000000; stroke-width: 0.8"/>
      </g>
     </g>
     <g id="text_4">
      <!-- 20 -->
      <g transform="translate(37.875 175.830091)scale(0.1 -0.1)">
       <use xlink:href="#DejaVuSans-32"/>
       <use xlink:href="#DejaVuSans-30" x="63.623047"/>
      </g>
     </g>
    </g>
   </g>
   <g id="line2d_25">
    <path d="M 57.6 210.10446 
L 83.193595 209.982322 
L 86.764809 209.82543 
L 87.955191 210.092685 
L 89.145595 209.558379 
L 89.740809 209.473087 
L 90.931191 209.739834 
L 92.121595 210.036255 
L 93.312 210.075626 
L 108.192 210.066115 
L 112.358405 210.076445 
L 123.072 210.042469 
L 127.833595 210.09457 
L 142.118405 210.087627 
L 162.355191 210.022433 
L 166.521595 210.047906 
L 167.116809 210.099354 
L 169.497595 209.864185 
L 174.259191 210.033888 
L 179.616 209.901452 
L 182.592 209.590905 
L 184.377595 209.345144 
L 184.972809 209.343 
L 185.568 209.458795 
L 186.758405 209.958918 
L 187.948809 208.775169 
L 188.544 208.516888 
L 189.139191 208.651219 
L 190.924809 209.842637 
L 191.52 210.081724 
L 193.305595 209.920702 
L 202.828809 210.027864 
L 203.424 210.08432 
L 205.804809 209.644007 
L 206.995191 209.879461 
L 207.590382 210.056277 
L 211.756809 209.817231 
L 214.732809 209.621419 
L 216.518382 209.300823 
L 217.708809 208.923671 
L 218.899191 208.324968 
L 220.089618 207.378832 
L 221.28 205.920257 
L 222.470382 203.855885 
L 223.660809 201.688259 
L 224.256 201.24797 
L 224.851191 202.068265 
L 225.446382 205.013522 
L 226.041618 209.588149 
L 227.232 195.039091 
L 227.827191 191.672216 
L 228.422382 193.152446 
L 230.208 207.295239 
L 230.803191 209.839548 
L 231.398382 209.096914 
L 231.993618 208.644659 
L 232.588809 208.641547 
L 233.779191 209.175596 
L 234.969618 209.878934 
L 235.564809 209.96944 
L 237.350382 208.771638 
L 239.731191 207.034202 
L 240.326382 206.937708 
L 240.921618 207.254115 
L 241.516809 208.127562 
L 242.112 209.576121 
L 242.707191 208.816827 
L 243.302382 207.056379 
L 243.897618 205.809406 
L 244.492809 205.325149 
L 245.088 205.540907 
L 246.278382 206.97865 
L 247.468809 208.270719 
L 248.064 208.663993 
L 249.254382 209.03383 
L 250.444809 209.070295 
L 255.206382 208.812939 
L 255.801618 209.028546 
L 256.396809 209.422424 
L 256.992 210.042659 
L 257.587191 209.306058 
L 258.777618 207.295018 
L 259.372809 206.674563 
L 259.968 206.714049 
L 260.563191 207.474672 
L 261.753618 210.007345 
L 262.944 208.446074 
L 263.539191 208.054461 
L 264.729618 207.769392 
L 266.515191 207.446477 
L 267.705618 206.903394 
L 268.896 205.953415 
L 270.086382 204.46241 
L 271.276809 202.261785 
L 272.467191 199.259283 
L 273.657618 195.87228 
L 274.252809 194.565472 
L 274.848 194.151832 
L 275.443191 195.378178 
L 276.038382 199.069663 
L 276.633618 205.757637 
L 277.228809 205.067876 
L 278.419191 185.253299 
L 279.014382 179.975443 
L 279.609618 180.20721 
L 280.204809 185.499353 
L 281.395191 201.723906 
L 281.990382 208.11743 
L 282.585618 207.913878 
L 283.180809 205.575816 
L 283.776 204.451353 
L 284.371191 203.99076 
L 286.156809 203.409622 
L 286.752 202.966304 
L 287.347191 202.277567 
L 287.942382 201.298915 
L 288.537618 199.983847 
L 289.132809 198.275581 
L 289.728 196.102152 
L 290.323191 193.374465 
L 290.918382 189.986686 
L 291.513618 185.822912 
L 292.108809 180.772127 
L 293.299191 167.80517 
L 295.084809 145.036375 
L 295.68 140.039592 
L 296.275191 138.951529 
L 296.870382 143.270664 
L 297.465618 153.407618 
L 299.251191 197.796587 
L 299.846382 207.858874 
L 300.441618 206.323522 
L 301.036809 203.413885 
L 301.632 202.484434 
L 302.227191 202.602495 
L 304.012809 204.280719 
L 304.608 204.596823 
L 305.203191 204.691824 
L 305.798382 204.564294 
L 306.393618 204.222433 
L 306.988809 203.676439 
L 307.584 202.936784 
L 308.774382 200.945864 
L 310.56 197.662575 
L 311.155191 197.234065 
L 311.750382 197.803621 
L 312.345618 199.960492 
L 313.536 209.339235 
L 314.726382 192.49356 
L 315.321618 186.155065 
L 315.916809 184.065652 
L 316.512 186.912416 
L 317.702382 201.135769 
L 318.297618 207.883916 
L 318.892809 207.515791 
L 319.488 204.576811 
L 320.083191 202.975511 
L 320.678382 202.143694 
L 322.464 200.598958 
L 323.059191 199.754076 
L 323.654382 198.575814 
L 324.249618 196.995961 
L 324.844809 194.945218 
L 325.44 192.345953 
L 326.035191 189.111163 
L 326.630382 185.151378 
L 327.820809 174.810678 
L 330.201618 149.614594 
L 330.796809 146.384015 
L 331.392 146.526755 
L 331.987191 150.561423 
L 332.582382 158.157735 
L 334.963191 198.828193 
L 335.558382 205.292533 
L 336.153618 209.367399 
L 337.344 207.892818 
L 337.939191 207.890684 
L 338.534382 208.305016 
L 340.32 210.103851 
L 343.891191 206.810582 
L 345.081618 205.090469 
L 345.676809 203.914352 
L 346.272 202.4388 
L 346.867191 200.577862 
L 347.462382 198.225616 
L 348.057618 195.253626 
L 348.652809 191.512311 
L 349.248 186.839047 
L 349.843191 181.084486 
L 351.033618 166.187108 
L 352.224 149.239149 
L 352.819191 142.645114 
L 353.414382 139.360936 
L 354.009618 140.356216 
L 354.604809 145.598455 
L 355.2 154.624755 
L 355.795191 167.183401 
L 356.985618 198.27783 
L 357.580809 208.752201 
L 358.176 199.947445 
L 358.771191 195.209171 
L 359.366382 193.227523 
L 359.961618 192.72241 
L 361.152 192.73207 
L 361.747191 192.391828 
L 362.342382 191.575326 
L 362.937618 190.205123 
L 363.532809 188.237914 
L 364.128 185.641291 
L 364.723191 182.391926 
L 365.913618 173.957336 
L 368.294382 154.50339 
L 368.889618 152.203389 
L 369.484809 152.58571 
L 370.08 156.127594 
L 370.675191 162.572638 
L 372.460809 187.565745 
L 373.056 193.871666 
L 373.651191 198.344855 
L 374.246382 201.143394 
L 374.841618 202.599138 
L 375.436809 203.066789 
L 376.032 202.844956 
L 376.627191 202.149181 
L 377.222382 201.114429 
L 378.412809 198.25176 
L 379.603191 194.290398 
L 380.793618 188.862465 
L 381.984 181.506337 
L 383.174382 172.074286 
L 384.96 156.635818 
L 385.555191 152.838972 
L 386.150382 150.870019 
L 386.745618 151.513906 
L 387.340809 155.36452 
L 387.936 162.47892 
L 390.316809 199.085805 
L 390.912 203.771406 
L 391.507191 206.262387 
L 392.102382 207.155404 
L 392.697618 207.015848 
L 393.292809 206.263006 
L 394.483191 203.855875 
L 395.673618 200.820144 
L 396.864 197.174753 
L 398.054382 192.81515 
L 399.84 186.122641 
L 400.435191 184.773234 
L 401.030382 184.524859 
L 401.625618 185.783296 
L 402.220809 188.76395 
L 402.816 193.354065 
L 404.006382 205.422492 
L 404.601618 208.429209 
L 406.982382 184.602665 
L 407.577618 178.996217 
L 408.172809 174.446654 
L 408.768 172.387413 
L 409.363191 174.513304 
L 409.958382 181.71872 
L 411.148809 205.417956 
L 411.744 203.915576 
L 412.339191 195.907323 
L 412.934382 190.519646 
L 413.529618 186.838946 
L 414.72 181.328744 
L 414.72 181.328744 
" clip-path="url(#p79a3ee522e)" style="fill: none; stroke: #0000cc; stroke-width: 1.5; stroke-linecap: square"/>
   </g>
   <g id="line2d_26">
    <path d="M 57.6 210.10446 
L 119.500809 210.102777 
L 168.307191 210.080764 
L 173.068809 210.101048 
L 198.662405 210.098865 
L 217.113618 210.024201 
L 220.684809 209.827546 
L 224.256 209.530841 
L 224.851191 209.697693 
L 225.446382 210.045285 
L 227.232 208.843867 
L 227.827191 208.895957 
L 230.208 210.068488 
L 233.184 210.02818 
L 236.16 210.068194 
L 240.921618 209.924847 
L 242.112 210.101496 
L 243.897618 209.802716 
L 245.683191 209.864352 
L 248.659191 210.016761 
L 254.016 209.941069 
L 256.992 209.986123 
L 257.587191 210.06471 
L 258.777618 209.891454 
L 259.968 209.692366 
L 261.158382 209.803369 
L 262.348809 210.069046 
L 270.086382 209.64243 
L 271.872 209.303794 
L 273.062382 208.927729 
L 274.848 208.072364 
L 276.038382 207.52077 
L 276.633618 207.487816 
L 277.228809 207.859544 
L 277.824 208.861806 
L 278.419191 209.610719 
L 279.609618 205.460017 
L 280.204809 204.616823 
L 280.8 205.140068 
L 282.585618 209.308536 
L 283.180809 210.085497 
L 283.776 209.70948 
L 284.371191 209.532797 
L 285.561618 209.521093 
L 290.323191 209.848041 
L 292.704 210.056733 
L 294.489618 209.476766 
L 295.68 209.226312 
L 296.275191 209.347272 
L 297.465618 210.100137 
L 298.656 209.40804 
L 299.846382 209.235443 
L 302.822382 209.290943 
L 304.608 209.0246 
L 305.798382 208.663077 
L 306.988809 208.087334 
L 308.179191 207.185166 
L 309.369618 205.779474 
L 309.964809 204.81266 
L 310.56 203.623775 
L 311.750382 200.485319 
L 313.536 194.946461 
L 314.131191 194.255877 
L 314.726382 195.571257 
L 315.321618 200.101286 
L 315.916809 208.565355 
L 316.512 200.045801 
L 317.107191 188.205414 
L 317.702382 180.152486 
L 318.297618 178.752878 
L 318.892809 183.802885 
L 320.083191 200.752821 
L 320.678382 207.048236 
L 321.273618 209.360641 
L 321.868809 207.505166 
L 322.464 206.880184 
L 323.059191 206.92883 
L 324.249618 207.787267 
L 326.630382 209.823846 
L 327.225618 209.83354 
L 328.416 208.487372 
L 329.606382 206.717549 
L 330.796809 204.946932 
L 331.392 204.555937 
L 331.987191 204.960009 
L 332.582382 206.462636 
L 333.177618 209.075385 
L 333.772809 207.90375 
L 334.368 204.931794 
L 334.963191 202.999487 
L 335.558382 202.371622 
L 336.153618 202.777315 
L 337.939191 205.599605 
L 338.534382 206.197046 
L 339.129618 206.526306 
L 339.724809 206.62172 
L 340.32 206.524336 
L 340.915191 206.267017 
L 342.105618 205.341523 
L 343.296 203.868554 
L 344.486382 201.746874 
L 345.676809 198.88834 
L 347.462382 194.038883 
L 348.057618 193.085389 
L 348.652809 193.229674 
L 349.248 195.163086 
L 349.843191 199.551031 
L 350.438382 206.705965 
L 351.033618 203.999062 
L 352.224 184.087587 
L 352.819191 178.142032 
L 353.414382 177.444233 
L 354.009618 182.25762 
L 355.795191 208.349847 
L 356.390382 206.342768 
L 356.985618 203.076185 
L 357.580809 201.353214 
L 358.176 200.47844 
L 359.366382 199.407229 
L 359.961618 198.676187 
L 360.556809 197.618579 
L 361.152 196.144084 
L 361.747191 194.175131 
L 362.342382 191.633437 
L 362.937618 188.435159 
L 363.532809 184.495663 
L 364.723191 174.169327 
L 367.104 149.294761 
L 367.699191 146.428032 
L 368.294382 147.134443 
L 368.889618 151.864905 
L 369.484809 160.059388 
L 371.270382 191.003621 
L 371.865618 198.996862 
L 372.460809 204.740159 
L 373.056 208.357649 
L 373.651191 209.929609 
L 374.246382 209.188862 
L 374.841618 209.176111 
L 375.436809 209.558878 
L 376.032 210.085182 
L 379.603191 206.182293 
L 380.793618 204.418352 
L 381.984 201.947785 
L 383.174382 198.461899 
L 385.555191 189.686528 
L 386.150382 188.879711 
L 386.745618 190.167327 
L 387.340809 194.606372 
L 387.936 202.839674 
L 388.531191 205.731621 
L 389.721618 180.04762 
L 390.316809 171.631489 
L 390.912 169.522822 
L 391.507191 174.438536 
L 393.292809 206.149708 
L 393.888 207.464937 
L 394.483191 203.849975 
L 395.078382 202.26302 
L 395.673618 201.803983 
L 396.268809 201.849506 
L 397.459191 202.143721 
L 398.054382 202.097292 
L 398.649618 201.84952 
L 399.244809 201.388744 
L 399.84 200.719161 
L 401.030382 198.819957 
L 402.816 195.344845 
L 403.411191 194.528722 
L 404.006382 194.331641 
L 404.601618 195.167711 
L 405.196809 197.517507 
L 405.792 201.812003 
L 406.387191 208.249965 
L 406.982382 203.625873 
L 408.172809 185.441553 
L 408.768 179.245417 
L 409.363191 177.79746 
L 409.958382 182.137646 
L 410.553618 191.157904 
L 411.148809 201.880528 
L 411.744 208.906007 
L 412.339191 202.240137 
L 412.934382 198.219215 
L 413.529618 196.017428 
L 414.124809 194.779419 
L 414.72 193.874667 
L 414.72 193.874667 
" clip-path="url(#p79a3ee522e)" style="fill: none; stroke-dasharray: 9.6,2.4,1.5,2.4; stroke-dashoffset: 0; stroke: #ff0000; stroke-width: 1.5"/>
   </g>
   <g id="patch_8">
    <path d="M 57.6 213.662118 
L 57.6 135.393882 
" style="fill: none; stroke: #000000; stroke-width: 0.8; stroke-linejoin: miter; stroke-linecap: square"/>
   </g>
   <g id="patch_9">
    <path d="M 414.72 213.662118 
L 414.72 135.393882 
" style="fill: none; stroke: #000000; stroke-width: 0.8; stroke-linejoin: miter; stroke-linecap: square"/>
   </g>
   <g id="patch_10">
    <path d="M 57.6 213.662118 
L 414.72 213.662118 
" style="fill: none; stroke: #000000; stroke-width: 0.8; stroke-linejoin: miter; stroke-linecap: square"/>
   </g>
   <g id="patch_11">
    <path d="M 57.6 135.393882 
L 414.72 135.393882 
" style="fill: none; stroke: #000000; stroke-width: 0.8; stroke-linejoin: miter; stroke-linecap: square"/>
   </g>
  </g>
  <g id="axes_3">
   <g id="patch_12">
    <path d="M 57.6 307.584 
L 414.72 307.584 
L 414.72 229.315765 
L 57.6 229.315765 
z
" style="fill: #ffffff"/>
   </g>
   <g id="matplotlib.axis_5">
    <g id="xtick_19">
     <g id="line2d_27">
      <g>
       <use xlink:href="#m3c41211240" x="57.6" y="307.584" style="stroke: #000000; stroke-width: 0.8"/>
      </g>
     </g>
     <g id="text_5">
      <!-- 10 -->
      <g transform="translate(51.2375 322.182437)scale(0.1 -0.1)">
       <defs>
        <path id="DejaVuSans-31" d="M 794 531 
L 1825 531 
L 1825 4091 
L 703 3866 
L 703 4441 
L 1819 4666 
L 2450 4666 
L 2450 531 
L 3481 531 
L 3481 0 
L 794 0 
L 794 531 
z
" transform="scale(0.015625)"/>
       </defs>
       <use xlink:href="#DejaVuSans-31"/>
       <use xlink:href="#DejaVuSans-30" x="63.623047"/>
      </g>
     </g>
    </g>
    <g id="xtick_20">
     <g id="line2d_28">
      <g>
       <use xlink:href="#m3c41211240" x="105.216" y="307.584" style="stroke: #000000; stroke-width: 0.8"/>
      </g>
     </g>
     <g id="text_6">
      <!-- 12 -->
      <g transform="translate(98.8535 322.182437)scale(0.1 -0.1)">
       <use xlink:href="#DejaVuSans-31"/>
       <use xlink:href="#DejaVuSans-32" x="63.623047"/>
      </g>
     </g>
    </g>
    <g id="xtick_21">
     <g id="line2d_29">
      <g>
       <use xlink:href="#m3c41211240" x="152.832" y="307.584" style="stroke: #000000; stroke-width: 0.8"/>
      </g>
     </g>
     <g id="text_7">
      <!-- 14 -->
      <g transform="translate(146.4695 322.182437)scale(0.1 -0.1)">
       <defs>
        <path id="DejaVuSans-34" d="M 2419 4116 
L 825 1625 
L 2419 1625 
L 2419 4116 
z
M 2253 4666 
L 3047 4666 
L 3047 1625 
L 3713 1625 
L 3713 1100 
L 3047 1100 
L 3047 0 
L 2419 0 
L 2419 1100 
L 313 1100 
L 313 1709 
L 2253 4666 
z
" transform="scale(0.015625)"/>
       </defs>
       <use xlink:href="#DejaVuSans-31"/>
       <use xlink:href="#DejaVuSans-34" x="63.623047"/>
      </g>
     </g>
    </g>
    <g id="xtick_22">
     <g id="line2d_30">
      <g>
       <use xlink:href="#m3c41211240" x="200.448" y="307.584" style="stroke: #000000; stroke-width: 0.8"/>
      </g>
     </g>
     <g id="text_8">
      <!-- 16 -->
      <g transform="translate(194.0855 322.182437)scale(0.1 -0.1)">
       <defs>
        <path id="DejaVuSans-36" d="M 2113 2584 
Q 1688 2584 1439 2293 
Q 1191 2003 1191 1497 
Q 1191 994 1439 701 
Q 1688 409 2113 409 
Q 2538 409 2786 701 
Q 3034 994 3034 1497 
Q 3034 2003 2786 2293 
Q 2538 2584 2113 2584 
z
M 3366 4563 
L 3366 3988 
Q 3128 4100 2886 4159 
Q 2644 4219 2406 4219 
Q 1781 4219 1451 3797 
Q 1122 3375 1075 2522 
Q 1259 2794 1537 2939 
Q 1816 3084 2150 3084 
Q 2853 3084 3261 2657 
Q 3669 2231 3669 1497 
Q 3669 778 3244 343 
Q 2819 -91 2113 -91 
Q 1303 -91 875 529 
Q 447 1150 447 2328 
Q 447 3434 972 4092 
Q 1497 4750 2381 4750 
Q 2619 4750 2861 4703 
Q 3103 4656 3366 4563 
z
" transform="scale(0.015625)"/>
       </defs>
       <use xlink:href="#DejaVuSans-31"/>
       <use xlink:href="#DejaVuSans-36" x="63.623047"/>
      </g>
     </g>
    </g>
    <g id="xtick_23">
     <g id="line2d_31">
      <g>
       <use xlink:href="#m3c41211240" x="248.064" y="307.584" style="stroke: #000000; stroke-width: 0.8"/>
      </g>
     </g>
     <g id="text_9">
      <!-- 18 -->
      <g transform="translate(241.7015 322.182437)scale(0.1 -0.1)">
       <defs>
        <path id="DejaVuSans-38" d="M 2034 2216 
Q 1584 2216 1326 1975 
Q 1069 1734 1069 1313 
Q 1069 891 1326 650 
Q 1584 409 2034 409 
Q 2484 409 2743 651 
Q 3003 894 3003 1313 
Q 3003 1734 2745 1975 
Q 2488 2216 2034 2216 
z
M 1403 2484 
Q 997 2584 770 2862 
Q 544 3141 544 3541 
Q 544 4100 942 4425 
Q 1341 4750 2034 4750 
Q 2731 4750 3128 4425 
Q 3525 4100 3525 3541 
Q 3525 3141 3298 2862 
Q 3072 2584 2669 2484 
Q 3125 2378 3379 2068 
Q 3634 1759 3634 1313 
Q 3634 634 3220 271 
Q 2806 -91 2034 -91 
Q 1263 -91 848 271 
Q 434 634 434 1313 
Q 434 1759 690 2068 
Q 947 2378 1403 2484 
z
M 1172 3481 
Q 1172 3119 1398 2916 
Q 1625 2713 2034 2713 
Q 2441 2713 2670 2916 
Q 2900 3119 2900 3481 
Q 2900 3844 2670 4047 
Q 2441 4250 2034 4250 
Q 1625 4250 1398 4047 
Q 1172 3844 1172 3481 
z
" transform="scale(0.015625)"/>
       </defs>
       <use xlink:href="#DejaVuSans-31"/>
       <use xlink:href="#DejaVuSans-38" x="63.623047"/>
      </g>
     </g>
    </g>
    <g id="xtick_24">
     <g id="line2d_32">
      <g>
       <use xlink:href="#m3c41211240" x="295.68" y="307.584" style="stroke: #000000; stroke-width: 0.8"/>
      </g>
     </g>
     <g id="text_10">
      <!-- 20 -->
      <g transform="translate(289.3175 322.182437)scale(0.1 -0.1)">
       <use xlink:href="#DejaVuSans-32"/>
       <use xlink:href="#DejaVuSans-30" x="63.623047"/>
      </g>
     </g>
    </g>
    <g id="xtick_25">
     <g id="line2d_33">
      <g>
       <use xlink:href="#m3c41211240" x="343.296" y="307.584" style="stroke: #000000; stroke-width: 0.8"/>
      </g>
     </g>
     <g id="text_11">
      <!-- 22 -->
      <g transform="translate(336.9335 322.182437)scale(0.1 -0.1)">
       <use xlink:href="#DejaVuSans-32"/>
       <use xlink:href="#DejaVuSans-32" x="63.623047"/>
      </g>
     </g>
    </g>
    <g id="xtick_26">
     <g id="line2d_34">
      <g>
       <use xlink:href="#m3c41211240" x="390.912" y="307.584" style="stroke: #000000; stroke-width: 0.8"/>
      </g>
     </g>
     <g id="text_12">
      <!-- 24 -->
      <g transform="translate(384.5495 322.182437)scale(0.1 -0.1)">
       <use xlink:href="#DejaVuSans-32"/>
       <use xlink:href="#DejaVuSans-34" x="63.623047"/>
      </g>
     </g>
    </g>
    <g id="xtick_27">
     <g id="line2d_35">
      <g>
       <use xlink:href="#m3c41211240" x="414.72" y="307.584" style="stroke: #000000; stroke-width: 0.8"/>
      </g>
     </g>
     <g id="text_13">
      <!-- 25 -->
      <g transform="translate(408.3575 322.182437)scale(0.1 -0.1)">
       <defs>
        <path id="DejaVuSans-35" d="M 691 4666 
L 3169 4666 
L 3169 4134 
L 1269 4134 
L 1269 2991 
Q 1406 3038 1543 3061 
Q 1681 3084 1819 3084 
Q 2600 3084 3056 2656 
Q 3513 2228 3513 1497 
Q 3513 744 3044 326 
Q 2575 -91 1722 -91 
Q 1428 -91 1123 -41 
Q 819 9 494 109 
L 494 744 
Q 775 591 1075 516 
Q 1375 441 1709 441 
Q 2250 441 2565 725 
Q 2881 1009 2881 1497 
Q 2881 1984 2565 2268 
Q 2250 2553 1709 2553 
Q 1456 2553 1204 2497 
Q 953 2441 691 2322 
L 691 4666 
z
" transform="scale(0.015625)"/>
       </defs>
       <use xlink:href="#DejaVuSans-32"/>
       <use xlink:href="#DejaVuSans-35" x="63.623047"/>
      </g>
     </g>
    </g>
   </g>
   <g id="matplotlib.axis_6">
    <g id="ytick_5">
     <g id="line2d_36">
      <g>
       <use xlink:href="#mf68945cb3c" x="57.6" y="304.026385" style="stroke: #000000; stroke-width: 0.8"/>
      </g>
     </g>
     <g id="text_14">
      <!-- 0 -->
      <g transform="translate(44.2375 307.825604)scale(0.1 -0.1)">
       <use xlink:href="#DejaVuSans-30"/>
      </g>
     </g>
    </g>
    <g id="ytick_6">
     <g id="line2d_37">
      <g>
       <use xlink:href="#mf68945cb3c" x="57.6" y="276.901396" style="stroke: #000000; stroke-width: 0.8"/>
      </g>
     </g>
     <g id="text_15">
      <!-- 10 -->
      <g transform="translate(37.875 280.700615)scale(0.1 -0.1)">
       <use xlink:href="#DejaVuSans-31"/>
       <use xlink:href="#DejaVuSans-30" x="63.623047"/>
      </g>
     </g>
    </g>
    <g id="ytick_7">
     <g id="line2d_38">
      <g>
       <use xlink:href="#mf68945cb3c" x="57.6" y="249.776408" style="stroke: #000000; stroke-width: 0.8"/>
      </g>
     </g>
     <g id="text_16">
      <!-- 20 -->
      <g transform="translate(37.875 253.575627)scale(0.1 -0.1)">
       <use xlink:href="#DejaVuSans-32"/>
       <use xlink:href="#DejaVuSans-30" x="63.623047"/>
      </g>
     </g>
    </g>
   </g>
   <g id="line2d_39">
    <path d="M 57.6 304.02635 
L 84.384 303.904214 
L 86.169595 303.611915 
L 87.955191 303.044801 
L 88.550405 303.073259 
L 89.145595 303.367634 
L 89.740809 303.803293 
L 90.336 303.85309 
L 90.931191 303.623758 
L 92.121595 303.620334 
L 95.097595 303.860893 
L 100.454405 303.968016 
L 103.430405 303.822471 
L 107.001595 303.925231 
L 110.572809 303.893303 
L 117.715191 303.875665 
L 119.500809 303.853239 
L 121.881595 303.986295 
L 124.857595 303.902668 
L 163.545595 303.907124 
L 168.307191 303.702221 
L 169.497595 303.978172 
L 172.473595 303.80234 
L 180.211191 304.018433 
L 181.996809 303.854994 
L 183.187191 303.593748 
L 184.377595 303.069414 
L 186.758405 301.504108 
L 187.353595 301.642729 
L 187.948809 302.288331 
L 188.544 303.296618 
L 189.139191 303.751337 
L 189.734405 303.067067 
L 190.329595 302.760922 
L 190.924809 302.722843 
L 195.686405 303.372521 
L 199.257595 303.482226 
L 201.638382 303.37435 
L 204.019191 303.254814 
L 204.614382 303.377813 
L 205.804809 303.950853 
L 207.590382 303.494444 
L 209.376 303.671343 
L 211.756809 303.841245 
L 215.923191 303.86519 
L 218.304 303.712308 
L 219.494382 303.451025 
L 220.089618 303.205644 
L 220.684809 302.82491 
L 221.28 302.233516 
L 221.875191 301.316609 
L 222.470382 299.905563 
L 223.065618 297.769199 
L 223.660809 294.633545 
L 224.256 290.280641 
L 225.446382 279.087651 
L 226.041618 275.182833 
L 226.636809 275.964506 
L 227.232 283.154922 
L 227.827191 295.055812 
L 228.422382 301.034326 
L 229.017618 293.072355 
L 229.612809 289.943365 
L 230.208 290.045314 
L 232.588809 295.63751 
L 233.779191 297.059339 
L 235.564809 298.47052 
L 236.755191 299.419311 
L 237.945618 300.72387 
L 238.540809 301.643822 
L 239.136 302.829851 
L 239.731191 303.719713 
L 242.112 296.653966 
L 242.707191 296.360643 
L 243.302382 297.333789 
L 243.897618 299.3494 
L 245.088 303.913725 
L 245.683191 302.13305 
L 246.278382 300.962123 
L 246.873618 300.291834 
L 247.468809 299.958812 
L 248.659191 299.794033 
L 252.230382 299.879034 
L 253.420809 299.67864 
L 254.611191 299.22524 
L 256.992 297.881108 
L 257.587191 297.940167 
L 258.182382 298.54936 
L 258.777618 299.903193 
L 259.372809 301.981093 
L 259.968 303.641995 
L 260.563191 301.477172 
L 261.158382 300.101258 
L 261.753618 299.654271 
L 262.348809 299.910066 
L 264.729618 302.309833 
L 265.92 303.068462 
L 267.705618 303.968416 
L 268.300809 303.755277 
L 269.491191 302.900402 
L 270.086382 302.296245 
L 270.681618 301.495228 
L 271.276809 300.406432 
L 271.872 298.902078 
L 272.467191 296.807623 
L 273.062382 293.894698 
L 273.657618 289.893348 
L 274.252809 284.54484 
L 275.443191 269.728619 
L 276.038382 261.509367 
L 276.633618 254.965017 
L 277.228809 252.639001 
L 277.824 256.803887 
L 278.419191 268.190581 
L 279.609618 303.76352 
L 280.204809 288.455714 
L 280.8 278.40722 
L 281.395191 274.372406 
L 281.990382 274.54482 
L 282.585618 276.732334 
L 283.776 281.873685 
L 284.966382 285.555048 
L 286.156809 287.998048 
L 287.347191 289.721767 
L 288.537618 290.908647 
L 289.132809 291.289184 
L 289.728 291.497435 
L 290.323191 291.49276 
L 290.918382 291.21773 
L 291.513618 290.595344 
L 292.108809 289.53129 
L 292.704 287.926128 
L 293.299191 285.71368 
L 295.084809 277.425902 
L 295.68 276.776621 
L 296.275191 279.590116 
L 296.870382 286.810474 
L 297.465618 297.483876 
L 298.060809 299.47578 
L 298.656 291.341476 
L 299.251191 287.652396 
L 299.846382 287.554627 
L 300.441618 289.263061 
L 301.632 293.208279 
L 302.227191 294.577896 
L 302.822382 295.534284 
L 303.417618 296.179295 
L 304.012809 296.601441 
L 304.608 296.856101 
L 305.203191 296.969799 
L 305.798382 296.945705 
L 306.393618 296.768014 
L 306.988809 296.402559 
L 307.584 295.794953 
L 308.179191 294.865872 
L 308.774382 293.507037 
L 309.369618 291.576584 
L 309.964809 288.905376 
L 310.56 285.320128 
L 311.155191 280.707196 
L 312.940809 263.542024 
L 313.536 260.273752 
L 314.131191 261.304576 
L 314.726382 268.171102 
L 315.321618 280.809043 
L 315.916809 296.914647 
L 316.512 295.514272 
L 317.107191 284.049879 
L 317.702382 278.238698 
L 318.297618 277.149188 
L 318.892809 278.761263 
L 320.678382 286.097845 
L 321.868809 289.392848 
L 323.059191 291.809733 
L 325.44 296.254263 
L 326.035191 297.66215 
L 326.630382 299.387725 
L 327.820809 303.56687 
L 328.416 299.75798 
L 329.011191 294.850228 
L 330.796809 276.375104 
L 331.392 272.990538 
L 331.987191 274.065327 
L 332.582382 280.324064 
L 333.772809 301.620709 
L 334.368 297.090997 
L 334.963191 291.019195 
L 335.558382 288.107942 
L 336.153618 287.402323 
L 336.748809 287.882627 
L 339.724809 292.610043 
L 340.915191 294.025784 
L 342.700809 295.756103 
L 343.891191 296.682603 
L 345.081618 297.401307 
L 346.272 297.81903 
L 346.867191 297.848938 
L 347.462382 297.690735 
L 348.057618 297.255377 
L 348.652809 296.404795 
L 349.248 294.929749 
L 349.843191 292.524459 
L 350.438382 288.772239 
L 351.033618 283.179026 
L 351.628809 275.330744 
L 353.414382 245.380223 
L 354.009618 242.980328 
L 354.604809 250.901207 
L 355.2 269.31827 
L 355.795191 293.485057 
L 356.390382 292.249717 
L 356.985618 277.819169 
L 357.580809 272.510203 
L 358.176 273.413773 
L 359.961618 283.477971 
L 360.556809 285.639288 
L 361.152 287.169129 
L 361.747191 288.275739 
L 362.937618 289.818977 
L 364.723191 291.783774 
L 365.318382 292.650142 
L 365.913618 293.798272 
L 366.508809 295.382126 
L 367.104 297.573922 
L 368.294382 303.812974 
L 369.484809 295.400936 
L 370.08 292.247982 
L 370.675191 290.966908 
L 371.270382 291.882896 
L 371.865618 294.571094 
L 373.056 301.646754 
L 373.651191 303.449127 
L 374.246382 301.218092 
L 374.841618 299.632365 
L 375.436809 298.52495 
L 376.032 297.731703 
L 377.222382 296.611137 
L 379.008 295.029784 
L 379.603191 294.325302 
L 380.198382 293.446636 
L 380.793618 292.334699 
L 381.388809 290.924662 
L 381.984 289.155117 
L 383.174382 284.432264 
L 384.364809 278.90172 
L 384.96 276.863908 
L 385.555191 276.413209 
L 386.150382 278.572346 
L 386.745618 284.055936 
L 387.340809 292.664375 
L 387.936 302.925379 
L 389.126382 288.822066 
L 389.721618 285.628227 
L 390.316809 285.386545 
L 390.912 286.884581 
L 393.292809 295.175253 
L 396.268809 303.785238 
L 396.864 301.977116 
L 397.459191 299.20681 
L 398.054382 295.781654 
L 398.649618 291.502212 
L 399.244809 286.169655 
L 400.435191 271.903258 
L 402.220809 245.747718 
L 402.816 238.910518 
L 403.411191 234.503689 
L 404.006382 232.873412 
L 404.601618 233.887788 
L 405.196809 237.174878 
L 405.792 242.431714 
L 406.387191 249.645456 
L 406.982382 259.17275 
L 407.577618 271.652582 
L 408.768 300.87076 
L 409.958382 260.152179 
L 410.553618 246.624352 
L 411.148809 241.110735 
L 411.744 242.494115 
L 412.339191 247.893793 
L 414.72 275.68904 
L 414.72 275.68904 
" clip-path="url(#p9f2ba6db4d)" style="fill: none; stroke: #0000cc; stroke-width: 1.5; stroke-linecap: square"/>
   </g>
   <g id="line2d_40">
    <path d="M 57.6 304.02635 
L 96.883191 304.025319 
L 184.377595 303.924211 
L 187.353595 303.767891 
L 189.139191 303.996863 
L 190.924809 303.88811 
L 205.209618 304.004181 
L 209.376 304.0257 
L 221.28 303.857818 
L 222.470382 303.633904 
L 223.660809 303.156314 
L 225.446382 302.077519 
L 226.041618 302.045059 
L 226.636809 302.458378 
L 227.827191 303.938598 
L 228.422382 303.331835 
L 229.017618 303.069634 
L 230.208 303.144229 
L 232.588809 303.487802 
L 239.731191 303.992251 
L 242.112 303.528474 
L 243.302382 303.622571 
L 245.088 303.974481 
L 246.873618 303.783022 
L 256.396809 303.482224 
L 258.182382 303.32121 
L 259.372809 303.545886 
L 260.563191 303.972214 
L 261.753618 303.610976 
L 262.944 303.597953 
L 267.705618 303.894774 
L 271.276809 303.946254 
L 273.062382 303.600103 
L 274.252809 303.027577 
L 274.848 302.52738 
L 275.443191 301.803234 
L 276.038382 300.786959 
L 277.228809 297.82905 
L 277.824 296.251318 
L 278.419191 295.319074 
L 279.014382 295.811728 
L 279.609618 298.121255 
L 280.204809 301.672174 
L 280.8 302.918331 
L 281.395191 300.617818 
L 281.990382 299.665744 
L 282.585618 299.629151 
L 285.561618 301.410817 
L 287.347191 301.877426 
L 289.728 302.199437 
L 293.894382 302.617486 
L 294.489618 302.915203 
L 295.084809 303.378242 
L 295.68 303.991131 
L 296.870382 302.87712 
L 297.465618 302.634694 
L 298.060809 302.705508 
L 301.036809 304.001159 
L 307.584 303.445474 
L 308.774382 303.069057 
L 309.369618 302.730125 
L 309.964809 302.223076 
L 310.56 301.459459 
L 311.155191 300.305715 
L 311.750382 298.564478 
L 312.345618 295.955644 
L 312.940809 292.114186 
L 313.536 286.636023 
L 314.131191 279.251775 
L 315.321618 260.822187 
L 315.916809 253.954243 
L 316.512 253.403325 
L 317.107191 261.902199 
L 317.702382 278.676133 
L 318.297618 298.930252 
L 318.892809 291.69847 
L 319.488 281.144046 
L 320.083191 277.509668 
L 320.678382 278.2965 
L 322.464 285.948048 
L 323.059191 287.741239 
L 323.654382 289.107174 
L 324.844809 291.047074 
L 326.035191 292.470716 
L 327.820809 294.465971 
L 328.416 295.300206 
L 329.011191 296.3628 
L 329.606382 297.787253 
L 330.201618 299.733105 
L 330.796809 302.346916 
L 331.392 302.387737 
L 332.582382 294.932452 
L 333.177618 292.389422 
L 333.772809 291.860937 
L 334.368 293.598041 
L 336.153618 303.958038 
L 336.748809 301.541324 
L 337.344 300.01194 
L 337.939191 299.140262 
L 338.534382 298.682647 
L 339.724809 298.342513 
L 342.105618 297.955483 
L 342.700809 297.710678 
L 343.296 297.334145 
L 343.891191 296.769652 
L 344.486382 295.942335 
L 345.081618 294.746738 
L 345.676809 293.042585 
L 346.272 290.64693 
L 346.867191 287.338598 
L 347.462382 282.885045 
L 348.057618 277.113465 
L 349.248 262.166208 
L 349.843191 254.541489 
L 350.438382 248.98241 
L 351.033618 247.673701 
L 351.628809 252.478364 
L 352.224 264.095769 
L 353.414382 301.440615 
L 354.604809 275.519202 
L 355.2 269.550156 
L 355.795191 269.022031 
L 356.390382 271.438258 
L 357.580809 277.946556 
L 358.771191 282.787101 
L 359.961618 286.101139 
L 363.532809 294.544665 
L 364.128 296.701148 
L 364.723191 299.493839 
L 365.318382 303.17163 
L 365.913618 300.091931 
L 367.104 287.386281 
L 367.699191 280.912884 
L 368.294382 276.529307 
L 368.889618 276.151249 
L 369.484809 280.650505 
L 370.675191 298.764615 
L 371.270382 300.69196 
L 371.865618 294.659677 
L 372.460809 291.290978 
L 373.056 289.922123 
L 373.651191 289.750868 
L 374.246382 290.166155 
L 377.817618 293.870522 
L 379.008 294.704324 
L 380.198382 295.196736 
L 380.793618 295.241 
L 381.388809 295.090694 
L 381.984 294.66898 
L 382.579191 293.862136 
L 383.174382 292.507171 
L 383.769618 290.373611 
L 384.364809 287.155202 
L 384.96 282.481716 
L 385.555191 275.989555 
L 386.150382 267.502661 
L 387.936 238.282642 
L 388.531191 234.765634 
L 389.126382 238.888574 
L 389.721618 251.676847 
L 390.316809 271.969442 
L 390.912 296.294844 
L 391.507191 288.706205 
L 392.102382 272.145174 
L 392.697618 264.323175 
L 393.292809 263.661164 
L 393.888 266.782446 
L 395.078382 274.588638 
L 395.673618 277.46043 
L 396.268809 279.571 
L 396.864 281.098556 
L 397.459191 282.19967 
L 398.054382 282.97531 
L 398.649618 283.472724 
L 399.244809 283.699249 
L 399.84 283.629581 
L 400.435191 283.211837 
L 401.030382 282.367304 
L 401.625618 280.991221 
L 402.220809 278.956933 
L 402.816 276.128244 
L 403.411191 272.397598 
L 404.601618 262.23735 
L 405.792 251.114381 
L 406.387191 247.642673 
L 406.982382 247.599746 
L 407.577618 252.537157 
L 408.172809 263.451411 
L 408.768 280.113222 
L 409.363191 300.371512 
L 410.553618 273.37776 
L 411.148809 266.317024 
L 411.744 265.832491 
L 412.339191 269.095253 
L 413.529618 277.754135 
L 414.72 284.222382 
L 414.72 284.222382 
" clip-path="url(#p9f2ba6db4d)" style="fill: none; stroke-dasharray: 9.6,2.4,1.5,2.4; stroke-dashoffset: 0; stroke: #ff0000; stroke-width: 1.5"/>
   </g>
   <g id="patch_13">
    <path d="M 57.6 307.584 
L 57.6 229.315765 
" style="fill: none; stroke: #000000; stroke-width: 0.8; stroke-linejoin: miter; stroke-linecap: square"/>
   </g>
   <g id="patch_14">
    <path d="M 414.72 307.584 
L 414.72 229.315765 
" style="fill: none; stroke: #000000; stroke-width: 0.8; stroke-linejoin: miter; stroke-linecap: square"/>
   </g>
   <g id="patch_15">
    <path d="M 57.6 307.584 
L 414.72 307.584 
" style="fill: none; stroke: #000000; stroke-width: 0.8; stroke-linejoin: miter; stroke-linecap: square"/>
   </g>
   <g id="patch_16">
    <path d="M 57.6 229.315765 
L 414.72 229.315765 
" style="fill: none; stroke: #000000; stroke-width: 0.8; stroke-linejoin: miter; stroke-linecap: square"/>
   </g>
  </g>
 </g>
 <defs>
  <clipPath id="p83bd86eee7">
   <rect x="57.6" y="41.472" width="357.12" height="78.268235"/>
  </clipPath>
  <clipPath id="p79a3ee522e">
   <rect x="57.6" y="135.393882" width="357.12" height="78.268235"/>
  </clipPath>
  <clipPath id="p9f2ba6db4d">
   <rect x="57.6" y="229.315765" width="357.12" height="78.268235"/>
  </clipPath>
 </defs>
</svg>
