<?xml version="1.0" encoding="utf-8" standalone="no"?>
<!DOCTYPE svg PUBLIC "-//W3C//DTD SVG 1.1//EN"
  "http://www.w3.org/Graphics/SVG/1.1/DTD/svg11.dtd">
<svg xmlns:xlink="http://www.w3.org/1999/xlink" width="460.8pt" height="345.6pt" viewBox="0 0 460.8 345.6" xmlns="http://www.w3.org/2000/svg" version="1.1">
 <metadata>
  <rdf:RDF xmlns:dc="http://purl.org/dc/elements/1.1/" xmlns:cc="http://creativecommons.org/ns#" xmlns:rdf="http://www.w3.org/1999/02/22-rdf-syntax-ns#">
   <cc:Work>
    <dc:type rdf:resource="http://purl.org/dc/dcmitype/StillImage"/>
    <dc:date>2023-11-22T17:07:31.078541</dc:date>
    <dc:format>image/svg+xml</dc:format>
    <dc:creator>
     <cc:Agent>
      <dc:title>Matplotlib v3.5.2, https://matplotlib.org/</dc:title>
     </cc:Agent>
    </dc:creator>
   </cc:Work>
  </rdf:RDF>
 </metadata>
 <defs>
  <style type="text/css">*{stroke-linejoin: round; stroke-linecap: butt}</style>
 </defs>
 <g id="figure_1">
  <g id="patch_1">
   <path d="M 0 345.6 
L 460.8 345.6 
L 460.8 0 
L 0 0 
z
" style="fill: #ffffff"/>
  </g>
  <g id="axes_1">
   <g id="patch_2">
    <path d="M 57.6 119.740235 
L 414.72 119.740235 
L 414.72 41.472 
L 57.6 41.472 
z
" style="fill: #ffffff"/>
   </g>
   <g id="matplotlib.axis_1">
    <g id="xtick_1">
     <g id="line2d_1">
      <defs>
       <path id="m524173c482" d="M 0 0 
L 0 3.5 
" style="stroke: #000000; stroke-width: 0.8"/>
      </defs>
      <g>
       <use xlink:href="#m524173c482" x="57.6" y="119.740235" style="stroke: #000000; stroke-width: 0.8"/>
      </g>
     </g>
    </g>
    <g id="xtick_2">
     <g id="line2d_2">
      <g>
       <use xlink:href="#m524173c482" x="117.12" y="119.740235" style="stroke: #000000; stroke-width: 0.8"/>
      </g>
     </g>
    </g>
    <g id="xtick_3">
     <g id="line2d_3">
      <g>
       <use xlink:href="#m524173c482" x="176.64" y="119.740235" style="stroke: #000000; stroke-width: 0.8"/>
      </g>
     </g>
    </g>
    <g id="xtick_4">
     <g id="line2d_4">
      <g>
       <use xlink:href="#m524173c482" x="236.16" y="119.740235" style="stroke: #000000; stroke-width: 0.8"/>
      </g>
     </g>
    </g>
    <g id="xtick_5">
     <g id="line2d_5">
      <g>
       <use xlink:href="#m524173c482" x="295.68" y="119.740235" style="stroke: #000000; stroke-width: 0.8"/>
      </g>
     </g>
    </g>
    <g id="xtick_6">
     <g id="line2d_6">
      <g>
       <use xlink:href="#m524173c482" x="355.2" y="119.740235" style="stroke: #000000; stroke-width: 0.8"/>
      </g>
     </g>
    </g>
    <g id="xtick_7">
     <g id="line2d_7">
      <g>
       <use xlink:href="#m524173c482" x="414.72" y="119.740235" style="stroke: #000000; stroke-width: 0.8"/>
      </g>
     </g>
    </g>
   </g>
   <g id="matplotlib.axis_2">
    <g id="ytick_1">
     <g id="line2d_8">
      <defs>
       <path id="mf2d0eeeeb0" d="M 0 0 
L -3.5 0 
" style="stroke: #000000; stroke-width: 0.8"/>
      </defs>
      <g>
       <use xlink:href="#mf2d0eeeeb0" x="57.6" y="116.182588" style="stroke: #000000; stroke-width: 0.8"/>
      </g>
     </g>
     <g id="text_1">
      <!-- 0.0 -->
      <g transform="translate(34.696875 119.981807)scale(0.1 -0.1)">
       <defs>
        <path id="DejaVuSans-30" d="M 2034 4250 
Q 1547 4250 1301 3770 
Q 1056 3291 1056 2328 
Q 1056 1369 1301 889 
Q 1547 409 2034 409 
Q 2525 409 2770 889 
Q 3016 1369 3016 2328 
Q 3016 3291 2770 3770 
Q 2525 4250 2034 4250 
z
M 2034 4750 
Q 2819 4750 3233 4129 
Q 3647 3509 3647 2328 
Q 3647 1150 3233 529 
Q 2819 -91 2034 -91 
Q 1250 -91 836 529 
Q 422 1150 422 2328 
Q 422 3509 836 4129 
Q 1250 4750 2034 4750 
z
" transform="scale(0.015625)"/>
        <path id="DejaVuSans-2e" d="M 684 794 
L 1344 794 
L 1344 0 
L 684 0 
L 684 794 
z
" transform="scale(0.015625)"/>
       </defs>
       <use xlink:href="#DejaVuSans-30"/>
       <use xlink:href="#DejaVuSans-2e" x="63.623047"/>
       <use xlink:href="#DejaVuSans-30" x="95.410156"/>
      </g>
     </g>
    </g>
    <g id="ytick_2">
     <g id="line2d_9">
      <g>
       <use xlink:href="#mf2d0eeeeb0" x="57.6" y="81.34009" style="stroke: #000000; stroke-width: 0.8"/>
      </g>
     </g>
     <g id="text_2">
      <!-- 0.2 -->
      <g transform="translate(34.696875 85.139309)scale(0.1 -0.1)">
       <defs>
        <path id="DejaVuSans-32" d="M 1228 531 
L 3431 531 
L 3431 0 
L 469 0 
L 469 531 
Q 828 903 1448 1529 
Q 2069 2156 2228 2338 
Q 2531 2678 2651 2914 
Q 2772 3150 2772 3378 
Q 2772 3750 2511 3984 
Q 2250 4219 1831 4219 
Q 1534 4219 1204 4116 
Q 875 4013 500 3803 
L 500 4441 
Q 881 4594 1212 4672 
Q 1544 4750 1819 4750 
Q 2544 4750 2975 4387 
Q 3406 4025 3406 3419 
Q 3406 3131 3298 2873 
Q 3191 2616 2906 2266 
Q 2828 2175 2409 1742 
Q 1991 1309 1228 531 
z
" transform="scale(0.015625)"/>
       </defs>
       <use xlink:href="#DejaVuSans-30"/>
       <use xlink:href="#DejaVuSans-2e" x="63.623047"/>
       <use xlink:href="#DejaVuSans-32" x="95.410156"/>
      </g>
     </g>
    </g>
    <g id="ytick_3">
     <g id="line2d_10">
      <g>
       <use xlink:href="#mf2d0eeeeb0" x="57.6" y="46.497592" style="stroke: #000000; stroke-width: 0.8"/>
      </g>
     </g>
     <g id="text_3">
      <!-- 0.4 -->
      <g transform="translate(34.696875 50.296811)scale(0.1 -0.1)">
       <defs>
        <path id="DejaVuSans-34" d="M 2419 4116 
L 825 1625 
L 2419 1625 
L 2419 4116 
z
M 2253 4666 
L 3047 4666 
L 3047 1625 
L 3713 1625 
L 3713 1100 
L 3047 1100 
L 3047 0 
L 2419 0 
L 2419 1100 
L 313 1100 
L 313 1709 
L 2253 4666 
z
" transform="scale(0.015625)"/>
       </defs>
       <use xlink:href="#DejaVuSans-30"/>
       <use xlink:href="#DejaVuSans-2e" x="63.623047"/>
       <use xlink:href="#DejaVuSans-34" x="95.410156"/>
      </g>
     </g>
    </g>
   </g>
   <g id="line2d_11">
    <path d="M 57.6 116.182588 
L 70.992023 116.107988 
L 72.48 116.159994 
L 76.943989 116.038566 
L 100.752023 115.898335 
L 106.703989 115.557795 
L 109.68 115.240546 
L 112.656011 114.729302 
L 115.632023 113.898087 
L 117.12 113.304415 
L 118.607977 112.549413 
L 120.096011 111.59238 
L 121.583989 110.385831 
L 123.072023 108.878445 
L 124.56 107.023915 
L 126.047977 104.802279 
L 129.023989 99.630077 
L 130.512023 97.428137 
L 132 96.710885 
L 133.487977 99.086692 
L 134.976011 106.04475 
L 136.463989 115.168976 
L 137.952023 103.10289 
L 139.44 93.91373 
L 140.927977 89.518469 
L 142.416011 90.049019 
L 143.903989 93.593264 
L 146.88 102.226515 
L 148.367977 106.034718 
L 149.856011 108.913958 
L 151.343989 110.923789 
L 152.832023 112.248605 
L 154.32 113.001045 
L 155.807977 113.323819 
L 157.296011 113.326461 
L 158.783989 113.085462 
L 160.272023 112.658978 
L 166.223989 110.501562 
L 167.712023 110.365564 
L 169.2 110.685428 
L 170.687977 111.599909 
L 172.176011 113.145407 
L 173.663989 115.210128 
L 175.152023 114.845919 
L 176.64 112.645249 
L 178.127977 110.882021 
L 179.616011 109.751454 
L 181.103989 109.291708 
L 182.592023 109.404915 
L 184.08 109.937875 
L 187.056011 111.635233 
L 191.52 114.309789 
L 194.496011 115.843088 
L 195.983989 115.799472 
L 204.912023 111.489882 
L 206.4 111.080535 
L 207.887977 111.040577 
L 209.376011 111.528868 
L 210.863989 112.643648 
L 213.84 115.935592 
L 215.327977 113.806152 
L 216.816011 111.975211 
L 218.303989 110.688307 
L 219.792023 110.029623 
L 221.28 109.935533 
L 222.767977 110.265801 
L 224.256011 110.865251 
L 230.207977 113.767771 
L 233.183989 114.939559 
L 236.16 115.978053 
L 237.647977 115.867131 
L 242.112023 114.123151 
L 245.087977 112.891148 
L 246.576011 112.423173 
L 248.063989 112.223922 
L 249.552023 112.44853 
L 251.04 113.204084 
L 252.527977 114.472451 
L 254.016011 116.081741 
L 256.992023 113.149973 
L 258.48 112.108034 
L 259.967977 111.539621 
L 261.456011 111.384269 
L 262.943989 111.533589 
L 265.92 112.300404 
L 268.896011 113.140549 
L 271.872023 113.778244 
L 276.336011 114.378779 
L 280.8 114.882272 
L 283.776011 115.442053 
L 285.263989 115.868905 
L 286.752023 115.951312 
L 291.216011 114.117227 
L 292.703989 113.831114 
L 294.192023 113.893688 
L 295.68 114.324657 
L 297.167977 115.05218 
L 298.656011 115.918596 
L 300.143989 115.603521 
L 301.632023 114.874375 
L 303.12 114.29687 
L 304.607977 113.87959 
L 307.583989 113.382043 
L 313.536011 112.600829 
L 316.512023 111.947346 
L 319.487977 110.974693 
L 322.463989 109.647492 
L 325.44 108.157314 
L 326.927977 107.568623 
L 328.416011 107.330499 
L 329.903989 107.723755 
L 331.392023 109.058731 
L 332.88 111.554333 
L 334.367977 115.162897 
L 335.856011 112.934373 
L 337.343989 108.84919 
L 338.832023 105.899686 
L 340.32 104.663156 
L 341.807977 105.074618 
L 343.296011 106.669226 
L 349.247977 115.475911 
L 350.736011 115.245942 
L 352.223989 113.857672 
L 355.2 111.564918 
L 358.176011 109.404414 
L 359.663989 108.182394 
L 361.152023 106.762942 
L 362.64 105.064082 
L 364.127977 102.996499 
L 365.616011 100.461839 
L 367.103989 97.353722 
L 368.592023 93.565139 
L 370.08 89.008257 
L 371.567977 83.657442 
L 376.032023 65.714054 
L 377.52 62.422945 
L 379.007977 64.003489 
L 380.496011 73.359283 
L 381.983989 92.294842 
L 383.472023 112.975137 
L 384.96 83.411439 
L 386.447977 59.318322 
L 387.936011 46.359266 
L 389.423989 45.029647 
L 390.912023 52.14273 
L 392.4 63.725231 
L 393.887977 76.416686 
L 395.376011 88.081473 
L 396.863989 97.872323 
L 398.352023 105.640506 
L 399.84 111.547143 
L 401.327977 115.917601 
L 402.816011 113.258369 
L 404.303989 110.932975 
L 405.792023 109.202156 
L 407.28 107.854604 
L 410.256011 105.734786 
L 413.232023 103.873147 
L 413.232023 103.873147 
" clip-path="url(#p4119f2bfa2)" style="fill: none; stroke: #0000cc; stroke-width: 1.5; stroke-linecap: square"/>
   </g>
   <g id="line2d_12">
    <path d="M 57.6 116.18141 
L 108.192 115.981304 
L 112.656 115.81173 
L 117.12 115.454156 
L 120.096 115.029782 
L 123.072 114.336118 
L 126.048 113.275905 
L 130.512 111.301126 
L 132 111.083666 
L 133.488 111.692583 
L 134.976 113.401305 
L 136.464 116.142689 
L 137.952 112.951288 
L 139.44 110.45645 
L 140.928 109.299787 
L 142.416 109.361028 
L 143.904 110.254663 
L 148.368 113.558519 
L 149.856 114.309017 
L 151.344 114.854836 
L 152.832 115.208997 
L 155.808 115.508022 
L 158.784 115.42422 
L 163.248 114.94866 
L 166.224 114.617126 
L 169.2 114.598802 
L 170.688 114.820115 
L 172.176 115.213653 
L 173.664 115.760572 
L 175.152 115.974217 
L 178.128 114.838993 
L 179.616 114.480822 
L 181.104 114.314499 
L 182.592 114.305178 
L 185.568 114.609201 
L 195.984 116.140681 
L 198.96 115.83443 
L 206.4 114.8869 
L 207.888 114.842692 
L 209.376 114.918647 
L 210.864 115.156531 
L 212.352 115.550749 
L 213.84 116.066179 
L 215.328 115.752202 
L 216.816 115.257742 
L 218.304 114.887461 
L 219.792 114.6728 
L 221.28 114.595042 
L 224.256 114.746273 
L 239.136 116.150164 
L 242.112 115.923303 
L 248.064 115.333324 
L 251.04 115.371637 
L 254.016 115.876053 
L 255.504 116.13101 
L 258.48 115.490726 
L 261.456 115.166774 
L 264.432 115.134539 
L 277.824 115.365759 
L 283.776 115.399414 
L 286.752 115.625539 
L 289.728 116.153743 
L 294.192 115.226492 
L 295.68 115.092759 
L 297.168 115.131581 
L 300.144 115.589255 
L 303.12 116.173561 
L 306.096 115.689334 
L 312.048 115.067739 
L 316.512 114.604226 
L 320.976 113.87498 
L 328.416 112.464723 
L 329.904 112.549307 
L 331.392 113.026517 
L 332.88 113.991034 
L 334.368 115.464428 
L 335.856 115.101847 
L 337.344 113.339434 
L 338.832 112.00989 
L 340.32 111.380068 
L 341.808 111.434289 
L 343.296 112.017882 
L 346.272 113.831396 
L 349.248 115.538754 
L 350.736 116.152633 
L 353.712 115.101815 
L 361.152 112.866757 
L 362.64 112.237107 
L 364.128 111.486589 
L 365.616 110.578043 
L 367.104 109.451667 
L 368.592 108.09182 
L 370.08 106.470768 
L 371.568 104.555713 
L 376.032 98.229147 
L 377.52 97.11051 
L 379.008 97.751171 
L 380.496 101.207133 
L 383.472 114.569674 
L 384.96 104.154767 
L 386.448 95.722142 
L 387.936 91.267011 
L 389.424 90.907316 
L 390.912 93.523574 
L 392.4 97.636305 
L 395.376 106.200565 
L 396.864 109.639668 
L 398.352 112.358163 
L 399.84 114.414355 
L 401.328 115.929066 
L 402.816 115.346622 
L 404.304 114.547675 
L 407.28 113.520593 
L 411.744 112.551986 
L 413.232 112.272856 
L 413.232 112.272856 
" clip-path="url(#p4119f2bfa2)" style="fill: none; stroke: #008800; stroke-width: 1.5; stroke-linecap: square"/>
   </g>
   <g id="line2d_13">
    <path d="M 57.6 116.182588 
L 108.191966 116.045292 
L 115.632023 115.782477 
L 120.096011 115.378102 
L 123.072023 114.89091 
L 126.047977 114.141639 
L 130.511966 112.757477 
L 132 112.615797 
L 133.487977 113.028002 
L 134.976011 114.241652 
L 136.463989 116.149266 
L 137.951966 113.920223 
L 139.44 112.16984 
L 140.927977 111.34882 
L 142.416011 111.410719 
L 143.903989 112.022927 
L 146.88 113.657013 
L 148.367977 114.347251 
L 149.856011 114.882662 
L 151.343989 115.267604 
L 154.32 115.67096 
L 157.296011 115.735624 
L 161.76 115.48109 
L 167.711966 115.063664 
L 170.687977 115.232509 
L 175.152023 116.069335 
L 178.127977 115.283012 
L 179.616011 115.03442 
L 182.592023 114.894143 
L 185.567977 115.085657 
L 195.983989 116.112765 
L 197.471966 116.121342 
L 207.887977 115.282157 
L 210.863989 115.470054 
L 213.84 116.062688 
L 215.327977 115.935885 
L 218.303989 115.341434 
L 221.28 115.120412 
L 224.256011 115.201881 
L 240.623989 116.181578 
L 249.551966 115.604099 
L 252.527977 115.729898 
L 255.503989 116.133687 
L 262.943989 115.504792 
L 268.896011 115.538438 
L 277.823989 115.532218 
L 283.776011 115.504267 
L 286.751966 115.656217 
L 289.727977 116.061366 
L 291.216011 116.011829 
L 294.192023 115.452082 
L 295.68 115.302776 
L 297.167977 115.287686 
L 300.143989 115.58825 
L 303.12 116.052473 
L 304.607977 116.099859 
L 309.071966 115.627147 
L 318 114.862678 
L 322.463989 114.227821 
L 326.927977 113.491721 
L 328.416011 113.365524 
L 329.903989 113.422306 
L 331.392023 113.767405 
L 332.88 114.488996 
L 334.367977 115.594991 
L 335.856011 115.413337 
L 337.343989 114.076583 
L 338.831966 113.063091 
L 340.32 112.564117 
L 341.807977 112.589369 
L 343.296011 113.009478 
L 350.736011 116.139904 
L 362.64 113.350587 
L 364.127977 112.807039 
L 365.616011 112.144703 
L 367.103989 111.336347 
L 368.591966 110.354902 
L 370.08 109.178614 
L 371.567977 107.80217 
L 376.031966 103.231976 
L 377.52 102.427079 
L 379.007977 102.898072 
L 380.496011 105.39586 
L 383.472023 114.98738 
L 384.96 107.472914 
L 386.447977 101.462405 
L 387.936011 98.296111 
L 389.423989 98.064829 
L 390.912023 99.949823 
L 395.376011 109.03593 
L 396.863989 111.499112 
L 398.351966 113.442237 
L 399.84 114.911941 
L 401.327977 115.992178 
L 402.816011 115.59171 
L 404.303989 115.027424 
L 407.28 114.295185 
L 411.743989 113.605198 
L 413.232023 113.410878 
L 413.232023 113.410878 
" clip-path="url(#p4119f2bfa2)" style="fill: none; stroke: #ff8800; stroke-width: 1.5; stroke-linecap: square"/>
   </g>
   <g id="line2d_14">
    <path d="M 57.6 116.182588 
L 66.527977 116.088881 
L 118.607977 116.060064 
L 126.047977 115.917686 
L 130.512023 115.787248 
L 133.487977 115.890752 
L 134.976011 116.052424 
L 136.463989 116.062676 
L 139.44 115.653464 
L 142.416011 115.663695 
L 146.88 116.01567 
L 149.856011 116.013861 
L 158.783989 116.123701 
L 216.816011 116.115747 
L 219.792023 116.15629 
L 230.207977 116.012627 
L 243.6 116.021786 
L 252.527977 116.052605 
L 256.992023 116.000513 
L 265.92 116.111959 
L 268.896011 115.977824 
L 279.312023 115.768516 
L 285.263989 115.631127 
L 288.24 115.720853 
L 292.703989 116.080182 
L 295.68 115.640906 
L 297.167977 115.512735 
L 300.143989 115.589488 
L 306.096011 116.144234 
L 309.072023 116.008029 
L 322.463989 115.137374 
L 325.44 114.83546 
L 326.927977 114.862146 
L 329.903989 114.729294 
L 331.392023 114.871045 
L 332.88 115.208799 
L 334.367977 115.761361 
L 335.856011 115.89922 
L 337.343989 115.182057 
L 338.832023 114.617402 
L 340.32 114.307899 
L 341.807977 114.267274 
L 344.783989 114.749783 
L 349.247977 115.736587 
L 352.223989 116.16006 
L 359.663989 115.373208 
L 364.127977 114.776541 
L 367.103989 114.147906 
L 370.08 113.223531 
L 373.056011 111.963985 
L 376.032023 110.646601 
L 377.52 110.283787 
L 379.007977 110.463875 
L 380.496011 111.522452 
L 383.472023 115.732558 
L 384.96 112.536263 
L 386.447977 109.991633 
L 387.936011 108.604978 
L 389.423989 108.445525 
L 390.912023 109.20144 
L 396.863989 113.97096 
L 398.352023 114.783751 
L 399.84 115.383588 
L 401.327977 115.822948 
L 402.816011 116.134979 
L 408.767977 115.747789 
L 413.232023 115.740951 
L 413.232023 115.740951 
" clip-path="url(#p4119f2bfa2)" style="fill: none; stroke: #ff0000; stroke-width: 1.5; stroke-linecap: square"/>
   </g>
   <g id="patch_3">
    <path d="M 57.6 119.740235 
L 57.6 41.472 
" style="fill: none; stroke: #000000; stroke-width: 0.8; stroke-linejoin: miter; stroke-linecap: square"/>
   </g>
   <g id="patch_4">
    <path d="M 414.72 119.740235 
L 414.72 41.472 
" style="fill: none; stroke: #000000; stroke-width: 0.8; stroke-linejoin: miter; stroke-linecap: square"/>
   </g>
   <g id="patch_5">
    <path d="M 57.6 119.740235 
L 414.72 119.740235 
" style="fill: none; stroke: #000000; stroke-width: 0.8; stroke-linejoin: miter; stroke-linecap: square"/>
   </g>
   <g id="patch_6">
    <path d="M 57.6 41.472 
L 414.72 41.472 
" style="fill: none; stroke: #000000; stroke-width: 0.8; stroke-linejoin: miter; stroke-linecap: square"/>
   </g>
  </g>
  <g id="axes_2">
   <g id="patch_7">
    <path d="M 57.6 213.662118 
L 414.72 213.662118 
L 414.72 135.393882 
L 57.6 135.393882 
z
" style="fill: #ffffff"/>
   </g>
   <g id="matplotlib.axis_3">
    <g id="xtick_8">
     <g id="line2d_15">
      <g>
       <use xlink:href="#m524173c482" x="57.6" y="213.662118" style="stroke: #000000; stroke-width: 0.8"/>
      </g>
     </g>
    </g>
    <g id="xtick_9">
     <g id="line2d_16">
      <g>
       <use xlink:href="#m524173c482" x="117.12" y="213.662118" style="stroke: #000000; stroke-width: 0.8"/>
      </g>
     </g>
    </g>
    <g id="xtick_10">
     <g id="line2d_17">
      <g>
       <use xlink:href="#m524173c482" x="176.64" y="213.662118" style="stroke: #000000; stroke-width: 0.8"/>
      </g>
     </g>
    </g>
    <g id="xtick_11">
     <g id="line2d_18">
      <g>
       <use xlink:href="#m524173c482" x="236.16" y="213.662118" style="stroke: #000000; stroke-width: 0.8"/>
      </g>
     </g>
    </g>
    <g id="xtick_12">
     <g id="line2d_19">
      <g>
       <use xlink:href="#m524173c482" x="295.68" y="213.662118" style="stroke: #000000; stroke-width: 0.8"/>
      </g>
     </g>
    </g>
    <g id="xtick_13">
     <g id="line2d_20">
      <g>
       <use xlink:href="#m524173c482" x="355.2" y="213.662118" style="stroke: #000000; stroke-width: 0.8"/>
      </g>
     </g>
    </g>
    <g id="xtick_14">
     <g id="line2d_21">
      <g>
       <use xlink:href="#m524173c482" x="414.72" y="213.662118" style="stroke: #000000; stroke-width: 0.8"/>
      </g>
     </g>
    </g>
   </g>
   <g id="matplotlib.axis_4">
    <g id="ytick_4">
     <g id="line2d_22">
      <g>
       <use xlink:href="#mf2d0eeeeb0" x="57.6" y="210.104471" style="stroke: #000000; stroke-width: 0.8"/>
      </g>
     </g>
     <g id="text_4">
      <!-- 0.0 -->
      <g transform="translate(34.696875 213.903689)scale(0.1 -0.1)">
       <use xlink:href="#DejaVuSans-30"/>
       <use xlink:href="#DejaVuSans-2e" x="63.623047"/>
       <use xlink:href="#DejaVuSans-30" x="95.410156"/>
      </g>
     </g>
    </g>
    <g id="ytick_5">
     <g id="line2d_23">
      <g>
       <use xlink:href="#mf2d0eeeeb0" x="57.6" y="167.446515" style="stroke: #000000; stroke-width: 0.8"/>
      </g>
     </g>
     <g id="text_5">
      <!-- 0.5 -->
      <g transform="translate(34.696875 171.245734)scale(0.1 -0.1)">
       <defs>
        <path id="DejaVuSans-35" d="M 691 4666 
L 3169 4666 
L 3169 4134 
L 1269 4134 
L 1269 2991 
Q 1406 3038 1543 3061 
Q 1681 3084 1819 3084 
Q 2600 3084 3056 2656 
Q 3513 2228 3513 1497 
Q 3513 744 3044 326 
Q 2575 -91 1722 -91 
Q 1428 -91 1123 -41 
Q 819 9 494 109 
L 494 744 
Q 775 591 1075 516 
Q 1375 441 1709 441 
Q 2250 441 2565 725 
Q 2881 1009 2881 1497 
Q 2881 1984 2565 2268 
Q 2250 2553 1709 2553 
Q 1456 2553 1204 2497 
Q 953 2441 691 2322 
L 691 4666 
z
" transform="scale(0.015625)"/>
       </defs>
       <use xlink:href="#DejaVuSans-30"/>
       <use xlink:href="#DejaVuSans-2e" x="63.623047"/>
       <use xlink:href="#DejaVuSans-35" x="95.410156"/>
      </g>
     </g>
    </g>
   </g>
   <g id="line2d_24">
    <path d="M 57.6 210.104471 
L 66.527977 209.980101 
L 69.503989 210.059755 
L 72.48 209.934633 
L 82.896011 210.07478 
L 90.336011 210.044424 
L 99.263989 209.882013 
L 105.216011 209.651551 
L 109.68 209.252103 
L 112.656011 208.76081 
L 115.632023 207.959154 
L 117.12 207.388279 
L 118.607977 206.66586 
L 120.096011 205.757788 
L 121.583989 204.629024 
L 123.072023 203.252517 
L 124.56 201.629978 
L 127.536011 198.10829 
L 129.023989 197.001024 
L 130.512023 197.605762 
L 132 201.630341 
L 133.487977 209.575222 
L 134.976011 196.694576 
L 136.463989 185.632141 
L 137.952023 181.824836 
L 139.44 185.322848 
L 142.416011 202.052257 
L 143.903989 207.042266 
L 145.392023 209.934364 
L 146.88 208.81078 
L 148.367977 208.618938 
L 149.856011 208.965815 
L 152.832023 210.054905 
L 157.296011 208.452979 
L 161.76 206.967331 
L 163.247977 206.626082 
L 164.736011 206.508736 
L 166.223989 206.711901 
L 167.712023 207.385751 
L 170.687977 209.926522 
L 173.663989 206.184004 
L 175.152023 204.912237 
L 176.64 204.394761 
L 178.127977 204.636545 
L 179.616011 205.408539 
L 184.08 208.384655 
L 185.567977 209.12115 
L 187.056011 209.692867 
L 188.543989 210.083384 
L 193.007977 209.147654 
L 197.472023 208.155016 
L 201.936011 207.002153 
L 203.423989 206.759629 
L 204.912023 206.747981 
L 206.4 207.112356 
L 207.887977 207.978602 
L 209.376011 209.381963 
L 210.863989 209.037138 
L 212.352023 207.201309 
L 213.84 205.738331 
L 215.327977 204.95654 
L 216.816011 204.935448 
L 218.303989 205.510042 
L 222.767977 208.164059 
L 224.256011 208.836353 
L 225.743989 209.338827 
L 228.72 209.964657 
L 230.207977 210.036581 
L 236.16 209.203926 
L 239.136011 208.585481 
L 243.6 207.554359 
L 245.087977 207.407256 
L 246.576011 207.556421 
L 248.063989 208.140834 
L 249.552023 209.215065 
L 251.04 209.552691 
L 252.527977 208.048674 
L 254.016011 206.838705 
L 255.503989 206.179762 
L 256.992023 206.132528 
L 258.48 206.541251 
L 262.943989 208.3433 
L 264.432023 208.767835 
L 267.407977 209.241899 
L 270.383989 209.405786 
L 279.312023 209.708593 
L 282.287977 210.083369 
L 285.263989 209.300057 
L 288.24 208.370595 
L 289.727977 208.135964 
L 291.216011 208.236607 
L 292.703989 208.704891 
L 294.192023 209.4695 
L 295.68 209.838091 
L 297.167977 209.043752 
L 298.656011 208.527958 
L 300.143989 208.266938 
L 301.632023 208.182661 
L 309.072023 208.3124 
L 312.047977 208.051282 
L 315.023989 207.575562 
L 318 206.866126 
L 323.952023 205.047505 
L 325.44 204.829774 
L 326.927977 205.004164 
L 328.416011 205.829804 
L 329.903989 207.567522 
L 331.392023 209.875753 
L 334.367977 202.658163 
L 335.856011 199.992718 
L 337.343989 199.337333 
L 338.832023 200.890612 
L 343.296011 209.377427 
L 344.783989 209.00077 
L 346.272023 207.905679 
L 347.76 207.296001 
L 350.736011 206.69533 
L 353.712023 206.166589 
L 355.2 205.77434 
L 356.687977 205.24508 
L 358.176011 204.543801 
L 359.663989 203.633706 
L 361.152023 202.471562 
L 362.64 201.005914 
L 364.127977 199.176521 
L 365.616011 196.917133 
L 367.103989 194.164349 
L 368.592023 190.878517 
L 370.08 187.086478 
L 373.056011 178.970162 
L 374.543989 176.071558 
L 376.032023 175.969188 
L 377.52 181.165411 
L 379.007977 194.362784 
L 380.496011 203.580238 
L 381.983989 175.542854 
L 383.472023 150.51609 
L 384.96 138.951529 
L 386.447977 144.964306 
L 387.936011 162.517716 
L 389.423989 182.197411 
L 390.912023 198.366889 
L 392.4 209.083008 
L 393.887977 205.313459 
L 395.376011 202.694985 
L 396.863989 201.867806 
L 398.352023 201.967962 
L 402.816011 203.388609 
L 404.303989 203.657276 
L 405.792023 203.745206 
L 407.28 203.663651 
L 410.256011 203.100815 
L 413.232023 202.315522 
L 413.232023 202.315522 
" clip-path="url(#pb993bf180f)" style="fill: none; stroke: #0000cc; stroke-width: 1.5; stroke-linecap: square"/>
   </g>
   <g id="line2d_25">
    <path d="M 57.6 210.103266 
L 108.192 209.929561 
L 114.144 209.677675 
L 118.608 209.238821 
L 121.584 208.71427 
L 124.56 207.914022 
L 127.536 206.955258 
L 129.024 206.650956 
L 130.512 206.814872 
L 132 207.833126 
L 133.488 210.087677 
L 136.464 203.880429 
L 137.952 202.654827 
L 139.44 203.610916 
L 142.416 207.87788 
L 143.904 209.31401 
L 145.392 210.082678 
L 146.88 209.766985 
L 148.368 209.699192 
L 151.344 209.887105 
L 152.832 210.042551 
L 154.32 210.007679 
L 163.248 209.126815 
L 166.224 209.109813 
L 167.712 209.272517 
L 169.2 209.581308 
L 170.688 210.029707 
L 172.176 209.646382 
L 173.664 209.131673 
L 175.152 208.742501 
L 176.64 208.559858 
L 178.128 208.584669 
L 181.104 209.025003 
L 185.568 209.74986 
L 188.544 210.031432 
L 190.032 210.083266 
L 204.912 209.202023 
L 206.4 209.267694 
L 207.888 209.456819 
L 209.376 209.784703 
L 210.864 209.98124 
L 213.84 209.095086 
L 215.328 208.848124 
L 216.816 208.784938 
L 219.792 209.080578 
L 224.256 209.673408 
L 228.72 209.959682 
L 234.672 210.062093 
L 240.624 209.767462 
L 245.088 209.49331 
L 248.064 209.524654 
L 251.04 209.971867 
L 252.528 209.903776 
L 255.504 209.363174 
L 258.48 209.272485 
L 268.896 209.749499 
L 283.776 209.839587 
L 285.264 209.986595 
L 286.752 210.009949 
L 291.216 209.224337 
L 292.704 209.12731 
L 294.192 209.221159 
L 298.656 210.057017 
L 301.632 209.640881 
L 306.096 209.470475 
L 313.536 209.206296 
L 318 208.795227 
L 325.44 207.873513 
L 326.928 207.896284 
L 328.416 208.179882 
L 329.904 208.836083 
L 331.392 209.952076 
L 332.88 208.751803 
L 334.368 207.148987 
L 335.856 205.950618 
L 337.344 205.572906 
L 338.832 206.097368 
L 343.296 209.557697 
L 344.784 209.885683 
L 346.272 209.404566 
L 347.76 209.128345 
L 350.736 208.877019 
L 355.2 208.552974 
L 358.176 208.11075 
L 361.152 207.36826 
L 362.64 206.840672 
L 364.128 206.185491 
L 365.616 205.378462 
L 367.104 204.395276 
L 368.592 203.228525 
L 371.568 200.427953 
L 373.056 199.032481 
L 374.544 198.030539 
L 376.032 198.037504 
L 377.52 199.96659 
L 379.008 204.773008 
L 380.496 207.378093 
L 381.984 197.359274 
L 383.472 188.688951 
L 384.96 184.957544 
L 386.448 187.129182 
L 387.936 193.417116 
L 389.424 200.423954 
L 390.912 206.052876 
L 392.4 209.725213 
L 393.888 208.458089 
L 395.376 207.546202 
L 396.864 207.276307 
L 398.352 207.331543 
L 404.304 207.989255 
L 407.28 208.022942 
L 411.744 207.766468 
L 413.232 207.663958 
L 413.232 207.663958 
" clip-path="url(#pb993bf180f)" style="fill: none; stroke: #008800; stroke-width: 1.5; stroke-linecap: square"/>
   </g>
   <g id="line2d_26">
    <path d="M 57.6 210.104471 
L 106.703989 210.00687 
L 114.143989 209.807917 
L 118.607977 209.499681 
L 121.583989 209.129019 
L 124.56 208.568399 
L 127.536011 207.896873 
L 129.023989 207.684271 
L 130.511966 207.792238 
L 132 208.513673 
L 133.487977 210.089333 
L 136.463989 205.740723 
L 137.951966 204.873368 
L 139.44 205.552996 
L 142.416011 208.542927 
L 143.903989 209.559726 
L 145.392023 210.092903 
L 146.88 209.856017 
L 149.856011 209.848341 
L 154.32 210.05382 
L 163.247977 209.434231 
L 166.223989 209.412628 
L 169.2 209.724376 
L 170.687977 210.029087 
L 172.176011 209.81508 
L 175.152023 209.186568 
L 176.64 209.051147 
L 179.616011 209.175012 
L 187.056011 209.949762 
L 190.031966 210.100212 
L 200.447977 209.658236 
L 204.912023 209.494679 
L 207.887977 209.645924 
L 210.863989 210.058618 
L 213.84 209.455567 
L 215.327977 209.276607 
L 218.303989 209.279679 
L 227.231966 209.935061 
L 234.672023 210.097849 
L 240.623989 209.916632 
L 246.576011 209.676304 
L 249.551966 209.785418 
L 252.527977 210.04547 
L 255.503989 209.667544 
L 258.48 209.565376 
L 273.36 209.801596 
L 282.287977 209.773446 
L 285.263989 209.945542 
L 286.751966 210.096623 
L 292.703989 209.299296 
L 294.192023 209.333592 
L 297.167977 209.768579 
L 298.656011 210.031458 
L 319.487977 208.981856 
L 325.44 208.415417 
L 326.927977 208.427053 
L 328.416011 208.630027 
L 329.903989 209.117766 
L 331.392023 209.952428 
L 332.88 209.120272 
L 334.367977 207.905688 
L 335.856011 206.983295 
L 337.343989 206.681593 
L 338.831966 207.06369 
L 343.296011 209.648636 
L 344.783989 209.981461 
L 346.271966 209.616149 
L 349.247977 209.288482 
L 356.687977 208.849459 
L 359.663989 208.433633 
L 362.64 207.753215 
L 365.616011 206.697284 
L 367.103989 205.988662 
L 370.08 204.174767 
L 373.056011 202.113784 
L 374.543989 201.394144 
L 376.031966 201.406866 
L 377.52 202.802533 
L 379.007977 206.283213 
L 380.496011 208.103448 
L 381.983989 200.879956 
L 383.472023 194.638206 
L 384.96 191.975609 
L 386.447977 193.672698 
L 387.936011 198.18564 
L 389.423989 203.203175 
L 390.912023 207.223467 
L 392.4 209.843845 
L 393.887977 208.922974 
L 395.376011 208.273659 
L 396.863989 208.084391 
L 399.84 208.257414 
L 404.303989 208.598119 
L 407.28 208.625356 
L 413.232023 208.377753 
L 413.232023 208.377753 
" clip-path="url(#pb993bf180f)" style="fill: none; stroke: #ff8800; stroke-width: 1.5; stroke-linecap: square"/>
   </g>
   <g id="line2d_27">
    <path d="M 57.6 210.104471 
L 62.063989 210.053053 
L 124.56 209.909919 
L 130.512023 209.873119 
L 133.487977 210.011652 
L 136.463989 209.543103 
L 137.952023 209.490676 
L 143.903989 210.065844 
L 146.88 209.981812 
L 148.367977 210.095729 
L 179.616011 210.014734 
L 198.96 210.043904 
L 206.4 210.066446 
L 209.376011 209.984983 
L 231.696011 210.005689 
L 242.112023 210.054389 
L 248.063989 210.020025 
L 252.527977 209.930918 
L 262.943989 210.014846 
L 277.823989 209.844497 
L 283.776011 209.79912 
L 286.752023 209.932224 
L 288.24 210.075865 
L 294.192023 209.485811 
L 295.68 209.518714 
L 300.143989 210.028683 
L 303.12 209.969779 
L 309.072023 209.838139 
L 316.512023 209.64775 
L 326.927977 209.161386 
L 328.416011 209.261406 
L 329.903989 209.499143 
L 331.392023 209.924182 
L 332.88 209.69304 
L 334.367977 209.038389 
L 335.856011 208.521862 
L 337.343989 208.307725 
L 338.832023 208.4639 
L 344.783989 210.061953 
L 349.247977 209.773829 
L 358.176011 209.507506 
L 362.64 209.11628 
L 365.616011 208.665119 
L 368.592023 208.000651 
L 374.543989 206.365984 
L 376.032023 206.364368 
L 377.52 206.945798 
L 379.007977 208.425509 
L 380.496011 209.293415 
L 381.983989 206.196474 
L 383.472023 203.51984 
L 384.96 202.391073 
L 386.447977 203.07121 
L 387.936011 204.945669 
L 389.423989 207.044602 
L 390.912023 208.744411 
L 392.4 209.849926 
L 393.887977 209.743619 
L 395.376011 209.468405 
L 398.352023 209.415725 
L 411.743989 209.89513 
L 413.232023 209.94871 
L 413.232023 209.94871 
" clip-path="url(#pb993bf180f)" style="fill: none; stroke: #ff0000; stroke-width: 1.5; stroke-linecap: square"/>
   </g>
   <g id="patch_8">
    <path d="M 57.6 213.662118 
L 57.6 135.393882 
" style="fill: none; stroke: #000000; stroke-width: 0.8; stroke-linejoin: miter; stroke-linecap: square"/>
   </g>
   <g id="patch_9">
    <path d="M 414.72 213.662118 
L 414.72 135.393882 
" style="fill: none; stroke: #000000; stroke-width: 0.8; stroke-linejoin: miter; stroke-linecap: square"/>
   </g>
   <g id="patch_10">
    <path d="M 57.6 213.662118 
L 414.72 213.662118 
" style="fill: none; stroke: #000000; stroke-width: 0.8; stroke-linejoin: miter; stroke-linecap: square"/>
   </g>
   <g id="patch_11">
    <path d="M 57.6 135.393882 
L 414.72 135.393882 
" style="fill: none; stroke: #000000; stroke-width: 0.8; stroke-linejoin: miter; stroke-linecap: square"/>
   </g>
  </g>
  <g id="axes_3">
   <g id="patch_12">
    <path d="M 57.6 307.584 
L 414.72 307.584 
L 414.72 229.315765 
L 57.6 229.315765 
z
" style="fill: #ffffff"/>
   </g>
   <g id="matplotlib.axis_5">
    <g id="xtick_15">
     <g id="line2d_28">
      <g>
       <use xlink:href="#m524173c482" x="57.6" y="307.584" style="stroke: #000000; stroke-width: 0.8"/>
      </g>
     </g>
     <g id="text_6">
      <!-- 10 -->
      <g transform="translate(51.2375 322.182437)scale(0.1 -0.1)">
       <defs>
        <path id="DejaVuSans-31" d="M 794 531 
L 1825 531 
L 1825 4091 
L 703 3866 
L 703 4441 
L 1819 4666 
L 2450 4666 
L 2450 531 
L 3481 531 
L 3481 0 
L 794 0 
L 794 531 
z
" transform="scale(0.015625)"/>
       </defs>
       <use xlink:href="#DejaVuSans-31"/>
       <use xlink:href="#DejaVuSans-30" x="63.623047"/>
      </g>
     </g>
    </g>
    <g id="xtick_16">
     <g id="line2d_29">
      <g>
       <use xlink:href="#m524173c482" x="117.12" y="307.584" style="stroke: #000000; stroke-width: 0.8"/>
      </g>
     </g>
     <g id="text_7">
      <!-- 11 -->
      <g transform="translate(110.7575 322.182437)scale(0.1 -0.1)">
       <use xlink:href="#DejaVuSans-31"/>
       <use xlink:href="#DejaVuSans-31" x="63.623047"/>
      </g>
     </g>
    </g>
    <g id="xtick_17">
     <g id="line2d_30">
      <g>
       <use xlink:href="#m524173c482" x="176.64" y="307.584" style="stroke: #000000; stroke-width: 0.8"/>
      </g>
     </g>
     <g id="text_8">
      <!-- 12 -->
      <g transform="translate(170.2775 322.182437)scale(0.1 -0.1)">
       <use xlink:href="#DejaVuSans-31"/>
       <use xlink:href="#DejaVuSans-32" x="63.623047"/>
      </g>
     </g>
    </g>
    <g id="xtick_18">
     <g id="line2d_31">
      <g>
       <use xlink:href="#m524173c482" x="236.16" y="307.584" style="stroke: #000000; stroke-width: 0.8"/>
      </g>
     </g>
     <g id="text_9">
      <!-- 13 -->
      <g transform="translate(229.7975 322.182437)scale(0.1 -0.1)">
       <defs>
        <path id="DejaVuSans-33" d="M 2597 2516 
Q 3050 2419 3304 2112 
Q 3559 1806 3559 1356 
Q 3559 666 3084 287 
Q 2609 -91 1734 -91 
Q 1441 -91 1130 -33 
Q 819 25 488 141 
L 488 750 
Q 750 597 1062 519 
Q 1375 441 1716 441 
Q 2309 441 2620 675 
Q 2931 909 2931 1356 
Q 2931 1769 2642 2001 
Q 2353 2234 1838 2234 
L 1294 2234 
L 1294 2753 
L 1863 2753 
Q 2328 2753 2575 2939 
Q 2822 3125 2822 3475 
Q 2822 3834 2567 4026 
Q 2313 4219 1838 4219 
Q 1578 4219 1281 4162 
Q 984 4106 628 3988 
L 628 4550 
Q 988 4650 1302 4700 
Q 1616 4750 1894 4750 
Q 2613 4750 3031 4423 
Q 3450 4097 3450 3541 
Q 3450 3153 3228 2886 
Q 3006 2619 2597 2516 
z
" transform="scale(0.015625)"/>
       </defs>
       <use xlink:href="#DejaVuSans-31"/>
       <use xlink:href="#DejaVuSans-33" x="63.623047"/>
      </g>
     </g>
    </g>
    <g id="xtick_19">
     <g id="line2d_32">
      <g>
       <use xlink:href="#m524173c482" x="295.68" y="307.584" style="stroke: #000000; stroke-width: 0.8"/>
      </g>
     </g>
     <g id="text_10">
      <!-- 14 -->
      <g transform="translate(289.3175 322.182437)scale(0.1 -0.1)">
       <use xlink:href="#DejaVuSans-31"/>
       <use xlink:href="#DejaVuSans-34" x="63.623047"/>
      </g>
     </g>
    </g>
    <g id="xtick_20">
     <g id="line2d_33">
      <g>
       <use xlink:href="#m524173c482" x="355.2" y="307.584" style="stroke: #000000; stroke-width: 0.8"/>
      </g>
     </g>
     <g id="text_11">
      <!-- 15 -->
      <g transform="translate(348.8375 322.182437)scale(0.1 -0.1)">
       <use xlink:href="#DejaVuSans-31"/>
       <use xlink:href="#DejaVuSans-35" x="63.623047"/>
      </g>
     </g>
    </g>
    <g id="xtick_21">
     <g id="line2d_34">
      <g>
       <use xlink:href="#m524173c482" x="414.72" y="307.584" style="stroke: #000000; stroke-width: 0.8"/>
      </g>
     </g>
     <g id="text_12">
      <!-- 16 -->
      <g transform="translate(408.3575 322.182437)scale(0.1 -0.1)">
       <defs>
        <path id="DejaVuSans-36" d="M 2113 2584 
Q 1688 2584 1439 2293 
Q 1191 2003 1191 1497 
Q 1191 994 1439 701 
Q 1688 409 2113 409 
Q 2538 409 2786 701 
Q 3034 994 3034 1497 
Q 3034 2003 2786 2293 
Q 2538 2584 2113 2584 
z
M 3366 4563 
L 3366 3988 
Q 3128 4100 2886 4159 
Q 2644 4219 2406 4219 
Q 1781 4219 1451 3797 
Q 1122 3375 1075 2522 
Q 1259 2794 1537 2939 
Q 1816 3084 2150 3084 
Q 2853 3084 3261 2657 
Q 3669 2231 3669 1497 
Q 3669 778 3244 343 
Q 2819 -91 2113 -91 
Q 1303 -91 875 529 
Q 447 1150 447 2328 
Q 447 3434 972 4092 
Q 1497 4750 2381 4750 
Q 2619 4750 2861 4703 
Q 3103 4656 3366 4563 
z
" transform="scale(0.015625)"/>
       </defs>
       <use xlink:href="#DejaVuSans-31"/>
       <use xlink:href="#DejaVuSans-36" x="63.623047"/>
      </g>
     </g>
    </g>
   </g>
   <g id="matplotlib.axis_6">
    <g id="ytick_6">
     <g id="line2d_35">
      <g>
       <use xlink:href="#mf2d0eeeeb0" x="57.6" y="304.026353" style="stroke: #000000; stroke-width: 0.8"/>
      </g>
     </g>
     <g id="text_13">
      <!-- 0.0 -->
      <g transform="translate(34.696875 307.825572)scale(0.1 -0.1)">
       <use xlink:href="#DejaVuSans-30"/>
       <use xlink:href="#DejaVuSans-2e" x="63.623047"/>
       <use xlink:href="#DejaVuSans-30" x="95.410156"/>
      </g>
     </g>
    </g>
    <g id="ytick_7">
     <g id="line2d_36">
      <g>
       <use xlink:href="#mf2d0eeeeb0" x="57.6" y="265.774707" style="stroke: #000000; stroke-width: 0.8"/>
      </g>
     </g>
     <g id="text_14">
      <!-- 0.5 -->
      <g transform="translate(34.696875 269.573925)scale(0.1 -0.1)">
       <use xlink:href="#DejaVuSans-30"/>
       <use xlink:href="#DejaVuSans-2e" x="63.623047"/>
       <use xlink:href="#DejaVuSans-35" x="95.410156"/>
      </g>
     </g>
    </g>
   </g>
   <g id="line2d_37">
    <path d="M 57.6 304.026353 
L 70.992023 303.852861 
L 73.967977 304.012568 
L 87.36 303.954364 
L 99.263989 303.949826 
L 108.192023 303.935138 
L 114.143989 303.669912 
L 117.12 303.405503 
L 120.096011 302.880988 
L 121.583989 302.412942 
L 123.072023 301.694517 
L 124.56 300.580179 
L 126.047977 298.853068 
L 127.536011 296.216561 
L 129.023989 292.339512 
L 130.512023 287.065227 
L 132 280.979735 
L 133.487977 276.348245 
L 134.976011 277.134726 
L 136.463989 285.448905 
L 137.952023 297.739186 
L 139.44 299.140139 
L 140.927977 292.664144 
L 142.416011 291.442712 
L 143.903989 292.562234 
L 146.88 296.149306 
L 148.367977 297.56655 
L 149.856011 298.546989 
L 151.343989 299.355543 
L 160.272023 302.703687 
L 161.76 303.521943 
L 163.247977 303.522322 
L 166.223989 301.099976 
L 167.712023 299.839652 
L 169.2 298.768614 
L 170.687977 298.177073 
L 172.176011 298.27471 
L 173.663989 299.167721 
L 175.152023 300.691208 
L 176.64 302.546095 
L 178.127977 303.712736 
L 179.616011 302.224728 
L 181.103989 301.173474 
L 182.592023 300.50249 
L 184.08 300.153569 
L 185.567977 300.006915 
L 188.543989 300.109506 
L 191.52 300.47605 
L 194.496011 301.018829 
L 197.472023 301.795185 
L 198.96 302.319745 
L 200.447977 302.964882 
L 201.936011 303.767477 
L 203.423989 303.31241 
L 207.887977 299.772952 
L 209.376011 298.918623 
L 210.863989 298.652808 
L 212.352023 299.14767 
L 213.84 300.34934 
L 216.816011 303.695937 
L 218.303989 302.895145 
L 219.792023 301.827185 
L 221.28 301.140295 
L 222.767977 300.755244 
L 224.256011 300.578616 
L 227.232023 300.583079 
L 231.696011 300.948519 
L 236.16 301.54044 
L 239.136011 302.169267 
L 240.623989 302.616275 
L 242.112023 303.192861 
L 243.6 303.930427 
L 245.087977 303.212458 
L 248.063989 301.121838 
L 249.552023 300.297176 
L 251.04 299.954903 
L 252.527977 300.248702 
L 254.016011 301.128869 
L 256.992023 303.640764 
L 258.48 303.342588 
L 259.967977 302.574428 
L 261.456011 302.078478 
L 262.943989 301.787675 
L 265.92 301.579416 
L 271.872023 301.637867 
L 285.263989 301.923687 
L 286.752023 302.275033 
L 288.24 302.849991 
L 289.727977 303.630416 
L 291.216011 303.553398 
L 292.703989 302.772676 
L 294.192023 302.241396 
L 295.68 302.068222 
L 297.167977 302.249947 
L 303.12 303.845416 
L 304.607977 303.931983 
L 307.583989 303.569595 
L 315.023989 302.835114 
L 318 302.302912 
L 319.487977 301.906305 
L 320.976011 301.375136 
L 322.463989 300.66273 
L 323.952023 299.718559 
L 325.44 298.502971 
L 326.927977 297.019524 
L 329.903989 293.826141 
L 331.392023 292.857675 
L 332.88 293.054492 
L 334.367977 294.877463 
L 335.856011 298.323423 
L 337.343989 302.667511 
L 338.832023 301.402696 
L 340.32 298.7314 
L 341.807977 297.48055 
L 343.296011 297.289319 
L 344.783989 297.703365 
L 349.247977 299.518329 
L 352.223989 300.407164 
L 359.663989 302.363593 
L 364.127977 303.802132 
L 365.616011 302.749358 
L 367.103989 301.283177 
L 368.592023 299.193433 
L 370.08 296.178141 
L 371.567977 291.823936 
L 373.056011 285.615844 
L 374.543989 277.034867 
L 376.032023 265.850197 
L 379.007977 240.143452 
L 380.496011 232.873412 
L 381.983989 236.799505 
L 383.472023 254.99416 
L 384.96 283.443096 
L 386.447977 296.268471 
L 387.936011 276.966483 
L 389.423989 268.330842 
L 390.912023 267.256567 
L 392.4 269.879799 
L 393.887977 273.464233 
L 395.376011 276.739004 
L 396.863989 279.384902 
L 398.352023 281.452014 
L 399.84 283.10209 
L 401.327977 284.452281 
L 402.816011 285.586585 
L 404.303989 286.538927 
L 405.792023 287.330013 
L 407.28 287.955132 
L 408.767977 288.405684 
L 410.256011 288.656795 
L 411.743989 288.677785 
L 413.232023 288.425707 
L 413.232023 288.425707 
" clip-path="url(#pc0ea9322cb)" style="fill: none; stroke: #0000cc; stroke-width: 1.5; stroke-linecap: square"/>
   </g>
   <g id="line2d_38">
    <path d="M 57.6 304.025363 
L 118.608 303.914471 
L 121.584 303.737381 
L 123.072 303.562389 
L 124.56 303.266581 
L 126.048 302.821954 
L 127.536 302.108824 
L 129.024 301.082291 
L 130.512 299.694282 
L 132 298.127445 
L 133.488 296.949213 
L 134.976 297.023681 
L 136.464 298.993191 
L 137.952 302.24635 
L 139.44 302.786514 
L 140.928 301.086406 
L 142.416 300.658296 
L 143.904 300.928923 
L 146.88 301.831558 
L 149.856 302.411321 
L 154.32 302.884596 
L 160.272 303.52139 
L 163.248 304.020297 
L 170.688 302.446201 
L 172.176 302.423458 
L 173.664 302.623512 
L 176.64 303.495829 
L 178.128 303.987387 
L 181.104 303.335104 
L 184.08 303.017743 
L 188.544 302.961345 
L 194.496 303.147376 
L 198.96 303.452865 
L 203.424 303.99056 
L 209.376 302.790696 
L 210.864 302.670602 
L 212.352 302.731295 
L 213.84 302.987958 
L 216.816 303.795576 
L 218.304 303.876847 
L 221.28 303.387214 
L 224.256 303.200469 
L 230.208 303.189171 
L 237.648 303.343339 
L 242.112 303.59518 
L 245.088 303.936826 
L 246.576 303.878603 
L 251.04 303.212353 
L 252.528 303.171552 
L 254.016 303.265302 
L 258.48 303.963936 
L 270.384 303.489937 
L 279.312 303.270355 
L 286.752 302.941607 
L 289.728 303.154486 
L 292.704 303.838055 
L 294.192 303.808986 
L 295.68 303.489447 
L 297.168 303.300833 
L 300.144 303.319293 
L 310.56 303.954116 
L 312.048 304.024624 
L 318 303.606521 
L 320.976 303.201275 
L 323.952 302.498832 
L 325.44 301.987162 
L 328.416 300.636462 
L 329.904 299.92166 
L 331.392 299.414776 
L 332.88 299.369183 
L 334.368 300.031588 
L 335.856 301.426307 
L 337.344 303.215415 
L 338.832 303.153808 
L 340.32 301.971621 
L 341.808 301.385304 
L 343.296 301.262017 
L 346.272 301.611481 
L 350.736 302.269109 
L 362.64 303.652315 
L 364.128 303.946632 
L 365.616 303.706999 
L 367.104 303.15875 
L 368.592 302.39324 
L 370.08 301.292707 
L 371.568 299.714918 
L 373.056 297.482254 
L 374.544 294.404337 
L 376.032 290.400389 
L 379.008 281.262516 
L 380.496 278.787864 
L 381.984 280.40957 
L 383.472 287.137386 
L 384.96 297.248907 
L 386.448 300.932931 
L 387.936 294.226513 
L 389.424 291.294755 
L 390.912 291.007764 
L 392.4 291.944179 
L 395.376 294.346648 
L 396.864 295.28291 
L 398.352 296.020846 
L 401.328 297.09427 
L 404.304 297.836721 
L 407.28 298.353331 
L 410.256 298.640203 
L 413.232 298.62745 
L 413.232 298.62745 
" clip-path="url(#pc0ea9322cb)" style="fill: none; stroke: #008800; stroke-width: 1.5; stroke-linecap: square"/>
   </g>
   <g id="line2d_39">
    <path d="M 57.6 304.026353 
L 118.607977 303.94734 
L 123.072023 303.698499 
L 124.56 303.497847 
L 126.047977 303.179017 
L 127.536011 302.686031 
L 129.023989 301.961191 
L 133.487977 299.062753 
L 134.976011 299.124047 
L 136.463989 300.496791 
L 137.951966 302.777103 
L 139.44 303.157166 
L 140.927977 301.960656 
L 142.416011 301.663287 
L 143.903989 301.853808 
L 146.88 302.48872 
L 149.856011 302.894535 
L 155.807977 303.311247 
L 161.76 303.810782 
L 163.247977 304.001005 
L 166.223989 303.579392 
L 169.2 303.098734 
L 170.687977 302.951384 
L 172.176011 302.928762 
L 173.663989 303.053957 
L 176.64 303.640315 
L 178.127977 303.97752 
L 182.592023 303.427457 
L 185.567977 303.302899 
L 191.52 303.335592 
L 198.96 303.607032 
L 203.423989 304.008738 
L 206.4 303.624455 
L 209.376011 303.221275 
L 210.863989 303.126549 
L 212.352023 303.155548 
L 215.327977 303.560839 
L 216.816011 303.840899 
L 218.303989 303.956044 
L 221.28 303.618737 
L 225.743989 303.461804 
L 234.672023 303.493092 
L 242.112023 303.678554 
L 246.576011 304.011456 
L 251.04 303.53517 
L 254.016011 303.514464 
L 259.967977 303.994091 
L 264.432023 303.783572 
L 283.776011 303.261695 
L 286.751966 303.140787 
L 289.727977 303.256673 
L 294.192023 303.943803 
L 297.167977 303.483612 
L 300.143989 303.439656 
L 313.536011 304.024354 
L 318 303.763096 
L 320.976011 303.453359 
L 323.952023 302.920839 
L 326.927977 302.052203 
L 329.903989 300.955235 
L 331.392023 300.554984 
L 332.88 300.506461 
L 334.367977 300.991664 
L 335.856011 302.026188 
L 337.343989 303.372996 
L 338.831966 303.40628 
L 340.32 302.506589 
L 341.807977 302.055261 
L 343.296011 301.949945 
L 346.271966 302.204067 
L 352.223989 302.818262 
L 362.64 303.713961 
L 364.127977 303.93223 
L 365.616011 303.831474 
L 367.103989 303.435055 
L 368.591966 302.8773 
L 370.08 302.080861 
L 371.567977 300.939975 
L 373.056011 299.323041 
L 374.543989 297.097735 
L 376.031966 294.206606 
L 379.007977 287.611684 
L 380.496011 285.830193 
L 381.983989 287.022094 
L 383.472023 291.882432 
L 384.96 299.184135 
L 386.447977 301.769008 
L 387.936011 296.984589 
L 389.423989 294.904472 
L 390.912023 294.704338 
L 392.4 295.380969 
L 395.376011 297.099216 
L 396.863989 297.769504 
L 399.84 298.721304 
L 402.816011 299.354949 
L 405.791966 299.802933 
L 408.767977 300.094938 
L 411.743989 300.204356 
L 413.232023 300.171509 
L 413.232023 300.171509 
" clip-path="url(#pc0ea9322cb)" style="fill: none; stroke: #ff8800; stroke-width: 1.5; stroke-linecap: square"/>
   </g>
   <g id="line2d_40">
    <path d="M 57.6 304.026353 
L 62.063989 303.96933 
L 75.456011 303.97463 
L 78.432023 303.988715 
L 85.872023 303.974752 
L 117.12 303.997523 
L 118.607977 303.880207 
L 126.047977 303.816176 
L 130.512023 303.573086 
L 133.487977 303.431088 
L 134.976011 303.480496 
L 137.952023 303.980213 
L 140.927977 303.726325 
L 145.392023 303.794061 
L 146.88 303.826491 
L 148.367977 304.015051 
L 161.76 303.980822 
L 181.103989 303.993894 
L 185.567977 304.003545 
L 206.4 303.876914 
L 209.376011 304.016163 
L 219.792023 303.965513 
L 228.72 303.983053 
L 249.552023 303.893583 
L 254.016011 303.976209 
L 258.48 303.894792 
L 277.823989 303.907869 
L 283.776011 303.635123 
L 288.24 303.380645 
L 291.216011 303.447975 
L 295.68 303.973083 
L 297.167977 303.734077 
L 300.143989 303.601348 
L 309.072023 303.808577 
L 318 303.981364 
L 322.463989 303.673634 
L 326.927977 303.078279 
L 331.392023 302.239662 
L 332.88 302.169251 
L 334.367977 302.374074 
L 335.856011 302.885462 
L 337.343989 303.571693 
L 338.832023 303.807348 
L 340.32 303.313284 
L 341.807977 303.047487 
L 344.783989 302.997608 
L 365.616011 303.997768 
L 367.103989 303.882978 
L 370.08 303.293171 
L 371.567977 302.800264 
L 373.056011 302.104195 
L 374.543989 301.143562 
L 376.032023 299.89928 
L 379.007977 297.036115 
L 380.496011 296.258339 
L 381.983989 296.737559 
L 383.472023 298.804329 
L 384.96 301.915235 
L 386.447977 303.193268 
L 387.936011 301.142892 
L 389.423989 300.229442 
L 390.912023 300.121744 
L 393.887977 300.75277 
L 396.863989 301.381872 
L 399.84 301.792858 
L 405.792023 302.291724 
L 413.232023 302.641671 
L 413.232023 302.641671 
" clip-path="url(#pc0ea9322cb)" style="fill: none; stroke: #ff0000; stroke-width: 1.5; stroke-linecap: square"/>
   </g>
   <g id="patch_13">
    <path d="M 57.6 307.584 
L 57.6 229.315765 
" style="fill: none; stroke: #000000; stroke-width: 0.8; stroke-linejoin: miter; stroke-linecap: square"/>
   </g>
   <g id="patch_14">
    <path d="M 414.72 307.584 
L 414.72 229.315765 
" style="fill: none; stroke: #000000; stroke-width: 0.8; stroke-linejoin: miter; stroke-linecap: square"/>
   </g>
   <g id="patch_15">
    <path d="M 57.6 307.584 
L 414.72 307.584 
" style="fill: none; stroke: #000000; stroke-width: 0.8; stroke-linejoin: miter; stroke-linecap: square"/>
   </g>
   <g id="patch_16">
    <path d="M 57.6 229.315765 
L 414.72 229.315765 
" style="fill: none; stroke: #000000; stroke-width: 0.8; stroke-linejoin: miter; stroke-linecap: square"/>
   </g>
  </g>
 </g>
 <defs>
  <clipPath id="p4119f2bfa2">
   <rect x="57.6" y="41.472" width="357.12" height="78.268235"/>
  </clipPath>
  <clipPath id="pb993bf180f">
   <rect x="57.6" y="135.393882" width="357.12" height="78.268235"/>
  </clipPath>
  <clipPath id="pc0ea9322cb">
   <rect x="57.6" y="229.315765" width="357.12" height="78.268235"/>
  </clipPath>
 </defs>
</svg>
