<?xml version="1.0" encoding="utf-8" standalone="no"?>
<!DOCTYPE svg PUBLIC "-//W3C//DTD SVG 1.1//EN"
  "http://www.w3.org/Graphics/SVG/1.1/DTD/svg11.dtd">
<svg xmlns:xlink="http://www.w3.org/1999/xlink" width="460.8pt" height="345.6pt" viewBox="0 0 460.8 345.6" xmlns="http://www.w3.org/2000/svg" version="1.1">
 <metadata>
  <rdf:RDF xmlns:dc="http://purl.org/dc/elements/1.1/" xmlns:cc="http://creativecommons.org/ns#" xmlns:rdf="http://www.w3.org/1999/02/22-rdf-syntax-ns#">
   <cc:Work>
    <dc:type rdf:resource="http://purl.org/dc/dcmitype/StillImage"/>
    <dc:date>2023-11-22T17:07:30.434417</dc:date>
    <dc:format>image/svg+xml</dc:format>
    <dc:creator>
     <cc:Agent>
      <dc:title>Matplotlib v3.5.2, https://matplotlib.org/</dc:title>
     </cc:Agent>
    </dc:creator>
   </cc:Work>
  </rdf:RDF>
 </metadata>
 <defs>
  <style type="text/css">*{stroke-linejoin: round; stroke-linecap: butt}</style>
 </defs>
 <g id="figure_1">
  <g id="patch_1">
   <path d="M 0 345.6 
L 460.8 345.6 
L 460.8 0 
L 0 0 
z
" style="fill: #ffffff"/>
  </g>
  <g id="axes_1">
   <g id="patch_2">
    <path d="M 57.6 119.740235 
L 414.72 119.740235 
L 414.72 41.472 
L 57.6 41.472 
z
" style="fill: #ffffff"/>
   </g>
   <g id="matplotlib.axis_1">
    <g id="xtick_1">
     <g id="line2d_1">
      <defs>
       <path id="m3207d541c8" d="M 0 0 
L 0 3.5 
" style="stroke: #000000; stroke-width: 0.8"/>
      </defs>
      <g>
       <use xlink:href="#m3207d541c8" x="57.6" y="119.740235" style="stroke: #000000; stroke-width: 0.8"/>
      </g>
     </g>
    </g>
    <g id="xtick_2">
     <g id="line2d_2">
      <g>
       <use xlink:href="#m3207d541c8" x="117.12" y="119.740235" style="stroke: #000000; stroke-width: 0.8"/>
      </g>
     </g>
    </g>
    <g id="xtick_3">
     <g id="line2d_3">
      <g>
       <use xlink:href="#m3207d541c8" x="176.64" y="119.740235" style="stroke: #000000; stroke-width: 0.8"/>
      </g>
     </g>
    </g>
    <g id="xtick_4">
     <g id="line2d_4">
      <g>
       <use xlink:href="#m3207d541c8" x="236.16" y="119.740235" style="stroke: #000000; stroke-width: 0.8"/>
      </g>
     </g>
    </g>
    <g id="xtick_5">
     <g id="line2d_5">
      <g>
       <use xlink:href="#m3207d541c8" x="295.68" y="119.740235" style="stroke: #000000; stroke-width: 0.8"/>
      </g>
     </g>
    </g>
    <g id="xtick_6">
     <g id="line2d_6">
      <g>
       <use xlink:href="#m3207d541c8" x="355.2" y="119.740235" style="stroke: #000000; stroke-width: 0.8"/>
      </g>
     </g>
    </g>
    <g id="xtick_7">
     <g id="line2d_7">
      <g>
       <use xlink:href="#m3207d541c8" x="414.72" y="119.740235" style="stroke: #000000; stroke-width: 0.8"/>
      </g>
     </g>
    </g>
   </g>
   <g id="matplotlib.axis_2">
    <g id="ytick_1">
     <g id="line2d_8">
      <defs>
       <path id="mb093332fc7" d="M 0 0 
L -3.5 0 
" style="stroke: #000000; stroke-width: 0.8"/>
      </defs>
      <g>
       <use xlink:href="#mb093332fc7" x="57.6" y="116.18361" style="stroke: #000000; stroke-width: 0.8"/>
      </g>
     </g>
     <g id="text_1">
      <!-- 0.0 -->
      <g transform="translate(34.696875 119.982829)scale(0.1 -0.1)">
       <defs>
        <path id="DejaVuSans-30" d="M 2034 4250 
Q 1547 4250 1301 3770 
Q 1056 3291 1056 2328 
Q 1056 1369 1301 889 
Q 1547 409 2034 409 
Q 2525 409 2770 889 
Q 3016 1369 3016 2328 
Q 3016 3291 2770 3770 
Q 2525 4250 2034 4250 
z
M 2034 4750 
Q 2819 4750 3233 4129 
Q 3647 3509 3647 2328 
Q 3647 1150 3233 529 
Q 2819 -91 2034 -91 
Q 1250 -91 836 529 
Q 422 1150 422 2328 
Q 422 3509 836 4129 
Q 1250 4750 2034 4750 
z
" transform="scale(0.015625)"/>
        <path id="DejaVuSans-2e" d="M 684 794 
L 1344 794 
L 1344 0 
L 684 0 
L 684 794 
z
" transform="scale(0.015625)"/>
       </defs>
       <use xlink:href="#DejaVuSans-30"/>
       <use xlink:href="#DejaVuSans-2e" x="63.623047"/>
       <use xlink:href="#DejaVuSans-30" x="95.410156"/>
      </g>
     </g>
    </g>
    <g id="ytick_2">
     <g id="line2d_9">
      <g>
       <use xlink:href="#mb093332fc7" x="57.6" y="81.335815" style="stroke: #000000; stroke-width: 0.8"/>
      </g>
     </g>
     <g id="text_2">
      <!-- 0.2 -->
      <g transform="translate(34.696875 85.135034)scale(0.1 -0.1)">
       <defs>
        <path id="DejaVuSans-32" d="M 1228 531 
L 3431 531 
L 3431 0 
L 469 0 
L 469 531 
Q 828 903 1448 1529 
Q 2069 2156 2228 2338 
Q 2531 2678 2651 2914 
Q 2772 3150 2772 3378 
Q 2772 3750 2511 3984 
Q 2250 4219 1831 4219 
Q 1534 4219 1204 4116 
Q 875 4013 500 3803 
L 500 4441 
Q 881 4594 1212 4672 
Q 1544 4750 1819 4750 
Q 2544 4750 2975 4387 
Q 3406 4025 3406 3419 
Q 3406 3131 3298 2873 
Q 3191 2616 2906 2266 
Q 2828 2175 2409 1742 
Q 1991 1309 1228 531 
z
" transform="scale(0.015625)"/>
       </defs>
       <use xlink:href="#DejaVuSans-30"/>
       <use xlink:href="#DejaVuSans-2e" x="63.623047"/>
       <use xlink:href="#DejaVuSans-32" x="95.410156"/>
      </g>
     </g>
    </g>
    <g id="ytick_3">
     <g id="line2d_10">
      <g>
       <use xlink:href="#mb093332fc7" x="57.6" y="46.488021" style="stroke: #000000; stroke-width: 0.8"/>
      </g>
     </g>
     <g id="text_3">
      <!-- 0.4 -->
      <g transform="translate(34.696875 50.28724)scale(0.1 -0.1)">
       <defs>
        <path id="DejaVuSans-34" d="M 2419 4116 
L 825 1625 
L 2419 1625 
L 2419 4116 
z
M 2253 4666 
L 3047 4666 
L 3047 1625 
L 3713 1625 
L 3713 1100 
L 3047 1100 
L 3047 0 
L 2419 0 
L 2419 1100 
L 313 1100 
L 313 1709 
L 2253 4666 
z
" transform="scale(0.015625)"/>
       </defs>
       <use xlink:href="#DejaVuSans-30"/>
       <use xlink:href="#DejaVuSans-2e" x="63.623047"/>
       <use xlink:href="#DejaVuSans-34" x="95.410156"/>
      </g>
     </g>
    </g>
   </g>
   <g id="line2d_11">
    <path d="M 57.6 116.182431 
L 70.992023 116.11043 
L 72.48 116.158774 
L 76.943989 116.041862 
L 99.263989 115.951868 
L 105.216011 115.670946 
L 109.68 115.241277 
L 112.656011 114.730654 
L 115.632023 113.898631 
L 117.12 113.305404 
L 118.607977 112.549924 
L 120.096011 111.594645 
L 121.583989 110.386434 
L 123.072023 108.882423 
L 124.56 107.026346 
L 126.047977 104.798006 
L 129.023989 99.623914 
L 130.512023 97.415474 
L 132 96.708903 
L 133.487977 99.080752 
L 134.976011 106.048444 
L 136.463989 115.16996 
L 137.952023 103.095178 
L 139.44 93.903192 
L 140.927977 89.531734 
L 142.416011 90.055731 
L 143.903989 93.61499 
L 146.88 102.239217 
L 148.367977 106.035524 
L 149.856011 108.916992 
L 151.343989 110.928511 
L 152.832023 112.252322 
L 154.32 113.002501 
L 155.807977 113.326882 
L 157.296011 113.327408 
L 158.783989 113.087702 
L 160.272023 112.659745 
L 166.223989 110.501112 
L 167.712023 110.367785 
L 169.2 110.683427 
L 170.687977 111.602271 
L 172.176011 113.146141 
L 173.663989 115.211008 
L 175.152023 114.848021 
L 176.64 112.647825 
L 178.127977 110.882706 
L 179.616011 109.750733 
L 181.103989 109.291561 
L 182.592023 109.406715 
L 184.08 109.9387 
L 185.567977 110.724113 
L 191.52 114.310567 
L 194.496011 115.844418 
L 195.983989 115.799233 
L 204.912023 111.491009 
L 206.4 111.087548 
L 207.887977 111.043199 
L 209.376011 111.529927 
L 210.863989 112.646531 
L 213.84 115.93454 
L 215.327977 113.807017 
L 216.816011 111.969058 
L 218.303989 110.689979 
L 219.792023 110.025262 
L 221.28 109.928626 
L 222.767977 110.265326 
L 224.256011 110.864056 
L 230.207977 113.768594 
L 233.183989 114.941002 
L 236.16 115.980242 
L 237.647977 115.866513 
L 242.112023 114.12445 
L 245.087977 112.885773 
L 246.576011 112.42329 
L 248.063989 112.223472 
L 249.552023 112.447718 
L 251.04 113.204413 
L 252.527977 114.473231 
L 254.016011 116.080643 
L 256.992023 113.144751 
L 258.48 112.10846 
L 259.967977 111.532769 
L 261.456011 111.38223 
L 262.943989 111.530521 
L 265.92 112.299595 
L 268.896011 113.139596 
L 271.872023 113.778988 
L 276.336011 114.382229 
L 280.8 114.886451 
L 283.776011 115.443143 
L 285.263989 115.870256 
L 286.752023 115.957933 
L 291.216011 114.120218 
L 292.703989 113.831645 
L 294.192023 113.892687 
L 295.68 114.322986 
L 298.656011 115.914564 
L 300.143989 115.60353 
L 301.632023 114.878413 
L 303.12 114.294295 
L 304.607977 113.876885 
L 307.583989 113.381083 
L 313.536011 112.601192 
L 316.512023 111.949252 
L 319.487977 110.976504 
L 322.463989 109.647763 
L 325.44 108.154238 
L 326.927977 107.574752 
L 328.416011 107.333987 
L 329.903989 107.725767 
L 331.392023 109.063249 
L 332.88 111.564447 
L 334.367977 115.166358 
L 335.856011 112.934503 
L 337.343989 108.848181 
L 338.832023 105.901023 
L 340.32 104.675114 
L 341.807977 105.073338 
L 343.296011 106.665338 
L 349.247977 115.471692 
L 350.736011 115.249093 
L 352.223989 113.858646 
L 355.2 111.564951 
L 358.176011 109.40441 
L 359.663989 108.182616 
L 361.152023 106.762585 
L 362.64 105.062729 
L 364.127977 102.995552 
L 365.616011 100.459485 
L 367.103989 97.351552 
L 368.592023 93.567118 
L 370.08 89.006405 
L 371.567977 83.656229 
L 376.032023 65.718738 
L 377.52 62.418367 
L 379.007977 63.995985 
L 380.496011 73.363666 
L 381.983989 92.291481 
L 383.472023 112.975094 
L 384.96 83.408505 
L 386.447977 59.318656 
L 387.936011 46.359479 
L 389.423989 45.029647 
L 390.912023 52.143157 
L 392.4 63.728347 
L 393.887977 76.42017 
L 395.376011 88.085907 
L 396.863989 97.872135 
L 398.352023 105.642961 
L 399.84 111.550294 
L 401.327977 115.920041 
L 402.816011 113.260006 
L 404.303989 110.932962 
L 405.792023 109.203821 
L 407.28 107.854761 
L 410.256011 105.735143 
L 413.232023 103.873878 
L 413.232023 103.873878 
" clip-path="url(#p17d3571dfd)" style="fill: none; stroke: #0000cc; stroke-width: 1.5; stroke-linecap: square"/>
   </g>
   <g id="line2d_12">
    <path d="M 57.6 116.182431 
L 66.527977 116.089326 
L 88.847977 116.13844 
L 109.68 116.141207 
L 124.56 115.962884 
L 132 115.806337 
L 136.463989 116.063796 
L 139.44 115.64623 
L 142.416011 115.6743 
L 146.88 116.030467 
L 149.856011 116.017975 
L 157.296011 116.110053 
L 170.687977 116.153933 
L 200.447977 116.045631 
L 222.767977 116.088262 
L 231.696011 116.004032 
L 245.087977 116.051722 
L 251.04 116.107881 
L 255.503989 115.988384 
L 265.92 116.111729 
L 268.896011 115.977303 
L 279.312023 115.771728 
L 285.263989 115.632441 
L 288.24 115.719751 
L 292.703989 116.081054 
L 295.68 115.639435 
L 297.167977 115.517795 
L 300.143989 115.591344 
L 306.096011 116.145753 
L 309.072023 116.006959 
L 322.463989 115.13848 
L 325.44 114.833399 
L 326.927977 114.869384 
L 329.903989 114.732371 
L 331.392023 114.876446 
L 332.88 115.219468 
L 334.367977 115.764913 
L 335.856011 115.8998 
L 337.343989 115.18201 
L 338.832023 114.620065 
L 340.32 114.321323 
L 341.807977 114.267392 
L 343.296011 114.45049 
L 350.736011 115.990586 
L 352.223989 116.161384 
L 359.663989 115.374524 
L 364.127977 114.777385 
L 367.103989 114.148288 
L 370.08 113.225359 
L 373.056011 111.962443 
L 376.032023 110.658116 
L 377.52 110.286484 
L 379.007977 110.463433 
L 380.496011 111.532636 
L 383.472023 115.732934 
L 384.96 112.537756 
L 386.447977 109.99967 
L 387.936011 108.614653 
L 389.423989 108.455165 
L 390.912023 109.210541 
L 396.863989 113.973219 
L 398.352023 114.787596 
L 399.84 115.387322 
L 401.327977 115.825373 
L 402.816011 116.134933 
L 408.767977 115.749529 
L 413.232023 115.743486 
L 413.232023 115.743486 
" clip-path="url(#p17d3571dfd)" style="fill: none; stroke: #ff0000; stroke-width: 1.5; stroke-linecap: square"/>
   </g>
   <g id="patch_3">
    <path d="M 57.6 119.740235 
L 57.6 41.472 
" style="fill: none; stroke: #000000; stroke-width: 0.8; stroke-linejoin: miter; stroke-linecap: square"/>
   </g>
   <g id="patch_4">
    <path d="M 414.72 119.740235 
L 414.72 41.472 
" style="fill: none; stroke: #000000; stroke-width: 0.8; stroke-linejoin: miter; stroke-linecap: square"/>
   </g>
   <g id="patch_5">
    <path d="M 57.6 119.740235 
L 414.72 119.740235 
" style="fill: none; stroke: #000000; stroke-width: 0.8; stroke-linejoin: miter; stroke-linecap: square"/>
   </g>
   <g id="patch_6">
    <path d="M 57.6 41.472 
L 414.72 41.472 
" style="fill: none; stroke: #000000; stroke-width: 0.8; stroke-linejoin: miter; stroke-linecap: square"/>
   </g>
  </g>
  <g id="axes_2">
   <g id="patch_7">
    <path d="M 57.6 213.662118 
L 414.72 213.662118 
L 414.72 135.393882 
L 57.6 135.393882 
z
" style="fill: #ffffff"/>
   </g>
   <g id="matplotlib.axis_3">
    <g id="xtick_8">
     <g id="line2d_13">
      <g>
       <use xlink:href="#m3207d541c8" x="57.6" y="213.662118" style="stroke: #000000; stroke-width: 0.8"/>
      </g>
     </g>
    </g>
    <g id="xtick_9">
     <g id="line2d_14">
      <g>
       <use xlink:href="#m3207d541c8" x="117.12" y="213.662118" style="stroke: #000000; stroke-width: 0.8"/>
      </g>
     </g>
    </g>
    <g id="xtick_10">
     <g id="line2d_15">
      <g>
       <use xlink:href="#m3207d541c8" x="176.64" y="213.662118" style="stroke: #000000; stroke-width: 0.8"/>
      </g>
     </g>
    </g>
    <g id="xtick_11">
     <g id="line2d_16">
      <g>
       <use xlink:href="#m3207d541c8" x="236.16" y="213.662118" style="stroke: #000000; stroke-width: 0.8"/>
      </g>
     </g>
    </g>
    <g id="xtick_12">
     <g id="line2d_17">
      <g>
       <use xlink:href="#m3207d541c8" x="295.68" y="213.662118" style="stroke: #000000; stroke-width: 0.8"/>
      </g>
     </g>
    </g>
    <g id="xtick_13">
     <g id="line2d_18">
      <g>
       <use xlink:href="#m3207d541c8" x="355.2" y="213.662118" style="stroke: #000000; stroke-width: 0.8"/>
      </g>
     </g>
    </g>
    <g id="xtick_14">
     <g id="line2d_19">
      <g>
       <use xlink:href="#m3207d541c8" x="414.72" y="213.662118" style="stroke: #000000; stroke-width: 0.8"/>
      </g>
     </g>
    </g>
   </g>
   <g id="matplotlib.axis_4">
    <g id="ytick_4">
     <g id="line2d_20">
      <g>
       <use xlink:href="#mb093332fc7" x="57.6" y="210.105221" style="stroke: #000000; stroke-width: 0.8"/>
      </g>
     </g>
     <g id="text_4">
      <!-- 0.0 -->
      <g transform="translate(34.696875 213.90444)scale(0.1 -0.1)">
       <use xlink:href="#DejaVuSans-30"/>
       <use xlink:href="#DejaVuSans-2e" x="63.623047"/>
       <use xlink:href="#DejaVuSans-30" x="95.410156"/>
      </g>
     </g>
    </g>
    <g id="ytick_5">
     <g id="line2d_21">
      <g>
       <use xlink:href="#mb093332fc7" x="57.6" y="167.445243" style="stroke: #000000; stroke-width: 0.8"/>
      </g>
     </g>
     <g id="text_5">
      <!-- 0.5 -->
      <g transform="translate(34.696875 171.244462)scale(0.1 -0.1)">
       <defs>
        <path id="DejaVuSans-35" d="M 691 4666 
L 3169 4666 
L 3169 4134 
L 1269 4134 
L 1269 2991 
Q 1406 3038 1543 3061 
Q 1681 3084 1819 3084 
Q 2600 3084 3056 2656 
Q 3513 2228 3513 1497 
Q 3513 744 3044 326 
Q 2575 -91 1722 -91 
Q 1428 -91 1123 -41 
Q 819 9 494 109 
L 494 744 
Q 775 591 1075 516 
Q 1375 441 1709 441 
Q 2250 441 2565 725 
Q 2881 1009 2881 1497 
Q 2881 1984 2565 2268 
Q 2250 2553 1709 2553 
Q 1456 2553 1204 2497 
Q 953 2441 691 2322 
L 691 4666 
z
" transform="scale(0.015625)"/>
       </defs>
       <use xlink:href="#DejaVuSans-30"/>
       <use xlink:href="#DejaVuSans-2e" x="63.623047"/>
       <use xlink:href="#DejaVuSans-35" x="95.410156"/>
      </g>
     </g>
    </g>
   </g>
   <g id="line2d_22">
    <path d="M 57.6 210.104016 
L 66.527977 209.980417 
L 69.503989 210.060265 
L 72.48 209.93562 
L 82.896011 210.073299 
L 90.336011 210.04534 
L 99.263989 209.882908 
L 105.216011 209.652401 
L 109.68 209.252665 
L 112.656011 208.762036 
L 115.632023 207.959675 
L 117.12 207.389299 
L 118.607977 206.666488 
L 120.096011 205.760245 
L 121.583989 204.62997 
L 123.072023 203.256921 
L 124.56 201.633032 
L 127.536011 198.106147 
L 129.023989 196.99729 
L 130.512023 197.598312 
L 132 201.630669 
L 133.487977 209.576257 
L 134.976011 196.698656 
L 136.463989 185.629514 
L 137.952023 181.806878 
L 139.44 185.312524 
L 142.416011 202.056196 
L 143.903989 207.047162 
L 145.392023 209.935167 
L 146.88 208.81171 
L 148.367977 208.619684 
L 149.856011 208.966634 
L 152.832023 210.055208 
L 157.296011 208.453859 
L 161.76 206.966436 
L 163.247977 206.629417 
L 164.736011 206.511468 
L 166.223989 206.712181 
L 167.712023 207.387141 
L 170.687977 209.927791 
L 173.663989 206.183574 
L 175.152023 204.915782 
L 176.64 204.397964 
L 178.127977 204.637447 
L 179.616011 205.408593 
L 184.08 208.385442 
L 185.567977 209.121798 
L 187.056011 209.693388 
L 188.543989 210.084332 
L 193.007977 209.147494 
L 197.472023 208.152937 
L 201.936011 207.004118 
L 203.423989 206.76187 
L 204.912023 206.749048 
L 206.4 207.115987 
L 207.887977 207.979837 
L 209.376011 209.382609 
L 210.863989 209.039922 
L 212.352023 207.197824 
L 213.84 205.732502 
L 215.327977 204.95735 
L 216.816011 204.929692 
L 218.303989 205.511563 
L 222.767977 208.164613 
L 224.256011 208.83697 
L 225.743989 209.339771 
L 228.72 209.965535 
L 230.207977 210.037625 
L 236.16 209.203303 
L 239.136011 208.585468 
L 243.6 207.555764 
L 245.087977 207.404509 
L 246.576011 207.55691 
L 248.063989 208.141322 
L 249.552023 209.216046 
L 251.04 209.553104 
L 252.527977 208.044232 
L 254.016011 206.844299 
L 255.503989 206.179306 
L 256.992023 206.128194 
L 258.48 206.541846 
L 262.943989 208.343555 
L 264.432023 208.768517 
L 267.407977 209.243252 
L 270.383989 209.40679 
L 279.312023 209.711369 
L 282.287977 210.082568 
L 285.263989 209.300527 
L 288.24 208.371952 
L 289.727977 208.136728 
L 291.216011 208.235768 
L 292.703989 208.706132 
L 294.192023 209.463853 
L 295.68 209.842638 
L 297.167977 209.040404 
L 298.656011 208.531905 
L 300.143989 208.267199 
L 301.632023 208.1842 
L 309.072023 208.313899 
L 312.047977 208.052017 
L 315.023989 207.575941 
L 318 206.866129 
L 323.952023 205.052357 
L 325.44 204.827962 
L 326.927977 205.009433 
L 328.416011 205.832834 
L 329.903989 207.569319 
L 331.392023 209.875163 
L 334.367977 202.661435 
L 335.856011 200.003563 
L 337.343989 199.335246 
L 338.832023 200.893365 
L 343.296011 209.376989 
L 344.783989 209.000187 
L 346.272023 207.906599 
L 347.76 207.296568 
L 350.736011 206.695476 
L 353.712023 206.166574 
L 355.2 205.775171 
L 356.687977 205.245771 
L 358.176011 204.544308 
L 359.663989 203.634878 
L 361.152023 202.472018 
L 362.64 201.005491 
L 364.127977 199.176789 
L 365.616011 196.916306 
L 367.103989 194.164032 
L 368.592023 190.882434 
L 370.08 187.087284 
L 373.056011 178.967784 
L 374.543989 176.072673 
L 376.032023 175.976551 
L 377.52 181.166315 
L 379.007977 194.362568 
L 380.496011 203.58102 
L 381.983989 175.541185 
L 383.472023 150.52726 
L 384.96 138.951529 
L 386.447977 144.97202 
L 387.936011 162.52364 
L 389.423989 182.201353 
L 390.912023 198.369497 
L 392.4 209.084995 
L 393.887977 205.313713 
L 395.376011 202.69564 
L 396.863989 201.868276 
L 398.352023 201.968553 
L 402.816011 203.389251 
L 404.303989 203.657631 
L 405.792023 203.746605 
L 407.28 203.664377 
L 410.256011 203.102016 
L 413.232023 202.317299 
L 413.232023 202.317299 
" clip-path="url(#p919c6a05ae)" style="fill: none; stroke: #0000cc; stroke-width: 1.5; stroke-linecap: square"/>
   </g>
   <g id="line2d_23">
    <path d="M 57.6 210.104016 
L 62.063989 210.052544 
L 94.8 210.101436 
L 114.143989 210.03356 
L 130.512023 209.86625 
L 133.487977 210.012707 
L 136.463989 209.541609 
L 137.952023 209.47403 
L 143.903989 210.062302 
L 146.88 209.982798 
L 148.367977 210.096413 
L 179.616011 210.015006 
L 198.96 210.043209 
L 207.887977 209.995372 
L 212.352023 210.028589 
L 215.327977 210.099117 
L 219.792023 210.002425 
L 236.16 209.994091 
L 239.136011 210.050483 
L 277.823989 209.846539 
L 283.776011 209.799988 
L 286.752023 209.930018 
L 288.24 210.075926 
L 294.192023 209.480164 
L 295.68 209.515628 
L 300.143989 210.029832 
L 303.12 209.970041 
L 309.072023 209.83971 
L 316.512023 209.650484 
L 326.927977 209.166852 
L 328.416011 209.264599 
L 329.903989 209.501032 
L 331.392023 209.926254 
L 332.88 209.694834 
L 334.367977 209.041963 
L 335.856011 208.533112 
L 337.343989 208.306063 
L 338.832023 208.467012 
L 344.783989 210.063983 
L 349.247977 209.774035 
L 358.176011 209.508249 
L 362.64 209.116241 
L 365.616011 208.664849 
L 368.592023 208.00538 
L 374.543989 206.368536 
L 376.032023 206.373172 
L 377.52 206.947924 
L 379.007977 208.42596 
L 380.496011 209.294468 
L 381.983989 206.196258 
L 383.472023 203.533523 
L 384.96 202.394081 
L 386.447977 203.08168 
L 387.936011 204.953604 
L 389.423989 207.049722 
L 390.912023 208.747512 
L 392.4 209.851949 
L 393.887977 209.744083 
L 395.376011 209.469381 
L 398.352023 209.416669 
L 411.743989 209.893834 
L 413.232023 209.950849 
L 413.232023 209.950849 
" clip-path="url(#p919c6a05ae)" style="fill: none; stroke: #ff0000; stroke-width: 1.5; stroke-linecap: square"/>
   </g>
   <g id="patch_8">
    <path d="M 57.6 213.662118 
L 57.6 135.393882 
" style="fill: none; stroke: #000000; stroke-width: 0.8; stroke-linejoin: miter; stroke-linecap: square"/>
   </g>
   <g id="patch_9">
    <path d="M 414.72 213.662118 
L 414.72 135.393882 
" style="fill: none; stroke: #000000; stroke-width: 0.8; stroke-linejoin: miter; stroke-linecap: square"/>
   </g>
   <g id="patch_10">
    <path d="M 57.6 213.662118 
L 414.72 213.662118 
" style="fill: none; stroke: #000000; stroke-width: 0.8; stroke-linejoin: miter; stroke-linecap: square"/>
   </g>
   <g id="patch_11">
    <path d="M 57.6 135.393882 
L 414.72 135.393882 
" style="fill: none; stroke: #000000; stroke-width: 0.8; stroke-linejoin: miter; stroke-linecap: square"/>
   </g>
  </g>
  <g id="axes_3">
   <g id="patch_12">
    <path d="M 57.6 307.584 
L 414.72 307.584 
L 414.72 229.315765 
L 57.6 229.315765 
z
" style="fill: #ffffff"/>
   </g>
   <g id="matplotlib.axis_5">
    <g id="xtick_15">
     <g id="line2d_24">
      <g>
       <use xlink:href="#m3207d541c8" x="57.6" y="307.584" style="stroke: #000000; stroke-width: 0.8"/>
      </g>
     </g>
     <g id="text_6">
      <!-- 10 -->
      <g transform="translate(51.2375 322.182437)scale(0.1 -0.1)">
       <defs>
        <path id="DejaVuSans-31" d="M 794 531 
L 1825 531 
L 1825 4091 
L 703 3866 
L 703 4441 
L 1819 4666 
L 2450 4666 
L 2450 531 
L 3481 531 
L 3481 0 
L 794 0 
L 794 531 
z
" transform="scale(0.015625)"/>
       </defs>
       <use xlink:href="#DejaVuSans-31"/>
       <use xlink:href="#DejaVuSans-30" x="63.623047"/>
      </g>
     </g>
    </g>
    <g id="xtick_16">
     <g id="line2d_25">
      <g>
       <use xlink:href="#m3207d541c8" x="117.12" y="307.584" style="stroke: #000000; stroke-width: 0.8"/>
      </g>
     </g>
     <g id="text_7">
      <!-- 11 -->
      <g transform="translate(110.7575 322.182437)scale(0.1 -0.1)">
       <use xlink:href="#DejaVuSans-31"/>
       <use xlink:href="#DejaVuSans-31" x="63.623047"/>
      </g>
     </g>
    </g>
    <g id="xtick_17">
     <g id="line2d_26">
      <g>
       <use xlink:href="#m3207d541c8" x="176.64" y="307.584" style="stroke: #000000; stroke-width: 0.8"/>
      </g>
     </g>
     <g id="text_8">
      <!-- 12 -->
      <g transform="translate(170.2775 322.182437)scale(0.1 -0.1)">
       <use xlink:href="#DejaVuSans-31"/>
       <use xlink:href="#DejaVuSans-32" x="63.623047"/>
      </g>
     </g>
    </g>
    <g id="xtick_18">
     <g id="line2d_27">
      <g>
       <use xlink:href="#m3207d541c8" x="236.16" y="307.584" style="stroke: #000000; stroke-width: 0.8"/>
      </g>
     </g>
     <g id="text_9">
      <!-- 13 -->
      <g transform="translate(229.7975 322.182437)scale(0.1 -0.1)">
       <defs>
        <path id="DejaVuSans-33" d="M 2597 2516 
Q 3050 2419 3304 2112 
Q 3559 1806 3559 1356 
Q 3559 666 3084 287 
Q 2609 -91 1734 -91 
Q 1441 -91 1130 -33 
Q 819 25 488 141 
L 488 750 
Q 750 597 1062 519 
Q 1375 441 1716 441 
Q 2309 441 2620 675 
Q 2931 909 2931 1356 
Q 2931 1769 2642 2001 
Q 2353 2234 1838 2234 
L 1294 2234 
L 1294 2753 
L 1863 2753 
Q 2328 2753 2575 2939 
Q 2822 3125 2822 3475 
Q 2822 3834 2567 4026 
Q 2313 4219 1838 4219 
Q 1578 4219 1281 4162 
Q 984 4106 628 3988 
L 628 4550 
Q 988 4650 1302 4700 
Q 1616 4750 1894 4750 
Q 2613 4750 3031 4423 
Q 3450 4097 3450 3541 
Q 3450 3153 3228 2886 
Q 3006 2619 2597 2516 
z
" transform="scale(0.015625)"/>
       </defs>
       <use xlink:href="#DejaVuSans-31"/>
       <use xlink:href="#DejaVuSans-33" x="63.623047"/>
      </g>
     </g>
    </g>
    <g id="xtick_19">
     <g id="line2d_28">
      <g>
       <use xlink:href="#m3207d541c8" x="295.68" y="307.584" style="stroke: #000000; stroke-width: 0.8"/>
      </g>
     </g>
     <g id="text_10">
      <!-- 14 -->
      <g transform="translate(289.3175 322.182437)scale(0.1 -0.1)">
       <use xlink:href="#DejaVuSans-31"/>
       <use xlink:href="#DejaVuSans-34" x="63.623047"/>
      </g>
     </g>
    </g>
    <g id="xtick_20">
     <g id="line2d_29">
      <g>
       <use xlink:href="#m3207d541c8" x="355.2" y="307.584" style="stroke: #000000; stroke-width: 0.8"/>
      </g>
     </g>
     <g id="text_11">
      <!-- 15 -->
      <g transform="translate(348.8375 322.182437)scale(0.1 -0.1)">
       <use xlink:href="#DejaVuSans-31"/>
       <use xlink:href="#DejaVuSans-35" x="63.623047"/>
      </g>
     </g>
    </g>
    <g id="xtick_21">
     <g id="line2d_30">
      <g>
       <use xlink:href="#m3207d541c8" x="414.72" y="307.584" style="stroke: #000000; stroke-width: 0.8"/>
      </g>
     </g>
     <g id="text_12">
      <!-- 16 -->
      <g transform="translate(408.3575 322.182437)scale(0.1 -0.1)">
       <defs>
        <path id="DejaVuSans-36" d="M 2113 2584 
Q 1688 2584 1439 2293 
Q 1191 2003 1191 1497 
Q 1191 994 1439 701 
Q 1688 409 2113 409 
Q 2538 409 2786 701 
Q 3034 994 3034 1497 
Q 3034 2003 2786 2293 
Q 2538 2584 2113 2584 
z
M 3366 4563 
L 3366 3988 
Q 3128 4100 2886 4159 
Q 2644 4219 2406 4219 
Q 1781 4219 1451 3797 
Q 1122 3375 1075 2522 
Q 1259 2794 1537 2939 
Q 1816 3084 2150 3084 
Q 2853 3084 3261 2657 
Q 3669 2231 3669 1497 
Q 3669 778 3244 343 
Q 2819 -91 2113 -91 
Q 1303 -91 875 529 
Q 447 1150 447 2328 
Q 447 3434 972 4092 
Q 1497 4750 2381 4750 
Q 2619 4750 2861 4703 
Q 3103 4656 3366 4563 
z
" transform="scale(0.015625)"/>
       </defs>
       <use xlink:href="#DejaVuSans-31"/>
       <use xlink:href="#DejaVuSans-36" x="63.623047"/>
      </g>
     </g>
    </g>
   </g>
   <g id="matplotlib.axis_6">
    <g id="ytick_6">
     <g id="line2d_31">
      <g>
       <use xlink:href="#mb093332fc7" x="57.6" y="304.027253" style="stroke: #000000; stroke-width: 0.8"/>
      </g>
     </g>
     <g id="text_13">
      <!-- 0.0 -->
      <g transform="translate(34.696875 307.826471)scale(0.1 -0.1)">
       <use xlink:href="#DejaVuSans-30"/>
       <use xlink:href="#DejaVuSans-2e" x="63.623047"/>
       <use xlink:href="#DejaVuSans-30" x="95.410156"/>
      </g>
     </g>
    </g>
    <g id="ytick_7">
     <g id="line2d_32">
      <g>
       <use xlink:href="#mb093332fc7" x="57.6" y="265.767228" style="stroke: #000000; stroke-width: 0.8"/>
      </g>
     </g>
     <g id="text_14">
      <!-- 0.5 -->
      <g transform="translate(34.696875 269.566447)scale(0.1 -0.1)">
       <use xlink:href="#DejaVuSans-30"/>
       <use xlink:href="#DejaVuSans-2e" x="63.623047"/>
       <use xlink:href="#DejaVuSans-35" x="95.410156"/>
      </g>
     </g>
    </g>
   </g>
   <g id="line2d_33">
    <path d="M 57.6 304.026263 
L 70.992023 303.855323 
L 73.967977 304.013449 
L 85.872023 303.982199 
L 96.287977 303.936534 
L 109.68 303.887225 
L 115.632023 303.558167 
L 118.607977 303.19294 
L 120.096011 302.88118 
L 121.583989 302.413448 
L 123.072023 301.695085 
L 124.56 300.580797 
L 126.047977 298.851772 
L 127.536011 296.214607 
L 129.023989 292.334994 
L 130.512023 287.053513 
L 132 280.975539 
L 133.487977 276.336614 
L 134.976011 277.139411 
L 136.463989 285.443792 
L 137.952023 297.733801 
L 139.44 299.138565 
L 140.927977 292.669087 
L 142.416011 291.445402 
L 143.903989 292.572498 
L 146.88 296.155891 
L 148.367977 297.566813 
L 149.856011 298.548733 
L 151.343989 299.358691 
L 160.272023 302.704319 
L 161.76 303.522976 
L 163.247977 303.524329 
L 166.223989 301.099837 
L 167.712023 299.841426 
L 169.2 298.765916 
L 170.687977 298.179808 
L 172.176011 298.274799 
L 173.663989 299.166592 
L 175.152023 300.692833 
L 176.64 302.547004 
L 178.127977 303.713653 
L 179.616011 302.224952 
L 181.103989 301.17369 
L 182.592023 300.503712 
L 184.08 300.154167 
L 185.567977 300.005184 
L 188.543989 300.110371 
L 191.52 300.476466 
L 194.496011 301.018424 
L 197.472023 301.794487 
L 198.96 302.320482 
L 200.447977 302.965264 
L 201.936011 303.767839 
L 203.423989 303.314224 
L 207.887977 299.775421 
L 209.376011 298.919447 
L 210.863989 298.657676 
L 212.352023 299.14277 
L 213.84 300.345737 
L 216.816011 303.69763 
L 218.303989 302.8963 
L 219.792023 301.825515 
L 221.28 301.136538 
L 222.767977 300.755016 
L 224.256011 300.577591 
L 227.232023 300.584653 
L 231.696011 300.948291 
L 236.16 301.539994 
L 239.136011 302.169705 
L 240.623989 302.616743 
L 242.112023 303.193395 
L 243.6 303.93075 
L 245.087977 303.209265 
L 248.063989 301.121121 
L 249.552023 300.295314 
L 251.04 299.954299 
L 252.527977 300.243954 
L 254.016011 301.13135 
L 256.992023 303.642878 
L 258.48 303.343347 
L 259.967977 302.571375 
L 261.456011 302.077537 
L 262.943989 301.785651 
L 265.92 301.578422 
L 271.872023 301.636031 
L 285.263989 301.924345 
L 286.752023 302.271179 
L 288.24 302.848561 
L 289.727977 303.623576 
L 291.216011 303.558681 
L 292.703989 302.772608 
L 294.192023 302.245725 
L 295.68 302.069431 
L 297.167977 302.251088 
L 303.12 303.848474 
L 304.607977 303.930199 
L 307.583989 303.568452 
L 315.023989 302.836171 
L 318 302.303955 
L 319.487977 301.905848 
L 320.976011 301.374643 
L 322.463989 300.662876 
L 323.952023 299.719096 
L 325.44 298.501839 
L 326.927977 297.021818 
L 329.903989 293.82673 
L 331.392023 292.861184 
L 332.88 293.067605 
L 334.367977 294.882541 
L 335.856011 298.333135 
L 337.343989 302.667155 
L 338.832023 301.402948 
L 340.32 298.734634 
L 341.807977 297.479757 
L 343.296011 297.286963 
L 344.783989 297.706903 
L 349.247977 299.513102 
L 352.223989 300.406736 
L 359.663989 302.366025 
L 364.127977 303.802943 
L 365.616011 302.750685 
L 367.103989 301.283622 
L 368.592023 299.192294 
L 370.08 296.177272 
L 371.567977 291.822503 
L 373.056011 285.612166 
L 374.543989 277.030949 
L 376.032023 265.849836 
L 379.007977 240.129706 
L 380.496011 232.873412 
L 381.983989 236.78392 
L 383.472023 254.99645 
L 384.96 283.440416 
L 386.447977 296.268112 
L 387.936011 276.964741 
L 389.423989 268.328343 
L 390.912023 267.254115 
L 392.4 269.878945 
L 393.887977 273.463865 
L 395.376011 276.739596 
L 396.863989 279.381789 
L 398.352023 281.451213 
L 399.84 283.102081 
L 401.327977 284.451125 
L 402.816011 285.581644 
L 404.303989 286.536406 
L 405.792023 287.324537 
L 407.28 287.951975 
L 408.767977 288.402353 
L 410.256011 288.653647 
L 411.743989 288.676438 
L 413.232023 288.422785 
L 413.232023 288.422785 
" clip-path="url(#pff9b953a6a)" style="fill: none; stroke: #0000cc; stroke-width: 1.5; stroke-linecap: square"/>
   </g>
   <g id="line2d_34">
    <path d="M 57.6 304.026263 
L 62.063989 303.970293 
L 75.456011 303.978211 
L 78.432023 303.989691 
L 85.872023 303.972433 
L 117.12 303.998157 
L 118.607977 303.881057 
L 126.047977 303.815967 
L 130.512023 303.564988 
L 133.487977 303.425388 
L 134.976011 303.490951 
L 137.952023 303.976196 
L 140.927977 303.733691 
L 145.392023 303.795456 
L 146.88 303.834758 
L 148.367977 304.016727 
L 160.272023 303.982765 
L 251.04 303.946125 
L 254.016011 303.979314 
L 258.48 303.895654 
L 276.336011 303.945209 
L 282.287977 303.721884 
L 289.727977 303.360821 
L 292.703989 303.614133 
L 295.68 303.974709 
L 297.167977 303.735543 
L 300.143989 303.602593 
L 307.583989 303.771939 
L 318 303.982774 
L 322.463989 303.674439 
L 326.927977 303.0819 
L 331.392023 302.245226 
L 332.88 302.18436 
L 334.367977 302.380793 
L 335.856011 302.896173 
L 337.343989 303.571535 
L 338.832023 303.808126 
L 340.32 303.317522 
L 341.807977 303.047913 
L 344.783989 303.002305 
L 365.616011 303.997954 
L 367.103989 303.883992 
L 370.08 303.29386 
L 371.567977 302.801235 
L 373.056011 302.104129 
L 374.543989 301.144924 
L 376.032023 299.906376 
L 379.007977 297.03483 
L 380.496011 296.272222 
L 381.983989 296.735102 
L 383.472023 298.816214 
L 384.96 301.916601 
L 386.447977 303.194426 
L 387.936011 301.146445 
L 389.423989 300.23393 
L 390.912023 300.12649 
L 393.887977 300.75838 
L 396.863989 301.383577 
L 399.84 301.796944 
L 405.792023 302.289525 
L 413.232023 302.641863 
L 413.232023 302.641863 
" clip-path="url(#pff9b953a6a)" style="fill: none; stroke: #ff0000; stroke-width: 1.5; stroke-linecap: square"/>
   </g>
   <g id="patch_13">
    <path d="M 57.6 307.584 
L 57.6 229.315765 
" style="fill: none; stroke: #000000; stroke-width: 0.8; stroke-linejoin: miter; stroke-linecap: square"/>
   </g>
   <g id="patch_14">
    <path d="M 414.72 307.584 
L 414.72 229.315765 
" style="fill: none; stroke: #000000; stroke-width: 0.8; stroke-linejoin: miter; stroke-linecap: square"/>
   </g>
   <g id="patch_15">
    <path d="M 57.6 307.584 
L 414.72 307.584 
" style="fill: none; stroke: #000000; stroke-width: 0.8; stroke-linejoin: miter; stroke-linecap: square"/>
   </g>
   <g id="patch_16">
    <path d="M 57.6 229.315765 
L 414.72 229.315765 
" style="fill: none; stroke: #000000; stroke-width: 0.8; stroke-linejoin: miter; stroke-linecap: square"/>
   </g>
  </g>
 </g>
 <defs>
  <clipPath id="p17d3571dfd">
   <rect x="57.6" y="41.472" width="357.12" height="78.268235"/>
  </clipPath>
  <clipPath id="p919c6a05ae">
   <rect x="57.6" y="135.393882" width="357.12" height="78.268235"/>
  </clipPath>
  <clipPath id="pff9b953a6a">
   <rect x="57.6" y="229.315765" width="357.12" height="78.268235"/>
  </clipPath>
 </defs>
</svg>
