<?xml version="1.0" encoding="utf-8" standalone="no"?>
<!DOCTYPE svg PUBLIC "-//W3C//DTD SVG 1.1//EN"
  "http://www.w3.org/Graphics/SVG/1.1/DTD/svg11.dtd">
<svg xmlns:xlink="http://www.w3.org/1999/xlink" width="460.8pt" height="345.6pt" viewBox="0 0 460.8 345.6" xmlns="http://www.w3.org/2000/svg" version="1.1">
 <metadata>
  <rdf:RDF xmlns:dc="http://purl.org/dc/elements/1.1/" xmlns:cc="http://creativecommons.org/ns#" xmlns:rdf="http://www.w3.org/1999/02/22-rdf-syntax-ns#">
   <cc:Work>
    <dc:type rdf:resource="http://purl.org/dc/dcmitype/StillImage"/>
    <dc:date>2023-10-17T12:54:27.009547</dc:date>
    <dc:format>image/svg+xml</dc:format>
    <dc:creator>
     <cc:Agent>
      <dc:title>Matplotlib v3.5.2, https://matplotlib.org/</dc:title>
     </cc:Agent>
    </dc:creator>
   </cc:Work>
  </rdf:RDF>
 </metadata>
 <defs>
  <style type="text/css">*{stroke-linejoin: round; stroke-linecap: butt}</style>
 </defs>
 <g id="figure_1">
  <g id="patch_1">
   <path d="M 0 345.6 
L 460.8 345.6 
L 460.8 0 
L 0 0 
z
" style="fill: #ffffff"/>
  </g>
  <g id="axes_1">
   <g id="patch_2">
    <path d="M 57.6 119.740235 
L 414.72 119.740235 
L 414.72 41.472 
L 57.6 41.472 
z
" style="fill: #ffffff"/>
   </g>
   <g id="matplotlib.axis_1">
    <g id="xtick_1">
     <g id="line2d_1">
      <defs>
       <path id="m9c8fecd23e" d="M 0 0 
L 0 3.5 
" style="stroke: #000000; stroke-width: 0.8"/>
      </defs>
      <g>
       <use xlink:href="#m9c8fecd23e" x="73.832727" y="119.740235" style="stroke: #000000; stroke-width: 0.8"/>
      </g>
     </g>
     <g id="text_1">
      <!-- 10 -->
      <g transform="translate(67.470227 134.338673)scale(0.1 -0.1)">
       <defs>
        <path id="DejaVuSans-31" d="M 794 531 
L 1825 531 
L 1825 4091 
L 703 3866 
L 703 4441 
L 1819 4666 
L 2450 4666 
L 2450 531 
L 3481 531 
L 3481 0 
L 794 0 
L 794 531 
z
" transform="scale(0.015625)"/>
        <path id="DejaVuSans-30" d="M 2034 4250 
Q 1547 4250 1301 3770 
Q 1056 3291 1056 2328 
Q 1056 1369 1301 889 
Q 1547 409 2034 409 
Q 2525 409 2770 889 
Q 3016 1369 3016 2328 
Q 3016 3291 2770 3770 
Q 2525 4250 2034 4250 
z
M 2034 4750 
Q 2819 4750 3233 4129 
Q 3647 3509 3647 2328 
Q 3647 1150 3233 529 
Q 2819 -91 2034 -91 
Q 1250 -91 836 529 
Q 422 1150 422 2328 
Q 422 3509 836 4129 
Q 1250 4750 2034 4750 
z
" transform="scale(0.015625)"/>
       </defs>
       <use xlink:href="#DejaVuSans-31"/>
       <use xlink:href="#DejaVuSans-30" x="63.623047"/>
      </g>
     </g>
    </g>
    <g id="xtick_2">
     <g id="line2d_2">
      <g>
       <use xlink:href="#m9c8fecd23e" x="182.503698" y="119.740235" style="stroke: #000000; stroke-width: 0.8"/>
      </g>
     </g>
     <g id="text_2">
      <!-- 12 -->
      <g transform="translate(176.141198 134.338673)scale(0.1 -0.1)">
       <defs>
        <path id="DejaVuSans-32" d="M 1228 531 
L 3431 531 
L 3431 0 
L 469 0 
L 469 531 
Q 828 903 1448 1529 
Q 2069 2156 2228 2338 
Q 2531 2678 2651 2914 
Q 2772 3150 2772 3378 
Q 2772 3750 2511 3984 
Q 2250 4219 1831 4219 
Q 1534 4219 1204 4116 
Q 875 4013 500 3803 
L 500 4441 
Q 881 4594 1212 4672 
Q 1544 4750 1819 4750 
Q 2544 4750 2975 4387 
Q 3406 4025 3406 3419 
Q 3406 3131 3298 2873 
Q 3191 2616 2906 2266 
Q 2828 2175 2409 1742 
Q 1991 1309 1228 531 
z
" transform="scale(0.015625)"/>
       </defs>
       <use xlink:href="#DejaVuSans-31"/>
       <use xlink:href="#DejaVuSans-32" x="63.623047"/>
      </g>
     </g>
    </g>
    <g id="xtick_3">
     <g id="line2d_3">
      <g>
       <use xlink:href="#m9c8fecd23e" x="291.174669" y="119.740235" style="stroke: #000000; stroke-width: 0.8"/>
      </g>
     </g>
     <g id="text_3">
      <!-- 14 -->
      <g transform="translate(284.812169 134.338673)scale(0.1 -0.1)">
       <defs>
        <path id="DejaVuSans-34" d="M 2419 4116 
L 825 1625 
L 2419 1625 
L 2419 4116 
z
M 2253 4666 
L 3047 4666 
L 3047 1625 
L 3713 1625 
L 3713 1100 
L 3047 1100 
L 3047 0 
L 2419 0 
L 2419 1100 
L 313 1100 
L 313 1709 
L 2253 4666 
z
" transform="scale(0.015625)"/>
       </defs>
       <use xlink:href="#DejaVuSans-31"/>
       <use xlink:href="#DejaVuSans-34" x="63.623047"/>
      </g>
     </g>
    </g>
    <g id="xtick_4">
     <g id="line2d_4">
      <g>
       <use xlink:href="#m9c8fecd23e" x="399.845639" y="119.740235" style="stroke: #000000; stroke-width: 0.8"/>
      </g>
     </g>
     <g id="text_4">
      <!-- 16 -->
      <g transform="translate(393.483139 134.338673)scale(0.1 -0.1)">
       <defs>
        <path id="DejaVuSans-36" d="M 2113 2584 
Q 1688 2584 1439 2293 
Q 1191 2003 1191 1497 
Q 1191 994 1439 701 
Q 1688 409 2113 409 
Q 2538 409 2786 701 
Q 3034 994 3034 1497 
Q 3034 2003 2786 2293 
Q 2538 2584 2113 2584 
z
M 3366 4563 
L 3366 3988 
Q 3128 4100 2886 4159 
Q 2644 4219 2406 4219 
Q 1781 4219 1451 3797 
Q 1122 3375 1075 2522 
Q 1259 2794 1537 2939 
Q 1816 3084 2150 3084 
Q 2853 3084 3261 2657 
Q 3669 2231 3669 1497 
Q 3669 778 3244 343 
Q 2819 -91 2113 -91 
Q 1303 -91 875 529 
Q 447 1150 447 2328 
Q 447 3434 972 4092 
Q 1497 4750 2381 4750 
Q 2619 4750 2861 4703 
Q 3103 4656 3366 4563 
z
" transform="scale(0.015625)"/>
       </defs>
       <use xlink:href="#DejaVuSans-31"/>
       <use xlink:href="#DejaVuSans-36" x="63.623047"/>
      </g>
     </g>
    </g>
   </g>
   <g id="matplotlib.axis_2">
    <g id="ytick_1">
     <g id="line2d_5">
      <defs>
       <path id="md9441a3a05" d="M 0 0 
L -3.5 0 
" style="stroke: #000000; stroke-width: 0.8"/>
      </defs>
      <g>
       <use xlink:href="#md9441a3a05" x="57.6" y="116.182588" style="stroke: #000000; stroke-width: 0.8"/>
      </g>
     </g>
     <g id="text_5">
      <!-- 0.0 -->
      <g transform="translate(34.696875 119.981807)scale(0.1 -0.1)">
       <defs>
        <path id="DejaVuSans-2e" d="M 684 794 
L 1344 794 
L 1344 0 
L 684 0 
L 684 794 
z
" transform="scale(0.015625)"/>
       </defs>
       <use xlink:href="#DejaVuSans-30"/>
       <use xlink:href="#DejaVuSans-2e" x="63.623047"/>
       <use xlink:href="#DejaVuSans-30" x="95.410156"/>
      </g>
     </g>
    </g>
    <g id="ytick_2">
     <g id="line2d_6">
      <g>
       <use xlink:href="#md9441a3a05" x="57.6" y="69.631976" style="stroke: #000000; stroke-width: 0.8"/>
      </g>
     </g>
     <g id="text_6">
      <!-- 0.5 -->
      <g transform="translate(34.696875 73.431195)scale(0.1 -0.1)">
       <defs>
        <path id="DejaVuSans-35" d="M 691 4666 
L 3169 4666 
L 3169 4134 
L 1269 4134 
L 1269 2991 
Q 1406 3038 1543 3061 
Q 1681 3084 1819 3084 
Q 2600 3084 3056 2656 
Q 3513 2228 3513 1497 
Q 3513 744 3044 326 
Q 2575 -91 1722 -91 
Q 1428 -91 1123 -41 
Q 819 9 494 109 
L 494 744 
Q 775 591 1075 516 
Q 1375 441 1709 441 
Q 2250 441 2565 725 
Q 2881 1009 2881 1497 
Q 2881 1984 2565 2268 
Q 2250 2553 1709 2553 
Q 1456 2553 1204 2497 
Q 953 2441 691 2322 
L 691 4666 
z
" transform="scale(0.015625)"/>
       </defs>
       <use xlink:href="#DejaVuSans-30"/>
       <use xlink:href="#DejaVuSans-2e" x="63.623047"/>
       <use xlink:href="#DejaVuSans-35" x="95.410156"/>
      </g>
     </g>
    </g>
   </g>
   <g id="line2d_7">
    <path d="M 73.832727 116.182588 
L 114.584341 115.846323 
L 118.659492 115.588564 
L 121.376277 115.290582 
L 124.093062 114.810921 
L 126.809846 114.029839 
L 128.168213 113.471301 
L 129.526579 112.758459 
L 130.884997 111.852852 
L 132.243364 110.704106 
L 133.601782 109.264943 
L 134.960148 107.482593 
L 136.318515 105.335418 
L 139.035299 100.329895 
L 140.393718 98.210635 
L 141.752084 97.557767 
L 143.11045 99.868552 
L 144.468869 106.501297 
L 145.827235 115.29476 
L 147.185653 103.742792 
L 148.54402 94.893856 
L 149.902386 90.783261 
L 151.260804 91.299458 
L 152.619171 94.624163 
L 155.335955 102.94802 
L 156.694322 106.526244 
L 158.05274 109.265001 
L 159.411106 111.202753 
L 160.769524 112.474626 
L 162.127891 113.208308 
L 163.486257 113.527654 
L 164.844676 113.527656 
L 166.203042 113.287161 
L 167.56146 112.863749 
L 172.994978 110.688189 
L 174.353396 110.52732 
L 175.711762 110.802077 
L 177.070129 111.652556 
L 178.428547 113.11261 
L 179.786913 115.081671 
L 181.145331 115.063784 
L 182.503698 112.934357 
L 183.862064 111.210299 
L 185.220483 110.08799 
L 186.578849 109.607141 
L 187.937267 109.681318 
L 189.295634 110.160228 
L 192.012418 111.743097 
L 196.087569 114.281712 
L 198.804354 115.753961 
L 200.16272 115.913874 
L 208.313074 111.702894 
L 209.671441 111.288696 
L 211.029807 111.218839 
L 212.388225 111.651798 
L 213.746592 112.684676 
L 215.10501 114.283493 
L 216.463376 116.103799 
L 217.821743 114.066852 
L 219.180161 112.294985 
L 220.538527 111.039158 
L 221.896945 110.369405 
L 223.255312 110.241184 
L 224.613678 110.526477 
L 225.972097 111.068973 
L 232.764032 114.353905 
L 236.839183 115.87374 
L 238.19755 115.99473 
L 242.272752 114.317229 
L 244.989485 113.110175 
L 246.347903 112.643137 
L 247.70627 112.418746 
L 249.064688 112.58583 
L 250.423055 113.25054 
L 251.781421 114.406184 
L 253.139839 115.901472 
L 254.498206 114.880644 
L 255.856624 113.481323 
L 257.21499 112.463949 
L 258.573357 111.878473 
L 259.931775 111.690681 
L 261.290141 111.79125 
L 264.006926 112.44956 
L 268.082077 113.517537 
L 270.798862 113.994709 
L 280.307582 115.276691 
L 283.024366 116.157362 
L 287.099517 114.235343 
L 288.457884 113.84994 
L 289.816302 113.801524 
L 291.174669 114.131261 
L 292.533035 114.784245 
L 293.891453 115.603933 
L 295.24982 115.917933 
L 296.608238 115.170512 
L 297.966604 114.556923 
L 299.324971 114.096617 
L 302.041755 113.513664 
L 307.475324 112.646792 
L 310.192109 111.975111 
L 312.908842 110.988454 
L 315.625627 109.650232 
L 318.342411 108.144717 
L 319.700778 107.545651 
L 321.059196 107.279351 
L 322.417562 107.632455 
L 323.77598 108.925232 
L 325.134347 111.396606 
L 326.492713 115.010924 
L 327.851131 113.042903 
L 329.209498 108.895176 
L 330.567916 105.871843 
L 331.926282 104.562378 
L 333.284649 104.916822 
L 334.643067 106.49214 
L 340.076585 115.326638 
L 341.435003 115.380835 
L 342.793369 113.985566 
L 345.510154 111.69999 
L 348.226938 109.563406 
L 349.585305 108.358937 
L 350.943723 106.961483 
L 352.302089 105.290986 
L 353.660456 103.261212 
L 355.018874 100.77427 
L 356.377241 97.727552 
L 357.735659 94.016199 
L 359.094025 89.544164 
L 360.452392 84.284857 
L 364.527594 66.361193 
L 365.885961 62.785708 
L 367.244327 63.826525 
L 368.602745 72.418594 
L 369.961112 90.538134 
L 371.31953 115.275565 
L 372.677896 85.730232 
L 374.036263 61.058908 
L 375.394681 47.171412 
L 376.753048 45.029647 
L 378.111466 51.650726 
L 379.469832 62.966731 
L 382.186617 87.315282 
L 383.544983 97.213278 
L 384.903401 105.077255 
L 386.261768 111.060804 
L 387.620134 115.48069 
L 388.978552 113.674133 
L 390.336919 111.346188 
L 391.695337 109.633478 
L 393.053703 108.320251 
L 395.770488 106.32247 
L 398.487273 104.659471 
L 398.487273 104.659471 
" clip-path="url(#p355354efdc)" style="fill: none; stroke: #385989; stroke-width: 1.5; stroke-linecap: square"/>
   </g>
   <g id="line2d_8">
    <path d="M 73.832727 116.182588 
L 80.624663 116.153483 
L 86.058232 116.164833 
L 99.642104 116.166353 
L 101.00047 116.110608 
L 103.717255 116.170829 
L 125.451428 116.016176 
L 130.884997 115.78739 
L 134.960148 115.377704 
L 139.035299 114.732029 
L 140.393718 114.507486 
L 141.752084 114.420842 
L 143.11045 114.75284 
L 144.468869 115.261437 
L 145.827235 116.154747 
L 148.54402 114.346945 
L 149.902386 114.081858 
L 151.260804 114.071437 
L 152.619171 114.225663 
L 153.977589 114.511094 
L 155.335955 115.273777 
L 156.694322 115.256311 
L 159.411106 115.689412 
L 162.127891 115.887514 
L 166.203042 115.938611 
L 174.353396 115.766554 
L 178.428547 115.962138 
L 179.786913 116.06286 
L 181.145331 116.048002 
L 182.503698 115.879043 
L 192.012418 115.956422 
L 198.804354 116.158012 
L 211.029807 115.851309 
L 215.10501 116.158662 
L 221.896945 115.765732 
L 232.764032 116.151124 
L 246.347903 115.741527 
L 249.064688 115.890787 
L 251.781421 116.127093 
L 255.856624 115.677659 
L 258.573357 115.666084 
L 262.648559 115.891986 
L 266.72371 116.11671 
L 268.082077 116.179852 
L 284.382733 115.637618 
L 287.099517 115.878914 
L 288.457884 116.114526 
L 293.891453 115.392606 
L 296.608238 115.477896 
L 306.116906 116.136778 
L 316.984045 115.511662 
L 322.417562 115.131811 
L 325.134347 115.399915 
L 326.492713 115.837957 
L 327.851131 116.123631 
L 329.209498 115.551854 
L 331.926282 114.911603 
L 333.284649 114.87424 
L 336.001434 115.136809 
L 341.435003 115.952668 
L 344.151787 116.159682 
L 356.377241 115.241817 
L 360.452392 114.507314 
L 364.527594 113.542316 
L 365.885961 113.369661 
L 367.244327 113.443192 
L 368.602745 113.940792 
L 369.961112 114.856679 
L 371.31953 115.908825 
L 374.036263 112.887205 
L 375.394681 112.37587 
L 376.753048 112.32542 
L 378.111466 112.817772 
L 383.544983 115.423911 
L 386.261768 116.175048 
L 388.978552 115.728611 
L 394.41207 115.206131 
L 398.487273 114.785274 
L 398.487273 114.785274 
" clip-path="url(#p355354efdc)" style="fill: none; stroke: #d22027; stroke-width: 1.5; stroke-linecap: square"/>
   </g>
   <g id="patch_3">
    <path d="M 57.6 119.740235 
L 57.6 41.472 
" style="fill: none; stroke: #000000; stroke-width: 0.8; stroke-linejoin: miter; stroke-linecap: square"/>
   </g>
   <g id="patch_4">
    <path d="M 414.72 119.740235 
L 414.72 41.472 
" style="fill: none; stroke: #000000; stroke-width: 0.8; stroke-linejoin: miter; stroke-linecap: square"/>
   </g>
   <g id="patch_5">
    <path d="M 57.6 119.740235 
L 414.72 119.740235 
" style="fill: none; stroke: #000000; stroke-width: 0.8; stroke-linejoin: miter; stroke-linecap: square"/>
   </g>
   <g id="patch_6">
    <path d="M 57.6 41.472 
L 414.72 41.472 
" style="fill: none; stroke: #000000; stroke-width: 0.8; stroke-linejoin: miter; stroke-linecap: square"/>
   </g>
  </g>
  <g id="axes_2">
   <g id="patch_7">
    <path d="M 57.6 213.662118 
L 414.72 213.662118 
L 414.72 135.393882 
L 57.6 135.393882 
z
" style="fill: #ffffff"/>
   </g>
   <g id="matplotlib.axis_3">
    <g id="xtick_5">
     <g id="line2d_9">
      <g>
       <use xlink:href="#m9c8fecd23e" x="73.832727" y="213.662118" style="stroke: #000000; stroke-width: 0.8"/>
      </g>
     </g>
     <g id="text_7">
      <!-- 10 -->
      <g transform="translate(67.470227 228.260555)scale(0.1 -0.1)">
       <use xlink:href="#DejaVuSans-31"/>
       <use xlink:href="#DejaVuSans-30" x="63.623047"/>
      </g>
     </g>
    </g>
    <g id="xtick_6">
     <g id="line2d_10">
      <g>
       <use xlink:href="#m9c8fecd23e" x="182.503698" y="213.662118" style="stroke: #000000; stroke-width: 0.8"/>
      </g>
     </g>
     <g id="text_8">
      <!-- 12 -->
      <g transform="translate(176.141198 228.260555)scale(0.1 -0.1)">
       <use xlink:href="#DejaVuSans-31"/>
       <use xlink:href="#DejaVuSans-32" x="63.623047"/>
      </g>
     </g>
    </g>
    <g id="xtick_7">
     <g id="line2d_11">
      <g>
       <use xlink:href="#m9c8fecd23e" x="291.174669" y="213.662118" style="stroke: #000000; stroke-width: 0.8"/>
      </g>
     </g>
     <g id="text_9">
      <!-- 14 -->
      <g transform="translate(284.812169 228.260555)scale(0.1 -0.1)">
       <use xlink:href="#DejaVuSans-31"/>
       <use xlink:href="#DejaVuSans-34" x="63.623047"/>
      </g>
     </g>
    </g>
    <g id="xtick_8">
     <g id="line2d_12">
      <g>
       <use xlink:href="#m9c8fecd23e" x="399.845639" y="213.662118" style="stroke: #000000; stroke-width: 0.8"/>
      </g>
     </g>
     <g id="text_10">
      <!-- 16 -->
      <g transform="translate(393.483139 228.260555)scale(0.1 -0.1)">
       <use xlink:href="#DejaVuSans-31"/>
       <use xlink:href="#DejaVuSans-36" x="63.623047"/>
      </g>
     </g>
    </g>
   </g>
   <g id="matplotlib.axis_4">
    <g id="ytick_3">
     <g id="line2d_13">
      <g>
       <use xlink:href="#md9441a3a05" x="57.6" y="210.104471" style="stroke: #000000; stroke-width: 0.8"/>
      </g>
     </g>
     <g id="text_11">
      <!-- 0 -->
      <g transform="translate(44.2375 213.903689)scale(0.1 -0.1)">
       <use xlink:href="#DejaVuSans-30"/>
      </g>
     </g>
    </g>
    <g id="ytick_4">
     <g id="line2d_14">
      <g>
       <use xlink:href="#md9441a3a05" x="57.6" y="164.145528" style="stroke: #000000; stroke-width: 0.8"/>
      </g>
     </g>
     <g id="text_12">
      <!-- 1 -->
      <g transform="translate(44.2375 167.944747)scale(0.1 -0.1)">
       <use xlink:href="#DejaVuSans-31"/>
      </g>
     </g>
    </g>
   </g>
   <g id="line2d_15">
    <path d="M 73.832727 210.104471 
L 88.774965 210.026399 
L 102.358836 210.036835 
L 110.50919 209.930929 
L 117.301126 209.675577 
L 121.376277 209.294348 
L 124.093062 208.829392 
L 126.809846 208.068023 
L 128.168213 207.523792 
L 129.526579 206.831394 
L 130.884997 205.957764 
L 132.243364 204.863706 
L 133.601782 203.525052 
L 134.960148 201.936826 
L 137.676933 198.483917 
L 139.035299 197.42034 
L 140.393718 198.057212 
L 141.752084 202.012167 
L 143.11045 209.564418 
L 144.468869 197.327908 
L 145.827235 186.602757 
L 147.185653 182.737137 
L 148.54402 186.355594 
L 151.260804 202.293111 
L 152.619171 207.231763 
L 153.977589 210.051528 
L 155.335955 208.883727 
L 156.694322 208.665104 
L 158.05274 208.964098 
L 160.769524 210.001447 
L 162.127891 209.642145 
L 167.56146 207.494698 
L 170.278193 206.699378 
L 171.636611 206.561455 
L 172.994978 206.745213 
L 174.353396 207.377371 
L 175.711762 208.530137 
L 177.070129 210.0503 
L 179.786913 206.403043 
L 181.145331 205.139459 
L 182.503698 204.606591 
L 183.862064 204.802055 
L 185.220483 205.524537 
L 189.295634 208.371854 
L 190.654 209.086368 
L 192.012418 209.639455 
L 193.370785 210.064514 
L 198.804354 208.930831 
L 202.879505 207.861373 
L 205.59629 207.103775 
L 206.954656 206.854525 
L 208.313074 206.827068 
L 209.671441 207.160617 
L 211.029807 207.973104 
L 212.388225 209.302885 
L 213.746592 209.194944 
L 215.10501 207.417426 
L 216.463376 205.982439 
L 217.821743 205.199987 
L 219.180161 205.139065 
L 220.538527 205.662717 
L 224.613678 208.173625 
L 225.972097 208.816872 
L 227.330463 209.300094 
L 230.047248 209.907204 
L 231.405614 210.099458 
L 236.839183 209.293357 
L 239.555968 208.691255 
L 243.631119 207.670558 
L 244.989485 207.508415 
L 246.347903 207.625651 
L 247.70627 208.146808 
L 249.064688 209.13192 
L 250.423055 209.728538 
L 251.781421 208.288442 
L 253.139839 207.111736 
L 254.498206 206.438999 
L 255.856624 206.343289 
L 257.21499 206.691366 
L 261.290141 208.354116 
L 262.648559 208.7523 
L 265.365292 209.203184 
L 268.082077 209.358392 
L 276.232431 209.615657 
L 278.949164 210.011575 
L 280.307582 209.863536 
L 285.741099 208.128763 
L 287.099517 208.119723 
L 288.457884 208.496248 
L 289.816302 209.20617 
L 291.174669 210.095777 
L 292.533035 209.285277 
L 293.891453 208.707954 
L 295.24982 208.384262 
L 296.608238 208.257721 
L 304.75854 208.191052 
L 307.475324 207.821063 
L 310.192109 207.224666 
L 312.908842 206.39019 
L 316.984045 204.993167 
L 318.342411 204.755363 
L 319.700778 204.907327 
L 321.059196 205.697918 
L 322.417562 207.408361 
L 323.77598 210.024165 
L 326.492713 202.626299 
L 327.851131 199.871842 
L 329.209498 199.140384 
L 330.567916 200.642798 
L 334.643067 209.257452 
L 336.001434 209.089525 
L 337.359852 207.954069 
L 338.718218 207.319337 
L 340.076585 206.959224 
L 344.151787 206.202725 
L 345.510154 205.818522 
L 346.86852 205.296468 
L 348.226938 204.603402 
L 349.585305 203.703938 
L 350.943723 202.555018 
L 352.302089 201.107027 
L 353.660456 199.301648 
L 355.018874 197.071311 
L 356.377241 194.353805 
L 357.735659 191.107328 
L 359.094025 187.344245 
L 361.81081 179.179722 
L 363.169176 176.118168 
L 364.527594 175.676005 
L 365.885961 180.311411 
L 368.602745 205.643333 
L 369.961112 177.5848 
L 371.31953 151.827401 
L 372.677896 138.951529 
L 374.036263 143.652687 
L 375.394681 160.718308 
L 376.753048 180.70095 
L 378.111466 197.27176 
L 379.469832 208.380622 
L 382.186617 202.827743 
L 383.544983 201.928357 
L 384.903401 202.005266 
L 390.336919 203.817698 
L 391.695337 203.95291 
L 393.053703 203.923137 
L 395.770488 203.489986 
L 398.487273 202.880446 
L 398.487273 202.880446 
" clip-path="url(#p3074d5b043)" style="fill: none; stroke: #385989; stroke-width: 1.5; stroke-linecap: square"/>
   </g>
   <g id="line2d_16">
    <path d="M 73.832727 210.104471 
L 83.341448 210.096617 
L 129.526579 209.806837 
L 133.601782 209.499559 
L 139.035299 208.913333 
L 140.393718 208.992585 
L 141.752084 209.330906 
L 143.11045 210.058508 
L 144.468869 208.893627 
L 145.827235 208.093899 
L 147.185653 208.006865 
L 148.54402 208.118387 
L 149.902386 208.747553 
L 151.260804 209.502744 
L 153.977589 210.021962 
L 155.335955 209.917442 
L 159.411106 210.050627 
L 162.127891 210.071856 
L 171.636611 209.86224 
L 178.428547 210.005936 
L 179.786913 209.773996 
L 186.578849 209.916924 
L 192.012418 210.104266 
L 208.313074 209.86371 
L 209.671441 210.042512 
L 213.746592 209.970375 
L 216.463376 209.787837 
L 219.180161 209.792699 
L 227.330463 210.071621 
L 244.989485 209.867225 
L 249.064688 209.994598 
L 251.781421 209.702515 
L 254.498206 209.63257 
L 262.648559 210.059601 
L 281.665948 209.750653 
L 284.382733 209.946171 
L 285.741099 210.085569 
L 289.816302 209.448221 
L 292.533035 209.471602 
L 297.966604 210.056072 
L 300.683389 210.029198 
L 315.625627 209.630947 
L 319.700778 209.452243 
L 322.417562 209.626477 
L 323.77598 209.914834 
L 325.134347 209.916055 
L 327.851131 209.052639 
L 329.209498 208.877813 
L 330.567916 208.943722 
L 333.284649 209.497339 
L 336.001434 209.99406 
L 337.359852 210.066417 
L 341.435003 209.913702 
L 349.585305 209.772668 
L 353.660456 209.539616 
L 357.735659 209.098424 
L 363.169176 208.300147 
L 364.527594 208.271723 
L 365.885961 208.578085 
L 367.244327 209.245794 
L 368.602745 209.761914 
L 371.31953 206.826055 
L 372.677896 206.234504 
L 374.036263 206.578956 
L 376.753048 208.756618 
L 378.111466 209.645921 
L 379.469832 210.004641 
L 380.828199 209.695413 
L 383.544983 209.515364 
L 393.053703 209.453542 
L 398.487273 209.098629 
L 398.487273 209.098629 
" clip-path="url(#p3074d5b043)" style="fill: none; stroke: #d22027; stroke-width: 1.5; stroke-linecap: square"/>
   </g>
   <g id="patch_8">
    <path d="M 57.6 213.662118 
L 57.6 135.393882 
" style="fill: none; stroke: #000000; stroke-width: 0.8; stroke-linejoin: miter; stroke-linecap: square"/>
   </g>
   <g id="patch_9">
    <path d="M 414.72 213.662118 
L 414.72 135.393882 
" style="fill: none; stroke: #000000; stroke-width: 0.8; stroke-linejoin: miter; stroke-linecap: square"/>
   </g>
   <g id="patch_10">
    <path d="M 57.6 213.662118 
L 414.72 213.662118 
" style="fill: none; stroke: #000000; stroke-width: 0.8; stroke-linejoin: miter; stroke-linecap: square"/>
   </g>
   <g id="patch_11">
    <path d="M 57.6 135.393882 
L 414.72 135.393882 
" style="fill: none; stroke: #000000; stroke-width: 0.8; stroke-linejoin: miter; stroke-linecap: square"/>
   </g>
  </g>
  <g id="axes_3">
   <g id="patch_12">
    <path d="M 57.6 307.584 
L 414.72 307.584 
L 414.72 229.315765 
L 57.6 229.315765 
z
" style="fill: #ffffff"/>
   </g>
   <g id="matplotlib.axis_5">
    <g id="xtick_9">
     <g id="line2d_17">
      <g>
       <use xlink:href="#m9c8fecd23e" x="73.832727" y="307.584" style="stroke: #000000; stroke-width: 0.8"/>
      </g>
     </g>
     <g id="text_13">
      <!-- 10 -->
      <g transform="translate(67.470227 322.182437)scale(0.1 -0.1)">
       <use xlink:href="#DejaVuSans-31"/>
       <use xlink:href="#DejaVuSans-30" x="63.623047"/>
      </g>
     </g>
    </g>
    <g id="xtick_10">
     <g id="line2d_18">
      <g>
       <use xlink:href="#m9c8fecd23e" x="182.503698" y="307.584" style="stroke: #000000; stroke-width: 0.8"/>
      </g>
     </g>
     <g id="text_14">
      <!-- 12 -->
      <g transform="translate(176.141198 322.182437)scale(0.1 -0.1)">
       <use xlink:href="#DejaVuSans-31"/>
       <use xlink:href="#DejaVuSans-32" x="63.623047"/>
      </g>
     </g>
    </g>
    <g id="xtick_11">
     <g id="line2d_19">
      <g>
       <use xlink:href="#m9c8fecd23e" x="291.174669" y="307.584" style="stroke: #000000; stroke-width: 0.8"/>
      </g>
     </g>
     <g id="text_15">
      <!-- 14 -->
      <g transform="translate(284.812169 322.182437)scale(0.1 -0.1)">
       <use xlink:href="#DejaVuSans-31"/>
       <use xlink:href="#DejaVuSans-34" x="63.623047"/>
      </g>
     </g>
    </g>
    <g id="xtick_12">
     <g id="line2d_20">
      <g>
       <use xlink:href="#m9c8fecd23e" x="399.845639" y="307.584" style="stroke: #000000; stroke-width: 0.8"/>
      </g>
     </g>
     <g id="text_16">
      <!-- 16 -->
      <g transform="translate(393.483139 322.182437)scale(0.1 -0.1)">
       <use xlink:href="#DejaVuSans-31"/>
       <use xlink:href="#DejaVuSans-36" x="63.623047"/>
      </g>
     </g>
    </g>
   </g>
   <g id="matplotlib.axis_6">
    <g id="ytick_5">
     <g id="line2d_21">
      <g>
       <use xlink:href="#md9441a3a05" x="57.6" y="304.026353" style="stroke: #000000; stroke-width: 0.8"/>
      </g>
     </g>
     <g id="text_17">
      <!-- 0 -->
      <g transform="translate(44.2375 307.825572)scale(0.1 -0.1)">
       <use xlink:href="#DejaVuSans-30"/>
      </g>
     </g>
    </g>
    <g id="ytick_6">
     <g id="line2d_22">
      <g>
       <use xlink:href="#md9441a3a05" x="57.6" y="262.874747" style="stroke: #000000; stroke-width: 0.8"/>
      </g>
     </g>
     <g id="text_18">
      <!-- 1 -->
      <g transform="translate(44.2375 266.673966)scale(0.1 -0.1)">
       <use xlink:href="#DejaVuSans-31"/>
      </g>
     </g>
    </g>
   </g>
   <g id="line2d_23">
    <path d="M 73.832727 304.026353 
L 109.150772 303.912253 
L 124.093062 303.880679 
L 128.168213 303.594832 
L 130.884997 303.124246 
L 132.243364 302.687233 
L 133.601782 302.002388 
L 134.960148 300.924289 
L 136.318515 299.235929 
L 137.676933 296.64807 
L 139.035299 292.847546 
L 140.393718 287.720244 
L 141.752084 281.904862 
L 143.11045 277.553531 
L 144.468869 278.301983 
L 145.827235 286.14582 
L 147.185653 298.077394 
L 148.54402 299.208648 
L 149.902386 293.097271 
L 151.260804 291.867544 
L 152.619171 292.968361 
L 155.335955 296.380981 
L 156.694322 297.667232 
L 158.05274 298.610002 
L 159.411106 299.328102 
L 162.127891 300.364474 
L 164.844676 301.336181 
L 167.56146 302.588149 
L 168.919827 303.402328 
L 170.278193 303.678201 
L 172.994978 301.301482 
L 174.353396 300.05385 
L 175.711762 298.993185 
L 177.070129 298.381351 
L 178.428547 298.43725 
L 179.786913 299.253807 
L 181.145331 300.703924 
L 182.503698 302.475933 
L 183.862064 303.836691 
L 185.220483 302.392347 
L 186.578849 301.351232 
L 187.937267 300.691124 
L 189.295634 300.328536 
L 190.654 300.17501 
L 193.370785 300.240248 
L 196.087569 300.561308 
L 198.804354 301.056792 
L 201.521138 301.783048 
L 202.879505 302.279133 
L 204.237871 302.897501 
L 205.59629 303.667463 
L 206.954656 303.445245 
L 212.388225 299.155595 
L 213.746592 298.862392 
L 215.10501 299.286701 
L 216.463376 300.404703 
L 219.180161 303.5929 
L 220.538527 303.04874 
L 221.896945 302.003229 
L 223.255312 301.32436 
L 224.613678 300.938657 
L 225.972097 300.753002 
L 228.688881 300.72515 
L 232.764032 301.028541 
L 236.839183 301.557507 
L 239.555968 302.137331 
L 240.914334 302.555552 
L 242.272752 303.099666 
L 243.631119 303.798901 
L 244.989485 303.385529 
L 247.70627 301.379785 
L 249.064688 300.561998 
L 250.423055 300.183039 
L 251.781421 300.397948 
L 253.139839 301.18706 
L 255.856624 303.531027 
L 257.21499 303.496468 
L 258.573357 302.745001 
L 259.931775 302.255721 
L 261.290141 301.96176 
L 264.006926 301.729263 
L 269.440495 301.719872 
L 276.232431 301.667184 
L 280.307582 301.664877 
L 281.665948 301.800787 
L 283.024366 302.097247 
L 284.382733 302.616336 
L 285.741099 303.353687 
L 287.099517 303.822682 
L 288.457884 302.979768 
L 289.816302 302.361616 
L 291.174669 302.091248 
L 292.533035 302.186671 
L 295.24982 302.939781 
L 297.966604 303.698561 
L 299.324971 303.979885 
L 306.116906 303.254128 
L 310.192109 302.656259 
L 312.908842 301.945461 
L 314.26726 301.407794 
L 315.625627 300.69073 
L 316.984045 299.743295 
L 318.342411 298.523099 
L 319.700778 297.032103 
L 322.417562 293.760105 
L 323.77598 292.715393 
L 325.134347 292.844833 
L 326.492713 294.64027 
L 327.851131 298.118253 
L 329.209498 302.509157 
L 330.567916 301.482085 
L 331.926282 298.72662 
L 333.284649 297.430356 
L 334.643067 297.225762 
L 336.001434 297.634121 
L 340.076585 299.459111 
L 342.793369 300.370645 
L 350.943723 302.815478 
L 352.302089 303.414684 
L 353.660456 303.867647 
L 355.018874 302.836018 
L 356.377241 301.403895 
L 357.735659 299.36891 
L 359.094025 296.440144 
L 360.452392 292.213131 
L 361.81081 286.178169 
L 363.169176 277.80608 
L 364.527594 266.812598 
L 367.244327 240.863418 
L 368.602745 232.873412 
L 369.961112 235.751453 
L 371.31953 253.000836 
L 372.677896 281.034918 
L 374.036263 298.230045 
L 375.394681 277.976072 
L 376.753048 268.603296 
L 378.111466 267.144956 
L 379.469832 269.624246 
L 382.186617 276.547532 
L 383.544983 279.259504 
L 384.903401 281.385643 
L 386.261768 283.066333 
L 387.620134 284.434209 
L 388.978552 285.572175 
L 390.336919 286.532304 
L 391.695337 287.327322 
L 393.053703 287.966227 
L 394.41207 288.434908 
L 395.770488 288.715429 
L 397.128855 288.779178 
L 398.487273 288.586657 
L 398.487273 288.586657 
" clip-path="url(#p9adaa6e7c7)" style="fill: none; stroke: #385989; stroke-width: 1.5; stroke-linecap: square"/>
   </g>
   <g id="line2d_24">
    <path d="M 73.832727 304.026353 
L 83.341448 303.977699 
L 106.434039 304.013965 
L 129.526579 303.951014 
L 133.601782 303.838267 
L 136.318515 303.594291 
L 139.035299 303.017343 
L 143.11045 301.544186 
L 144.468869 301.750785 
L 147.185653 303.564712 
L 148.54402 303.613332 
L 149.902386 303.08306 
L 152.619171 302.972673 
L 158.05274 303.636706 
L 166.203042 303.902354 
L 170.278193 303.980245 
L 174.353396 303.689144 
L 178.428547 303.681836 
L 179.786913 303.833399 
L 186.578849 303.848701 
L 193.370785 303.812961 
L 202.879505 303.958192 
L 205.59629 303.991925 
L 215.10501 303.741558 
L 217.821743 303.965561 
L 220.538527 303.890661 
L 223.255312 303.800978 
L 230.047248 303.832483 
L 240.914334 303.938477 
L 249.064688 303.51756 
L 251.781421 303.692878 
L 254.498206 304.020407 
L 257.21499 303.781224 
L 261.290141 303.710767 
L 278.949164 303.88646 
L 285.741099 303.365984 
L 287.099517 303.356425 
L 289.816302 303.679064 
L 291.174669 303.949325 
L 293.891453 303.714474 
L 296.608238 303.589585 
L 302.041755 303.663885 
L 312.908842 303.938235 
L 315.625627 303.968061 
L 318.342411 303.708775 
L 325.134347 302.752103 
L 326.492713 302.877373 
L 327.851131 303.167808 
L 329.209498 303.650783 
L 330.567916 303.957123 
L 331.926282 303.593651 
L 333.284649 303.397509 
L 336.001434 303.324909 
L 355.018874 303.9308 
L 356.377241 304.015739 
L 359.094025 303.750755 
L 361.81081 303.175417 
L 364.527594 302.100831 
L 367.244327 300.716907 
L 368.602745 300.280677 
L 369.961112 300.445124 
L 371.31953 301.498965 
L 372.677896 303.102242 
L 374.036263 303.28141 
L 375.394681 302.348398 
L 376.753048 301.923656 
L 378.111466 301.926387 
L 386.261768 302.830929 
L 391.695337 303.031401 
L 397.128855 302.988029 
L 398.487273 302.897571 
L 398.487273 302.897571 
" clip-path="url(#p9adaa6e7c7)" style="fill: none; stroke: #d22027; stroke-width: 1.5; stroke-linecap: square"/>
   </g>
   <g id="patch_13">
    <path d="M 57.6 307.584 
L 57.6 229.315765 
" style="fill: none; stroke: #000000; stroke-width: 0.8; stroke-linejoin: miter; stroke-linecap: square"/>
   </g>
   <g id="patch_14">
    <path d="M 414.72 307.584 
L 414.72 229.315765 
" style="fill: none; stroke: #000000; stroke-width: 0.8; stroke-linejoin: miter; stroke-linecap: square"/>
   </g>
   <g id="patch_15">
    <path d="M 57.6 307.584 
L 414.72 307.584 
" style="fill: none; stroke: #000000; stroke-width: 0.8; stroke-linejoin: miter; stroke-linecap: square"/>
   </g>
   <g id="patch_16">
    <path d="M 57.6 229.315765 
L 414.72 229.315765 
" style="fill: none; stroke: #000000; stroke-width: 0.8; stroke-linejoin: miter; stroke-linecap: square"/>
   </g>
  </g>
 </g>
 <defs>
  <clipPath id="p355354efdc">
   <rect x="57.6" y="41.472" width="357.12" height="78.268235"/>
  </clipPath>
  <clipPath id="p3074d5b043">
   <rect x="57.6" y="135.393882" width="357.12" height="78.268235"/>
  </clipPath>
  <clipPath id="p9adaa6e7c7">
   <rect x="57.6" y="229.315765" width="357.12" height="78.268235"/>
  </clipPath>
 </defs>
</svg>
