<?xml version="1.0" encoding="utf-8" standalone="no"?>
<!DOCTYPE svg PUBLIC "-//W3C//DTD SVG 1.1//EN"
  "http://www.w3.org/Graphics/SVG/1.1/DTD/svg11.dtd">
<svg xmlns:xlink="http://www.w3.org/1999/xlink" width="460.8pt" height="345.6pt" viewBox="0 0 460.8 345.6" xmlns="http://www.w3.org/2000/svg" version="1.1">
 <metadata>
  <rdf:RDF xmlns:dc="http://purl.org/dc/elements/1.1/" xmlns:cc="http://creativecommons.org/ns#" xmlns:rdf="http://www.w3.org/1999/02/22-rdf-syntax-ns#">
   <cc:Work>
    <dc:type rdf:resource="http://purl.org/dc/dcmitype/StillImage"/>
    <dc:date>2023-10-17T13:03:15.519439</dc:date>
    <dc:format>image/svg+xml</dc:format>
    <dc:creator>
     <cc:Agent>
      <dc:title>Matplotlib v3.5.2, https://matplotlib.org/</dc:title>
     </cc:Agent>
    </dc:creator>
   </cc:Work>
  </rdf:RDF>
 </metadata>
 <defs>
  <style type="text/css">*{stroke-linejoin: round; stroke-linecap: butt}</style>
 </defs>
 <g id="figure_1">
  <g id="patch_1">
   <path d="M 0 345.6 
L 460.8 345.6 
L 460.8 0 
L 0 0 
z
" style="fill: #ffffff"/>
  </g>
  <g id="axes_1">
   <g id="patch_2">
    <path d="M 57.6 119.740235 
L 414.72 119.740235 
L 414.72 41.472 
L 57.6 41.472 
z
" style="fill: #ffffff"/>
   </g>
   <g id="matplotlib.axis_1">
    <g id="xtick_1">
     <g id="line2d_1">
      <defs>
       <path id="mddd72e7dba" d="M 0 0 
L 0 3.5 
" style="stroke: #000000; stroke-width: 0.8"/>
      </defs>
      <g>
       <use xlink:href="#mddd72e7dba" x="72.474361" y="119.740235" style="stroke: #000000; stroke-width: 0.8"/>
      </g>
     </g>
     <g id="text_1">
      <!-- 10 -->
      <g transform="translate(66.111861 134.338673)scale(0.1 -0.1)">
       <defs>
        <path id="DejaVuSans-31" d="M 794 531 
L 1825 531 
L 1825 4091 
L 703 3866 
L 703 4441 
L 1819 4666 
L 2450 4666 
L 2450 531 
L 3481 531 
L 3481 0 
L 794 0 
L 794 531 
z
" transform="scale(0.015625)"/>
        <path id="DejaVuSans-30" d="M 2034 4250 
Q 1547 4250 1301 3770 
Q 1056 3291 1056 2328 
Q 1056 1369 1301 889 
Q 1547 409 2034 409 
Q 2525 409 2770 889 
Q 3016 1369 3016 2328 
Q 3016 3291 2770 3770 
Q 2525 4250 2034 4250 
z
M 2034 4750 
Q 2819 4750 3233 4129 
Q 3647 3509 3647 2328 
Q 3647 1150 3233 529 
Q 2819 -91 2034 -91 
Q 1250 -91 836 529 
Q 422 1150 422 2328 
Q 422 3509 836 4129 
Q 1250 4750 2034 4750 
z
" transform="scale(0.015625)"/>
       </defs>
       <use xlink:href="#DejaVuSans-31"/>
       <use xlink:href="#DejaVuSans-30" x="63.623047"/>
      </g>
     </g>
    </g>
    <g id="xtick_2">
     <g id="line2d_2">
      <g>
       <use xlink:href="#mddd72e7dba" x="181.145331" y="119.740235" style="stroke: #000000; stroke-width: 0.8"/>
      </g>
     </g>
     <g id="text_2">
      <!-- 12 -->
      <g transform="translate(174.782831 134.338673)scale(0.1 -0.1)">
       <defs>
        <path id="DejaVuSans-32" d="M 1228 531 
L 3431 531 
L 3431 0 
L 469 0 
L 469 531 
Q 828 903 1448 1529 
Q 2069 2156 2228 2338 
Q 2531 2678 2651 2914 
Q 2772 3150 2772 3378 
Q 2772 3750 2511 3984 
Q 2250 4219 1831 4219 
Q 1534 4219 1204 4116 
Q 875 4013 500 3803 
L 500 4441 
Q 881 4594 1212 4672 
Q 1544 4750 1819 4750 
Q 2544 4750 2975 4387 
Q 3406 4025 3406 3419 
Q 3406 3131 3298 2873 
Q 3191 2616 2906 2266 
Q 2828 2175 2409 1742 
Q 1991 1309 1228 531 
z
" transform="scale(0.015625)"/>
       </defs>
       <use xlink:href="#DejaVuSans-31"/>
       <use xlink:href="#DejaVuSans-32" x="63.623047"/>
      </g>
     </g>
    </g>
    <g id="xtick_3">
     <g id="line2d_3">
      <g>
       <use xlink:href="#mddd72e7dba" x="289.816302" y="119.740235" style="stroke: #000000; stroke-width: 0.8"/>
      </g>
     </g>
     <g id="text_3">
      <!-- 14 -->
      <g transform="translate(283.453802 134.338673)scale(0.1 -0.1)">
       <defs>
        <path id="DejaVuSans-34" d="M 2419 4116 
L 825 1625 
L 2419 1625 
L 2419 4116 
z
M 2253 4666 
L 3047 4666 
L 3047 1625 
L 3713 1625 
L 3713 1100 
L 3047 1100 
L 3047 0 
L 2419 0 
L 2419 1100 
L 313 1100 
L 313 1709 
L 2253 4666 
z
" transform="scale(0.015625)"/>
       </defs>
       <use xlink:href="#DejaVuSans-31"/>
       <use xlink:href="#DejaVuSans-34" x="63.623047"/>
      </g>
     </g>
    </g>
    <g id="xtick_4">
     <g id="line2d_4">
      <g>
       <use xlink:href="#mddd72e7dba" x="398.487273" y="119.740235" style="stroke: #000000; stroke-width: 0.8"/>
      </g>
     </g>
     <g id="text_4">
      <!-- 16 -->
      <g transform="translate(392.124773 134.338673)scale(0.1 -0.1)">
       <defs>
        <path id="DejaVuSans-36" d="M 2113 2584 
Q 1688 2584 1439 2293 
Q 1191 2003 1191 1497 
Q 1191 994 1439 701 
Q 1688 409 2113 409 
Q 2538 409 2786 701 
Q 3034 994 3034 1497 
Q 3034 2003 2786 2293 
Q 2538 2584 2113 2584 
z
M 3366 4563 
L 3366 3988 
Q 3128 4100 2886 4159 
Q 2644 4219 2406 4219 
Q 1781 4219 1451 3797 
Q 1122 3375 1075 2522 
Q 1259 2794 1537 2939 
Q 1816 3084 2150 3084 
Q 2853 3084 3261 2657 
Q 3669 2231 3669 1497 
Q 3669 778 3244 343 
Q 2819 -91 2113 -91 
Q 1303 -91 875 529 
Q 447 1150 447 2328 
Q 447 3434 972 4092 
Q 1497 4750 2381 4750 
Q 2619 4750 2861 4703 
Q 3103 4656 3366 4563 
z
" transform="scale(0.015625)"/>
       </defs>
       <use xlink:href="#DejaVuSans-31"/>
       <use xlink:href="#DejaVuSans-36" x="63.623047"/>
      </g>
     </g>
    </g>
   </g>
   <g id="matplotlib.axis_2">
    <g id="ytick_1">
     <g id="line2d_5">
      <defs>
       <path id="mde390dfb80" d="M 0 0 
L -3.5 0 
" style="stroke: #000000; stroke-width: 0.8"/>
      </defs>
      <g>
       <use xlink:href="#mde390dfb80" x="57.6" y="116.184644" style="stroke: #000000; stroke-width: 0.8"/>
      </g>
     </g>
     <g id="text_5">
      <!-- 0.00 -->
      <g transform="translate(28.334375 119.983862)scale(0.1 -0.1)">
       <defs>
        <path id="DejaVuSans-2e" d="M 684 794 
L 1344 794 
L 1344 0 
L 684 0 
L 684 794 
z
" transform="scale(0.015625)"/>
       </defs>
       <use xlink:href="#DejaVuSans-30"/>
       <use xlink:href="#DejaVuSans-2e" x="63.623047"/>
       <use xlink:href="#DejaVuSans-30" x="95.410156"/>
       <use xlink:href="#DejaVuSans-30" x="159.033203"/>
      </g>
     </g>
    </g>
    <g id="ytick_2">
     <g id="line2d_6">
      <g>
       <use xlink:href="#mde390dfb80" x="57.6" y="84.679315" style="stroke: #000000; stroke-width: 0.8"/>
      </g>
     </g>
     <g id="text_6">
      <!-- 0.25 -->
      <g transform="translate(28.334375 88.478534)scale(0.1 -0.1)">
       <defs>
        <path id="DejaVuSans-35" d="M 691 4666 
L 3169 4666 
L 3169 4134 
L 1269 4134 
L 1269 2991 
Q 1406 3038 1543 3061 
Q 1681 3084 1819 3084 
Q 2600 3084 3056 2656 
Q 3513 2228 3513 1497 
Q 3513 744 3044 326 
Q 2575 -91 1722 -91 
Q 1428 -91 1123 -41 
Q 819 9 494 109 
L 494 744 
Q 775 591 1075 516 
Q 1375 441 1709 441 
Q 2250 441 2565 725 
Q 2881 1009 2881 1497 
Q 2881 1984 2565 2268 
Q 2250 2553 1709 2553 
Q 1456 2553 1204 2497 
Q 953 2441 691 2322 
L 691 4666 
z
" transform="scale(0.015625)"/>
       </defs>
       <use xlink:href="#DejaVuSans-30"/>
       <use xlink:href="#DejaVuSans-2e" x="63.623047"/>
       <use xlink:href="#DejaVuSans-32" x="95.410156"/>
       <use xlink:href="#DejaVuSans-35" x="159.033203"/>
      </g>
     </g>
    </g>
    <g id="ytick_3">
     <g id="line2d_7">
      <g>
       <use xlink:href="#mde390dfb80" x="57.6" y="53.173987" style="stroke: #000000; stroke-width: 0.8"/>
      </g>
     </g>
     <g id="text_7">
      <!-- 0.50 -->
      <g transform="translate(28.334375 56.973206)scale(0.1 -0.1)">
       <use xlink:href="#DejaVuSans-30"/>
       <use xlink:href="#DejaVuSans-2e" x="63.623047"/>
       <use xlink:href="#DejaVuSans-35" x="95.410156"/>
       <use xlink:href="#DejaVuSans-30" x="159.033203"/>
      </g>
     </g>
    </g>
   </g>
   <g id="line2d_8">
    <path d="M 73.832727 115.975635 
L 79.266297 116.149457 
L 80.624663 116.01966 
L 81.983081 116.169108 
L 83.341448 116.077737 
L 84.699866 116.164359 
L 86.058232 115.962354 
L 90.133383 116.075263 
L 92.850168 115.717113 
L 96.925319 116.047771 
L 98.283737 115.955328 
L 99.642104 116.12792 
L 110.50919 115.993317 
L 117.301126 116.171237 
L 126.809846 115.828881 
L 130.884997 115.672803 
L 132.243415 115.746017 
L 133.601782 116.000842 
L 134.960148 115.283914 
L 136.318566 113.09766 
L 137.676933 109.221487 
L 139.035351 104.157712 
L 140.393718 101.732375 
L 141.752084 109.701662 
L 143.110502 100.485818 
L 144.468869 82.64345 
L 145.827287 86.434448 
L 147.185653 104.45165 
L 148.54402 102.994054 
L 149.902438 97.538696 
L 151.260804 106.169068 
L 152.619222 107.675366 
L 153.977589 112.585951 
L 155.335955 115.213227 
L 156.694373 114.488743 
L 159.411158 114.841763 
L 160.769524 115.315263 
L 163.486309 115.737941 
L 166.203094 115.765323 
L 167.56146 115.638156 
L 170.278245 115.078371 
L 171.636611 114.859059 
L 172.995029 114.872721 
L 175.711762 115.931253 
L 177.07018 114.416694 
L 178.428547 113.185821 
L 179.786965 112.925291 
L 181.145331 113.721138 
L 182.503698 115.15112 
L 183.862116 115.871794 
L 185.220483 115.066894 
L 186.578901 114.790713 
L 187.937267 114.883811 
L 192.012418 116.033872 
L 193.370836 116.143932 
L 194.729203 115.962412 
L 198.804354 115.914277 
L 201.521138 116.049255 
L 202.879505 116.118843 
L 205.59629 115.480737 
L 206.954708 115.011951 
L 208.313074 114.901645 
L 209.671441 115.016662 
L 211.029859 115.850552 
L 212.388225 115.184954 
L 213.746643 113.645061 
L 215.10501 112.941721 
L 216.463376 113.451583 
L 217.821794 114.618654 
L 219.180161 116.140007 
L 220.538579 115.182469 
L 221.896945 114.754827 
L 223.255312 114.887029 
L 224.61373 115.19619 
L 227.330515 116.009608 
L 228.688881 116.141108 
L 231.405666 115.976263 
L 236.839183 115.988593 
L 239.555968 116.166611 
L 242.272752 115.711459 
L 244.989537 114.842413 
L 246.347903 114.911825 
L 247.706322 115.684293 
L 249.064688 115.43007 
L 250.423055 114.108576 
L 251.781473 113.653853 
L 253.139839 113.956225 
L 254.498257 115.039948 
L 255.856624 115.924417 
L 257.21499 115.424828 
L 258.573408 115.158863 
L 259.931775 115.197308 
L 264.006926 116.027127 
L 265.365344 116.147626 
L 274.874064 115.990426 
L 276.232431 115.866117 
L 278.949215 116.005232 
L 280.307582 116.110105 
L 283.024366 115.461217 
L 284.382733 114.918429 
L 285.741151 114.895927 
L 287.099517 115.405374 
L 288.457936 116.166949 
L 289.816302 115.260917 
L 291.174669 114.661963 
L 292.533087 115.079272 
L 293.891453 115.662114 
L 295.249871 116.090383 
L 296.608238 115.824615 
L 306.116958 115.982433 
L 312.908894 116.073437 
L 315.625678 115.462886 
L 316.984045 114.678274 
L 319.700829 113.518953 
L 321.059196 113.433389 
L 322.417614 114.846649 
L 323.77598 114.428389 
L 325.134347 109.832489 
L 326.492765 107.102682 
L 327.851131 108.320314 
L 329.20955 113.719061 
L 330.567916 113.626445 
L 331.926282 111.320128 
L 333.284701 111.402185 
L 334.643067 112.742896 
L 336.001485 114.334614 
L 337.359852 115.684661 
L 338.718218 116.120504 
L 340.076636 115.648103 
L 341.435003 115.387181 
L 344.151787 115.268613 
L 348.226938 115.350639 
L 355.018874 115.266779 
L 356.377292 115.512105 
L 357.735659 116.040756 
L 359.094025 114.443465 
L 360.452443 111.115254 
L 361.81081 105.581576 
L 364.527594 90.476117 
L 365.885961 90.3955 
L 367.244379 107.766892 
L 368.602745 86.684272 
L 369.961164 49.121806 
L 371.31953 45.029647 
L 372.677896 84.216423 
L 374.036315 102.301265 
L 375.394681 80.581985 
L 376.753099 79.944624 
L 378.111466 91.045035 
L 379.469832 103.531745 
L 380.82825 111.640393 
L 382.186617 116.073054 
L 383.545035 113.77747 
L 384.903401 112.764917 
L 386.261768 112.796811 
L 387.620186 113.1848 
L 393.053703 115.290805 
L 395.770488 116.152932 
L 397.128906 115.719048 
L 398.487273 115.157171 
L 398.487273 115.157171 
" clip-path="url(#p832f3f1b9c)" style="fill: none; stroke: #385989; stroke-width: 1.5; stroke-linecap: square"/>
   </g>
   <g id="line2d_9">
    <path d="M 73.832727 115.486115 
L 75.191145 116.169043 
L 79.266297 115.89615 
L 80.624663 116.126475 
L 83.341448 116.020381 
L 84.699866 115.960643 
L 86.058232 114.580689 
L 87.416599 115.35908 
L 88.775017 115.696222 
L 90.133383 115.188944 
L 91.491801 115.919936 
L 92.850168 114.895278 
L 94.208534 114.32368 
L 95.566952 114.693442 
L 96.925319 115.212591 
L 98.283737 113.612303 
L 99.642104 114.40005 
L 101.00047 114.797513 
L 102.358888 116.147673 
L 105.075673 116.150165 
L 110.50919 116.164303 
L 115.942759 116.103206 
L 120.017911 116.137421 
L 121.376277 116.0449 
L 124.093062 116.133013 
L 125.45148 116.015608 
L 126.809846 115.755046 
L 128.168213 115.852089 
L 129.526631 116.157902 
L 136.318566 116.033307 
L 137.676933 114.73344 
L 139.035351 115.574495 
L 140.393718 112.398844 
L 141.752084 111.520905 
L 143.110502 109.973713 
L 144.468869 111.987868 
L 145.827287 111.956692 
L 147.185653 114.07145 
L 148.54402 114.871287 
L 149.902438 108.00088 
L 151.260804 109.419979 
L 152.619222 112.697981 
L 153.977589 113.615972 
L 155.335955 107.042042 
L 156.694373 116.027518 
L 159.411158 116.026951 
L 162.127891 116.09092 
L 164.844676 116.063571 
L 166.203094 115.837758 
L 167.56146 116.174259 
L 168.919827 116.180858 
L 170.278245 115.657654 
L 172.995029 115.911813 
L 174.353396 114.976787 
L 175.711762 114.691142 
L 177.07018 111.376793 
L 178.428547 114.014291 
L 179.786965 114.28564 
L 181.145331 114.740332 
L 182.503698 114.184071 
L 183.862116 115.830139 
L 185.220483 116.126526 
L 192.012418 116.171046 
L 193.370836 116.105384 
L 196.087569 116.16141 
L 200.162772 116.08729 
L 202.879505 115.992795 
L 205.59629 115.355396 
L 206.954708 115.442915 
L 208.313074 113.959746 
L 209.671441 115.388459 
L 211.029859 116.126595 
L 212.388225 115.954554 
L 213.746643 115.562473 
L 215.10501 116.168364 
L 216.463376 116.119355 
L 217.821794 115.921741 
L 219.180161 116.156259 
L 220.538579 115.71859 
L 221.896945 115.821474 
L 223.255312 115.786836 
L 224.61373 116.117989 
L 227.330515 116.101554 
L 232.764032 116.16536 
L 234.12245 115.949911 
L 235.480817 115.135891 
L 238.197601 116.064428 
L 239.555968 116.160676 
L 242.272752 116.05093 
L 243.631119 116.110861 
L 244.989537 115.914507 
L 249.064688 116.10386 
L 250.423055 115.71832 
L 251.781473 116.165872 
L 254.498257 115.837649 
L 255.856624 115.924215 
L 257.21499 116.18095 
L 258.573408 115.857812 
L 259.931775 116.156852 
L 261.290193 116.176607 
L 264.006926 115.301431 
L 265.365344 116.12073 
L 273.515646 116.071594 
L 274.874064 115.970474 
L 276.232431 116.140498 
L 277.590797 116.082661 
L 278.949215 116.18202 
L 280.307582 115.778442 
L 281.666 115.601937 
L 283.024366 116.019894 
L 284.382733 115.926879 
L 285.741151 116.046986 
L 287.099517 115.819125 
L 288.457936 115.016022 
L 289.816302 114.817729 
L 291.174669 115.109655 
L 292.533087 115.073248 
L 293.891453 116.005365 
L 295.249871 115.846199 
L 296.608238 115.944448 
L 297.966604 116.180822 
L 300.683389 116.104673 
L 303.400173 116.02628 
L 304.75854 116.179449 
L 315.625678 116.124117 
L 316.984045 113.848721 
L 318.342411 115.456541 
L 319.700829 115.701383 
L 321.059196 115.448946 
L 322.417614 116.182588 
L 325.134347 116.111619 
L 326.492765 114.545919 
L 327.851131 116.094465 
L 329.20955 114.876032 
L 330.567916 115.407487 
L 331.926282 116.16863 
L 333.284701 115.379082 
L 334.643067 115.862589 
L 336.001485 116.074565 
L 338.718218 116.159677 
L 340.076636 116.013782 
L 341.435003 116.138977 
L 342.793421 115.910105 
L 345.510154 115.823945 
L 346.868572 116.168457 
L 356.377292 116.107785 
L 357.735659 115.982453 
L 359.094025 116.051923 
L 360.452443 115.768421 
L 361.81081 115.72678 
L 363.169228 114.601481 
L 364.527594 115.256792 
L 365.885961 114.092488 
L 367.244379 114.712379 
L 368.602745 115.152788 
L 369.961164 113.224252 
L 371.31953 115.62158 
L 372.677896 112.689333 
L 374.036315 116.085533 
L 375.394681 112.895967 
L 376.753099 115.053246 
L 378.111466 114.760353 
L 379.469832 115.671652 
L 380.82825 116.149149 
L 384.903401 115.834077 
L 386.261768 115.991895 
L 388.978552 115.932331 
L 390.336971 116.134068 
L 391.695337 115.974 
L 394.412122 116.092618 
L 395.770488 115.912838 
L 397.128906 115.926881 
L 398.487273 115.395895 
L 398.487273 115.395895 
" clip-path="url(#p832f3f1b9c)" style="fill: none; stroke: #d22027; stroke-width: 1.5; stroke-linecap: square"/>
   </g>
   <g id="patch_3">
    <path d="M 57.6 119.740235 
L 57.6 41.472 
" style="fill: none; stroke: #000000; stroke-width: 0.8; stroke-linejoin: miter; stroke-linecap: square"/>
   </g>
   <g id="patch_4">
    <path d="M 414.72 119.740235 
L 414.72 41.472 
" style="fill: none; stroke: #000000; stroke-width: 0.8; stroke-linejoin: miter; stroke-linecap: square"/>
   </g>
   <g id="patch_5">
    <path d="M 57.6 119.740235 
L 414.72 119.740235 
" style="fill: none; stroke: #000000; stroke-width: 0.8; stroke-linejoin: miter; stroke-linecap: square"/>
   </g>
   <g id="patch_6">
    <path d="M 57.6 41.472 
L 414.72 41.472 
" style="fill: none; stroke: #000000; stroke-width: 0.8; stroke-linejoin: miter; stroke-linecap: square"/>
   </g>
  </g>
  <g id="axes_2">
   <g id="patch_7">
    <path d="M 57.6 213.662118 
L 414.72 213.662118 
L 414.72 135.393882 
L 57.6 135.393882 
z
" style="fill: #ffffff"/>
   </g>
   <g id="matplotlib.axis_3">
    <g id="xtick_5">
     <g id="line2d_10">
      <g>
       <use xlink:href="#mddd72e7dba" x="72.474361" y="213.662118" style="stroke: #000000; stroke-width: 0.8"/>
      </g>
     </g>
     <g id="text_8">
      <!-- 10 -->
      <g transform="translate(66.111861 228.260555)scale(0.1 -0.1)">
       <use xlink:href="#DejaVuSans-31"/>
       <use xlink:href="#DejaVuSans-30" x="63.623047"/>
      </g>
     </g>
    </g>
    <g id="xtick_6">
     <g id="line2d_11">
      <g>
       <use xlink:href="#mddd72e7dba" x="181.145331" y="213.662118" style="stroke: #000000; stroke-width: 0.8"/>
      </g>
     </g>
     <g id="text_9">
      <!-- 12 -->
      <g transform="translate(174.782831 228.260555)scale(0.1 -0.1)">
       <use xlink:href="#DejaVuSans-31"/>
       <use xlink:href="#DejaVuSans-32" x="63.623047"/>
      </g>
     </g>
    </g>
    <g id="xtick_7">
     <g id="line2d_12">
      <g>
       <use xlink:href="#mddd72e7dba" x="289.816302" y="213.662118" style="stroke: #000000; stroke-width: 0.8"/>
      </g>
     </g>
     <g id="text_10">
      <!-- 14 -->
      <g transform="translate(283.453802 228.260555)scale(0.1 -0.1)">
       <use xlink:href="#DejaVuSans-31"/>
       <use xlink:href="#DejaVuSans-34" x="63.623047"/>
      </g>
     </g>
    </g>
    <g id="xtick_8">
     <g id="line2d_13">
      <g>
       <use xlink:href="#mddd72e7dba" x="398.487273" y="213.662118" style="stroke: #000000; stroke-width: 0.8"/>
      </g>
     </g>
     <g id="text_11">
      <!-- 16 -->
      <g transform="translate(392.124773 228.260555)scale(0.1 -0.1)">
       <use xlink:href="#DejaVuSans-31"/>
       <use xlink:href="#DejaVuSans-36" x="63.623047"/>
      </g>
     </g>
    </g>
   </g>
   <g id="matplotlib.axis_4">
    <g id="ytick_4">
     <g id="line2d_14">
      <g>
       <use xlink:href="#mde390dfb80" x="57.6" y="210.106502" style="stroke: #000000; stroke-width: 0.8"/>
      </g>
     </g>
     <g id="text_12">
      <!-- 0 -->
      <g transform="translate(44.2375 213.905721)scale(0.1 -0.1)">
       <use xlink:href="#DejaVuSans-30"/>
      </g>
     </g>
    </g>
    <g id="ytick_5">
     <g id="line2d_15">
      <g>
       <use xlink:href="#mde390dfb80" x="57.6" y="167.059472" style="stroke: #000000; stroke-width: 0.8"/>
      </g>
     </g>
     <g id="text_13">
      <!-- 1 -->
      <g transform="translate(44.2375 170.85869)scale(0.1 -0.1)">
       <use xlink:href="#DejaVuSans-31"/>
      </g>
     </g>
    </g>
   </g>
   <g id="line2d_16">
    <path d="M 73.832727 209.593518 
L 76.549512 209.662137 
L 79.266297 210.00529 
L 81.983081 209.056216 
L 83.341448 209.095146 
L 84.699866 209.819835 
L 86.058232 209.668808 
L 88.775017 210.064527 
L 90.133383 209.841639 
L 94.208534 209.826455 
L 95.566952 209.921094 
L 98.283737 209.786245 
L 99.642104 210.071033 
L 101.00047 209.888928 
L 102.358888 210.034065 
L 107.792406 209.739729 
L 115.942759 210.016684 
L 126.809846 209.826364 
L 129.526631 210.065311 
L 130.884997 209.684606 
L 132.243415 209.131584 
L 133.601782 208.347532 
L 134.960148 206.99316 
L 136.318566 205.112604 
L 137.676933 202.81177 
L 139.035351 201.470783 
L 140.393718 205.68379 
L 141.752084 196.498972 
L 143.110502 171.566727 
L 144.468869 178.634068 
L 145.827287 196.5783 
L 147.185653 174.812383 
L 148.54402 192.245788 
L 149.902438 204.482027 
L 151.260804 209.88851 
L 152.619222 202.9666 
L 153.977589 204.828992 
L 155.335955 209.312062 
L 156.694373 209.557074 
L 162.127891 210.054618 
L 170.278245 209.681645 
L 171.636611 209.777156 
L 172.995029 210.089045 
L 174.353396 209.379185 
L 175.711762 208.523707 
L 177.07018 207.935963 
L 178.428547 208.348128 
L 179.786965 209.764749 
L 182.503698 207.957838 
L 183.862116 207.957734 
L 185.220483 208.473301 
L 186.578901 209.128991 
L 187.937267 209.655965 
L 189.295634 209.935291 
L 192.012418 210.014376 
L 205.59629 209.538978 
L 206.954708 209.471095 
L 208.313074 209.627703 
L 209.671441 210.073968 
L 212.388225 208.250149 
L 213.746643 208.044232 
L 215.10501 209.203822 
L 216.463376 209.335113 
L 217.821794 208.204587 
L 219.180161 208.061755 
L 220.538579 208.407375 
L 223.255312 209.688202 
L 224.61373 210.018034 
L 227.330515 210.066319 
L 234.12245 210.020691 
L 239.555968 209.893284 
L 242.272752 209.803538 
L 244.989537 209.561092 
L 246.347903 209.879024 
L 247.706322 209.464128 
L 249.064688 208.535128 
L 250.423055 208.1769 
L 251.781473 209.310722 
L 253.139839 209.381588 
L 254.498257 208.598944 
L 255.856624 208.497395 
L 257.21499 208.854922 
L 259.931775 209.931846 
L 261.290193 210.072391 
L 264.006926 210.040797 
L 266.72371 210.033462 
L 274.874064 210.099719 
L 278.949215 209.782351 
L 280.307582 209.887265 
L 281.666 209.880245 
L 283.024366 209.208478 
L 284.382733 208.707677 
L 285.741151 209.337981 
L 287.099517 209.448389 
L 288.457936 208.678812 
L 289.816302 209.087679 
L 291.174669 209.634707 
L 292.533087 210.055719 
L 293.891453 209.407106 
L 295.249871 209.375906 
L 297.966604 210.042979 
L 304.75854 210.031922 
L 307.475324 210.083186 
L 312.908894 210.038699 
L 314.26726 209.736163 
L 315.625678 209.290167 
L 316.984045 208.449106 
L 318.342411 207.772152 
L 319.700829 207.676427 
L 321.059196 209.226442 
L 322.417614 207.156991 
L 323.77598 202.865917 
L 325.134347 201.786967 
L 326.492765 206.372155 
L 327.851131 207.325197 
L 329.20955 203.38762 
L 330.567916 203.509876 
L 331.926282 206.468516 
L 333.284701 210.016505 
L 334.643067 208.890945 
L 336.001485 209.19879 
L 337.359852 209.366205 
L 340.076636 209.439995 
L 345.510154 210.096343 
L 348.226938 210.008201 
L 353.660508 209.359054 
L 355.018874 209.402494 
L 356.377292 209.758239 
L 357.735659 209.355888 
L 359.094025 207.134413 
L 360.452443 203.029516 
L 363.169228 191.424103 
L 364.527594 192.462268 
L 365.885961 209.393626 
L 367.244379 171.439143 
L 368.602745 138.951529 
L 369.961164 154.883695 
L 371.31953 204.633711 
L 372.677896 156.236294 
L 374.036315 155.044909 
L 376.753099 209.385479 
L 378.111466 200.388503 
L 379.469832 201.413647 
L 380.82825 203.703782 
L 383.545035 206.858973 
L 384.903401 208.208403 
L 386.261768 209.224065 
L 387.620186 209.956077 
L 397.128906 208.589576 
L 398.487273 208.266723 
L 398.487273 208.266723 
" clip-path="url(#pcd744041ae)" style="fill: none; stroke: #385989; stroke-width: 1.5; stroke-linecap: square"/>
   </g>
   <g id="line2d_17">
    <path d="M 73.832727 209.840671 
L 75.191145 210.095951 
L 80.624663 210.055564 
L 81.983081 210.104471 
L 83.341448 210.023459 
L 84.699866 209.786805 
L 86.058232 209.385222 
L 87.416599 210.040134 
L 88.775017 208.806 
L 90.133383 208.295454 
L 91.491801 210.038294 
L 92.850168 209.746796 
L 94.208534 209.586842 
L 95.566952 209.810413 
L 96.925319 209.8963 
L 98.283737 209.717459 
L 99.642104 209.918084 
L 103.717255 210.084759 
L 113.225975 210.072683 
L 118.659544 210.097072 
L 124.093062 210.051903 
L 125.45148 209.890984 
L 128.168213 209.759917 
L 129.526631 210.009895 
L 132.243415 210.07881 
L 133.601782 210.065353 
L 134.960148 209.90529 
L 136.318566 209.857547 
L 137.676933 209.044252 
L 139.035351 209.254206 
L 140.393718 209.349807 
L 141.752084 209.563593 
L 143.110502 207.321001 
L 144.468869 202.158669 
L 145.827287 210.097357 
L 147.185653 201.584855 
L 148.54402 209.064367 
L 149.902438 209.433223 
L 151.260804 209.148129 
L 152.619222 207.97803 
L 153.977589 208.922281 
L 155.335955 208.345259 
L 156.694373 210.000648 
L 162.127891 210.078456 
L 166.203094 209.942744 
L 167.56146 210.075851 
L 171.636611 210.056165 
L 172.995029 209.760732 
L 174.353396 208.991332 
L 175.711762 208.47053 
L 177.07018 209.760618 
L 178.428547 207.928413 
L 179.786965 207.403287 
L 181.145331 208.923748 
L 182.503698 208.845895 
L 183.862116 209.898894 
L 185.220483 210.067666 
L 189.295634 210.102335 
L 202.879505 209.98873 
L 205.59629 209.580678 
L 206.954708 208.55439 
L 208.313074 208.69524 
L 209.671441 208.982893 
L 211.029859 209.841712 
L 212.388225 210.035757 
L 213.746643 209.964318 
L 215.10501 210.033014 
L 217.821794 209.920588 
L 219.180161 210.056186 
L 220.538579 209.927454 
L 221.896945 210.10151 
L 234.12245 210.070543 
L 235.480817 209.699835 
L 236.839183 209.758645 
L 238.197601 210.061004 
L 246.347903 210.07419 
L 247.706322 209.939634 
L 249.064688 209.948505 
L 250.423055 209.769635 
L 251.781473 209.720712 
L 253.139839 210.002483 
L 254.498257 210.009472 
L 255.856624 209.881562 
L 258.573408 210.073209 
L 261.290193 210.023 
L 262.648559 209.619451 
L 264.006926 209.909144 
L 265.365344 210.063153 
L 268.082129 210.051193 
L 278.949215 210.028628 
L 281.666 209.927157 
L 283.024366 209.978218 
L 284.382733 209.72609 
L 285.741151 209.951944 
L 288.457936 209.672566 
L 289.816302 209.398818 
L 291.174669 208.711931 
L 292.533087 209.883914 
L 293.891453 209.922054 
L 295.249871 210.095908 
L 300.683389 210.046169 
L 314.26726 210.071408 
L 315.625678 209.855962 
L 316.984045 209.840804 
L 318.342411 210.04632 
L 321.059196 209.831812 
L 322.417614 209.926409 
L 323.77598 209.243906 
L 325.134347 209.761542 
L 326.492765 209.060819 
L 327.851131 209.856452 
L 329.20955 209.519523 
L 330.567916 209.046396 
L 331.926282 209.88927 
L 334.643067 210.022965 
L 336.001485 209.898982 
L 337.359852 210.001917 
L 338.718218 209.902037 
L 340.076636 210.085273 
L 344.151787 209.786703 
L 345.510154 210.064198 
L 356.377292 210.062412 
L 359.094025 209.884338 
L 360.452443 209.636239 
L 361.81081 209.588692 
L 363.169228 208.815113 
L 364.527594 209.546936 
L 365.885961 209.485847 
L 367.244379 208.145765 
L 368.602745 207.593279 
L 369.961164 209.855848 
L 372.677896 204.481617 
L 374.036315 208.030484 
L 375.394681 208.445956 
L 376.753099 209.71088 
L 379.469832 209.472595 
L 382.186617 209.775099 
L 384.903401 209.985161 
L 395.770488 210.062635 
L 397.128906 210.004665 
L 398.487273 209.734112 
L 398.487273 209.734112 
" clip-path="url(#pcd744041ae)" style="fill: none; stroke: #d22027; stroke-width: 1.5; stroke-linecap: square"/>
   </g>
   <g id="patch_8">
    <path d="M 57.6 213.662118 
L 57.6 135.393882 
" style="fill: none; stroke: #000000; stroke-width: 0.8; stroke-linejoin: miter; stroke-linecap: square"/>
   </g>
   <g id="patch_9">
    <path d="M 414.72 213.662118 
L 414.72 135.393882 
" style="fill: none; stroke: #000000; stroke-width: 0.8; stroke-linejoin: miter; stroke-linecap: square"/>
   </g>
   <g id="patch_10">
    <path d="M 57.6 213.662118 
L 414.72 213.662118 
" style="fill: none; stroke: #000000; stroke-width: 0.8; stroke-linejoin: miter; stroke-linecap: square"/>
   </g>
   <g id="patch_11">
    <path d="M 57.6 135.393882 
L 414.72 135.393882 
" style="fill: none; stroke: #000000; stroke-width: 0.8; stroke-linejoin: miter; stroke-linecap: square"/>
   </g>
  </g>
  <g id="axes_3">
   <g id="patch_12">
    <path d="M 57.6 307.584 
L 414.72 307.584 
L 414.72 229.315765 
L 57.6 229.315765 
z
" style="fill: #ffffff"/>
   </g>
   <g id="matplotlib.axis_5">
    <g id="xtick_9">
     <g id="line2d_18">
      <g>
       <use xlink:href="#mddd72e7dba" x="72.474361" y="307.584" style="stroke: #000000; stroke-width: 0.8"/>
      </g>
     </g>
     <g id="text_14">
      <!-- 10 -->
      <g transform="translate(66.111861 322.182437)scale(0.1 -0.1)">
       <use xlink:href="#DejaVuSans-31"/>
       <use xlink:href="#DejaVuSans-30" x="63.623047"/>
      </g>
     </g>
    </g>
    <g id="xtick_10">
     <g id="line2d_19">
      <g>
       <use xlink:href="#mddd72e7dba" x="181.145331" y="307.584" style="stroke: #000000; stroke-width: 0.8"/>
      </g>
     </g>
     <g id="text_15">
      <!-- 12 -->
      <g transform="translate(174.782831 322.182437)scale(0.1 -0.1)">
       <use xlink:href="#DejaVuSans-31"/>
       <use xlink:href="#DejaVuSans-32" x="63.623047"/>
      </g>
     </g>
    </g>
    <g id="xtick_11">
     <g id="line2d_20">
      <g>
       <use xlink:href="#mddd72e7dba" x="289.816302" y="307.584" style="stroke: #000000; stroke-width: 0.8"/>
      </g>
     </g>
     <g id="text_16">
      <!-- 14 -->
      <g transform="translate(283.453802 322.182437)scale(0.1 -0.1)">
       <use xlink:href="#DejaVuSans-31"/>
       <use xlink:href="#DejaVuSans-34" x="63.623047"/>
      </g>
     </g>
    </g>
    <g id="xtick_12">
     <g id="line2d_21">
      <g>
       <use xlink:href="#mddd72e7dba" x="398.487273" y="307.584" style="stroke: #000000; stroke-width: 0.8"/>
      </g>
     </g>
     <g id="text_17">
      <!-- 16 -->
      <g transform="translate(392.124773 322.182437)scale(0.1 -0.1)">
       <use xlink:href="#DejaVuSans-31"/>
       <use xlink:href="#DejaVuSans-36" x="63.623047"/>
      </g>
     </g>
    </g>
   </g>
   <g id="matplotlib.axis_6">
    <g id="ytick_6">
     <g id="line2d_22">
      <g>
       <use xlink:href="#mde390dfb80" x="57.6" y="304.02648" style="stroke: #000000; stroke-width: 0.8"/>
      </g>
     </g>
     <g id="text_18">
      <!-- 0 -->
      <g transform="translate(44.2375 307.825698)scale(0.1 -0.1)">
       <use xlink:href="#DejaVuSans-30"/>
      </g>
     </g>
    </g>
    <g id="ytick_7">
     <g id="line2d_23">
      <g>
       <use xlink:href="#mde390dfb80" x="57.6" y="265.363004" style="stroke: #000000; stroke-width: 0.8"/>
      </g>
     </g>
     <g id="text_19">
      <!-- 1 -->
      <g transform="translate(44.2375 269.162223)scale(0.1 -0.1)">
       <use xlink:href="#DejaVuSans-31"/>
      </g>
     </g>
    </g>
   </g>
   <g id="line2d_24">
    <path d="M 73.832727 303.837182 
L 75.191145 303.996184 
L 80.624663 303.257173 
L 81.983081 303.782813 
L 83.341448 303.539815 
L 84.699866 302.982758 
L 86.058232 303.512846 
L 88.775017 302.749044 
L 91.491801 302.921597 
L 92.850168 302.915345 
L 94.208534 303.37654 
L 95.566952 303.273718 
L 96.925319 302.827267 
L 98.283737 302.79982 
L 99.642104 303.018518 
L 101.00047 303.394694 
L 102.358888 303.595065 
L 106.434039 303.746485 
L 109.150824 303.976797 
L 111.867608 303.831258 
L 113.225975 303.74787 
L 115.942759 303.414117 
L 130.884997 302.196022 
L 132.243415 302.216882 
L 133.601782 302.381127 
L 134.960148 302.875057 
L 136.318566 303.921499 
L 137.676933 301.872063 
L 139.035351 297.287909 
L 140.393718 290.002451 
L 141.752084 284.669986 
L 143.110502 299.446803 
L 144.468869 273.925662 
L 145.827287 262.857056 
L 147.185653 289.032976 
L 148.54402 295.210838 
L 149.902438 293.747154 
L 152.619222 303.901277 
L 153.977589 301.388367 
L 155.335955 300.450643 
L 156.694373 300.95515 
L 159.411158 303.289169 
L 160.769524 303.977189 
L 162.127891 303.788184 
L 164.844676 303.831601 
L 167.56146 303.959451 
L 168.919827 303.937692 
L 170.278245 303.77868 
L 174.353396 303.005493 
L 175.711762 303.224081 
L 177.07018 303.884544 
L 178.428547 302.6527 
L 179.786965 301.934802 
L 181.145331 302.101659 
L 183.862116 303.957214 
L 185.220483 303.420574 
L 186.578901 303.094237 
L 187.937267 303.066186 
L 193.370836 304.002263 
L 201.521138 303.768692 
L 205.59629 303.981694 
L 209.671441 302.920331 
L 211.029859 302.841795 
L 212.388225 303.479941 
L 213.746643 303.294971 
L 215.10501 302.168804 
L 216.463376 302.080653 
L 217.821794 302.725901 
L 219.180161 303.789038 
L 220.538579 303.508805 
L 221.896945 303.073989 
L 223.255312 303.001767 
L 224.61373 303.178553 
L 227.330515 303.801785 
L 230.047248 303.983679 
L 234.12245 303.851586 
L 243.631119 303.891036 
L 244.989537 303.559511 
L 246.347903 303.068055 
L 247.706322 302.839848 
L 249.064688 303.370228 
L 250.423055 303.624354 
L 251.781473 302.687075 
L 253.139839 302.494156 
L 254.498257 303.137476 
L 255.856624 304.017087 
L 258.573408 303.124141 
L 259.931775 303.072526 
L 265.365344 303.993826 
L 272.15728 303.99028 
L 278.949215 303.844976 
L 281.666 303.310383 
L 283.024366 303.425994 
L 284.382733 303.690803 
L 285.741151 302.551364 
L 287.099517 302.216057 
L 288.457936 302.945046 
L 289.816302 303.951001 
L 291.174669 303.33813 
L 292.533087 303.372079 
L 293.891453 303.710916 
L 295.249871 303.725713 
L 296.608238 303.271969 
L 297.966604 303.315714 
L 302.041807 303.915995 
L 307.475324 303.904365 
L 311.550476 303.793133 
L 315.625678 303.45477 
L 316.984045 303.778653 
L 318.342411 303.526872 
L 319.700829 301.872538 
L 321.059196 299.781426 
L 322.417614 298.960025 
L 323.77598 301.421152 
L 325.134347 300.677235 
L 326.492765 295.733871 
L 327.851131 295.593847 
L 329.20955 299.98342 
L 330.567916 303.320272 
L 331.926282 300.96111 
L 333.284701 301.310911 
L 334.643067 302.856694 
L 336.001485 304.006589 
L 337.359852 303.611451 
L 340.076636 303.873906 
L 342.793421 303.797146 
L 344.151787 303.71846 
L 349.585357 303.843112 
L 352.302089 303.612788 
L 353.660508 303.319613 
L 355.018874 302.801238 
L 356.377292 302.023529 
L 359.094025 300.121078 
L 360.452443 300.098338 
L 361.81081 302.69474 
L 363.169228 297.446123 
L 364.527594 282.32818 
L 365.885961 265.682495 
L 367.244379 266.13755 
L 368.602745 302.208362 
L 369.961164 252.18055 
L 371.31953 232.873412 
L 374.036315 298.051886 
L 375.394681 278.00422 
L 376.753099 281.180178 
L 378.111466 292.423314 
L 379.469832 300.494205 
L 380.82825 303.838258 
L 382.186617 303.496314 
L 384.903401 303.413326 
L 388.978552 303.332155 
L 395.770488 303.933907 
L 397.128906 303.88646 
L 398.487273 303.574948 
L 398.487273 303.574948 
" clip-path="url(#pfa52284866)" style="fill: none; stroke: #385989; stroke-width: 1.5; stroke-linecap: square"/>
   </g>
   <g id="line2d_25">
    <path d="M 73.832727 303.64867 
L 75.191145 304.020471 
L 80.624663 303.949483 
L 84.699866 303.882226 
L 86.058232 303.368932 
L 87.416599 303.366375 
L 88.775017 303.695644 
L 91.491801 303.178585 
L 94.208534 303.873561 
L 96.925319 303.730801 
L 98.283737 303.972322 
L 99.642104 303.396608 
L 101.00047 303.944674 
L 105.075673 304.021354 
L 125.45148 303.880511 
L 126.809846 303.341297 
L 128.168213 303.48699 
L 129.526631 303.991644 
L 130.884997 303.980617 
L 132.243415 303.857869 
L 133.601782 304.026279 
L 134.960148 303.554405 
L 136.318566 303.879868 
L 139.035351 303.695851 
L 140.393718 302.661651 
L 141.752084 300.220294 
L 143.110502 298.484096 
L 144.468869 303.552088 
L 145.827287 302.514693 
L 147.185653 302.248492 
L 148.54402 303.771575 
L 149.902438 300.999324 
L 151.260804 301.198149 
L 152.619222 302.168032 
L 153.977589 300.105506 
L 155.335955 303.076075 
L 156.694373 303.993658 
L 158.05274 303.922965 
L 160.769524 304.009455 
L 167.56146 303.924046 
L 170.278245 303.721855 
L 172.995029 303.855269 
L 174.353396 303.859201 
L 175.711762 303.993884 
L 177.07018 300.107844 
L 178.428547 302.887201 
L 179.786965 303.670479 
L 181.145331 303.619873 
L 182.503698 301.905109 
L 183.862116 303.986162 
L 192.012418 304.000786 
L 201.521138 303.987676 
L 205.59629 303.523722 
L 206.954708 303.7778 
L 208.313074 302.957556 
L 209.671441 303.581518 
L 211.029859 304.020387 
L 213.746643 303.761806 
L 215.10501 303.994382 
L 216.463376 303.835276 
L 219.180161 304.021636 
L 220.538579 303.895011 
L 221.896945 303.99431 
L 223.255312 303.882733 
L 225.972097 303.99388 
L 231.405666 304.021923 
L 232.764032 303.983974 
L 235.480817 303.656017 
L 236.839183 304.001586 
L 240.914386 304.023893 
L 244.989537 303.775232 
L 246.347903 303.959953 
L 249.064688 303.861427 
L 253.139839 303.763591 
L 254.498257 304.025062 
L 261.290193 303.859291 
L 262.648559 303.780698 
L 265.365344 304.021172 
L 280.307582 303.909499 
L 281.666 303.667671 
L 285.741151 303.798139 
L 287.099517 303.556656 
L 288.457936 303.47485 
L 292.533087 303.916007 
L 293.891453 303.838563 
L 300.683389 304.016985 
L 304.75854 304.010051 
L 312.908894 304.010537 
L 315.625678 303.821061 
L 316.984045 303.2254 
L 318.342411 303.803239 
L 319.700829 304.021603 
L 321.059196 303.372122 
L 322.417614 303.923082 
L 323.77598 303.299004 
L 325.134347 303.598433 
L 326.492765 303.486448 
L 327.851131 303.191051 
L 329.20955 303.461163 
L 330.567916 304.011968 
L 331.926282 303.726876 
L 333.284701 303.619924 
L 336.001485 303.921642 
L 338.718218 304.00589 
L 341.435003 303.958516 
L 342.793421 303.728981 
L 344.151787 303.844907 
L 345.510154 303.764169 
L 346.868572 304.025097 
L 356.377292 303.971144 
L 357.735659 303.830047 
L 361.81081 303.999966 
L 364.527594 302.886589 
L 365.885961 302.019318 
L 367.244379 303.954406 
L 368.602745 303.495498 
L 369.961164 302.585706 
L 371.31953 303.040866 
L 372.677896 303.869398 
L 374.036315 303.551956 
L 375.394681 302.193601 
L 376.753099 302.966422 
L 378.111466 303.335252 
L 379.469832 303.827152 
L 380.82825 303.977958 
L 394.412122 304.001815 
L 397.128906 303.671646 
L 398.487273 303.867481 
L 398.487273 303.867481 
" clip-path="url(#pfa52284866)" style="fill: none; stroke: #d22027; stroke-width: 1.5; stroke-linecap: square"/>
   </g>
   <g id="patch_13">
    <path d="M 57.6 307.584 
L 57.6 229.315765 
" style="fill: none; stroke: #000000; stroke-width: 0.8; stroke-linejoin: miter; stroke-linecap: square"/>
   </g>
   <g id="patch_14">
    <path d="M 414.72 307.584 
L 414.72 229.315765 
" style="fill: none; stroke: #000000; stroke-width: 0.8; stroke-linejoin: miter; stroke-linecap: square"/>
   </g>
   <g id="patch_15">
    <path d="M 57.6 307.584 
L 414.72 307.584 
" style="fill: none; stroke: #000000; stroke-width: 0.8; stroke-linejoin: miter; stroke-linecap: square"/>
   </g>
   <g id="patch_16">
    <path d="M 57.6 229.315765 
L 414.72 229.315765 
" style="fill: none; stroke: #000000; stroke-width: 0.8; stroke-linejoin: miter; stroke-linecap: square"/>
   </g>
  </g>
 </g>
 <defs>
  <clipPath id="p832f3f1b9c">
   <rect x="57.6" y="41.472" width="357.12" height="78.268235"/>
  </clipPath>
  <clipPath id="pcd744041ae">
   <rect x="57.6" y="135.393882" width="357.12" height="78.268235"/>
  </clipPath>
  <clipPath id="pfa52284866">
   <rect x="57.6" y="229.315765" width="357.12" height="78.268235"/>
  </clipPath>
 </defs>
</svg>
