<?xml version="1.0" encoding="utf-8" standalone="no"?>
<!DOCTYPE svg PUBLIC "-//W3C//DTD SVG 1.1//EN"
  "http://www.w3.org/Graphics/SVG/1.1/DTD/svg11.dtd">
<svg xmlns:xlink="http://www.w3.org/1999/xlink" width="460.8pt" height="345.6pt" viewBox="0 0 460.8 345.6" xmlns="http://www.w3.org/2000/svg" version="1.1">
 <metadata>
  <rdf:RDF xmlns:dc="http://purl.org/dc/elements/1.1/" xmlns:cc="http://creativecommons.org/ns#" xmlns:rdf="http://www.w3.org/1999/02/22-rdf-syntax-ns#">
   <cc:Work>
    <dc:type rdf:resource="http://purl.org/dc/dcmitype/StillImage"/>
    <dc:date>2023-10-17T13:03:37.475245</dc:date>
    <dc:format>image/svg+xml</dc:format>
    <dc:creator>
     <cc:Agent>
      <dc:title>Matplotlib v3.5.2, https://matplotlib.org/</dc:title>
     </cc:Agent>
    </dc:creator>
   </cc:Work>
  </rdf:RDF>
 </metadata>
 <defs>
  <style type="text/css">*{stroke-linejoin: round; stroke-linecap: butt}</style>
 </defs>
 <g id="figure_1">
  <g id="patch_1">
   <path d="M 0 345.6 
L 460.8 345.6 
L 460.8 0 
L 0 0 
z
" style="fill: #ffffff"/>
  </g>
  <g id="axes_1">
   <g id="patch_2">
    <path d="M 57.6 119.740235 
L 414.72 119.740235 
L 414.72 41.472 
L 57.6 41.472 
z
" style="fill: #ffffff"/>
   </g>
   <g id="matplotlib.axis_1">
    <g id="xtick_1">
     <g id="line2d_1">
      <defs>
       <path id="m4880c742a8" d="M 0 0 
L 0 3.5 
" style="stroke: #000000; stroke-width: 0.8"/>
      </defs>
      <g>
       <use xlink:href="#m4880c742a8" x="73.289835" y="119.740235" style="stroke: #000000; stroke-width: 0.8"/>
      </g>
     </g>
     <g id="text_1">
      <!-- 10 -->
      <g transform="translate(66.927335 134.338673)scale(0.1 -0.1)">
       <defs>
        <path id="DejaVuSans-31" d="M 794 531 
L 1825 531 
L 1825 4091 
L 703 3866 
L 703 4441 
L 1819 4666 
L 2450 4666 
L 2450 531 
L 3481 531 
L 3481 0 
L 794 0 
L 794 531 
z
" transform="scale(0.015625)"/>
        <path id="DejaVuSans-30" d="M 2034 4250 
Q 1547 4250 1301 3770 
Q 1056 3291 1056 2328 
Q 1056 1369 1301 889 
Q 1547 409 2034 409 
Q 2525 409 2770 889 
Q 3016 1369 3016 2328 
Q 3016 3291 2770 3770 
Q 2525 4250 2034 4250 
z
M 2034 4750 
Q 2819 4750 3233 4129 
Q 3647 3509 3647 2328 
Q 3647 1150 3233 529 
Q 2819 -91 2034 -91 
Q 1250 -91 836 529 
Q 422 1150 422 2328 
Q 422 3509 836 4129 
Q 1250 4750 2034 4750 
z
" transform="scale(0.015625)"/>
       </defs>
       <use xlink:href="#DejaVuSans-31"/>
       <use xlink:href="#DejaVuSans-30" x="63.623047"/>
      </g>
     </g>
    </g>
    <g id="xtick_2">
     <g id="line2d_2">
      <g>
       <use xlink:href="#m4880c742a8" x="116.721879" y="119.740235" style="stroke: #000000; stroke-width: 0.8"/>
      </g>
     </g>
     <g id="text_2">
      <!-- 12 -->
      <g transform="translate(110.359379 134.338673)scale(0.1 -0.1)">
       <defs>
        <path id="DejaVuSans-32" d="M 1228 531 
L 3431 531 
L 3431 0 
L 469 0 
L 469 531 
Q 828 903 1448 1529 
Q 2069 2156 2228 2338 
Q 2531 2678 2651 2914 
Q 2772 3150 2772 3378 
Q 2772 3750 2511 3984 
Q 2250 4219 1831 4219 
Q 1534 4219 1204 4116 
Q 875 4013 500 3803 
L 500 4441 
Q 881 4594 1212 4672 
Q 1544 4750 1819 4750 
Q 2544 4750 2975 4387 
Q 3406 4025 3406 3419 
Q 3406 3131 3298 2873 
Q 3191 2616 2906 2266 
Q 2828 2175 2409 1742 
Q 1991 1309 1228 531 
z
" transform="scale(0.015625)"/>
       </defs>
       <use xlink:href="#DejaVuSans-31"/>
       <use xlink:href="#DejaVuSans-32" x="63.623047"/>
      </g>
     </g>
    </g>
    <g id="xtick_3">
     <g id="line2d_3">
      <g>
       <use xlink:href="#m4880c742a8" x="160.153923" y="119.740235" style="stroke: #000000; stroke-width: 0.8"/>
      </g>
     </g>
     <g id="text_3">
      <!-- 14 -->
      <g transform="translate(153.791423 134.338673)scale(0.1 -0.1)">
       <defs>
        <path id="DejaVuSans-34" d="M 2419 4116 
L 825 1625 
L 2419 1625 
L 2419 4116 
z
M 2253 4666 
L 3047 4666 
L 3047 1625 
L 3713 1625 
L 3713 1100 
L 3047 1100 
L 3047 0 
L 2419 0 
L 2419 1100 
L 313 1100 
L 313 1709 
L 2253 4666 
z
" transform="scale(0.015625)"/>
       </defs>
       <use xlink:href="#DejaVuSans-31"/>
       <use xlink:href="#DejaVuSans-34" x="63.623047"/>
      </g>
     </g>
    </g>
    <g id="xtick_4">
     <g id="line2d_4">
      <g>
       <use xlink:href="#m4880c742a8" x="203.585967" y="119.740235" style="stroke: #000000; stroke-width: 0.8"/>
      </g>
     </g>
     <g id="text_4">
      <!-- 16 -->
      <g transform="translate(197.223467 134.338673)scale(0.1 -0.1)">
       <defs>
        <path id="DejaVuSans-36" d="M 2113 2584 
Q 1688 2584 1439 2293 
Q 1191 2003 1191 1497 
Q 1191 994 1439 701 
Q 1688 409 2113 409 
Q 2538 409 2786 701 
Q 3034 994 3034 1497 
Q 3034 2003 2786 2293 
Q 2538 2584 2113 2584 
z
M 3366 4563 
L 3366 3988 
Q 3128 4100 2886 4159 
Q 2644 4219 2406 4219 
Q 1781 4219 1451 3797 
Q 1122 3375 1075 2522 
Q 1259 2794 1537 2939 
Q 1816 3084 2150 3084 
Q 2853 3084 3261 2657 
Q 3669 2231 3669 1497 
Q 3669 778 3244 343 
Q 2819 -91 2113 -91 
Q 1303 -91 875 529 
Q 447 1150 447 2328 
Q 447 3434 972 4092 
Q 1497 4750 2381 4750 
Q 2619 4750 2861 4703 
Q 3103 4656 3366 4563 
z
" transform="scale(0.015625)"/>
       </defs>
       <use xlink:href="#DejaVuSans-31"/>
       <use xlink:href="#DejaVuSans-36" x="63.623047"/>
      </g>
     </g>
    </g>
   </g>
   <g id="matplotlib.axis_2">
    <g id="ytick_1">
     <g id="line2d_5">
      <defs>
       <path id="m1ad97819f8" d="M 0 0 
L -3.5 0 
" style="stroke: #000000; stroke-width: 0.8"/>
      </defs>
      <g>
       <use xlink:href="#m1ad97819f8" x="57.6" y="116.182762" style="stroke: #000000; stroke-width: 0.8"/>
      </g>
     </g>
     <g id="text_5">
      <!-- 0.0 -->
      <g transform="translate(34.696875 119.981981)scale(0.1 -0.1)">
       <defs>
        <path id="DejaVuSans-2e" d="M 684 794 
L 1344 794 
L 1344 0 
L 684 0 
L 684 794 
z
" transform="scale(0.015625)"/>
       </defs>
       <use xlink:href="#DejaVuSans-30"/>
       <use xlink:href="#DejaVuSans-2e" x="63.623047"/>
       <use xlink:href="#DejaVuSans-30" x="95.410156"/>
      </g>
     </g>
    </g>
    <g id="ytick_2">
     <g id="line2d_6">
      <g>
       <use xlink:href="#m1ad97819f8" x="57.6" y="89.537713" style="stroke: #000000; stroke-width: 0.8"/>
      </g>
     </g>
     <g id="text_6">
      <!-- 2.5 -->
      <g transform="translate(34.696875 93.336932)scale(0.1 -0.1)">
       <defs>
        <path id="DejaVuSans-35" d="M 691 4666 
L 3169 4666 
L 3169 4134 
L 1269 4134 
L 1269 2991 
Q 1406 3038 1543 3061 
Q 1681 3084 1819 3084 
Q 2600 3084 3056 2656 
Q 3513 2228 3513 1497 
Q 3513 744 3044 326 
Q 2575 -91 1722 -91 
Q 1428 -91 1123 -41 
Q 819 9 494 109 
L 494 744 
Q 775 591 1075 516 
Q 1375 441 1709 441 
Q 2250 441 2565 725 
Q 2881 1009 2881 1497 
Q 2881 1984 2565 2268 
Q 2250 2553 1709 2553 
Q 1456 2553 1204 2497 
Q 953 2441 691 2322 
L 691 4666 
z
" transform="scale(0.015625)"/>
       </defs>
       <use xlink:href="#DejaVuSans-32"/>
       <use xlink:href="#DejaVuSans-2e" x="63.623047"/>
       <use xlink:href="#DejaVuSans-35" x="95.410156"/>
      </g>
     </g>
    </g>
    <g id="ytick_3">
     <g id="line2d_7">
      <g>
       <use xlink:href="#m1ad97819f8" x="57.6" y="62.892665" style="stroke: #000000; stroke-width: 0.8"/>
      </g>
     </g>
     <g id="text_7">
      <!-- 5.0 -->
      <g transform="translate(34.696875 66.691883)scale(0.1 -0.1)">
       <use xlink:href="#DejaVuSans-35"/>
       <use xlink:href="#DejaVuSans-2e" x="63.623047"/>
       <use xlink:href="#DejaVuSans-30" x="95.410156"/>
      </g>
     </g>
    </g>
   </g>
   <g id="line2d_8">
    <path d="M 73.832727 116.165086 
L 85.233651 116.182345 
L 90.119744 116.177921 
L 97.72036 116.167217 
L 98.263252 116.106585 
L 98.806165 115.921686 
L 100.434863 114.960488 
L 100.977755 115.634476 
L 101.520668 114.855063 
L 102.06356 113.346078 
L 102.606473 113.666694 
L 103.149365 115.190466 
L 103.692258 115.067192 
L 104.23517 114.605816 
L 104.778063 115.335713 
L 105.320976 115.463106 
L 105.863868 115.878409 
L 106.40676 116.100606 
L 107.492566 116.056586 
L 112.378679 116.089201 
L 114.007376 116.121172 
L 114.550269 116.161332 
L 115.636074 115.929142 
L 116.721879 115.974416 
L 117.807684 116.156303 
L 118.893489 116.064873 
L 127.036998 116.083584 
L 129.7515 115.967982 
L 130.837285 115.951619 
L 131.92309 116.178987 
L 133.008896 116.061838 
L 141.152404 116.142743 
L 142.781101 116.075116 
L 143.866907 116.118945 
L 144.952712 115.968725 
L 146.038517 116.085952 
L 146.581409 116.160754 
L 148.210107 116.09926 
L 152.010415 116.174029 
L 165.040036 116.16074 
L 170.469042 116.121721 
L 172.640632 115.95008 
L 173.183544 116.069604 
L 173.726437 116.03423 
L 174.269329 115.64554 
L 174.812242 115.414672 
L 175.355134 115.517651 
L 175.898047 115.97424 
L 176.44094 115.966407 
L 176.983832 115.771355 
L 178.069637 115.891683 
L 179.155442 116.140477 
L 180.241247 116.137385 
L 183.498643 116.112228 
L 187.841843 116.035505 
L 188.384756 115.754028 
L 188.927648 115.286027 
L 190.013453 114.008511 
L 190.556346 114.001693 
L 191.099258 115.470846 
L 191.642151 113.687823 
L 192.185064 110.511047 
L 192.727956 110.16496 
L 193.270848 113.479109 
L 193.813761 115.008601 
L 194.356654 113.171733 
L 194.899566 113.117829 
L 196.528264 115.79844 
L 197.071156 116.173325 
L 198.156962 115.893545 
L 199.785659 115.97411 
L 202.500162 116.18008 
L 204.671752 115.945502 
L 205.757577 115.839862 
L 206.843362 116.017626 
L 207.929188 114.757671 
L 208.47208 114.803009 
L 209.014973 115.655982 
L 209.557865 115.650052 
L 210.100757 115.09563 
L 210.643691 115.136562 
L 212.272368 116.159635 
L 213.358193 115.978778 
L 217.158481 116.007478 
L 219.330091 115.728283 
L 220.958768 115.269963 
L 222.044594 114.896256 
L 222.587486 114.820249 
L 223.130379 114.998045 
L 223.673271 115.756873 
L 224.216204 114.686574 
L 224.759097 110.688077 
L 225.301989 103.737712 
L 226.387774 86.070361 
L 226.930707 87.82128 
L 227.473599 108.134794 
L 228.016492 88.152307 
L 228.559384 54.699706 
L 229.102276 45.029647 
L 229.64521 67.569141 
L 230.188102 110.34105 
L 230.730995 84.858061 
L 231.273887 72.426196 
L 231.816779 81.04368 
L 232.902605 107.426745 
L 233.445497 115.060755 
L 234.531282 112.791376 
L 235.074215 112.731379 
L 235.617108 113.244989 
L 236.702892 114.534235 
L 237.245785 114.948105 
L 237.788718 115.031039 
L 238.33161 114.637935 
L 238.874503 113.687789 
L 239.417395 112.138276 
L 240.503221 108.712042 
L 241.046113 108.977 
L 241.589005 112.481963 
L 242.131898 113.161563 
L 242.67479 105.675724 
L 243.217724 101.320274 
L 243.760616 102.474751 
L 244.303508 108.053722 
L 244.846401 114.84636 
L 245.932226 110.037311 
L 246.475119 109.949868 
L 247.018011 111.130487 
L 248.103796 114.152512 
L 248.646729 115.253512 
L 249.189621 116.018548 
L 249.732514 115.876474 
L 250.818298 115.459625 
L 252.989909 115.158491 
L 253.532801 115.149894 
L 254.075735 115.297221 
L 254.618627 115.849051 
L 255.161519 115.360724 
L 255.704412 113.436653 
L 256.247304 111.06052 
L 256.790237 109.418523 
L 257.33313 110.285657 
L 257.876022 114.467824 
L 258.418914 112.111474 
L 258.961807 108.167091 
L 259.50474 108.0658 
L 260.047632 110.844451 
L 260.590525 114.306315 
L 261.133417 115.489749 
L 261.676309 114.186613 
L 262.219243 113.897479 
L 262.762135 114.103497 
L 264.390812 115.192985 
L 265.476638 115.535481 
L 267.105315 115.747728 
L 267.648248 115.94655 
L 268.191141 116.007349 
L 268.734033 115.216869 
L 269.276925 113.852278 
L 269.819818 111.715188 
L 271.448536 103.098149 
L 271.991428 103.245028 
L 272.53432 107.957084 
L 273.077254 114.613367 
L 274.163038 88.033133 
L 274.705931 78.874294 
L 275.248823 79.30804 
L 275.791757 93.330784 
L 276.334649 115.105386 
L 276.877541 93.792168 
L 277.420434 85.492364 
L 277.963326 89.895229 
L 279.049152 109.129007 
L 279.592044 115.572553 
L 280.134936 113.262974 
L 280.677829 111.747412 
L 281.220762 111.357912 
L 281.763654 111.500604 
L 283.392331 112.673586 
L 283.935265 113.226294 
L 284.478157 114.09181 
L 285.021049 115.62609 
L 285.563942 114.202302 
L 287.19266 102.536937 
L 287.735552 102.147688 
L 288.278445 106.312072 
L 288.821337 113.270593 
L 289.36427 113.786367 
L 289.907163 113.295569 
L 290.450055 115.914295 
L 290.992947 115.698688 
L 291.53584 112.451515 
L 292.078773 105.380398 
L 292.621665 100.450955 
L 293.164558 100.556286 
L 293.70745 104.772322 
L 294.793276 114.949875 
L 295.336168 114.414009 
L 295.87906 112.997552 
L 296.421953 112.705708 
L 296.964845 113.072274 
L 298.050671 114.650684 
L 298.593563 115.518366 
L 299.136456 116.014422 
L 300.222281 114.564516 
L 300.765174 114.018018 
L 301.308066 113.770624 
L 301.850958 114.11681 
L 302.393851 115.555486 
L 302.936784 113.682226 
L 303.479676 108.391297 
L 304.565461 96.025129 
L 305.108353 96.941856 
L 305.651287 107.432121 
L 306.194179 109.315634 
L 306.737071 99.381719 
L 307.279964 102.707931 
L 307.822856 116.011585 
L 308.36579 102.418222 
L 308.908682 99.559278 
L 309.451574 111.155388 
L 309.994467 103.413721 
L 310.537359 92.316879 
L 311.080292 93.055297 
L 312.166077 110.521795 
L 312.708969 115.097515 
L 313.251862 111.413127 
L 313.794795 109.924497 
L 314.337687 109.758987 
L 314.88058 110.211737 
L 315.966364 111.370951 
L 317.05219 112.096314 
L 317.595082 112.435422 
L 318.137975 113.073796 
L 318.680867 114.434963 
L 319.223801 115.278494 
L 319.766693 110.820238 
L 320.852478 98.246339 
L 321.39537 95.428751 
L 321.938303 99.668777 
L 322.481196 110.017836 
L 323.024088 112.346089 
L 323.56698 108.783088 
L 324.109873 110.628868 
L 324.652806 111.549181 
L 325.195698 107.853206 
L 325.738591 102.337802 
L 326.281483 99.717987 
L 326.824375 101.894673 
L 327.910201 112.966733 
L 328.453093 115.142037 
L 328.995986 112.67042 
L 329.538878 111.67235 
L 330.081812 111.602829 
L 330.624704 112.033746 
L 332.253381 113.731087 
L 332.796314 114.091961 
L 333.339207 114.301343 
L 334.424991 114.373442 
L 335.510817 114.368302 
L 336.053709 114.670218 
L 336.596602 115.667292 
L 337.139494 114.391792 
L 337.682386 109.919225 
L 338.22532 102.732219 
L 338.768212 93.739442 
L 339.311104 87.167658 
L 339.853997 90.331093 
L 340.396889 107.783163 
L 340.939823 98.154214 
L 341.482715 75.283642 
L 342.025607 64.482894 
L 342.5685 66.45572 
L 343.111392 81.154668 
L 343.654325 107.56849 
L 344.197218 96.604972 
L 344.74011 80.594677 
L 345.283002 80.921929 
L 346.91172 111.501689 
L 347.454613 115.79302 
L 347.997505 113.509311 
L 348.540397 112.889103 
L 349.083331 113.178842 
L 350.712008 114.909839 
L 351.2549 114.925652 
L 351.797834 114.313224 
L 352.340726 112.783912 
L 352.883618 110.094226 
L 353.969403 102.600862 
L 354.512336 101.044311 
L 355.055229 104.567347 
L 355.598121 114.486548 
L 356.683906 91.412714 
L 357.226839 85.722412 
L 357.769731 88.887013 
L 358.312624 99.537821 
L 358.855516 113.726695 
L 359.941342 99.569646 
L 360.484234 99.173103 
L 361.027126 102.790661 
L 362.112911 112.045208 
L 362.655845 115.132018 
L 363.198737 115.385052 
L 363.741629 114.443139 
L 364.284522 114.097021 
L 364.827414 114.070037 
L 368.08485 114.906119 
L 369.170635 115.839109 
L 369.713527 113.589686 
L 370.256419 109.688091 
L 371.342245 98.094691 
L 371.885137 95.954334 
L 372.970922 110.004703 
L 373.513856 86.727599 
L 374.056748 73.058314 
L 374.59964 78.188387 
L 375.142533 98.14838 
L 375.685425 111.817347 
L 376.228358 97.532619 
L 376.771251 94.265435 
L 377.314143 98.412617 
L 378.399928 110.37665 
L 378.942861 114.199441 
L 379.485753 116.02322 
L 380.028646 115.047155 
L 380.571538 114.828177 
L 381.11443 115.025617 
L 382.200256 115.907656 
L 382.743148 115.975663 
L 383.828933 115.169609 
L 384.371867 114.966427 
L 384.914759 115.058317 
L 385.457651 115.740005 
L 386.000544 114.940776 
L 386.543436 111.708393 
L 387.086369 106.619187 
L 388.172154 95.022366 
L 388.715046 95.194691 
L 389.800872 113.865165 
L 390.343764 100.818231 
L 390.886657 95.616415 
L 391.429549 97.547967 
L 391.972441 100.950968 
L 392.515375 100.826339 
L 393.058267 95.273331 
L 393.601159 87.848216 
L 394.144052 88.113319 
L 394.686944 104.339988 
L 395.229878 100.781102 
L 395.77277 80.244515 
L 396.315662 77.613162 
L 396.858555 88.289018 
L 397.401447 101.945672 
L 397.94438 112.379761 
L 398.487273 114.115792 
L 398.487273 114.115792 
" clip-path="url(#pf5dfc57c48)" style="fill: none; stroke: #385989; stroke-width: 1.5; stroke-linecap: square"/>
   </g>
   <g id="line2d_9">
    <path d="M 73.832727 116.123685 
L 74.918533 116.172312 
L 84.690738 116.065448 
L 85.233651 116.179635 
L 99.89197 116.13116 
L 100.434863 115.862585 
L 101.520668 115.657484 
L 102.06356 115.827828 
L 102.606473 115.825191 
L 103.692258 116.071687 
L 104.23517 115.490635 
L 104.778063 115.610653 
L 105.320976 115.887884 
L 105.863868 115.965521 
L 106.40676 115.409543 
L 106.949673 116.169473 
L 114.550269 116.056452 
L 115.093181 115.776147 
L 115.636074 115.999208 
L 122.150885 116.182262 
L 127.036998 116.120032 
L 127.57989 115.994595 
L 128.665695 116.177853 
L 133.551788 116.149118 
L 135.723398 116.17668 
L 170.469042 116.177643 
L 171.011934 115.985206 
L 171.554826 116.121184 
L 174.269329 116.176586 
L 174.812242 116.04417 
L 175.355134 116.175135 
L 175.898047 116.072089 
L 178.069637 116.155525 
L 181.327053 116.159544 
L 188.927648 116.144039 
L 189.470561 116.048869 
L 190.013453 116.104291 
L 190.556346 116.005822 
L 191.642151 116.095495 
L 192.185064 115.932392 
L 192.727956 116.135142 
L 193.270848 115.887153 
L 193.813761 116.17438 
L 194.356654 115.904628 
L 194.899566 116.087076 
L 195.985351 116.139377 
L 197.614069 116.165564 
L 202.500162 116.159775 
L 207.386254 116.140733 
L 209.014973 115.982948 
L 210.100757 116.144901 
L 210.643691 115.977837 
L 211.729475 116.165475 
L 212.272368 116.104934 
L 213.358193 116.177075 
L 214.98687 116.068968 
L 216.072696 116.17004 
L 223.130379 116.151983 
L 224.216204 115.724997 
L 224.759097 115.05678 
L 225.844881 114.334902 
L 226.387774 115.436244 
L 226.930707 114.568786 
L 227.473599 112.033496 
L 228.016492 111.989534 
L 228.559384 114.432879 
L 229.102276 115.287173 
L 229.64521 113.957285 
L 230.188102 114.084716 
L 230.730995 114.797391 
L 231.273887 115.7002 
L 232.359713 116.087308 
L 233.98839 116.041896 
L 235.074215 116.093205 
L 235.617108 116.163213 
L 236.702892 116.039763 
L 237.245785 116.169817 
L 238.874503 116.085894 
L 240.503221 115.801213 
L 241.046113 115.898126 
L 241.589005 116.11233 
L 242.131898 115.756285 
L 243.217724 115.510896 
L 244.303508 116.104527 
L 245.932226 115.920693 
L 248.646729 116.158995 
L 252.447016 116.175 
L 255.704412 115.666046 
L 256.247304 115.900424 
L 256.790237 115.858602 
L 257.33313 114.798479 
L 257.876022 114.23213 
L 258.418914 114.730045 
L 258.961807 115.684252 
L 259.50474 115.552275 
L 260.047632 115.142689 
L 260.590525 115.150421 
L 262.219243 116.106625 
L 262.762135 116.142077 
L 263.84792 116.025197 
L 266.562423 116.038506 
L 268.191141 115.990925 
L 269.276925 115.746449 
L 270.905643 115.901348 
L 271.448536 116.172638 
L 271.991428 115.573765 
L 272.53432 114.306776 
L 273.077254 112.134751 
L 274.163038 106.096064 
L 274.705931 106.320503 
L 275.248823 114.045446 
L 275.791757 102.988174 
L 276.334649 89.324492 
L 276.877541 90.993945 
L 277.420434 107.28897 
L 277.963326 108.847778 
L 278.506259 101.701713 
L 279.049152 103.47636 
L 280.134936 112.033225 
L 280.677829 115.003443 
L 281.220762 115.839448 
L 281.763654 115.191141 
L 282.306547 115.041613 
L 282.849439 115.129174 
L 285.021049 115.979373 
L 286.106834 116.115248 
L 287.735552 116.020663 
L 288.278445 115.654744 
L 289.36427 113.96734 
L 289.907163 113.606252 
L 290.450055 113.727304 
L 290.992947 115.849545 
L 292.078773 111.650057 
L 292.621665 111.809563 
L 293.164558 113.634901 
L 293.70745 115.930432 
L 294.250342 115.072776 
L 294.793276 114.54111 
L 295.336168 114.663691 
L 296.964845 115.676064 
L 298.050671 115.959404 
L 299.136456 116.030375 
L 301.308066 115.830033 
L 302.393851 115.811888 
L 302.936784 116.040064 
L 303.479676 115.837647 
L 304.022569 114.779602 
L 304.565461 112.949869 
L 305.108353 110.059282 
L 306.194179 102.901368 
L 306.737071 103.301919 
L 307.279964 111.511748 
L 307.822856 103.922305 
L 308.36579 84.825353 
L 308.908682 77.653532 
L 309.451574 90.452517 
L 309.994467 113.883119 
L 310.537359 99.662152 
L 311.080292 93.960207 
L 311.623185 97.755778 
L 312.708969 111.356136 
L 313.251862 115.309194 
L 313.794795 114.876068 
L 314.337687 113.983009 
L 314.88058 113.848488 
L 315.423472 113.964059 
L 317.05219 114.734579 
L 318.137975 114.954564 
L 319.223801 115.036288 
L 319.766693 115.174424 
L 320.852478 115.904787 
L 321.39537 114.266697 
L 321.938303 111.492651 
L 323.56698 97.7384 
L 324.109873 97.182601 
L 324.652806 103.521216 
L 325.195698 115.79693 
L 326.281483 85.892643 
L 326.824375 75.019579 
L 327.367309 69.692936 
L 327.910201 77.161146 
L 328.453093 102.208663 
L 328.995986 97.571905 
L 329.538878 76.41055 
L 330.081812 76.31491 
L 331.710489 113.327145 
L 332.253381 113.480213 
L 332.796314 111.079445 
L 333.339207 110.559049 
L 333.882099 110.881367 
L 335.510817 112.578723 
L 336.053709 112.92196 
L 338.22532 113.797052 
L 338.768212 114.623532 
L 339.311104 116.030306 
L 339.853997 113.2019 
L 340.396889 108.722574 
L 341.482715 95.113183 
L 342.025607 88.204169 
L 342.5685 86.912672 
L 343.111392 96.735611 
L 343.654325 113.234852 
L 344.197218 89.012212 
L 344.74011 76.649213 
L 345.283002 78.845132 
L 346.368828 105.443137 
L 346.91172 114.989535 
L 347.454613 112.028073 
L 347.997505 109.880663 
L 348.540397 109.653556 
L 349.083331 110.36088 
L 350.712008 113.492843 
L 351.2549 114.201053 
L 351.797834 114.660754 
L 352.340726 114.828453 
L 352.883618 114.60415 
L 353.426511 113.938909 
L 353.969403 112.864859 
L 355.055229 110.053757 
L 355.598121 109.93182 
L 356.683906 114.191953 
L 357.769731 99.653593 
L 358.312624 99.376864 
L 358.855516 105.865526 
L 359.398408 115.574058 
L 359.941342 109.276108 
L 360.484234 106.291183 
L 361.027126 107.183813 
L 362.655845 114.933982 
L 363.198737 116.04113 
L 363.741629 115.251358 
L 364.284522 114.86936 
L 364.827414 114.781453 
L 366.456132 115.015072 
L 367.541917 115.556746 
L 368.08485 116.139241 
L 368.627742 115.26821 
L 369.170635 113.556301 
L 369.713527 110.993061 
L 370.799353 104.092517 
L 371.342245 102.498525 
L 371.885137 105.630844 
L 372.42803 115.677768 
L 373.513856 87.068153 
L 374.056748 81.174636 
L 374.59964 88.428477 
L 375.142533 105.829607 
L 375.685425 107.864453 
L 376.228358 96.706804 
L 376.771251 95.27177 
L 377.314143 100.07782 
L 378.399928 112.136139 
L 378.942861 115.775826 
L 380.028646 113.641908 
L 380.571538 113.406414 
L 381.657364 113.626443 
L 382.743148 113.863562 
L 384.914759 113.782002 
L 385.457651 114.284166 
L 386.000544 115.680991 
L 386.543436 113.920466 
L 387.086369 109.232145 
L 388.172154 97.808903 
L 388.715046 97.14725 
L 389.257939 106.300834 
L 389.800872 110.275739 
L 390.343764 95.111577 
L 390.886657 89.502361 
L 391.429549 93.892563 
L 391.972441 105.310666 
L 392.515375 112.280045 
L 393.601159 82.771611 
L 394.144052 80.80106 
L 394.686944 96.597544 
L 395.229878 108.020517 
L 395.77277 86.126809 
L 396.315662 82.329816 
L 396.858555 92.231204 
L 397.401447 104.960054 
L 397.94438 114.763314 
L 398.487273 111.668515 
L 398.487273 111.668515 
" clip-path="url(#pf5dfc57c48)" style="fill: none; stroke: #d22027; stroke-width: 1.5; stroke-linecap: square"/>
   </g>
   <g id="patch_3">
    <path d="M 57.6 119.740235 
L 57.6 41.472 
" style="fill: none; stroke: #000000; stroke-width: 0.8; stroke-linejoin: miter; stroke-linecap: square"/>
   </g>
   <g id="patch_4">
    <path d="M 414.72 119.740235 
L 414.72 41.472 
" style="fill: none; stroke: #000000; stroke-width: 0.8; stroke-linejoin: miter; stroke-linecap: square"/>
   </g>
   <g id="patch_5">
    <path d="M 57.6 119.740235 
L 414.72 119.740235 
" style="fill: none; stroke: #000000; stroke-width: 0.8; stroke-linejoin: miter; stroke-linecap: square"/>
   </g>
   <g id="patch_6">
    <path d="M 57.6 41.472 
L 414.72 41.472 
" style="fill: none; stroke: #000000; stroke-width: 0.8; stroke-linejoin: miter; stroke-linecap: square"/>
   </g>
  </g>
  <g id="axes_2">
   <g id="patch_7">
    <path d="M 57.6 213.662118 
L 414.72 213.662118 
L 414.72 135.393882 
L 57.6 135.393882 
z
" style="fill: #ffffff"/>
   </g>
   <g id="matplotlib.axis_3">
    <g id="xtick_5">
     <g id="line2d_10">
      <g>
       <use xlink:href="#m4880c742a8" x="73.289835" y="213.662118" style="stroke: #000000; stroke-width: 0.8"/>
      </g>
     </g>
     <g id="text_8">
      <!-- 10 -->
      <g transform="translate(66.927335 228.260555)scale(0.1 -0.1)">
       <use xlink:href="#DejaVuSans-31"/>
       <use xlink:href="#DejaVuSans-30" x="63.623047"/>
      </g>
     </g>
    </g>
    <g id="xtick_6">
     <g id="line2d_11">
      <g>
       <use xlink:href="#m4880c742a8" x="116.721879" y="213.662118" style="stroke: #000000; stroke-width: 0.8"/>
      </g>
     </g>
     <g id="text_9">
      <!-- 12 -->
      <g transform="translate(110.359379 228.260555)scale(0.1 -0.1)">
       <use xlink:href="#DejaVuSans-31"/>
       <use xlink:href="#DejaVuSans-32" x="63.623047"/>
      </g>
     </g>
    </g>
    <g id="xtick_7">
     <g id="line2d_12">
      <g>
       <use xlink:href="#m4880c742a8" x="160.153923" y="213.662118" style="stroke: #000000; stroke-width: 0.8"/>
      </g>
     </g>
     <g id="text_10">
      <!-- 14 -->
      <g transform="translate(153.791423 228.260555)scale(0.1 -0.1)">
       <use xlink:href="#DejaVuSans-31"/>
       <use xlink:href="#DejaVuSans-34" x="63.623047"/>
      </g>
     </g>
    </g>
    <g id="xtick_8">
     <g id="line2d_13">
      <g>
       <use xlink:href="#m4880c742a8" x="203.585967" y="213.662118" style="stroke: #000000; stroke-width: 0.8"/>
      </g>
     </g>
     <g id="text_11">
      <!-- 16 -->
      <g transform="translate(197.223467 228.260555)scale(0.1 -0.1)">
       <use xlink:href="#DejaVuSans-31"/>
       <use xlink:href="#DejaVuSans-36" x="63.623047"/>
      </g>
     </g>
    </g>
   </g>
   <g id="matplotlib.axis_4">
    <g id="ytick_4">
     <g id="line2d_14">
      <g>
       <use xlink:href="#m1ad97819f8" x="57.6" y="210.10453" style="stroke: #000000; stroke-width: 0.8"/>
      </g>
     </g>
     <g id="text_12">
      <!-- 0 -->
      <g transform="translate(44.2375 213.903749)scale(0.1 -0.1)">
       <use xlink:href="#DejaVuSans-30"/>
      </g>
     </g>
    </g>
    <g id="ytick_5">
     <g id="line2d_15">
      <g>
       <use xlink:href="#m1ad97819f8" x="57.6" y="168.561168" style="stroke: #000000; stroke-width: 0.8"/>
      </g>
     </g>
     <g id="text_13">
      <!-- 10 -->
      <g transform="translate(37.875 172.360387)scale(0.1 -0.1)">
       <use xlink:href="#DejaVuSans-31"/>
       <use xlink:href="#DejaVuSans-30" x="63.623047"/>
      </g>
     </g>
    </g>
   </g>
   <g id="line2d_16">
    <path d="M 73.832727 210.055024 
L 90.119744 210.096379 
L 97.177467 210.010444 
L 98.263252 209.804071 
L 99.89197 209.271124 
L 100.434863 209.677708 
L 100.977755 208.791309 
L 101.520668 206.385175 
L 102.06356 207.067223 
L 102.606473 208.798965 
L 103.149365 206.698404 
L 103.692258 208.380848 
L 104.23517 209.561729 
L 104.778063 210.083492 
L 105.320976 209.41548 
L 105.863868 209.595214 
L 106.40676 210.027861 
L 110.207068 210.08926 
L 114.550269 209.95178 
L 115.636074 209.934835 
L 116.178987 210.071549 
L 117.807684 209.897159 
L 121.065079 210.095639 
L 128.665695 210.0096 
L 129.7515 209.905507 
L 130.837285 210.030086 
L 131.92309 209.907198 
L 136.266291 210.095596 
L 143.324014 210.042537 
L 144.409799 209.91831 
L 145.495604 210.034571 
L 146.581409 209.94924 
L 150.381717 210.095239 
L 157.43942 210.017865 
L 158.525225 210.030363 
L 167.754539 210.103618 
L 170.469042 210.025748 
L 172.097739 209.870011 
L 172.640632 210.019598 
L 173.183544 209.819882 
L 173.726437 209.405764 
L 174.269329 209.301638 
L 174.812242 209.74414 
L 175.355134 209.836115 
L 175.898047 209.456112 
L 176.44094 209.46791 
L 177.526745 210.095845 
L 178.069637 209.987221 
L 181.869945 210.09604 
L 185.12734 210.045166 
L 187.298951 210.032091 
L 187.841843 209.817703 
L 188.384756 209.421552 
L 189.470561 208.301549 
L 190.013453 208.40174 
L 190.556346 210.035733 
L 191.642151 203.237583 
L 192.185064 204.775147 
L 192.727956 209.576368 
L 193.270848 204.905682 
L 193.813761 204.790706 
L 194.899566 210.034946 
L 195.442459 209.166676 
L 195.985351 209.26561 
L 197.071156 209.640882 
L 198.699854 210.019369 
L 199.785659 210.071524 
L 204.671752 209.878546 
L 205.214685 209.925532 
L 205.757577 210.095431 
L 206.30047 209.712428 
L 207.386254 208.722957 
L 207.929188 209.01463 
L 208.47208 209.943443 
L 209.014973 208.583614 
L 209.557865 208.421182 
L 210.100757 209.362054 
L 210.643691 210.024796 
L 211.186583 209.726222 
L 211.729475 209.66644 
L 214.443978 210.042195 
L 218.244265 209.873911 
L 220.415876 209.521639 
L 221.501702 209.291952 
L 222.044594 209.274492 
L 222.587486 209.469054 
L 223.130379 210.087536 
L 223.673271 208.523961 
L 224.216204 205.357227 
L 224.759097 199.853684 
L 225.844881 186.30303 
L 226.387774 190.680991 
L 226.930707 205.324788 
L 227.473599 166.43725 
L 228.016492 138.951529 
L 228.559384 147.448679 
L 229.102276 192.157622 
L 229.64521 171.371003 
L 230.188102 142.363511 
L 230.730995 158.587473 
L 231.273887 193.50919 
L 231.816779 203.089048 
L 232.359713 195.559976 
L 232.902605 197.935455 
L 233.445497 202.655751 
L 233.98839 205.897823 
L 234.531282 207.856066 
L 235.074215 209.101395 
L 235.617108 209.808577 
L 236.16 210.056846 
L 237.245785 209.990748 
L 237.788718 209.439724 
L 238.33161 208.48762 
L 239.960287 204.766376 
L 240.503221 205.750454 
L 241.046113 209.906405 
L 242.131898 196.925158 
L 242.67479 195.81904 
L 243.217724 201.601981 
L 243.760616 209.575198 
L 244.303508 202.755258 
L 244.846401 200.860907 
L 245.389293 202.782808 
L 246.475119 208.840664 
L 247.018011 209.701434 
L 247.560903 208.983764 
L 248.103796 208.849503 
L 249.189621 209.215376 
L 250.275406 209.569817 
L 251.361232 209.658768 
L 252.989909 209.613777 
L 254.075735 209.957739 
L 254.618627 208.949525 
L 255.704412 205.449676 
L 256.247304 204.512451 
L 257.33313 208.364835 
L 257.876022 202.131588 
L 258.418914 199.998814 
L 258.961807 203.658453 
L 259.50474 209.549072 
L 260.047632 206.753688 
L 260.590525 205.936836 
L 261.133417 206.905638 
L 261.676309 208.227372 
L 262.219243 209.255352 
L 262.762135 209.846705 
L 263.305027 210.102227 
L 264.390812 210.077827 
L 267.105315 210.058017 
L 267.648248 209.73069 
L 268.191141 209.125177 
L 268.734033 208.103349 
L 269.276925 206.549654 
L 270.362751 202.315942 
L 270.905643 201.133345 
L 271.448536 202.653186 
L 271.991428 208.447143 
L 272.53432 201.894195 
L 273.077254 190.883308 
L 273.620146 182.679827 
L 274.163038 180.331468 
L 274.705931 187.284482 
L 275.248823 206.632 
L 276.334649 170.716393 
L 276.877541 176.801751 
L 277.420434 196.48851 
L 277.963326 207.185802 
L 278.506259 200.364672 
L 279.049152 200.347766 
L 280.134936 205.262812 
L 280.677829 207.059557 
L 281.220762 208.157609 
L 281.763654 208.748872 
L 282.849439 209.221097 
L 283.392331 209.480476 
L 283.935265 210.017574 
L 284.478157 209.129518 
L 285.021049 207.263143 
L 286.649768 199.455619 
L 287.19266 201.080568 
L 287.735552 207.507037 
L 288.278445 204.33165 
L 288.821337 200.424263 
L 289.907163 208.476777 
L 290.450055 206.291388 
L 290.992947 207.775688 
L 291.53584 198.714571 
L 292.078773 195.278281 
L 292.621665 199.976093 
L 293.164558 208.019401 
L 294.250342 204.09738 
L 294.793276 204.574313 
L 296.421953 208.936387 
L 296.964845 209.829846 
L 297.507779 209.77416 
L 298.593563 209.058008 
L 299.679348 208.645275 
L 300.222281 208.556789 
L 300.765174 208.661804 
L 301.850958 209.673134 
L 302.393851 207.012712 
L 302.936784 202.700488 
L 303.479676 197.296706 
L 304.022569 193.646642 
L 304.565461 197.183774 
L 305.108353 208.782924 
L 305.651287 190.692093 
L 306.194179 184.595349 
L 306.737071 197.803965 
L 307.279964 200.232745 
L 307.822856 185.665677 
L 308.36579 189.517585 
L 308.908682 209.042384 
L 309.451574 185.618134 
L 309.994467 179.829181 
L 310.537359 192.958102 
L 311.080292 209.885931 
L 311.623185 200.978357 
L 312.166077 199.478492 
L 312.708969 201.701042 
L 313.251862 204.504098 
L 313.794795 206.662191 
L 314.337687 208.009265 
L 314.88058 208.717507 
L 315.423472 209.001189 
L 317.05219 209.030356 
L 317.595082 209.367424 
L 318.137975 209.878258 
L 318.680867 207.856688 
L 319.223801 204.384836 
L 320.309585 195.116252 
L 320.852478 194.739463 
L 321.39537 202.430889 
L 321.938303 203.957356 
L 322.481196 194.387321 
L 323.024088 197.313347 
L 323.56698 207.247564 
L 324.109873 208.613782 
L 324.652806 206.264899 
L 325.195698 198.423637 
L 325.738591 197.159285 
L 326.824375 208.994499 
L 327.367309 204.332668 
L 327.910201 203.353617 
L 328.453093 204.480049 
L 329.538878 207.674912 
L 330.081812 208.738636 
L 330.624704 209.394602 
L 331.167596 209.742053 
L 331.710489 209.874406 
L 332.796314 209.784627 
L 334.424991 209.393646 
L 334.967884 209.404059 
L 335.510817 209.673201 
L 336.053709 209.736133 
L 336.596602 207.905427 
L 337.139494 204.411432 
L 337.682386 198.764229 
L 338.22532 191.794552 
L 338.768212 187.554954 
L 339.311104 193.914456 
L 339.853997 204.266196 
L 340.396889 176.042078 
L 340.939823 161.478178 
L 341.482715 167.135196 
L 342.025607 182.94843 
L 342.5685 203.529941 
L 343.111392 190.225782 
L 343.654325 167.360532 
L 344.197218 165.231398 
L 345.283002 206.984359 
L 345.825895 201.030198 
L 346.368828 198.84853 
L 346.91172 201.263089 
L 347.997505 207.002716 
L 348.540397 208.696522 
L 349.083331 209.702382 
L 349.626223 210.002204 
L 350.169115 209.90508 
L 350.712008 210.005439 
L 351.2549 209.213038 
L 351.797834 207.786634 
L 352.340726 205.577713 
L 353.426511 200.127163 
L 353.969403 199.911389 
L 354.512336 204.925009 
L 355.055229 204.139154 
L 355.598121 190.889933 
L 356.141013 183.061857 
L 356.683906 185.284955 
L 357.226839 196.134168 
L 357.769731 209.315338 
L 358.312624 195.880669 
L 358.855516 188.941714 
L 359.398408 190.756822 
L 360.484234 206.766178 
L 361.027126 208.040602 
L 361.570019 205.902582 
L 362.112911 205.867325 
L 364.284522 209.039995 
L 364.827414 209.387667 
L 365.91324 209.635096 
L 366.999024 209.678949 
L 368.08485 210.023175 
L 368.627742 209.181996 
L 369.170635 207.472929 
L 369.713527 204.494444 
L 370.799353 195.75937 
L 371.342245 195.200545 
L 371.885137 204.678656 
L 372.42803 193.952874 
L 372.970922 171.186375 
L 373.513856 166.271389 
L 374.59964 203.05172 
L 375.142533 180.640154 
L 375.685425 177.693338 
L 376.771251 203.756614 
L 377.314143 207.703627 
L 377.857035 204.735891 
L 378.399928 204.992584 
L 380.028646 208.816544 
L 380.571538 209.589239 
L 381.11443 210.100144 
L 382.200256 209.509691 
L 383.286041 209.263249 
L 383.828933 209.303575 
L 384.371867 209.563583 
L 384.914759 209.972062 
L 385.457651 208.547764 
L 386.000544 205.979023 
L 386.543436 202.009299 
L 387.086369 197.209021 
L 387.629262 193.952947 
L 388.172154 196.636102 
L 388.715046 208.454488 
L 389.257939 195.111913 
L 389.800872 185.32593 
L 390.343764 189.187526 
L 390.886657 200.519158 
L 391.429549 208.582324 
L 391.972441 207.85604 
L 393.058267 189.968155 
L 393.601159 190.592781 
L 394.144052 209.108872 
L 394.686944 177.215148 
L 395.229878 162.080029 
L 395.77277 177.343245 
L 396.315662 204.084559 
L 396.858555 199.484388 
L 397.401447 196.009729 
L 397.94438 198.975193 
L 398.487273 203.106844 
L 398.487273 203.106844 
" clip-path="url(#p60db05ebad)" style="fill: none; stroke: #385989; stroke-width: 1.5; stroke-linecap: square"/>
   </g>
   <g id="line2d_17">
    <path d="M 73.832727 210.078876 
L 76.54723 210.099614 
L 79.261733 210.098125 
L 80.347538 209.929752 
L 80.890451 210.097948 
L 83.604954 210.066985 
L 87.405241 210.101411 
L 98.806165 210.080504 
L 99.89197 210.022278 
L 100.977755 210.052136 
L 101.520668 209.83571 
L 102.06356 209.337509 
L 102.606473 210.103648 
L 103.149365 209.282132 
L 103.692258 210.003957 
L 104.778063 210.012041 
L 105.320976 209.899118 
L 105.863868 209.990245 
L 106.40676 209.934558 
L 106.949673 210.094315 
L 113.464484 210.071161 
L 114.550269 209.946648 
L 115.093181 210.07115 
L 115.636074 209.89433 
L 116.178987 209.843651 
L 116.721879 209.990386 
L 117.807684 210.084495 
L 121.607992 210.103095 
L 126.494085 210.053784 
L 127.57989 209.968334 
L 131.92309 210.099674 
L 136.266291 210.101503 
L 157.43942 210.09215 
L 160.696815 209.969944 
L 161.782621 210.08673 
L 165.582929 210.101402 
L 175.898047 210.047883 
L 176.44094 210.002223 
L 177.526745 210.091442 
L 187.841843 210.08309 
L 191.642151 209.861987 
L 192.185064 210.08034 
L 193.270848 209.56169 
L 193.813761 209.90418 
L 197.614069 210.08797 
L 205.214685 210.076677 
L 208.47208 209.952165 
L 209.014973 210.004922 
L 209.557865 209.864089 
L 212.272368 210.069958 
L 217.701373 210.096586 
L 223.130379 209.937269 
L 224.216204 209.381003 
L 224.759097 208.584578 
L 225.301989 208.626264 
L 225.844881 209.853197 
L 226.387774 207.919779 
L 226.930707 204.919324 
L 227.473599 205.826309 
L 228.016492 209.455437 
L 228.559384 205.884775 
L 229.102276 206.411988 
L 229.64521 208.640017 
L 230.188102 209.905227 
L 230.730995 209.391928 
L 231.816779 209.663117 
L 232.902605 209.965555 
L 234.531282 210.096607 
L 238.874503 209.942113 
L 239.960287 209.821184 
L 240.503221 209.938965 
L 241.046113 209.926169 
L 242.131898 209.316427 
L 242.67479 209.612114 
L 243.217724 210.077637 
L 243.760616 209.768996 
L 244.303508 209.658175 
L 245.932226 210.059098 
L 251.361232 210.099277 
L 253.532801 209.905866 
L 254.618627 209.736384 
L 255.161519 209.751784 
L 255.704412 210.033191 
L 256.247304 209.506621 
L 256.790237 208.721188 
L 257.33313 208.245629 
L 258.418914 209.648578 
L 258.961807 208.491782 
L 259.50474 208.654109 
L 260.590525 210.092322 
L 261.133417 209.812059 
L 262.219243 209.83851 
L 263.84792 210.02824 
L 266.01953 210.03921 
L 268.191141 209.976218 
L 269.276925 209.836701 
L 270.362751 209.99948 
L 270.905643 209.967691 
L 271.448536 209.454439 
L 271.991428 208.479607 
L 272.53432 206.748727 
L 273.620146 202.100027 
L 274.163038 202.978324 
L 274.705931 208.684555 
L 275.248823 191.741706 
L 275.791757 178.764015 
L 276.334649 188.203145 
L 276.877541 203.804233 
L 277.420434 184.140193 
L 277.963326 187.819713 
L 278.506259 201.556241 
L 279.049152 209.053506 
L 279.592044 205.824577 
L 280.134936 206.109663 
L 281.220762 208.398262 
L 281.763654 209.178926 
L 282.306547 209.666278 
L 282.849439 209.954013 
L 283.392331 210.079356 
L 285.021049 209.91723 
L 287.19266 209.972995 
L 287.735552 209.582676 
L 289.36427 207.806773 
L 289.907163 208.980218 
L 290.450055 208.911962 
L 290.992947 206.221216 
L 291.53584 204.775894 
L 292.078773 206.648915 
L 292.621665 209.907635 
L 293.164558 207.527072 
L 293.70745 207.235218 
L 294.793276 209.26366 
L 295.336168 209.943243 
L 298.593563 210.062278 
L 300.765174 209.864077 
L 302.393851 210.078489 
L 302.936784 209.649046 
L 303.479676 208.836904 
L 304.022569 207.400644 
L 304.565461 205.179336 
L 305.108353 202.357549 
L 305.651287 200.126093 
L 306.194179 201.501425 
L 306.737071 209.435703 
L 307.822856 174.139593 
L 308.36579 174.164374 
L 308.908682 199.395347 
L 309.451574 187.972721 
L 309.994467 174.200501 
L 310.537359 184.172338 
L 311.080292 201.760476 
L 311.623185 206.971313 
L 312.166077 203.319155 
L 312.708969 203.900666 
L 313.794795 207.391345 
L 314.337687 208.538361 
L 314.88058 209.252266 
L 315.423472 209.608406 
L 316.509298 209.851803 
L 317.595082 209.761116 
L 318.680867 209.676698 
L 319.223801 209.802742 
L 319.766693 210.10096 
L 320.309585 209.46444 
L 320.852478 208.154172 
L 321.39537 205.926821 
L 323.024088 196.504065 
L 323.56698 198.232549 
L 324.109873 206.832988 
L 324.652806 199.339959 
L 325.195698 186.298826 
L 325.738591 179.762578 
L 326.281483 178.397226 
L 326.824375 180.324525 
L 327.367309 191.528145 
L 327.910201 200.125317 
L 328.453093 165.670976 
L 328.995986 156.133768 
L 329.538878 178.582731 
L 330.081812 207.480645 
L 330.624704 197.49037 
L 331.167596 195.575849 
L 332.796314 206.14382 
L 333.339207 207.940481 
L 333.882099 208.827016 
L 334.424991 209.238462 
L 334.967884 209.400152 
L 337.139494 209.134186 
L 337.682386 209.399895 
L 338.22532 210.059609 
L 338.768212 208.82678 
L 339.311104 206.631781 
L 339.853997 203.314497 
L 341.482715 189.938323 
L 342.025607 191.270318 
L 342.5685 203.857132 
L 343.111392 191.443842 
L 343.654325 168.501285 
L 344.197218 167.201647 
L 345.283002 209.312904 
L 345.825895 197.350704 
L 346.368828 195.882648 
L 347.997505 206.08668 
L 348.540397 208.11732 
L 349.083331 209.343814 
L 349.626223 210.006674 
L 350.712008 209.829092 
L 351.797834 210.005281 
L 352.340726 209.538503 
L 352.883618 208.835127 
L 354.512336 205.91156 
L 355.055229 206.153856 
L 355.598121 208.866259 
L 356.141013 205.231587 
L 356.683906 197.758961 
L 357.226839 193.604107 
L 357.769731 197.535046 
L 358.312624 208.850638 
L 358.855516 200.034401 
L 359.398408 195.796217 
L 359.941342 199.032429 
L 360.484234 205.120365 
L 361.027126 209.917056 
L 361.570019 207.939476 
L 362.112911 207.42997 
L 362.655845 207.778554 
L 363.741629 208.901261 
L 364.827414 209.527363 
L 365.91324 209.777505 
L 366.456132 209.877423 
L 366.999024 210.098618 
L 367.541917 209.704778 
L 368.08485 208.972108 
L 368.627742 207.730539 
L 369.170635 205.80918 
L 370.256419 201.028783 
L 370.799353 200.769992 
L 371.342245 205.20238 
L 371.885137 204.140643 
L 372.42803 189.644623 
L 372.970922 179.209243 
L 373.513856 181.123825 
L 374.056748 197.168492 
L 374.59964 199.986557 
L 375.142533 183.273555 
L 375.685425 182.029712 
L 376.771251 205.854935 
L 377.314143 206.527547 
L 377.857035 204.021674 
L 378.399928 204.51674 
L 379.485753 207.33397 
L 380.028646 208.32105 
L 380.571538 208.943912 
L 381.11443 209.270476 
L 381.657364 209.379214 
L 382.743148 209.227528 
L 383.828933 209.008178 
L 384.371867 209.0965 
L 384.914759 209.553151 
L 385.457651 209.493664 
L 386.000544 207.22291 
L 386.543436 203.503563 
L 387.086369 198.721277 
L 387.629262 195.212459 
L 388.172154 197.2613 
L 388.715046 208.567044 
L 389.800872 181.041392 
L 390.343764 184.431902 
L 390.886657 199.133768 
L 391.429549 205.255254 
L 391.972441 193.258845 
L 392.515375 183.797818 
L 393.058267 177.833469 
L 393.601159 182.527492 
L 394.144052 206.339063 
L 394.686944 179.759452 
L 395.229878 163.274095 
L 395.77277 177.738636 
L 396.315662 204.170662 
L 396.858555 199.355976 
L 397.401447 195.883955 
L 397.94438 198.76718 
L 398.487273 202.409809 
L 398.487273 202.409809 
" clip-path="url(#p60db05ebad)" style="fill: none; stroke: #d22027; stroke-width: 1.5; stroke-linecap: square"/>
   </g>
   <g id="patch_8">
    <path d="M 57.6 213.662118 
L 57.6 135.393882 
" style="fill: none; stroke: #000000; stroke-width: 0.8; stroke-linejoin: miter; stroke-linecap: square"/>
   </g>
   <g id="patch_9">
    <path d="M 414.72 213.662118 
L 414.72 135.393882 
" style="fill: none; stroke: #000000; stroke-width: 0.8; stroke-linejoin: miter; stroke-linecap: square"/>
   </g>
   <g id="patch_10">
    <path d="M 57.6 213.662118 
L 414.72 213.662118 
" style="fill: none; stroke: #000000; stroke-width: 0.8; stroke-linejoin: miter; stroke-linecap: square"/>
   </g>
   <g id="patch_11">
    <path d="M 57.6 135.393882 
L 414.72 135.393882 
" style="fill: none; stroke: #000000; stroke-width: 0.8; stroke-linejoin: miter; stroke-linecap: square"/>
   </g>
  </g>
  <g id="axes_3">
   <g id="patch_12">
    <path d="M 57.6 307.584 
L 414.72 307.584 
L 414.72 229.315765 
L 57.6 229.315765 
z
" style="fill: #ffffff"/>
   </g>
   <g id="matplotlib.axis_5">
    <g id="xtick_9">
     <g id="line2d_18">
      <g>
       <use xlink:href="#m4880c742a8" x="73.289835" y="307.584" style="stroke: #000000; stroke-width: 0.8"/>
      </g>
     </g>
     <g id="text_14">
      <!-- 10 -->
      <g transform="translate(66.927335 322.182437)scale(0.1 -0.1)">
       <use xlink:href="#DejaVuSans-31"/>
       <use xlink:href="#DejaVuSans-30" x="63.623047"/>
      </g>
     </g>
    </g>
    <g id="xtick_10">
     <g id="line2d_19">
      <g>
       <use xlink:href="#m4880c742a8" x="116.721879" y="307.584" style="stroke: #000000; stroke-width: 0.8"/>
      </g>
     </g>
     <g id="text_15">
      <!-- 12 -->
      <g transform="translate(110.359379 322.182437)scale(0.1 -0.1)">
       <use xlink:href="#DejaVuSans-31"/>
       <use xlink:href="#DejaVuSans-32" x="63.623047"/>
      </g>
     </g>
    </g>
    <g id="xtick_11">
     <g id="line2d_20">
      <g>
       <use xlink:href="#m4880c742a8" x="160.153923" y="307.584" style="stroke: #000000; stroke-width: 0.8"/>
      </g>
     </g>
     <g id="text_16">
      <!-- 14 -->
      <g transform="translate(153.791423 322.182437)scale(0.1 -0.1)">
       <use xlink:href="#DejaVuSans-31"/>
       <use xlink:href="#DejaVuSans-34" x="63.623047"/>
      </g>
     </g>
    </g>
    <g id="xtick_12">
     <g id="line2d_21">
      <g>
       <use xlink:href="#m4880c742a8" x="203.585967" y="307.584" style="stroke: #000000; stroke-width: 0.8"/>
      </g>
     </g>
     <g id="text_17">
      <!-- 16 -->
      <g transform="translate(197.223467 322.182437)scale(0.1 -0.1)">
       <use xlink:href="#DejaVuSans-31"/>
       <use xlink:href="#DejaVuSans-36" x="63.623047"/>
      </g>
     </g>
    </g>
   </g>
   <g id="matplotlib.axis_6">
    <g id="ytick_6">
     <g id="line2d_22">
      <g>
       <use xlink:href="#m1ad97819f8" x="57.6" y="304.026365" style="stroke: #000000; stroke-width: 0.8"/>
      </g>
     </g>
     <g id="text_18">
      <!-- 0 -->
      <g transform="translate(44.2375 307.825584)scale(0.1 -0.1)">
       <use xlink:href="#DejaVuSans-30"/>
      </g>
     </g>
    </g>
    <g id="ytick_7">
     <g id="line2d_23">
      <g>
       <use xlink:href="#m1ad97819f8" x="57.6" y="266.120931" style="stroke: #000000; stroke-width: 0.8"/>
      </g>
     </g>
     <g id="text_19">
      <!-- 10 -->
      <g transform="translate(37.875 269.92015)scale(0.1 -0.1)">
       <use xlink:href="#DejaVuSans-31"/>
       <use xlink:href="#DejaVuSans-30" x="63.623047"/>
      </g>
     </g>
    </g>
   </g>
   <g id="line2d_24">
    <path d="M 73.832727 304.007807 
L 75.461445 303.977587 
L 78.175948 303.92404 
L 79.261733 303.943402 
L 80.890451 303.918043 
L 87.405241 304.012824 
L 90.662657 303.96633 
L 98.263252 303.913481 
L 98.806165 304.016073 
L 99.349057 303.815148 
L 99.89197 303.36572 
L 100.434863 302.651458 
L 100.977755 302.128667 
L 101.520668 303.577377 
L 102.06356 301.0753 
L 102.606473 299.99014 
L 103.149365 302.556411 
L 103.692258 303.162085 
L 104.23517 303.018587 
L 105.320976 304.014091 
L 105.863868 303.767726 
L 106.40676 303.675793 
L 107.492566 303.834656 
L 108.578371 304.021533 
L 114.007376 303.926268 
L 115.636074 303.891681 
L 116.721879 303.837657 
L 117.807684 304.019575 
L 119.436382 303.932219 
L 123.23669 304.00568 
L 130.294393 303.84424 
L 131.380198 303.898857 
L 131.92309 304.003087 
L 134.094701 303.943235 
L 136.809203 304.016128 
L 153.639112 304.021486 
L 157.982313 303.993456 
L 159.068118 303.848873 
L 160.696815 303.95888 
L 171.554826 303.977384 
L 173.183544 303.529653 
L 173.726437 303.770941 
L 174.269329 303.698007 
L 174.812242 303.213363 
L 175.355134 303.199635 
L 176.44094 303.957129 
L 176.983832 303.725838 
L 177.526745 303.760133 
L 178.61255 304.024415 
L 180.241247 304.011407 
L 186.213145 303.906243 
L 188.384756 303.641253 
L 188.927648 303.895802 
L 189.470561 303.381231 
L 190.556346 300.267145 
L 191.099258 300.311758 
L 191.642151 303.848118 
L 192.185064 298.943422 
L 192.727956 297.050562 
L 193.813761 303.44062 
L 194.356654 301.475159 
L 194.899566 301.786528 
L 195.442459 302.888798 
L 195.985351 303.680063 
L 196.528264 304.007912 
L 198.699854 303.961428 
L 204.671752 303.810856 
L 206.30047 303.408264 
L 207.386254 303.8286 
L 207.929188 302.904082 
L 208.47208 302.447755 
L 209.557865 303.680643 
L 210.100757 303.002724 
L 210.643691 303.118663 
L 211.729475 303.752035 
L 212.81526 304.005449 
L 216.615588 304.000071 
L 219.330091 303.942381 
L 220.415876 303.763044 
L 221.501702 303.275641 
L 222.044594 302.793695 
L 222.587486 302.078463 
L 223.673271 299.839901 
L 224.216204 298.787359 
L 224.759097 299.139115 
L 225.301989 303.436704 
L 225.844881 293.260682 
L 226.930707 258.922344 
L 227.473599 264.612155 
L 228.016492 299.54886 
L 228.559384 262.101956 
L 229.102276 232.873412 
L 229.64521 242.002276 
L 230.188102 285.443705 
L 230.730995 280.833028 
L 231.273887 269.034978 
L 231.816779 279.562221 
L 232.359713 293.412233 
L 232.902605 301.993201 
L 233.445497 302.78109 
L 233.98839 302.23504 
L 235.074215 302.940673 
L 235.617108 303.111387 
L 236.16 303.114142 
L 237.245785 302.819017 
L 237.788718 302.650386 
L 238.33161 302.651335 
L 239.417395 303.642314 
L 239.960287 301.106079 
L 241.046113 294.394005 
L 241.589005 294.360997 
L 242.131898 299.377958 
L 242.67479 300.147853 
L 243.217724 293.109859 
L 243.760616 291.707681 
L 244.303508 295.59012 
L 244.846401 301.267555 
L 245.389293 302.556648 
L 245.932226 300.768368 
L 246.475119 300.770517 
L 248.103796 303.015358 
L 248.646729 303.397167 
L 249.732514 303.742128 
L 251.904124 303.965669 
L 252.989909 303.482902 
L 254.618627 302.257377 
L 255.161519 302.431921 
L 255.704412 303.80765 
L 256.247304 301.257616 
L 256.790237 297.475938 
L 257.33313 295.535212 
L 257.876022 298.174989 
L 258.418914 303.557713 
L 258.961807 298.221073 
L 259.50474 297.264864 
L 260.047632 299.66501 
L 260.590525 302.616862 
L 261.133417 303.588974 
L 261.676309 302.927713 
L 262.219243 302.942128 
L 263.84792 303.499056 
L 264.933746 303.532261 
L 266.01953 303.347738 
L 267.105315 302.920925 
L 268.734033 302.110681 
L 269.276925 302.252427 
L 269.819818 303.166837 
L 270.362751 302.642689 
L 270.905643 298.640235 
L 271.991428 288.127088 
L 272.53432 286.442589 
L 273.077254 290.510991 
L 273.620146 300.320584 
L 274.163038 293.678402 
L 274.705931 277.849566 
L 275.248823 266.709025 
L 275.791757 270.709192 
L 276.334649 292.065556 
L 276.877541 292.218642 
L 277.420434 282.133196 
L 277.963326 285.986758 
L 278.506259 294.357716 
L 279.049152 300.770505 
L 279.592044 304.024694 
L 280.134936 302.903772 
L 280.677829 302.736082 
L 281.763654 302.902887 
L 282.306547 302.841626 
L 282.849439 302.621874 
L 284.478157 301.500759 
L 285.021049 301.591421 
L 285.563942 302.766302 
L 286.106834 302.139616 
L 286.649768 296.474687 
L 287.19266 289.301975 
L 287.735552 284.264933 
L 288.278445 286.192973 
L 288.821337 296.572029 
L 289.36427 296.895161 
L 289.907163 284.302074 
L 290.450055 277.625562 
L 290.992947 279.08755 
L 291.53584 288.882802 
L 292.078773 302.612475 
L 292.621665 295.104074 
L 293.164558 291.974727 
L 293.70745 294.250574 
L 294.793276 301.301961 
L 295.336168 303.13136 
L 295.87906 303.967745 
L 296.964845 303.680135 
L 298.593563 303.484368 
L 299.136456 303.279076 
L 299.679348 302.949647 
L 300.222281 302.470541 
L 300.765174 301.789465 
L 301.850958 299.920415 
L 302.393851 299.318737 
L 302.936784 300.113199 
L 303.479676 303.956511 
L 304.022569 295.002909 
L 304.565461 282.221475 
L 305.108353 272.800496 
L 305.651287 276.551546 
L 306.194179 293.704253 
L 306.737071 295.716626 
L 307.279964 284.369776 
L 308.36579 270.680613 
L 308.908682 270.744978 
L 309.994467 298.820194 
L 310.537359 283.324919 
L 311.080292 282.791062 
L 312.166077 298.106698 
L 312.708969 302.646298 
L 313.251862 303.519899 
L 313.794795 303.019216 
L 315.423472 303.157347 
L 315.966364 303.020095 
L 316.509298 302.730682 
L 317.05219 302.261095 
L 318.680867 300.450359 
L 319.223801 300.952503 
L 319.766693 303.721937 
L 320.309585 297.783029 
L 321.39537 278.225554 
L 321.938303 278.395351 
L 322.481196 292.691252 
L 323.024088 293.736967 
L 323.56698 276.765597 
L 324.109873 270.984819 
L 324.652806 276.893934 
L 325.195698 291.266591 
L 325.738591 301.407183 
L 326.281483 292.35087 
L 326.824375 291.342169 
L 328.453093 301.897237 
L 328.995986 303.407148 
L 329.538878 304.020247 
L 330.081812 303.840141 
L 332.796314 303.673231 
L 333.882099 303.2857 
L 334.424991 302.919524 
L 334.967884 302.376432 
L 335.510817 301.58988 
L 337.139494 298.57253 
L 337.682386 299.502778 
L 338.22532 303.550312 
L 338.768212 292.150328 
L 339.311104 276.039689 
L 339.853997 265.540866 
L 340.396889 273.454916 
L 340.939823 297.985314 
L 341.482715 285.441891 
L 342.025607 270.021461 
L 342.5685 261.471621 
L 343.111392 262.521297 
L 344.197218 298.81 
L 344.74011 280.252009 
L 345.283002 279.805686 
L 346.368828 297.851667 
L 346.91172 302.889922 
L 347.454613 303.156473 
L 347.997505 302.68697 
L 349.626223 302.761334 
L 350.169115 302.55138 
L 351.797834 301.513867 
L 352.340726 301.791369 
L 352.883618 303.335159 
L 353.426511 301.02223 
L 354.512336 287.915501 
L 355.055229 284.47771 
L 355.598121 288.998961 
L 356.141013 301.32311 
L 357.226839 282.127069 
L 357.769731 279.345819 
L 358.312624 284.459348 
L 358.855516 295.179366 
L 359.398408 301.779715 
L 359.941342 295.235193 
L 360.484234 294.329029 
L 361.027126 296.726445 
L 361.570019 299.735773 
L 362.112911 302.005672 
L 362.655845 303.289568 
L 363.198737 303.880215 
L 363.741629 303.933608 
L 366.456132 303.391294 
L 366.999024 303.096522 
L 367.541917 302.663688 
L 368.627742 301.370851 
L 369.170635 300.713232 
L 369.713527 300.666402 
L 370.256419 302.418172 
L 370.799353 300.293939 
L 371.885137 278.543548 
L 372.42803 274.812887 
L 372.970922 288.955578 
L 373.513856 290.951287 
L 374.056748 267.597992 
L 374.59964 264.534929 
L 375.142533 280.763284 
L 375.685425 302.552131 
L 376.228358 291.823429 
L 376.771251 289.571853 
L 378.399928 301.969832 
L 378.942861 303.604926 
L 379.485753 303.851692 
L 380.028646 303.699966 
L 381.657364 303.647967 
L 382.743148 303.318077 
L 383.286041 302.992611 
L 383.828933 302.529559 
L 384.371867 301.879774 
L 386.000544 299.587999 
L 386.543436 300.202131 
L 387.086369 303.397903 
L 387.629262 297.581626 
L 388.172154 287.466219 
L 388.715046 279.803618 
L 389.257939 282.182958 
L 389.800872 295.322633 
L 390.343764 298.7138 
L 390.886657 293.640581 
L 391.429549 297.55079 
L 391.972441 303.730028 
L 392.515375 302.861543 
L 393.058267 296.940388 
L 394.144052 264.572618 
L 394.686944 271.250279 
L 395.229878 300.837134 
L 395.77277 280.136028 
L 396.315662 274.736603 
L 397.94438 302.65671 
L 398.487273 302.824578 
L 398.487273 302.824578 
" clip-path="url(#p66fe3a290a)" style="fill: none; stroke: #385989; stroke-width: 1.5; stroke-linecap: square"/>
   </g>
   <g id="line2d_25">
    <path d="M 73.832727 303.989325 
L 75.461445 304.026006 
L 85.776544 304.023359 
L 99.89197 303.993951 
L 100.434863 303.892558 
L 101.520668 303.482993 
L 102.06356 303.979856 
L 103.149365 303.852053 
L 103.692258 304.001375 
L 104.23517 303.729585 
L 105.320976 303.844164 
L 105.863868 303.641956 
L 106.40676 303.933188 
L 107.492566 304.016217 
L 114.550269 304.02317 
L 115.093181 303.642185 
L 115.636074 303.914671 
L 116.721879 303.986502 
L 117.264771 303.818387 
L 117.807684 304.022413 
L 162.868426 304.011115 
L 167.754539 304.026206 
L 190.013453 303.914611 
L 190.556346 303.829584 
L 191.099258 304.019299 
L 192.727956 303.929736 
L 193.270848 304.010965 
L 195.442459 303.958598 
L 197.071156 304.021843 
L 205.757577 303.978662 
L 206.843362 303.925112 
L 207.929188 303.958311 
L 208.47208 303.762522 
L 210.100757 303.971986 
L 210.643691 303.89514 
L 212.272368 304.00322 
L 217.158481 304.02515 
L 222.044594 303.895119 
L 223.673271 303.764693 
L 224.216204 303.893359 
L 224.759097 303.855653 
L 225.301989 303.025428 
L 225.844881 301.353279 
L 226.387774 301.159975 
L 226.930707 303.554353 
L 227.473599 300.503374 
L 228.016492 298.766898 
L 228.559384 301.449557 
L 229.102276 303.12628 
L 229.64521 302.003268 
L 230.188102 302.474115 
L 230.730995 303.311668 
L 231.273887 303.864597 
L 231.816779 304.015934 
L 232.902605 303.956349 
L 235.617108 303.990587 
L 236.702892 303.847169 
L 237.245785 303.970319 
L 239.960287 303.82614 
L 241.046113 303.524341 
L 241.589005 303.643028 
L 242.131898 303.931738 
L 242.67479 303.58013 
L 243.217724 303.371943 
L 244.303508 303.907943 
L 245.389293 303.88899 
L 254.075735 303.994683 
L 255.161519 303.560052 
L 255.704412 303.239571 
L 256.247304 303.082066 
L 256.790237 303.494682 
L 257.33313 303.475468 
L 257.876022 302.296513 
L 258.418914 302.135904 
L 258.961807 303.206271 
L 259.50474 303.692184 
L 260.047632 303.240328 
L 260.590525 303.32368 
L 261.676309 303.861838 
L 262.219243 304.011689 
L 266.562423 303.989049 
L 268.734033 303.917333 
L 269.819818 303.593594 
L 270.905643 303.082434 
L 271.991428 302.436824 
L 272.53432 302.565352 
L 273.077254 303.865791 
L 273.620146 300.534429 
L 274.705931 286.978431 
L 275.248823 288.226594 
L 275.791757 302.609372 
L 276.334649 278.925636 
L 276.877541 273.45689 
L 277.420434 290.730031 
L 277.963326 298.25597 
L 278.506259 291.621949 
L 279.049152 294.863516 
L 279.592044 299.851619 
L 280.134936 302.900123 
L 280.677829 303.950175 
L 281.220762 303.569094 
L 282.306547 303.705944 
L 283.392331 303.895143 
L 285.021049 303.90004 
L 286.649768 303.646358 
L 287.735552 303.434332 
L 288.278445 303.487571 
L 288.821337 303.980403 
L 289.36427 302.855718 
L 289.907163 301.134148 
L 290.450055 300.084857 
L 290.992947 301.404853 
L 291.53584 303.467363 
L 292.078773 300.417948 
L 292.621665 299.757782 
L 293.70745 303.564474 
L 294.793276 303.091367 
L 295.87906 303.555045 
L 296.964845 303.858554 
L 298.050671 303.942796 
L 300.222281 303.799761 
L 301.850958 303.351347 
L 304.022569 302.081086 
L 304.565461 302.558094 
L 305.108353 303.502196 
L 305.651287 298.870142 
L 306.737071 283.600781 
L 307.279964 283.137342 
L 307.822856 298.005941 
L 308.36579 283.347495 
L 308.908682 264.588684 
L 309.451574 270.847727 
L 309.994467 295.575669 
L 310.537359 291.97646 
L 311.080292 286.929259 
L 311.623185 291.798382 
L 312.166077 298.226808 
L 312.708969 302.376236 
L 313.251862 303.889441 
L 313.794795 303.402095 
L 314.337687 303.458272 
L 315.966364 303.982041 
L 317.05219 303.782747 
L 318.137975 303.453939 
L 319.223801 302.757632 
L 320.309585 301.642821 
L 320.852478 301.041757 
L 321.39537 300.818703 
L 321.938303 301.585027 
L 322.481196 303.606287 
L 323.024088 297.806559 
L 324.109873 282.024136 
L 324.652806 280.734513 
L 325.195698 287.839576 
L 325.738591 299.516848 
L 326.281483 296.519594 
L 326.824375 282.875513 
L 327.367309 265.646386 
L 327.910201 255.876753 
L 328.453093 270.913232 
L 328.995986 301.613307 
L 329.538878 275.30363 
L 330.081812 274.015347 
L 331.167596 297.496668 
L 331.710489 303.569327 
L 332.253381 302.508081 
L 332.796314 302.39478 
L 334.424991 303.615241 
L 334.967884 304.00713 
L 336.596602 303.583621 
L 337.139494 303.538268 
L 337.682386 303.665983 
L 338.22532 303.910994 
L 338.768212 302.876952 
L 339.311104 300.912571 
L 340.939823 291.749063 
L 341.482715 294.610209 
L 342.025607 301.448158 
L 342.5685 282.673571 
L 343.111392 270.277639 
L 343.654325 278.667404 
L 344.197218 302.85774 
L 344.74011 286.98175 
L 345.283002 285.030581 
L 346.368828 299.79622 
L 346.91172 303.889226 
L 347.454613 302.714629 
L 347.997505 302.586289 
L 349.626223 303.362054 
L 350.712008 303.445864 
L 352.883618 303.191025 
L 353.426511 303.509707 
L 353.969403 303.63652 
L 354.512336 301.850925 
L 355.598121 295.892797 
L 356.141013 294.603246 
L 356.683906 297.58435 
L 357.226839 301.967851 
L 357.769731 291.941619 
L 358.312624 287.221623 
L 358.855516 291.212409 
L 359.398408 300.189269 
L 359.941342 300.457377 
L 360.484234 297.76167 
L 361.027126 298.610756 
L 362.112911 302.408292 
L 362.655845 303.465802 
L 363.198737 303.993279 
L 364.284522 303.758622 
L 365.91324 303.406531 
L 366.999024 302.983096 
L 368.08485 302.222763 
L 368.627742 302.006561 
L 369.170635 302.297373 
L 369.713527 303.700564 
L 370.256419 301.025557 
L 371.885137 284.539343 
L 372.42803 288.288843 
L 372.970922 301.871955 
L 374.056748 273.591179 
L 374.59964 273.128195 
L 375.142533 286.707449 
L 375.685425 303.102401 
L 376.228358 291.701332 
L 376.771251 290.302195 
L 378.399928 302.324012 
L 378.942861 303.83476 
L 380.028646 303.566815 
L 381.657364 303.610592 
L 382.743148 303.320169 
L 383.286041 303.01174 
L 383.828933 302.558817 
L 384.371867 301.903722 
L 386.000544 299.30999 
L 386.543436 299.631432 
L 387.086369 302.499491 
L 387.629262 298.657614 
L 388.715046 279.200767 
L 389.257939 280.222742 
L 389.800872 292.988291 
L 390.343764 299.471953 
L 390.886657 292.811461 
L 391.429549 296.250821 
L 391.972441 302.713949 
L 392.515375 303.398653 
L 393.058267 296.654058 
L 394.144052 264.566229 
L 394.686944 271.244496 
L 395.229878 300.814106 
L 395.77277 280.175801 
L 396.315662 274.751869 
L 397.94438 302.660494 
L 398.487273 302.710518 
L 398.487273 302.710518 
" clip-path="url(#p66fe3a290a)" style="fill: none; stroke: #d22027; stroke-width: 1.5; stroke-linecap: square"/>
   </g>
   <g id="patch_13">
    <path d="M 57.6 307.584 
L 57.6 229.315765 
" style="fill: none; stroke: #000000; stroke-width: 0.8; stroke-linejoin: miter; stroke-linecap: square"/>
   </g>
   <g id="patch_14">
    <path d="M 414.72 307.584 
L 414.72 229.315765 
" style="fill: none; stroke: #000000; stroke-width: 0.8; stroke-linejoin: miter; stroke-linecap: square"/>
   </g>
   <g id="patch_15">
    <path d="M 57.6 307.584 
L 414.72 307.584 
" style="fill: none; stroke: #000000; stroke-width: 0.8; stroke-linejoin: miter; stroke-linecap: square"/>
   </g>
   <g id="patch_16">
    <path d="M 57.6 229.315765 
L 414.72 229.315765 
" style="fill: none; stroke: #000000; stroke-width: 0.8; stroke-linejoin: miter; stroke-linecap: square"/>
   </g>
  </g>
 </g>
 <defs>
  <clipPath id="pf5dfc57c48">
   <rect x="57.6" y="41.472" width="357.12" height="78.268235"/>
  </clipPath>
  <clipPath id="p60db05ebad">
   <rect x="57.6" y="135.393882" width="357.12" height="78.268235"/>
  </clipPath>
  <clipPath id="p66fe3a290a">
   <rect x="57.6" y="229.315765" width="357.12" height="78.268235"/>
  </clipPath>
 </defs>
</svg>
