<?xml version="1.0" encoding="utf-8" standalone="no"?>
<!DOCTYPE svg PUBLIC "-//W3C//DTD SVG 1.1//EN"
  "http://www.w3.org/Graphics/SVG/1.1/DTD/svg11.dtd">
<svg xmlns:xlink="http://www.w3.org/1999/xlink" width="460.8pt" height="345.6pt" viewBox="0 0 460.8 345.6" xmlns="http://www.w3.org/2000/svg" version="1.1">
 <metadata>
  <rdf:RDF xmlns:dc="http://purl.org/dc/elements/1.1/" xmlns:cc="http://creativecommons.org/ns#" xmlns:rdf="http://www.w3.org/1999/02/22-rdf-syntax-ns#">
   <cc:Work>
    <dc:type rdf:resource="http://purl.org/dc/dcmitype/StillImage"/>
    <dc:date>2024-01-02T15:36:49.151186</dc:date>
    <dc:format>image/svg+xml</dc:format>
    <dc:creator>
     <cc:Agent>
      <dc:title>Matplotlib v3.7.3, https://matplotlib.org/</dc:title>
     </cc:Agent>
    </dc:creator>
   </cc:Work>
  </rdf:RDF>
 </metadata>
 <defs>
  <style type="text/css">*{stroke-linejoin: round; stroke-linecap: butt}</style>
 </defs>
 <g id="figure_1">
  <g id="patch_1">
   <path d="M 0 345.6 
L 460.8 345.6 
L 460.8 0 
L 0 0 
z
" style="fill: #ffffff"/>
  </g>
  <g id="patch_2">
   <path d="M 103.104 307.584 
L 369.216 307.584 
L 369.216 41.472 
L 103.104 41.472 
z
" style="fill: #ffffff"/>
  </g>
  <g id="pane3d_1">
   <g id="patch_3">
    <path d="M 123.197291 241.969309 
L 211.076164 168.307495 
L 209.854564 62.073991 
L 117.770234 129.272941 
" style="fill: #f2f2f2; opacity: 0.5; stroke: #f2f2f2; stroke-linejoin: miter"/>
   </g>
  </g>
  <g id="pane3d_2">
   <g id="patch_4">
    <path d="M 211.076164 168.307495 
L 352.090401 209.294766 
L 357.122702 99.402171 
L 209.854564 62.073991 
" style="fill: #e6e6e6; opacity: 0.5; stroke: #e6e6e6; stroke-linejoin: miter"/>
   </g>
  </g>
  <g id="pane3d_3">
   <g id="patch_5">
    <path d="M 123.197291 241.969309 
L 272.679269 290.790123 
L 352.090401 209.294766 
L 211.076164 168.307495 
" style="fill: #ececec; opacity: 0.5; stroke: #ececec; stroke-linejoin: miter"/>
   </g>
  </g>
  <g id="axis3d_1">
   <g id="line2d_1">
    <path d="M 123.197291 241.969309 
L 272.679269 290.790123 
" style="fill: none; stroke: #000000; stroke-width: 0.8; stroke-linecap: square"/>
   </g>
   <g id="Line3DCollection_1">
    <path d="M 141.884323 248.072494 
L 228.772841 173.45122 
L 228.301986 66.749875 
" style="fill: none; stroke: #b0b0b0; stroke-width: 0.8"/>
    <path d="M 159.720438 253.897769 
L 245.645456 178.355423 
L 245.899484 71.210327 
" style="fill: none; stroke: #b0b0b0; stroke-width: 0.8"/>
    <path d="M 177.786982 259.798302 
L 262.717918 183.317714 
L 263.714461 75.725905 
" style="fill: none; stroke: #b0b0b0; stroke-width: 0.8"/>
    <path d="M 196.088449 265.775561 
L 279.993798 188.33913 
L 281.750974 80.297635 
" style="fill: none; stroke: #b0b0b0; stroke-width: 0.8"/>
    <path d="M 214.629451 271.831052 
L 297.476755 193.420735 
L 300.01318 84.926572 
" style="fill: none; stroke: #b0b0b0; stroke-width: 0.8"/>
    <path d="M 233.414721 277.966321 
L 315.170533 198.563618 
L 318.505343 89.613796 
" style="fill: none; stroke: #b0b0b0; stroke-width: 0.8"/>
    <path d="M 252.449119 284.182956 
L 333.07897 203.768894 
L 337.231834 94.360416 
" style="fill: none; stroke: #b0b0b0; stroke-width: 0.8"/>
   </g>
   <g id="xtick_1">
    <g id="line2d_2">
     <path d="M 142.641157 247.422512 
L 140.367396 249.375255 
" style="fill: none; stroke: #000000; stroke-width: 0.8; stroke-linecap: square"/>
    </g>
    <g id="text_1">
     <!-- −15 -->
     <g transform="translate(123.812577 271.448235) scale(0.1 -0.1)">
      <defs>
       <path id="DejaVuSans-2212" d="M 678 2272 
L 4684 2272 
L 4684 1741 
L 678 1741 
L 678 2272 
z
" transform="scale(0.015625)"/>
       <path id="DejaVuSans-31" d="M 794 531 
L 1825 531 
L 1825 4091 
L 703 3866 
L 703 4441 
L 1819 4666 
L 2450 4666 
L 2450 531 
L 3481 531 
L 3481 0 
L 794 0 
L 794 531 
z
" transform="scale(0.015625)"/>
       <path id="DejaVuSans-35" d="M 691 4666 
L 3169 4666 
L 3169 4134 
L 1269 4134 
L 1269 2991 
Q 1406 3038 1543 3061 
Q 1681 3084 1819 3084 
Q 2600 3084 3056 2656 
Q 3513 2228 3513 1497 
Q 3513 744 3044 326 
Q 2575 -91 1722 -91 
Q 1428 -91 1123 -41 
Q 819 9 494 109 
L 494 744 
Q 775 591 1075 516 
Q 1375 441 1709 441 
Q 2250 441 2565 725 
Q 2881 1009 2881 1497 
Q 2881 1984 2565 2268 
Q 2250 2553 1709 2553 
Q 1456 2553 1204 2497 
Q 953 2441 691 2322 
L 691 4666 
z
" transform="scale(0.015625)"/>
      </defs>
      <use xlink:href="#DejaVuSans-2212"/>
      <use xlink:href="#DejaVuSans-31" x="83.789062"/>
      <use xlink:href="#DejaVuSans-35" x="147.412109"/>
     </g>
    </g>
   </g>
   <g id="xtick_2">
    <g id="line2d_3">
     <path d="M 160.469272 253.23942 
L 158.219527 255.217319 
" style="fill: none; stroke: #000000; stroke-width: 0.8; stroke-linecap: square"/>
    </g>
    <g id="text_2">
     <!-- −10 -->
     <g transform="translate(141.667212 277.397021) scale(0.1 -0.1)">
      <defs>
       <path id="DejaVuSans-30" d="M 2034 4250 
Q 1547 4250 1301 3770 
Q 1056 3291 1056 2328 
Q 1056 1369 1301 889 
Q 1547 409 2034 409 
Q 2525 409 2770 889 
Q 3016 1369 3016 2328 
Q 3016 3291 2770 3770 
Q 2525 4250 2034 4250 
z
M 2034 4750 
Q 2819 4750 3233 4129 
Q 3647 3509 3647 2328 
Q 3647 1150 3233 529 
Q 2819 -91 2034 -91 
Q 1250 -91 836 529 
Q 422 1150 422 2328 
Q 422 3509 836 4129 
Q 1250 4750 2034 4750 
z
" transform="scale(0.015625)"/>
      </defs>
      <use xlink:href="#DejaVuSans-2212"/>
      <use xlink:href="#DejaVuSans-31" x="83.789062"/>
      <use xlink:href="#DejaVuSans-30" x="147.412109"/>
     </g>
    </g>
   </g>
   <g id="xtick_3">
    <g id="line2d_4">
     <path d="M 178.527544 259.131424 
L 176.302629 261.134967 
" style="fill: none; stroke: #000000; stroke-width: 0.8; stroke-linecap: square"/>
    </g>
    <g id="text_3">
     <!-- −5 -->
     <g transform="translate(162.934637 283.422951) scale(0.1 -0.1)">
      <use xlink:href="#DejaVuSans-2212"/>
      <use xlink:href="#DejaVuSans-35" x="83.789062"/>
     </g>
    </g>
   </g>
   <g id="xtick_4">
    <g id="line2d_5">
     <path d="M 196.82046 265.099986 
L 194.621213 267.129677 
" style="fill: none; stroke: #000000; stroke-width: 0.8; stroke-linecap: square"/>
    </g>
    <g id="text_4">
     <!-- 0 -->
     <g transform="translate(185.446728 289.527535) scale(0.1 -0.1)">
      <use xlink:href="#DejaVuSans-30"/>
     </g>
    </g>
   </g>
   <g id="xtick_5">
    <g id="line2d_6">
     <path d="M 215.352624 271.14661 
L 213.179909 273.202962 
" style="fill: none; stroke: #000000; stroke-width: 0.8; stroke-linecap: square"/>
    </g>
    <g id="text_5">
     <!-- 5 -->
     <g transform="translate(204.0097 295.712324) scale(0.1 -0.1)">
      <use xlink:href="#DejaVuSans-35"/>
     </g>
    </g>
   </g>
   <g id="xtick_6">
    <g id="line2d_7">
     <path d="M 234.128759 277.272835 
L 231.98347 279.356378 
" style="fill: none; stroke: #000000; stroke-width: 0.8; stroke-linecap: square"/>
    </g>
    <g id="text_6">
     <!-- 10 -->
     <g transform="translate(219.636922 301.978909) scale(0.1 -0.1)">
      <use xlink:href="#DejaVuSans-31"/>
      <use xlink:href="#DejaVuSans-30" x="63.623047"/>
     </g>
    </g>
   </g>
   <g id="xtick_7">
    <g id="line2d_8">
     <path d="M 253.153715 283.480246 
L 251.036773 285.591523 
" style="fill: none; stroke: #000000; stroke-width: 0.8; stroke-linecap: square"/>
    </g>
    <g id="text_7">
     <!-- 15 -->
     <g transform="translate(238.695798 308.328922) scale(0.1 -0.1)">
      <use xlink:href="#DejaVuSans-31"/>
      <use xlink:href="#DejaVuSans-35" x="63.623047"/>
     </g>
    </g>
   </g>
  </g>
  <g id="axis3d_2">
   <g id="line2d_9">
    <path d="M 352.090401 209.294766 
L 272.679269 290.790123 
" style="fill: none; stroke: #000000; stroke-width: 0.8; stroke-linecap: square"/>
   </g>
   <g id="Line3DCollection_2">
    <path d="M 130.83288 119.740417 
L 135.622806 231.553996 
L 283.95013 279.223447 
" style="fill: none; stroke: #b0b0b0; stroke-width: 0.8"/>
    <path d="M 148.686654 106.711545 
L 152.627398 217.30041 
L 299.35173 263.417616 
" style="fill: none; stroke: #b0b0b0; stroke-width: 0.8"/>
    <path d="M 165.953258 94.111165 
L 169.096565 203.495628 
L 314.243296 248.135206 
" style="fill: none; stroke: #b0b0b0; stroke-width: 0.8"/>
    <path d="M 182.661188 81.918478 
L 185.055204 190.11878 
L 328.64975 233.350641 
" style="fill: none; stroke: #b0b0b0; stroke-width: 0.8"/>
    <path d="M 198.837127 70.114015 
L 200.526691 177.150273 
L 342.594416 219.039982 
" style="fill: none; stroke: #b0b0b0; stroke-width: 0.8"/>
   </g>
   <g id="xtick_8">
    <g id="line2d_10">
     <path d="M 282.700568 278.821863 
L 286.452464 280.027647 
" style="fill: none; stroke: #000000; stroke-width: 0.8; stroke-linecap: square"/>
    </g>
    <g id="text_8">
     <!-- −20 -->
     <g transform="translate(286.200986 300.157371) scale(0.1 -0.1)">
      <defs>
       <path id="DejaVuSans-32" d="M 1228 531 
L 3431 531 
L 3431 0 
L 469 0 
L 469 531 
Q 828 903 1448 1529 
Q 2069 2156 2228 2338 
Q 2531 2678 2651 2914 
Q 2772 3150 2772 3378 
Q 2772 3750 2511 3984 
Q 2250 4219 1831 4219 
Q 1534 4219 1204 4116 
Q 875 4013 500 3803 
L 500 4441 
Q 881 4594 1212 4672 
Q 1544 4750 1819 4750 
Q 2544 4750 2975 4387 
Q 3406 4025 3406 3419 
Q 3406 3131 3298 2873 
Q 3191 2616 2906 2266 
Q 2828 2175 2409 1742 
Q 1991 1309 1228 531 
z
" transform="scale(0.015625)"/>
      </defs>
      <use xlink:href="#DejaVuSans-2212"/>
      <use xlink:href="#DejaVuSans-32" x="83.789062"/>
      <use xlink:href="#DejaVuSans-30" x="147.412109"/>
     </g>
    </g>
   </g>
   <g id="xtick_9">
    <g id="line2d_11">
     <path d="M 298.11672 263.029438 
L 301.824869 264.194953 
" style="fill: none; stroke: #000000; stroke-width: 0.8; stroke-linecap: square"/>
    </g>
    <g id="text_9">
     <!-- −10 -->
     <g transform="translate(301.395907 284.117638) scale(0.1 -0.1)">
      <use xlink:href="#DejaVuSans-2212"/>
      <use xlink:href="#DejaVuSans-31" x="83.789062"/>
      <use xlink:href="#DejaVuSans-30" x="147.412109"/>
     </g>
    </g>
   </g>
   <g id="xtick_10">
    <g id="line2d_12">
     <path d="M 313.022567 247.759774 
L 316.687785 248.887004 
" style="fill: none; stroke: #000000; stroke-width: 0.8; stroke-linecap: square"/>
    </g>
    <g id="text_10">
     <!-- 0 -->
     <g transform="translate(323.458442 268.609378) scale(0.1 -0.1)">
      <use xlink:href="#DejaVuSans-30"/>
     </g>
    </g>
   </g>
   <g id="xtick_11">
    <g id="line2d_13">
     <path d="M 327.443035 232.987336 
L 331.066128 234.078137 
" style="fill: none; stroke: #000000; stroke-width: 0.8; stroke-linecap: square"/>
    </g>
    <g id="text_11">
     <!-- 10 -->
     <g transform="translate(334.48977 253.606605) scale(0.1 -0.1)">
      <use xlink:href="#DejaVuSans-31"/>
      <use xlink:href="#DejaVuSans-30" x="63.623047"/>
     </g>
    </g>
   </g>
   <g id="xtick_12">
    <g id="line2d_14">
     <path d="M 341.401451 218.688228 
L 344.983216 219.744337 
" style="fill: none; stroke: #000000; stroke-width: 0.8; stroke-linecap: square"/>
    </g>
    <g id="text_12">
     <!-- 20 -->
     <g transform="translate(348.246523 239.085001) scale(0.1 -0.1)">
      <use xlink:href="#DejaVuSans-32"/>
      <use xlink:href="#DejaVuSans-30" x="63.623047"/>
     </g>
    </g>
   </g>
  </g>
  <g id="axis3d_3">
   <g id="line2d_15">
    <path d="M 352.090401 209.294766 
L 357.122702 99.402171 
" style="fill: none; stroke: #000000; stroke-width: 0.8; stroke-linecap: square"/>
   </g>
   <g id="Line3DCollection_3">
    <path d="M 352.625059 197.619189 
L 210.94613 156.999366 
L 122.62156 230.013876 
" style="fill: none; stroke: #b0b0b0; stroke-width: 0.8"/>
    <path d="M 353.248577 184.003147 
L 210.794558 143.818252 
L 121.949882 216.066058 
" style="fill: none; stroke: #b0b0b0; stroke-width: 0.8"/>
    <path d="M 353.879023 170.235832 
L 210.641382 130.49771 
L 121.270457 201.957357 
" style="fill: none; stroke: #b0b0b0; stroke-width: 0.8"/>
    <path d="M 354.516511 156.314708 
L 210.486578 117.035516 
L 120.58315 187.684973 
" style="fill: none; stroke: #b0b0b0; stroke-width: 0.8"/>
    <path d="M 355.161162 142.237185 
L 210.330118 103.429399 
L 119.887822 173.246043 
" style="fill: none; stroke: #b0b0b0; stroke-width: 0.8"/>
    <path d="M 355.813096 128.000612 
L 210.171977 89.677038 
L 119.184333 158.637632 
" style="fill: none; stroke: #b0b0b0; stroke-width: 0.8"/>
    <path d="M 356.472437 113.602277 
L 210.012127 75.776062 
L 118.472538 143.856739 
" style="fill: none; stroke: #b0b0b0; stroke-width: 0.8"/>
   </g>
   <g id="xtick_13">
    <g id="line2d_16">
     <path d="M 351.435718 197.278201 
L 355.006584 198.30198 
" style="fill: none; stroke: #000000; stroke-width: 0.8; stroke-linecap: square"/>
    </g>
    <g id="text_13">
     <!-- 10 -->
     <g transform="translate(364.596181 202.63544) scale(0.1 -0.1)">
      <use xlink:href="#DejaVuSans-31"/>
      <use xlink:href="#DejaVuSans-30" x="63.623047"/>
     </g>
    </g>
   </g>
   <g id="xtick_14">
    <g id="line2d_17">
     <path d="M 352.052419 183.665722 
L 355.643768 184.678807 
" style="fill: none; stroke: #000000; stroke-width: 0.8; stroke-linecap: square"/>
    </g>
    <g id="text_14">
     <!-- 15 -->
     <g transform="translate(365.318784 189.04642) scale(0.1 -0.1)">
      <use xlink:href="#DejaVuSans-31"/>
      <use xlink:href="#DejaVuSans-35" x="63.623047"/>
     </g>
    </g>
   </g>
   <g id="xtick_15">
    <g id="line2d_18">
     <path d="M 352.675969 169.902071 
L 356.288037 170.904159 
" style="fill: none; stroke: #000000; stroke-width: 0.8; stroke-linecap: square"/>
    </g>
    <g id="text_15">
     <!-- 20 -->
     <g transform="translate(366.04939 175.306887) scale(0.1 -0.1)">
      <use xlink:href="#DejaVuSans-32"/>
      <use xlink:href="#DejaVuSans-30" x="63.623047"/>
     </g>
    </g>
   </g>
   <g id="xtick_16">
    <g id="line2d_19">
     <path d="M 353.306482 155.984715 
L 356.93951 156.975498 
" style="fill: none; stroke: #000000; stroke-width: 0.8; stroke-linecap: square"/>
    </g>
    <g id="text_16">
     <!-- 25 -->
     <g transform="translate(366.788133 161.414326) scale(0.1 -0.1)">
      <use xlink:href="#DejaVuSans-32"/>
      <use xlink:href="#DejaVuSans-35" x="63.623047"/>
     </g>
    </g>
   </g>
   <g id="xtick_17">
    <g id="line2d_20">
     <path d="M 353.944076 141.911065 
L 357.598307 142.890224 
" style="fill: none; stroke: #000000; stroke-width: 0.8; stroke-linecap: square"/>
    </g>
    <g id="text_17">
     <!-- 30 -->
     <g transform="translate(367.53515 147.366167) scale(0.1 -0.1)">
      <defs>
       <path id="DejaVuSans-33" d="M 2597 2516 
Q 3050 2419 3304 2112 
Q 3559 1806 3559 1356 
Q 3559 666 3084 287 
Q 2609 -91 1734 -91 
Q 1441 -91 1130 -33 
Q 819 25 488 141 
L 488 750 
Q 750 597 1062 519 
Q 1375 441 1716 441 
Q 2309 441 2620 675 
Q 2931 909 2931 1356 
Q 2931 1769 2642 2001 
Q 2353 2234 1838 2234 
L 1294 2234 
L 1294 2753 
L 1863 2753 
Q 2328 2753 2575 2939 
Q 2822 3125 2822 3475 
Q 2822 3834 2567 4026 
Q 2313 4219 1838 4219 
Q 1578 4219 1281 4162 
Q 984 4106 628 3988 
L 628 4550 
Q 988 4650 1302 4700 
Q 1616 4750 1894 4750 
Q 2613 4750 3031 4423 
Q 3450 4097 3450 3541 
Q 3450 3153 3228 2886 
Q 3006 2619 2597 2516 
z
" transform="scale(0.015625)"/>
      </defs>
      <use xlink:href="#DejaVuSans-33"/>
      <use xlink:href="#DejaVuSans-30" x="63.623047"/>
     </g>
    </g>
   </g>
   <g id="xtick_18">
    <g id="line2d_21">
     <path d="M 354.588871 127.678473 
L 358.264554 128.645681 
" style="fill: none; stroke: #000000; stroke-width: 0.8; stroke-linecap: square"/>
    </g>
    <g id="text_18">
     <!-- 35 -->
     <g transform="translate(368.290582 133.159781) scale(0.1 -0.1)">
      <use xlink:href="#DejaVuSans-33"/>
      <use xlink:href="#DejaVuSans-35" x="63.623047"/>
     </g>
    </g>
   </g>
   <g id="xtick_19">
    <g id="line2d_22">
     <path d="M 355.240989 113.284232 
L 358.938377 114.239154 
" style="fill: none; stroke: #000000; stroke-width: 0.8; stroke-linecap: square"/>
    </g>
    <g id="text_19">
     <!-- 40 -->
     <g transform="translate(369.05457 118.79248) scale(0.1 -0.1)">
      <defs>
       <path id="DejaVuSans-34" d="M 2419 4116 
L 825 1625 
L 2419 1625 
L 2419 4116 
z
M 2253 4666 
L 3047 4666 
L 3047 1625 
L 3713 1625 
L 3713 1100 
L 3047 1100 
L 3047 0 
L 2419 0 
L 2419 1100 
L 313 1100 
L 313 1709 
L 2253 4666 
z
" transform="scale(0.015625)"/>
      </defs>
      <use xlink:href="#DejaVuSans-34"/>
      <use xlink:href="#DejaVuSans-30" x="63.623047"/>
     </g>
    </g>
   </g>
  </g>
  <g id="axes_1">
   <g id="line2d_23">
    <path d="M 222.786075 201.500207 
L 219.864952 204.040056 
L 216.224247 206.211769 
L 211.741989 207.898963 
L 206.295561 208.906394 
L 199.795214 208.927055 
L 192.242356 207.510276 
L 183.830784 204.053615 
L 175.084241 197.872161 
L 166.988745 188.425385 
L 160.999273 175.760249 
L 158.726741 161.03153 
L 161.254007 146.634351 
L 168.442824 135.443405 
L 178.86685 129.437589 
L 190.519719 128.833708 
L 201.682767 132.408091 
L 211.345963 138.460645 
L 219.151409 145.559893 
L 225.152245 152.786928 
L 229.596409 159.664559 
L 232.788745 165.99783 
L 235.021922 171.745427 
L 236.545233 176.93617 
L 237.556862 181.625713 
L 238.206746 185.876317 
L 238.603527 189.746466 
L 238.916012 196.542644 
L 238.837265 202.33727 
L 238.478325 207.358603 
L 237.812231 211.774817 
L 237.325657 213.799868 
L 236.701462 215.724469 
L 235.901563 217.563992 
L 234.87562 219.333384 
L 233.557465 221.046506 
L 231.86086 222.713954 
L 229.673687 224.339712 
L 226.850991 225.914205 
L 223.208168 227.401025 
L 218.514087 228.714055 
L 212.492468 229.676405 
L 204.838022 229.953321 
L 195.27385 228.948606 
L 183.693526 225.672712 
L 170.445417 218.650586 
L 156.793553 206.088608 
L 145.378047 186.731273 
L 139.999234 161.647007 
L 143.86705 135.780931 
L 156.97991 116.376588 
L 175.619491 108.090663 
L 195.021461 110.114061 
L 212.051024 118.306813 
L 225.638809 128.673432 
L 235.938124 138.833527 
L 243.560091 147.80862 
L 249.180839 155.383299 
L 253.406004 161.652313 
L 259.549899 170.943627 
L 262.16071 174.23997 
L 264.792716 176.746737 
L 267.616546 178.492462 
L 270.756392 179.46867 
L 274.293081 179.635701 
L 278.260798 178.932602 
L 282.634706 177.2929 
L 287.309729 174.671705 
L 292.078149 171.085649 
L 296.61121 166.665277 
L 300.463189 161.707863 
L 303.122013 156.697777 
L 304.113218 152.261537 
L 303.145451 149.028493 
L 300.234186 147.440507 
L 295.733322 147.604376 
L 290.240401 149.282605 
L 284.423776 152.026837 
L 278.861102 155.359607 
L 273.952171 158.903034 
L 269.911501 162.418177 
L 266.808505 165.780987 
L 264.621283 168.936692 
L 263.283856 171.859247 
L 262.718301 174.527187 
L 262.854988 176.91093 
L 263.642309 178.96705 
L 265.049633 180.637695 
L 267.065295 181.849035 
L 269.690992 182.511017 
L 272.932097 182.51742 
L 276.781942 181.748989 
L 281.201094 180.083077 
L 286.088191 177.414398 
L 291.24433 173.693324 
L 296.340544 168.982773 
L 300.902058 163.527743 
L 304.341336 157.804059 
L 306.05872 152.501396 
L 305.612137 148.390307 
L 302.894697 146.085885 
L 298.21895 145.825405 
L 292.240276 147.399625 
L 285.747774 150.291017 
L 279.450189 153.91028 
L 273.843468 157.783759 
L 269.192909 161.617801 
L 265.58158 165.270657 
L 262.977526 168.692489 
L 261.293828 171.87161 
L 260.429988 174.800967 
L 260.295682 177.463954 
L 260.823259 179.828191 
L 261.971693 181.845156 
L 263.725891 183.449652 
L 266.092022 184.558472 
L 269.090644 185.0692 
L 272.744612 184.858839 
L 277.06153 183.786502 
L 282.007465 181.704264 
L 287.470751 178.483089 
L 293.216428 174.062469 
L 298.844322 168.525726 
L 303.769928 162.192954 
L 307.274099 155.681968 
L 308.64834 149.86836 
L 307.426626 145.680308 
L 303.604562 143.770344 
L 297.703095 144.251934 
L 290.602638 146.692677 
L 283.247597 150.371226 
L 276.394458 154.593432 
L 270.503235 158.88027 
L 265.765372 162.985705 
L 262.185845 166.826201 
L 259.670252 170.396562 
L 258.087895 173.712787 
L 257.310903 176.78326 
L 257.234625 179.598872 
L 257.785915 182.131827 
L 258.924745 184.337619 
L 260.642191 186.15503 
L 262.955698 187.504458 
L 265.903597 188.285305 
L 269.534472 188.371356 
L 273.893107 187.6089 
L 278.9963 185.820167 
L 284.795986 182.820542 
L 291.127555 178.460237 
L 297.647619 172.702145 
L 303.779672 165.739429 
L 308.716003 158.118276 
L 311.53062 150.786129 
L 311.442957 144.935993 
L 308.15343 141.611478 
L 302.055161 141.249705 
L 294.132891 143.499523 
L 285.589283 147.477385 
L 277.453061 152.23255 
L 270.371862 157.082365 
L 264.621838 161.682145 
L 260.216786 165.932443 
L 257.030865 169.852635 
L 254.887006 173.493305 
L 253.609506 176.894186 
L 253.050697 180.071249 
L 253.101118 183.017596 
L 253.691022 185.708496 
L 254.78809 188.10473 
L 256.393827 190.153621 
L 258.539882 191.786873 
L 261.282906 192.915124 
L 264.699976 193.42199 
L 268.878632 193.155756 
L 273.899865 191.923821 
L 279.810348 189.494028 
L 286.570525 185.616062 
L 293.984868 180.077016 
L 301.605223 172.81879 
L 308.651483 164.117263 
L 314.016793 154.774497 
L 316.464463 146.165956 
L 315.058615 139.935474 
L 309.664525 137.308492 
L 301.147952 138.450956 
L 291.036821 142.438932 
L 280.880866 147.883782 
L 271.774193 153.627183 
L 264.239408 159.03765 
L 258.36428 163.92658 
L 253.996165 168.337044 
L 250.88633 172.381832 
L 248.777585 176.159907 
L 247.444555 179.732918 
L 246.708672 183.127758 
L 246.439325 186.346928 
L 246.549094 189.379767 
L 246.98774 192.20776 
L 247.736426 194.808021 
L 248.803606 197.153512 
L 250.222265 199.210271 
L 252.048976 200.933718 
L 254.364297 202.262711 
L 257.272927 203.110838 
L 260.903674 203.355674 
L 265.40612 202.824682 
L 270.937259 201.279921 
L 277.635136 198.406234 
L 285.560266 193.81743 
L 294.596121 187.107365 
L 304.294558 177.994789 
L 313.692528 166.612582 
L 321.218771 153.90678 
L 324.908611 141.89485 
L 323.120511 133.283321 
L 315.533382 130.167937 
L 303.600573 132.670583 
L 289.852704 138.93167 
L 276.629202 146.521333 
L 265.3077 153.758455 
L 256.319263 160.003372 
L 249.517441 165.281906 
L 244.51466 169.856698 
L 240.877279 173.987572 
L 238.212955 177.852243 
L 236.197137 181.54788 
L 234.573495 185.115139 
L 231.747069 191.884521 
L 230.258033 195.06879 
L 228.56211 198.101037 
L 226.550604 200.963928 
L 224.111329 203.631731 
L 221.122031 206.062532 
L 217.446422 208.185612 
L 212.937189 209.88114 
L 207.445683 210.95317 
L 200.851324 211.092233 
L 193.117787 209.835263 
L 184.396961 206.544259 
L 175.177249 200.45744 
L 166.447906 190.907612 
L 159.746471 177.79274 
L 156.867888 162.193955 
L 159.11981 146.634847 
L 166.486924 134.323682 
L 177.466883 127.57759 
L 189.845262 126.727679 
L 201.713097 130.432326 
L 211.959557 136.793247 
L 220.209112 144.226029 
L 226.539849 151.736993 
L 231.233615 158.825191 
L 234.630071 165.300157 
L 237.050855 171.131923 
L 238.768993 176.359378 
L 240.003704 181.048231 
L 241.654117 189.069268 
L 242.911232 195.632127 
L 243.571006 198.458945 
L 244.32504 201.012184 
L 245.225491 203.300598 
L 246.329077 205.323922 
L 247.701299 207.069618 
L 249.421433 208.510698 
L 251.586906 209.600543 
L 254.318817 210.265923 
L 257.764995 210.395354 
L 262.102222 209.823712 
L 267.530003 208.311925 
L 274.252615 205.524407 
L 282.430558 201.015038 
L 292.08235 194.249132 
L 302.910551 184.718976 
L 314.049349 172.242058 
L 323.833539 157.481552 
L 329.838893 142.520254 
L 329.615501 130.783261 
L 322.099985 125.543255 
L 308.669137 127.658312 
L 292.522105 134.922523 
L 276.830687 143.952938 
L 263.465247 152.350912 
L 252.959243 159.266808 
L 245.074266 164.814457 
L 239.284191 169.412927 
L 235.029334 173.445421 
L 231.819633 177.160585 
L 229.257356 180.685557 
L 224.892125 187.300555 
L 222.651084 190.358654 
L 220.145767 193.194223 
L 217.237216 195.743031 
L 213.80064 197.916746 
L 209.72584 199.590043 
L 204.925553 200.584468 
L 199.359404 200.650039 
L 193.075556 199.45433 
L 186.271602 196.594389 
L 179.370323 191.660392 
L 173.080729 184.390658 
L 168.366735 174.917248 
L 166.256214 164.021593 
L 167.474811 153.184138 
L 172.069199 144.213013 
L 179.303903 138.548645 
L 187.951292 136.706385 
L 196.769964 138.251259 
L 204.843401 142.215357 
L 211.680038 147.575439 
L 217.125814 153.526477 
L 221.238773 159.547649 
L 224.175899 165.349134 
L 226.121648 170.794282 
L 227.248797 175.838481 
L 227.697769 180.484273 
L 227.569776 184.75369 
L 226.926795 188.675386 
L 225.793748 192.27469 
L 224.161976 195.566745 
L 221.992163 198.55136 
L 219.218071 201.204612 
L 215.75102 203.468554 
L 211.486503 205.236113 
L 206.322315 206.327842 
L 200.186291 206.46622 
L 193.088924 205.249495 
L 185.21303 202.148832 
L 177.024679 196.568752 
L 169.389753 188.040679 
L 163.57647 176.584127 
L 161.011764 163.140114 
L 162.727774 149.724737 
L 168.757241 138.864297 
L 177.992441 132.478694 
L 188.695348 131.043587 
L 199.248623 133.690784 
L 208.598037 138.962519 
L 216.288756 145.51103 
L 222.280842 152.401152 
L 226.750431 159.100408 
L 229.957871 165.364147 
L 232.16646 171.111813 
L 233.607062 176.346937 
L 234.464708 181.109927 
L 234.877602 185.45391 
L 234.941587 189.433224 
L 234.716381 193.097315 
L 234.23165 196.489545 
L 233.491592 199.646936 
L 232.477962 202.599703 
L 231.15118 205.37138 
L 229.449948 207.977288 
L 227.290174 210.420848 
L 224.561276 212.689348 
L 221.124157 214.742377 
L 216.8114 216.493875 
L 211.431912 217.784064 
L 204.789848 218.335395 
L 196.733397 217.692089 
L 187.254816 215.155904 
L 176.666027 209.764081 
L 165.853134 200.425838 
L 156.503574 186.405781 
L 150.998763 168.237201 
L 151.583495 148.576405 
L 158.977921 131.787403 
L 171.620039 121.713362 
L 186.537264 119.444818 
L 200.996357 123.322511 
L 213.429372 130.659287 
L 223.355116 139.222523 
L 230.92481 147.687069 
L 236.547702 155.455515 
L 240.684683 162.34742 
L 243.760311 168.37539 
L 251.608043 185.483204 
L 253.506878 188.331141 
L 255.678412 190.654217 
L 258.245123 192.426485 
L 261.32712 193.587661 
L 265.045435 194.038278 
L 269.516564 193.633163 
L 274.838803 192.177905 
L 281.062708 189.433164 
L 288.133011 185.14389 
L 295.813616 179.106942 
L 303.583087 171.309761 
L 310.561315 162.129506 
L 315.542349 152.527784 
L 317.252553 144.049205 
L 314.852833 138.391721 
L 308.435315 136.636381 
L 299.118282 138.658573 
L 288.568875 143.286804 
L 278.31987 149.060092 
L 269.353793 154.894283 
L 262.071595 160.27321 
L 256.47431 165.092908 
L 252.356838 169.440944 
L 249.448077 173.442714 
L 247.483869 177.19647 
L 246.240078 180.759106 
L 245.542435 184.152864 
L 245.264424 187.379039 
L 245.321584 190.427122 
L 245.664537 193.281299 
L 246.273067 195.92322 
L 247.151719 198.331827 
L 248.327252 200.481809 
L 249.84792 202.34042 
L 251.78345 203.861951 
L 254.22761 204.981994 
L 257.298455 205.607047 
L 261.139777 205.602842 
L 265.917028 204.778128 
L 271.803121 202.867191 
L 278.945236 199.517343 
L 287.398941 194.297003 
L 297.007523 186.761446 
L 307.216798 176.637918 
L 316.87731 164.172597 
L 324.163191 150.599219 
L 326.907207 138.354363 
L 323.520704 130.434547 
L 314.095334 128.75721 
L 300.642281 132.813713 
L 286.020582 140.162358 
L 272.536193 148.222463 
L 261.338454 155.498378 
L 252.63584 161.59178 
L 246.136071 166.683687 
L 241.375926 171.100495 
L 237.890769 175.112166 
L 235.278468 178.886595 
L 233.21331 182.50754 
L 228.005001 192.601112 
L 226.0445 195.663479 
L 223.750238 198.529832 
L 220.99919 201.156618 
L 217.664377 203.478804 
L 213.614947 205.393887 
L 208.721636 206.741421 
L 202.8782 207.27454 
L 196.041387 206.630157 
L 188.304295 204.309976 
L 180.004315 199.706792 
L 171.853177 192.23978 
L 165.004584 181.661493 
L 160.922206 168.511557 
L 160.92039 154.460406 
L 165.490997 142.040987 
L 173.904262 133.634414 
L 184.51074 130.335791 
L 195.510054 131.680798 
L 205.579087 136.271666 
L 214.049901 142.610191 
L 220.759235 149.566495 
L 225.83697 156.462704 
L 229.535929 162.963324 
L 232.134813 168.94375 
L 233.886958 174.387523 
L 235.00208 179.330699 
L 235.640798 183.8255 
L 235.919409 187.928704 
L 235.915959 191.693579 
L 235.677015 195.167582 
L 235.22347 198.391062 
L 234.554648 201.398588 
L 233.650869 204.218616 
L 232.47375 206.875078 
L 230.966356 209.384321 
L 229.049751 211.755979 
L 226.620899 213.986367 
L 223.54845 216.0514 
L 219.669604 217.892343 
L 214.791482 219.391605 
L 208.699558 220.335139 
L 201.189707 220.354899 
L 192.139971 218.855341 
L 181.654499 214.948304 
L 170.300895 207.477147 
L 159.41757 195.315244 
L 151.253552 178.142968 
L 148.51005 157.594944 
L 152.987555 137.725472 
L 164.160551 123.407921 
L 179.2576 117.407613 
L 194.980926 119.045173 
L 209.052789 125.574641 
L 220.540448 134.215787 
L 229.41152 143.134704 
L 236.046573 151.433088 
L 240.942235 158.799221 
L 244.57715 165.206264 
L 249.628832 175.477503 
L 251.645148 179.533183 
L 253.620394 182.963485 
L 255.72533 185.804478 
L 258.104756 188.061149 
L 260.887925 189.705206 
L 264.195913 190.672374 
L 268.139617 190.857679 
L 272.814718 190.11396 
L 278.280474 188.254145 
L 284.523891 185.067816 
L 291.400812 180.366212 
L 298.5606 174.071921 
L 305.374922 166.360509 
L 310.921945 157.825121 
L 314.106909 149.5636 
L 313.985608 143.000799 
L 310.191092 139.394899 
L 303.209263 139.237983 
L 294.240657 142.033971 
L 284.71379 146.659528 
L 275.790799 151.979367 
L 268.150258 157.24064 
L 262.031955 162.114783 
L 257.389388 166.55113 
L 254.038792 170.614931 
L 251.755354 174.389963 
L 250.328255 177.93577 
L 249.58396 181.280259 
L 249.393101 184.427034 
L 249.669927 187.36106 
L 250.367708 190.056481 
L 251.474351 192.478799 
L 253.008514 194.583945 
L 255.016344 196.314556 
L 257.570242 197.595041 
L 260.765833 198.322427 
L 264.717392 198.356381 
L 269.549209 197.507843 
L 275.373438 195.530027 
L 282.250264 192.121039 
L 290.118257 186.955093 
L 298.686894 179.772598 
L 307.302729 170.563392 
L 314.848345 159.843663 
L 319.806603 148.912255 
L 320.656 139.776423 
L 316.568729 134.477618 
L 308.013158 133.992274 
L 296.666636 137.651071 
L 284.615024 143.688565 
L 273.497848 150.359775 
L 264.173576 156.621194 
L 256.84313 162.136064 
L 251.333827 166.96502 
L 247.323685 171.293415 
L 244.468675 175.291933 
L 242.462636 179.073051 
L 241.05594 182.695887 
L 240.055817 186.18306 
L 239.317981 189.537326 
L 236.625987 204.207695 
L 235.913798 206.731466 
L 235.038629 209.135568 
L 233.946688 211.430821 
L 232.572026 213.627555 
L 230.831943 215.732906 
L 228.622272 217.746307 
L 225.810617 219.653527 
L 222.231614 221.41331 
L 217.682902 222.936566 
L 211.927705 224.050865 
L 204.71555 224.443779 
L 195.834951 223.581755 
L 185.232488 220.612534 
L 173.252101 214.314473 
L 160.98138 203.255298 
L 150.586098 186.460636 
L 145.144876 164.736563 
L 147.387666 141.850044 
L 157.721575 123.591427 
L 173.534243 114.309475 
L 190.902575 114.24047 
L 206.81264 120.459628 
L 219.914529 129.5327 
L 230.058446 139.0875 
L 237.650016 147.949707 
L 243.257264 155.720614 
L 243.257264 155.720614 
" clip-path="url(#p1c10122e57)" style="fill: none; stroke: #0000cc; stroke-linecap: square"/>
   </g>
   <g id="line2d_24">
    <path d="M 222.786028 201.500255 
L 219.865814 204.038981 
L 216.226152 206.210535 
L 211.745127 207.897797 
L 206.300205 208.906223 
L 199.800883 208.92884 
L 192.248646 207.515153 
L 183.836308 204.062028 
L 175.086775 197.882606 
L 166.987523 188.434655 
L 160.995379 175.765389 
L 158.722124 161.033681 
L 161.24895 146.635851 
L 168.437608 135.443356 
L 178.863228 129.435992 
L 190.516827 128.833181 
L 201.679482 132.40784 
L 211.343072 138.459699 
L 219.149083 145.559807 
L 225.149797 152.788859 
L 229.593387 159.667403 
L 232.785617 166.001197 
L 235.018646 171.74895 
L 236.541639 176.939874 
L 237.552774 181.629949 
L 238.201842 185.881017 
L 238.597519 189.751324 
L 238.907118 196.54756 
L 238.824341 202.341821 
L 238.459433 207.362376 
L 237.783913 211.778092 
L 237.290619 213.803109 
L 236.657875 215.72776 
L 235.847037 217.567588 
L 234.807071 219.337544 
L 233.471072 221.051242 
L 231.751721 222.719126 
L 229.535568 224.344711 
L 226.676228 225.917366 
L 222.987103 227.398999 
L 218.235565 228.700147 
L 212.143573 229.63844 
L 204.40609 229.86966 
L 194.751192 228.782649 
L 183.085948 225.366407 
L 169.790704 218.122313 
L 156.189113 205.253604 
L 144.994887 185.573243 
L 140.029229 160.34079 
L 144.372466 134.685631 
L 157.824462 115.776692 
L 176.581701 108.032566 
L 195.899437 110.452728 
L 212.75144 118.809215 
L 226.167657 129.186045 
L 236.32243 139.294981 
L 243.827229 148.203126 
L 249.365235 155.706098 
L 259.630263 171.120029 
L 262.236087 174.382438 
L 264.871024 176.861744 
L 267.704823 178.578484 
L 270.859031 179.526976 
L 274.413936 179.662098 
L 278.401184 178.92534 
L 282.794001 177.247178 
L 287.483891 174.585839 
L 292.259113 170.958638 
L 296.784767 166.503221 
L 300.610942 161.522506 
L 303.222213 156.510809 
L 304.147299 152.098059 
L 303.10285 148.913455 
L 300.117618 147.38852 
L 295.557566 147.617384 
L 290.02853 149.349326 
L 284.199836 152.130988 
L 278.645195 155.484268 
L 273.757487 159.036796 
L 269.745213 162.553121 
L 266.672821 165.913884 
L 264.515841 169.064797 
L 263.206333 171.982154 
L 262.666335 174.643411 
L 262.826334 177.019569 
L 263.635546 179.066176 
L 265.0639 180.725595 
L 267.100639 181.922805 
L 269.747871 182.567761 
L 273.011098 182.553072 
L 276.883654 181.759322 
L 281.325273 180.063032 
L 286.232311 177.359523 
L 291.402709 173.600457 
L 296.50234 168.853065 
L 301.05149 163.368314 
L 304.457815 157.631218 
L 306.12141 152.33898 
L 305.606116 148.263598 
L 302.816554 146.014257 
L 298.07878 145.815257 
L 292.057508 147.443788 
L 285.546142 150.37385 
L 279.249337 154.015645 
L 273.657432 157.899377 
L 269.029689 161.735947 
L 265.443864 165.387774 
L 262.864981 168.806932 
L 261.204492 171.982622 
L 260.361201 174.908261 
L 260.24506 177.566983 
L 260.78898 179.926188 
L 261.952648 181.937075 
L 263.721613 183.533926 
L 266.102886 184.633353 
L 269.117462 185.132268 
L 272.788584 184.907122 
L 277.123961 183.816269 
L 282.089295 181.711059 
L 287.571469 178.462127 
L 293.333112 174.009499 
L 298.969169 168.439855 
L 303.890378 162.078586 
L 307.372782 155.551828 
L 308.706945 149.74253 
L 307.431669 145.580407 
L 303.552623 143.71259 
L 297.601133 144.241268 
L 290.466231 146.722858 
L 283.095023 150.429371 
L 276.24008 154.667605 
L 270.357265 158.961805 
L 265.633005 163.069914 
L 262.068942 166.910801 
L 259.56813 170.480894 
L 257.998677 173.79682 
L 257.232382 176.867106 
L 257.164683 179.682577 
L 257.722796 182.215589 
L 258.867143 184.421416 
L 260.589168 186.238745 
L 262.907037 187.58813 
L 265.859304 188.3687 
L 269.495433 188.454126 
L 273.860873 187.690222 
L 278.973204 185.898441 
L 284.785326 182.892867 
L 291.133278 178.521919 
L 297.673044 172.747036 
L 303.826538 165.760489 
L 308.78149 158.111321 
L 311.607246 150.751671 
L 311.519031 144.880936 
L 308.216006 141.54761 
L 302.0928 141.190442 
L 294.139899 143.455392 
L 285.567821 147.451111 
L 277.407784 152.222448 
L 270.309055 157.085011 
L 264.547007 161.69426 
L 260.134569 165.951128 
L 256.943784 169.876256 
L 254.795784 173.521392 
L 253.5139 176.926895 
L 252.949782 180.10914 
L 252.993447 183.061663 
L 253.574766 185.76003 
L 254.661113 188.165502 
L 256.253713 190.225877 
L 258.383725 191.873361 
L 261.108034 193.019771 
L 264.503719 193.549654 
L 268.659029 193.31248 
L 273.657205 192.116449 
L 279.547674 189.729525 
L 286.297724 185.898639 
L 293.719237 180.405251 
L 301.374773 173.179428 
L 308.493384 164.480342 
L 313.970556 155.093062 
L 316.558817 146.385648 
L 315.295924 140.012288 
L 310.010042 137.235399 
L 301.537313 138.26696 
L 291.405376 142.204778 
L 281.186272 147.647838 
L 271.996464 153.416801 
L 264.377656 158.86046 
L 258.429704 163.777546 
L 254.001846 168.20911 
L 250.843875 172.269287 
L 248.695671 176.059695 
L 247.329091 179.644216 
L 246.562825 183.051141 
L 246.263701 186.284285 
L 246.342017 189.333313 
L 246.745268 192.180568 
L 247.4524 194.804115 
L 248.469442 197.178034 
L 249.826823 199.270376 
L 251.578309 201.039345 
L 253.801181 202.427553 
L 256.597009 203.354102 
L 260.091824 203.703928 
L 264.433386 203.314196 
L 269.781418 201.958623 
L 276.283359 199.333906 
L 284.023762 195.059908 
L 292.931351 188.7194 
L 302.63134 179.983184 
L 312.259344 168.874962 
L 320.332314 156.171949 
L 324.891343 143.730041 
L 324.142528 134.237725 
L 317.460049 130.043827 
L 306.009322 131.68726 
L 292.262723 137.551747 
L 278.712596 145.132653 
L 266.926836 152.553513 
L 257.475508 159.010536 
L 250.282488 164.449902 
L 244.975348 169.125955 
L 241.11114 173.314718 
L 238.28264 177.211619 
L 236.150335 180.928218 
L 234.444435 184.512863 
L 231.515643 191.317908 
L 229.992184 194.520531 
L 228.266524 197.570055 
L 226.227247 200.447262 
L 223.760423 203.124437 
L 220.743121 205.557436 
L 217.040113 207.672389 
L 212.50594 209.346359 
L 206.996678 210.379429 
L 200.399196 210.458598 
L 192.689863 209.119508 
L 184.036515 205.729195 
L 174.946807 199.544628 
L 166.422992 189.939818 
L 159.991612 176.876838 
L 157.393295 161.496373 
L 159.845407 146.314197 
L 167.260388 134.434578 
L 178.134016 128.037175 
L 190.308146 127.378246 
L 201.942847 131.122814 
L 211.978487 137.431158 
L 220.056581 144.779009 
L 226.252228 152.20536 
L 230.841163 159.222978 
L 234.153678 165.645004 
L 236.501745 171.440531 
L 238.150465 176.647841 
L 239.311389 181.32902 
L 240.146423 185.549595 
L 241.29072 192.837889 
L 242.224177 198.879039 
L 242.738311 201.506714 
L 243.338185 203.896113 
L 244.064486 206.055549 
L 244.962754 207.985603 
L 246.087199 209.677943 
L 247.504683 211.113169 
L 249.299084 212.257084 
L 251.576104 213.054842 
L 254.468252 213.422018 
L 258.139106 213.231444 
L 262.784599 212.294624 
L 268.626417 210.33755 
L 275.887721 206.97448 
L 284.733418 201.69346 
L 295.147358 193.890188 
L 306.71692 183.026109 
L 318.332346 169.020772 
L 327.942544 152.913907 
L 332.750633 137.447916 
L 330.288742 126.613731 
L 320.075966 123.520574 
L 304.3928 128.046702 
L 287.036234 136.9358 
L 271.116373 146.516474 
L 258.067465 154.792821 
L 248.066063 161.329814 
L 240.671007 166.481819 
L 235.258269 170.756204 
L 231.238905 174.534318 
L 228.126195 178.033634 
L 220.77636 187.508552 
L 218.194893 190.262571 
L 215.266614 192.714182 
L 211.867455 194.765464 
L 207.898638 196.28705 
L 203.295157 197.101554 
L 198.047505 196.975451 
L 192.237798 195.614892 
L 186.0908 192.690425 
L 180.027328 187.906009 
L 174.690746 181.13744 
L 170.89369 172.623814 
L 169.438646 163.129408 
L 170.831861 153.915861 
L 175.028776 146.417081 
L 181.394541 141.728028 
L 188.934458 140.229789 
L 196.641966 141.587026 
L 203.75468 145.049451 
L 209.832764 149.797903 
L 214.709978 155.159268 
L 218.399794 160.669924 
L 221.008944 166.052044 
L 222.676037 171.159214 
L 223.534684 175.927018 
L 223.694171 180.335609 
L 223.231242 184.386195 
L 222.188237 188.084718 
L 220.574634 191.431437 
L 218.370456 194.411301 
L 215.53131 196.984764 
L 211.995989 199.07584 
L 207.69898 200.557566 
L 202.591742 201.234353 
L 196.678198 200.825741 
L 190.069782 198.961968 
L 183.060587 195.214543 
L 176.206798 189.197503 
L 170.362583 180.771982 
L 166.589177 170.330055 
L 165.868492 159.004814 
L 168.682774 148.547319 
L 174.712522 140.751773 
L 182.915015 136.722757 
L 191.956948 136.513987 
L 200.685106 139.352813 
L 208.364372 144.159601 
L 214.670236 149.964566 
L 219.566755 156.079274 
L 223.176292 162.091792 
L 225.68361 167.79261 
L 227.278234 173.097191 
L 228.124873 177.989424 
L 228.350904 182.486349 
L 228.043294 186.6178 
L 227.250121 190.414725 
L 225.98373 193.902112 
L 224.22405 197.09351 
L 221.921567 199.985276 
L 219.000346 202.548718 
L 215.362431 204.718443 
L 210.896308 206.375092 
L 205.494145 207.321315 
L 199.085298 207.2523 
L 191.696325 205.729368 
L 183.546839 202.180966 
L 175.176674 195.981721 
L 167.557885 186.682471 
L 162.07185 174.425709 
L 160.190167 160.394529 
L 162.843228 146.862387 
L 169.829333 136.453686 
L 179.797643 130.926726 
L 190.893459 130.444603 
L 201.531275 133.879842 
L 210.76723 139.67643 
L 218.250878 146.51148 
L 224.01484 153.517632 
L 228.279603 160.229621 
L 231.324701 166.449169 
L 233.420267 172.125412 
L 234.797331 177.278387 
L 235.638708 181.956972 
L 236.080272 186.218217 
L 236.216853 190.117509 
L 236.109228 193.704945 
L 235.790506 197.024066 
L 235.271116 200.11214 
L 234.542127 203.000668 
L 233.576859 205.71598 
L 232.330932 208.279214 
L 230.740858 210.705456 
L 228.721367 213.001252 
L 226.161754 215.159589 
L 222.92189 217.150629 
L 218.829384 218.905598 
L 213.681167 220.289857 
L 207.256359 221.060042 
L 199.353824 220.801061 
L 189.877889 218.847394 
L 179.005245 214.222734 
L 167.454926 205.702686 
L 156.797502 192.211482 
L 149.517239 173.756447 
L 148.322745 152.593046 
L 154.605899 133.29786 
L 167.210382 120.616751 
L 182.983673 116.57071 
L 198.683041 119.746205 
L 212.340892 127.129446 
L 223.297099 136.07369 
L 231.665374 144.976245 
L 237.8882 153.107172 
L 242.480427 160.251738 
L 245.914241 166.42917 
L 252.861183 180.125734 
L 254.918753 183.352241 
L 257.155496 185.978365 
L 259.712691 187.998039 
L 262.716876 189.370621 
L 266.284146 190.017449 
L 270.517409 189.819276 
L 275.494002 188.616084 
L 281.239366 186.216107 
L 287.682467 182.423823 
L 294.591672 177.102477 
L 301.501332 170.284561 
L 307.663199 162.323822 
L 312.088835 154.027227 
L 313.756402 146.63185 
L 311.980759 141.489965 
L 306.781384 139.515996 
L 298.975705 140.743731 
L 289.872845 144.372042 
L 280.769043 149.267293 
L 272.584037 154.486764 
L 265.777957 159.493681 
L 260.452339 164.099231 
L 256.498572 168.308696 
L 253.71922 172.192875 
L 251.903362 175.819194 
L 250.864644 179.2282 
L 250.456694 182.432385 
L 250.576421 185.422923 
L 251.161724 188.176245 
L 252.187356 190.657888 
L 253.660834 192.822934 
L 255.619031 194.613552 
L 258.125366 195.953773 
L 261.266715 196.741954 
L 265.14825 196.841226 
L 269.883058 196.069291 
L 275.571334 194.191068 
L 282.261446 190.922541 
L 289.883447 185.962426 
L 298.14908 179.078735 
L 306.430156 170.279831 
L 313.671349 160.06644 
L 318.458218 149.65405 
L 319.378361 140.90092 
L 315.651679 135.692734 
L 307.669348 134.980815 
L 296.946442 138.231587 
L 285.424871 143.860342 
L 274.680009 150.235294 
L 265.577581 156.333131 
L 258.367088 161.776053 
L 252.923438 166.579317 
L 248.95861 170.898841 
L 246.153035 174.888877 
L 244.217554 178.655148 
L 242.914964 182.254161 
L 242.062457 185.707438 
L 241.525355 189.0173 
L 241.208057 192.17789 
L 240.993932 198.023098 
L 241.134141 203.207151 
L 241.550401 207.728244 
L 241.873313 209.743993 
L 242.292112 211.597622 
L 242.830122 213.287577 
L 243.5191 214.80895 
L 244.40121 216.151868 
L 245.531756 217.299236 
L 246.982784 218.223456 
L 248.847622 218.881524 
L 251.24633 219.207631 
L 254.331696 219.101996 
L 258.294617 218.414273 
L 263.365995 216.919772 
L 269.808682 214.287997 
L 277.886192 210.048145 
L 287.783488 203.571062 
L 299.441013 194.121258 
L 312.262293 181.091438 
L 324.719391 164.574997 
L 334.100853 146.273776 
L 336.994749 130.070778 
L 330.986152 120.825101 
L 316.670707 121.150575 
L 297.799352 129.126623 
L 278.878172 139.992648 
L 240.597506 163.811279 
L 233.727384 168.319144 
L 228.682759 172.039888 
L 224.856153 175.331499 
L 221.769873 178.373037 
L 216.438461 183.870104 
L 213.709658 186.251723 
L 210.715532 188.283132 
L 207.347043 189.854406 
L 203.539274 190.825685 
L 199.280349 191.028172 
L 194.629212 190.263043 
L 189.741837 188.321216 
L 184.89712 185.022578 
L 180.50891 180.291896 
L 177.098535 174.257529 
L 175.207004 167.342858 
L 175.247787 160.278346 
L 177.351519 153.977777 
L 181.286277 149.288473 
L 186.513385 146.736152 
L 192.352531 146.403873 
L 198.164983 147.998329 
L 203.471373 151.025312 
L 207.983485 154.965208 
L 211.575985 159.37872 
L 214.235424 163.944053 
L 216.01057 168.447134 
L 216.974798 172.756327 
L 217.201394 176.793151 
L 216.749711 180.509854 
L 215.658931 183.870374 
L 213.947391 186.837212 
L 211.615949 189.358979 
L 208.655405 191.360347 
L 205.058608 192.731351 
L 200.839105 193.319282 
L 196.058022 192.925077 
L 190.859908 191.313286 
L 185.513294 188.24685 
L 180.44257 183.561468 
L 176.224139 177.282838 
L 173.512568 169.75935 
L 172.8803 161.733166 
L 174.611869 154.251487 
L 178.558685 148.388015 
L 184.158424 144.893553 
L 190.621119 143.981725 
L 197.16991 145.364588 
L 203.210748 148.467233 
L 208.38592 152.662247 
L 212.542823 157.418546 
L 215.669379 162.35279 
L 217.830961 167.218705 
L 219.123042 171.872584 
L 219.640828 176.237276 
L 219.462308 180.273556 
L 218.640466 183.959161 
L 217.201433 187.273708 
L 215.146559 190.186654 
L 212.457672 192.64648 
L 209.105987 194.569467 
L 205.066329 195.827861 
L 200.339377 196.238765 
L 194.98499 195.558754 
L 189.167981 193.49476 
L 183.211314 189.749013 
L 177.637696 184.118714 
L 173.160543 176.656154 
L 170.574795 167.845079 
L 170.530107 158.675082 
L 173.260537 150.474988 
L 178.4336 144.497122 
L 185.244703 141.470242 
L 192.708212 141.41126 
L 199.957857 143.78078 
L 206.407908 147.80841 
L 211.763402 152.766824 
L 215.94869 158.103551 
L 219.019804 163.457535 
L 221.093207 168.620467 
L 222.298522 173.48671 
L 222.751388 178.011644 
L 222.540038 182.182336 
L 221.720339 185.998087 
L 220.315664 189.457134 
L 218.319503 192.546382 
L 215.700049 195.231676 
L 212.407253 197.446839 
L 208.38412 199.080285 
L 203.585465 199.959335 
L 198.00872 199.835086 
L 198.00872 199.835086 
" clip-path="url(#p1c10122e57)" style="fill: none; stroke: #ff0000; stroke-linecap: square"/>
   </g>
  </g>
 </g>
 <defs>
  <clipPath id="p1c10122e57">
   <rect x="103.104" y="41.472" width="266.112" height="266.112"/>
  </clipPath>
 </defs>
</svg>
