<?xml version="1.0" encoding="utf-8" standalone="no"?>
<!DOCTYPE svg PUBLIC "-//W3C//DTD SVG 1.1//EN"
  "http://www.w3.org/Graphics/SVG/1.1/DTD/svg11.dtd">
<svg xmlns:xlink="http://www.w3.org/1999/xlink" width="460.8pt" height="345.6pt" viewBox="0 0 460.8 345.6" xmlns="http://www.w3.org/2000/svg" version="1.1">
 <metadata>
  <rdf:RDF xmlns:dc="http://purl.org/dc/elements/1.1/" xmlns:cc="http://creativecommons.org/ns#" xmlns:rdf="http://www.w3.org/1999/02/22-rdf-syntax-ns#">
   <cc:Work>
    <dc:type rdf:resource="http://purl.org/dc/dcmitype/StillImage"/>
    <dc:date>2023-11-22T17:07:29.553737</dc:date>
    <dc:format>image/svg+xml</dc:format>
    <dc:creator>
     <cc:Agent>
      <dc:title>Matplotlib v3.5.2, https://matplotlib.org/</dc:title>
     </cc:Agent>
    </dc:creator>
   </cc:Work>
  </rdf:RDF>
 </metadata>
 <defs>
  <style type="text/css">*{stroke-linejoin: round; stroke-linecap: butt}</style>
 </defs>
 <g id="figure_1">
  <g id="patch_1">
   <path d="M 0 345.6 
L 460.8 345.6 
L 460.8 0 
L 0 0 
z
" style="fill: #ffffff"/>
  </g>
  <g id="axes_1">
   <g id="patch_2">
    <path d="M 57.6 119.740235 
L 414.72 119.740235 
L 414.72 41.472 
L 57.6 41.472 
z
" style="fill: #ffffff"/>
   </g>
   <g id="matplotlib.axis_1">
    <g id="xtick_1">
     <g id="line2d_1">
      <defs>
       <path id="m99b08457a8" d="M 0 0 
L 0 3.5 
" style="stroke: #000000; stroke-width: 0.8"/>
      </defs>
      <g>
       <use xlink:href="#m99b08457a8" x="57.6" y="119.740235" style="stroke: #000000; stroke-width: 0.8"/>
      </g>
     </g>
    </g>
    <g id="xtick_2">
     <g id="line2d_2">
      <g>
       <use xlink:href="#m99b08457a8" x="105.216" y="119.740235" style="stroke: #000000; stroke-width: 0.8"/>
      </g>
     </g>
    </g>
    <g id="xtick_3">
     <g id="line2d_3">
      <g>
       <use xlink:href="#m99b08457a8" x="152.832" y="119.740235" style="stroke: #000000; stroke-width: 0.8"/>
      </g>
     </g>
    </g>
    <g id="xtick_4">
     <g id="line2d_4">
      <g>
       <use xlink:href="#m99b08457a8" x="200.448" y="119.740235" style="stroke: #000000; stroke-width: 0.8"/>
      </g>
     </g>
    </g>
    <g id="xtick_5">
     <g id="line2d_5">
      <g>
       <use xlink:href="#m99b08457a8" x="248.064" y="119.740235" style="stroke: #000000; stroke-width: 0.8"/>
      </g>
     </g>
    </g>
    <g id="xtick_6">
     <g id="line2d_6">
      <g>
       <use xlink:href="#m99b08457a8" x="295.68" y="119.740235" style="stroke: #000000; stroke-width: 0.8"/>
      </g>
     </g>
    </g>
    <g id="xtick_7">
     <g id="line2d_7">
      <g>
       <use xlink:href="#m99b08457a8" x="343.296" y="119.740235" style="stroke: #000000; stroke-width: 0.8"/>
      </g>
     </g>
    </g>
    <g id="xtick_8">
     <g id="line2d_8">
      <g>
       <use xlink:href="#m99b08457a8" x="390.912" y="119.740235" style="stroke: #000000; stroke-width: 0.8"/>
      </g>
     </g>
    </g>
    <g id="xtick_9">
     <g id="line2d_9">
      <g>
       <use xlink:href="#m99b08457a8" x="414.72" y="119.740235" style="stroke: #000000; stroke-width: 0.8"/>
      </g>
     </g>
    </g>
   </g>
   <g id="matplotlib.axis_2">
    <g id="ytick_1">
     <g id="line2d_10">
      <defs>
       <path id="mc559c47206" d="M 0 0 
L -3.5 0 
" style="stroke: #000000; stroke-width: 0.8"/>
      </defs>
      <g>
       <use xlink:href="#mc559c47206" x="57.6" y="100.485341" style="stroke: #000000; stroke-width: 0.8"/>
      </g>
     </g>
     <g id="text_1">
      <!-- −10 -->
      <g transform="translate(29.495313 104.284559)scale(0.1 -0.1)">
       <defs>
        <path id="DejaVuSans-2212" d="M 678 2272 
L 4684 2272 
L 4684 1741 
L 678 1741 
L 678 2272 
z
" transform="scale(0.015625)"/>
        <path id="DejaVuSans-31" d="M 794 531 
L 1825 531 
L 1825 4091 
L 703 3866 
L 703 4441 
L 1819 4666 
L 2450 4666 
L 2450 531 
L 3481 531 
L 3481 0 
L 794 0 
L 794 531 
z
" transform="scale(0.015625)"/>
        <path id="DejaVuSans-30" d="M 2034 4250 
Q 1547 4250 1301 3770 
Q 1056 3291 1056 2328 
Q 1056 1369 1301 889 
Q 1547 409 2034 409 
Q 2525 409 2770 889 
Q 3016 1369 3016 2328 
Q 3016 3291 2770 3770 
Q 2525 4250 2034 4250 
z
M 2034 4750 
Q 2819 4750 3233 4129 
Q 3647 3509 3647 2328 
Q 3647 1150 3233 529 
Q 2819 -91 2034 -91 
Q 1250 -91 836 529 
Q 422 1150 422 2328 
Q 422 3509 836 4129 
Q 1250 4750 2034 4750 
z
" transform="scale(0.015625)"/>
       </defs>
       <use xlink:href="#DejaVuSans-2212"/>
       <use xlink:href="#DejaVuSans-31" x="83.789062"/>
       <use xlink:href="#DejaVuSans-30" x="147.412109"/>
      </g>
     </g>
    </g>
    <g id="ytick_2">
     <g id="line2d_11">
      <g>
       <use xlink:href="#mc559c47206" x="57.6" y="80.17154" style="stroke: #000000; stroke-width: 0.8"/>
      </g>
     </g>
     <g id="text_2">
      <!-- 0 -->
      <g transform="translate(44.2375 83.970758)scale(0.1 -0.1)">
       <use xlink:href="#DejaVuSans-30"/>
      </g>
     </g>
    </g>
    <g id="ytick_3">
     <g id="line2d_12">
      <g>
       <use xlink:href="#mc559c47206" x="57.6" y="59.857738" style="stroke: #000000; stroke-width: 0.8"/>
      </g>
     </g>
     <g id="text_3">
      <!-- 10 -->
      <g transform="translate(37.875 63.656957)scale(0.1 -0.1)">
       <use xlink:href="#DejaVuSans-31"/>
       <use xlink:href="#DejaVuSans-30" x="63.623047"/>
      </g>
     </g>
    </g>
   </g>
   <g id="line2d_13">
    <path d="M 57.6 85.957835 
L 58.195191 86.8303 
L 58.790405 87.940155 
L 59.385595 89.32407 
L 59.980809 91.023318 
L 61.171191 95.504801 
L 62.361595 101.344083 
L 63.552 107.268641 
L 64.147191 109.313098 
L 64.742405 110.10772 
L 65.337595 109.356902 
L 65.932786 107.105595 
L 67.123214 99.816227 
L 68.313618 92.279688 
L 68.908809 89.237681 
L 69.504023 86.797022 
L 70.099214 84.920316 
L 70.694405 83.526081 
L 71.289618 82.520363 
L 71.884809 81.814098 
L 72.48 81.331122 
L 73.670405 80.806949 
L 74.860809 80.625531 
L 76.646405 80.677097 
L 78.432 81.009679 
L 79.622405 81.440725 
L 80.812809 82.152018 
L 81.408 82.665728 
L 82.003191 83.32657 
L 82.598405 84.177582 
L 83.193595 85.273722 
L 83.788809 86.684318 
L 84.384 88.493753 
L 84.979191 90.799461 
L 85.574405 93.701396 
L 86.764786 101.506739 
L 87.955191 110.848626 
L 88.550405 114.542442 
L 89.145595 116.182588 
L 89.740786 114.984803 
L 90.336 111.014687 
L 92.716809 87.427646 
L 93.312023 83.2328 
L 93.907214 79.98764 
L 94.502405 77.518852 
L 95.097618 75.631086 
L 96.288 72.899795 
L 98.668809 68.285421 
L 99.859214 65.357607 
L 102.835214 57.010802 
L 103.430405 56.064222 
L 104.025595 55.730762 
L 104.620809 56.093425 
L 105.216 57.131155 
L 105.811191 58.718803 
L 108.787191 68.140518 
L 109.382405 69.361992 
L 109.977595 70.252483 
L 110.572786 70.824477 
L 111.168 71.098711 
L 111.763191 71.096366 
L 112.358405 70.834654 
L 112.953595 70.324749 
L 113.548786 69.571827 
L 114.144 68.576849 
L 115.334405 65.86898 
L 116.524809 62.326732 
L 118.310405 56.826712 
L 118.905618 55.602198 
L 119.500786 55.019156 
L 120.095977 55.209225 
L 120.691191 56.186379 
L 121.286382 57.833562 
L 124.262405 68.369424 
L 124.857595 69.787456 
L 125.452809 70.845017 
L 126.048 71.559209 
L 126.643214 71.957439 
L 127.238405 72.067603 
L 127.833595 71.912517 
L 128.428809 71.507084 
L 129.024 70.857792 
L 129.619191 69.963651 
L 130.214405 68.818979 
L 131.404809 65.762174 
L 132.595191 61.795109 
L 133.785595 57.552864 
L 134.380786 55.770299 
L 134.976 54.543314 
L 135.571191 54.102106 
L 136.166405 54.575784 
L 136.761595 55.937189 
L 137.356786 58.003299 
L 139.737595 67.808284 
L 140.332786 69.638587 
L 140.928 71.068049 
L 141.523191 72.110372 
L 142.118382 72.798727 
L 142.713595 73.171494 
L 143.308786 73.263322 
L 143.903977 73.10033 
L 144.499191 72.69797 
L 145.094382 72.060949 
L 145.689595 71.184078 
L 146.284786 70.054843 
L 147.475191 66.977056 
L 148.665595 62.795991 
L 150.451214 55.725398 
L 151.046405 53.980267 
L 151.641595 53.042617 
L 152.236809 53.144587 
L 152.832 54.341287 
L 153.427191 56.475275 
L 156.403191 69.99072 
L 156.998405 71.742252 
L 157.593595 73.05646 
L 158.188786 73.978304 
L 158.784 74.560824 
L 159.379191 74.853398 
L 159.974405 74.895579 
L 160.569595 74.714402 
L 161.164786 74.323804 
L 161.76 73.725026 
L 162.355191 72.907915 
L 162.950382 71.852156 
L 163.545595 70.529848 
L 164.140786 68.909772 
L 165.331191 64.682984 
L 168.307191 52.067026 
L 168.902382 51.314993 
L 169.497595 51.911755 
L 170.092786 53.833759 
L 171.283191 60.266603 
L 172.473595 67.154793 
L 173.664 72.309988 
L 174.259214 74.094849 
L 174.854405 75.414869 
L 175.449595 76.345993 
L 176.044809 76.963025 
L 176.64 77.33036 
L 177.235191 77.498488 
L 177.830405 77.503284 
L 178.425595 77.367028 
L 179.020809 77.099747 
L 179.616 76.700503 
L 180.211191 76.158252 
L 180.806405 75.452149 
L 181.401595 74.551705 
L 181.996786 73.416626 
L 182.592 71.997105 
L 183.187191 70.236374 
L 183.782405 68.076018 
L 184.972786 62.408233 
L 186.758382 51.962409 
L 187.353595 49.409308 
L 187.948786 48.332823 
L 188.544 49.160086 
L 189.139191 51.854664 
L 190.329595 60.582779 
L 191.519977 69.345616 
L 192.115191 72.792957 
L 192.710382 75.527204 
L 193.305595 77.624504 
L 193.900786 79.203039 
L 194.495977 80.388417 
L 195.686405 82.022316 
L 198.067214 84.531865 
L 199.257595 86.273686 
L 199.852809 87.428691 
L 200.448 88.839779 
L 201.043191 90.560016 
L 202.233618 95.11134 
L 203.424 101.144508 
L 204.614382 107.458419 
L 205.209618 109.734474 
L 205.804809 110.718591 
L 206.4 110.055721 
L 206.995236 107.761145 
L 208.185618 100.092322 
L 209.376 92.108078 
L 209.971191 88.889751 
L 210.566382 86.309895 
L 211.161573 84.323256 
L 211.756809 82.838237 
L 212.352 81.750861 
L 212.947191 80.962335 
L 214.137573 79.960428 
L 215.923191 79.074783 
L 217.708809 78.136689 
L 218.899191 77.160863 
L 219.494382 76.485396 
L 220.089573 75.635256 
L 220.684764 74.562552 
L 221.28 73.208832 
L 221.875191 71.505253 
L 222.470382 69.375086 
L 223.065573 66.743639 
L 224.256 59.846678 
L 226.041618 48.340352 
L 226.636809 46.516218 
L 227.232 46.912816 
L 227.827191 49.654632 
L 228.422382 54.194536 
L 230.208 69.864981 
L 230.803236 73.886185 
L 231.398427 77.06528 
L 231.993618 79.506429 
L 232.588809 81.361753 
L 233.779191 83.929135 
L 236.755191 88.86996 
L 237.945573 91.749797 
L 239.136 95.643988 
L 241.516809 105.150711 
L 242.112 106.805625 
L 242.707191 107.572308 
L 243.302382 107.238902 
L 243.897573 105.792651 
L 244.492764 103.43913 
L 246.873573 91.907243 
L 247.468764 89.756217 
L 248.064 88.069742 
L 248.659191 86.819406 
L 249.254382 85.95385 
L 249.849618 85.417141 
L 250.444809 85.159334 
L 251.04 85.14143 
L 251.635191 85.337575 
L 252.230382 85.735228 
L 252.825618 86.334559 
L 253.420809 87.14728 
L 254.016 88.195208 
L 254.611236 89.508529 
L 255.206427 91.121254 
L 256.396809 95.356547 
L 257.587191 100.841401 
L 258.777573 106.436955 
L 259.372809 108.439584 
L 259.968 109.339557 
L 260.563191 108.847827 
L 261.158382 106.960306 
L 261.753573 103.979275 
L 264.134427 90.286729 
L 264.729618 87.879136 
L 265.324809 86.012882 
L 265.92 84.625253 
L 266.515191 83.635462 
L 267.110382 82.96361 
L 267.705573 82.540325 
L 268.300764 82.310537 
L 268.896 82.233955 
L 269.491191 82.283809 
L 270.681573 82.713682 
L 271.872 83.599538 
L 272.467191 84.252415 
L 273.062382 85.083811 
L 273.657618 86.134669 
L 274.252809 87.455839 
L 274.848 89.107621 
L 275.443191 91.156341 
L 276.038382 93.664393 
L 277.228809 100.143535 
L 279.014427 110.841497 
L 279.609618 112.642537 
L 280.204809 112.490432 
L 280.8 110.224562 
L 281.395191 106.257469 
L 283.180809 91.766771 
L 283.776 87.894751 
L 284.371191 84.796136 
L 284.966382 82.402927 
L 285.561573 80.588711 
L 286.156809 79.213535 
L 287.347191 77.276218 
L 289.728 74.113141 
L 290.918382 71.880731 
L 292.108764 68.678592 
L 293.299191 64.20412 
L 295.68 53.230725 
L 296.275191 51.543358 
L 296.870382 51.065016 
L 297.465618 52.004057 
L 298.060809 54.263551 
L 299.251191 61.11857 
L 300.441618 68.038961 
L 301.036809 70.818015 
L 301.632 73.042123 
L 302.227236 74.743201 
L 302.822427 75.991287 
L 303.417618 76.867518 
L 304.012809 77.448292 
L 304.608 77.798054 
L 305.203191 77.96654 
L 305.798382 77.989028 
L 306.393573 77.887685 
L 307.584 77.346097 
L 308.774382 76.310546 
L 309.369573 75.557958 
L 309.964809 74.604018 
L 310.56 73.402734 
L 311.155191 71.898308 
L 311.750427 70.027548 
L 312.345618 67.72671 
L 313.536 61.682927 
L 315.321573 50.805936 
L 315.916764 48.394688 
L 316.512 47.693746 
L 317.107191 49.073992 
L 317.702382 52.359337 
L 320.083191 70.785169 
L 320.678382 74.175037 
L 321.273618 76.829309 
L 321.868809 78.853024 
L 322.464 80.381018 
L 323.654382 82.470824 
L 326.630427 86.387421 
L 327.820809 88.742482 
L 329.011191 92.146981 
L 330.201573 96.884976 
L 332.582382 107.947039 
L 333.177573 109.350766 
L 333.772809 109.412652 
L 334.368 108.003511 
L 334.963191 105.323562 
L 337.344 91.185166 
L 337.939191 88.526086 
L 338.534382 86.432071 
L 339.129573 84.850332 
L 339.724764 83.700568 
L 340.32 82.89751 
L 340.915191 82.364658 
L 341.510382 82.039016 
L 342.105573 81.8726 
L 343.296 81.894013 
L 344.486382 82.294088 
L 345.676809 83.085179 
L 346.272 83.665409 
L 346.867191 84.405076 
L 347.462382 85.342768 
L 348.057618 86.527418 
L 348.652809 88.01847 
L 349.248 89.88488 
L 349.843236 92.19892 
L 351.033618 98.371955 
L 352.819191 109.887578 
L 353.414382 112.57166 
L 354.009573 113.457565 
L 354.604809 112.096217 
L 355.2 108.650124 
L 357.580809 89.089976 
L 358.176 85.519273 
L 358.771191 82.73027 
L 359.366427 80.602323 
L 359.961618 78.98675 
L 361.152 76.726289 
L 363.532764 73.181876 
L 364.723191 70.774087 
L 365.913573 67.410992 
L 367.104 62.894861 
L 368.889618 55.117962 
L 369.484809 53.16641 
L 370.08 52.120023 
L 370.675191 52.256149 
L 371.270382 53.63773 
L 371.865618 56.070337 
L 374.246427 68.560966 
L 374.841618 70.924094 
L 375.436809 72.785988 
L 376.032 74.181719 
L 376.627191 75.171919 
L 377.222382 75.822715 
L 377.817573 76.194211 
L 378.412809 76.334335 
L 379.008 76.277225 
L 379.603191 76.043066 
L 380.198382 75.638896 
L 380.793573 75.059735 
L 381.388809 74.289255 
L 381.984 73.300784 
L 382.579191 72.058473 
L 383.174427 70.51907 
L 383.769618 68.637017 
L 384.96 63.716286 
L 387.340764 51.663285 
L 387.936 50.042433 
L 388.531191 49.914346 
L 389.126382 51.447366 
L 389.721573 54.414518 
L 392.102382 69.895288 
L 392.697618 72.747044 
L 393.292809 74.983238 
L 393.888 76.675773 
L 394.483191 77.923242 
L 395.078382 78.826205 
L 395.673618 79.474283 
L 396.864 80.287011 
L 398.649618 80.991837 
L 400.435191 81.731007 
L 401.625573 82.502027 
L 402.816 83.714533 
L 403.411191 84.572284 
L 404.006382 85.661234 
L 404.601573 87.043162 
L 405.196809 88.791916 
L 405.792 90.989902 
L 406.387191 93.718153 
L 407.577618 100.911322 
L 408.768 109.394677 
L 409.363191 112.821477 
L 409.958382 114.542399 
L 410.553618 113.856148 
L 411.148809 110.70577 
L 412.339191 100.024885 
L 413.529618 89.473874 
L 414.124809 85.421659 
L 414.72 82.243309 
L 414.72 82.243309 
" clip-path="url(#p94351c6d64)" style="fill: none; stroke: #0000cc; stroke-width: 1.5; stroke-linecap: square"/>
   </g>
   <g id="line2d_14">
    <path d="M 57.6 85.957849 
L 58.195191 86.829932 
L 58.790405 87.939552 
L 59.385595 89.323319 
L 59.980809 91.02244 
L 61.171191 95.503702 
L 62.361595 101.34304 
L 63.552 107.268123 
L 64.147191 109.312987 
L 64.742405 110.108172 
L 65.337595 109.357856 
L 65.932809 107.106812 
L 67.123191 99.817658 
L 68.313595 92.280652 
L 68.908809 89.238247 
L 69.504 86.797435 
L 70.099191 84.920843 
L 70.694405 83.526516 
L 71.289595 82.520721 
L 71.884809 81.814351 
L 72.48 81.331342 
L 73.670405 80.807141 
L 74.860809 80.625715 
L 76.646405 80.677339 
L 78.432 81.010173 
L 79.622405 81.441432 
L 80.812809 82.153157 
L 81.408 82.667139 
L 82.003191 83.327999 
L 82.598405 84.179152 
L 83.193595 85.275536 
L 83.788809 86.686531 
L 84.384 88.496327 
L 84.979191 90.802591 
L 85.574405 93.705218 
L 86.764809 101.511475 
L 87.955191 110.85208 
L 88.550405 114.543911 
L 89.145595 116.181191 
L 89.740809 114.980413 
L 90.336 111.008422 
L 92.716809 87.424388 
L 93.312 83.231015 
L 93.907191 79.985205 
L 94.502405 77.516921 
L 95.097595 75.629599 
L 96.288 72.898764 
L 98.668809 68.284713 
L 99.859191 65.35719 
L 102.835191 57.011148 
L 103.430405 56.064691 
L 104.025595 55.731444 
L 104.620809 56.094207 
L 105.216 57.131978 
L 105.811191 58.71808 
L 108.787191 68.141834 
L 109.382405 69.363481 
L 109.977595 70.254005 
L 110.572809 70.826105 
L 111.168 71.100326 
L 111.763191 71.09799 
L 112.358405 70.836246 
L 112.953595 70.326355 
L 113.548809 69.573453 
L 114.144 68.578431 
L 115.334405 65.870484 
L 116.524809 62.327824 
L 118.310405 56.825771 
L 118.905595 55.600894 
L 119.500809 55.017666 
L 120.096 55.207757 
L 120.691191 56.185094 
L 121.286405 57.832859 
L 124.262405 68.370877 
L 124.857595 69.789119 
L 125.452809 70.846815 
L 126.048 71.56111 
L 126.643191 71.959419 
L 127.238405 72.069697 
L 127.833595 71.914649 
L 128.428809 71.509325 
L 129.024 70.860106 
L 129.619191 69.966536 
L 130.214405 68.821515 
L 131.404809 65.764271 
L 132.595191 61.796647 
L 133.785595 57.553462 
L 134.380809 55.770137 
L 134.976 54.542431 
L 135.571191 54.100591 
L 136.166405 54.573776 
L 136.761595 55.934912 
L 137.356809 58.001243 
L 139.737595 67.808212 
L 140.332809 69.639006 
L 140.928 71.068887 
L 141.523191 72.112432 
L 142.118405 72.801132 
L 142.713595 73.17406 
L 143.308809 73.266207 
L 143.904 73.103497 
L 144.499191 72.701479 
L 145.094405 72.064904 
L 145.689595 71.188438 
L 146.284809 70.059645 
L 147.475191 66.982916 
L 148.665595 62.802417 
L 150.451191 55.729346 
L 151.046405 53.98188 
L 151.641595 53.041421 
L 152.236809 53.140511 
L 152.832 54.334943 
L 153.427191 56.467512 
L 156.403191 69.98866 
L 156.998405 71.741811 
L 157.593595 73.057253 
L 158.188809 73.980364 
L 158.784 74.56387 
L 159.379191 74.857314 
L 159.974405 74.90041 
L 160.569595 74.720189 
L 161.164809 74.33051 
L 161.76 73.732881 
L 162.355191 72.91704 
L 162.950405 71.862656 
L 163.545595 70.542033 
L 164.140809 68.923603 
L 165.331191 64.698307 
L 168.307191 52.071908 
L 168.902405 51.311684 
L 169.497595 51.900078 
L 170.092809 53.81553 
L 171.283191 60.244263 
L 172.473595 67.138166 
L 173.664 72.301203 
L 174.259191 74.089589 
L 174.854405 75.412618 
L 175.449595 76.346252 
L 176.044809 76.965371 
L 176.64 77.334484 
L 177.235191 77.504546 
L 177.830405 77.510967 
L 178.425595 77.376461 
L 179.020809 77.111081 
L 179.616 76.714147 
L 180.211191 76.174646 
L 180.806405 75.471831 
L 181.401595 74.575434 
L 181.996809 73.44526 
L 182.592 72.031594 
L 183.187191 70.277896 
L 183.782405 68.12523 
L 184.972809 62.472653 
L 186.758405 52.016633 
L 187.353595 49.438994 
L 187.948809 48.327569 
L 188.544 49.117581 
L 189.139191 51.782568 
L 190.329595 60.492677 
L 191.52 69.278347 
L 192.115191 72.741043 
L 192.710405 75.48958 
L 193.305595 77.598734 
L 193.900809 79.186763 
L 194.496 80.379133 
L 195.686405 82.021748 
L 198.067191 84.536925 
L 199.257595 86.279098 
L 199.852809 87.433823 
L 200.448 88.844395 
L 201.043191 90.563067 
L 202.233618 95.111842 
L 203.424 101.139631 
L 204.614382 107.446697 
L 205.209618 109.720725 
L 205.804809 110.704868 
L 206.4 110.044774 
L 206.995191 107.755323 
L 208.185618 100.098276 
L 209.376 92.121606 
L 209.971191 88.905542 
L 210.566382 86.326943 
L 211.161618 84.341095 
L 211.756809 82.85697 
L 212.352 81.770325 
L 212.947191 80.984413 
L 214.137618 79.986343 
L 215.923191 79.112165 
L 217.708809 78.1976 
L 218.899191 77.249315 
L 219.494382 76.593144 
L 220.089618 75.767082 
L 220.684809 74.724478 
L 221.28 73.407985 
L 221.875191 71.749417 
L 222.470382 69.672386 
L 223.065618 67.100249 
L 224.256 60.312615 
L 226.041618 48.630897 
L 226.636809 46.570894 
L 227.232 46.684832 
L 227.827191 49.179372 
L 228.422382 53.574063 
L 230.208 69.376425 
L 230.803191 73.510602 
L 231.398382 76.793457 
L 231.993618 79.320204 
L 232.588809 81.240706 
L 233.184 82.714704 
L 234.374382 84.880861 
L 236.16 87.71781 
L 237.350382 90.159938 
L 238.540809 93.489095 
L 239.731191 97.843656 
L 241.516809 104.991996 
L 242.112 106.668482 
L 242.707191 107.480177 
L 243.302382 107.210504 
L 243.897618 105.835113 
L 244.492809 103.546018 
L 246.873618 92.096767 
L 247.468809 89.934583 
L 248.064 88.233777 
L 248.659191 86.965861 
L 249.254382 86.088029 
L 249.849618 85.541723 
L 250.444809 85.27727 
L 251.04 85.255856 
L 251.635191 85.451343 
L 252.230382 85.851259 
L 252.825618 86.455253 
L 253.420809 87.274799 
L 254.016 88.331584 
L 254.611191 89.654715 
L 255.206382 91.277562 
L 256.396809 95.525989 
L 257.587191 100.989278 
L 258.777618 106.489272 
L 259.372809 108.413434 
L 259.968 109.228376 
L 260.563191 108.663215 
L 261.158382 106.733304 
L 261.753618 103.747536 
L 263.539191 93.153737 
L 264.729618 87.889129 
L 265.324809 86.065161 
L 265.92 84.712886 
L 266.515191 83.753211 
L 267.110382 83.108302 
L 267.705618 82.711038 
L 268.300809 82.508331 
L 268.896 82.461927 
L 269.491191 82.547117 
L 270.681618 83.071467 
L 271.276809 83.515923 
L 271.872 84.100917 
L 272.467191 84.851394 
L 273.062382 85.803797 
L 273.657618 87.002889 
L 274.252809 88.503211 
L 274.848 90.366773 
L 275.443191 92.655718 
L 276.633618 98.654079 
L 278.419191 109.408198 
L 279.014382 111.790155 
L 279.609618 112.490547 
L 280.204809 111.14488 
L 280.8 107.921463 
L 283.776 86.352574 
L 284.371191 83.714719 
L 284.966382 81.702383 
L 285.561618 80.184654 
L 286.156809 79.030363 
L 287.347191 77.361749 
L 289.132809 75.227395 
L 290.323191 73.359858 
L 290.918382 72.143314 
L 291.513618 70.672384 
L 292.704 66.784421 
L 293.894382 61.505501 
L 295.68 52.823475 
L 296.275191 51.031155 
L 296.870382 50.52311 
L 297.465618 51.530895 
L 298.060809 53.946521 
L 299.251191 61.215599 
L 300.441618 68.458795 
L 301.036809 71.340256 
L 301.632 73.636746 
L 302.227191 75.391333 
L 302.822382 76.684412 
L 303.417618 77.605763 
L 304.012809 78.238916 
L 304.608 78.654277 
L 305.203191 78.906993 
L 306.393618 79.074956 
L 307.584 78.931333 
L 308.774382 78.528044 
L 309.964809 77.80851 
L 311.155191 76.626473 
L 311.750382 75.783457 
L 312.345618 74.711424 
L 312.940809 73.350724 
L 313.536 71.62931 
L 314.131191 69.466141 
L 314.726382 66.78099 
L 315.916809 59.691987 
L 317.702382 47.795866 
L 318.297618 45.96054 
L 318.892809 46.477837 
L 319.488 49.452153 
L 320.678382 59.927008 
L 321.868809 70.482839 
L 322.464 74.570582 
L 323.059191 77.786305 
L 323.654382 80.249829 
L 324.249618 82.124819 
L 325.44 84.749964 
L 328.416 90.048929 
L 329.606382 93.129017 
L 330.796809 97.137734 
L 332.582382 103.905444 
L 333.177618 105.646056 
L 333.772809 106.677357 
L 334.368 106.772107 
L 334.963191 105.848407 
L 335.558382 104.013219 
L 336.748809 98.738381 
L 337.939191 93.391181 
L 338.534382 91.205409 
L 339.129618 89.444538 
L 339.724809 88.107197 
L 340.32 87.160046 
L 340.915191 86.558167 
L 341.510382 86.256813 
L 342.105618 86.219288 
L 342.700809 86.419731 
L 343.296 86.84467 
L 343.891191 87.491386 
L 344.486382 88.37154 
L 345.081618 89.501904 
L 345.676809 90.905121 
L 346.867191 94.614392 
L 348.057618 99.470606 
L 349.248 104.65952 
L 349.843191 106.745947 
L 350.438382 108.015629 
L 351.033618 108.161914 
L 351.628809 107.066513 
L 352.224 104.865484 
L 353.414382 98.611397 
L 354.604809 92.447157 
L 355.2 89.9832 
L 355.795191 88.017424 
L 356.390382 86.526984 
L 356.985618 85.455698 
L 357.580809 84.738661 
L 358.176 84.314533 
L 358.771191 84.132941 
L 359.366382 84.157286 
L 359.961618 84.364788 
L 360.556809 84.746017 
L 361.152 85.303917 
L 361.747191 86.052986 
L 362.342382 87.017906 
L 362.937618 88.233343 
L 363.532809 89.740599 
L 364.128 91.584256 
L 365.318382 96.410423 
L 367.699191 108.383684 
L 368.294382 110.088039 
L 368.889618 110.35126 
L 369.484809 108.978042 
L 370.08 106.157979 
L 373.056 87.948437 
L 373.651191 85.678284 
L 374.246382 83.955457 
L 374.841618 82.684949 
L 375.436809 81.768169 
L 376.032 81.115525 
L 377.222382 80.32233 
L 378.412809 79.887388 
L 381.388809 79.012968 
L 382.579191 78.417621 
L 383.769618 77.472333 
L 384.364809 76.798914 
L 384.96 75.939129 
L 385.555191 74.84051 
L 386.150382 73.437419 
L 386.745618 71.651024 
L 387.340809 69.392168 
L 387.936 66.571278 
L 389.126382 59.074178 
L 390.316809 50.203229 
L 390.912 46.68015 
L 391.507191 45.029647 
L 392.102382 45.994118 
L 392.697618 49.558961 
L 393.888 61.003917 
L 395.078382 71.892132 
L 395.673618 75.996417 
L 396.268809 79.192122 
L 396.864 81.629878 
L 397.459191 83.490838 
L 398.649618 86.153507 
L 401.030382 90.563173 
L 402.220809 93.455161 
L 403.411191 97.104358 
L 405.196809 103.075943 
L 405.792 104.598611 
L 406.387191 105.524299 
L 406.982382 105.671229 
L 407.577618 104.966973 
L 408.172809 103.483061 
L 409.363191 99.037452 
L 410.553618 94.326662 
L 411.744 90.718723 
L 412.339191 89.472952 
L 412.934382 88.590533 
L 413.529618 88.042256 
L 414.124809 87.795664 
L 414.72 87.822633 
L 414.72 87.822633 
" clip-path="url(#p94351c6d64)" style="fill: none; stroke-dasharray: 5.55,2.4; stroke-dashoffset: 0; stroke: #ff0000; stroke-width: 1.5"/>
   </g>
   <g id="patch_3">
    <path d="M 57.6 119.740235 
L 57.6 41.472 
" style="fill: none; stroke: #000000; stroke-width: 0.8; stroke-linejoin: miter; stroke-linecap: square"/>
   </g>
   <g id="patch_4">
    <path d="M 414.72 119.740235 
L 414.72 41.472 
" style="fill: none; stroke: #000000; stroke-width: 0.8; stroke-linejoin: miter; stroke-linecap: square"/>
   </g>
   <g id="patch_5">
    <path d="M 57.6 119.740235 
L 414.72 119.740235 
" style="fill: none; stroke: #000000; stroke-width: 0.8; stroke-linejoin: miter; stroke-linecap: square"/>
   </g>
   <g id="patch_6">
    <path d="M 57.6 41.472 
L 414.72 41.472 
" style="fill: none; stroke: #000000; stroke-width: 0.8; stroke-linejoin: miter; stroke-linecap: square"/>
   </g>
  </g>
  <g id="axes_2">
   <g id="patch_7">
    <path d="M 57.6 213.662118 
L 414.72 213.662118 
L 414.72 135.393882 
L 57.6 135.393882 
z
" style="fill: #ffffff"/>
   </g>
   <g id="matplotlib.axis_3">
    <g id="xtick_10">
     <g id="line2d_15">
      <g>
       <use xlink:href="#m99b08457a8" x="57.6" y="213.662118" style="stroke: #000000; stroke-width: 0.8"/>
      </g>
     </g>
    </g>
    <g id="xtick_11">
     <g id="line2d_16">
      <g>
       <use xlink:href="#m99b08457a8" x="105.216" y="213.662118" style="stroke: #000000; stroke-width: 0.8"/>
      </g>
     </g>
    </g>
    <g id="xtick_12">
     <g id="line2d_17">
      <g>
       <use xlink:href="#m99b08457a8" x="152.832" y="213.662118" style="stroke: #000000; stroke-width: 0.8"/>
      </g>
     </g>
    </g>
    <g id="xtick_13">
     <g id="line2d_18">
      <g>
       <use xlink:href="#m99b08457a8" x="200.448" y="213.662118" style="stroke: #000000; stroke-width: 0.8"/>
      </g>
     </g>
    </g>
    <g id="xtick_14">
     <g id="line2d_19">
      <g>
       <use xlink:href="#m99b08457a8" x="248.064" y="213.662118" style="stroke: #000000; stroke-width: 0.8"/>
      </g>
     </g>
    </g>
    <g id="xtick_15">
     <g id="line2d_20">
      <g>
       <use xlink:href="#m99b08457a8" x="295.68" y="213.662118" style="stroke: #000000; stroke-width: 0.8"/>
      </g>
     </g>
    </g>
    <g id="xtick_16">
     <g id="line2d_21">
      <g>
       <use xlink:href="#m99b08457a8" x="343.296" y="213.662118" style="stroke: #000000; stroke-width: 0.8"/>
      </g>
     </g>
    </g>
    <g id="xtick_17">
     <g id="line2d_22">
      <g>
       <use xlink:href="#m99b08457a8" x="390.912" y="213.662118" style="stroke: #000000; stroke-width: 0.8"/>
      </g>
     </g>
    </g>
    <g id="xtick_18">
     <g id="line2d_23">
      <g>
       <use xlink:href="#m99b08457a8" x="414.72" y="213.662118" style="stroke: #000000; stroke-width: 0.8"/>
      </g>
     </g>
    </g>
   </g>
   <g id="matplotlib.axis_4">
    <g id="ytick_4">
     <g id="line2d_24">
      <g>
       <use xlink:href="#mc559c47206" x="57.6" y="204.502628" style="stroke: #000000; stroke-width: 0.8"/>
      </g>
     </g>
     <g id="text_4">
      <!-- −20 -->
      <g transform="translate(29.495313 208.301847)scale(0.1 -0.1)">
       <defs>
        <path id="DejaVuSans-32" d="M 1228 531 
L 3431 531 
L 3431 0 
L 469 0 
L 469 531 
Q 828 903 1448 1529 
Q 2069 2156 2228 2338 
Q 2531 2678 2651 2914 
Q 2772 3150 2772 3378 
Q 2772 3750 2511 3984 
Q 2250 4219 1831 4219 
Q 1534 4219 1204 4116 
Q 875 4013 500 3803 
L 500 4441 
Q 881 4594 1212 4672 
Q 1544 4750 1819 4750 
Q 2544 4750 2975 4387 
Q 3406 4025 3406 3419 
Q 3406 3131 3298 2873 
Q 3191 2616 2906 2266 
Q 2828 2175 2409 1742 
Q 1991 1309 1228 531 
z
" transform="scale(0.015625)"/>
       </defs>
       <use xlink:href="#DejaVuSans-2212"/>
       <use xlink:href="#DejaVuSans-32" x="83.789062"/>
       <use xlink:href="#DejaVuSans-30" x="147.412109"/>
      </g>
     </g>
    </g>
    <g id="ytick_5">
     <g id="line2d_25">
      <g>
       <use xlink:href="#mc559c47206" x="57.6" y="173.925929" style="stroke: #000000; stroke-width: 0.8"/>
      </g>
     </g>
     <g id="text_5">
      <!-- 0 -->
      <g transform="translate(44.2375 177.725147)scale(0.1 -0.1)">
       <use xlink:href="#DejaVuSans-30"/>
      </g>
     </g>
    </g>
    <g id="ytick_6">
     <g id="line2d_26">
      <g>
       <use xlink:href="#mc559c47206" x="57.6" y="143.349229" style="stroke: #000000; stroke-width: 0.8"/>
      </g>
     </g>
     <g id="text_6">
      <!-- 20 -->
      <g transform="translate(37.875 147.148448)scale(0.1 -0.1)">
       <use xlink:href="#DejaVuSans-32"/>
       <use xlink:href="#DejaVuSans-30" x="63.623047"/>
      </g>
     </g>
    </g>
   </g>
   <g id="line2d_27">
    <path d="M 57.6 180.581116 
L 58.195191 181.904459 
L 58.790405 183.506249 
L 59.980809 187.723949 
L 61.171191 193.339492 
L 62.361595 199.276554 
L 62.956786 201.33313 
L 63.552 201.889103 
L 64.147191 200.346619 
L 64.742405 196.594746 
L 66.528 180.398223 
L 67.123214 176.633717 
L 67.718405 174.255762 
L 68.313618 172.997001 
L 68.908809 172.49825 
L 69.504023 172.447469 
L 70.694405 172.885314 
L 72.48 173.616014 
L 74.265618 174.049768 
L 77.241595 174.645895 
L 78.432 175.054113 
L 79.622405 175.706707 
L 80.812809 176.77694 
L 81.408 177.552124 
L 82.003191 178.551721 
L 82.598405 179.840831 
L 83.193595 181.500468 
L 83.788809 183.6282 
L 84.384 186.332489 
L 84.979191 189.715593 
L 86.169595 198.585403 
L 87.36 207.935593 
L 87.955191 210.104471 
L 88.550405 208.360944 
L 89.145595 201.910738 
L 90.931214 173.692428 
L 91.526405 168.641735 
L 92.121618 166.128577 
L 92.716809 165.213711 
L 93.312023 165.103341 
L 94.502405 165.468866 
L 95.097618 165.511782 
L 95.692809 165.346959 
L 96.288 164.949065 
L 96.883214 164.311956 
L 97.478405 163.438396 
L 98.668809 161.023818 
L 100.454405 156.267382 
L 101.644809 153.507521 
L 102.24 152.814069 
L 102.835214 152.866601 
L 103.430405 153.791699 
L 104.025595 155.558075 
L 105.216 160.622541 
L 106.406405 165.401342 
L 107.001595 167.071962 
L 107.596809 168.191126 
L 108.192 168.818322 
L 108.787191 169.046325 
L 109.382405 168.966812 
L 109.977595 168.652896 
L 110.572786 168.153918 
L 111.763191 166.691212 
L 112.953595 164.613005 
L 114.144 161.84018 
L 115.334405 158.392779 
L 116.524809 154.727301 
L 117.120023 153.183232 
L 117.715214 152.150786 
L 118.310405 151.897856 
L 118.905618 152.624686 
L 119.500786 154.364296 
L 120.691191 159.913328 
L 121.881595 165.4576 
L 122.476786 167.434302 
L 123.071977 168.772529 
L 123.667191 169.541776 
L 124.262405 169.856932 
L 124.857595 169.832833 
L 125.452809 169.561174 
L 126.048 169.104061 
L 127.238405 167.749592 
L 128.428809 165.816185 
L 129.619191 163.177993 
L 130.809595 159.722449 
L 133.190405 151.987223 
L 133.785595 150.960985 
L 134.380786 150.902026 
L 134.976 152.029301 
L 135.571191 154.325729 
L 137.952 166.941817 
L 138.547191 168.880445 
L 139.142382 170.097785 
L 139.737595 170.722217 
L 140.332786 170.906092 
L 140.928 170.781698 
L 141.523191 170.445016 
L 142.713595 169.341359 
L 143.903977 167.748124 
L 145.094382 165.547828 
L 146.284786 162.516453 
L 147.475191 158.507774 
L 149.260809 151.677635 
L 149.856 150.044382 
L 150.451214 149.368789 
L 151.046405 150.028091 
L 151.641595 152.170666 
L 152.236809 155.566596 
L 154.022405 167.011296 
L 154.617595 169.488775 
L 155.212809 171.069517 
L 155.808 171.913241 
L 156.403191 172.223098 
L 156.998405 172.178507 
L 157.593595 171.910772 
L 158.784 170.997712 
L 159.974405 169.735705 
L 161.164786 168.038044 
L 162.355191 165.65251 
L 163.545595 162.256248 
L 164.736 157.622212 
L 166.521595 149.598569 
L 167.116786 147.808716 
L 167.711977 147.341695 
L 168.307191 148.679291 
L 168.902382 151.908832 
L 171.283191 169.796963 
L 171.878405 172.143338 
L 172.473595 173.462747 
L 173.068809 174.0414 
L 173.664 174.149303 
L 174.259214 173.989848 
L 175.449595 173.341599 
L 177.830405 171.711925 
L 179.020809 170.613898 
L 180.211191 169.03932 
L 180.806405 167.973644 
L 181.401595 166.655059 
L 181.996786 165.023976 
L 182.592 163.016603 
L 183.782405 157.665158 
L 186.163191 144.446956 
L 186.758382 143.426831 
L 187.353595 145.010563 
L 187.948786 149.47416 
L 189.734382 169.180761 
L 190.329595 173.469813 
L 190.924786 176.011217 
L 191.519977 177.24175 
L 192.115191 177.657319 
L 192.710382 177.649687 
L 194.495977 177.185248 
L 195.091191 177.186712 
L 195.686405 177.319552 
L 196.281595 177.594546 
L 196.876809 178.022096 
L 197.472 178.616795 
L 198.067214 179.4003 
L 198.662405 180.402518 
L 199.257595 181.661821 
L 199.852809 183.223836 
L 200.448 185.136451 
L 201.638382 190.149219 
L 204.019191 201.9072 
L 204.614382 202.730987 
L 205.209618 201.32975 
L 205.804809 197.497763 
L 207.590427 180.173935 
L 208.185618 176.130224 
L 208.780809 173.599963 
L 209.376 172.278927 
L 209.971191 171.76402 
L 210.566382 171.710597 
L 211.756809 172.113121 
L 212.947191 172.508526 
L 214.137573 172.641692 
L 215.328 172.486859 
L 216.518427 172.033656 
L 217.708809 171.210429 
L 218.304 170.612022 
L 218.899191 169.848296 
L 219.494382 168.876936 
L 220.089573 167.644186 
L 220.684764 166.084429 
L 221.28 164.120924 
L 221.875191 161.672178 
L 222.470382 158.667297 
L 223.660764 151.006995 
L 224.851191 143.031376 
L 225.446382 140.92569 
L 226.041618 141.735698 
L 226.636809 146.212371 
L 229.017618 175.12287 
L 229.612809 178.162299 
L 230.208 179.566579 
L 230.803236 180.003142 
L 231.398427 179.978087 
L 232.588809 179.685649 
L 233.184 179.69405 
L 233.779191 179.883002 
L 234.374382 180.27504 
L 234.969573 180.884049 
L 235.564809 181.723307 
L 236.16 182.8086 
L 236.755191 184.157792 
L 237.945573 187.697644 
L 240.921618 198.277251 
L 241.516809 198.735156 
L 242.112 197.760297 
L 242.707191 195.263255 
L 243.897573 187.338077 
L 245.088 180.044807 
L 245.683191 177.724088 
L 246.278382 176.3007 
L 246.873573 175.586134 
L 247.468764 175.368715 
L 248.064 175.472141 
L 249.254382 176.194282 
L 250.444809 177.281132 
L 251.635191 178.710759 
L 252.825618 180.681019 
L 254.016 183.502107 
L 255.206427 187.506509 
L 256.396809 192.770159 
L 257.587191 198.318272 
L 258.182382 200.293273 
L 258.777573 200.956663 
L 259.372809 199.768057 
L 259.968 196.57611 
L 262.348809 177.944698 
L 262.944 175.460788 
L 263.539191 174.062 
L 264.134427 173.443547 
L 264.729618 173.316376 
L 265.324809 173.462712 
L 267.110382 174.410182 
L 269.491191 175.83837 
L 270.681573 176.8111 
L 271.872 178.236287 
L 272.467191 179.213418 
L 273.062382 180.433002 
L 273.657618 181.956018 
L 274.252809 183.850915 
L 274.848 186.187966 
L 276.038382 192.370595 
L 277.824 203.414444 
L 278.419236 205.382688 
L 279.014427 204.823865 
L 279.609618 201.067871 
L 280.8 186.827942 
L 281.395191 179.800312 
L 281.990382 174.614918 
L 282.585573 171.441392 
L 283.180809 169.847029 
L 283.776 169.256524 
L 284.371191 169.194724 
L 286.156809 169.591037 
L 286.752 169.537459 
L 287.347191 169.322384 
L 287.942427 168.930979 
L 288.537618 168.349918 
L 289.132809 167.56189 
L 289.728 166.543211 
L 290.323191 165.264014 
L 290.918382 163.690333 
L 292.108764 159.548289 
L 293.299191 154.179921 
L 294.489573 148.859768 
L 295.084764 147.248567 
L 295.68 147.12999 
L 296.275191 148.950916 
L 296.870382 152.680081 
L 298.656 167.414889 
L 299.251191 170.747805 
L 299.846382 172.857211 
L 300.441618 173.977729 
L 301.036809 174.416051 
L 301.632 174.439498 
L 302.822427 173.936773 
L 305.798382 172.156578 
L 306.988809 171.232525 
L 308.179191 169.914268 
L 308.774382 169.019155 
L 309.369573 167.905588 
L 309.964809 166.517235 
L 310.56 164.789243 
L 311.155191 162.652127 
L 311.750427 160.042826 
L 312.940809 153.354389 
L 314.131191 145.880549 
L 314.726382 143.239098 
L 315.321573 142.652015 
L 315.916764 145.027115 
L 316.512 150.445833 
L 318.297573 171.131703 
L 318.892764 175.08858 
L 319.488 177.273126 
L 320.083191 178.227148 
L 320.678382 178.472119 
L 321.868809 178.210238 
L 323.059191 178.052203 
L 323.654382 178.175339 
L 324.249618 178.462294 
L 324.844809 178.925747 
L 325.44 179.580403 
L 326.035236 180.446683 
L 326.630427 181.551878 
L 327.225618 182.929802 
L 327.820809 184.617007 
L 329.011191 189.028365 
L 331.392 199.873536 
L 331.987191 201.160908 
L 332.582382 200.734091 
L 333.177573 198.235259 
L 333.772809 193.887341 
L 334.963191 183.291622 
L 335.558427 179.000209 
L 336.153618 176.006452 
L 336.748809 174.220662 
L 337.344 173.348847 
L 337.939191 173.073615 
L 338.534382 173.141099 
L 339.724764 173.683798 
L 343.891191 175.940195 
L 345.081618 176.962256 
L 345.676809 177.657108 
L 346.272 178.525233 
L 346.867191 179.615048 
L 347.462382 180.985127 
L 348.057618 182.704434 
L 348.652809 184.849036 
L 349.248 187.493097 
L 350.438427 194.401702 
L 351.628809 202.416733 
L 352.224 205.425799 
L 352.819191 206.322703 
L 353.414382 204.030695 
L 354.009573 198.349019 
L 355.795191 176.060678 
L 356.390382 171.864169 
L 356.985573 169.59944 
L 357.580809 168.645696 
L 358.176 168.423599 
L 360.556809 168.750635 
L 361.152 168.53444 
L 361.747191 168.124534 
L 362.342382 167.507169 
L 362.937573 166.666768 
L 363.532764 165.583413 
L 364.128 164.232938 
L 365.318382 160.644698 
L 366.508764 155.913772 
L 367.699191 150.892843 
L 368.294382 149.016993 
L 368.889618 148.201103 
L 369.484809 148.912698 
L 370.08 151.348729 
L 371.270382 159.854248 
L 372.460809 168.021472 
L 373.056 170.639495 
L 373.651236 172.243861 
L 374.246427 173.054075 
L 374.841618 173.318807 
L 375.436809 173.244571 
L 376.627191 172.60079 
L 377.817573 171.681935 
L 379.008 170.549866 
L 380.198382 169.039906 
L 381.388809 166.867218 
L 381.984 165.417272 
L 382.579191 163.65577 
L 383.769618 159.02098 
L 384.96 152.968449 
L 386.150382 147.054343 
L 386.745573 145.459396 
L 387.340764 145.762349 
L 387.936 148.441792 
L 388.531191 153.282488 
L 389.721573 165.14521 
L 390.316764 169.848972 
L 390.912 173.043244 
L 391.507191 174.880049 
L 392.102382 175.731607 
L 392.697618 175.972327 
L 393.292809 175.888695 
L 395.673618 175.046848 
L 396.864 174.917196 
L 398.054427 175.029971 
L 399.244809 175.383773 
L 400.435191 176.03318 
L 401.625573 177.114636 
L 402.220809 177.890299 
L 402.816 178.879682 
L 403.411191 180.140325 
L 404.006382 181.742779 
L 404.601573 183.769977 
L 405.196809 186.311448 
L 405.792 189.445538 
L 406.982427 197.482545 
L 408.172809 205.811449 
L 408.768 207.868101 
L 409.363191 206.701723 
L 409.958382 201.5753 
L 411.744 176.583424 
L 412.339191 171.41939 
L 412.934382 168.580065 
L 413.529618 167.355599 
L 414.124809 167.03823 
L 414.72 167.120481 
L 414.72 167.120481 
" clip-path="url(#pa06e53949e)" style="fill: none; stroke: #0000cc; stroke-width: 1.5; stroke-linecap: square"/>
   </g>
   <g id="line2d_28">
    <path d="M 57.6 180.581137 
L 58.195191 181.903577 
L 58.790405 183.50531 
L 59.980809 187.722955 
L 61.171191 193.338567 
L 62.361595 199.2762 
L 62.956809 201.333401 
L 63.552 201.890054 
L 64.147191 200.3483 
L 64.742405 196.596712 
L 66.528 180.399206 
L 67.123191 176.634181 
L 67.718405 174.255733 
L 68.313595 172.996674 
L 68.908809 172.497717 
L 69.504 172.446873 
L 70.694405 172.885349 
L 72.48 173.616082 
L 74.265595 174.049916 
L 77.241595 174.646343 
L 78.432 175.054748 
L 79.622405 175.707717 
L 80.812809 176.778548 
L 81.408 177.554164 
L 82.003191 178.553113 
L 82.598405 179.842696 
L 83.193595 181.502808 
L 83.788809 183.631051 
L 84.384 186.335927 
L 84.979191 189.71971 
L 86.169595 198.590156 
L 87.36 207.937644 
L 87.955191 210.102813 
L 88.550405 208.35467 
L 89.145595 201.900639 
L 90.931191 173.688043 
L 91.526405 168.64035 
L 92.121595 166.129346 
L 92.716809 165.215465 
L 93.312 165.105535 
L 94.502405 165.468728 
L 95.097595 165.511556 
L 95.692809 165.34674 
L 96.288 164.948727 
L 96.883191 164.311615 
L 97.478405 163.438023 
L 98.668809 161.023408 
L 100.454405 156.267313 
L 101.644809 153.507922 
L 102.24 152.814716 
L 102.835191 152.86745 
L 103.430405 153.792642 
L 104.025595 155.558966 
L 105.216 160.622942 
L 106.406405 165.402958 
L 107.001595 167.073675 
L 107.596809 168.192897 
L 108.192 168.81997 
L 108.787191 169.047846 
L 109.382405 168.968266 
L 109.977595 168.654219 
L 110.572809 168.155168 
L 111.763191 166.692364 
L 112.953595 164.614149 
L 114.144 161.841291 
L 115.334405 158.393531 
L 116.524809 154.727159 
L 117.12 153.182605 
L 117.715191 152.148818 
L 118.310405 151.895714 
L 118.905595 152.622664 
L 119.500809 154.362923 
L 120.691191 159.913437 
L 121.881595 165.459043 
L 122.476809 167.436144 
L 123.072 168.774498 
L 123.667191 169.543659 
L 124.262405 169.858818 
L 124.857595 169.834601 
L 125.452809 169.562934 
L 126.048 169.105768 
L 127.238405 167.751358 
L 128.428809 165.818103 
L 129.619191 163.178851 
L 130.809595 159.723498 
L 133.190405 151.986508 
L 133.785595 150.959469 
L 134.380809 150.899676 
L 134.976 152.026363 
L 135.571191 154.32271 
L 137.952 166.941925 
L 138.547191 168.881315 
L 139.142405 170.099077 
L 139.737595 170.72383 
L 140.332809 170.907823 
L 140.928 170.783555 
L 141.523191 170.447315 
L 142.713595 169.344084 
L 143.904 167.751434 
L 145.094405 165.551995 
L 146.284809 162.521546 
L 147.475191 158.513485 
L 149.260809 151.680774 
L 149.856 150.044907 
L 150.451191 149.365846 
L 151.046405 150.021399 
L 151.641595 152.160923 
L 152.236809 155.555396 
L 154.022405 167.006966 
L 154.617595 169.487424 
L 155.212809 171.070422 
L 155.808 171.915663 
L 156.403191 172.226502 
L 156.998405 172.182483 
L 157.593595 171.915176 
L 158.784 171.002864 
L 159.974405 169.742034 
L 161.164809 168.046193 
L 162.355191 165.663373 
L 163.545595 162.270464 
L 164.736 157.639244 
L 166.521595 149.609395 
L 167.116809 147.811923 
L 167.712 147.334341 
L 168.307191 148.660239 
L 168.902405 151.880661 
L 171.283191 169.783213 
L 171.878405 172.137111 
L 172.473595 173.462009 
L 173.068809 174.044162 
L 173.664 174.154129 
L 174.259191 173.995783 
L 175.449595 173.348647 
L 177.830405 171.722622 
L 179.020809 170.628693 
L 180.211191 169.060689 
L 180.806405 167.999454 
L 181.401595 166.686353 
L 181.996809 165.061602 
L 182.592 163.061876 
L 183.187191 160.628108 
L 184.377595 154.386364 
L 185.568 147.238533 
L 186.163191 144.477046 
L 186.758405 143.412303 
L 187.353595 144.940519 
L 187.948809 149.356403 
L 189.734405 169.08845 
L 190.329595 173.415062 
L 190.924809 175.986888 
L 191.52 177.237212 
L 192.115191 177.663791 
L 192.710405 177.661081 
L 194.496 177.196419 
L 195.091191 177.196449 
L 195.686405 177.328042 
L 196.281595 177.601907 
L 196.876809 178.02859 
L 197.472 178.622574 
L 198.067191 179.40542 
L 198.662405 180.407033 
L 199.257595 181.665609 
L 199.852809 183.226602 
L 200.448 185.137867 
L 201.638382 190.146851 
L 204.019191 201.890428 
L 204.614382 202.713555 
L 205.209618 201.315721 
L 205.804809 197.491483 
L 207.590382 180.19244 
L 208.185618 176.150421 
L 208.780809 173.619629 
L 209.376 172.297055 
L 209.971191 171.780757 
L 210.566382 171.726499 
L 211.756809 172.129394 
L 212.947191 172.529391 
L 214.137618 172.668835 
L 215.328 172.524147 
L 216.518382 172.087026 
L 217.708809 171.288988 
L 218.304 170.708174 
L 218.899191 169.966533 
L 219.494382 169.022859 
L 220.089618 167.824346 
L 220.684809 166.306839 
L 221.28 164.394166 
L 221.875191 162.004053 
L 222.470382 159.06218 
L 223.660809 151.493207 
L 224.851191 143.35807 
L 225.446382 140.973236 
L 226.041618 141.374929 
L 226.636809 145.436843 
L 227.827191 161.363362 
L 228.422382 169.124912 
L 229.017618 174.699463 
L 229.612809 177.980275 
L 230.208 179.537668 
L 230.803191 180.053881 
L 231.398382 180.060383 
L 232.588809 179.762534 
L 233.184 179.755332 
L 233.779191 179.926763 
L 234.374382 180.300888 
L 234.969618 180.892197 
L 235.564809 181.713272 
L 236.16 182.779453 
L 236.755191 184.107624 
L 237.945618 187.600009 
L 240.921618 198.132983 
L 241.516809 198.646497 
L 242.112 197.757895 
L 242.707191 195.361969 
L 243.897618 187.580428 
L 245.088 180.276546 
L 245.683191 177.91694 
L 246.278382 176.452895 
L 246.873618 175.704205 
L 247.468809 175.462297 
L 248.064 175.550367 
L 248.659191 175.84286 
L 249.849618 176.769759 
L 251.04 178.02415 
L 252.230382 179.708527 
L 253.420809 182.083244 
L 254.611191 185.480823 
L 255.801618 190.148488 
L 257.587191 198.350217 
L 258.182382 200.233141 
L 258.777618 200.785577 
L 259.372809 199.494527 
L 259.968 196.245137 
L 262.348809 177.916235 
L 262.944 175.511629 
L 263.539191 174.16388 
L 264.134382 173.57451 
L 264.729618 173.462722 
L 265.324809 173.61827 
L 267.110382 174.597723 
L 269.491191 176.152501 
L 270.681618 177.253791 
L 271.872 178.879319 
L 272.467191 179.991722 
L 273.062382 181.37805 
L 273.657618 183.100846 
L 274.252809 185.227731 
L 275.443191 190.907999 
L 277.824 204.412435 
L 278.419191 204.986146 
L 279.014382 202.654702 
L 279.609618 197.337923 
L 281.395191 176.940583 
L 281.990382 172.996915 
L 282.585618 170.802168 
L 283.180809 169.831778 
L 283.776 169.573752 
L 284.966382 169.832737 
L 286.156809 170.016441 
L 286.752 169.916517 
L 287.347191 169.659907 
L 287.942382 169.234275 
L 288.537618 168.625658 
L 289.132809 167.81461 
L 289.728 166.774044 
L 290.323191 165.469964 
L 290.918382 163.863479 
L 292.108809 159.606108 
L 293.299191 154.011644 
L 294.489618 148.355649 
L 295.084809 146.597967 
L 295.68 146.424732 
L 296.275191 148.3428 
L 296.870382 152.327723 
L 298.656 167.974202 
L 299.251191 171.420071 
L 299.846382 173.555135 
L 300.441618 174.657269 
L 301.036809 175.066926 
L 301.632 175.07119 
L 302.822382 174.590126 
L 305.203191 173.534483 
L 307.584 172.580535 
L 308.774382 171.866364 
L 309.964809 170.767071 
L 310.56 169.993866 
L 311.155191 169.013216 
L 311.750382 167.767925 
L 312.345618 166.187996 
L 312.940809 164.191993 
L 313.536 161.691649 
L 314.131191 158.608476 
L 315.321618 150.685528 
L 316.512 142.36776 
L 317.107191 140.18969 
L 317.702382 141.120485 
L 318.297618 145.953408 
L 320.083191 170.716879 
L 320.678382 176.017661 
L 321.273618 178.984688 
L 321.868809 180.297738 
L 322.464 180.664671 
L 323.654382 180.430005 
L 324.249618 180.32324 
L 324.844809 180.371834 
L 325.44 180.618361 
L 326.035191 181.082861 
L 326.630382 181.777259 
L 327.225618 182.712205 
L 327.820809 183.898865 
L 329.011191 187.057957 
L 330.201618 191.15292 
L 331.392 195.417527 
L 331.987191 197.029408 
L 332.582382 197.809341 
L 333.177618 197.408793 
L 333.772809 195.654741 
L 334.368 192.692539 
L 336.153618 181.890862 
L 336.748809 179.354359 
L 337.344 177.658169 
L 337.939191 176.69146 
L 338.534382 176.279142 
L 339.129618 176.252525 
L 339.724809 176.480788 
L 340.915191 177.393936 
L 342.105618 178.732618 
L 343.296 180.560955 
L 344.486382 183.112752 
L 345.676809 186.664731 
L 346.867191 191.309661 
L 348.057618 196.372373 
L 348.652809 198.401101 
L 349.248 199.49245 
L 349.843191 199.160663 
L 350.438382 197.131036 
L 351.033618 193.559942 
L 352.819191 180.653841 
L 353.414382 177.801434 
L 354.009618 175.985362 
L 354.604809 175.014766 
L 355.2 174.642703 
L 355.795191 174.651536 
L 356.390382 174.885184 
L 357.580809 175.673792 
L 358.771191 176.685518 
L 359.961618 177.969442 
L 361.152 179.745959 
L 361.747191 180.917308 
L 362.342382 182.341162 
L 362.937618 184.06928 
L 364.128 188.613891 
L 365.318382 194.566866 
L 366.508809 200.474238 
L 367.104 202.160983 
L 367.699191 202.031035 
L 368.294382 199.587871 
L 368.889618 194.972974 
L 370.08 183.269191 
L 370.675191 178.495062 
L 371.270382 175.194043 
L 371.865618 173.256136 
L 372.460809 172.329532 
L 373.056 172.042371 
L 373.651191 172.103417 
L 376.627191 173.12002 
L 377.817618 173.21552 
L 379.008 173.120807 
L 380.198382 172.844009 
L 381.388809 172.337926 
L 382.579191 171.492876 
L 383.174382 170.883943 
L 383.769618 170.103449 
L 384.364809 169.103338 
L 384.96 167.82208 
L 385.555191 166.18419 
L 386.150382 164.099838 
L 386.745618 161.470814 
L 387.340809 158.208796 
L 388.531191 149.770664 
L 389.721618 141.006714 
L 390.316809 138.951529 
L 390.912 140.452344 
L 391.507191 146.23693 
L 393.292809 172.712634 
L 393.888 177.788545 
L 394.483191 180.445341 
L 395.078382 181.504151 
L 395.673618 181.712934 
L 397.459191 181.33756 
L 398.054382 181.460503 
L 398.649618 181.804492 
L 399.244809 182.383336 
L 399.84 183.202532 
L 400.435191 184.265082 
L 401.625618 187.107651 
L 404.601618 195.765615 
L 405.196809 196.419979 
L 405.792 196.105184 
L 406.387191 194.690535 
L 406.982382 192.279607 
L 408.768 183.08536 
L 409.363191 180.756136 
L 409.958382 179.115291 
L 410.553618 178.114863 
L 411.148809 177.635562 
L 411.744 177.545917 
L 412.339191 177.735204 
L 412.934382 178.125058 
L 414.124809 179.345704 
L 414.72 180.154556 
L 414.72 180.154556 
" clip-path="url(#pa06e53949e)" style="fill: none; stroke-dasharray: 5.55,2.4; stroke-dashoffset: 0; stroke: #ff0000; stroke-width: 1.5"/>
   </g>
   <g id="patch_8">
    <path d="M 57.6 213.662118 
L 57.6 135.393882 
" style="fill: none; stroke: #000000; stroke-width: 0.8; stroke-linejoin: miter; stroke-linecap: square"/>
   </g>
   <g id="patch_9">
    <path d="M 414.72 213.662118 
L 414.72 135.393882 
" style="fill: none; stroke: #000000; stroke-width: 0.8; stroke-linejoin: miter; stroke-linecap: square"/>
   </g>
   <g id="patch_10">
    <path d="M 57.6 213.662118 
L 414.72 213.662118 
" style="fill: none; stroke: #000000; stroke-width: 0.8; stroke-linejoin: miter; stroke-linecap: square"/>
   </g>
   <g id="patch_11">
    <path d="M 57.6 135.393882 
L 414.72 135.393882 
" style="fill: none; stroke: #000000; stroke-width: 0.8; stroke-linejoin: miter; stroke-linecap: square"/>
   </g>
  </g>
  <g id="axes_3">
   <g id="patch_12">
    <path d="M 57.6 307.584 
L 414.72 307.584 
L 414.72 229.315765 
L 57.6 229.315765 
z
" style="fill: #ffffff"/>
   </g>
   <g id="matplotlib.axis_5">
    <g id="xtick_19">
     <g id="line2d_29">
      <g>
       <use xlink:href="#m99b08457a8" x="57.6" y="307.584" style="stroke: #000000; stroke-width: 0.8"/>
      </g>
     </g>
     <g id="text_7">
      <!-- 10 -->
      <g transform="translate(51.2375 322.182437)scale(0.1 -0.1)">
       <use xlink:href="#DejaVuSans-31"/>
       <use xlink:href="#DejaVuSans-30" x="63.623047"/>
      </g>
     </g>
    </g>
    <g id="xtick_20">
     <g id="line2d_30">
      <g>
       <use xlink:href="#m99b08457a8" x="105.216" y="307.584" style="stroke: #000000; stroke-width: 0.8"/>
      </g>
     </g>
     <g id="text_8">
      <!-- 12 -->
      <g transform="translate(98.8535 322.182437)scale(0.1 -0.1)">
       <use xlink:href="#DejaVuSans-31"/>
       <use xlink:href="#DejaVuSans-32" x="63.623047"/>
      </g>
     </g>
    </g>
    <g id="xtick_21">
     <g id="line2d_31">
      <g>
       <use xlink:href="#m99b08457a8" x="152.832" y="307.584" style="stroke: #000000; stroke-width: 0.8"/>
      </g>
     </g>
     <g id="text_9">
      <!-- 14 -->
      <g transform="translate(146.4695 322.182437)scale(0.1 -0.1)">
       <defs>
        <path id="DejaVuSans-34" d="M 2419 4116 
L 825 1625 
L 2419 1625 
L 2419 4116 
z
M 2253 4666 
L 3047 4666 
L 3047 1625 
L 3713 1625 
L 3713 1100 
L 3047 1100 
L 3047 0 
L 2419 0 
L 2419 1100 
L 313 1100 
L 313 1709 
L 2253 4666 
z
" transform="scale(0.015625)"/>
       </defs>
       <use xlink:href="#DejaVuSans-31"/>
       <use xlink:href="#DejaVuSans-34" x="63.623047"/>
      </g>
     </g>
    </g>
    <g id="xtick_22">
     <g id="line2d_32">
      <g>
       <use xlink:href="#m99b08457a8" x="200.448" y="307.584" style="stroke: #000000; stroke-width: 0.8"/>
      </g>
     </g>
     <g id="text_10">
      <!-- 16 -->
      <g transform="translate(194.0855 322.182437)scale(0.1 -0.1)">
       <defs>
        <path id="DejaVuSans-36" d="M 2113 2584 
Q 1688 2584 1439 2293 
Q 1191 2003 1191 1497 
Q 1191 994 1439 701 
Q 1688 409 2113 409 
Q 2538 409 2786 701 
Q 3034 994 3034 1497 
Q 3034 2003 2786 2293 
Q 2538 2584 2113 2584 
z
M 3366 4563 
L 3366 3988 
Q 3128 4100 2886 4159 
Q 2644 4219 2406 4219 
Q 1781 4219 1451 3797 
Q 1122 3375 1075 2522 
Q 1259 2794 1537 2939 
Q 1816 3084 2150 3084 
Q 2853 3084 3261 2657 
Q 3669 2231 3669 1497 
Q 3669 778 3244 343 
Q 2819 -91 2113 -91 
Q 1303 -91 875 529 
Q 447 1150 447 2328 
Q 447 3434 972 4092 
Q 1497 4750 2381 4750 
Q 2619 4750 2861 4703 
Q 3103 4656 3366 4563 
z
" transform="scale(0.015625)"/>
       </defs>
       <use xlink:href="#DejaVuSans-31"/>
       <use xlink:href="#DejaVuSans-36" x="63.623047"/>
      </g>
     </g>
    </g>
    <g id="xtick_23">
     <g id="line2d_33">
      <g>
       <use xlink:href="#m99b08457a8" x="248.064" y="307.584" style="stroke: #000000; stroke-width: 0.8"/>
      </g>
     </g>
     <g id="text_11">
      <!-- 18 -->
      <g transform="translate(241.7015 322.182437)scale(0.1 -0.1)">
       <defs>
        <path id="DejaVuSans-38" d="M 2034 2216 
Q 1584 2216 1326 1975 
Q 1069 1734 1069 1313 
Q 1069 891 1326 650 
Q 1584 409 2034 409 
Q 2484 409 2743 651 
Q 3003 894 3003 1313 
Q 3003 1734 2745 1975 
Q 2488 2216 2034 2216 
z
M 1403 2484 
Q 997 2584 770 2862 
Q 544 3141 544 3541 
Q 544 4100 942 4425 
Q 1341 4750 2034 4750 
Q 2731 4750 3128 4425 
Q 3525 4100 3525 3541 
Q 3525 3141 3298 2862 
Q 3072 2584 2669 2484 
Q 3125 2378 3379 2068 
Q 3634 1759 3634 1313 
Q 3634 634 3220 271 
Q 2806 -91 2034 -91 
Q 1263 -91 848 271 
Q 434 634 434 1313 
Q 434 1759 690 2068 
Q 947 2378 1403 2484 
z
M 1172 3481 
Q 1172 3119 1398 2916 
Q 1625 2713 2034 2713 
Q 2441 2713 2670 2916 
Q 2900 3119 2900 3481 
Q 2900 3844 2670 4047 
Q 2441 4250 2034 4250 
Q 1625 4250 1398 4047 
Q 1172 3844 1172 3481 
z
" transform="scale(0.015625)"/>
       </defs>
       <use xlink:href="#DejaVuSans-31"/>
       <use xlink:href="#DejaVuSans-38" x="63.623047"/>
      </g>
     </g>
    </g>
    <g id="xtick_24">
     <g id="line2d_34">
      <g>
       <use xlink:href="#m99b08457a8" x="295.68" y="307.584" style="stroke: #000000; stroke-width: 0.8"/>
      </g>
     </g>
     <g id="text_12">
      <!-- 20 -->
      <g transform="translate(289.3175 322.182437)scale(0.1 -0.1)">
       <use xlink:href="#DejaVuSans-32"/>
       <use xlink:href="#DejaVuSans-30" x="63.623047"/>
      </g>
     </g>
    </g>
    <g id="xtick_25">
     <g id="line2d_35">
      <g>
       <use xlink:href="#m99b08457a8" x="343.296" y="307.584" style="stroke: #000000; stroke-width: 0.8"/>
      </g>
     </g>
     <g id="text_13">
      <!-- 22 -->
      <g transform="translate(336.9335 322.182437)scale(0.1 -0.1)">
       <use xlink:href="#DejaVuSans-32"/>
       <use xlink:href="#DejaVuSans-32" x="63.623047"/>
      </g>
     </g>
    </g>
    <g id="xtick_26">
     <g id="line2d_36">
      <g>
       <use xlink:href="#m99b08457a8" x="390.912" y="307.584" style="stroke: #000000; stroke-width: 0.8"/>
      </g>
     </g>
     <g id="text_14">
      <!-- 24 -->
      <g transform="translate(384.5495 322.182437)scale(0.1 -0.1)">
       <use xlink:href="#DejaVuSans-32"/>
       <use xlink:href="#DejaVuSans-34" x="63.623047"/>
      </g>
     </g>
    </g>
    <g id="xtick_27">
     <g id="line2d_37">
      <g>
       <use xlink:href="#m99b08457a8" x="414.72" y="307.584" style="stroke: #000000; stroke-width: 0.8"/>
      </g>
     </g>
     <g id="text_15">
      <!-- 25 -->
      <g transform="translate(408.3575 322.182437)scale(0.1 -0.1)">
       <defs>
        <path id="DejaVuSans-35" d="M 691 4666 
L 3169 4666 
L 3169 4134 
L 1269 4134 
L 1269 2991 
Q 1406 3038 1543 3061 
Q 1681 3084 1819 3084 
Q 2600 3084 3056 2656 
Q 3513 2228 3513 1497 
Q 3513 744 3044 326 
Q 2575 -91 1722 -91 
Q 1428 -91 1123 -41 
Q 819 9 494 109 
L 494 744 
Q 775 591 1075 516 
Q 1375 441 1709 441 
Q 2250 441 2565 725 
Q 2881 1009 2881 1497 
Q 2881 1984 2565 2268 
Q 2250 2553 1709 2553 
Q 1456 2553 1204 2497 
Q 953 2441 691 2322 
L 691 4666 
z
" transform="scale(0.015625)"/>
       </defs>
       <use xlink:href="#DejaVuSans-32"/>
       <use xlink:href="#DejaVuSans-35" x="63.623047"/>
      </g>
     </g>
    </g>
   </g>
   <g id="matplotlib.axis_6">
    <g id="ytick_7">
     <g id="line2d_38">
      <g>
       <use xlink:href="#mc559c47206" x="57.6" y="278.365647" style="stroke: #000000; stroke-width: 0.8"/>
      </g>
     </g>
     <g id="text_16">
      <!-- 20 -->
      <g transform="translate(37.875 282.164865)scale(0.1 -0.1)">
       <use xlink:href="#DejaVuSans-32"/>
       <use xlink:href="#DejaVuSans-30" x="63.623047"/>
      </g>
     </g>
    </g>
    <g id="ytick_8">
     <g id="line2d_39">
      <g>
       <use xlink:href="#mc559c47206" x="57.6" y="240.475681" style="stroke: #000000; stroke-width: 0.8"/>
      </g>
     </g>
     <g id="text_17">
      <!-- 40 -->
      <g transform="translate(37.875 244.2749)scale(0.1 -0.1)">
       <use xlink:href="#DejaVuSans-34"/>
       <use xlink:href="#DejaVuSans-30" x="63.623047"/>
      </g>
     </g>
    </g>
   </g>
   <g id="line2d_40">
    <path d="M 57.6 286.999263 
L 58.195191 288.215705 
L 58.790405 289.091263 
L 59.385595 289.528644 
L 59.980809 289.386581 
L 60.576 288.468943 
L 61.171191 286.522032 
L 61.766405 283.256834 
L 62.361595 278.423448 
L 62.956786 271.965082 
L 64.742405 249.275807 
L 65.337595 244.805109 
L 65.932786 243.417119 
L 66.528 244.774222 
L 67.123214 247.947898 
L 70.099214 267.524571 
L 71.289618 273.710729 
L 72.48 279.047424 
L 74.265618 285.795198 
L 76.051214 291.311303 
L 77.836809 295.81733 
L 79.027214 298.340445 
L 80.217595 300.509206 
L 81.408 302.305679 
L 82.598405 303.608924 
L 83.193595 303.972539 
L 83.788809 304.026353 
L 84.384 303.607859 
L 84.979191 302.455818 
L 85.574405 300.167257 
L 86.169595 296.165265 
L 86.764786 289.734398 
L 87.36 280.247095 
L 89.145595 241.236993 
L 89.740786 233.868482 
L 90.336 232.873412 
L 90.931214 236.736645 
L 92.716809 254.579948 
L 93.907214 263.066931 
L 95.097618 269.078436 
L 96.288 273.481705 
L 96.883214 275.165602 
L 97.478405 276.489735 
L 98.073618 277.415841 
L 98.668809 277.886363 
L 99.264 277.827111 
L 99.859214 277.152852 
L 100.454405 275.780566 
L 101.049595 273.653759 
L 101.644809 270.780215 
L 102.835214 263.416392 
L 104.025595 256.328503 
L 104.620809 254.022899 
L 105.216 252.937442 
L 105.811191 253.0795 
L 106.406405 254.254845 
L 107.001595 256.170043 
L 108.192 261.105598 
L 109.977595 268.737283 
L 111.168 273.113406 
L 112.358405 276.601474 
L 112.953595 277.922949 
L 113.548786 278.895136 
L 114.144 279.44871 
L 114.739214 279.49683 
L 115.334405 278.937138 
L 115.929618 277.660667 
L 116.524809 275.573652 
L 117.120023 272.636384 
L 118.310405 264.660443 
L 119.500786 256.358152 
L 120.095977 253.429326 
L 120.691191 251.864985 
L 121.286382 251.735863 
L 121.881595 252.842539 
L 122.476786 254.839626 
L 123.667191 260.151147 
L 125.452809 268.406946 
L 126.643214 273.182006 
L 127.833595 277.111597 
L 129.024 279.959949 
L 129.619191 280.857136 
L 130.214405 281.303013 
L 130.809595 281.194794 
L 131.404809 280.408532 
L 132 278.81009 
L 132.595191 276.283279 
L 133.190405 272.781375 
L 134.380786 263.465959 
L 135.571191 254.286386 
L 136.166405 251.379227 
L 136.761595 250.146479 
L 137.356786 250.541672 
L 137.952 252.222499 
L 139.142382 257.682389 
L 141.523191 269.546262 
L 142.713595 274.532094 
L 143.903977 278.676782 
L 145.094382 281.805966 
L 145.689595 282.884851 
L 146.284786 283.546018 
L 146.879977 283.685884 
L 147.475191 283.169645 
L 148.070405 281.834743 
L 148.665595 279.509867 
L 149.260809 276.061376 
L 149.856 271.477676 
L 151.641595 254.680509 
L 152.236809 250.585188 
L 152.832 248.427289 
L 153.427191 248.309436 
L 154.022405 249.873254 
L 154.617595 252.544563 
L 158.188786 271.69011 
L 159.379191 276.778853 
L 160.569595 281.065054 
L 161.76 284.453661 
L 162.355191 285.735093 
L 162.950382 286.664858 
L 163.545595 287.150924 
L 164.140786 287.063076 
L 164.736 286.225854 
L 165.331191 284.420569 
L 165.926382 281.409025 
L 166.521595 277.00211 
L 167.711977 264.309111 
L 168.902382 250.966514 
L 169.497595 246.815966 
L 170.092786 245.298973 
L 170.687977 246.224085 
L 171.283191 248.87806 
L 175.449595 273.311046 
L 176.64 278.58342 
L 177.830405 283.149015 
L 179.020809 287.058512 
L 180.211191 290.292699 
L 181.401595 292.704453 
L 181.996786 293.48647 
L 182.592 293.865694 
L 183.187191 293.691017 
L 183.782405 292.741232 
L 184.377595 290.711063 
L 184.972786 287.219987 
L 185.568 281.882115 
L 186.163191 274.492788 
L 187.948786 247.008105 
L 188.544 241.565623 
L 189.139191 240.083246 
L 189.734382 242.005648 
L 190.329595 245.986801 
L 192.115191 259.887881 
L 193.305595 267.422046 
L 194.495977 273.6165 
L 195.686405 278.834328 
L 196.876809 283.240832 
L 198.067214 286.856286 
L 199.257595 289.545311 
L 199.852809 290.429876 
L 200.448 290.892301 
L 201.043191 290.791637 
L 201.638382 289.927534 
L 202.233618 288.033141 
L 202.828809 284.791518 
L 203.424 279.904342 
L 204.019191 273.251079 
L 205.804809 248.960253 
L 206.4 243.970979 
L 206.995236 242.325149 
L 207.590427 243.686937 
L 208.185618 247.025081 
L 210.566382 263.747436 
L 211.756809 270.549183 
L 212.947191 276.329348 
L 214.137573 281.322233 
L 215.328 285.661829 
L 216.518427 289.428413 
L 217.708809 292.665747 
L 218.899191 295.367723 
L 220.089573 297.42175 
L 220.684764 298.10904 
L 221.28 298.462721 
L 221.875191 298.340727 
L 222.470382 297.523338 
L 223.065573 295.685262 
L 223.660764 292.37989 
L 224.256 287.075825 
L 224.851191 279.324133 
L 226.041618 257.494795 
L 226.636809 246.613673 
L 227.232 239.136968 
L 227.827191 236.593757 
L 228.422382 238.497519 
L 229.017618 243.061891 
L 230.803236 258.56589 
L 231.993618 266.314945 
L 233.184 272.359083 
L 234.374382 277.192929 
L 235.564809 280.92897 
L 236.16 282.339309 
L 236.755191 283.381421 
L 237.350382 283.977042 
L 237.945573 284.017151 
L 238.540809 283.358918 
L 239.136 281.831343 
L 239.731191 279.258455 
L 240.326427 275.513535 
L 241.516809 264.848191 
L 242.707191 253.463859 
L 243.302382 249.632127 
L 243.897573 247.873068 
L 244.492764 248.175225 
L 245.088 250.087005 
L 246.278382 256.370689 
L 248.064 266.483373 
L 249.254382 272.341643 
L 250.444809 277.403118 
L 251.635191 281.672977 
L 252.825618 285.066719 
L 253.420809 286.362847 
L 254.016 287.317834 
L 254.611236 287.841751 
L 255.206427 287.805386 
L 255.801618 287.032292 
L 256.396809 285.297308 
L 256.992 282.347925 
L 257.587191 277.966819 
L 258.182382 272.103423 
L 259.968 251.040255 
L 260.563191 246.52407 
L 261.158382 244.751259 
L 261.753573 245.569755 
L 262.348809 248.238583 
L 266.515191 273.15439 
L 267.705573 278.496587 
L 268.896 283.138055 
L 270.086382 287.153956 
L 271.276764 290.570802 
L 272.467191 293.340558 
L 273.062382 294.428021 
L 273.657618 295.25384 
L 274.252809 295.732556 
L 274.848 295.730681 
L 275.443191 295.045935 
L 276.038382 293.38569 
L 276.633618 290.358788 
L 277.228809 285.513485 
L 277.824 278.482267 
L 279.014427 258.788204 
L 279.609618 248.805063 
L 280.204809 241.610612 
L 280.8 238.666821 
L 281.395191 239.802679 
L 281.990382 243.627568 
L 283.776 258.296668 
L 284.966382 266.160805 
L 286.156809 272.473659 
L 287.347191 277.683404 
L 288.537618 281.966218 
L 289.728 285.282128 
L 290.323191 286.503299 
L 290.918382 287.352213 
L 291.513573 287.729197 
L 292.108764 287.492743 
L 292.704 286.452313 
L 293.299191 284.37336 
L 293.894382 281.008007 
L 294.489573 276.178723 
L 295.68 262.69732 
L 296.870382 249.433459 
L 297.465618 245.767891 
L 298.060809 244.860817 
L 298.656 246.336592 
L 299.251191 249.377472 
L 302.227236 268.002454 
L 303.417618 274.028752 
L 304.608 279.247357 
L 305.798382 283.778283 
L 306.988809 287.685524 
L 308.179191 290.978545 
L 309.369573 293.573926 
L 309.964809 294.533476 
L 310.56 295.182949 
L 311.155191 295.411381 
L 311.750427 295.0487 
L 312.345618 293.844756 
L 312.940809 291.453723 
L 313.536 287.447923 
L 314.131191 281.411531 
L 314.726382 273.17205 
L 316.512 244.395807 
L 317.107191 239.655323 
L 317.702382 239.181833 
L 318.297573 242.012373 
L 321.273618 264.684883 
L 322.464 271.291644 
L 323.654382 276.74279 
L 324.844809 281.269529 
L 326.035236 284.889799 
L 326.630427 286.311937 
L 327.225618 287.416008 
L 327.820809 288.125348 
L 328.416 288.327014 
L 329.011191 287.86157 
L 329.606382 286.517477 
L 330.201573 284.040312 
L 330.796809 280.176443 
L 331.392 274.779448 
L 333.772809 247.611763 
L 334.368 244.720203 
L 334.963191 244.648808 
L 335.558427 246.796417 
L 336.748809 254.248472 
L 338.534382 265.708215 
L 339.724764 272.092657 
L 340.915191 277.601172 
L 342.105573 282.389545 
L 343.296 286.554617 
L 344.486382 290.150994 
L 345.676809 293.188704 
L 346.867191 295.591757 
L 347.462382 296.483161 
L 348.057618 297.086346 
L 348.652809 297.292345 
L 349.248 296.931245 
L 349.843236 295.747321 
L 350.438427 293.377332 
L 351.033618 289.355369 
L 351.628809 283.194544 
L 352.224 274.630084 
L 354.009573 243.611851 
L 354.604809 238.346684 
L 355.2 237.777503 
L 355.795191 240.825023 
L 358.771191 264.383258 
L 359.961618 270.932056 
L 361.152 276.228536 
L 362.342382 280.496511 
L 363.532764 283.683649 
L 364.128 284.781961 
L 364.723191 285.456282 
L 365.318382 285.597097 
L 365.913573 285.056049 
L 366.508764 283.646593 
L 367.104 281.161613 
L 367.699191 277.423882 
L 368.294382 272.384017 
L 370.675191 249.029989 
L 371.270382 246.756867 
L 371.865618 246.821999 
L 372.460809 248.74079 
L 373.651236 255.388272 
L 375.436809 266.038089 
L 376.627191 272.142375 
L 377.817573 277.428269 
L 379.008 281.965747 
L 380.198382 285.755577 
L 381.388809 288.682748 
L 381.984 289.730137 
L 382.579191 290.404564 
L 383.174427 290.588463 
L 383.769618 290.111857 
L 384.364809 288.742012 
L 384.96 286.186621 
L 385.555191 282.133841 
L 386.150382 276.363991 
L 387.340764 260.548208 
L 387.936 252.41525 
L 388.531191 246.158114 
L 389.126382 242.956377 
L 389.721573 242.98105 
L 390.316764 245.473955 
L 391.507191 253.680657 
L 392.697618 261.981214 
L 393.888 269.048694 
L 395.078382 275.041085 
L 396.268809 280.209556 
L 397.459236 284.706096 
L 398.649618 288.624515 
L 399.84 292.028995 
L 401.030382 294.955729 
L 402.220809 297.393685 
L 403.411191 299.224868 
L 404.006382 299.812501 
L 404.601573 300.069406 
L 405.196809 299.845299 
L 405.792 298.905306 
L 406.387191 296.898478 
L 406.982427 293.337672 
L 407.577618 287.641191 
L 408.172809 279.319012 
L 410.553618 237.445626 
L 411.148809 235.45835 
L 411.744 238.024645 
L 412.934382 248.817832 
L 414.124809 258.923582 
L 414.72 262.983504 
L 414.72 262.983504 
" clip-path="url(#p9c0fd20714)" style="fill: none; stroke: #0000cc; stroke-width: 1.5; stroke-linecap: square"/>
   </g>
   <g id="line2d_41">
    <path d="M 57.6 286.999288 
L 58.195191 288.21691 
L 58.790405 289.092583 
L 59.385595 289.530055 
L 59.980809 289.388237 
L 60.576 288.470805 
L 61.171191 286.524349 
L 61.766405 283.259526 
L 62.361595 278.426422 
L 62.956809 271.968078 
L 64.742405 249.277021 
L 65.337595 244.805169 
L 65.932809 243.416189 
L 66.528 244.772676 
L 67.123191 247.946061 
L 70.099191 267.522953 
L 71.289595 273.709281 
L 72.48 279.046295 
L 74.265595 285.794205 
L 76.051191 291.310481 
L 77.836809 295.816685 
L 79.027191 298.339814 
L 80.217595 300.508595 
L 81.408 302.304959 
L 82.598405 303.605321 
L 83.193595 303.96891 
L 83.788809 304.022399 
L 84.384 303.603478 
L 84.979191 302.450587 
L 85.574405 300.160623 
L 86.169595 296.156621 
L 86.764809 289.722953 
L 87.36 280.233459 
L 89.145595 241.228795 
L 89.740809 233.867218 
L 90.336 232.878189 
L 90.931191 236.743913 
L 92.716809 254.585687 
L 93.907191 263.067191 
L 95.097595 269.078166 
L 96.288 273.481213 
L 96.883191 275.164858 
L 97.478405 276.48895 
L 98.073595 277.414943 
L 98.668809 277.885262 
L 99.264 277.825978 
L 99.859191 277.151594 
L 100.454405 275.779228 
L 101.049595 273.652382 
L 101.644809 270.778903 
L 102.835191 263.415794 
L 104.025595 256.32874 
L 104.620809 254.023638 
L 105.216 252.93854 
L 105.811191 253.07767 
L 106.406405 254.253488 
L 107.001595 256.16924 
L 108.192 261.105814 
L 109.977595 268.738436 
L 111.168 273.115066 
L 112.358405 276.603561 
L 112.953595 277.925365 
L 113.548809 278.897779 
L 114.144 279.451622 
L 114.739191 279.500014 
L 115.334405 278.940625 
L 115.929595 277.664413 
L 116.524809 275.57746 
L 117.12 272.64022 
L 118.310405 264.660721 
L 119.500809 256.356097 
L 120.096 253.426653 
L 120.691191 251.862153 
L 121.286405 251.733203 
L 121.881595 252.840337 
L 122.476809 254.838171 
L 123.667191 260.150683 
L 125.452809 268.407737 
L 126.643191 273.183313 
L 127.833595 277.113595 
L 129.024 279.962712 
L 129.619191 280.859725 
L 130.214405 281.306017 
L 130.809595 281.198312 
L 131.404809 280.412435 
L 132 278.814459 
L 132.595191 276.287946 
L 133.190405 272.786037 
L 134.380809 263.469199 
L 135.571191 254.286677 
L 136.166405 251.37804 
L 136.761595 250.144002 
L 137.356809 250.538588 
L 137.952 252.219241 
L 139.142405 257.679802 
L 141.523191 269.544575 
L 142.713595 274.531397 
L 143.904 278.677295 
L 145.094405 281.807997 
L 145.689595 282.887799 
L 146.284809 283.550209 
L 146.88 283.691559 
L 147.475191 283.177205 
L 148.070405 281.844429 
L 148.665595 279.521974 
L 149.260809 276.075801 
L 149.856 271.493718 
L 151.641595 254.690737 
L 152.236809 250.589743 
L 152.832 248.425988 
L 153.427191 248.302213 
L 154.022405 249.863525 
L 154.617595 252.534049 
L 158.188809 271.684805 
L 159.379191 276.775198 
L 160.569595 281.063412 
L 161.76 284.454762 
L 162.355191 285.738161 
L 162.950405 286.670345 
L 163.545595 287.159659 
L 164.140809 287.075984 
L 164.736 286.244254 
L 165.331191 284.443974 
L 165.926405 281.439722 
L 166.521595 277.04049 
L 167.712 264.354738 
L 168.902405 250.994518 
L 169.497595 246.827249 
L 170.092809 245.293548 
L 170.688 246.206513 
L 171.283191 248.853814 
L 175.449595 273.294697 
L 176.64 278.569976 
L 177.830405 283.137381 
L 179.020809 287.050141 
L 180.211191 290.288725 
L 181.401595 292.708 
L 181.996809 293.496117 
L 182.592 293.883851 
L 183.187191 293.721371 
L 183.782405 292.788845 
L 184.377595 290.782424 
L 184.972809 287.322013 
L 185.568 282.020501 
L 186.163191 274.665908 
L 187.948809 247.137121 
L 188.544 241.617879 
L 189.139191 240.062627 
L 189.734405 241.934324 
L 190.329595 245.892885 
L 192.115191 259.806949 
L 193.305595 267.356594 
L 194.496 273.561282 
L 195.686405 278.786009 
L 196.876809 283.197809 
L 198.067191 286.817394 
L 199.257595 289.509674 
L 199.852809 290.395576 
L 200.448 290.859162 
L 201.043191 290.761878 
L 201.638382 289.899277 
L 202.233618 288.007132 
L 202.828809 284.769209 
L 203.424 279.887992 
L 204.019191 273.243611 
L 205.804809 248.98458 
L 206.4 243.998357 
L 206.995191 242.34894 
L 207.590382 243.703442 
L 208.185618 247.034065 
L 210.566382 263.74359 
L 211.756809 270.544918 
L 212.947191 276.324666 
L 214.137618 281.318983 
L 215.328 285.660435 
L 216.518382 289.430295 
L 217.708809 292.674093 
L 218.899191 295.388976 
L 220.089618 297.472087 
L 220.684809 298.185949 
L 221.28 298.580453 
L 221.875191 298.520728 
L 222.470382 297.797459 
L 223.065618 296.097838 
L 223.660809 292.987575 
L 224.256 287.936188 
L 224.851191 280.463829 
L 226.041618 258.878617 
L 226.636809 247.708821 
L 227.232 239.676862 
L 227.827191 236.532444 
L 228.422382 238.012423 
L 229.017618 242.393665 
L 230.803191 258.028464 
L 231.993618 265.899218 
L 233.184 272.013541 
L 234.374382 276.893426 
L 235.564809 280.668691 
L 236.16 282.099316 
L 236.755191 283.169545 
L 237.350382 283.79203 
L 237.945618 283.865944 
L 238.540809 283.251756 
L 239.136 281.781767 
L 239.731191 279.282295 
L 240.326382 275.6263 
L 241.516809 265.143144 
L 242.707191 253.808941 
L 243.302382 249.914164 
L 243.897618 248.050072 
L 244.492809 248.237321 
L 245.088 250.050754 
L 246.278382 256.222524 
L 248.064 266.299804 
L 249.254382 272.155775 
L 250.444809 277.21979 
L 251.635191 281.487495 
L 252.825618 284.869222 
L 253.420809 286.153209 
L 254.016 287.09048 
L 254.611191 287.589443 
L 255.206382 287.519514 
L 255.801618 286.703332 
L 256.396809 284.917248 
L 256.992 281.913752 
L 257.587191 277.488406 
L 258.182382 271.610905 
L 259.968 250.881583 
L 260.563191 246.561905 
L 261.158382 244.949455 
L 261.753618 245.859891 
L 262.348809 248.554423 
L 265.92 270.325897 
L 267.110382 276.027849 
L 268.300809 280.974228 
L 269.491191 285.25882 
L 270.681618 288.92174 
L 271.872 291.933798 
L 273.062382 294.130291 
L 273.657618 294.794303 
L 274.252809 295.034956 
L 274.848 294.683727 
L 275.443191 293.493213 
L 276.038382 291.123169 
L 276.633618 287.155087 
L 277.228809 281.185063 
L 277.824 273.051905 
L 279.609618 244.680727 
L 280.204809 239.966354 
L 280.8 239.440722 
L 281.395191 242.183334 
L 284.371191 264.677717 
L 285.561618 271.303082 
L 286.752 276.787872 
L 287.942382 281.36635 
L 289.132809 285.071903 
L 290.323191 287.748368 
L 290.918382 288.574508 
L 291.513618 288.934319 
L 292.108809 288.680267 
L 292.704 287.611164 
L 293.299191 285.473539 
L 293.894382 281.992028 
L 294.489618 276.954809 
L 295.68 262.721943 
L 296.870382 248.630774 
L 297.465618 244.795888 
L 298.060809 243.938273 
L 298.656 245.608862 
L 299.251191 248.887552 
L 301.632 264.684737 
L 302.822382 271.25323 
L 304.012809 276.900097 
L 305.203191 281.806306 
L 306.393618 286.086575 
L 307.584 289.816693 
L 308.774382 293.043143 
L 309.964809 295.792966 
L 311.155191 298.010018 
L 311.750382 298.863475 
L 312.345618 299.481627 
L 312.940809 299.773594 
L 313.536 299.593923 
L 314.131191 298.714932 
L 314.726382 296.795948 
L 315.321618 293.363519 
L 315.916809 287.846975 
L 316.512 279.752614 
L 317.702382 256.887281 
L 318.297618 245.57168 
L 318.892809 237.97354 
L 319.488 235.642506 
L 320.083191 237.923738 
L 321.273618 248.510829 
L 322.464 258.66514 
L 323.654382 266.322724 
L 324.844809 272.204352 
L 326.035191 276.818941 
L 327.225618 280.245747 
L 327.820809 281.448041 
L 328.416 282.232363 
L 329.011191 282.509071 
L 329.606382 282.159862 
L 330.201618 281.041745 
L 330.796809 279.003447 
L 331.392 275.923934 
L 331.987191 271.784826 
L 334.368 252.003701 
L 334.963191 249.593681 
L 335.558382 249.074203 
L 336.153618 250.208901 
L 336.748809 252.512824 
L 337.939191 258.715012 
L 339.724809 268.122854 
L 340.915191 273.536011 
L 342.105618 278.149428 
L 343.296 281.880537 
L 343.891191 283.353691 
L 344.486382 284.504828 
L 345.081618 285.260515 
L 345.676809 285.517257 
L 346.272 285.135297 
L 346.867191 283.936459 
L 347.462382 281.717355 
L 348.057618 278.289479 
L 348.652809 273.566553 
L 351.033618 249.996804 
L 351.628809 247.191714 
L 352.224 246.741231 
L 352.819191 248.271993 
L 353.414382 251.10584 
L 356.985618 271.460742 
L 358.176 276.822543 
L 359.366382 281.427794 
L 360.556809 285.280482 
L 361.747191 288.271095 
L 362.342382 289.354026 
L 362.937618 290.070074 
L 363.532809 290.305993 
L 364.128 289.898147 
L 364.723191 288.621961 
L 365.318382 286.194086 
L 365.913618 282.308098 
L 366.508809 276.739388 
L 367.699191 261.280654 
L 368.294382 253.179155 
L 368.889618 246.791701 
L 369.484809 243.33857 
L 370.08 243.084596 
L 370.675191 245.354996 
L 371.865618 253.364016 
L 373.056 261.655571 
L 374.246382 268.758315 
L 375.436809 274.788221 
L 376.627191 279.991093 
L 377.817618 284.521457 
L 379.008 288.476581 
L 380.793618 293.476985 
L 381.984 296.265656 
L 383.174382 298.63386 
L 384.364809 300.525401 
L 384.96 301.234126 
L 385.555191 301.715683 
L 386.150382 301.873359 
L 386.745618 301.549596 
L 387.340809 300.495262 
L 387.936 298.332839 
L 388.531191 294.532097 
L 389.126382 288.450763 
L 389.721618 279.543686 
L 391.507191 242.98054 
L 392.102382 235.701236 
L 392.697618 234.251189 
L 393.292809 237.475729 
L 395.673618 259.162529 
L 396.864 266.521513 
L 398.054382 272.030158 
L 399.244809 276.19074 
L 399.84 277.783198 
L 400.435191 279.013716 
L 401.030382 279.828315 
L 401.625618 280.150985 
L 402.220809 279.884357 
L 402.816 278.914798 
L 403.411191 277.134284 
L 404.006382 274.451765 
L 404.601618 270.882572 
L 406.982382 253.927454 
L 407.577618 251.679424 
L 408.172809 250.980118 
L 408.768 251.706534 
L 409.363191 253.517225 
L 410.553618 258.851632 
L 412.934382 270.112429 
L 414.124809 274.795061 
L 414.72 276.81527 
L 414.72 276.81527 
" clip-path="url(#p9c0fd20714)" style="fill: none; stroke-dasharray: 5.55,2.4; stroke-dashoffset: 0; stroke: #ff0000; stroke-width: 1.5"/>
   </g>
   <g id="patch_13">
    <path d="M 57.6 307.584 
L 57.6 229.315765 
" style="fill: none; stroke: #000000; stroke-width: 0.8; stroke-linejoin: miter; stroke-linecap: square"/>
   </g>
   <g id="patch_14">
    <path d="M 414.72 307.584 
L 414.72 229.315765 
" style="fill: none; stroke: #000000; stroke-width: 0.8; stroke-linejoin: miter; stroke-linecap: square"/>
   </g>
   <g id="patch_15">
    <path d="M 57.6 307.584 
L 414.72 307.584 
" style="fill: none; stroke: #000000; stroke-width: 0.8; stroke-linejoin: miter; stroke-linecap: square"/>
   </g>
   <g id="patch_16">
    <path d="M 57.6 229.315765 
L 414.72 229.315765 
" style="fill: none; stroke: #000000; stroke-width: 0.8; stroke-linejoin: miter; stroke-linecap: square"/>
   </g>
  </g>
 </g>
 <defs>
  <clipPath id="p94351c6d64">
   <rect x="57.6" y="41.472" width="357.12" height="78.268235"/>
  </clipPath>
  <clipPath id="pa06e53949e">
   <rect x="57.6" y="135.393882" width="357.12" height="78.268235"/>
  </clipPath>
  <clipPath id="p9c0fd20714">
   <rect x="57.6" y="229.315765" width="357.12" height="78.268235"/>
  </clipPath>
 </defs>
</svg>
