<?xml version="1.0" encoding="utf-8" standalone="no"?>
<!DOCTYPE svg PUBLIC "-//W3C//DTD SVG 1.1//EN"
  "http://www.w3.org/Graphics/SVG/1.1/DTD/svg11.dtd">
<svg xmlns:xlink="http://www.w3.org/1999/xlink" width="460.8pt" height="345.6pt" viewBox="0 0 460.8 345.6" xmlns="http://www.w3.org/2000/svg" version="1.1">
 <metadata>
  <rdf:RDF xmlns:dc="http://purl.org/dc/elements/1.1/" xmlns:cc="http://creativecommons.org/ns#" xmlns:rdf="http://www.w3.org/1999/02/22-rdf-syntax-ns#">
   <cc:Work>
    <dc:type rdf:resource="http://purl.org/dc/dcmitype/StillImage"/>
    <dc:date>2024-01-02T15:36:47.227002</dc:date>
    <dc:format>image/svg+xml</dc:format>
    <dc:creator>
     <cc:Agent>
      <dc:title>Matplotlib v3.7.3, https://matplotlib.org/</dc:title>
     </cc:Agent>
    </dc:creator>
   </cc:Work>
  </rdf:RDF>
 </metadata>
 <defs>
  <style type="text/css">*{stroke-linejoin: round; stroke-linecap: butt}</style>
 </defs>
 <g id="figure_1">
  <g id="patch_1">
   <path d="M 0 345.6 
L 460.8 345.6 
L 460.8 0 
L 0 0 
z
" style="fill: #ffffff"/>
  </g>
  <g id="patch_2">
   <path d="M 103.104 307.584 
L 369.216 307.584 
L 369.216 41.472 
L 103.104 41.472 
z
" style="fill: #ffffff"/>
  </g>
  <g id="pane3d_1">
   <g id="patch_3">
    <path d="M 123.197291 241.969309 
L 211.076164 168.307495 
L 209.854564 62.073991 
L 117.770234 129.272941 
" style="fill: #f2f2f2; opacity: 0.5; stroke: #f2f2f2; stroke-linejoin: miter"/>
   </g>
  </g>
  <g id="pane3d_2">
   <g id="patch_4">
    <path d="M 211.076164 168.307495 
L 352.090401 209.294766 
L 357.122702 99.402171 
L 209.854564 62.073991 
" style="fill: #e6e6e6; opacity: 0.5; stroke: #e6e6e6; stroke-linejoin: miter"/>
   </g>
  </g>
  <g id="pane3d_3">
   <g id="patch_5">
    <path d="M 123.197291 241.969309 
L 272.679269 290.790123 
L 352.090401 209.294766 
L 211.076164 168.307495 
" style="fill: #ececec; opacity: 0.5; stroke: #ececec; stroke-linejoin: miter"/>
   </g>
  </g>
  <g id="axis3d_1">
   <g id="line2d_1">
    <path d="M 123.197291 241.969309 
L 272.679269 290.790123 
" style="fill: none; stroke: #000000; stroke-width: 0.8; stroke-linecap: square"/>
   </g>
   <g id="Line3DCollection_1">
    <path d="M 142.165641 248.164372 
L 229.039101 173.528611 
L 228.579615 66.820246 
" style="fill: none; stroke: #b0b0b0; stroke-width: 0.8"/>
    <path d="M 160.527902 254.161486 
L 246.408879 178.57732 
L 246.695916 71.4122 
" style="fill: none; stroke: #b0b0b0; stroke-width: 0.8"/>
    <path d="M 179.134407 260.238371 
L 263.990472 183.687595 
L 265.042726 76.062581 
" style="fill: none; stroke: #b0b0b0; stroke-width: 0.8"/>
    <path d="M 197.990064 266.396629 
L 281.787779 188.860569 
L 283.624475 80.772513 
" style="fill: none; stroke: #b0b0b0; stroke-width: 0.8"/>
    <path d="M 217.09991 272.637904 
L 299.804793 194.097404 
L 302.445705 85.543146 
" style="fill: none; stroke: #b0b0b0; stroke-width: 0.8"/>
    <path d="M 236.469121 278.963888 
L 318.045608 199.399289 
L 321.511074 90.375661 
" style="fill: none; stroke: #b0b0b0; stroke-width: 0.8"/>
    <path d="M 256.103012 285.376317 
L 336.514421 204.767444 
L 340.825364 95.271271 
" style="fill: none; stroke: #b0b0b0; stroke-width: 0.8"/>
   </g>
   <g id="xtick_1">
    <g id="line2d_2">
     <path d="M 142.92235 247.514259 
L 140.648964 249.467398 
" style="fill: none; stroke: #000000; stroke-width: 0.8; stroke-linecap: square"/>
    </g>
    <g id="text_1">
     <!-- −15 -->
     <g transform="translate(124.094181 271.542059) scale(0.1 -0.1)">
      <defs>
       <path id="DejaVuSans-2212" d="M 678 2272 
L 4684 2272 
L 4684 1741 
L 678 1741 
L 678 2272 
z
" transform="scale(0.015625)"/>
       <path id="DejaVuSans-31" d="M 794 531 
L 1825 531 
L 1825 4091 
L 703 3866 
L 703 4441 
L 1819 4666 
L 2450 4666 
L 2450 531 
L 3481 531 
L 3481 0 
L 794 0 
L 794 531 
z
" transform="scale(0.015625)"/>
       <path id="DejaVuSans-35" d="M 691 4666 
L 3169 4666 
L 3169 4134 
L 1269 4134 
L 1269 2991 
Q 1406 3038 1543 3061 
Q 1681 3084 1819 3084 
Q 2600 3084 3056 2656 
Q 3513 2228 3513 1497 
Q 3513 744 3044 326 
Q 2575 -91 1722 -91 
Q 1428 -91 1123 -41 
Q 819 9 494 109 
L 494 744 
Q 775 591 1075 516 
Q 1375 441 1709 441 
Q 2250 441 2565 725 
Q 2881 1009 2881 1497 
Q 2881 1984 2565 2268 
Q 2250 2553 1709 2553 
Q 1456 2553 1204 2497 
Q 953 2441 691 2322 
L 691 4666 
z
" transform="scale(0.015625)"/>
      </defs>
      <use xlink:href="#DejaVuSans-2212"/>
      <use xlink:href="#DejaVuSans-31" x="83.789062"/>
      <use xlink:href="#DejaVuSans-35" x="147.412109"/>
     </g>
    </g>
   </g>
   <g id="xtick_2">
    <g id="line2d_3">
     <path d="M 161.276369 253.502758 
L 159.027723 255.481799 
" style="fill: none; stroke: #000000; stroke-width: 0.8; stroke-linecap: square"/>
    </g>
    <g id="text_2">
     <!-- −10 -->
     <g transform="translate(142.475534 277.666336) scale(0.1 -0.1)">
      <defs>
       <path id="DejaVuSans-30" d="M 2034 4250 
Q 1547 4250 1301 3770 
Q 1056 3291 1056 2328 
Q 1056 1369 1301 889 
Q 1547 409 2034 409 
Q 2525 409 2770 889 
Q 3016 1369 3016 2328 
Q 3016 3291 2770 3770 
Q 2525 4250 2034 4250 
z
M 2034 4750 
Q 2819 4750 3233 4129 
Q 3647 3509 3647 2328 
Q 3647 1150 3233 529 
Q 2819 -91 2034 -91 
Q 1250 -91 836 529 
Q 422 1150 422 2328 
Q 422 3509 836 4129 
Q 1250 4750 2034 4750 
z
" transform="scale(0.015625)"/>
      </defs>
      <use xlink:href="#DejaVuSans-2212"/>
      <use xlink:href="#DejaVuSans-31" x="83.789062"/>
      <use xlink:href="#DejaVuSans-30" x="147.412109"/>
     </g>
    </g>
   </g>
   <g id="xtick_3">
    <g id="line2d_4">
     <path d="M 179.874345 259.570854 
L 177.651302 261.576317 
" style="fill: none; stroke: #000000; stroke-width: 0.8; stroke-linecap: square"/>
    </g>
    <g id="text_3">
     <!-- −5 -->
     <g transform="translate(164.283561 283.872384) scale(0.1 -0.1)">
      <use xlink:href="#DejaVuSans-2212"/>
      <use xlink:href="#DejaVuSans-35" x="83.789062"/>
     </g>
    </g>
   </g>
   <g id="xtick_4">
    <g id="line2d_5">
     <path d="M 198.721177 265.720147 
L 196.524626 267.752564 
" style="fill: none; stroke: #000000; stroke-width: 0.8; stroke-linecap: square"/>
    </g>
    <g id="text_4">
     <!-- 0 -->
     <g transform="translate(187.350554 290.16185) scale(0.1 -0.1)">
      <use xlink:href="#DejaVuSans-30"/>
     </g>
    </g>
   </g>
   <g id="xtick_5">
    <g id="line2d_6">
     <path d="M 217.821892 271.952276 
L 215.652753 274.012194 
" style="fill: none; stroke: #000000; stroke-width: 0.8; stroke-linecap: square"/>
    </g>
    <g id="text_5">
     <!-- 5 -->
     <g transform="translate(206.483157 296.536428) scale(0.1 -0.1)">
      <use xlink:href="#DejaVuSans-35"/>
     </g>
    </g>
   </g>
   <g id="xtick_6">
    <g id="line2d_7">
     <path d="M 237.181656 278.268926 
L 235.040878 280.356907 
" style="fill: none; stroke: #000000; stroke-width: 0.8; stroke-linecap: square"/>
    </g>
    <g id="text_6">
     <!-- 10 -->
     <g transform="translate(222.695185 302.997857) scale(0.1 -0.1)">
      <use xlink:href="#DejaVuSans-31"/>
      <use xlink:href="#DejaVuSans-30" x="63.623047"/>
     </g>
    </g>
   </g>
   <g id="xtick_7">
    <g id="line2d_8">
     <path d="M 256.805774 284.671829 
L 254.694337 286.788451 
" style="fill: none; stroke: #000000; stroke-width: 0.8; stroke-linecap: square"/>
    </g>
    <g id="text_7">
     <!-- 15 -->
     <g transform="translate(242.354501 309.547924) scale(0.1 -0.1)">
      <use xlink:href="#DejaVuSans-31"/>
      <use xlink:href="#DejaVuSans-35" x="63.623047"/>
     </g>
    </g>
   </g>
  </g>
  <g id="axis3d_2">
   <g id="line2d_9">
    <path d="M 352.090401 209.294766 
L 272.679269 290.790123 
" style="fill: none; stroke: #000000; stroke-width: 0.8; stroke-linecap: square"/>
   </g>
   <g id="Line3DCollection_2">
    <path d="M 131.111051 119.53742 
L 135.887554 231.332079 
L 284.190123 278.977155 
" style="fill: none; stroke: #b0b0b0; stroke-width: 0.8"/>
    <path d="M 149.688005 105.980805 
L 153.581862 216.500359 
L 300.215438 262.531239 
" style="fill: none; stroke: #b0b0b0; stroke-width: 0.8"/>
    <path d="M 167.629518 92.887906 
L 170.696659 202.154397 
L 315.688801 246.651762 
" style="fill: none; stroke: #b0b0b0; stroke-width: 0.8"/>
    <path d="M 184.967645 80.235331 
L 187.259954 188.270715 
L 330.638244 231.309956 
" style="fill: none; stroke: #b0b0b0; stroke-width: 0.8"/>
    <path d="M 201.732321 68.001234 
L 203.297983 174.827321 
L 345.089935 216.478966 
" style="fill: none; stroke: #b0b0b0; stroke-width: 0.8"/>
   </g>
   <g id="xtick_8">
    <g id="line2d_10">
     <path d="M 282.940786 278.575781 
L 286.692006 279.780933 
" style="fill: none; stroke: #000000; stroke-width: 0.8; stroke-linecap: square"/>
    </g>
    <g id="text_8">
     <!-- −20 -->
     <g transform="translate(286.437761 299.907432) scale(0.1 -0.1)">
      <defs>
       <path id="DejaVuSans-32" d="M 1228 531 
L 3431 531 
L 3431 0 
L 469 0 
L 469 531 
Q 828 903 1448 1529 
Q 2069 2156 2228 2338 
Q 2531 2678 2651 2914 
Q 2772 3150 2772 3378 
Q 2772 3750 2511 3984 
Q 2250 4219 1831 4219 
Q 1534 4219 1204 4116 
Q 875 4013 500 3803 
L 500 4441 
Q 881 4594 1212 4672 
Q 1544 4750 1819 4750 
Q 2544 4750 2975 4387 
Q 3406 4025 3406 3419 
Q 3406 3131 3298 2873 
Q 3191 2616 2906 2266 
Q 2828 2175 2409 1742 
Q 1991 1309 1228 531 
z
" transform="scale(0.015625)"/>
      </defs>
      <use xlink:href="#DejaVuSans-2212"/>
      <use xlink:href="#DejaVuSans-32" x="83.789062"/>
      <use xlink:href="#DejaVuSans-30" x="147.412109"/>
     </g>
    </g>
   </g>
   <g id="xtick_9">
    <g id="line2d_11">
     <path d="M 298.981252 262.143806 
L 302.686927 263.307083 
" style="fill: none; stroke: #000000; stroke-width: 0.8; stroke-linecap: square"/>
    </g>
    <g id="text_9">
     <!-- −10 -->
     <g transform="translate(302.248016 283.218154) scale(0.1 -0.1)">
      <use xlink:href="#DejaVuSans-2212"/>
      <use xlink:href="#DejaVuSans-31" x="83.789062"/>
      <use xlink:href="#DejaVuSans-30" x="147.412109"/>
     </g>
    </g>
   </g>
   <g id="xtick_10">
    <g id="line2d_12">
     <path d="M 314.46947 246.277556 
L 318.130488 247.401104 
" style="fill: none; stroke: #000000; stroke-width: 0.8; stroke-linecap: square"/>
    </g>
    <g id="text_10">
     <!-- 0 -->
     <g transform="translate(324.884507 267.104027) scale(0.1 -0.1)">
      <use xlink:href="#DejaVuSans-30"/>
     </g>
    </g>
   </g>
   <g id="xtick_11">
    <g id="line2d_13">
     <path d="M 329.433479 230.94831 
L 333.050713 232.034129 
" style="fill: none; stroke: #000000; stroke-width: 0.8; stroke-linecap: square"/>
    </g>
    <g id="text_11">
     <!-- 10 -->
     <g transform="translate(336.451484 251.535823) scale(0.1 -0.1)">
      <use xlink:href="#DejaVuSans-31"/>
      <use xlink:href="#DejaVuSans-30" x="63.623047"/>
     </g>
    </g>
   </g>
   <g id="xtick_12">
    <g id="line2d_14">
     <path d="M 343.899449 216.129259 
L 347.47376 217.179219 
" style="fill: none; stroke: #000000; stroke-width: 0.8; stroke-linecap: square"/>
    </g>
    <g id="text_12">
     <!-- 20 -->
     <g transform="translate(350.708386 236.486263) scale(0.1 -0.1)">
      <use xlink:href="#DejaVuSans-32"/>
      <use xlink:href="#DejaVuSans-30" x="63.623047"/>
     </g>
    </g>
   </g>
  </g>
  <g id="axis3d_3">
   <g id="line2d_15">
    <path d="M 352.090401 209.294766 
L 357.122702 99.402171 
" style="fill: none; stroke: #000000; stroke-width: 0.8; stroke-linecap: square"/>
   </g>
   <g id="Line3DCollection_3">
    <path d="M 352.625691 197.605394 
L 210.945976 156.986008 
L 122.620879 229.999747 
" style="fill: none; stroke: #b0b0b0; stroke-width: 0.8"/>
    <path d="M 353.250581 183.95938 
L 210.794071 143.775894 
L 121.947723 216.021215 
" style="fill: none; stroke: #b0b0b0; stroke-width: 0.8"/>
    <path d="M 353.88243 170.161426 
L 210.640554 130.425738 
L 121.266785 201.88109 
" style="fill: none; stroke: #b0b0b0; stroke-width: 0.8"/>
    <path d="M 354.521353 156.208979 
L 210.485402 116.9333 
L 120.577929 187.576553 
" style="fill: none; stroke: #b0b0b0; stroke-width: 0.8"/>
    <path d="M 355.16747 142.09943 
L 210.328587 103.296293 
L 119.881017 173.10472 
" style="fill: none; stroke: #b0b0b0; stroke-width: 0.8"/>
    <path d="M 355.820904 127.830111 
L 210.170084 89.512382 
L 119.175906 158.462639 
" style="fill: none; stroke: #b0b0b0; stroke-width: 0.8"/>
    <path d="M 356.481779 113.398293 
L 210.009863 75.579179 
L 118.462451 143.647289 
" style="fill: none; stroke: #b0b0b0; stroke-width: 0.8"/>
   </g>
   <g id="xtick_13">
    <g id="line2d_16">
     <path d="M 351.436343 197.264409 
L 355.007229 198.288178 
" style="fill: none; stroke: #000000; stroke-width: 0.8; stroke-linecap: square"/>
    </g>
    <g id="text_13">
     <!-- 10 -->
     <g transform="translate(364.596913 202.621672) scale(0.1 -0.1)">
      <use xlink:href="#DejaVuSans-31"/>
      <use xlink:href="#DejaVuSans-30" x="63.623047"/>
     </g>
    </g>
   </g>
   <g id="xtick_14">
    <g id="line2d_17">
     <path d="M 352.054401 183.621967 
L 355.645816 184.635017 
" style="fill: none; stroke: #000000; stroke-width: 0.8; stroke-linecap: square"/>
    </g>
    <g id="text_14">
     <!-- 15 -->
     <g transform="translate(365.321106 189.002741) scale(0.1 -0.1)">
      <use xlink:href="#DejaVuSans-31"/>
      <use xlink:href="#DejaVuSans-35" x="63.623047"/>
     </g>
    </g>
   </g>
   <g id="xtick_15">
    <g id="line2d_18">
     <path d="M 352.679339 169.827685 
L 356.291519 170.829714 
" style="fill: none; stroke: #000000; stroke-width: 0.8; stroke-linecap: square"/>
    </g>
    <g id="text_15">
     <!-- 20 -->
     <g transform="translate(366.053338 175.232632) scale(0.1 -0.1)">
      <use xlink:href="#DejaVuSans-32"/>
      <use xlink:href="#DejaVuSans-30" x="63.623047"/>
     </g>
    </g>
   </g>
   <g id="xtick_16">
    <g id="line2d_19">
     <path d="M 353.311271 155.879014 
L 356.944457 156.86971 
" style="fill: none; stroke: #000000; stroke-width: 0.8; stroke-linecap: square"/>
    </g>
    <g id="text_16">
     <!-- 25 -->
     <g transform="translate(366.793744 161.308815) scale(0.1 -0.1)">
      <use xlink:href="#DejaVuSans-32"/>
      <use xlink:href="#DejaVuSans-35" x="63.623047"/>
     </g>
    </g>
   </g>
   <g id="xtick_17">
    <g id="line2d_20">
     <path d="M 353.950315 141.773348 
L 357.604754 142.752392 
" style="fill: none; stroke: #000000; stroke-width: 0.8; stroke-linecap: square"/>
    </g>
    <g id="text_17">
     <!-- 30 -->
     <g transform="translate(367.54246 147.228702) scale(0.1 -0.1)">
      <defs>
       <path id="DejaVuSans-33" d="M 2597 2516 
Q 3050 2419 3304 2112 
Q 3559 1806 3559 1356 
Q 3559 666 3084 287 
Q 2609 -91 1734 -91 
Q 1441 -91 1130 -33 
Q 819 25 488 141 
L 488 750 
Q 750 597 1062 519 
Q 1375 441 1716 441 
Q 2309 441 2620 675 
Q 2931 909 2931 1356 
Q 2931 1769 2642 2001 
Q 2353 2234 1838 2234 
L 1294 2234 
L 1294 2753 
L 1863 2753 
Q 2328 2753 2575 2939 
Q 2822 3125 2822 3475 
Q 2822 3834 2567 4026 
Q 2313 4219 1838 4219 
Q 1578 4219 1281 4162 
Q 984 4106 628 3988 
L 628 4550 
Q 988 4650 1302 4700 
Q 1616 4750 1894 4750 
Q 2613 4750 3031 4423 
Q 3450 4097 3450 3541 
Q 3450 3153 3228 2886 
Q 3006 2619 2597 2516 
z
" transform="scale(0.015625)"/>
      </defs>
      <use xlink:href="#DejaVuSans-33"/>
      <use xlink:href="#DejaVuSans-30" x="63.623047"/>
     </g>
    </g>
   </g>
   <g id="xtick_18">
    <g id="line2d_21">
     <path d="M 354.596593 127.50802 
L 358.272533 128.475085 
" style="fill: none; stroke: #000000; stroke-width: 0.8; stroke-linecap: square"/>
    </g>
    <g id="text_18">
     <!-- 35 -->
     <g transform="translate(368.299629 132.989645) scale(0.1 -0.1)">
      <use xlink:href="#DejaVuSans-33"/>
      <use xlink:href="#DejaVuSans-35" x="63.623047"/>
     </g>
    </g>
   </g>
   <g id="xtick_19">
    <g id="line2d_22">
     <path d="M 355.250228 113.080306 
L 358.947924 114.035053 
" style="fill: none; stroke: #000000; stroke-width: 0.8; stroke-linecap: square"/>
    </g>
    <g id="text_19">
     <!-- 40 -->
     <g transform="translate(369.065393 118.588939) scale(0.1 -0.1)">
      <defs>
       <path id="DejaVuSans-34" d="M 2419 4116 
L 825 1625 
L 2419 1625 
L 2419 4116 
z
M 2253 4666 
L 3047 4666 
L 3047 1625 
L 3713 1625 
L 3713 1100 
L 3047 1100 
L 3047 0 
L 2419 0 
L 2419 1100 
L 313 1100 
L 313 1709 
L 2253 4666 
z
" transform="scale(0.015625)"/>
      </defs>
      <use xlink:href="#DejaVuSans-34"/>
      <use xlink:href="#DejaVuSans-30" x="63.623047"/>
     </g>
    </g>
   </g>
  </g>
  <g id="axes_1">
   <g id="line2d_23">
    <path d="M 225.635093 200.786221 
L 222.613812 203.365394 
L 218.84962 205.58266 
L 214.216462 207.32268 
L 208.587702 208.390621 
L 201.870837 208.478512 
L 194.067915 207.132165 
L 185.380477 203.74138 
L 176.352114 197.607684 
L 168.005349 188.171387 
L 161.847437 175.459456 
L 159.543634 160.616642 
L 162.20636 146.04967 
L 169.679348 134.667195 
L 180.475805 128.489245 
L 192.518105 127.76154 
L 204.03507 131.268628 
L 213.991605 137.302294 
L 222.025416 144.415878 
L 228.196085 151.675556 
L 232.761964 158.592869 
L 236.038607 164.965749 
L 238.328173 170.749145 
L 239.887673 175.970408 
L 240.921244 180.685077 
L 241.583215 184.95599 
L 241.985345 188.842476 
L 242.205568 192.396513 
L 242.289834 198.678739 
L 242.051627 204.078763 
L 241.526257 208.794191 
L 241.133515 210.944109 
L 240.628231 212.978424 
L 239.980981 214.913686 
L 239.1524 216.765814 
L 238.090462 218.55044 
L 236.726786 220.282298 
L 234.972252 221.973098 
L 232.710988 223.628243 
L 229.793177 225.239942 
L 226.028004 226.773973 
L 221.176539 228.146763 
L 214.953151 229.184041 
L 207.04223 229.553005 
L 197.157687 228.656968 
L 185.190344 225.499874 
L 171.503083 218.588272 
L 157.409339 206.091923 
L 145.649961 186.702411 
L 140.163472 161.444413 
L 144.258737 135.274798 
L 157.897432 115.52076 
L 177.19957 106.941698 
L 197.236315 108.78487 
L 214.788937 116.908022 
L 228.775125 127.281953 
L 239.366709 137.48922 
L 247.200191 146.524151 
L 252.97475 154.15549 
L 263.628569 169.814157 
L 266.314326 173.117924 
L 269.024179 175.621357 
L 271.933678 177.354343 
L 275.170581 178.309659 
L 278.817992 178.448903 
L 282.910955 177.712636 
L 287.423666 176.036471 
L 292.247574 173.378558 
L 297.168287 169.759782 
L 301.846587 165.316142 
L 305.822607 160.350973 
L 308.567953 155.353928 
L 309.592817 150.954057 
L 308.596029 147.778656 
L 305.59288 146.262446 
L 300.948129 146.501613 
L 295.278507 148.24785 
L 289.274302 151.045003 
L 283.532302 154.412381 
L 278.465491 157.972977 
L 274.295297 161.491154 
L 271.093156 164.846865 
L 268.836196 167.988858 
L 267.4561 170.893628 
L 266.872328 173.541201 
L 267.012994 175.902613 
L 267.824886 177.93443 
L 269.276477 179.578397 
L 271.355826 180.760103 
L 274.064769 181.38893 
L 277.408913 181.358314 
L 281.381411 180.549149 
L 285.94158 178.839748 
L 290.984821 176.126995 
L 296.305913 172.365013 
L 301.565482 167.622214 
L 306.27377 162.150419 
L 309.824639 156.432269 
L 311.599219 151.161926 
L 311.140829 147.109492 
L 308.338318 144.883261 
L 303.513491 144.708529 
L 297.342592 146.36264 
L 290.640581 149.317659 
L 284.139756 152.979417 
L 278.352537 156.874796 
L 273.55284 160.714024 
L 269.826163 164.36029 
L 267.139179 167.768172 
L 265.401882 170.929171 
L 264.510381 173.838129 
L 264.371414 176.479245 
L 264.915205 178.820164 
L 266.099515 180.811886 
L 267.908887 182.388461 
L 270.349794 183.465839 
L 273.443536 183.940854 
L 277.213752 183.690059 
L 281.668302 182.572722 
L 286.772154 180.442073 
L 292.410062 177.171742 
L 298.3396 172.705898 
L 304.147962 167.134743 
L 309.232243 160.786872 
L 312.850559 154.288306 
L 314.271653 148.519355 
L 313.013846 144.406063 
L 309.071419 142.590703 
L 302.981143 143.170831 
L 295.651783 145.698126 
L 288.059011 149.440683 
L 280.984639 153.701297 
L 274.903965 158.003935 
L 270.014495 162.10846 
L 266.320948 165.937439 
L 263.725442 169.490498 
L 262.092762 172.786771 
L 261.290791 175.836257 
L 261.211521 178.630323 
L 261.779551 181.140894 
L 262.953706 183.32271 
L 264.724919 185.113552 
L 267.111322 186.432716 
L 270.152571 187.178539 
L 273.898861 187.223947 
L 278.39642 186.414833 
L 283.662551 184.573886 
L 289.647599 181.518395 
L 296.181673 177.102637 
L 302.910515 171.296377 
L 309.239509 164.302488 
L 314.335591 156.678296 
L 317.243414 149.380358 
L 317.156907 143.603888 
L 313.765408 140.384093 
L 307.473016 140.139942 
L 299.295606 142.49883 
L 290.475498 146.560794 
L 282.076041 151.368536 
L 274.766669 156.241929 
L 268.832474 160.843698 
L 264.287175 165.082581 
L 261.000247 168.984572 
L 258.788447 172.604612 
L 257.470186 175.98476 
L 256.893019 179.141815 
L 256.944061 182.06873 
L 257.551489 184.740044 
L 258.682125 187.115483 
L 260.337689 189.14114 
L 262.550984 190.747401 
L 265.380586 191.843568 
L 268.906102 192.311971 
L 273.217892 191.999826 
L 278.399495 190.713996 
L 284.498982 188.222833 
L 291.475416 184.278448 
L 299.126968 178.673348 
L 306.991341 171.358887 
L 314.264059 162.624477 
L 319.803693 153.287463 
L 322.334343 144.734669 
L 320.889015 138.609777 
L 315.326027 136.122138 
L 306.536715 137.409604 
L 296.098333 141.520111 
L 285.612725 147.048464 
L 276.211383 152.834728 
L 268.434481 158.256025 
L 262.372105 163.135532 
L 257.865726 167.526563 
L 254.657771 171.548933 
L 252.482285 175.305568 
L 251.106489 178.859827 
L 250.346132 182.238895 
L 250.066584 185.444772 
L 250.177831 188.465911 
L 250.628231 191.282755 
L 251.398525 193.871326 
L 252.497593 196.203475 
L 253.959601 198.244092 
L 255.843034 199.947375 
L 258.231109 201.250835 
L 261.231931 202.066573 
L 264.978452 202.270545 
L 269.625018 201.68857 
L 275.333545 200.081357 
L 282.246306 197.133305 
L 290.425478 192.45987 
L 299.750573 185.660461 
L 309.759217 176.465561 
L 319.458457 165.027453 
L 327.228571 152.317113 
L 331.043473 140.373655 
L 329.207506 131.907376 
L 321.383942 128.989282 
L 309.068082 131.694179 
L 294.872879 138.116668 
L 281.218138 145.804512 
L 269.529786 153.080836 
L 260.253379 159.324432 
L 253.236257 164.580695 
L 248.076539 169.126668 
L 244.325345 173.230666 
L 241.577094 177.074471 
L 239.496675 180.756613 
L 237.819674 184.317718 
L 234.896992 191.09437 
L 233.356339 194.290901 
L 231.601672 197.340796 
L 229.520883 200.226855 
L 226.998198 202.9238 
L 223.90739 205.390453 
L 220.107706 207.557011 
L 215.446991 209.304519 
L 209.771748 210.437473 
L 202.957611 210.645652 
L 194.9676 209.462788 
L 185.959908 206.24335 
L 176.441646 200.211738 
L 167.438993 190.680207 
L 160.545288 177.523848 
L 157.616977 161.810243 
L 159.999108 146.072907 
L 167.661188 133.556256 
L 179.035731 126.623482 
L 191.828905 125.638823 
L 204.073249 129.270334 
L 214.630581 135.610781 
L 223.121269 143.058835 
L 229.631107 150.604327 
L 234.453605 157.733999 
L 237.940249 164.249727 
L 240.423038 170.117571 
L 242.183426 175.374875 
L 243.4472 180.087225 
L 245.134698 188.138636 
L 246.42103 194.714663 
L 247.097629 197.542959 
L 247.872136 200.094559 
L 248.798305 202.378145 
L 249.934623 204.393144 
L 251.348673 206.126467 
L 253.122273 207.550312 
L 255.355983 208.616963 
L 258.174799 209.251771 
L 261.731291 209.341525 
L 266.207872 208.719117 
L 271.810332 207.143476 
L 278.749272 204.277516 
L 287.189976 199.675256 
L 297.151127 192.805814 
L 308.325574 183.172009 
L 319.820509 170.61179 
L 329.919708 155.818911 
L 336.124358 140.90882 
L 335.906004 129.322376 
L 328.160525 124.311233 
L 314.300464 126.675711 
L 297.627287 134.145132 
L 281.42219 143.300891 
L 267.622255 151.747508 
L 256.779391 158.660171 
L 248.645418 164.17912 
L 242.674652 168.742219 
L 238.287592 172.743224 
L 234.977561 176.435528 
L 232.333859 179.94768 
L 227.825323 186.565775 
L 225.50895 189.638171 
L 222.918977 192.49562 
L 219.912178 195.07349 
L 216.35989 197.283206 
L 212.148498 198.999138 
L 207.188108 200.042098 
L 201.437382 200.160363 
L 194.946713 199.017961 
L 187.921317 196.205695 
L 180.799674 191.304185 
L 174.316503 184.039486 
L 169.469635 174.531749 
L 167.321055 163.55657 
L 168.616723 152.600539 
L 173.39736 143.490936 
L 180.89503 137.693707 
L 189.83694 135.74572 
L 198.941315 137.222576 
L 207.265549 141.15582 
L 214.306818 146.514647 
L 219.90995 152.484273 
L 224.137369 158.535127 
L 227.152445 164.370987 
L 229.1461 169.851231 
L 230.296731 174.92927 
L 230.749099 179.607061 
L 230.607399 183.906929 
L 229.935301 187.858344 
L 228.758243 191.487731 
L 227.067024 194.811471 
L 224.820825 197.830678 
L 221.951063 200.522731 
L 218.366018 202.830894 
L 213.957675 204.649049 
L 208.620482 205.798062 
L 202.2801 205.999472 
L 194.947918 204.848316 
L 186.813985 201.808855 
L 178.361956 196.273795 
L 170.489622 187.757967 
L 164.510633 176.263377 
L 161.900193 162.721291 
L 163.719784 149.155769 
L 169.992195 138.12071 
L 179.561183 131.572129 
L 190.625562 130.013814 
L 201.516927 132.588447 
L 211.153039 137.833762 
L 219.070901 144.389534 
L 225.234008 151.307051 
L 229.826842 158.042901 
L 233.119284 164.345148 
L 235.383376 170.12914 
L 236.857239 175.396618 
L 237.731507 180.187654 
L 238.148442 184.555857 
L 238.206606 188.556436 
L 237.967321 192.23985 
L 237.460943 195.650503 
L 236.691587 198.826439 
L 235.640238 201.798895 
L 234.265881 204.592457 
L 232.50509 207.223584 
L 230.270914 209.696955 
L 227.449036 212.001304 
L 223.895682 214.097828 
L 219.437813 215.902158 
L 213.87794 217.256028 
L 207.013732 217.882618 
L 198.688578 217.324839 
L 188.895328 214.878904 
L 177.958454 209.569114 
L 166.798015 200.281439 
L 157.164583 186.248448 
L 151.525127 167.974949 
L 152.196629 148.115394 
L 159.905689 131.073408 
L 173.014182 120.756664 
L 188.438013 118.307978 
L 203.358227 122.086322 
L 216.168531 129.393635 
L 226.383915 137.973873 
L 234.167683 146.479135 
L 239.945505 154.295518 
L 244.194002 161.232716 
L 247.351185 167.298439 
L 253.604362 181.086844 
L 255.411216 184.465442 
L 257.36571 187.307532 
L 259.602786 189.617338 
L 262.248642 191.368815 
L 265.427085 192.501289 
L 269.262899 192.91472 
L 273.876185 192.463425 
L 279.368241 190.952928 
L 285.791069 188.144924 
L 293.08747 183.787515 
L 301.013753 177.683998 
L 309.032062 169.832618 
L 316.234836 160.625399 
L 321.37843 151.039796 
L 323.148593 142.63053 
L 320.677719 137.092013 
L 314.057923 135.484894 
L 304.441486 137.653756 
L 293.55005 142.399572 
L 282.968328 148.247938 
L 273.712489 154.116488 
L 266.196781 159.499686 
L 260.421519 164.305891 
L 256.173959 168.632579 
L 253.173476 172.611557 
L 251.147001 176.344471 
L 249.863092 179.889519 
L 249.141979 183.268989 
L 248.853282 186.483554 
L 248.910046 189.521789 
L 249.261517 192.366867 
L 249.887006 194.99942 
L 250.791349 197.397375 
L 252.002279 199.534396 
L 253.569691 201.376644 
L 255.565623 202.877209 
L 258.086906 203.970309 
L 261.255414 204.560883 
L 265.219552 204.512933 
L 270.15002 203.633446 
L 276.225135 201.655279 
L 283.596549 198.225411 
L 292.321288 192.914398 
L 302.23738 185.284302 
L 312.773138 175.076438 
L 322.74357 162.559627 
L 330.266611 148.995459 
L 333.106986 136.841984 
L 329.622377 129.093858 
L 319.900706 127.634106 
L 306.013552 131.899518 
L 290.914774 139.402699 
L 276.990636 147.547133 
L 265.430962 154.848463 
L 256.450677 160.930569 
L 249.746097 165.994674 
L 244.837163 170.380732 
L 241.243093 174.366081 
L 238.548336 178.12179 
L 236.41669 181.732415 
L 231.033316 191.840843 
L 229.005643 194.92153 
L 226.632956 197.812532 
L 223.788335 200.47054 
L 220.340725 202.830992 
L 216.155042 204.791899 
L 211.097856 206.193065 
L 205.05961 206.787028 
L 197.996061 206.208349 
L 190.004321 203.953271 
L 181.434747 199.404502 
L 173.025597 191.965755 
L 165.972534 181.370903 
L 161.790273 168.144808 
L 161.834443 153.957942 
L 166.603873 141.364634 
L 175.331606 132.782276 
L 186.304655 129.34 
L 197.662745 130.591666 
L 208.045091 135.139795 
L 216.769222 141.47519 
L 223.672292 148.453678 
L 228.891816 155.384876 
L 232.690395 161.924454 
L 235.356213 167.942546 
L 237.150689 173.420136 
L 238.289957 178.392509 
L 238.939408 182.912127 
L 239.218692 187.036523 
L 239.208024 190.819924 
L 238.955189 194.310779 
L 238.481519 197.550395 
L 237.786129 200.574259 
L 236.848552 203.411731 
L 235.629027 206.087683 
L 234.068659 208.619481 
L 232.085833 211.017929 
L 229.574039 213.2807 
L 226.397513 215.385289 
L 222.387984 217.274737 
L 217.346098 218.833266 
L 211.050152 219.848283 
L 203.289299 219.951908 
L 193.937964 218.545688 
L 183.105152 214.732486 
L 171.380722 207.336802 
L 160.154009 195.20125 
L 151.757268 177.970058 
L 148.985439 157.257354 
L 153.687959 137.138399 
L 165.296079 122.549132 
L 180.923898 116.323335 
L 197.161474 117.818786 
L 211.66831 124.288993 
L 223.495791 132.931417 
L 232.620483 141.885803 
L 239.440177 150.232993 
L 244.469158 157.648051 
L 248.201508 164.09716 
L 253.388212 174.422575 
L 255.459952 178.490171 
L 257.49135 181.923172 
L 259.6582 184.758321 
L 262.10961 187.001016 
L 264.978725 188.623073 
L 268.390308 189.560073 
L 272.458652 189.706831 
L 277.282349 188.916187 
L 282.922397 187.001767 
L 289.365232 183.755261 
L 296.461992 178.992368 
L 303.850903 172.643419 
L 310.883916 164.895272 
L 316.610353 156.354493 
L 319.900869 148.130371 
L 319.780459 141.651018 
L 315.868495 138.164725 
L 308.66432 138.141538 
L 299.406459 141.059524 
L 289.570783 145.776349 
L 280.358825 151.150361 
L 272.47212 156.433174 
L 266.158102 161.305844 
L 261.368047 165.7275 
L 257.911481 169.770863 
L 255.555809 173.524366 
L 254.083186 177.049892 
L 253.314483 180.376082 
L 253.116304 183.506288 
L 253.400332 186.424687 
L 254.118537 189.10436 
L 255.258625 191.509609 
L 256.840011 193.59509 
L 258.910448 195.302105 
L 261.544752 196.553652 
L 264.841672 197.245295 
L 268.919158 197.235268 
L 273.905438 196.333303 
L 279.916144 194.292075 
L 287.013208 190.810612 
L 295.133053 185.566755 
L 303.97584 178.308882 
L 312.867655 169.040498 
L 320.656407 158.296638 
L 325.777677 147.395493 
L 326.661189 138.3546 
L 322.449824 133.206341 
L 313.622847 132.896923 
L 301.909871 136.717682 
L 289.466229 142.873557 
L 277.987894 149.610597 
L 268.362912 155.893651 
L 260.798418 161.401463 
L 255.11487 166.209154 
L 250.978639 170.512274 
L 248.033805 174.487376 
L 245.964024 178.249636 
L 244.51164 181.858923 
L 243.477863 185.33759 
L 242.714008 188.687697 
L 239.918851 203.379812 
L 239.180177 205.914285 
L 238.273265 208.331399 
L 237.142566 210.642448 
L 235.719955 212.858457 
L 233.919982 214.987502 
L 231.635011 217.030234 
L 228.728216 218.973956 
L 225.028688 220.779263 
L 220.327261 222.35915 
L 214.379193 223.543232 
L 206.925622 224.020349 
L 197.748185 223.255925 
L 186.79255 220.391525 
L 174.416707 214.18961 
L 161.750358 203.187937 
L 151.041137 186.369946 
L 145.478906 164.505845 
L 147.879471 141.366957 
L 158.63694 122.804435 
L 175.020648 113.251503 
L 192.966763 113.000416 
L 209.373761 119.135042 
L 222.865589 128.198316 
L 233.300708 137.786934 
L 241.104427 146.700911 
L 246.865293 154.525069 
L 246.865293 154.525069 
" clip-path="url(#p68519c1155)" style="fill: none; stroke: #0000cc; stroke-linecap: square"/>
   </g>
   <g id="line2d_24">
    <path d="M 225.635045 200.78627 
L 222.613783 203.365437 
L 218.849741 205.582638 
L 214.216572 207.322695 
L 208.587923 208.390649 
L 201.87087 208.478564 
L 194.0681 207.132254 
L 185.380919 203.741619 
L 176.352375 197.607854 
L 168.005635 188.171593 
L 161.847746 175.459681 
L 159.543973 160.617119 
L 162.206686 146.050068 
L 169.679656 134.667601 
L 180.47602 128.489693 
L 192.517855 127.761946 
L 204.034595 131.268867 
L 213.990969 137.302369 
L 222.024623 144.41578 
L 228.195347 151.675535 
L 232.761089 158.592691 
L 236.03779 164.965788 
L 238.327279 170.749184 
L 239.886667 175.970351 
L 240.920175 180.685201 
L 241.582029 184.9562 
L 241.983993 188.842605 
L 242.20403 192.396722 
L 242.287763 198.679018 
L 242.048712 204.079306 
L 241.521997 208.795064 
L 241.128312 210.945159 
L 240.621814 212.979758 
L 239.973051 214.915259 
L 239.142521 216.767731 
L 238.078041 218.552828 
L 236.711169 220.285112 
L 234.952539 221.976336 
L 232.68598 223.631848 
L 229.761482 225.243604 
L 225.987632 226.777161 
L 221.125445 228.148207 
L 214.888578 229.18151 
L 206.961428 229.542368 
L 197.059295 228.631202 
L 185.075376 225.447951 
L 171.37877 218.495077 
L 157.294491 205.943057 
L 145.575119 186.49484 
L 140.163775 161.206955 
L 144.349305 135.067051 
L 158.056418 115.402254 
L 177.38094 106.927442 
L 197.401456 108.844376 
L 214.922225 117.000636 
L 228.874432 127.378925 
L 239.438033 137.578087 
L 247.249305 146.60025 
L 253.00833 154.219873 
L 263.641288 169.852294 
L 266.325978 173.149892 
L 269.036473 175.647603 
L 271.948111 177.375135 
L 275.188103 178.324801 
L 278.839456 178.457988 
L 282.936827 177.714995 
L 287.453632 176.031483 
L 292.281224 173.365548 
L 297.204225 169.738517 
L 301.88204 165.287583 
L 305.854184 160.317042 
L 308.591229 155.318639 
L 309.603961 150.921955 
L 308.592453 147.754567 
L 305.574548 146.249708 
L 300.917344 146.500939 
L 295.239325 148.257676 
L 289.231383 151.062398 
L 283.489713 154.434278 
L 278.426084 157.996993 
L 274.260594 161.515872 
L 271.063779 164.87155 
L 268.812324 168.012958 
L 267.437343 170.917089 
L 266.858299 173.563933 
L 267.00334 175.924226 
L 267.819348 177.954777 
L 269.274894 179.59706 
L 271.358233 180.776642 
L 274.071308 181.402753 
L 277.419559 181.368717 
L 281.396459 180.555325 
L 285.961223 178.84072 
L 291.008723 176.121859 
L 296.33333 172.353013 
L 301.594534 167.603452 
L 306.302136 162.125522 
L 309.848695 156.403675 
L 311.615054 151.133573 
L 311.145244 147.085448 
L 308.32986 144.867566 
L 303.493388 144.702924 
L 297.313336 146.366589 
L 290.606589 149.328734 
L 284.10413 152.995211 
L 278.318106 156.893071 
L 273.52148 160.733185 
L 269.798421 164.379758 
L 267.115188 167.78767 
L 265.381535 170.948424 
L 264.493233 173.85728 
L 264.357113 176.498159 
L 264.903445 178.838822 
L 266.090108 180.830161 
L 267.901657 182.40609 
L 270.344879 183.482651 
L 273.441049 183.956494 
L 277.21392 183.704098 
L 281.671451 182.584608 
L 286.778737 180.451056 
L 292.420329 177.176966 
L 298.353802 172.70625 
L 304.165163 167.12985 
L 309.251332 160.776435 
L 312.869333 154.273219 
L 314.287238 148.501839 
L 313.023356 144.38906 
L 309.073266 142.577442 
L 302.974605 143.163094 
L 295.638033 145.696286 
L 288.040508 149.443584 
L 280.963099 153.707726 
L 274.881491 158.012381 
L 269.992062 162.118196 
L 266.299242 165.947953 
L 263.704624 169.501679 
L 262.072773 172.79865 
L 261.271463 175.848862 
L 261.192583 178.643661 
L 261.760722 181.155204 
L 262.934722 183.338108 
L 264.705459 185.130124 
L 267.091369 186.450782 
L 270.131882 187.19826 
L 273.877602 187.245596 
L 278.374889 186.438605 
L 283.641264 184.599883 
L 289.627589 181.546418 
L 296.16458 177.131902 
L 302.89824 171.32552 
L 309.234763 164.328704 
L 314.340306 156.698542 
L 317.258694 149.391052 
L 317.181459 143.603145 
L 313.795777 140.372929 
L 307.50399 140.121665 
L 299.322136 142.47815 
L 290.495074 146.541207 
L 282.086968 151.35226 
L 274.769616 156.229165 
L 268.828249 160.834227 
L 264.277216 165.075664 
L 260.985705 168.979661 
L 258.770029 172.601586 
L 257.448376 175.983611 
L 256.868007 179.142602 
L 256.91573 182.071751 
L 257.519495 184.745708 
L 258.645974 187.124428 
L 260.296769 189.154126 
L 262.504312 190.765203 
L 265.327449 191.867499 
L 268.845589 192.343524 
L 273.14918 192.040907 
L 278.322685 190.766753 
L 284.414415 188.289717 
L 291.386248 184.36092 
L 299.037955 178.771775 
L 306.911192 171.46998 
L 314.205087 162.7394 
L 319.779808 153.391066 
L 322.356289 144.808933 
L 320.958952 138.639373 
L 315.434118 136.104276 
L 306.662894 137.355242 
L 296.221309 141.447963 
L 285.718209 146.97432 
L 276.291885 152.767685 
L 268.488911 158.198691 
L 262.403696 163.086379 
L 257.878054 167.483756 
L 254.654616 171.5107 
L 252.46656 175.271079 
L 251.080344 178.828761 
L 250.310859 182.211239 
L 250.022609 185.421166 
L 250.1249 188.44686 
L 250.565408 191.269116 
L 251.324266 193.864274 
L 252.409635 196.204336 
L 253.855016 198.254811 
L 255.718198 199.970648 
L 258.081436 201.290238 
L 261.052124 202.127151 
L 264.762567 202.359186 
L 269.366331 201.814637 
L 275.026462 200.25713 
L 281.887494 197.374088 
L 290.018482 192.782143 
L 299.310927 186.077534 
L 309.321563 176.978358 
L 319.084537 165.607345 
L 327.00361 152.890399 
L 331.0519 140.826817 
L 329.489955 132.126906 
L 321.899527 128.934979 
L 309.704268 131.42875 
L 295.505135 137.758256 
L 281.761566 145.451119 
L 269.951133 152.77735 
L 260.554956 159.074763 
L 253.436672 164.371386 
L 248.198115 168.94258 
L 244.388573 173.060674 
L 241.59831 176.912473 
L 239.488347 180.599731 
L 237.79072 184.165038 
L 234.842822 190.950485 
L 233.293953 194.151594 
L 231.532271 197.206082 
L 229.445122 200.096035 
L 226.91627 202.795802 
L 223.819252 205.263717 
L 220.013907 207.429034 
L 215.348242 209.172287 
L 209.670109 210.296998 
L 202.856754 210.49222 
L 194.874813 209.291616 
L 185.885625 206.051192 
L 176.40065 200.000292 
L 167.448241 190.461243 
L 160.617623 177.323373 
L 157.751422 161.665885 
L 160.174094 146.017409 
L 167.839456 133.599323 
L 179.181522 126.742524 
L 191.922209 125.795358 
L 204.109602 129.430311 
L 214.617357 135.75498 
L 223.069002 143.181546 
L 229.548204 150.706037 
L 234.347313 157.819193 
L 237.815066 164.323102 
L 240.281057 170.18295 
L 242.025299 175.436784 
L 243.2714 180.148315 
L 244.913545 188.206567 
L 246.131006 194.801194 
L 246.75989 197.644703 
L 247.474528 200.216321 
L 248.325806 202.527166 
L 249.368195 204.578614 
L 250.664473 206.361117 
L 252.290394 207.851767 
L 254.339505 209.010126 
L 256.928106 209.771663 
L 260.199859 210.037871 
L 264.328685 209.662087 
L 269.51681 208.430401 
L 275.981493 206.039007 
L 283.918321 202.075019 
L 293.420839 196.021271 
L 304.329511 187.331581 
L 315.993053 175.657489 
L 326.989117 161.308224 
L 335.013851 145.869634 
L 337.347614 132.466977 
L 332.154457 124.771738 
L 319.934713 124.705756 
L 303.585822 130.917016 
L 286.694186 139.992136 
L 271.767265 148.959275 
L 259.785467 156.471756 
L 250.694566 162.438252 
L 243.992914 167.269072 
L 239.082456 171.405789 
L 235.417521 175.158013 
L 232.548129 178.695579 
L 225.535491 188.438652 
L 222.986671 191.326656 
L 220.058125 193.944997 
L 216.618622 196.208081 
L 212.553486 197.996636 
L 207.77217 199.142179 
L 202.228909 199.409804 
L 195.960977 198.486027 
L 189.147285 195.98651 
L 182.181213 191.50994 
L 175.730245 184.77127 
L 170.722303 175.826957 
L 168.180787 165.326044 
L 168.885801 154.599605 
L 172.995665 145.376493 
L 179.894262 139.154153 
L 188.418683 136.615492 
L 197.312799 137.504336 
L 205.599547 140.962396 
L 212.71321 145.992231 
L 218.443517 151.763818 
L 222.811708 157.712189 
L 225.957034 163.50757 
L 228.058477 168.985097 
L 229.288996 174.08022 
L 229.792494 178.782926 
L 229.674617 183.108978 
L 229.001089 187.08269 
L 227.799616 190.72633 
L 226.063075 194.052646 
L 223.753052 197.05799 
L 220.803819 199.714047 
L 217.12798 201.956358 
L 212.626358 203.668043 
L 207.206637 204.65788 
L 200.81767 204.634658 
L 193.50832 203.186525 
L 185.51763 199.788352 
L 177.388705 193.881899 
L 170.060282 185.088483 
L 164.828915 173.574274 
L 163.048226 160.430006 
L 165.563937 147.703068 
L 172.193847 137.761281 
L 181.710036 132.243037 
L 192.400881 131.401867 
L 202.759066 134.317831 
L 211.842831 139.612741 
L 219.265688 146.052005 
L 225.016531 152.786384 
L 229.278058 159.333539 
L 232.30235 165.467287 
L 234.340973 171.111703 
L 235.611701 176.268499 
L 236.286492 180.974539 
L 236.490595 185.279205 
L 236.306668 189.233104 
L 235.780355 192.882755 
L 234.925411 196.268186 
L 233.727455 199.421665 
L 232.146048 202.366383 
L 230.115164 205.114094 
L 227.542464 207.660602 
L 224.308195 209.977601 
L 220.265357 211.998743 
L 215.244367 213.597061 
L 209.068348 214.550511 
L 201.590026 214.494165 
L 192.76776 212.865712 
L 182.802173 208.873903 
L 172.341022 201.567383 
L 162.694929 190.142266 
L 155.862493 174.604183 
L 154.037303 156.581702 
L 158.513428 139.476359 
L 168.693319 127.128181 
L 182.265114 121.697031 
L 196.499057 122.750743 
L 209.426264 128.210962 
L 220.142618 135.832153 
L 228.519593 144.013093 
L 234.824263 151.880048 
L 239.462467 159.065025 
L 242.847072 165.474668 
L 245.34262 171.138869 
L 247.249184 176.130491 
L 250.196348 184.399618 
L 251.572055 187.797153 
L 253.055163 190.75351 
L 254.755266 193.281248 
L 256.778253 195.370649 
L 259.234296 196.986423 
L 262.243657 198.062372 
L 265.939487 198.493603 
L 270.465609 198.126502 
L 275.965312 196.748225 
L 282.554272 194.08109 
L 290.26726 189.794436 
L 298.966829 183.558298 
L 308.210033 175.175844 
L 317.100963 164.825935 
L 324.226235 153.379046 
L 327.851782 142.578606 
L 326.523253 134.708398 
L 319.886643 131.573325 
L 309.099838 133.406903 
L 296.335238 138.780345 
L 283.741308 145.648298 
L 272.711466 152.460241 
L 263.79319 158.519912 
L 256.960098 163.748008 
L 251.911201 168.327645 
L 248.266674 172.476195 
L 245.665519 176.355123 
L 243.803006 180.057927 
L 242.437579 183.627056 
L 241.384244 187.07489 
L 238.852503 196.661073 
L 237.925903 199.592129 
L 236.839999 202.392047 
L 235.524736 205.064945 
L 233.901511 207.614609 
L 231.877288 210.040982 
L 229.338881 212.334618 
L 226.147657 214.467662 
L 222.135696 216.379024 
L 217.106143 217.950208 
L 210.843587 218.967184 
L 203.146069 219.064098 
L 193.899114 217.651088 
L 183.221376 213.851306 
L 171.705591 206.528563 
L 160.715182 194.579132 
L 152.517131 177.692636 
L 149.804715 157.455212 
L 154.355717 137.796976 
L 165.633466 123.473655 
L 180.879423 117.245565 
L 196.793708 118.559235 
L 211.07732 124.802352 
L 222.767258 133.25818 
L 231.811347 142.093051 
L 238.581019 150.381134 
L 243.572171 157.782193 
L 247.266202 164.247959 
L 250.078491 169.845511 
L 254.3427 178.812671 
L 256.276896 182.337305 
L 258.323389 185.284558 
L 260.629318 187.664771 
L 263.327213 189.45655 
L 266.542542 190.603446 
L 270.396122 191.009618 
L 274.999234 190.53563 
L 280.437772 188.997645 
L 286.740174 186.177032 
L 293.823363 181.85306 
L 301.414867 175.877122 
L 308.963798 168.305016 
L 315.584448 159.57717 
L 320.11715 150.666123 
L 321.39786 143.018625 
L 318.722618 138.131704 
L 312.271905 136.873031 
L 303.144601 139.030567 
L 292.906322 143.512866 
L 282.980861 149.014836 
L 274.285852 154.576733 
L 267.207632 159.735988 
L 261.759847 164.392506 
L 257.761614 168.615673 
L 254.964545 172.511788 
L 253.124221 176.164187 
L 252.033044 179.619185 
L 251.530976 182.891813 
L 251.50531 185.976156 
L 251.885965 188.853809 
L 252.639826 191.4987 
L 253.765846 193.878431 
L 255.291566 195.952779 
L 257.271129 197.669813 
L 259.784354 198.959784 
L 262.935989 199.726676 
L 266.853436 199.837299 
L 271.679919 199.108439 
L 277.557788 197.294519 
L 284.593283 194.082838 
L 292.790421 189.112506 
L 301.941309 182.047388 
L 311.473234 172.745782 
L 320.297324 161.552539 
L 326.790434 149.636333 
L 329.118685 139.079359 
L 325.998325 132.29577 
L 317.538764 130.783617 
L 305.410692 134.158686 
L 292.029069 140.515048 
L 279.444401 147.745187 
L 268.790969 154.518463 
L 260.379733 160.38463 
L 254.036987 165.41295 
L 249.391729 169.841342 
L 246.040861 173.89069 
L 243.622921 177.708151 
L 241.841304 181.37179 
L 240.463647 184.913064 
L 237.161152 194.82011 
L 235.959935 197.865214 
L 234.557011 200.774649 
L 232.864036 203.545198 
L 230.783606 206.170194 
L 228.202857 208.633651 
L 224.988201 210.900957 
L 220.982285 212.904104 
L 216.005867 214.518515 
L 209.870239 215.527869 
L 202.410876 215.574614 
L 193.559992 214.101119 
L 183.481234 210.308292 
L 172.779269 203.206832 
L 162.736028 191.904512 
L 155.377418 176.270765 
L 153.019387 157.818971 
L 157.144896 139.984333 
L 167.289046 126.836942 
L 181.115032 120.810013 
L 195.753861 121.588486 
L 209.100505 127.032857 
L 220.178054 134.771851 
L 228.839635 143.105125 
L 235.360996 151.107724 
L 240.165187 158.394201 
L 243.682747 164.869929 
L 246.293785 170.568816 
L 253.04363 187.113316 
L 254.717398 189.976576 
L 256.648827 192.376557 
L 258.951886 194.29404 
L 261.744363 195.680343 
L 265.152375 196.451267 
L 269.310401 196.479 
L 274.353899 195.583134 
L 280.399201 193.524652 
L 287.502498 190.011998 
L 295.587801 184.737452 
L 304.337706 177.473027 
L 313.06112 168.256804 
L 320.601753 157.662186 
L 325.422984 147.024028 
L 326.021106 138.329754 
L 321.629946 133.513789 
L 312.789328 133.415384 
L 301.219844 137.2827 
L 289.010081 143.363844 
L 277.783897 149.981558 
L 268.381746 156.157633 
L 260.996892 161.58984 
L 255.452587 166.350401 
L 251.424299 170.625296 
L 248.567574 174.581355 
L 246.576356 178.327252 
L 245.202035 181.918595 
L 244.253364 185.375687 
L 243.588412 188.70013 
L 242.726847 194.92809 
L 241.762982 203.168493 
L 240.938752 207.966061 
L 240.38661 210.182808 
L 239.696315 212.294496 
L 238.824865 214.314707 
L 237.71785 216.257339 
L 236.305504 218.135467 
L 234.49788 219.959219 
L 232.179027 221.73178 
L 229.200239 223.441999 
L 225.373087 225.050944 
L 220.464318 226.468057 
L 214.197839 227.510104 
L 206.275513 227.833849 
L 196.440705 226.835046 
L 184.627513 223.524175 
L 171.253352 216.452298 
L 157.671604 203.907648 
L 146.579818 184.782634 
L 141.715597 160.283071 
L 146.071549 135.269265 
L 159.437913 116.606607 
L 178.092076 108.603057 
L 197.412781 110.467272 
L 214.376691 118.322409 
L 214.376691 118.322409 
" clip-path="url(#p68519c1155)" style="fill: none; stroke: #ff0000; stroke-linecap: square"/>
   </g>
  </g>
 </g>
 <defs>
  <clipPath id="p68519c1155">
   <rect x="103.104" y="41.472" width="266.112" height="266.112"/>
  </clipPath>
 </defs>
</svg>
