<?xml version="1.0" encoding="utf-8" standalone="no"?>
<!DOCTYPE svg PUBLIC "-//W3C//DTD SVG 1.1//EN"
  "http://www.w3.org/Graphics/SVG/1.1/DTD/svg11.dtd">
<svg xmlns:xlink="http://www.w3.org/1999/xlink" width="460.8pt" height="345.6pt" viewBox="0 0 460.8 345.6" xmlns="http://www.w3.org/2000/svg" version="1.1">
 <metadata>
  <rdf:RDF xmlns:dc="http://purl.org/dc/elements/1.1/" xmlns:cc="http://creativecommons.org/ns#" xmlns:rdf="http://www.w3.org/1999/02/22-rdf-syntax-ns#">
   <cc:Work>
    <dc:type rdf:resource="http://purl.org/dc/dcmitype/StillImage"/>
    <dc:date>2023-11-22T17:07:27.678275</dc:date>
    <dc:format>image/svg+xml</dc:format>
    <dc:creator>
     <cc:Agent>
      <dc:title>Matplotlib v3.5.2, https://matplotlib.org/</dc:title>
     </cc:Agent>
    </dc:creator>
   </cc:Work>
  </rdf:RDF>
 </metadata>
 <defs>
  <style type="text/css">*{stroke-linejoin: round; stroke-linecap: butt}</style>
 </defs>
 <g id="figure_1">
  <g id="patch_1">
   <path d="M 0 345.6 
L 460.8 345.6 
L 460.8 0 
L 0 0 
z
" style="fill: #ffffff"/>
  </g>
  <g id="axes_1">
   <g id="patch_2">
    <path d="M 57.6 119.740235 
L 414.72 119.740235 
L 414.72 41.472 
L 57.6 41.472 
z
" style="fill: #ffffff"/>
   </g>
   <g id="matplotlib.axis_1">
    <g id="xtick_1">
     <g id="line2d_1">
      <defs>
       <path id="mea9e4d8a54" d="M 0 0 
L 0 3.5 
" style="stroke: #000000; stroke-width: 0.8"/>
      </defs>
      <g>
       <use xlink:href="#mea9e4d8a54" x="57.6" y="119.740235" style="stroke: #000000; stroke-width: 0.8"/>
      </g>
     </g>
    </g>
    <g id="xtick_2">
     <g id="line2d_2">
      <g>
       <use xlink:href="#mea9e4d8a54" x="105.216" y="119.740235" style="stroke: #000000; stroke-width: 0.8"/>
      </g>
     </g>
    </g>
    <g id="xtick_3">
     <g id="line2d_3">
      <g>
       <use xlink:href="#mea9e4d8a54" x="152.832" y="119.740235" style="stroke: #000000; stroke-width: 0.8"/>
      </g>
     </g>
    </g>
    <g id="xtick_4">
     <g id="line2d_4">
      <g>
       <use xlink:href="#mea9e4d8a54" x="200.448" y="119.740235" style="stroke: #000000; stroke-width: 0.8"/>
      </g>
     </g>
    </g>
    <g id="xtick_5">
     <g id="line2d_5">
      <g>
       <use xlink:href="#mea9e4d8a54" x="248.064" y="119.740235" style="stroke: #000000; stroke-width: 0.8"/>
      </g>
     </g>
    </g>
    <g id="xtick_6">
     <g id="line2d_6">
      <g>
       <use xlink:href="#mea9e4d8a54" x="295.68" y="119.740235" style="stroke: #000000; stroke-width: 0.8"/>
      </g>
     </g>
    </g>
    <g id="xtick_7">
     <g id="line2d_7">
      <g>
       <use xlink:href="#mea9e4d8a54" x="343.296" y="119.740235" style="stroke: #000000; stroke-width: 0.8"/>
      </g>
     </g>
    </g>
    <g id="xtick_8">
     <g id="line2d_8">
      <g>
       <use xlink:href="#mea9e4d8a54" x="390.912" y="119.740235" style="stroke: #000000; stroke-width: 0.8"/>
      </g>
     </g>
    </g>
    <g id="xtick_9">
     <g id="line2d_9">
      <g>
       <use xlink:href="#mea9e4d8a54" x="414.72" y="119.740235" style="stroke: #000000; stroke-width: 0.8"/>
      </g>
     </g>
    </g>
   </g>
   <g id="matplotlib.axis_2">
    <g id="ytick_1">
     <g id="line2d_10">
      <defs>
       <path id="m055e31a3bc" d="M 0 0 
L -3.5 0 
" style="stroke: #000000; stroke-width: 0.8"/>
      </defs>
      <g>
       <use xlink:href="#m055e31a3bc" x="57.6" y="100.194017" style="stroke: #000000; stroke-width: 0.8"/>
      </g>
     </g>
     <g id="text_1">
      <!-- −10 -->
      <g transform="translate(29.495313 103.993235)scale(0.1 -0.1)">
       <defs>
        <path id="DejaVuSans-2212" d="M 678 2272 
L 4684 2272 
L 4684 1741 
L 678 1741 
L 678 2272 
z
" transform="scale(0.015625)"/>
        <path id="DejaVuSans-31" d="M 794 531 
L 1825 531 
L 1825 4091 
L 703 3866 
L 703 4441 
L 1819 4666 
L 2450 4666 
L 2450 531 
L 3481 531 
L 3481 0 
L 794 0 
L 794 531 
z
" transform="scale(0.015625)"/>
        <path id="DejaVuSans-30" d="M 2034 4250 
Q 1547 4250 1301 3770 
Q 1056 3291 1056 2328 
Q 1056 1369 1301 889 
Q 1547 409 2034 409 
Q 2525 409 2770 889 
Q 3016 1369 3016 2328 
Q 3016 3291 2770 3770 
Q 2525 4250 2034 4250 
z
M 2034 4750 
Q 2819 4750 3233 4129 
Q 3647 3509 3647 2328 
Q 3647 1150 3233 529 
Q 2819 -91 2034 -91 
Q 1250 -91 836 529 
Q 422 1150 422 2328 
Q 422 3509 836 4129 
Q 1250 4750 2034 4750 
z
" transform="scale(0.015625)"/>
       </defs>
       <use xlink:href="#DejaVuSans-2212"/>
       <use xlink:href="#DejaVuSans-31" x="83.789062"/>
       <use xlink:href="#DejaVuSans-30" x="147.412109"/>
      </g>
     </g>
    </g>
    <g id="ytick_2">
     <g id="line2d_11">
      <g>
       <use xlink:href="#m055e31a3bc" x="57.6" y="79.503213" style="stroke: #000000; stroke-width: 0.8"/>
      </g>
     </g>
     <g id="text_2">
      <!-- 0 -->
      <g transform="translate(44.2375 83.302432)scale(0.1 -0.1)">
       <use xlink:href="#DejaVuSans-30"/>
      </g>
     </g>
    </g>
    <g id="ytick_3">
     <g id="line2d_12">
      <g>
       <use xlink:href="#m055e31a3bc" x="57.6" y="58.81241" style="stroke: #000000; stroke-width: 0.8"/>
      </g>
     </g>
     <g id="text_3">
      <!-- 10 -->
      <g transform="translate(37.875 62.611628)scale(0.1 -0.1)">
       <use xlink:href="#DejaVuSans-31"/>
       <use xlink:href="#DejaVuSans-30" x="63.623047"/>
      </g>
     </g>
    </g>
   </g>
   <g id="line2d_13">
    <path d="M 57.6 85.396896 
L 58.195191 86.285553 
L 58.790405 87.416006 
L 59.385595 88.825605 
L 59.980809 90.556389 
L 61.171191 95.121043 
L 62.361595 101.068696 
L 63.552 107.103208 
L 64.147191 109.185607 
L 64.742405 109.994977 
L 65.337595 109.230224 
L 65.932786 106.937136 
L 67.123214 99.512485 
L 68.313618 91.836076 
L 68.908809 88.737613 
L 69.504023 86.251657 
L 70.099214 84.340122 
L 70.694405 82.920011 
L 71.289618 81.895628 
L 71.884809 81.176256 
L 72.48 80.684316 
L 73.670405 80.150415 
L 74.860809 79.96563 
L 76.646405 80.018153 
L 78.432 80.356908 
L 79.622405 80.795953 
L 80.812809 81.520447 
L 81.408 82.043691 
L 82.003191 82.716798 
L 82.598405 83.583603 
L 83.193595 84.700086 
L 83.788809 86.136862 
L 84.384 87.979878 
L 84.979191 90.328377 
L 85.574405 93.284169 
L 86.764786 101.234371 
L 87.955191 110.749633 
L 88.550405 114.512003 
L 89.145595 116.182588 
L 89.740786 114.962574 
L 90.336 110.918776 
L 92.716809 86.893985 
L 93.312023 82.621288 
L 93.907214 79.315901 
L 94.502405 76.801294 
L 95.097618 74.878494 
L 96.288 72.096513 
L 98.668809 67.396501 
L 99.859214 64.414349 
L 102.835214 55.912637 
L 103.430405 54.94849 
L 104.025595 54.608841 
L 104.620809 54.978234 
L 105.216 56.035224 
L 105.811191 57.652337 
L 108.787191 67.248909 
L 109.382405 68.493052 
L 109.977595 69.400069 
L 110.572786 69.982679 
L 111.168 70.262002 
L 111.763191 70.259614 
L 112.358405 69.993045 
L 112.953595 69.473676 
L 113.548786 68.706781 
L 114.144 67.693337 
L 115.334405 64.935214 
L 116.524809 61.327225 
L 118.310405 55.72513 
L 118.905618 54.477891 
L 119.500786 53.884029 
L 120.095977 54.077624 
L 120.691191 55.072914 
L 121.286382 56.750667 
L 124.262405 67.482063 
L 124.857595 68.926412 
L 125.452809 70.003601 
L 126.048 70.731047 
L 126.643214 71.136668 
L 127.238405 71.248876 
L 127.833595 71.090912 
L 128.428809 70.677954 
L 129.024 70.016613 
L 129.619191 69.105877 
L 130.214405 67.939961 
L 131.404809 64.826425 
L 132.595191 60.785736 
L 133.785595 56.464759 
L 134.380786 54.649111 
L 134.976 53.399355 
L 135.571191 52.949959 
L 136.166405 53.432428 
L 136.761595 54.819098 
L 137.356786 56.923554 
L 139.737595 66.910509 
L 140.332786 68.774781 
L 140.928 70.230772 
L 141.523191 71.292439 
L 142.118382 71.993569 
L 142.713595 72.373254 
L 143.308786 72.466786 
L 143.903977 72.30077 
L 144.499191 71.890942 
L 145.094382 71.242099 
L 145.689595 70.348954 
L 146.284786 69.198761 
L 147.475191 66.063854 
L 148.665595 61.805193 
L 150.451214 54.603377 
L 151.046405 52.825858 
L 151.641595 51.870807 
L 152.236809 51.97467 
L 152.832 53.193579 
L 153.427191 55.367171 
L 156.403191 69.133449 
L 156.998405 70.917487 
L 157.593595 72.256085 
L 158.188786 73.195038 
L 158.784 73.788368 
L 159.379191 74.086372 
L 159.974405 74.129336 
L 160.569595 73.944797 
L 161.164786 73.54695 
L 161.76 72.93706 
L 162.355191 72.104783 
L 162.950382 71.02943 
L 163.545595 69.682582 
L 164.140786 68.032439 
L 165.331191 63.727207 
L 168.307191 50.87711 
L 168.902382 50.11112 
L 169.497595 50.718957 
L 170.092786 52.676631 
L 171.283191 59.228862 
L 172.473595 66.24489 
L 173.664 71.495759 
L 174.259214 73.313746 
L 174.854405 74.658263 
L 175.449595 75.606669 
L 176.044809 76.235152 
L 176.64 76.609304 
L 177.235191 76.780553 
L 177.830405 76.785438 
L 178.425595 76.646653 
L 179.020809 76.374411 
L 179.616 75.967758 
L 180.211191 75.415443 
L 180.806405 74.696236 
L 181.401595 73.77908 
L 181.996786 72.622936 
L 182.592 71.17707 
L 183.187191 69.383662 
L 183.782405 67.183211 
L 184.972786 61.410239 
L 186.758382 50.770552 
L 187.353595 48.170067 
L 187.948786 47.073604 
L 188.544 47.91622 
L 189.139191 50.660806 
L 190.329595 59.550906 
L 191.519977 68.476372 
L 192.115191 71.987692 
L 192.710382 74.772684 
L 193.305595 76.908907 
L 193.900786 78.516738 
L 194.495977 79.724115 
L 195.686405 81.388338 
L 198.067214 83.944461 
L 199.257595 85.718609 
L 199.852809 86.89505 
L 200.448 88.332325 
L 201.043191 90.084489 
L 202.233618 94.720281 
L 203.424 100.865417 
L 204.614382 107.296508 
L 205.209618 109.614804 
L 205.804809 110.617185 
L 206.4 109.942013 
L 206.995236 107.604852 
L 208.185618 99.793704 
L 209.376 91.661281 
L 209.971191 88.383225 
L 210.566382 85.75549 
L 211.161573 83.731981 
L 211.756809 82.219402 
L 212.352 81.111845 
L 212.947191 80.308685 
L 214.137573 79.288183 
L 215.923191 78.386102 
L 217.708809 77.430597 
L 218.899191 76.436662 
L 219.494382 75.748659 
L 220.089573 74.882741 
L 220.684764 73.790129 
L 221.28 72.411285 
L 221.875191 70.67609 
L 222.470382 68.506389 
L 223.065573 65.826105 
L 224.256 58.801143 
L 226.041618 47.081273 
L 226.636809 45.223285 
L 227.232 45.627243 
L 227.827191 48.419944 
L 228.422382 53.044104 
L 230.208 69.005376 
L 230.803236 73.10121 
L 231.398427 76.339305 
L 231.993618 78.825759 
L 232.588809 80.715515 
L 233.779191 83.330546 
L 236.755191 88.363067 
L 237.945573 91.29635 
L 239.136 95.262814 
L 241.516809 104.945972 
L 242.112 106.631598 
L 242.707191 107.41251 
L 243.302382 107.072917 
L 243.897573 105.599825 
L 244.492764 103.202625 
L 246.873573 91.456719 
L 247.468764 89.265772 
L 248.064 87.547998 
L 248.659191 86.274456 
L 249.254382 85.392837 
L 249.849618 84.846167 
L 250.444809 84.583576 
L 251.04 84.565339 
L 251.635191 84.765125 
L 252.230382 85.170158 
L 252.825618 85.780611 
L 253.420809 86.608415 
L 254.016 87.675793 
L 254.611236 89.013487 
L 255.206427 90.656142 
L 256.396809 94.970038 
L 257.587191 100.556685 
L 258.777573 106.256087 
L 259.372809 108.295882 
L 259.968 109.212558 
L 260.563191 108.711702 
L 261.158382 106.78915 
L 261.753573 103.752794 
L 264.134427 89.80613 
L 264.729618 87.353854 
L 265.324809 85.452965 
L 265.92 84.039583 
L 266.515191 83.031422 
L 267.110382 82.347101 
L 267.705573 81.915961 
L 268.300764 81.681908 
L 268.896 81.603905 
L 269.491191 81.654684 
L 270.681573 82.092535 
L 271.872 82.994831 
L 272.467191 83.659825 
L 273.062382 84.506651 
L 273.657618 85.577012 
L 274.252809 86.922701 
L 274.848 88.605139 
L 275.443191 90.69188 
L 276.038382 93.24648 
L 277.228809 99.845868 
L 279.014427 110.742372 
L 279.609618 112.576838 
L 280.204809 112.42191 
L 280.8 110.113987 
L 281.395191 106.073269 
L 283.180809 91.31364 
L 283.776 87.36976 
L 284.371191 84.213637 
L 284.966382 81.776012 
L 285.561573 79.928127 
L 286.156809 78.527429 
L 287.347191 76.554158 
L 289.728 73.332377 
L 290.918382 71.058536 
L 292.108764 67.796969 
L 293.299191 63.239456 
L 295.68 52.062405 
L 296.275191 50.343724 
L 296.870382 49.856504 
L 297.465618 50.812972 
L 298.060809 53.1144 
L 299.251191 60.096641 
L 300.441618 67.145467 
L 301.036809 69.976097 
L 301.632 72.241482 
L 302.227236 73.97413 
L 302.822427 75.245379 
L 303.417618 76.137872 
L 304.012809 76.729425 
L 304.608 77.085678 
L 305.203191 77.257291 
L 305.798382 77.280196 
L 306.393573 77.176973 
L 307.584 76.625334 
L 308.179191 76.168618 
L 308.774382 75.570564 
L 309.369573 74.804009 
L 309.964809 73.832364 
L 310.56 72.608785 
L 311.155191 71.076439 
L 311.750427 69.17096 
L 312.345618 66.827421 
L 313.536 60.671471 
L 315.321573 49.592616 
L 315.916764 47.136617 
L 316.512 46.422666 
L 317.107191 47.828528 
L 317.702382 51.174846 
L 320.083191 69.942641 
L 320.678382 73.395422 
L 321.273618 76.098954 
L 321.868809 78.160228 
L 322.464 79.716579 
L 323.654382 81.845169 
L 326.630427 85.834455 
L 327.820809 88.233223 
L 329.011191 91.700906 
L 330.201573 96.526833 
L 332.582382 107.794196 
L 333.177573 109.223975 
L 333.772809 109.287009 
L 334.368 107.851716 
L 334.963191 105.12203 
L 337.344 90.721241 
L 337.939191 88.012811 
L 338.534382 85.879933 
L 339.129573 84.268839 
L 339.724764 83.097737 
L 340.32 82.279775 
L 340.915191 81.737034 
L 341.510382 81.405348 
L 342.105573 81.235843 
L 343.296 81.257654 
L 344.486382 81.665154 
L 345.676809 82.470927 
L 346.272 83.061925 
L 346.867191 83.815319 
L 347.462382 84.770414 
L 348.057618 85.97705 
L 348.652809 87.495774 
L 349.248 89.396823 
L 349.843236 91.753809 
L 351.033618 98.041408 
L 352.819191 109.770749 
L 353.414382 112.504645 
L 354.009573 113.406991 
L 354.604809 112.020378 
L 355.2 108.510329 
L 357.580809 88.587166 
L 358.176 84.950194 
L 358.771191 82.109431 
L 359.366427 79.941991 
L 359.961618 78.296435 
L 361.152 75.994022 
L 363.532764 72.383829 
L 364.723191 69.931354 
L 365.913573 66.505843 
L 367.104 61.905897 
L 368.889618 53.984668 
L 369.484809 51.996897 
L 370.08 50.93109 
L 370.675191 51.069743 
L 371.270382 52.476964 
L 371.865618 54.954718 
L 374.246427 67.67716 
L 374.841618 70.084145 
L 375.436809 71.980594 
L 376.032 73.402228 
L 376.627191 74.410805 
L 377.222382 75.073679 
L 377.817573 75.452069 
L 378.412809 75.594794 
L 379.008 75.536624 
L 379.603191 75.29812 
L 380.198382 74.886448 
L 380.793573 74.296539 
L 381.388809 73.51176 
L 381.984 72.504944 
L 382.579191 71.239577 
L 383.174427 69.671604 
L 383.769618 67.754622 
L 384.96 62.742568 
L 387.340764 50.465876 
L 387.936 48.814942 
L 388.531191 48.684478 
L 389.126382 50.245949 
L 389.721573 53.268169 
L 392.102382 69.036245 
L 392.697618 71.940927 
L 393.292809 74.218622 
L 393.888 75.942569 
L 394.483191 77.21319 
L 395.078382 78.13291 
L 395.673618 78.793016 
L 396.864 79.620828 
L 398.649618 80.338735 
L 400.435191 81.091623 
L 401.625573 81.876952 
L 402.816 83.111961 
L 403.411191 83.985631 
L 404.006382 85.09479 
L 404.601573 86.502365 
L 405.196809 88.283575 
L 405.792 90.522353 
L 406.387191 93.301238 
L 407.577618 100.627904 
L 408.768 109.268701 
L 409.363191 112.759098 
L 409.958382 114.511959 
L 410.553618 113.812972 
L 411.148809 110.604126 
L 412.339191 99.725015 
L 413.529618 88.978188 
L 414.124809 84.850769 
L 414.72 81.613432 
L 414.72 81.613432 
" clip-path="url(#p69162b3800)" style="fill: none; stroke: #0000cc; stroke-width: 1.5; stroke-linecap: square"/>
   </g>
   <g id="line2d_14">
    <path d="M 57.0048 84.720784 
L 57.6 85.39691 
L 58.1952 86.285556 
L 58.7904 87.415959 
L 59.3856 88.825557 
L 59.9808 90.556303 
L 61.1712 95.120958 
L 62.3616 101.068577 
L 63.552 107.10307 
L 64.1472 109.185439 
L 64.7424 109.994826 
L 65.3376 109.230083 
L 65.9328 106.937023 
L 67.1232 99.512622 
L 68.3136 91.83638 
L 68.9088 88.737892 
L 69.504 86.252005 
L 70.0992 84.340423 
L 70.6944 82.920338 
L 71.2896 81.896 
L 71.8848 81.176632 
L 72.48 80.684724 
L 73.6704 80.150934 
L 74.8608 79.966311 
L 76.6464 80.019268 
L 78.432 80.358904 
L 79.6224 80.798991 
L 80.8128 81.525201 
L 81.408 82.049664 
L 82.0032 82.724345 
L 82.5984 83.593135 
L 83.1936 84.712191 
L 83.7888 86.152154 
L 84.384 87.999209 
L 84.9792 90.352659 
L 85.5744 93.314063 
L 86.7648 101.275179 
L 87.9552 110.787151 
L 88.5504 114.535005 
L 89.1456 116.182194 
L 89.7408 114.935624 
L 90.336 110.871021 
L 92.7168 86.854371 
L 93.312 82.591456 
L 93.9072 79.294118 
L 94.5024 76.785892 
L 95.0976 74.86768 
L 96.288 72.090447 
L 98.6688 67.389545 
L 99.8592 64.404523 
L 102.8352 55.901378 
L 103.4304 54.940324 
L 104.0256 54.605065 
L 104.6208 54.979564 
L 105.216 56.041617 
L 105.8112 57.663015 
L 108.7872 67.26196 
L 109.3824 68.50427 
L 109.9776 69.409398 
L 110.5728 69.990151 
L 111.168 70.267673 
L 111.7632 70.263599 
L 112.3584 69.995427 
L 112.9536 69.474491 
L 113.5488 68.706022 
L 114.144 67.691033 
L 115.3344 64.929541 
L 116.5248 61.318271 
L 118.3104 55.714928 
L 118.9056 54.469457 
L 119.5008 53.878595 
L 120.096 54.076224 
L 120.6912 55.075841 
L 121.2864 56.757667 
L 124.2624 67.493727 
L 124.8576 68.936955 
L 125.4528 70.012828 
L 126.048 70.739021 
L 126.6432 71.143447 
L 127.2384 71.25457 
L 127.8336 71.095608 
L 128.4288 70.68174 
L 129.024 70.019495 
L 129.6192 69.107856 
L 130.2144 67.940994 
L 131.4048 64.825239 
L 132.5952 60.781782 
L 133.7856 56.458433 
L 134.3808 54.642226 
L 134.976 53.392742 
L 135.5712 52.944583 
L 136.1664 53.42915 
L 136.7616 54.818527 
L 137.3568 56.925787 
L 139.7376 66.918599 
L 140.3328 68.783003 
L 140.928 70.238896 
L 141.5232 71.300355 
L 142.1184 72.001237 
L 142.7136 72.380705 
L 143.3088 72.474112 
L 143.904 72.308055 
L 144.4992 71.898303 
L 145.0944 71.249579 
L 145.6896 70.356662 
L 146.2848 69.206694 
L 147.4752 66.072065 
L 148.6656 61.812648 
L 150.4512 54.604885 
L 151.0464 52.823857 
L 151.6416 51.865163 
L 152.2368 51.965974 
L 152.832 53.183101 
L 153.4272 55.356592 
L 156.4032 69.134472 
L 156.9984 70.920661 
L 157.5936 72.26112 
L 158.1888 73.201659 
L 158.784 73.796379 
L 159.3792 74.095707 
L 159.9744 74.140024 
L 160.5696 73.956943 
L 161.1648 73.560718 
L 161.76 72.952742 
L 162.3552 72.122631 
L 162.9504 71.049782 
L 163.5456 69.705796 
L 164.1408 68.058648 
L 165.3312 63.75909 
L 168.3072 50.884058 
L 168.9024 50.101979 
L 169.4976 50.693934 
L 170.0928 52.639604 
L 171.2832 59.186179 
L 172.4736 66.214876 
L 173.664 71.482077 
L 174.2592 73.30715 
L 174.8544 74.657729 
L 175.4496 75.611199 
L 176.0448 76.243953 
L 176.64 76.621912 
L 177.2352 76.796738 
L 177.8304 76.805258 
L 178.4256 76.670418 
L 179.0208 76.402698 
L 179.616 76.001401 
L 180.2112 75.455533 
L 180.8064 74.744204 
L 181.4016 73.836642 
L 181.9968 72.692098 
L 182.592 71.260239 
L 183.1872 69.483162 
L 183.7824 67.301104 
L 184.9728 61.563916 
L 186.7584 50.898546 
L 187.3536 48.239155 
L 187.9488 47.059402 
L 188.544 47.81279 
L 189.1392 50.486073 
L 190.3296 59.335842 
L 191.52 68.318785 
L 192.1152 71.868017 
L 192.7104 74.687896 
L 193.3056 76.853301 
L 193.9008 78.484228 
L 194.496 79.709058 
L 195.6864 81.395343 
L 198.6624 84.779398 
L 199.8528 86.92795 
L 200.448 88.367318 
L 201.0432 90.121115 
L 202.2336 94.756851 
L 203.424 100.891386 
L 204.6144 107.293086 
L 205.2096 109.59089 
L 205.8048 110.573973 
L 206.4 109.886145 
L 206.9952 107.546786 
L 208.1856 99.758924 
L 209.376 91.66128 
L 209.9712 88.398326 
L 210.5664 85.782868 
L 211.1616 83.769252 
L 211.7568 82.264919 
L 212.352 81.164387 
L 212.9472 80.368058 
L 214.1376 79.362887 
L 215.328 78.753225 
L 217.7088 77.611983 
L 218.8992 76.699839 
L 219.4944 76.068926 
L 220.0896 75.274553 
L 220.6848 74.271132 
L 221.28 73.002605 
L 221.8752 71.401577 
L 222.4704 69.390777 
L 223.0656 66.889847 
L 224.256 60.205262 
L 226.0416 48.029726 
L 226.6368 45.482039 
L 227.232 45.029647 
L 227.8272 47.043965 
L 228.4224 51.184824 
L 230.8032 71.922284 
L 231.3984 75.481932 
L 231.9936 78.235578 
L 232.5888 80.331242 
L 233.184 81.933698 
L 234.3744 84.252149 
L 236.16 87.166058 
L 237.3504 89.611542 
L 238.5408 92.925553 
L 239.7312 97.260589 
L 241.5168 104.456624 
L 242.112 106.201848 
L 242.7072 107.114 
L 243.3024 106.96473 
L 243.8976 105.707694 
L 244.4928 103.510813 
L 247.4688 89.818933 
L 248.064 88.059002 
L 248.6592 86.741752 
L 249.2544 85.821309 
L 249.8496 85.244099 
L 250.4448 84.960503 
L 251.04 84.931042 
L 251.6352 85.128992 
L 252.2304 85.540929 
L 252.8256 86.166198 
L 253.4208 87.015797 
L 254.016 88.110741 
L 254.6112 89.479497 
L 255.2064 91.153537 
L 256.3968 95.50511 
L 258.7776 106.405059 
L 259.3728 108.19665 
L 259.968 108.847769 
L 260.5632 108.123873 
L 261.1584 106.074856 
L 262.3488 99.467975 
L 263.5392 92.529424 
L 264.1344 89.686228 
L 264.7296 87.389096 
L 265.3248 85.619819 
L 265.92 84.316637 
L 266.5152 83.402631 
L 267.1104 82.802954 
L 267.7056 82.453656 
L 268.3008 82.305133 
L 268.896 82.322542 
L 269.4912 82.484824 
L 270.0864 82.783331 
L 270.6816 83.220607 
L 271.2768 83.809575 
L 271.872 84.573186 
L 272.4672 85.544378 
L 273.0624 86.766012 
L 273.6576 88.290044 
L 274.2528 90.174596 
L 274.848 92.476474 
L 276.0384 98.442964 
L 277.824 108.902228 
L 278.4192 111.162047 
L 279.0144 111.79565 
L 279.6096 110.474062 
L 280.2048 107.361417 
L 283.1808 86.383219 
L 283.776 83.782858 
L 284.3712 81.800289 
L 284.9664 80.312896 
L 285.5616 79.196144 
L 286.752 77.645655 
L 289.1328 75.180001 
L 290.3232 73.427557 
L 290.9184 72.259936 
L 291.5136 70.829764 
L 292.1088 69.081938 
L 293.2992 64.437027 
L 294.4896 58.231961 
L 295.68 51.660193 
L 296.2752 49.251775 
L 296.8704 48.170566 
L 297.4656 48.802536 
L 298.0608 51.146281 
L 299.2512 59.089806 
L 300.4416 67.39101 
L 301.0368 70.736605 
L 301.632 73.418185 
L 302.2272 75.484233 
L 302.8224 77.031634 
L 303.4176 78.170398 
L 304.0128 79.004315 
L 305.2032 80.09746 
L 308.7744 82.484779 
L 309.9648 83.883715 
L 310.56 84.852328 
L 311.1552 86.066311 
L 311.7504 87.586773 
L 312.3456 89.48304 
L 312.9408 91.826822 
L 314.1312 98.051237 
L 315.9168 109.579869 
L 316.512 112.256594 
L 317.1072 113.14592 
L 317.7024 111.805367 
L 318.2976 108.390233 
L 321.2736 85.240824 
L 321.8688 82.427072 
L 322.464 80.279933 
L 323.0592 78.652396 
L 324.2496 76.393415 
L 327.2256 71.890879 
L 328.416 69.147923 
L 329.6064 65.291069 
L 330.7968 60.219923 
L 331.9872 54.652852 
L 332.5824 52.32198 
L 333.1776 50.810086 
L 333.7728 50.475129 
L 334.368 51.483829 
L 334.9632 53.722033 
L 336.1536 60.338565 
L 337.344 66.974545 
L 337.9392 69.641685 
L 338.5344 71.776046 
L 339.1296 73.403835 
L 339.7248 74.587387 
L 340.32 75.400042 
L 340.9152 75.91117 
L 341.5104 76.178654 
L 342.1056 76.246071 
L 342.7008 76.142459 
L 343.296 75.883226 
L 343.8912 75.471346 
L 344.4864 74.898374 
L 345.0816 74.145125 
L 345.6768 73.182085 
L 346.272 71.969889 
L 346.8672 70.460585 
L 347.4624 68.600995 
L 348.6528 63.647002 
L 349.8432 57.112548 
L 351.0336 50.531027 
L 351.6288 48.395201 
L 352.224 47.794078 
L 352.8192 49.028404 
L 353.4144 51.951221 
L 354.6048 60.545301 
L 355.7952 68.810394 
L 356.3904 72.018184 
L 356.9856 74.548697 
L 357.5808 76.478681 
L 358.176 77.919394 
L 358.7712 78.986358 
L 359.9616 80.400732 
L 363.5328 83.493638 
L 364.128 84.291827 
L 364.7232 85.276787 
L 365.3184 86.498505 
L 365.9136 88.014242 
L 366.5088 89.886826 
L 367.104 92.178335 
L 368.2944 98.159558 
L 370.08 108.891828 
L 370.6752 111.320566 
L 371.2704 112.117601 
L 371.8656 110.905166 
L 372.4608 107.815608 
L 373.6512 98.574686 
L 374.8416 89.713582 
L 375.4368 86.296879 
L 376.032 83.608408 
L 376.6272 81.555474 
L 377.2224 80.010691 
L 377.8176 78.844335 
L 379.008 77.199069 
L 381.3888 74.454295 
L 382.5792 72.464342 
L 383.1744 71.143772 
L 383.7696 69.537206 
L 384.96 65.273585 
L 386.1504 59.512805 
L 387.3408 53.113388 
L 387.936 50.49941 
L 388.5312 48.952141 
L 389.1264 48.912229 
L 389.7216 50.525922 
L 390.3168 53.549379 
L 392.6976 69.045545 
L 393.2928 71.884146 
L 393.888 74.107523 
L 394.4832 75.787192 
L 395.0784 77.02071 
L 395.6736 77.907178 
L 396.2688 78.534837 
L 397.4592 79.289009 
L 398.6496 79.688993 
L 402.2208 80.635614 
L 403.4112 81.236175 
L 404.6016 82.203045 
L 405.1968 82.896106 
L 405.792 83.784152 
L 406.3872 84.922784 
L 406.9824 86.381372 
L 407.5776 88.243718 
L 408.1728 90.604996 
L 408.768 93.56004 
L 409.9584 101.422355 
L 411.1488 110.647401 
L 411.744 114.202886 
L 412.3392 115.696479 
L 412.9344 114.404558 
L 413.5296 110.427645 
L 414.72 98.31474 
L 414.72 98.31474 
" clip-path="url(#p69162b3800)" style="fill: none; stroke-dasharray: 5.55,2.4; stroke-dashoffset: 0; stroke: #ff0000; stroke-width: 1.5"/>
   </g>
   <g id="patch_3">
    <path d="M 57.6 119.740235 
L 57.6 41.472 
" style="fill: none; stroke: #000000; stroke-width: 0.8; stroke-linejoin: miter; stroke-linecap: square"/>
   </g>
   <g id="patch_4">
    <path d="M 414.72 119.740235 
L 414.72 41.472 
" style="fill: none; stroke: #000000; stroke-width: 0.8; stroke-linejoin: miter; stroke-linecap: square"/>
   </g>
   <g id="patch_5">
    <path d="M 57.6 119.740235 
L 414.72 119.740235 
" style="fill: none; stroke: #000000; stroke-width: 0.8; stroke-linejoin: miter; stroke-linecap: square"/>
   </g>
   <g id="patch_6">
    <path d="M 57.6 41.472 
L 414.72 41.472 
" style="fill: none; stroke: #000000; stroke-width: 0.8; stroke-linejoin: miter; stroke-linecap: square"/>
   </g>
  </g>
  <g id="axes_2">
   <g id="patch_7">
    <path d="M 57.6 213.662118 
L 414.72 213.662118 
L 414.72 135.393882 
L 57.6 135.393882 
z
" style="fill: #ffffff"/>
   </g>
   <g id="matplotlib.axis_3">
    <g id="xtick_10">
     <g id="line2d_15">
      <g>
       <use xlink:href="#mea9e4d8a54" x="57.6" y="213.662118" style="stroke: #000000; stroke-width: 0.8"/>
      </g>
     </g>
    </g>
    <g id="xtick_11">
     <g id="line2d_16">
      <g>
       <use xlink:href="#mea9e4d8a54" x="105.216" y="213.662118" style="stroke: #000000; stroke-width: 0.8"/>
      </g>
     </g>
    </g>
    <g id="xtick_12">
     <g id="line2d_17">
      <g>
       <use xlink:href="#mea9e4d8a54" x="152.832" y="213.662118" style="stroke: #000000; stroke-width: 0.8"/>
      </g>
     </g>
    </g>
    <g id="xtick_13">
     <g id="line2d_18">
      <g>
       <use xlink:href="#mea9e4d8a54" x="200.448" y="213.662118" style="stroke: #000000; stroke-width: 0.8"/>
      </g>
     </g>
    </g>
    <g id="xtick_14">
     <g id="line2d_19">
      <g>
       <use xlink:href="#mea9e4d8a54" x="248.064" y="213.662118" style="stroke: #000000; stroke-width: 0.8"/>
      </g>
     </g>
    </g>
    <g id="xtick_15">
     <g id="line2d_20">
      <g>
       <use xlink:href="#mea9e4d8a54" x="295.68" y="213.662118" style="stroke: #000000; stroke-width: 0.8"/>
      </g>
     </g>
    </g>
    <g id="xtick_16">
     <g id="line2d_21">
      <g>
       <use xlink:href="#mea9e4d8a54" x="343.296" y="213.662118" style="stroke: #000000; stroke-width: 0.8"/>
      </g>
     </g>
    </g>
    <g id="xtick_17">
     <g id="line2d_22">
      <g>
       <use xlink:href="#mea9e4d8a54" x="390.912" y="213.662118" style="stroke: #000000; stroke-width: 0.8"/>
      </g>
     </g>
    </g>
    <g id="xtick_18">
     <g id="line2d_23">
      <g>
       <use xlink:href="#mea9e4d8a54" x="414.72" y="213.662118" style="stroke: #000000; stroke-width: 0.8"/>
      </g>
     </g>
    </g>
   </g>
   <g id="matplotlib.axis_4">
    <g id="ytick_4">
     <g id="line2d_24">
      <g>
       <use xlink:href="#m055e31a3bc" x="57.6" y="204.352237" style="stroke: #000000; stroke-width: 0.8"/>
      </g>
     </g>
     <g id="text_4">
      <!-- −20 -->
      <g transform="translate(29.495313 208.151455)scale(0.1 -0.1)">
       <defs>
        <path id="DejaVuSans-32" d="M 1228 531 
L 3431 531 
L 3431 0 
L 469 0 
L 469 531 
Q 828 903 1448 1529 
Q 2069 2156 2228 2338 
Q 2531 2678 2651 2914 
Q 2772 3150 2772 3378 
Q 2772 3750 2511 3984 
Q 2250 4219 1831 4219 
Q 1534 4219 1204 4116 
Q 875 4013 500 3803 
L 500 4441 
Q 881 4594 1212 4672 
Q 1544 4750 1819 4750 
Q 2544 4750 2975 4387 
Q 3406 4025 3406 3419 
Q 3406 3131 3298 2873 
Q 3191 2616 2906 2266 
Q 2828 2175 2409 1742 
Q 1991 1309 1228 531 
z
" transform="scale(0.015625)"/>
       </defs>
       <use xlink:href="#DejaVuSans-2212"/>
       <use xlink:href="#DejaVuSans-32" x="83.789062"/>
       <use xlink:href="#DejaVuSans-30" x="147.412109"/>
      </g>
     </g>
    </g>
    <g id="ytick_5">
     <g id="line2d_25">
      <g>
       <use xlink:href="#m055e31a3bc" x="57.6" y="172.956201" style="stroke: #000000; stroke-width: 0.8"/>
      </g>
     </g>
     <g id="text_5">
      <!-- 0 -->
      <g transform="translate(44.2375 176.755419)scale(0.1 -0.1)">
       <use xlink:href="#DejaVuSans-30"/>
      </g>
     </g>
    </g>
    <g id="ytick_6">
     <g id="line2d_26">
      <g>
       <use xlink:href="#m055e31a3bc" x="57.6" y="141.560165" style="stroke: #000000; stroke-width: 0.8"/>
      </g>
     </g>
     <g id="text_6">
      <!-- 20 -->
      <g transform="translate(37.875 145.359383)scale(0.1 -0.1)">
       <use xlink:href="#DejaVuSans-32"/>
       <use xlink:href="#DejaVuSans-30" x="63.623047"/>
      </g>
     </g>
    </g>
   </g>
   <g id="line2d_27">
    <path d="M 57.6 179.789721 
L 58.195191 181.148525 
L 58.790405 182.793236 
L 59.980809 187.123954 
L 61.171191 192.889972 
L 62.361595 198.986124 
L 62.956786 201.097808 
L 63.552 201.668679 
L 64.147191 200.084862 
L 64.742405 196.232454 
L 66.528 179.601927 
L 67.123214 175.736547 
L 67.718405 173.294872 
L 68.313618 172.002381 
L 68.908809 171.490265 
L 69.504023 171.438124 
L 70.694405 171.887701 
L 72.48 172.637982 
L 74.265618 173.083358 
L 77.241595 173.695459 
L 78.432 174.114616 
L 79.622405 174.784697 
L 80.812809 175.883608 
L 81.408 176.679564 
L 82.003191 177.705946 
L 82.598405 179.0296 
L 83.193595 180.733708 
L 83.788809 182.918455 
L 84.384 185.695208 
L 84.979191 189.168966 
L 86.169595 198.276452 
L 87.36 207.877192 
L 87.955191 210.104186 
L 88.550405 208.31394 
L 89.145595 201.690894 
L 90.931214 172.716443 
L 91.526405 167.530412 
L 92.121618 164.94991 
L 92.716809 164.010529 
L 93.312023 163.897202 
L 94.502405 164.272522 
L 95.097618 164.316588 
L 95.692809 164.147348 
L 96.288 163.738792 
L 96.883214 163.084611 
L 97.478405 162.187643 
L 98.668809 159.708363 
L 100.454405 154.824474 
L 101.049595 153.250174 
L 101.644809 151.990659 
L 102.24 151.278626 
L 102.835214 151.332565 
L 103.430405 152.282452 
L 104.025595 154.09616 
L 105.216 159.296334 
L 106.406405 164.203188 
L 107.001595 165.918574 
L 107.596809 167.067728 
L 108.192 167.71173 
L 108.787191 167.945842 
L 109.382405 167.864199 
L 109.977595 167.541871 
L 110.572786 167.029523 
L 111.763191 165.527622 
L 112.953595 163.393727 
L 114.144 160.546601 
L 115.334405 157.006823 
L 116.524809 153.243125 
L 117.120023 151.65768 
L 117.715214 150.597569 
L 118.310405 150.337862 
L 118.905618 151.084168 
L 119.500786 152.870392 
L 120.691191 158.568117 
L 121.881595 164.260954 
L 122.476786 166.290624 
L 123.071977 167.66471 
L 123.667191 168.45457 
L 124.262405 168.77817 
L 124.857595 168.753426 
L 125.452809 168.474487 
L 126.048 168.005125 
L 127.238405 166.614362 
L 128.428809 164.629147 
L 129.619191 161.920262 
L 130.809595 158.372124 
L 133.190405 150.429624 
L 133.785595 149.375886 
L 134.380786 149.315347 
L 134.976 150.472828 
L 135.571191 152.830792 
L 137.952 165.784943 
L 138.547191 167.775518 
L 139.142382 169.025477 
L 139.737595 169.666642 
L 140.332786 169.855444 
L 140.928 169.727716 
L 141.523191 169.382013 
L 142.713595 168.248783 
L 143.903977 166.612855 
L 145.094382 164.3536 
L 146.284786 161.240996 
L 147.475191 157.124899 
L 149.260809 150.111739 
L 149.856 148.434722 
L 150.451214 147.741025 
L 151.046405 148.417994 
L 151.641595 150.617981 
L 152.236809 154.10491 
L 154.022405 165.856282 
L 154.617595 168.400149 
L 155.212809 170.023249 
L 155.808 170.889581 
L 156.403191 171.207741 
L 156.998405 171.161955 
L 157.593595 170.887046 
L 158.784 169.949519 
L 159.974405 168.653695 
L 161.164786 166.910544 
L 162.355191 164.461086 
L 163.545595 160.973818 
L 164.736 156.215608 
L 166.521595 147.976963 
L 167.116786 146.139148 
L 167.711977 145.659613 
L 168.307191 147.033052 
L 168.902382 150.349131 
L 171.283191 168.716595 
L 171.878405 171.125844 
L 172.473595 172.480608 
L 173.068809 173.074766 
L 173.664 173.18556 
L 174.259214 173.021833 
L 175.449595 172.356213 
L 177.830405 170.682871 
L 179.020809 169.555421 
L 180.211191 167.93865 
L 180.806405 166.844418 
L 181.401595 165.4905 
L 181.996786 163.81571 
L 182.592 161.754547 
L 183.782405 156.259705 
L 186.163191 142.687306 
L 186.758382 141.639846 
L 187.353595 143.266016 
L 187.948786 147.84922 
L 189.734382 168.083881 
L 190.329595 172.487862 
L 190.924786 175.097367 
L 191.519977 176.360873 
L 192.115191 176.787578 
L 192.710382 176.779742 
L 194.495977 176.302857 
L 195.091191 176.304361 
L 195.686405 176.44076 
L 196.281595 176.723123 
L 196.876809 177.162129 
L 197.472 177.772764 
L 198.067214 178.577264 
L 198.662405 179.606337 
L 199.257595 180.899385 
L 199.852809 182.503256 
L 200.448 184.467121 
L 201.638382 189.614212 
L 204.019191 201.687261 
L 204.614382 202.533123 
L 205.209618 201.094337 
L 205.804809 197.159668 
L 207.590427 179.371629 
L 208.185618 175.219563 
L 208.780809 172.621501 
L 209.376 171.265066 
L 209.971191 170.736361 
L 210.566382 170.681507 
L 211.756809 171.094816 
L 212.947191 171.500818 
L 214.137573 171.637551 
L 215.328 171.47857 
L 216.518427 171.013222 
L 217.708809 170.167936 
L 218.304 169.553494 
L 218.899191 168.769304 
L 219.494382 167.771914 
L 220.089573 166.506132 
L 220.684764 164.90458 
L 221.28 162.88846 
L 221.875191 160.374097 
L 222.470382 157.288698 
L 223.660764 149.423129 
L 224.851191 141.233794 
L 225.446382 139.071685 
L 226.041618 139.903397 
L 226.636809 144.500028 
L 229.017618 174.185215 
L 229.612809 177.306089 
L 230.208 178.747999 
L 230.803236 179.19626 
L 231.398427 179.170533 
L 232.588809 178.870259 
L 233.184 178.878886 
L 233.779191 179.0729 
L 234.374382 179.475443 
L 234.969573 180.100772 
L 235.564809 180.962519 
L 236.16 182.076893 
L 236.755191 183.462238 
L 237.945573 187.096945 
L 240.921618 197.960044 
L 241.516809 198.430219 
L 242.112 197.429237 
L 242.707191 194.865284 
L 243.897573 186.727743 
L 245.088 179.239041 
L 245.683191 176.856136 
L 246.278382 175.394607 
L 246.873573 174.660893 
L 247.468764 174.437648 
L 248.064 174.543845 
L 249.254382 175.285337 
L 250.444809 176.40131 
L 251.635191 177.869246 
L 252.825618 179.892301 
L 254.016 182.788984 
L 255.206427 186.900688 
L 256.396809 192.305383 
L 257.587191 198.002163 
L 258.182382 200.030087 
L 258.777573 200.711254 
L 259.372809 199.490798 
L 259.968 196.213318 
L 262.348809 177.082658 
L 262.944 174.532188 
L 263.539191 173.095918 
L 264.134427 172.460894 
L 264.729618 172.330315 
L 265.324809 172.480571 
L 267.110382 173.45343 
L 269.491191 174.919888 
L 270.681573 175.918683 
L 271.872 177.382059 
L 272.467191 178.385374 
L 273.062382 179.637638 
L 273.657618 181.201465 
L 274.252809 183.147138 
L 274.848 185.546813 
L 276.038382 191.895112 
L 277.824 203.234893 
L 278.419236 205.255879 
L 279.014427 204.682081 
L 279.609618 200.825441 
L 280.8 186.203937 
L 281.395191 178.987995 
L 281.990382 173.663652 
L 282.585573 170.405088 
L 283.180809 168.768003 
L 283.776 168.161674 
L 284.371191 168.098219 
L 286.156809 168.505151 
L 286.752 168.450137 
L 287.347191 168.229299 
L 287.942427 167.827406 
L 288.537618 167.230775 
L 289.132809 166.421631 
L 289.728 165.375655 
L 290.323191 164.06218 
L 290.918382 162.446331 
L 292.108764 158.193296 
L 293.299191 152.681077 
L 294.489573 147.218365 
L 295.084764 145.563989 
L 295.68 145.442235 
L 296.275191 147.311955 
L 296.870382 151.141047 
L 298.656 166.270691 
L 299.251191 169.692916 
L 299.846382 171.858845 
L 300.441618 173.009389 
L 301.036809 173.459456 
L 301.632 173.483532 
L 302.822427 172.967335 
L 305.798382 171.139438 
L 306.988809 170.190624 
L 308.179191 168.837043 
L 308.774382 167.917945 
L 309.369573 166.774539 
L 309.964809 165.348983 
L 310.56 163.574688 
L 311.155191 161.380305 
L 311.750427 158.701085 
L 312.940809 151.833424 
L 314.131191 144.159315 
L 314.726382 141.447082 
L 315.321573 140.844268 
L 315.916764 143.283011 
L 316.512 148.84693 
L 318.297573 170.087101 
L 318.892764 174.150006 
L 319.488 176.39309 
L 320.083191 177.372676 
L 320.678382 177.624211 
L 321.868809 177.355313 
L 322.464 177.216709 
L 323.059191 177.193043 
L 323.654382 177.319479 
L 324.249618 177.614123 
L 324.844809 178.089995 
L 325.44 178.762193 
L 326.035236 179.651686 
L 326.630427 180.786496 
L 327.225618 182.201342 
L 327.820809 183.933758 
L 329.011191 188.463323 
L 331.392 199.599102 
L 331.987191 200.920971 
L 332.582382 200.482717 
L 333.177573 197.916926 
L 333.772809 193.452501 
L 334.963191 182.572858 
L 335.558427 178.166452 
L 336.153618 175.092474 
L 336.748809 173.258832 
L 337.344 172.363656 
L 337.939191 172.081048 
L 338.534382 172.15034 
L 339.724764 172.707582 
L 343.891191 175.024442 
L 345.081618 176.07389 
L 345.676809 176.787361 
L 346.272 177.678749 
L 346.867191 178.797766 
L 347.462382 180.204558 
L 348.057618 181.969935 
L 348.652809 184.172005 
L 349.248 186.886917 
L 350.438427 193.980645 
L 351.628809 202.210447 
L 352.224 205.300144 
L 352.819191 206.221083 
L 353.414382 203.867658 
L 354.009573 198.033735 
L 355.795191 175.148153 
L 356.390382 170.839194 
L 356.985573 168.513779 
L 357.580809 167.534478 
L 358.176 167.30643 
L 360.556809 167.642229 
L 361.152 167.420241 
L 361.747191 166.999351 
L 362.342382 166.365443 
L 362.937573 165.502523 
L 363.532764 164.390139 
L 364.128 163.003476 
L 365.318382 159.319084 
L 366.508764 154.461388 
L 367.699191 149.305918 
L 368.294382 147.379803 
L 368.889618 146.54205 
L 369.484809 147.272713 
L 370.08 149.774021 
L 371.270382 158.507454 
L 372.460809 166.893527 
L 373.056 169.581703 
L 373.651236 171.22906 
L 374.246427 172.060985 
L 374.841618 172.332811 
L 375.436809 172.256585 
L 376.627191 171.595554 
L 377.817573 170.652077 
L 379.008 169.489673 
L 380.198382 167.939251 
L 381.388809 165.708344 
L 381.984 164.219545 
L 382.579191 162.410842 
L 383.769618 157.651858 
L 384.96 151.437143 
L 386.150382 145.364562 
L 386.745573 143.726876 
L 387.340764 144.037947 
L 387.936 146.789188 
L 388.531191 151.759596 
L 389.721573 163.940193 
L 390.316764 168.769997 
L 390.912 172.049864 
L 391.507191 173.935888 
L 392.102382 174.810264 
L 392.697618 175.057434 
L 393.292809 174.971562 
L 395.673618 174.107156 
L 396.864 173.97403 
L 398.054427 174.089827 
L 399.244809 174.45311 
L 400.435191 175.119918 
L 401.625573 176.230353 
L 402.220809 177.0268 
L 402.816 178.042696 
L 403.411191 179.337118 
L 404.006382 180.982512 
L 404.601573 183.064031 
L 405.196809 185.673604 
L 405.792 188.891675 
L 406.982427 197.144042 
L 408.172809 205.696128 
L 408.768 207.807891 
L 409.363191 206.610258 
L 409.958382 201.346467 
L 411.744 175.684907 
L 412.339191 170.382496 
L 412.934382 167.467089 
L 413.529618 166.209812 
L 414.124809 165.883938 
L 414.72 165.968394 
L 414.72 165.968394 
" clip-path="url(#p896122bf39)" style="fill: none; stroke: #0000cc; stroke-width: 1.5; stroke-linecap: square"/>
   </g>
   <g id="line2d_28">
    <path d="M 57.0048 178.666243 
L 58.1952 181.148547 
L 58.7904 182.7932 
L 59.9808 187.123893 
L 61.1712 192.889943 
L 62.3616 198.986085 
L 62.9568 201.097767 
L 63.552 201.668632 
L 64.1472 200.084842 
L 64.7424 196.232417 
L 66.528 179.602099 
L 67.1232 175.736758 
L 67.7184 173.295093 
L 68.3136 172.002608 
L 68.9088 171.490486 
L 69.504 171.438358 
L 70.6944 171.887991 
L 72.48 172.638415 
L 74.2656 173.084045 
L 77.2416 173.697255 
L 78.432 174.117378 
L 79.6224 174.789015 
L 80.8128 175.890513 
L 81.408 176.688314 
L 82.0032 177.717074 
L 82.5984 179.04371 
L 83.1936 180.751648 
L 83.7888 182.941031 
L 84.384 185.723422 
L 84.9792 189.203564 
L 86.1696 198.321055 
L 87.36 207.906463 
L 87.9552 210.104471 
L 88.5504 208.272572 
L 89.1456 201.610561 
L 90.9312 172.660801 
L 91.5264 167.501745 
L 92.1216 164.939966 
L 92.7168 164.010743 
L 93.312 163.901769 
L 94.5024 164.277232 
L 95.0976 164.319675 
L 95.6928 164.148483 
L 96.288 163.737865 
L 96.8832 163.081626 
L 97.4784 162.182579 
L 98.6688 159.699284 
L 100.4544 154.811427 
L 101.0496 153.237438 
L 101.6448 151.97987 
L 102.24 151.271626 
L 102.8352 151.331168 
L 103.4304 152.287773 
L 104.0256 154.108064 
L 106.4064 164.220299 
L 107.0016 165.932478 
L 107.5968 167.078206 
L 108.192 167.71912 
L 108.7872 167.950686 
L 109.3824 167.867049 
L 109.9776 167.54318 
L 110.5728 167.029582 
L 111.7632 165.525643 
L 112.9536 163.389593 
L 114.144 160.53988 
L 115.3344 156.997227 
L 116.5248 153.231914 
L 117.12 151.647138 
L 117.7152 150.589143 
L 118.3104 150.333334 
L 118.9056 151.084973 
L 119.5008 152.877234 
L 120.6912 158.583344 
L 121.8816 164.276111 
L 122.4768 166.303612 
L 123.072 167.675073 
L 123.6672 168.462426 
L 124.2624 168.783983 
L 124.8576 168.757675 
L 125.4528 168.47761 
L 126.048 168.007419 
L 127.2384 166.61552 
L 128.4288 164.629274 
L 129.6192 161.918912 
L 130.8096 158.368681 
L 133.1904 150.421743 
L 133.7856 149.368348 
L 134.3808 149.309481 
L 134.976 150.469992 
L 135.5712 152.831971 
L 137.952 165.794862 
L 138.5472 167.784851 
L 139.1424 169.033725 
L 139.7376 169.673814 
L 140.3328 169.861715 
L 140.928 169.733351 
L 141.5232 169.387264 
L 142.7136 168.25392 
L 143.904 166.61839 
L 145.0944 164.359774 
L 146.2848 161.247641 
L 147.4752 157.130961 
L 149.2608 150.111649 
L 149.856 148.430539 
L 150.4512 147.732303 
L 151.0464 148.40527 
L 151.6416 150.603177 
L 152.2368 154.090609 
L 154.0224 165.854879 
L 154.6176 168.402755 
L 155.2128 170.028562 
L 155.808 170.896592 
L 156.4032 171.2157 
L 156.9984 171.170486 
L 157.5936 170.896026 
L 158.784 169.959688 
L 159.9744 168.666028 
L 161.1648 166.926272 
L 162.3552 164.481714 
L 163.5456 161.000371 
L 164.736 156.246729 
L 166.5216 147.995096 
L 167.1168 146.141921 
L 167.712 145.641523 
L 168.3072 146.992647 
L 168.9024 150.291897 
L 171.2832 168.693337 
L 171.8784 171.117435 
L 172.4736 172.482895 
L 173.0688 173.083746 
L 173.664 173.19842 
L 174.2592 173.036857 
L 175.4496 172.373685 
L 177.8304 170.709283 
L 179.0208 169.591701 
L 180.2112 167.990614 
L 180.8064 166.907127 
L 181.4016 165.566236 
L 181.9968 163.906886 
L 182.592 161.863632 
L 183.1872 159.375636 
L 184.3776 152.984533 
L 185.568 145.629922 
L 186.1632 142.757621 
L 186.7584 141.603033 
L 187.3536 143.096272 
L 187.9488 147.564887 
L 189.7344 167.864713 
L 190.3296 172.360962 
L 190.9248 175.044401 
L 191.52 176.356101 
L 192.1152 176.809323 
L 192.7104 176.813424 
L 194.496 176.336841 
L 195.0912 176.33569 
L 195.6864 176.4699 
L 196.2816 176.750841 
L 196.8768 177.189208 
L 197.472 177.799974 
L 198.0672 178.605198 
L 198.6624 179.635436 
L 199.2576 180.929917 
L 199.8528 182.535001 
L 200.448 184.499565 
L 201.6384 189.643136 
L 204.0192 201.652888 
L 204.6144 202.471821 
L 205.2096 201.013251 
L 205.8048 197.075645 
L 207.5904 179.370936 
L 208.1856 175.245155 
L 208.7808 172.663114 
L 209.376 171.314618 
L 209.9712 170.789227 
L 210.5664 170.735656 
L 211.7568 171.152 
L 212.9472 171.566768 
L 214.1376 171.721023 
L 215.328 171.591666 
L 216.5184 171.173787 
L 217.7088 170.403553 
L 218.304 169.841639 
L 218.8992 169.123419 
L 219.4944 168.208537 
L 220.0896 167.045501 
L 220.6848 165.570378 
L 221.28 163.706848 
L 221.8752 161.369851 
L 222.4704 158.477327 
L 223.6608 150.91014 
L 224.8512 142.30801 
L 225.4464 139.341871 
L 226.0416 138.951529 
L 226.6368 142.246466 
L 227.232 149.157108 
L 228.4224 166.446698 
L 229.0176 172.788069 
L 229.6128 176.68058 
L 230.208 178.623131 
L 230.8032 179.337454 
L 231.3984 179.421145 
L 233.184 179.075487 
L 233.7792 179.215691 
L 234.3744 179.56318 
L 234.9696 180.13363 
L 235.5648 180.939685 
L 236.16 181.995521 
L 236.7552 183.317133 
L 237.9456 186.803668 
L 239.136 191.292342 
L 240.3264 195.87412 
L 240.9216 197.502667 
L 241.5168 198.135426 
L 242.112 197.39328 
L 242.7072 195.139119 
L 243.8976 187.461816 
L 245.088 179.962627 
L 245.6832 177.465406 
L 246.2784 175.880108 
L 246.8736 175.040612 
L 247.4688 174.740018 
L 248.064 174.796915 
L 248.6592 175.079237 
L 249.8496 176.028543 
L 251.04 177.340081 
L 252.2304 179.108109 
L 253.4208 181.593794 
L 254.6112 185.126619 
L 255.8016 189.923715 
L 257.5872 198.084757 
L 258.1824 199.816163 
L 258.7776 200.146453 
L 259.3728 198.609137 
L 259.968 195.163147 
L 261.7536 180.52679 
L 262.3488 177.00346 
L 262.944 174.698453 
L 263.5392 173.419854 
L 264.1344 172.874717 
L 264.7296 172.792522 
L 265.3248 172.972018 
L 266.5152 173.65347 
L 268.3008 174.897058 
L 269.4912 175.918983 
L 270.6816 177.324716 
L 271.2768 178.261706 
L 271.872 179.415979 
L 272.4672 180.842889 
L 273.0624 182.604453 
L 273.6576 184.764798 
L 274.848 190.465981 
L 276.6336 201.118855 
L 277.2288 203.548074 
L 277.824 203.986739 
L 278.4192 201.636279 
L 279.0144 196.46322 
L 280.8 176.695022 
L 281.3952 172.78117 
L 281.9904 170.55395 
L 282.5856 169.535162 
L 283.1808 169.240938 
L 283.776 169.306873 
L 285.5616 169.779197 
L 286.1568 169.762619 
L 286.752 169.613604 
L 287.3472 169.32239 
L 287.9424 168.878483 
L 288.5376 168.266392 
L 289.1328 167.463174 
L 289.728 166.437136 
L 290.3232 165.147608 
L 290.9184 163.546271 
L 291.5136 161.581442 
L 292.704 156.4071 
L 295.0848 144.032364 
L 295.68 143.074306 
L 296.2752 144.442755 
L 296.8704 148.390628 
L 298.656 166.598806 
L 299.2512 170.86336 
L 299.8464 173.524931 
L 300.4416 174.908841 
L 301.0368 175.445654 
L 301.632 175.502311 
L 304.608 174.672864 
L 305.7984 174.801004 
L 306.9888 175.297574 
L 308.1792 176.235853 
L 308.7744 176.921339 
L 309.3696 177.794763 
L 309.9648 178.90146 
L 310.56 180.297947 
L 311.1552 182.051589 
L 311.7504 184.237145 
L 312.3456 186.926482 
L 313.536 193.923158 
L 314.7264 201.981438 
L 315.3216 204.98351 
L 315.9168 205.862902 
L 316.512 203.560787 
L 317.1072 197.883506 
L 318.8928 175.496268 
L 319.488 171.216037 
L 320.0832 168.878001 
L 320.6784 167.874031 
L 321.2736 167.625747 
L 323.6544 167.991962 
L 324.2496 167.803781 
L 324.8448 167.426307 
L 325.44 166.845457 
L 326.0352 166.045182 
L 326.6304 165.004311 
L 327.2256 163.696317 
L 327.8208 162.092082 
L 329.0112 157.912738 
L 331.392 147.593564 
L 331.9872 146.203666 
L 332.5824 146.295519 
L 333.1776 148.237659 
L 333.7728 151.938258 
L 335.5584 166.033367 
L 336.1536 169.212952 
L 336.7488 171.242081 
L 337.344 172.331602 
L 337.9392 172.760957 
L 338.5344 172.776819 
L 339.1296 172.558275 
L 340.32 171.819199 
L 342.1056 170.418975 
L 343.296 169.192846 
L 344.4864 167.46246 
L 345.0816 166.304216 
L 345.6768 164.881944 
L 346.272 163.13715 
L 346.8672 161.010957 
L 348.0576 155.460516 
L 349.8432 145.319732 
L 350.4384 143.072755 
L 351.0336 142.713468 
L 351.6288 144.954962 
L 352.224 149.812288 
L 354.0096 168.525206 
L 354.6048 172.345288 
L 355.2 174.573121 
L 355.7952 175.629554 
L 356.3904 175.961083 
L 356.9856 175.914074 
L 358.7712 175.344716 
L 359.9616 175.309501 
L 360.5568 175.453313 
L 361.152 175.712158 
L 361.7472 176.094646 
L 362.3424 176.61526 
L 362.9376 177.296059 
L 363.5328 178.167944 
L 364.128 179.271606 
L 364.7232 180.657875 
L 365.3184 182.386623 
L 365.9136 184.522396 
L 367.104 190.217219 
L 369.4848 203.781019 
L 370.08 204.455545 
L 370.6752 202.285241 
L 371.2704 197.14444 
L 373.056 176.712743 
L 373.6512 172.605593 
L 374.2464 170.265016 
L 374.8416 169.192343 
L 375.4368 168.877503 
L 376.032 168.936158 
L 377.2224 169.290525 
L 377.8176 169.368504 
L 378.4128 169.318522 
L 379.008 169.1227 
L 379.6032 168.769641 
L 380.1984 168.246963 
L 380.7936 167.53698 
L 381.3888 166.614402 
L 381.984 165.445516 
L 382.5792 163.988945 
L 383.1744 162.198878 
L 384.3648 157.466546 
L 386.7456 145.428069 
L 387.3408 143.926072 
L 387.936 144.369876 
L 388.5312 147.20169 
L 389.1264 152.159777 
L 390.3168 164.08178 
L 390.912 168.764964 
L 391.5072 171.936943 
L 392.1024 173.758386 
L 392.6976 174.599953 
L 393.2928 174.83238 
L 393.888 174.739028 
L 396.864 173.675815 
L 398.0544 173.558793 
L 399.2448 173.615445 
L 400.4352 173.831215 
L 401.6256 174.236472 
L 402.816 174.918815 
L 404.0064 176.04532 
L 404.6016 176.858953 
L 405.1968 177.904642 
L 405.792 179.247991 
L 406.3872 180.970263 
L 406.9824 183.167973 
L 407.5776 185.946662 
L 408.1728 189.401439 
L 409.3632 198.341644 
L 410.5536 207.488234 
L 411.1488 209.427026 
L 411.744 207.457336 
L 412.3392 200.911376 
L 414.1248 173.09391 
L 414.72 168.097979 
L 414.72 168.097979 
" clip-path="url(#p896122bf39)" style="fill: none; stroke-dasharray: 5.55,2.4; stroke-dashoffset: 0; stroke: #ff0000; stroke-width: 1.5"/>
   </g>
   <g id="patch_8">
    <path d="M 57.6 213.662118 
L 57.6 135.393882 
" style="fill: none; stroke: #000000; stroke-width: 0.8; stroke-linejoin: miter; stroke-linecap: square"/>
   </g>
   <g id="patch_9">
    <path d="M 414.72 213.662118 
L 414.72 135.393882 
" style="fill: none; stroke: #000000; stroke-width: 0.8; stroke-linejoin: miter; stroke-linecap: square"/>
   </g>
   <g id="patch_10">
    <path d="M 57.6 213.662118 
L 414.72 213.662118 
" style="fill: none; stroke: #000000; stroke-width: 0.8; stroke-linejoin: miter; stroke-linecap: square"/>
   </g>
   <g id="patch_11">
    <path d="M 57.6 135.393882 
L 414.72 135.393882 
" style="fill: none; stroke: #000000; stroke-width: 0.8; stroke-linejoin: miter; stroke-linecap: square"/>
   </g>
  </g>
  <g id="axes_3">
   <g id="patch_12">
    <path d="M 57.6 307.584 
L 414.72 307.584 
L 414.72 229.315765 
L 57.6 229.315765 
z
" style="fill: #ffffff"/>
   </g>
   <g id="matplotlib.axis_5">
    <g id="xtick_19">
     <g id="line2d_29">
      <g>
       <use xlink:href="#mea9e4d8a54" x="57.6" y="307.584" style="stroke: #000000; stroke-width: 0.8"/>
      </g>
     </g>
     <g id="text_7">
      <!-- 10 -->
      <g transform="translate(51.2375 322.182437)scale(0.1 -0.1)">
       <use xlink:href="#DejaVuSans-31"/>
       <use xlink:href="#DejaVuSans-30" x="63.623047"/>
      </g>
     </g>
    </g>
    <g id="xtick_20">
     <g id="line2d_30">
      <g>
       <use xlink:href="#mea9e4d8a54" x="105.216" y="307.584" style="stroke: #000000; stroke-width: 0.8"/>
      </g>
     </g>
     <g id="text_8">
      <!-- 12 -->
      <g transform="translate(98.8535 322.182437)scale(0.1 -0.1)">
       <use xlink:href="#DejaVuSans-31"/>
       <use xlink:href="#DejaVuSans-32" x="63.623047"/>
      </g>
     </g>
    </g>
    <g id="xtick_21">
     <g id="line2d_31">
      <g>
       <use xlink:href="#mea9e4d8a54" x="152.832" y="307.584" style="stroke: #000000; stroke-width: 0.8"/>
      </g>
     </g>
     <g id="text_9">
      <!-- 14 -->
      <g transform="translate(146.4695 322.182437)scale(0.1 -0.1)">
       <defs>
        <path id="DejaVuSans-34" d="M 2419 4116 
L 825 1625 
L 2419 1625 
L 2419 4116 
z
M 2253 4666 
L 3047 4666 
L 3047 1625 
L 3713 1625 
L 3713 1100 
L 3047 1100 
L 3047 0 
L 2419 0 
L 2419 1100 
L 313 1100 
L 313 1709 
L 2253 4666 
z
" transform="scale(0.015625)"/>
       </defs>
       <use xlink:href="#DejaVuSans-31"/>
       <use xlink:href="#DejaVuSans-34" x="63.623047"/>
      </g>
     </g>
    </g>
    <g id="xtick_22">
     <g id="line2d_32">
      <g>
       <use xlink:href="#mea9e4d8a54" x="200.448" y="307.584" style="stroke: #000000; stroke-width: 0.8"/>
      </g>
     </g>
     <g id="text_10">
      <!-- 16 -->
      <g transform="translate(194.0855 322.182437)scale(0.1 -0.1)">
       <defs>
        <path id="DejaVuSans-36" d="M 2113 2584 
Q 1688 2584 1439 2293 
Q 1191 2003 1191 1497 
Q 1191 994 1439 701 
Q 1688 409 2113 409 
Q 2538 409 2786 701 
Q 3034 994 3034 1497 
Q 3034 2003 2786 2293 
Q 2538 2584 2113 2584 
z
M 3366 4563 
L 3366 3988 
Q 3128 4100 2886 4159 
Q 2644 4219 2406 4219 
Q 1781 4219 1451 3797 
Q 1122 3375 1075 2522 
Q 1259 2794 1537 2939 
Q 1816 3084 2150 3084 
Q 2853 3084 3261 2657 
Q 3669 2231 3669 1497 
Q 3669 778 3244 343 
Q 2819 -91 2113 -91 
Q 1303 -91 875 529 
Q 447 1150 447 2328 
Q 447 3434 972 4092 
Q 1497 4750 2381 4750 
Q 2619 4750 2861 4703 
Q 3103 4656 3366 4563 
z
" transform="scale(0.015625)"/>
       </defs>
       <use xlink:href="#DejaVuSans-31"/>
       <use xlink:href="#DejaVuSans-36" x="63.623047"/>
      </g>
     </g>
    </g>
    <g id="xtick_23">
     <g id="line2d_33">
      <g>
       <use xlink:href="#mea9e4d8a54" x="248.064" y="307.584" style="stroke: #000000; stroke-width: 0.8"/>
      </g>
     </g>
     <g id="text_11">
      <!-- 18 -->
      <g transform="translate(241.7015 322.182437)scale(0.1 -0.1)">
       <defs>
        <path id="DejaVuSans-38" d="M 2034 2216 
Q 1584 2216 1326 1975 
Q 1069 1734 1069 1313 
Q 1069 891 1326 650 
Q 1584 409 2034 409 
Q 2484 409 2743 651 
Q 3003 894 3003 1313 
Q 3003 1734 2745 1975 
Q 2488 2216 2034 2216 
z
M 1403 2484 
Q 997 2584 770 2862 
Q 544 3141 544 3541 
Q 544 4100 942 4425 
Q 1341 4750 2034 4750 
Q 2731 4750 3128 4425 
Q 3525 4100 3525 3541 
Q 3525 3141 3298 2862 
Q 3072 2584 2669 2484 
Q 3125 2378 3379 2068 
Q 3634 1759 3634 1313 
Q 3634 634 3220 271 
Q 2806 -91 2034 -91 
Q 1263 -91 848 271 
Q 434 634 434 1313 
Q 434 1759 690 2068 
Q 947 2378 1403 2484 
z
M 1172 3481 
Q 1172 3119 1398 2916 
Q 1625 2713 2034 2713 
Q 2441 2713 2670 2916 
Q 2900 3119 2900 3481 
Q 2900 3844 2670 4047 
Q 2441 4250 2034 4250 
Q 1625 4250 1398 4047 
Q 1172 3844 1172 3481 
z
" transform="scale(0.015625)"/>
       </defs>
       <use xlink:href="#DejaVuSans-31"/>
       <use xlink:href="#DejaVuSans-38" x="63.623047"/>
      </g>
     </g>
    </g>
    <g id="xtick_24">
     <g id="line2d_34">
      <g>
       <use xlink:href="#mea9e4d8a54" x="295.68" y="307.584" style="stroke: #000000; stroke-width: 0.8"/>
      </g>
     </g>
     <g id="text_12">
      <!-- 20 -->
      <g transform="translate(289.3175 322.182437)scale(0.1 -0.1)">
       <use xlink:href="#DejaVuSans-32"/>
       <use xlink:href="#DejaVuSans-30" x="63.623047"/>
      </g>
     </g>
    </g>
    <g id="xtick_25">
     <g id="line2d_35">
      <g>
       <use xlink:href="#mea9e4d8a54" x="343.296" y="307.584" style="stroke: #000000; stroke-width: 0.8"/>
      </g>
     </g>
     <g id="text_13">
      <!-- 22 -->
      <g transform="translate(336.9335 322.182437)scale(0.1 -0.1)">
       <use xlink:href="#DejaVuSans-32"/>
       <use xlink:href="#DejaVuSans-32" x="63.623047"/>
      </g>
     </g>
    </g>
    <g id="xtick_26">
     <g id="line2d_36">
      <g>
       <use xlink:href="#mea9e4d8a54" x="390.912" y="307.584" style="stroke: #000000; stroke-width: 0.8"/>
      </g>
     </g>
     <g id="text_14">
      <!-- 24 -->
      <g transform="translate(384.5495 322.182437)scale(0.1 -0.1)">
       <use xlink:href="#DejaVuSans-32"/>
       <use xlink:href="#DejaVuSans-34" x="63.623047"/>
      </g>
     </g>
    </g>
    <g id="xtick_27">
     <g id="line2d_37">
      <g>
       <use xlink:href="#mea9e4d8a54" x="414.72" y="307.584" style="stroke: #000000; stroke-width: 0.8"/>
      </g>
     </g>
     <g id="text_15">
      <!-- 25 -->
      <g transform="translate(408.3575 322.182437)scale(0.1 -0.1)">
       <defs>
        <path id="DejaVuSans-35" d="M 691 4666 
L 3169 4666 
L 3169 4134 
L 1269 4134 
L 1269 2991 
Q 1406 3038 1543 3061 
Q 1681 3084 1819 3084 
Q 2600 3084 3056 2656 
Q 3513 2228 3513 1497 
Q 3513 744 3044 326 
Q 2575 -91 1722 -91 
Q 1428 -91 1123 -41 
Q 819 9 494 109 
L 494 744 
Q 775 591 1075 516 
Q 1375 441 1709 441 
Q 2250 441 2565 725 
Q 2881 1009 2881 1497 
Q 2881 1984 2565 2268 
Q 2250 2553 1709 2553 
Q 1456 2553 1204 2497 
Q 953 2441 691 2322 
L 691 4666 
z
" transform="scale(0.015625)"/>
       </defs>
       <use xlink:href="#DejaVuSans-32"/>
       <use xlink:href="#DejaVuSans-35" x="63.623047"/>
      </g>
     </g>
    </g>
   </g>
   <g id="matplotlib.axis_6">
    <g id="ytick_7">
     <g id="line2d_38">
      <g>
       <use xlink:href="#m055e31a3bc" x="57.6" y="278.365647" style="stroke: #000000; stroke-width: 0.8"/>
      </g>
     </g>
     <g id="text_16">
      <!-- 20 -->
      <g transform="translate(37.875 282.164865)scale(0.1 -0.1)">
       <use xlink:href="#DejaVuSans-32"/>
       <use xlink:href="#DejaVuSans-30" x="63.623047"/>
      </g>
     </g>
    </g>
    <g id="ytick_8">
     <g id="line2d_39">
      <g>
       <use xlink:href="#m055e31a3bc" x="57.6" y="240.475681" style="stroke: #000000; stroke-width: 0.8"/>
      </g>
     </g>
     <g id="text_17">
      <!-- 40 -->
      <g transform="translate(37.875 244.2749)scale(0.1 -0.1)">
       <use xlink:href="#DejaVuSans-34"/>
       <use xlink:href="#DejaVuSans-30" x="63.623047"/>
      </g>
     </g>
    </g>
   </g>
   <g id="line2d_40">
    <path d="M 57.6 286.999263 
L 58.195191 288.215705 
L 58.790405 289.091263 
L 59.385595 289.528644 
L 59.980809 289.386581 
L 60.576 288.468943 
L 61.171191 286.522032 
L 61.766405 283.256834 
L 62.361595 278.423448 
L 62.956786 271.965082 
L 64.742405 249.275807 
L 65.337595 244.805109 
L 65.932786 243.417119 
L 66.528 244.774222 
L 67.123214 247.947898 
L 70.099214 267.524571 
L 71.289618 273.710729 
L 72.48 279.047424 
L 74.265618 285.795198 
L 76.051214 291.311303 
L 77.836809 295.81733 
L 79.027214 298.340445 
L 80.217595 300.509206 
L 81.408 302.305679 
L 82.598405 303.608924 
L 83.193595 303.972539 
L 83.788809 304.026353 
L 84.384 303.607859 
L 84.979191 302.455818 
L 85.574405 300.167257 
L 86.169595 296.165265 
L 86.764786 289.734398 
L 87.36 280.247095 
L 89.145595 241.236993 
L 89.740786 233.868482 
L 90.336 232.873412 
L 90.931214 236.736645 
L 92.716809 254.579948 
L 93.907214 263.066931 
L 95.097618 269.078436 
L 96.288 273.481705 
L 96.883214 275.165602 
L 97.478405 276.489735 
L 98.073618 277.415841 
L 98.668809 277.886363 
L 99.264 277.827111 
L 99.859214 277.152852 
L 100.454405 275.780566 
L 101.049595 273.653759 
L 101.644809 270.780215 
L 102.835214 263.416392 
L 104.025595 256.328503 
L 104.620809 254.022899 
L 105.216 252.937442 
L 105.811191 253.0795 
L 106.406405 254.254845 
L 107.001595 256.170043 
L 108.192 261.105598 
L 109.977595 268.737283 
L 111.168 273.113406 
L 112.358405 276.601474 
L 112.953595 277.922949 
L 113.548786 278.895136 
L 114.144 279.44871 
L 114.739214 279.49683 
L 115.334405 278.937138 
L 115.929618 277.660667 
L 116.524809 275.573652 
L 117.120023 272.636384 
L 118.310405 264.660443 
L 119.500786 256.358152 
L 120.095977 253.429326 
L 120.691191 251.864985 
L 121.286382 251.735863 
L 121.881595 252.842539 
L 122.476786 254.839626 
L 123.667191 260.151147 
L 125.452809 268.406946 
L 126.643214 273.182006 
L 127.833595 277.111597 
L 129.024 279.959949 
L 129.619191 280.857136 
L 130.214405 281.303013 
L 130.809595 281.194794 
L 131.404809 280.408532 
L 132 278.81009 
L 132.595191 276.283279 
L 133.190405 272.781375 
L 134.380786 263.465959 
L 135.571191 254.286386 
L 136.166405 251.379227 
L 136.761595 250.146479 
L 137.356786 250.541672 
L 137.952 252.222499 
L 139.142382 257.682389 
L 141.523191 269.546262 
L 142.713595 274.532094 
L 143.903977 278.676782 
L 145.094382 281.805966 
L 145.689595 282.884851 
L 146.284786 283.546018 
L 146.879977 283.685884 
L 147.475191 283.169645 
L 148.070405 281.834743 
L 148.665595 279.509867 
L 149.260809 276.061376 
L 149.856 271.477676 
L 151.641595 254.680509 
L 152.236809 250.585188 
L 152.832 248.427289 
L 153.427191 248.309436 
L 154.022405 249.873254 
L 154.617595 252.544563 
L 158.188786 271.69011 
L 159.379191 276.778853 
L 160.569595 281.065054 
L 161.76 284.453661 
L 162.355191 285.735093 
L 162.950382 286.664858 
L 163.545595 287.150924 
L 164.140786 287.063076 
L 164.736 286.225854 
L 165.331191 284.420569 
L 165.926382 281.409025 
L 166.521595 277.00211 
L 167.711977 264.309111 
L 168.902382 250.966514 
L 169.497595 246.815966 
L 170.092786 245.298973 
L 170.687977 246.224085 
L 171.283191 248.87806 
L 175.449595 273.311046 
L 176.64 278.58342 
L 177.830405 283.149015 
L 179.020809 287.058512 
L 180.211191 290.292699 
L 181.401595 292.704453 
L 181.996786 293.48647 
L 182.592 293.865694 
L 183.187191 293.691017 
L 183.782405 292.741232 
L 184.377595 290.711063 
L 184.972786 287.219987 
L 185.568 281.882115 
L 186.163191 274.492788 
L 187.948786 247.008105 
L 188.544 241.565623 
L 189.139191 240.083246 
L 189.734382 242.005648 
L 190.329595 245.986801 
L 192.115191 259.887881 
L 193.305595 267.422046 
L 194.495977 273.6165 
L 195.686405 278.834328 
L 196.876809 283.240832 
L 198.067214 286.856286 
L 199.257595 289.545311 
L 199.852809 290.429876 
L 200.448 290.892301 
L 201.043191 290.791637 
L 201.638382 289.927534 
L 202.233618 288.033141 
L 202.828809 284.791518 
L 203.424 279.904342 
L 204.019191 273.251079 
L 205.804809 248.960253 
L 206.4 243.970979 
L 206.995236 242.325149 
L 207.590427 243.686937 
L 208.185618 247.025081 
L 210.566382 263.747436 
L 211.756809 270.549183 
L 212.947191 276.329348 
L 214.137573 281.322233 
L 215.328 285.661829 
L 216.518427 289.428413 
L 217.708809 292.665747 
L 218.899191 295.367723 
L 220.089573 297.42175 
L 220.684764 298.10904 
L 221.28 298.462721 
L 221.875191 298.340727 
L 222.470382 297.523338 
L 223.065573 295.685262 
L 223.660764 292.37989 
L 224.256 287.075825 
L 224.851191 279.324133 
L 226.041618 257.494795 
L 226.636809 246.613673 
L 227.232 239.136968 
L 227.827191 236.593757 
L 228.422382 238.497519 
L 229.017618 243.061891 
L 230.803236 258.56589 
L 231.993618 266.314945 
L 233.184 272.359083 
L 234.374382 277.192929 
L 235.564809 280.92897 
L 236.16 282.339309 
L 236.755191 283.381421 
L 237.350382 283.977042 
L 237.945573 284.017151 
L 238.540809 283.358918 
L 239.136 281.831343 
L 239.731191 279.258455 
L 240.326427 275.513535 
L 241.516809 264.848191 
L 242.707191 253.463859 
L 243.302382 249.632127 
L 243.897573 247.873068 
L 244.492764 248.175225 
L 245.088 250.087005 
L 246.278382 256.370689 
L 248.064 266.483373 
L 249.254382 272.341643 
L 250.444809 277.403118 
L 251.635191 281.672977 
L 252.825618 285.066719 
L 253.420809 286.362847 
L 254.016 287.317834 
L 254.611236 287.841751 
L 255.206427 287.805386 
L 255.801618 287.032292 
L 256.396809 285.297308 
L 256.992 282.347925 
L 257.587191 277.966819 
L 258.182382 272.103423 
L 259.968 251.040255 
L 260.563191 246.52407 
L 261.158382 244.751259 
L 261.753573 245.569755 
L 262.348809 248.238583 
L 266.515191 273.15439 
L 267.705573 278.496587 
L 268.896 283.138055 
L 270.086382 287.153956 
L 271.276764 290.570802 
L 272.467191 293.340558 
L 273.062382 294.428021 
L 273.657618 295.25384 
L 274.252809 295.732556 
L 274.848 295.730681 
L 275.443191 295.045935 
L 276.038382 293.38569 
L 276.633618 290.358788 
L 277.228809 285.513485 
L 277.824 278.482267 
L 279.014427 258.788204 
L 279.609618 248.805063 
L 280.204809 241.610612 
L 280.8 238.666821 
L 281.395191 239.802679 
L 281.990382 243.627568 
L 283.776 258.296668 
L 284.966382 266.160805 
L 286.156809 272.473659 
L 287.347191 277.683404 
L 288.537618 281.966218 
L 289.728 285.282128 
L 290.323191 286.503299 
L 290.918382 287.352213 
L 291.513573 287.729197 
L 292.108764 287.492743 
L 292.704 286.452313 
L 293.299191 284.37336 
L 293.894382 281.008007 
L 294.489573 276.178723 
L 295.68 262.69732 
L 296.870382 249.433459 
L 297.465618 245.767891 
L 298.060809 244.860817 
L 298.656 246.336592 
L 299.251191 249.377472 
L 302.227236 268.002454 
L 303.417618 274.028752 
L 304.608 279.247357 
L 305.798382 283.778283 
L 306.988809 287.685524 
L 308.179191 290.978545 
L 309.369573 293.573926 
L 309.964809 294.533476 
L 310.56 295.182949 
L 311.155191 295.411381 
L 311.750427 295.0487 
L 312.345618 293.844756 
L 312.940809 291.453723 
L 313.536 287.447923 
L 314.131191 281.411531 
L 314.726382 273.17205 
L 316.512 244.395807 
L 317.107191 239.655323 
L 317.702382 239.181833 
L 318.297573 242.012373 
L 321.273618 264.684883 
L 322.464 271.291644 
L 323.654382 276.74279 
L 324.844809 281.269529 
L 326.035236 284.889799 
L 326.630427 286.311937 
L 327.225618 287.416008 
L 327.820809 288.125348 
L 328.416 288.327014 
L 329.011191 287.86157 
L 329.606382 286.517477 
L 330.201573 284.040312 
L 330.796809 280.176443 
L 331.392 274.779448 
L 333.772809 247.611763 
L 334.368 244.720203 
L 334.963191 244.648808 
L 335.558427 246.796417 
L 336.748809 254.248472 
L 338.534382 265.708215 
L 339.724764 272.092657 
L 340.915191 277.601172 
L 342.105573 282.389545 
L 343.296 286.554617 
L 344.486382 290.150994 
L 345.676809 293.188704 
L 346.867191 295.591757 
L 347.462382 296.483161 
L 348.057618 297.086346 
L 348.652809 297.292345 
L 349.248 296.931245 
L 349.843236 295.747321 
L 350.438427 293.377332 
L 351.033618 289.355369 
L 351.628809 283.194544 
L 352.224 274.630084 
L 354.009573 243.611851 
L 354.604809 238.346684 
L 355.2 237.777503 
L 355.795191 240.825023 
L 358.771191 264.383258 
L 359.961618 270.932056 
L 361.152 276.228536 
L 362.342382 280.496511 
L 363.532764 283.683649 
L 364.128 284.781961 
L 364.723191 285.456282 
L 365.318382 285.597097 
L 365.913573 285.056049 
L 366.508764 283.646593 
L 367.104 281.161613 
L 367.699191 277.423882 
L 368.294382 272.384017 
L 370.675191 249.029989 
L 371.270382 246.756867 
L 371.865618 246.821999 
L 372.460809 248.74079 
L 373.651236 255.388272 
L 375.436809 266.038089 
L 376.627191 272.142375 
L 377.817573 277.428269 
L 379.008 281.965747 
L 380.198382 285.755577 
L 381.388809 288.682748 
L 381.984 289.730137 
L 382.579191 290.404564 
L 383.174427 290.588463 
L 383.769618 290.111857 
L 384.364809 288.742012 
L 384.96 286.186621 
L 385.555191 282.133841 
L 386.150382 276.363991 
L 387.340764 260.548208 
L 387.936 252.41525 
L 388.531191 246.158114 
L 389.126382 242.956377 
L 389.721573 242.98105 
L 390.316764 245.473955 
L 391.507191 253.680657 
L 392.697618 261.981214 
L 393.888 269.048694 
L 395.078382 275.041085 
L 396.268809 280.209556 
L 397.459236 284.706096 
L 398.649618 288.624515 
L 399.84 292.028995 
L 401.030382 294.955729 
L 402.220809 297.393685 
L 403.411191 299.224868 
L 404.006382 299.812501 
L 404.601573 300.069406 
L 405.196809 299.845299 
L 405.792 298.905306 
L 406.387191 296.898478 
L 406.982427 293.337672 
L 407.577618 287.641191 
L 408.172809 279.319012 
L 410.553618 237.445626 
L 411.148809 235.45835 
L 411.744 238.024645 
L 412.934382 248.817832 
L 414.124809 258.923582 
L 414.72 262.983504 
L 414.72 262.983504 
" clip-path="url(#p8b6341060c)" style="fill: none; stroke: #0000cc; stroke-width: 1.5; stroke-linecap: square"/>
   </g>
   <g id="line2d_41">
    <path d="M 57.0048 285.506567 
L 58.1952 288.215721 
L 58.7904 289.091253 
L 59.3856 289.528652 
L 59.9808 289.386607 
L 60.576 288.468952 
L 61.1712 286.52208 
L 61.7664 283.257001 
L 62.3616 278.423542 
L 62.9568 271.965197 
L 64.7424 249.276035 
L 65.3376 244.805348 
L 65.9328 243.417373 
L 66.528 244.774401 
L 67.1232 247.947979 
L 70.0992 267.524545 
L 71.2896 273.710625 
L 72.48 279.047444 
L 74.2656 285.795135 
L 76.0512 291.311256 
L 77.8368 295.817229 
L 79.0272 298.340215 
L 80.2176 300.508722 
L 81.408 302.304442 
L 82.5984 303.605782 
L 83.1936 303.967503 
L 83.7888 304.018238 
L 84.384 303.594783 
L 84.9792 302.434809 
L 85.5744 300.134037 
L 86.1696 296.114054 
L 86.7648 289.658959 
L 87.36 280.144742 
L 89.1456 241.149541 
L 89.7408 233.837424 
L 90.336 232.894971 
L 90.9312 236.787638 
L 92.7168 254.625549 
L 93.9072 263.099187 
L 95.0976 269.103199 
L 96.288 273.501662 
L 96.8832 275.183271 
L 97.4784 276.505013 
L 98.0736 277.428351 
L 98.6688 277.895624 
L 99.264 277.832444 
L 99.8592 277.15351 
L 100.4544 275.775709 
L 101.0496 273.642681 
L 101.6448 270.762871 
L 102.8352 263.389849 
L 104.0256 256.304399 
L 104.6208 254.005184 
L 105.216 252.92789 
L 105.8112 253.078288 
L 106.4064 254.260806 
L 107.0016 256.181344 
L 108.192 261.122479 
L 109.9776 268.755399 
L 111.168 273.130504 
L 112.3584 276.616755 
L 112.9536 277.936969 
L 113.5488 278.907566 
L 114.144 279.459089 
L 114.7392 279.504643 
L 115.3344 278.941678 
L 115.9296 277.66113 
L 116.5248 275.569197 
L 117.12 272.626567 
L 118.3104 264.640532 
L 119.5008 256.336471 
L 120.096 253.411553 
L 120.6912 251.853459 
L 121.2864 251.731292 
L 121.8816 252.844268 
L 122.4768 254.846363 
L 123.6672 260.163366 
L 125.4528 268.421111 
L 126.6432 273.196061 
L 127.8336 277.125207 
L 129.024 279.972719 
L 129.6192 280.869301 
L 130.2144 281.314357 
L 130.8096 281.205008 
L 131.4048 280.41715 
L 132 278.816491 
L 132.5952 276.286579 
L 133.1904 272.780999 
L 134.3808 263.457005 
L 135.5712 254.272714 
L 136.1664 251.366606 
L 136.7616 250.136576 
L 137.3568 250.535559 
L 137.952 252.220124 
L 139.1424 257.685607 
L 141.5232 269.553773 
L 142.7136 274.540545 
L 143.904 278.686371 
L 145.0944 281.817088 
L 145.6896 282.897004 
L 146.2848 283.559493 
L 146.88 283.700954 
L 147.4752 283.186572 
L 148.0704 281.853677 
L 148.6656 279.530637 
L 149.2608 276.083414 
L 149.856 271.49936 
L 151.6416 254.686714 
L 152.2368 250.583238 
L 152.832 248.418253 
L 153.4272 248.296011 
L 154.0224 249.858188 
L 154.6176 252.530045 
L 158.1888 271.685883 
L 159.3792 276.777364 
L 160.5696 281.066853 
L 161.76 284.460167 
L 162.3552 285.744965 
L 162.9504 286.679067 
L 163.5456 287.17082 
L 164.1408 287.090438 
L 164.736 286.262875 
L 165.3312 284.469383 
L 165.9264 281.471466 
L 166.5216 277.078114 
L 167.712 264.395914 
L 168.9024 251.015797 
L 169.4976 246.832169 
L 170.0928 245.283616 
L 170.688 246.186536 
L 171.2832 248.829243 
L 175.4496 273.281116 
L 176.64 278.559225 
L 177.8304 283.130383 
L 179.0208 287.046514 
L 180.2112 290.290369 
L 181.4016 292.719092 
L 181.9968 293.514949 
L 182.592 293.913873 
L 183.1872 293.767439 
L 183.7824 292.857716 
L 184.3776 290.882613 
L 184.9728 287.462984 
L 185.568 282.208912 
L 186.1632 274.899291 
L 187.9488 247.308532 
L 188.544 241.685511 
L 189.1392 240.027357 
L 189.7344 241.83135 
L 190.3296 245.76102 
L 192.1152 259.696114 
L 193.3056 267.267139 
L 194.496 273.485219 
L 195.6864 278.718602 
L 196.8768 283.136177 
L 198.0672 286.75891 
L 199.2576 289.450692 
L 199.8528 290.334406 
L 200.448 290.794257 
L 201.0432 290.689076 
L 201.6384 289.818545 
L 202.2336 287.916615 
L 202.8288 284.668043 
L 203.424 279.778198 
L 204.0192 273.132249 
L 205.8048 248.958664 
L 206.4 244.018096 
L 206.9952 242.402636 
L 207.5904 243.772954 
L 208.1856 247.103913 
L 210.5664 263.78142 
L 211.7568 270.574293 
L 212.9472 276.35105 
L 214.1376 281.343144 
L 215.328 285.684582 
L 216.5184 289.457256 
L 217.7088 292.709531 
L 218.8992 295.44578 
L 220.0896 297.579823 
L 220.6848 298.341613 
L 221.28 298.810035 
L 221.8752 298.864104 
L 222.4704 298.313721 
L 223.0656 296.871239 
L 223.6608 294.127166 
L 224.256 289.559713 
L 224.8512 282.643502 
L 225.4464 273.151875 
L 226.6368 250.039605 
L 227.232 240.964346 
L 227.8272 236.596612 
L 228.4224 237.150824 
L 229.0176 241.091799 
L 230.8032 256.936727 
L 231.9936 265.059655 
L 233.184 271.319381 
L 234.3744 276.292372 
L 235.5648 280.144442 
L 236.16 281.614563 
L 236.7552 282.723423 
L 237.3504 283.398649 
L 237.9456 283.538822 
L 238.5408 283.010696 
L 239.136 281.653424 
L 239.7312 279.298653 
L 240.3264 275.818573 
L 240.9216 271.21087 
L 242.7072 254.504945 
L 243.3024 250.500855 
L 243.8976 248.437811 
L 244.4928 248.397015 
L 245.088 250.009136 
L 245.6832 252.701722 
L 249.2544 271.789983 
L 250.4448 276.853568 
L 251.6352 281.111672 
L 252.8256 284.462819 
L 253.4208 285.718805 
L 254.016 286.615936 
L 254.6112 287.059494 
L 255.2064 286.916112 
L 255.8016 286.007319 
L 256.3968 284.112793 
L 256.992 280.99767 
L 257.5872 276.484862 
L 258.7776 263.685912 
L 259.968 250.586669 
L 260.5632 246.668736 
L 261.1584 245.377406 
L 261.7536 246.467235 
L 262.3488 249.208914 
L 265.92 270.622959 
L 267.1104 276.245488 
L 268.3008 281.117336 
L 269.4912 285.313445 
L 270.6816 288.844568 
L 271.872 291.622527 
L 272.4672 292.650124 
L 273.0624 293.351226 
L 273.6576 293.615635 
L 274.2528 293.277451 
L 274.848 292.097361 
L 275.4432 289.752673 
L 276.0384 285.857826 
L 276.6336 280.058005 
L 277.2288 272.246859 
L 279.0144 245.488316 
L 279.6096 241.039889 
L 280.2048 240.479627 
L 280.8 242.996887 
L 281.9904 251.991256 
L 283.1808 260.917738 
L 284.3712 268.257141 
L 285.5616 274.325967 
L 286.752 279.457923 
L 287.9424 283.801911 
L 289.1328 287.373986 
L 290.3232 290.040874 
L 290.9184 290.923984 
L 291.5136 291.392492 
L 292.1088 291.305712 
L 292.704 290.462204 
L 293.2992 288.591201 
L 293.8944 285.366126 
L 294.4896 280.471226 
L 295.0848 273.760975 
L 296.8704 248.89138 
L 297.4656 243.694476 
L 298.0608 241.935136 
L 298.656 243.285173 
L 299.2512 246.67641 
L 301.632 263.623655 
L 302.8224 270.45929 
L 304.0128 276.249647 
L 305.2032 281.238507 
L 306.3936 285.558971 
L 307.584 289.280487 
L 308.7744 292.418917 
L 309.9648 294.900335 
L 310.56 295.822604 
L 311.1552 296.451173 
L 311.7504 296.677659 
L 312.3456 296.333743 
L 312.9408 295.167633 
L 313.536 292.824034 
L 314.1312 288.850778 
L 314.7264 282.78233 
L 315.3216 274.374409 
L 317.1072 244.036014 
L 317.7024 238.837451 
L 318.2976 238.199441 
L 318.8928 241.111933 
L 321.8688 264.397737 
L 323.0592 270.987327 
L 324.2496 276.352309 
L 325.44 280.72289 
L 326.6304 284.072995 
L 327.2256 285.289778 
L 327.8208 286.118697 
L 328.416 286.460239 
L 329.0112 286.175527 
L 329.6064 285.082363 
L 330.2016 282.963625 
L 330.7968 279.603312 
L 331.392 274.869945 
L 332.5824 262.035215 
L 333.7728 249.860829 
L 334.368 246.610038 
L 334.9632 245.890966 
L 335.5584 247.344288 
L 336.1536 250.236787 
L 339.7248 271.231632 
L 340.9152 276.72417 
L 342.1056 281.47172 
L 343.296 285.52256 
L 344.4864 288.844657 
L 345.6768 291.26254 
L 346.272 292.001611 
L 346.8672 292.295226 
L 347.4624 291.981948 
L 348.0576 290.832366 
L 348.6528 288.54273 
L 349.248 284.758854 
L 349.8432 279.168482 
L 350.4384 271.704042 
L 352.224 246.381354 
L 352.8192 242.098216 
L 353.4144 241.436363 
L 354.0096 243.700326 
L 355.2 252.216802 
L 356.3904 260.94106 
L 357.5808 268.248948 
L 358.7712 274.356386 
L 359.9616 279.569665 
L 361.152 284.051416 
L 362.3424 287.868466 
L 363.5328 291.004288 
L 364.7232 293.3019 
L 365.3184 294.012084 
L 365.9136 294.300097 
L 366.5088 294.003116 
L 367.104 292.883459 
L 367.6992 290.615539 
L 368.2944 286.800771 
L 368.8896 281.053695 
L 369.4848 273.21587 
L 371.2704 245.531126 
L 371.8656 240.690248 
L 372.4608 239.896171 
L 373.056 242.35743 
L 374.2464 251.50701 
L 375.4368 260.588692 
L 376.6272 267.994082 
L 377.8176 274.07427 
L 379.008 279.183214 
L 380.1984 283.465327 
L 381.3888 286.908739 
L 381.984 288.264766 
L 382.5792 289.316143 
L 383.1744 289.983787 
L 383.7696 290.149169 
L 384.3648 289.641834 
L 384.96 288.230094 
L 385.5552 285.626595 
L 386.1504 281.531908 
L 386.7456 275.74949 
L 387.936 260.118447 
L 388.5312 252.207339 
L 389.1264 246.205002 
L 389.7216 243.21509 
L 390.3168 243.356648 
L 390.912 245.872217 
L 392.1024 253.986671 
L 393.2928 262.189902 
L 394.4832 269.202769 
L 395.6736 275.166892 
L 396.864 280.319864 
L 398.6496 286.836829 
L 400.4352 292.157812 
L 402.2208 296.484665 
L 403.4112 298.874444 
L 404.6016 300.853602 
L 405.792 302.295303 
L 406.3872 302.707439 
L 406.9824 302.792548 
L 407.5776 302.385282 
L 408.1728 301.2228 
L 408.768 298.905464 
L 409.3632 294.871509 
L 409.9584 288.443899 
L 410.5536 279.066457 
L 412.3392 241.518719 
L 412.9344 234.624017 
L 413.5296 233.776697 
L 414.1248 237.521487 
L 414.72 243.375893 
L 414.72 243.375893 
" clip-path="url(#p8b6341060c)" style="fill: none; stroke-dasharray: 5.55,2.4; stroke-dashoffset: 0; stroke: #ff0000; stroke-width: 1.5"/>
   </g>
   <g id="patch_13">
    <path d="M 57.6 307.584 
L 57.6 229.315765 
" style="fill: none; stroke: #000000; stroke-width: 0.8; stroke-linejoin: miter; stroke-linecap: square"/>
   </g>
   <g id="patch_14">
    <path d="M 414.72 307.584 
L 414.72 229.315765 
" style="fill: none; stroke: #000000; stroke-width: 0.8; stroke-linejoin: miter; stroke-linecap: square"/>
   </g>
   <g id="patch_15">
    <path d="M 57.6 307.584 
L 414.72 307.584 
" style="fill: none; stroke: #000000; stroke-width: 0.8; stroke-linejoin: miter; stroke-linecap: square"/>
   </g>
   <g id="patch_16">
    <path d="M 57.6 229.315765 
L 414.72 229.315765 
" style="fill: none; stroke: #000000; stroke-width: 0.8; stroke-linejoin: miter; stroke-linecap: square"/>
   </g>
  </g>
 </g>
 <defs>
  <clipPath id="p69162b3800">
   <rect x="57.6" y="41.472" width="357.12" height="78.268235"/>
  </clipPath>
  <clipPath id="p896122bf39">
   <rect x="57.6" y="135.393882" width="357.12" height="78.268235"/>
  </clipPath>
  <clipPath id="p8b6341060c">
   <rect x="57.6" y="229.315765" width="357.12" height="78.268235"/>
  </clipPath>
 </defs>
</svg>
