<?xml version="1.0" encoding="utf-8" standalone="no"?>
<!DOCTYPE svg PUBLIC "-//W3C//DTD SVG 1.1//EN"
  "http://www.w3.org/Graphics/SVG/1.1/DTD/svg11.dtd">
<svg xmlns:xlink="http://www.w3.org/1999/xlink" width="460.8pt" height="345.6pt" viewBox="0 0 460.8 345.6" xmlns="http://www.w3.org/2000/svg" version="1.1">
 <metadata>
  <rdf:RDF xmlns:dc="http://purl.org/dc/elements/1.1/" xmlns:cc="http://creativecommons.org/ns#" xmlns:rdf="http://www.w3.org/1999/02/22-rdf-syntax-ns#">
   <cc:Work>
    <dc:type rdf:resource="http://purl.org/dc/dcmitype/StillImage"/>
    <dc:date>2023-11-22T17:07:28.931054</dc:date>
    <dc:format>image/svg+xml</dc:format>
    <dc:creator>
     <cc:Agent>
      <dc:title>Matplotlib v3.5.2, https://matplotlib.org/</dc:title>
     </cc:Agent>
    </dc:creator>
   </cc:Work>
  </rdf:RDF>
 </metadata>
 <defs>
  <style type="text/css">*{stroke-linejoin: round; stroke-linecap: butt}</style>
 </defs>
 <g id="figure_1">
  <g id="patch_1">
   <path d="M 0 345.6 
L 460.8 345.6 
L 460.8 0 
L 0 0 
z
" style="fill: #ffffff"/>
  </g>
  <g id="axes_1">
   <g id="patch_2">
    <path d="M 57.6 119.740235 
L 414.72 119.740235 
L 414.72 41.472 
L 57.6 41.472 
z
" style="fill: #ffffff"/>
   </g>
   <g id="matplotlib.axis_1">
    <g id="xtick_1">
     <g id="line2d_1">
      <defs>
       <path id="mb18ef68d96" d="M 0 0 
L 0 3.5 
" style="stroke: #000000; stroke-width: 0.8"/>
      </defs>
      <g>
       <use xlink:href="#mb18ef68d96" x="57.6" y="119.740235" style="stroke: #000000; stroke-width: 0.8"/>
      </g>
     </g>
    </g>
    <g id="xtick_2">
     <g id="line2d_2">
      <g>
       <use xlink:href="#mb18ef68d96" x="105.216" y="119.740235" style="stroke: #000000; stroke-width: 0.8"/>
      </g>
     </g>
    </g>
    <g id="xtick_3">
     <g id="line2d_3">
      <g>
       <use xlink:href="#mb18ef68d96" x="152.832" y="119.740235" style="stroke: #000000; stroke-width: 0.8"/>
      </g>
     </g>
    </g>
    <g id="xtick_4">
     <g id="line2d_4">
      <g>
       <use xlink:href="#mb18ef68d96" x="200.448" y="119.740235" style="stroke: #000000; stroke-width: 0.8"/>
      </g>
     </g>
    </g>
    <g id="xtick_5">
     <g id="line2d_5">
      <g>
       <use xlink:href="#mb18ef68d96" x="248.064" y="119.740235" style="stroke: #000000; stroke-width: 0.8"/>
      </g>
     </g>
    </g>
    <g id="xtick_6">
     <g id="line2d_6">
      <g>
       <use xlink:href="#mb18ef68d96" x="295.68" y="119.740235" style="stroke: #000000; stroke-width: 0.8"/>
      </g>
     </g>
    </g>
    <g id="xtick_7">
     <g id="line2d_7">
      <g>
       <use xlink:href="#mb18ef68d96" x="343.296" y="119.740235" style="stroke: #000000; stroke-width: 0.8"/>
      </g>
     </g>
    </g>
    <g id="xtick_8">
     <g id="line2d_8">
      <g>
       <use xlink:href="#mb18ef68d96" x="390.912" y="119.740235" style="stroke: #000000; stroke-width: 0.8"/>
      </g>
     </g>
    </g>
    <g id="xtick_9">
     <g id="line2d_9">
      <g>
       <use xlink:href="#mb18ef68d96" x="414.72" y="119.740235" style="stroke: #000000; stroke-width: 0.8"/>
      </g>
     </g>
    </g>
   </g>
   <g id="matplotlib.axis_2">
    <g id="ytick_1">
     <g id="line2d_10">
      <defs>
       <path id="me27a69f1f0" d="M 0 0 
L -3.5 0 
" style="stroke: #000000; stroke-width: 0.8"/>
      </defs>
      <g>
       <use xlink:href="#me27a69f1f0" x="57.6" y="100.64609" style="stroke: #000000; stroke-width: 0.8"/>
      </g>
     </g>
     <g id="text_1">
      <!-- −10 -->
      <g transform="translate(29.495313 104.445309)scale(0.1 -0.1)">
       <defs>
        <path id="DejaVuSans-2212" d="M 678 2272 
L 4684 2272 
L 4684 1741 
L 678 1741 
L 678 2272 
z
" transform="scale(0.015625)"/>
        <path id="DejaVuSans-31" d="M 794 531 
L 1825 531 
L 1825 4091 
L 703 3866 
L 703 4441 
L 1819 4666 
L 2450 4666 
L 2450 531 
L 3481 531 
L 3481 0 
L 794 0 
L 794 531 
z
" transform="scale(0.015625)"/>
        <path id="DejaVuSans-30" d="M 2034 4250 
Q 1547 4250 1301 3770 
Q 1056 3291 1056 2328 
Q 1056 1369 1301 889 
Q 1547 409 2034 409 
Q 2525 409 2770 889 
Q 3016 1369 3016 2328 
Q 3016 3291 2770 3770 
Q 2525 4250 2034 4250 
z
M 2034 4750 
Q 2819 4750 3233 4129 
Q 3647 3509 3647 2328 
Q 3647 1150 3233 529 
Q 2819 -91 2034 -91 
Q 1250 -91 836 529 
Q 422 1150 422 2328 
Q 422 3509 836 4129 
Q 1250 4750 2034 4750 
z
" transform="scale(0.015625)"/>
       </defs>
       <use xlink:href="#DejaVuSans-2212"/>
       <use xlink:href="#DejaVuSans-31" x="83.789062"/>
       <use xlink:href="#DejaVuSans-30" x="147.412109"/>
      </g>
     </g>
    </g>
    <g id="ytick_2">
     <g id="line2d_11">
      <g>
       <use xlink:href="#me27a69f1f0" x="57.6" y="80.540316" style="stroke: #000000; stroke-width: 0.8"/>
      </g>
     </g>
     <g id="text_2">
      <!-- 0 -->
      <g transform="translate(44.2375 84.339534)scale(0.1 -0.1)">
       <use xlink:href="#DejaVuSans-30"/>
      </g>
     </g>
    </g>
    <g id="ytick_3">
     <g id="line2d_12">
      <g>
       <use xlink:href="#me27a69f1f0" x="57.6" y="60.434541" style="stroke: #000000; stroke-width: 0.8"/>
      </g>
     </g>
     <g id="text_3">
      <!-- 10 -->
      <g transform="translate(37.875 64.233759)scale(0.1 -0.1)">
       <use xlink:href="#DejaVuSans-31"/>
       <use xlink:href="#DejaVuSans-30" x="63.623047"/>
      </g>
     </g>
    </g>
   </g>
   <g id="line2d_13">
    <path d="M 57.6 86.267356 
L 58.195191 87.130886 
L 58.790405 88.229375 
L 59.385595 89.599118 
L 59.980809 91.280965 
L 61.171191 95.716555 
L 62.361595 101.496038 
L 63.552 107.359926 
L 64.147191 109.383446 
L 64.742405 110.169931 
L 65.337595 109.426801 
L 65.932786 107.19855 
L 67.123214 99.983829 
L 68.313618 92.524469 
L 68.908809 89.513614 
L 69.504023 87.097948 
L 70.099214 85.240462 
L 70.694405 83.860504 
L 71.289618 82.865086 
L 71.884809 82.166053 
L 72.48 81.688023 
L 73.670405 81.169218 
L 74.860809 80.989658 
L 76.646405 81.040695 
L 78.432 81.369872 
L 79.622405 81.796504 
L 80.812809 82.500513 
L 82.003191 83.663037 
L 82.598405 84.505333 
L 83.193595 85.590248 
L 83.788809 86.986399 
L 84.384 88.777305 
L 84.979191 91.0594 
L 85.574405 93.931618 
L 86.764786 101.657029 
L 87.955191 110.903249 
L 88.550405 114.559238 
L 89.145595 116.182588 
L 89.740786 114.99707 
L 90.336 111.06761 
L 92.716809 87.722115 
L 93.312023 83.570227 
L 93.907214 80.358299 
L 94.502405 77.914793 
L 95.097618 76.046359 
L 96.288 73.343038 
L 98.668809 68.775919 
L 99.859214 65.878087 
L 102.835214 57.616759 
L 103.430405 56.679872 
L 104.025595 56.349827 
L 104.620809 56.708776 
L 105.216 57.735879 
L 105.811191 59.307269 
L 108.787191 68.6325 
L 109.382405 69.841465 
L 109.977595 70.722836 
L 110.572786 71.288973 
L 111.168 71.560398 
L 111.763191 71.558078 
L 112.358405 71.299046 
L 112.953595 70.794362 
L 113.548786 70.049151 
L 114.144 69.064362 
L 115.334405 66.384224 
L 116.524809 62.87825 
L 118.310405 57.434554 
L 118.905618 56.22258 
L 119.500786 55.645509 
L 120.095977 55.833631 
L 120.691191 56.800778 
L 121.286382 58.431094 
L 124.262405 68.859061 
L 124.857595 70.262571 
L 125.452809 71.309303 
L 126.048 72.01618 
L 126.643214 72.410333 
L 127.238405 72.519368 
L 127.833595 72.365871 
L 128.428809 71.964589 
L 129.024 71.321947 
L 129.619191 70.436962 
L 130.214405 69.304012 
L 131.404809 66.278511 
L 132.595191 62.352071 
L 133.785595 58.153269 
L 134.380786 56.388959 
L 134.976 55.174539 
L 135.571191 54.73785 
L 136.166405 55.206677 
L 136.761595 56.55414 
L 137.356786 58.599092 
L 139.737595 68.303668 
L 140.332786 70.115227 
L 140.928 71.530051 
L 141.523191 72.5617 
L 142.118382 73.243005 
L 142.713595 73.611955 
L 143.308786 73.702843 
L 143.903977 73.54152 
L 144.499191 73.14328 
L 145.094382 72.512783 
L 145.689595 71.644891 
L 146.284786 70.52722 
L 147.475191 67.480952 
L 148.665595 63.342704 
L 150.451214 56.344518 
L 151.046405 54.617258 
L 151.641595 53.689211 
L 152.236809 53.790137 
L 152.832 54.974582 
L 153.427191 57.086716 
L 156.403191 70.463755 
L 156.998405 72.197349 
L 157.593595 73.498099 
L 158.188786 74.410503 
L 158.784 74.987057 
L 159.379191 75.276635 
L 159.974405 75.318384 
L 160.569595 75.139063 
L 161.164786 74.752465 
L 161.76 74.159819 
L 162.355191 73.351075 
L 162.950382 72.306128 
L 163.545595 70.997361 
L 164.140786 69.393876 
L 165.331191 65.210373 
L 168.307191 52.72361 
L 168.902382 51.979278 
L 169.497595 52.569929 
L 170.092786 54.47225 
L 171.283191 60.839218 
L 172.473595 67.656869 
L 173.664 72.759271 
L 174.259214 74.525854 
L 174.854405 75.832356 
L 175.449595 76.753945 
L 176.044809 77.364658 
L 176.64 77.728231 
L 177.235191 77.894638 
L 177.830405 77.899385 
L 178.425595 77.764524 
L 179.020809 77.49998 
L 179.616 77.104825 
L 180.211191 76.568126 
L 180.806405 75.869254 
L 181.401595 74.978032 
L 181.996786 73.854577 
L 182.592 72.449592 
L 183.187191 70.706893 
L 183.782405 68.568659 
L 184.972786 62.958917 
L 186.758382 52.620065 
L 187.353595 50.093109 
L 187.948786 49.027648 
L 188.544 49.846439 
L 189.139191 52.513423 
L 190.329595 61.152157 
L 191.519977 69.825257 
L 192.115191 73.237295 
L 192.710382 75.943541 
L 193.305595 78.019363 
L 193.900786 79.581733 
L 194.495977 80.754972 
L 195.686405 82.372139 
L 198.067214 84.855988 
L 199.257595 86.579972 
L 199.852809 87.72315 
L 200.448 89.119786 
L 201.043191 90.822407 
L 202.233618 95.327123 
L 203.424 101.298507 
L 204.614382 107.54776 
L 205.209618 109.800507 
L 205.804809 110.774545 
L 206.4 110.118464 
L 206.995236 107.847386 
L 208.185618 100.257096 
L 209.376 92.354617 
L 209.971191 89.169247 
L 210.566382 86.615811 
L 211.161573 84.649516 
L 211.756809 83.179705 
L 212.352 82.103464 
L 212.947191 81.323013 
L 214.137573 80.331366 
L 215.923191 79.454791 
L 217.708809 78.526303 
L 218.899191 77.560471 
L 219.494382 76.89192 
L 220.089573 76.050487 
L 220.684764 74.988768 
L 221.28 73.64891 
L 221.875191 71.962778 
L 222.470382 69.854425 
L 223.065573 67.249926 
L 224.256 60.423593 
L 226.041618 49.0351 
L 226.636809 47.229646 
L 227.232 47.622183 
L 227.827191 50.33592 
L 228.422382 54.829333 
L 230.208 70.339303 
L 230.803236 74.319327 
L 231.398427 77.465866 
L 231.993618 79.882016 
L 232.588809 81.71834 
L 233.779191 84.259431 
L 236.755191 89.149658 
L 237.945573 92.000004 
L 239.136 95.854317 
L 241.516809 105.263685 
L 242.112 106.901651 
L 242.707191 107.660483 
L 243.302382 107.330491 
L 243.897573 105.89905 
L 244.492764 103.569631 
L 246.873573 92.155838 
L 247.468764 90.02684 
L 248.064 88.357636 
L 248.659191 87.120103 
L 249.254382 86.263412 
L 249.849618 85.732199 
L 250.444809 85.477032 
L 251.04 85.459311 
L 251.635191 85.653448 
L 252.230382 86.047029 
L 252.825618 86.640221 
L 253.420809 87.44462 
L 254.016 88.481817 
L 254.611236 89.781688 
L 255.206427 91.377898 
L 256.396809 95.569819 
L 257.587191 100.998505 
L 258.777573 106.536756 
L 259.372809 108.518877 
L 259.968 109.409634 
L 260.563191 108.92294 
L 261.158382 107.054748 
L 261.753573 104.104244 
L 264.134427 90.551919 
L 264.729618 88.168981 
L 265.324809 86.321839 
L 265.92 84.94842 
L 266.515191 83.968765 
L 267.110382 83.303793 
L 267.705573 82.884843 
L 268.300764 82.657409 
L 268.896 82.581611 
L 270.086382 82.790715 
L 271.276764 83.432805 
L 271.872 83.933209 
L 272.467191 84.5794 
L 273.062382 85.402282 
L 273.657618 86.442379 
L 274.252809 87.750019 
L 274.848 89.384886 
L 275.443191 91.412625 
L 276.038382 93.894994 
L 277.228809 100.307785 
L 279.014427 110.896193 
L 279.609618 112.678789 
L 280.204809 112.528242 
L 280.8 110.285576 
L 281.395191 106.359109 
L 283.180809 92.016804 
L 283.776 88.184437 
L 284.371191 85.117553 
L 284.966382 82.748852 
L 285.561573 80.953215 
L 286.156809 79.592121 
L 287.347191 77.674644 
L 289.728 74.543959 
L 290.918382 72.334411 
L 292.108764 69.165063 
L 293.299191 64.736413 
L 295.68 53.875392 
L 296.275191 52.205305 
L 296.870382 51.731861 
L 297.465618 52.661286 
L 298.060809 54.897641 
L 299.251191 61.682461 
L 300.441618 68.531983 
L 301.036809 71.282577 
L 301.632 73.483909 
L 302.227236 75.167566 
L 302.822427 76.402871 
L 303.417618 77.270129 
L 304.012809 77.844955 
L 304.608 78.191136 
L 305.203191 78.357896 
L 305.798382 78.380154 
L 306.988809 78.067549 
L 308.179191 77.300005 
L 308.774382 76.718861 
L 309.369573 75.97398 
L 309.964809 75.029808 
L 310.56 73.840826 
L 311.155191 72.351807 
L 311.750427 70.500205 
L 312.345618 68.222929 
L 313.536 62.241038 
L 315.321573 51.475435 
L 315.916764 49.088879 
L 316.512 48.395115 
L 317.107191 49.761227 
L 317.702382 53.012928 
L 320.083191 71.250067 
L 320.678382 74.605221 
L 321.273618 77.232312 
L 321.868809 79.235303 
L 322.464 80.747649 
L 323.654382 82.816054 
L 326.630427 86.692543 
L 327.820809 89.023486 
L 329.011191 92.393121 
L 330.201573 97.082596 
L 332.582382 108.031376 
L 333.177573 109.420728 
L 333.772809 109.48198 
L 334.368 108.08727 
L 334.963191 105.434766 
L 337.344 91.441156 
L 337.939191 88.809306 
L 338.534382 86.736735 
L 339.129573 85.171195 
L 339.724764 84.033205 
L 340.32 83.238371 
L 340.915191 82.710975 
L 341.510382 82.388668 
L 342.105573 82.223956 
L 343.296 82.24515 
L 344.486382 82.641128 
L 345.676809 83.424118 
L 346.272 83.998405 
L 346.867191 84.730497 
L 347.462382 85.658587 
L 348.057618 86.831106 
L 348.652809 88.306888 
L 349.248 90.154186 
L 349.843236 92.444528 
L 351.033618 98.554347 
L 352.819191 109.952043 
L 353.414382 112.608638 
L 354.009573 113.485471 
L 354.604809 112.138064 
L 355.2 108.727261 
L 357.580809 89.367421 
L 358.176 85.833284 
L 358.771191 83.072843 
L 359.366427 80.966687 
L 359.961618 79.367659 
L 361.152 77.130347 
L 363.532764 73.622231 
L 364.723191 71.239099 
L 365.913573 67.910444 
L 367.104 63.440561 
L 368.889618 55.743303 
L 369.484809 53.811735 
L 370.08 52.776064 
L 370.675191 52.910797 
L 371.270382 54.278229 
L 371.865618 56.685924 
L 374.246427 69.048642 
L 374.841618 71.38757 
L 375.436809 73.230397 
L 376.032 74.611835 
L 376.627191 75.591895 
L 377.222382 76.236026 
L 377.817573 76.603717 
L 378.412809 76.742406 
L 379.008 76.685881 
L 379.603191 76.454121 
L 380.198382 76.054089 
L 380.793573 75.48086 
L 381.388809 74.718269 
L 381.984 73.739921 
L 382.579191 72.510332 
L 383.174427 70.986693 
L 383.769618 69.123914 
L 384.96 64.253575 
L 387.340764 52.324003 
L 387.936 50.71975 
L 388.531191 50.592975 
L 389.126382 52.110296 
L 389.721573 55.047062 
L 392.102382 70.369299 
L 392.697618 73.191851 
L 393.292809 75.405145 
L 393.888 77.080348 
L 394.483191 78.315042 
L 395.078382 79.208758 
L 395.673618 79.850199 
L 396.864 80.654605 
L 398.649618 81.352213 
L 400.435191 82.083813 
L 401.625573 82.846937 
L 402.816 84.047027 
L 403.411191 84.895994 
L 404.006382 85.973792 
L 404.601573 87.341568 
L 405.196809 89.072414 
L 405.792 91.247891 
L 406.387191 93.948204 
L 407.577618 101.06771 
L 408.768 109.46419 
L 409.363191 112.855897 
L 409.958382 114.559196 
L 410.553618 113.879973 
L 411.148809 110.761856 
L 412.339191 100.19035 
L 413.529618 89.747388 
L 414.124809 85.736671 
L 414.72 82.590868 
L 414.72 82.590868 
" clip-path="url(#p1f685d510c)" style="fill: none; stroke: #0000cc; stroke-width: 1.5; stroke-linecap: square"/>
   </g>
   <g id="line2d_14">
    <path d="M 57.6 86.26737 
L 58.195191 87.130709 
L 58.790405 88.228933 
L 59.385595 89.598328 
L 59.980809 91.279713 
L 61.171191 95.714461 
L 62.361595 101.494252 
L 63.552 107.360212 
L 64.147191 109.384487 
L 64.742405 110.171324 
L 65.337595 109.428437 
L 65.932809 107.200195 
L 67.123191 99.985018 
L 68.313595 92.525578 
L 68.908809 89.514505 
L 69.504 87.099008 
L 70.099191 85.241606 
L 70.694405 83.861705 
L 71.289595 82.866343 
L 71.884809 82.167366 
L 72.48 81.689499 
L 73.670405 81.171387 
L 74.860809 80.992939 
L 76.646405 81.046611 
L 78.432 81.380746 
L 79.622405 81.81327 
L 80.812809 82.526879 
L 81.408 83.042174 
L 82.003191 83.704967 
L 82.598405 84.558286 
L 83.193595 85.657143 
L 83.788809 87.070649 
L 84.384 88.882972 
L 84.979191 91.190781 
L 85.574405 94.092259 
L 86.764809 101.873598 
L 87.955191 111.100602 
L 88.550405 114.67619 
L 89.145595 116.170892 
L 89.740809 114.84604 
L 90.336 110.810512 
L 92.716809 87.511395 
L 93.312 83.40932 
L 93.907191 80.241198 
L 94.502405 77.830942 
L 95.097595 75.98572 
L 96.288 73.306331 
L 98.668809 68.735256 
L 99.859191 65.82418 
L 102.835191 57.563894 
L 103.430405 56.644822 
L 104.025595 56.338604 
L 104.620809 56.724187 
L 105.216 57.776679 
L 105.811191 59.368437 
L 108.787191 68.695498 
L 109.382405 69.893927 
L 109.977595 70.76456 
L 110.572809 71.320332 
L 111.168 71.582012 
L 111.763191 71.570593 
L 112.358405 71.30296 
L 112.953595 70.789927 
L 113.548809 70.036401 
L 114.144 69.043218 
L 115.334405 66.345704 
L 116.524809 62.824102 
L 118.310405 57.380854 
L 118.905595 56.181765 
L 119.500809 55.624319 
L 120.096 55.836505 
L 120.691191 56.828202 
L 121.286405 58.479726 
L 124.262405 68.920444 
L 124.857595 70.315519 
L 125.452809 71.353399 
L 126.048 72.051835 
L 126.643191 72.4382 
L 127.238405 72.540175 
L 127.833595 72.380209 
L 128.428809 71.972868 
L 129.024 71.324294 
L 129.619191 70.433303 
L 130.214405 69.294073 
L 131.404809 66.25475 
L 132.595191 62.314017 
L 133.785595 58.107572 
L 134.380809 56.34585 
L 134.976 55.140162 
L 135.571191 54.718114 
L 136.166405 55.205489 
L 136.761595 56.572321 
L 137.356809 58.634158 
L 139.737595 68.357361 
L 140.332809 70.164974 
L 140.928 71.574869 
L 141.523191 72.60148 
L 142.118405 73.278131 
L 142.713595 73.643047 
L 143.308809 73.73059 
L 143.904 73.56652 
L 144.499191 73.166032 
L 145.094405 72.53357 
L 145.689595 71.663902 
L 146.284809 70.544365 
L 147.475191 67.493171 
L 148.665595 63.346319 
L 150.451191 56.326982 
L 151.046405 54.593448 
L 151.641595 53.662071 
L 152.236809 53.763701 
L 152.832 54.953111 
L 153.427191 57.073717 
L 156.403191 70.490372 
L 156.998405 72.227256 
L 157.593595 73.530438 
L 158.188809 74.444869 
L 158.784 75.023408 
L 159.379191 75.31524 
L 159.974405 75.359722 
L 160.569595 75.183775 
L 161.164809 74.801326 
L 161.76 74.213802 
L 162.355191 73.411161 
L 162.950405 72.373384 
L 163.545595 71.07278 
L 164.140809 69.477949 
L 165.331191 65.309712 
L 168.307191 52.735349 
L 168.902405 51.941786 
L 169.497595 52.485285 
L 170.092809 54.353598 
L 170.688 57.250196 
L 172.473595 67.573006 
L 173.664 72.7287 
L 174.259191 74.517639 
L 174.854405 75.84314 
L 175.449595 76.780773 
L 176.044809 77.405341 
L 176.64 77.781527 
L 177.235191 77.960146 
L 177.830405 77.977611 
L 178.425595 77.856849 
L 179.020809 77.608691 
L 179.616 77.233151 
L 180.211191 76.720306 
L 180.806405 76.050698 
L 181.401595 75.195339 
L 181.996809 74.115553 
L 182.592 72.763195 
L 183.187191 71.082232 
L 183.782405 69.013585 
L 184.972809 63.541241 
L 187.353595 50.368805 
L 187.948809 48.990624 
L 188.544 49.468241 
L 189.139191 51.857247 
L 189.734405 55.719414 
L 191.52 69.219965 
L 192.115191 72.778457 
L 192.710405 75.619316 
L 193.305595 77.808063 
L 193.900809 79.460102 
L 194.496 80.701507 
L 195.686405 82.405875 
L 198.662405 85.760537 
L 199.852809 87.865194 
L 200.448 89.271814 
L 201.043191 90.982926 
L 202.233618 95.492029 
L 203.424 101.42503 
L 204.614382 107.554366 
L 205.209618 109.718464 
L 205.804809 110.604668 
L 206.4 109.885938 
L 206.995191 107.595154 
L 208.185618 100.087274 
L 209.376 92.32918 
L 209.971191 89.208064 
L 210.566382 86.708299 
L 211.161618 84.785622 
L 211.756809 83.351696 
L 212.352 82.306337 
L 212.947191 81.555065 
L 214.137618 80.627266 
L 215.328 80.101816 
L 218.304 78.967632 
L 219.494382 78.179749 
L 220.684809 76.931864 
L 221.28 76.046738 
L 221.875191 74.92171 
L 222.470382 73.49295 
L 223.065618 71.684721 
L 223.660809 69.41317 
L 224.256 66.598449 
L 225.446382 59.236816 
L 226.636809 50.812368 
L 227.232 47.632812 
L 227.827191 46.32237 
L 228.422382 47.490871 
L 229.017618 51.052387 
L 231.993618 76.141839 
L 232.588809 79.152475 
L 233.184 81.44992 
L 233.779191 83.203952 
L 234.969618 85.710454 
L 237.350382 89.876001 
L 238.540809 92.675678 
L 239.731191 96.333902 
L 242.112 104.713348 
L 242.707191 106.050252 
L 243.302382 106.597441 
L 243.897618 106.205545 
L 244.492809 104.885861 
L 245.088 102.816849 
L 247.468809 92.76152 
L 248.064 90.864952 
L 248.659191 89.377259 
L 249.254382 88.283748 
L 249.849618 87.548937 
L 250.444809 87.13161 
L 251.04 86.994258 
L 251.635191 87.108198 
L 252.230382 87.45577 
L 252.825618 88.030686 
L 253.420809 88.83719 
L 254.016 89.888213 
L 254.611191 91.202229 
L 255.801618 94.686172 
L 256.992 99.253035 
L 258.182382 104.176755 
L 258.777618 106.20876 
L 259.372809 107.520978 
L 259.968 107.821412 
L 260.563191 106.973949 
L 261.158382 105.067131 
L 262.348809 99.330346 
L 263.539191 93.429617 
L 264.134382 91.014335 
L 264.729618 89.065157 
L 265.324809 87.573893 
L 265.92 86.496809 
L 266.515191 85.777105 
L 267.110382 85.359113 
L 267.705618 85.196101 
L 268.300809 85.25377 
L 268.896 85.511221 
L 269.491191 85.96065 
L 270.086382 86.606498 
L 270.681618 87.464364 
L 271.276809 88.559616 
L 271.872 89.9252 
L 272.467191 91.597621 
L 273.657618 95.975162 
L 276.633618 109.026122 
L 277.228809 109.691719 
L 277.824 108.907553 
L 278.419191 106.733212 
L 279.609618 99.822447 
L 280.8 92.695981 
L 281.395191 89.812716 
L 281.990382 87.49725 
L 282.585618 85.718424 
L 283.180809 84.403609 
L 283.776 83.467637 
L 284.371191 82.829378 
L 284.966382 82.419792 
L 285.561618 82.184565 
L 286.752 82.090537 
L 287.942382 82.371493 
L 289.132809 83.003449 
L 290.323191 84.083959 
L 290.918382 84.85618 
L 291.513618 85.834677 
L 292.108809 87.071006 
L 292.704 88.627458 
L 293.299191 90.575069 
L 293.894382 92.986495 
L 295.084809 99.377512 
L 296.870382 110.819033 
L 297.465618 113.165118 
L 298.060809 113.553869 
L 298.656 111.658102 
L 299.251191 107.790683 
L 301.632 88.310327 
L 302.227191 84.935188 
L 302.822382 82.320069 
L 303.417618 80.330156 
L 304.012809 78.813729 
L 305.203191 76.64827 
L 307.584 72.997277 
L 308.774382 70.434171 
L 309.964809 66.886053 
L 311.155191 62.253676 
L 312.940809 54.94918 
L 313.536 53.441973 
L 314.131191 52.944881 
L 314.726382 53.635542 
L 315.321618 55.459109 
L 316.512 61.268842 
L 317.702382 67.4192 
L 318.892809 72.033547 
L 319.488 73.62692 
L 320.083191 74.790962 
L 320.678382 75.586088 
L 321.273618 76.072552 
L 321.868809 76.301832 
L 322.464 76.312777 
L 323.059191 76.130551 
L 323.654382 75.76695 
L 324.249618 75.221256 
L 324.844809 74.481204 
L 325.44 73.523994 
L 326.035191 72.317632 
L 326.630382 70.823326 
L 327.225618 69.000275 
L 328.416 64.258542 
L 330.796809 52.756684 
L 331.392 51.1957 
L 331.987191 51.026744 
L 332.582382 52.413942 
L 333.177618 55.162635 
L 336.153618 72.643339 
L 336.748809 74.81891 
L 337.344 76.466743 
L 337.939191 77.675512 
L 338.534382 78.537697 
L 339.129618 79.136695 
L 339.724809 79.541485 
L 340.915191 79.969929 
L 342.105618 80.102519 
L 343.891191 80.01085 
L 345.676809 79.638102 
L 346.867191 79.1644 
L 348.057618 78.383911 
L 348.652809 77.820104 
L 349.248 77.094641 
L 349.843191 76.160433 
L 350.438382 74.957573 
L 351.033618 73.411455 
L 351.628809 71.43269 
L 352.224 68.921912 
L 352.819191 65.785745 
L 354.009618 57.559747 
L 355.2 48.509594 
L 355.795191 45.55886 
L 356.390382 45.029647 
L 356.985618 47.395235 
L 357.580809 52.21511 
L 359.366382 70.421748 
L 359.961618 75.1783 
L 360.556809 78.930239 
L 361.152 81.804497 
L 361.747191 83.990813 
L 362.937618 87.037302 
L 366.508809 94.294643 
L 367.699191 97.590725 
L 369.484809 102.688406 
L 370.08 103.909866 
L 370.675191 104.608572 
L 371.270382 104.655878 
L 371.865618 104.010335 
L 372.460809 102.737679 
L 373.651191 98.993756 
L 374.841618 95.002312 
L 376.032 91.904074 
L 376.627191 90.832173 
L 377.222382 90.083962 
L 377.817618 89.642652 
L 378.412809 89.486858 
L 379.008 89.596878 
L 379.603191 89.958072 
L 380.198382 90.561963 
L 380.793618 91.405452 
L 381.388809 92.488268 
L 382.579191 95.355385 
L 384.364809 100.903991 
L 385.555191 104.20403 
L 386.150382 105.176608 
L 386.745618 105.449361 
L 387.340809 104.935511 
L 387.936 103.675603 
L 389.126382 99.638134 
L 390.316809 95.152766 
L 391.507191 91.598234 
L 392.102382 90.3417 
L 392.697618 89.436819 
L 393.292809 88.86105 
L 393.888 88.586215 
L 394.483191 88.586271 
L 395.078382 88.841646 
L 395.673618 89.341021 
L 396.268809 90.08122 
L 396.864 91.065531 
L 398.054382 93.789612 
L 399.244809 97.480871 
L 401.030382 103.687406 
L 401.625618 105.261903 
L 402.220809 106.18708 
L 402.816 106.266451 
L 403.411191 105.430475 
L 404.006382 103.77187 
L 405.196809 98.970906 
L 406.387191 94.03403 
L 407.577618 90.340046 
L 408.172809 89.081764 
L 408.768 88.194812 
L 409.363191 87.642874 
L 409.958382 87.388597 
L 410.553618 87.400648 
L 411.148809 87.657259 
L 411.744 88.147433 
L 412.339191 88.870612 
L 412.934382 89.835164 
L 413.529618 91.055607 
L 414.72 94.322255 
L 414.72 94.322255 
" clip-path="url(#p1f685d510c)" style="fill: none; stroke-dasharray: 5.55,2.4; stroke-dashoffset: 0; stroke: #ff0000; stroke-width: 1.5"/>
   </g>
   <g id="patch_3">
    <path d="M 57.6 119.740235 
L 57.6 41.472 
" style="fill: none; stroke: #000000; stroke-width: 0.8; stroke-linejoin: miter; stroke-linecap: square"/>
   </g>
   <g id="patch_4">
    <path d="M 414.72 119.740235 
L 414.72 41.472 
" style="fill: none; stroke: #000000; stroke-width: 0.8; stroke-linejoin: miter; stroke-linecap: square"/>
   </g>
   <g id="patch_5">
    <path d="M 57.6 119.740235 
L 414.72 119.740235 
" style="fill: none; stroke: #000000; stroke-width: 0.8; stroke-linejoin: miter; stroke-linecap: square"/>
   </g>
   <g id="patch_6">
    <path d="M 57.6 41.472 
L 414.72 41.472 
" style="fill: none; stroke: #000000; stroke-width: 0.8; stroke-linejoin: miter; stroke-linecap: square"/>
   </g>
  </g>
  <g id="axes_2">
   <g id="patch_7">
    <path d="M 57.6 213.662118 
L 414.72 213.662118 
L 414.72 135.393882 
L 57.6 135.393882 
z
" style="fill: #ffffff"/>
   </g>
   <g id="matplotlib.axis_3">
    <g id="xtick_10">
     <g id="line2d_15">
      <g>
       <use xlink:href="#mb18ef68d96" x="57.6" y="213.662118" style="stroke: #000000; stroke-width: 0.8"/>
      </g>
     </g>
    </g>
    <g id="xtick_11">
     <g id="line2d_16">
      <g>
       <use xlink:href="#mb18ef68d96" x="105.216" y="213.662118" style="stroke: #000000; stroke-width: 0.8"/>
      </g>
     </g>
    </g>
    <g id="xtick_12">
     <g id="line2d_17">
      <g>
       <use xlink:href="#mb18ef68d96" x="152.832" y="213.662118" style="stroke: #000000; stroke-width: 0.8"/>
      </g>
     </g>
    </g>
    <g id="xtick_13">
     <g id="line2d_18">
      <g>
       <use xlink:href="#mb18ef68d96" x="200.448" y="213.662118" style="stroke: #000000; stroke-width: 0.8"/>
      </g>
     </g>
    </g>
    <g id="xtick_14">
     <g id="line2d_19">
      <g>
       <use xlink:href="#mb18ef68d96" x="248.064" y="213.662118" style="stroke: #000000; stroke-width: 0.8"/>
      </g>
     </g>
    </g>
    <g id="xtick_15">
     <g id="line2d_20">
      <g>
       <use xlink:href="#mb18ef68d96" x="295.68" y="213.662118" style="stroke: #000000; stroke-width: 0.8"/>
      </g>
     </g>
    </g>
    <g id="xtick_16">
     <g id="line2d_21">
      <g>
       <use xlink:href="#mb18ef68d96" x="343.296" y="213.662118" style="stroke: #000000; stroke-width: 0.8"/>
      </g>
     </g>
    </g>
    <g id="xtick_17">
     <g id="line2d_22">
      <g>
       <use xlink:href="#mb18ef68d96" x="390.912" y="213.662118" style="stroke: #000000; stroke-width: 0.8"/>
      </g>
     </g>
    </g>
    <g id="xtick_18">
     <g id="line2d_23">
      <g>
       <use xlink:href="#mb18ef68d96" x="414.72" y="213.662118" style="stroke: #000000; stroke-width: 0.8"/>
      </g>
     </g>
    </g>
   </g>
   <g id="matplotlib.axis_4">
    <g id="ytick_4">
     <g id="line2d_24">
      <g>
       <use xlink:href="#me27a69f1f0" x="57.6" y="204.583148" style="stroke: #000000; stroke-width: 0.8"/>
      </g>
     </g>
     <g id="text_4">
      <!-- −20 -->
      <g transform="translate(29.495313 208.382367)scale(0.1 -0.1)">
       <defs>
        <path id="DejaVuSans-32" d="M 1228 531 
L 3431 531 
L 3431 0 
L 469 0 
L 469 531 
Q 828 903 1448 1529 
Q 2069 2156 2228 2338 
Q 2531 2678 2651 2914 
Q 2772 3150 2772 3378 
Q 2772 3750 2511 3984 
Q 2250 4219 1831 4219 
Q 1534 4219 1204 4116 
Q 875 4013 500 3803 
L 500 4441 
Q 881 4594 1212 4672 
Q 1544 4750 1819 4750 
Q 2544 4750 2975 4387 
Q 3406 4025 3406 3419 
Q 3406 3131 3298 2873 
Q 3191 2616 2906 2266 
Q 2828 2175 2409 1742 
Q 1991 1309 1228 531 
z
" transform="scale(0.015625)"/>
       </defs>
       <use xlink:href="#DejaVuSans-2212"/>
       <use xlink:href="#DejaVuSans-32" x="83.789062"/>
       <use xlink:href="#DejaVuSans-30" x="147.412109"/>
      </g>
     </g>
    </g>
    <g id="ytick_5">
     <g id="line2d_25">
      <g>
       <use xlink:href="#me27a69f1f0" x="57.6" y="174.445952" style="stroke: #000000; stroke-width: 0.8"/>
      </g>
     </g>
     <g id="text_5">
      <!-- 0 -->
      <g transform="translate(44.2375 178.245171)scale(0.1 -0.1)">
       <use xlink:href="#DejaVuSans-30"/>
      </g>
     </g>
    </g>
    <g id="ytick_6">
     <g id="line2d_26">
      <g>
       <use xlink:href="#me27a69f1f0" x="57.6" y="144.308756" style="stroke: #000000; stroke-width: 0.8"/>
      </g>
     </g>
     <g id="text_6">
      <!-- 20 -->
      <g transform="translate(37.875 148.107974)scale(0.1 -0.1)">
       <use xlink:href="#DejaVuSans-32"/>
       <use xlink:href="#DejaVuSans-30" x="63.623047"/>
      </g>
     </g>
    </g>
   </g>
   <g id="line2d_27">
    <path d="M 57.6 181.005478 
L 58.195191 182.309801 
L 58.790405 183.888567 
L 59.980809 188.045642 
L 61.171191 193.580469 
L 62.361595 199.432193 
L 62.956786 201.459207 
L 63.552 202.007189 
L 64.147191 200.486876 
L 64.742405 196.788932 
L 66.528 180.825215 
L 67.123214 177.114819 
L 67.718405 174.771044 
L 68.313618 173.530376 
L 68.908809 173.038794 
L 69.504023 172.988744 
L 70.694405 173.420295 
L 72.48 174.140492 
L 74.265618 174.568011 
L 77.241595 175.15557 
L 78.432 175.55792 
L 79.622405 176.201134 
L 80.812809 177.255983 
L 81.408 178.020025 
L 82.003191 179.005254 
L 82.598405 180.275835 
L 83.193595 181.911616 
L 83.788809 184.008765 
L 84.384 186.674183 
L 84.979191 190.008658 
L 86.169595 198.750975 
L 87.36 207.966768 
L 87.955191 210.104471 
L 88.550405 208.386005 
L 89.145595 202.028513 
L 90.931214 174.215808 
L 91.526405 169.237712 
L 92.121618 166.760678 
L 92.716809 165.858962 
L 93.312023 165.750178 
L 94.502405 166.110449 
L 95.097618 166.152749 
L 95.692809 165.990294 
L 96.288 165.59812 
L 96.883214 164.970168 
L 97.478405 164.109165 
L 98.668809 161.729293 
L 100.454405 157.041226 
L 101.644809 154.321034 
L 102.24 153.63755 
L 102.835214 153.689326 
L 103.430405 154.601128 
L 104.025595 156.342114 
L 105.216 161.333784 
L 106.406405 166.043896 
L 107.001595 167.690503 
L 107.596809 168.793581 
L 108.192 169.411761 
L 108.787191 169.636487 
L 109.382405 169.558116 
L 109.977595 169.248712 
L 110.572786 168.756907 
L 111.763191 167.315226 
L 112.953595 165.266891 
L 114.144 162.533921 
L 115.334405 159.136072 
L 116.524809 155.523282 
L 117.120023 154.001406 
L 117.715214 152.983801 
L 118.310405 152.734507 
L 118.905618 153.450889 
L 119.500786 155.165494 
L 120.691191 160.634766 
L 121.881595 166.099345 
L 122.476786 168.047635 
L 123.071977 169.366626 
L 123.667191 170.124816 
L 124.262405 170.435442 
L 124.857595 170.41169 
L 125.452809 170.143935 
L 126.048 169.693392 
L 127.238405 168.358393 
L 128.428809 166.452776 
L 129.619191 163.852505 
L 130.809595 160.446631 
L 133.190405 152.822589 
L 133.785595 151.811102 
L 134.380786 151.75299 
L 134.976 152.864062 
L 135.571191 155.127481 
L 137.952 167.562229 
L 138.547191 169.472991 
L 139.142382 170.672833 
L 139.737595 171.28829 
L 140.332786 171.469521 
L 140.928 171.346915 
L 141.523191 171.015073 
L 142.713595 169.92728 
L 143.903977 168.356945 
L 145.094382 166.188277 
L 146.284786 163.200474 
L 147.475191 159.249414 
L 149.260809 152.51745 
L 149.856 150.907674 
L 150.451214 150.241791 
L 151.046405 150.891617 
L 151.641595 153.003395 
L 152.236809 156.350513 
L 154.022405 167.630708 
L 154.617595 170.072577 
L 155.212809 171.630598 
L 155.808 172.462194 
L 156.403191 172.767598 
L 156.998405 172.723647 
L 157.593595 172.459761 
L 158.784 171.559825 
L 159.974405 170.315957 
L 161.164786 168.642699 
L 162.355191 166.291453 
L 163.545595 162.944008 
L 164.736 158.376582 
L 166.521595 150.468269 
L 167.116786 148.704143 
L 167.711977 148.243834 
L 168.307191 149.562205 
L 168.902382 152.745324 
L 171.283191 170.376335 
L 171.878405 172.688984 
L 172.473595 173.989428 
L 173.068809 174.559764 
L 173.664 174.666115 
L 174.259214 174.508953 
L 175.449595 173.870021 
L 177.830405 172.263772 
L 179.020809 171.181528 
L 180.211191 169.629582 
L 180.806405 168.579224 
L 181.401595 167.279593 
L 181.996786 165.671954 
L 182.592 163.693434 
L 183.782405 158.41891 
L 186.163191 145.390704 
L 186.758382 144.385242 
L 187.353595 145.94621 
L 187.948786 150.345648 
L 189.734382 169.768991 
L 190.329595 173.996392 
L 190.924786 176.501267 
L 191.519977 177.714112 
L 192.115191 178.123708 
L 192.710382 178.116186 
L 194.495977 177.658423 
L 195.091191 177.659866 
L 195.686405 177.790796 
L 196.281595 178.061837 
L 196.876809 178.483242 
L 197.472 179.069392 
L 198.067214 179.841636 
L 198.662405 180.829448 
L 199.257595 182.07065 
L 199.852809 183.610213 
L 200.448 185.495336 
L 201.638382 190.436052 
L 204.019191 202.025026 
L 204.614382 202.836972 
L 205.209618 201.455876 
L 205.804809 197.678969 
L 207.590427 180.60415 
L 208.185618 176.618564 
L 208.780809 174.124672 
L 209.376 172.822624 
L 209.971191 172.315118 
L 210.566382 172.262463 
L 211.756809 172.659201 
L 212.947191 173.048923 
L 214.137573 173.180174 
L 215.328 173.027568 
L 216.518427 172.580878 
L 217.708809 171.769484 
L 218.304 171.179679 
L 218.899191 170.426931 
L 219.494382 169.469532 
L 220.089573 168.254502 
L 220.684764 166.717165 
L 221.28 164.781882 
L 221.875191 162.368334 
L 222.470382 159.406645 
L 223.660764 151.856451 
L 224.851191 143.995471 
L 225.446382 141.920052 
L 226.041618 142.718417 
L 226.636809 147.130744 
L 229.017618 175.625688 
L 229.612809 178.621429 
L 230.208 180.005525 
L 230.803236 180.435813 
L 231.398427 180.411117 
L 232.588809 180.122883 
L 233.184 180.131164 
L 233.779191 180.317399 
L 234.374382 180.703802 
L 234.969573 181.304058 
L 235.564809 182.131253 
L 236.16 183.200945 
L 236.755191 184.530744 
L 237.945573 188.019716 
L 240.921618 198.447253 
L 241.516809 198.898577 
L 242.112 197.93773 
L 242.707191 195.476579 
L 243.897573 187.665317 
L 245.088 180.476879 
L 245.683191 178.189518 
L 246.278382 176.786589 
L 246.873573 176.082294 
L 247.468764 175.868 
L 248.064 175.969939 
L 249.254382 176.6817 
L 250.444809 177.752928 
L 251.635191 179.162006 
L 252.825618 181.103945 
L 254.016 183.884485 
L 255.206427 187.831328 
L 256.396809 193.019319 
L 257.587191 198.487684 
L 258.182382 200.434297 
L 258.777573 201.088152 
L 259.372809 199.916631 
L 259.968 196.770564 
L 262.348809 178.406957 
L 262.944 175.958749 
L 263.539191 174.580067 
L 264.134427 173.970504 
L 264.729618 173.845161 
L 265.324809 173.989393 
L 267.110382 174.923245 
L 269.491191 176.330904 
L 270.681573 177.289652 
L 271.872 178.694354 
L 272.467191 179.65744 
L 273.062382 180.859494 
L 273.657618 182.360618 
L 274.252809 184.228278 
L 274.848 186.531737 
L 276.038382 192.625498 
L 277.824 203.510605 
L 278.419236 205.450558 
L 279.014427 204.899768 
L 279.609618 201.197761 
L 280.8 187.162514 
L 281.395191 180.235898 
L 281.990382 175.125037 
L 282.585573 171.997128 
L 283.180809 170.425682 
L 283.776 169.843664 
L 284.371191 169.782753 
L 286.156809 170.173369 
L 286.752 170.120561 
L 287.347191 169.908578 
L 287.942427 169.522799 
L 288.537618 168.95009 
L 289.132809 168.173389 
L 289.728 167.169352 
L 290.323191 165.908542 
L 290.918382 164.357481 
L 292.108764 160.274973 
L 293.299191 154.983769 
L 294.489573 149.740087 
L 295.084764 148.152045 
L 295.68 148.035173 
L 296.275191 149.829925 
L 296.870382 153.505488 
L 298.656 168.028501 
L 299.251191 171.31351 
L 299.846382 173.392596 
L 300.441618 174.497008 
L 301.036809 174.929029 
L 301.632 174.95214 
L 302.822427 174.45664 
L 305.798382 172.702033 
L 306.988809 171.791262 
L 308.179191 170.491954 
L 308.774382 169.609707 
L 309.369573 168.512147 
L 309.964809 167.14375 
L 310.56 165.440595 
L 311.155191 163.334197 
L 311.750427 160.762402 
L 312.940809 154.170104 
L 314.131191 146.803691 
L 314.726382 144.200207 
L 315.321573 143.621563 
L 315.916764 145.962524 
L 316.512 151.303354 
L 318.297573 171.69189 
L 318.892764 175.591891 
L 319.488 177.745037 
L 320.083191 178.685347 
L 320.678382 178.926796 
L 321.868809 178.66868 
L 323.059191 178.512916 
L 323.654382 178.634282 
L 324.249618 178.917112 
L 324.844809 179.373904 
L 325.44 180.01915 
L 326.035236 180.872978 
L 326.630427 181.962287 
L 327.225618 183.320405 
L 327.820809 184.983358 
L 329.011191 189.331309 
L 331.392 200.020593 
L 331.987191 201.289461 
L 332.582382 200.868779 
L 333.177573 198.405865 
L 333.772809 194.120443 
L 334.963191 183.677025 
L 335.558427 179.447295 
L 336.153618 176.496571 
L 336.748809 174.736449 
L 337.344 173.877166 
L 337.939191 173.605889 
L 338.534382 173.672403 
L 339.724764 174.207302 
L 343.891191 176.431266 
L 345.081618 177.438636 
L 345.676809 178.1235 
L 346.272 178.979147 
L 346.867191 180.053297 
L 347.462382 181.403683 
L 348.057618 183.098276 
L 348.652809 185.212052 
L 349.248 187.818109 
L 350.438427 194.627411 
L 351.628809 202.527235 
L 352.224 205.493049 
L 352.819191 206.377062 
L 353.414382 204.117999 
L 354.009573 198.51799 
L 355.795191 176.550016 
L 356.390382 172.413827 
L 356.985573 170.181651 
L 357.580809 169.241616 
L 358.176 169.022712 
L 360.556809 169.345047 
L 361.152 169.131959 
L 361.747191 168.727945 
L 362.342382 168.119454 
L 362.937573 167.291133 
L 363.532764 166.22335 
L 364.128 164.892286 
L 365.318382 161.355623 
L 366.508764 156.692698 
L 367.699191 151.743939 
L 368.294382 149.895053 
L 368.889618 149.09089 
L 369.484809 149.792257 
L 370.08 152.193273 
L 371.270382 160.576535 
L 372.460809 168.626364 
L 373.056 171.206757 
L 373.651236 172.788062 
L 374.246427 173.58663 
L 374.841618 173.847557 
L 375.436809 173.774388 
L 376.627191 173.139861 
L 377.817573 172.234213 
L 379.008 171.118416 
L 380.198382 169.63016 
L 381.388809 167.488701 
L 381.984 166.059597 
L 382.579191 164.323415 
L 383.769618 159.755244 
L 384.96 153.789711 
L 386.150382 147.960613 
L 386.745573 146.388591 
L 387.340764 146.68719 
L 387.936 149.328119 
L 388.531191 154.099236 
L 389.721573 165.791446 
L 390.316764 170.427596 
L 390.912 173.575955 
L 391.507191 175.386358 
L 392.102382 176.225676 
L 392.697618 176.462935 
L 393.292809 176.380506 
L 395.673618 175.550759 
L 396.864 175.422971 
L 398.054427 175.534125 
L 399.244809 175.882842 
L 400.435191 176.522914 
L 401.625573 177.588825 
L 402.220809 178.353339 
L 402.816 179.328501 
L 403.411191 180.571023 
L 404.006382 182.150444 
L 404.601573 184.148504 
L 405.196809 186.653444 
L 405.792 189.742485 
L 406.982427 197.66397 
L 408.172809 205.873156 
L 408.768 207.900246 
L 409.363191 206.750633 
L 409.958382 201.697896 
L 411.744 177.065249 
L 412.339191 171.975441 
L 412.934382 169.176928 
L 413.529618 167.970063 
L 414.124809 167.657256 
L 414.72 167.738325 
L 414.72 167.738325 
" clip-path="url(#p0ca5c2a3ba)" style="fill: none; stroke: #0000cc; stroke-width: 1.5; stroke-linecap: square"/>
   </g>
   <g id="line2d_28">
    <path d="M 57.6 181.0055 
L 58.195191 182.309283 
L 58.790405 183.88752 
L 59.980809 188.043437 
L 61.171191 193.578265 
L 62.361595 199.432987 
L 62.956809 201.461765 
L 63.552 202.010185 
L 64.147191 200.489257 
L 64.742405 196.791144 
L 66.528 180.825631 
L 67.123191 177.115856 
L 67.718405 174.771608 
L 68.313595 173.530682 
L 68.908809 173.039593 
L 69.504 172.9898 
L 70.694405 173.421352 
L 72.48 174.142642 
L 74.265595 174.571937 
L 77.241595 175.165357 
L 78.432 175.572977 
L 79.622405 176.224856 
L 80.812809 177.293876 
L 81.408 178.067992 
L 82.003191 179.065986 
L 82.598405 180.352573 
L 83.193595 182.008316 
L 83.788809 184.129714 
L 84.384 186.823812 
L 84.979191 190.190074 
L 86.169595 198.982478 
L 87.36 208.11644 
L 87.955191 210.095128 
L 88.550405 208.149228 
L 89.145595 201.596241 
L 90.931191 173.927166 
L 91.526405 169.095556 
L 92.121595 166.706668 
L 92.716809 165.855958 
L 93.312 165.773023 
L 94.502405 166.130558 
L 95.097595 166.163767 
L 95.692809 165.991178 
L 96.288 165.588457 
L 96.883191 164.950883 
L 97.478405 164.08 
L 98.668809 161.681714 
L 101.644809 154.273029 
L 102.24 153.610745 
L 102.835191 153.69246 
L 103.430405 154.638451 
L 104.025595 156.411376 
L 106.406405 166.126844 
L 107.001595 167.755318 
L 107.596809 168.840138 
L 108.192 169.442134 
L 108.787191 169.653855 
L 109.382405 169.56539 
L 109.977595 169.248343 
L 110.572809 168.750366 
L 111.763191 167.298311 
L 112.953595 165.238837 
L 114.144 162.492564 
L 115.334405 159.081303 
L 116.524809 155.464008 
L 117.12 153.948613 
L 117.715191 152.946264 
L 118.310405 152.721744 
L 118.905595 153.469704 
L 119.500809 155.216842 
L 120.691191 160.725684 
L 121.881595 166.180475 
L 122.476809 168.113231 
L 123.072 169.415717 
L 123.667191 170.15909 
L 124.262405 170.457841 
L 124.857595 170.425209 
L 125.452809 170.151079 
L 126.048 169.695859 
L 127.238405 168.353904 
L 128.428809 166.441218 
L 129.619191 163.831483 
L 130.809595 160.413422 
L 133.190405 152.777583 
L 133.785595 151.776417 
L 134.380809 151.737286 
L 134.976 152.873813 
L 135.571191 155.163881 
L 137.952 167.625163 
L 138.547191 169.525121 
L 139.142405 170.713723 
L 139.737595 171.319403 
L 140.332809 171.493129 
L 140.928 171.365375 
L 141.523191 171.030297 
L 142.713595 169.939615 
L 143.904 168.368253 
L 145.094405 166.198351 
L 146.284809 163.20743 
L 147.475191 159.249014 
L 149.260809 152.494628 
L 149.856 150.877062 
L 150.451191 150.207025 
L 151.046405 150.8586 
L 151.641595 152.978685 
L 152.236809 156.339186 
L 154.022405 167.658495 
L 154.617595 170.105039 
L 155.212809 171.664526 
L 155.808 172.4955 
L 156.403191 172.799481 
L 156.998405 172.754532 
L 157.593595 172.490533 
L 158.784 171.593308 
L 159.974405 170.355942 
L 161.164809 168.693064 
L 162.355191 166.356403 
L 163.545595 163.026011 
L 164.736 158.469785 
L 166.521595 150.513056 
L 167.116809 148.700079 
L 167.712 148.176888 
L 168.307191 149.430738 
L 168.902405 152.566916 
L 171.283191 170.317815 
L 171.878405 172.676123 
L 172.473595 174.008945 
L 173.068809 174.598594 
L 173.664 174.71572 
L 174.259191 174.564836 
L 175.449595 173.934412 
L 177.830405 172.361985 
L 179.020809 171.31634 
L 180.211191 169.822592 
L 180.806405 168.812157 
L 181.401595 167.561134 
L 181.996809 166.011453 
L 182.592 164.099961 
L 183.187191 161.765997 
L 184.377595 155.722309 
L 186.163191 145.66874 
L 186.758405 144.270016 
L 187.353595 145.335765 
L 187.948809 149.293425 
L 190.329595 173.503574 
L 190.924809 176.293999 
L 191.52 177.696094 
L 192.115191 178.208333 
L 192.710405 178.247049 
L 194.496 177.793888 
L 195.091191 177.786091 
L 195.686405 177.909409 
L 196.281595 178.17571 
L 196.876809 178.595543 
L 197.472 179.183146 
L 198.067191 179.959385 
L 198.662405 180.953133 
L 199.257595 182.201401 
L 199.852809 183.747758 
L 200.448 185.637693 
L 201.638382 190.568943 
L 203.424 199.698551 
L 204.019191 201.903179 
L 204.614382 202.595541 
L 205.209618 201.118384 
L 205.804809 197.314476 
L 207.590382 180.56599 
L 208.185618 176.695277 
L 208.780809 174.274196 
L 209.376 173.010792 
L 209.971191 172.521482 
L 210.566382 172.476642 
L 211.756809 172.886579 
L 212.947191 173.31071 
L 214.137618 173.511105 
L 215.328 173.475635 
L 216.518382 173.217019 
L 217.708809 172.70416 
L 218.899191 171.83551 
L 219.494382 171.210423 
L 220.089618 170.411997 
L 220.684809 169.392983 
L 221.28 168.093913 
L 221.875191 166.442054 
L 222.470382 164.35273 
L 223.065618 161.73641 
L 223.660809 158.518322 
L 224.851191 150.356549 
L 226.041618 142.309709 
L 226.636809 140.745034 
L 227.232 142.621921 
L 227.827191 148.430493 
L 229.612809 173.147421 
L 230.208 177.781862 
L 230.803191 180.2261 
L 231.398382 181.208663 
L 231.993618 181.402741 
L 233.779191 181.052664 
L 234.374382 181.16386 
L 234.969618 181.482595 
L 235.564809 182.024355 
L 236.16 182.799012 
L 236.755191 183.815163 
L 237.945618 186.598606 
L 239.136 190.320847 
L 240.921618 196.191039 
L 241.516809 197.33374 
L 242.112 197.519501 
L 242.707191 196.495828 
L 243.302382 194.24609 
L 244.492809 187.48752 
L 245.683191 181.288068 
L 246.278382 179.260848 
L 246.873618 177.982671 
L 247.468809 177.319521 
L 248.064 177.110164 
L 248.659191 177.214065 
L 249.254382 177.52918 
L 250.444809 178.571543 
L 251.635191 180.066375 
L 252.825618 182.126141 
L 254.016 184.987192 
L 255.206382 188.853654 
L 257.587191 197.855687 
L 258.182382 198.990042 
L 258.777618 198.864315 
L 259.372809 197.201672 
L 259.968 194.08686 
L 261.753618 182.024173 
L 262.348809 179.165796 
L 262.944 177.271467 
L 263.539191 176.202767 
L 264.134382 175.744669 
L 264.729618 175.693507 
L 265.324809 175.894423 
L 266.515191 176.691708 
L 267.705618 177.791535 
L 268.896 179.2321 
L 270.086382 181.236174 
L 271.276809 184.127099 
L 272.467191 188.241969 
L 273.657618 193.626132 
L 274.848 199.159072 
L 275.443191 200.983816 
L 276.038382 201.360121 
L 276.633618 199.773644 
L 277.228809 196.172504 
L 279.014382 181.051102 
L 279.609618 177.53255 
L 280.204809 175.288919 
L 280.8 174.086151 
L 281.395191 173.602243 
L 281.990382 173.552181 
L 283.180809 174.010355 
L 287.942382 176.492856 
L 289.132809 177.536568 
L 289.728 178.25291 
L 290.323191 179.151202 
L 290.918382 180.281741 
L 291.513618 181.705319 
L 292.108809 183.493023 
L 292.704 185.722406 
L 293.299191 188.465823 
L 294.489618 195.568877 
L 295.68 203.495089 
L 296.275191 206.151098 
L 296.870382 206.407847 
L 297.465618 203.302363 
L 298.060809 196.939555 
L 299.251191 181.055837 
L 299.846382 175.170112 
L 300.441618 171.504183 
L 301.036809 169.633078 
L 301.632 168.920482 
L 302.227191 168.817001 
L 304.012809 169.168326 
L 304.608 169.07368 
L 305.203191 168.79519 
L 305.798382 168.31669 
L 306.393618 167.624629 
L 306.988809 166.703136 
L 307.584 165.532478 
L 308.774382 162.360192 
L 309.964809 158.0509 
L 311.750382 151.025643 
L 312.345618 149.663733 
L 312.940809 149.539155 
L 313.536 150.994915 
L 314.131191 154.018637 
L 315.916809 166.573581 
L 316.512 169.661054 
L 317.107191 171.732465 
L 317.702382 172.91977 
L 318.297618 173.449585 
L 318.892809 173.542807 
L 319.488 173.369601 
L 320.678382 172.625425 
L 321.868809 171.613298 
L 323.059191 170.320041 
L 324.249618 168.541049 
L 324.844809 167.374574 
L 325.44 165.96237 
L 326.035191 164.255698 
L 327.225618 159.801639 
L 329.606382 148.480641 
L 330.201618 146.98234 
L 330.796809 147.242722 
L 331.392 149.695596 
L 331.987191 154.158108 
L 333.177618 165.272436 
L 333.772809 169.78177 
L 334.368 172.906601 
L 334.963191 174.751267 
L 335.558382 175.63839 
L 336.153618 175.913128 
L 336.748809 175.848828 
L 340.915191 174.390808 
L 344.486382 173.665611 
L 345.676809 173.223694 
L 346.867191 172.51249 
L 348.057618 171.343067 
L 348.652809 170.495402 
L 349.248 169.402334 
L 349.843191 167.99357 
L 350.438382 166.182534 
L 351.033618 163.867671 
L 351.628809 160.941259 
L 352.224 157.315048 
L 353.414382 148.120892 
L 354.009618 143.308697 
L 354.604809 139.692722 
L 355.2 138.951529 
L 355.795191 142.575801 
L 356.390382 150.565551 
L 357.580809 170.312019 
L 358.176 177.062525 
L 358.771191 180.910728 
L 359.366382 182.645906 
L 359.961618 183.144061 
L 360.556809 183.085522 
L 361.747191 182.748413 
L 362.342382 182.786225 
L 362.937618 183.042488 
L 363.532809 183.531851 
L 364.128 184.256147 
L 364.723191 185.210676 
L 365.913618 187.755416 
L 368.294382 193.90614 
L 368.889618 194.922545 
L 369.484809 195.321284 
L 370.08 194.91872 
L 370.675191 193.648211 
L 371.270382 191.616882 
L 373.056 184.055858 
L 373.651191 182.096407 
L 374.246382 180.67979 
L 374.841618 179.788422 
L 375.436809 179.345083 
L 376.032 179.25586 
L 376.627191 179.436889 
L 377.222382 179.825809 
L 378.412809 181.091361 
L 379.603191 182.953749 
L 380.793618 185.476592 
L 381.984 188.696483 
L 383.769618 194.033332 
L 384.364809 195.380445 
L 384.96 196.112873 
L 385.555191 195.9822 
L 386.150382 194.847698 
L 386.745618 192.766006 
L 389.126382 181.913646 
L 389.721618 180.226466 
L 390.316809 179.149442 
L 390.912 178.58891 
L 391.507191 178.427575 
L 392.102382 178.560025 
L 392.697618 178.90775 
L 393.888 180.076025 
L 395.078382 181.802597 
L 396.268809 184.178851 
L 397.459191 187.342834 
L 400.435191 196.573885 
L 401.030382 197.237863 
L 401.625618 196.840281 
L 402.220809 195.245456 
L 402.816 192.587309 
L 404.601618 182.822436 
L 405.196809 180.462403 
L 405.792 178.848238 
L 406.387191 177.901275 
L 406.982382 177.477985 
L 407.577618 177.432566 
L 408.172809 177.648173 
L 408.768 178.04527 
L 409.958382 179.229123 
L 411.148809 180.902317 
L 412.339191 183.213217 
L 413.529618 186.385918 
L 414.72 190.515785 
L 414.72 190.515785 
" clip-path="url(#p0ca5c2a3ba)" style="fill: none; stroke-dasharray: 5.55,2.4; stroke-dashoffset: 0; stroke: #ff0000; stroke-width: 1.5"/>
   </g>
   <g id="patch_8">
    <path d="M 57.6 213.662118 
L 57.6 135.393882 
" style="fill: none; stroke: #000000; stroke-width: 0.8; stroke-linejoin: miter; stroke-linecap: square"/>
   </g>
   <g id="patch_9">
    <path d="M 414.72 213.662118 
L 414.72 135.393882 
" style="fill: none; stroke: #000000; stroke-width: 0.8; stroke-linejoin: miter; stroke-linecap: square"/>
   </g>
   <g id="patch_10">
    <path d="M 57.6 213.662118 
L 414.72 213.662118 
" style="fill: none; stroke: #000000; stroke-width: 0.8; stroke-linejoin: miter; stroke-linecap: square"/>
   </g>
   <g id="patch_11">
    <path d="M 57.6 135.393882 
L 414.72 135.393882 
" style="fill: none; stroke: #000000; stroke-width: 0.8; stroke-linejoin: miter; stroke-linecap: square"/>
   </g>
  </g>
  <g id="axes_3">
   <g id="patch_12">
    <path d="M 57.6 307.584 
L 414.72 307.584 
L 414.72 229.315765 
L 57.6 229.315765 
z
" style="fill: #ffffff"/>
   </g>
   <g id="matplotlib.axis_5">
    <g id="xtick_19">
     <g id="line2d_29">
      <g>
       <use xlink:href="#mb18ef68d96" x="57.6" y="307.584" style="stroke: #000000; stroke-width: 0.8"/>
      </g>
     </g>
     <g id="text_7">
      <!-- 10 -->
      <g transform="translate(51.2375 322.182437)scale(0.1 -0.1)">
       <use xlink:href="#DejaVuSans-31"/>
       <use xlink:href="#DejaVuSans-30" x="63.623047"/>
      </g>
     </g>
    </g>
    <g id="xtick_20">
     <g id="line2d_30">
      <g>
       <use xlink:href="#mb18ef68d96" x="105.216" y="307.584" style="stroke: #000000; stroke-width: 0.8"/>
      </g>
     </g>
     <g id="text_8">
      <!-- 12 -->
      <g transform="translate(98.8535 322.182437)scale(0.1 -0.1)">
       <use xlink:href="#DejaVuSans-31"/>
       <use xlink:href="#DejaVuSans-32" x="63.623047"/>
      </g>
     </g>
    </g>
    <g id="xtick_21">
     <g id="line2d_31">
      <g>
       <use xlink:href="#mb18ef68d96" x="152.832" y="307.584" style="stroke: #000000; stroke-width: 0.8"/>
      </g>
     </g>
     <g id="text_9">
      <!-- 14 -->
      <g transform="translate(146.4695 322.182437)scale(0.1 -0.1)">
       <defs>
        <path id="DejaVuSans-34" d="M 2419 4116 
L 825 1625 
L 2419 1625 
L 2419 4116 
z
M 2253 4666 
L 3047 4666 
L 3047 1625 
L 3713 1625 
L 3713 1100 
L 3047 1100 
L 3047 0 
L 2419 0 
L 2419 1100 
L 313 1100 
L 313 1709 
L 2253 4666 
z
" transform="scale(0.015625)"/>
       </defs>
       <use xlink:href="#DejaVuSans-31"/>
       <use xlink:href="#DejaVuSans-34" x="63.623047"/>
      </g>
     </g>
    </g>
    <g id="xtick_22">
     <g id="line2d_32">
      <g>
       <use xlink:href="#mb18ef68d96" x="200.448" y="307.584" style="stroke: #000000; stroke-width: 0.8"/>
      </g>
     </g>
     <g id="text_10">
      <!-- 16 -->
      <g transform="translate(194.0855 322.182437)scale(0.1 -0.1)">
       <defs>
        <path id="DejaVuSans-36" d="M 2113 2584 
Q 1688 2584 1439 2293 
Q 1191 2003 1191 1497 
Q 1191 994 1439 701 
Q 1688 409 2113 409 
Q 2538 409 2786 701 
Q 3034 994 3034 1497 
Q 3034 2003 2786 2293 
Q 2538 2584 2113 2584 
z
M 3366 4563 
L 3366 3988 
Q 3128 4100 2886 4159 
Q 2644 4219 2406 4219 
Q 1781 4219 1451 3797 
Q 1122 3375 1075 2522 
Q 1259 2794 1537 2939 
Q 1816 3084 2150 3084 
Q 2853 3084 3261 2657 
Q 3669 2231 3669 1497 
Q 3669 778 3244 343 
Q 2819 -91 2113 -91 
Q 1303 -91 875 529 
Q 447 1150 447 2328 
Q 447 3434 972 4092 
Q 1497 4750 2381 4750 
Q 2619 4750 2861 4703 
Q 3103 4656 3366 4563 
z
" transform="scale(0.015625)"/>
       </defs>
       <use xlink:href="#DejaVuSans-31"/>
       <use xlink:href="#DejaVuSans-36" x="63.623047"/>
      </g>
     </g>
    </g>
    <g id="xtick_23">
     <g id="line2d_33">
      <g>
       <use xlink:href="#mb18ef68d96" x="248.064" y="307.584" style="stroke: #000000; stroke-width: 0.8"/>
      </g>
     </g>
     <g id="text_11">
      <!-- 18 -->
      <g transform="translate(241.7015 322.182437)scale(0.1 -0.1)">
       <defs>
        <path id="DejaVuSans-38" d="M 2034 2216 
Q 1584 2216 1326 1975 
Q 1069 1734 1069 1313 
Q 1069 891 1326 650 
Q 1584 409 2034 409 
Q 2484 409 2743 651 
Q 3003 894 3003 1313 
Q 3003 1734 2745 1975 
Q 2488 2216 2034 2216 
z
M 1403 2484 
Q 997 2584 770 2862 
Q 544 3141 544 3541 
Q 544 4100 942 4425 
Q 1341 4750 2034 4750 
Q 2731 4750 3128 4425 
Q 3525 4100 3525 3541 
Q 3525 3141 3298 2862 
Q 3072 2584 2669 2484 
Q 3125 2378 3379 2068 
Q 3634 1759 3634 1313 
Q 3634 634 3220 271 
Q 2806 -91 2034 -91 
Q 1263 -91 848 271 
Q 434 634 434 1313 
Q 434 1759 690 2068 
Q 947 2378 1403 2484 
z
M 1172 3481 
Q 1172 3119 1398 2916 
Q 1625 2713 2034 2713 
Q 2441 2713 2670 2916 
Q 2900 3119 2900 3481 
Q 2900 3844 2670 4047 
Q 2441 4250 2034 4250 
Q 1625 4250 1398 4047 
Q 1172 3844 1172 3481 
z
" transform="scale(0.015625)"/>
       </defs>
       <use xlink:href="#DejaVuSans-31"/>
       <use xlink:href="#DejaVuSans-38" x="63.623047"/>
      </g>
     </g>
    </g>
    <g id="xtick_24">
     <g id="line2d_34">
      <g>
       <use xlink:href="#mb18ef68d96" x="295.68" y="307.584" style="stroke: #000000; stroke-width: 0.8"/>
      </g>
     </g>
     <g id="text_12">
      <!-- 20 -->
      <g transform="translate(289.3175 322.182437)scale(0.1 -0.1)">
       <use xlink:href="#DejaVuSans-32"/>
       <use xlink:href="#DejaVuSans-30" x="63.623047"/>
      </g>
     </g>
    </g>
    <g id="xtick_25">
     <g id="line2d_35">
      <g>
       <use xlink:href="#mb18ef68d96" x="343.296" y="307.584" style="stroke: #000000; stroke-width: 0.8"/>
      </g>
     </g>
     <g id="text_13">
      <!-- 22 -->
      <g transform="translate(336.9335 322.182437)scale(0.1 -0.1)">
       <use xlink:href="#DejaVuSans-32"/>
       <use xlink:href="#DejaVuSans-32" x="63.623047"/>
      </g>
     </g>
    </g>
    <g id="xtick_26">
     <g id="line2d_36">
      <g>
       <use xlink:href="#mb18ef68d96" x="390.912" y="307.584" style="stroke: #000000; stroke-width: 0.8"/>
      </g>
     </g>
     <g id="text_14">
      <!-- 24 -->
      <g transform="translate(384.5495 322.182437)scale(0.1 -0.1)">
       <use xlink:href="#DejaVuSans-32"/>
       <use xlink:href="#DejaVuSans-34" x="63.623047"/>
      </g>
     </g>
    </g>
    <g id="xtick_27">
     <g id="line2d_37">
      <g>
       <use xlink:href="#mb18ef68d96" x="414.72" y="307.584" style="stroke: #000000; stroke-width: 0.8"/>
      </g>
     </g>
     <g id="text_15">
      <!-- 25 -->
      <g transform="translate(408.3575 322.182437)scale(0.1 -0.1)">
       <defs>
        <path id="DejaVuSans-35" d="M 691 4666 
L 3169 4666 
L 3169 4134 
L 1269 4134 
L 1269 2991 
Q 1406 3038 1543 3061 
Q 1681 3084 1819 3084 
Q 2600 3084 3056 2656 
Q 3513 2228 3513 1497 
Q 3513 744 3044 326 
Q 2575 -91 1722 -91 
Q 1428 -91 1123 -41 
Q 819 9 494 109 
L 494 744 
Q 775 591 1075 516 
Q 1375 441 1709 441 
Q 2250 441 2565 725 
Q 2881 1009 2881 1497 
Q 2881 1984 2565 2268 
Q 2250 2553 1709 2553 
Q 1456 2553 1204 2497 
Q 953 2441 691 2322 
L 691 4666 
z
" transform="scale(0.015625)"/>
       </defs>
       <use xlink:href="#DejaVuSans-32"/>
       <use xlink:href="#DejaVuSans-35" x="63.623047"/>
      </g>
     </g>
    </g>
   </g>
   <g id="matplotlib.axis_6">
    <g id="ytick_7">
     <g id="line2d_38">
      <g>
       <use xlink:href="#me27a69f1f0" x="57.6" y="278.416446" style="stroke: #000000; stroke-width: 0.8"/>
      </g>
     </g>
     <g id="text_16">
      <!-- 20 -->
      <g transform="translate(37.875 282.215665)scale(0.1 -0.1)">
       <use xlink:href="#DejaVuSans-32"/>
       <use xlink:href="#DejaVuSans-30" x="63.623047"/>
      </g>
     </g>
    </g>
    <g id="ytick_8">
     <g id="line2d_39">
      <g>
       <use xlink:href="#me27a69f1f0" x="57.6" y="240.608821" style="stroke: #000000; stroke-width: 0.8"/>
      </g>
     </g>
     <g id="text_17">
      <!-- 40 -->
      <g transform="translate(37.875 244.40804)scale(0.1 -0.1)">
       <use xlink:href="#DejaVuSans-34"/>
       <use xlink:href="#DejaVuSans-30" x="63.623047"/>
      </g>
     </g>
    </g>
   </g>
   <g id="line2d_40">
    <path d="M 57.6 287.031301 
L 58.195191 288.245098 
L 58.790405 289.118754 
L 59.385595 289.555185 
L 59.980809 289.41343 
L 60.576 288.497786 
L 61.171191 286.555106 
L 61.766405 283.297004 
L 62.361595 278.474121 
L 62.956786 272.029791 
L 64.742405 249.389823 
L 65.337595 244.92884 
L 65.932786 243.543866 
L 66.528 244.898021 
L 67.123214 248.064799 
L 70.099214 267.598929 
L 71.289618 273.771644 
L 72.48 279.096742 
L 74.265618 285.829851 
L 76.051214 291.33397 
L 77.836809 295.830205 
L 79.027214 298.347837 
L 80.217595 300.511884 
L 81.408 302.304453 
L 82.598405 303.604866 
L 83.193595 303.967691 
L 83.788809 304.021388 
L 84.384 303.603804 
L 84.979191 302.454266 
L 85.574405 300.170678 
L 86.169595 296.177383 
L 86.764786 289.760491 
L 87.36 280.293806 
L 89.145595 241.368479 
L 89.740786 234.01598 
L 90.336 233.023073 
L 90.931214 236.877911 
L 92.716809 254.682437 
L 93.907214 263.150977 
L 95.097618 269.149418 
L 96.288 273.543118 
L 96.883214 275.223356 
L 97.478405 276.544611 
L 98.073618 277.468705 
L 98.668809 277.938204 
L 99.264 277.879081 
L 99.859214 277.206287 
L 100.454405 275.836983 
L 101.049595 273.714798 
L 101.644809 270.847499 
L 102.835214 263.499678 
L 104.025595 256.427192 
L 104.620809 254.126599 
L 105.216 253.0435 
L 105.811191 253.185249 
L 106.406405 254.35804 
L 107.001595 256.269076 
L 108.192 261.193906 
L 109.977595 268.809006 
L 111.168 273.175619 
L 112.358405 276.656107 
L 112.953595 277.97471 
L 113.548786 278.944784 
L 114.144 279.497156 
L 114.739214 279.545171 
L 115.334405 278.986696 
L 115.929618 277.712999 
L 116.524809 275.630518 
L 117.120023 272.699633 
L 118.310405 264.741026 
L 119.500786 256.456777 
L 120.095977 253.534316 
L 120.691191 251.973374 
L 121.286382 251.844533 
L 121.881595 252.948804 
L 122.476786 254.94155 
L 123.667191 260.241529 
L 125.452809 268.479387 
L 126.643214 273.24407 
L 127.833595 277.165121 
L 129.024 280.007284 
L 129.619191 280.90252 
L 130.214405 281.347429 
L 130.809595 281.239445 
L 131.404809 280.454892 
L 132 278.859924 
L 132.595191 276.338603 
L 133.190405 272.84431 
L 134.380786 263.549138 
L 135.571191 254.389513 
L 136.166405 251.488672 
L 136.761595 250.258602 
L 137.356786 250.652937 
L 137.952 252.330111 
L 139.142382 257.778136 
L 141.523191 269.616227 
L 142.713595 274.591224 
L 143.903977 278.726905 
L 145.094382 281.849289 
L 145.689595 282.925829 
L 146.284786 283.585559 
L 146.879977 283.725122 
L 147.475191 283.210005 
L 148.070405 281.878003 
L 148.665595 279.558179 
L 149.260809 276.117183 
L 149.856 271.543444 
L 151.641595 254.78278 
L 152.236809 250.696358 
L 152.832 248.543148 
L 153.427191 248.425552 
L 154.022405 249.985972 
L 154.617595 252.651476 
L 158.188786 271.755416 
L 159.379191 276.833101 
L 160.569595 281.109987 
L 161.76 284.49123 
L 162.355191 285.769877 
L 162.950382 286.697622 
L 163.545595 287.182631 
L 164.140786 287.094974 
L 164.736 286.259572 
L 165.331191 284.45821 
L 165.926382 281.453211 
L 166.521595 277.055872 
L 167.711977 264.390457 
L 168.902382 251.076856 
L 169.497595 246.935327 
L 170.092786 245.421631 
L 170.687977 246.344732 
L 171.283191 248.992941 
L 175.449595 273.372829 
L 176.64 278.633746 
L 177.830405 283.189419 
L 179.020809 287.090421 
L 180.211191 290.317579 
L 181.401595 292.724092 
L 181.996786 293.50441 
L 182.592 293.882809 
L 183.187191 293.708512 
L 183.782405 292.760791 
L 184.377595 290.735034 
L 184.972786 287.251545 
L 185.568 281.925272 
L 186.163191 274.552004 
L 187.948786 247.127049 
L 188.544 241.696395 
L 189.139191 240.217239 
L 189.734382 242.135463 
L 190.329595 246.107964 
L 192.115191 259.978835 
L 193.305595 267.496628 
L 194.495977 273.67762 
L 195.686405 278.884109 
L 196.876809 283.281036 
L 198.067214 286.888634 
L 199.257595 289.571815 
L 199.852809 290.454458 
L 200.448 290.915878 
L 201.043191 290.815433 
L 201.638382 289.953207 
L 202.233618 288.062932 
L 202.828809 284.828353 
L 203.424 279.951797 
L 204.019191 273.312993 
L 205.804809 249.074954 
L 206.4 244.096523 
L 206.995236 242.45427 
L 207.590427 243.813098 
L 208.185618 247.143989 
L 210.566382 263.830003 
L 211.756809 270.616969 
L 212.947191 276.384572 
L 214.137573 281.366607 
L 215.328 285.696772 
L 216.518427 289.455171 
L 217.708809 292.68547 
L 218.899191 295.381574 
L 220.089573 297.431138 
L 220.684764 298.116934 
L 221.28 298.469846 
L 221.875191 298.348118 
L 222.470382 297.532504 
L 223.065573 295.698423 
L 223.660764 292.400234 
L 224.256 287.107696 
L 224.851191 279.372849 
L 226.041618 257.590949 
L 226.636809 246.733474 
L 227.232 239.273017 
L 227.827191 236.735333 
L 228.422382 238.634958 
L 229.017618 243.189411 
L 230.803236 258.659717 
L 231.993618 266.391933 
L 233.184 272.422935 
L 234.374382 277.246277 
L 235.564809 280.974199 
L 236.16 282.381473 
L 236.755191 283.42132 
L 237.350382 284.015647 
L 237.945573 284.055669 
L 238.540809 283.398866 
L 239.136 281.874611 
L 239.731191 279.307314 
L 240.326427 275.570532 
L 241.516809 264.928366 
L 242.707191 253.568774 
L 243.302382 249.745369 
L 243.897573 247.990132 
L 244.492764 248.291633 
L 245.088 250.199258 
L 246.278382 256.469287 
L 248.064 266.559995 
L 249.254382 272.405533 
L 250.444809 277.456009 
L 251.635191 281.716589 
L 252.825618 285.102956 
L 253.420809 286.396267 
L 254.016 287.349178 
L 254.611236 287.871957 
L 255.206427 287.835671 
L 255.801618 287.064257 
L 256.396809 285.333044 
L 256.992 282.39007 
L 257.587191 278.018485 
L 258.182382 272.167831 
L 259.968 251.150436 
L 260.563191 246.644066 
L 261.158382 244.875108 
L 261.753573 245.691825 
L 262.348809 248.354853 
L 266.515191 273.216514 
L 267.705573 278.547102 
L 268.896 283.178483 
L 270.086382 287.185657 
L 271.276764 290.595078 
L 272.467191 293.358814 
L 273.062382 294.443914 
L 273.657618 295.267939 
L 274.252809 295.745615 
L 274.848 295.743744 
L 275.443191 295.060485 
L 276.038382 293.403849 
L 276.633618 290.383524 
L 277.228809 285.548751 
L 277.824 278.532813 
L 279.014427 258.881548 
L 279.609618 248.920102 
L 280.204809 241.741286 
L 280.8 238.803892 
L 281.395191 239.937281 
L 281.990382 243.753858 
L 283.776 258.39108 
L 284.966382 266.238127 
L 286.156809 272.537263 
L 287.347191 277.735686 
L 288.537618 282.009193 
L 289.728 285.317896 
L 290.323191 286.536414 
L 290.918382 287.383483 
L 291.513573 287.759648 
L 292.108764 287.523708 
L 292.704 286.485538 
L 293.299191 284.411104 
L 293.894382 281.053064 
L 294.489573 276.234275 
L 295.68 262.782169 
L 296.870382 249.547132 
L 297.465618 245.88953 
L 298.060809 244.984427 
L 298.656 246.456995 
L 299.251191 249.491267 
L 302.227236 268.075774 
L 303.417618 274.088976 
L 304.608 279.29624 
L 305.798382 283.81732 
L 306.988809 287.71607 
L 308.179191 291.001935 
L 309.369573 293.591675 
L 309.964809 294.54914 
L 310.56 295.197202 
L 311.155191 295.425137 
L 311.750427 295.063244 
L 312.345618 293.861917 
L 312.940809 291.47608 
L 313.536 287.478985 
L 314.131191 281.455711 
L 314.726382 273.234136 
L 316.512 244.520427 
L 317.107191 239.790246 
L 317.702382 239.317784 
L 318.297573 242.142174 
L 321.273618 264.765412 
L 322.464 271.357817 
L 323.654382 276.797116 
L 324.844809 281.314018 
L 326.035236 284.926421 
L 326.630427 286.345468 
L 327.225618 287.44714 
L 327.820809 288.154938 
L 328.416 288.356165 
L 329.011191 287.891734 
L 329.606382 286.550561 
L 330.201573 284.078779 
L 330.796809 280.223308 
L 331.392 274.838041 
L 333.772809 247.729395 
L 334.368 244.844119 
L 334.963191 244.772879 
L 335.558427 246.915821 
L 336.748809 254.351681 
L 338.534382 265.786521 
L 339.724764 272.157088 
L 340.915191 277.653633 
L 342.105573 282.4316 
L 343.296 286.58762 
L 344.486382 290.176182 
L 345.676809 293.20729 
L 346.867191 295.605122 
L 347.462382 296.494589 
L 348.057618 297.096463 
L 348.652809 297.302013 
L 349.248 296.941698 
L 349.843236 295.760347 
L 350.438427 293.395509 
L 351.033618 289.382286 
L 351.628809 283.23485 
L 352.224 274.689001 
L 354.009573 243.738176 
L 354.604809 238.48445 
L 355.2 237.916507 
L 355.795191 240.957404 
L 358.771191 264.464443 
L 359.961618 270.99901 
L 361.152 276.28398 
L 362.342382 280.54268 
L 363.532764 283.722891 
L 364.128 284.818817 
L 364.723191 285.491672 
L 365.318382 285.632181 
L 365.913573 285.092309 
L 366.508764 283.685917 
L 367.104 281.206336 
L 367.699191 277.476728 
L 368.294382 272.447815 
L 370.675191 249.144539 
L 371.270382 246.876357 
L 371.865618 246.941348 
L 372.460809 248.855968 
L 373.651236 255.489005 
L 375.436809 266.115678 
L 376.627191 272.206699 
L 377.817573 277.481106 
L 379.008 282.008723 
L 380.198382 285.790317 
L 381.388809 288.711127 
L 381.984 289.75624 
L 382.579191 290.429201 
L 383.174427 290.612701 
L 383.769618 290.137131 
L 384.364809 288.770262 
L 384.96 286.220424 
L 385.555191 282.176451 
L 386.150382 276.41914 
L 387.340764 260.637727 
L 387.936 252.522444 
L 388.531191 246.278905 
L 389.126382 243.084126 
L 389.721573 243.108745 
L 390.316764 245.596233 
L 391.507191 253.785101 
L 392.697618 262.067619 
L 393.888 269.119741 
L 395.078382 275.099109 
L 396.268809 280.256348 
L 397.459236 284.743117 
L 398.649618 288.653021 
L 399.84 292.050102 
L 401.030382 294.970475 
L 402.220809 297.403134 
L 403.411191 299.230337 
L 404.006382 299.816693 
L 404.601573 300.07304 
L 405.196809 299.84942 
L 405.792 298.91147 
L 406.387191 296.909002 
L 406.982427 293.355935 
L 407.577618 287.671833 
L 408.172809 279.36774 
L 410.553618 237.585351 
L 411.148809 235.602393 
L 411.744 238.163111 
L 412.934382 248.932844 
L 414.124809 259.016632 
L 414.72 263.067731 
L 414.72 263.067731 
" clip-path="url(#p8730133b86)" style="fill: none; stroke: #0000cc; stroke-width: 1.5; stroke-linecap: square"/>
   </g>
   <g id="line2d_41">
    <path d="M 57.6 287.031325 
L 58.195191 288.244632 
L 58.790405 289.118421 
L 59.385595 289.555129 
L 59.980809 289.414268 
L 60.576 288.499933 
L 61.171191 286.559043 
L 61.766405 283.302566 
L 62.361595 278.479947 
L 62.956809 272.034038 
L 64.742405 249.389976 
L 65.337595 244.928227 
L 65.932809 243.543052 
L 66.528 244.897882 
L 67.123191 248.064435 
L 70.099191 267.600966 
L 71.289595 273.773802 
L 72.48 279.09911 
L 74.265595 285.831693 
L 76.051191 291.33437 
L 77.836809 295.827939 
L 79.027191 298.342901 
L 80.217595 300.50309 
L 81.408 302.289106 
L 82.598405 303.576553 
L 83.193595 303.927823 
L 83.788809 303.963773 
L 84.384 303.518661 
L 84.979191 302.326409 
L 85.574405 299.977671 
L 86.169595 295.888533 
L 86.764809 289.341165 
L 87.36 279.724328 
L 89.145595 240.909386 
L 89.740809 233.860504 
L 90.336 233.143845 
L 90.931191 237.158507 
L 92.716809 254.919506 
L 93.907191 263.310578 
L 95.097595 269.264752 
L 96.288 273.631944 
L 96.883191 275.301042 
L 97.478405 276.608922 
L 98.073595 277.519082 
L 98.668809 277.970886 
L 99.264 277.891539 
L 99.859191 277.193862 
L 100.454405 275.796305 
L 101.049595 273.642478 
L 101.644809 270.74409 
L 104.025595 256.307112 
L 104.620809 254.044224 
L 105.216 253.006932 
L 105.811191 253.192997 
L 106.406405 254.402565 
L 107.001595 256.339572 
L 108.787191 263.908896 
L 110.572809 271.180742 
L 111.763191 275.124092 
L 112.953595 278.040288 
L 113.548809 278.999943 
L 114.144 279.539321 
L 114.739191 279.571407 
L 115.334405 278.993104 
L 115.929595 277.695384 
L 116.524809 275.584755 
L 117.12 272.623564 
L 118.310405 264.61484 
L 119.500809 256.336109 
L 120.096 253.443366 
L 120.691191 251.923055 
L 121.286405 251.83639 
L 121.881595 252.976744 
L 122.476809 254.995943 
L 123.667191 260.322368 
L 125.452809 268.564435 
L 126.643191 273.323747 
L 127.833595 277.237071 
L 129.024 280.06873 
L 129.619191 280.957051 
L 130.214405 281.393318 
L 130.809595 281.274291 
L 131.404809 280.475492 
L 132 278.862308 
L 132.595191 276.318395 
L 133.190405 272.798418 
L 134.380809 263.456942 
L 135.571191 254.296049 
L 136.166405 251.41713 
L 136.761595 250.217507 
L 137.356809 250.643442 
L 137.952 252.347007 
L 139.142405 257.826303 
L 141.523191 269.676973 
L 142.713595 274.650893 
L 143.904 278.785461 
L 145.094405 281.907298 
L 145.689595 282.983852 
L 146.284809 283.643781 
L 146.88 283.783486 
L 147.475191 283.268016 
L 148.070405 281.934329 
L 148.665595 279.61013 
L 149.260809 276.160565 
L 149.856 271.572563 
L 151.641595 254.751785 
L 152.236809 250.652347 
L 152.832 248.494782 
L 153.427191 248.381673 
L 154.022405 249.951659 
L 154.617595 252.628085 
L 158.188809 271.770064 
L 159.379191 276.854139 
L 160.569595 281.139412 
L 161.76 284.533803 
L 162.355191 285.822285 
L 162.950405 286.763153 
L 163.545595 287.265746 
L 164.140809 287.201405 
L 164.736 286.396074 
L 165.331191 284.631275 
L 165.926405 281.667033 
L 166.521595 277.30787 
L 167.116809 271.530902 
L 168.902405 251.217526 
L 169.497595 246.968928 
L 170.092809 245.356799 
L 170.688 246.213981 
L 171.283191 248.831189 
L 173.068809 260.129634 
L 174.259191 267.184198 
L 175.449595 273.283387 
L 176.64 278.563111 
L 177.830405 283.13771 
L 179.020809 287.061624 
L 180.211191 290.32312 
L 181.401595 292.791872 
L 181.996809 293.623854 
L 182.592 294.076738 
L 183.187191 294.010023 
L 183.782405 293.215724 
L 184.377595 291.401961 
L 184.972809 288.194695 
L 185.568 283.192688 
L 186.163191 276.130554 
L 187.948809 248.338326 
L 188.544 242.20498 
L 189.139191 240.025554 
L 189.734405 241.4669 
L 190.329595 245.226045 
L 192.710405 263.260019 
L 193.900809 270.168859 
L 195.091191 275.904765 
L 196.281595 280.747302 
L 197.472 284.79031 
L 198.662405 287.982987 
L 199.257595 289.192583 
L 199.852809 290.068959 
L 200.448 290.516282 
L 201.043191 290.392894 
L 201.638382 289.498794 
L 202.233618 287.570079 
L 202.828809 284.297294 
L 203.424 279.397571 
L 204.019191 272.775274 
L 205.804809 249.022315 
L 206.4 244.264484 
L 206.995191 242.770389 
L 207.590382 244.183816 
L 208.185618 247.496399 
L 210.566382 263.99914 
L 211.756809 270.745995 
L 212.947191 276.494994 
L 214.137618 281.469726 
L 215.328 285.802559 
L 216.518382 289.578865 
L 217.708809 292.858 
L 218.899191 295.671988 
L 220.089618 298.003124 
L 221.28 299.719323 
L 221.875191 300.236601 
L 222.470382 300.404367 
L 223.065618 300.05915 
L 223.660809 298.946246 
L 224.256 296.687311 
L 224.851191 292.76559 
L 225.446382 286.583284 
L 226.041618 277.692455 
L 227.827191 242.98706 
L 228.422382 236.549747 
L 229.017618 235.555383 
L 229.612809 238.824202 
L 231.993618 259.802022 
L 233.184 267.135015 
L 234.374382 272.749558 
L 235.564809 277.102233 
L 236.755191 280.210581 
L 237.350382 281.211552 
L 237.945618 281.754097 
L 238.540809 281.738422 
L 239.136 281.040729 
L 239.731191 279.521038 
L 240.326382 277.050836 
L 240.921618 273.563791 
L 242.112 264.06425 
L 243.302382 254.409539 
L 243.897618 251.249593 
L 244.492809 249.826458 
L 245.088 250.120744 
L 245.683191 251.782558 
L 246.873618 257.342564 
L 249.254382 269.469271 
L 250.444809 274.570153 
L 251.635191 278.847831 
L 252.825618 282.161352 
L 253.420809 283.366258 
L 254.016 284.186199 
L 254.611191 284.525967 
L 255.206382 284.25755 
L 255.801618 283.219191 
L 256.396809 281.22637 
L 256.992 278.107334 
L 257.587191 273.776908 
L 258.777618 262.263846 
L 259.968 251.418323 
L 260.563191 248.420651 
L 261.158382 247.610587 
L 261.753618 248.738817 
L 262.348809 251.223577 
L 264.134382 261.446882 
L 265.92 270.917522 
L 267.110382 276.225342 
L 268.300809 280.755435 
L 269.491191 284.472483 
L 270.681618 287.201697 
L 271.276809 288.072278 
L 271.872 288.494216 
L 272.467191 288.327951 
L 273.062382 287.38299 
L 273.657618 285.418413 
L 274.252809 282.168633 
L 274.848 277.419575 
L 276.038382 263.7731 
L 277.228809 249.73611 
L 277.824 245.622744 
L 278.419191 244.389004 
L 279.014382 245.71012 
L 279.609618 248.736908 
L 282.585618 267.723578 
L 283.776 273.829629 
L 284.966382 279.11108 
L 286.156809 283.707652 
L 287.347191 287.704789 
L 288.537618 291.151141 
L 289.728 294.04951 
L 290.918382 296.310027 
L 291.513618 297.119943 
L 292.108809 297.625557 
L 292.704 297.706049 
L 293.299191 297.173503 
L 293.894382 295.746852 
L 294.489618 293.031497 
L 295.084809 288.533881 
L 295.68 281.77294 
L 296.275191 272.573273 
L 297.465618 250.449103 
L 298.060809 241.813042 
L 298.656 237.616691 
L 299.251191 238.079988 
L 299.846382 241.795535 
L 302.227191 261.49098 
L 303.417618 268.620221 
L 304.608 274.299162 
L 305.798382 278.882688 
L 306.988809 282.402911 
L 307.584 283.701154 
L 308.179191 284.617835 
L 308.774382 285.063778 
L 309.369618 284.915222 
L 309.964809 284.011082 
L 310.56 282.16053 
L 311.155191 279.173643 
L 311.750382 274.930766 
L 312.940809 263.26192 
L 314.131191 251.68224 
L 314.726382 248.246051 
L 315.321618 247.091556 
L 315.916809 248.024864 
L 316.512 250.452647 
L 317.702382 257.289611 
L 319.488 267.54704 
L 320.678382 273.385231 
L 321.868809 278.429252 
L 323.059191 282.715279 
L 324.249618 286.193295 
L 324.844809 287.574108 
L 325.44 288.655801 
L 326.035191 289.361752 
L 326.630382 289.57822 
L 327.225618 289.14261 
L 327.820809 287.834695 
L 328.416 285.38145 
L 329.011191 281.496732 
L 329.606382 275.986606 
L 330.796809 260.952714 
L 331.392 253.208693 
L 331.987191 247.179003 
L 332.582382 243.977066 
L 333.177618 243.818823 
L 333.772809 246.052844 
L 334.963191 253.837785 
L 336.748809 265.602509 
L 337.939191 272.064815 
L 339.129618 277.61738 
L 340.32 282.444397 
L 342.105618 288.565418 
L 343.891191 293.568969 
L 345.676809 297.645646 
L 346.867191 299.910278 
L 348.057618 301.81528 
L 349.248 303.281281 
L 349.843191 303.776212 
L 350.438382 304.026353 
L 351.033618 303.911124 
L 351.628809 303.233274 
L 352.224 301.68002 
L 352.819191 298.780367 
L 353.414382 293.889333 
L 354.009618 286.282091 
L 354.604809 275.508186 
L 356.390382 237.629024 
L 356.985618 232.873412 
L 357.580809 234.159738 
L 358.176 239.228069 
L 359.366382 251.528123 
L 360.556809 260.962053 
L 361.747191 267.562235 
L 362.937618 272.379401 
L 364.128 275.796721 
L 364.723191 276.959612 
L 365.318382 277.703906 
L 365.913618 277.964184 
L 366.508809 277.661603 
L 367.104 276.709517 
L 367.699191 275.032886 
L 368.294382 272.596544 
L 369.484809 265.767696 
L 370.675191 258.245885 
L 371.270382 255.339337 
L 371.865618 253.530882 
L 372.460809 252.970383 
L 373.056 253.571612 
L 373.651191 255.086705 
L 374.841618 259.680019 
L 377.222382 269.772427 
L 378.412809 273.973216 
L 379.603191 277.235511 
L 380.198382 278.41713 
L 380.793618 279.224167 
L 381.388809 279.580339 
L 381.984 279.392229 
L 382.579191 278.553229 
L 383.174382 276.957263 
L 383.769618 274.526986 
L 384.364809 271.260506 
L 386.745618 255.110799 
L 387.340809 252.719371 
L 387.936 251.755136 
L 388.531191 252.167489 
L 389.126382 253.680244 
L 390.316809 258.586617 
L 392.697618 269.513178 
L 393.888 274.119615 
L 395.078382 277.844008 
L 395.673618 279.300399 
L 396.268809 280.424407 
L 396.864 281.148634 
L 397.459191 281.384283 
L 398.054382 281.019659 
L 398.649618 279.924736 
L 399.244809 277.967929 
L 399.84 275.053102 
L 400.435191 271.181988 
L 402.816 253.026811 
L 403.411191 250.778925 
L 404.006382 250.229116 
L 404.601618 251.192397 
L 405.196809 253.2596 
L 406.387191 259.010115 
L 408.172809 267.981751 
L 409.363191 273.188589 
L 410.553618 277.589691 
L 411.744 281.045875 
L 412.339191 282.336655 
L 412.934382 283.259986 
L 413.529618 283.729899 
L 414.124809 283.63092 
L 414.72 282.816452 
L 414.72 282.816452 
" clip-path="url(#p8730133b86)" style="fill: none; stroke-dasharray: 5.55,2.4; stroke-dashoffset: 0; stroke: #ff0000; stroke-width: 1.5"/>
   </g>
   <g id="patch_13">
    <path d="M 57.6 307.584 
L 57.6 229.315765 
" style="fill: none; stroke: #000000; stroke-width: 0.8; stroke-linejoin: miter; stroke-linecap: square"/>
   </g>
   <g id="patch_14">
    <path d="M 414.72 307.584 
L 414.72 229.315765 
" style="fill: none; stroke: #000000; stroke-width: 0.8; stroke-linejoin: miter; stroke-linecap: square"/>
   </g>
   <g id="patch_15">
    <path d="M 57.6 307.584 
L 414.72 307.584 
" style="fill: none; stroke: #000000; stroke-width: 0.8; stroke-linejoin: miter; stroke-linecap: square"/>
   </g>
   <g id="patch_16">
    <path d="M 57.6 229.315765 
L 414.72 229.315765 
" style="fill: none; stroke: #000000; stroke-width: 0.8; stroke-linejoin: miter; stroke-linecap: square"/>
   </g>
  </g>
 </g>
 <defs>
  <clipPath id="p1f685d510c">
   <rect x="57.6" y="41.472" width="357.12" height="78.268235"/>
  </clipPath>
  <clipPath id="p0ca5c2a3ba">
   <rect x="57.6" y="135.393882" width="357.12" height="78.268235"/>
  </clipPath>
  <clipPath id="p8730133b86">
   <rect x="57.6" y="229.315765" width="357.12" height="78.268235"/>
  </clipPath>
 </defs>
</svg>
