<?xml version="1.0" encoding="utf-8" standalone="no"?>
<!DOCTYPE svg PUBLIC "-//W3C//DTD SVG 1.1//EN"
  "http://www.w3.org/Graphics/SVG/1.1/DTD/svg11.dtd">
<svg xmlns:xlink="http://www.w3.org/1999/xlink" width="460.8pt" height="345.6pt" viewBox="0 0 460.8 345.6" xmlns="http://www.w3.org/2000/svg" version="1.1">
 <metadata>
  <rdf:RDF xmlns:dc="http://purl.org/dc/elements/1.1/" xmlns:cc="http://creativecommons.org/ns#" xmlns:rdf="http://www.w3.org/1999/02/22-rdf-syntax-ns#">
   <cc:Work>
    <dc:type rdf:resource="http://purl.org/dc/dcmitype/StillImage"/>
    <dc:date>2024-01-02T15:36:48.170142</dc:date>
    <dc:format>image/svg+xml</dc:format>
    <dc:creator>
     <cc:Agent>
      <dc:title>Matplotlib v3.7.3, https://matplotlib.org/</dc:title>
     </cc:Agent>
    </dc:creator>
   </cc:Work>
  </rdf:RDF>
 </metadata>
 <defs>
  <style type="text/css">*{stroke-linejoin: round; stroke-linecap: butt}</style>
 </defs>
 <g id="figure_1">
  <g id="patch_1">
   <path d="M 0 345.6 
L 460.8 345.6 
L 460.8 0 
L 0 0 
z
" style="fill: #ffffff"/>
  </g>
  <g id="patch_2">
   <path d="M 103.104 307.584 
L 369.216 307.584 
L 369.216 41.472 
L 103.104 41.472 
z
" style="fill: #ffffff"/>
  </g>
  <g id="pane3d_1">
   <g id="patch_3">
    <path d="M 123.197291 241.969309 
L 211.076164 168.307495 
L 209.854564 62.073991 
L 117.770234 129.272941 
" style="fill: #f2f2f2; opacity: 0.5; stroke: #f2f2f2; stroke-linejoin: miter"/>
   </g>
  </g>
  <g id="pane3d_2">
   <g id="patch_4">
    <path d="M 211.076164 168.307495 
L 352.090401 209.294766 
L 357.122702 99.402171 
L 209.854564 62.073991 
" style="fill: #e6e6e6; opacity: 0.5; stroke: #e6e6e6; stroke-linejoin: miter"/>
   </g>
  </g>
  <g id="pane3d_3">
   <g id="patch_5">
    <path d="M 123.197291 241.969309 
L 272.679269 290.790123 
L 352.090401 209.294766 
L 211.076164 168.307495 
" style="fill: #ececec; opacity: 0.5; stroke: #ececec; stroke-linejoin: miter"/>
   </g>
  </g>
  <g id="axis3d_1">
   <g id="line2d_1">
    <path d="M 123.197291 241.969309 
L 272.679269 290.790123 
" style="fill: none; stroke: #000000; stroke-width: 0.8; stroke-linecap: square"/>
   </g>
   <g id="Line3DCollection_1">
    <path d="M 142.143133 248.157021 
L 229.017798 173.522419 
L 228.557403 66.814615 
" style="fill: none; stroke: #b0b0b0; stroke-width: 0.8"/>
    <path d="M 160.463286 254.140383 
L 246.347789 178.559564 
L 246.632183 71.396045 
" style="fill: none; stroke: #b0b0b0; stroke-width: 0.8"/>
    <path d="M 179.026563 260.203149 
L 263.888624 183.657992 
L 264.936418 76.035635 
" style="fill: none; stroke: #b0b0b0; stroke-width: 0.8"/>
    <path d="M 197.837837 266.346911 
L 281.644175 188.81883 
L 283.474503 80.734499 
" style="fill: none; stroke: #b0b0b0; stroke-width: 0.8"/>
    <path d="M 216.902111 272.573303 
L 299.618409 194.04323 
L 302.250949 85.493781 
" style="fill: none; stroke: #b0b0b0; stroke-width: 0.8"/>
    <path d="M 236.224523 278.884003 
L 317.81539 199.332374 
L 321.270384 90.314654 
" style="fill: none; stroke: #b0b0b0; stroke-width: 0.8"/>
    <path d="M 255.810353 285.280735 
L 336.239285 204.687473 
L 340.537554 95.19832 
" style="fill: none; stroke: #b0b0b0; stroke-width: 0.8"/>
   </g>
   <g id="xtick_1">
    <g id="line2d_2">
     <path d="M 142.899852 247.506918 
L 140.626436 249.460026 
" style="fill: none; stroke: #000000; stroke-width: 0.8; stroke-linecap: square"/>
    </g>
    <g id="text_1">
     <!-- −15 -->
     <g transform="translate(124.07165 271.534552) scale(0.1 -0.1)">
      <defs>
       <path id="DejaVuSans-2212" d="M 678 2272 
L 4684 2272 
L 4684 1741 
L 678 1741 
L 678 2272 
z
" transform="scale(0.015625)"/>
       <path id="DejaVuSans-31" d="M 794 531 
L 1825 531 
L 1825 4091 
L 703 3866 
L 703 4441 
L 1819 4666 
L 2450 4666 
L 2450 531 
L 3481 531 
L 3481 0 
L 794 0 
L 794 531 
z
" transform="scale(0.015625)"/>
       <path id="DejaVuSans-35" d="M 691 4666 
L 3169 4666 
L 3169 4134 
L 1269 4134 
L 1269 2991 
Q 1406 3038 1543 3061 
Q 1681 3084 1819 3084 
Q 2600 3084 3056 2656 
Q 3513 2228 3513 1497 
Q 3513 744 3044 326 
Q 2575 -91 1722 -91 
Q 1428 -91 1123 -41 
Q 819 9 494 109 
L 494 744 
Q 775 591 1075 516 
Q 1375 441 1709 441 
Q 2250 441 2565 725 
Q 2881 1009 2881 1497 
Q 2881 1984 2565 2268 
Q 2250 2553 1709 2553 
Q 1456 2553 1204 2497 
Q 953 2441 691 2322 
L 691 4666 
z
" transform="scale(0.015625)"/>
      </defs>
      <use xlink:href="#DejaVuSans-2212"/>
      <use xlink:href="#DejaVuSans-31" x="83.789062"/>
      <use xlink:href="#DejaVuSans-35" x="147.412109"/>
     </g>
    </g>
   </g>
   <g id="xtick_2">
    <g id="line2d_3">
     <path d="M 161.211782 253.481685 
L 158.963048 255.460635 
" style="fill: none; stroke: #000000; stroke-width: 0.8; stroke-linecap: square"/>
    </g>
    <g id="text_2">
     <!-- −10 -->
     <g transform="translate(142.410849 277.644785) scale(0.1 -0.1)">
      <defs>
       <path id="DejaVuSans-30" d="M 2034 4250 
Q 1547 4250 1301 3770 
Q 1056 3291 1056 2328 
Q 1056 1369 1301 889 
Q 1547 409 2034 409 
Q 2525 409 2770 889 
Q 3016 1369 3016 2328 
Q 3016 3291 2770 3770 
Q 2525 4250 2034 4250 
z
M 2034 4750 
Q 2819 4750 3233 4129 
Q 3647 3509 3647 2328 
Q 3647 1150 3233 529 
Q 2819 -91 2034 -91 
Q 1250 -91 836 529 
Q 422 1150 422 2328 
Q 422 3509 836 4129 
Q 1250 4750 2034 4750 
z
" transform="scale(0.015625)"/>
      </defs>
      <use xlink:href="#DejaVuSans-2212"/>
      <use xlink:href="#DejaVuSans-31" x="83.789062"/>
      <use xlink:href="#DejaVuSans-30" x="147.412109"/>
     </g>
    </g>
   </g>
   <g id="xtick_3">
    <g id="line2d_4">
     <path d="M 179.766551 259.535684 
L 177.543358 261.540993 
" style="fill: none; stroke: #000000; stroke-width: 0.8; stroke-linecap: square"/>
    </g>
    <g id="text_3">
     <!-- −5 -->
     <g transform="translate(164.175597 283.836412) scale(0.1 -0.1)">
      <use xlink:href="#DejaVuSans-2212"/>
      <use xlink:href="#DejaVuSans-35" x="83.789062"/>
     </g>
    </g>
   </g>
   <g id="xtick_4">
    <g id="line2d_5">
     <path d="M 198.569022 265.670502 
L 196.372255 267.702701 
" style="fill: none; stroke: #000000; stroke-width: 0.8; stroke-linecap: square"/>
    </g>
    <g id="text_4">
     <!-- 0 -->
     <g transform="translate(187.198149 290.111072) scale(0.1 -0.1)">
      <use xlink:href="#DejaVuSans-30"/>
     </g>
    </g>
   </g>
   <g id="xtick_5">
    <g id="line2d_6">
     <path d="M 217.624188 271.887769 
L 215.454763 273.947402 
" style="fill: none; stroke: #000000; stroke-width: 0.8; stroke-linecap: square"/>
    </g>
    <g id="text_5">
     <!-- 5 -->
     <g transform="translate(206.285117 296.470445) scale(0.1 -0.1)">
      <use xlink:href="#DejaVuSans-35"/>
     </g>
    </g>
   </g>
   <g id="xtick_6">
    <g id="line2d_7">
     <path d="M 236.937179 278.189159 
L 234.796039 280.276784 
" style="fill: none; stroke: #000000; stroke-width: 0.8; stroke-linecap: square"/>
    </g>
    <g id="text_6">
     <!-- 10 -->
     <g transform="translate(222.450277 302.916259) scale(0.1 -0.1)">
      <use xlink:href="#DejaVuSans-31"/>
      <use xlink:href="#DejaVuSans-30" x="63.623047"/>
     </g>
    </g>
   </g>
   <g id="xtick_7">
    <g id="line2d_8">
     <path d="M 256.513262 284.576389 
L 254.401384 286.692583 
" style="fill: none; stroke: #000000; stroke-width: 0.8; stroke-linecap: square"/>
    </g>
    <g id="text_7">
     <!-- 15 -->
     <g transform="translate(242.061456 309.450288) scale(0.1 -0.1)">
      <use xlink:href="#DejaVuSans-31"/>
      <use xlink:href="#DejaVuSans-35" x="63.623047"/>
     </g>
    </g>
   </g>
  </g>
  <g id="axis3d_2">
   <g id="line2d_9">
    <path d="M 352.090401 209.294766 
L 272.679269 290.790123 
" style="fill: none; stroke: #000000; stroke-width: 0.8; stroke-linecap: square"/>
   </g>
   <g id="Line3DCollection_2">
    <path d="M 131.085794 119.555851 
L 135.863516 231.352228 
L 284.168332 278.999517 
" style="fill: none; stroke: #b0b0b0; stroke-width: 0.8"/>
    <path d="M 149.596968 106.047239 
L 153.495085 216.573098 
L 300.136916 262.611823 
" style="fill: none; stroke: #b0b0b0; stroke-width: 0.8"/>
    <path d="M 167.47717 92.999083 
L 170.551224 202.276304 
L 315.557427 246.786585 
" style="fill: none; stroke: #b0b0b0; stroke-width: 0.8"/>
    <path d="M 184.758119 80.388233 
L 187.05965 188.438614 
L 330.457606 231.495335 
" style="fill: none; stroke: #b0b0b0; stroke-width: 0.8"/>
    <path d="M 201.469445 68.193069 
L 203.046329 175.038262 
L 344.863352 216.711496 
" style="fill: none; stroke: #b0b0b0; stroke-width: 0.8"/>
   </g>
   <g id="xtick_8">
    <g id="line2d_10">
     <path d="M 282.918976 278.598124 
L 286.670256 279.803334 
" style="fill: none; stroke: #000000; stroke-width: 0.8; stroke-linecap: square"/>
    </g>
    <g id="text_8">
     <!-- −20 -->
     <g transform="translate(286.416262 299.930125) scale(0.1 -0.1)">
      <defs>
       <path id="DejaVuSans-32" d="M 1228 531 
L 3431 531 
L 3431 0 
L 469 0 
L 469 531 
Q 828 903 1448 1529 
Q 2069 2156 2228 2338 
Q 2531 2678 2651 2914 
Q 2772 3150 2772 3378 
Q 2772 3750 2511 3984 
Q 2250 4219 1831 4219 
Q 1534 4219 1204 4116 
Q 875 4013 500 3803 
L 500 4441 
Q 881 4594 1212 4672 
Q 1544 4750 1819 4750 
Q 2544 4750 2975 4387 
Q 3406 4025 3406 3419 
Q 3406 3131 3298 2873 
Q 3191 2616 2906 2266 
Q 2828 2175 2409 1742 
Q 1991 1309 1228 531 
z
" transform="scale(0.015625)"/>
      </defs>
      <use xlink:href="#DejaVuSans-2212"/>
      <use xlink:href="#DejaVuSans-32" x="83.789062"/>
      <use xlink:href="#DejaVuSans-30" x="147.412109"/>
     </g>
    </g>
   </g>
   <g id="xtick_9">
    <g id="line2d_11">
     <path d="M 298.902654 262.224322 
L 302.608555 263.387802 
" style="fill: none; stroke: #000000; stroke-width: 0.8; stroke-linecap: square"/>
    </g>
    <g id="text_9">
     <!-- −10 -->
     <g transform="translate(302.170548 283.299929) scale(0.1 -0.1)">
      <use xlink:href="#DejaVuSans-2212"/>
      <use xlink:href="#DejaVuSans-31" x="83.789062"/>
      <use xlink:href="#DejaVuSans-30" x="147.412109"/>
     </g>
    </g>
   </g>
   <g id="xtick_10">
    <g id="line2d_12">
     <path d="M 314.337969 246.412267 
L 317.999368 247.536149 
" style="fill: none; stroke: #000000; stroke-width: 0.8; stroke-linecap: square"/>
    </g>
    <g id="text_10">
     <!-- 0 -->
     <g transform="translate(324.754899 267.24084) scale(0.1 -0.1)">
      <use xlink:href="#DejaVuSans-30"/>
     </g>
    </g>
   </g>
   <g id="xtick_11">
    <g id="line2d_13">
     <path d="M 329.252663 231.133539 
L 332.870429 232.219811 
" style="fill: none; stroke: #000000; stroke-width: 0.8; stroke-linecap: square"/>
    </g>
    <g id="text_11">
     <!-- 10 -->
     <g transform="translate(336.273279 251.723937) scale(0.1 -0.1)">
      <use xlink:href="#DejaVuSans-31"/>
      <use xlink:href="#DejaVuSans-30" x="63.623047"/>
     </g>
    </g>
   </g>
   <g id="xtick_12">
    <g id="line2d_14">
     <path d="M 343.672641 216.361603 
L 347.24763 217.412121 
" style="fill: none; stroke: #000000; stroke-width: 0.8; stroke-linecap: square"/>
    </g>
    <g id="text_12">
     <!-- 20 -->
     <g transform="translate(350.484859 236.722217) scale(0.1 -0.1)">
      <use xlink:href="#DejaVuSans-32"/>
      <use xlink:href="#DejaVuSans-30" x="63.623047"/>
     </g>
    </g>
   </g>
  </g>
  <g id="axis3d_3">
   <g id="line2d_15">
    <path d="M 352.090401 209.294766 
L 357.122702 99.402171 
" style="fill: none; stroke: #000000; stroke-width: 0.8; stroke-linecap: square"/>
   </g>
   <g id="Line3DCollection_3">
    <path d="M 352.625691 197.605394 
L 210.945976 156.986008 
L 122.620879 229.999747 
" style="fill: none; stroke: #b0b0b0; stroke-width: 0.8"/>
    <path d="M 353.250581 183.95938 
L 210.794071 143.775894 
L 121.947723 216.021215 
" style="fill: none; stroke: #b0b0b0; stroke-width: 0.8"/>
    <path d="M 353.88243 170.161426 
L 210.640554 130.425738 
L 121.266785 201.88109 
" style="fill: none; stroke: #b0b0b0; stroke-width: 0.8"/>
    <path d="M 354.521353 156.208979 
L 210.485402 116.9333 
L 120.577929 187.576553 
" style="fill: none; stroke: #b0b0b0; stroke-width: 0.8"/>
    <path d="M 355.16747 142.09943 
L 210.328587 103.296293 
L 119.881017 173.10472 
" style="fill: none; stroke: #b0b0b0; stroke-width: 0.8"/>
    <path d="M 355.820904 127.830111 
L 210.170084 89.512382 
L 119.175906 158.462639 
" style="fill: none; stroke: #b0b0b0; stroke-width: 0.8"/>
    <path d="M 356.481779 113.398293 
L 210.009863 75.579179 
L 118.462451 143.647289 
" style="fill: none; stroke: #b0b0b0; stroke-width: 0.8"/>
   </g>
   <g id="xtick_13">
    <g id="line2d_16">
     <path d="M 351.436343 197.264409 
L 355.007229 198.288178 
" style="fill: none; stroke: #000000; stroke-width: 0.8; stroke-linecap: square"/>
    </g>
    <g id="text_13">
     <!-- 10 -->
     <g transform="translate(364.596913 202.621672) scale(0.1 -0.1)">
      <use xlink:href="#DejaVuSans-31"/>
      <use xlink:href="#DejaVuSans-30" x="63.623047"/>
     </g>
    </g>
   </g>
   <g id="xtick_14">
    <g id="line2d_17">
     <path d="M 352.054401 183.621967 
L 355.645816 184.635017 
" style="fill: none; stroke: #000000; stroke-width: 0.8; stroke-linecap: square"/>
    </g>
    <g id="text_14">
     <!-- 15 -->
     <g transform="translate(365.321106 189.002741) scale(0.1 -0.1)">
      <use xlink:href="#DejaVuSans-31"/>
      <use xlink:href="#DejaVuSans-35" x="63.623047"/>
     </g>
    </g>
   </g>
   <g id="xtick_15">
    <g id="line2d_18">
     <path d="M 352.679339 169.827685 
L 356.291519 170.829714 
" style="fill: none; stroke: #000000; stroke-width: 0.8; stroke-linecap: square"/>
    </g>
    <g id="text_15">
     <!-- 20 -->
     <g transform="translate(366.053338 175.232632) scale(0.1 -0.1)">
      <use xlink:href="#DejaVuSans-32"/>
      <use xlink:href="#DejaVuSans-30" x="63.623047"/>
     </g>
    </g>
   </g>
   <g id="xtick_16">
    <g id="line2d_19">
     <path d="M 353.311271 155.879014 
L 356.944457 156.86971 
" style="fill: none; stroke: #000000; stroke-width: 0.8; stroke-linecap: square"/>
    </g>
    <g id="text_16">
     <!-- 25 -->
     <g transform="translate(366.793744 161.308815) scale(0.1 -0.1)">
      <use xlink:href="#DejaVuSans-32"/>
      <use xlink:href="#DejaVuSans-35" x="63.623047"/>
     </g>
    </g>
   </g>
   <g id="xtick_17">
    <g id="line2d_20">
     <path d="M 353.950315 141.773348 
L 357.604754 142.752392 
" style="fill: none; stroke: #000000; stroke-width: 0.8; stroke-linecap: square"/>
    </g>
    <g id="text_17">
     <!-- 30 -->
     <g transform="translate(367.54246 147.228702) scale(0.1 -0.1)">
      <defs>
       <path id="DejaVuSans-33" d="M 2597 2516 
Q 3050 2419 3304 2112 
Q 3559 1806 3559 1356 
Q 3559 666 3084 287 
Q 2609 -91 1734 -91 
Q 1441 -91 1130 -33 
Q 819 25 488 141 
L 488 750 
Q 750 597 1062 519 
Q 1375 441 1716 441 
Q 2309 441 2620 675 
Q 2931 909 2931 1356 
Q 2931 1769 2642 2001 
Q 2353 2234 1838 2234 
L 1294 2234 
L 1294 2753 
L 1863 2753 
Q 2328 2753 2575 2939 
Q 2822 3125 2822 3475 
Q 2822 3834 2567 4026 
Q 2313 4219 1838 4219 
Q 1578 4219 1281 4162 
Q 984 4106 628 3988 
L 628 4550 
Q 988 4650 1302 4700 
Q 1616 4750 1894 4750 
Q 2613 4750 3031 4423 
Q 3450 4097 3450 3541 
Q 3450 3153 3228 2886 
Q 3006 2619 2597 2516 
z
" transform="scale(0.015625)"/>
      </defs>
      <use xlink:href="#DejaVuSans-33"/>
      <use xlink:href="#DejaVuSans-30" x="63.623047"/>
     </g>
    </g>
   </g>
   <g id="xtick_18">
    <g id="line2d_21">
     <path d="M 354.596593 127.50802 
L 358.272533 128.475085 
" style="fill: none; stroke: #000000; stroke-width: 0.8; stroke-linecap: square"/>
    </g>
    <g id="text_18">
     <!-- 35 -->
     <g transform="translate(368.299629 132.989645) scale(0.1 -0.1)">
      <use xlink:href="#DejaVuSans-33"/>
      <use xlink:href="#DejaVuSans-35" x="63.623047"/>
     </g>
    </g>
   </g>
   <g id="xtick_19">
    <g id="line2d_22">
     <path d="M 355.250228 113.080306 
L 358.947924 114.035053 
" style="fill: none; stroke: #000000; stroke-width: 0.8; stroke-linecap: square"/>
    </g>
    <g id="text_19">
     <!-- 40 -->
     <g transform="translate(369.065393 118.588939) scale(0.1 -0.1)">
      <defs>
       <path id="DejaVuSans-34" d="M 2419 4116 
L 825 1625 
L 2419 1625 
L 2419 4116 
z
M 2253 4666 
L 3047 4666 
L 3047 1625 
L 3713 1625 
L 3713 1100 
L 3047 1100 
L 3047 0 
L 2419 0 
L 2419 1100 
L 313 1100 
L 313 1709 
L 2253 4666 
z
" transform="scale(0.015625)"/>
      </defs>
      <use xlink:href="#DejaVuSans-34"/>
      <use xlink:href="#DejaVuSans-30" x="63.623047"/>
     </g>
    </g>
   </g>
  </g>
  <g id="axes_1">
   <g id="line2d_23">
    <path d="M 225.393153 200.85204 
L 222.380461 203.427861 
L 218.626845 205.641064 
L 214.006604 207.37618 
L 208.39344 208.438289 
L 201.695081 208.519441 
L 193.913502 207.165685 
L 185.249545 203.767435 
L 176.24504 197.627387 
L 167.9193 188.187598 
L 161.775028 175.477022 
L 159.472823 160.641698 
L 162.122728 146.087837 
L 169.570312 134.721494 
L 180.334259 128.559148 
L 192.343174 127.843708 
L 203.830305 131.358581 
L 213.762513 137.395899 
L 221.777682 144.510113 
L 227.934698 151.768615 
L 232.490938 158.683923 
L 235.761005 165.054615 
L 238.046246 170.836001 
L 239.603025 176.05559 
L 240.634992 180.768953 
L 241.296123 185.038898 
L 241.697929 188.924694 
L 241.91818 192.478248 
L 242.003175 198.759891 
L 241.766327 204.159523 
L 241.24295 208.874461 
L 240.851523 211.02402 
L 240.34784 213.057855 
L 239.702563 214.992476 
L 238.876437 216.84375 
L 237.817579 218.627245 
L 236.457802 220.357613 
L 234.70823 222.046454 
L 232.453315 223.699031 
L 229.543659 225.307376 
L 225.788981 226.83704 
L 220.95102 228.204178 
L 214.74495 229.23422 
L 206.856046 229.594089 
L 196.998996 228.687003 
L 185.064825 225.517304 
L 171.415086 218.592985 
L 157.358801 206.086953 
L 145.627924 186.695671 
L 140.148937 161.448399 
L 144.22244 135.302158 
L 157.814015 115.577804 
L 177.058336 107.025797 
L 197.040897 108.887589 
L 214.549824 117.020069 
L 228.503408 127.396321 
L 239.071504 137.601911 
L 246.88823 146.633566 
L 252.650716 154.261518 
L 263.282063 169.91488 
L 265.961725 173.218815 
L 268.665152 175.723262 
L 271.567503 177.457997 
L 274.796259 178.415683 
L 278.434353 178.557798 
L 282.516774 177.824747 
L 287.01782 176.151931 
L 291.829255 173.497195 
L 296.737272 169.881013 
L 301.403557 165.438875 
L 305.369448 160.473579 
L 308.107927 155.474354 
L 309.130451 151.070119 
L 308.136622 147.888489 
L 305.141675 146.364965 
L 300.509383 146.596784 
L 294.854815 148.336646 
L 288.8664 151.129071 
L 283.139338 154.493598 
L 278.085546 158.053073 
L 273.925923 161.571505 
L 270.731775 164.928445 
L 268.480344 168.072297 
L 267.103528 170.979305 
L 266.521014 173.629348 
L 266.661109 175.993393 
L 267.47073 178.027995 
L 268.918422 179.674924 
L 270.992262 180.859808 
L 273.694072 181.492063 
L 277.029439 181.465136 
L 280.991534 180.659879 
L 285.539788 178.954488 
L 290.569892 176.24561 
L 295.877177 172.486991 
L 301.123171 167.746514 
L 305.819396 162.275381 
L 309.361292 156.55565 
L 311.131585 151.281178 
L 310.67477 147.222255 
L 307.879973 144.987953 
L 303.068132 144.804778 
L 296.913667 146.451339 
L 290.229336 149.400612 
L 283.745474 153.058796 
L 277.973164 156.952641 
L 273.185658 160.791958 
L 269.468301 164.43944 
L 266.787919 167.849238 
L 265.05479 171.012543 
L 264.165317 173.924013 
L 264.026485 176.567762 
L 264.568695 178.911424 
L 265.749801 180.906032 
L 267.55437 182.485691 
L 269.988845 183.566416 
L 273.07446 184.04509 
L 276.834788 183.798284 
L 281.277675 182.685221 
L 286.368191 180.558988 
L 291.991413 177.292928 
L 297.905571 172.83074 
L 303.698954 167.261964 
L 308.770232 160.914425 
L 312.379443 154.413456 
L 313.797217 148.639072 
L 312.54312 144.517701 
L 308.611436 142.692739 
L 302.537501 143.263309 
L 295.227624 145.782554 
L 287.654833 149.519457 
L 280.59885 153.776987 
L 274.533757 158.078743 
L 269.65662 162.183987 
L 265.972236 166.014689 
L 263.383053 169.570016 
L 261.754254 172.868802 
L 260.954085 175.920889 
L 260.874815 178.717592 
L 261.441228 181.230854 
L 262.612233 183.415474 
L 264.378768 185.209316 
L 266.7589 186.531763 
L 269.792167 187.281234 
L 273.528629 187.330713 
L 278.014396 186.526099 
L 283.266737 184.690001 
L 289.236151 181.639485 
L 295.753223 177.228401 
L 302.464647 171.425829 
L 308.777372 164.433731 
L 313.860499 156.808444 
L 316.761143 149.505813 
L 316.675318 143.721063 
L 313.293174 140.49042 
L 307.017744 140.234702 
L 298.86217 142.583319 
L 290.065394 146.63773 
L 281.687886 151.441097 
L 274.397327 156.312934 
L 268.47815 160.9152 
L 263.944157 165.155842 
L 260.665266 169.060224 
L 258.458779 172.682879 
L 257.14361 176.065646 
L 256.567711 179.225242 
L 256.618478 182.154628 
L 257.224249 184.828402 
L 258.351906 187.206382 
L 260.003143 189.234765 
L 262.210655 190.844049 
L 265.03285 191.943648 
L 268.54912 192.415992 
L 272.849585 192.108373 
L 278.01758 190.827667 
L 284.10107 188.34213 
L 291.059261 184.403587 
L 298.690896 178.803974 
L 306.534925 171.493707 
L 313.788979 162.760924 
L 319.31458 153.421627 
L 321.839107 144.86179 
L 320.398079 138.725426 
L 314.850222 136.223689 
L 306.084528 137.497196 
L 295.673979 141.596427 
L 285.216027 147.117525 
L 275.839105 152.9005 
L 268.082035 158.321544 
L 262.034822 163.202681 
L 257.539512 167.596262 
L 254.339319 171.621449 
L 252.169041 175.380804 
L 250.796521 178.937525 
L 250.037973 182.318767 
L 249.759093 185.526573 
L 249.870069 188.549469 
L 250.319365 191.367994 
L 251.087745 193.958265 
L 252.184044 196.292235 
L 253.642322 198.334896 
L 255.520895 200.040554 
L 257.902751 201.346843 
L 260.895704 202.165991 
L 264.632356 202.374087 
L 269.266651 201.79708 
L 274.960096 200.195765 
L 281.854624 197.254522 
L 290.012303 192.588572 
L 299.31303 185.796703 
L 309.295714 176.608195 
L 318.970016 165.173456 
L 326.720381 152.461199 
L 330.525896 140.508807 
L 328.695314 132.02673 
L 320.892934 129.088801 
L 308.610213 131.774427 
L 294.45299 138.182277 
L 280.834325 145.861796 
L 269.176252 153.135392 
L 259.923311 159.379987 
L 252.923529 164.639128 
L 247.776324 169.188533 
L 244.03414 173.295755 
L 241.292515 177.142208 
L 239.217217 180.826299 
L 237.544489 184.388651 
L 234.629698 191.165889 
L 233.093366 194.361849 
L 231.34366 197.410617 
L 229.268756 200.294972 
L 226.753178 202.989582 
L 223.671036 205.453181 
L 219.881956 207.615859 
L 215.234194 209.358542 
L 209.574664 210.485635 
L 202.779316 210.686917 
L 194.811208 209.49632 
L 185.827956 206.268897 
L 176.335008 200.230221 
L 167.355289 190.694401 
L 160.477263 177.538758 
L 157.552088 161.83249 
L 159.921756 146.108796 
L 167.557395 133.609367 
L 178.89744 126.693447 
L 191.655021 125.722077 
L 203.867612 129.361994 
L 214.399163 135.706343 
L 222.870175 143.155035 
L 229.365622 150.699253 
L 234.177925 157.826811 
L 237.657524 164.340285 
L 240.135531 170.206123 
L 241.892694 175.461835 
L 243.154265 180.173048 
L 244.838929 188.223408 
L 246.122917 194.799666 
L 246.798118 197.628462 
L 247.570902 200.180802 
L 248.494889 202.465381 
L 249.628421 204.481658 
L 251.038904 206.216599 
L 252.807941 207.642477 
L 255.035826 208.711675 
L 257.847225 209.34967 
L 261.394304 209.443401 
L 265.859003 208.825923 
L 271.446585 207.256313 
L 278.367129 204.39757 
L 286.785542 199.803612 
L 296.720546 192.943082 
L 307.865895 183.317672 
L 319.331177 170.763293 
L 329.4046 155.970828 
L 335.593693 141.052928 
L 335.376499 129.449572 
L 327.651991 124.415113 
L 313.829274 126.755672 
L 297.200907 134.206402 
L 281.038862 143.351462 
L 267.274818 151.794612 
L 256.4594 158.708524 
L 248.345466 164.230957 
L 242.3891 168.79807 
L 238.012517 172.802676 
L 234.710444 176.497752 
L 232.073255 180.01172 
L 227.576437 186.630674 
L 225.266359 189.702236 
L 222.683526 192.558069 
L 219.685061 195.13356 
L 216.142621 197.340129 
L 211.942872 199.052142 
L 206.996134 200.090437 
L 201.261141 200.203402 
L 194.788075 199.05533 
L 187.78147 196.237541 
L 180.678423 191.331494 
L 174.211402 184.064388 
L 169.375297 174.557585 
L 167.229181 163.58746 
L 168.517368 152.640384 
L 173.281259 143.542218 
L 180.755881 137.756763 
L 189.672422 135.818887 
L 198.752557 137.303025 
L 207.055821 141.240512 
L 214.080225 146.601013 
L 219.670578 152.570483 
L 223.88885 158.620072 
L 226.897818 164.454107 
L 228.887838 169.932324 
L 230.036826 175.008318 
L 230.489181 179.684111 
L 230.348858 183.98201 
L 229.6794 187.931418 
L 228.50621 191.558663 
L 226.820148 194.880013 
L 224.58053 197.896457 
L 221.718983 200.585241 
L 218.144049 202.889497 
L 213.748017 204.70299 
L 208.425621 205.846511 
L 202.1027 206.041625 
L 194.790551 204.883588 
L 186.678571 201.837212 
L 178.248858 196.296218 
L 170.396401 187.776955 
L 164.430892 176.283161 
L 161.823398 162.74731 
L 163.633007 149.193203 
L 169.883608 138.172679 
L 179.423377 131.638683 
L 190.45668 130.092341 
L 201.31945 132.675023 
L 210.931695 137.924518 
L 218.830939 144.481463 
L 224.98024 151.398227 
L 229.563278 158.132326 
L 232.849075 164.432474 
L 235.108919 170.214404 
L 236.580319 175.480038 
L 237.453448 180.2695 
L 237.870241 184.636372 
L 237.929045 188.635797 
L 237.691062 192.318154 
L 237.1866 195.72776 
L 236.419793 198.90257 
L 235.371698 201.873731 
L 234.001427 204.665732 
L 232.245742 207.294924 
L 230.017939 209.765865 
L 227.204023 212.06714 
L 223.660623 214.15978 
L 219.215183 215.959229 
L 213.670762 217.307032 
L 206.82558 217.926228 
L 198.523429 217.35975 
L 188.757077 214.904183 
L 177.849863 209.584864 
L 166.718827 200.289778 
L 157.108985 186.254457 
L 151.479864 167.986655 
L 152.142342 148.141705 
L 159.822849 131.120473 
L 172.890302 120.825267 
L 188.27047 118.394011 
L 203.151694 122.183428 
L 215.930682 129.495827 
L 226.122445 138.076878 
L 233.889031 146.580557 
L 239.654584 154.394415 
L 243.894339 161.329066 
L 247.045159 167.392708 
L 253.285433 181.179017 
L 255.088196 184.558273 
L 257.038042 187.401638 
L 259.269597 189.713324 
L 261.908753 191.467295 
L 265.079014 192.60291 
L 268.904854 193.020169 
L 273.506079 192.573413 
L 278.983745 191.068138 
L 285.389752 188.26589 
L 292.667099 183.914416 
L 300.572779 177.816343 
L 308.570379 169.968855 
L 315.75471 160.762592 
L 320.885332 151.173641 
L 322.651375 142.75603 
L 320.187503 137.20484 
L 313.585634 135.58292 
L 303.994999 137.737818 
L 293.132551 142.472948 
L 282.578656 148.314925 
L 273.346758 154.181017 
L 265.850118 159.564587 
L 260.089223 164.372806 
L 255.852046 168.702223 
L 252.8588 172.684053 
L 250.837174 176.419633 
L 249.556336 179.967035 
L 248.836966 183.34854 
L 248.548992 186.564875 
L 248.605657 189.604693 
L 248.956309 192.451257 
L 249.580287 195.08529 
L 250.482393 197.484814 
L 251.690274 199.623583 
L 253.253677 201.467858 
L 255.244442 202.970838 
L 257.759137 204.066863 
L 260.919312 204.661006 
L 264.872979 204.617412 
L 269.790401 203.743205 
L 275.849443 201.771331 
L 283.201401 198.348732 
L 291.903214 193.045673 
L 301.793414 185.423466 
L 312.301883 175.221995 
L 322.246734 162.707913 
L 329.750717 149.140316 
L 332.584262 136.975619 
L 329.109371 129.209244 
L 319.413941 127.727952 
L 305.564141 131.973734 
L 290.505702 139.463126 
L 276.618207 147.600638 
L 265.088285 154.900557 
L 256.130535 160.984584 
L 249.44239 166.052062 
L 244.545289 170.441712 
L 240.959836 174.430213 
L 238.27161 178.188349 
L 236.145272 181.800603 
L 230.776296 191.909466 
L 228.754285 194.988955 
L 226.388249 197.878098 
L 223.551595 200.533546 
L 220.113608 202.890674 
L 215.939562 204.847412 
L 210.896377 206.243501 
L 204.874773 206.831477 
L 197.830576 206.246041 
L 189.860528 203.983854 
L 181.313831 199.428465 
L 172.926402 191.984966 
L 165.890236 181.389009 
L 161.715635 168.167051 
L 161.754758 153.989998 
L 166.506051 141.410734 
L 175.206031 132.84369 
L 186.14736 129.414915 
L 197.474925 130.676343 
L 207.831042 135.23009 
L 216.534297 141.56764 
L 223.421645 148.545922 
L 228.629837 155.475598 
L 232.420579 162.013115 
L 235.081226 168.029092 
L 236.87251 173.504764 
L 238.010032 178.475509 
L 238.658796 182.993785 
L 238.938185 187.117075 
L 238.928248 190.89953 
L 238.676676 194.38952 
L 238.204777 197.628269 
L 237.511691 200.651187 
L 236.577025 203.487553 
L 235.361141 206.162155 
L 233.805312 208.69226 
L 231.828157 211.088562 
L 229.323465 213.348597 
L 226.155852 215.449698 
L 222.157517 217.334717 
L 217.129663 218.88767 
L 210.8512 219.895767 
L 203.111851 219.991022 
L 193.786334 218.575124 
L 182.983194 214.751602 
L 171.290295 207.346522 
L 160.092466 195.205238 
L 151.714665 177.975456 
L 148.943751 157.273749 
L 153.625224 137.17438 
L 165.194583 122.608397 
L 180.776231 116.40353 
L 196.96996 117.913696 
L 211.440417 124.391729 
L 223.239998 133.036557 
L 232.34422 141.990026 
L 239.149227 150.334781 
L 244.16772 157.747095 
L 247.892451 164.193829 
L 253.068525 174.516646 
L 255.135798 178.584111 
L 257.162586 182.017713 
L 259.324278 184.854149 
L 261.769635 187.09879 
L 264.631485 188.723442 
L 268.034292 189.663693 
L 272.092071 189.814365 
L 276.903181 189.028271 
L 282.528489 187.118934 
L 288.954504 183.877797 
L 296.032796 179.12009 
L 303.402574 172.775367 
L 310.417504 165.029415 
L 316.129374 156.4876 
L 319.411748 148.258299 
L 319.292143 141.769576 
L 315.390939 138.270931 
L 308.206177 138.234645 
L 298.973053 141.141201 
L 289.163409 145.849886 
L 279.975513 151.219455 
L 272.10907 156.500965 
L 265.81098 161.3745 
L 261.032791 165.798251 
L 257.584646 169.844237 
L 255.23463 173.60046 
L 253.765492 177.128583 
L 252.998569 180.457177 
L 252.80079 183.589611 
L 253.084041 186.510129 
L 253.800388 189.191905 
L 254.937544 191.599346 
L 256.514848 193.687223 
L 258.579911 195.396951 
L 261.20734 196.651653 
L 264.495615 197.347015 
L 268.562378 197.341382 
L 273.535526 196.444567 
L 279.53041 194.409251 
L 286.608836 190.934312 
L 294.707445 185.697176 
L 303.527242 178.445387 
L 312.396112 169.181109 
L 320.164957 158.437633 
L 325.273372 147.531501 
L 326.15512 138.47963 
L 321.955366 133.315682 
L 313.152202 132.989 
L 301.470627 136.794605 
L 289.060054 142.939956 
L 277.611778 149.671636 
L 268.011512 155.953509 
L 260.466027 161.462789 
L 254.796471 166.273232 
L 250.670262 170.57945 
L 247.732507 174.557464 
L 245.667718 178.322202 
L 244.218902 181.933463 
L 243.187759 185.413619 
L 242.425957 188.76479 
L 239.639306 203.457796 
L 238.90288 205.991747 
L 237.998672 208.408085 
L 236.871281 210.718058 
L 235.452768 212.932625 
L 233.657918 215.05977 
L 231.379392 217.10002 
L 228.480745 219.040525 
L 224.791544 220.841686 
L 220.103209 222.41627 
L 214.171678 223.593649 
L 206.738809 224.062461 
L 197.586815 223.288103 
L 186.661412 220.412538 
L 174.319311 214.199489 
L 161.686464 203.1893 
L 151.003286 186.369309 
L 145.449957 164.513466 
L 147.835067 141.393656 
L 158.554402 122.856565 
L 174.888101 113.328207 
L 192.784683 113.095349 
L 209.149936 119.240231 
L 222.609646 128.30714 
L 233.021209 137.895205 
L 240.808027 146.806642 
L 246.556794 154.627775 
L 246.556794 154.627775 
" clip-path="url(#p985f712303)" style="fill: none; stroke: #0000cc; stroke-linecap: square"/>
   </g>
   <g id="line2d_24">
    <path d="M 225.393153 200.85204 
L 222.380585 203.427792 
L 218.627038 205.641039 
L 214.00684 207.376156 
L 208.393731 208.438332 
L 201.695268 208.51953 
L 193.913979 207.165857 
L 185.250117 203.767726 
L 176.245556 197.627838 
L 167.919898 188.18831 
L 161.775443 175.477566 
L 159.473227 160.642777 
L 162.123038 146.088424 
L 169.570373 134.722189 
L 180.33388 128.559694 
L 192.342653 127.844 
L 203.829472 131.358596 
L 213.761796 137.395827 
L 221.776715 144.509756 
L 227.933902 151.768516 
L 232.490026 158.68355 
L 235.759862 165.054645 
L 238.045011 170.836149 
L 239.601585 176.055558 
L 240.633512 180.769118 
L 241.294352 185.039223 
L 241.696104 188.924845 
L 241.915956 192.478481 
L 242.000266 198.760262 
L 241.762052 204.16028 
L 241.236866 208.875628 
L 240.84395 211.025489 
L 240.3387 213.059723 
L 239.691122 214.994676 
L 238.862174 216.846554 
L 237.799756 218.630542 
L 236.435293 220.361701 
L 234.679793 222.051089 
L 232.417706 223.704222 
L 229.498411 225.312446 
L 225.731617 226.841555 
L 220.878096 228.206358 
L 214.652987 229.230265 
L 206.741247 229.578988 
L 196.858882 228.649848 
L 184.901297 225.443181 
L 171.238673 218.459913 
L 157.195104 205.874377 
L 145.521745 186.399856 
L 140.149168 161.109095 
L 144.350946 135.006254 
L 158.039693 115.409616 
L 177.316222 107.005763 
L 197.27578 108.972414 
L 214.739914 117.152297 
L 228.645145 127.534547 
L 239.173559 137.728685 
L 246.958637 146.742012 
L 252.699097 154.352965 
L 263.301365 169.968966 
L 265.979633 173.263939 
L 268.683966 175.76001 
L 271.589549 177.486888 
L 274.822789 178.436228 
L 278.466375 178.569599 
L 282.555266 177.826709 
L 287.061967 176.143222 
L 291.878751 173.476797 
L 296.789581 169.848869 
L 301.454673 165.396361 
L 305.414708 160.42363 
L 308.140687 155.422799 
L 309.145277 151.023552 
L 308.129944 147.854125 
L 305.113573 146.347344 
L 300.46343 146.596838 
L 294.797186 148.35185 
L 288.803592 151.155179 
L 283.077554 154.52603 
L 278.028686 158.088522 
L 273.876308 161.607673 
L 270.690181 164.964347 
L 268.446824 168.107367 
L 267.077571 171.013139 
L 266.502175 173.662069 
L 266.648543 176.024239 
L 267.464376 178.056968 
L 268.917822 179.70116 
L 270.997607 180.88286 
L 273.70534 181.51087 
L 277.046955 181.47876 
L 281.015446 180.667112 
L 285.57037 178.953813 
L 290.606464 176.235909 
L 295.918681 172.467135 
L 301.166563 167.716744 
L 305.860963 162.237069 
L 309.395884 156.512348 
L 311.153387 151.238954 
L 310.679304 147.187116 
L 307.865314 144.965806 
L 303.036408 144.797844 
L 296.868885 146.458622 
L 290.178076 149.4183 
L 283.69259 153.083175 
L 277.922579 156.9804 
L 273.139949 160.820831 
L 269.428367 164.468669 
L 266.75377 167.878165 
L 265.026476 171.040962 
L 264.14167 173.952183 
L 264.007493 176.595291 
L 264.553461 178.938447 
L 265.738329 180.932188 
L 267.546379 182.510592 
L 269.984495 183.589799 
L 273.073786 184.066306 
L 276.838228 183.816744 
L 281.285728 182.700045 
L 286.381428 180.56896 
L 292.00989 177.296899 
L 297.929239 172.827397 
L 303.726598 167.250599 
L 308.799423 160.895209 
L 312.406766 154.388259 
L 313.818339 148.611377 
L 312.553954 144.492368 
L 308.609788 142.674254 
L 302.523353 143.253999 
L 295.203384 145.782391 
L 287.624078 149.526535 
L 280.564832 153.788956 
L 274.499049 158.093437 
L 269.622975 162.20012 
L 265.940393 166.031776 
L 263.353143 169.587833 
L 261.726088 172.887405 
L 260.92749 175.940332 
L 260.849187 178.737819 
L 261.416269 181.252174 
L 262.587552 183.438103 
L 264.353845 185.233006 
L 266.733732 186.55728 
L 269.766656 187.308449 
L 273.502756 187.360011 
L 277.988776 186.557514 
L 283.242078 184.723681 
L 289.213849 181.674816 
L 295.7351 177.264448 
L 302.453088 171.460645 
L 308.775556 164.463676 
L 313.870205 156.830199 
L 316.783226 149.515102 
L 316.707505 143.716465 
L 313.330644 140.473728 
L 307.054207 140.210565 
L 298.891273 142.557523 
L 290.084513 146.614594 
L 281.695926 151.422799 
L 274.39524 156.299449 
L 268.467569 160.905934 
L 263.926801 165.14985 
L 260.642605 169.056662 
L 258.431515 172.681821 
L 257.112484 176.066821 
L 256.532678 179.229071 
L 256.579227 182.161324 
L 257.180607 184.838586 
L 258.302678 187.220852 
L 259.947922 189.254448 
L 262.14784 190.870078 
L 264.961688 191.977775 
L 268.468243 192.460029 
L 272.758188 192.165077 
L 277.915696 190.899558 
L 283.989142 188.432601 
L 290.941507 184.514619 
L 298.574013 178.935643 
L 306.43015 171.641717 
L 313.712802 162.913208 
L 319.284946 153.558448 
L 321.8702 144.95913 
L 320.492299 138.763108 
L 314.994211 136.198533 
L 306.251833 137.423975 
L 295.836007 141.500097 
L 285.354195 147.018971 
L 275.943519 152.811867 
L 268.151822 158.245908 
L 262.074041 163.137944 
L 257.553221 167.540188 
L 254.332292 171.571415 
L 252.145416 175.335885 
L 250.758864 178.897193 
L 249.988145 182.2831 
L 249.697431 185.496364 
L 249.796236 188.525442 
L 250.231792 191.351468 
L 250.984519 193.95053 
L 252.062069 196.295496 
L 253.497223 198.351711 
L 255.347858 200.074443 
L 257.695617 201.403046 
L 260.646757 202.251431 
L 264.333522 202.498065 
L 268.908919 201.972794 
L 274.53527 200.44017 
L 281.358754 197.588674 
L 289.449487 193.03548 
L 298.704825 186.375221 
L 308.690238 177.319104 
L 318.452111 165.978056 
L 326.407944 153.25756 
L 330.535858 141.139849 
L 329.084322 132.334483 
L 321.60484 129.016748 
L 309.49463 131.405987 
L 295.33309 137.682519 
L 281.591631 145.367791 
L 269.76364 152.710838 
L 260.343925 159.0304 
L 253.203125 164.34609 
L 247.94581 168.930883 
L 244.122188 173.05798 
L 241.321884 176.915571 
L 239.205327 180.606954 
L 237.503695 184.175141 
L 234.55355 190.964653 
L 233.00584 194.167154 
L 231.246104 197.222241 
L 229.162412 200.112005 
L 226.637959 202.810574 
L 223.547164 205.275813 
L 219.749863 207.436727 
L 215.094894 209.173248 
L 209.431185 210.288647 
L 202.636933 210.471557 
L 194.679295 209.25563 
L 185.72188 205.998249 
L 176.275637 199.932046 
L 167.366633 190.385311 
L 160.577483 177.255402 
L 157.739917 161.626612 
L 160.167422 146.028191 
L 167.808692 133.667859 
L 179.104813 126.859271 
L 191.788838 125.941781 
L 203.921556 129.587376 
L 214.383101 135.909903 
L 222.798638 143.328249 
L 229.250964 150.842912 
L 234.030219 157.947144 
L 237.483408 164.444267 
L 239.937794 170.298813 
L 241.672189 175.549288 
L 242.908943 180.259283 
L 244.529992 188.31911 
L 245.717674 194.920827 
L 246.325967 197.770732 
L 247.015266 200.350853 
L 247.834737 202.673239 
L 248.836698 204.74012 
L 250.08232 206.543276 
L 251.645087 208.061895 
L 253.614448 209.258411 
L 256.103156 210.07221 
L 259.25107 210.41092 
L 263.227185 210.136147 
L 268.231002 209.044773 
L 274.480204 206.847757 
L 282.180064 203.146291 
L 291.4488 197.433656 
L 302.182121 189.151501 
L 313.824897 177.888221 
L 325.082492 163.808616 
L 333.765641 148.269743 
L 337.134095 134.211872 
L 333.096046 125.390124 
L 321.745885 124.169368 
L 305.720068 129.672259 
L 288.660684 138.594789 
L 273.313472 147.744643 
L 260.863531 155.522924 
L 251.362117 161.70595 
L 244.340989 166.673632 
L 239.199146 170.883814 
L 235.376208 174.670717 
L 232.40678 178.223574 
L 225.317035 187.989738 
L 222.791064 190.88926 
L 219.903356 193.52288 
L 216.521403 195.806449 
L 212.529907 197.623229 
L 207.837945 198.809419 
L 202.398114 199.136999 
L 196.241935 198.302103 
L 189.536634 195.931297 
L 182.655217 191.631218 
L 176.235053 185.113499 
L 171.172699 176.41109 
L 168.470423 166.120929 
L 168.91892 155.507245 
L 172.724457 146.254598 
L 179.338011 139.866314 
L 187.649984 137.082698 
L 196.42305 137.7193 
L 204.668597 140.968154 
L 211.795827 145.849728 
L 217.570022 151.529812 
L 221.992929 157.428652 
L 225.192683 163.202738 
L 227.341834 168.675714 
L 228.610324 173.77563 
L 229.14138 178.487474 
L 229.041067 182.823172 
L 228.376467 186.804695 
L 227.175855 190.453224 
L 225.434085 193.779095 
L 223.113364 196.777588 
L 220.150895 199.417718 
L 216.460887 201.632027 
L 211.948238 203.300824 
L 206.527393 204.228677 
L 200.155537 204.121581 
L 192.895081 202.568309 
L 185.000466 199.051514 
L 177.030474 193.03614 
L 169.928785 184.185164 
L 164.971642 172.719696 
L 163.459578 159.774809 
L 166.162596 147.385541 
L 172.840262 137.837707 
L 182.262016 132.661836 
L 192.762344 132.038233 
L 202.89285 135.040497 
L 211.757941 140.327119 
L 218.993157 146.708339 
L 224.592282 153.367973 
L 228.733773 159.842774 
L 231.661458 165.913242 
L 233.618496 171.505948 
L 234.815118 176.622222 
L 235.415436 181.296707 
L 235.538915 185.576809 
L 235.262225 189.511695 
L 234.624906 193.145192 
L 233.635025 196.515499 
L 232.271196 199.651057 
L 230.4854 202.571094 
L 228.203508 205.279339 
L 225.323761 207.760465 
L 221.717751 209.968155 
L 217.232853 211.807514 
L 211.701326 213.107994 
L 204.967371 213.583562 
L 196.938324 212.783753 
L 187.688621 210.050424 
L 177.623412 204.530368 
L 167.687827 195.347552 
L 159.504744 182.071683 
L 155.166806 165.46233 
L 156.45447 148.014422 
L 163.739308 133.412361 
L 175.53192 124.707589 
L 189.270699 122.715775 
L 202.621515 126.094786 
L 214.197857 132.654973 
L 223.522945 140.506599 
L 230.679904 148.459461 
L 236.000144 155.922863 
L 239.882648 162.680297 
L 242.703965 168.703076 
L 244.784865 174.041469 
L 247.703634 182.96112 
L 248.902015 186.676897 
L 250.104656 189.963327 
L 251.417875 192.850332 
L 252.937 195.349518 
L 254.757036 197.452896 
L 256.979869 199.130861 
L 259.719354 200.325819 
L 263.105834 200.945083 
L 267.286769 200.851362 
L 272.419931 199.847613 
L 278.65496 197.668004 
L 286.091699 193.974311 
L 294.703186 188.385111 
L 304.208922 180.569792 
L 313.904563 170.460324 
L 322.520113 158.583406 
L 328.248431 146.41942 
L 329.250148 136.309241 
L 324.475861 130.692874 
L 314.506231 130.67052 
L 301.424238 135.284099 
L 287.74912 142.306252 
L 275.36089 149.689354 
L 265.14399 156.339964 
L 257.220839 162.007585 
L 251.312842 166.862392 
L 247.00619 171.16941 
L 243.889623 175.141262 
L 241.606762 178.909875 
L 239.870791 182.539203 
L 237.196138 189.449212 
L 235.948239 192.723705 
L 234.601248 195.866854 
L 233.054168 198.869577 
L 231.207562 201.72273 
L 228.95598 204.411844 
L 226.18046 206.910989 
L 222.744678 209.171788 
L 218.493346 211.106619 
L 213.256472 212.563404 
L 206.869534 213.289657 
L 199.215371 212.88383 
L 190.310957 210.749338 
L 180.454063 206.085605 
L 170.420246 198.004101 
L 161.635315 185.900525 
L 156.094699 170.141362 
L 155.744661 152.726456 
L 161.418138 137.11117 
L 172.118843 126.680722 
L 185.479031 122.921051 
L 199.022311 124.996564 
L 211.09387 130.841288 
L 220.995598 138.434372 
L 228.687602 146.400145 
L 234.449786 154.006024 
L 238.669576 160.952433 
L 241.730689 167.170321 
L 243.967283 172.692417 
L 245.65252 177.588983 
L 249.322845 189.218165 
L 250.534457 192.243798 
L 251.910995 194.889047 
L 253.543871 197.155374 
L 255.528108 199.022913 
L 257.970137 200.448529 
L 260.991526 201.358741 
L 264.732544 201.639829 
L 269.349165 201.126781 
L 275.00309 199.588462 
L 281.833566 196.718976 
L 289.899223 192.14512 
L 299.081551 185.47768 
L 308.922366 176.462293 
L 318.458676 165.246634 
L 326.118567 152.771272 
L 329.935568 141.011933 
L 328.257588 132.59393 
L 320.728588 129.55548 
L 308.758786 132.029543 
L 294.866222 138.220627 
L 281.424104 145.75057 
L 269.859977 152.952838 
L 260.645707 159.180216 
L 253.658025 164.4473 
L 248.514943 169.012511 
L 244.78121 173.135126 
L 242.05914 176.994195 
L 240.019264 180.68824 
L 238.400968 184.258751 
L 234.260615 194.263197 
L 232.677476 197.332209 
L 230.810094 200.248478 
L 228.54945 202.994956 
L 225.777151 205.542469 
L 222.358534 207.840516 
L 218.142906 209.800256 
L 212.968205 211.269911 
L 206.6791 212.000724 
L 199.172724 211.601769 
L 190.476884 209.499942 
L 180.890246 204.934247 
L 171.169188 197.075368 
L 162.676049 185.376582 
L 157.296411 170.206411 
L 156.864801 153.4534 
L 162.184162 138.35846 
L 172.35827 128.125312 
L 185.185496 124.232443 
L 198.305482 125.988482 
L 210.094766 131.487179 
L 219.830632 138.802421 
L 227.430474 146.581953 
L 233.139397 154.083673 
L 237.316808 160.985564 
L 240.329137 167.201146 
L 242.498305 172.751435 
L 244.087835 177.699088 
L 246.310659 186.06656 
L 248.14666 192.77535 
L 249.157649 195.602866 
L 250.332612 198.1024 
L 251.747393 200.273457 
L 253.485451 202.09989 
L 255.642806 203.544447 
L 258.333618 204.544579 
L 261.694902 205.002931 
L 265.885655 204.774942 
L 271.084703 203.652663 
L 277.47167 201.348555 
L 285.18728 197.486163 
L 294.252497 191.618868 
L 304.425213 183.323449 
L 315.002029 172.422178 
L 324.614435 159.384322 
L 331.222176 145.781287 
L 332.604188 134.342838 
L 327.440647 128.005244 
L 316.352805 128.131382 
L 301.802498 133.52998 
L 286.748323 141.468569 
L 273.304483 149.538771 
L 262.374391 156.563456 
L 253.992183 162.37048 
L 247.778065 167.234402 
L 243.235965 171.494849 
L 239.89459 175.40615 
L 237.356229 179.114996 
L 235.302855 182.688882 
L 231.708495 189.478867 
L 229.810509 192.667908 
L 227.653807 195.685329 
L 225.108638 198.495054 
L 222.046731 201.045643 
L 218.336234 203.258191 
L 213.843121 205.00994 
L 208.444455 206.108947 
L 202.054441 206.266491 
L 194.678542 205.067681 
L 186.505315 201.967218 
L 178.02237 196.350064 
L 170.136505 187.727022 
L 164.175243 176.109524 
L 161.623892 162.457591 
L 163.538783 148.829664 
L 169.921358 137.806888 
L 179.583383 131.34214 
L 190.70625 129.902953 
L 201.613927 132.59191 
L 211.241726 137.925074 
L 219.137569 144.537952 
L 225.273133 151.485238 
L 229.842022 158.23407 
L 233.116416 164.538156 
L 235.370096 170.317481 
L 236.841812 175.576977 
L 237.722792 180.358178 
L 238.154954 184.715421 
L 238.238016 188.704896 
L 238.033969 192.376634 
L 237.574169 195.775669 
L 236.865396 198.940517 
L 235.890662 201.902417 
L 234.613008 204.687251 
L 232.973254 207.312633 
L 230.88973 209.78736 
L 228.254526 212.104898 
L 224.931199 214.236085 
L 220.751776 216.111971 
L 215.521015 217.599357 
L 209.02959 218.45955 
L 201.095264 218.28996 
L 191.645931 216.45468 
L 180.881582 212.034778 
L 169.525939 203.897712 
L 159.100924 191.066841 
L 151.967761 173.563106 
L 150.680855 153.432668 
L 156.585354 134.852138 
L 168.656881 122.263063 
L 183.968144 117.721689 
L 199.418415 120.160699 
L 213.019524 126.900273 
L 224.028129 135.421585 
L 232.491075 144.111936 
L 238.803826 152.190472 
L 243.451632 159.386057 
L 246.89557 165.677101 
L 246.89557 165.677101 
" clip-path="url(#p985f712303)" style="fill: none; stroke: #ff0000; stroke-linecap: square"/>
   </g>
  </g>
 </g>
 <defs>
  <clipPath id="p985f712303">
   <rect x="103.104" y="41.472" width="266.112" height="266.112"/>
  </clipPath>
 </defs>
</svg>
