<?xml version="1.0" encoding="utf-8" standalone="no"?>
<!DOCTYPE svg PUBLIC "-//W3C//DTD SVG 1.1//EN"
  "http://www.w3.org/Graphics/SVG/1.1/DTD/svg11.dtd">
<svg xmlns:xlink="http://www.w3.org/1999/xlink" width="460.8pt" height="345.6pt" viewBox="0 0 460.8 345.6" xmlns="http://www.w3.org/2000/svg" version="1.1">
 <metadata>
  <rdf:RDF xmlns:dc="http://purl.org/dc/elements/1.1/" xmlns:cc="http://creativecommons.org/ns#" xmlns:rdf="http://www.w3.org/1999/02/22-rdf-syntax-ns#">
   <cc:Work>
    <dc:type rdf:resource="http://purl.org/dc/dcmitype/StillImage"/>
    <dc:date>2024-01-02T15:36:50.034184</dc:date>
    <dc:format>image/svg+xml</dc:format>
    <dc:creator>
     <cc:Agent>
      <dc:title>Matplotlib v3.7.3, https://matplotlib.org/</dc:title>
     </cc:Agent>
    </dc:creator>
   </cc:Work>
  </rdf:RDF>
 </metadata>
 <defs>
  <style type="text/css">*{stroke-linejoin: round; stroke-linecap: butt}</style>
 </defs>
 <g id="figure_1">
  <g id="patch_1">
   <path d="M 0 345.6 
L 460.8 345.6 
L 460.8 0 
L 0 0 
z
" style="fill: #ffffff"/>
  </g>
  <g id="patch_2">
   <path d="M 103.104 307.584 
L 369.216 307.584 
L 369.216 41.472 
L 103.104 41.472 
z
" style="fill: #ffffff"/>
  </g>
  <g id="pane3d_1">
   <g id="patch_3">
    <path d="M 123.197291 241.969309 
L 211.076164 168.307495 
L 209.854564 62.073991 
L 117.770234 129.272941 
" style="fill: #f2f2f2; opacity: 0.5; stroke: #f2f2f2; stroke-linejoin: miter"/>
   </g>
  </g>
  <g id="pane3d_2">
   <g id="patch_4">
    <path d="M 211.076164 168.307495 
L 352.090401 209.294766 
L 357.122702 99.402171 
L 209.854564 62.073991 
" style="fill: #e6e6e6; opacity: 0.5; stroke: #e6e6e6; stroke-linejoin: miter"/>
   </g>
  </g>
  <g id="pane3d_3">
   <g id="patch_5">
    <path d="M 123.197291 241.969309 
L 272.679269 290.790123 
L 352.090401 209.294766 
L 211.076164 168.307495 
" style="fill: #ececec; opacity: 0.5; stroke: #ececec; stroke-linejoin: miter"/>
   </g>
  </g>
  <g id="axis3d_1">
   <g id="line2d_1">
    <path d="M 123.197291 241.969309 
L 272.679269 290.790123 
" style="fill: none; stroke: #000000; stroke-width: 0.8; stroke-linecap: square"/>
   </g>
   <g id="Line3DCollection_1">
    <path d="M 141.984348 248.105162 
L 228.867513 173.478737 
L 228.4007 66.774896 
" style="fill: none; stroke: #b0b0b0; stroke-width: 0.8"/>
    <path d="M 160.007505 253.991525 
L 245.91687 178.434312 
L 246.182631 71.282097 
" style="fill: none; stroke: #b0b0b0; stroke-width: 0.8"/>
    <path d="M 178.265956 259.954735 
L 263.170288 183.4492 
L 264.18663 75.845586 
" style="fill: none; stroke: #b0b0b0; stroke-width: 0.8"/>
    <path d="M 196.764339 265.996307 
L 280.631454 188.524472 
L 282.416884 80.466424 
" style="fill: none; stroke: #b0b0b0; stroke-width: 0.8"/>
    <path d="M 215.507414 272.117795 
L 298.304142 193.661224 
L 300.877683 85.145698 
" style="fill: none; stroke: #b0b0b0; stroke-width: 0.8"/>
    <path d="M 234.500069 278.320796 
L 316.19222 198.860582 
L 319.57343 89.884525 
" style="fill: none; stroke: #b0b0b0; stroke-width: 0.8"/>
    <path d="M 253.747323 284.606949 
L 334.299648 204.123697 
L 338.508638 94.684048 
" style="fill: none; stroke: #b0b0b0; stroke-width: 0.8"/>
   </g>
   <g id="xtick_1">
    <g id="line2d_2">
     <path d="M 142.741138 247.455134 
L 140.46751 249.408018 
" style="fill: none; stroke: #000000; stroke-width: 0.8; stroke-linecap: square"/>
    </g>
    <g id="text_1">
     <!-- −15 -->
     <g transform="translate(123.912704 271.481595) scale(0.1 -0.1)">
      <defs>
       <path id="DejaVuSans-2212" d="M 678 2272 
L 4684 2272 
L 4684 1741 
L 678 1741 
L 678 2272 
z
" transform="scale(0.015625)"/>
       <path id="DejaVuSans-31" d="M 794 531 
L 1825 531 
L 1825 4091 
L 703 3866 
L 703 4441 
L 1819 4666 
L 2450 4666 
L 2450 531 
L 3481 531 
L 3481 0 
L 794 0 
L 794 531 
z
" transform="scale(0.015625)"/>
       <path id="DejaVuSans-35" d="M 691 4666 
L 3169 4666 
L 3169 4134 
L 1269 4134 
L 1269 2991 
Q 1406 3038 1543 3061 
Q 1681 3084 1819 3084 
Q 2600 3084 3056 2656 
Q 3513 2228 3513 1497 
Q 3513 744 3044 326 
Q 2575 -91 1722 -91 
Q 1428 -91 1123 -41 
Q 819 9 494 109 
L 494 744 
Q 775 591 1075 516 
Q 1375 441 1709 441 
Q 2250 441 2565 725 
Q 2881 1009 2881 1497 
Q 2881 1984 2565 2268 
Q 2250 2553 1709 2553 
Q 1456 2553 1204 2497 
Q 953 2441 691 2322 
L 691 4666 
z
" transform="scale(0.015625)"/>
      </defs>
      <use xlink:href="#DejaVuSans-2212"/>
      <use xlink:href="#DejaVuSans-31" x="83.789062"/>
      <use xlink:href="#DejaVuSans-35" x="147.412109"/>
     </g>
    </g>
   </g>
   <g id="xtick_2">
    <g id="line2d_3">
     <path d="M 160.756208 253.333041 
L 158.506854 255.311346 
" style="fill: none; stroke: #000000; stroke-width: 0.8; stroke-linecap: square"/>
    </g>
    <g id="text_2">
     <!-- −10 -->
     <g transform="translate(141.954584 277.492767) scale(0.1 -0.1)">
      <defs>
       <path id="DejaVuSans-30" d="M 2034 4250 
Q 1547 4250 1301 3770 
Q 1056 3291 1056 2328 
Q 1056 1369 1301 889 
Q 1547 409 2034 409 
Q 2525 409 2770 889 
Q 3016 1369 3016 2328 
Q 3016 3291 2770 3770 
Q 2525 4250 2034 4250 
z
M 2034 4750 
Q 2819 4750 3233 4129 
Q 3647 3509 3647 2328 
Q 3647 1150 3233 529 
Q 2819 -91 2034 -91 
Q 1250 -91 836 529 
Q 422 1150 422 2328 
Q 422 3509 836 4129 
Q 1250 4750 2034 4750 
z
" transform="scale(0.015625)"/>
      </defs>
      <use xlink:href="#DejaVuSans-2212"/>
      <use xlink:href="#DejaVuSans-31" x="83.789062"/>
      <use xlink:href="#DejaVuSans-30" x="147.412109"/>
     </g>
    </g>
   </g>
   <g id="xtick_3">
    <g id="line2d_4">
     <path d="M 179.006296 259.28763 
L 176.782046 261.291855 
" style="fill: none; stroke: #000000; stroke-width: 0.8; stroke-linecap: square"/>
    </g>
    <g id="text_3">
     <!-- −5 -->
     <g transform="translate(163.414143 283.582712) scale(0.1 -0.1)">
      <use xlink:href="#DejaVuSans-2212"/>
      <use xlink:href="#DejaVuSans-35" x="83.789062"/>
     </g>
    </g>
   </g>
   <g id="xtick_4">
    <g id="line2d_5">
     <path d="M 197.496031 265.32041 
L 195.297741 267.351069 
" style="fill: none; stroke: #000000; stroke-width: 0.8; stroke-linecap: square"/>
    </g>
    <g id="text_4">
     <!-- 0 -->
     <g transform="translate(186.123402 289.752989) scale(0.1 -0.1)">
      <use xlink:href="#DejaVuSans-30"/>
     </g>
    </g>
   </g>
   <g id="xtick_5">
    <g id="line2d_6">
     <path d="M 216.230164 271.432931 
L 214.058719 273.49055 
" style="fill: none; stroke: #000000; stroke-width: 0.8; stroke-linecap: square"/>
    </g>
    <g id="text_5">
     <!-- 5 -->
     <g transform="translate(204.888726 296.005197) scale(0.1 -0.1)">
      <use xlink:href="#DejaVuSans-35"/>
     </g>
    </g>
   </g>
   <g id="xtick_6">
    <g id="line2d_7">
     <path d="M 235.213574 277.626786 
L 233.069886 279.711905 
" style="fill: none; stroke: #000000; stroke-width: 0.8; stroke-linecap: square"/>
    </g>
    <g id="text_6">
     <!-- 10 -->
     <g transform="translate(220.72364 302.34098) scale(0.1 -0.1)">
      <use xlink:href="#DejaVuSans-31"/>
      <use xlink:href="#DejaVuSans-30" x="63.623047"/>
     </g>
    </g>
   </g>
   <g id="xtick_7">
    <g id="line2d_8">
     <path d="M 254.451269 283.903608 
L 252.33628 286.016783 
" style="fill: none; stroke: #000000; stroke-width: 0.8; stroke-linecap: square"/>
    </g>
    <g id="text_7">
     <!-- 15 -->
     <g transform="translate(239.995707 308.762024) scale(0.1 -0.1)">
      <use xlink:href="#DejaVuSans-31"/>
      <use xlink:href="#DejaVuSans-35" x="63.623047"/>
     </g>
    </g>
   </g>
  </g>
  <g id="axis3d_2">
   <g id="line2d_9">
    <path d="M 352.090401 209.294766 
L 272.679269 290.790123 
" style="fill: none; stroke: #000000; stroke-width: 0.8; stroke-linecap: square"/>
   </g>
   <g id="Line3DCollection_2">
    <path d="M 130.929896 119.669619 
L 135.71514 231.4766 
L 284.033831 279.137549 
" style="fill: none; stroke: #b0b0b0; stroke-width: 0.8"/>
    <path d="M 149.036361 106.456345 
L 152.960721 217.021012 
L 299.653369 263.108061 
" style="fill: none; stroke: #b0b0b0; stroke-width: 0.8"/>
    <path d="M 166.539004 93.683714 
L 169.655671 203.026974 
L 314.748411 247.616833 
" style="fill: none; stroke: #b0b0b0; stroke-width: 0.8"/>
    <path d="M 183.467533 81.330044 
L 185.825945 189.47273 
L 329.344941 232.637203 
" style="fill: none; stroke: #b0b0b0; stroke-width: 0.8"/>
    <path d="M 199.849741 69.375055 
L 201.495894 176.337868 
L 343.467252 218.144238 
" style="fill: none; stroke: #b0b0b0; stroke-width: 0.8"/>
   </g>
   <g id="xtick_8">
    <g id="line2d_10">
     <path d="M 282.784348 278.736038 
L 286.536008 279.941602 
" style="fill: none; stroke: #000000; stroke-width: 0.8; stroke-linecap: square"/>
    </g>
    <g id="text_8">
     <!-- −20 -->
     <g transform="translate(286.283564 300.070201) scale(0.1 -0.1)">
      <defs>
       <path id="DejaVuSans-32" d="M 1228 531 
L 3431 531 
L 3431 0 
L 469 0 
L 469 531 
Q 828 903 1448 1529 
Q 2069 2156 2228 2338 
Q 2531 2678 2651 2914 
Q 2772 3150 2772 3378 
Q 2772 3750 2511 3984 
Q 2250 4219 1831 4219 
Q 1534 4219 1204 4116 
Q 875 4013 500 3803 
L 500 4441 
Q 881 4594 1212 4672 
Q 1544 4750 1819 4750 
Q 2544 4750 2975 4387 
Q 3406 4025 3406 3419 
Q 3406 3131 3298 2873 
Q 3191 2616 2906 2266 
Q 2828 2175 2409 1742 
Q 1991 1309 1228 531 
z
" transform="scale(0.015625)"/>
      </defs>
      <use xlink:href="#DejaVuSans-2212"/>
      <use xlink:href="#DejaVuSans-32" x="83.789062"/>
      <use xlink:href="#DejaVuSans-30" x="147.412109"/>
     </g>
    </g>
   </g>
   <g id="xtick_9">
    <g id="line2d_11">
     <path d="M 298.418646 262.720143 
L 302.125932 263.884876 
" style="fill: none; stroke: #000000; stroke-width: 0.8; stroke-linecap: square"/>
    </g>
    <g id="text_9">
     <!-- −10 -->
     <g transform="translate(301.693495 283.803505) scale(0.1 -0.1)">
      <use xlink:href="#DejaVuSans-2212"/>
      <use xlink:href="#DejaVuSans-31" x="83.789062"/>
      <use xlink:href="#DejaVuSans-30" x="147.412109"/>
     </g>
    </g>
   </g>
   <g id="xtick_10">
    <g id="line2d_12">
     <path d="M 313.528171 247.241829 
L 317.191922 248.367772 
" style="fill: none; stroke: #000000; stroke-width: 0.8; stroke-linecap: square"/>
    </g>
    <g id="text_10">
     <!-- 0 -->
     <g transform="translate(323.956765 268.083349) scale(0.1 -0.1)">
      <use xlink:href="#DejaVuSans-30"/>
     </g>
    </g>
   </g>
   <g id="xtick_11">
    <g id="line2d_13">
     <path d="M 328.138908 232.274479 
L 331.759954 233.363537 
" style="fill: none; stroke: #000000; stroke-width: 0.8; stroke-linecap: square"/>
    </g>
    <g id="text_11">
     <!-- 10 -->
     <g transform="translate(335.1756 252.882645) scale(0.1 -0.1)">
      <use xlink:href="#DejaVuSans-31"/>
      <use xlink:href="#DejaVuSans-30" x="63.623047"/>
     </g>
    </g>
   </g>
   <g id="xtick_12">
    <g id="line2d_14">
     <path d="M 342.275154 217.7932 
L 345.854313 218.847157 
" style="fill: none; stroke: #000000; stroke-width: 0.8; stroke-linecap: square"/>
    </g>
    <g id="text_12">
     <!-- 20 -->
     <g transform="translate(349.107588 238.176062) scale(0.1 -0.1)">
      <use xlink:href="#DejaVuSans-32"/>
      <use xlink:href="#DejaVuSans-30" x="63.623047"/>
     </g>
    </g>
   </g>
  </g>
  <g id="axis3d_3">
   <g id="line2d_15">
    <path d="M 352.090401 209.294766 
L 357.122702 99.402171 
" style="fill: none; stroke: #000000; stroke-width: 0.8; stroke-linecap: square"/>
   </g>
   <g id="Line3DCollection_3">
    <path d="M 352.625691 197.605394 
L 210.945976 156.986008 
L 122.620879 229.999747 
" style="fill: none; stroke: #b0b0b0; stroke-width: 0.8"/>
    <path d="M 353.250581 183.95938 
L 210.794071 143.775894 
L 121.947723 216.021215 
" style="fill: none; stroke: #b0b0b0; stroke-width: 0.8"/>
    <path d="M 353.88243 170.161426 
L 210.640554 130.425738 
L 121.266785 201.88109 
" style="fill: none; stroke: #b0b0b0; stroke-width: 0.8"/>
    <path d="M 354.521353 156.208979 
L 210.485402 116.9333 
L 120.577929 187.576553 
" style="fill: none; stroke: #b0b0b0; stroke-width: 0.8"/>
    <path d="M 355.16747 142.09943 
L 210.328587 103.296293 
L 119.881017 173.10472 
" style="fill: none; stroke: #b0b0b0; stroke-width: 0.8"/>
    <path d="M 355.820904 127.830111 
L 210.170084 89.512382 
L 119.175906 158.462639 
" style="fill: none; stroke: #b0b0b0; stroke-width: 0.8"/>
    <path d="M 356.481779 113.398293 
L 210.009863 75.579179 
L 118.462451 143.647289 
" style="fill: none; stroke: #b0b0b0; stroke-width: 0.8"/>
   </g>
   <g id="xtick_13">
    <g id="line2d_16">
     <path d="M 351.436343 197.264409 
L 355.007229 198.288178 
" style="fill: none; stroke: #000000; stroke-width: 0.8; stroke-linecap: square"/>
    </g>
    <g id="text_13">
     <!-- 10 -->
     <g transform="translate(364.596913 202.621672) scale(0.1 -0.1)">
      <use xlink:href="#DejaVuSans-31"/>
      <use xlink:href="#DejaVuSans-30" x="63.623047"/>
     </g>
    </g>
   </g>
   <g id="xtick_14">
    <g id="line2d_17">
     <path d="M 352.054401 183.621967 
L 355.645816 184.635017 
" style="fill: none; stroke: #000000; stroke-width: 0.8; stroke-linecap: square"/>
    </g>
    <g id="text_14">
     <!-- 15 -->
     <g transform="translate(365.321106 189.002741) scale(0.1 -0.1)">
      <use xlink:href="#DejaVuSans-31"/>
      <use xlink:href="#DejaVuSans-35" x="63.623047"/>
     </g>
    </g>
   </g>
   <g id="xtick_15">
    <g id="line2d_18">
     <path d="M 352.679339 169.827685 
L 356.291519 170.829714 
" style="fill: none; stroke: #000000; stroke-width: 0.8; stroke-linecap: square"/>
    </g>
    <g id="text_15">
     <!-- 20 -->
     <g transform="translate(366.053338 175.232632) scale(0.1 -0.1)">
      <use xlink:href="#DejaVuSans-32"/>
      <use xlink:href="#DejaVuSans-30" x="63.623047"/>
     </g>
    </g>
   </g>
   <g id="xtick_16">
    <g id="line2d_19">
     <path d="M 353.311271 155.879014 
L 356.944457 156.86971 
" style="fill: none; stroke: #000000; stroke-width: 0.8; stroke-linecap: square"/>
    </g>
    <g id="text_16">
     <!-- 25 -->
     <g transform="translate(366.793744 161.308815) scale(0.1 -0.1)">
      <use xlink:href="#DejaVuSans-32"/>
      <use xlink:href="#DejaVuSans-35" x="63.623047"/>
     </g>
    </g>
   </g>
   <g id="xtick_17">
    <g id="line2d_20">
     <path d="M 353.950315 141.773348 
L 357.604754 142.752392 
" style="fill: none; stroke: #000000; stroke-width: 0.8; stroke-linecap: square"/>
    </g>
    <g id="text_17">
     <!-- 30 -->
     <g transform="translate(367.54246 147.228702) scale(0.1 -0.1)">
      <defs>
       <path id="DejaVuSans-33" d="M 2597 2516 
Q 3050 2419 3304 2112 
Q 3559 1806 3559 1356 
Q 3559 666 3084 287 
Q 2609 -91 1734 -91 
Q 1441 -91 1130 -33 
Q 819 25 488 141 
L 488 750 
Q 750 597 1062 519 
Q 1375 441 1716 441 
Q 2309 441 2620 675 
Q 2931 909 2931 1356 
Q 2931 1769 2642 2001 
Q 2353 2234 1838 2234 
L 1294 2234 
L 1294 2753 
L 1863 2753 
Q 2328 2753 2575 2939 
Q 2822 3125 2822 3475 
Q 2822 3834 2567 4026 
Q 2313 4219 1838 4219 
Q 1578 4219 1281 4162 
Q 984 4106 628 3988 
L 628 4550 
Q 988 4650 1302 4700 
Q 1616 4750 1894 4750 
Q 2613 4750 3031 4423 
Q 3450 4097 3450 3541 
Q 3450 3153 3228 2886 
Q 3006 2619 2597 2516 
z
" transform="scale(0.015625)"/>
      </defs>
      <use xlink:href="#DejaVuSans-33"/>
      <use xlink:href="#DejaVuSans-30" x="63.623047"/>
     </g>
    </g>
   </g>
   <g id="xtick_18">
    <g id="line2d_21">
     <path d="M 354.596593 127.50802 
L 358.272533 128.475085 
" style="fill: none; stroke: #000000; stroke-width: 0.8; stroke-linecap: square"/>
    </g>
    <g id="text_18">
     <!-- 35 -->
     <g transform="translate(368.299629 132.989645) scale(0.1 -0.1)">
      <use xlink:href="#DejaVuSans-33"/>
      <use xlink:href="#DejaVuSans-35" x="63.623047"/>
     </g>
    </g>
   </g>
   <g id="xtick_19">
    <g id="line2d_22">
     <path d="M 355.250228 113.080306 
L 358.947924 114.035053 
" style="fill: none; stroke: #000000; stroke-width: 0.8; stroke-linecap: square"/>
    </g>
    <g id="text_19">
     <!-- 40 -->
     <g transform="translate(369.065393 118.588939) scale(0.1 -0.1)">
      <defs>
       <path id="DejaVuSans-34" d="M 2419 4116 
L 825 1625 
L 2419 1625 
L 2419 4116 
z
M 2253 4666 
L 3047 4666 
L 3047 1625 
L 3713 1625 
L 3713 1100 
L 3047 1100 
L 3047 0 
L 2419 0 
L 2419 1100 
L 313 1100 
L 313 1709 
L 2253 4666 
z
" transform="scale(0.015625)"/>
      </defs>
      <use xlink:href="#DejaVuSans-34"/>
      <use xlink:href="#DejaVuSans-30" x="63.623047"/>
     </g>
    </g>
   </g>
  </g>
  <g id="axes_1">
   <g id="line2d_23">
    <path d="M 223.791023 201.223264 
L 220.834571 203.779333 
L 217.1503 205.968691 
L 212.614796 207.675115 
L 207.104017 208.7032 
L 200.527226 208.745179 
L 192.886026 207.348592 
L 184.376894 203.907633 
L 175.530495 197.732056 
L 167.345646 188.274439 
L 161.295742 175.575496 
L 159.010987 160.788648 
L 161.584962 146.316425 
L 168.873402 135.048645 
L 179.428805 128.980048 
L 191.219576 128.336639 
L 202.508298 131.895324 
L 212.27588 137.950886 
L 220.162732 145.065005 
L 226.224199 152.312808 
L 230.711876 159.212915 
L 233.934395 165.567876 
L 236.187792 171.335149 
L 237.724105 176.543129 
L 238.743641 181.247506 
L 239.397903 185.510804 
L 239.796649 189.39185 
L 240.108599 196.205775 
L 240.025762 202.014606 
L 239.660098 207.048242 
L 238.984132 211.476091 
L 238.490959 213.507069 
L 237.858632 215.437888 
L 237.048617 217.284116 
L 236.009979 219.060938 
L 234.675772 220.782514 
L 232.958741 222.459809 
L 230.745447 224.097263 
L 227.88922 225.685852 
L 224.203268 227.18981 
L 219.453713 228.523701 
L 213.360973 229.511208 
L 205.616114 229.817701 
L 195.938965 228.845947 
L 184.222059 225.602856 
L 170.818733 218.605305 
L 157.010197 206.045302 
L 145.471846 186.648616 
L 140.052819 161.471538 
L 143.998654 135.470843 
L 157.295826 115.927865 
L 176.16939 107.53836 
L 195.796542 109.508917 
L 213.012213 117.692188 
L 226.742045 128.076222 
L 237.145711 138.265719 
L 244.843262 147.272418 
L 250.518989 154.87571 
L 254.785248 161.168157 
L 260.989656 170.489339 
L 263.627097 173.792809 
L 266.286716 176.302178 
L 269.140899 178.046428 
L 272.315116 179.017452 
L 275.891016 179.175915 
L 279.903103 178.461241 
L 284.326214 176.8075 
L 289.054065 174.170681 
L 293.876596 170.568758 
L 298.461359 166.134165 
L 302.357623 161.166503 
L 305.047512 156.152518 
L 306.051076 151.720486 
L 305.073414 148.500124 
L 302.12987 146.93182 
L 297.578154 147.1193 
L 292.022607 148.821374 
L 286.139381 151.586551 
L 280.512953 154.935575 
L 275.547827 158.490191 
L 271.461002 162.012066 
L 268.322625 165.378172 
L 266.110466 168.534729 
L 264.757718 171.456439 
L 264.185532 174.122269 
L 264.323476 176.502791 
L 265.119369 178.554517 
L 266.542258 180.219391 
L 268.580379 181.423294 
L 271.235478 182.07587 
L 274.513013 182.070634 
L 278.406262 181.288202 
L 282.87536 179.606042 
L 287.817819 176.919388 
L 293.032522 173.179702 
L 298.186836 168.451701 
L 302.800691 162.982863 
L 306.279946 157.251847 
L 308.018086 151.950777 
L 307.567784 147.851283 
L 304.820557 145.567365 
L 300.092176 145.333028 
L 294.045404 146.934592 
L 287.478535 149.850487 
L 281.108707 153.488931 
L 275.437752 157.37563 
L 270.73406 161.217621 
L 267.081584 164.874429 
L 264.447895 168.297494 
L 262.744987 171.476094 
L 261.871157 174.40376 
L 261.735038 177.064118 
L 262.268219 179.424755 
L 263.429239 181.436937 
L 265.202872 183.03514 
L 267.595393 184.135775 
L 270.627622 184.636043 
L 274.322697 184.412625 
L 278.688323 183.324475 
L 283.690193 181.223806 
L 289.215399 177.982218 
L 295.026366 173.540564 
L 300.718473 167.984421 
L 305.700709 161.636993 
L 309.245848 155.119569 
L 310.637262 149.310548 
L 309.403274 145.138926 
L 305.53892 143.255154 
L 299.5707 143.76804 
L 292.389083 146.239615 
L 284.949604 149.944102 
L 278.017785 154.185242 
L 272.059111 158.48411 
L 267.267211 162.596058 
L 263.646992 166.439281 
L 261.102829 170.010063 
L 259.502423 173.325401 
L 258.716397 176.394205 
L 258.638903 179.207508 
L 259.19599 181.737398 
L 260.347216 183.939077 
L 262.083601 185.750929 
L 264.422829 187.092895 
L 267.4037 187.863899 
L 271.075371 187.93727 
L 275.483145 187.158947 
L 280.644014 185.351037 
L 286.509376 182.329244 
L 292.912787 177.944815 
L 299.507047 172.162715 
L 305.709268 165.179399 
L 310.70276 157.545312 
L 313.551071 150.212151 
L 313.464478 144.375465 
L 310.139331 141.077971 
L 303.972544 140.751985 
L 295.959874 143.039256 
L 287.318095 147.049763 
L 279.08828 151.829153 
L 271.925864 156.69438 
L 266.110217 161.302437 
L 261.655137 165.556217 
L 258.433137 169.477163 
L 256.264963 173.117295 
L 254.972822 176.517138 
L 254.407346 179.692963 
L 254.457852 182.637827 
L 255.053849 185.326748 
L 256.162705 187.720128 
L 257.785995 189.764834 
L 259.955771 191.392062 
L 262.729365 192.511904 
L 266.184747 193.0074 
L 270.410462 192.726277 
L 275.488414 191.475479 
L 281.465793 189.022663 
L 288.302589 185.117892 
L 295.801092 179.549621 
L 303.508198 172.262586 
L 310.635212 163.537252 
L 316.063024 154.181587 
L 318.540951 145.576649 
L 317.121901 139.368808 
L 311.668493 136.780596 
L 303.055457 137.969726 
L 292.828235 142.002197 
L 282.555135 147.481991 
L 273.343621 153.248313 
L 265.722605 158.671223 
L 259.780722 163.565397 
L 255.363266 167.977124 
L 252.218377 172.021549 
L 250.085757 175.799035 
L 248.737398 179.371877 
L 247.992707 182.767119 
L 247.719641 185.987129 
L 247.829849 189.020967 
L 248.272588 191.849776 
L 249.028864 194.450304 
L 250.107275 196.795131 
L 251.541221 198.84989 
L 253.387947 200.569553 
L 255.728949 201.892466 
L 258.670129 202.731624 
L 262.341763 202.963911 
L 266.895123 202.416019 
L 272.488957 200.849231 
L 279.26283 197.947779 
L 287.27789 193.325411 
L 296.416278 186.577105 
L 306.224911 177.42482 
L 315.730245 166.007605 
L 323.343883 153.280557 
L 327.079255 141.27081 
L 325.27533 132.690268 
L 317.605135 129.630591 
L 305.53675 132.199701 
L 291.630085 138.521062 
L 278.253257 146.153874 
L 266.801177 153.415408 
L 257.710142 159.670522 
L 250.831548 164.951071 
L 245.772768 169.524563 
L 242.094763 173.653887 
L 239.400486 177.518327 
L 237.361634 181.215658 
L 235.718998 184.786619 
L 232.858418 191.568794 
L 231.351118 194.761801 
L 229.634434 197.804225 
L 227.59846 200.678762 
L 225.129741 203.35979 
L 222.104618 205.805574 
L 218.385226 207.945586 
L 213.822539 209.660097 
L 208.26619 210.753015 
L 201.594249 210.914174 
L 193.770126 209.678803 
L 184.947882 206.405557 
L 175.622433 200.327121 
L 166.795967 190.768772 
L 160.025659 177.621086 
L 157.128257 161.962609 
L 159.424918 146.324028 
L 166.895365 133.929958 
L 178.014478 127.115438 
L 190.53973 126.222247 
L 202.541264 129.909584 
L 212.898357 136.273473 
L 221.233875 143.721899 
L 227.628552 151.254621 
L 232.368336 158.366147 
L 235.797069 164.863356 
L 238.240065 170.714996 
L 239.973352 175.959521 
L 241.218486 180.662687 
L 242.882179 188.705178 
L 244.14969 195.281947 
L 244.815424 198.113437 
L 245.576697 200.669955 
L 246.486233 202.960243 
L 247.601376 204.98394 
L 248.988363 206.728313 
L 250.727368 208.166078 
L 252.916925 209.250201 
L 255.679512 209.906896 
L 259.164632 210.02397 
L 263.551065 209.435431 
L 269.040546 207.901224 
L 275.839611 205.084796 
L 284.110493 200.539409 
L 293.871846 193.730767 
L 304.822905 184.15367 
L 316.088444 171.631639 
L 325.985285 156.838205 
L 332.062695 141.869244 
L 331.842563 130.159911 
L 324.24657 124.981794 
L 310.663917 127.177082 
L 294.330137 134.516695 
L 278.456084 143.601099 
L 264.935989 152.028447 
L 254.309971 158.955188 
L 246.336212 164.503424 
L 240.481673 169.098706 
L 236.179646 173.128146 
L 232.93417 176.842293 
L 230.3429 180.368961 
L 225.926802 186.995408 
L 223.659099 190.062764 
L 221.123854 192.909601 
L 218.180594 195.471484 
L 214.703153 197.659884 
L 210.580117 199.349203 
L 205.723286 200.360495 
L 200.091925 200.44286 
L 193.734962 199.262252 
L 186.852641 196.413139 
L 179.873235 191.482053 
L 173.514785 184.203036 
L 168.75317 174.70459 
L 166.628373 163.767518 
L 167.873374 152.876497 
L 172.532943 143.84846 
L 179.860283 138.134009 
L 188.611824 136.255936 
L 197.531811 137.781837 
L 205.69438 141.742136 
L 212.603876 147.109703 
L 218.105774 153.075289 
L 222.259631 159.114594 
L 225.224674 164.935383 
L 227.187647 170.399567 
L 228.323325 175.461848 
L 228.773673 180.124585 
L 228.640971 184.409927 
L 227.987806 188.346822 
L 226.839291 191.960976 
L 225.186585 195.267941 
L 222.989845 198.267935 
L 220.182012 200.937409 
L 216.673333 203.218712 
L 212.358063 205.004914 
L 207.132809 206.1164 
L 200.924627 206.27494 
L 193.744295 205.077162 
L 185.777138 201.99125 
L 177.495362 196.417079 
L 169.776039 187.880108 
L 163.903391 176.394345 
L 161.321475 162.899199 
L 163.07302 149.416427 
L 169.187552 138.484917 
L 178.540403 132.038778 
L 189.371226 130.563062 
L 200.044484 133.191534 
L 209.495866 138.462785 
L 217.267517 145.023166 
L 223.320635 151.931938 
L 227.834275 158.652454 
L 231.072147 164.937445 
L 233.300652 170.704957 
L 234.753234 175.957964 
L 235.616918 180.736817 
L 236.031359 185.094866 
L 236.093374 189.086794 
L 235.863256 192.76243 
L 235.370924 196.165526 
L 234.620552 199.333477 
L 233.59363 202.296861 
L 232.250072 205.07958 
L 230.527834 207.697338 
L 228.341817 210.153958 
L 225.580123 212.437168 
L 222.102008 214.507007 
L 217.738069 216.277826 
L 212.294954 217.590091 
L 205.574522 218.166074 
L 197.423244 217.548905 
L 187.833533 215.037537 
L 177.121646 209.663657 
L 166.185523 200.327445 
L 156.734739 186.282228 
L 151.180906 168.05313 
L 151.794617 148.300086 
L 159.298879 131.406451 
L 172.105253 121.241498 
L 187.201772 118.913492 
L 201.824598 122.76604 
L 214.391898 130.104437 
L 224.420916 138.685482 
L 232.067041 147.175052 
L 237.745302 154.969773 
L 241.922158 161.885887 
L 245.026946 167.93449 
L 252.950272 185.086063 
L 254.868814 187.936374 
L 257.06353 190.258706 
L 259.658219 192.02704 
L 262.774305 193.180871 
L 266.534154 193.620404 
L 271.055547 193.200086 
L 276.437859 191.725194 
L 282.732184 188.956353 
L 289.882611 184.639109 
L 297.65041 178.572015 
L 305.508391 170.745829 
L 312.566762 161.542854 
L 317.606194 151.931019 
L 319.338531 143.460406 
L 316.914369 137.830575 
L 310.425641 136.118141 
L 301.002615 138.188967 
L 290.331811 142.861249 
L 279.964531 148.667445 
L 270.89533 154.52209 
L 263.529944 159.911376 
L 257.869194 164.734932 
L 253.705289 169.083517 
L 250.763754 173.084719 
L 248.77727 176.838014 
L 247.5191 180.400809 
L 246.813017 183.795416 
L 246.531125 187.022957 
L 246.58807 190.072633 
L 246.933979 192.928302 
L 247.548461 195.571278 
L 248.436159 197.980159 
L 249.624171 200.129279 
L 251.16133 201.985504 
L 253.118177 203.502682 
L 255.589561 204.615878 
L 258.694886 205.230963 
L 262.579579 205.212925 
L 267.410955 204.369676 
L 273.363852 202.43466 
L 280.587062 199.054561 
L 289.136722 193.79782 
L 298.854339 186.22116 
L 309.179645 176.055766 
L 318.950702 163.555145 
L 326.321742 149.9634 
L 329.101226 137.727364 
L 325.681101 129.847704 
L 316.151349 128.234616 
L 302.544487 132.36222 
L 287.753336 139.770892 
L 274.112534 147.870714 
L 262.785926 155.166879 
L 253.984356 161.267154 
L 247.411541 166.359051 
L 242.598302 170.773691 
L 239.074277 174.783777 
L 236.432568 178.558486 
L 234.34373 182.181987 
L 229.073328 192.295974 
L 227.089081 195.368803 
L 224.767117 198.247293 
L 221.983031 200.887915 
L 218.608402 203.225698 
L 214.51088 205.158154 
L 209.559724 206.524684 
L 203.647509 207.077867 
L 196.730608 206.453333 
L 188.903497 204.150311 
L 180.508079 199.55748 
L 172.26537 192.088238 
L 165.34382 181.488851 
L 161.225147 168.29512 
L 161.238454 154.180105 
L 165.878366 141.687428 
L 174.402249 133.213225 
L 185.13828 129.864807 
L 196.264801 131.182686 
L 206.44519 135.766991 
L 215.006209 142.113843 
L 221.784645 149.087263 
L 226.91303 156.004506 
L 230.64763 162.526849 
L 233.270505 168.527866 
L 235.037862 173.990272 
L 236.161701 178.949926 
L 236.804345 183.459194 
L 237.08329 187.575164 
L 237.077358 191.351478 
L 236.833555 194.83597 
L 236.372937 198.069344 
L 235.694758 201.086509 
L 234.779066 203.916246 
L 233.586993 206.582821 
L 232.060915 209.102924 
L 230.120953 211.486577 
L 227.662847 213.730518 
L 224.553691 215.811129 
L 220.628757 217.670152 
L 215.69288 219.1904 
L 209.528998 220.157969 
L 201.930599 220.204324 
L 192.774411 218.73211 
L 182.166223 214.848985 
L 170.681359 207.390574 
L 159.676027 195.218768 
L 151.428511 178.002004 
L 148.673259 157.371023 
L 153.228577 137.393171 
L 164.554319 122.969084 
L 179.83886 116.88955 
L 195.744564 118.485377 
L 209.971117 125.006059 
L 221.579871 133.660254 
L 230.541455 142.603211 
L 237.242474 150.928883 
L 242.185796 158.321015 
L 245.855544 164.750557 
L 250.955417 175.053818 
L 252.991448 179.119207 
L 254.986619 182.555416 
L 257.113484 185.398765 
L 259.518378 187.654366 
L 262.33194 189.293912 
L 265.676556 190.252982 
L 269.664336 190.426375 
L 274.392002 189.666707 
L 279.91945 187.786843 
L 286.233512 184.576705 
L 293.18841 179.848634 
L 300.429609 173.527497 
L 307.321839 165.792611 
L 312.933055 157.242146 
L 316.156179 148.979137 
L 316.03595 142.431659 
L 312.200393 138.856897 
L 305.140059 138.741049 
L 296.068938 141.579376 
L 286.432402 146.240878 
L 277.406649 151.5864 
L 269.678473 156.863167 
L 263.490423 161.744995 
L 258.795243 166.184132 
L 255.406798 170.248238 
L 253.097521 174.022673 
L 251.654097 177.567816 
L 250.900999 180.911861 
L 250.707422 184.058357 
L 250.986697 186.992015 
L 251.691623 189.686619 
L 252.810031 192.107253 
L 254.360839 194.20939 
L 256.390759 195.935168 
L 258.973043 197.208444 
L 262.20442 197.925635 
L 266.20047 197.94575 
L 271.086883 197.079071 
L 276.977062 195.078274 
L 283.931842 191.641303 
L 291.889082 186.443013 
L 300.555033 179.225893 
L 309.269077 169.983985 
L 316.901564 159.240042 
L 321.918553 148.300799 
L 322.781071 139.179749 
L 318.650648 133.918836 
L 309.999307 133.48696 
L 298.522903 137.201811 
L 286.332042 143.285991 
L 275.086409 149.98881 
L 265.655069 156.26751 
L 258.241211 161.789488 
L 252.669755 166.61992 
L 248.614602 170.947611 
L 245.727508 174.945352 
L 243.698693 178.726656 
L 242.275673 182.350994 
L 241.263533 185.840959 
L 240.516419 189.199114 
L 237.787851 203.898595 
L 237.066309 206.429521 
L 236.179935 208.84132 
L 235.074318 211.144982 
L 233.68274 213.351073 
L 231.921532 215.46704 
L 229.685303 217.492703 
L 226.840098 219.414296 
L 223.218596 221.191091 
L 218.616038 222.73453 
L 212.792834 223.872577 
L 205.495544 224.292747 
L 196.510228 223.460371 
L 185.783083 220.519957 
L 173.662882 214.242974 
L 161.251879 203.185449 
L 150.744534 186.358129 
L 145.258745 164.557029 
L 147.55526 141.556503 
L 158.037397 123.175185 
L 174.051495 113.79487 
L 191.624581 113.669215 
L 207.7113 119.871333 
L 220.952114 128.954657 
L 231.199944 138.533889 
L 238.867298 147.425086 
L 244.529455 155.223882 
L 244.529455 155.223882 
" clip-path="url(#p9055da51b8)" style="fill: none; stroke: #0000cc; stroke-linecap: square"/>
   </g>
   <g id="line2d_24">
    <path d="M 223.790976 201.223313 
L 220.836182 203.780476 
L 217.152401 205.970075 
L 212.617176 207.676705 
L 207.106695 208.705176 
L 200.529985 208.747578 
L 192.889079 207.351744 
L 184.379862 203.911553 
L 175.53288 197.736742 
L 167.346879 188.27964 
L 161.295718 175.581139 
L 159.009362 160.794119 
L 161.581935 146.319828 
L 168.869422 135.049998 
L 179.425 128.979225 
L 191.215826 128.33439 
L 202.505175 131.892202 
L 212.273854 137.947684 
L 220.161323 145.061674 
L 226.223732 152.31 
L 230.711753 159.210253 
L 233.933451 165.565168 
L 236.186966 171.332819 
L 237.723499 176.540749 
L 238.743119 181.245653 
L 239.397435 185.509079 
L 239.7962 189.390102 
L 240.108222 196.204387 
L 240.025018 202.013471 
L 239.659302 207.047403 
L 238.98288 211.475433 
L 238.489418 213.506514 
L 237.856735 215.437397 
L 237.046309 217.283825 
L 236.007078 219.060788 
L 234.672073 220.782543 
L 232.954106 222.459931 
L 230.741435 224.092581 
L 227.884451 225.681568 
L 224.197552 227.185809 
L 219.446718 228.5195 
L 213.352666 229.506747 
L 205.606006 229.812341 
L 195.926929 228.838631 
L 184.208997 225.592431 
L 170.804949 218.589857 
L 156.999262 206.024385 
L 145.466732 186.622481 
L 140.056815 161.44447 
L 144.012636 135.449771 
L 157.316804 115.918299 
L 176.190572 107.541551 
L 195.81306 109.51954 
L 213.024501 117.705639 
L 226.749117 128.088825 
L 237.149769 138.277547 
L 244.844203 147.282422 
L 250.523567 154.877207 
L 254.788897 161.169063 
L 260.992171 170.489162 
L 263.629322 173.792311 
L 266.288617 176.30121 
L 269.142847 178.045377 
L 272.316721 179.016134 
L 275.892737 179.174288 
L 279.904609 178.459595 
L 284.327133 176.805744 
L 289.055058 174.168892 
L 293.877054 170.566954 
L 298.461267 166.132645 
L 302.357014 161.165401 
L 305.04607 156.152198 
L 306.049297 151.72063 
L 305.071259 148.500924 
L 302.127681 146.933173 
L 297.576174 147.120913 
L 292.022801 148.820032 
L 286.13795 151.585974 
L 280.510504 154.935692 
L 275.544473 158.491111 
L 271.45717 162.013284 
L 268.318628 165.379783 
L 266.106224 168.536652 
L 264.753554 171.458572 
L 264.181254 174.124851 
L 264.319204 176.505577 
L 265.11521 178.557534 
L 266.538089 180.222762 
L 268.576262 181.427066 
L 271.231381 182.079908 
L 274.508968 182.07511 
L 278.402325 181.292908 
L 282.871791 179.611076 
L 287.814788 176.924604 
L 293.030547 173.184637 
L 298.185739 168.456384 
L 302.803183 162.983364 
L 306.283751 157.250844 
L 308.0225 151.948633 
L 307.571989 147.847712 
L 304.823999 145.563509 
L 300.09458 145.329451 
L 294.045728 146.931842 
L 287.477705 149.848563 
L 281.106201 153.488179 
L 275.434252 157.375606 
L 270.730077 161.218041 
L 267.076961 164.875545 
L 264.443013 168.298895 
L 262.739873 171.477939 
L 261.865914 174.405936 
L 261.729593 177.066643 
L 262.262582 179.427813 
L 263.423443 181.440473 
L 265.196822 183.039231 
L 267.58914 184.140449 
L 270.621477 184.63912 
L 274.317056 184.416605 
L 278.682952 183.329371 
L 283.685387 181.229269 
L 289.211259 177.988195 
L 295.023439 173.546624 
L 300.716851 167.990084 
L 305.700907 161.641704 
L 309.248285 155.122427 
L 310.641669 149.311436 
L 309.409043 145.137475 
L 305.545407 143.251964 
L 299.576875 143.763794 
L 292.393755 146.235304 
L 284.952845 149.940101 
L 278.019258 154.182046 
L 272.058925 158.481641 
L 267.265722 162.594237 
L 263.644461 166.438053 
L 261.099393 170.009346 
L 259.496304 173.323885 
L 258.709457 176.393602 
L 258.631442 179.207608 
L 259.187651 181.738585 
L 260.338088 183.941192 
L 262.07339 185.754183 
L 264.411423 187.097612 
L 267.391093 187.870169 
L 271.061503 187.945542 
L 275.467871 187.169416 
L 280.627567 185.364237 
L 286.492421 182.345146 
L 292.896071 177.96356 
L 299.492142 172.183589 
L 305.698214 165.200874 
L 310.69761 157.565325 
L 313.553893 150.227156 
L 313.475713 144.383017 
L 310.157769 141.077126 
L 303.995021 140.74386 
L 295.98222 143.025479 
L 287.337498 147.03495 
L 279.10285 151.81538 
L 271.935212 156.682514 
L 266.114674 161.292401 
L 261.655533 165.547796 
L 258.429918 169.470052 
L 256.259019 173.111406 
L 254.964197 176.512469 
L 254.396527 179.689327 
L 254.44491 182.635549 
L 255.03862 185.325913 
L 256.144909 187.721225 
L 257.765569 189.768329 
L 259.931993 191.398185 
L 262.701876 192.521541 
L 266.153201 193.021293 
L 270.374115 192.745618 
L 275.447596 191.501368 
L 281.420114 189.056754 
L 288.257743 185.159314 
L 295.755136 179.599478 
L 303.465463 172.320025 
L 310.602321 163.59767 
L 316.047212 154.237597 
L 318.548233 145.61901 
L 317.15411 139.388472 
L 311.721703 136.775465 
L 303.119415 137.94461 
L 292.89214 141.966471 
L 282.611903 147.443765 
L 273.388434 153.213019 
L 265.754747 158.640443 
L 259.801635 163.538461 
L 255.374636 167.953281 
L 252.222 171.999958 
L 250.083163 175.779307 
L 248.729693 179.353791 
L 247.980725 182.750654 
L 247.703739 185.972554 
L 247.809201 189.00704 
L 248.247744 191.838415 
L 248.998977 194.442041 
L 250.071738 196.7905 
L 251.498597 198.849556 
L 253.336731 200.574787 
L 255.667401 201.904799 
L 258.595866 202.753077 
L 262.252422 202.997427 
L 266.787711 202.465747 
L 272.360889 200.920245 
L 279.112983 198.046858 
L 287.107341 193.459646 
L 296.232006 186.752214 
L 306.040625 177.642117 
L 315.571995 166.255177 
L 323.248011 153.526424 
L 327.080975 141.467514 
L 325.391827 132.787868 
L 317.818772 129.611805 
L 305.800803 132.092819 
L 291.894206 138.372674 
L 278.482464 146.005403 
L 266.980817 153.286745 
L 257.841276 159.563714 
L 250.921388 164.86101 
L 245.830266 169.445203 
L 242.128541 173.580614 
L 239.417157 177.448608 
L 237.366666 181.148358 
L 235.716197 184.721067 
L 232.847237 191.507319 
L 231.337805 194.702452 
L 229.620045 197.747136 
L 227.583685 200.623618 
L 225.115008 203.306623 
L 222.090523 205.753908 
L 218.372651 207.895096 
L 213.812246 209.610303 
L 208.259985 210.707809 
L 201.592404 210.869188 
L 193.774555 209.634893 
L 184.961144 206.364505 
L 175.645844 200.292496 
L 166.829821 190.74626 
L 160.067069 177.617226 
L 157.170078 161.980815 
L 159.4581 146.36304 
L 166.911596 133.981478 
L 178.010949 127.166573 
L 190.519218 126.263516 
L 202.508665 129.937843 
L 212.85821 136.289949 
L 221.190103 143.730233 
L 227.582271 151.257209 
L 232.320743 158.365776 
L 235.748226 164.862343 
L 238.189157 170.713567 
L 239.919989 175.959407 
L 241.156873 180.663155 
L 242.807286 188.711592 
L 244.052632 195.297035 
L 244.702367 198.134945 
L 245.443527 200.698936 
L 246.328182 202.999496 
L 247.411563 205.036504 
L 248.758889 206.798245 
L 250.448301 208.259539 
L 252.575596 209.375726 
L 255.26096 210.076633 
L 258.650289 210.254988 
L 262.919873 209.752167 
L 268.271013 208.337258 
L 274.912664 205.68527 
L 283.018963 201.359911 
L 292.633966 194.83127 
L 303.509339 185.574122 
L 314.852442 173.34116 
L 325.076851 158.674916 
L 331.785571 143.489533 
L 332.416663 131.134343 
L 325.636217 125.051237 
L 312.542608 126.466104 
L 296.268941 133.429205 
L 280.145565 142.512516 
L 266.252045 151.117531 
L 255.259106 158.237446 
L 246.981008 163.926628 
L 240.895134 168.605822 
L 236.427994 172.677995 
L 233.071642 176.411454 
L 230.409925 179.947003 
L 225.938021 186.585619 
L 223.670824 189.661856 
L 221.150317 192.519981 
L 218.233642 195.096477 
L 214.793804 197.31155 
L 210.719059 199.026486 
L 205.9208 200.073572 
L 200.357302 200.207605 
L 194.072292 199.10214 
L 187.257287 196.359672 
L 180.325912 191.572494 
L 173.972825 184.468745 
L 169.15255 175.155114 
L 166.89338 164.368858 
L 167.941268 153.543017 
L 172.381196 144.464537 
L 179.516977 138.598361 
L 188.13867 136.519633 
L 196.995891 137.851079 
L 205.151757 141.657787 
L 212.08852 146.920986 
L 217.634944 152.82626 
L 221.835885 158.835352 
L 224.843718 164.645063 
L 226.847093 170.106463 
L 228.008066 175.175698 
L 228.47459 179.84791 
L 228.349428 184.142707 
L 227.695888 188.087802 
L 226.539829 191.707557 
L 224.872756 195.016247 
L 222.655906 198.012984 
L 219.823063 200.671948 
L 216.285335 202.933312 
L 211.940403 204.686728 
L 206.688156 205.748706 
L 200.462048 205.836825 
L 193.286422 204.545232 
L 185.360373 201.344713 
L 177.176052 195.650453 
L 169.623967 187.020743 
L 163.985209 175.521575 
L 161.668363 162.148822 
L 163.64726 148.932027 
L 169.886654 138.354627 
L 179.229267 132.247015 
L 189.945284 131.008974 
L 200.448385 133.751502 
L 209.722693 139.040024 
L 217.33512 145.562564 
L 223.254813 152.410933 
L 227.662468 159.070363 
L 230.814313 165.300791 
L 232.970781 171.023135 
L 234.358766 176.240643 
L 235.159347 180.992337 
L 235.506419 185.331079 
L 235.492134 189.308458 
L 235.171584 192.974482 
L 234.569067 196.371215 
L 233.683335 199.534643 
L 232.488312 202.493672 
L 230.935993 205.267772 
L 228.954569 207.867709 
L 226.450128 210.287993 
L 223.292971 212.502597 
L 219.332257 214.446124 
L 214.390216 215.993237 
L 208.275944 216.922686 
L 200.82138 216.864992 
L 191.955019 215.240855 
L 181.841627 211.217459 
L 171.103417 203.765549 
L 161.061783 191.968272 
L 153.805643 175.736423 
L 151.701393 156.740542 
L 156.204989 138.647616 
L 166.725871 125.669568 
L 180.790798 120.143702 
L 195.482858 121.512505 
L 208.74054 127.438764 
L 219.66088 135.482154 
L 228.153731 143.961548 
L 234.529533 152.001674 
L 239.223086 159.264509 
L 242.676421 165.676846 
L 245.266594 171.293564 
L 250.663712 184.18759 
L 252.338248 187.385689 
L 254.196277 190.090035 
L 256.358474 192.296224 
L 258.943188 193.971724 
L 262.071142 195.050114 
L 265.867892 195.424794 
L 270.459626 194.941483 
L 275.9568 193.392289 
L 282.424012 190.518723 
L 289.821953 186.037491 
L 297.918081 179.712156 
L 306.174701 171.498532 
L 313.651363 161.772549 
L 319.032475 151.55413 
L 320.899504 142.528923 
L 318.313399 136.567131 
L 311.365547 134.856229 
L 301.308966 137.214108 
L 289.997775 142.293097 
L 279.103252 148.466978 
L 269.656675 154.579014 
L 262.043923 160.120482 
L 256.22483 165.026991 
L 251.951508 169.424332 
L 248.917093 173.464386 
L 246.830477 177.25999 
L 245.447396 180.875316 
L 244.57739 184.336537 
L 244.080119 187.648212 
L 243.85713 190.803874 
L 243.843846 193.793677 
L 244.001927 196.608129 
L 244.313533 199.237911 
L 244.777716 201.675849 
L 245.402443 203.905652 
L 246.225147 205.934055 
L 247.281454 207.73695 
L 248.627667 209.291274 
L 250.339647 210.563198 
L 252.514511 211.500538 
L 255.275974 212.024924 
L 258.7787 212.020116 
L 263.208039 211.313798 
L 268.777793 209.656754 
L 275.709189 206.696855 
L 284.181275 201.962306 
L 294.228068 194.88152 
L 305.547022 184.904697 
L 317.228388 171.819717 
L 327.48321 156.331616 
L 333.688138 140.693324 
L 333.195271 128.61736 
L 324.912347 123.592157 
L 310.443672 126.363609 
L 293.324211 134.358328 
L 276.926948 143.884772 
L 263.127478 152.495734 
L 252.382057 159.428699 
L 244.365721 164.899665 
L 238.490853 169.391343 
L 234.161359 173.313646 
L 230.864909 176.922637 
L 228.19066 180.342833 
L 223.497978 186.723441 
L 221.033092 189.63255 
L 218.262963 192.280756 
L 215.052211 194.585167 
L 211.286708 196.434397 
L 206.877641 197.674715 
L 201.777421 198.095355 
L 196.009778 197.418907 
L 189.719947 195.306805 
L 183.232861 191.401343 
L 177.098395 185.437449 
L 172.12808 177.407962 
L 169.22485 167.813087 
L 169.151153 157.750684 
L 172.188655 148.73839 
L 177.949888 142.21758 
L 185.495285 139.006525 
L 193.693094 139.081707 
L 201.574547 141.784373 
L 208.514762 146.219621 
L 214.224377 151.574489 
L 218.655754 157.255823 
L 221.898426 162.893672 
L 224.098622 168.284762 
L 225.411286 173.336979 
L 225.970462 178.019477 
L 225.878442 182.332926 
L 225.199836 186.290758 
L 223.964438 189.90447 
L 222.167945 193.177167 
L 219.778375 196.094217 
L 216.734476 198.611821 
L 212.962673 200.648552 
L 208.38625 202.065627 
L 202.94577 202.64797 
L 196.642918 202.085192 
L 189.600882 199.965497 
L 182.151461 195.810446 
L 174.92722 189.195387 
L 168.893908 179.987276 
L 165.234314 168.67426 
L 164.997399 156.588738 
L 168.61119 145.713452 
L 175.577827 137.970586 
L 184.643657 134.396763 
L 194.336561 134.844726 
L 203.47093 138.340678 
L 211.353097 143.686362 
L 217.724146 149.878013 
L 222.610264 156.245292 
L 226.181097 162.407962 
L 228.64842 168.194968 
L 230.222073 173.544028 
L 231.077808 178.455815 
L 231.349832 182.960768 
L 231.12985 187.098061 
L 230.469168 190.907218 
L 229.384233 194.421259 
L 227.858743 197.663931 
L 225.847382 200.645207 
L 223.276505 203.355901 
L 220.047233 205.759513 
L 216.037513 207.77676 
L 211.113503 209.265826 
L 205.147561 209.991804 
L 198.061296 209.589783 
L 189.900535 207.532727 
L 180.957866 203.137283 
L 171.932 195.679447 
L 164.047865 184.711055 
L 158.982534 170.595545 
L 158.345672 155.04053 
L 162.900934 140.906461 
L 171.949141 131.082714 
L 183.609449 127.018131 
L 195.765932 128.251686 
L 206.872414 133.153281 
L 216.171421 139.966004 
L 223.504365 147.390302 
L 229.045955 154.673017 
L 233.102796 161.462517 
L 236.001582 167.642249 
L 238.037123 173.212197 
L 239.452325 178.220711 
L 240.438152 182.73245 
L 241.137326 186.810764 
L 242.069766 193.885915 
L 243.185838 202.370807 
L 243.639948 204.737803 
L 244.188056 206.895454 
L 244.865449 208.847617 
L 245.714896 210.592185 
L 246.787729 212.119855 
L 248.149431 213.409781 
L 249.883742 214.428432 
L 252.096292 215.122052 
L 254.921719 215.408035 
L 258.527086 215.162409 
L 263.116287 214.200156 
L 268.924423 212.249711 
L 276.196226 208.92452 
L 285.133213 203.701079 
L 295.772947 195.940254 
L 307.772203 185.02757 
L 320.086407 170.749423 
L 330.658618 153.98836 
L 336.516744 137.436758 
L 334.831856 125.349119 
L 324.702879 121.41252 
L 308.398607 125.800611 
L 290.01367 135.100571 
L 273.028565 145.249998 
L 248.468301 160.668102 
L 240.609506 165.86693 
L 234.86436 170.093521 
L 230.600492 173.775862 
L 227.294879 177.159931 
L 219.465244 186.211475 
L 216.722999 188.784479 
L 213.632238 191.016941 
L 210.079566 192.798137 
L 205.985271 193.983471 
L 201.317863 194.385139 
L 196.114639 193.767999 
L 190.509335 191.869737 
L 184.813521 188.402745 
L 179.492269 183.200361 
L 175.190051 176.313752 
L 172.623066 168.169237 
L 172.385945 159.634566 
L 174.717821 151.886963 
L 179.361358 146.068625 
L 185.623408 142.899271 
L 192.615709 142.481162 
L 199.521565 144.398789 
L 205.757145 147.984125 
L 211.001971 152.566762 
L 215.144745 157.610134 
L 218.209904 162.746829 
L 220.288731 167.752126 
L 221.493491 172.502415 
L 221.928241 176.937241 
L 221.674792 181.029127 
L 220.785637 184.765901 
L 220.785637 184.765901 
" clip-path="url(#p9055da51b8)" style="fill: none; stroke: #ff0000; stroke-linecap: square"/>
   </g>
  </g>
 </g>
 <defs>
  <clipPath id="p9055da51b8">
   <rect x="103.104" y="41.472" width="266.112" height="266.112"/>
  </clipPath>
 </defs>
</svg>
