<?xml version="1.0" encoding="utf-8" standalone="no"?>
<!DOCTYPE svg PUBLIC "-//W3C//DTD SVG 1.1//EN"
  "http://www.w3.org/Graphics/SVG/1.1/DTD/svg11.dtd">
<svg xmlns:xlink="http://www.w3.org/1999/xlink" width="460.8pt" height="345.6pt" viewBox="0 0 460.8 345.6" xmlns="http://www.w3.org/2000/svg" version="1.1">
 <metadata>
  <rdf:RDF xmlns:dc="http://purl.org/dc/elements/1.1/" xmlns:cc="http://creativecommons.org/ns#" xmlns:rdf="http://www.w3.org/1999/02/22-rdf-syntax-ns#">
   <cc:Work>
    <dc:type rdf:resource="http://purl.org/dc/dcmitype/StillImage"/>
    <dc:date>2023-11-22T17:07:28.323077</dc:date>
    <dc:format>image/svg+xml</dc:format>
    <dc:creator>
     <cc:Agent>
      <dc:title>Matplotlib v3.5.2, https://matplotlib.org/</dc:title>
     </cc:Agent>
    </dc:creator>
   </cc:Work>
  </rdf:RDF>
 </metadata>
 <defs>
  <style type="text/css">*{stroke-linejoin: round; stroke-linecap: butt}</style>
 </defs>
 <g id="figure_1">
  <g id="patch_1">
   <path d="M 0 345.6 
L 460.8 345.6 
L 460.8 0 
L 0 0 
z
" style="fill: #ffffff"/>
  </g>
  <g id="axes_1">
   <g id="patch_2">
    <path d="M 57.6 119.740235 
L 414.72 119.740235 
L 414.72 41.472 
L 57.6 41.472 
z
" style="fill: #ffffff"/>
   </g>
   <g id="matplotlib.axis_1">
    <g id="xtick_1">
     <g id="line2d_1">
      <defs>
       <path id="me89d5d7f48" d="M 0 0 
L 0 3.5 
" style="stroke: #000000; stroke-width: 0.8"/>
      </defs>
      <g>
       <use xlink:href="#me89d5d7f48" x="57.6" y="119.740235" style="stroke: #000000; stroke-width: 0.8"/>
      </g>
     </g>
    </g>
    <g id="xtick_2">
     <g id="line2d_2">
      <g>
       <use xlink:href="#me89d5d7f48" x="105.216" y="119.740235" style="stroke: #000000; stroke-width: 0.8"/>
      </g>
     </g>
    </g>
    <g id="xtick_3">
     <g id="line2d_3">
      <g>
       <use xlink:href="#me89d5d7f48" x="152.832" y="119.740235" style="stroke: #000000; stroke-width: 0.8"/>
      </g>
     </g>
    </g>
    <g id="xtick_4">
     <g id="line2d_4">
      <g>
       <use xlink:href="#me89d5d7f48" x="200.448" y="119.740235" style="stroke: #000000; stroke-width: 0.8"/>
      </g>
     </g>
    </g>
    <g id="xtick_5">
     <g id="line2d_5">
      <g>
       <use xlink:href="#me89d5d7f48" x="248.064" y="119.740235" style="stroke: #000000; stroke-width: 0.8"/>
      </g>
     </g>
    </g>
    <g id="xtick_6">
     <g id="line2d_6">
      <g>
       <use xlink:href="#me89d5d7f48" x="295.68" y="119.740235" style="stroke: #000000; stroke-width: 0.8"/>
      </g>
     </g>
    </g>
    <g id="xtick_7">
     <g id="line2d_7">
      <g>
       <use xlink:href="#me89d5d7f48" x="343.296" y="119.740235" style="stroke: #000000; stroke-width: 0.8"/>
      </g>
     </g>
    </g>
    <g id="xtick_8">
     <g id="line2d_8">
      <g>
       <use xlink:href="#me89d5d7f48" x="390.912" y="119.740235" style="stroke: #000000; stroke-width: 0.8"/>
      </g>
     </g>
    </g>
    <g id="xtick_9">
     <g id="line2d_9">
      <g>
       <use xlink:href="#me89d5d7f48" x="414.72" y="119.740235" style="stroke: #000000; stroke-width: 0.8"/>
      </g>
     </g>
    </g>
   </g>
   <g id="matplotlib.axis_2">
    <g id="ytick_1">
     <g id="line2d_10">
      <defs>
       <path id="m30cfe5d871" d="M 0 0 
L -3.5 0 
" style="stroke: #000000; stroke-width: 0.8"/>
      </defs>
      <g>
       <use xlink:href="#m30cfe5d871" x="57.6" y="100.230183" style="stroke: #000000; stroke-width: 0.8"/>
      </g>
     </g>
     <g id="text_1">
      <!-- −10 -->
      <g transform="translate(29.495313 104.029402)scale(0.1 -0.1)">
       <defs>
        <path id="DejaVuSans-2212" d="M 678 2272 
L 4684 2272 
L 4684 1741 
L 678 1741 
L 678 2272 
z
" transform="scale(0.015625)"/>
        <path id="DejaVuSans-31" d="M 794 531 
L 1825 531 
L 1825 4091 
L 703 3866 
L 703 4441 
L 1819 4666 
L 2450 4666 
L 2450 531 
L 3481 531 
L 3481 0 
L 794 0 
L 794 531 
z
" transform="scale(0.015625)"/>
        <path id="DejaVuSans-30" d="M 2034 4250 
Q 1547 4250 1301 3770 
Q 1056 3291 1056 2328 
Q 1056 1369 1301 889 
Q 1547 409 2034 409 
Q 2525 409 2770 889 
Q 3016 1369 3016 2328 
Q 3016 3291 2770 3770 
Q 2525 4250 2034 4250 
z
M 2034 4750 
Q 2819 4750 3233 4129 
Q 3647 3509 3647 2328 
Q 3647 1150 3233 529 
Q 2819 -91 2034 -91 
Q 1250 -91 836 529 
Q 422 1150 422 2328 
Q 422 3509 836 4129 
Q 1250 4750 2034 4750 
z
" transform="scale(0.015625)"/>
       </defs>
       <use xlink:href="#DejaVuSans-2212"/>
       <use xlink:href="#DejaVuSans-31" x="83.789062"/>
       <use xlink:href="#DejaVuSans-30" x="147.412109"/>
      </g>
     </g>
    </g>
    <g id="ytick_2">
     <g id="line2d_11">
      <g>
       <use xlink:href="#m30cfe5d871" x="57.6" y="79.586183" style="stroke: #000000; stroke-width: 0.8"/>
      </g>
     </g>
     <g id="text_2">
      <!-- 0 -->
      <g transform="translate(44.2375 83.385402)scale(0.1 -0.1)">
       <use xlink:href="#DejaVuSans-30"/>
      </g>
     </g>
    </g>
    <g id="ytick_3">
     <g id="line2d_12">
      <g>
       <use xlink:href="#m30cfe5d871" x="57.6" y="58.942183" style="stroke: #000000; stroke-width: 0.8"/>
      </g>
     </g>
     <g id="text_3">
      <!-- 10 -->
      <g transform="translate(37.875 62.741402)scale(0.1 -0.1)">
       <use xlink:href="#DejaVuSans-31"/>
       <use xlink:href="#DejaVuSans-30" x="63.623047"/>
      </g>
     </g>
    </g>
   </g>
   <g id="line2d_13">
    <path d="M 57.6 85.466535 
L 58.195191 86.353181 
L 58.790405 87.481077 
L 59.385595 88.887487 
L 59.980809 90.614357 
L 61.171191 95.168685 
L 62.361595 101.102884 
L 63.552 107.123746 
L 64.147191 109.201435 
L 64.742405 110.008974 
L 65.337595 109.245951 
L 65.932786 106.95805 
L 67.123214 99.550194 
L 68.313618 91.891149 
L 68.908809 88.799694 
L 69.504023 86.319362 
L 70.099214 84.412151 
L 70.694405 82.995252 
L 71.289618 81.973187 
L 71.884809 81.255442 
L 72.48 80.764615 
L 73.670405 80.231921 
L 74.860809 80.047554 
L 76.646405 80.099958 
L 78.432 80.437947 
L 79.622405 80.875999 
L 80.812809 81.598854 
L 81.408 82.120914 
L 82.003191 82.792499 
L 82.598405 83.657343 
L 83.193595 84.771301 
L 83.788809 86.204826 
L 84.384 88.043674 
L 84.979191 90.386861 
L 85.574405 93.335966 
L 86.764786 101.268184 
L 87.955191 110.761923 
L 88.550405 114.515782 
L 89.145595 116.182588 
L 89.740786 114.965334 
L 90.336 110.930683 
L 92.716809 86.960238 
L 93.312023 82.697205 
L 93.907214 79.399295 
L 94.502405 76.890377 
L 95.097618 74.971926 
L 96.288 72.196237 
L 98.668809 67.506857 
L 99.859214 64.531451 
L 102.835214 56.048971 
L 103.430405 55.087004 
L 104.025595 54.748124 
L 104.620809 55.116681 
L 105.216 56.17128 
L 105.811191 57.784735 
L 108.787191 67.359599 
L 109.382405 68.600928 
L 109.977595 69.505893 
L 110.572786 70.087186 
L 111.168 70.365876 
L 111.763191 70.363494 
L 112.358405 70.097528 
L 112.953595 69.579334 
L 113.548786 68.814173 
L 114.144 67.803022 
L 115.334405 65.051138 
L 116.524809 61.45131 
L 118.310405 55.861888 
L 118.905618 54.61747 
L 119.500786 54.024951 
L 120.095977 54.218108 
L 120.691191 55.211146 
L 121.286382 56.885105 
L 124.262405 67.592225 
L 124.857595 69.033307 
L 125.452809 70.10806 
L 126.048 70.83386 
L 126.643214 71.238564 
L 127.238405 71.350518 
L 127.833595 71.192911 
L 128.428809 70.780888 
L 129.024 70.121042 
L 129.619191 69.212366 
L 130.214405 68.049088 
L 131.404809 64.942595 
L 132.595191 60.911046 
L 133.785595 56.599843 
L 134.380786 54.788303 
L 134.976 53.541373 
L 135.571191 53.092994 
L 136.166405 53.574372 
L 136.761595 54.957905 
L 137.356786 57.0576 
L 139.737595 67.021965 
L 140.332786 68.882019 
L 140.928 70.334717 
L 141.523191 71.393982 
L 142.118382 72.093526 
L 142.713595 72.472352 
L 143.308786 72.565673 
L 143.903977 72.400032 
L 144.499191 71.991132 
L 145.094382 71.343756 
L 145.689595 70.452632 
L 146.284786 69.305041 
L 147.475191 66.177225 
L 148.665595 61.928197 
L 150.451214 54.742672 
L 151.046405 52.969174 
L 151.641595 52.016283 
L 152.236809 52.119911 
L 152.832 53.336063 
L 153.427191 55.504738 
L 156.403191 69.239876 
L 156.998405 71.019879 
L 157.593595 72.355449 
L 158.188786 73.292278 
L 158.784 73.884266 
L 159.379191 74.181596 
L 159.974405 74.224462 
L 160.569595 74.040341 
L 161.164786 73.643394 
L 161.76 73.034883 
L 162.355191 72.204489 
L 162.950382 71.131569 
L 163.545595 69.787767 
L 164.140786 68.141357 
L 165.331191 63.845863 
L 168.307191 51.024834 
L 168.902382 50.260576 
L 169.497595 50.867039 
L 170.092786 52.820285 
L 171.283191 59.357694 
L 172.473595 66.357851 
L 173.664 71.596843 
L 174.259214 73.410717 
L 174.854405 74.752193 
L 175.449595 75.698453 
L 176.044809 76.325515 
L 176.64 76.69882 
L 177.235191 76.869682 
L 177.830405 76.874556 
L 178.425595 76.736085 
L 179.020809 76.464459 
L 179.616 76.058725 
L 180.211191 75.50766 
L 180.806405 74.79008 
L 181.401595 73.874999 
L 181.996786 72.72147 
L 182.592 71.278874 
L 183.187191 69.489523 
L 183.782405 67.29405 
L 184.972786 61.534136 
L 186.758382 50.918516 
L 187.353595 48.323915 
L 187.948786 47.229932 
L 188.544 48.070642 
L 189.139191 50.80902 
L 190.329595 59.67901 
L 191.519977 68.584286 
L 192.115191 72.087663 
L 192.710382 74.866355 
L 193.305595 76.997746 
L 193.900786 78.60194 
L 194.495977 79.806586 
L 195.686405 81.467044 
L 198.067214 84.017385 
L 199.257595 85.787519 
L 199.852809 86.9613 
L 200.448 88.395324 
L 201.043191 90.143524 
L 202.233618 94.768829 
L 203.424 100.900065 
L 204.614382 107.316608 
L 205.209618 109.629661 
L 205.804809 110.629774 
L 206.4 109.95613 
L 206.995236 107.624255 
L 208.185618 99.830776 
L 209.376 91.716749 
L 209.971191 88.446108 
L 210.566382 85.824318 
L 211.161573 83.805386 
L 211.756809 82.296228 
L 212.352 81.191176 
L 212.947191 80.389833 
L 214.137573 79.37164 
L 215.923191 78.471599 
L 217.708809 77.518256 
L 218.899191 76.526569 
L 219.494382 75.840122 
L 220.089573 74.976163 
L 220.684764 73.886023 
L 221.28 72.510297 
L 221.875191 70.779028 
L 222.470382 68.614235 
L 223.065573 65.940014 
L 224.256 58.930943 
L 226.041618 47.237583 
L 226.636809 45.383798 
L 227.232 45.786843 
L 227.827191 48.573226 
L 228.422382 53.186926 
L 230.208 69.112092 
L 230.803236 73.198661 
L 231.398427 76.429432 
L 231.993618 78.910262 
L 232.588809 80.795743 
L 233.779191 83.404858 
L 236.755191 88.425996 
L 237.945573 91.352644 
L 239.136 95.310135 
L 241.516809 104.971389 
L 242.112 106.653203 
L 242.707191 107.432349 
L 243.302382 107.093523 
L 243.897573 105.623763 
L 244.492764 103.231986 
L 246.873573 91.51265 
L 247.468764 89.326659 
L 248.064 87.612771 
L 248.659191 86.34211 
L 249.254382 85.462485 
L 249.849618 84.917052 
L 250.444809 84.655054 
L 251.04 84.636859 
L 251.635191 84.836192 
L 252.230382 85.240309 
L 252.825618 85.849382 
L 253.420809 86.675313 
L 254.016 87.740276 
L 254.611236 89.074945 
L 255.206427 90.713884 
L 256.396809 95.018021 
L 257.587191 100.592032 
L 258.777573 106.278541 
L 259.372809 108.313722 
L 259.968 109.228324 
L 260.563191 108.728601 
L 261.158382 106.810398 
L 261.753573 103.780911 
L 264.134427 89.865794 
L 264.729618 87.419066 
L 265.324809 85.522477 
L 265.92 84.112292 
L 266.515191 83.106411 
L 267.110382 82.423639 
L 267.705573 81.993473 
L 268.300764 81.75995 
L 268.896 81.682124 
L 269.491191 81.732787 
L 270.681573 82.169648 
L 271.872 83.069904 
L 272.467191 83.733393 
L 273.062382 84.578303 
L 273.657618 85.646243 
L 274.252809 86.988888 
L 274.848 88.66752 
L 275.443191 90.749541 
L 276.038382 93.298362 
L 277.228809 99.882822 
L 279.014427 110.754678 
L 279.609618 112.584994 
L 280.204809 112.430417 
L 280.8 110.127714 
L 281.395191 106.096137 
L 283.180809 91.369894 
L 283.776 87.434935 
L 284.371191 84.285952 
L 284.966382 81.853842 
L 285.561573 80.010136 
L 286.156809 78.612606 
L 287.347191 76.643799 
L 289.728 73.429306 
L 290.918382 71.160609 
L 292.108764 67.906419 
L 293.299191 63.359215 
L 295.68 52.207448 
L 296.275191 50.492654 
L 296.870382 50.006536 
L 297.465618 50.960841 
L 298.060809 53.257063 
L 299.251191 60.22351 
L 300.441618 67.256391 
L 301.036809 70.080619 
L 301.632 72.340879 
L 302.227236 74.069608 
L 302.822427 75.337981 
L 303.417618 76.228455 
L 304.012809 76.818669 
L 304.608 77.174117 
L 305.203191 77.345342 
L 305.798382 77.368195 
L 306.393573 77.265205 
L 307.584 76.714814 
L 308.179191 76.259131 
L 308.774382 75.66243 
L 309.369573 74.897609 
L 309.964809 73.928162 
L 310.56 72.707351 
L 311.155191 71.178471 
L 311.750427 69.277302 
L 312.345618 66.939064 
L 313.536 60.79704 
L 315.321573 49.743245 
L 315.916764 47.292802 
L 316.512 46.580466 
L 317.107191 47.983148 
L 317.702382 51.321896 
L 320.083191 70.047238 
L 320.678382 73.492208 
L 321.273618 76.189625 
L 321.868809 78.246236 
L 322.464 79.799067 
L 323.654382 81.922842 
L 326.630427 85.903104 
L 327.820809 88.296446 
L 329.011191 91.756285 
L 330.201573 96.571296 
L 332.582382 107.813171 
L 333.177573 109.239715 
L 333.772809 109.302607 
L 334.368 107.870561 
L 334.963191 105.14705 
L 337.344 90.778836 
L 337.939191 88.076532 
L 338.534382 85.948479 
L 339.129573 84.34103 
L 339.724764 83.172576 
L 340.32 82.356465 
L 340.915191 81.814951 
L 341.510382 81.484016 
L 342.105573 81.314894 
L 343.296 81.336655 
L 344.486382 81.743234 
L 345.676809 82.547184 
L 346.272 83.136845 
L 346.867191 83.888535 
L 347.462382 84.841469 
L 348.057618 86.045376 
L 348.652809 87.560665 
L 349.248 89.457414 
L 349.843236 91.809068 
L 351.033618 98.082445 
L 352.819191 109.785253 
L 353.414382 112.512965 
L 354.009573 113.41327 
L 354.604809 112.029793 
L 355.2 108.527684 
L 357.580809 88.649588 
L 358.176 85.020843 
L 358.771191 82.186506 
L 359.366427 80.023969 
L 359.961618 78.382135 
L 361.152 76.084931 
L 363.532764 72.482903 
L 364.723191 70.035976 
L 365.913573 66.618214 
L 367.104 62.028674 
L 368.889618 54.125362 
L 369.484809 52.142088 
L 370.08 51.078692 
L 370.675191 51.217031 
L 371.270382 52.621069 
L 371.865618 55.093218 
L 374.246427 67.786881 
L 374.841618 70.188422 
L 375.436809 72.080581 
L 376.032 73.498999 
L 376.627191 74.505295 
L 377.222382 75.16667 
L 377.817573 75.544204 
L 378.412809 75.686605 
L 379.008 75.628567 
L 379.603191 75.390602 
L 380.198382 74.979862 
L 380.793573 74.391287 
L 381.388809 73.608283 
L 381.984 72.603745 
L 382.579191 71.34124 
L 383.174427 69.776813 
L 383.769618 67.864168 
L 384.96 62.863452 
L 387.340764 50.61453 
L 387.936 48.967331 
L 388.531191 48.837162 
L 389.126382 50.395101 
L 389.721573 53.410484 
L 392.102382 69.142892 
L 392.697618 72.041003 
L 393.292809 74.313546 
L 393.888 76.033593 
L 394.483191 77.30134 
L 395.078382 78.21898 
L 395.673618 78.877593 
L 396.864 79.703532 
L 398.649618 80.419815 
L 400.435191 81.171 
L 401.625573 81.954552 
L 402.816 83.186768 
L 403.411191 84.058462 
L 404.006382 85.165112 
L 404.601573 86.569503 
L 405.196809 88.346683 
L 405.792 90.580398 
L 406.387191 93.352996 
L 407.577618 100.66309 
L 408.768 109.28434 
L 409.363191 112.766842 
L 409.958382 114.515738 
L 410.553618 113.818332 
L 411.148809 110.616744 
L 412.339191 99.762243 
L 413.529618 89.039726 
L 414.124809 84.921643 
L 414.72 81.691629 
L 414.72 81.691629 
" clip-path="url(#pfbe126c856)" style="fill: none; stroke: #0000cc; stroke-width: 1.5; stroke-linecap: square"/>
   </g>
   <g id="line2d_14">
    <path d="M 57.6 85.466535 
L 58.195191 86.353145 
L 58.790405 87.480997 
L 59.385595 88.88742 
L 59.980809 90.614249 
L 61.171191 95.168513 
L 62.361595 101.102665 
L 63.552 107.12353 
L 64.147191 109.201165 
L 64.742405 110.008786 
L 65.337595 109.245829 
L 65.932786 106.958091 
L 67.123191 99.550477 
L 68.313595 91.891542 
L 68.908809 88.800007 
L 69.504 86.319746 
L 70.099191 84.412555 
L 70.694405 82.99568 
L 71.289595 81.973698 
L 71.884809 81.255963 
L 72.48 80.76522 
L 73.670405 80.232688 
L 74.860786 80.04849 
L 76.646405 80.10153 
L 78.432 80.440769 
L 79.622405 80.880387 
L 80.812809 81.605705 
L 81.408 82.129542 
L 82.003191 82.803228 
L 82.598405 83.670981 
L 83.193595 84.788503 
L 83.788809 86.226659 
L 84.384 88.071238 
L 84.979191 90.421347 
L 85.574405 93.378602 
L 86.764786 101.326158 
L 87.955191 110.815181 
L 88.550405 114.54869 
L 89.145595 116.182117 
L 89.740786 114.926963 
L 90.336 110.862732 
L 92.716809 86.903509 
L 93.312 82.654654 
L 93.907191 79.368215 
L 94.502405 76.868212 
L 95.097595 74.956245 
L 96.288 72.187132 
L 98.668786 67.496411 
L 99.859191 64.516878 
L 102.835191 56.03285 
L 103.430405 55.075524 
L 104.025595 54.743123 
L 104.620809 55.119135 
L 105.216 56.181102 
L 105.811191 57.800651 
L 108.787191 67.378267 
L 109.382405 68.616878 
L 109.977595 69.519056 
L 110.572786 70.097478 
L 111.168 70.373633 
L 111.763191 70.368654 
L 112.358405 70.100407 
L 112.953595 69.579816 
L 113.548786 68.812426 
L 114.144 67.798915 
L 115.334405 65.042115 
L 116.524809 61.437554 
L 118.310405 55.846919 
L 118.905595 54.60534 
L 119.500809 54.017456 
L 120.096 54.216753 
L 120.691191 55.216244 
L 121.286405 56.896141 
L 124.262405 67.609262 
L 124.857595 69.048565 
L 125.452786 70.121144 
L 126.048 70.84513 
L 126.643191 71.247854 
L 127.238405 71.358201 
L 127.833595 71.199016 
L 128.428809 70.785541 
L 129.024 70.124254 
L 129.619191 69.214207 
L 130.214405 68.049463 
L 131.404809 64.939529 
L 132.595191 60.904029 
L 133.785595 56.589769 
L 134.380786 54.777821 
L 134.976 53.531761 
L 135.571191 53.085736 
L 136.166405 53.570714 
L 136.761595 54.958526 
L 137.356786 57.06239 
L 139.737595 67.0345 
L 140.332809 68.894454 
L 140.928 70.346751 
L 141.523191 71.40546 
L 142.118405 72.104356 
L 142.713595 72.482705 
L 143.308809 72.575633 
L 143.904 72.409693 
L 144.499191 72.000764 
L 145.094405 71.353397 
L 145.689595 70.462295 
L 146.284786 69.314891 
L 147.475191 66.186973 
L 148.665595 61.936529 
L 150.451191 54.743081 
L 151.046405 52.965284 
L 151.641595 52.008201 
L 152.236809 52.108561 
L 152.832 53.32312 
L 153.427191 55.492333 
L 156.403191 69.243108 
L 156.998405 71.02573 
L 157.593595 72.363474 
L 158.188786 73.302171 
L 158.784 73.895789 
L 159.379191 74.194807 
L 159.974405 74.239219 
L 160.569595 74.057067 
L 161.164786 73.662079 
L 161.76 73.056125 
L 162.355191 72.228485 
L 162.950405 71.15888 
L 163.545595 69.818719 
L 164.140809 68.176244 
L 165.331191 63.888069 
L 168.307191 51.033313 
L 168.902405 50.247765 
L 169.497595 50.833337 
L 170.092786 52.770861 
L 170.688 55.752189 
L 172.473595 66.31877 
L 173.664 71.579643 
L 174.259191 73.403027 
L 174.854405 74.752521 
L 175.449595 75.705565 
L 176.044809 76.338308 
L 176.64 76.716741 
L 177.235191 76.892407 
L 177.830405 76.902318 
L 178.425595 76.769224 
L 179.020809 76.50375 
L 179.616 76.105487 
L 180.211191 75.563306 
L 180.806405 74.856504 
L 181.401595 73.954764 
L 181.996786 72.817292 
L 182.592 71.393943 
L 183.187191 69.627268 
L 183.782405 67.457034 
L 184.972786 61.746748 
L 187.353595 48.419933 
L 187.948809 47.210812 
L 188.544 47.928126 
L 189.139191 50.56666 
L 190.329595 59.379616 
L 191.52 68.364634 
L 192.115191 71.920764 
L 192.710405 74.74816 
L 193.305595 76.920232 
L 193.900786 78.556657 
L 194.496 79.785666 
L 195.686405 81.476937 
L 198.662405 84.861946 
L 199.852809 87.007611 
L 200.448 88.444677 
L 201.043191 90.195195 
L 202.233618 94.820691 
L 203.424 100.937141 
L 204.614382 107.312295 
L 205.209618 109.596618 
L 205.804809 110.569379 
L 206.4 109.877659 
L 206.995236 107.542176 
L 208.185618 99.780997 
L 209.376 91.716058 
L 209.971191 88.466633 
L 210.566382 85.862152 
L 211.161618 83.857049 
L 211.756809 82.359485 
L 212.352 81.264383 
L 212.947191 80.472638 
L 214.137618 79.475991 
L 215.328 78.876411 
L 217.708809 77.771883 
L 218.899236 76.894518 
L 220.089618 75.524355 
L 220.684809 74.559141 
L 221.28 73.338225 
L 221.875191 71.795654 
L 222.470382 69.855012 
L 223.065618 67.434974 
L 223.660809 64.465228 
L 224.851191 56.872737 
L 226.041618 48.648957 
L 226.636809 45.840478 
L 227.232 45.029647 
L 227.827191 46.68461 
L 228.422382 50.570159 
L 230.803236 71.479957 
L 231.398427 75.17343 
L 231.993618 78.041241 
L 232.588809 80.22639 
L 233.184 81.894198 
L 234.374382 84.284788 
L 236.755191 88.332413 
L 237.945618 91.129689 
L 239.136 94.891969 
L 242.112 106.035962 
L 242.707236 107.001409 
L 243.302427 106.933664 
L 243.897618 105.77288 
L 244.492809 103.668875 
L 247.468809 90.118727 
L 248.064 88.343428 
L 248.659191 87.008778 
L 249.254382 86.071885 
L 249.849618 85.480849 
L 250.444809 85.186718 
L 251.04 85.15011 
L 251.635191 85.344331 
L 252.230382 85.755349 
L 252.825618 86.382368 
L 253.420809 87.235375 
L 254.016 88.335164 
L 254.611236 89.708932 
L 255.801618 93.392157 
L 256.992 98.364709 
L 258.777618 106.441691 
L 259.372809 108.142566 
L 259.968 108.706476 
L 260.563191 107.920061 
L 261.158382 105.847978 
L 262.348809 99.312222 
L 263.539191 92.516455 
L 264.134382 89.74123 
L 264.729618 87.502694 
L 265.324809 85.782256 
L 265.92 84.51972 
L 266.515236 83.640213 
L 267.110427 83.072051 
L 267.705618 82.753542 
L 268.300809 82.637577 
L 268.896 82.691867 
L 269.491191 82.897318 
L 270.086382 83.247972 
L 270.681618 83.748813 
L 271.276809 84.415496 
L 271.872 85.274147 
L 272.467191 86.360779 
L 273.062382 87.720892 
L 273.657618 89.407641 
L 274.252809 91.476212 
L 275.443191 96.914824 
L 277.824 109.952787 
L 278.419236 111.394685 
L 279.014427 111.056459 
L 279.609618 108.854754 
L 280.204809 105.176245 
L 281.990382 91.881595 
L 282.585618 88.295359 
L 283.180809 85.41142 
L 283.776 83.180906 
L 284.371191 81.499472 
L 284.966382 80.246959 
L 285.561618 79.309087 
L 286.752 77.999588 
L 289.132809 75.838738 
L 290.323236 74.25783 
L 290.918427 73.194459 
L 291.513618 71.882589 
L 292.108809 70.265348 
L 292.704 68.283205 
L 293.894382 63.036697 
L 296.275191 49.740445 
L 296.870382 47.910682 
L 297.465618 47.784141 
L 298.060809 49.56099 
L 298.656 52.958371 
L 301.036809 70.126456 
L 301.632 73.193206 
L 302.227236 75.584245 
L 302.822427 77.395968 
L 303.417618 78.748723 
L 304.012809 79.760563 
L 305.203191 81.159434 
L 307.584 83.375468 
L 308.774382 84.956524 
L 309.369618 86.015566 
L 309.964809 87.319623 
L 310.56 88.924996 
L 311.155191 90.88987 
L 312.345618 96.082064 
L 314.726427 109.244211 
L 315.321618 111.082998 
L 315.916809 111.256419 
L 316.512 109.557549 
L 317.107191 106.249788 
L 319.488 89.275388 
L 320.083191 86.214971 
L 320.678382 83.825017 
L 321.273618 82.013177 
L 321.868809 80.662583 
L 322.464 79.657108 
L 323.654382 78.288849 
L 326.630427 75.594081 
L 327.820809 73.869888 
L 328.416 72.698466 
L 329.011191 71.250239 
L 329.606382 69.465293 
L 330.201618 67.283921 
L 331.392 61.583083 
L 333.177618 51.109127 
L 333.772809 48.538614 
L 334.368 47.430173 
L 334.963191 48.212404 
L 335.558382 50.860274 
L 336.748809 59.545378 
L 337.939236 68.348238 
L 338.534427 71.829318 
L 339.129618 74.596432 
L 339.724809 76.720873 
L 340.32 78.318476 
L 340.915191 79.513744 
L 342.105618 81.138804 
L 345.081618 84.236475 
L 346.272 86.16486 
L 346.867191 87.462479 
L 347.462382 89.053774 
L 348.057618 90.994739 
L 349.248 96.093686 
L 351.628809 108.894453 
L 352.224 110.689394 
L 352.819191 110.891882 
L 353.414382 109.299322 
L 354.009618 106.149352 
L 356.390382 89.682494 
L 356.985618 86.670738 
L 357.580809 84.312652 
L 358.176 82.5249 
L 358.771191 81.197737 
L 359.366382 80.220971 
L 360.556809 78.94108 
L 362.342427 77.707133 
L 363.532809 76.828517 
L 364.723191 75.59532 
L 365.318382 74.757528 
L 365.913618 73.714034 
L 366.508809 72.411786 
L 367.104 70.78886 
L 367.699191 68.777848 
L 368.294382 66.313528 
L 369.484809 59.90638 
L 371.270382 48.936568 
L 371.865618 46.842667 
L 372.460809 46.640134 
L 373.056 48.58305 
L 373.651236 52.347355 
L 376.032 71.063378 
L 376.627191 74.329266 
L 377.222382 76.864725 
L 377.817618 78.790284 
L 378.412809 80.2464 
L 379.603191 82.270303 
L 381.984 85.407799 
L 383.174382 87.561374 
L 384.364809 90.654783 
L 385.555236 95.026052 
L 386.745618 100.649656 
L 387.936 106.365646 
L 388.531191 108.398246 
L 389.126382 109.294511 
L 389.721618 108.761707 
L 390.316809 106.802474 
L 390.912 103.732555 
L 392.697618 92.767365 
L 393.888 87.308733 
L 394.483191 85.415535 
L 395.078382 84.008618 
L 395.673618 83.004677 
L 396.268809 82.321672 
L 396.864 81.888835 
L 397.459236 81.649641 
L 398.054427 81.562827 
L 399.244809 81.748061 
L 400.435191 82.357696 
L 401.625618 83.456139 
L 402.220809 84.246713 
L 402.816 85.247388 
L 403.411191 86.508248 
L 404.006382 88.089154 
L 404.601618 90.057947 
L 405.196809 92.482289 
L 406.387191 98.848262 
L 408.172809 110.103519 
L 408.768 112.426219 
L 409.363236 112.872001 
L 409.958427 111.115657 
L 410.553618 107.430277 
L 412.934382 88.284047 
L 413.529618 84.890878 
L 414.124809 82.251084 
L 414.72 80.242755 
L 414.72 80.242755 
" clip-path="url(#pfbe126c856)" style="fill: none; stroke-dasharray: 5.55,2.4; stroke-dashoffset: 0; stroke: #ff0000; stroke-width: 1.5"/>
   </g>
   <g id="patch_3">
    <path d="M 57.6 119.740235 
L 57.6 41.472 
" style="fill: none; stroke: #000000; stroke-width: 0.8; stroke-linejoin: miter; stroke-linecap: square"/>
   </g>
   <g id="patch_4">
    <path d="M 414.72 119.740235 
L 414.72 41.472 
" style="fill: none; stroke: #000000; stroke-width: 0.8; stroke-linejoin: miter; stroke-linecap: square"/>
   </g>
   <g id="patch_5">
    <path d="M 57.6 119.740235 
L 414.72 119.740235 
" style="fill: none; stroke: #000000; stroke-width: 0.8; stroke-linejoin: miter; stroke-linecap: square"/>
   </g>
   <g id="patch_6">
    <path d="M 57.6 41.472 
L 414.72 41.472 
" style="fill: none; stroke: #000000; stroke-width: 0.8; stroke-linejoin: miter; stroke-linecap: square"/>
   </g>
  </g>
  <g id="axes_2">
   <g id="patch_7">
    <path d="M 57.6 213.662118 
L 414.72 213.662118 
L 414.72 135.393882 
L 57.6 135.393882 
z
" style="fill: #ffffff"/>
   </g>
   <g id="matplotlib.axis_3">
    <g id="xtick_10">
     <g id="line2d_15">
      <g>
       <use xlink:href="#me89d5d7f48" x="57.6" y="213.662118" style="stroke: #000000; stroke-width: 0.8"/>
      </g>
     </g>
    </g>
    <g id="xtick_11">
     <g id="line2d_16">
      <g>
       <use xlink:href="#me89d5d7f48" x="105.216" y="213.662118" style="stroke: #000000; stroke-width: 0.8"/>
      </g>
     </g>
    </g>
    <g id="xtick_12">
     <g id="line2d_17">
      <g>
       <use xlink:href="#me89d5d7f48" x="152.832" y="213.662118" style="stroke: #000000; stroke-width: 0.8"/>
      </g>
     </g>
    </g>
    <g id="xtick_13">
     <g id="line2d_18">
      <g>
       <use xlink:href="#me89d5d7f48" x="200.448" y="213.662118" style="stroke: #000000; stroke-width: 0.8"/>
      </g>
     </g>
    </g>
    <g id="xtick_14">
     <g id="line2d_19">
      <g>
       <use xlink:href="#me89d5d7f48" x="248.064" y="213.662118" style="stroke: #000000; stroke-width: 0.8"/>
      </g>
     </g>
    </g>
    <g id="xtick_15">
     <g id="line2d_20">
      <g>
       <use xlink:href="#me89d5d7f48" x="295.68" y="213.662118" style="stroke: #000000; stroke-width: 0.8"/>
      </g>
     </g>
    </g>
    <g id="xtick_16">
     <g id="line2d_21">
      <g>
       <use xlink:href="#me89d5d7f48" x="343.296" y="213.662118" style="stroke: #000000; stroke-width: 0.8"/>
      </g>
     </g>
    </g>
    <g id="xtick_17">
     <g id="line2d_22">
      <g>
       <use xlink:href="#me89d5d7f48" x="390.912" y="213.662118" style="stroke: #000000; stroke-width: 0.8"/>
      </g>
     </g>
    </g>
    <g id="xtick_18">
     <g id="line2d_23">
      <g>
       <use xlink:href="#me89d5d7f48" x="414.72" y="213.662118" style="stroke: #000000; stroke-width: 0.8"/>
      </g>
     </g>
    </g>
   </g>
   <g id="matplotlib.axis_4">
    <g id="ytick_4">
     <g id="line2d_24">
      <g>
       <use xlink:href="#m30cfe5d871" x="57.6" y="204.373207" style="stroke: #000000; stroke-width: 0.8"/>
      </g>
     </g>
     <g id="text_4">
      <!-- −20 -->
      <g transform="translate(29.495313 208.172426)scale(0.1 -0.1)">
       <defs>
        <path id="DejaVuSans-32" d="M 1228 531 
L 3431 531 
L 3431 0 
L 469 0 
L 469 531 
Q 828 903 1448 1529 
Q 2069 2156 2228 2338 
Q 2531 2678 2651 2914 
Q 2772 3150 2772 3378 
Q 2772 3750 2511 3984 
Q 2250 4219 1831 4219 
Q 1534 4219 1204 4116 
Q 875 4013 500 3803 
L 500 4441 
Q 881 4594 1212 4672 
Q 1544 4750 1819 4750 
Q 2544 4750 2975 4387 
Q 3406 4025 3406 3419 
Q 3406 3131 3298 2873 
Q 3191 2616 2906 2266 
Q 2828 2175 2409 1742 
Q 1991 1309 1228 531 
z
" transform="scale(0.015625)"/>
       </defs>
       <use xlink:href="#DejaVuSans-2212"/>
       <use xlink:href="#DejaVuSans-32" x="83.789062"/>
       <use xlink:href="#DejaVuSans-30" x="147.412109"/>
      </g>
     </g>
    </g>
    <g id="ytick_5">
     <g id="line2d_25">
      <g>
       <use xlink:href="#m30cfe5d871" x="57.6" y="173.091798" style="stroke: #000000; stroke-width: 0.8"/>
      </g>
     </g>
     <g id="text_5">
      <!-- 0 -->
      <g transform="translate(44.2375 176.891017)scale(0.1 -0.1)">
       <use xlink:href="#DejaVuSans-30"/>
      </g>
     </g>
    </g>
    <g id="ytick_6">
     <g id="line2d_26">
      <g>
       <use xlink:href="#m30cfe5d871" x="57.6" y="141.810388" style="stroke: #000000; stroke-width: 0.8"/>
      </g>
     </g>
     <g id="text_6">
      <!-- 20 -->
      <g transform="translate(37.875 145.609607)scale(0.1 -0.1)">
       <use xlink:href="#DejaVuSans-32"/>
       <use xlink:href="#DejaVuSans-30" x="63.623047"/>
      </g>
     </g>
    </g>
   </g>
   <g id="line2d_27">
    <path d="M 57.6 179.900369 
L 58.195191 181.254212 
L 58.790405 182.892919 
L 59.980809 187.207825 
L 61.171191 192.952791 
L 62.361595 199.026687 
L 62.956786 201.130661 
L 63.552 201.699448 
L 64.147191 200.121413 
L 64.742405 196.28307 
L 66.528 179.713261 
L 67.123214 175.861993 
L 67.718405 173.429233 
L 68.313618 172.141461 
L 68.908809 171.631215 
L 69.504023 171.579264 
L 70.694405 172.0272 
L 72.48 172.774741 
L 74.265618 173.218491 
L 77.241595 173.828357 
L 78.432 174.245984 
L 79.622405 174.913618 
L 80.812809 176.008517 
L 81.408 176.801568 
L 82.003191 177.824202 
L 82.598405 179.143023 
L 83.193595 180.84091 
L 83.788809 183.01768 
L 84.384 185.784296 
L 84.979191 189.245371 
L 86.169595 198.319606 
L 87.36 207.885293 
L 87.955191 210.104157 
L 88.550405 208.320447 
L 89.145595 201.721581 
L 90.931214 172.852916 
L 91.526405 167.685818 
L 92.121618 165.114738 
L 92.716809 164.178787 
L 93.312023 164.065874 
L 94.502405 164.439823 
L 95.097618 164.483728 
L 95.692809 164.315106 
L 96.288 163.908042 
L 96.883214 163.256249 
L 97.478405 162.362556 
L 98.668809 159.892328 
L 100.454405 155.02627 
L 101.049595 153.457717 
L 101.644809 152.202801 
L 102.24 151.493367 
L 102.835214 151.547109 
L 103.430405 152.493529 
L 104.025595 154.300615 
L 105.216 159.481803 
L 106.406405 164.370743 
L 107.001595 166.079866 
L 107.596809 167.224824 
L 108.192 167.866474 
L 108.787191 168.099732 
L 109.382405 168.018387 
L 109.977595 167.697236 
L 110.572786 167.186758 
L 111.763191 165.690341 
L 112.953595 163.564237 
L 114.144 160.727505 
L 115.334405 157.200651 
L 116.524809 153.450694 
L 117.120023 151.871038 
L 117.715214 150.814798 
L 118.310405 150.556038 
L 118.905618 151.299619 
L 119.500786 153.079322 
L 120.691191 158.756245 
L 121.881595 164.428297 
L 122.476786 166.450557 
L 123.071977 167.819627 
L 123.667191 168.606603 
L 124.262405 168.929022 
L 124.857595 168.904368 
L 125.452809 168.626447 
L 126.048 168.158799 
L 127.238405 166.773114 
L 128.428809 164.795146 
L 129.619191 162.096151 
L 130.809595 158.560967 
L 133.190405 150.647465 
L 133.785595 149.597575 
L 134.380786 149.537256 
L 134.976 150.690512 
L 135.571191 153.039867 
L 137.952 165.946722 
L 138.547191 167.93003 
L 139.142382 169.175425 
L 139.737595 169.814249 
L 140.332786 170.002362 
L 140.928 169.875101 
L 141.523191 169.53066 
L 142.713595 168.401567 
L 143.903977 166.771611 
L 145.094382 164.520605 
L 146.284786 161.419365 
L 147.475191 157.318296 
L 149.260809 150.330741 
L 149.856 148.659847 
L 150.451214 147.968683 
L 151.046405 148.64318 
L 151.641595 150.835135 
L 152.236809 154.309333 
L 154.022405 166.017801 
L 154.617595 168.55238 
L 155.212809 170.169554 
L 155.808 171.032723 
L 156.403191 171.349722 
L 156.998405 171.304103 
L 157.593595 171.030197 
L 158.784 170.096094 
L 159.974405 168.805001 
L 161.164786 167.068214 
L 162.355191 164.627699 
L 163.545595 161.153162 
L 164.736 156.412325 
L 166.521595 148.203759 
L 167.116786 146.372654 
L 167.711977 145.894869 
L 168.307191 147.263294 
L 168.902382 150.567266 
L 171.283191 168.867671 
L 171.878405 171.268124 
L 172.473595 172.617942 
L 173.068809 173.209931 
L 173.664 173.32032 
L 174.259214 173.157191 
L 175.449595 172.494001 
L 177.830405 170.826768 
L 179.020809 169.703434 
L 180.211191 168.092566 
L 180.806405 167.002329 
L 181.401595 165.653355 
L 181.996786 163.984679 
L 182.592 161.931041 
L 183.782405 156.45626 
L 186.163191 142.933415 
L 186.758382 141.889778 
L 187.353595 143.510012 
L 187.948786 148.076483 
L 189.734382 168.237267 
L 190.329595 172.62517 
L 190.924786 175.225146 
L 191.519977 176.48404 
L 192.115191 176.909187 
L 192.710382 176.901379 
L 194.495977 176.426236 
L 195.091191 176.427734 
L 195.686405 176.563635 
L 196.281595 176.844967 
L 196.876809 177.282371 
L 197.472 177.890776 
L 198.067214 178.692339 
L 198.662405 179.717655 
L 199.257595 181.005982 
L 199.852809 182.603997 
L 200.448 184.560692 
L 201.638382 189.688991 
L 204.019191 201.717962 
L 204.614382 202.560735 
L 205.209618 201.127203 
L 205.804809 197.206899 
L 207.590427 179.483803 
L 208.185618 175.346897 
L 208.780809 172.75832 
L 209.376 171.406837 
L 209.971191 170.880063 
L 210.566382 170.825409 
L 211.756809 171.23721 
L 212.947191 171.641728 
L 214.137573 171.777963 
L 215.328 171.619562 
L 216.518427 171.155913 
L 217.708809 170.313713 
L 218.304 169.701515 
L 218.899191 168.920187 
L 219.494382 167.926439 
L 220.089573 166.665278 
L 220.684764 165.069573 
L 221.28 163.060814 
L 221.875191 160.555631 
L 222.470382 157.481497 
L 223.660764 149.644646 
L 224.851191 141.485209 
L 225.446382 139.330994 
L 226.041618 140.15967 
L 226.636809 144.739518 
L 229.017618 174.316325 
L 229.612809 177.425805 
L 230.208 178.86245 
L 230.803236 179.309075 
L 231.398427 179.283442 
L 232.588809 178.984264 
L 233.184 178.992859 
L 233.779191 179.186166 
L 234.374382 179.587239 
L 234.969573 180.210284 
L 235.564809 181.068885 
L 236.16 182.179191 
L 236.755191 183.559478 
L 237.945573 187.180914 
L 240.921618 198.004352 
L 241.516809 198.472811 
L 242.112 197.475484 
L 242.707191 194.920891 
L 243.897573 186.81306 
L 245.088 179.3517 
L 245.683191 176.977495 
L 246.278382 175.521301 
L 246.873573 174.790267 
L 247.468764 174.567837 
L 248.064 174.673646 
L 249.254382 175.412431 
L 250.444809 176.524329 
L 251.635191 177.986906 
L 252.825618 180.002574 
L 254.016 182.888682 
L 255.206427 186.985374 
L 256.396809 192.370337 
L 257.587191 198.046318 
L 258.182382 200.066838 
L 258.777573 200.745518 
L 259.372809 199.529518 
L 259.968 196.264004 
L 262.348809 177.203189 
L 262.944 174.662031 
L 263.539191 173.231005 
L 264.134427 172.598299 
L 264.729618 172.468197 
L 265.324809 172.617905 
L 267.110382 173.587212 
L 269.491191 175.048316 
L 270.681573 176.043464 
L 271.872 177.501498 
L 272.467191 178.50115 
L 273.062382 179.748841 
L 273.657618 181.306959 
L 274.252809 183.245528 
L 274.848 185.636442 
L 276.038382 191.961564 
L 277.824 203.259944 
L 278.419236 205.27355 
L 279.014427 204.701848 
L 279.609618 200.859288 
L 280.8 186.291167 
L 281.395191 179.10157 
L 281.990382 173.796666 
L 282.585573 170.55 
L 283.180809 168.918891 
L 283.776 168.314776 
L 284.371191 168.251552 
L 286.156809 168.656999 
L 286.752 168.602186 
L 287.347191 168.382154 
L 287.942427 167.981729 
L 288.537618 167.387275 
L 289.132809 166.581086 
L 289.728 165.538928 
L 290.323191 164.230249 
L 290.918382 162.6203 
L 292.108764 158.382792 
L 293.299191 152.890698 
L 294.489573 147.44793 
L 295.084764 145.799595 
L 295.68 145.678286 
L 296.275191 147.541178 
L 296.870382 151.356291 
L 298.656 166.430697 
L 299.251191 169.840427 
L 299.846382 171.998449 
L 300.441618 173.144792 
L 301.036809 173.593216 
L 301.632 173.617204 
L 302.822427 173.102892 
L 305.798382 171.281669 
L 306.988809 170.336318 
L 308.179191 168.987679 
L 308.774382 168.071936 
L 309.369573 166.932705 
L 309.964809 165.512354 
L 310.56 163.744537 
L 311.155191 161.558165 
L 311.750427 158.888728 
L 312.940809 152.04614 
L 314.131191 144.400049 
L 314.726382 141.697719 
L 315.321573 141.097105 
L 315.916764 143.526945 
L 316.512 149.07055 
L 318.297573 170.233173 
L 318.892764 174.281245 
L 319.488 176.516139 
L 320.083191 177.492149 
L 320.678382 177.742765 
L 321.868809 177.474849 
L 322.464 177.336752 
L 323.059191 177.313172 
L 323.654382 177.439146 
L 324.249618 177.732714 
L 324.844809 178.206849 
L 325.44 178.876593 
L 326.035236 179.762838 
L 326.630427 180.893505 
L 327.225618 182.303186 
L 327.820809 184.029276 
L 329.011191 188.542304 
L 331.392 199.637427 
L 331.987191 200.95447 
L 332.582382 200.517815 
L 333.177573 197.961392 
L 333.772809 193.513267 
L 334.963191 182.673345 
L 335.558427 178.283027 
L 336.153618 175.220272 
L 336.748809 173.393324 
L 337.344 172.501417 
L 337.939191 172.219841 
L 338.534382 172.28888 
L 339.724764 172.844087 
L 343.891191 175.152488 
L 345.081618 176.198104 
L 345.676809 176.908971 
L 346.272 177.797104 
L 346.867191 178.912036 
L 347.462382 180.313692 
L 348.057618 182.072624 
L 348.652809 184.266653 
L 349.248 186.971653 
L 350.438427 194.039483 
L 351.628809 202.239238 
L 352.224 205.317654 
L 352.819191 206.23523 
L 353.414382 203.890398 
L 354.009573 198.077775 
L 355.795191 175.275747 
L 356.390382 170.98252 
L 356.985573 168.665595 
L 357.580809 167.68987 
L 358.176 167.462655 
L 360.556809 167.797228 
L 361.152 167.57605 
L 361.747191 167.156697 
L 362.342382 166.525103 
L 362.937573 165.665333 
L 363.532764 164.55701 
L 364.128 163.17541 
L 365.318382 159.504471 
L 366.508764 154.66451 
L 367.699191 149.527862 
L 368.294382 147.608779 
L 368.889618 146.774085 
L 369.484809 147.50208 
L 370.08 149.994255 
L 371.270382 158.695803 
L 372.460809 167.051259 
L 373.056 169.729621 
L 373.651236 171.370963 
L 374.246427 172.19985 
L 374.841618 172.470684 
L 375.436809 172.394737 
L 376.627191 171.736119 
L 377.817573 170.796086 
L 379.008 169.637926 
L 380.198382 168.093165 
L 381.388809 165.870403 
L 381.984 164.38704 
L 382.579191 162.58494 
L 383.769618 157.843331 
L 384.96 151.651306 
L 386.150382 145.600895 
L 386.745573 143.969189 
L 387.340764 144.279124 
L 387.936 147.020321 
L 388.531191 151.972582 
L 389.721573 164.108708 
L 390.316764 168.920878 
L 390.912 172.18877 
L 391.507191 174.067909 
L 392.102382 174.939092 
L 392.697618 175.18536 
L 393.292809 175.099801 
L 395.673618 174.238551 
L 396.864 174.105912 
L 398.054427 174.221285 
L 399.244809 174.583242 
L 400.435191 175.247616 
L 401.625573 176.353996 
L 402.220809 177.147536 
L 402.816 178.159722 
L 403.411191 179.449419 
L 404.006382 181.088805 
L 404.601573 183.162725 
L 405.196809 185.76277 
L 405.792 188.969092 
L 406.982427 197.19133 
L 408.172809 205.712193 
L 408.768 207.816245 
L 409.363191 206.622985 
L 409.958382 201.378412 
L 411.744 175.810542 
L 412.339191 170.52749 
L 412.934382 167.622726 
L 413.529618 166.37004 
L 414.124809 166.045356 
L 414.72 166.129504 
L 414.72 166.129504 
" clip-path="url(#pe07e5ef5c0)" style="fill: none; stroke: #0000cc; stroke-width: 1.5; stroke-linecap: square"/>
   </g>
   <g id="line2d_28">
    <path d="M 57.6 179.900369 
L 58.195191 181.254155 
L 58.790405 182.892872 
L 59.980809 187.207736 
L 61.171191 192.952642 
L 62.361595 199.026586 
L 62.956786 201.130567 
L 63.552 201.699437 
L 64.147191 200.121508 
L 64.742405 196.283106 
L 66.528 179.713521 
L 67.123191 175.862288 
L 67.718405 173.429443 
L 68.313595 172.141701 
L 68.908809 171.631433 
L 69.504 171.57947 
L 70.694405 172.027642 
L 72.48 172.775394 
L 74.265595 173.219514 
L 77.241595 173.830891 
L 78.432 174.249952 
L 79.622405 174.919845 
L 80.812809 176.018466 
L 81.408 176.814168 
L 82.003191 177.840071 
L 82.598405 179.163108 
L 83.193595 180.866388 
L 83.788809 183.049883 
L 84.384 185.824403 
L 84.979191 189.294533 
L 86.169595 198.382989 
L 87.36 207.926933 
L 87.955191 210.104471 
L 88.550405 208.261443 
L 89.145595 201.607437 
L 90.931191 172.773795 
L 91.526405 167.645064 
L 92.121595 165.100326 
L 92.716809 164.179188 
L 93.312 164.072056 
L 94.502405 164.44608 
L 95.097595 164.487715 
L 95.692809 164.316249 
L 96.288 163.906272 
L 96.883191 163.251527 
L 97.478405 162.354831 
L 98.668786 159.878946 
L 100.454405 155.007362 
L 101.049595 153.439477 
L 101.644786 152.187563 
L 102.24 151.48377 
L 102.835191 151.545729 
L 103.430405 152.501923 
L 104.025595 154.318468 
L 106.406405 164.395367 
L 107.001595 166.099656 
L 107.596809 167.239601 
L 108.192 167.876678 
L 108.787191 168.106234 
L 109.382405 168.022016 
L 109.977595 167.698578 
L 110.572786 167.186351 
L 111.763191 165.686943 
L 112.953595 163.55768 
L 114.144 160.717096 
L 115.334405 157.186124 
L 116.524809 153.434159 
L 117.12 151.855753 
L 117.715191 150.802935 
L 118.310405 150.550175 
L 118.905595 151.30184 
L 119.500809 153.09044 
L 120.691191 158.779271 
L 121.881595 164.450569 
L 122.476786 166.469366 
L 123.072 167.834389 
L 123.667191 168.617598 
L 124.262405 168.936925 
L 124.857595 168.90995 
L 125.452786 168.630336 
L 126.048 168.161451 
L 127.238405 166.77403 
L 128.428809 164.794374 
L 129.619191 162.093148 
L 130.809595 158.554803 
L 133.190405 150.635718 
L 133.785595 149.586942 
L 134.380786 149.529739 
L 134.976 150.688087 
L 135.571191 153.043639 
L 137.952 165.961974 
L 138.547191 167.943825 
L 139.142405 169.187269 
L 139.737595 169.824248 
L 140.332809 170.010865 
L 140.928 169.882523 
L 141.523191 169.537458 
L 142.713595 168.408016 
L 143.904 166.778442 
L 145.094405 164.527986 
L 146.284786 161.42705 
L 147.475191 157.324809 
L 149.260786 150.329062 
L 149.856 148.653166 
L 150.451191 147.956761 
L 151.046405 148.627017 
L 151.641595 150.817231 
L 152.236809 154.293023 
L 154.022405 166.018611 
L 154.617595 168.557837 
L 155.212809 170.178037 
L 155.808 171.042945 
L 156.403191 171.360898 
L 156.998405 171.315725 
L 157.593595 171.042433 
L 158.784 170.109771 
L 159.974405 168.82148 
L 161.164786 167.08922 
L 162.355191 164.655121 
L 163.545595 161.188306 
L 164.736 156.453267 
L 166.521595 148.22699 
L 167.116809 146.375423 
L 167.712 145.870091 
L 168.307191 147.209165 
L 168.902405 150.491309 
L 171.283191 168.837919 
L 171.878405 171.258079 
L 172.473595 172.621976 
L 173.068786 173.222757 
L 173.664 173.338216 
L 174.259191 173.177965 
L 175.449595 172.518091 
L 177.830405 170.863318 
L 179.020809 169.753595 
L 180.211191 168.164411 
L 180.806405 167.088987 
L 181.401595 165.758025 
L 181.996786 164.110659 
L 182.592 162.081704 
L 183.187191 159.610242 
L 184.377595 153.25471 
L 185.568 145.917278 
L 186.163191 143.031159 
L 186.758405 141.839803 
L 187.353595 143.276344 
L 187.948809 147.684121 
L 189.734405 167.931479 
L 190.329595 172.447782 
L 190.924809 175.150914 
L 191.52 176.477111 
L 192.115191 176.939375 
L 192.710405 176.948274 
L 194.496 176.473706 
L 195.091191 176.47153 
L 195.686405 176.604434 
L 196.281595 176.883746 
L 196.876786 177.320329 
L 197.472 177.928931 
L 198.067191 178.731522 
L 198.662405 179.758526 
L 199.257595 181.048881 
L 199.852809 182.648712 
L 200.448 184.606454 
L 201.638382 189.729892 
L 204.019191 201.670199 
L 204.614382 202.47501 
L 205.209618 201.013258 
L 205.804809 197.088467 
L 207.590427 179.481556 
L 208.185618 175.381749 
L 208.780809 172.815943 
L 209.376 171.475836 
L 209.971191 170.953783 
L 210.566382 170.900997 
L 211.756809 171.317054 
L 212.947191 171.733807 
L 214.137618 171.89453 
L 215.328 171.77745 
L 216.518382 171.380133 
L 217.708809 170.642717 
L 218.304 170.103987 
L 218.899236 169.414817 
L 219.494427 168.536534 
L 220.089618 167.419275 
L 220.684809 166.000869 
L 221.28 164.206677 
L 221.875191 161.951869 
L 222.470382 159.152219 
L 223.660809 151.75626 
L 224.851191 143.076185 
L 225.446382 139.828394 
L 226.041618 138.951529 
L 226.636809 141.659278 
L 227.232 148.116587 
L 228.422382 165.515179 
L 229.017618 172.228924 
L 229.612809 176.463622 
L 230.208 178.642175 
L 230.803236 179.488906 
L 231.398427 179.63183 
L 233.184 179.27457 
L 233.779191 179.390926 
L 234.374382 179.712903 
L 234.969618 180.256883 
L 235.564809 181.035393 
L 236.16 182.06164 
L 236.755191 183.350667 
L 237.945618 186.760885 
L 239.136 191.165641 
L 240.326382 195.701147 
L 240.921618 197.349995 
L 241.516809 198.048267 
L 242.112 197.418064 
L 242.707236 195.304563 
L 243.302427 191.926421 
L 245.088 180.389602 
L 245.683191 177.852403 
L 246.278382 176.217898 
L 246.873618 175.333445 
L 247.468809 174.998067 
L 248.064 175.031097 
L 248.659191 175.298969 
L 249.849618 176.239201 
L 251.04 177.556363 
L 252.230382 179.336117 
L 253.420809 181.83398 
L 254.611236 185.369984 
L 255.801618 190.139686 
L 257.587191 198.113419 
L 258.182382 199.733096 
L 258.777618 199.947863 
L 259.372809 198.325365 
L 259.968 194.860374 
L 261.753618 180.546627 
L 262.348809 177.144489 
L 262.944 174.925544 
L 263.539191 173.69922 
L 264.134382 173.182124 
L 264.729618 173.114128 
L 265.324809 173.302277 
L 266.515236 174.004071 
L 268.300809 175.32304 
L 269.491191 176.443432 
L 270.681618 178.004165 
L 271.276809 179.046418 
L 271.872 180.328246 
L 272.467191 181.906908 
L 273.062382 183.843548 
L 274.252809 189.000096 
L 276.633618 202.215557 
L 277.228809 203.660899 
L 277.824 202.745045 
L 278.419236 199.026441 
L 279.609618 186.059509 
L 280.204809 179.748481 
L 280.8 175.026427 
L 281.395191 172.057416 
L 281.990382 170.504015 
L 282.585618 169.888548 
L 283.180809 169.798957 
L 285.561618 170.412376 
L 286.156809 170.387522 
L 286.752 170.24289 
L 287.347191 169.971489 
L 287.942382 169.564085 
L 288.537618 169.005604 
L 289.132809 168.273866 
L 289.728 167.337475 
L 290.323236 166.155266 
L 290.918427 164.677435 
L 291.513618 162.846657 
L 292.108809 160.60544 
L 293.299191 154.763555 
L 295.084809 144.507639 
L 295.68 142.594612 
L 296.275191 142.859715 
L 296.870382 145.914423 
L 297.465618 151.51823 
L 298.656 165.072963 
L 299.251191 170.253847 
L 299.846382 173.643128 
L 300.441618 175.499288 
L 301.036809 176.297864 
L 301.632 176.481084 
L 302.822427 176.165621 
L 304.012809 175.883125 
L 304.608 175.891384 
L 305.203191 176.021289 
L 305.798382 176.280293 
L 306.393618 176.677633 
L 306.988809 177.227435 
L 307.584 177.951222 
L 308.179191 178.879279 
L 308.774382 180.051418 
L 309.369618 181.516587 
L 309.964809 183.330199 
L 310.56 185.548223 
L 311.750382 191.320324 
L 313.536 201.449657 
L 314.131236 203.363599 
L 314.726427 203.156587 
L 315.321618 200.217797 
L 315.916809 194.762206 
L 317.107191 181.404735 
L 317.702382 176.233146 
L 318.297618 172.816691 
L 318.892809 170.9234 
L 319.488 170.092981 
L 320.083191 169.88952 
L 321.273618 170.199436 
L 322.464 170.513597 
L 323.059191 170.532936 
L 323.654382 170.438873 
L 324.249618 170.224837 
L 324.844809 169.883332 
L 325.44 169.402274 
L 326.035236 168.762777 
L 326.630427 167.937662 
L 327.225618 166.890065 
L 327.820809 165.573604 
L 328.416 163.932958 
L 329.011191 161.907818 
L 330.201618 156.50663 
L 332.582382 143.196329 
L 333.177618 142.14878 
L 333.772809 143.693678 
L 334.368 148.116381 
L 336.153618 167.912672 
L 336.748809 172.29616 
L 337.344 174.922868 
L 337.939236 176.214804 
L 338.534427 176.665643 
L 339.129618 176.671594 
L 340.915191 176.169318 
L 341.510382 176.142164 
L 342.105618 176.239847 
L 342.700809 176.472717 
L 343.296 176.849796 
L 343.891191 177.384173 
L 344.486382 178.095667 
L 345.081618 179.012499 
L 345.676809 180.171914 
L 346.272 181.619822 
L 346.867191 183.408549 
L 347.462382 185.589482 
L 348.652809 191.232039 
L 350.438427 201.024231 
L 351.033618 202.860893 
L 351.628809 202.672971 
L 352.224 199.887425 
L 352.819191 194.697037 
L 354.009618 181.845585 
L 354.604809 176.78036 
L 355.2 173.380131 
L 355.795191 171.456691 
L 356.390382 170.586037 
L 356.985618 170.352076 
L 357.580809 170.442604 
L 359.366382 171.039439 
L 360.556809 171.109977 
L 361.747236 170.792243 
L 362.937618 170.041019 
L 363.532809 169.468181 
L 364.128 168.730944 
L 364.723191 167.792916 
L 365.318382 166.607552 
L 365.913618 165.117582 
L 366.508809 163.256787 
L 367.104 160.954796 
L 368.294382 154.826599 
L 370.08 143.505294 
L 370.675191 141.192937 
L 371.270382 141.272216 
L 371.865618 144.542189 
L 372.460809 150.783815 
L 373.651236 165.921686 
L 374.246427 171.551146 
L 374.841618 175.113177 
L 375.436809 176.975529 
L 376.032 177.718881 
L 376.627191 177.849949 
L 378.412809 177.433338 
L 379.008 177.454324 
L 379.603191 177.63404 
L 380.198382 177.988673 
L 380.793618 178.531511 
L 381.388809 179.278913 
L 381.984 180.253852 
L 382.579191 181.48609 
L 383.174382 183.010603 
L 384.364809 187.067782 
L 385.555236 192.460813 
L 386.745618 198.155289 
L 387.340809 200.171793 
L 387.936 200.82637 
L 388.531191 199.56314 
L 389.126382 196.234428 
L 391.507191 177.064222 
L 392.102382 174.541558 
L 392.697618 173.130214 
L 393.292809 172.51346 
L 393.888 172.393459 
L 394.483191 172.547817 
L 396.268809 173.505774 
L 398.649618 174.904078 
L 399.84 175.839558 
L 401.030382 177.205993 
L 401.625618 178.14332 
L 402.220809 179.314552 
L 402.816 180.780205 
L 403.411191 182.609675 
L 404.006382 184.877271 
L 404.601618 187.650075 
L 405.792 194.750192 
L 406.982382 202.55505 
L 407.577618 205.150069 
L 408.172809 205.423752 
L 408.768 202.464045 
L 409.363236 196.343752 
L 410.553618 180.779416 
L 411.148809 174.827151 
L 411.744 171.016438 
L 412.339191 169.001784 
L 412.934382 168.181295 
L 413.529618 168.018382 
L 414.72 168.313956 
L 414.72 168.313956 
" clip-path="url(#pe07e5ef5c0)" style="fill: none; stroke-dasharray: 5.55,2.4; stroke-dashoffset: 0; stroke: #ff0000; stroke-width: 1.5"/>
   </g>
   <g id="patch_8">
    <path d="M 57.6 213.662118 
L 57.6 135.393882 
" style="fill: none; stroke: #000000; stroke-width: 0.8; stroke-linejoin: miter; stroke-linecap: square"/>
   </g>
   <g id="patch_9">
    <path d="M 414.72 213.662118 
L 414.72 135.393882 
" style="fill: none; stroke: #000000; stroke-width: 0.8; stroke-linejoin: miter; stroke-linecap: square"/>
   </g>
   <g id="patch_10">
    <path d="M 57.6 213.662118 
L 414.72 213.662118 
" style="fill: none; stroke: #000000; stroke-width: 0.8; stroke-linejoin: miter; stroke-linecap: square"/>
   </g>
   <g id="patch_11">
    <path d="M 57.6 135.393882 
L 414.72 135.393882 
" style="fill: none; stroke: #000000; stroke-width: 0.8; stroke-linejoin: miter; stroke-linecap: square"/>
   </g>
  </g>
  <g id="axes_3">
   <g id="patch_12">
    <path d="M 57.6 307.584 
L 414.72 307.584 
L 414.72 229.315765 
L 57.6 229.315765 
z
" style="fill: #ffffff"/>
   </g>
   <g id="matplotlib.axis_5">
    <g id="xtick_19">
     <g id="line2d_29">
      <g>
       <use xlink:href="#me89d5d7f48" x="57.6" y="307.584" style="stroke: #000000; stroke-width: 0.8"/>
      </g>
     </g>
     <g id="text_7">
      <!-- 10 -->
      <g transform="translate(51.2375 322.182437)scale(0.1 -0.1)">
       <use xlink:href="#DejaVuSans-31"/>
       <use xlink:href="#DejaVuSans-30" x="63.623047"/>
      </g>
     </g>
    </g>
    <g id="xtick_20">
     <g id="line2d_30">
      <g>
       <use xlink:href="#me89d5d7f48" x="105.216" y="307.584" style="stroke: #000000; stroke-width: 0.8"/>
      </g>
     </g>
     <g id="text_8">
      <!-- 12 -->
      <g transform="translate(98.8535 322.182437)scale(0.1 -0.1)">
       <use xlink:href="#DejaVuSans-31"/>
       <use xlink:href="#DejaVuSans-32" x="63.623047"/>
      </g>
     </g>
    </g>
    <g id="xtick_21">
     <g id="line2d_31">
      <g>
       <use xlink:href="#me89d5d7f48" x="152.832" y="307.584" style="stroke: #000000; stroke-width: 0.8"/>
      </g>
     </g>
     <g id="text_9">
      <!-- 14 -->
      <g transform="translate(146.4695 322.182437)scale(0.1 -0.1)">
       <defs>
        <path id="DejaVuSans-34" d="M 2419 4116 
L 825 1625 
L 2419 1625 
L 2419 4116 
z
M 2253 4666 
L 3047 4666 
L 3047 1625 
L 3713 1625 
L 3713 1100 
L 3047 1100 
L 3047 0 
L 2419 0 
L 2419 1100 
L 313 1100 
L 313 1709 
L 2253 4666 
z
" transform="scale(0.015625)"/>
       </defs>
       <use xlink:href="#DejaVuSans-31"/>
       <use xlink:href="#DejaVuSans-34" x="63.623047"/>
      </g>
     </g>
    </g>
    <g id="xtick_22">
     <g id="line2d_32">
      <g>
       <use xlink:href="#me89d5d7f48" x="200.448" y="307.584" style="stroke: #000000; stroke-width: 0.8"/>
      </g>
     </g>
     <g id="text_10">
      <!-- 16 -->
      <g transform="translate(194.0855 322.182437)scale(0.1 -0.1)">
       <defs>
        <path id="DejaVuSans-36" d="M 2113 2584 
Q 1688 2584 1439 2293 
Q 1191 2003 1191 1497 
Q 1191 994 1439 701 
Q 1688 409 2113 409 
Q 2538 409 2786 701 
Q 3034 994 3034 1497 
Q 3034 2003 2786 2293 
Q 2538 2584 2113 2584 
z
M 3366 4563 
L 3366 3988 
Q 3128 4100 2886 4159 
Q 2644 4219 2406 4219 
Q 1781 4219 1451 3797 
Q 1122 3375 1075 2522 
Q 1259 2794 1537 2939 
Q 1816 3084 2150 3084 
Q 2853 3084 3261 2657 
Q 3669 2231 3669 1497 
Q 3669 778 3244 343 
Q 2819 -91 2113 -91 
Q 1303 -91 875 529 
Q 447 1150 447 2328 
Q 447 3434 972 4092 
Q 1497 4750 2381 4750 
Q 2619 4750 2861 4703 
Q 3103 4656 3366 4563 
z
" transform="scale(0.015625)"/>
       </defs>
       <use xlink:href="#DejaVuSans-31"/>
       <use xlink:href="#DejaVuSans-36" x="63.623047"/>
      </g>
     </g>
    </g>
    <g id="xtick_23">
     <g id="line2d_33">
      <g>
       <use xlink:href="#me89d5d7f48" x="248.064" y="307.584" style="stroke: #000000; stroke-width: 0.8"/>
      </g>
     </g>
     <g id="text_11">
      <!-- 18 -->
      <g transform="translate(241.7015 322.182437)scale(0.1 -0.1)">
       <defs>
        <path id="DejaVuSans-38" d="M 2034 2216 
Q 1584 2216 1326 1975 
Q 1069 1734 1069 1313 
Q 1069 891 1326 650 
Q 1584 409 2034 409 
Q 2484 409 2743 651 
Q 3003 894 3003 1313 
Q 3003 1734 2745 1975 
Q 2488 2216 2034 2216 
z
M 1403 2484 
Q 997 2584 770 2862 
Q 544 3141 544 3541 
Q 544 4100 942 4425 
Q 1341 4750 2034 4750 
Q 2731 4750 3128 4425 
Q 3525 4100 3525 3541 
Q 3525 3141 3298 2862 
Q 3072 2584 2669 2484 
Q 3125 2378 3379 2068 
Q 3634 1759 3634 1313 
Q 3634 634 3220 271 
Q 2806 -91 2034 -91 
Q 1263 -91 848 271 
Q 434 634 434 1313 
Q 434 1759 690 2068 
Q 947 2378 1403 2484 
z
M 1172 3481 
Q 1172 3119 1398 2916 
Q 1625 2713 2034 2713 
Q 2441 2713 2670 2916 
Q 2900 3119 2900 3481 
Q 2900 3844 2670 4047 
Q 2441 4250 2034 4250 
Q 1625 4250 1398 4047 
Q 1172 3844 1172 3481 
z
" transform="scale(0.015625)"/>
       </defs>
       <use xlink:href="#DejaVuSans-31"/>
       <use xlink:href="#DejaVuSans-38" x="63.623047"/>
      </g>
     </g>
    </g>
    <g id="xtick_24">
     <g id="line2d_34">
      <g>
       <use xlink:href="#me89d5d7f48" x="295.68" y="307.584" style="stroke: #000000; stroke-width: 0.8"/>
      </g>
     </g>
     <g id="text_12">
      <!-- 20 -->
      <g transform="translate(289.3175 322.182437)scale(0.1 -0.1)">
       <use xlink:href="#DejaVuSans-32"/>
       <use xlink:href="#DejaVuSans-30" x="63.623047"/>
      </g>
     </g>
    </g>
    <g id="xtick_25">
     <g id="line2d_35">
      <g>
       <use xlink:href="#me89d5d7f48" x="343.296" y="307.584" style="stroke: #000000; stroke-width: 0.8"/>
      </g>
     </g>
     <g id="text_13">
      <!-- 22 -->
      <g transform="translate(336.9335 322.182437)scale(0.1 -0.1)">
       <use xlink:href="#DejaVuSans-32"/>
       <use xlink:href="#DejaVuSans-32" x="63.623047"/>
      </g>
     </g>
    </g>
    <g id="xtick_26">
     <g id="line2d_36">
      <g>
       <use xlink:href="#me89d5d7f48" x="390.912" y="307.584" style="stroke: #000000; stroke-width: 0.8"/>
      </g>
     </g>
     <g id="text_14">
      <!-- 24 -->
      <g transform="translate(384.5495 322.182437)scale(0.1 -0.1)">
       <use xlink:href="#DejaVuSans-32"/>
       <use xlink:href="#DejaVuSans-34" x="63.623047"/>
      </g>
     </g>
    </g>
    <g id="xtick_27">
     <g id="line2d_37">
      <g>
       <use xlink:href="#me89d5d7f48" x="414.72" y="307.584" style="stroke: #000000; stroke-width: 0.8"/>
      </g>
     </g>
     <g id="text_15">
      <!-- 25 -->
      <g transform="translate(408.3575 322.182437)scale(0.1 -0.1)">
       <defs>
        <path id="DejaVuSans-35" d="M 691 4666 
L 3169 4666 
L 3169 4134 
L 1269 4134 
L 1269 2991 
Q 1406 3038 1543 3061 
Q 1681 3084 1819 3084 
Q 2600 3084 3056 2656 
Q 3513 2228 3513 1497 
Q 3513 744 3044 326 
Q 2575 -91 1722 -91 
Q 1428 -91 1123 -41 
Q 819 9 494 109 
L 494 744 
Q 775 591 1075 516 
Q 1375 441 1709 441 
Q 2250 441 2565 725 
Q 2881 1009 2881 1497 
Q 2881 1984 2565 2268 
Q 2250 2553 1709 2553 
Q 1456 2553 1204 2497 
Q 953 2441 691 2322 
L 691 4666 
z
" transform="scale(0.015625)"/>
       </defs>
       <use xlink:href="#DejaVuSans-32"/>
       <use xlink:href="#DejaVuSans-35" x="63.623047"/>
      </g>
     </g>
    </g>
   </g>
   <g id="matplotlib.axis_6">
    <g id="ytick_7">
     <g id="line2d_38">
      <g>
       <use xlink:href="#m30cfe5d871" x="57.6" y="278.365647" style="stroke: #000000; stroke-width: 0.8"/>
      </g>
     </g>
     <g id="text_16">
      <!-- 20 -->
      <g transform="translate(37.875 282.164865)scale(0.1 -0.1)">
       <use xlink:href="#DejaVuSans-32"/>
       <use xlink:href="#DejaVuSans-30" x="63.623047"/>
      </g>
     </g>
    </g>
    <g id="ytick_8">
     <g id="line2d_39">
      <g>
       <use xlink:href="#m30cfe5d871" x="57.6" y="240.475681" style="stroke: #000000; stroke-width: 0.8"/>
      </g>
     </g>
     <g id="text_17">
      <!-- 40 -->
      <g transform="translate(37.875 244.2749)scale(0.1 -0.1)">
       <use xlink:href="#DejaVuSans-34"/>
       <use xlink:href="#DejaVuSans-30" x="63.623047"/>
      </g>
     </g>
    </g>
   </g>
   <g id="line2d_40">
    <path d="M 57.6 286.999263 
L 58.195191 288.215705 
L 58.790405 289.091263 
L 59.385595 289.528644 
L 59.980809 289.386581 
L 60.576 288.468943 
L 61.171191 286.522032 
L 61.766405 283.256834 
L 62.361595 278.423448 
L 62.956786 271.965082 
L 64.742405 249.275807 
L 65.337595 244.805109 
L 65.932786 243.417119 
L 66.528 244.774222 
L 67.123214 247.947898 
L 70.099214 267.524571 
L 71.289618 273.710729 
L 72.48 279.047424 
L 74.265618 285.795198 
L 76.051214 291.311303 
L 77.836809 295.81733 
L 79.027214 298.340445 
L 80.217595 300.509206 
L 81.408 302.305679 
L 82.598405 303.608924 
L 83.193595 303.972539 
L 83.788809 304.026353 
L 84.384 303.607859 
L 84.979191 302.455818 
L 85.574405 300.167257 
L 86.169595 296.165265 
L 86.764786 289.734398 
L 87.36 280.247095 
L 89.145595 241.236993 
L 89.740786 233.868482 
L 90.336 232.873412 
L 90.931214 236.736645 
L 92.716809 254.579948 
L 93.907214 263.066931 
L 95.097618 269.078436 
L 96.288 273.481705 
L 96.883214 275.165602 
L 97.478405 276.489735 
L 98.073618 277.415841 
L 98.668809 277.886363 
L 99.264 277.827111 
L 99.859214 277.152852 
L 100.454405 275.780566 
L 101.049595 273.653759 
L 101.644809 270.780215 
L 102.835214 263.416392 
L 104.025595 256.328503 
L 104.620809 254.022899 
L 105.216 252.937442 
L 105.811191 253.0795 
L 106.406405 254.254845 
L 107.001595 256.170043 
L 108.192 261.105598 
L 109.977595 268.737283 
L 111.168 273.113406 
L 112.358405 276.601474 
L 112.953595 277.922949 
L 113.548786 278.895136 
L 114.144 279.44871 
L 114.739214 279.49683 
L 115.334405 278.937138 
L 115.929618 277.660667 
L 116.524809 275.573652 
L 117.120023 272.636384 
L 118.310405 264.660443 
L 119.500786 256.358152 
L 120.095977 253.429326 
L 120.691191 251.864985 
L 121.286382 251.735863 
L 121.881595 252.842539 
L 122.476786 254.839626 
L 123.667191 260.151147 
L 125.452809 268.406946 
L 126.643214 273.182006 
L 127.833595 277.111597 
L 129.024 279.959949 
L 129.619191 280.857136 
L 130.214405 281.303013 
L 130.809595 281.194794 
L 131.404809 280.408532 
L 132 278.81009 
L 132.595191 276.283279 
L 133.190405 272.781375 
L 134.380786 263.465959 
L 135.571191 254.286386 
L 136.166405 251.379227 
L 136.761595 250.146479 
L 137.356786 250.541672 
L 137.952 252.222499 
L 139.142382 257.682389 
L 141.523191 269.546262 
L 142.713595 274.532094 
L 143.903977 278.676782 
L 145.094382 281.805966 
L 145.689595 282.884851 
L 146.284786 283.546018 
L 146.879977 283.685884 
L 147.475191 283.169645 
L 148.070405 281.834743 
L 148.665595 279.509867 
L 149.260809 276.061376 
L 149.856 271.477676 
L 151.641595 254.680509 
L 152.236809 250.585188 
L 152.832 248.427289 
L 153.427191 248.309436 
L 154.022405 249.873254 
L 154.617595 252.544563 
L 158.188786 271.69011 
L 159.379191 276.778853 
L 160.569595 281.065054 
L 161.76 284.453661 
L 162.355191 285.735093 
L 162.950382 286.664858 
L 163.545595 287.150924 
L 164.140786 287.063076 
L 164.736 286.225854 
L 165.331191 284.420569 
L 165.926382 281.409025 
L 166.521595 277.00211 
L 167.711977 264.309111 
L 168.902382 250.966514 
L 169.497595 246.815966 
L 170.092786 245.298973 
L 170.687977 246.224085 
L 171.283191 248.87806 
L 175.449595 273.311046 
L 176.64 278.58342 
L 177.830405 283.149015 
L 179.020809 287.058512 
L 180.211191 290.292699 
L 181.401595 292.704453 
L 181.996786 293.48647 
L 182.592 293.865694 
L 183.187191 293.691017 
L 183.782405 292.741232 
L 184.377595 290.711063 
L 184.972786 287.219987 
L 185.568 281.882115 
L 186.163191 274.492788 
L 187.948786 247.008105 
L 188.544 241.565623 
L 189.139191 240.083246 
L 189.734382 242.005648 
L 190.329595 245.986801 
L 192.115191 259.887881 
L 193.305595 267.422046 
L 194.495977 273.6165 
L 195.686405 278.834328 
L 196.876809 283.240832 
L 198.067214 286.856286 
L 199.257595 289.545311 
L 199.852809 290.429876 
L 200.448 290.892301 
L 201.043191 290.791637 
L 201.638382 289.927534 
L 202.233618 288.033141 
L 202.828809 284.791518 
L 203.424 279.904342 
L 204.019191 273.251079 
L 205.804809 248.960253 
L 206.4 243.970979 
L 206.995236 242.325149 
L 207.590427 243.686937 
L 208.185618 247.025081 
L 210.566382 263.747436 
L 211.756809 270.549183 
L 212.947191 276.329348 
L 214.137573 281.322233 
L 215.328 285.661829 
L 216.518427 289.428413 
L 217.708809 292.665747 
L 218.899191 295.367723 
L 220.089573 297.42175 
L 220.684764 298.10904 
L 221.28 298.462721 
L 221.875191 298.340727 
L 222.470382 297.523338 
L 223.065573 295.685262 
L 223.660764 292.37989 
L 224.256 287.075825 
L 224.851191 279.324133 
L 226.041618 257.494795 
L 226.636809 246.613673 
L 227.232 239.136968 
L 227.827191 236.593757 
L 228.422382 238.497519 
L 229.017618 243.061891 
L 230.803236 258.56589 
L 231.993618 266.314945 
L 233.184 272.359083 
L 234.374382 277.192929 
L 235.564809 280.92897 
L 236.16 282.339309 
L 236.755191 283.381421 
L 237.350382 283.977042 
L 237.945573 284.017151 
L 238.540809 283.358918 
L 239.136 281.831343 
L 239.731191 279.258455 
L 240.326427 275.513535 
L 241.516809 264.848191 
L 242.707191 253.463859 
L 243.302382 249.632127 
L 243.897573 247.873068 
L 244.492764 248.175225 
L 245.088 250.087005 
L 246.278382 256.370689 
L 248.064 266.483373 
L 249.254382 272.341643 
L 250.444809 277.403118 
L 251.635191 281.672977 
L 252.825618 285.066719 
L 253.420809 286.362847 
L 254.016 287.317834 
L 254.611236 287.841751 
L 255.206427 287.805386 
L 255.801618 287.032292 
L 256.396809 285.297308 
L 256.992 282.347925 
L 257.587191 277.966819 
L 258.182382 272.103423 
L 259.968 251.040255 
L 260.563191 246.52407 
L 261.158382 244.751259 
L 261.753573 245.569755 
L 262.348809 248.238583 
L 266.515191 273.15439 
L 267.705573 278.496587 
L 268.896 283.138055 
L 270.086382 287.153956 
L 271.276764 290.570802 
L 272.467191 293.340558 
L 273.062382 294.428021 
L 273.657618 295.25384 
L 274.252809 295.732556 
L 274.848 295.730681 
L 275.443191 295.045935 
L 276.038382 293.38569 
L 276.633618 290.358788 
L 277.228809 285.513485 
L 277.824 278.482267 
L 279.014427 258.788204 
L 279.609618 248.805063 
L 280.204809 241.610612 
L 280.8 238.666821 
L 281.395191 239.802679 
L 281.990382 243.627568 
L 283.776 258.296668 
L 284.966382 266.160805 
L 286.156809 272.473659 
L 287.347191 277.683404 
L 288.537618 281.966218 
L 289.728 285.282128 
L 290.323191 286.503299 
L 290.918382 287.352213 
L 291.513573 287.729197 
L 292.108764 287.492743 
L 292.704 286.452313 
L 293.299191 284.37336 
L 293.894382 281.008007 
L 294.489573 276.178723 
L 295.68 262.69732 
L 296.870382 249.433459 
L 297.465618 245.767891 
L 298.060809 244.860817 
L 298.656 246.336592 
L 299.251191 249.377472 
L 302.227236 268.002454 
L 303.417618 274.028752 
L 304.608 279.247357 
L 305.798382 283.778283 
L 306.988809 287.685524 
L 308.179191 290.978545 
L 309.369573 293.573926 
L 309.964809 294.533476 
L 310.56 295.182949 
L 311.155191 295.411381 
L 311.750427 295.0487 
L 312.345618 293.844756 
L 312.940809 291.453723 
L 313.536 287.447923 
L 314.131191 281.411531 
L 314.726382 273.17205 
L 316.512 244.395807 
L 317.107191 239.655323 
L 317.702382 239.181833 
L 318.297573 242.012373 
L 321.273618 264.684883 
L 322.464 271.291644 
L 323.654382 276.74279 
L 324.844809 281.269529 
L 326.035236 284.889799 
L 326.630427 286.311937 
L 327.225618 287.416008 
L 327.820809 288.125348 
L 328.416 288.327014 
L 329.011191 287.86157 
L 329.606382 286.517477 
L 330.201573 284.040312 
L 330.796809 280.176443 
L 331.392 274.779448 
L 333.772809 247.611763 
L 334.368 244.720203 
L 334.963191 244.648808 
L 335.558427 246.796417 
L 336.748809 254.248472 
L 338.534382 265.708215 
L 339.724764 272.092657 
L 340.915191 277.601172 
L 342.105573 282.389545 
L 343.296 286.554617 
L 344.486382 290.150994 
L 345.676809 293.188704 
L 346.867191 295.591757 
L 347.462382 296.483161 
L 348.057618 297.086346 
L 348.652809 297.292345 
L 349.248 296.931245 
L 349.843236 295.747321 
L 350.438427 293.377332 
L 351.033618 289.355369 
L 351.628809 283.194544 
L 352.224 274.630084 
L 354.009573 243.611851 
L 354.604809 238.346684 
L 355.2 237.777503 
L 355.795191 240.825023 
L 358.771191 264.383258 
L 359.961618 270.932056 
L 361.152 276.228536 
L 362.342382 280.496511 
L 363.532764 283.683649 
L 364.128 284.781961 
L 364.723191 285.456282 
L 365.318382 285.597097 
L 365.913573 285.056049 
L 366.508764 283.646593 
L 367.104 281.161613 
L 367.699191 277.423882 
L 368.294382 272.384017 
L 370.675191 249.029989 
L 371.270382 246.756867 
L 371.865618 246.821999 
L 372.460809 248.74079 
L 373.651236 255.388272 
L 375.436809 266.038089 
L 376.627191 272.142375 
L 377.817573 277.428269 
L 379.008 281.965747 
L 380.198382 285.755577 
L 381.388809 288.682748 
L 381.984 289.730137 
L 382.579191 290.404564 
L 383.174427 290.588463 
L 383.769618 290.111857 
L 384.364809 288.742012 
L 384.96 286.186621 
L 385.555191 282.133841 
L 386.150382 276.363991 
L 387.340764 260.548208 
L 387.936 252.41525 
L 388.531191 246.158114 
L 389.126382 242.956377 
L 389.721573 242.98105 
L 390.316764 245.473955 
L 391.507191 253.680657 
L 392.697618 261.981214 
L 393.888 269.048694 
L 395.078382 275.041085 
L 396.268809 280.209556 
L 397.459236 284.706096 
L 398.649618 288.624515 
L 399.84 292.028995 
L 401.030382 294.955729 
L 402.220809 297.393685 
L 403.411191 299.224868 
L 404.006382 299.812501 
L 404.601573 300.069406 
L 405.196809 299.845299 
L 405.792 298.905306 
L 406.387191 296.898478 
L 406.982427 293.337672 
L 407.577618 287.641191 
L 408.172809 279.319012 
L 410.553618 237.445626 
L 411.148809 235.45835 
L 411.744 238.024645 
L 412.934382 248.817832 
L 414.124809 258.923582 
L 414.72 262.983504 
L 414.72 262.983504 
" clip-path="url(#pa231a6e91c)" style="fill: none; stroke: #0000cc; stroke-width: 1.5; stroke-linecap: square"/>
   </g>
   <g id="line2d_41">
    <path d="M 57.6 286.999263 
L 58.195191 288.21568 
L 58.790405 289.091246 
L 59.385595 289.528671 
L 59.980809 289.386628 
L 60.576 288.468988 
L 61.171191 286.52218 
L 61.766405 283.257059 
L 62.361595 278.423733 
L 62.956786 271.965518 
L 64.742405 249.276103 
L 65.337595 244.805433 
L 65.932786 243.417329 
L 66.528 244.774308 
L 67.123191 247.947833 
L 70.099191 267.524494 
L 71.289595 273.710585 
L 72.48 279.047455 
L 74.265595 285.795126 
L 76.051191 291.311232 
L 77.836786 295.817161 
L 79.027191 298.340093 
L 80.217595 300.508427 
L 81.408 302.303887 
L 82.598405 303.604379 
L 83.193595 303.965382 
L 83.788809 304.014868 
L 84.384 303.589056 
L 84.979191 302.425967 
L 85.574405 300.119744 
L 86.169595 296.092289 
L 86.764786 289.6269 
L 87.36 280.101016 
L 89.145595 241.112306 
L 89.740786 233.824281 
L 90.336 232.904149 
L 90.931191 236.809287 
L 92.716809 254.644863 
L 93.907191 263.112933 
L 95.097595 269.113698 
L 96.288 273.509962 
L 96.883191 275.190467 
L 97.478405 276.511132 
L 98.073595 277.433065 
L 98.668786 277.898867 
L 99.264 277.833819 
L 99.859191 277.152732 
L 100.454405 275.772352 
L 101.049595 273.636605 
L 101.644786 270.75407 
L 104.025595 256.293739 
L 104.620809 253.997651 
L 105.216 252.924312 
L 105.811191 253.078532 
L 106.406405 254.264305 
L 107.001595 256.187162 
L 108.192 261.130561 
L 109.977595 268.763636 
L 111.168 273.138048 
L 112.358405 276.623256 
L 112.953595 277.942747 
L 113.548786 278.912454 
L 114.144 279.462907 
L 114.739191 279.507078 
L 115.334405 278.9424 
L 115.929595 277.659808 
L 116.524809 275.565431 
L 117.12 272.620193 
L 118.310405 264.629869 
L 119.500809 256.325965 
L 120.096 253.40352 
L 120.691191 251.848786 
L 121.286405 251.73017 
L 121.881595 252.846229 
L 122.476786 254.850595 
L 123.667191 260.169931 
L 125.452786 268.428103 
L 126.643191 273.20272 
L 127.833595 277.131386 
L 129.024 279.978063 
L 129.619191 280.874062 
L 130.214405 281.318475 
L 130.809595 281.208238 
L 131.404809 280.419214 
L 132 278.817069 
L 132.595191 276.285399 
L 133.190405 272.777709 
L 134.380786 263.450009 
L 135.571191 254.265098 
L 136.166405 251.360435 
L 136.761595 250.132733 
L 137.356786 250.534186 
L 137.952 252.220953 
L 139.142405 257.689131 
L 141.523191 269.558567 
L 142.713595 274.545395 
L 143.904 278.691306 
L 145.094405 281.822174 
L 145.689595 282.902068 
L 146.284786 283.564748 
L 146.88 283.706304 
L 147.475191 283.192085 
L 148.070405 281.85915 
L 148.665595 279.536029 
L 149.260786 276.088346 
L 149.856 271.503245 
L 151.641595 254.685155 
L 152.236809 250.579899 
L 152.832 248.414011 
L 153.427191 248.291485 
L 154.022405 249.854296 
L 154.617595 252.527065 
L 158.188786 271.686618 
L 159.379191 276.778901 
L 160.569595 281.069345 
L 161.76 284.464045 
L 162.355191 285.74989 
L 162.950405 286.68531 
L 163.545595 287.178932 
L 164.140809 287.100888 
L 164.736 286.276372 
L 165.331191 284.486665 
L 165.926405 281.492911 
L 166.521595 277.103709 
L 167.712 264.424078 
L 168.902405 251.030652 
L 169.497595 246.836071 
L 170.092786 245.277364 
L 170.688 246.173289 
L 171.283191 248.812652 
L 175.449595 273.271761 
L 176.64 278.551813 
L 177.830405 283.124946 
L 179.020809 287.043401 
L 180.211191 290.290725 
L 181.401595 292.725934 
L 181.996786 293.526936 
L 182.592 293.93339 
L 183.187191 293.797776 
L 183.782405 292.903301 
L 184.377595 290.949312 
L 184.972786 287.55724 
L 185.568 282.335206 
L 186.163191 275.056519 
L 187.948809 247.426037 
L 188.544 241.733434 
L 189.139191 240.006653 
L 189.734405 241.76305 
L 190.329595 245.67163 
L 192.115191 259.619799 
L 193.305595 267.205561 
L 194.496 273.433036 
L 195.686405 278.672659 
L 196.876786 283.094543 
L 198.067191 286.720076 
L 199.257595 289.412854 
L 199.852809 290.296169 
L 200.448 290.754849 
L 201.043191 290.647722 
L 201.638382 289.774463 
L 202.233618 287.869094 
L 202.828809 284.617398 
L 203.424 279.726223 
L 204.019191 273.083035 
L 205.804809 248.956647 
L 206.4 244.036327 
L 206.995236 242.43374 
L 207.590427 243.808116 
L 208.185618 247.13655 
L 210.566382 263.79567 
L 211.756809 270.58507 
L 212.947191 276.360242 
L 214.137618 281.352002 
L 215.328 285.693883 
L 216.518382 289.468741 
L 217.708809 292.72662 
L 218.899236 295.475674 
L 220.089618 297.639843 
L 220.684809 298.42978 
L 221.28 298.941763 
L 221.875191 299.062853 
L 222.470382 298.615089 
L 223.065618 297.326013 
L 223.660809 294.803609 
L 224.256 290.535352 
L 224.851191 283.976011 
L 225.446382 274.818845 
L 227.232 241.949802 
L 227.827191 236.784639 
L 228.422382 236.684914 
L 229.017618 240.283333 
L 231.398427 260.657049 
L 232.588809 267.882442 
L 233.779191 273.531069 
L 234.969618 277.999107 
L 236.16 281.304279 
L 236.755191 282.442526 
L 237.350382 283.152661 
L 237.945618 283.3364 
L 238.540809 282.864636 
L 239.136 281.580613 
L 239.731191 279.319346 
L 240.326382 275.95234 
L 240.921618 271.468424 
L 243.302427 250.88694 
L 243.897618 248.694327 
L 244.492809 248.503495 
L 245.088 249.981789 
L 245.683191 252.575819 
L 249.254382 271.544557 
L 250.444809 276.610646 
L 251.635191 280.866115 
L 252.825618 284.203421 
L 253.420809 285.4458 
L 254.016 286.323118 
L 254.611236 286.739525 
L 255.206427 286.560495 
L 255.801618 285.608108 
L 256.396809 283.66496 
L 256.992 280.504312 
L 257.587191 275.96466 
L 258.777618 263.257923 
L 259.968 250.509348 
L 260.563191 246.789294 
L 261.158382 245.643176 
L 261.753618 246.802903 
L 262.348809 249.55049 
L 265.92 270.752723 
L 267.110427 276.331427 
L 268.300809 281.15982 
L 269.491191 285.300879 
L 270.681618 288.745599 
L 271.872 291.364743 
L 272.467191 292.261597 
L 273.062382 292.775712 
L 273.657618 292.772114 
L 274.252809 292.053267 
L 274.848 290.345369 
L 275.443191 287.302156 
L 276.038382 282.557356 
L 276.633618 275.872277 
L 279.014427 243.308878 
L 279.609618 240.893094 
L 280.204809 241.950808 
L 280.8 245.352237 
L 283.180809 262.946769 
L 284.371191 269.917574 
L 285.561618 275.755821 
L 286.752 280.736481 
L 287.942382 284.985598 
L 289.132809 288.526435 
L 290.323236 291.260307 
L 290.918427 292.234998 
L 291.513618 292.85265 
L 292.108809 292.9907 
L 292.704 292.46828 
L 293.299191 291.029687 
L 293.894382 288.341263 
L 294.489618 284.027793 
L 295.084809 277.7943 
L 296.275191 260.340259 
L 296.870382 251.272163 
L 297.465618 244.366107 
L 298.060809 241.004402 
L 298.656 241.308959 
L 299.251191 244.292125 
L 302.227236 265.733691 
L 303.417618 272.231372 
L 304.608 277.715163 
L 305.798382 282.397279 
L 306.988809 286.357659 
L 308.179191 289.5691 
L 308.774382 290.844364 
L 309.369618 291.840296 
L 309.964809 292.478657 
L 310.56 292.639162 
L 311.155191 292.144266 
L 311.750382 290.743301 
L 312.345618 288.110371 
L 312.940809 283.880263 
L 313.536 277.764292 
L 314.726427 260.602638 
L 315.321618 251.643214 
L 315.916809 244.75864 
L 316.512 241.324195 
L 317.107191 241.503542 
L 317.702382 244.363331 
L 320.678382 265.639482 
L 321.868809 272.156814 
L 323.059191 277.668579 
L 324.249618 282.3894 
L 325.44 286.409076 
L 326.630427 289.724975 
L 327.820809 292.197791 
L 328.416 293.004814 
L 329.011191 293.407307 
L 329.606382 293.256498 
L 330.201618 292.335753 
L 330.796809 290.346803 
L 331.392 286.918722 
L 331.987191 281.680756 
L 332.582382 274.435013 
L 334.368 247.421568 
L 334.963191 241.986174 
L 335.558382 240.412215 
L 336.153618 242.201017 
L 336.748809 246.061767 
L 338.534427 259.818672 
L 339.724809 267.357052 
L 340.915191 273.578168 
L 342.105618 278.836031 
L 343.296 283.30234 
L 344.486382 287.017241 
L 345.676809 289.888341 
L 346.272 290.920013 
L 346.867191 291.58897 
L 347.462382 291.777607 
L 348.057618 291.313148 
L 348.652809 289.954204 
L 349.248 287.390838 
L 349.843236 283.279207 
L 350.438427 277.356315 
L 351.628809 260.815712 
L 352.224 252.175878 
L 352.819191 245.481572 
L 353.414382 242.047703 
L 354.009618 242.074789 
L 354.604809 244.725133 
L 355.795191 253.313949 
L 356.985618 261.826041 
L 358.176 268.967685 
L 359.366382 274.972708 
L 360.556809 280.122146 
L 361.747236 284.568519 
L 362.937618 288.385134 
L 364.128 291.58078 
L 365.318382 294.059163 
L 365.913618 294.942863 
L 366.508809 295.494577 
L 367.104 295.590305 
L 367.699191 295.041588 
L 368.294382 293.573668 
L 368.889618 290.813597 
L 369.484809 286.318579 
L 370.08 279.696647 
L 371.270382 260.568568 
L 371.865618 250.411802 
L 372.460809 242.664961 
L 373.056 238.990273 
L 373.651236 239.499287 
L 374.246427 242.953715 
L 376.627191 261.804954 
L 377.817618 268.957124 
L 379.008 274.785845 
L 380.198382 279.623024 
L 381.388809 283.554155 
L 382.579191 286.462458 
L 383.174382 287.424755 
L 383.769618 287.950085 
L 384.364809 287.908882 
L 384.96 287.1235 
L 385.555236 285.366736 
L 386.150427 282.383356 
L 386.745618 277.955031 
L 387.340809 272.032455 
L 389.126382 250.843661 
L 389.721618 246.350485 
L 390.316809 244.631774 
L 390.912 245.514336 
L 391.507191 248.23731 
L 395.078382 270.256592 
L 396.268809 275.993494 
L 397.459236 280.971926 
L 398.649618 285.296825 
L 399.84 289.024575 
L 401.030382 292.159662 
L 402.220809 294.610994 
L 402.816 295.498598 
L 403.411191 296.070581 
L 404.006382 296.208462 
L 404.601618 295.730007 
L 405.196809 294.366696 
L 405.792 291.747944 
L 406.387191 287.41966 
L 406.982382 280.952417 
L 407.577618 272.208274 
L 408.768 251.235169 
L 409.363236 242.92932 
L 409.958427 238.708313 
L 410.553618 238.862686 
L 411.148809 242.194199 
L 413.529618 261.336284 
L 414.72 268.563918 
L 414.72 268.563918 
" clip-path="url(#pa231a6e91c)" style="fill: none; stroke-dasharray: 5.55,2.4; stroke-dashoffset: 0; stroke: #ff0000; stroke-width: 1.5"/>
   </g>
   <g id="patch_13">
    <path d="M 57.6 307.584 
L 57.6 229.315765 
" style="fill: none; stroke: #000000; stroke-width: 0.8; stroke-linejoin: miter; stroke-linecap: square"/>
   </g>
   <g id="patch_14">
    <path d="M 414.72 307.584 
L 414.72 229.315765 
" style="fill: none; stroke: #000000; stroke-width: 0.8; stroke-linejoin: miter; stroke-linecap: square"/>
   </g>
   <g id="patch_15">
    <path d="M 57.6 307.584 
L 414.72 307.584 
" style="fill: none; stroke: #000000; stroke-width: 0.8; stroke-linejoin: miter; stroke-linecap: square"/>
   </g>
   <g id="patch_16">
    <path d="M 57.6 229.315765 
L 414.72 229.315765 
" style="fill: none; stroke: #000000; stroke-width: 0.8; stroke-linejoin: miter; stroke-linecap: square"/>
   </g>
  </g>
 </g>
 <defs>
  <clipPath id="pfbe126c856">
   <rect x="57.6" y="41.472" width="357.12" height="78.268235"/>
  </clipPath>
  <clipPath id="pe07e5ef5c0">
   <rect x="57.6" y="135.393882" width="357.12" height="78.268235"/>
  </clipPath>
  <clipPath id="pa231a6e91c">
   <rect x="57.6" y="229.315765" width="357.12" height="78.268235"/>
  </clipPath>
 </defs>
</svg>
