<?xml version="1.0" encoding="utf-8" standalone="no"?>
<!DOCTYPE svg PUBLIC "-//W3C//DTD SVG 1.1//EN"
  "http://www.w3.org/Graphics/SVG/1.1/DTD/svg11.dtd">
<svg xmlns:xlink="http://www.w3.org/1999/xlink" width="460.8pt" height="345.6pt" viewBox="0 0 460.8 345.6" xmlns="http://www.w3.org/2000/svg" version="1.1">
 <metadata>
  <rdf:RDF xmlns:dc="http://purl.org/dc/elements/1.1/" xmlns:cc="http://creativecommons.org/ns#" xmlns:rdf="http://www.w3.org/1999/02/22-rdf-syntax-ns#">
   <cc:Work>
    <dc:type rdf:resource="http://purl.org/dc/dcmitype/StillImage"/>
    <dc:date>2023-10-24T02:42:43.093360</dc:date>
    <dc:format>image/svg+xml</dc:format>
    <dc:creator>
     <cc:Agent>
      <dc:title>Matplotlib v3.5.2, https://matplotlib.org/</dc:title>
     </cc:Agent>
    </dc:creator>
   </cc:Work>
  </rdf:RDF>
 </metadata>
 <defs>
  <style type="text/css">*{stroke-linejoin: round; stroke-linecap: butt}</style>
 </defs>
 <g id="figure_1">
  <g id="patch_1">
   <path d="M 0 345.6 
L 460.8 345.6 
L 460.8 0 
L 0 0 
z
" style="fill: #ffffff"/>
  </g>
  <g id="axes_1">
   <g id="patch_2">
    <path d="M 57.6 119.740235 
L 414.72 119.740235 
L 414.72 41.472 
L 57.6 41.472 
z
" style="fill: #ffffff"/>
   </g>
   <g id="matplotlib.axis_1">
    <g id="xtick_1">
     <g id="line2d_1">
      <defs>
       <path id="m338aad8b0d" d="M 0 0 
L 0 3.5 
" style="stroke: #000000; stroke-width: 0.8"/>
      </defs>
      <g>
       <use xlink:href="#m338aad8b0d" x="57.6" y="119.740235" style="stroke: #000000; stroke-width: 0.8"/>
      </g>
     </g>
    </g>
    <g id="xtick_2">
     <g id="line2d_2">
      <g>
       <use xlink:href="#m338aad8b0d" x="105.216" y="119.740235" style="stroke: #000000; stroke-width: 0.8"/>
      </g>
     </g>
    </g>
    <g id="xtick_3">
     <g id="line2d_3">
      <g>
       <use xlink:href="#m338aad8b0d" x="152.832" y="119.740235" style="stroke: #000000; stroke-width: 0.8"/>
      </g>
     </g>
    </g>
    <g id="xtick_4">
     <g id="line2d_4">
      <g>
       <use xlink:href="#m338aad8b0d" x="200.448" y="119.740235" style="stroke: #000000; stroke-width: 0.8"/>
      </g>
     </g>
    </g>
    <g id="xtick_5">
     <g id="line2d_5">
      <g>
       <use xlink:href="#m338aad8b0d" x="248.064" y="119.740235" style="stroke: #000000; stroke-width: 0.8"/>
      </g>
     </g>
    </g>
    <g id="xtick_6">
     <g id="line2d_6">
      <g>
       <use xlink:href="#m338aad8b0d" x="295.68" y="119.740235" style="stroke: #000000; stroke-width: 0.8"/>
      </g>
     </g>
    </g>
    <g id="xtick_7">
     <g id="line2d_7">
      <g>
       <use xlink:href="#m338aad8b0d" x="343.296" y="119.740235" style="stroke: #000000; stroke-width: 0.8"/>
      </g>
     </g>
    </g>
    <g id="xtick_8">
     <g id="line2d_8">
      <g>
       <use xlink:href="#m338aad8b0d" x="390.912" y="119.740235" style="stroke: #000000; stroke-width: 0.8"/>
      </g>
     </g>
    </g>
    <g id="xtick_9">
     <g id="line2d_9">
      <g>
       <use xlink:href="#m338aad8b0d" x="414.72" y="119.740235" style="stroke: #000000; stroke-width: 0.8"/>
      </g>
     </g>
    </g>
   </g>
   <g id="matplotlib.axis_2">
    <g id="ytick_1">
     <g id="line2d_10">
      <defs>
       <path id="m0e5e8029f2" d="M 0 0 
L -3.5 0 
" style="stroke: #000000; stroke-width: 0.8"/>
      </defs>
      <g>
       <use xlink:href="#m0e5e8029f2" x="57.6" y="116.182799" style="stroke: #000000; stroke-width: 0.8"/>
      </g>
     </g>
     <g id="text_1">
      <!-- 0 -->
      <g transform="translate(44.2375 119.982017)scale(0.1 -0.1)">
       <defs>
        <path id="DejaVuSans-30" d="M 2034 4250 
Q 1547 4250 1301 3770 
Q 1056 3291 1056 2328 
Q 1056 1369 1301 889 
Q 1547 409 2034 409 
Q 2525 409 2770 889 
Q 3016 1369 3016 2328 
Q 3016 3291 2770 3770 
Q 2525 4250 2034 4250 
z
M 2034 4750 
Q 2819 4750 3233 4129 
Q 3647 3509 3647 2328 
Q 3647 1150 3233 529 
Q 2819 -91 2034 -91 
Q 1250 -91 836 529 
Q 422 1150 422 2328 
Q 422 3509 836 4129 
Q 1250 4750 2034 4750 
z
" transform="scale(0.015625)"/>
       </defs>
       <use xlink:href="#DejaVuSans-30"/>
      </g>
     </g>
    </g>
    <g id="ytick_2">
     <g id="line2d_11">
      <g>
       <use xlink:href="#m0e5e8029f2" x="57.6" y="72.788727" style="stroke: #000000; stroke-width: 0.8"/>
      </g>
     </g>
     <g id="text_2">
      <!-- 20 -->
      <g transform="translate(37.875 76.587946)scale(0.1 -0.1)">
       <defs>
        <path id="DejaVuSans-32" d="M 1228 531 
L 3431 531 
L 3431 0 
L 469 0 
L 469 531 
Q 828 903 1448 1529 
Q 2069 2156 2228 2338 
Q 2531 2678 2651 2914 
Q 2772 3150 2772 3378 
Q 2772 3750 2511 3984 
Q 2250 4219 1831 4219 
Q 1534 4219 1204 4116 
Q 875 4013 500 3803 
L 500 4441 
Q 881 4594 1212 4672 
Q 1544 4750 1819 4750 
Q 2544 4750 2975 4387 
Q 3406 4025 3406 3419 
Q 3406 3131 3298 2873 
Q 3191 2616 2906 2266 
Q 2828 2175 2409 1742 
Q 1991 1309 1228 531 
z
" transform="scale(0.015625)"/>
       </defs>
       <use xlink:href="#DejaVuSans-32"/>
       <use xlink:href="#DejaVuSans-30" x="63.623047"/>
      </g>
     </g>
    </g>
   </g>
   <g id="line2d_12">
    <path d="M 57.6 116.182381 
L 80.812809 116.029358 
L 83.193595 115.792624 
L 84.979191 115.397438 
L 87.36 114.753 
L 87.955191 114.875061 
L 88.550405 115.306836 
L 89.145595 116.056049 
L 90.931191 114.278964 
L 91.526405 114.24662 
L 92.716809 114.77412 
L 93.907191 115.375418 
L 95.097595 115.755099 
L 96.288 115.925288 
L 98.073595 115.936545 
L 102.24 115.725678 
L 103.430405 115.913208 
L 104.025595 116.073794 
L 104.620809 116.105604 
L 106.406405 115.677164 
L 107.596809 115.635202 
L 109.977595 115.883429 
L 112.953595 116.148699 
L 117.715191 115.754713 
L 118.905595 115.8836 
L 120.096 116.174612 
L 121.881595 115.737199 
L 123.072 115.670361 
L 125.452809 115.871555 
L 129.024 116.177713 
L 134.380809 115.865203 
L 136.166405 116.173109 
L 137.952 115.819039 
L 139.737595 115.788018 
L 147.475191 116.178772 
L 152.236809 116.049352 
L 153.427191 116.171795 
L 155.808 115.966744 
L 166.521595 115.738592 
L 167.712 115.980085 
L 168.307191 116.175505 
L 169.497595 115.727601 
L 170.688 115.5458 
L 171.878405 115.699801 
L 174.259191 116.154393 
L 177.235191 115.782597 
L 179.616 115.425094 
L 181.401595 114.915335 
L 182.592 114.380874 
L 184.972809 113.101802 
L 185.568 113.060664 
L 186.163191 113.391863 
L 186.758405 114.23845 
L 187.353595 115.614495 
L 187.948809 115.06396 
L 188.544 113.480047 
L 189.139191 112.403279 
L 189.734405 112.010908 
L 190.329595 112.214435 
L 191.52 113.517961 
L 192.710405 114.886108 
L 193.900809 115.822187 
L 194.496 116.133493 
L 202.828809 114.234145 
L 203.424 114.262037 
L 204.019191 114.493635 
L 204.614382 115.009609 
L 205.209618 115.83621 
L 205.804809 115.485987 
L 206.4 114.456817 
L 206.995191 113.718682 
L 207.590382 113.442924 
L 208.185618 113.617885 
L 209.376 114.722424 
L 210.566382 115.909007 
L 211.161618 115.986747 
L 212.352 115.293496 
L 215.923191 113.721551 
L 217.113618 112.8526 
L 218.304 111.545178 
L 219.494382 109.600344 
L 220.684809 106.872435 
L 222.470382 102.286605 
L 223.065618 101.630274 
L 223.660809 102.27762 
L 224.256 104.830802 
L 224.851191 109.584645 
L 225.446382 116.174772 
L 226.636809 102.321571 
L 227.232 98.064069 
L 227.827191 96.684962 
L 228.422382 97.865436 
L 229.017618 100.694149 
L 230.803191 110.666375 
L 231.398382 113.120931 
L 231.993618 115.020291 
L 232.588809 115.919583 
L 233.184 114.864441 
L 233.779191 114.07956 
L 234.969618 112.995776 
L 237.350382 111.426488 
L 238.540809 110.720561 
L 239.136 110.483767 
L 239.731191 110.440293 
L 240.326382 110.730391 
L 240.921618 111.531327 
L 241.516809 113.014029 
L 242.112 115.24979 
L 242.707191 114.287818 
L 243.302382 111.348544 
L 243.897618 109.005377 
L 244.492809 107.880079 
L 245.088 108.180772 
L 245.683191 109.643999 
L 247.468809 116.144417 
L 248.659191 112.903924 
L 249.849618 110.605217 
L 251.635191 107.654912 
L 252.825618 105.104636 
L 253.420809 103.435431 
L 254.016 101.400876 
L 254.611191 98.91652 
L 255.206382 95.894002 
L 255.801618 92.246557 
L 256.992 82.848266 
L 259.372809 59.596466 
L 259.968 55.824331 
L 260.563191 54.442052 
L 261.158382 55.922063 
L 261.753618 60.186323 
L 262.944 74.189947 
L 264.134382 89.206868 
L 265.324809 100.500939 
L 265.92 104.430506 
L 266.515191 107.356907 
L 267.110382 109.451728 
L 267.705618 110.884416 
L 268.300809 111.80307 
L 268.896 112.325025 
L 269.491191 112.537656 
L 270.086382 112.499758 
L 270.681618 112.246203 
L 271.276809 111.790535 
L 271.872 111.128107 
L 272.467191 110.237469 
L 273.062382 109.080703 
L 273.657618 107.603208 
L 274.252809 105.733349 
L 274.848 103.38229 
L 275.443191 100.446518 
L 276.038382 96.81698 
L 277.228809 87.158074 
L 279.609618 62.851417 
L 280.204809 58.831702 
L 280.8 56.723983 
L 281.395191 56.597545 
L 281.990382 58.439502 
L 282.585618 62.351213 
L 283.180809 68.381574 
L 284.371191 84.871387 
L 285.561618 101.247614 
L 286.156809 107.796546 
L 286.752 113.075132 
L 287.347191 115.128548 
L 288.537618 109.165274 
L 291.513618 97.643682 
L 292.704 91.047254 
L 293.894382 82.217146 
L 296.275191 62.214881 
L 296.870382 59.393379 
L 297.465618 58.579735 
L 298.060809 59.982761 
L 298.656 63.438185 
L 299.846382 74.459677 
L 301.632 92.141016 
L 302.227191 96.682405 
L 302.822382 100.323199 
L 303.417618 103.102527 
L 304.012809 105.111991 
L 304.608 106.460463 
L 305.203191 107.252057 
L 305.798382 107.572753 
L 306.393618 107.485714 
L 306.988809 107.028929 
L 307.584 106.216645 
L 308.179191 105.039972 
L 308.774382 103.469374 
L 309.369618 101.455777 
L 309.964809 98.934062 
L 310.56 95.828318 
L 311.155191 92.061714 
L 312.345618 82.359932 
L 314.726382 58.563668 
L 315.321618 54.68915 
L 315.916809 53.274239 
L 316.512 54.907158 
L 317.107191 59.605742 
L 318.297618 75.09567 
L 319.488 91.37854 
L 320.083191 97.951533 
L 320.678382 103.200007 
L 321.273618 107.209271 
L 321.868809 110.164454 
L 322.464 112.277855 
L 323.059191 113.749012 
L 323.654382 114.746191 
L 324.249618 115.402306 
L 324.844809 115.816768 
L 325.44 116.061137 
L 326.035191 116.18159 
L 327.820809 116.073047 
L 329.011191 115.67647 
L 330.201618 115.031018 
L 331.392 114.314538 
L 331.987191 114.116007 
L 332.582382 114.186756 
L 333.177618 114.619617 
L 334.368 115.99814 
L 334.963191 115.059053 
L 335.558382 114.327638 
L 336.153618 113.872025 
L 336.748809 113.667363 
L 337.939191 113.709252 
L 339.724809 113.965679 
L 340.915191 113.914842 
L 342.105618 113.589279 
L 343.296 112.920761 
L 344.486382 111.782592 
L 345.081618 110.970482 
L 345.676809 109.942983 
L 346.272 108.645076 
L 346.867191 107.006371 
L 347.462382 104.938239 
L 348.057618 102.330784 
L 348.652809 99.052065 
L 349.248 94.951075 
L 349.843191 89.872 
L 351.033618 76.37531 
L 352.819191 51.753409 
L 353.414382 46.374573 
L 354.009618 45.029647 
L 354.604809 48.548337 
L 355.2 56.413286 
L 357.580809 98.287827 
L 358.176 105.732921 
L 358.771191 111.524442 
L 359.366382 115.937432 
L 360.556809 110.461102 
L 361.747191 106.443313 
L 362.937618 102.725774 
L 364.128 98.159909 
L 365.318382 91.865834 
L 366.508809 83.231838 
L 369.484809 58.077466 
L 370.08 56.401935 
L 370.675191 57.277119 
L 371.270382 60.714066 
L 371.865618 66.205166 
L 374.246382 92.366409 
L 374.841618 97.134184 
L 375.436809 100.852895 
L 376.032 103.608695 
L 376.627191 105.532118 
L 377.222382 106.759553 
L 377.817618 107.411109 
L 378.412809 107.580493 
L 379.008 107.331739 
L 379.603191 106.699551 
L 380.198382 105.691147 
L 380.793618 104.288241 
L 381.388809 102.449269 
L 381.984 100.111484 
L 382.579191 97.194495 
L 383.174382 93.607316 
L 384.364809 84.109191 
L 385.555191 71.623193 
L 386.745618 58.711361 
L 387.340809 54.078043 
L 387.936 52.037221 
L 388.531191 53.284764 
L 389.126382 57.815863 
L 389.721618 64.881601 
L 391.507191 89.805259 
L 392.102382 96.554936 
L 392.697618 102.003001 
L 393.292809 106.215359 
L 393.888 109.364907 
L 394.483191 111.658454 
L 395.078382 113.29486 
L 395.673618 114.446595 
L 396.268809 115.252638 
L 396.864 115.820848 
L 397.459191 116.133694 
L 398.649618 115.560652 
L 401.030382 114.489463 
L 402.220809 113.620375 
L 402.816 113.015687 
L 403.411191 112.252066 
L 404.006382 111.285507 
L 404.601618 110.062771 
L 405.196809 108.521787 
L 405.792 106.596509 
L 406.387191 104.229216 
L 407.577618 98.174916 
L 408.768 91.854396 
L 409.363191 90.192709 
L 409.958382 90.917902 
L 410.553618 94.897059 
L 411.148809 102.279225 
L 411.744 112.34062 
L 412.339191 108.611958 
L 413.529618 88.202094 
L 414.124809 82.406372 
L 414.72 80.864088 
L 414.72 80.864088 
" clip-path="url(#p4d6a3ff29f)" style="fill: none; stroke: #0000cc; stroke-width: 1.5; stroke-linecap: square"/>
   </g>
   <g id="line2d_13">
    <path d="M 57.6 116.182381 
L 75.456 116.172655 
L 82.598405 116.06048 
L 85.574405 115.797901 
L 87.36 115.628745 
L 87.955191 115.688208 
L 88.550405 115.866654 
L 89.145595 116.167211 
L 90.336 115.583563 
L 90.931191 115.439169 
L 92.121595 115.513304 
L 94.502405 115.941807 
L 96.883191 116.068326 
L 103.430405 116.095647 
L 104.025595 116.169548 
L 107.001595 115.943164 
L 110.572809 116.122939 
L 112.358405 116.151696 
L 117.715191 115.985791 
L 120.691191 116.04494 
L 122.476809 115.925562 
L 125.452809 116.074517 
L 127.833595 116.1652 
L 133.785595 115.972945 
L 136.166405 116.096155 
L 137.952 115.911178 
L 140.332809 116.001259 
L 143.904 116.165331 
L 150.451191 115.977107 
L 152.236809 116.128831 
L 154.022405 115.891811 
L 155.808 115.934573 
L 160.569595 116.166372 
L 167.712 115.97105 
L 168.902405 116.163177 
L 171.283191 115.855912 
L 173.664 115.98679 
L 177.235191 116.162095 
L 180.806405 116.143746 
L 187.353595 116.047367 
L 187.948809 116.152272 
L 190.924809 115.892826 
L 196.281595 116.107318 
L 200.448 115.989481 
L 204.019191 115.831566 
L 205.209618 116.022878 
L 205.804809 116.166983 
L 206.995191 115.814432 
L 208.185618 115.700947 
L 209.971191 115.891201 
L 212.352 116.137791 
L 214.137618 116.147841 
L 220.089618 115.897089 
L 222.470382 115.571906 
L 224.256 115.284291 
L 224.851191 115.290784 
L 225.446382 115.430025 
L 226.636809 116.136964 
L 227.827191 115.18014 
L 228.422382 114.966726 
L 229.017618 114.972355 
L 230.208 115.343643 
L 231.993618 115.932646 
L 233.184 116.146616 
L 235.564809 116.075866 
L 238.540809 116.134185 
L 239.731191 116.143999 
L 242.707191 115.921703 
L 245.683191 116.041767 
L 248.064 115.869979 
L 253.420809 115.604076 
L 257.587191 115.130183 
L 258.182382 115.241847 
L 258.777618 115.492574 
L 259.372809 115.898418 
L 259.968 115.953927 
L 261.158382 114.998152 
L 261.753618 114.787566 
L 262.348809 114.787928 
L 263.539191 115.218815 
L 265.324809 116.031991 
L 265.92 116.128254 
L 267.705618 115.684453 
L 270.086382 115.148281 
L 271.276809 114.732232 
L 272.467191 114.099039 
L 273.657618 113.120853 
L 274.848 111.622762 
L 276.038382 109.451841 
L 277.824 105.681633 
L 278.419191 105.19531 
L 279.014382 105.926453 
L 279.609618 108.445324 
L 280.204809 112.919393 
L 280.8 113.622283 
L 281.395191 107.808813 
L 281.990382 103.501805 
L 282.585618 101.541644 
L 283.180809 101.813476 
L 283.776 103.605492 
L 285.561618 110.789326 
L 286.156809 112.581696 
L 286.752 113.93643 
L 287.347191 114.904383 
L 287.942382 115.553423 
L 288.537618 115.952028 
L 289.132809 116.156992 
L 290.323191 116.140591 
L 291.513618 115.689995 
L 292.704 114.850778 
L 295.084809 112.657314 
L 295.68 112.507604 
L 296.275191 112.842585 
L 296.870382 113.737274 
L 297.465618 115.130733 
L 298.060809 115.600122 
L 298.656 114.053897 
L 299.251191 112.851552 
L 299.846382 112.10518 
L 300.441618 111.781465 
L 301.036809 111.771716 
L 302.227191 112.210078 
L 303.417618 112.694739 
L 304.608 112.908282 
L 305.798382 112.762131 
L 306.988809 112.227859 
L 308.179191 111.261088 
L 309.369618 109.803681 
L 310.56 107.88436 
L 311.750382 105.937388 
L 312.345618 105.357356 
L 312.940809 105.44959 
L 313.536 106.614208 
L 314.131191 109.200826 
L 314.726382 113.284413 
L 315.321618 113.90984 
L 315.916809 108.587936 
L 316.512 104.295719 
L 317.107191 101.94319 
L 317.702382 101.776476 
L 318.297618 103.373566 
L 319.488 108.960128 
L 320.678382 114.260962 
L 321.273618 116.052601 
L 322.464 113.004753 
L 326.035191 105.689111 
L 326.630382 103.830236 
L 327.225618 101.558079 
L 327.820809 98.7709 
L 328.416 95.358033 
L 329.011191 91.209855 
L 330.201618 80.408454 
L 332.582382 54.440663 
L 333.177618 51.234116 
L 333.772809 51.415896 
L 334.368 55.181269 
L 334.963191 61.976071 
L 337.344 95.394164 
L 337.939191 101.376107 
L 338.534382 106.042619 
L 339.129618 109.568232 
L 339.724809 112.17308 
L 340.32 114.072294 
L 340.915191 115.45715 
L 341.510382 115.878535 
L 342.700809 114.416386 
L 344.486382 112.541421 
L 345.676809 110.908022 
L 346.867191 108.620761 
L 348.057618 105.575466 
L 349.248 102.370516 
L 349.843191 101.363521 
L 350.438382 101.421947 
L 351.033618 103.158114 
L 351.628809 107.011737 
L 352.224 112.920264 
L 352.819191 112.25037 
L 353.414382 105.139605 
L 354.009618 99.61371 
L 354.604809 96.708703 
L 355.2 96.580676 
L 355.795191 98.603777 
L 358.176 111.471903 
L 358.771191 113.715371 
L 359.366382 115.437818 
L 359.961618 115.63348 
L 360.556809 114.662697 
L 361.747191 113.325548 
L 365.318382 110.177626 
L 367.104 108.422195 
L 367.699191 108.166468 
L 368.294382 108.400752 
L 368.889618 109.38587 
L 369.484809 111.401286 
L 370.08 114.540716 
L 370.675191 113.8315 
L 371.270382 109.710576 
L 371.865618 106.478021 
L 372.460809 104.930323 
L 373.056 105.279286 
L 373.651191 107.099674 
L 375.436809 115.055434 
L 376.032 115.112798 
L 377.222382 111.808738 
L 378.412809 109.407261 
L 379.603191 107.12307 
L 380.793618 104.259502 
L 381.388809 102.405496 
L 381.984 100.15686 
L 382.579191 97.422289 
L 383.174382 94.107452 
L 384.364809 85.417852 
L 385.555191 73.948311 
L 386.745618 61.597777 
L 387.340809 56.706305 
L 387.936 53.92369 
L 388.531191 54.020312 
L 389.126382 57.23441 
L 389.721618 63.087876 
L 392.102382 93.056128 
L 392.697618 98.605289 
L 393.292809 102.959077 
L 393.888 106.234696 
L 394.483191 108.606149 
L 395.078382 110.251875 
L 395.673618 111.331089 
L 396.268809 111.975411 
L 396.864 112.284056 
L 397.459191 112.325259 
L 398.054382 112.143075 
L 398.649618 111.762044 
L 399.244809 111.187278 
L 399.84 110.409161 
L 400.435191 109.409508 
L 401.030382 108.161534 
L 402.220809 104.822379 
L 403.411191 100.432719 
L 404.601618 96.15607 
L 405.196809 95.069664 
L 405.792 95.511786 
L 406.387191 98.11761 
L 406.982382 103.135757 
L 407.577618 110.370665 
L 408.172809 113.310546 
L 409.363191 96.30949 
L 409.958382 90.664673 
L 410.553618 88.254236 
L 411.148809 89.149247 
L 411.744 92.560288 
L 414.124809 110.613914 
L 414.72 113.60078 
L 414.72 113.60078 
" clip-path="url(#p4d6a3ff29f)" style="fill: none; stroke-dasharray: 9.6,2.4,1.5,2.4; stroke-dashoffset: 0; stroke: #ff0000; stroke-width: 1.5"/>
   </g>
   <g id="patch_3">
    <path d="M 57.6 119.740235 
L 57.6 41.472 
" style="fill: none; stroke: #000000; stroke-width: 0.8; stroke-linejoin: miter; stroke-linecap: square"/>
   </g>
   <g id="patch_4">
    <path d="M 414.72 119.740235 
L 414.72 41.472 
" style="fill: none; stroke: #000000; stroke-width: 0.8; stroke-linejoin: miter; stroke-linecap: square"/>
   </g>
   <g id="patch_5">
    <path d="M 57.6 119.740235 
L 414.72 119.740235 
" style="fill: none; stroke: #000000; stroke-width: 0.8; stroke-linejoin: miter; stroke-linecap: square"/>
   </g>
   <g id="patch_6">
    <path d="M 57.6 41.472 
L 414.72 41.472 
" style="fill: none; stroke: #000000; stroke-width: 0.8; stroke-linejoin: miter; stroke-linecap: square"/>
   </g>
  </g>
  <g id="axes_2">
   <g id="patch_7">
    <path d="M 57.6 213.662118 
L 414.72 213.662118 
L 414.72 135.393882 
L 57.6 135.393882 
z
" style="fill: #ffffff"/>
   </g>
   <g id="matplotlib.axis_3">
    <g id="xtick_10">
     <g id="line2d_14">
      <g>
       <use xlink:href="#m338aad8b0d" x="57.6" y="213.662118" style="stroke: #000000; stroke-width: 0.8"/>
      </g>
     </g>
    </g>
    <g id="xtick_11">
     <g id="line2d_15">
      <g>
       <use xlink:href="#m338aad8b0d" x="105.216" y="213.662118" style="stroke: #000000; stroke-width: 0.8"/>
      </g>
     </g>
    </g>
    <g id="xtick_12">
     <g id="line2d_16">
      <g>
       <use xlink:href="#m338aad8b0d" x="152.832" y="213.662118" style="stroke: #000000; stroke-width: 0.8"/>
      </g>
     </g>
    </g>
    <g id="xtick_13">
     <g id="line2d_17">
      <g>
       <use xlink:href="#m338aad8b0d" x="200.448" y="213.662118" style="stroke: #000000; stroke-width: 0.8"/>
      </g>
     </g>
    </g>
    <g id="xtick_14">
     <g id="line2d_18">
      <g>
       <use xlink:href="#m338aad8b0d" x="248.064" y="213.662118" style="stroke: #000000; stroke-width: 0.8"/>
      </g>
     </g>
    </g>
    <g id="xtick_15">
     <g id="line2d_19">
      <g>
       <use xlink:href="#m338aad8b0d" x="295.68" y="213.662118" style="stroke: #000000; stroke-width: 0.8"/>
      </g>
     </g>
    </g>
    <g id="xtick_16">
     <g id="line2d_20">
      <g>
       <use xlink:href="#m338aad8b0d" x="343.296" y="213.662118" style="stroke: #000000; stroke-width: 0.8"/>
      </g>
     </g>
    </g>
    <g id="xtick_17">
     <g id="line2d_21">
      <g>
       <use xlink:href="#m338aad8b0d" x="390.912" y="213.662118" style="stroke: #000000; stroke-width: 0.8"/>
      </g>
     </g>
    </g>
    <g id="xtick_18">
     <g id="line2d_22">
      <g>
       <use xlink:href="#m338aad8b0d" x="414.72" y="213.662118" style="stroke: #000000; stroke-width: 0.8"/>
      </g>
     </g>
    </g>
   </g>
   <g id="matplotlib.axis_4">
    <g id="ytick_3">
     <g id="line2d_23">
      <g>
       <use xlink:href="#m0e5e8029f2" x="57.6" y="210.104607" style="stroke: #000000; stroke-width: 0.8"/>
      </g>
     </g>
     <g id="text_3">
      <!-- 0 -->
      <g transform="translate(44.2375 213.903825)scale(0.1 -0.1)">
       <use xlink:href="#DejaVuSans-30"/>
      </g>
     </g>
    </g>
    <g id="ytick_4">
     <g id="line2d_24">
      <g>
       <use xlink:href="#m0e5e8029f2" x="57.6" y="176.520515" style="stroke: #000000; stroke-width: 0.8"/>
      </g>
     </g>
     <g id="text_4">
      <!-- 20 -->
      <g transform="translate(37.875 180.319733)scale(0.1 -0.1)">
       <use xlink:href="#DejaVuSans-32"/>
       <use xlink:href="#DejaVuSans-30" x="63.623047"/>
      </g>
     </g>
    </g>
    <g id="ytick_5">
     <g id="line2d_25">
      <g>
       <use xlink:href="#m0e5e8029f2" x="57.6" y="142.936423" style="stroke: #000000; stroke-width: 0.8"/>
      </g>
     </g>
     <g id="text_5">
      <!-- 40 -->
      <g transform="translate(37.875 146.735641)scale(0.1 -0.1)">
       <defs>
        <path id="DejaVuSans-34" d="M 2419 4116 
L 825 1625 
L 2419 1625 
L 2419 4116 
z
M 2253 4666 
L 3047 4666 
L 3047 1625 
L 3713 1625 
L 3713 1100 
L 3047 1100 
L 3047 0 
L 2419 0 
L 2419 1100 
L 313 1100 
L 313 1709 
L 2253 4666 
z
" transform="scale(0.015625)"/>
       </defs>
       <use xlink:href="#DejaVuSans-34"/>
       <use xlink:href="#DejaVuSans-30" x="63.623047"/>
      </g>
     </g>
    </g>
   </g>
   <g id="line2d_26">
    <path d="M 57.6 210.104471 
L 80.812809 209.876694 
L 82.598405 209.637197 
L 84.384 209.163677 
L 86.169595 208.577748 
L 86.764809 208.60303 
L 87.36 208.987775 
L 87.955191 209.897212 
L 88.550405 208.932271 
L 89.145595 207.553042 
L 89.740809 206.855778 
L 90.336 207.109684 
L 92.121595 209.657357 
L 92.716809 210.025839 
L 94.502405 209.974943 
L 96.288 210.04422 
L 99.859191 209.653556 
L 101.049595 209.657455 
L 102.24 209.882854 
L 102.835191 210.089724 
L 104.620809 209.463711 
L 105.811191 209.398561 
L 110.572809 210.053491 
L 117.12 209.711274 
L 118.905595 209.982653 
L 120.096 209.549896 
L 121.286405 209.431895 
L 123.072 209.74048 
L 124.857595 210.01221 
L 126.643191 210.077703 
L 133.785595 209.858029 
L 134.380809 210.007646 
L 134.976 210.005641 
L 136.166405 209.641167 
L 137.356809 209.559724 
L 142.713595 210.051636 
L 146.88 210.047316 
L 150.451191 209.891964 
L 152.236809 210.033666 
L 153.427191 209.85226 
L 155.212809 209.849888 
L 158.784 209.918629 
L 162.950405 209.73056 
L 165.331191 209.691915 
L 167.116809 210.005358 
L 168.307191 209.383627 
L 168.902405 209.193608 
L 169.497595 209.188541 
L 170.688 209.632186 
L 171.878405 210.085857 
L 173.068809 209.846889 
L 179.020809 209.287161 
L 180.806405 208.709468 
L 181.996809 208.108403 
L 183.782405 207.077098 
L 184.377595 206.948674 
L 184.972809 207.19172 
L 185.568 208.051791 
L 186.163191 209.716619 
L 186.758405 208.119388 
L 187.353595 205.625097 
L 187.948809 203.938645 
L 188.544 203.730562 
L 189.139191 204.892433 
L 190.329595 208.368091 
L 190.924809 209.600588 
L 191.52 209.848748 
L 192.115191 209.455235 
L 192.710405 209.293893 
L 193.900809 209.275349 
L 196.281595 209.324727 
L 198.067191 209.125468 
L 199.852809 208.711513 
L 201.638382 208.269698 
L 202.233618 208.262194 
L 202.828809 208.456401 
L 203.424 208.973808 
L 204.019191 209.920352 
L 204.614382 208.923412 
L 205.209618 207.394454 
L 205.804809 206.21764 
L 206.4 205.907616 
L 206.995191 206.580566 
L 208.185618 209.218917 
L 208.780809 209.931586 
L 209.376 209.262973 
L 209.971191 208.89735 
L 211.161618 208.642454 
L 212.947191 208.453797 
L 214.137618 208.129138 
L 215.328 207.533705 
L 216.518382 206.563771 
L 217.708809 205.063406 
L 218.899191 202.836975 
L 220.089618 199.799263 
L 221.28 196.56517 
L 221.875191 195.613491 
L 222.470382 195.954755 
L 223.065618 198.496086 
L 223.660809 204.02977 
L 224.256 207.594659 
L 225.446382 187.755994 
L 226.041618 182.126008 
L 226.636809 182.14516 
L 227.232 187.29523 
L 228.422382 202.676837 
L 229.017618 208.368149 
L 229.612809 208.344985 
L 230.208 206.565686 
L 230.803191 205.873106 
L 231.398382 205.763246 
L 233.779191 206.371289 
L 234.969618 206.263136 
L 236.16 205.828364 
L 237.945618 205.020137 
L 238.540809 204.95368 
L 239.136 205.197159 
L 239.731191 205.956284 
L 240.326382 207.475775 
L 240.921618 209.963176 
L 241.516809 206.792822 
L 242.707191 199.384886 
L 243.302382 197.810758 
L 243.897618 198.949163 
L 244.492809 202.42666 
L 245.088 206.859084 
L 245.683191 209.362277 
L 246.278382 206.533625 
L 246.873618 204.87304 
L 247.468809 204.024779 
L 248.064 203.611209 
L 249.254382 203.096204 
L 249.849618 202.697675 
L 250.444809 202.105912 
L 251.04 201.268307 
L 251.635191 200.147087 
L 252.230382 198.690437 
L 252.825618 196.848391 
L 253.420809 194.548255 
L 254.016 191.715982 
L 254.611191 188.265056 
L 255.801618 179.242554 
L 256.992 167.585669 
L 258.182382 155.988357 
L 258.777618 152.342622 
L 259.372809 151.72952 
L 259.968 155.055338 
L 260.563191 162.360275 
L 262.944 201.872081 
L 263.539191 207.181551 
L 264.134382 210.006632 
L 264.729618 208.659213 
L 265.324809 208.37309 
L 265.92 208.674477 
L 267.110382 209.938336 
L 267.705618 209.573471 
L 270.086382 206.789722 
L 271.276809 204.980967 
L 271.872 203.803583 
L 272.467191 202.357722 
L 273.062382 200.56312 
L 273.657618 198.325007 
L 274.252809 195.534099 
L 274.848 192.070767 
L 275.443191 187.819485 
L 276.633618 176.74576 
L 278.419191 157.891273 
L 279.014382 154.321811 
L 279.609618 153.744056 
L 280.204809 156.131754 
L 280.8 160.650414 
L 281.395191 166.629597 
L 281.990382 174.249173 
L 283.180809 194.82398 
L 283.776 205.189051 
L 284.371191 207.059697 
L 284.966382 202.036441 
L 285.561618 199.403558 
L 286.156809 198.324453 
L 286.752 198.007849 
L 287.347191 197.884045 
L 287.942382 197.635164 
L 288.537618 197.084783 
L 289.132809 196.126902 
L 289.728 194.695018 
L 290.323191 192.738341 
L 290.918382 190.204864 
L 291.513618 187.048286 
L 292.704 178.77525 
L 295.084809 159.091953 
L 295.68 156.695059 
L 296.275191 156.976122 
L 296.870382 160.330587 
L 297.465618 166.433082 
L 299.846382 197.111221 
L 300.441618 201.950157 
L 301.036809 205.133189 
L 301.632 206.924224 
L 302.227191 207.679158 
L 302.822382 207.732453 
L 303.417618 207.34216 
L 304.012809 206.6806 
L 305.203191 204.877723 
L 306.393618 202.51914 
L 307.584 199.322712 
L 308.179191 197.248559 
L 308.774382 194.746643 
L 309.369618 191.723688 
L 309.964809 188.085235 
L 311.155191 178.683967 
L 313.536 154.961368 
L 314.131191 151.265396 
L 314.726382 150.584886 
L 315.321618 153.923018 
L 315.916809 161.573002 
L 318.297618 205.00307 
L 318.892809 209.77454 
L 319.488 206.959199 
L 320.083191 205.918649 
L 320.678382 205.901106 
L 321.273618 206.377128 
L 323.059191 208.245991 
L 324.249618 209.096374 
L 325.44 209.651765 
L 326.630382 210.096851 
L 327.820809 209.601868 
L 329.011191 208.898463 
L 330.796809 207.768086 
L 331.392 207.761937 
L 331.987191 208.244711 
L 332.582382 209.317629 
L 333.177618 209.388 
L 333.772809 207.898795 
L 334.368 206.903074 
L 334.963191 206.595488 
L 335.558382 206.833419 
L 337.344 208.242826 
L 337.939191 208.488928 
L 338.534382 208.597759 
L 339.724809 208.493971 
L 340.915191 208.073659 
L 342.105618 207.352381 
L 343.296 206.226521 
L 343.891191 205.447372 
L 344.486382 204.472504 
L 345.081618 203.248617 
L 345.676809 201.708406 
L 346.272 199.766666 
L 346.867191 197.316745 
L 347.462382 194.228579 
L 348.057618 190.34847 
L 348.652809 185.507413 
L 349.248 179.544232 
L 350.438382 164.040403 
L 351.628809 146.427351 
L 352.224 140.190038 
L 352.819191 138.951529 
L 353.414382 144.953682 
L 354.009618 158.294498 
L 355.2 193.409766 
L 355.795191 206.960852 
L 356.390382 204.575041 
L 356.985618 200.003071 
L 357.580809 198.171678 
L 358.176 197.818973 
L 359.961618 198.609207 
L 360.556809 198.458338 
L 361.152 197.910239 
L 361.747191 196.928498 
L 362.342382 195.480642 
L 362.937618 193.533473 
L 363.532809 191.041362 
L 364.128 187.954386 
L 365.318382 179.832622 
L 366.508809 169.34113 
L 367.699191 158.706319 
L 368.294382 155.102205 
L 368.889618 154.038966 
L 369.484809 156.421163 
L 370.08 162.459122 
L 371.270382 181.368969 
L 371.865618 190.771264 
L 372.460809 198.288096 
L 373.056 203.490875 
L 373.651191 206.587272 
L 374.246382 208.075044 
L 374.841618 208.474312 
L 375.436809 208.20254 
L 376.032 207.545468 
L 377.222382 205.664597 
L 378.412809 203.298024 
L 379.603191 200.227657 
L 380.198382 198.266887 
L 380.793618 195.907222 
L 381.388809 193.047184 
L 381.984 189.577124 
L 382.579191 185.388784 
L 383.769618 174.582312 
L 385.555191 154.775208 
L 386.150382 149.96644 
L 386.745618 148.326142 
L 387.340809 151.221065 
L 387.936 159.033305 
L 390.316809 203.792867 
L 390.912 209.452029 
L 391.507191 207.689011 
L 392.102382 206.409683 
L 392.697618 206.198137 
L 393.292809 206.527553 
L 395.078382 208.105701 
L 396.268809 208.746759 
L 397.459191 208.972601 
L 398.649618 208.867284 
L 399.84 208.464915 
L 401.030382 207.713015 
L 401.625618 207.162165 
L 402.220809 206.456166 
L 402.816 205.554996 
L 403.411191 204.408084 
L 404.006382 202.953926 
L 404.601618 201.122306 
L 405.196809 198.842118 
L 406.387191 192.798456 
L 407.577618 185.773136 
L 408.172809 183.403702 
L 408.768 183.576679 
L 409.363191 187.969081 
L 410.553618 208.847053 
L 411.744 179.07283 
L 412.339191 168.447444 
L 412.934382 163.160811 
L 413.529618 164.532348 
L 414.124809 172.508407 
L 414.72 184.520394 
L 414.72 184.520394 
" clip-path="url(#p549e2524d9)" style="fill: none; stroke: #0000cc; stroke-width: 1.5; stroke-linecap: square"/>
   </g>
   <g id="line2d_27">
    <path d="M 57.6 210.104471 
L 75.456 210.091606 
L 82.003191 209.958855 
L 84.979191 209.648933 
L 86.169595 209.510689 
L 86.764809 209.530881 
L 87.36 209.696232 
L 87.955191 210.06908 
L 89.145595 209.061073 
L 89.740809 208.818517 
L 90.336 208.956241 
L 92.121595 209.919495 
L 92.716809 210.065428 
L 95.692809 210.08203 
L 101.049595 209.929852 
L 102.835191 210.067769 
L 104.620809 209.808926 
L 105.811191 209.811228 
L 109.382405 210.092444 
L 115.929595 209.89111 
L 117.715191 210.014401 
L 118.310405 210.096096 
L 120.096 209.789615 
L 121.286405 209.779093 
L 125.452809 210.074171 
L 132.595191 209.894765 
L 134.380809 210.067515 
L 136.166405 209.740308 
L 137.356809 209.76697 
L 140.928 210.091953 
L 148.665595 209.863374 
L 149.856 209.963341 
L 150.451191 210.083207 
L 152.832 209.676555 
L 154.617595 209.884692 
L 156.403191 210.082381 
L 159.379191 210.050335 
L 164.736 209.861145 
L 166.521595 209.884255 
L 167.712 210.089638 
L 169.497595 209.638651 
L 170.688 209.705125 
L 173.068809 210.061507 
L 174.854405 210.085625 
L 183.187191 209.9387 
L 185.568 209.879992 
L 186.758405 210.084435 
L 188.544 209.648544 
L 189.734405 209.737349 
L 191.52 210.024191 
L 193.900809 210.086599 
L 199.257595 209.924616 
L 202.828809 209.742942 
L 204.614382 210.03469 
L 205.804809 209.49979 
L 206.4 209.37299 
L 206.995191 209.413355 
L 209.376 210.057901 
L 211.161618 210.025366 
L 218.304 209.888171 
L 220.684809 209.630177 
L 223.660809 209.16109 
L 224.256 209.29628 
L 225.446382 209.979703 
L 226.636809 208.424676 
L 227.232 208.101686 
L 227.827191 208.3163 
L 229.612809 209.902911 
L 230.208 210.038209 
L 231.398382 209.857109 
L 234.374382 209.950277 
L 238.540809 210.041678 
L 241.516809 209.780689 
L 242.707191 209.953823 
L 243.302382 210.097628 
L 244.492809 209.826369 
L 245.683191 209.750094 
L 250.444809 209.753929 
L 253.420809 209.448282 
L 256.396809 209.095307 
L 256.992 209.191374 
L 257.587191 209.450186 
L 258.182382 209.917652 
L 258.777618 209.62026 
L 259.968 208.244873 
L 260.563191 207.98036 
L 261.158382 208.196192 
L 262.944 209.856017 
L 263.539191 209.969924 
L 264.729618 209.598388 
L 269.491191 208.977858 
L 270.681618 208.521788 
L 271.872 207.79555 
L 273.062382 206.651852 
L 274.252809 204.906241 
L 275.443191 202.43612 
L 276.633618 199.694693 
L 277.228809 198.870288 
L 277.824 199.218322 
L 278.419191 201.650808 
L 279.014382 206.954434 
L 279.609618 205.188166 
L 280.204809 196.1498 
L 280.8 189.286949 
L 281.395191 187.290204 
L 281.990382 190.404087 
L 283.180809 202.625597 
L 283.776 207.318932 
L 284.371191 210.006404 
L 284.966382 208.564 
L 285.561618 208.04366 
L 286.156809 208.038051 
L 287.347191 208.629656 
L 289.728 210.088343 
L 290.918382 209.235507 
L 292.108809 208.133084 
L 293.894382 206.284358 
L 294.489618 206.037932 
L 295.084809 206.356874 
L 295.68 207.458591 
L 296.275191 209.408121 
L 296.870382 208.362831 
L 297.465618 206.069579 
L 298.060809 204.562127 
L 298.656 204.102347 
L 299.251191 204.494104 
L 301.036809 207.012134 
L 301.632 207.55354 
L 302.227191 207.871659 
L 302.822382 208.00223 
L 303.417618 207.986181 
L 304.608 207.631279 
L 305.798382 206.938069 
L 306.988809 205.897661 
L 308.179191 204.433386 
L 309.369618 202.520923 
L 310.56 200.484535 
L 311.155191 199.783298 
L 311.750382 199.715372 
L 312.345618 200.777195 
L 312.940809 203.534223 
L 313.536 208.372086 
L 314.131191 205.114071 
L 315.321618 191.51253 
L 315.916809 188.751643 
L 316.512 190.30097 
L 317.107191 195.257377 
L 318.297618 207.129627 
L 318.892809 209.031231 
L 319.488 206.554559 
L 320.083191 205.23127 
L 320.678382 204.591663 
L 323.059191 203.286041 
L 323.654382 202.614501 
L 324.249618 201.679102 
L 324.844809 200.432814 
L 325.44 198.819919 
L 326.035191 196.771046 
L 326.630382 194.201377 
L 327.225618 191.01119 
L 327.820809 187.091582 
L 329.011191 176.696288 
L 331.392 150.089334 
L 331.987191 146.883015 
L 332.582382 148.128851 
L 333.177618 154.807616 
L 333.772809 166.163598 
L 334.963191 192.639964 
L 335.558382 202.667813 
L 336.153618 209.301338 
L 336.748809 207.204104 
L 337.344 205.557572 
L 337.939191 205.151295 
L 338.534382 205.379646 
L 340.32 206.745305 
L 340.915191 207.002465 
L 341.510382 207.094684 
L 342.105618 207.026993 
L 342.700809 206.805838 
L 343.296 206.409274 
L 343.891191 205.860755 
L 344.486382 205.127356 
L 345.081618 204.196898 
L 346.272 201.681944 
L 348.652809 195.49194 
L 349.248 195.252224 
L 349.843191 196.854721 
L 350.438382 201.15647 
L 351.033618 208.548486 
L 351.628809 201.885823 
L 352.224 191.764703 
L 352.819191 184.118709 
L 353.414382 181.285396 
L 354.009618 183.909861 
L 354.604809 190.496299 
L 355.795191 205.110521 
L 356.390382 209.811746 
L 356.985618 207.677526 
L 357.580809 206.379719 
L 358.176 205.933186 
L 358.771191 205.916642 
L 360.556809 206.322683 
L 361.747191 206.209052 
L 362.937618 205.65315 
L 364.128 204.702674 
L 365.913618 203.002665 
L 366.508809 202.691617 
L 367.104 202.824811 
L 367.699191 203.739573 
L 368.294382 205.802514 
L 368.889618 209.376197 
L 369.484809 205.807795 
L 370.675191 195.242572 
L 371.270382 193.190768 
L 371.865618 194.908308 
L 372.460809 199.618309 
L 373.056 205.348878 
L 373.651191 209.9222 
L 374.246382 206.521618 
L 374.841618 204.557159 
L 375.436809 203.563676 
L 376.032 203.089898 
L 377.222382 202.50912 
L 377.817618 202.07775 
L 378.412809 201.428417 
L 379.008 200.507114 
L 379.603191 199.279397 
L 380.198382 197.682566 
L 380.793618 195.659627 
L 381.388809 193.138538 
L 381.984 190.037214 
L 382.579191 186.271168 
L 383.769618 176.510045 
L 386.150382 153.037334 
L 386.745618 150.468591 
L 387.340809 151.70703 
L 387.936 157.471547 
L 388.531191 167.182747 
L 389.721618 190.283309 
L 390.316809 199.456963 
L 390.912 205.775652 
L 391.507191 209.493081 
L 392.697618 208.418862 
L 393.292809 208.611917 
L 394.483191 209.840884 
L 395.078382 209.656543 
L 398.054382 206.10072 
L 399.244809 204.152224 
L 400.435191 201.399555 
L 401.625618 197.553955 
L 403.411191 190.662531 
L 404.006382 189.289145 
L 404.601618 189.552156 
L 405.196809 192.421859 
L 405.792 198.569586 
L 406.387191 207.892613 
L 406.982382 200.972967 
L 408.172809 179.832277 
L 408.768 173.874672 
L 409.363191 173.001187 
L 409.958382 177.613549 
L 411.744 205.059468 
L 412.339191 209.216318 
L 412.934382 205.872605 
L 413.529618 204.366593 
L 414.124809 203.936259 
L 414.72 204.026995 
L 414.72 204.026995 
" clip-path="url(#p549e2524d9)" style="fill: none; stroke-dasharray: 9.6,2.4,1.5,2.4; stroke-dashoffset: 0; stroke: #ff0000; stroke-width: 1.5"/>
   </g>
   <g id="patch_8">
    <path d="M 57.6 213.662118 
L 57.6 135.393882 
" style="fill: none; stroke: #000000; stroke-width: 0.8; stroke-linejoin: miter; stroke-linecap: square"/>
   </g>
   <g id="patch_9">
    <path d="M 414.72 213.662118 
L 414.72 135.393882 
" style="fill: none; stroke: #000000; stroke-width: 0.8; stroke-linejoin: miter; stroke-linecap: square"/>
   </g>
   <g id="patch_10">
    <path d="M 57.6 213.662118 
L 414.72 213.662118 
" style="fill: none; stroke: #000000; stroke-width: 0.8; stroke-linejoin: miter; stroke-linecap: square"/>
   </g>
   <g id="patch_11">
    <path d="M 57.6 135.393882 
L 414.72 135.393882 
" style="fill: none; stroke: #000000; stroke-width: 0.8; stroke-linejoin: miter; stroke-linecap: square"/>
   </g>
  </g>
  <g id="axes_3">
   <g id="patch_12">
    <path d="M 57.6 307.584 
L 414.72 307.584 
L 414.72 229.315765 
L 57.6 229.315765 
z
" style="fill: #ffffff"/>
   </g>
   <g id="matplotlib.axis_5">
    <g id="xtick_19">
     <g id="line2d_28">
      <g>
       <use xlink:href="#m338aad8b0d" x="57.6" y="307.584" style="stroke: #000000; stroke-width: 0.8"/>
      </g>
     </g>
     <g id="text_6">
      <!-- 10 -->
      <g transform="translate(51.2375 322.182437)scale(0.1 -0.1)">
       <defs>
        <path id="DejaVuSans-31" d="M 794 531 
L 1825 531 
L 1825 4091 
L 703 3866 
L 703 4441 
L 1819 4666 
L 2450 4666 
L 2450 531 
L 3481 531 
L 3481 0 
L 794 0 
L 794 531 
z
" transform="scale(0.015625)"/>
       </defs>
       <use xlink:href="#DejaVuSans-31"/>
       <use xlink:href="#DejaVuSans-30" x="63.623047"/>
      </g>
     </g>
    </g>
    <g id="xtick_20">
     <g id="line2d_29">
      <g>
       <use xlink:href="#m338aad8b0d" x="105.216" y="307.584" style="stroke: #000000; stroke-width: 0.8"/>
      </g>
     </g>
     <g id="text_7">
      <!-- 12 -->
      <g transform="translate(98.8535 322.182437)scale(0.1 -0.1)">
       <use xlink:href="#DejaVuSans-31"/>
       <use xlink:href="#DejaVuSans-32" x="63.623047"/>
      </g>
     </g>
    </g>
    <g id="xtick_21">
     <g id="line2d_30">
      <g>
       <use xlink:href="#m338aad8b0d" x="152.832" y="307.584" style="stroke: #000000; stroke-width: 0.8"/>
      </g>
     </g>
     <g id="text_8">
      <!-- 14 -->
      <g transform="translate(146.4695 322.182437)scale(0.1 -0.1)">
       <use xlink:href="#DejaVuSans-31"/>
       <use xlink:href="#DejaVuSans-34" x="63.623047"/>
      </g>
     </g>
    </g>
    <g id="xtick_22">
     <g id="line2d_31">
      <g>
       <use xlink:href="#m338aad8b0d" x="200.448" y="307.584" style="stroke: #000000; stroke-width: 0.8"/>
      </g>
     </g>
     <g id="text_9">
      <!-- 16 -->
      <g transform="translate(194.0855 322.182437)scale(0.1 -0.1)">
       <defs>
        <path id="DejaVuSans-36" d="M 2113 2584 
Q 1688 2584 1439 2293 
Q 1191 2003 1191 1497 
Q 1191 994 1439 701 
Q 1688 409 2113 409 
Q 2538 409 2786 701 
Q 3034 994 3034 1497 
Q 3034 2003 2786 2293 
Q 2538 2584 2113 2584 
z
M 3366 4563 
L 3366 3988 
Q 3128 4100 2886 4159 
Q 2644 4219 2406 4219 
Q 1781 4219 1451 3797 
Q 1122 3375 1075 2522 
Q 1259 2794 1537 2939 
Q 1816 3084 2150 3084 
Q 2853 3084 3261 2657 
Q 3669 2231 3669 1497 
Q 3669 778 3244 343 
Q 2819 -91 2113 -91 
Q 1303 -91 875 529 
Q 447 1150 447 2328 
Q 447 3434 972 4092 
Q 1497 4750 2381 4750 
Q 2619 4750 2861 4703 
Q 3103 4656 3366 4563 
z
" transform="scale(0.015625)"/>
       </defs>
       <use xlink:href="#DejaVuSans-31"/>
       <use xlink:href="#DejaVuSans-36" x="63.623047"/>
      </g>
     </g>
    </g>
    <g id="xtick_23">
     <g id="line2d_32">
      <g>
       <use xlink:href="#m338aad8b0d" x="248.064" y="307.584" style="stroke: #000000; stroke-width: 0.8"/>
      </g>
     </g>
     <g id="text_10">
      <!-- 18 -->
      <g transform="translate(241.7015 322.182437)scale(0.1 -0.1)">
       <defs>
        <path id="DejaVuSans-38" d="M 2034 2216 
Q 1584 2216 1326 1975 
Q 1069 1734 1069 1313 
Q 1069 891 1326 650 
Q 1584 409 2034 409 
Q 2484 409 2743 651 
Q 3003 894 3003 1313 
Q 3003 1734 2745 1975 
Q 2488 2216 2034 2216 
z
M 1403 2484 
Q 997 2584 770 2862 
Q 544 3141 544 3541 
Q 544 4100 942 4425 
Q 1341 4750 2034 4750 
Q 2731 4750 3128 4425 
Q 3525 4100 3525 3541 
Q 3525 3141 3298 2862 
Q 3072 2584 2669 2484 
Q 3125 2378 3379 2068 
Q 3634 1759 3634 1313 
Q 3634 634 3220 271 
Q 2806 -91 2034 -91 
Q 1263 -91 848 271 
Q 434 634 434 1313 
Q 434 1759 690 2068 
Q 947 2378 1403 2484 
z
M 1172 3481 
Q 1172 3119 1398 2916 
Q 1625 2713 2034 2713 
Q 2441 2713 2670 2916 
Q 2900 3119 2900 3481 
Q 2900 3844 2670 4047 
Q 2441 4250 2034 4250 
Q 1625 4250 1398 4047 
Q 1172 3844 1172 3481 
z
" transform="scale(0.015625)"/>
       </defs>
       <use xlink:href="#DejaVuSans-31"/>
       <use xlink:href="#DejaVuSans-38" x="63.623047"/>
      </g>
     </g>
    </g>
    <g id="xtick_24">
     <g id="line2d_33">
      <g>
       <use xlink:href="#m338aad8b0d" x="295.68" y="307.584" style="stroke: #000000; stroke-width: 0.8"/>
      </g>
     </g>
     <g id="text_11">
      <!-- 20 -->
      <g transform="translate(289.3175 322.182437)scale(0.1 -0.1)">
       <use xlink:href="#DejaVuSans-32"/>
       <use xlink:href="#DejaVuSans-30" x="63.623047"/>
      </g>
     </g>
    </g>
    <g id="xtick_25">
     <g id="line2d_34">
      <g>
       <use xlink:href="#m338aad8b0d" x="343.296" y="307.584" style="stroke: #000000; stroke-width: 0.8"/>
      </g>
     </g>
     <g id="text_12">
      <!-- 22 -->
      <g transform="translate(336.9335 322.182437)scale(0.1 -0.1)">
       <use xlink:href="#DejaVuSans-32"/>
       <use xlink:href="#DejaVuSans-32" x="63.623047"/>
      </g>
     </g>
    </g>
    <g id="xtick_26">
     <g id="line2d_35">
      <g>
       <use xlink:href="#m338aad8b0d" x="390.912" y="307.584" style="stroke: #000000; stroke-width: 0.8"/>
      </g>
     </g>
     <g id="text_13">
      <!-- 24 -->
      <g transform="translate(384.5495 322.182437)scale(0.1 -0.1)">
       <use xlink:href="#DejaVuSans-32"/>
       <use xlink:href="#DejaVuSans-34" x="63.623047"/>
      </g>
     </g>
    </g>
    <g id="xtick_27">
     <g id="line2d_36">
      <g>
       <use xlink:href="#m338aad8b0d" x="414.72" y="307.584" style="stroke: #000000; stroke-width: 0.8"/>
      </g>
     </g>
     <g id="text_14">
      <!-- 25 -->
      <g transform="translate(408.3575 322.182437)scale(0.1 -0.1)">
       <defs>
        <path id="DejaVuSans-35" d="M 691 4666 
L 3169 4666 
L 3169 4134 
L 1269 4134 
L 1269 2991 
Q 1406 3038 1543 3061 
Q 1681 3084 1819 3084 
Q 2600 3084 3056 2656 
Q 3513 2228 3513 1497 
Q 3513 744 3044 326 
Q 2575 -91 1722 -91 
Q 1428 -91 1123 -41 
Q 819 9 494 109 
L 494 744 
Q 775 591 1075 516 
Q 1375 441 1709 441 
Q 2250 441 2565 725 
Q 2881 1009 2881 1497 
Q 2881 1984 2565 2268 
Q 2250 2553 1709 2553 
Q 1456 2553 1204 2497 
Q 953 2441 691 2322 
L 691 4666 
z
" transform="scale(0.015625)"/>
       </defs>
       <use xlink:href="#DejaVuSans-32"/>
       <use xlink:href="#DejaVuSans-35" x="63.623047"/>
      </g>
     </g>
    </g>
   </g>
   <g id="matplotlib.axis_6">
    <g id="ytick_6">
     <g id="line2d_37">
      <g>
       <use xlink:href="#m0e5e8029f2" x="57.6" y="304.026462" style="stroke: #000000; stroke-width: 0.8"/>
      </g>
     </g>
     <g id="text_15">
      <!-- 0 -->
      <g transform="translate(44.2375 307.825681)scale(0.1 -0.1)">
       <use xlink:href="#DejaVuSans-30"/>
      </g>
     </g>
    </g>
    <g id="ytick_7">
     <g id="line2d_38">
      <g>
       <use xlink:href="#m0e5e8029f2" x="57.6" y="262.094771" style="stroke: #000000; stroke-width: 0.8"/>
      </g>
     </g>
     <g id="text_16">
      <!-- 20 -->
      <g transform="translate(37.875 265.893989)scale(0.1 -0.1)">
       <use xlink:href="#DejaVuSans-32"/>
       <use xlink:href="#DejaVuSans-30" x="63.623047"/>
      </g>
     </g>
    </g>
   </g>
   <g id="line2d_39">
    <path d="M 57.6 304.021702 
L 82.598405 303.927825 
L 83.788809 303.764736 
L 84.979191 303.338897 
L 85.574405 302.930597 
L 86.169595 302.323647 
L 87.955191 299.725844 
L 88.550405 299.617054 
L 89.145595 300.644564 
L 89.740809 302.583403 
L 90.336 303.555129 
L 90.931191 302.354952 
L 91.526405 301.98266 
L 92.121595 302.092956 
L 93.907191 302.885648 
L 96.883191 303.425185 
L 99.859191 303.958725 
L 102.835191 302.981496 
L 103.430405 302.982969 
L 104.025595 303.115502 
L 105.216 303.692835 
L 105.811191 304.020236 
L 107.001595 303.557994 
L 108.192 303.359866 
L 110.572809 303.36951 
L 114.144 303.734351 
L 115.334405 303.997639 
L 116.524809 303.674962 
L 118.310405 303.09329 
L 118.905595 303.038151 
L 119.500809 303.117323 
L 120.691191 303.617706 
L 121.286405 303.928049 
L 121.881595 303.853008 
L 123.072 303.52177 
L 124.857595 303.412434 
L 128.428809 303.556728 
L 130.809595 303.819266 
L 132 303.97373 
L 134.380809 303.282229 
L 134.976 303.229949 
L 136.166405 303.473706 
L 137.356809 303.96553 
L 140.332809 303.571683 
L 145.094405 303.625139 
L 148.070405 303.759503 
L 149.856 304.005795 
L 151.641595 303.647611 
L 152.832 303.675138 
L 155.212809 303.991014 
L 157.593595 303.856596 
L 162.355191 303.660568 
L 164.140809 303.395551 
L 167.116809 302.654332 
L 167.712 302.727776 
L 168.307191 303.009046 
L 169.497595 304.008063 
L 170.688 303.296558 
L 171.283191 303.183969 
L 172.473595 303.258048 
L 176.044809 303.665842 
L 179.616 303.996097 
L 180.806405 303.698983 
L 181.996809 303.121142 
L 182.592 302.637711 
L 183.187191 301.951911 
L 183.782405 300.998919 
L 184.377595 299.730067 
L 186.163191 295.221279 
L 186.758405 295.019401 
L 187.353595 296.5149 
L 187.948809 299.622479 
L 188.544 303.359766 
L 189.734405 299.829198 
L 190.329595 299.255554 
L 190.924809 299.388758 
L 193.305595 300.939143 
L 194.496 301.37734 
L 196.281595 301.777284 
L 198.067191 301.951373 
L 199.257595 301.887751 
L 200.448 301.563545 
L 201.043191 301.248621 
L 201.638382 300.796088 
L 202.828809 299.440659 
L 204.019191 298.030978 
L 204.614382 297.959465 
L 205.209618 298.822935 
L 205.804809 300.736641 
L 206.4 303.268389 
L 206.995191 302.459918 
L 207.590382 300.981731 
L 208.185618 300.441202 
L 208.780809 300.542574 
L 211.161618 301.935807 
L 212.352 302.260882 
L 214.137618 302.453586 
L 215.328 302.425588 
L 216.518382 302.20276 
L 217.113618 301.968616 
L 217.708809 301.603823 
L 218.304 301.048233 
L 218.899191 300.213111 
L 219.494382 298.969653 
L 220.089618 297.137721 
L 220.684809 294.482305 
L 221.28 290.734588 
L 221.875191 285.673877 
L 223.660809 265.894348 
L 224.256 262.596421 
L 224.851191 264.754737 
L 225.446382 273.4934 
L 226.636809 303.167049 
L 227.232 291.812871 
L 227.827191 283.956868 
L 228.422382 281.25737 
L 229.017618 281.895955 
L 230.803191 288.007645 
L 231.398382 289.475715 
L 231.993618 290.595074 
L 233.184 292.125634 
L 234.374382 293.044895 
L 234.969618 293.316337 
L 235.564809 293.453409 
L 236.16 293.435094 
L 236.755191 293.230429 
L 237.350382 292.799558 
L 237.945618 292.098269 
L 238.540809 291.089162 
L 239.731191 288.210103 
L 240.326382 286.650822 
L 240.921618 285.57344 
L 241.516809 285.742304 
L 242.112 288.037021 
L 242.707191 292.96292 
L 243.302382 299.996108 
L 243.897618 300.653805 
L 244.492809 294.990401 
L 245.088 292.198869 
L 245.683191 291.950794 
L 246.278382 293.165042 
L 247.468809 296.381181 
L 248.064 297.625473 
L 248.659191 298.585386 
L 249.849618 299.894374 
L 251.635191 301.208352 
L 253.420809 302.542102 
L 254.611191 303.868319 
L 255.206382 303.230191 
L 255.801618 301.977714 
L 256.396809 300.340029 
L 257.587191 295.779191 
L 258.777618 290.91656 
L 259.372809 289.962135 
L 259.968 291.127305 
L 260.563191 294.642624 
L 261.158382 299.714891 
L 261.753618 303.206572 
L 262.348809 299.314938 
L 262.944 297.119297 
L 263.539191 296.333956 
L 264.134382 296.403931 
L 265.324809 297.418883 
L 266.515191 298.443268 
L 268.300809 299.608049 
L 272.467191 301.97352 
L 273.062382 302.485878 
L 274.252809 303.986794 
L 274.848 302.692256 
L 275.443191 300.81469 
L 276.038382 298.07037 
L 276.633618 294.094258 
L 277.228809 288.497684 
L 277.824 281.051663 
L 279.014382 262.867299 
L 279.609618 256.049997 
L 280.204809 254.74944 
L 280.8 261.050572 
L 281.395191 274.554394 
L 281.990382 292.217206 
L 282.585618 298.575283 
L 283.180809 285.826739 
L 283.776 279.330366 
L 284.371191 278.042109 
L 284.966382 279.64292 
L 286.156809 284.722451 
L 286.752 286.796907 
L 287.942382 289.783011 
L 289.132809 291.930157 
L 290.918382 294.985118 
L 291.513618 296.244247 
L 292.108809 297.783304 
L 292.704 299.740271 
L 293.299191 302.269037 
L 293.894382 302.545234 
L 295.084809 294.061907 
L 295.68 289.660076 
L 296.275191 286.419887 
L 296.870382 285.520489 
L 297.465618 287.630103 
L 298.060809 292.373068 
L 299.251191 303.820788 
L 299.846382 299.312979 
L 300.441618 296.405379 
L 301.036809 294.860622 
L 301.632 294.242913 
L 302.227191 294.159579 
L 303.417618 294.630812 
L 305.798382 295.791723 
L 306.988809 296.095674 
L 307.584 296.11828 
L 308.179191 296.018018 
L 308.774382 295.755075 
L 309.369618 295.27698 
L 309.964809 294.516815 
L 310.56 293.396347 
L 311.155191 291.837468 
L 311.750382 289.795436 
L 313.536 282.531028 
L 314.131191 281.845459 
L 314.726382 283.842078 
L 315.321618 289.232886 
L 315.916809 297.404506 
L 316.512 301.818175 
L 317.107191 294.861324 
L 317.702382 291.14243 
L 318.297618 290.350051 
L 318.892809 291.282917 
L 320.083191 294.331819 
L 320.678382 295.576813 
L 321.273618 296.541796 
L 322.464 297.866969 
L 323.654382 298.742496 
L 325.44 299.678403 
L 328.416 301.068564 
L 329.011191 301.513821 
L 329.606382 302.12799 
L 330.796809 303.909724 
L 332.582382 299.710477 
L 333.177618 299.256823 
L 333.772809 299.830003 
L 335.558382 303.87355 
L 336.153618 302.97057 
L 336.748809 302.482929 
L 337.344 302.279493 
L 338.534382 302.264876 
L 343.296 302.876235 
L 348.057618 303.491905 
L 349.843191 303.941767 
L 350.438382 303.539742 
L 351.628809 302.290687 
L 352.224 301.560576 
L 352.819191 301.054959 
L 353.414382 301.108239 
L 354.009618 301.8684 
L 354.604809 303.092663 
L 355.2 303.773597 
L 355.795191 303.015562 
L 356.390382 302.716449 
L 356.985618 302.695877 
L 363.532809 304.000918 
L 364.723191 303.615821 
L 365.913618 302.914133 
L 367.104 301.887134 
L 368.294382 300.881464 
L 368.889618 300.725806 
L 369.484809 301.030374 
L 370.08 301.844481 
L 370.675191 303.008478 
L 371.270382 303.845318 
L 371.865618 302.902125 
L 372.460809 302.336949 
L 373.056 302.106171 
L 374.246382 302.193172 
L 380.793618 303.755081 
L 381.388809 304.016158 
L 381.984 303.693494 
L 382.579191 303.23191 
L 383.174382 302.605765 
L 383.769618 301.762571 
L 384.364809 300.658529 
L 386.150382 296.428338 
L 386.745618 295.752761 
L 387.340809 296.331055 
L 387.936 298.399417 
L 388.531191 301.498425 
L 389.126382 303.412834 
L 389.721618 301.098203 
L 390.316809 299.883715 
L 390.912 299.541746 
L 391.507191 299.688413 
L 393.888 300.991572 
L 395.673618 301.60899 
L 398.054382 302.16471 
L 400.435191 302.502203 
L 401.625618 302.536271 
L 402.816 302.359283 
L 403.411191 302.116042 
L 404.006382 301.690404 
L 404.601618 300.977575 
L 405.196809 299.812135 
L 405.792 297.938908 
L 406.387191 294.980543 
L 406.982382 290.419474 
L 407.577618 283.650986 
L 408.172809 274.199753 
L 409.958382 238.196483 
L 410.553618 232.873412 
L 411.148809 235.534665 
L 411.744 246.171694 
L 412.339191 263.271579 
L 412.934382 284.679928 
L 413.529618 300.794845 
L 414.124809 281.474515 
L 414.72 269.465434 
L 414.72 269.465434 
" clip-path="url(#p3c2de5f445)" style="fill: none; stroke: #0000cc; stroke-width: 1.5; stroke-linecap: square"/>
   </g>
   <g id="line2d_40">
    <path d="M 57.6 304.021702 
L 64.742405 304.00771 
L 69.504 304.023538 
L 83.788809 303.920478 
L 84.979191 303.747277 
L 86.169595 303.338717 
L 87.955191 302.334729 
L 88.550405 302.326831 
L 89.145595 302.758535 
L 89.740809 303.517969 
L 90.336 303.819721 
L 90.931191 303.387105 
L 91.526405 303.253554 
L 92.716809 303.411268 
L 95.097595 303.705099 
L 99.264 304.009821 
L 102.835191 303.561979 
L 104.025595 303.662597 
L 105.811191 303.969436 
L 107.596809 303.742736 
L 109.977595 303.745051 
L 114.144 303.971191 
L 114.739191 304.019394 
L 118.905595 303.533302 
L 120.096 303.73921 
L 121.286405 303.992748 
L 122.476809 303.780504 
L 124.262405 303.710718 
L 129.024 303.889076 
L 130.809595 304.001329 
L 134.976 303.501119 
L 136.166405 303.768186 
L 136.761595 303.953215 
L 137.952 303.812941 
L 139.737595 303.696607 
L 144.499191 303.845626 
L 147.475191 303.956163 
L 151.046405 303.41898 
L 152.236809 303.676194 
L 153.427191 303.969435 
L 154.617595 303.729256 
L 156.403191 303.688673 
L 164.736 303.931095 
L 168.307191 303.366659 
L 169.497595 303.723167 
L 170.092809 303.973717 
L 172.473595 303.668066 
L 181.401595 303.916121 
L 183.782405 303.980721 
L 185.568 303.653033 
L 186.758405 303.40971 
L 187.353595 303.396566 
L 187.948809 303.514984 
L 189.139191 304.000638 
L 190.329595 303.757813 
L 192.115191 303.760268 
L 199.852809 304.008142 
L 201.638382 303.770547 
L 203.424 303.273274 
L 204.614382 302.99098 
L 205.209618 303.046761 
L 205.804809 303.296111 
L 206.995191 303.969264 
L 207.590382 303.675496 
L 208.780809 303.482547 
L 220.089618 303.764187 
L 221.875191 303.500087 
L 223.065618 303.01303 
L 224.256 302.094712 
L 224.851191 301.596572 
L 225.446382 301.267395 
L 226.041618 301.39043 
L 226.636809 302.123116 
L 227.232 303.298963 
L 227.827191 303.61359 
L 228.422382 302.888845 
L 229.017618 302.629991 
L 229.612809 302.665755 
L 231.993618 303.198677 
L 234.374382 303.381067 
L 239.731191 303.619652 
L 241.516809 303.96629 
L 242.707191 303.606328 
L 243.897618 303.554734 
L 246.873618 303.984932 
L 249.849618 303.814509 
L 252.825618 303.599328 
L 254.611191 303.222268 
L 255.801618 302.706425 
L 256.992 301.897486 
L 258.182382 301.080195 
L 258.777618 300.979954 
L 259.372809 301.321609 
L 259.968 302.155588 
L 260.563191 303.325007 
L 261.158382 303.574691 
L 261.753618 302.743863 
L 262.348809 302.322488 
L 262.944 302.230719 
L 264.134382 302.481868 
L 265.92 302.921457 
L 269.491191 303.456255 
L 271.276809 303.780832 
L 271.872 303.944254 
L 272.467191 303.889768 
L 273.062382 303.582552 
L 273.657618 303.140523 
L 274.252809 302.490798 
L 274.848 301.52491 
L 275.443191 300.08481 
L 276.038382 297.953958 
L 276.633618 294.87114 
L 277.228809 290.600766 
L 279.014382 273.757888 
L 279.609618 271.901892 
L 280.204809 275.777767 
L 280.8 285.638904 
L 281.395191 298.616627 
L 281.990382 297.792322 
L 282.585618 290.518499 
L 283.180809 287.828877 
L 283.776 288.126733 
L 286.156809 293.964661 
L 287.347191 295.530191 
L 288.537618 296.594949 
L 291.513618 298.979035 
L 292.108809 299.691364 
L 292.704 300.628174 
L 293.299191 301.883275 
L 293.894382 303.543503 
L 294.489618 302.41922 
L 295.68 297.708538 
L 296.275191 296.075865 
L 296.870382 295.748041 
L 297.465618 296.945636 
L 299.251191 303.678694 
L 299.846382 301.982986 
L 300.441618 300.949919 
L 301.036809 300.406137 
L 301.632 300.163773 
L 302.822382 300.080384 
L 305.203191 300.126055 
L 306.393618 299.93184 
L 306.988809 299.709376 
L 307.584 299.353701 
L 308.179191 298.818577 
L 308.774382 298.025229 
L 309.369618 296.878418 
L 309.964809 295.252484 
L 310.56 293.002523 
L 311.155191 289.9915 
L 312.345618 281.688978 
L 312.940809 277.14444 
L 313.536 273.681402 
L 314.131191 272.938374 
L 314.726382 276.439952 
L 315.321618 284.617085 
L 315.916809 296.030379 
L 316.512 300.377901 
L 317.107191 291.501783 
L 317.702382 286.768944 
L 318.297618 285.607247 
L 318.892809 286.543504 
L 320.678382 291.4733 
L 321.868809 293.612844 
L 323.059191 295.035638 
L 324.249618 296.077416 
L 325.44 296.873694 
L 326.630382 297.47246 
L 329.606382 298.694341 
L 330.201618 299.258368 
L 330.796809 300.197233 
L 331.392 301.66905 
L 331.987191 303.709072 
L 332.582382 302.04225 
L 333.177618 299.965648 
L 333.772809 298.923604 
L 334.368 299.105648 
L 334.963191 300.258528 
L 336.153618 302.956727 
L 336.748809 303.831347 
L 337.344 303.699675 
L 337.939191 303.427865 
L 339.129618 303.287598 
L 340.915191 303.473975 
L 343.296 303.885072 
L 344.486382 303.138319 
L 345.081618 302.537382 
L 345.676809 301.690384 
L 346.272 300.479657 
L 346.867191 298.74601 
L 347.462382 296.267699 
L 348.057618 292.792084 
L 348.652809 288.067884 
L 349.843191 274.966268 
L 350.438382 268.014242 
L 351.033618 263.121765 
L 351.628809 262.693055 
L 352.224 268.420274 
L 352.819191 280.110624 
L 353.414382 295.257869 
L 354.009618 298.105798 
L 354.604809 287.365332 
L 355.2 281.902215 
L 355.795191 280.77447 
L 356.390382 282.066465 
L 357.580809 286.255427 
L 358.176 287.984642 
L 358.771191 289.350333 
L 359.961618 291.276244 
L 361.152 292.524877 
L 362.342382 293.275787 
L 362.937618 293.450184 
L 363.532809 293.459005 
L 364.128 293.261102 
L 364.723191 292.797649 
L 365.318382 291.998109 
L 365.913618 290.777633 
L 366.508809 289.056095 
L 367.699191 284.144135 
L 368.294382 281.392714 
L 368.889618 279.347408 
L 369.484809 279.18923 
L 370.08 282.235349 
L 370.675191 289.066844 
L 371.270382 298.722046 
L 371.865618 299.503682 
L 372.460809 292.258625 
L 373.056 288.863932 
L 373.651191 288.624284 
L 374.246382 290.061887 
L 375.436809 293.650257 
L 376.032 294.989014 
L 376.627191 295.987881 
L 377.817618 297.286566 
L 379.008 298.060806 
L 380.198382 298.546012 
L 381.388809 298.781689 
L 382.579191 298.771916 
L 384.96 298.407425 
L 385.555191 298.636573 
L 386.150382 299.311827 
L 386.745618 300.616541 
L 387.340809 302.549573 
L 387.936 303.231143 
L 388.531191 301.233092 
L 389.126382 300.037938 
L 389.721618 299.826676 
L 390.316809 300.319847 
L 392.102382 302.546595 
L 393.292809 303.363344 
L 394.483191 303.806823 
L 395.078382 303.968884 
L 395.673618 303.935151 
L 397.459191 303.421173 
L 398.649618 302.842895 
L 399.244809 302.393031 
L 399.84 301.762218 
L 400.435191 300.863129 
L 401.030382 299.569969 
L 401.625618 297.700495 
L 402.220809 295.01653 
L 402.816 291.196664 
L 403.411191 285.941793 
L 404.006382 279.039927 
L 405.792 253.282899 
L 406.387191 248.195238 
L 406.982382 248.17494 
L 407.577618 254.203406 
L 408.172809 266.015342 
L 409.363191 300.828616 
L 410.553618 277.307496 
L 411.148809 270.978136 
L 411.744 270.037366 
L 412.339191 272.169096 
L 413.529618 278.278251 
L 414.124809 280.726692 
L 414.72 282.632079 
L 414.72 282.632079 
" clip-path="url(#p3c2de5f445)" style="fill: none; stroke-dasharray: 9.6,2.4,1.5,2.4; stroke-dashoffset: 0; stroke: #ff0000; stroke-width: 1.5"/>
   </g>
   <g id="patch_13">
    <path d="M 57.6 307.584 
L 57.6 229.315765 
" style="fill: none; stroke: #000000; stroke-width: 0.8; stroke-linejoin: miter; stroke-linecap: square"/>
   </g>
   <g id="patch_14">
    <path d="M 414.72 307.584 
L 414.72 229.315765 
" style="fill: none; stroke: #000000; stroke-width: 0.8; stroke-linejoin: miter; stroke-linecap: square"/>
   </g>
   <g id="patch_15">
    <path d="M 57.6 307.584 
L 414.72 307.584 
" style="fill: none; stroke: #000000; stroke-width: 0.8; stroke-linejoin: miter; stroke-linecap: square"/>
   </g>
   <g id="patch_16">
    <path d="M 57.6 229.315765 
L 414.72 229.315765 
" style="fill: none; stroke: #000000; stroke-width: 0.8; stroke-linejoin: miter; stroke-linecap: square"/>
   </g>
  </g>
 </g>
 <defs>
  <clipPath id="p4d6a3ff29f">
   <rect x="57.6" y="41.472" width="357.12" height="78.268235"/>
  </clipPath>
  <clipPath id="p549e2524d9">
   <rect x="57.6" y="135.393882" width="357.12" height="78.268235"/>
  </clipPath>
  <clipPath id="p3c2de5f445">
   <rect x="57.6" y="229.315765" width="357.12" height="78.268235"/>
  </clipPath>
 </defs>
</svg>
