<?xml version="1.0" encoding="utf-8" standalone="no"?>
<!DOCTYPE svg PUBLIC "-//W3C//DTD SVG 1.1//EN"
  "http://www.w3.org/Graphics/SVG/1.1/DTD/svg11.dtd">
<svg xmlns:xlink="http://www.w3.org/1999/xlink" width="460.8pt" height="345.6pt" viewBox="0 0 460.8 345.6" xmlns="http://www.w3.org/2000/svg" version="1.1">
 <metadata>
  <rdf:RDF xmlns:dc="http://purl.org/dc/elements/1.1/" xmlns:cc="http://creativecommons.org/ns#" xmlns:rdf="http://www.w3.org/1999/02/22-rdf-syntax-ns#">
   <cc:Work>
    <dc:type rdf:resource="http://purl.org/dc/dcmitype/StillImage"/>
    <dc:date>2023-10-24T02:42:44.447505</dc:date>
    <dc:format>image/svg+xml</dc:format>
    <dc:creator>
     <cc:Agent>
      <dc:title>Matplotlib v3.5.2, https://matplotlib.org/</dc:title>
     </cc:Agent>
    </dc:creator>
   </cc:Work>
  </rdf:RDF>
 </metadata>
 <defs>
  <style type="text/css">*{stroke-linejoin: round; stroke-linecap: butt}</style>
 </defs>
 <g id="figure_1">
  <g id="patch_1">
   <path d="M 0 345.6 
L 460.8 345.6 
L 460.8 0 
L 0 0 
z
" style="fill: #ffffff"/>
  </g>
  <g id="axes_1">
   <g id="patch_2">
    <path d="M 57.6 119.740235 
L 414.72 119.740235 
L 414.72 41.472 
L 57.6 41.472 
z
" style="fill: #ffffff"/>
   </g>
   <g id="matplotlib.axis_1">
    <g id="xtick_1">
     <g id="line2d_1">
      <defs>
       <path id="me0c26b0b49" d="M 0 0 
L 0 3.5 
" style="stroke: #000000; stroke-width: 0.8"/>
      </defs>
      <g>
       <use xlink:href="#me0c26b0b49" x="73.289835" y="119.740235" style="stroke: #000000; stroke-width: 0.8"/>
      </g>
     </g>
     <g id="text_1">
      <!-- 10 -->
      <g transform="translate(66.927335 134.338673)scale(0.1 -0.1)">
       <defs>
        <path id="DejaVuSans-31" d="M 794 531 
L 1825 531 
L 1825 4091 
L 703 3866 
L 703 4441 
L 1819 4666 
L 2450 4666 
L 2450 531 
L 3481 531 
L 3481 0 
L 794 0 
L 794 531 
z
" transform="scale(0.015625)"/>
        <path id="DejaVuSans-30" d="M 2034 4250 
Q 1547 4250 1301 3770 
Q 1056 3291 1056 2328 
Q 1056 1369 1301 889 
Q 1547 409 2034 409 
Q 2525 409 2770 889 
Q 3016 1369 3016 2328 
Q 3016 3291 2770 3770 
Q 2525 4250 2034 4250 
z
M 2034 4750 
Q 2819 4750 3233 4129 
Q 3647 3509 3647 2328 
Q 3647 1150 3233 529 
Q 2819 -91 2034 -91 
Q 1250 -91 836 529 
Q 422 1150 422 2328 
Q 422 3509 836 4129 
Q 1250 4750 2034 4750 
z
" transform="scale(0.015625)"/>
       </defs>
       <use xlink:href="#DejaVuSans-31"/>
       <use xlink:href="#DejaVuSans-30" x="63.623047"/>
      </g>
     </g>
    </g>
    <g id="xtick_2">
     <g id="line2d_2">
      <g>
       <use xlink:href="#me0c26b0b49" x="116.721879" y="119.740235" style="stroke: #000000; stroke-width: 0.8"/>
      </g>
     </g>
     <g id="text_2">
      <!-- 12 -->
      <g transform="translate(110.359379 134.338673)scale(0.1 -0.1)">
       <defs>
        <path id="DejaVuSans-32" d="M 1228 531 
L 3431 531 
L 3431 0 
L 469 0 
L 469 531 
Q 828 903 1448 1529 
Q 2069 2156 2228 2338 
Q 2531 2678 2651 2914 
Q 2772 3150 2772 3378 
Q 2772 3750 2511 3984 
Q 2250 4219 1831 4219 
Q 1534 4219 1204 4116 
Q 875 4013 500 3803 
L 500 4441 
Q 881 4594 1212 4672 
Q 1544 4750 1819 4750 
Q 2544 4750 2975 4387 
Q 3406 4025 3406 3419 
Q 3406 3131 3298 2873 
Q 3191 2616 2906 2266 
Q 2828 2175 2409 1742 
Q 1991 1309 1228 531 
z
" transform="scale(0.015625)"/>
       </defs>
       <use xlink:href="#DejaVuSans-31"/>
       <use xlink:href="#DejaVuSans-32" x="63.623047"/>
      </g>
     </g>
    </g>
    <g id="xtick_3">
     <g id="line2d_3">
      <g>
       <use xlink:href="#me0c26b0b49" x="160.153923" y="119.740235" style="stroke: #000000; stroke-width: 0.8"/>
      </g>
     </g>
     <g id="text_3">
      <!-- 14 -->
      <g transform="translate(153.791423 134.338673)scale(0.1 -0.1)">
       <defs>
        <path id="DejaVuSans-34" d="M 2419 4116 
L 825 1625 
L 2419 1625 
L 2419 4116 
z
M 2253 4666 
L 3047 4666 
L 3047 1625 
L 3713 1625 
L 3713 1100 
L 3047 1100 
L 3047 0 
L 2419 0 
L 2419 1100 
L 313 1100 
L 313 1709 
L 2253 4666 
z
" transform="scale(0.015625)"/>
       </defs>
       <use xlink:href="#DejaVuSans-31"/>
       <use xlink:href="#DejaVuSans-34" x="63.623047"/>
      </g>
     </g>
    </g>
    <g id="xtick_4">
     <g id="line2d_4">
      <g>
       <use xlink:href="#me0c26b0b49" x="203.585967" y="119.740235" style="stroke: #000000; stroke-width: 0.8"/>
      </g>
     </g>
     <g id="text_4">
      <!-- 16 -->
      <g transform="translate(197.223467 134.338673)scale(0.1 -0.1)">
       <defs>
        <path id="DejaVuSans-36" d="M 2113 2584 
Q 1688 2584 1439 2293 
Q 1191 2003 1191 1497 
Q 1191 994 1439 701 
Q 1688 409 2113 409 
Q 2538 409 2786 701 
Q 3034 994 3034 1497 
Q 3034 2003 2786 2293 
Q 2538 2584 2113 2584 
z
M 3366 4563 
L 3366 3988 
Q 3128 4100 2886 4159 
Q 2644 4219 2406 4219 
Q 1781 4219 1451 3797 
Q 1122 3375 1075 2522 
Q 1259 2794 1537 2939 
Q 1816 3084 2150 3084 
Q 2853 3084 3261 2657 
Q 3669 2231 3669 1497 
Q 3669 778 3244 343 
Q 2819 -91 2113 -91 
Q 1303 -91 875 529 
Q 447 1150 447 2328 
Q 447 3434 972 4092 
Q 1497 4750 2381 4750 
Q 2619 4750 2861 4703 
Q 3103 4656 3366 4563 
z
" transform="scale(0.015625)"/>
       </defs>
       <use xlink:href="#DejaVuSans-31"/>
       <use xlink:href="#DejaVuSans-36" x="63.623047"/>
      </g>
     </g>
    </g>
    <g id="xtick_5">
     <g id="line2d_5">
      <g>
       <use xlink:href="#me0c26b0b49" x="247.018011" y="119.740235" style="stroke: #000000; stroke-width: 0.8"/>
      </g>
     </g>
     <g id="text_5">
      <!-- 18 -->
      <g transform="translate(240.655511 134.338673)scale(0.1 -0.1)">
       <defs>
        <path id="DejaVuSans-38" d="M 2034 2216 
Q 1584 2216 1326 1975 
Q 1069 1734 1069 1313 
Q 1069 891 1326 650 
Q 1584 409 2034 409 
Q 2484 409 2743 651 
Q 3003 894 3003 1313 
Q 3003 1734 2745 1975 
Q 2488 2216 2034 2216 
z
M 1403 2484 
Q 997 2584 770 2862 
Q 544 3141 544 3541 
Q 544 4100 942 4425 
Q 1341 4750 2034 4750 
Q 2731 4750 3128 4425 
Q 3525 4100 3525 3541 
Q 3525 3141 3298 2862 
Q 3072 2584 2669 2484 
Q 3125 2378 3379 2068 
Q 3634 1759 3634 1313 
Q 3634 634 3220 271 
Q 2806 -91 2034 -91 
Q 1263 -91 848 271 
Q 434 634 434 1313 
Q 434 1759 690 2068 
Q 947 2378 1403 2484 
z
M 1172 3481 
Q 1172 3119 1398 2916 
Q 1625 2713 2034 2713 
Q 2441 2713 2670 2916 
Q 2900 3119 2900 3481 
Q 2900 3844 2670 4047 
Q 2441 4250 2034 4250 
Q 1625 4250 1398 4047 
Q 1172 3844 1172 3481 
z
" transform="scale(0.015625)"/>
       </defs>
       <use xlink:href="#DejaVuSans-31"/>
       <use xlink:href="#DejaVuSans-38" x="63.623047"/>
      </g>
     </g>
    </g>
    <g id="xtick_6">
     <g id="line2d_6">
      <g>
       <use xlink:href="#me0c26b0b49" x="290.450055" y="119.740235" style="stroke: #000000; stroke-width: 0.8"/>
      </g>
     </g>
     <g id="text_6">
      <!-- 20 -->
      <g transform="translate(284.087555 134.338673)scale(0.1 -0.1)">
       <use xlink:href="#DejaVuSans-32"/>
       <use xlink:href="#DejaVuSans-30" x="63.623047"/>
      </g>
     </g>
    </g>
    <g id="xtick_7">
     <g id="line2d_7">
      <g>
       <use xlink:href="#me0c26b0b49" x="333.882099" y="119.740235" style="stroke: #000000; stroke-width: 0.8"/>
      </g>
     </g>
     <g id="text_7">
      <!-- 22 -->
      <g transform="translate(327.519599 134.338673)scale(0.1 -0.1)">
       <use xlink:href="#DejaVuSans-32"/>
       <use xlink:href="#DejaVuSans-32" x="63.623047"/>
      </g>
     </g>
    </g>
    <g id="xtick_8">
     <g id="line2d_8">
      <g>
       <use xlink:href="#me0c26b0b49" x="377.314143" y="119.740235" style="stroke: #000000; stroke-width: 0.8"/>
      </g>
     </g>
     <g id="text_8">
      <!-- 24 -->
      <g transform="translate(370.951643 134.338673)scale(0.1 -0.1)">
       <use xlink:href="#DejaVuSans-32"/>
       <use xlink:href="#DejaVuSans-34" x="63.623047"/>
      </g>
     </g>
    </g>
    <g id="xtick_9">
     <g id="line2d_9">
      <g>
       <use xlink:href="#me0c26b0b49" x="399.030165" y="119.740235" style="stroke: #000000; stroke-width: 0.8"/>
      </g>
     </g>
     <g id="text_9">
      <!-- 25 -->
      <g transform="translate(392.667665 134.338673)scale(0.1 -0.1)">
       <defs>
        <path id="DejaVuSans-35" d="M 691 4666 
L 3169 4666 
L 3169 4134 
L 1269 4134 
L 1269 2991 
Q 1406 3038 1543 3061 
Q 1681 3084 1819 3084 
Q 2600 3084 3056 2656 
Q 3513 2228 3513 1497 
Q 3513 744 3044 326 
Q 2575 -91 1722 -91 
Q 1428 -91 1123 -41 
Q 819 9 494 109 
L 494 744 
Q 775 591 1075 516 
Q 1375 441 1709 441 
Q 2250 441 2565 725 
Q 2881 1009 2881 1497 
Q 2881 1984 2565 2268 
Q 2250 2553 1709 2553 
Q 1456 2553 1204 2497 
Q 953 2441 691 2322 
L 691 4666 
z
" transform="scale(0.015625)"/>
       </defs>
       <use xlink:href="#DejaVuSans-32"/>
       <use xlink:href="#DejaVuSans-35" x="63.623047"/>
      </g>
     </g>
    </g>
   </g>
   <g id="matplotlib.axis_2">
    <g id="ytick_1">
     <g id="line2d_10">
      <defs>
       <path id="md31cc0d09e" d="M 0 0 
L -3.5 0 
" style="stroke: #000000; stroke-width: 0.8"/>
      </defs>
      <g>
       <use xlink:href="#md31cc0d09e" x="57.6" y="116.182931" style="stroke: #000000; stroke-width: 0.8"/>
      </g>
     </g>
     <g id="text_10">
      <!-- 0.0 -->
      <g transform="translate(34.696875 119.98215)scale(0.1 -0.1)">
       <defs>
        <path id="DejaVuSans-2e" d="M 684 794 
L 1344 794 
L 1344 0 
L 684 0 
L 684 794 
z
" transform="scale(0.015625)"/>
       </defs>
       <use xlink:href="#DejaVuSans-30"/>
       <use xlink:href="#DejaVuSans-2e" x="63.623047"/>
       <use xlink:href="#DejaVuSans-30" x="95.410156"/>
      </g>
     </g>
    </g>
    <g id="ytick_2">
     <g id="line2d_11">
      <g>
       <use xlink:href="#md31cc0d09e" x="57.6" y="86.595275" style="stroke: #000000; stroke-width: 0.8"/>
      </g>
     </g>
     <g id="text_11">
      <!-- 2.5 -->
      <g transform="translate(34.696875 90.394494)scale(0.1 -0.1)">
       <use xlink:href="#DejaVuSans-32"/>
       <use xlink:href="#DejaVuSans-2e" x="63.623047"/>
       <use xlink:href="#DejaVuSans-35" x="95.410156"/>
      </g>
     </g>
    </g>
    <g id="ytick_3">
     <g id="line2d_12">
      <g>
       <use xlink:href="#md31cc0d09e" x="57.6" y="57.00762" style="stroke: #000000; stroke-width: 0.8"/>
      </g>
     </g>
     <g id="text_12">
      <!-- 5.0 -->
      <g transform="translate(34.696875 60.806839)scale(0.1 -0.1)">
       <use xlink:href="#DejaVuSans-35"/>
       <use xlink:href="#DejaVuSans-2e" x="63.623047"/>
       <use xlink:href="#DejaVuSans-30" x="95.410156"/>
      </g>
     </g>
    </g>
   </g>
   <g id="line2d_13">
    <path d="M 73.832727 116.159286 
L 74.37564 116.046828 
L 76.004338 116.158997 
L 78.175948 116.142879 
L 79.804646 115.85204 
L 80.347538 116.139588 
L 80.890451 115.677068 
L 81.433343 115.414587 
L 81.976236 115.743059 
L 82.519148 115.692266 
L 85.233651 116.095694 
L 85.776544 116.155926 
L 86.319456 116.016785 
L 86.862349 116.171921 
L 87.405241 115.991888 
L 87.948154 116.141819 
L 88.491046 116.031265 
L 89.033959 116.130176 
L 90.119744 116.137246 
L 95.548749 116.098192 
L 97.177467 115.904064 
L 97.72036 115.693555 
L 98.263252 115.322806 
L 98.806165 114.641254 
L 99.349057 113.522971 
L 99.89197 112.049894 
L 100.434863 111.040419 
L 100.977755 112.478921 
L 101.520668 114.613418 
L 102.06356 108.413532 
L 102.606473 107.382602 
L 103.149365 111.657329 
L 103.692258 114.423253 
L 104.23517 110.012464 
L 104.778063 111.2459 
L 105.320976 114.494055 
L 105.863868 114.638444 
L 106.40676 115.858199 
L 106.949673 115.658443 
L 107.492566 116.175409 
L 108.035478 115.525697 
L 108.578371 116.130858 
L 109.121263 115.424215 
L 109.664176 115.986913 
L 110.207068 115.465876 
L 110.749981 116.144726 
L 111.292874 115.674158 
L 111.835766 115.830086 
L 112.378679 115.642424 
L 113.464484 115.449438 
L 114.007376 115.804472 
L 114.550269 115.951316 
L 115.093181 115.91583 
L 115.636074 115.238621 
L 117.264771 115.555638 
L 117.807684 115.974035 
L 118.893489 115.689016 
L 120.522187 115.837936 
L 121.065079 116.002732 
L 121.607992 115.957445 
L 122.150885 116.167563 
L 122.693777 116.01216 
L 123.23669 116.104872 
L 123.779582 116.023579 
L 124.322495 116.162348 
L 124.865387 115.989038 
L 125.40828 116.022309 
L 127.036998 115.631194 
L 127.57989 115.54497 
L 128.122782 115.581538 
L 129.208588 116.047351 
L 130.294393 115.191064 
L 130.837285 115.275045 
L 131.92309 116.090676 
L 133.008896 115.746295 
L 134.094701 115.799267 
L 136.809203 116.166931 
L 140.066599 116.015907 
L 142.781101 115.609315 
L 143.866907 116.062201 
L 144.409799 115.57324 
L 144.952712 115.279237 
L 145.495604 115.398204 
L 146.581409 116.13631 
L 147.667214 115.850755 
L 149.838804 116.035155 
L 151.467522 116.175998 
L 154.724918 116.110551 
L 156.353615 115.936362 
L 157.982313 115.639729 
L 158.525225 115.750102 
L 159.068118 116.072838 
L 160.153923 115.635571 
L 160.696815 115.646235 
L 162.868426 116.174271 
L 164.497123 116.069912 
L 167.754539 116.163895 
L 171.011934 116.001932 
L 172.097739 115.726251 
L 172.640632 115.785687 
L 173.183544 116.164225 
L 174.269329 114.42623 
L 174.812242 114.111731 
L 175.355134 114.760383 
L 175.898047 115.987912 
L 176.44094 115.218409 
L 176.983832 114.732864 
L 177.526745 114.856754 
L 179.698335 116.180988 
L 180.78414 116.065035 
L 183.498643 116.043589 
L 186.213145 115.944641 
L 186.756058 116.05427 
L 187.298951 116.042346 
L 187.841843 115.454581 
L 188.384756 114.418918 
L 189.470561 111.001086 
L 190.013453 110.17429 
L 190.556346 112.570157 
L 191.099258 112.68071 
L 191.642151 103.640715 
L 192.185064 99.484723 
L 192.727956 104.642035 
L 193.270848 115.247557 
L 193.813761 109.012293 
L 194.356654 107.094514 
L 194.899566 108.859976 
L 195.985351 113.950571 
L 196.528264 115.638378 
L 197.071156 115.873547 
L 197.614069 115.557364 
L 198.156962 115.52606 
L 202.500162 116.143437 
L 203.043075 116.108267 
L 203.585967 115.906689 
L 204.128859 115.564842 
L 204.671752 115.04433 
L 206.30047 112.946484 
L 206.843362 113.778517 
L 207.386254 115.401533 
L 207.929188 110.266487 
L 208.47208 106.345849 
L 209.014973 107.317147 
L 209.557865 112.803201 
L 210.100757 113.640655 
L 210.643691 110.52466 
L 211.186583 110.969358 
L 212.272368 115.025266 
L 212.81526 116.080343 
L 213.358193 115.601785 
L 213.901086 115.315708 
L 216.072696 115.401387 
L 217.158481 115.43875 
L 218.244265 115.365136 
L 219.872984 115.14715 
L 220.415876 115.256579 
L 220.958768 115.718063 
L 221.501702 115.542001 
L 222.044594 113.334924 
L 222.587486 109.424424 
L 224.216204 92.761954 
L 224.759097 97.379371 
L 225.301989 115.172109 
L 226.387774 63.596345 
L 226.930707 56.673819 
L 227.473599 76.016301 
L 228.016492 111.823562 
L 228.559384 89.427977 
L 229.102276 77.905407 
L 229.64521 83.823746 
L 230.730995 107.357058 
L 231.273887 114.484793 
L 231.816779 114.178688 
L 232.359713 112.72471 
L 232.902605 112.527093 
L 233.445497 112.912337 
L 236.16 115.691631 
L 236.702892 116.133449 
L 237.245785 115.480351 
L 237.788718 114.581134 
L 238.33161 113.321989 
L 239.417395 110.117511 
L 239.960287 109.292019 
L 240.503221 110.834073 
L 241.046113 115.588689 
L 242.131898 93.202958 
L 242.67479 89.680348 
L 243.217724 99.847829 
L 243.760616 114.500831 
L 244.303508 100.904349 
L 244.846401 97.265422 
L 245.389293 101.507692 
L 245.932226 108.722836 
L 246.475119 114.383657 
L 247.018011 114.962217 
L 247.560903 113.368169 
L 248.103796 112.851467 
L 248.646729 113.04622 
L 249.189621 113.089211 
L 249.732514 113.433279 
L 250.275406 113.396171 
L 250.818298 113.566034 
L 251.361232 113.30517 
L 251.904124 113.20429 
L 252.447016 112.925746 
L 252.989909 112.853946 
L 253.532801 113.151074 
L 254.075735 114.161807 
L 254.618627 115.808857 
L 255.161519 111.371003 
L 255.704412 104.413619 
L 256.790237 87.134671 
L 257.33313 84.169821 
L 257.876022 90.99241 
L 258.418914 108.259123 
L 258.961807 102.237385 
L 259.50474 84.835033 
L 260.047632 78.497292 
L 260.590525 83.589773 
L 262.219243 114.736705 
L 263.305027 110.074859 
L 263.84792 109.670524 
L 264.390812 110.235255 
L 267.105315 115.244738 
L 267.648248 115.960421 
L 268.191141 115.738224 
L 271.448536 112.213464 
L 271.991428 112.230891 
L 272.53432 113.338066 
L 273.077254 116.019266 
L 273.620146 110.224294 
L 274.705931 92.233055 
L 275.248823 88.38627 
L 275.791757 95.10264 
L 276.334649 108.967674 
L 276.877541 114.69171 
L 277.420434 115.092968 
L 277.963326 111.084902 
L 278.506259 112.895775 
L 279.049152 93.380242 
L 279.592044 79.069458 
L 280.134936 82.141452 
L 281.220762 108.956169 
L 281.763654 113.576456 
L 282.306547 108.361725 
L 282.849439 107.098406 
L 283.392331 107.563332 
L 285.021049 110.361566 
L 286.649768 112.252552 
L 287.19266 113.202867 
L 287.735552 114.854226 
L 288.278445 114.594032 
L 288.821337 109.959617 
L 289.907163 96.78893 
L 290.450055 92.268371 
L 290.992947 93.606653 
L 291.53584 102.351893 
L 292.078773 115.979132 
L 292.621665 103.16438 
L 293.164558 94.429158 
L 293.70745 91.518701 
L 294.250342 93.626797 
L 294.793276 99.033384 
L 295.87906 111.672081 
L 296.421953 116.068822 
L 296.964845 113.696254 
L 297.507779 112.551515 
L 298.050671 112.401129 
L 298.593563 112.859827 
L 299.679348 114.445884 
L 300.765174 116.113349 
L 302.936784 113.596495 
L 303.479676 113.325923 
L 304.022569 113.538478 
L 304.565461 114.640396 
L 305.108353 115.184662 
L 305.651287 110.713524 
L 306.194179 104.070042 
L 307.279964 87.759201 
L 307.822856 83.690834 
L 308.36579 87.840315 
L 308.908682 103.337243 
L 309.451574 104.452333 
L 309.994467 81.402117 
L 310.537359 71.815582 
L 311.080292 77.979683 
L 312.166077 106.45862 
L 312.708969 116.000488 
L 313.251862 110.678664 
L 313.794795 108.613717 
L 314.337687 108.52413 
L 314.88058 109.422036 
L 316.509298 113.026141 
L 317.595082 114.678145 
L 318.680867 115.660111 
L 319.766693 116.175378 
L 320.852478 116.095627 
L 321.39537 115.557851 
L 321.938303 114.53452 
L 323.024088 111.705662 
L 323.56698 111.774701 
L 324.109873 114.638414 
L 324.652806 112.521008 
L 325.195698 108.583768 
L 325.738591 108.849419 
L 326.824375 116.049155 
L 327.367309 113.483579 
L 327.910201 112.667197 
L 328.453093 113.231037 
L 329.538878 114.825906 
L 330.081812 115.404651 
L 331.167596 115.850176 
L 332.796314 115.67157 
L 333.882099 115.340494 
L 334.967884 114.788982 
L 336.053709 113.894625 
L 337.139494 112.528642 
L 338.22532 110.88369 
L 338.768212 110.275808 
L 339.311104 110.473402 
L 340.396889 114.425679 
L 340.939823 103.380074 
L 342.5685 52.41645 
L 343.111392 65.677595 
L 343.654325 108.643402 
L 344.197218 72.435935 
L 344.74011 45.029647 
L 345.283002 51.12413 
L 346.368828 97.94256 
L 346.91172 115.217502 
L 347.454613 108.030089 
L 347.997505 104.829002 
L 348.540397 104.5877 
L 349.083331 105.721588 
L 350.712008 110.009149 
L 351.2549 111.017547 
L 352.340726 112.135707 
L 352.883618 112.516653 
L 353.426511 113.134158 
L 353.969403 114.237216 
L 354.512336 115.986935 
L 355.055229 112.304543 
L 355.598121 106.584505 
L 356.683906 91.51299 
L 357.226839 87.681868 
L 357.769731 92.043485 
L 358.312624 106.296644 
L 358.855516 106.36468 
L 359.398408 89.800053 
L 359.941342 82.922421 
L 360.484234 86.14598 
L 362.112911 112.884335 
L 362.655845 114.501883 
L 363.198737 111.98392 
L 363.741629 111.210771 
L 364.284522 111.477981 
L 364.827414 112.273068 
L 366.456132 115.362468 
L 366.999024 116.049049 
L 368.08485 114.344762 
L 369.170635 113.050755 
L 369.713527 112.841961 
L 370.256419 113.402088 
L 370.799353 115.272426 
L 371.342245 113.062605 
L 371.885137 105.870728 
L 372.970922 83.896923 
L 373.513856 76.829347 
L 374.056748 81.782932 
L 374.59964 102.147262 
L 375.142533 101.578896 
L 375.685425 78.532749 
L 376.228358 70.95673 
L 376.771251 78.218869 
L 377.857035 106.224922 
L 378.399928 115.792605 
L 378.942861 111.107317 
L 379.485753 108.836603 
L 380.028646 108.56097 
L 380.571538 109.279228 
L 382.200256 112.696897 
L 383.286041 114.252704 
L 383.828933 114.747923 
L 384.371867 115.088206 
L 385.457651 115.404417 
L 386.543436 115.373344 
L 387.629262 115.057432 
L 389.257939 114.188002 
L 389.800872 113.930524 
L 390.343764 113.944498 
L 390.886657 114.656548 
L 391.429549 115.567165 
L 391.972441 110.782481 
L 392.515375 102.105888 
L 393.601159 77.46314 
L 394.144052 75.913696 
L 394.686944 93.918142 
L 395.229878 105.900754 
L 395.77277 77.027129 
L 396.315662 62.240662 
L 396.858555 56.630026 
L 397.401447 56.260054 
L 397.94438 70.975638 
L 398.487273 109.339415 
L 398.487273 109.339415 
" clip-path="url(#p36b448052a)" style="fill: none; stroke: #385989; stroke-width: 1.5; stroke-linecap: square"/>
   </g>
   <g id="line2d_14">
    <path d="M 73.832727 115.794147 
L 74.37564 116.0971 
L 76.54723 115.934441 
L 77.090143 116.124057 
L 77.633035 115.803376 
L 78.175948 115.647646 
L 79.804646 116.170231 
L 80.347538 116.098881 
L 80.890451 115.781547 
L 81.433343 116.025776 
L 82.519148 115.991798 
L 83.604954 116.059378 
L 86.319456 116.137592 
L 89.576852 116.168337 
L 94.462965 116.175675 
L 95.005857 116.061001 
L 97.177467 116.140742 
L 98.263252 115.927407 
L 98.806165 115.637694 
L 99.89197 114.503682 
L 100.434863 114.086133 
L 100.977755 114.703111 
L 101.520668 114.969496 
L 102.06356 111.65462 
L 102.606473 110.303351 
L 103.149365 113.632724 
L 103.692258 115.711641 
L 104.23517 114.418317 
L 104.778063 114.720994 
L 105.320976 115.567072 
L 106.40676 115.859697 
L 106.949673 115.975424 
L 109.121263 116.004675 
L 110.749981 116.018898 
L 113.464484 115.928638 
L 114.007376 115.929351 
L 114.550269 116.177482 
L 116.178987 115.586137 
L 116.721879 115.717895 
L 117.264771 115.71597 
L 117.807684 116.132912 
L 119.436382 116.082118 
L 122.150885 116.162991 
L 124.865387 116.094757 
L 126.494085 115.86821 
L 127.036998 115.95266 
L 127.57989 115.208286 
L 128.122782 115.351769 
L 128.665695 116.061451 
L 129.208588 115.902904 
L 129.7515 115.618749 
L 130.294393 115.852093 
L 130.837285 115.556318 
L 131.380198 115.975905 
L 131.92309 116.07752 
L 133.551788 116.037312 
L 135.180506 116.175763 
L 137.895009 116.154479 
L 139.523706 116.078595 
L 142.238209 115.78042 
L 142.781101 115.886753 
L 143.324014 116.11253 
L 144.952712 115.515297 
L 145.495604 115.668337 
L 146.038517 115.976519 
L 146.581409 116.148738 
L 147.667214 116.002913 
L 148.75302 116.078629 
L 149.838804 115.955404 
L 150.381717 116.14536 
L 154.724918 116.048863 
L 156.896528 115.795508 
L 157.43942 115.406225 
L 157.982313 116.120533 
L 158.525225 115.821446 
L 159.068118 115.879284 
L 159.611031 115.542716 
L 160.153923 115.502212 
L 160.696815 116.091854 
L 161.239728 116.154631 
L 161.782621 115.967948 
L 162.325533 115.952944 
L 163.954231 116.165472 
L 169.926129 116.06821 
L 171.554826 115.89283 
L 172.640632 115.54403 
L 173.183544 115.652209 
L 173.726437 115.981545 
L 174.812242 115.571825 
L 175.355134 114.948272 
L 176.44094 116.021647 
L 176.983832 116.059124 
L 177.526745 115.844716 
L 179.155442 116.164003 
L 181.327053 116.117686 
L 182.412837 115.791224 
L 182.95575 116.177403 
L 186.756058 116.11519 
L 188.384756 115.957176 
L 190.556346 115.347672 
L 191.099258 115.777063 
L 191.642151 116.012871 
L 192.185064 114.564338 
L 192.727956 114.23736 
L 193.270848 115.344277 
L 193.813761 115.954219 
L 194.356654 116.171195 
L 194.899566 115.808765 
L 196.528264 116.174804 
L 197.614069 116.085051 
L 202.500162 116.161771 
L 203.043075 115.952741 
L 203.585967 116.07393 
L 204.128859 116.060694 
L 206.30047 115.315123 
L 206.843362 115.370685 
L 207.386254 115.863026 
L 207.929188 115.435961 
L 208.47208 114.61904 
L 209.014973 114.443994 
L 210.100757 116.117128 
L 210.643691 115.530713 
L 211.729475 115.732507 
L 212.81526 116.146159 
L 213.901086 116.089759 
L 219.330091 116.14361 
L 220.958768 116.058937 
L 221.501702 116.103789 
L 222.587486 116.017501 
L 223.130379 116.133585 
L 223.673271 115.988116 
L 224.216204 115.976171 
L 224.759097 114.270635 
L 225.301989 115.019781 
L 225.844881 114.218451 
L 226.387774 116.074547 
L 226.930707 113.186767 
L 227.473599 111.100499 
L 228.016492 111.032882 
L 228.559384 114.239966 
L 229.102276 114.166221 
L 229.64521 112.845841 
L 230.188102 113.14406 
L 230.730995 114.317413 
L 231.816779 115.86126 
L 232.359713 116.155961 
L 233.445497 115.981745 
L 235.074215 116.073468 
L 235.617108 116.051287 
L 236.16 116.173718 
L 236.702892 116.020346 
L 237.245785 116.087925 
L 238.33161 115.989979 
L 239.960287 116.111875 
L 240.503221 115.880693 
L 241.589005 115.787363 
L 242.131898 116.133298 
L 243.217724 115.595825 
L 243.760616 115.676136 
L 244.846401 116.130995 
L 245.932226 115.844185 
L 246.475119 115.883043 
L 247.018011 115.529829 
L 247.560903 115.344392 
L 248.103796 116.071687 
L 252.447016 116.098591 
L 254.075735 115.502232 
L 255.161519 114.652505 
L 255.704412 114.443674 
L 256.247304 114.82357 
L 256.790237 116.022716 
L 257.33313 113.60401 
L 257.876022 112.764341 
L 258.418914 112.809222 
L 259.50474 115.92078 
L 260.047632 113.592405 
L 260.590525 113.859026 
L 261.133417 114.36821 
L 261.676309 115.256533 
L 262.219243 115.930512 
L 262.762135 116.041019 
L 264.390812 115.694062 
L 264.933746 115.866544 
L 265.476638 115.896882 
L 266.01953 115.801243 
L 267.105315 115.760115 
L 267.648248 115.695987 
L 268.191141 115.945796 
L 269.276925 115.065271 
L 269.819818 115.401109 
L 270.362751 115.333457 
L 270.905643 115.431426 
L 271.448536 115.777794 
L 271.991428 115.724784 
L 272.53432 113.727695 
L 273.077254 110.024236 
L 273.620146 104.289886 
L 274.163038 97.166188 
L 274.705931 92.951964 
L 275.248823 99.083789 
L 275.791757 110.477827 
L 276.334649 78.101378 
L 276.877541 58.205974 
L 277.420434 69.093408 
L 277.963326 103.133702 
L 278.506259 96.874726 
L 279.049152 84.696746 
L 279.592044 89.776566 
L 280.677829 108.224253 
L 281.220762 114.363179 
L 281.763654 114.917495 
L 282.306547 113.713557 
L 282.849439 113.457398 
L 283.935265 114.277901 
L 285.021049 115.338181 
L 286.106834 115.982991 
L 286.649768 116.071796 
L 287.19266 115.935302 
L 287.735552 115.402952 
L 288.278445 114.3024 
L 288.821337 112.671622 
L 289.36427 110.559425 
L 289.907163 109.72077 
L 290.450055 109.931035 
L 290.992947 115.141432 
L 292.078773 104.757014 
L 292.621665 104.360391 
L 293.164558 109.12425 
L 293.70745 115.059197 
L 294.793276 111.710419 
L 295.336168 111.942864 
L 296.964845 114.940601 
L 297.507779 115.532077 
L 298.050671 115.897747 
L 298.593563 116.066925 
L 299.679348 116.015128 
L 300.222281 115.995093 
L 300.765174 115.791337 
L 301.308066 115.813554 
L 302.393851 116.060536 
L 302.936784 115.749654 
L 303.479676 114.700158 
L 304.022569 112.835468 
L 304.565461 109.949471 
L 305.651287 102.471717 
L 306.194179 101.447592 
L 307.279964 111.293322 
L 308.36579 74.541441 
L 308.908682 74.342086 
L 309.994467 111.053526 
L 310.537359 91.91006 
L 311.080292 87.878591 
L 311.623185 94.481651 
L 312.708969 111.392874 
L 313.251862 116.146913 
L 313.794795 113.698211 
L 314.337687 112.70455 
L 314.88058 112.552512 
L 317.05219 113.26236 
L 317.595082 113.172013 
L 318.137975 112.945312 
L 319.766693 111.982536 
L 320.309585 112.225804 
L 320.852478 113.491291 
L 321.39537 115.703659 
L 321.938303 109.527696 
L 322.481196 99.219285 
L 323.56698 73.263016 
L 324.109873 74.501735 
L 325.195698 110.928932 
L 325.738591 78.966466 
L 326.281483 66.627131 
L 326.824375 71.816421 
L 327.910201 102.816935 
L 328.453093 114.191099 
L 329.538878 108.608268 
L 330.081812 107.91379 
L 330.624704 108.550781 
L 332.796314 113.421824 
L 333.339207 112.906943 
L 334.424991 115.044115 
L 334.967884 114.658712 
L 336.053709 114.933728 
L 336.596602 115.382749 
L 337.139494 116.100229 
L 337.682386 114.281924 
L 338.22532 110.990873 
L 338.768212 105.948131 
L 339.853997 94.181915 
L 340.396889 94.873666 
L 340.939823 107.134235 
L 341.482715 101.675127 
L 342.025607 75.153864 
L 342.5685 59.884552 
L 343.111392 65.937952 
L 343.654325 93.50365 
L 344.197218 105.016344 
L 344.74011 83.161302 
L 345.283002 80.342662 
L 345.825895 89.765275 
L 346.368828 101.627171 
L 346.91172 110.671686 
L 347.454613 115.992761 
L 347.997505 113.300426 
L 348.540397 112.509705 
L 349.083331 112.544361 
L 349.626223 112.894849 
L 351.2549 114.659243 
L 352.340726 115.481528 
L 352.883618 115.963614 
L 353.426511 115.906045 
L 353.969403 115.089823 
L 354.512336 113.732545 
L 355.598121 109.769678 
L 356.683906 104.43107 
L 357.226839 108.263759 
L 357.769731 114.896628 
L 358.855516 82.194394 
L 359.398408 79.333212 
L 360.484234 110.694605 
L 361.027126 93.310066 
L 361.570019 90.862361 
L 362.112911 98.031737 
L 362.655845 107.113768 
L 363.198737 113.644701 
L 363.741629 114.58702 
L 364.284522 112.773906 
L 365.370347 112.438693 
L 365.91324 112.606185 
L 366.456132 113.179181 
L 367.541917 113.193656 
L 368.627742 112.87302 
L 369.713527 112.689212 
L 370.256419 113.19776 
L 370.799353 114.659277 
L 371.342245 114.578145 
L 371.885137 108.970456 
L 372.42803 100.439288 
L 373.513856 81.752379 
L 374.056748 81.759994 
L 375.142533 111.735936 
L 375.685425 87.287794 
L 376.228358 75.010848 
L 376.771251 77.796194 
L 378.399928 112.504369 
L 378.942861 113.467533 
L 379.485753 110.367268 
L 380.028646 109.498888 
L 380.571538 109.796912 
L 383.286041 115.06371 
L 383.828933 115.782727 
L 384.371867 116.120239 
L 385.457651 115.210572 
L 386.000544 115.048462 
L 386.543436 115.180391 
L 387.086369 115.831494 
L 387.629262 115.235113 
L 388.172154 112.221942 
L 388.715046 107.165216 
L 389.800872 93.08834 
L 390.343764 91.862136 
L 390.886657 98.215475 
L 391.429549 113.967477 
L 392.515375 81.336563 
L 393.058267 69.918905 
L 393.601159 65.711874 
L 394.144052 72.482596 
L 394.686944 96.900877 
L 395.229878 100.920442 
L 395.77277 76.022369 
L 396.315662 71.686037 
L 396.858555 83.1043 
L 397.401447 98.732945 
L 397.94438 110.740498 
L 398.487273 115.051603 
L 398.487273 115.051603 
" clip-path="url(#p36b448052a)" style="fill: none; stroke: #d22027; stroke-width: 1.5; stroke-linecap: square"/>
   </g>
   <g id="patch_3">
    <path d="M 57.6 119.740235 
L 57.6 41.472 
" style="fill: none; stroke: #000000; stroke-width: 0.8; stroke-linejoin: miter; stroke-linecap: square"/>
   </g>
   <g id="patch_4">
    <path d="M 414.72 119.740235 
L 414.72 41.472 
" style="fill: none; stroke: #000000; stroke-width: 0.8; stroke-linejoin: miter; stroke-linecap: square"/>
   </g>
   <g id="patch_5">
    <path d="M 57.6 119.740235 
L 414.72 119.740235 
" style="fill: none; stroke: #000000; stroke-width: 0.8; stroke-linejoin: miter; stroke-linecap: square"/>
   </g>
   <g id="patch_6">
    <path d="M 57.6 41.472 
L 414.72 41.472 
" style="fill: none; stroke: #000000; stroke-width: 0.8; stroke-linejoin: miter; stroke-linecap: square"/>
   </g>
  </g>
  <g id="axes_2">
   <g id="patch_7">
    <path d="M 57.6 213.662118 
L 414.72 213.662118 
L 414.72 135.393882 
L 57.6 135.393882 
z
" style="fill: #ffffff"/>
   </g>
   <g id="matplotlib.axis_3">
    <g id="xtick_10">
     <g id="line2d_15">
      <g>
       <use xlink:href="#me0c26b0b49" x="73.289835" y="213.662118" style="stroke: #000000; stroke-width: 0.8"/>
      </g>
     </g>
     <g id="text_13">
      <!-- 10 -->
      <g transform="translate(66.927335 228.260555)scale(0.1 -0.1)">
       <use xlink:href="#DejaVuSans-31"/>
       <use xlink:href="#DejaVuSans-30" x="63.623047"/>
      </g>
     </g>
    </g>
    <g id="xtick_11">
     <g id="line2d_16">
      <g>
       <use xlink:href="#me0c26b0b49" x="116.721879" y="213.662118" style="stroke: #000000; stroke-width: 0.8"/>
      </g>
     </g>
     <g id="text_14">
      <!-- 12 -->
      <g transform="translate(110.359379 228.260555)scale(0.1 -0.1)">
       <use xlink:href="#DejaVuSans-31"/>
       <use xlink:href="#DejaVuSans-32" x="63.623047"/>
      </g>
     </g>
    </g>
    <g id="xtick_12">
     <g id="line2d_17">
      <g>
       <use xlink:href="#me0c26b0b49" x="160.153923" y="213.662118" style="stroke: #000000; stroke-width: 0.8"/>
      </g>
     </g>
     <g id="text_15">
      <!-- 14 -->
      <g transform="translate(153.791423 228.260555)scale(0.1 -0.1)">
       <use xlink:href="#DejaVuSans-31"/>
       <use xlink:href="#DejaVuSans-34" x="63.623047"/>
      </g>
     </g>
    </g>
    <g id="xtick_13">
     <g id="line2d_18">
      <g>
       <use xlink:href="#me0c26b0b49" x="203.585967" y="213.662118" style="stroke: #000000; stroke-width: 0.8"/>
      </g>
     </g>
     <g id="text_16">
      <!-- 16 -->
      <g transform="translate(197.223467 228.260555)scale(0.1 -0.1)">
       <use xlink:href="#DejaVuSans-31"/>
       <use xlink:href="#DejaVuSans-36" x="63.623047"/>
      </g>
     </g>
    </g>
    <g id="xtick_14">
     <g id="line2d_19">
      <g>
       <use xlink:href="#me0c26b0b49" x="247.018011" y="213.662118" style="stroke: #000000; stroke-width: 0.8"/>
      </g>
     </g>
     <g id="text_17">
      <!-- 18 -->
      <g transform="translate(240.655511 228.260555)scale(0.1 -0.1)">
       <use xlink:href="#DejaVuSans-31"/>
       <use xlink:href="#DejaVuSans-38" x="63.623047"/>
      </g>
     </g>
    </g>
    <g id="xtick_15">
     <g id="line2d_20">
      <g>
       <use xlink:href="#me0c26b0b49" x="290.450055" y="213.662118" style="stroke: #000000; stroke-width: 0.8"/>
      </g>
     </g>
     <g id="text_18">
      <!-- 20 -->
      <g transform="translate(284.087555 228.260555)scale(0.1 -0.1)">
       <use xlink:href="#DejaVuSans-32"/>
       <use xlink:href="#DejaVuSans-30" x="63.623047"/>
      </g>
     </g>
    </g>
    <g id="xtick_16">
     <g id="line2d_21">
      <g>
       <use xlink:href="#me0c26b0b49" x="333.882099" y="213.662118" style="stroke: #000000; stroke-width: 0.8"/>
      </g>
     </g>
     <g id="text_19">
      <!-- 22 -->
      <g transform="translate(327.519599 228.260555)scale(0.1 -0.1)">
       <use xlink:href="#DejaVuSans-32"/>
       <use xlink:href="#DejaVuSans-32" x="63.623047"/>
      </g>
     </g>
    </g>
    <g id="xtick_17">
     <g id="line2d_22">
      <g>
       <use xlink:href="#me0c26b0b49" x="377.314143" y="213.662118" style="stroke: #000000; stroke-width: 0.8"/>
      </g>
     </g>
     <g id="text_20">
      <!-- 24 -->
      <g transform="translate(370.951643 228.260555)scale(0.1 -0.1)">
       <use xlink:href="#DejaVuSans-32"/>
       <use xlink:href="#DejaVuSans-34" x="63.623047"/>
      </g>
     </g>
    </g>
    <g id="xtick_18">
     <g id="line2d_23">
      <g>
       <use xlink:href="#me0c26b0b49" x="399.030165" y="213.662118" style="stroke: #000000; stroke-width: 0.8"/>
      </g>
     </g>
     <g id="text_21">
      <!-- 25 -->
      <g transform="translate(392.667665 228.260555)scale(0.1 -0.1)">
       <use xlink:href="#DejaVuSans-32"/>
       <use xlink:href="#DejaVuSans-35" x="63.623047"/>
      </g>
     </g>
    </g>
   </g>
   <g id="matplotlib.axis_4">
    <g id="ytick_4">
     <g id="line2d_24">
      <g>
       <use xlink:href="#md31cc0d09e" x="57.6" y="210.105351" style="stroke: #000000; stroke-width: 0.8"/>
      </g>
     </g>
     <g id="text_22">
      <!-- 0 -->
      <g transform="translate(44.2375 213.90457)scale(0.1 -0.1)">
       <use xlink:href="#DejaVuSans-30"/>
      </g>
     </g>
    </g>
    <g id="ytick_5">
     <g id="line2d_25">
      <g>
       <use xlink:href="#md31cc0d09e" x="57.6" y="170.695944" style="stroke: #000000; stroke-width: 0.8"/>
      </g>
     </g>
     <g id="text_23">
      <!-- 10 -->
      <g transform="translate(37.875 174.495163)scale(0.1 -0.1)">
       <use xlink:href="#DejaVuSans-31"/>
       <use xlink:href="#DejaVuSans-30" x="63.623047"/>
      </g>
     </g>
    </g>
   </g>
   <g id="line2d_26">
    <path d="M 73.832727 209.832009 
L 74.918533 210.0908 
L 75.461445 210.026921 
L 76.54723 210.060664 
L 77.633035 209.930764 
L 78.175948 210.012342 
L 78.718841 209.972122 
L 79.261733 209.772789 
L 79.804646 209.991752 
L 81.976236 209.799903 
L 82.519148 210.042842 
L 83.062041 210.06971 
L 83.604954 209.949494 
L 84.690738 210.07465 
L 86.862349 210.087435 
L 94.462965 210.051192 
L 97.177467 209.948593 
L 97.72036 210.077626 
L 98.263252 209.794459 
L 98.806165 209.082802 
L 99.89197 207.123668 
L 100.434863 208.552374 
L 100.977755 205.530133 
L 101.520668 197.452652 
L 102.06356 198.585429 
L 102.606473 207.60229 
L 103.149365 198.633188 
L 103.692258 202.837133 
L 104.23517 209.028441 
L 104.778063 209.871271 
L 105.320976 208.654326 
L 105.863868 208.08746 
L 106.40676 209.657978 
L 108.035478 210.015676 
L 108.578371 209.841156 
L 109.121263 210.049828 
L 109.664176 209.937832 
L 111.292874 210.063278 
L 111.835766 209.947709 
L 113.464484 210.040328 
L 114.007376 209.842255 
L 114.550269 209.315448 
L 115.636074 209.244727 
L 116.721879 209.997905 
L 117.264771 209.646653 
L 117.807684 209.749562 
L 118.350577 209.722395 
L 118.893489 210.072931 
L 119.436382 210.093696 
L 119.979274 209.867466 
L 120.522187 209.967346 
L 121.065079 209.799628 
L 121.607992 209.942704 
L 122.150885 209.856335 
L 122.693777 209.954216 
L 123.779582 209.97814 
L 125.40828 210.062579 
L 127.036998 209.910745 
L 127.57989 209.987034 
L 128.122782 209.941561 
L 129.208588 209.194302 
L 129.7515 209.178434 
L 130.294393 209.515798 
L 130.837285 210.063382 
L 131.380198 209.71237 
L 131.92309 209.592391 
L 133.551788 210.064995 
L 135.180506 209.8997 
L 137.352096 209.95461 
L 140.609511 210.003868 
L 141.695296 209.886074 
L 142.781101 209.963767 
L 143.866907 209.247825 
L 144.409799 209.265113 
L 145.495604 210.040589 
L 146.038517 209.690429 
L 146.581409 209.686657 
L 147.667214 210.03783 
L 148.75302 209.973825 
L 150.381717 209.933044 
L 155.810723 210.061043 
L 156.896528 209.926768 
L 157.43942 209.95012 
L 157.982313 210.094776 
L 159.068118 209.567971 
L 159.611031 209.494671 
L 160.153923 209.719794 
L 160.696815 210.100755 
L 161.239728 209.916878 
L 163.411318 210.090736 
L 165.040036 209.996368 
L 168.840324 209.993974 
L 172.097739 209.801836 
L 172.640632 210.080437 
L 173.726437 208.70086 
L 174.269329 208.590509 
L 174.812242 209.601614 
L 175.898047 208.464022 
L 176.44094 208.85761 
L 177.526745 210.016573 
L 178.069637 209.816524 
L 178.61255 209.753994 
L 180.241247 210.059869 
L 182.412837 210.062133 
L 186.213145 209.967687 
L 186.756058 209.744111 
L 187.298951 209.342343 
L 187.841843 208.653263 
L 188.927648 206.528005 
L 189.470561 206.154925 
L 190.013453 208.369161 
L 190.556346 205.360645 
L 191.099258 196.941036 
L 191.642151 195.170952 
L 192.185064 205.402878 
L 193.270848 197.108129 
L 193.813761 201.34271 
L 194.356654 207.265751 
L 194.899566 208.881871 
L 195.442459 207.654132 
L 195.985351 208.171629 
L 196.528264 208.868046 
L 197.614069 209.679903 
L 198.699854 209.943776 
L 200.871464 210.01026 
L 203.043075 210.0104 
L 203.585967 209.812547 
L 204.128859 209.47756 
L 205.757577 208.045743 
L 206.30047 208.743068 
L 206.843362 208.669624 
L 207.386254 203.882091 
L 207.929188 200.46495 
L 208.47208 203.56147 
L 209.014973 207.574494 
L 209.557865 200.997822 
L 210.100757 202.352347 
L 210.643691 207.462055 
L 211.186583 209.479263 
L 211.729475 208.417284 
L 212.272368 208.181242 
L 213.901086 209.585155 
L 214.98687 209.929284 
L 216.615588 209.9358 
L 219.330091 209.776207 
L 220.415876 209.939896 
L 220.958768 209.145018 
L 221.501702 207.637122 
L 222.044594 205.070141 
L 223.130379 197.012341 
L 223.673271 195.153093 
L 224.216204 200.922265 
L 224.759097 201.961939 
L 225.301989 177.888729 
L 225.844881 161.969346 
L 226.387774 168.032378 
L 226.930707 198.018743 
L 227.473599 183.016927 
L 228.016492 161.702061 
L 228.559384 171.590524 
L 229.102276 196.091132 
L 229.64521 206.268694 
L 230.188102 200.155421 
L 230.730995 200.898676 
L 231.816779 206.202213 
L 232.359713 207.932029 
L 232.902605 209.001602 
L 233.445497 209.613419 
L 233.98839 209.947446 
L 234.531282 210.08609 
L 236.16 209.700136 
L 236.702892 209.426745 
L 237.245785 208.993472 
L 237.788718 208.333477 
L 238.874503 206.559294 
L 239.417395 206.263866 
L 239.960287 207.80531 
L 240.503221 207.470922 
L 241.589005 189.852337 
L 242.131898 189.710155 
L 242.67479 204.530102 
L 243.760616 184.16161 
L 244.303508 192.261477 
L 244.846401 206.346213 
L 245.389293 205.733054 
L 245.932226 204.049836 
L 246.475119 204.665839 
L 247.560903 207.942665 
L 248.103796 208.76188 
L 248.646729 209.221565 
L 249.189621 209.446056 
L 249.732514 209.463048 
L 251.361232 209.021912 
L 251.904124 208.842627 
L 252.447016 208.874334 
L 252.989909 209.131646 
L 253.532801 209.986713 
L 254.075735 208.505901 
L 254.618627 205.448373 
L 255.161519 200.827072 
L 255.704412 195.234835 
L 256.247304 190.825331 
L 256.790237 191.5496 
L 257.33313 201.012903 
L 257.876022 202.037163 
L 258.418914 184.763859 
L 258.961807 177.16921 
L 259.50474 183.187788 
L 260.590525 209.187734 
L 261.133417 201.322044 
L 261.676309 199.635901 
L 262.219243 201.518517 
L 263.305027 206.374689 
L 263.84792 208.080432 
L 264.390812 209.222112 
L 264.933746 209.938816 
L 265.476638 209.845346 
L 266.562423 209.447335 
L 268.734033 208.946369 
L 270.905643 208.261893 
L 271.448536 208.543271 
L 271.991428 209.535958 
L 272.53432 208.342561 
L 273.077254 204.075269 
L 274.163038 191.947689 
L 274.705931 191.583332 
L 275.248823 202.009919 
L 275.791757 201.415324 
L 276.334649 194.670627 
L 276.877541 206.339997 
L 277.420434 201.028693 
L 277.963326 209.620887 
L 278.506259 186.945896 
L 279.049152 177.298365 
L 279.592044 190.709777 
L 280.134936 209.696144 
L 280.677829 196.787877 
L 281.220762 194.757456 
L 282.306547 203.98452 
L 282.849439 206.072192 
L 283.392331 207.677095 
L 283.935265 208.676907 
L 284.478157 209.052927 
L 286.106834 209.445866 
L 286.649768 209.875228 
L 287.19266 209.398323 
L 287.735552 207.565821 
L 288.278445 204.615207 
L 289.36427 196.680779 
L 289.907163 195.245182 
L 290.450055 199.269377 
L 290.992947 209.245062 
L 291.53584 199.150172 
L 292.078773 191.607772 
L 292.621665 190.848697 
L 293.164558 194.986387 
L 294.250342 207.946389 
L 294.793276 207.245278 
L 295.336168 204.765823 
L 295.87906 204.4718 
L 296.421953 205.38222 
L 297.507779 208.027224 
L 298.050671 209.054089 
L 298.593563 209.792855 
L 299.136456 209.901121 
L 300.222281 209.287171 
L 301.850958 208.749311 
L 302.393851 208.675509 
L 302.936784 208.748592 
L 303.479676 209.123899 
L 304.022569 210.056427 
L 304.565461 208.322965 
L 305.108353 205.232638 
L 306.737071 191.518635 
L 307.279964 191.210045 
L 307.822856 197.999021 
L 308.36579 206.611711 
L 308.908682 185.622974 
L 309.451574 171.09825 
L 309.994467 175.063304 
L 310.537359 194.134277 
L 311.080292 207.015024 
L 311.623185 197.567537 
L 312.166077 196.798424 
L 313.794795 206.400112 
L 314.337687 208.280531 
L 314.88058 209.402369 
L 315.423472 210.012886 
L 317.05219 209.759776 
L 319.223801 209.907734 
L 320.309585 210.013658 
L 320.852478 209.633381 
L 321.39537 208.95983 
L 322.481196 207.18407 
L 323.024088 207.4326 
L 323.56698 210.058085 
L 324.109873 205.429668 
L 324.652806 201.967144 
L 325.195698 203.800898 
L 325.738591 209.854446 
L 326.281483 205.502291 
L 326.824375 205.033414 
L 327.910201 208.948985 
L 328.453093 209.876053 
L 329.538878 209.740609 
L 331.167596 210.07607 
L 332.796314 209.812376 
L 334.967884 209.208252 
L 336.053709 208.678382 
L 337.682386 207.668434 
L 338.22532 207.567709 
L 338.768212 207.996674 
L 339.311104 209.648217 
L 339.853997 206.611353 
L 340.396889 198.880755 
L 341.482715 172.340323 
L 342.025607 166.583023 
L 342.5685 185.839302 
L 343.111392 186.91418 
L 343.654325 142.309233 
L 344.197218 138.951529 
L 345.283002 208.984526 
L 345.825895 188.860331 
L 346.368828 187.484284 
L 347.454613 199.783682 
L 347.997505 203.915153 
L 348.540397 206.813097 
L 349.083331 208.466606 
L 349.626223 209.266536 
L 350.169115 209.619704 
L 350.712008 209.679029 
L 352.340726 209.384674 
L 352.883618 209.580413 
L 353.426511 210.022747 
L 353.969403 208.680059 
L 354.512336 206.298271 
L 355.055229 202.633143 
L 356.141013 193.759728 
L 356.683906 193.082095 
L 357.769731 205.935582 
L 358.312624 189.142707 
L 358.855516 180.251143 
L 359.398408 184.490918 
L 360.484234 209.618489 
L 361.027126 203.534848 
L 361.570019 201.538304 
L 362.112911 202.509722 
L 363.198737 206.60848 
L 363.741629 208.197748 
L 364.284522 209.330498 
L 364.827414 210.085844 
L 365.91324 209.299356 
L 367.541917 208.649412 
L 368.627742 208.421631 
L 369.170635 208.569291 
L 369.713527 209.171814 
L 370.256419 209.555929 
L 370.799353 206.674957 
L 371.342245 201.841253 
L 372.42803 187.874058 
L 372.970922 185.194141 
L 373.513856 193.549612 
L 374.056748 204.962423 
L 374.59964 179.119124 
L 375.142533 166.631483 
L 375.685425 175.674558 
L 376.228358 196.495994 
L 376.771251 206.245244 
L 377.314143 198.200731 
L 377.857035 197.395522 
L 378.399928 200.093206 
L 379.485753 206.16168 
L 380.028646 208.017394 
L 380.571538 209.194331 
L 381.11443 209.845308 
L 381.657364 210.047463 
L 382.743148 209.911811 
L 384.914759 210.009885 
L 387.086369 209.576418 
L 389.257939 208.998057 
L 389.800872 209.087461 
L 390.343764 209.640148 
L 390.886657 209.042725 
L 391.429549 205.752797 
L 391.972441 199.800924 
L 393.058267 183.649193 
L 393.601159 186.041585 
L 394.144052 207.436774 
L 394.686944 179.807611 
L 395.229878 160.740359 
L 395.77277 166.893689 
L 396.315662 179.931867 
L 396.858555 184.761287 
L 397.401447 193.580565 
L 397.94438 194.15285 
L 398.487273 151.768595 
L 398.487273 151.768595 
" clip-path="url(#p0217a40bcb)" style="fill: none; stroke: #385989; stroke-width: 1.5; stroke-linecap: square"/>
   </g>
   <g id="line2d_27">
    <path d="M 73.832727 209.881278 
L 74.37564 210.0599 
L 78.175948 209.986514 
L 78.718841 209.716359 
L 80.347538 210.090525 
L 80.890451 209.893939 
L 81.433343 210.054429 
L 81.976236 210.092335 
L 82.519148 209.998531 
L 87.948154 210.097579 
L 95.548749 210.078547 
L 98.263252 209.929231 
L 98.806165 209.636847 
L 99.349057 209.158904 
L 99.89197 208.961061 
L 100.434863 209.579831 
L 100.977755 208.16187 
L 101.520668 205.478785 
L 102.06356 206.250885 
L 102.606473 209.566137 
L 103.149365 206.935531 
L 103.692258 207.469201 
L 104.23517 209.426811 
L 104.778063 209.694104 
L 105.320976 209.468911 
L 105.863868 209.855763 
L 107.492566 210.03388 
L 108.578371 210.092528 
L 112.378679 210.084232 
L 113.464484 209.98972 
L 114.007376 209.914147 
L 114.550269 209.699325 
L 115.636074 209.645131 
L 116.178987 210.090267 
L 118.350577 210.01591 
L 118.893489 210.091975 
L 120.522187 210.000268 
L 128.122782 210.035597 
L 128.665695 209.605956 
L 129.208588 209.497066 
L 129.7515 209.675613 
L 130.294393 210.007919 
L 130.837285 210.081724 
L 131.380198 209.910891 
L 131.92309 209.868161 
L 133.008896 210.100274 
L 134.637593 209.994697 
L 142.238209 210.06342 
L 143.866907 209.488595 
L 144.409799 209.612157 
L 144.952712 209.957173 
L 146.581409 209.855246 
L 147.667214 210.073249 
L 149.838804 209.884252 
L 150.381717 210.025956 
L 155.810723 210.026787 
L 156.353615 209.965724 
L 157.43942 210.103221 
L 158.525225 209.301782 
L 159.068118 209.364277 
L 159.611031 209.984154 
L 160.153923 210.046819 
L 160.696815 209.77141 
L 161.239728 209.677155 
L 162.325533 210.104286 
L 163.411318 209.967088 
L 171.011934 209.963345 
L 172.097739 209.923953 
L 172.640632 210.015121 
L 173.726437 209.627778 
L 174.269329 208.994505 
L 174.812242 209.135993 
L 175.355134 210.094709 
L 175.898047 209.662738 
L 176.44094 209.507797 
L 178.069637 210.004783 
L 179.155442 209.946757 
L 182.95575 210.081654 
L 188.927648 209.979375 
L 189.470561 209.85066 
L 190.556346 210.092709 
L 191.099258 209.390759 
L 191.642151 208.963969 
L 192.185064 209.241737 
L 192.727956 210.083919 
L 193.270848 209.407218 
L 194.356654 209.728865 
L 194.899566 210.096988 
L 195.442459 209.927039 
L 197.071156 210.009422 
L 199.785659 210.094218 
L 205.214685 209.841235 
L 205.757577 209.777145 
L 206.843362 209.850018 
L 207.929188 208.355714 
L 208.47208 208.782297 
L 209.014973 210.026412 
L 209.557865 208.982595 
L 210.100757 208.907055 
L 211.186583 210.077099 
L 211.729475 209.851564 
L 212.81526 209.872804 
L 215.529763 210.088293 
L 222.587486 209.967436 
L 223.130379 209.855287 
L 223.673271 209.471418 
L 224.216204 209.451737 
L 224.759097 207.434628 
L 225.301989 208.130193 
L 225.844881 209.776982 
L 226.387774 207.497294 
L 226.930707 204.276336 
L 227.473599 205.411968 
L 228.016492 208.957564 
L 228.559384 205.107156 
L 229.102276 205.857617 
L 229.64521 208.561231 
L 230.188102 209.866297 
L 230.730995 209.342364 
L 231.273887 209.423999 
L 232.359713 209.839444 
L 233.445497 210.039612 
L 235.074215 210.094936 
L 236.16 210.036009 
L 237.788718 210.070191 
L 239.417395 209.818345 
L 240.503221 209.623808 
L 241.589005 210.01914 
L 242.131898 209.596263 
L 242.67479 209.449159 
L 243.760616 210.020121 
L 244.303508 209.765401 
L 244.846401 209.719884 
L 247.560903 210.083947 
L 252.447016 210.035964 
L 253.532801 209.771396 
L 254.618627 209.329247 
L 255.161519 209.254109 
L 255.704412 209.738375 
L 256.247304 209.214961 
L 256.790237 207.19009 
L 257.33313 205.957532 
L 258.418914 209.577798 
L 258.961807 206.903677 
L 259.50474 206.390483 
L 260.047632 208.442478 
L 260.590525 209.793128 
L 261.133417 209.499333 
L 261.676309 209.349744 
L 262.219243 209.426935 
L 263.305027 209.77247 
L 264.933746 209.998241 
L 266.01953 209.975189 
L 266.562423 210.042089 
L 267.648248 209.785863 
L 268.191141 209.952908 
L 270.362751 209.756111 
L 270.905643 210.014819 
L 271.448536 209.567282 
L 271.991428 208.238831 
L 272.53432 205.781189 
L 273.620146 197.299665 
L 274.163038 195.062868 
L 274.705931 201.957046 
L 275.248823 196.737502 
L 275.791757 167.77758 
L 276.334649 156.733053 
L 276.877541 182.945117 
L 277.420434 190.904689 
L 277.963326 164.192984 
L 278.506259 172.819719 
L 279.049152 196.131758 
L 279.592044 207.094596 
L 280.134936 201.633822 
L 280.677829 202.479336 
L 281.763654 206.972509 
L 282.306547 208.443617 
L 282.849439 209.368802 
L 283.392331 209.913053 
L 283.935265 209.993369 
L 285.021049 209.749042 
L 286.106834 209.821892 
L 286.649768 210.060632 
L 287.19266 209.706475 
L 287.735552 208.961824 
L 288.821337 206.538648 
L 289.36427 205.814033 
L 289.907163 207.727389 
L 290.450055 207.924654 
L 290.992947 201.94738 
L 291.53584 198.551734 
L 292.078773 202.274076 
L 292.621665 209.869221 
L 293.164558 204.620652 
L 293.70745 203.398338 
L 295.336168 209.756583 
L 296.421953 209.404844 
L 296.964845 209.456661 
L 299.136456 210.10301 
L 300.222281 209.983839 
L 300.765174 209.933947 
L 301.308066 210.027599 
L 301.850958 209.94507 
L 302.393851 209.57955 
L 302.936784 208.829282 
L 303.479676 207.592567 
L 304.022569 205.707864 
L 305.108353 201.26442 
L 305.651287 201.49957 
L 306.194179 207.067524 
L 306.737071 200.360327 
L 307.279964 183.934131 
L 307.822856 174.274996 
L 308.36579 182.903911 
L 308.908682 209.851271 
L 309.451574 182.483038 
L 309.994467 174.120803 
L 310.537359 186.602313 
L 311.080292 204.150246 
L 311.623185 205.335866 
L 312.166077 202.462588 
L 312.708969 203.512585 
L 313.794795 207.2135 
L 314.337687 208.355317 
L 314.88058 209.006705 
L 315.423472 209.340762 
L 315.966364 209.413132 
L 317.05219 209.161775 
L 318.680867 208.467492 
L 319.223801 208.431198 
L 319.766693 208.724216 
L 320.309585 209.763342 
L 320.852478 208.132361 
L 321.39537 203.778194 
L 321.938303 196.940313 
L 322.481196 187.967493 
L 323.024088 181.125548 
L 323.56698 185.34069 
L 324.109873 204.709695 
L 325.195698 161.746691 
L 325.738591 166.993142 
L 326.824375 208.954979 
L 327.367309 197.535876 
L 327.910201 195.941284 
L 328.453093 198.724513 
L 329.538878 205.486666 
L 330.081812 207.513948 
L 330.624704 208.910174 
L 331.167596 209.804888 
L 331.710489 209.985818 
L 332.796314 209.879937 
L 333.882099 209.843281 
L 334.424991 210.087745 
L 334.967884 209.838142 
L 335.510817 209.898063 
L 336.053709 210.070789 
L 336.596602 209.455016 
L 337.139494 208.217712 
L 337.682386 206.045664 
L 338.22532 202.667721 
L 338.768212 198.575262 
L 339.311104 195.676272 
L 339.853997 198.28779 
L 340.396889 209.556632 
L 341.482715 169.082491 
L 342.025607 165.361842 
L 343.111392 202.652602 
L 343.654325 172.268051 
L 344.197218 165.888475 
L 344.74011 183.194035 
L 345.283002 204.890395 
L 345.825895 203.108954 
L 346.368828 200.427005 
L 346.91172 202.177912 
L 347.997505 207.011426 
L 348.540397 208.427942 
L 349.083331 209.304528 
L 349.626223 209.785507 
L 350.169115 210.014402 
L 350.712008 210.075502 
L 352.340726 209.848769 
L 352.883618 209.604674 
L 353.426511 209.16773 
L 353.969403 208.427953 
L 354.512336 207.282189 
L 355.055229 205.773623 
L 355.598121 203.9144 
L 356.141013 203.882846 
L 356.683906 207.223094 
L 357.226839 205.077594 
L 358.312624 179.752076 
L 358.855516 183.28853 
L 359.398408 207.604086 
L 359.941342 184.762298 
L 360.484234 176.080243 
L 361.027126 189.462598 
L 361.570019 206.641622 
L 362.112911 203.918366 
L 362.655845 202.250455 
L 363.198737 203.871755 
L 363.741629 205.962149 
L 364.284522 207.520136 
L 364.827414 208.730557 
L 365.370347 209.278257 
L 365.91324 209.091665 
L 366.999024 209.423106 
L 367.541917 209.091867 
L 368.627742 208.803852 
L 369.170635 208.869391 
L 370.256419 209.804224 
L 370.799353 207.591845 
L 371.342245 203.753266 
L 372.970922 187.564993 
L 373.513856 191.412689 
L 374.056748 207.371869 
L 375.142533 172.482682 
L 375.685425 174.262402 
L 376.771251 208.492078 
L 377.314143 201.37206 
L 377.857035 198.624088 
L 378.399928 200.182866 
L 379.485753 205.695015 
L 380.028646 207.656575 
L 380.571538 208.962109 
L 381.11443 209.804883 
L 381.657364 209.954022 
L 382.743148 209.570219 
L 383.828933 209.478879 
L 384.914759 209.402962 
L 385.457651 209.513551 
L 386.543436 209.88674 
L 387.086369 208.731509 
L 387.629262 206.566646 
L 388.172154 203.229713 
L 389.257939 195.141667 
L 389.800872 195.506883 
L 390.343764 203.959201 
L 390.886657 199.99725 
L 391.429549 184.876271 
L 391.972441 178.250048 
L 392.515375 180.005606 
L 393.058267 183.79052 
L 394.144052 204.11283 
L 394.686944 173.900557 
L 395.229878 160.796673 
L 395.77277 176.605973 
L 396.315662 202.857449 
L 396.858555 200.910296 
L 397.401447 196.949286 
L 397.94438 199.410491 
L 398.487273 203.377154 
L 398.487273 203.377154 
" clip-path="url(#p0217a40bcb)" style="fill: none; stroke: #d22027; stroke-width: 1.5; stroke-linecap: square"/>
   </g>
   <g id="patch_8">
    <path d="M 57.6 213.662118 
L 57.6 135.393882 
" style="fill: none; stroke: #000000; stroke-width: 0.8; stroke-linejoin: miter; stroke-linecap: square"/>
   </g>
   <g id="patch_9">
    <path d="M 414.72 213.662118 
L 414.72 135.393882 
" style="fill: none; stroke: #000000; stroke-width: 0.8; stroke-linejoin: miter; stroke-linecap: square"/>
   </g>
   <g id="patch_10">
    <path d="M 57.6 213.662118 
L 414.72 213.662118 
" style="fill: none; stroke: #000000; stroke-width: 0.8; stroke-linejoin: miter; stroke-linecap: square"/>
   </g>
   <g id="patch_11">
    <path d="M 57.6 135.393882 
L 414.72 135.393882 
" style="fill: none; stroke: #000000; stroke-width: 0.8; stroke-linejoin: miter; stroke-linecap: square"/>
   </g>
  </g>
  <g id="axes_3">
   <g id="patch_12">
    <path d="M 57.6 307.584 
L 414.72 307.584 
L 414.72 229.315765 
L 57.6 229.315765 
z
" style="fill: #ffffff"/>
   </g>
   <g id="matplotlib.axis_5">
    <g id="xtick_19">
     <g id="line2d_28">
      <g>
       <use xlink:href="#me0c26b0b49" x="73.289835" y="307.584" style="stroke: #000000; stroke-width: 0.8"/>
      </g>
     </g>
     <g id="text_24">
      <!-- 10 -->
      <g transform="translate(66.927335 322.182437)scale(0.1 -0.1)">
       <use xlink:href="#DejaVuSans-31"/>
       <use xlink:href="#DejaVuSans-30" x="63.623047"/>
      </g>
     </g>
    </g>
    <g id="xtick_20">
     <g id="line2d_29">
      <g>
       <use xlink:href="#me0c26b0b49" x="116.721879" y="307.584" style="stroke: #000000; stroke-width: 0.8"/>
      </g>
     </g>
     <g id="text_25">
      <!-- 12 -->
      <g transform="translate(110.359379 322.182437)scale(0.1 -0.1)">
       <use xlink:href="#DejaVuSans-31"/>
       <use xlink:href="#DejaVuSans-32" x="63.623047"/>
      </g>
     </g>
    </g>
    <g id="xtick_21">
     <g id="line2d_30">
      <g>
       <use xlink:href="#me0c26b0b49" x="160.153923" y="307.584" style="stroke: #000000; stroke-width: 0.8"/>
      </g>
     </g>
     <g id="text_26">
      <!-- 14 -->
      <g transform="translate(153.791423 322.182437)scale(0.1 -0.1)">
       <use xlink:href="#DejaVuSans-31"/>
       <use xlink:href="#DejaVuSans-34" x="63.623047"/>
      </g>
     </g>
    </g>
    <g id="xtick_22">
     <g id="line2d_31">
      <g>
       <use xlink:href="#me0c26b0b49" x="203.585967" y="307.584" style="stroke: #000000; stroke-width: 0.8"/>
      </g>
     </g>
     <g id="text_27">
      <!-- 16 -->
      <g transform="translate(197.223467 322.182437)scale(0.1 -0.1)">
       <use xlink:href="#DejaVuSans-31"/>
       <use xlink:href="#DejaVuSans-36" x="63.623047"/>
      </g>
     </g>
    </g>
    <g id="xtick_23">
     <g id="line2d_32">
      <g>
       <use xlink:href="#me0c26b0b49" x="247.018011" y="307.584" style="stroke: #000000; stroke-width: 0.8"/>
      </g>
     </g>
     <g id="text_28">
      <!-- 18 -->
      <g transform="translate(240.655511 322.182437)scale(0.1 -0.1)">
       <use xlink:href="#DejaVuSans-31"/>
       <use xlink:href="#DejaVuSans-38" x="63.623047"/>
      </g>
     </g>
    </g>
    <g id="xtick_24">
     <g id="line2d_33">
      <g>
       <use xlink:href="#me0c26b0b49" x="290.450055" y="307.584" style="stroke: #000000; stroke-width: 0.8"/>
      </g>
     </g>
     <g id="text_29">
      <!-- 20 -->
      <g transform="translate(284.087555 322.182437)scale(0.1 -0.1)">
       <use xlink:href="#DejaVuSans-32"/>
       <use xlink:href="#DejaVuSans-30" x="63.623047"/>
      </g>
     </g>
    </g>
    <g id="xtick_25">
     <g id="line2d_34">
      <g>
       <use xlink:href="#me0c26b0b49" x="333.882099" y="307.584" style="stroke: #000000; stroke-width: 0.8"/>
      </g>
     </g>
     <g id="text_30">
      <!-- 22 -->
      <g transform="translate(327.519599 322.182437)scale(0.1 -0.1)">
       <use xlink:href="#DejaVuSans-32"/>
       <use xlink:href="#DejaVuSans-32" x="63.623047"/>
      </g>
     </g>
    </g>
    <g id="xtick_26">
     <g id="line2d_35">
      <g>
       <use xlink:href="#me0c26b0b49" x="377.314143" y="307.584" style="stroke: #000000; stroke-width: 0.8"/>
      </g>
     </g>
     <g id="text_31">
      <!-- 24 -->
      <g transform="translate(370.951643 322.182437)scale(0.1 -0.1)">
       <use xlink:href="#DejaVuSans-32"/>
       <use xlink:href="#DejaVuSans-34" x="63.623047"/>
      </g>
     </g>
    </g>
    <g id="xtick_27">
     <g id="line2d_36">
      <g>
       <use xlink:href="#me0c26b0b49" x="399.030165" y="307.584" style="stroke: #000000; stroke-width: 0.8"/>
      </g>
     </g>
     <g id="text_32">
      <!-- 25 -->
      <g transform="translate(392.667665 322.182437)scale(0.1 -0.1)">
       <use xlink:href="#DejaVuSans-32"/>
       <use xlink:href="#DejaVuSans-35" x="63.623047"/>
      </g>
     </g>
    </g>
   </g>
   <g id="matplotlib.axis_6">
    <g id="ytick_6">
     <g id="line2d_37">
      <g>
       <use xlink:href="#md31cc0d09e" x="57.6" y="304.02639" style="stroke: #000000; stroke-width: 0.8"/>
      </g>
     </g>
     <g id="text_33">
      <!-- 0 -->
      <g transform="translate(44.2375 307.825609)scale(0.1 -0.1)">
       <use xlink:href="#DejaVuSans-30"/>
      </g>
     </g>
    </g>
    <g id="ytick_7">
     <g id="line2d_38">
      <g>
       <use xlink:href="#md31cc0d09e" x="57.6" y="257.638131" style="stroke: #000000; stroke-width: 0.8"/>
      </g>
     </g>
     <g id="text_34">
      <!-- 10 -->
      <g transform="translate(37.875 261.43735)scale(0.1 -0.1)">
       <use xlink:href="#DejaVuSans-31"/>
       <use xlink:href="#DejaVuSans-30" x="63.623047"/>
      </g>
     </g>
    </g>
   </g>
   <g id="line2d_39">
    <path d="M 73.832727 303.995982 
L 74.918533 303.957589 
L 78.175948 303.795233 
L 78.718841 303.723915 
L 79.804646 303.897407 
L 80.890451 303.718903 
L 81.433343 303.927325 
L 82.519148 303.960529 
L 83.062041 303.889135 
L 84.147846 303.981169 
L 89.576852 304.014622 
L 96.634555 303.820394 
L 98.806165 303.23514 
L 99.349057 303.977589 
L 99.89197 301.505782 
L 100.434863 297.423928 
L 100.977755 295.246349 
L 101.520668 300.69515 
L 102.06356 295.734931 
L 102.606473 289.652359 
L 103.149365 296.65298 
L 103.692258 300.846162 
L 104.23517 297.436679 
L 104.778063 300.341959 
L 105.320976 302.400219 
L 105.863868 303.858431 
L 106.949673 303.863908 
L 107.492566 303.699492 
L 108.035478 303.963663 
L 108.578371 303.547237 
L 109.121263 303.844641 
L 109.664176 303.538506 
L 110.207068 303.861141 
L 110.749981 303.640492 
L 111.292874 303.939748 
L 112.921571 303.764516 
L 113.464484 303.504618 
L 114.007376 303.480108 
L 114.550269 303.626258 
L 115.093181 303.918689 
L 115.636074 303.327931 
L 116.178987 302.949913 
L 116.721879 303.054856 
L 117.264771 303.318621 
L 117.807684 303.895254 
L 118.350577 303.97923 
L 118.893489 303.785733 
L 121.065079 304.016985 
L 123.23669 303.885369 
L 123.779582 304.01406 
L 124.322495 303.86669 
L 124.865387 303.975706 
L 125.40828 303.885277 
L 126.494085 304.008628 
L 128.122782 303.447953 
L 128.665695 303.515277 
L 129.208588 303.917407 
L 130.294393 303.001823 
L 130.837285 302.916928 
L 132.466003 303.943682 
L 133.008896 303.827125 
L 134.094701 303.891903 
L 136.266291 304.024571 
L 140.066599 303.899253 
L 141.695296 303.886817 
L 142.781101 303.509136 
L 143.324014 303.576072 
L 143.866907 303.981361 
L 144.952712 303.02198 
L 145.495604 303.069349 
L 146.581409 303.888915 
L 153.639112 303.978623 
L 156.353615 303.865167 
L 156.896528 303.967182 
L 158.525225 303.732684 
L 159.068118 303.950156 
L 160.153923 303.443662 
L 160.696815 303.466568 
L 162.325533 304.025442 
L 163.954231 303.988729 
L 168.297431 303.975884 
L 171.011934 303.839821 
L 172.097739 303.198737 
L 172.640632 302.827287 
L 173.183544 302.764346 
L 173.726437 303.45372 
L 174.269329 303.205283 
L 174.812242 302.010272 
L 175.355134 302.167348 
L 175.898047 303.433523 
L 176.44094 303.433854 
L 176.983832 303.018592 
L 177.526745 303.177916 
L 178.61255 303.83417 
L 179.155442 303.983528 
L 181.869945 303.995193 
L 184.584448 303.832336 
L 186.213145 303.484513 
L 187.298951 303.165882 
L 187.841843 303.21285 
L 188.384756 303.77978 
L 188.927648 302.593926 
L 189.470561 299.221771 
L 190.013453 294.689173 
L 190.556346 292.375556 
L 191.099258 298.067946 
L 191.642151 295.740652 
L 192.185064 284.485946 
L 192.727956 287.921413 
L 193.270848 300.820282 
L 193.813761 297.924946 
L 194.356654 296.40386 
L 195.442459 301.78341 
L 195.985351 303.444344 
L 196.528264 303.941374 
L 197.071156 303.782837 
L 200.328572 303.969873 
L 203.043075 303.662674 
L 204.128859 303.584869 
L 204.671752 303.810971 
L 205.214685 303.523443 
L 205.757577 302.024122 
L 206.30047 299.795959 
L 206.843362 298.05474 
L 207.386254 299.586849 
L 207.929188 301.73677 
L 208.47208 293.447068 
L 209.014973 291.414781 
L 209.557865 297.863847 
L 210.100757 301.819469 
L 210.643691 298.218721 
L 211.186583 299.429426 
L 211.729475 301.868189 
L 212.272368 303.425457 
L 212.81526 303.938666 
L 213.358193 303.749289 
L 214.443978 303.81499 
L 215.529763 303.972688 
L 216.615588 303.952885 
L 218.244265 303.551364 
L 219.330091 302.971374 
L 219.872984 302.477256 
L 220.958768 301.034414 
L 221.501702 300.307541 
L 222.044594 300.20163 
L 222.587486 301.931407 
L 223.130379 300.620118 
L 223.673271 289.657117 
L 224.216204 274.982859 
L 224.759097 265.300062 
L 225.301989 273.338579 
L 225.844881 303.361412 
L 226.387774 265.16114 
L 226.930707 239.385763 
L 227.473599 247.183696 
L 228.016492 285.224445 
L 228.559384 285.017356 
L 229.102276 272.130592 
L 229.64521 279.83583 
L 230.188102 292.225392 
L 230.730995 300.629287 
L 231.273887 303.702067 
L 231.816779 302.698478 
L 232.359713 302.809707 
L 233.445497 303.604366 
L 233.98839 303.874833 
L 234.531282 303.969693 
L 236.16 303.502815 
L 237.245785 303.37072 
L 238.33161 303.728479 
L 238.874503 302.078879 
L 239.417395 299.1151 
L 240.503221 291.183918 
L 241.046113 292.087637 
L 241.589005 302.723703 
L 242.67479 271.581164 
L 243.217724 276.865079 
L 243.760616 298.305395 
L 244.303508 291.134426 
L 244.846401 286.645133 
L 245.389293 292.191964 
L 245.932226 299.217123 
L 246.475119 303.287753 
L 247.018011 303.133338 
L 247.560903 302.857347 
L 249.732514 303.523254 
L 250.275406 303.678124 
L 250.818298 303.540132 
L 251.361232 303.542096 
L 253.532801 302.697094 
L 254.075735 302.771886 
L 254.618627 303.545993 
L 255.161519 302.396889 
L 255.704412 298.42617 
L 256.247304 293.231502 
L 256.790237 290.103795 
L 257.33313 294.362544 
L 257.876022 299.976343 
L 258.418914 284.644833 
L 258.961807 280.3955 
L 259.50474 290.150656 
L 260.047632 303.833916 
L 260.590525 296.456838 
L 261.133417 295.80244 
L 262.219243 301.296634 
L 262.762135 303.042325 
L 263.305027 303.865639 
L 266.01953 303.907387 
L 267.648248 303.823638 
L 268.734033 303.588949 
L 269.276925 303.355548 
L 269.819818 302.997939 
L 270.362751 302.445667 
L 270.905643 301.630614 
L 272.53432 298.179063 
L 273.077254 298.669102 
L 273.620146 303.118701 
L 274.163038 293.437874 
L 275.248823 258.312269 
L 275.791757 260.32953 
L 276.334649 289.032804 
L 276.877541 276.959448 
L 277.420434 242.839409 
L 277.963326 232.873412 
L 278.506259 256.563636 
L 279.049152 301.300979 
L 279.592044 273.895835 
L 280.134936 269.473044 
L 281.220762 294.980534 
L 281.763654 302.366789 
L 282.306547 302.965523 
L 282.849439 302.299108 
L 283.392331 302.476686 
L 283.935265 302.787096 
L 285.021049 302.981425 
L 286.106834 302.566887 
L 287.19266 301.745781 
L 287.735552 301.626139 
L 288.821337 303.2493 
L 289.36427 298.294517 
L 289.907163 291.431455 
L 290.450055 286.14404 
L 290.992947 288.417116 
L 291.53584 301.131712 
L 292.621665 280.182815 
L 293.164558 283.156744 
L 294.250342 303.465336 
L 294.793276 298.082323 
L 295.336168 297.438347 
L 296.964845 302.371969 
L 297.507779 303.186083 
L 298.050671 303.601094 
L 298.593563 303.761804 
L 299.679348 303.771502 
L 301.308066 303.501793 
L 303.479676 302.85072 
L 304.022569 303.046735 
L 304.565461 303.934808 
L 305.108353 301.904429 
L 305.651287 297.713566 
L 306.737071 286.171514 
L 307.279964 287.18934 
L 307.822856 301.077374 
L 308.908682 264.899092 
L 309.451574 271.519118 
L 309.994467 297.186825 
L 310.537359 289.445393 
L 311.080292 284.703642 
L 311.623185 290.781079 
L 312.166077 298.17065 
L 312.708969 302.743468 
L 313.251862 303.423106 
L 313.794795 302.993933 
L 314.88058 303.422307 
L 315.966364 303.762972 
L 317.05219 303.891614 
L 318.680867 303.786087 
L 319.766693 303.507304 
L 320.852478 303.083805 
L 321.39537 303.095993 
L 321.938303 303.731938 
L 322.481196 302.527149 
L 323.56698 296.568444 
L 324.109873 297.417087 
L 324.652806 303.600226 
L 325.195698 297.451978 
L 325.738591 295.468715 
L 326.281483 298.807696 
L 326.824375 303.298504 
L 327.367309 302.181396 
L 327.910201 301.810483 
L 329.538878 303.576591 
L 330.624704 303.92175 
L 333.882099 304.020955 
L 337.682386 303.86272 
L 339.853997 303.669497 
L 340.396889 303.961986 
L 340.939823 303.153828 
L 341.482715 301.314581 
L 342.025607 299.060158 
L 342.5685 299.06888 
L 343.111392 303.959371 
L 343.654325 297.313588 
L 344.197218 296.534034 
L 344.74011 301.376123 
L 345.283002 302.385361 
L 345.825895 301.29015 
L 346.368828 302.039896 
L 346.91172 303.171089 
L 347.454613 303.853774 
L 347.997505 304.019921 
L 349.083331 303.972897 
L 350.712008 304.018241 
L 352.883618 303.868588 
L 354.512336 303.889309 
L 355.055229 303.39467 
L 355.598121 302.57216 
L 356.141013 301.547486 
L 356.683906 300.927818 
L 357.226839 301.82522 
L 357.769731 303.383289 
L 358.312624 300.152187 
L 358.855516 299.072589 
L 359.398408 300.879921 
L 359.941342 303.69516 
L 360.484234 302.548635 
L 361.027126 302.166895 
L 361.570019 302.636418 
L 362.112911 303.292097 
L 362.655845 303.739078 
L 363.198737 303.957832 
L 364.284522 303.963251 
L 368.08485 303.700624 
L 370.256419 303.337257 
L 370.799353 303.697927 
L 371.342245 303.26179 
L 371.885137 300.992672 
L 372.970922 294.712779 
L 373.513856 296.363589 
L 374.056748 302.948734 
L 374.59964 291.957194 
L 375.142533 288.509878 
L 376.228358 303.363421 
L 376.771251 298.43483 
L 377.314143 298.471192 
L 378.399928 302.482795 
L 378.942861 303.573196 
L 379.485753 304.019319 
L 380.028646 303.897727 
L 381.657364 303.970592 
L 383.286041 304.021805 
L 386.000544 303.956876 
L 387.086369 303.788364 
L 388.172154 303.343368 
L 388.715046 302.893759 
L 389.257939 302.19229 
L 389.800872 301.110671 
L 390.343764 299.546036 
L 391.429549 295.522173 
L 391.972441 295.168302 
L 392.515375 299.833616 
L 393.058267 293.892083 
L 394.144052 249.107173 
L 394.686944 254.401954 
L 395.229878 287.450308 
L 395.77277 288.844071 
L 396.315662 276.412816 
L 396.858555 267.847317 
L 397.401447 247.096149 
L 397.94438 234.096288 
L 398.487273 263.531454 
L 398.487273 263.531454 
" clip-path="url(#pc3a196af74)" style="fill: none; stroke: #385989; stroke-width: 1.5; stroke-linecap: square"/>
   </g>
   <g id="line2d_40">
    <path d="M 73.832727 303.567782 
L 74.37564 303.999003 
L 76.54723 303.99414 
L 77.090143 303.772459 
L 78.175948 303.979037 
L 78.718841 303.34684 
L 79.261733 303.43409 
L 79.804646 303.85607 
L 80.890451 303.770738 
L 81.433343 303.986025 
L 85.233651 304.019057 
L 96.091662 303.962306 
L 98.806165 303.685456 
L 99.349057 304.022239 
L 99.89197 303.025061 
L 100.434863 301.545628 
L 100.977755 301.189092 
L 101.520668 303.893485 
L 102.06356 298.762715 
L 102.606473 296.63613 
L 103.149365 300.400657 
L 103.692258 302.854276 
L 104.23517 301.593093 
L 104.778063 302.718829 
L 105.320976 303.4957 
L 105.863868 303.548864 
L 106.40676 303.914587 
L 111.835766 303.978381 
L 112.378679 304.019443 
L 114.007376 303.889972 
L 114.550269 303.97529 
L 115.636074 303.636986 
L 116.178987 303.53338 
L 116.721879 303.624466 
L 117.264771 303.961592 
L 119.979274 303.980394 
L 122.150885 303.995676 
L 129.208588 303.857352 
L 130.294393 303.346444 
L 130.837285 303.430494 
L 131.92309 303.920404 
L 136.266291 304.000922 
L 143.866907 303.790537 
L 144.409799 303.399176 
L 144.952712 303.220569 
L 145.495604 303.395572 
L 146.581409 304.010996 
L 147.124302 303.877165 
L 148.210107 303.922875 
L 149.295912 303.941868 
L 156.353615 303.98849 
L 156.896528 303.823834 
L 157.43942 303.512397 
L 157.982313 303.986882 
L 159.068118 303.771838 
L 160.153923 302.843686 
L 160.696815 303.824529 
L 161.239728 303.993833 
L 161.782621 303.797196 
L 163.411318 303.931094 
L 164.497123 304.01805 
L 172.097739 303.930219 
L 173.183544 303.53473 
L 174.269329 303.76276 
L 174.812242 303.121025 
L 175.355134 302.664907 
L 175.898047 303.130659 
L 176.44094 303.800285 
L 178.61255 303.862659 
L 179.698335 304.009309 
L 185.670253 303.98689 
L 189.470561 303.970014 
L 190.013453 303.736047 
L 190.556346 303.249673 
L 191.642151 303.734631 
L 192.185064 302.453584 
L 192.727956 302.324521 
L 193.270848 302.761189 
L 193.813761 303.93866 
L 194.356654 303.557316 
L 194.899566 303.579451 
L 196.528264 303.982115 
L 199.242767 304.010931 
L 203.043075 304.011142 
L 203.585967 303.581121 
L 204.128859 303.40123 
L 204.671752 303.88918 
L 205.214685 303.97441 
L 205.757577 303.830432 
L 206.843362 303.085127 
L 207.386254 303.174374 
L 207.929188 303.691901 
L 208.47208 302.278015 
L 209.014973 301.715909 
L 209.557865 302.728833 
L 210.100757 304.00651 
L 210.643691 303.299219 
L 211.186583 303.365896 
L 212.81526 303.97303 
L 214.443978 303.999035 
L 215.529763 304.020144 
L 222.044594 303.861064 
L 223.673271 303.693538 
L 224.216204 303.939862 
L 224.759097 303.987083 
L 225.301989 303.330226 
L 225.844881 299.522252 
L 226.387774 299.642506 
L 226.930707 303.357331 
L 227.473599 298.686347 
L 228.016492 296.747297 
L 228.559384 300.810734 
L 229.102276 302.413547 
L 229.64521 300.963139 
L 230.188102 301.849495 
L 230.730995 303.077308 
L 231.273887 303.789725 
L 231.816779 303.968004 
L 232.902605 303.925523 
L 235.074215 304.01121 
L 235.617108 303.983351 
L 236.16 303.654855 
L 236.702892 303.607721 
L 237.245785 304.004683 
L 239.960287 303.896776 
L 241.046113 303.234951 
L 241.589005 303.034229 
L 242.131898 303.372252 
L 242.67479 303.961258 
L 243.217724 303.559674 
L 243.760616 303.456644 
L 244.846401 303.927641 
L 245.932226 303.903682 
L 248.646729 303.980496 
L 254.075735 303.936951 
L 254.618627 303.720808 
L 255.161519 303.034372 
L 255.704412 302.01924 
L 256.247304 301.394486 
L 256.790237 302.102044 
L 257.33313 303.200422 
L 257.876022 300.082224 
L 258.418914 298.413779 
L 259.50474 303.984932 
L 260.047632 301.941062 
L 260.590525 301.999709 
L 261.676309 303.447872 
L 262.219243 303.872798 
L 263.305027 303.965447 
L 264.390812 303.930375 
L 264.933746 304.011244 
L 266.01953 303.931201 
L 266.562423 304.007927 
L 267.648248 303.816877 
L 268.191141 303.816702 
L 269.276925 303.508271 
L 270.362751 302.72062 
L 270.905643 302.081973 
L 271.991428 300.391505 
L 272.53432 299.986237 
L 273.077254 301.320697 
L 273.620146 301.425536 
L 274.163038 289.656682 
L 274.705931 273.109076 
L 275.248823 263.234051 
L 275.791757 279.195494 
L 276.334649 283.98061 
L 276.877541 241.322403 
L 277.420434 240.29116 
L 277.963326 279.740793 
L 278.506259 288.208715 
L 279.049152 275.435599 
L 279.592044 282.689642 
L 280.134936 293.6268 
L 280.677829 301.170697 
L 281.220762 303.692286 
L 281.763654 302.808737 
L 282.306547 302.938001 
L 283.935265 303.59682 
L 285.021049 303.593224 
L 286.106834 303.241952 
L 287.735552 302.518338 
L 288.278445 302.921912 
L 288.821337 303.683046 
L 289.36427 300.589815 
L 289.907163 296.752877 
L 290.450055 293.921183 
L 290.992947 296.877161 
L 291.53584 302.808985 
L 292.078773 293.930459 
L 292.621665 291.534463 
L 293.164558 295.918977 
L 293.70745 302.06535 
L 294.250342 302.156233 
L 294.793276 301.076348 
L 295.336168 301.55857 
L 296.421953 303.120975 
L 296.964845 303.518263 
L 297.507779 303.739304 
L 298.593563 303.816945 
L 299.679348 303.687708 
L 300.222281 303.593277 
L 301.850958 302.910377 
L 302.936784 302.038082 
L 303.479676 301.872188 
L 304.022569 302.401895 
L 304.565461 303.599932 
L 305.108353 299.037052 
L 306.194179 282.381988 
L 306.737071 277.922744 
L 307.279964 286.184743 
L 307.822856 297.880951 
L 308.36579 268.352101 
L 308.908682 253.971898 
L 309.451574 268.34634 
L 309.994467 299.852747 
L 310.537359 285.02438 
L 311.080292 281.081422 
L 312.708969 302.354978 
L 313.251862 303.588943 
L 313.794795 303.048121 
L 314.337687 303.165388 
L 315.423472 303.650818 
L 316.509298 303.910701 
L 318.137975 303.984046 
L 319.223801 303.817978 
L 319.766693 303.6286 
L 320.309585 303.258585 
L 321.938303 301.67676 
L 322.481196 302.222828 
L 323.024088 303.588739 
L 323.56698 297.020168 
L 324.109873 293.121803 
L 324.652806 295.47169 
L 325.195698 304.025555 
L 325.738591 295.510889 
L 326.281483 294.753081 
L 327.367309 303.310119 
L 327.910201 302.705367 
L 328.453093 302.44754 
L 330.081812 303.601057 
L 330.624704 303.904612 
L 331.167596 303.888745 
L 331.710489 303.985433 
L 332.253381 303.863395 
L 332.796314 303.942168 
L 333.339207 303.775117 
L 333.882099 303.915081 
L 334.424991 303.654692 
L 336.596602 301.300761 
L 337.139494 300.476952 
L 337.682386 300.12086 
L 338.22532 301.115972 
L 338.768212 302.987297 
L 339.311104 294.228404 
L 340.396889 269.073745 
L 340.939823 269.565703 
L 341.482715 289.918164 
L 342.025607 283.624651 
L 342.5685 252.356554 
L 343.111392 243.073248 
L 343.654325 265.187445 
L 344.197218 303.683346 
L 344.74011 278.096827 
L 345.283002 275.478309 
L 346.368828 296.348896 
L 346.91172 302.36821 
L 347.454613 303.28616 
L 347.997505 302.810158 
L 349.083331 303.411119 
L 350.169115 303.98638 
L 351.2549 303.706681 
L 353.969403 302.766561 
L 354.512336 303.007798 
L 355.055229 303.788627 
L 355.598121 300.284506 
L 356.141013 295.578032 
L 357.226839 284.109279 
L 357.769731 287.157854 
L 358.312624 302.838224 
L 358.855516 275.178058 
L 359.398408 257.770014 
L 359.941342 270.166852 
L 360.484234 301.668796 
L 361.027126 284.117251 
L 361.570019 281.848015 
L 362.655845 298.79655 
L 363.198737 303.41385 
L 363.741629 302.909309 
L 364.284522 302.781521 
L 365.370347 303.299498 
L 365.91324 303.704775 
L 366.456132 303.502209 
L 366.999024 303.565825 
L 367.541917 303.997474 
L 369.170635 303.975734 
L 369.713527 303.831169 
L 370.256419 303.5392 
L 370.799353 303.000758 
L 371.885137 301.254319 
L 372.42803 300.804518 
L 372.970922 301.859749 
L 373.513856 302.252799 
L 374.056748 297.118512 
L 374.59964 294.523574 
L 375.685425 302.618592 
L 376.228358 298.063016 
L 376.771251 298.098088 
L 377.857035 303.098853 
L 378.399928 303.795335 
L 378.942861 303.405478 
L 380.028646 303.589631 
L 381.11443 303.792828 
L 382.200256 303.826429 
L 383.286041 303.694317 
L 384.371867 303.325258 
L 384.914759 302.997875 
L 386.000544 301.840709 
L 387.629262 298.929736 
L 388.172154 299.001168 
L 388.715046 302.458404 
L 389.257939 297.892254 
L 390.343764 273.993711 
L 390.886657 270.039987 
L 391.429549 280.930626 
L 391.972441 298.974541 
L 392.515375 292.466053 
L 394.144052 248.7483 
L 394.686944 261.143701 
L 395.229878 299.469862 
L 395.77277 274.603424 
L 396.315662 267.843725 
L 397.94438 302.175737 
L 398.487273 302.785514 
L 398.487273 302.785514 
" clip-path="url(#pc3a196af74)" style="fill: none; stroke: #d22027; stroke-width: 1.5; stroke-linecap: square"/>
   </g>
   <g id="patch_13">
    <path d="M 57.6 307.584 
L 57.6 229.315765 
" style="fill: none; stroke: #000000; stroke-width: 0.8; stroke-linejoin: miter; stroke-linecap: square"/>
   </g>
   <g id="patch_14">
    <path d="M 414.72 307.584 
L 414.72 229.315765 
" style="fill: none; stroke: #000000; stroke-width: 0.8; stroke-linejoin: miter; stroke-linecap: square"/>
   </g>
   <g id="patch_15">
    <path d="M 57.6 307.584 
L 414.72 307.584 
" style="fill: none; stroke: #000000; stroke-width: 0.8; stroke-linejoin: miter; stroke-linecap: square"/>
   </g>
   <g id="patch_16">
    <path d="M 57.6 229.315765 
L 414.72 229.315765 
" style="fill: none; stroke: #000000; stroke-width: 0.8; stroke-linejoin: miter; stroke-linecap: square"/>
   </g>
  </g>
 </g>
 <defs>
  <clipPath id="p36b448052a">
   <rect x="57.6" y="41.472" width="357.12" height="78.268235"/>
  </clipPath>
  <clipPath id="p0217a40bcb">
   <rect x="57.6" y="135.393882" width="357.12" height="78.268235"/>
  </clipPath>
  <clipPath id="pc3a196af74">
   <rect x="57.6" y="229.315765" width="357.12" height="78.268235"/>
  </clipPath>
 </defs>
</svg>
