<?xml version="1.0" encoding="utf-8" standalone="no"?>
<!DOCTYPE svg PUBLIC "-//W3C//DTD SVG 1.1//EN"
  "http://www.w3.org/Graphics/SVG/1.1/DTD/svg11.dtd">
<svg xmlns:xlink="http://www.w3.org/1999/xlink" width="460.8pt" height="345.6pt" viewBox="0 0 460.8 345.6" xmlns="http://www.w3.org/2000/svg" version="1.1">
 <metadata>
  <rdf:RDF xmlns:dc="http://purl.org/dc/elements/1.1/" xmlns:cc="http://creativecommons.org/ns#" xmlns:rdf="http://www.w3.org/1999/02/22-rdf-syntax-ns#">
   <cc:Work>
    <dc:type rdf:resource="http://purl.org/dc/dcmitype/StillImage"/>
    <dc:date>2023-10-24T02:42:44.665802</dc:date>
    <dc:format>image/svg+xml</dc:format>
    <dc:creator>
     <cc:Agent>
      <dc:title>Matplotlib v3.5.2, https://matplotlib.org/</dc:title>
     </cc:Agent>
    </dc:creator>
   </cc:Work>
  </rdf:RDF>
 </metadata>
 <defs>
  <style type="text/css">*{stroke-linejoin: round; stroke-linecap: butt}</style>
 </defs>
 <g id="figure_1">
  <g id="patch_1">
   <path d="M 0 345.6 
L 460.8 345.6 
L 460.8 0 
L 0 0 
z
" style="fill: #ffffff"/>
  </g>
  <g id="axes_1">
   <g id="patch_2">
    <path d="M 57.6 119.740235 
L 414.72 119.740235 
L 414.72 41.472 
L 57.6 41.472 
z
" style="fill: #ffffff"/>
   </g>
   <g id="matplotlib.axis_1">
    <g id="xtick_1">
     <g id="line2d_1">
      <defs>
       <path id="m3093ee7877" d="M 0 0 
L 0 3.5 
" style="stroke: #000000; stroke-width: 0.8"/>
      </defs>
      <g>
       <use xlink:href="#m3093ee7877" x="72.474361" y="119.740235" style="stroke: #000000; stroke-width: 0.8"/>
      </g>
     </g>
     <g id="text_1">
      <!-- 10 -->
      <g transform="translate(66.111861 134.338673)scale(0.1 -0.1)">
       <defs>
        <path id="DejaVuSans-31" d="M 794 531 
L 1825 531 
L 1825 4091 
L 703 3866 
L 703 4441 
L 1819 4666 
L 2450 4666 
L 2450 531 
L 3481 531 
L 3481 0 
L 794 0 
L 794 531 
z
" transform="scale(0.015625)"/>
        <path id="DejaVuSans-30" d="M 2034 4250 
Q 1547 4250 1301 3770 
Q 1056 3291 1056 2328 
Q 1056 1369 1301 889 
Q 1547 409 2034 409 
Q 2525 409 2770 889 
Q 3016 1369 3016 2328 
Q 3016 3291 2770 3770 
Q 2525 4250 2034 4250 
z
M 2034 4750 
Q 2819 4750 3233 4129 
Q 3647 3509 3647 2328 
Q 3647 1150 3233 529 
Q 2819 -91 2034 -91 
Q 1250 -91 836 529 
Q 422 1150 422 2328 
Q 422 3509 836 4129 
Q 1250 4750 2034 4750 
z
" transform="scale(0.015625)"/>
       </defs>
       <use xlink:href="#DejaVuSans-31"/>
       <use xlink:href="#DejaVuSans-30" x="63.623047"/>
      </g>
     </g>
    </g>
    <g id="xtick_2">
     <g id="line2d_2">
      <g>
       <use xlink:href="#m3093ee7877" x="181.145331" y="119.740235" style="stroke: #000000; stroke-width: 0.8"/>
      </g>
     </g>
     <g id="text_2">
      <!-- 12 -->
      <g transform="translate(174.782831 134.338673)scale(0.1 -0.1)">
       <defs>
        <path id="DejaVuSans-32" d="M 1228 531 
L 3431 531 
L 3431 0 
L 469 0 
L 469 531 
Q 828 903 1448 1529 
Q 2069 2156 2228 2338 
Q 2531 2678 2651 2914 
Q 2772 3150 2772 3378 
Q 2772 3750 2511 3984 
Q 2250 4219 1831 4219 
Q 1534 4219 1204 4116 
Q 875 4013 500 3803 
L 500 4441 
Q 881 4594 1212 4672 
Q 1544 4750 1819 4750 
Q 2544 4750 2975 4387 
Q 3406 4025 3406 3419 
Q 3406 3131 3298 2873 
Q 3191 2616 2906 2266 
Q 2828 2175 2409 1742 
Q 1991 1309 1228 531 
z
" transform="scale(0.015625)"/>
       </defs>
       <use xlink:href="#DejaVuSans-31"/>
       <use xlink:href="#DejaVuSans-32" x="63.623047"/>
      </g>
     </g>
    </g>
    <g id="xtick_3">
     <g id="line2d_3">
      <g>
       <use xlink:href="#m3093ee7877" x="289.816302" y="119.740235" style="stroke: #000000; stroke-width: 0.8"/>
      </g>
     </g>
     <g id="text_3">
      <!-- 14 -->
      <g transform="translate(283.453802 134.338673)scale(0.1 -0.1)">
       <defs>
        <path id="DejaVuSans-34" d="M 2419 4116 
L 825 1625 
L 2419 1625 
L 2419 4116 
z
M 2253 4666 
L 3047 4666 
L 3047 1625 
L 3713 1625 
L 3713 1100 
L 3047 1100 
L 3047 0 
L 2419 0 
L 2419 1100 
L 313 1100 
L 313 1709 
L 2253 4666 
z
" transform="scale(0.015625)"/>
       </defs>
       <use xlink:href="#DejaVuSans-31"/>
       <use xlink:href="#DejaVuSans-34" x="63.623047"/>
      </g>
     </g>
    </g>
    <g id="xtick_4">
     <g id="line2d_4">
      <g>
       <use xlink:href="#m3093ee7877" x="398.487273" y="119.740235" style="stroke: #000000; stroke-width: 0.8"/>
      </g>
     </g>
     <g id="text_4">
      <!-- 16 -->
      <g transform="translate(392.124773 134.338673)scale(0.1 -0.1)">
       <defs>
        <path id="DejaVuSans-36" d="M 2113 2584 
Q 1688 2584 1439 2293 
Q 1191 2003 1191 1497 
Q 1191 994 1439 701 
Q 1688 409 2113 409 
Q 2538 409 2786 701 
Q 3034 994 3034 1497 
Q 3034 2003 2786 2293 
Q 2538 2584 2113 2584 
z
M 3366 4563 
L 3366 3988 
Q 3128 4100 2886 4159 
Q 2644 4219 2406 4219 
Q 1781 4219 1451 3797 
Q 1122 3375 1075 2522 
Q 1259 2794 1537 2939 
Q 1816 3084 2150 3084 
Q 2853 3084 3261 2657 
Q 3669 2231 3669 1497 
Q 3669 778 3244 343 
Q 2819 -91 2113 -91 
Q 1303 -91 875 529 
Q 447 1150 447 2328 
Q 447 3434 972 4092 
Q 1497 4750 2381 4750 
Q 2619 4750 2861 4703 
Q 3103 4656 3366 4563 
z
" transform="scale(0.015625)"/>
       </defs>
       <use xlink:href="#DejaVuSans-31"/>
       <use xlink:href="#DejaVuSans-36" x="63.623047"/>
      </g>
     </g>
    </g>
   </g>
   <g id="matplotlib.axis_2">
    <g id="ytick_1">
     <g id="line2d_5">
      <defs>
       <path id="m9bac63518b" d="M 0 0 
L -3.5 0 
" style="stroke: #000000; stroke-width: 0.8"/>
      </defs>
      <g>
       <use xlink:href="#m9bac63518b" x="57.6" y="116.184048" style="stroke: #000000; stroke-width: 0.8"/>
      </g>
     </g>
     <g id="text_5">
      <!-- 0 -->
      <g transform="translate(44.2375 119.983267)scale(0.1 -0.1)">
       <use xlink:href="#DejaVuSans-30"/>
      </g>
     </g>
    </g>
    <g id="ytick_2">
     <g id="line2d_6">
      <g>
       <use xlink:href="#m9bac63518b" x="57.6" y="65.752482" style="stroke: #000000; stroke-width: 0.8"/>
      </g>
     </g>
     <g id="text_6">
      <!-- 1 -->
      <g transform="translate(44.2375 69.551701)scale(0.1 -0.1)">
       <use xlink:href="#DejaVuSans-31"/>
      </g>
     </g>
    </g>
   </g>
   <g id="line2d_7">
    <path d="M 73.832727 116.083294 
L 75.191145 115.604086 
L 76.549512 115.895023 
L 80.624663 116.156444 
L 81.983081 116.095142 
L 83.341448 116.175781 
L 84.699866 116.013379 
L 87.416599 114.88438 
L 88.775017 114.774055 
L 90.133383 115.999355 
L 91.491801 114.028465 
L 92.850168 112.909979 
L 94.208534 114.309665 
L 95.566952 114.093227 
L 96.925319 114.509526 
L 99.642104 115.635291 
L 101.00047 115.955916 
L 102.358888 115.812314 
L 103.717255 116.068977 
L 105.075673 115.47607 
L 106.434039 116.137133 
L 107.792406 115.369975 
L 109.150824 116.008861 
L 110.50919 115.537768 
L 111.867608 115.959248 
L 113.225975 115.808348 
L 114.584341 115.989377 
L 122.734695 116.070273 
L 128.168213 115.822959 
L 130.884997 115.447982 
L 132.243415 114.995741 
L 133.601782 114.09872 
L 134.960148 112.518886 
L 136.318566 109.614654 
L 137.676933 104.849426 
L 139.035351 98.57235 
L 140.393718 94.270776 
L 141.752084 100.400521 
L 143.110502 109.496042 
L 144.468869 83.077085 
L 145.827287 78.684089 
L 147.185653 96.899556 
L 148.54402 108.685709 
L 149.902438 89.890455 
L 151.260804 95.146372 
L 152.619222 108.98741 
L 153.977589 109.602681 
L 155.335955 114.800302 
L 156.694373 113.9491 
L 158.05274 116.151997 
L 159.411158 113.383443 
L 160.769524 115.962155 
L 162.127891 112.95101 
L 163.486309 115.348775 
L 164.844676 113.128536 
L 166.203094 116.021251 
L 167.56146 114.016064 
L 168.919827 114.680504 
L 170.278245 113.880841 
L 171.636611 113.692868 
L 172.995029 113.058491 
L 174.353396 114.571359 
L 175.711762 115.197092 
L 177.07018 115.045877 
L 178.428547 112.160157 
L 179.786965 112.551706 
L 181.145331 113.273443 
L 182.503698 113.511026 
L 183.862116 115.2939 
L 186.578901 114.079378 
L 187.937267 114.139459 
L 189.295634 114.358812 
L 190.654052 114.713958 
L 192.012418 115.416184 
L 193.370836 115.223206 
L 194.729203 116.118563 
L 196.087569 115.456359 
L 197.445987 115.851422 
L 198.804354 115.505019 
L 200.162772 116.096339 
L 201.521138 115.357832 
L 202.879505 115.499607 
L 204.237923 114.815905 
L 208.313074 113.465571 
L 209.671441 113.621394 
L 211.029859 114.828896 
L 212.388225 115.606317 
L 213.746643 113.498113 
L 215.10501 111.957505 
L 216.463376 112.315364 
L 219.180161 115.790931 
L 220.538579 114.945252 
L 221.896945 114.323456 
L 223.255312 114.25343 
L 227.330515 115.222158 
L 228.688881 115.675449 
L 230.047248 115.810844 
L 231.405666 116.11587 
L 232.764032 116.050905 
L 234.12245 116.182588 
L 235.480817 115.994634 
L 236.839183 115.989018 
L 239.555968 115.472324 
L 240.914386 115.046463 
L 243.631119 113.960961 
L 244.989537 113.612978 
L 246.347903 113.739758 
L 249.064688 115.669595 
L 250.423055 113.586035 
L 251.781473 112.333228 
L 253.139839 112.840169 
L 255.856624 115.985386 
L 257.21499 115.167792 
L 258.573408 114.76858 
L 261.290193 115.040961 
L 265.365344 115.829417 
L 268.082129 116.154505 
L 272.15728 116.151408 
L 274.874064 116.027671 
L 278.949215 115.478428 
L 280.307582 115.13337 
L 283.024366 114.057058 
L 284.382733 113.869358 
L 285.741151 114.339677 
L 287.099517 115.714922 
L 288.457936 114.886598 
L 289.816302 113.851638 
L 291.174669 113.89708 
L 292.533087 114.482512 
L 293.891453 115.321186 
L 295.249871 115.967141 
L 296.608238 116.147148 
L 299.325022 115.709879 
L 300.683389 115.702451 
L 304.75854 116.091936 
L 307.475324 116.11956 
L 314.26726 116.118213 
L 316.984045 115.412775 
L 318.342411 114.741055 
L 319.700829 114.238045 
L 321.059196 114.491314 
L 322.417614 116.104339 
L 325.134347 108.698394 
L 326.492765 107.358251 
L 327.851131 110.122286 
L 329.20955 115.353036 
L 330.567916 112.074029 
L 331.926282 110.005023 
L 333.284701 110.532942 
L 334.643067 111.999275 
L 336.001485 113.655674 
L 337.359852 115.115872 
L 338.718218 116.175769 
L 340.076636 115.749403 
L 341.435003 115.681671 
L 345.510154 115.769159 
L 349.585357 115.459034 
L 352.302089 115.169385 
L 353.660508 115.092284 
L 355.018874 115.168647 
L 356.377292 115.635799 
L 357.735659 115.584987 
L 359.094025 113.080403 
L 360.452443 108.667238 
L 361.81081 101.906271 
L 363.169228 94.103173 
L 364.527594 90.580028 
L 365.885961 100.789297 
L 367.244379 101.260386 
L 368.602745 62.739158 
L 369.961164 45.029647 
L 371.31953 67.005985 
L 372.677896 112.198235 
L 374.036315 85.628527 
L 375.394681 77.456486 
L 376.753099 84.979475 
L 379.469832 106.671516 
L 380.82825 113.863599 
L 382.186617 114.8657 
L 383.545035 113.518383 
L 384.903401 113.38499 
L 387.620186 114.247313 
L 390.336971 115.022522 
L 393.053703 115.495908 
L 395.770488 116.015757 
L 397.128906 115.865889 
L 398.487273 115.006924 
L 398.487273 115.006924 
" clip-path="url(#p45ad118a18)" style="fill: none; stroke: #385989; stroke-width: 1.5; stroke-linecap: square"/>
   </g>
   <g id="line2d_8">
    <path d="M 73.832727 114.527362 
L 75.191145 115.818306 
L 79.266297 115.637096 
L 80.624663 115.125184 
L 81.983081 115.933174 
L 83.341448 114.56669 
L 84.699866 113.903091 
L 86.058232 114.632163 
L 87.416599 115.502643 
L 88.775017 116.129934 
L 90.133383 115.825894 
L 91.491801 114.473671 
L 92.850168 115.514381 
L 94.208534 115.371702 
L 95.566952 115.369595 
L 96.925319 115.72411 
L 99.642104 115.640214 
L 101.00047 115.315844 
L 102.358888 115.858451 
L 103.717255 115.989178 
L 107.792406 116.086994 
L 111.867608 116.136787 
L 121.376277 116.133145 
L 125.45148 116.153129 
L 126.809846 115.664479 
L 128.168213 115.839429 
L 129.526631 116.162153 
L 132.243415 116.004275 
L 134.960148 115.095211 
L 136.318566 113.860686 
L 137.676933 111.29125 
L 139.035351 109.028432 
L 140.393718 107.249173 
L 141.752084 109.878242 
L 143.110502 111.013359 
L 144.468869 96.888012 
L 145.827287 91.129981 
L 147.185653 105.317108 
L 148.54402 114.175789 
L 149.902438 108.664677 
L 151.260804 109.954442 
L 152.619222 113.55975 
L 153.977589 114.431672 
L 155.335955 114.806684 
L 156.694373 115.299821 
L 159.411158 115.225864 
L 162.127891 115.424463 
L 163.486309 115.519247 
L 166.203094 115.485071 
L 170.278245 114.977412 
L 171.636611 114.697884 
L 172.995029 115.100454 
L 174.353396 115.103494 
L 175.711762 116.160831 
L 179.786965 113.640991 
L 181.145331 114.202436 
L 182.503698 114.194234 
L 183.862116 115.970907 
L 186.578901 115.656104 
L 190.654052 116.057785 
L 192.012418 116.163146 
L 194.729203 116.09908 
L 197.445987 116.162645 
L 201.521138 115.808321 
L 202.879505 115.521046 
L 204.237923 115.385696 
L 205.59629 114.842959 
L 206.954708 115.202817 
L 208.313074 112.030891 
L 209.671441 112.642299 
L 211.029859 115.666399 
L 212.388225 114.990797 
L 213.746643 113.779956 
L 215.10501 114.774281 
L 216.463376 113.513927 
L 217.821794 115.301868 
L 219.180161 115.73487 
L 220.538579 115.562508 
L 221.896945 115.716634 
L 223.255312 115.563539 
L 224.61373 115.919435 
L 227.330515 116.153505 
L 228.688881 116.042507 
L 236.839183 116.071523 
L 242.272752 114.797309 
L 243.631119 114.546367 
L 244.989537 114.46887 
L 246.347903 114.921975 
L 247.706322 115.884058 
L 249.064688 114.959385 
L 250.423055 113.725805 
L 251.781473 113.339126 
L 253.139839 113.991261 
L 254.498257 115.304485 
L 255.856624 116.038345 
L 257.21499 115.487094 
L 258.573408 115.416955 
L 259.931775 115.713008 
L 261.290193 115.739598 
L 264.006926 115.214509 
L 265.365344 116.02395 
L 269.440495 116.094897 
L 270.798862 116.155539 
L 273.515646 116.006644 
L 277.590797 115.229999 
L 278.949215 114.914673 
L 280.307582 114.383253 
L 281.666 114.533161 
L 283.024366 112.874349 
L 284.382733 115.91816 
L 285.741151 114.64369 
L 287.099517 114.890149 
L 288.457936 113.455965 
L 289.816302 113.283368 
L 291.174669 115.795952 
L 292.533087 116.063459 
L 293.891453 115.267965 
L 295.249871 115.204027 
L 296.608238 115.626008 
L 297.966604 115.678825 
L 299.325022 116.109654 
L 300.683389 116.102018 
L 302.041807 115.930161 
L 304.75854 115.961883 
L 308.833743 116.144506 
L 311.550476 116.034346 
L 312.908894 115.943748 
L 315.625678 115.504976 
L 316.984045 114.956573 
L 318.342411 114.947872 
L 319.700829 114.073522 
L 321.059196 113.461566 
L 322.417614 113.922538 
L 323.77598 115.325905 
L 325.134347 114.288494 
L 326.492765 113.580003 
L 327.851131 110.922922 
L 330.567916 115.496787 
L 331.926282 115.656482 
L 333.284701 114.742848 
L 334.643067 115.311674 
L 336.001485 115.437083 
L 337.359852 116.103391 
L 338.718218 116.08797 
L 340.076636 115.866772 
L 342.793421 115.906026 
L 344.151787 114.95451 
L 345.510154 114.514907 
L 346.868572 116.160495 
L 348.226938 116.17888 
L 349.585357 116.045836 
L 350.943723 116.168136 
L 352.302089 116.022018 
L 355.018874 116.061218 
L 359.094025 115.601112 
L 360.452443 115.22206 
L 361.81081 114.692986 
L 363.169228 113.891143 
L 364.527594 113.407163 
L 365.885961 112.624841 
L 367.244379 114.454565 
L 368.602745 115.459388 
L 369.961164 109.286901 
L 371.31953 107.893582 
L 372.677896 112.610376 
L 374.036315 115.209461 
L 375.394681 116.13404 
L 376.753099 114.589651 
L 378.111466 115.271217 
L 379.469832 116.163341 
L 380.82825 116.149419 
L 382.186617 115.737107 
L 390.336971 115.960309 
L 391.695337 116.126298 
L 394.412122 115.807658 
L 395.770488 116.093884 
L 397.128906 115.203165 
L 398.487273 115.719574 
L 398.487273 115.719574 
" clip-path="url(#p45ad118a18)" style="fill: none; stroke: #d22027; stroke-width: 1.5; stroke-linecap: square"/>
   </g>
   <g id="patch_3">
    <path d="M 57.6 119.740235 
L 57.6 41.472 
" style="fill: none; stroke: #000000; stroke-width: 0.8; stroke-linejoin: miter; stroke-linecap: square"/>
   </g>
   <g id="patch_4">
    <path d="M 414.72 119.740235 
L 414.72 41.472 
" style="fill: none; stroke: #000000; stroke-width: 0.8; stroke-linejoin: miter; stroke-linecap: square"/>
   </g>
   <g id="patch_5">
    <path d="M 57.6 119.740235 
L 414.72 119.740235 
" style="fill: none; stroke: #000000; stroke-width: 0.8; stroke-linejoin: miter; stroke-linecap: square"/>
   </g>
   <g id="patch_6">
    <path d="M 57.6 41.472 
L 414.72 41.472 
" style="fill: none; stroke: #000000; stroke-width: 0.8; stroke-linejoin: miter; stroke-linecap: square"/>
   </g>
  </g>
  <g id="axes_2">
   <g id="patch_7">
    <path d="M 57.6 213.662118 
L 414.72 213.662118 
L 414.72 135.393882 
L 57.6 135.393882 
z
" style="fill: #ffffff"/>
   </g>
   <g id="matplotlib.axis_3">
    <g id="xtick_5">
     <g id="line2d_9">
      <g>
       <use xlink:href="#m3093ee7877" x="72.474361" y="213.662118" style="stroke: #000000; stroke-width: 0.8"/>
      </g>
     </g>
     <g id="text_7">
      <!-- 10 -->
      <g transform="translate(66.111861 228.260555)scale(0.1 -0.1)">
       <use xlink:href="#DejaVuSans-31"/>
       <use xlink:href="#DejaVuSans-30" x="63.623047"/>
      </g>
     </g>
    </g>
    <g id="xtick_6">
     <g id="line2d_10">
      <g>
       <use xlink:href="#m3093ee7877" x="181.145331" y="213.662118" style="stroke: #000000; stroke-width: 0.8"/>
      </g>
     </g>
     <g id="text_8">
      <!-- 12 -->
      <g transform="translate(174.782831 228.260555)scale(0.1 -0.1)">
       <use xlink:href="#DejaVuSans-31"/>
       <use xlink:href="#DejaVuSans-32" x="63.623047"/>
      </g>
     </g>
    </g>
    <g id="xtick_7">
     <g id="line2d_11">
      <g>
       <use xlink:href="#m3093ee7877" x="289.816302" y="213.662118" style="stroke: #000000; stroke-width: 0.8"/>
      </g>
     </g>
     <g id="text_9">
      <!-- 14 -->
      <g transform="translate(283.453802 228.260555)scale(0.1 -0.1)">
       <use xlink:href="#DejaVuSans-31"/>
       <use xlink:href="#DejaVuSans-34" x="63.623047"/>
      </g>
     </g>
    </g>
    <g id="xtick_8">
     <g id="line2d_12">
      <g>
       <use xlink:href="#m3093ee7877" x="398.487273" y="213.662118" style="stroke: #000000; stroke-width: 0.8"/>
      </g>
     </g>
     <g id="text_10">
      <!-- 16 -->
      <g transform="translate(392.124773 228.260555)scale(0.1 -0.1)">
       <use xlink:href="#DejaVuSans-31"/>
       <use xlink:href="#DejaVuSans-36" x="63.623047"/>
      </g>
     </g>
    </g>
   </g>
   <g id="matplotlib.axis_4">
    <g id="ytick_3">
     <g id="line2d_13">
      <g>
       <use xlink:href="#m9bac63518b" x="57.6" y="210.108665" style="stroke: #000000; stroke-width: 0.8"/>
      </g>
     </g>
     <g id="text_11">
      <!-- 0 -->
      <g transform="translate(44.2375 213.907884)scale(0.1 -0.1)">
       <use xlink:href="#DejaVuSans-30"/>
      </g>
     </g>
    </g>
    <g id="ytick_4">
     <g id="line2d_14">
      <g>
       <use xlink:href="#m9bac63518b" x="57.6" y="172.554283" style="stroke: #000000; stroke-width: 0.8"/>
      </g>
     </g>
     <g id="text_12">
      <!-- 2 -->
      <g transform="translate(44.2375 176.353502)scale(0.1 -0.1)">
       <use xlink:href="#DejaVuSans-32"/>
      </g>
     </g>
    </g>
   </g>
   <g id="line2d_15">
    <path d="M 73.832727 208.806288 
L 75.191145 209.60516 
L 76.549512 210.039337 
L 77.90793 209.734974 
L 79.266297 210.053954 
L 80.624663 209.895745 
L 81.983081 209.404561 
L 83.341448 209.276822 
L 84.699866 209.665509 
L 86.058232 209.473875 
L 87.416599 208.524124 
L 88.775017 209.567408 
L 90.133383 209.309855 
L 91.491801 209.525599 
L 92.850168 208.306401 
L 94.208534 208.653313 
L 95.566952 209.810831 
L 96.925319 209.938848 
L 98.283737 209.366061 
L 99.642104 209.805624 
L 101.00047 209.962384 
L 102.358888 209.849603 
L 105.075673 210.085683 
L 109.150824 210.003594 
L 117.301126 210.07496 
L 122.734695 210.008757 
L 126.809846 209.730162 
L 130.884997 209.280218 
L 132.243415 209.361767 
L 133.601782 209.976566 
L 134.960148 208.627376 
L 136.318566 205.23658 
L 137.676933 199.990764 
L 139.035351 195.901999 
L 140.393718 202.709277 
L 141.752084 188.309366 
L 143.110502 149.823023 
L 144.468869 155.220306 
L 145.827287 198.182465 
L 147.185653 155.447859 
L 148.54402 175.478174 
L 149.902438 204.977569 
L 151.260804 208.993359 
L 152.619222 203.195046 
L 153.977589 200.494127 
L 155.335955 207.977091 
L 156.694373 208.471687 
L 159.411158 209.681394 
L 160.769524 208.849871 
L 162.127891 209.844118 
L 163.486309 209.310496 
L 166.203094 209.926195 
L 167.56146 209.9082 
L 168.919827 209.357559 
L 170.278245 209.538725 
L 171.636611 209.356439 
L 172.995029 209.798853 
L 174.353396 208.855108 
L 175.711762 206.345058 
L 177.07018 206.010294 
L 178.428547 206.008094 
L 181.145331 209.596724 
L 182.503698 207.923134 
L 183.862116 208.413455 
L 185.220483 208.284014 
L 186.578901 209.954195 
L 187.937267 210.053133 
L 189.295634 208.975227 
L 190.654052 209.451118 
L 192.012418 208.652004 
L 193.370836 209.333708 
L 194.729203 208.922193 
L 196.087569 209.388559 
L 197.445987 209.297489 
L 201.521138 209.837984 
L 202.879505 209.90487 
L 204.237923 209.677682 
L 205.59629 209.183712 
L 206.954708 209.181438 
L 208.313074 209.544929 
L 209.671441 209.328263 
L 212.388225 205.767838 
L 213.746643 205.692233 
L 215.10501 207.299653 
L 216.463376 209.908699 
L 217.821794 208.236249 
L 219.180161 207.664594 
L 221.896945 209.443223 
L 223.255312 209.916383 
L 225.972097 209.110214 
L 231.405666 209.268451 
L 239.555968 209.999678 
L 242.272752 209.20364 
L 243.631119 209.063886 
L 244.989537 209.507991 
L 246.347903 209.434068 
L 247.706322 207.584384 
L 249.064688 206.022858 
L 250.423055 206.105227 
L 253.139839 209.800099 
L 254.498257 208.13171 
L 255.856624 208.113736 
L 258.573408 209.786953 
L 259.931775 209.868928 
L 261.290193 209.481989 
L 262.648559 209.280554 
L 265.365344 209.287684 
L 270.798862 209.567771 
L 274.874064 209.645352 
L 277.590797 210.002001 
L 278.949215 209.897552 
L 281.666 209.257781 
L 283.024366 209.369045 
L 284.382733 210.058279 
L 287.099517 207.54824 
L 288.457936 207.198993 
L 289.816302 208.271621 
L 291.174669 210.086766 
L 292.533087 209.210658 
L 297.966604 210.039031 
L 299.325022 209.725669 
L 300.683389 209.597288 
L 303.400173 209.643069 
L 307.475324 209.801636 
L 310.192109 209.714804 
L 312.908894 209.382349 
L 315.625678 208.789663 
L 318.342411 208.286001 
L 319.700829 208.662523 
L 321.059196 209.989957 
L 322.417614 206.921483 
L 323.77598 203.41676 
L 325.134347 202.890979 
L 326.492765 207.708538 
L 327.851131 205.3526 
L 329.20955 202.288313 
L 330.567916 204.163622 
L 331.926282 207.20927 
L 333.284701 209.685668 
L 334.643067 208.732509 
L 336.001485 208.434572 
L 337.359852 209.098368 
L 338.718218 209.622198 
L 340.076636 209.891957 
L 341.435003 210.020703 
L 345.510154 209.902749 
L 349.585357 209.825516 
L 353.660508 209.986242 
L 355.018874 209.452744 
L 356.377292 208.387486 
L 357.735659 206.473202 
L 359.094025 203.189977 
L 360.452443 198.409323 
L 361.81081 193.063875 
L 363.169228 191.286279 
L 364.527594 201.836334 
L 365.885961 187.501816 
L 367.244379 147.385351 
L 368.602745 138.951529 
L 369.961164 187.703041 
L 372.677896 148.18149 
L 374.036315 168.357775 
L 375.394681 196.578975 
L 376.753099 204.279217 
L 378.111466 198.429471 
L 379.469832 200.895163 
L 380.82825 204.213343 
L 382.186617 206.487565 
L 383.545035 208.081554 
L 384.903401 208.953653 
L 386.261768 209.338818 
L 387.620186 209.538699 
L 391.695337 209.655592 
L 394.412122 209.809885 
L 395.770488 210.05696 
L 397.128906 209.656258 
L 398.487273 208.713559 
L 398.487273 208.713559 
" clip-path="url(#p3b767e47f2)" style="fill: none; stroke: #385989; stroke-width: 1.5; stroke-linecap: square"/>
   </g>
   <g id="line2d_16">
    <path d="M 73.832727 209.041036 
L 75.191145 209.892106 
L 80.624663 209.872903 
L 81.983081 209.500245 
L 83.341448 209.444465 
L 84.699866 209.542449 
L 86.058232 208.255258 
L 87.416599 208.778455 
L 88.775017 209.803535 
L 90.133383 210.038025 
L 91.491801 209.10136 
L 92.850168 209.866038 
L 94.208534 210.046647 
L 95.566952 209.599705 
L 99.642104 209.932693 
L 101.00047 209.831645 
L 103.717255 210.006368 
L 114.584341 210.089765 
L 124.093062 210.001068 
L 125.45148 209.954913 
L 126.809846 210.058793 
L 130.884997 209.86398 
L 132.243415 209.945347 
L 133.601782 209.877567 
L 134.960148 209.269517 
L 136.318566 207.876411 
L 137.676933 205.599178 
L 139.035351 204.656526 
L 140.393718 207.60475 
L 141.752084 200.848662 
L 143.110502 188.06471 
L 144.468869 191.743495 
L 145.827287 207.539501 
L 147.185653 195.00559 
L 148.54402 197.548341 
L 149.902438 206.875662 
L 151.260804 208.149216 
L 152.619222 207.076255 
L 153.977589 208.919465 
L 155.335955 209.031447 
L 159.411158 210.034836 
L 162.127891 209.978841 
L 164.844676 209.986864 
L 168.919827 210.030627 
L 171.636611 210.035837 
L 172.995029 209.557723 
L 174.353396 209.197645 
L 175.711762 208.174096 
L 177.07018 208.260796 
L 178.428547 207.915881 
L 179.786965 210.036798 
L 181.145331 209.819741 
L 182.503698 209.419691 
L 183.862116 209.401343 
L 186.578901 210.044934 
L 187.937267 209.782827 
L 189.295634 209.634085 
L 192.012418 209.646781 
L 202.879505 210.058602 
L 204.237923 210.003941 
L 205.59629 209.759831 
L 206.954708 209.748325 
L 208.313074 209.933912 
L 209.671441 209.776313 
L 211.029859 207.729226 
L 212.388225 207.210404 
L 213.746643 208.061117 
L 215.10501 209.644435 
L 216.463376 209.996092 
L 217.821794 209.182131 
L 219.180161 208.978537 
L 221.896945 210.084475 
L 224.61373 209.594921 
L 227.330515 209.608307 
L 232.764032 209.853157 
L 235.480817 209.758097 
L 238.197601 210.057862 
L 239.555968 210.024014 
L 242.272752 209.763295 
L 244.989537 209.908877 
L 246.347903 208.951824 
L 247.706322 207.827289 
L 249.064688 207.170042 
L 250.423055 207.758771 
L 251.781473 209.402651 
L 253.139839 209.264834 
L 254.498257 208.601045 
L 255.856624 208.917002 
L 257.21499 209.624043 
L 258.573408 209.95571 
L 259.931775 209.632143 
L 261.290193 209.628324 
L 262.648559 209.070528 
L 264.006926 209.055206 
L 265.365344 209.730377 
L 276.232431 210.070861 
L 277.590797 209.844591 
L 278.949215 209.734336 
L 280.307582 209.44339 
L 281.666 210.023371 
L 283.024366 210.098518 
L 284.382733 207.890326 
L 285.741151 206.279942 
L 287.099517 206.577707 
L 288.457936 209.531204 
L 289.816302 209.829783 
L 291.174669 208.517552 
L 292.533087 208.068463 
L 293.891453 209.328138 
L 295.249871 210.10359 
L 296.608238 209.571709 
L 297.966604 209.449891 
L 299.325022 209.469084 
L 303.400173 209.786564 
L 307.475324 209.922724 
L 312.908894 209.940888 
L 314.26726 210.104471 
L 315.625678 210.079502 
L 316.984045 209.432058 
L 318.342411 209.168445 
L 319.700829 209.244366 
L 321.059196 209.678753 
L 322.417614 209.002185 
L 323.77598 207.833199 
L 325.134347 204.815875 
L 326.492765 205.490017 
L 327.851131 210.057958 
L 329.20955 207.999772 
L 330.567916 207.261533 
L 331.926282 208.219573 
L 333.284701 209.677049 
L 334.643067 209.629495 
L 336.001485 209.3329 
L 337.359852 209.35302 
L 344.151787 210.066667 
L 349.585357 209.992589 
L 357.735659 209.945991 
L 359.094025 210.09697 
L 360.452443 209.85944 
L 361.81081 209.508436 
L 363.169228 208.895151 
L 364.527594 209.297109 
L 365.885961 210.048429 
L 367.244379 206.703885 
L 368.602745 204.670383 
L 369.961164 205.993852 
L 371.31953 210.00655 
L 372.677896 206.782308 
L 375.394681 208.314842 
L 376.753099 210.068817 
L 378.111466 209.259071 
L 379.469832 209.242137 
L 380.82825 209.359182 
L 382.186617 209.651599 
L 386.261768 210.081208 
L 397.128906 209.880774 
L 398.487273 209.511852 
L 398.487273 209.511852 
" clip-path="url(#p3b767e47f2)" style="fill: none; stroke: #d22027; stroke-width: 1.5; stroke-linecap: square"/>
   </g>
   <g id="patch_8">
    <path d="M 57.6 213.662118 
L 57.6 135.393882 
" style="fill: none; stroke: #000000; stroke-width: 0.8; stroke-linejoin: miter; stroke-linecap: square"/>
   </g>
   <g id="patch_9">
    <path d="M 414.72 213.662118 
L 414.72 135.393882 
" style="fill: none; stroke: #000000; stroke-width: 0.8; stroke-linejoin: miter; stroke-linecap: square"/>
   </g>
   <g id="patch_10">
    <path d="M 57.6 213.662118 
L 414.72 213.662118 
" style="fill: none; stroke: #000000; stroke-width: 0.8; stroke-linejoin: miter; stroke-linecap: square"/>
   </g>
   <g id="patch_11">
    <path d="M 57.6 135.393882 
L 414.72 135.393882 
" style="fill: none; stroke: #000000; stroke-width: 0.8; stroke-linejoin: miter; stroke-linecap: square"/>
   </g>
  </g>
  <g id="axes_3">
   <g id="patch_12">
    <path d="M 57.6 307.584 
L 414.72 307.584 
L 414.72 229.315765 
L 57.6 229.315765 
z
" style="fill: #ffffff"/>
   </g>
   <g id="matplotlib.axis_5">
    <g id="xtick_9">
     <g id="line2d_17">
      <g>
       <use xlink:href="#m3093ee7877" x="72.474361" y="307.584" style="stroke: #000000; stroke-width: 0.8"/>
      </g>
     </g>
     <g id="text_13">
      <!-- 10 -->
      <g transform="translate(66.111861 322.182437)scale(0.1 -0.1)">
       <use xlink:href="#DejaVuSans-31"/>
       <use xlink:href="#DejaVuSans-30" x="63.623047"/>
      </g>
     </g>
    </g>
    <g id="xtick_10">
     <g id="line2d_18">
      <g>
       <use xlink:href="#m3093ee7877" x="181.145331" y="307.584" style="stroke: #000000; stroke-width: 0.8"/>
      </g>
     </g>
     <g id="text_14">
      <!-- 12 -->
      <g transform="translate(174.782831 322.182437)scale(0.1 -0.1)">
       <use xlink:href="#DejaVuSans-31"/>
       <use xlink:href="#DejaVuSans-32" x="63.623047"/>
      </g>
     </g>
    </g>
    <g id="xtick_11">
     <g id="line2d_19">
      <g>
       <use xlink:href="#m3093ee7877" x="289.816302" y="307.584" style="stroke: #000000; stroke-width: 0.8"/>
      </g>
     </g>
     <g id="text_15">
      <!-- 14 -->
      <g transform="translate(283.453802 322.182437)scale(0.1 -0.1)">
       <use xlink:href="#DejaVuSans-31"/>
       <use xlink:href="#DejaVuSans-34" x="63.623047"/>
      </g>
     </g>
    </g>
    <g id="xtick_12">
     <g id="line2d_20">
      <g>
       <use xlink:href="#m3093ee7877" x="398.487273" y="307.584" style="stroke: #000000; stroke-width: 0.8"/>
      </g>
     </g>
     <g id="text_16">
      <!-- 16 -->
      <g transform="translate(392.124773 322.182437)scale(0.1 -0.1)">
       <use xlink:href="#DejaVuSans-31"/>
       <use xlink:href="#DejaVuSans-36" x="63.623047"/>
      </g>
     </g>
    </g>
   </g>
   <g id="matplotlib.axis_6">
    <g id="ytick_5">
     <g id="line2d_21">
      <g>
       <use xlink:href="#m9bac63518b" x="57.6" y="304.026573" style="stroke: #000000; stroke-width: 0.8"/>
      </g>
     </g>
     <g id="text_17">
      <!-- 0 -->
      <g transform="translate(44.2375 307.825792)scale(0.1 -0.1)">
       <use xlink:href="#DejaVuSans-30"/>
      </g>
     </g>
    </g>
    <g id="ytick_6">
     <g id="line2d_22">
      <g>
       <use xlink:href="#m9bac63518b" x="57.6" y="270.243603" style="stroke: #000000; stroke-width: 0.8"/>
      </g>
     </g>
     <g id="text_18">
      <!-- 2 -->
      <g transform="translate(44.2375 274.042822)scale(0.1 -0.1)">
       <use xlink:href="#DejaVuSans-32"/>
      </g>
     </g>
    </g>
    <g id="ytick_7">
     <g id="line2d_23">
      <g>
       <use xlink:href="#m9bac63518b" x="57.6" y="236.460632" style="stroke: #000000; stroke-width: 0.8"/>
      </g>
     </g>
     <g id="text_19">
      <!-- 4 -->
      <g transform="translate(44.2375 240.259851)scale(0.1 -0.1)">
       <use xlink:href="#DejaVuSans-34"/>
      </g>
     </g>
    </g>
   </g>
   <g id="line2d_24">
    <path d="M 73.832727 303.915845 
L 75.191145 304.019078 
L 76.549512 303.776044 
L 79.266297 303.674637 
L 80.624663 303.441568 
L 81.983081 303.49514 
L 83.341448 303.236231 
L 84.699866 303.184853 
L 86.058232 302.925163 
L 87.416599 303.411236 
L 88.775017 303.556902 
L 91.491801 302.90691 
L 92.850168 303.665843 
L 94.208534 303.927829 
L 95.566952 303.786752 
L 96.925319 303.526781 
L 98.283737 303.874247 
L 109.150824 303.843071 
L 111.867608 303.986908 
L 120.017911 303.866009 
L 124.093062 303.86038 
L 128.168213 303.940476 
L 129.526631 303.690619 
L 130.884997 303.276474 
L 132.243415 302.659046 
L 134.960148 301.034568 
L 136.318566 301.145372 
L 137.676933 303.84887 
L 139.035351 294.848212 
L 140.393718 279.984845 
L 141.752084 272.055565 
L 143.110502 291.896436 
L 144.468869 273.834653 
L 145.827287 251.686013 
L 147.185653 277.177571 
L 148.54402 292.446321 
L 149.902438 280.031275 
L 151.260804 290.610351 
L 152.619222 298.10515 
L 153.977589 303.414978 
L 155.335955 303.578319 
L 156.694373 303.434921 
L 158.05274 302.836229 
L 159.411158 303.798164 
L 160.769524 302.281819 
L 162.127891 303.364764 
L 163.486309 302.250026 
L 164.844676 303.424847 
L 166.203094 302.621392 
L 167.56146 303.71108 
L 171.636611 303.073003 
L 172.995029 302.12663 
L 174.353396 302.03738 
L 175.711762 302.569562 
L 177.07018 303.634397 
L 178.428547 301.483254 
L 179.786965 300.106766 
L 181.145331 300.488898 
L 182.503698 301.449352 
L 183.862116 303.549065 
L 185.220483 303.854847 
L 186.578901 303.150263 
L 187.937267 303.44862 
L 190.654052 303.701091 
L 192.012418 303.992326 
L 194.729203 303.667916 
L 196.087569 303.848595 
L 197.445987 303.513068 
L 198.804354 303.981674 
L 200.162772 303.445053 
L 201.521138 303.842015 
L 202.879505 303.512732 
L 204.237923 303.859781 
L 205.59629 303.961895 
L 206.954708 303.306342 
L 208.313074 302.482322 
L 209.671441 301.920294 
L 211.029859 302.165441 
L 212.388225 303.629728 
L 213.746643 302.147319 
L 215.10501 300.295788 
L 216.463376 299.986657 
L 217.821794 301.33512 
L 219.180161 302.999991 
L 220.538579 303.725406 
L 221.896945 303.300985 
L 223.255312 303.292954 
L 225.972097 303.733287 
L 228.688881 304.005063 
L 230.047248 304.019949 
L 231.405666 303.907923 
L 232.764032 303.956013 
L 234.12245 303.816379 
L 235.480817 303.816024 
L 238.197601 303.634878 
L 239.555968 303.563623 
L 240.914386 303.653911 
L 242.272752 303.967987 
L 243.631119 303.518339 
L 244.989537 302.721612 
L 246.347903 302.143082 
L 247.706322 302.386818 
L 249.064688 303.862605 
L 250.423055 301.948338 
L 251.781473 300.369185 
L 253.139839 300.541674 
L 255.856624 303.525979 
L 257.21499 303.573383 
L 258.573408 303.362191 
L 261.290193 303.673604 
L 262.648559 303.869113 
L 266.72371 304.02231 
L 272.15728 303.916497 
L 274.874064 303.7421 
L 278.949215 303.37717 
L 280.307582 303.439506 
L 281.666 303.810975 
L 283.024366 303.613093 
L 284.382733 303.043117 
L 285.741151 302.957092 
L 287.099517 303.748979 
L 289.816302 301.904669 
L 291.174669 301.988075 
L 293.891453 303.61467 
L 295.249871 304.02312 
L 297.966604 303.84612 
L 303.400173 303.974554 
L 312.908894 303.842239 
L 314.26726 303.935194 
L 315.625678 303.842296 
L 316.984045 303.347213 
L 318.342411 302.367395 
L 321.059196 299.660246 
L 322.417614 299.431056 
L 323.77598 301.941294 
L 325.134347 301.036653 
L 326.492765 296.685226 
L 327.851131 297.25719 
L 329.20955 301.867749 
L 330.567916 301.868956 
L 331.926282 300.356848 
L 333.284701 300.937 
L 334.643067 302.227174 
L 336.001485 303.326637 
L 337.359852 303.870497 
L 338.718218 303.946739 
L 341.435003 303.907795 
L 345.510154 303.850032 
L 348.226938 303.686929 
L 350.943723 303.319958 
L 352.302089 303.020818 
L 353.660508 302.598157 
L 357.735659 300.893179 
L 359.094025 301.064204 
L 360.452443 303.128586 
L 361.81081 298.810502 
L 363.169228 286.531379 
L 364.527594 270.026707 
L 365.885961 261.602068 
L 367.244379 282.329926 
L 368.602745 273.855483 
L 369.961164 232.873412 
L 371.31953 245.383074 
L 372.677896 292.35208 
L 374.036315 281.809215 
L 375.394681 276.270443 
L 376.753099 285.640055 
L 378.111466 295.859148 
L 379.469832 301.907153 
L 380.82825 303.717002 
L 382.186617 303.139715 
L 383.545035 303.281115 
L 386.261768 303.81685 
L 387.620186 303.985853 
L 390.336971 303.820776 
L 394.412122 303.309418 
L 398.487273 302.40614 
L 398.487273 302.40614 
" clip-path="url(#p880edfa225)" style="fill: none; stroke: #385989; stroke-width: 1.5; stroke-linecap: square"/>
   </g>
   <g id="line2d_25">
    <path d="M 73.832727 302.356629 
L 75.191145 303.926847 
L 79.266297 303.670272 
L 80.624663 303.90914 
L 81.983081 303.101927 
L 83.341448 303.639054 
L 84.699866 303.854145 
L 86.058232 301.552109 
L 87.416599 301.869815 
L 88.775017 303.40638 
L 90.133383 303.402631 
L 91.491801 303.095659 
L 92.850168 303.879589 
L 94.208534 303.84243 
L 95.566952 303.969042 
L 98.283737 303.595831 
L 99.642104 303.926914 
L 101.00047 303.705928 
L 102.358888 303.99987 
L 125.45148 303.992076 
L 126.809846 303.686918 
L 129.526631 303.793221 
L 134.960148 302.696952 
L 136.318566 302.785121 
L 137.676933 304.011457 
L 139.035351 300.380407 
L 140.393718 294.993305 
L 141.752084 293.69504 
L 143.110502 303.542622 
L 144.468869 284.859808 
L 145.827287 277.116212 
L 147.185653 290.82409 
L 148.54402 299.758521 
L 149.902438 295.166139 
L 151.260804 299.265314 
L 152.619222 302.094154 
L 153.977589 302.287745 
L 155.335955 303.619462 
L 158.05274 303.682161 
L 162.127891 303.784912 
L 166.203094 303.702576 
L 170.278245 304.001276 
L 171.636611 303.720772 
L 174.353396 303.529831 
L 175.711762 303.8405 
L 177.07018 303.017711 
L 179.786965 302.231361 
L 181.145331 302.563036 
L 182.503698 303.790621 
L 183.862116 303.730709 
L 185.220483 303.822658 
L 186.578901 303.703676 
L 194.729203 303.914733 
L 202.879505 303.760976 
L 204.237923 303.793391 
L 205.59629 304.015808 
L 208.313074 303.492151 
L 209.671441 303.792349 
L 211.029859 303.424906 
L 212.388225 303.41105 
L 213.746643 302.547308 
L 215.10501 301.550665 
L 216.463376 301.856718 
L 219.180161 303.640643 
L 220.538579 303.722822 
L 221.896945 303.620899 
L 223.255312 303.644807 
L 225.972097 303.921359 
L 227.330515 304.01619 
L 238.197601 303.704727 
L 240.914386 303.794563 
L 242.272752 304.009844 
L 244.989537 303.261893 
L 246.347903 303.133244 
L 247.706322 303.601488 
L 249.064688 303.167753 
L 250.423055 301.742682 
L 251.781473 301.092314 
L 253.139839 301.729556 
L 254.498257 303.019777 
L 255.856624 303.970517 
L 257.21499 303.483197 
L 258.573408 303.425263 
L 261.290193 303.834394 
L 262.648559 303.718801 
L 264.006926 303.740988 
L 265.365344 303.972355 
L 277.590797 303.705526 
L 278.949215 303.862848 
L 280.307582 303.888564 
L 281.666 303.288999 
L 283.024366 302.154954 
L 284.382733 303.882709 
L 287.099517 303.099666 
L 289.816302 299.719961 
L 291.174669 303.291531 
L 292.533087 303.90802 
L 293.891453 303.192002 
L 295.249871 303.219681 
L 299.325022 303.931088 
L 302.041807 303.973237 
L 307.475324 303.917257 
L 312.908894 303.731127 
L 314.26726 303.60443 
L 315.625678 303.900277 
L 318.342411 303.512424 
L 319.700829 303.676382 
L 321.059196 302.836177 
L 322.417614 302.236278 
L 323.77598 302.491672 
L 325.134347 303.066607 
L 326.492765 300.72984 
L 327.851131 299.068967 
L 329.20955 300.764921 
L 330.567916 303.203251 
L 331.926282 303.163318 
L 333.284701 302.728493 
L 337.359852 303.828021 
L 338.718218 303.964376 
L 341.435003 303.994185 
L 342.793421 303.903318 
L 349.585357 303.967306 
L 355.018874 303.83434 
L 359.094025 303.562521 
L 360.452443 303.454935 
L 363.169228 303.821289 
L 364.527594 302.969339 
L 365.885961 301.198292 
L 367.244379 302.293089 
L 368.602745 302.964183 
L 369.961164 298.29947 
L 371.31953 297.829509 
L 372.677896 299.419561 
L 374.036315 303.707118 
L 375.394681 302.318518 
L 376.753099 302.399122 
L 378.111466 302.997146 
L 379.469832 303.724823 
L 382.186617 303.960673 
L 390.336971 303.931671 
L 394.412122 303.831305 
L 395.770488 303.674918 
L 397.128906 303.971048 
L 398.487273 302.405203 
L 398.487273 302.405203 
" clip-path="url(#p880edfa225)" style="fill: none; stroke: #d22027; stroke-width: 1.5; stroke-linecap: square"/>
   </g>
   <g id="patch_13">
    <path d="M 57.6 307.584 
L 57.6 229.315765 
" style="fill: none; stroke: #000000; stroke-width: 0.8; stroke-linejoin: miter; stroke-linecap: square"/>
   </g>
   <g id="patch_14">
    <path d="M 414.72 307.584 
L 414.72 229.315765 
" style="fill: none; stroke: #000000; stroke-width: 0.8; stroke-linejoin: miter; stroke-linecap: square"/>
   </g>
   <g id="patch_15">
    <path d="M 57.6 307.584 
L 414.72 307.584 
" style="fill: none; stroke: #000000; stroke-width: 0.8; stroke-linejoin: miter; stroke-linecap: square"/>
   </g>
   <g id="patch_16">
    <path d="M 57.6 229.315765 
L 414.72 229.315765 
" style="fill: none; stroke: #000000; stroke-width: 0.8; stroke-linejoin: miter; stroke-linecap: square"/>
   </g>
  </g>
 </g>
 <defs>
  <clipPath id="p45ad118a18">
   <rect x="57.6" y="41.472" width="357.12" height="78.268235"/>
  </clipPath>
  <clipPath id="p3b767e47f2">
   <rect x="57.6" y="135.393882" width="357.12" height="78.268235"/>
  </clipPath>
  <clipPath id="p880edfa225">
   <rect x="57.6" y="229.315765" width="357.12" height="78.268235"/>
  </clipPath>
 </defs>
</svg>
