<?xml version="1.0" encoding="utf-8" standalone="no"?>
<!DOCTYPE svg PUBLIC "-//W3C//DTD SVG 1.1//EN"
  "http://www.w3.org/Graphics/SVG/1.1/DTD/svg11.dtd">
<svg xmlns:xlink="http://www.w3.org/1999/xlink" width="460.8pt" height="345.6pt" viewBox="0 0 460.8 345.6" xmlns="http://www.w3.org/2000/svg" version="1.1">
 <metadata>
  <rdf:RDF xmlns:dc="http://purl.org/dc/elements/1.1/" xmlns:cc="http://creativecommons.org/ns#" xmlns:rdf="http://www.w3.org/1999/02/22-rdf-syntax-ns#">
   <cc:Work>
    <dc:type rdf:resource="http://purl.org/dc/dcmitype/StillImage"/>
    <dc:date>2023-10-24T02:42:43.301239</dc:date>
    <dc:format>image/svg+xml</dc:format>
    <dc:creator>
     <cc:Agent>
      <dc:title>Matplotlib v3.5.2, https://matplotlib.org/</dc:title>
     </cc:Agent>
    </dc:creator>
   </cc:Work>
  </rdf:RDF>
 </metadata>
 <defs>
  <style type="text/css">*{stroke-linejoin: round; stroke-linecap: butt}</style>
 </defs>
 <g id="figure_1">
  <g id="patch_1">
   <path d="M 0 345.6 
L 460.8 345.6 
L 460.8 0 
L 0 0 
z
" style="fill: #ffffff"/>
  </g>
  <g id="axes_1">
   <g id="patch_2">
    <path d="M 57.6 119.740235 
L 414.72 119.740235 
L 414.72 41.472 
L 57.6 41.472 
z
" style="fill: #ffffff"/>
   </g>
   <g id="matplotlib.axis_1">
    <g id="xtick_1">
     <g id="line2d_1">
      <defs>
       <path id="mdcb03b2d79" d="M 0 0 
L 0 3.5 
" style="stroke: #000000; stroke-width: 0.8"/>
      </defs>
      <g>
       <use xlink:href="#mdcb03b2d79" x="57.6" y="119.740235" style="stroke: #000000; stroke-width: 0.8"/>
      </g>
     </g>
    </g>
    <g id="xtick_2">
     <g id="line2d_2">
      <g>
       <use xlink:href="#mdcb03b2d79" x="236.16" y="119.740235" style="stroke: #000000; stroke-width: 0.8"/>
      </g>
     </g>
    </g>
    <g id="xtick_3">
     <g id="line2d_3">
      <g>
       <use xlink:href="#mdcb03b2d79" x="414.72" y="119.740235" style="stroke: #000000; stroke-width: 0.8"/>
      </g>
     </g>
    </g>
   </g>
   <g id="matplotlib.axis_2">
    <g id="ytick_1">
     <g id="line2d_4">
      <defs>
       <path id="mf972c6c093" d="M 0 0 
L -3.5 0 
" style="stroke: #000000; stroke-width: 0.8"/>
      </defs>
      <g>
       <use xlink:href="#mf972c6c093" x="57.6" y="116.186178" style="stroke: #000000; stroke-width: 0.8"/>
      </g>
     </g>
     <g id="text_1">
      <!-- 0 -->
      <g transform="translate(44.2375 119.985397)scale(0.1 -0.1)">
       <defs>
        <path id="DejaVuSans-30" d="M 2034 4250 
Q 1547 4250 1301 3770 
Q 1056 3291 1056 2328 
Q 1056 1369 1301 889 
Q 1547 409 2034 409 
Q 2525 409 2770 889 
Q 3016 1369 3016 2328 
Q 3016 3291 2770 3770 
Q 2525 4250 2034 4250 
z
M 2034 4750 
Q 2819 4750 3233 4129 
Q 3647 3509 3647 2328 
Q 3647 1150 3233 529 
Q 2819 -91 2034 -91 
Q 1250 -91 836 529 
Q 422 1150 422 2328 
Q 422 3509 836 4129 
Q 1250 4750 2034 4750 
z
" transform="scale(0.015625)"/>
       </defs>
       <use xlink:href="#DejaVuSans-30"/>
      </g>
     </g>
    </g>
    <g id="ytick_2">
     <g id="line2d_5">
      <g>
       <use xlink:href="#mf972c6c093" x="57.6" y="79.179319" style="stroke: #000000; stroke-width: 0.8"/>
      </g>
     </g>
     <g id="text_2">
      <!-- 1 -->
      <g transform="translate(44.2375 82.978537)scale(0.1 -0.1)">
       <defs>
        <path id="DejaVuSans-31" d="M 794 531 
L 1825 531 
L 1825 4091 
L 703 3866 
L 703 4441 
L 1819 4666 
L 2450 4666 
L 2450 531 
L 3481 531 
L 3481 0 
L 794 0 
L 794 531 
z
" transform="scale(0.015625)"/>
       </defs>
       <use xlink:href="#DejaVuSans-31"/>
      </g>
     </g>
    </g>
    <g id="ytick_3">
     <g id="line2d_6">
      <g>
       <use xlink:href="#mf972c6c093" x="57.6" y="42.172459" style="stroke: #000000; stroke-width: 0.8"/>
      </g>
     </g>
     <g id="text_3">
      <!-- 2 -->
      <g transform="translate(44.2375 45.971678)scale(0.1 -0.1)">
       <defs>
        <path id="DejaVuSans-32" d="M 1228 531 
L 3431 531 
L 3431 0 
L 469 0 
L 469 531 
Q 828 903 1448 1529 
Q 2069 2156 2228 2338 
Q 2531 2678 2651 2914 
Q 2772 3150 2772 3378 
Q 2772 3750 2511 3984 
Q 2250 4219 1831 4219 
Q 1534 4219 1204 4116 
Q 875 4013 500 3803 
L 500 4441 
Q 881 4594 1212 4672 
Q 1544 4750 1819 4750 
Q 2544 4750 2975 4387 
Q 3406 4025 3406 3419 
Q 3406 3131 3298 2873 
Q 3191 2616 2906 2266 
Q 2828 2175 2409 1742 
Q 1991 1309 1228 531 
z
" transform="scale(0.015625)"/>
       </defs>
       <use xlink:href="#DejaVuSans-32"/>
      </g>
     </g>
    </g>
   </g>
   <g id="line2d_7">
    <path d="M 57.6 116.179052 
L 70.991966 116.075634 
L 77.688034 116.116241 
L 79.92 116.16909 
L 86.615983 115.961234 
L 91.08 116.023112 
L 97.775983 116.126806 
L 111.168034 115.974346 
L 120.095983 115.849124 
L 129.024017 115.558402 
L 135.72 115.077136 
L 140.184017 114.502857 
L 142.415983 114.093116 
L 144.648034 113.569068 
L 146.88 112.898035 
L 149.111966 112.038361 
L 151.344017 110.936903 
L 153.575983 109.53128 
L 155.808034 107.747362 
L 158.04 105.515713 
L 160.271966 102.790928 
L 162.504017 99.608039 
L 164.735983 96.20291 
L 166.968034 93.193529 
L 169.2 91.799272 
L 171.431966 93.881172 
L 173.664017 101.245601 
L 175.895983 114.024316 
L 178.128034 103.144162 
L 180.36 90.445446 
L 182.591966 83.714027 
L 184.824017 83.162369 
L 187.055983 86.791609 
L 191.52 97.672999 
L 193.751966 102.415339 
L 195.984017 106.255983 
L 198.215983 108.89125 
L 200.448034 110.788201 
L 202.68 111.794036 
L 204.911966 112.326162 
L 207.144017 112.299458 
L 209.375983 111.986037 
L 211.608034 111.378886 
L 220.535983 108.268449 
L 222.768034 108.020617 
L 225 108.389436 
L 227.231966 109.533535 
L 229.464017 111.587991 
L 231.695983 114.326973 
L 233.928034 114.869533 
L 236.16 111.774825 
L 238.391966 109.247927 
L 240.624017 107.561977 
L 242.855983 106.772486 
L 245.088034 106.846272 
L 247.32 107.489701 
L 249.551966 108.555064 
L 262.944017 115.736698 
L 265.175983 115.604567 
L 278.568034 109.493708 
L 280.8 108.932683 
L 283.031966 108.884677 
L 285.264017 109.558687 
L 287.495983 111.082987 
L 289.728034 113.433557 
L 291.96 116.046538 
L 294.191966 113.050932 
L 296.424017 110.445516 
L 298.655983 108.585951 
L 300.888034 107.612768 
L 303.12 107.445953 
L 305.351966 107.900725 
L 307.584017 108.742979 
L 318.744017 113.853028 
L 323.208034 115.494687 
L 325.44 116.099441 
L 332.135983 113.624554 
L 338.831966 111.026579 
L 341.064017 110.451976 
L 343.295983 110.299614 
L 345.528034 110.769204 
L 347.76 111.992121 
L 352.224017 116.020912 
L 354.455983 113.552291 
L 356.688034 111.446924 
L 358.92 109.98182 
L 361.151966 109.238049 
L 363.384017 109.119624 
L 365.615983 109.452721 
L 370.08 110.758359 
L 374.544017 112.156874 
L 379.008034 113.28105 
L 383.471966 114.128879 
L 392.4 115.637071 
L 394.631966 116.117492 
L 396.864017 115.694375 
L 405.791966 113.164489 
L 408.024017 112.944431 
L 410.255983 113.176157 
L 412.488034 113.910095 
L 414.72 115.04831 
L 416.951966 115.99849 
L 419.184017 114.721138 
L 421.415983 113.678807 
L 423.648034 112.943909 
L 425.88 112.501113 
L 428.111966 112.275784 
L 432.575983 112.180607 
L 439.271966 112.135351 
L 443.735983 111.828014 
L 448.2 111.186733 
L 452.664017 110.199217 
L 459.36 108.416569 
L 461.8 108.02111 
L 461.8 108.02111 
" clip-path="url(#p7ef6494682)" style="fill: none; stroke: #0000cc; stroke-width: 1.5; stroke-linecap: square"/>
   </g>
   <g id="line2d_8">
    <path d="M 57.6 116.179052 
L 62.064017 116.109237 
L 84.384017 116.109768 
L 86.615983 116.001594 
L 97.775983 116.083834 
L 102.24 116.144913 
L 106.704017 116.156255 
L 131.255983 115.892909 
L 137.951966 115.647778 
L 142.415983 115.351976 
L 146.88 114.872557 
L 149.111966 114.544658 
L 151.344017 114.099896 
L 153.575983 113.541193 
L 155.808034 112.830113 
L 158.04 111.944843 
L 160.271966 110.870873 
L 166.968034 107.200705 
L 169.2 106.736138 
L 171.431966 107.750346 
L 173.664017 110.793961 
L 175.895983 115.920315 
L 178.128034 110.654372 
L 180.36 105.965512 
L 182.591966 103.502691 
L 184.824017 103.443835 
L 187.055983 104.767151 
L 191.52 108.889739 
L 193.751966 110.694665 
L 195.984017 112.07578 
L 198.215983 113.065752 
L 200.448034 113.717801 
L 202.68 114.087279 
L 204.911966 114.233712 
L 207.144017 114.211499 
L 211.608034 113.811233 
L 218.304017 112.900671 
L 220.535983 112.736481 
L 222.768034 112.754399 
L 225 113.05197 
L 227.231966 113.704262 
L 229.464017 114.699705 
L 231.695983 115.960164 
L 233.928034 115.021239 
L 236.16 113.8298 
L 238.391966 112.767061 
L 240.624017 112.233554 
L 242.855983 112.098918 
L 245.088034 112.307156 
L 247.32 112.748851 
L 260.711966 116.140892 
L 274.104017 113.342987 
L 276.335983 112.941456 
L 278.568034 112.661996 
L 280.8 112.542204 
L 283.031966 112.825977 
L 285.264017 113.359507 
L 287.495983 114.352092 
L 289.728034 115.592596 
L 291.96 115.23687 
L 294.191966 113.834839 
L 296.424017 112.692757 
L 298.655983 112.027025 
L 300.888034 111.798707 
L 303.12 111.984718 
L 305.351966 112.428764 
L 318.744017 116.014497 
L 320.975983 115.886009 
L 336.6 112.714144 
L 338.831966 112.421086 
L 341.064017 112.344498 
L 343.295983 112.606869 
L 345.528034 113.30347 
L 347.76 114.467955 
L 349.991966 115.995467 
L 352.224017 114.708359 
L 354.455983 113.205903 
L 356.688034 112.11486 
L 358.92 111.55336 
L 361.151966 111.499776 
L 363.384017 111.834959 
L 365.615983 112.404271 
L 374.544017 115.055828 
L 379.008034 116.053509 
L 381.24 115.88824 
L 390.168034 114.200038 
L 399.095983 112.323195 
L 401.328034 112.082676 
L 403.56 112.122134 
L 405.791966 112.677869 
L 408.024017 113.630732 
L 410.255983 115.240089 
L 412.488034 115.265698 
L 414.72 113.451337 
L 416.951966 112.022819 
L 419.184017 111.223034 
L 421.415983 111.044858 
L 423.648034 111.33681 
L 428.111966 112.681467 
L 432.575983 114.139985 
L 437.04 115.28112 
L 441.504017 116.115753 
L 443.735983 115.906001 
L 452.664017 114.490022 
L 457.128034 113.560319 
L 461.8 112.45643 
L 461.8 112.45643 
" clip-path="url(#p7ef6494682)" style="fill: none; stroke-dasharray: 9.6,2.4,1.5,2.4; stroke-dashoffset: 0; stroke: #ff0000; stroke-width: 1.5"/>
   </g>
   <g id="patch_3">
    <path d="M 57.6 119.740235 
L 57.6 41.472 
" style="fill: none; stroke: #000000; stroke-width: 0.8; stroke-linejoin: miter; stroke-linecap: square"/>
   </g>
   <g id="patch_4">
    <path d="M 414.72 119.740235 
L 414.72 41.472 
" style="fill: none; stroke: #000000; stroke-width: 0.8; stroke-linejoin: miter; stroke-linecap: square"/>
   </g>
   <g id="patch_5">
    <path d="M 57.6 119.740235 
L 414.72 119.740235 
" style="fill: none; stroke: #000000; stroke-width: 0.8; stroke-linejoin: miter; stroke-linecap: square"/>
   </g>
   <g id="patch_6">
    <path d="M 57.6 41.472 
L 414.72 41.472 
" style="fill: none; stroke: #000000; stroke-width: 0.8; stroke-linejoin: miter; stroke-linecap: square"/>
   </g>
  </g>
  <g id="axes_2">
   <g id="patch_7">
    <path d="M 57.6 213.662118 
L 414.72 213.662118 
L 414.72 135.393882 
L 57.6 135.393882 
z
" style="fill: #ffffff"/>
   </g>
   <g id="matplotlib.axis_3">
    <g id="xtick_4">
     <g id="line2d_9">
      <g>
       <use xlink:href="#mdcb03b2d79" x="57.6" y="213.662118" style="stroke: #000000; stroke-width: 0.8"/>
      </g>
     </g>
    </g>
    <g id="xtick_5">
     <g id="line2d_10">
      <g>
       <use xlink:href="#mdcb03b2d79" x="236.16" y="213.662118" style="stroke: #000000; stroke-width: 0.8"/>
      </g>
     </g>
    </g>
    <g id="xtick_6">
     <g id="line2d_11">
      <g>
       <use xlink:href="#mdcb03b2d79" x="414.72" y="213.662118" style="stroke: #000000; stroke-width: 0.8"/>
      </g>
     </g>
    </g>
   </g>
   <g id="matplotlib.axis_4">
    <g id="ytick_4">
     <g id="line2d_12">
      <g>
       <use xlink:href="#mf972c6c093" x="57.6" y="210.105989" style="stroke: #000000; stroke-width: 0.8"/>
      </g>
     </g>
     <g id="text_4">
      <!-- 0 -->
      <g transform="translate(44.2375 213.905207)scale(0.1 -0.1)">
       <use xlink:href="#DejaVuSans-30"/>
      </g>
     </g>
    </g>
    <g id="ytick_5">
     <g id="line2d_13">
      <g>
       <use xlink:href="#mf972c6c093" x="57.6" y="172.61554" style="stroke: #000000; stroke-width: 0.8"/>
      </g>
     </g>
     <g id="text_5">
      <!-- 2 -->
      <g transform="translate(44.2375 176.414758)scale(0.1 -0.1)">
       <use xlink:href="#DejaVuSans-32"/>
      </g>
     </g>
    </g>
   </g>
   <g id="line2d_14">
    <path d="M 57.6 210.104471 
L 66.528034 210.026891 
L 91.08 210.041738 
L 100.008034 210.017783 
L 122.328034 209.804668 
L 129.024017 209.567114 
L 135.72 209.086059 
L 140.184017 208.508107 
L 142.415983 208.09365 
L 144.648034 207.561766 
L 146.88 206.87928 
L 149.111966 206.004807 
L 151.344017 204.888223 
L 153.575983 203.47649 
L 155.808034 201.71925 
L 158.04 199.602247 
L 162.504017 194.790338 
L 164.735983 193.06143 
L 166.968034 193.343648 
L 169.2 197.638617 
L 171.431966 207.790815 
L 173.664017 197.019018 
L 175.895983 181.622478 
L 178.128034 173.838802 
L 180.36 176.673195 
L 182.591966 186.558236 
L 184.824017 197.473424 
L 187.055983 205.113267 
L 189.288034 209.226697 
L 191.52 208.846268 
L 193.751966 208.336853 
L 195.984017 208.658529 
L 198.215983 209.2085 
L 200.448034 210.004599 
L 202.68 209.431888 
L 204.911966 208.542615 
L 207.144017 207.823711 
L 209.375983 206.932304 
L 213.84 205.532258 
L 216.071966 205.070838 
L 218.304017 204.835641 
L 220.535983 205.114367 
L 222.768034 205.976248 
L 225 207.630531 
L 227.231966 209.939856 
L 229.464017 207.537212 
L 231.695983 204.906071 
L 233.928034 202.951576 
L 236.16 202.068149 
L 238.391966 202.224291 
L 240.624017 203.262846 
L 247.32 207.508074 
L 249.551966 208.618708 
L 251.784017 209.468725 
L 254.015983 210.078208 
L 258.48 209.089478 
L 267.408034 207.177888 
L 274.104017 205.504074 
L 276.335983 205.176706 
L 278.568034 205.177947 
L 280.8 205.715154 
L 283.031966 206.945209 
L 285.264017 208.925598 
L 287.495983 208.7446 
L 289.728034 206.089404 
L 291.96 203.913669 
L 294.191966 202.69989 
L 296.424017 202.5964 
L 298.655983 203.37185 
L 305.351966 207.296212 
L 307.584017 208.306569 
L 309.815983 209.074548 
L 312.048034 209.640413 
L 314.28 210.063556 
L 320.975983 209.193097 
L 325.44 208.467398 
L 329.904017 207.521731 
L 334.368034 206.491744 
L 336.6 206.116085 
L 338.831966 206.014227 
L 341.064017 206.369393 
L 343.295983 207.353404 
L 345.528034 209.023602 
L 347.76 209.001217 
L 349.991966 206.732306 
L 352.224017 204.93254 
L 354.455983 204.012598 
L 356.688034 204.02338 
L 358.92 204.719911 
L 365.615983 207.685589 
L 367.848034 208.362153 
L 370.08 208.840981 
L 374.544017 209.372575 
L 385.704017 209.978743 
L 387.935983 210.041338 
L 392.4 209.466441 
L 396.864017 208.614566 
L 401.328034 207.743479 
L 403.56 207.552038 
L 405.791966 207.73223 
L 408.024017 208.406255 
L 410.255983 209.542153 
L 412.488034 209.314066 
L 414.72 208.099658 
L 416.951966 207.289 
L 419.184017 206.950664 
L 421.415983 207.003403 
L 430.344017 208.003343 
L 434.808034 208.101484 
L 439.271966 207.889198 
L 443.735983 207.42588 
L 448.2 206.749774 
L 457.128034 205.240506 
L 459.36 205.167735 
L 461.8 205.590694 
L 461.8 205.590694 
" clip-path="url(#pee76efa80c)" style="fill: none; stroke: #0000cc; stroke-width: 1.5; stroke-linecap: square"/>
   </g>
   <g id="line2d_15">
    <path d="M 57.6 210.104471 
L 64.295983 210.049634 
L 84.384017 209.945803 
L 88.848034 209.977625 
L 100.008034 210.07658 
L 124.56 209.960864 
L 135.72 209.700498 
L 142.415983 209.303216 
L 146.88 208.816566 
L 151.344017 208.033456 
L 153.575983 207.475834 
L 155.808034 206.782141 
L 160.271966 205.019235 
L 162.504017 204.092722 
L 164.735983 203.475991 
L 166.968034 203.701394 
L 169.2 205.547239 
L 171.431966 209.709404 
L 173.664017 204.368437 
L 175.895983 198.456855 
L 178.128034 195.749169 
L 180.36 197.286604 
L 184.824017 205.212031 
L 187.055983 208.039562 
L 189.288034 209.668629 
L 191.52 209.874646 
L 193.751966 209.71317 
L 195.984017 209.818847 
L 198.215983 210.059097 
L 200.448034 209.853967 
L 211.608034 208.316747 
L 216.071966 207.94132 
L 218.304017 207.938238 
L 220.535983 208.155178 
L 222.768034 208.647011 
L 225 209.44162 
L 227.231966 209.694765 
L 231.695983 207.468122 
L 233.928034 206.805255 
L 236.16 206.555077 
L 238.391966 206.830952 
L 240.624017 207.419057 
L 245.088034 208.81918 
L 247.32 209.411316 
L 249.551966 209.881891 
L 251.784017 209.970213 
L 256.248034 209.467514 
L 269.64 208.170325 
L 274.104017 207.778541 
L 276.335983 207.722692 
L 278.568034 207.879931 
L 280.8 208.273298 
L 285.264017 210.010982 
L 289.728034 207.497819 
L 291.96 206.589692 
L 294.191966 206.23836 
L 296.424017 206.472232 
L 298.655983 207.076812 
L 303.12 208.635014 
L 305.351966 209.288033 
L 307.584017 209.796764 
L 309.815983 210.041319 
L 314.28 209.554768 
L 325.44 208.584947 
L 334.368034 207.630154 
L 336.6 207.579519 
L 338.831966 207.763496 
L 341.064017 208.284505 
L 343.295983 209.216176 
L 345.528034 209.69193 
L 347.76 208.203002 
L 349.991966 206.873424 
L 352.224017 206.039268 
L 354.455983 205.886288 
L 356.688034 206.336903 
L 365.615983 209.479067 
L 367.848034 209.937726 
L 370.08 209.96473 
L 374.544017 209.549572 
L 383.471966 208.918014 
L 390.168034 208.149358 
L 394.631966 207.57795 
L 396.864017 207.401204 
L 399.095983 207.413069 
L 401.328034 207.762376 
L 403.56 208.529017 
L 405.791966 209.867101 
L 408.024017 208.748406 
L 410.255983 207.015786 
L 412.488034 205.809316 
L 414.72 205.327577 
L 416.951966 205.725268 
L 419.184017 206.59677 
L 423.648034 208.605439 
L 425.88 209.344425 
L 428.111966 209.857882 
L 430.344017 210.021549 
L 434.808034 209.684246 
L 445.968034 209.121719 
L 450.431966 208.680283 
L 457.128034 207.720389 
L 459.36 207.388194 
L 461.8 207.193328 
L 461.8 207.193328 
" clip-path="url(#pee76efa80c)" style="fill: none; stroke-dasharray: 9.6,2.4,1.5,2.4; stroke-dashoffset: 0; stroke: #ff0000; stroke-width: 1.5"/>
   </g>
   <g id="patch_8">
    <path d="M 57.6 213.662118 
L 57.6 135.393882 
" style="fill: none; stroke: #000000; stroke-width: 0.8; stroke-linejoin: miter; stroke-linecap: square"/>
   </g>
   <g id="patch_9">
    <path d="M 414.72 213.662118 
L 414.72 135.393882 
" style="fill: none; stroke: #000000; stroke-width: 0.8; stroke-linejoin: miter; stroke-linecap: square"/>
   </g>
   <g id="patch_10">
    <path d="M 57.6 213.662118 
L 414.72 213.662118 
" style="fill: none; stroke: #000000; stroke-width: 0.8; stroke-linejoin: miter; stroke-linecap: square"/>
   </g>
   <g id="patch_11">
    <path d="M 57.6 135.393882 
L 414.72 135.393882 
" style="fill: none; stroke: #000000; stroke-width: 0.8; stroke-linejoin: miter; stroke-linecap: square"/>
   </g>
  </g>
  <g id="axes_3">
   <g id="patch_12">
    <path d="M 57.6 307.584 
L 414.72 307.584 
L 414.72 229.315765 
L 57.6 229.315765 
z
" style="fill: #ffffff"/>
   </g>
   <g id="matplotlib.axis_5">
    <g id="xtick_7">
     <g id="line2d_16">
      <g>
       <use xlink:href="#mdcb03b2d79" x="57.6" y="307.584" style="stroke: #000000; stroke-width: 0.8"/>
      </g>
     </g>
     <g id="text_6">
      <!-- 10 -->
      <g transform="translate(51.2375 322.182437)scale(0.1 -0.1)">
       <use xlink:href="#DejaVuSans-31"/>
       <use xlink:href="#DejaVuSans-30" x="63.623047"/>
      </g>
     </g>
    </g>
    <g id="xtick_8">
     <g id="line2d_17">
      <g>
       <use xlink:href="#mdcb03b2d79" x="236.16" y="307.584" style="stroke: #000000; stroke-width: 0.8"/>
      </g>
     </g>
     <g id="text_7">
      <!-- 12 -->
      <g transform="translate(229.7975 322.182437)scale(0.1 -0.1)">
       <use xlink:href="#DejaVuSans-31"/>
       <use xlink:href="#DejaVuSans-32" x="63.623047"/>
      </g>
     </g>
    </g>
    <g id="xtick_9">
     <g id="line2d_18">
      <g>
       <use xlink:href="#mdcb03b2d79" x="414.72" y="307.584" style="stroke: #000000; stroke-width: 0.8"/>
      </g>
     </g>
     <g id="text_8">
      <!-- 14 -->
      <g transform="translate(408.3575 322.182437)scale(0.1 -0.1)">
       <defs>
        <path id="DejaVuSans-34" d="M 2419 4116 
L 825 1625 
L 2419 1625 
L 2419 4116 
z
M 2253 4666 
L 3047 4666 
L 3047 1625 
L 3713 1625 
L 3713 1100 
L 3047 1100 
L 3047 0 
L 2419 0 
L 2419 1100 
L 313 1100 
L 313 1709 
L 2253 4666 
z
" transform="scale(0.015625)"/>
       </defs>
       <use xlink:href="#DejaVuSans-31"/>
       <use xlink:href="#DejaVuSans-34" x="63.623047"/>
      </g>
     </g>
    </g>
   </g>
   <g id="matplotlib.axis_6">
    <g id="ytick_6">
     <g id="line2d_19">
      <g>
       <use xlink:href="#mf972c6c093" x="57.6" y="304.027217" style="stroke: #000000; stroke-width: 0.8"/>
      </g>
     </g>
     <g id="text_9">
      <!-- 0 -->
      <g transform="translate(44.2375 307.826435)scale(0.1 -0.1)">
       <use xlink:href="#DejaVuSans-30"/>
      </g>
     </g>
    </g>
    <g id="ytick_7">
     <g id="line2d_20">
      <g>
       <use xlink:href="#mf972c6c093" x="57.6" y="270.9021" style="stroke: #000000; stroke-width: 0.8"/>
      </g>
     </g>
     <g id="text_10">
      <!-- 2 -->
      <g transform="translate(44.2375 274.701319)scale(0.1 -0.1)">
       <use xlink:href="#DejaVuSans-32"/>
      </g>
     </g>
    </g>
    <g id="ytick_8">
     <g id="line2d_21">
      <g>
       <use xlink:href="#mf972c6c093" x="57.6" y="237.776984" style="stroke: #000000; stroke-width: 0.8"/>
      </g>
     </g>
     <g id="text_11">
      <!-- 4 -->
      <g transform="translate(44.2375 241.576203)scale(0.1 -0.1)">
       <use xlink:href="#DejaVuSans-34"/>
      </g>
     </g>
    </g>
   </g>
   <g id="line2d_22">
    <path d="M 57.6 303.989615 
L 73.224017 303.865616 
L 79.92 303.836733 
L 88.848034 303.961557 
L 108.935983 303.992634 
L 115.631966 304.017007 
L 133.488034 303.997706 
L 142.415983 303.909514 
L 146.88 303.73017 
L 149.111966 303.547264 
L 151.344017 303.248005 
L 153.575983 302.758331 
L 155.808034 301.959637 
L 158.04 300.665136 
L 160.271966 298.5956 
L 162.504017 295.37012 
L 164.735983 290.575353 
L 166.968034 284.028398 
L 169.2 276.391127 
L 171.431966 270.053273 
L 173.664017 269.193857 
L 175.895983 277.310961 
L 178.128034 292.627363 
L 180.36 300.30379 
L 182.591966 290.822649 
L 184.824017 287.881628 
L 187.055983 288.75294 
L 189.288034 291.085511 
L 193.751966 295.015036 
L 195.984017 296.032864 
L 198.215983 297.272846 
L 200.448034 297.809438 
L 202.68 298.756615 
L 204.911966 299.27726 
L 207.144017 300.178854 
L 209.375983 300.934577 
L 213.84 303.154372 
L 216.071966 303.492108 
L 220.535983 300.085926 
L 222.768034 298.262398 
L 225 296.744773 
L 227.231966 295.772209 
L 229.464017 295.78385 
L 231.695983 296.83083 
L 233.928034 298.871229 
L 238.391966 303.978027 
L 240.624017 301.950974 
L 242.855983 300.326417 
L 245.088034 299.369826 
L 247.32 298.761255 
L 251.784017 298.512398 
L 258.48 299.172387 
L 260.711966 299.456405 
L 265.175983 300.364899 
L 269.64 301.719606 
L 271.871966 302.65031 
L 274.104017 303.799516 
L 276.335983 302.868277 
L 280.8 299.520017 
L 283.031966 297.872446 
L 285.264017 296.655359 
L 287.495983 296.219774 
L 289.728034 296.845214 
L 291.96 298.483302 
L 296.424017 303.249777 
L 298.655983 302.656963 
L 300.888034 301.070978 
L 303.12 300.040261 
L 305.351966 299.480804 
L 307.584017 299.220606 
L 312.048034 299.228741 
L 318.744017 299.766388 
L 323.208034 300.316416 
L 327.671966 301.117554 
L 329.904017 301.676001 
L 332.135983 302.390408 
L 334.368034 303.30312 
L 336.6 303.61064 
L 338.831966 302.244908 
L 343.295983 299.26358 
L 345.528034 298.147939 
L 347.76 297.734939 
L 349.991966 298.25943 
L 352.224017 299.660564 
L 356.688034 303.545868 
L 358.92 302.869333 
L 361.151966 301.707634 
L 363.384017 300.991236 
L 365.615983 300.607432 
L 367.848034 300.434561 
L 372.311966 300.402991 
L 383.471966 300.764714 
L 390.168034 301.095403 
L 394.631966 301.536839 
L 396.864017 301.918295 
L 399.095983 302.468212 
L 401.328034 303.226397 
L 403.56 303.863948 
L 408.024017 301.740119 
L 410.255983 301.034372 
L 412.488034 300.863645 
L 414.72 301.25183 
L 416.951966 302.015848 
L 421.415983 303.696415 
L 423.648034 303.747186 
L 425.88 303.320199 
L 430.344017 302.830434 
L 445.968034 301.813288 
L 450.431966 301.136729 
L 452.664017 300.620443 
L 454.895983 299.935599 
L 457.128034 299.043152 
L 459.36 297.917398 
L 461.8 296.438055 
L 461.8 296.438055 
" clip-path="url(#p6d0b9428bb)" style="fill: none; stroke: #0000cc; stroke-width: 1.5; stroke-linecap: square"/>
   </g>
   <g id="line2d_23">
    <path d="M 57.6 303.989615 
L 62.064017 303.907379 
L 84.384017 303.879076 
L 88.848034 304.015972 
L 100.008034 303.980605 
L 111.168034 304.005236 
L 144.648034 303.945768 
L 151.344017 303.722055 
L 153.575983 303.514832 
L 155.808034 303.189965 
L 158.04 302.658947 
L 160.271966 301.821714 
L 162.504017 300.515929 
L 164.735983 298.594181 
L 166.968034 295.992336 
L 169.2 293.039857 
L 171.431966 290.662891 
L 173.664017 290.600503 
L 175.895983 294.010869 
L 178.128034 300.010231 
L 180.36 302.394007 
L 182.591966 298.976434 
L 184.824017 297.921408 
L 187.055983 298.290602 
L 191.52 299.956079 
L 193.751966 300.583108 
L 198.215983 301.48852 
L 213.84 303.895758 
L 218.304017 302.593051 
L 222.768034 301.159842 
L 225 300.612527 
L 227.231966 300.357898 
L 229.464017 300.551761 
L 231.695983 301.152758 
L 236.16 303.312963 
L 238.391966 303.576723 
L 240.624017 302.711917 
L 242.855983 302.120611 
L 245.088034 301.785845 
L 247.32 301.640934 
L 251.784017 301.689105 
L 258.48 302.12883 
L 265.175983 302.850524 
L 269.64 303.590588 
L 271.871966 303.971378 
L 276.335983 302.683927 
L 283.031966 300.436504 
L 285.264017 300.060908 
L 287.495983 300.131361 
L 289.728034 300.71245 
L 291.96 301.757987 
L 294.191966 303.042001 
L 296.424017 303.760879 
L 298.655983 302.766845 
L 300.888034 302.084201 
L 303.12 301.708197 
L 305.351966 301.547627 
L 309.815983 301.601422 
L 316.511966 302.024171 
L 323.208034 302.657032 
L 327.671966 303.284453 
L 329.904017 303.706133 
L 332.135983 303.828665 
L 334.368034 303.193168 
L 338.831966 301.592132 
L 341.064017 300.73668 
L 343.295983 300.029561 
L 345.528034 299.677995 
L 347.76 299.877122 
L 349.991966 300.693736 
L 352.224017 301.986887 
L 354.455983 303.448583 
L 356.688034 303.298738 
L 358.92 302.340446 
L 361.151966 301.762342 
L 363.384017 301.492971 
L 365.615983 301.421435 
L 370.08 301.57652 
L 376.775983 302.017615 
L 383.471966 302.598649 
L 387.935983 303.150615 
L 392.4 303.991761 
L 394.631966 303.471871 
L 396.864017 302.735926 
L 401.328034 300.890796 
L 403.56 299.983996 
L 405.791966 299.345421 
L 408.024017 299.228238 
L 410.255983 299.835285 
L 412.488034 301.260173 
L 414.72 302.853458 
L 416.951966 303.576712 
L 419.184017 302.390514 
L 421.415983 301.679353 
L 423.648034 301.355848 
L 425.88 301.294593 
L 430.344017 301.490051 
L 445.968034 302.591724 
L 450.431966 303.025795 
L 457.128034 303.882649 
L 459.36 303.273837 
L 461.8 302.353906 
L 461.8 302.353906 
" clip-path="url(#p6d0b9428bb)" style="fill: none; stroke-dasharray: 9.6,2.4,1.5,2.4; stroke-dashoffset: 0; stroke: #ff0000; stroke-width: 1.5"/>
   </g>
   <g id="patch_13">
    <path d="M 57.6 307.584 
L 57.6 229.315765 
" style="fill: none; stroke: #000000; stroke-width: 0.8; stroke-linejoin: miter; stroke-linecap: square"/>
   </g>
   <g id="patch_14">
    <path d="M 414.72 307.584 
L 414.72 229.315765 
" style="fill: none; stroke: #000000; stroke-width: 0.8; stroke-linejoin: miter; stroke-linecap: square"/>
   </g>
   <g id="patch_15">
    <path d="M 57.6 307.584 
L 414.72 307.584 
" style="fill: none; stroke: #000000; stroke-width: 0.8; stroke-linejoin: miter; stroke-linecap: square"/>
   </g>
   <g id="patch_16">
    <path d="M 57.6 229.315765 
L 414.72 229.315765 
" style="fill: none; stroke: #000000; stroke-width: 0.8; stroke-linejoin: miter; stroke-linecap: square"/>
   </g>
  </g>
 </g>
 <defs>
  <clipPath id="p7ef6494682">
   <rect x="57.6" y="41.472" width="357.12" height="78.268235"/>
  </clipPath>
  <clipPath id="pee76efa80c">
   <rect x="57.6" y="135.393882" width="357.12" height="78.268235"/>
  </clipPath>
  <clipPath id="p6d0b9428bb">
   <rect x="57.6" y="229.315765" width="357.12" height="78.268235"/>
  </clipPath>
 </defs>
</svg>
