<?xml version="1.0" encoding="utf-8" standalone="no"?>
<!DOCTYPE svg PUBLIC "-//W3C//DTD SVG 1.1//EN"
  "http://www.w3.org/Graphics/SVG/1.1/DTD/svg11.dtd">
<svg xmlns:xlink="http://www.w3.org/1999/xlink" width="460.8pt" height="345.6pt" viewBox="0 0 460.8 345.6" xmlns="http://www.w3.org/2000/svg" version="1.1">
 <metadata>
  <rdf:RDF xmlns:dc="http://purl.org/dc/elements/1.1/" xmlns:cc="http://creativecommons.org/ns#" xmlns:rdf="http://www.w3.org/1999/02/22-rdf-syntax-ns#">
   <cc:Work>
    <dc:type rdf:resource="http://purl.org/dc/dcmitype/StillImage"/>
    <dc:date>2024-02-20T17:48:55.022524</dc:date>
    <dc:format>image/svg+xml</dc:format>
    <dc:creator>
     <cc:Agent>
      <dc:title>Matplotlib v3.5.2, https://matplotlib.org/</dc:title>
     </cc:Agent>
    </dc:creator>
   </cc:Work>
  </rdf:RDF>
 </metadata>
 <defs>
  <style type="text/css">*{stroke-linejoin: round; stroke-linecap: butt}</style>
 </defs>
 <g id="figure_1">
  <g id="patch_1">
   <path d="M 0 345.6 
L 460.8 345.6 
L 460.8 0 
L 0 0 
z
" style="fill: #ffffff"/>
  </g>
  <g id="patch_2">
   <path d="M 103.104 307.584 
L 369.216 307.584 
L 369.216 41.472 
L 103.104 41.472 
z
" style="fill: #ffffff"/>
  </g>
  <g id="pane3d_1">
   <g id="patch_3">
    <path d="M 123.197291 241.969309 
L 211.076164 168.307495 
L 209.854564 62.073991 
L 117.770234 129.272941 
" style="fill: #f2f2f2; opacity: 0.5; stroke: #f2f2f2; stroke-linejoin: miter"/>
   </g>
  </g>
  <g id="pane3d_2">
   <g id="patch_4">
    <path d="M 211.076164 168.307495 
L 352.090401 209.294766 
L 357.122702 99.402171 
L 209.854564 62.073991 
" style="fill: #e6e6e6; opacity: 0.5; stroke: #e6e6e6; stroke-linejoin: miter"/>
   </g>
  </g>
  <g id="pane3d_3">
   <g id="patch_5">
    <path d="M 123.197291 241.969309 
L 272.679269 290.790123 
L 352.090401 209.294766 
L 211.076164 168.307495 
" style="fill: #ececec; opacity: 0.5; stroke: #ececec; stroke-linejoin: miter"/>
   </g>
  </g>
  <g id="axis3d_1">
   <g id="line2d_1">
    <path d="M 123.197291 241.969309 
L 272.679269 290.790123 
" style="fill: none; stroke: #000000; stroke-width: 0.8; stroke-linecap: square"/>
   </g>
   <g id="Line3DCollection_1">
    <path d="M 142.191276 248.172744 
L 229.063363 173.535663 
L 228.604914 66.826658 
" style="fill: none; stroke: #b0b0b0; stroke-width: 0.8"/>
    <path d="M 160.601491 254.185521 
L 246.478453 178.597542 
L 246.768499 71.430597 
" style="fill: none; stroke: #b0b0b0; stroke-width: 0.8"/>
    <path d="M 179.257231 260.278485 
L 264.106466 183.72131 
L 265.163801 76.09327 
" style="fill: none; stroke: #b0b0b0; stroke-width: 0.8"/>
    <path d="M 198.16344 266.453253 
L 281.951331 188.908108 
L 283.795283 80.815808 
" style="fill: none; stroke: #b0b0b0; stroke-width: 0.8"/>
    <path d="M 217.325197 272.711483 
L 300.017074 194.159106 
L 302.667522 85.59937 
" style="fill: none; stroke: #b0b0b0; stroke-width: 0.8"/>
    <path d="M 236.747717 279.054878 
L 318.307822 199.475504 
L 321.785217 90.445149 
" style="fill: none; stroke: #b0b0b0; stroke-width: 0.8"/>
    <path d="M 256.436361 285.485189 
L 336.827804 204.858532 
L 341.153186 95.354364 
" style="fill: none; stroke: #b0b0b0; stroke-width: 0.8"/>
   </g>
   <g id="xtick_1">
    <g id="line2d_2">
     <path d="M 142.947974 247.522619 
L 140.674622 249.475794 
" style="fill: none; stroke: #000000; stroke-width: 0.8; stroke-linecap: square"/>
    </g>
    <g id="text_1">
     <!-- −15 -->
     <g transform="translate(124.119841 271.550609)scale(0.1 -0.1)">
      <defs>
       <path id="DejaVuSans-2212" d="M 678 2272 
L 4684 2272 
L 4684 1741 
L 678 1741 
L 678 2272 
z
" transform="scale(0.015625)"/>
       <path id="DejaVuSans-31" d="M 794 531 
L 1825 531 
L 1825 4091 
L 703 3866 
L 703 4441 
L 1819 4666 
L 2450 4666 
L 2450 531 
L 3481 531 
L 3481 0 
L 794 0 
L 794 531 
z
" transform="scale(0.015625)"/>
       <path id="DejaVuSans-35" d="M 691 4666 
L 3169 4666 
L 3169 4134 
L 1269 4134 
L 1269 2991 
Q 1406 3038 1543 3061 
Q 1681 3084 1819 3084 
Q 2600 3084 3056 2656 
Q 3513 2228 3513 1497 
Q 3513 744 3044 326 
Q 2575 -91 1722 -91 
Q 1428 -91 1123 -41 
Q 819 9 494 109 
L 494 744 
Q 775 591 1075 516 
Q 1375 441 1709 441 
Q 2250 441 2565 725 
Q 2881 1009 2881 1497 
Q 2881 1984 2565 2268 
Q 2250 2553 1709 2553 
Q 1456 2553 1204 2497 
Q 953 2441 691 2322 
L 691 4666 
z
" transform="scale(0.015625)"/>
      </defs>
      <use xlink:href="#DejaVuSans-2212"/>
      <use xlink:href="#DejaVuSans-31" x="83.789062"/>
      <use xlink:href="#DejaVuSans-35" x="147.412109"/>
     </g>
    </g>
   </g>
   <g id="xtick_2">
    <g id="line2d_3">
     <path d="M 161.349925 253.526757 
L 159.101379 255.505903 
" style="fill: none; stroke: #000000; stroke-width: 0.8; stroke-linecap: square"/>
    </g>
    <g id="text_2">
     <!-- −10 -->
     <g transform="translate(142.549202 277.690881)scale(0.1 -0.1)">
      <defs>
       <path id="DejaVuSans-30" d="M 2034 4250 
Q 1547 4250 1301 3770 
Q 1056 3291 1056 2328 
Q 1056 1369 1301 889 
Q 1547 409 2034 409 
Q 2525 409 2770 889 
Q 3016 1369 3016 2328 
Q 3016 3291 2770 3770 
Q 2525 4250 2034 4250 
z
M 2034 4750 
Q 2819 4750 3233 4129 
Q 3647 3509 3647 2328 
Q 3647 1150 3233 529 
Q 2819 -91 2034 -91 
Q 1250 -91 836 529 
Q 422 1150 422 2328 
Q 422 3509 836 4129 
Q 1250 4750 2034 4750 
z
" transform="scale(0.015625)"/>
      </defs>
      <use xlink:href="#DejaVuSans-2212"/>
      <use xlink:href="#DejaVuSans-31" x="83.789062"/>
      <use xlink:href="#DejaVuSans-30" x="147.412109"/>
     </g>
    </g>
   </g>
   <g id="xtick_3">
    <g id="line2d_4">
     <path d="M 179.997112 259.61091 
L 177.77424 261.616548 
" style="fill: none; stroke: #000000; stroke-width: 0.8; stroke-linecap: square"/>
    </g>
    <g id="text_3">
     <!-- −5 -->
     <g transform="translate(164.406521 283.913352)scale(0.1 -0.1)">
      <use xlink:href="#DejaVuSans-2212"/>
      <use xlink:href="#DejaVuSans-35" x="83.789062"/>
     </g>
    </g>
   </g>
   <g id="xtick_4">
    <g id="line2d_5">
     <path d="M 198.894471 265.776689 
L 196.698166 267.809354 
" style="fill: none; stroke: #000000; stroke-width: 0.8; stroke-linecap: square"/>
    </g>
    <g id="text_4">
     <!-- 0 -->
     <g transform="translate(187.524131 290.219682)scale(0.1 -0.1)">
      <use xlink:href="#DejaVuSans-30"/>
     </g>
    </g>
   </g>
   <g id="xtick_5">
    <g id="line2d_6">
     <path d="M 218.04707 272.025746 
L 215.878257 274.085989 
" style="fill: none; stroke: #000000; stroke-width: 0.8; stroke-linecap: square"/>
    </g>
    <g id="text_5">
     <!-- 5 -->
     <g transform="translate(206.708717 296.611579)scale(0.1 -0.1)">
      <use xlink:href="#DejaVuSans-35"/>
     </g>
    </g>
   </g>
   <g id="xtick_6">
    <g id="line2d_7">
     <path d="M 237.460115 278.359781 
L 235.319749 280.448167 
" style="fill: none; stroke: #000000; stroke-width: 0.8; stroke-linecap: square"/>
    </g>
    <g id="text_6">
     <!-- 10 -->
     <g transform="translate(222.974134 303.090797)scale(0.1 -0.1)">
      <use xlink:href="#DejaVuSans-31"/>
      <use xlink:href="#DejaVuSans-30" x="63.623047"/>
     </g>
    </g>
   </g>
   <g id="xtick_7">
    <g id="line2d_8">
     <path d="M 257.138955 284.780539 
L 255.028022 286.897649 
" style="fill: none; stroke: #000000; stroke-width: 0.8; stroke-linecap: square"/>
    </g>
    <g id="text_7">
     <!-- 15 -->
     <g transform="translate(242.688291 309.659136)scale(0.1 -0.1)">
      <use xlink:href="#DejaVuSans-31"/>
      <use xlink:href="#DejaVuSans-35" x="63.623047"/>
     </g>
    </g>
   </g>
  </g>
  <g id="axis3d_2">
   <g id="line2d_9">
    <path d="M 352.090401 209.294766 
L 272.679269 290.790123 
" style="fill: none; stroke: #000000; stroke-width: 0.8; stroke-linecap: square"/>
   </g>
   <g id="Line3DCollection_2">
    <path d="M 131.12246 119.529094 
L 135.898413 231.322977 
L 284.199966 278.967053 
" style="fill: none; stroke: #b0b0b0; stroke-width: 0.8"/>
    <path d="M 149.729966 105.950184 
L 153.62186 216.466832 
L 300.251631 262.494096 
" style="fill: none; stroke: #b0b0b0; stroke-width: 0.8"/>
    <path d="M 167.699951 92.836508 
L 170.763895 202.098038 
L 315.749537 246.589432 
" style="fill: none; stroke: #b0b0b0; stroke-width: 0.8"/>
    <path d="M 185.064625 80.164559 
L 187.352666 188.193002 
L 330.721853 231.224152 
" style="fill: none; stroke: #b0b0b0; stroke-width: 0.8"/>
    <path d="M 201.854066 67.91239 
L 203.414532 174.729627 
L 345.194871 216.371276 
" style="fill: none; stroke: #b0b0b0; stroke-width: 0.8"/>
   </g>
   <g id="xtick_8">
    <g id="line2d_10">
     <path d="M 282.950639 278.565688 
L 286.70183 279.770814 
" style="fill: none; stroke: #000000; stroke-width: 0.8; stroke-linecap: square"/>
    </g>
    <g id="text_8">
     <!-- −20 -->
     <g transform="translate(286.447472 299.897181)scale(0.1 -0.1)">
      <defs>
       <path id="DejaVuSans-32" d="M 1228 531 
L 3431 531 
L 3431 0 
L 469 0 
L 469 531 
Q 828 903 1448 1529 
Q 2069 2156 2228 2338 
Q 2531 2678 2651 2914 
Q 2772 3150 2772 3378 
Q 2772 3750 2511 3984 
Q 2250 4219 1831 4219 
Q 1534 4219 1204 4116 
Q 875 4013 500 3803 
L 500 4441 
Q 881 4594 1212 4672 
Q 1544 4750 1819 4750 
Q 2544 4750 2975 4387 
Q 3406 4025 3406 3419 
Q 3406 3131 3298 2873 
Q 3191 2616 2906 2266 
Q 2828 2175 2409 1742 
Q 1991 1309 1228 531 
z
" transform="scale(0.015625)"/>
      </defs>
      <use xlink:href="#DejaVuSans-2212"/>
      <use xlink:href="#DejaVuSans-32" x="83.789062"/>
      <use xlink:href="#DejaVuSans-30" x="147.412109"/>
     </g>
    </g>
   </g>
   <g id="xtick_9">
    <g id="line2d_11">
     <path d="M 299.017479 262.106694 
L 302.723051 263.269878 
" style="fill: none; stroke: #000000; stroke-width: 0.8; stroke-linecap: square"/>
    </g>
    <g id="text_9">
     <!-- −10 -->
     <g transform="translate(302.283723 283.180462)scale(0.1 -0.1)">
      <use xlink:href="#DejaVuSans-2212"/>
      <use xlink:href="#DejaVuSans-31" x="83.789062"/>
      <use xlink:href="#DejaVuSans-30" x="147.412109"/>
     </g>
    </g>
   </g>
   <g id="xtick_10">
    <g id="line2d_12">
     <path d="M 314.530265 246.215277 
L 318.191106 247.33867 
" style="fill: none; stroke: #000000; stroke-width: 0.8; stroke-linecap: square"/>
    </g>
    <g id="text_10">
     <!-- 0 -->
     <g transform="translate(324.944426 267.040776)scale(0.1 -0.1)">
      <use xlink:href="#DejaVuSans-30"/>
     </g>
    </g>
   </g>
   <g id="xtick_11">
    <g id="line2d_13">
     <path d="M 329.51717 230.862576 
L 333.134157 231.948187 
" style="fill: none; stroke: #000000; stroke-width: 0.8; stroke-linecap: square"/>
    </g>
    <g id="text_11">
     <!-- 10 -->
     <g transform="translate(336.533967 251.448755)scale(0.1 -0.1)">
      <use xlink:href="#DejaVuSans-31"/>
      <use xlink:href="#DejaVuSans-30" x="63.623047"/>
     </g>
    </g>
   </g>
   <g id="xtick_12">
    <g id="line2d_14">
     <path d="M 344.00449 216.021654 
L 347.578487 217.071357 
" style="fill: none; stroke: #000000; stroke-width: 0.8; stroke-linecap: square"/>
    </g>
    <g id="text_12">
     <!-- 20 -->
     <g transform="translate(350.811907 236.376986)scale(0.1 -0.1)">
      <use xlink:href="#DejaVuSans-32"/>
      <use xlink:href="#DejaVuSans-30" x="63.623047"/>
     </g>
    </g>
   </g>
  </g>
  <g id="axis3d_3">
   <g id="line2d_15">
    <path d="M 352.090401 209.294766 
L 357.122702 99.402171 
" style="fill: none; stroke: #000000; stroke-width: 0.8; stroke-linecap: square"/>
   </g>
   <g id="Line3DCollection_3">
    <path d="M 352.628436 197.54545 
L 210.945309 156.927964 
L 122.617923 229.938356 
" style="fill: none; stroke: #b0b0b0; stroke-width: 0.8"/>
    <path d="M 353.252949 183.907674 
L 210.793495 143.725853 
L 121.945172 215.968237 
" style="fill: none; stroke: #b0b0b0; stroke-width: 0.8"/>
    <path d="M 353.884412 170.118144 
L 210.640073 130.383872 
L 121.264648 201.836725 
" style="fill: none; stroke: #b0b0b0; stroke-width: 0.8"/>
    <path d="M 354.52294 156.174314 
L 210.485017 116.899787 
L 120.576217 187.541005 
" style="fill: none; stroke: #b0b0b0; stroke-width: 0.8"/>
    <path d="M 355.168654 142.073579 
L 210.3283 103.271315 
L 119.87974 173.0782 
" style="fill: none; stroke: #b0b0b0; stroke-width: 0.8"/>
    <path d="M 355.821675 127.813277 
L 210.169897 89.496124 
L 119.175074 158.445361 
" style="fill: none; stroke: #b0b0b0; stroke-width: 0.8"/>
    <path d="M 356.482127 113.390682 
L 210.009778 75.571833 
L 118.462075 143.639474 
" style="fill: none; stroke: #b0b0b0; stroke-width: 0.8"/>
   </g>
   <g id="xtick_13">
    <g id="line2d_16">
     <path d="M 351.439058 197.204481 
L 355.010034 198.228203 
" style="fill: none; stroke: #000000; stroke-width: 0.8; stroke-linecap: square"/>
    </g>
    <g id="text_13">
     <!-- 10 -->
     <g transform="translate(364.600094 202.561846)scale(0.1 -0.1)">
      <use xlink:href="#DejaVuSans-31"/>
      <use xlink:href="#DejaVuSans-30" x="63.623047"/>
     </g>
    </g>
   </g>
   <g id="xtick_14">
    <g id="line2d_17">
     <path d="M 352.056743 183.570274 
L 355.648236 184.583283 
" style="fill: none; stroke: #000000; stroke-width: 0.8; stroke-linecap: square"/>
    </g>
    <g id="text_14">
     <!-- 15 -->
     <g transform="translate(365.32385 188.951138)scale(0.1 -0.1)">
      <use xlink:href="#DejaVuSans-31"/>
      <use xlink:href="#DejaVuSans-35" x="63.623047"/>
     </g>
    </g>
   </g>
   <g id="xtick_15">
    <g id="line2d_18">
     <path d="M 352.681299 169.784415 
L 356.293544 170.786408 
" style="fill: none; stroke: #000000; stroke-width: 0.8; stroke-linecap: square"/>
    </g>
    <g id="text_15">
     <!-- 20 -->
     <g transform="translate(366.055635 175.189438)scale(0.1 -0.1)">
      <use xlink:href="#DejaVuSans-32"/>
      <use xlink:href="#DejaVuSans-30" x="63.623047"/>
     </g>
    </g>
   </g>
   <g id="xtick_16">
    <g id="line2d_19">
     <path d="M 353.312841 155.844358 
L 356.94608 156.835026 
" style="fill: none; stroke: #000000; stroke-width: 0.8; stroke-linecap: square"/>
    </g>
    <g id="text_16">
     <!-- 25 -->
     <g transform="translate(366.795583 161.274222)scale(0.1 -0.1)">
      <use xlink:href="#DejaVuSans-32"/>
      <use xlink:href="#DejaVuSans-35" x="63.623047"/>
     </g>
    </g>
   </g>
   <g id="xtick_17">
    <g id="line2d_20">
     <path d="M 353.951486 141.747504 
L 357.605964 142.726527 
" style="fill: none; stroke: #000000; stroke-width: 0.8; stroke-linecap: square"/>
    </g>
    <g id="text_17">
     <!-- 30 -->
     <g transform="translate(367.543832 147.202905)scale(0.1 -0.1)">
      <defs>
       <path id="DejaVuSans-33" d="M 2597 2516 
Q 3050 2419 3304 2112 
Q 3559 1806 3559 1356 
Q 3559 666 3084 287 
Q 2609 -91 1734 -91 
Q 1441 -91 1130 -33 
Q 819 25 488 141 
L 488 750 
Q 750 597 1062 519 
Q 1375 441 1716 441 
Q 2309 441 2620 675 
Q 2931 909 2931 1356 
Q 2931 1769 2642 2001 
Q 2353 2234 1838 2234 
L 1294 2234 
L 1294 2753 
L 1863 2753 
Q 2328 2753 2575 2939 
Q 2822 3125 2822 3475 
Q 2822 3834 2567 4026 
Q 2313 4219 1838 4219 
Q 1578 4219 1281 4162 
Q 984 4106 628 3988 
L 628 4550 
Q 988 4650 1302 4700 
Q 1616 4750 1894 4750 
Q 2613 4750 3031 4423 
Q 3450 4097 3450 3541 
Q 3450 3153 3228 2886 
Q 3006 2619 2597 2516 
z
" transform="scale(0.015625)"/>
      </defs>
      <use xlink:href="#DejaVuSans-33"/>
      <use xlink:href="#DejaVuSans-30" x="63.623047"/>
     </g>
    </g>
   </g>
   <g id="xtick_18">
    <g id="line2d_21">
     <path d="M 354.597356 127.491191 
L 358.273321 128.458241 
" style="fill: none; stroke: #000000; stroke-width: 0.8; stroke-linecap: square"/>
    </g>
    <g id="text_18">
     <!-- 35 -->
     <g transform="translate(368.300522 132.972847)scale(0.1 -0.1)">
      <use xlink:href="#DejaVuSans-33"/>
      <use xlink:href="#DejaVuSans-35" x="63.623047"/>
     </g>
    </g>
   </g>
   <g id="xtick_19">
    <g id="line2d_22">
     <path d="M 355.250572 113.072698 
L 358.94828 114.027438 
" style="fill: none; stroke: #000000; stroke-width: 0.8; stroke-linecap: square"/>
    </g>
    <g id="text_19">
     <!-- 40 -->
     <g transform="translate(369.065797 118.581345)scale(0.1 -0.1)">
      <defs>
       <path id="DejaVuSans-34" d="M 2419 4116 
L 825 1625 
L 2419 1625 
L 2419 4116 
z
M 2253 4666 
L 3047 4666 
L 3047 1625 
L 3713 1625 
L 3713 1100 
L 3047 1100 
L 3047 0 
L 2419 0 
L 2419 1100 
L 313 1100 
L 313 1709 
L 2253 4666 
z
" transform="scale(0.015625)"/>
      </defs>
      <use xlink:href="#DejaVuSans-34"/>
      <use xlink:href="#DejaVuSans-30" x="63.623047"/>
     </g>
    </g>
   </g>
  </g>
  <g id="axes_1">
   <g id="line2d_23">
    <path d="M 225.831112 200.72961 
L 222.803271 203.308555 
L 219.03106 205.525958 
L 214.387864 207.266752 
L 208.747062 208.336098 
L 202.015521 208.426191 
L 194.195912 207.082938 
L 185.489931 203.696241 
L 176.441727 197.567097 
L 168.076571 188.135625 
L 161.904638 175.427809 
L 159.594672 160.587618 
L 162.261434 146.020468 
L 169.748595 134.635456 
L 180.566578 128.453458 
L 192.633506 127.721381 
L 204.175238 131.224765 
L 214.154138 137.255911 
L 222.206719 144.367985 
L 228.392524 151.627013 
L 232.96978 158.543654 
L 236.25496 164.91617 
L 238.550491 170.698776 
L 240.114054 175.918911 
L 241.150359 180.632505 
L 241.814023 184.90208 
L 242.217111 188.786951 
L 242.437807 192.339477 
L 242.522052 198.618584 
L 242.283013 204.015836 
L 241.756171 208.728799 
L 241.36243 210.877594 
L 240.8559 212.910956 
L 240.207143 214.845287 
L 239.376667 216.696664 
L 238.312304 218.480758 
L 236.945626 220.21217 
L 235.187284 221.90273 
L 232.921116 223.557924 
L 229.997116 225.169954 
L 226.223841 226.704819 
L 221.362192 228.078962 
L 215.125533 229.118431 
L 207.197568 229.490613 
L 197.292077 228.599113 
L 185.299191 225.448134 
L 171.582458 218.544145 
L 157.458726 206.056947 
L 145.673352 186.675576 
L 140.173683 161.423739 
L 144.275001 135.253706 
L 157.939683 115.493943 
L 177.279653 106.906698 
L 197.356771 108.741627 
L 214.947986 116.859419 
L 228.966191 127.230666 
L 239.584152 137.438144 
L 247.437234 146.473365 
L 253.227076 154.105753 
L 263.908256 169.764176 
L 266.600479 173.067187 
L 269.316491 175.569561 
L 272.232527 177.301515 
L 275.476482 178.255833 
L 279.131909 178.394332 
L 283.233935 177.657689 
L 287.756432 175.981838 
L 292.591227 173.324955 
L 297.523423 169.708114 
L 302.212826 165.267767 
L 306.199053 160.306915 
L 308.952165 155.315628 
L 309.981528 150.921943 
L 308.984888 147.752758 
L 305.977391 146.241959 
L 301.324035 146.48485 
L 295.642663 148.232811 
L 289.62516 151.029648 
L 283.869786 154.394964 
L 278.790621 157.95226 
L 274.609699 161.466505 
L 271.398855 164.818064 
L 269.135472 167.955751 
L 267.750911 170.856567 
L 267.1646 173.500565 
L 267.304509 175.858562 
L 268.117294 177.88745 
L 269.571301 179.52879 
L 271.654606 180.708255 
L 274.369023 181.335212 
L 277.719928 181.303167 
L 281.700793 180.493131 
L 286.270905 178.783481 
L 291.325279 176.071355 
L 296.658481 172.31102 
L 301.930186 167.571386 
L 306.650222 162.103896 
L 310.210773 156.391519 
L 311.991599 151.128146 
L 311.534818 147.082614 
L 308.728605 144.862894 
L 303.895358 144.692994 
L 297.711756 146.349699 
L 290.995464 149.304691 
L 284.479421 152.964601 
L 278.678071 156.856611 
L 273.866325 160.691437 
L 270.129667 164.333121 
L 267.435046 167.736471 
L 265.692454 170.893005 
L 264.797613 173.798024 
L 264.657172 176.435498 
L 265.201175 178.773222 
L 266.387283 180.762117 
L 268.199877 182.336132 
L 270.64561 183.411373 
L 273.745667 183.884593 
L 277.523738 183.632442 
L 281.987734 182.514316 
L 287.102693 180.383572 
L 292.753077 177.114109 
L 298.696312 172.650161 
L 304.518161 167.082761 
L 309.615139 160.740171 
L 313.243604 154.248495 
L 314.670596 148.487597 
L 313.413026 144.382342 
L 309.465007 142.574075 
L 303.363239 143.158934 
L 296.018515 145.688237 
L 288.409042 149.429901 
L 281.317748 153.687718 
L 275.222131 157.985958 
L 270.319925 162.085545 
L 266.616349 165.90938 
L 264.013324 169.45754 
L 262.375444 172.749322 
L 261.570356 175.794713 
L 261.489769 178.585027 
L 262.058098 181.092368 
L 263.23405 183.271294 
L 265.008411 185.059489 
L 267.39957 186.376431 
L 270.446928 187.120276 
L 274.201048 187.164095 
L 278.708179 186.353835 
L 283.985594 184.512386 
L 289.983675 181.457272 
L 296.532344 177.043042 
L 303.276449 171.240067 
L 309.620767 164.251108 
L 314.730072 156.634187 
L 317.64734 149.344979 
L 317.564226 143.578015 
L 314.169034 140.367254 
L 307.865695 140.129753 
L 299.671639 142.492176 
L 290.832636 146.554017 
L 282.413423 151.359093 
L 275.086214 156.227789 
L 269.136562 160.824168 
L 264.579013 165.05733 
L 261.282833 168.953751 
L 259.064322 172.568776 
L 257.741613 175.944435 
L 257.161914 179.097412 
L 257.21201 182.020718 
L 257.819874 184.688817 
L 258.952262 187.061466 
L 260.610906 189.084664 
L 262.828416 190.68856 
L 265.663819 191.782708 
L 269.196671 192.249306 
L 273.517423 191.935683 
L 278.710238 190.648757 
L 284.822583 188.15732 
L 291.814608 184.213325 
L 299.483136 178.610274 
L 307.365543 171.299825 
L 314.655938 162.57177 
L 320.210554 153.24358 
L 322.750407 144.702294 
L 321.306262 138.58919 
L 315.735612 136.112043 
L 306.929924 137.406298 
L 296.469417 141.519335 
L 285.96064 147.045703 
L 276.536784 152.827276 
L 268.739921 158.24259 
L 262.661749 163.115239 
L 258.142889 167.499834 
L 254.925692 171.51624 
L 252.743502 175.267726 
L 251.363129 178.817509 
L 250.59989 182.192553 
L 250.318734 185.395115 
L 250.429436 188.413204 
L 250.880171 191.227328 
L 251.651628 193.813515 
L 252.752608 196.143368 
L 254.217361 198.181863 
L 256.10455 199.883212 
L 258.497429 201.184788 
L 261.504464 201.998765 
L 265.258981 202.201069 
L 269.915203 201.617597 
L 275.635894 200.009159 
L 282.56327 197.060506 
L 290.760291 192.387227 
L 300.106185 185.589337 
L 310.137099 176.398844 
L 319.859178 164.968359 
L 327.64981 152.269001 
L 331.477895 140.341073 
L 329.644071 131.890868 
L 321.809668 128.987234 
L 309.47068 131.701081 
L 295.245544 138.125794 
L 281.559441 145.810166 
L 269.842423 153.079537 
L 260.542007 159.314832 
L 253.505995 164.562789 
L 248.331886 169.101236 
L 244.570048 173.198606 
L 241.813728 177.036994 
L 239.7272 180.714611 
L 238.045373 184.271926 
L 235.114778 191.042904 
L 233.57033 194.237257 
L 231.811432 197.285598 
L 229.725862 200.170403 
L 227.197512 202.86651 
L 224.09975 205.332846 
L 220.291915 207.499398 
L 215.621098 209.24758 
L 209.933679 210.381899 
L 203.104708 210.592284 
L 195.097803 209.412622 
L 186.070684 206.197352 
L 176.531693 200.17066 
L 167.509226 190.64433 
L 160.599922 177.492577 
L 157.664064 161.782142 
L 160.049523 146.044646 
L 167.725604 133.525785 
L 179.122373 126.588463 
L 191.942278 125.598801 
L 204.212524 129.226092 
L 214.793825 135.563924 
L 223.305156 143.011182 
L 229.830666 150.55582 
L 234.665288 157.685112 
L 238.160848 164.200321 
L 240.649876 170.066938 
L 242.41496 175.323617 
L 243.681919 180.034631 
L 245.373419 188.083006 
L 246.6624 194.655627 
L 247.34035 197.482389 
L 248.116272 200.032074 
L 249.044279 202.314136 
L 250.182855 204.32755 
L 251.599772 206.059311 
L 253.376943 207.481541 
L 255.615361 208.546656 
L 258.439996 209.179862 
L 262.0039 209.268044 
L 266.489661 208.644172 
L 272.104102 207.067155 
L 279.058141 204.200035 
L 287.517244 199.597255 
L 297.499856 192.728879 
L 308.698235 183.099108 
L 320.220208 170.545127 
L 330.344162 155.764272 
L 336.567462 140.871455 
L 336.356223 129.304161 
L 328.601983 124.311091 
L 314.716846 126.687706 
L 298.008428 134.16136 
L 281.767682 143.312893 
L 267.933516 151.75179 
L 257.062514 158.654879 
L 248.906874 164.164171 
L 242.919076 168.719163 
L 238.519484 172.71316 
L 235.20003 176.399654 
L 232.548707 179.907427 
L 228.028264 186.518981 
L 225.706153 189.589309 
L 223.110086 192.445229 
L 220.096375 195.02218 
L 216.536192 197.231467 
L 212.315403 198.947619 
L 207.3443 199.991356 
L 201.581426 200.111143 
L 195.076554 198.970984 
L 188.035491 196.161433 
L 180.898753 191.263625 
L 174.401164 184.002466 
L 169.542988 174.497379 
L 167.388868 163.524072 
L 168.686116 152.568503 
L 173.475607 143.457668 
L 180.988201 137.657813 
L 189.949207 135.706732 
L 199.072247 137.180677 
L 207.415146 141.111788 
L 214.472249 146.468822 
L 220.08898 152.437768 
L 224.326647 158.487816 
L 227.349008 164.322378 
L 229.347937 169.801987 
L 230.501799 174.879461 
L 230.955598 179.556085 
L 230.813908 183.854962 
L 230.140519 187.805466 
L 228.961006 191.433881 
L 227.266124 194.756867 
L 225.015154 197.775368 
L 222.139318 200.467043 
L 218.546384 202.775438 
L 214.128876 204.594108 
L 208.780227 205.744421 
L 202.42576 205.947851 
L 195.078072 204.799554 
L 186.926074 201.763526 
L 178.455841 196.232799 
L 170.565864 187.720993 
L 164.57326 176.229772 
L 161.956447 162.691648 
L 163.778254 149.126302 
L 170.062655 138.08871 
L 179.650816 131.536613 
L 190.738393 129.974469 
L 201.652365 132.545564 
L 211.310095 137.788472 
L 219.246364 144.342788 
L 225.423574 151.258549 
L 230.028096 157.994077 
L 233.329052 164.295888 
L 235.599097 170.079248 
L 237.076883 175.345811 
L 237.953529 180.135785 
L 238.371645 184.502831 
L 238.430051 188.501882 
L 238.190286 192.183733 
L 237.682778 195.593016 
L 236.911668 198.767725 
L 235.857874 201.739201 
L 234.480366 204.531863 
L 232.715779 207.162017 
L 230.476615 209.634946 
L 227.648541 211.939118 
L 224.087743 214.035718 
L 219.620369 215.840791 
L 214.048244 217.196174 
L 207.169106 217.825028 
L 198.826385 217.270548 
L 189.012376 214.829181 
L 178.052089 209.525171 
L 166.867555 200.244165 
L 157.212863 186.217779 
L 151.559909 167.948758 
L 152.230792 148.090623 
L 159.953463 131.046421 
L 173.088174 120.723669 
L 188.54358 118.268942 
L 203.495463 122.042283 
L 216.334192 129.346321 
L 226.573503 137.925052 
L 234.376368 146.42995 
L 240.168555 154.245955 
L 244.428025 161.183032 
L 247.593366 167.248277 
L 253.861886 181.033144 
L 255.672587 184.409779 
L 257.631318 187.250214 
L 259.873279 189.55841 
L 262.524716 191.308118 
L 265.709946 192.438909 
L 269.55374 192.850766 
L 274.176887 192.398176 
L 279.681072 190.886683 
L 286.117194 188.078745 
L 293.429904 183.72204 
L 301.373922 177.620953 
L 309.411296 169.773584 
L 316.631849 160.573241 
L 321.789121 150.998608 
L 323.567395 142.601048 
L 321.095781 137.074572 
L 314.466283 135.477407 
L 304.831293 137.65212 
L 293.91607 142.399499 
L 283.310032 148.245233 
L 274.031701 154.108462 
L 266.497243 159.484736 
L 260.70631 164.284285 
L 256.446924 168.604462 
L 253.437637 172.57764 
L 251.404854 176.305531 
L 250.116697 179.846035 
L 249.392802 183.221773 
L 249.10253 186.433062 
L 249.15867 189.468416 
L 249.510307 192.31094 
L 250.136651 194.941112 
L 251.042532 197.3369 
L 252.255751 199.471948 
L 253.826165 201.312209 
L 255.826237 202.811025 
L 258.352578 203.902299 
L 261.527668 204.491175 
L 265.500181 204.441606 
L 270.440908 203.560689 
L 276.528628 201.5815 
L 283.916001 198.151009 
L 292.659927 192.840263 
L 302.597321 185.212781 
L 313.157511 175.009296 
L 323.151791 162.501081 
L 330.695186 148.949524 
L 333.547248 136.812937 
L 330.061862 129.082391 
L 320.324828 127.636793 
L 306.410432 131.910121 
L 291.278916 139.413915 
L 277.321788 147.553575 
L 265.734035 154.846442 
L 256.730517 160.91947 
L 250.007564 165.975176 
L 245.084961 170.353622 
L 241.480598 174.332561 
L 238.777821 178.083303 
L 236.640035 181.6897 
L 231.24259 191.78934 
L 229.210016 194.868408 
L 226.831927 197.758096 
L 223.980855 200.415391 
L 220.525693 202.775521 
L 216.330697 204.736767 
L 211.262581 206.138805 
L 205.211181 206.734393 
L 198.132281 206.158127 
L 190.123059 203.906236 
L 181.535468 199.361819 
L 173.108085 191.927846 
L 166.038805 181.336618 
L 161.846732 168.113831 
L 161.889805 153.927499 
L 166.667308 141.334376 
L 175.412501 132.748343 
L 186.407628 129.30212 
L 197.788912 130.549701 
L 208.194678 135.095016 
L 216.938571 141.428317 
L 223.858261 148.40588 
L 229.09055 155.336292 
L 232.898903 161.87558 
L 235.571561 167.892889 
L 237.370876 173.370031 
L 238.513067 178.340911 
L 239.16426 182.859163 
L 239.444335 186.982261 
L 239.433695 190.764388 
L 239.180281 194.253732 
L 238.705505 197.491924 
L 238.008528 200.514381 
L 237.068749 203.350835 
L 235.846577 206.025548 
L 234.282609 208.556733 
L 232.295404 210.954596 
L 229.778136 213.217062 
L 226.594723 215.321731 
L 222.576724 217.211664 
L 217.523915 218.771401 
L 211.214574 219.788355 
L 203.437421 219.894935 
L 194.066431 218.49297 
L 183.209894 214.68509 
L 171.460443 207.296194 
L 160.208549 195.16686 
L 151.79299 177.941401 
L 149.013875 157.232449 
L 153.724605 137.112028 
L 165.353721 122.519794 
L 181.013451 116.2871 
L 197.284847 117.776536 
L 211.823627 124.242684 
L 223.677833 132.88261 
L 232.824347 141.836075 
L 239.661088 150.183161 
L 244.703125 157.598467 
L 248.44485 164.046824 
L 253.644804 174.370838 
L 255.721488 178.437167 
L 257.757537 181.868721 
L 259.929148 184.702241 
L 262.385815 186.94323 
L 265.26122 188.563681 
L 268.679705 189.498995 
L 272.756751 189.644403 
L 277.590941 188.852703 
L 283.243508 186.937644 
L 289.700379 183.691445 
L 296.812662 178.930256 
L 304.218529 172.58447 
L 311.268483 164.841488 
L 317.009123 156.309484 
L 320.310392 148.094926 
L 320.193853 141.626341 
L 316.277265 138.149995 
L 309.060154 138.134377 
L 299.784094 141.05592 
L 289.926852 145.772442 
L 280.693322 151.143042 
L 272.787322 156.420379 
L 266.456751 161.287009 
L 261.653802 165.702319 
L 258.187227 169.74 
L 255.824432 173.48825 
L 254.346987 177.009057 
L 253.575242 180.331414 
L 253.375598 183.457842 
L 253.659378 186.373011 
L 254.378469 189.049936 
L 255.520491 191.452666 
L 257.104753 193.535705 
L 259.179333 195.240615 
L 261.818933 196.490132 
L 265.122491 197.179921 
L 269.208605 197.168286 
L 274.20534 196.26502 
L 280.228701 194.223021 
L 287.34113 190.74147 
L 295.479097 185.498508 
L 304.34212 178.243155 
L 313.254717 168.980004 
L 321.062403 158.245306 
L 326.198835 147.355267 
L 327.089055 138.329357 
L 322.874063 133.194615 
L 314.032139 132.895472 
L 302.295886 136.721369 
L 289.824744 142.877097 
L 278.320018 149.609347 
L 268.670507 155.885988 
L 261.086092 161.386367 
L 255.387397 166.186402 
L 251.239481 170.482774 
L 248.285945 174.45208 
L 246.209746 178.20958 
L 244.752818 181.814636 
L 243.715779 185.289465 
L 242.949389 188.636632 
L 240.145939 203.318572 
L 239.40546 205.85159 
L 238.496394 208.267542 
L 237.363038 210.577722 
L 235.937196 212.792988 
L 234.133366 214.921355 
L 231.843311 216.963919 
L 228.930131 218.907778 
L 225.222468 220.713661 
L 220.510799 222.29464 
L 214.550431 223.480427 
L 207.081193 223.960311 
L 197.883568 223.199786 
L 186.905324 220.340956 
L 174.502836 214.145839 
L 161.808919 203.151754 
L 151.075984 186.340918 
L 145.500594 164.482523 
L 147.904147 141.343358 
L 158.680735 122.7782 
L 175.096603 113.217797 
L 193.079653 112.959231 
L 209.523005 119.08891 
L 223.0456 128.149556 
L 233.504848 137.736533 
L 241.328181 146.650726 
L 247.103746 154.475046 
L 247.103746 154.475046 
" clip-path="url(#p6b4d467d6a)" style="fill: none; stroke: #0000cc; stroke-linecap: square"/>
   </g>
   <g id="line2d_24">
    <path d="M 225.825934 200.837886 
L 222.726367 203.374896 
L 219.137068 205.449824 
L 214.357088 207.187476 
L 208.685149 208.295952 
L 201.989076 208.345327 
L 194.27392 207.071152 
L 185.461258 203.66627 
L 176.378295 197.55273 
L 168.145325 188.23329 
L 161.761367 175.45039 
L 159.427616 160.6149 
L 162.225947 146.049732 
L 169.803995 134.693774 
L 180.709876 128.324835 
L 192.627489 127.761643 
L 204.070626 131.223014 
L 214.122836 137.285757 
L 222.187478 144.508977 
L 228.373031 151.607525 
L 232.872599 158.542909 
L 236.201473 164.940339 
L 238.608105 170.687403 
L 240.11829 175.950535 
L 241.167061 180.586187 
L 241.792284 184.905299 
L 242.226219 188.786613 
L 242.462835 192.402154 
L 242.549207 198.622048 
L 242.397406 201.404385 
L 242.415447 204.011367 
L 241.978674 206.449178 
L 241.75994 208.703624 
L 240.92348 212.884961 
L 240.23983 214.920982 
L 238.31683 218.528565 
L 236.99036 220.183538 
L 235.103939 221.886332 
L 232.963184 223.556589 
L 229.995961 225.23439 
L 226.166296 226.629238 
L 221.180313 228.134943 
L 214.997332 229.099275 
L 207.218827 229.485398 
L 197.384677 228.548216 
L 185.287269 225.386511 
L 171.584909 218.627259 
L 157.577536 206.132053 
L 145.635028 186.579052 
L 140.27317 161.421738 
L 144.414043 135.300096 
L 157.87638 115.396171 
L 177.240763 106.934486 
L 197.247069 108.814351 
L 214.929631 116.792029 
L 228.957205 127.257371 
L 239.631842 137.448851 
L 247.339193 146.448219 
L 253.211347 154.07401 
L 257.55005 160.300734 
L 263.856381 169.84473 
L 266.65218 172.925533 
L 269.230732 175.472206 
L 272.26978 177.316126 
L 275.499599 178.220121 
L 279.011794 178.249002 
L 283.318162 177.646684 
L 287.771423 175.951673 
L 292.629845 173.273311 
L 297.561748 169.706034 
L 302.176257 165.31862 
L 306.21169 160.366785 
L 309.032509 155.282285 
L 310.074451 150.903757 
L 309.006025 147.742861 
L 305.873998 146.30643 
L 301.323162 146.475848 
L 295.669372 148.316226 
L 289.674209 151.03081 
L 283.807185 154.334324 
L 278.791217 157.978765 
L 274.546771 161.369997 
L 271.466196 164.854474 
L 269.175349 168.008451 
L 267.762799 170.893788 
L 267.206614 173.485837 
L 267.253071 175.777373 
L 268.079188 177.852232 
L 269.595038 179.544355 
L 271.64942 180.79662 
L 274.356946 181.339171 
L 277.790966 181.280622 
L 281.782775 180.514954 
L 286.247189 178.799822 
L 291.44353 176.086276 
L 296.68186 172.43031 
L 301.89494 167.524454 
L 306.513003 162.144366 
L 310.227697 156.400878 
L 311.920875 151.08307 
L 311.50558 147.150343 
L 308.722638 144.909805 
L 303.881234 144.709074 
L 297.646229 146.420521 
L 290.875628 149.220541 
L 284.415062 153.004323 
L 278.611914 156.817654 
L 273.774477 160.65776 
L 270.110547 164.348213 
L 267.445257 167.694383 
L 265.604277 170.880121 
L 264.88771 173.870014 
L 264.489149 176.383607 
L 265.319329 178.72447 
L 266.35819 180.768643 
L 268.215792 182.378869 
L 270.69563 183.368742 
L 273.708051 183.839451 
L 277.562963 183.674798 
L 282.038524 182.550995 
L 287.130289 180.288352 
L 292.571275 177.066135 
L 298.712458 172.636544 
L 304.494418 167.114116 
L 309.75239 160.807044 
L 313.208898 154.23802 
L 314.686743 148.539016 
L 313.445007 144.347619 
L 309.389255 142.614602 
L 303.374443 143.167999 
L 296.024218 145.623564 
L 288.365732 149.438261 
L 281.230623 153.739113 
L 275.169667 157.939787 
L 270.246263 162.111547 
L 266.599732 165.843347 
L 264.056696 169.454536 
L 262.338486 172.764404 
L 261.519472 175.921423 
L 261.406007 178.57509 
L 262.026578 181.062607 
L 263.236774 183.250183 
L 264.995392 185.040326 
L 267.498964 186.47027 
L 270.495126 187.069646 
L 274.209724 187.256305 
L 278.698028 186.333556 
L 283.96997 184.473661 
L 290.013003 181.490969 
L 296.502073 176.999758 
L 303.269675 171.219804 
L 309.657701 164.261564 
L 314.70106 156.68018 
L 317.699376 149.324255 
L 317.553106 143.627071 
L 314.199694 140.337371 
L 307.832781 140.235069 
L 299.681682 142.493661 
L 290.805362 146.533141 
L 282.327234 151.442372 
L 274.925298 156.265069 
L 269.159169 160.692459 
L 264.462673 165.087709 
L 261.312275 168.856738 
L 259.181784 172.622214 
L 257.711315 175.911932 
L 257.219896 179.020876 
L 257.18272 182.027907 
L 257.805881 184.717997 
L 258.927452 187.008179 
L 260.654224 189.052186 
L 262.807927 190.715287 
L 265.686516 191.796149 
L 269.296576 192.178406 
L 273.548785 191.898358 
L 278.717578 190.606317 
L 284.870345 188.118524 
L 291.732743 184.25917 
L 299.487023 178.628113 
L 307.334787 171.310706 
L 314.874909 162.505108 
L 320.259612 153.217154 
L 322.752551 144.712696 
L 321.370345 138.637341 
L 315.80242 136.079395 
L 306.848615 137.407019 
L 296.463642 141.410143 
L 285.993844 146.959202 
L 276.692518 152.794628 
L 268.656046 158.200804 
L 262.666303 163.118095 
L 258.084914 167.645544 
L 254.881308 171.468837 
L 252.6848 175.250691 
L 251.353218 178.791612 
L 250.602244 182.252787 
L 250.375124 185.452743 
L 250.427021 188.461975 
L 250.859041 191.273693 
L 251.656084 193.834527 
L 252.788931 196.197144 
L 254.298874 198.185466 
L 256.0935 199.876646 
L 258.461712 201.216189 
L 261.567765 202.121673 
L 265.205751 202.102844 
L 269.957024 201.599915 
L 275.500042 200.092778 
L 282.564446 197.082442 
L 290.810869 192.447069 
L 300.191745 185.50966 
L 310.219246 176.32101 
L 319.899734 164.962441 
L 327.628939 152.336306 
L 331.540305 140.362066 
L 329.709889 131.914716 
L 321.883816 128.909959 
L 309.549202 131.783277 
L 295.321466 138.191359 
L 281.509652 145.765148 
L 269.835369 153.07227 
L 260.533459 159.306683 
L 253.547923 164.59191 
L 248.325261 169.158543 
L 244.503531 173.181768 
L 241.842833 177.049142 
L 239.666155 180.676149 
L 233.594121 194.314739 
L 229.76414 200.315683 
L 227.036968 202.968206 
L 223.970988 205.212079 
L 220.295506 207.526626 
L 215.571672 209.261003 
L 210.011304 210.465064 
L 203.079343 210.464728 
L 195.089952 209.220702 
L 186.126387 206.2472 
L 176.571909 200.240574 
L 167.599024 190.573007 
L 160.577295 177.515316 
L 157.778829 161.791926 
L 160.050553 146.074713 
L 167.714909 133.594283 
L 179.298558 126.626077 
L 191.942169 125.657814 
L 204.200272 129.228302 
L 214.742792 135.681618 
L 223.250896 143.033639 
L 229.86631 150.540639 
L 234.708141 157.682591 
L 238.205346 164.264827 
L 240.497015 169.936142 
L 242.396625 175.308885 
L 243.511221 179.945431 
L 244.735293 184.295458 
L 246.64498 194.582398 
L 248.14797 200.017554 
L 250.101464 204.424111 
L 251.672666 206.085943 
L 253.460229 207.47346 
L 255.61372 208.616668 
L 258.355924 209.292167 
L 261.988231 209.352527 
L 266.417537 208.617502 
L 272.075026 207.018937 
L 278.938144 204.217702 
L 287.563763 199.655632 
L 297.566535 192.747003 
L 308.668727 183.091986 
L 320.13804 170.544539 
L 330.43582 155.8096 
L 336.430673 140.779882 
L 336.359994 129.428228 
L 328.624662 124.283558 
L 314.689576 126.704308 
L 298.14394 134.24529 
L 281.813322 143.233669 
L 267.940516 151.814271 
L 257.048113 158.767457 
L 248.920267 164.124697 
L 242.974346 168.748724 
L 238.645194 172.709397 
L 235.141009 176.416039 
L 230.223598 183.250361 
L 225.639615 189.569873 
L 223.154557 192.531404 
L 220.141174 195.008387 
L 216.543203 197.289699 
L 212.361872 199.003788 
L 207.374959 200.004409 
L 201.533776 200.080435 
L 195.164919 198.863073 
L 187.96201 196.140833 
L 181.049884 191.238223 
L 174.335469 184.02831 
L 169.512255 174.534891 
L 167.406498 163.5014 
L 168.726058 152.649281 
L 173.484812 143.508191 
L 180.995328 137.624231 
L 189.991204 135.654511 
L 199.083333 137.187377 
L 207.542874 141.224602 
L 214.531427 146.526266 
L 220.145755 152.40692 
L 224.294067 158.443536 
L 227.356819 164.305323 
L 229.432768 169.840658 
L 230.573542 174.911734 
L 230.898153 179.442117 
L 230.830953 183.857355 
L 230.218322 187.792449 
L 229.020979 191.509373 
L 227.326712 194.754453 
L 225.140053 197.758789 
L 222.115587 200.412673 
L 218.512172 202.754318 
L 214.10306 204.582208 
L 208.862344 205.716819 
L 202.433811 206.040407 
L 195.121918 204.768413 
L 186.849193 201.792541 
L 178.466678 196.19341 
L 170.561791 187.779852 
L 164.53611 176.18302 
L 161.879076 162.628033 
L 163.787085 149.02601 
L 170.020366 138.088055 
L 179.561522 131.600188 
L 190.670602 130.012305 
L 201.828951 132.546428 
L 211.203631 137.829733 
L 219.260437 144.308247 
L 225.496712 151.2426 
L 229.909893 158.068555 
L 233.244049 164.240828 
L 235.511464 170.040985 
L 236.961954 175.372711 
L 238.058963 180.096332 
L 238.509512 184.499833 
L 238.459079 188.538938 
L 238.260189 192.21505 
L 237.707996 195.676007 
L 235.840983 201.740081 
L 234.447871 204.600183 
L 232.756143 207.16213 
L 230.406457 209.575334 
L 227.614416 211.957587 
L 224.185685 214.032353 
L 219.662446 215.870141 
L 213.96615 217.221032 
L 207.245685 217.893518 
L 198.820622 217.297156 
L 188.9403 214.906932 
L 178.148494 209.571813 
L 166.864799 200.137809 
L 157.265673 186.169604 
L 151.542226 168.00121 
L 152.119823 148.008131 
L 159.953636 131.017285 
L 173.120212 120.775135 
L 188.617781 118.088317 
L 203.483054 122.028553 
L 216.335248 129.422613 
L 226.400978 138.006549 
L 234.467985 146.458728 
L 240.203291 154.232246 
L 244.526166 161.228588 
L 247.624017 167.282493 
L 252.092568 177.141656 
L 253.738818 181.068597 
L 255.645004 184.363608 
L 257.716537 187.251299 
L 259.772499 189.598539 
L 262.586313 191.330321 
L 265.716694 192.41868 
L 269.616078 192.977141 
L 274.199804 192.484768 
L 279.759403 190.887932 
L 286.148783 188.120305 
L 293.409313 183.701596 
L 301.579931 177.643027 
L 309.48486 169.773867 
L 316.592076 160.535692 
L 321.840898 151.0741 
L 323.634872 142.594059 
L 321.054237 137.154848 
L 314.434447 135.468611 
L 304.76395 137.707209 
L 293.967379 142.481182 
L 283.291343 148.24816 
L 274.068038 154.147009 
L 266.548757 159.556029 
L 260.757165 164.206798 
L 256.390989 168.61812 
L 253.415819 172.624603 
L 251.47381 176.34916 
L 250.273664 179.829849 
L 249.42444 183.228251 
L 249.232987 186.313228 
L 249.281903 189.480791 
L 249.452878 192.391116 
L 250.124953 194.982002 
L 252.297593 199.511265 
L 253.764575 201.390321 
L 255.717662 202.847825 
L 258.265379 203.925738 
L 261.661803 204.501591 
L 265.652999 204.489584 
L 270.413922 203.576248 
L 276.577193 201.607355 
L 283.918947 198.17526 
L 292.534126 192.788489 
L 302.600127 185.277683 
L 313.198611 174.907519 
L 323.22191 162.551126 
L 330.6282 149.037285 
L 333.568096 136.817538 
L 330.0736 129.090062 
L 320.378723 127.524195 
L 306.372367 131.887122 
L 291.374874 139.421118 
L 277.347401 147.616594 
L 265.692419 154.840087 
L 256.727876 160.875889 
L 250.005643 165.95144 
L 245.107103 170.318496 
L 241.406317 174.197926 
L 238.797766 178.024243 
L 236.61403 181.60191 
L 234.726518 185.185696 
L 233.151218 188.57531 
L 231.216645 191.755596 
L 229.222376 194.815412 
L 226.855086 197.729125 
L 223.94997 200.441194 
L 220.555667 202.823422 
L 216.272931 204.807294 
L 211.223131 206.14003 
L 205.225141 206.82908 
L 198.011246 206.270457 
L 190.193946 203.854547 
L 181.572635 199.37731 
L 173.058623 191.86574 
L 166.03177 181.289113 
L 161.880198 168.055126 
L 161.981405 153.947212 
L 166.693412 141.393462 
L 175.47539 132.664819 
L 186.511344 129.334235 
L 197.72485 130.523306 
L 208.150058 135.07311 
L 216.864538 141.462447 
L 223.801371 148.372376 
L 229.000621 155.323832 
L 232.93722 161.912696 
L 235.606616 167.933074 
L 237.415614 173.384851 
L 238.526329 178.370955 
L 239.614095 186.961642 
L 239.438563 190.755628 
L 239.151006 194.177312 
L 238.652211 197.451001 
L 237.967618 200.535156 
L 237.083725 203.470732 
L 235.901093 206.034226 
L 234.248441 208.568671 
L 232.271746 210.903797 
L 229.673767 213.220809 
L 226.609925 215.28777 
L 222.578534 217.286867 
L 217.512237 218.820808 
L 211.333237 219.822591 
L 203.493208 219.883161 
L 194.20655 218.590599 
L 183.129807 214.738216 
L 171.494214 207.285404 
L 160.293458 195.093862 
L 151.767099 177.89779 
L 149.056543 157.198771 
L 153.767868 137.141722 
L 165.33164 122.470625 
L 181.006155 116.261074 
L 197.234963 117.823582 
L 211.806777 124.128977 
L 223.559246 132.896481 
L 232.749318 141.850764 
L 239.589904 150.194245 
L 244.717756 157.617855 
L 248.450828 164.047628 
L 251.263476 169.603082 
L 253.524933 174.367698 
L 255.659442 178.430255 
L 257.746636 181.822682 
L 260.121794 184.711407 
L 262.439542 187.027969 
L 265.267869 188.560767 
L 268.60877 189.554164 
L 272.797389 189.648493 
L 277.582861 188.935805 
L 283.37188 186.960544 
L 289.549526 183.668248 
L 296.703203 178.876029 
L 304.196237 172.518402 
L 311.274744 164.857289 
L 316.881158 156.25987 
L 320.325843 148.127692 
L 320.072332 141.612532 
L 316.2603 138.207581 
L 309.107287 138.194925 
L 299.791012 141.117972 
L 289.994551 145.726036 
L 280.63144 151.234425 
L 272.802689 156.38593 
L 266.440409 161.266902 
L 261.700416 165.80939 
L 257.961266 169.692778 
L 255.894696 173.516526 
L 254.272185 176.948694 
L 253.575395 180.363388 
L 253.319136 183.474028 
L 253.584124 186.330564 
L 254.417097 189.040227 
L 255.520595 191.476066 
L 257.059116 193.524365 
L 259.191857 195.310259 
L 261.910784 196.508511 
L 265.168633 197.247307 
L 269.230333 197.165521 
L 274.15128 196.183173 
L 280.243886 194.195482 
L 287.31398 190.731195 
L 295.390715 185.602347 
L 304.344908 178.227326 
L 313.244659 169.0208 
L 321.158415 158.278694 
L 326.260631 147.246845 
L 327.020215 138.393393 
L 322.843796 133.173448 
L 313.993535 132.792856 
L 302.303075 136.71507 
L 289.83667 142.829831 
L 278.36486 149.562272 
L 268.6739 155.929348 
L 261.09773 161.388478 
L 255.400215 166.203898 
L 251.115685 170.392981 
L 248.224925 174.367637 
L 246.162802 178.296111 
L 244.809496 181.828621 
L 243.654006 185.226002 
L 240.181963 203.302138 
L 239.482482 205.918958 
L 238.520058 208.23058 
L 237.355196 210.583299 
L 235.896846 212.801203 
L 234.053618 214.951322 
L 231.803152 217.010083 
L 228.963591 218.955934 
L 225.26712 220.713027 
L 220.50113 222.319837 
L 214.620747 223.434302 
L 207.058036 223.97896 
L 197.988325 223.242431 
L 186.951534 220.384792 
L 174.535198 214.142095 
L 161.816855 203.174456 
L 151.023652 186.284236 
L 145.543589 164.468748 
L 147.967657 141.339691 
L 158.876061 122.741254 
L 175.129163 113.235272 
L 193.027886 112.992793 
L 209.556241 119.066623 
L 223.000822 128.217003 
L 233.400142 137.67263 
L 241.4453 146.666154 
L 246.975321 154.450706 
L 246.975321 154.450706 
" clip-path="url(#p6b4d467d6a)" style="fill: none; stroke-dasharray: 3.7,1.6; stroke-dashoffset: 0; stroke: #ff0000"/>
   </g>
  </g>
 </g>
 <defs>
  <clipPath id="p6b4d467d6a">
   <rect x="103.104" y="41.472" width="266.112" height="266.112"/>
  </clipPath>
 </defs>
</svg>
