<?xml version="1.0" encoding="utf-8" standalone="no"?>
<!DOCTYPE svg PUBLIC "-//W3C//DTD SVG 1.1//EN"
  "http://www.w3.org/Graphics/SVG/1.1/DTD/svg11.dtd">
<svg xmlns:xlink="http://www.w3.org/1999/xlink" width="460.8pt" height="345.6pt" viewBox="0 0 460.8 345.6" xmlns="http://www.w3.org/2000/svg" version="1.1">
 <metadata>
  <rdf:RDF xmlns:dc="http://purl.org/dc/elements/1.1/" xmlns:cc="http://creativecommons.org/ns#" xmlns:rdf="http://www.w3.org/1999/02/22-rdf-syntax-ns#">
   <cc:Work>
    <dc:type rdf:resource="http://purl.org/dc/dcmitype/StillImage"/>
    <dc:date>2023-11-20T16:46:30.272633</dc:date>
    <dc:format>image/svg+xml</dc:format>
    <dc:creator>
     <cc:Agent>
      <dc:title>Matplotlib v3.7.3, https://matplotlib.org/</dc:title>
     </cc:Agent>
    </dc:creator>
   </cc:Work>
  </rdf:RDF>
 </metadata>
 <defs>
  <style type="text/css">*{stroke-linejoin: round; stroke-linecap: butt}</style>
 </defs>
 <g id="figure_1">
  <g id="patch_1">
   <path d="M 0 345.6 
L 460.8 345.6 
L 460.8 0 
L 0 0 
z
" style="fill: #ffffff"/>
  </g>
  <g id="patch_2">
   <path d="M 103.104 307.584 
L 369.216 307.584 
L 369.216 41.472 
L 103.104 41.472 
z
" style="fill: #ffffff"/>
  </g>
  <g id="pane3d_1">
   <g id="patch_3">
    <path d="M 123.197291 241.969309 
L 211.076164 168.307495 
L 209.854564 62.073991 
L 117.770234 129.272941 
" style="fill: #f2f2f2; opacity: 0.5; stroke: #f2f2f2; stroke-linejoin: miter"/>
   </g>
  </g>
  <g id="pane3d_2">
   <g id="patch_4">
    <path d="M 211.076164 168.307495 
L 352.090401 209.294766 
L 357.122702 99.402171 
L 209.854564 62.073991 
" style="fill: #e6e6e6; opacity: 0.5; stroke: #e6e6e6; stroke-linejoin: miter"/>
   </g>
  </g>
  <g id="pane3d_3">
   <g id="patch_5">
    <path d="M 123.197291 241.969309 
L 272.679269 290.790123 
L 352.090401 209.294766 
L 211.076164 168.307495 
" style="fill: #ececec; opacity: 0.5; stroke: #ececec; stroke-linejoin: miter"/>
   </g>
  </g>
  <g id="axis3d_1">
   <g id="line2d_1">
    <path d="M 123.197291 241.969309 
L 272.679269 290.790123 
" style="fill: none; stroke: #000000; stroke-width: 0.8; stroke-linecap: square"/>
   </g>
   <g id="Line3DCollection_1">
    <path d="M 142.16708 248.164842 
L 229.040462 173.529007 
L 228.581035 66.820606 
" style="fill: none; stroke: #b0b0b0; stroke-width: 0.8"/>
    <path d="M 160.580856 254.178781 
L 246.458944 178.591872 
L 246.748146 71.425439 
" style="fill: none; stroke: #b0b0b0; stroke-width: 0.8"/>
    <path d="M 179.240254 260.272941 
L 264.090434 183.71665 
L 265.147066 76.089028 
" style="fill: none; stroke: #b0b0b0; stroke-width: 0.8"/>
    <path d="M 198.150222 266.448936 
L 281.938862 188.904484 
L 283.782261 80.812507 
" style="fill: none; stroke: #b0b0b0; stroke-width: 0.8"/>
    <path d="M 217.315842 272.708427 
L 300.008259 194.156544 
L 302.658311 85.597036 
" style="fill: none; stroke: #b0b0b0; stroke-width: 0.8"/>
    <path d="M 236.742331 279.053119 
L 318.302753 199.474031 
L 321.779917 90.443805 
" style="fill: none; stroke: #b0b0b0; stroke-width: 0.8"/>
    <path d="M 256.435055 285.484762 
L 336.826576 204.858175 
L 341.151901 95.354038 
" style="fill: none; stroke: #b0b0b0; stroke-width: 0.8"/>
   </g>
   <g id="xtick_1">
    <g id="line2d_2">
     <path d="M 142.923789 247.514728 
L 140.650404 249.467869 
" style="fill: none; stroke: #000000; stroke-width: 0.8; stroke-linecap: square"/>
    </g>
    <g id="text_1">
     <!-- −15 -->
     <g transform="translate(124.095621 271.542539) scale(0.1 -0.1)">
      <defs>
       <path id="DejaVuSans-2212" d="M 678 2272 
L 4684 2272 
L 4684 1741 
L 678 1741 
L 678 2272 
z
" transform="scale(0.015625)"/>
       <path id="DejaVuSans-31" d="M 794 531 
L 1825 531 
L 1825 4091 
L 703 3866 
L 703 4441 
L 1819 4666 
L 2450 4666 
L 2450 531 
L 3481 531 
L 3481 0 
L 794 0 
L 794 531 
z
" transform="scale(0.015625)"/>
       <path id="DejaVuSans-35" d="M 691 4666 
L 3169 4666 
L 3169 4134 
L 1269 4134 
L 1269 2991 
Q 1406 3038 1543 3061 
Q 1681 3084 1819 3084 
Q 2600 3084 3056 2656 
Q 3513 2228 3513 1497 
Q 3513 744 3044 326 
Q 2575 -91 1722 -91 
Q 1428 -91 1123 -41 
Q 819 9 494 109 
L 494 744 
Q 775 591 1075 516 
Q 1375 441 1709 441 
Q 2250 441 2565 725 
Q 2881 1009 2881 1497 
Q 2881 1984 2565 2268 
Q 2250 2553 1709 2553 
Q 1456 2553 1204 2497 
Q 953 2441 691 2322 
L 691 4666 
z
" transform="scale(0.015625)"/>
      </defs>
      <use xlink:href="#DejaVuSans-2212"/>
      <use xlink:href="#DejaVuSans-31" x="83.789062"/>
      <use xlink:href="#DejaVuSans-35" x="147.412109"/>
     </g>
    </g>
   </g>
   <g id="xtick_2">
    <g id="line2d_3">
     <path d="M 161.329299 253.520028 
L 159.080726 255.499144 
" style="fill: none; stroke: #000000; stroke-width: 0.8; stroke-linecap: square"/>
    </g>
    <g id="text_2">
     <!-- −10 -->
     <g transform="translate(142.528545 277.683999) scale(0.1 -0.1)">
      <defs>
       <path id="DejaVuSans-30" d="M 2034 4250 
Q 1547 4250 1301 3770 
Q 1056 3291 1056 2328 
Q 1056 1369 1301 889 
Q 1547 409 2034 409 
Q 2525 409 2770 889 
Q 3016 1369 3016 2328 
Q 3016 3291 2770 3770 
Q 2525 4250 2034 4250 
z
M 2034 4750 
Q 2819 4750 3233 4129 
Q 3647 3509 3647 2328 
Q 3647 1150 3233 529 
Q 2819 -91 2034 -91 
Q 1250 -91 836 529 
Q 422 1150 422 2328 
Q 422 3509 836 4129 
Q 1250 4750 2034 4750 
z
" transform="scale(0.015625)"/>
      </defs>
      <use xlink:href="#DejaVuSans-2212"/>
      <use xlink:href="#DejaVuSans-31" x="83.789062"/>
      <use xlink:href="#DejaVuSans-30" x="147.412109"/>
     </g>
    </g>
   </g>
   <g id="xtick_3">
    <g id="line2d_4">
     <path d="M 179.980143 259.605374 
L 177.757247 261.610988 
" style="fill: none; stroke: #000000; stroke-width: 0.8; stroke-linecap: square"/>
    </g>
    <g id="text_3">
     <!-- −5 -->
     <g transform="translate(164.389526 283.907689) scale(0.1 -0.1)">
      <use xlink:href="#DejaVuSans-2212"/>
      <use xlink:href="#DejaVuSans-35" x="83.789062"/>
     </g>
    </g>
   </g>
   <g id="xtick_4">
    <g id="line2d_5">
     <path d="M 198.88126 265.772378 
L 196.684936 267.805025 
" style="fill: none; stroke: #000000; stroke-width: 0.8; stroke-linecap: square"/>
    </g>
    <g id="text_4">
     <!-- 0 -->
     <g transform="translate(187.510899 290.215273) scale(0.1 -0.1)">
      <use xlink:href="#DejaVuSans-30"/>
     </g>
    </g>
   </g>
   <g id="xtick_5">
    <g id="line2d_6">
     <path d="M 218.037719 272.022695 
L 215.868893 274.082925 
" style="fill: none; stroke: #000000; stroke-width: 0.8; stroke-linecap: square"/>
    </g>
    <g id="text_5">
     <!-- 5 -->
     <g transform="translate(206.699351 296.608459) scale(0.1 -0.1)">
      <use xlink:href="#DejaVuSans-35"/>
     </g>
    </g>
   </g>
   <g id="xtick_6">
    <g id="line2d_7">
     <path d="M 237.454732 278.358025 
L 235.314358 280.446403 
" style="fill: none; stroke: #000000; stroke-width: 0.8; stroke-linecap: square"/>
    </g>
    <g id="text_6">
     <!-- 10 -->
     <g transform="translate(222.968742 303.089) scale(0.1 -0.1)">
      <use xlink:href="#DejaVuSans-31"/>
      <use xlink:href="#DejaVuSans-30" x="63.623047"/>
     </g>
    </g>
   </g>
   <g id="xtick_7">
    <g id="line2d_8">
     <path d="M 257.13765 284.780113 
L 255.026714 286.897221 
" style="fill: none; stroke: #000000; stroke-width: 0.8; stroke-linecap: square"/>
    </g>
    <g id="text_7">
     <!-- 15 -->
     <g transform="translate(242.686983 309.6587) scale(0.1 -0.1)">
      <use xlink:href="#DejaVuSans-31"/>
      <use xlink:href="#DejaVuSans-35" x="63.623047"/>
     </g>
    </g>
   </g>
  </g>
  <g id="axis3d_2">
   <g id="line2d_9">
    <path d="M 352.090401 209.294766 
L 272.679269 290.790123 
" style="fill: none; stroke: #000000; stroke-width: 0.8; stroke-linecap: square"/>
   </g>
   <g id="Line3DCollection_2">
    <path d="M 131.098839 119.546332 
L 135.875931 231.341822 
L 284.179587 278.987967 
" style="fill: none; stroke: #b0b0b0; stroke-width: 0.8"/>
    <path d="M 149.717522 105.959265 
L 153.609998 216.476775 
L 300.240897 262.505112 
" style="fill: none; stroke: #b0b0b0; stroke-width: 0.8"/>
    <path d="M 167.697937 92.837977 
L 170.761973 202.09965 
L 315.7478 246.591214 
" style="fill: none; stroke: #b0b0b0; stroke-width: 0.8"/>
    <path d="M 185.072352 80.15892 
L 187.360053 188.18681 
L 330.728515 231.217316 
" style="fill: none; stroke: #b0b0b0; stroke-width: 0.8"/>
    <path d="M 201.870896 67.900108 
L 203.430643 174.716122 
L 345.209377 216.356389 
" style="fill: none; stroke: #b0b0b0; stroke-width: 0.8"/>
   </g>
   <g id="xtick_8">
    <g id="line2d_10">
     <path d="M 282.93024 278.586585 
L 286.681489 279.791764 
" style="fill: none; stroke: #000000; stroke-width: 0.8; stroke-linecap: square"/>
    </g>
    <g id="text_8">
     <!-- −20 -->
     <g transform="translate(286.427366 299.918405) scale(0.1 -0.1)">
      <defs>
       <path id="DejaVuSans-32" d="M 1228 531 
L 3431 531 
L 3431 0 
L 469 0 
L 469 531 
Q 828 903 1448 1529 
Q 2069 2156 2228 2338 
Q 2531 2678 2651 2914 
Q 2772 3150 2772 3378 
Q 2772 3750 2511 3984 
Q 2250 4219 1831 4219 
Q 1534 4219 1204 4116 
Q 875 4013 500 3803 
L 500 4441 
Q 881 4594 1212 4672 
Q 1544 4750 1819 4750 
Q 2544 4750 2975 4387 
Q 3406 4025 3406 3419 
Q 3406 3131 3298 2873 
Q 3191 2616 2906 2266 
Q 2828 2175 2409 1742 
Q 1991 1309 1228 531 
z
" transform="scale(0.015625)"/>
      </defs>
      <use xlink:href="#DejaVuSans-2212"/>
      <use xlink:href="#DejaVuSans-32" x="83.789062"/>
      <use xlink:href="#DejaVuSans-30" x="147.412109"/>
     </g>
    </g>
   </g>
   <g id="xtick_9">
    <g id="line2d_11">
     <path d="M 299.006735 262.117701 
L 302.712338 263.280912 
" style="fill: none; stroke: #000000; stroke-width: 0.8; stroke-linecap: square"/>
    </g>
    <g id="text_9">
     <!-- −10 -->
     <g transform="translate(302.273133 283.19164) scale(0.1 -0.1)">
      <use xlink:href="#DejaVuSans-2212"/>
      <use xlink:href="#DejaVuSans-31" x="83.789062"/>
      <use xlink:href="#DejaVuSans-30" x="147.412109"/>
     </g>
    </g>
   </g>
   <g id="xtick_10">
    <g id="line2d_12">
     <path d="M 314.528527 246.217058 
L 318.189373 247.340456 
" style="fill: none; stroke: #000000; stroke-width: 0.8; stroke-linecap: square"/>
    </g>
    <g id="text_10">
     <!-- 0 -->
     <g transform="translate(324.942713 267.042585) scale(0.1 -0.1)">
      <use xlink:href="#DejaVuSans-30"/>
     </g>
    </g>
   </g>
   <g id="xtick_11">
    <g id="line2d_13">
     <path d="M 329.523839 230.855745 
L 333.140806 231.941339 
" style="fill: none; stroke: #000000; stroke-width: 0.8; stroke-linecap: square"/>
    </g>
    <g id="text_11">
     <!-- 10 -->
     <g transform="translate(336.540539 251.441817) scale(0.1 -0.1)">
      <use xlink:href="#DejaVuSans-31"/>
      <use xlink:href="#DejaVuSans-30" x="63.623047"/>
     </g>
    </g>
   </g>
   <g id="xtick_12">
    <g id="line2d_14">
     <path d="M 344.01901 216.00678 
L 347.592964 217.056446 
" style="fill: none; stroke: #000000; stroke-width: 0.8; stroke-linecap: square"/>
    </g>
    <g id="text_12">
     <!-- 20 -->
     <g transform="translate(350.826217 236.361881) scale(0.1 -0.1)">
      <use xlink:href="#DejaVuSans-32"/>
      <use xlink:href="#DejaVuSans-30" x="63.623047"/>
     </g>
    </g>
   </g>
  </g>
  <g id="axis3d_3">
   <g id="line2d_15">
    <path d="M 352.090401 209.294766 
L 357.122702 99.402171 
" style="fill: none; stroke: #000000; stroke-width: 0.8; stroke-linecap: square"/>
   </g>
   <g id="Line3DCollection_3">
    <path d="M 352.630206 197.506789 
L 210.944878 156.890527 
L 122.616016 229.89876 
" style="fill: none; stroke: #b0b0b0; stroke-width: 0.8"/>
    <path d="M 353.252661 183.913963 
L 210.793565 143.731939 
L 121.945482 215.974681 
" style="fill: none; stroke: #b0b0b0; stroke-width: 0.8"/>
    <path d="M 353.882019 170.170387 
L 210.640654 130.434406 
L 121.267227 201.890275 
" style="fill: none; stroke: #b0b0b0; stroke-width: 0.8"/>
    <path d="M 354.518396 156.273541 
L 210.48612 116.995717 
L 120.581117 187.642758 
" style="fill: none; stroke: #b0b0b0; stroke-width: 0.8"/>
    <path d="M 355.16191 142.220845 
L 210.329937 103.41361 
L 119.887015 173.229279 
" style="fill: none; stroke: #b0b0b0; stroke-width: 0.8"/>
    <path d="M 355.812681 128.009664 
L 210.172077 89.68578 
L 119.18478 158.646922 
" style="fill: none; stroke: #b0b0b0; stroke-width: 0.8"/>
    <path d="M 356.470834 113.637301 
L 210.012516 75.809866 
L 118.474269 143.892702 
" style="fill: none; stroke: #b0b0b0; stroke-width: 0.8"/>
   </g>
   <g id="xtick_13">
    <g id="line2d_16">
     <path d="M 351.440809 197.16583 
L 355.011844 198.189521 
" style="fill: none; stroke: #000000; stroke-width: 0.8; stroke-linecap: square"/>
    </g>
    <g id="text_13">
     <!-- 10 -->
     <g transform="translate(364.602146 202.523261) scale(0.1 -0.1)">
      <use xlink:href="#DejaVuSans-31"/>
      <use xlink:href="#DejaVuSans-30" x="63.623047"/>
     </g>
    </g>
   </g>
   <g id="xtick_14">
    <g id="line2d_17">
     <path d="M 352.056458 183.576561 
L 355.647941 184.589575 
" style="fill: none; stroke: #000000; stroke-width: 0.8; stroke-linecap: square"/>
    </g>
    <g id="text_14">
     <!-- 15 -->
     <g transform="translate(365.323517 188.957414) scale(0.1 -0.1)">
      <use xlink:href="#DejaVuSans-31"/>
      <use xlink:href="#DejaVuSans-35" x="63.623047"/>
     </g>
    </g>
   </g>
   <g id="xtick_15">
    <g id="line2d_18">
     <path d="M 352.678933 169.836644 
L 356.2911 170.83868 
" style="fill: none; stroke: #000000; stroke-width: 0.8; stroke-linecap: square"/>
    </g>
    <g id="text_15">
     <!-- 20 -->
     <g transform="translate(366.052863 175.241575) scale(0.1 -0.1)">
      <use xlink:href="#DejaVuSans-32"/>
      <use xlink:href="#DejaVuSans-30" x="63.623047"/>
     </g>
    </g>
   </g>
   <g id="xtick_16">
    <g id="line2d_19">
     <path d="M 353.308347 155.943559 
L 356.941436 156.934308 
" style="fill: none; stroke: #000000; stroke-width: 0.8; stroke-linecap: square"/>
    </g>
    <g id="text_16">
     <!-- 25 -->
     <g transform="translate(366.790318 161.373244) scale(0.1 -0.1)">
      <use xlink:href="#DejaVuSans-32"/>
      <use xlink:href="#DejaVuSans-35" x="63.623047"/>
     </g>
    </g>
   </g>
   <g id="xtick_17">
    <g id="line2d_20">
     <path d="M 353.944816 141.894729 
L 357.599072 142.873875 
" style="fill: none; stroke: #000000; stroke-width: 0.8; stroke-linecap: square"/>
    </g>
    <g id="text_17">
     <!-- 30 -->
     <g transform="translate(367.536017 147.349862) scale(0.1 -0.1)">
      <defs>
       <path id="DejaVuSans-33" d="M 2597 2516 
Q 3050 2419 3304 2112 
Q 3559 1806 3559 1356 
Q 3559 666 3084 287 
Q 2609 -91 1734 -91 
Q 1441 -91 1130 -33 
Q 819 25 488 141 
L 488 750 
Q 750 597 1062 519 
Q 1375 441 1716 441 
Q 2309 441 2620 675 
Q 2931 909 2931 1356 
Q 2931 1769 2642 2001 
Q 2353 2234 1838 2234 
L 1294 2234 
L 1294 2753 
L 1863 2753 
Q 2328 2753 2575 2939 
Q 2822 3125 2822 3475 
Q 2822 3834 2567 4026 
Q 2313 4219 1838 4219 
Q 1578 4219 1281 4162 
Q 984 4106 628 3988 
L 628 4550 
Q 988 4650 1302 4700 
Q 1616 4750 1894 4750 
Q 2613 4750 3031 4423 
Q 3450 4097 3450 3541 
Q 3450 3153 3228 2886 
Q 3006 2619 2597 2516 
z
" transform="scale(0.015625)"/>
      </defs>
      <use xlink:href="#DejaVuSans-33"/>
      <use xlink:href="#DejaVuSans-30" x="63.623047"/>
     </g>
    </g>
   </g>
   <g id="xtick_18">
    <g id="line2d_21">
     <path d="M 354.588461 127.687523 
L 358.26413 128.654739 
" style="fill: none; stroke: #000000; stroke-width: 0.8; stroke-linecap: square"/>
    </g>
    <g id="text_18">
     <!-- 35 -->
     <g transform="translate(368.290101 133.168814) scale(0.1 -0.1)">
      <use xlink:href="#DejaVuSans-33"/>
      <use xlink:href="#DejaVuSans-35" x="63.623047"/>
     </g>
    </g>
   </g>
   <g id="xtick_19">
    <g id="line2d_22">
     <path d="M 355.239403 113.319245 
L 358.936738 114.274197 
" style="fill: none; stroke: #000000; stroke-width: 0.8; stroke-linecap: square"/>
    </g>
    <g id="text_19">
     <!-- 40 -->
     <g transform="translate(369.052711 118.827427) scale(0.1 -0.1)">
      <defs>
       <path id="DejaVuSans-34" d="M 2419 4116 
L 825 1625 
L 2419 1625 
L 2419 4116 
z
M 2253 4666 
L 3047 4666 
L 3047 1625 
L 3713 1625 
L 3713 1100 
L 3047 1100 
L 3047 0 
L 2419 0 
L 2419 1100 
L 313 1100 
L 313 1709 
L 2253 4666 
z
" transform="scale(0.015625)"/>
      </defs>
      <use xlink:href="#DejaVuSans-34"/>
      <use xlink:href="#DejaVuSans-30" x="63.623047"/>
     </g>
    </g>
   </g>
  </g>
  <g id="axes_1">
   <g id="line2d_23">
    <path d="M 225.804839 200.848822 
L 222.704083 203.380453 
L 219.11337 205.452402 
L 214.33156 207.188829 
L 208.657456 208.299055 
L 201.958903 208.354195 
L 194.240988 207.090822 
L 185.425444 203.703416 
L 176.33991 197.615118 
L 168.105256 188.328765 
L 161.721022 175.585416 
L 159.388842 160.790457 
L 162.19036 146.259623 
L 169.772481 134.923685 
L 180.682443 128.559188 
L 192.60349 127.985358 
L 204.049333 131.428236 
L 214.103553 137.468971 
L 222.169615 144.669613 
L 228.356162 151.747678 
L 232.856349 158.664104 
L 236.185657 165.044108 
L 238.59261 170.775178 
L 240.102945 176.023648 
L 241.151844 180.645811 
L 241.777122 184.952163 
L 242.211096 188.82183 
L 242.447722 192.426368 
L 242.534078 198.626785 
L 242.382242 201.400132 
L 242.400272 203.998983 
L 241.963373 206.429004 
L 241.744549 208.676555 
L 240.90778 212.845224 
L 240.223873 214.875308 
L 238.300135 218.472992 
L 236.97313 220.124029 
L 235.085943 221.823294 
L 232.944314 223.490361 
L 229.975864 225.165888 
L 226.144626 226.560104 
L 221.156573 228.066098 
L 214.971013 229.033941 
L 207.189292 229.427027 
L 197.351209 228.502604 
L 185.249224 225.362219 
L 171.542207 218.636111 
L 157.53119 206.189609 
L 145.587481 186.701163 
L 140.228229 161.615331 
L 144.375146 135.55535 
L 157.844851 115.685294 
L 177.215833 107.222184 
L 197.227112 109.076536 
L 214.913226 117.019702 
L 228.943177 127.451387 
L 239.619481 137.614178 
L 247.327957 146.590277 
L 253.200993 154.196886 
L 257.540391 160.40789 
L 263.848031 169.925582 
L 266.644572 172.996841 
L 269.22391 175.534653 
L 272.26391 177.37138 
L 275.49478 178.270421 
L 279.008124 178.29656 
L 283.315804 177.693633 
L 287.770344 176.00155 
L 292.630085 173.329099 
L 297.563102 169.771949 
L 302.178456 165.398204 
L 306.214317 160.46377 
L 309.034995 155.399504 
L 310.076189 151.041429 
L 309.006505 147.898661 
L 305.872866 146.475554 
L 301.32033 146.652387 
L 295.664892 148.493008 
L 289.668241 151.202862 
L 283.799992 154.497112 
L 278.783117 158.129397 
L 274.538053 161.507413 
L 271.457128 164.977981 
L 269.166134 168.118532 
L 267.753642 170.991107 
L 267.19772 173.571226 
L 267.244551 175.852102 
L 268.071251 177.916855 
L 269.58784 179.60028 
L 271.64309 180.845314 
L 274.351656 181.382679 
L 277.786921 181.320516 
L 281.780028 180.554127 
L 286.245861 178.840737 
L 291.443662 176.132838 
L 296.683288 172.48635 
L 301.897444 167.594763 
L 306.51611 162.23285 
L 310.23087 156.511147 
L 311.923382 151.216553 
L 311.506821 147.305154 
L 308.722181 145.081456 
L 303.878849 144.890837 
L 297.641938 146.60449 
L 290.869634 149.400361 
L 284.407678 153.174195 
L 278.603462 156.9749 
L 273.765281 160.800497 
L 270.100901 164.476048 
L 267.435413 167.807754 
L 265.594422 170.979367 
L 264.878042 173.956456 
L 264.479785 176.458192 
L 265.310541 178.788159 
L 266.350007 180.822674 
L 268.208443 182.4244 
L 270.689301 183.407432 
L 273.702842 183.873264 
L 277.559116 183.705361 
L 282.036166 182.581269 
L 287.129517 180.321883 
L 292.572033 177.106634 
L 298.714724 172.688608 
L 304.497792 167.182918 
L 309.756367 160.897536 
L 313.212689 154.353894 
L 314.689566 148.681311 
L 313.446208 144.5136 
L 309.388367 142.797609 
L 303.37135 143.359854 
L 296.019069 145.815093 
L 288.358803 149.621835 
L 281.222234 153.910386 
L 275.160263 158.095924 
L 270.236143 162.251403 
L 266.5892 165.967532 
L 264.045998 169.563176 
L 262.327788 172.858536 
L 261.508974 176.001646 
L 261.39586 178.643171 
L 262.016944 181.119378 
L 263.227775 183.296966 
L 264.987207 185.078025 
L 267.491786 186.500117 
L 270.489116 187.093799 
L 274.205062 187.276149 
L 278.694912 186.352263 
L 283.968578 184.493957 
L 290.013437 181.516583 
L 296.50426 177.03597 
L 303.273391 171.27204 
L 309.662416 164.336107 
L 314.705974 156.782351 
L 317.703571 149.457374 
L 317.55567 143.78949 
L 314.199977 140.523725 
L 307.830479 140.435164 
L 299.676944 142.696614 
L 290.798432 146.729807 
L 282.318559 151.625574 
L 274.915312 156.431722 
L 269.148322 160.841709 
L 264.451215 165.218818 
L 261.300556 168.971159 
L 259.16999 172.720317 
L 257.699571 175.995383 
L 257.20838 179.090923 
L 257.17152 182.08517 
L 257.795156 184.763657 
L 258.917338 187.043482 
L 260.644884 189.077984 
L 262.799479 190.732827 
L 265.679187 191.806929 
L 269.290609 192.184085 
L 273.544359 191.900828 
L 278.714946 190.608316 
L 284.869755 188.12325 
L 291.734211 184.271593 
L 299.490583 178.653986 
L 307.340041 171.357274 
L 314.881203 162.580248 
L 320.265798 153.326986 
L 322.757413 144.860351 
L 321.372826 138.819808 
L 315.801922 136.286891 
L 306.844992 137.625686 
L 296.457239 141.626623 
L 285.985153 147.163011 
L 276.682105 152.979911 
L 268.644292 158.366078 
L 262.653721 163.262952 
L 258.071784 167.770815 
L 254.867905 171.57669 
L 252.671282 175.341944 
L 251.339702 178.867953 
L 250.588833 182.314891 
L 250.361921 185.50182 
L 250.414074 188.49892 
L 250.846395 191.299836 
L 251.643869 193.850384 
L 252.777224 196.20359 
L 254.287816 198.183381 
L 256.083191 199.866815 
L 258.452358 201.199331 
L 261.559604 202.098889 
L 265.199027 202.075911 
L 269.952057 201.570245 
L 275.497105 200.062599 
L 282.56394 197.055904 
L 290.813051 192.428568 
L 300.196652 185.506687 
L 310.226517 176.342618 
L 319.908489 165.019243 
L 327.637681 152.438872 
L 331.547259 140.516469 
L 329.713495 132.117074 
L 321.883266 129.146099 
L 309.544545 132.031533 
L 295.313294 138.432459 
L 281.498694 145.986821 
L 269.822365 153.269159 
L 260.519033 159.478292 
L 253.532547 164.739973 
L 248.30922 169.285611 
L 244.487068 173.289963 
L 241.826051 177.140671 
L 239.649097 180.752441 
L 233.575645 194.343067 
L 229.744323 200.326762 
L 227.016155 202.972655 
L 223.949036 205.211635 
L 220.272102 207.522443 
L 215.546465 209.25538 
L 209.983939 210.460996 
L 203.049421 210.466442 
L 195.057165 209.233089 
L 186.09054 206.276612 
L 176.533248 200.29572 
L 167.558442 190.662802 
L 160.536228 177.646346 
L 157.739317 161.966588 
L 160.014336 146.286452 
L 167.682988 133.828824 
L 179.271006 126.86571 
L 191.918291 125.886987 
L 204.179275 129.438063 
L 214.723889 135.867856 
L 223.233502 143.196817 
L 229.849967 150.68236 
L 234.692499 157.804701 
L 238.19014 164.369474 
L 240.482127 170.024864 
L 242.382 175.382554 
L 243.496771 180.00538 
L 244.721074 184.34251 
L 246.631311 194.596507 
L 248.134867 200.013067 
L 250.089133 204.403688 
L 251.660973 206.058461 
L 253.449248 207.43972 
L 255.60362 208.576825 
L 258.346911 209.247368 
L 261.980641 209.303859 
L 266.411667 208.566604 
L 272.071289 206.967646 
L 278.936928 204.168666 
L 287.565515 199.613627 
L 297.571432 192.719027 
L 308.676576 183.087815 
L 320.14808 170.576597 
L 330.446499 155.891756 
L 336.439735 140.922513 
L 336.365389 129.630598 
L 328.625159 124.531684 
L 314.68517 126.971637 
L 298.135345 134.506575 
L 281.801466 143.472714 
L 267.92625 152.0244 
L 257.032164 158.949169 
L 248.903208 164.281209 
L 242.956512 168.882983 
L 238.626825 172.824452 
L 235.122113 176.514482 
L 230.203775 183.321342 
L 225.618509 189.619484 
L 223.132597 192.572646 
L 220.118154 195.043436 
L 216.518877 197.320034 
L 212.336012 199.032 
L 207.347298 200.033405 
L 201.504046 200.113936 
L 195.133047 198.905255 
L 187.927872 196.196735 
L 181.013873 191.313828 
L 174.298085 184.1291 
L 169.474577 174.66504 
L 167.369755 163.662127 
L 168.691379 152.836174 
L 173.452969 143.713028 
L 180.966582 137.835828 
L 189.965315 135.862396 
L 199.059825 137.383345 
L 207.521246 141.404043 
L 214.511158 146.687853 
L 220.126442 152.550718 
L 224.275349 158.570125 
L 227.338475 164.415536 
L 229.414588 169.935757 
L 230.555348 174.992933 
L 230.879798 179.51069 
L 230.812301 183.914136 
L 230.199277 187.838489 
L 229.001355 191.545665 
L 227.306353 194.782717 
L 225.118839 197.779457 
L 222.093199 200.427732 
L 218.488387 202.765316 
L 214.077566 204.591705 
L 208.834875 205.727414 
L 202.403971 206.055617 
L 195.089521 204.793609 
L 186.814088 201.833489 
L 178.429183 196.257771 
L 170.522623 187.874146 
L 164.496561 176.313573 
L 161.840741 162.796158 
L 163.751499 149.226646 
L 169.988388 138.309213 
L 179.533283 131.827597 
L 190.645724 130.232733 
L 201.806816 132.751095 
L 211.183491 138.013685 
L 219.241771 144.471439 
L 225.479045 151.385669 
L 229.892848 158.192458 
L 233.227435 164.347845 
L 235.495089 170.132107 
L 236.945697 175.448888 
L 238.042784 180.159244 
L 238.493301 184.549971 
L 238.442709 188.577487 
L 238.243661 192.242743 
L 237.691199 195.693675 
L 235.823446 201.740226 
L 234.42978 204.592612 
L 232.737386 207.148014 
L 230.38681 209.555353 
L 227.593643 211.932908 
L 224.16354 214.004475 
L 219.63851 215.840669 
L 213.939961 217.1927 
L 207.216849 217.869604 
L 198.78857 217.283006 
L 188.90467 214.909023 
L 178.109333 209.599495 
L 166.822677 200.202273 
L 157.222171 186.281124 
L 151.499722 168.166063 
L 152.080906 148.223252 
L 159.919923 131.266494 
L 173.091894 121.03493 
L 188.594102 118.338506 
L 203.462847 122.255247 
L 216.317559 129.621649 
L 226.385027 138.178754 
L 234.453305 146.607284 
L 240.189462 154.359874 
L 244.512971 161.33767 
L 247.61132 167.375003 
L 252.080763 177.205778 
L 253.727456 181.120416 
L 255.634242 184.404273 
L 257.706464 187.281758 
L 259.763185 189.619742 
L 262.578018 191.343682 
L 265.709565 192.425561 
L 269.610371 192.978686 
L 274.195715 192.483917 
L 279.757213 190.887499 
L 286.148657 188.123789 
L 293.411372 183.71391 
L 301.584111 177.670468 
L 309.490611 169.824416 
L 316.598622 160.616871 
L 321.847104 151.192035 
L 323.639457 142.75107 
L 321.056148 137.345797 
L 314.433206 135.682437 
L 304.759565 137.928856 
L 293.960238 142.697451 
L 283.281995 148.449553 
L 274.057042 154.328685 
L 266.536574 159.716878 
L 260.744203 164.347686 
L 256.377518 168.739676 
L 253.402096 172.728422 
L 251.460017 176.436639 
L 250.259907 179.902508 
L 249.410743 183.287031 
L 249.219491 186.359455 
L 249.268599 189.515072 
L 249.439803 192.414249 
L 250.112249 194.995011 
L 252.285849 199.50644 
L 253.753472 201.377333 
L 255.707364 202.827773 
L 258.256087 203.899539 
L 261.653819 204.470238 
L 265.646557 204.454177 
L 270.40929 203.538866 
L 276.57479 201.570672 
L 283.919095 198.143 
L 292.537052 192.766347 
L 302.605922 185.272768 
L 313.206788 174.930919 
L 323.231391 162.613928 
L 330.637262 149.150325 
L 333.574791 136.986123 
L 330.076407 129.307209 
L 320.377061 127.771997 
L 306.366464 132.142007 
L 291.365516 139.663566 
L 277.335383 147.835459 
L 265.678437 155.032805 
L 256.712581 161.042857 
L 249.989448 166.09511 
L 245.090298 170.441654 
L 241.389079 174.302845 
L 238.780171 178.112967 
L 236.596095 181.676067 
L 234.708188 185.24661 
L 233.132512 188.624224 
L 231.197377 191.794097 
L 229.20243 194.844928 
L 226.834285 197.750832 
L 223.928106 200.456244 
L 220.532522 202.83367 
L 216.24818 204.814703 
L 211.196477 206.147621 
L 205.196249 206.839791 
L 197.979779 206.288762 
L 190.159828 203.886925 
L 181.535881 199.429993 
L 173.019787 191.946619 
L 165.991981 181.404735 
L 161.841007 168.209476 
L 161.944463 154.137555 
L 166.659917 141.610132 
L 175.445813 132.89395 
L 186.485383 129.560485 
L 197.701862 130.736106 
L 208.129386 135.266188 
L 216.845536 141.633821 
L 223.783528 148.523182 
L 228.983553 155.455038 
L 232.920697 162.025723 
L 235.590406 168.02966 
L 237.399595 173.466246 
L 238.510379 178.43833 
L 239.598154 187.004029 
L 239.42247 190.786837 
L 239.134758 194.198219 
L 238.635754 197.462019 
L 237.950872 200.537205 
L 237.066609 203.464512 
L 235.883523 206.020852 
L 234.230238 208.548599 
L 232.252774 210.878047 
L 229.653767 213.190129 
L 226.588684 215.253685 
L 222.555674 217.250371 
L 217.487337 218.784506 
L 211.305869 219.789215 
L 203.462784 219.85696 
L 194.172596 218.577324 
L 183.091982 214.746349 
L 171.45286 207.325785 
L 160.249691 195.178465 
L 151.723052 178.036499 
L 149.015092 157.393912 
L 153.731333 137.382249 
L 165.300906 122.734564 
L 180.980719 116.523054 
L 197.213667 118.065636 
L 211.788546 124.343496 
L 223.543106 133.082128 
L 232.73466 142.010459 
L 239.576265 150.331515 
L 244.704889 157.735433 
L 248.438541 164.148083 
L 251.251688 169.688162 
L 253.513608 174.439145 
L 255.648688 178.488956 
L 257.736499 181.87027 
L 260.112437 184.748667 
L 262.431001 187.056214 
L 265.260367 188.581533 
L 268.602477 189.568785 
L 272.792574 189.659197 
L 277.579695 188.944732 
L 283.370592 186.971442 
L 289.550152 183.684952 
L 296.705806 178.903776 
L 304.200544 172.563787 
L 311.2802 164.926809 
L 316.88683 156.360331 
L 320.330728 148.262261 
L 320.075302 141.78069 
L 316.260689 138.401994 
L 309.104811 138.404342 
L 299.78579 141.329695 
L 289.987017 145.929498 
L 280.622058 151.421967 
L 272.791928 156.555603 
L 266.42871 161.417057 
L 261.68811 165.94057 
L 257.948582 169.806437 
L 255.881933 173.61367 
L 254.259436 177.030507 
L 253.562809 180.430787 
L 253.306772 183.528567 
L 253.572096 186.373316 
L 254.40556 189.071686 
L 255.509602 191.497396 
L 257.048802 193.536694 
L 259.182423 195.314079 
L 261.902418 196.505438 
L 265.161516 197.238488 
L 269.224752 197.152715 
L 274.147475 196.168918 
L 280.24221 194.182116 
L 287.314612 190.723237 
L 295.393765 185.605055 
L 304.350256 178.248656 
L 313.251703 169.069349 
L 321.16613 158.36383 
L 326.26754 147.375809 
L 327.024863 138.565953 
L 322.845169 133.382342 
L 313.991194 133.023386 
L 302.297323 136.948495 
L 289.828062 143.052072 
L 278.353998 149.765363 
L 268.661422 156.109328 
L 261.084124 161.545997 
L 255.385875 166.340092 
L 251.100863 170.509888 
L 248.209849 174.466709 
L 246.147531 178.37888 
L 244.794162 181.896731 
L 243.638597 185.280518 
L 240.165904 203.29471 
L 239.466174 205.903588 
L 238.503415 208.208313 
L 237.338124 210.554333 
L 235.879209 212.766439 
L 234.035266 214.911289 
L 231.7839 216.965657 
L 228.943174 218.908326 
L 225.245223 220.663283 
L 220.477292 222.269763 
L 214.594514 223.386669 
L 207.028749 223.937283 
L 197.955494 223.211777 
L 186.914611 220.373305 
L 174.494166 214.160373 
L 161.772481 203.235778 
L 150.978012 186.401454 
L 145.499773 164.6489 
L 147.928689 141.575953 
L 158.843482 123.011834 
L 175.102625 113.510717 
L 193.006198 113.249679 
L 209.538089 119.294249 
L 222.985092 128.413362 
L 233.386111 137.841106 
L 241.432478 146.810579 
L 246.963326 154.574617 
L 246.963326 154.574617 
" clip-path="url(#pc7bd33054b)" style="fill: none; stroke: #0000cc; stroke-linecap: square"/>
   </g>
   <g id="line2d_24">
    <path d="M 225.810694 200.747402 
L 222.79302 203.332274 
L 219.019901 205.546595 
L 214.375245 207.28657 
L 208.732567 208.359552 
L 201.997791 208.456771 
L 194.175092 207.129004 
L 185.459982 203.760778 
L 176.410527 197.66638 
L 168.026531 188.258764 
L 161.846701 175.592688 
L 159.543585 160.791881 
L 162.203392 146.266143 
L 169.680881 134.878646 
L 180.50897 128.693873 
L 192.585163 127.941238 
L 204.132515 131.420218 
L 214.122944 137.429579 
L 222.179467 144.515928 
L 228.375761 151.756391 
L 232.952208 158.657606 
L 236.243116 165.011083 
L 238.54213 170.779042 
L 240.108005 175.985184 
L 241.146703 180.685877 
L 241.812489 184.943098 
L 242.217804 188.816344 
L 242.441263 192.357795 
L 242.532093 198.616466 
L 242.303713 203.994724 
L 241.793023 208.689647 
L 241.411046 210.829654 
L 240.919222 212.853846 
L 240.288996 214.778982 
L 239.482361 216.620981 
L 238.448652 218.395297 
L 237.120996 220.117256 
L 235.412693 221.797962 
L 233.208045 223.442958 
L 230.366651 225.050476 
L 226.697655 226.590749 
L 221.968067 227.985055 
L 215.895 229.075328 
L 208.161769 229.550906 
L 198.473626 228.853536 
L 186.685663 226.039332 
L 173.084853 219.66927 
L 158.865169 207.916655 
L 146.601999 189.340458 
L 140.194684 164.582913 
L 143.173353 138.168654 
L 155.972802 117.386012 
L 175.00113 107.537321 
L 195.223878 108.401232 
L 213.196152 116.02268 
L 227.612297 126.265229 
L 238.591731 136.538413 
L 246.707922 145.694084 
L 252.695285 153.453789 
L 257.178591 159.887745 
L 263.63044 169.419431 
L 266.333906 172.800495 
L 269.038442 175.377049 
L 271.926421 177.183151 
L 275.129723 178.216458 
L 278.737841 178.440887 
L 282.789417 177.801674 
L 287.268131 176.231589 
L 292.072234 173.690027 
L 297.003071 170.185169 
L 301.731132 165.842761 
L 305.808594 160.943915 
L 308.713405 155.957706 
L 309.939216 151.497634 
L 309.16401 148.202488 
L 306.362157 146.51486 
L 301.860683 146.5883 
L 296.273417 148.184724 
L 290.265072 150.88502 
L 284.464082 154.195649 
L 279.302706 157.730244 
L 275.023253 161.239519 
L 271.710578 164.595246 
L 269.350287 167.741164 
L 267.876683 170.653173 
L 267.209884 173.311523 
L 267.276243 175.688708 
L 268.020109 177.742948 
L 269.408112 179.417863 
L 271.425713 180.640865 
L 274.074047 181.3233 
L 277.358438 181.360661 
L 281.273842 180.635715 
L 285.785251 179.026715 
L 290.793528 176.429036 
L 296.109143 172.788224 
L 301.397503 168.161718 
L 306.20912 162.779484 
L 309.909916 157.089702 
L 311.895783 151.774949 
L 311.670428 147.599358 
L 309.106031 145.194564 
L 304.456531 144.825752 
L 298.380425 146.316058 
L 291.686551 149.157157 
L 285.128637 152.754308 
L 279.240445 156.622122 
L 274.323957 160.453016 
L 270.478702 164.100149 
L 267.681981 167.511638 
L 265.84765 170.677733 
L 264.871461 173.594011 
L 264.658359 176.245861 
L 265.136114 178.603303 
L 266.259247 180.618407 
L 268.009838 182.227373 
L 270.391164 183.348755 
L 273.424649 183.880637 
L 277.134663 183.702738 
L 281.530897 182.676204 
L 286.583615 180.655061 
L 292.18696 177.51092 
L 298.112742 173.178557 
L 303.965103 167.732058 
L 309.159089 161.472009 
L 312.960129 154.993458 
L 314.627107 149.153264 
L 313.640933 144.880522 
L 309.944231 142.852788 
L 304.022663 143.222736 
L 296.762153 145.587169 
L 289.146152 149.230177 
L 281.983506 153.444496 
L 275.781159 157.733622 
L 270.762351 161.838057 
L 266.945527 165.671712 
L 264.243681 169.227774 
L 262.511937 172.526877 
L 261.631162 175.581588 
L 261.484599 178.383754 
L 261.992873 180.907569 
L 263.112168 183.108786 
L 264.829827 184.927193 
L 267.161938 186.284169 
L 270.146078 187.080041 
L 273.832169 187.191084 
L 278.267613 186.466267 
L 283.472807 184.730845 
L 289.40756 181.8031 
L 295.912935 177.532239 
L 302.657298 171.875916 
L 309.061606 165.008708 
L 314.329339 157.449159 
L 317.469386 150.126884 
L 317.69554 144.209949 
L 314.603216 140.743701 
L 308.542125 140.258675 
L 300.476086 142.408632 
L 291.652323 146.343489 
L 283.162041 151.095977 
L 275.71918 155.957195 
L 269.637923 160.565414 
L 264.956894 164.812055 
L 261.550798 168.719463 
L 259.240896 172.341046 
L 257.842849 175.72201 
L 257.200586 178.880543 
L 257.197597 181.811749 
L 257.758006 184.491748 
L 258.844899 186.881313 
L 260.457588 188.92744 
L 262.625556 190.562432 
L 265.405673 191.697405 
L 268.87644 192.217987 
L 273.126778 191.974737 
L 278.24335 190.779822 
L 284.276346 188.401804 
L 291.198037 184.602356 
L 298.820126 179.161657 
L 306.706592 172.018377 
L 314.083035 163.422596 
L 319.826661 154.145218 
L 322.668278 145.516764 
L 321.576815 139.186854 
L 316.337783 136.405501 
L 307.75785 137.411726 
L 297.378556 141.331971 
L 286.826559 146.771065 
L 277.287237 152.53864 
L 269.345842 157.973089 
L 263.127842 162.868597 
L 258.486836 167.269535 
L 255.170955 171.293552 
L 252.911611 175.04713 
L 251.472796 178.596273 
L 250.665232 181.970366 
L 250.350733 185.174022 
L 250.43128 188.192401 
L 250.860259 191.012035 
L 251.611884 193.605686 
L 252.69229 195.945424 
L 254.134439 197.996842 
L 255.995803 199.714641 
L 258.357745 201.037594 
L 261.326582 201.879799 
L 265.034749 202.119644 
L 269.634999 201.587256 
L 275.289224 200.048604 
L 282.142656 197.193725 
L 290.263095 192.645159 
L 299.544468 186.002017 
L 309.547465 176.990154 
L 319.311806 165.722537 
L 327.257401 153.117808 
L 331.354636 141.154374 
L 329.880405 132.498654 
L 322.37716 129.28202 
L 310.259152 131.703342 
L 296.098027 137.963911 
L 282.342611 145.593479 
L 270.50323 152.878378 
L 261.069163 159.145833 
L 253.913225 164.420239 
L 248.645853 168.971061 
L 244.815269 173.070425 
L 242.013261 176.90466 
L 239.899948 180.575632 
L 238.20649 184.126707 
L 235.289411 190.88932 
L 233.766443 194.082544 
L 232.040091 197.132948 
L 229.997003 200.022665 
L 227.522367 202.729956 
L 224.490864 205.214154 
L 220.765925 207.412846 
L 216.184619 209.207639 
L 210.607879 210.437671 
L 203.890717 210.772896 
L 195.985886 209.781296 
L 187.022661 206.835388 
L 177.464455 201.162079 
L 168.279282 192.041856 
L 161.020461 179.248582 
L 157.55837 163.693733 
L 159.36196 147.771982 
L 166.562692 134.739272 
L 177.728632 127.135355 
L 190.560863 125.554092 
L 203.009822 128.78644 
L 213.835293 134.929367 
L 222.592741 142.318814 
L 229.33312 149.880812 
L 234.342839 157.059608 
L 237.97304 163.631283 
L 240.56513 169.552064 
L 242.403926 174.853429 
L 243.727829 179.603039 
L 245.501583 187.702073 
L 246.860105 194.299265 
L 247.576243 197.129955 
L 248.396494 199.677815 
L 249.377725 201.95153 
L 250.580889 203.948679 
L 252.077466 205.654809 
L 253.953774 207.038889 
L 256.314806 208.048284 
L 259.289987 208.601502 
L 263.037655 208.576736 
L 267.745067 207.794891 
L 273.616843 205.997708 
L 280.857052 202.830707 
L 289.600407 197.835492 
L 299.823387 190.487765 
L 311.049255 180.337116 
L 322.322102 167.40367 
L 331.705073 152.631558 
L 336.665478 138.414081 
L 334.884517 128.224775 
L 325.759689 124.900697 
L 311.193641 128.5295 
L 294.566338 136.462169 
L 278.89932 145.457021 
L 265.794081 153.499741 
L 255.602615 160.031741 
L 247.995273 165.284906 
L 242.418848 169.691798 
L 238.31189 173.611031 
L 235.192788 177.261627 
L 232.673466 180.752406 
L 228.282038 187.343302 
L 225.980729 190.404899 
L 223.387516 193.252909 
L 220.35377 195.823642 
L 216.764951 198.043802 
L 212.492306 199.761296 
L 207.446582 200.808107 
L 201.581424 200.92706 
L 194.945083 199.771663 
L 187.742538 196.91624 
L 180.426481 191.917822 
L 173.75704 184.479666 
L 168.780794 174.715033 
L 166.608513 163.427903 
L 168.023772 152.173127 
L 173.048307 142.862641 
L 180.861712 137.010605 
L 190.117206 135.143849 
L 199.480714 136.780449 
L 207.994748 140.891345 
L 215.161161 146.406709 
L 220.841771 152.496145 
L 225.117018 158.630683 
L 228.163015 164.517873 
L 230.191943 170.031581 
L 231.373997 175.126725 
L 231.868558 179.813147 
L 231.785973 184.118487 
L 231.190952 188.077012 
L 230.113332 191.718669 
L 228.547684 195.066621 
L 226.454371 198.128186 
L 223.766929 200.890294 
L 220.393902 203.31184 
L 216.222127 205.305379 
L 211.131373 206.719519 
L 205.01948 207.309968 
L 197.846905 206.707069 
L 189.716991 204.395246 
L 180.996676 199.742985 
L 172.451454 192.131021 
L 165.324408 181.299206 
L 161.183072 167.79187 
L 161.41812 153.374956 
L 166.451556 140.67279 
L 175.547119 132.131599 
L 186.814849 128.894176 
L 198.391886 130.370837 
L 208.898363 135.126314 
L 217.681441 141.603638 
L 224.60227 148.667804 
L 229.822148 155.635635 
L 233.617608 162.182478 
L 236.284628 168.186509 
L 238.093721 173.637069 
L 239.264314 178.577216 
L 239.962256 183.058844 
L 240.312169 187.140656 
L 240.400347 190.881887 
L 240.275722 194.327467 
L 239.964922 197.519025 
L 239.480872 200.494891 
L 238.80909 203.280902 
L 237.915929 205.908824 
L 236.779446 208.396041 
L 235.321622 210.761037 
L 233.468549 213.016696 
L 231.114821 215.165173 
L 228.12621 217.191547 
L 224.335007 219.052709 
L 219.53653 220.654967 
L 213.495573 221.816759 
L 205.970918 222.214718 
L 196.77484 221.302889 
L 185.902791 218.222784 
L 173.784074 211.774634 
L 161.605916 200.604798 
L 151.634945 183.907718 
L 146.894675 162.689985 
L 149.890906 140.727529 
L 160.733815 123.514933 
L 176.7037 114.933545 
L 193.986465 115.042042 
L 209.754878 121.101435 
L 222.717813 129.871067 
L 232.757279 139.171713 
L 240.27775 147.863531 
L 245.830113 155.552844 
L 249.953938 162.179152 
L 257.989399 176.658547 
L 260.237928 179.998277 
L 262.627949 182.68649 
L 265.318299 184.725016 
L 268.443399 186.081972 
L 272.119284 186.687468 
L 276.444341 186.431393 
L 281.481145 185.173049 
L 287.233737 182.745801 
L 293.606374 178.994536 
L 300.333918 173.840271 
L 306.94443 167.370747 
L 312.679938 159.998859 
L 316.664767 152.487995 
L 317.935144 145.973469 
L 315.967051 141.614241 
L 310.836863 140.117327 
L 303.322998 141.45561 
L 294.637777 144.893066 
L 285.948868 149.458566 
L 278.110403 154.333724 
L 271.564134 159.043751 
L 266.424276 163.410972 
L 262.610983 167.424382 
L 259.955634 171.134175 
L 258.271244 174.590903 
L 257.392148 177.821546 
L 257.187546 180.827967 
L 257.567224 183.593122 
L 258.483913 186.081434 
L 259.924053 188.244463 
L 261.905987 190.021229 
L 264.483839 191.325253 
L 267.719925 192.060452 
L 271.708725 192.080619 
L 276.536982 191.213704 
L 282.269919 189.24399 
L 288.910443 185.928308 
L 296.330775 181.035482 
L 304.184755 174.439072 
L 311.814537 166.266797 
L 318.200774 157.109838 
L 322.090695 148.123249 
L 322.323166 140.90782 
L 318.382233 136.916327 
L 310.742582 136.760402 
L 300.776541 139.881122 
L 290.148586 144.96834 
L 280.212261 150.7193 
L 271.744635 156.288778 
L 264.990435 161.356422 
L 259.877699 165.897995 
L 256.172493 170.029406 
L 253.604984 173.856665 
L 251.931548 177.463937 
L 250.94494 180.890015 
L 250.491361 184.145077 
L 250.464727 187.221218 
L 250.798186 190.101321 
L 251.460526 192.762753 
L 252.451378 195.177902 
L 253.795669 197.31388 
L 255.543154 199.128869 
L 257.768754 200.565526 
L 260.572691 201.545536 
L 264.079605 201.957177 
L 268.436525 201.644532 
L 273.804947 200.391504 
L 280.335147 197.908747 
L 288.12194 193.835728 
L 297.11336 187.77119 
L 306.970726 179.391461 
L 316.873403 168.686373 
L 325.390899 156.322501 
L 330.608567 144.06659 
L 330.664527 134.354552 
L 324.641164 129.687631 
L 313.578127 130.745762 
L 299.72376 136.240122 
L 285.764143 143.67101 
L 273.407991 151.11361 
L 263.389458 157.639113 
L 255.712582 163.138791 
L 250.020059 167.844784 
L 245.879834 172.037355 
L 242.864552 175.932381 
L 240.615697 179.63982 
L 238.856408 183.22008 
L 234.504716 193.278755 
L 232.89478 196.369023 
L 230.976429 199.314074 
L 228.706669 202.08837 
L 225.914248 204.655778 
L 222.479027 206.969064 
L 218.252085 208.939852 
L 213.07422 210.413971 
L 206.797997 211.149204 
L 199.323792 210.75359 
L 190.69248 208.674893 
L 181.207958 204.166031 
L 171.625659 196.439169 
L 163.28577 184.974996 
L 158.025674 170.160043 
L 157.620685 153.819466 
L 162.836517 139.086637 
L 172.812383 129.033171 
L 185.410935 125.127279 
L 198.340542 126.720405 
L 210.000118 132.023618 
L 219.657829 139.154285 
L 227.2147 146.799666 
L 232.897884 154.209452 
L 237.053771 161.057889 
L 240.038738 167.242115 
L 242.171365 172.782124 
L 243.706918 177.734125 
L 244.849079 182.165919 
L 247.294834 192.95372 
L 248.094157 195.859154 
L 249.00433 198.463503 
L 250.088362 200.774592 
L 251.411962 202.790592 
L 253.05366 204.491773 
L 255.107263 205.842131 
L 257.683657 206.783362 
L 260.91947 207.219887 
L 264.980172 207.014207 
L 270.053217 205.967598 
L 276.337507 203.78971 
L 284.008227 200.080721 
L 293.139995 194.445173 
L 303.575719 186.316613 
L 314.706415 175.441776 
L 325.236029 162.072471 
L 333.071532 147.646844 
L 335.746167 134.887351 
L 331.474378 127.165618 
L 320.548044 126.340757 
L 305.392595 131.554252 
L 289.327313 139.828932 
L 274.8092 148.395167 
L 262.957965 155.805655 
L 253.864151 161.8252 
L 247.121215 166.762715 
L 242.179674 171.014379 
L 238.530756 174.872429 
L 235.737927 178.514723 
L 233.444491 182.016957 
L 229.329335 188.656525 
L 227.119714 191.741622 
L 224.599928 194.622984 
L 221.632443 197.243447 
L 218.087912 199.524088 
L 213.842965 201.34716 
L 208.788417 202.539248 
L 202.857124 202.845326 
L 196.062236 201.912804 
L 188.575907 199.284616 
L 180.814415 194.46024 
L 173.53829 187.034742 
L 167.847286 177.00457 
L 164.990356 165.073701 
L 165.943516 152.867345 
L 170.865357 142.476008 
L 178.966902 135.72724 
L 188.767293 133.308769 
L 198.785949 134.778294 
L 207.924974 138.990679 
L 215.623536 144.74203 
L 221.731307 151.109624 
L 226.341265 157.502119 
L 229.658142 163.612308 
L 231.909253 169.303367 
L 233.308766 174.542565 
L 234.027109 179.344596 
L 234.189972 183.746984 
L 233.884655 187.791835 
L 233.155906 191.520328 
L 232.01041 194.967904 
L 230.426961 198.157559 
L 228.35673 201.101279 
L 225.718688 203.792987 
L 222.405382 206.195738 
L 218.289796 208.23399 
L 213.225588 209.770845 
L 207.074286 210.56795 
L 199.743586 210.266835 
L 191.262986 208.300539 
L 181.935191 203.990325 
L 172.461403 196.552039 
L 164.134985 185.470925 
L 158.739109 171.059595 
L 157.9853 155.013013 
L 162.770333 140.34112 
L 172.287964 130.059825 
L 184.590243 125.768489 
L 197.354926 126.974902 
L 208.979486 131.972237 
L 218.674773 138.917687 
L 226.298059 146.468324 
L 232.054104 153.849191 
L 236.262695 160.703794 
L 239.281851 166.9193 
L 241.429311 172.497654 
L 242.954347 177.496747 
L 244.054527 181.982265 
L 245.589826 189.659715 
L 245.589826 189.659715 
" clip-path="url(#pc7bd33054b)" style="fill: none; stroke: #ff0000; stroke-linecap: square"/>
   </g>
  </g>
 </g>
 <defs>
  <clipPath id="pc7bd33054b">
   <rect x="103.104" y="41.472" width="266.112" height="266.112"/>
  </clipPath>
 </defs>
</svg>
