<?xml version="1.0" encoding="utf-8" standalone="no"?>
<!DOCTYPE svg PUBLIC "-//W3C//DTD SVG 1.1//EN"
  "http://www.w3.org/Graphics/SVG/1.1/DTD/svg11.dtd">
<svg xmlns:xlink="http://www.w3.org/1999/xlink" width="460.8pt" height="345.6pt" viewBox="0 0 460.8 345.6" xmlns="http://www.w3.org/2000/svg" version="1.1">
 <metadata>
  <rdf:RDF xmlns:dc="http://purl.org/dc/elements/1.1/" xmlns:cc="http://creativecommons.org/ns#" xmlns:rdf="http://www.w3.org/1999/02/22-rdf-syntax-ns#">
   <cc:Work>
    <dc:type rdf:resource="http://purl.org/dc/dcmitype/StillImage"/>
    <dc:date>2023-11-20T16:46:30.942847</dc:date>
    <dc:format>image/svg+xml</dc:format>
    <dc:creator>
     <cc:Agent>
      <dc:title>Matplotlib v3.7.3, https://matplotlib.org/</dc:title>
     </cc:Agent>
    </dc:creator>
   </cc:Work>
  </rdf:RDF>
 </metadata>
 <defs>
  <style type="text/css">*{stroke-linejoin: round; stroke-linecap: butt}</style>
 </defs>
 <g id="figure_1">
  <g id="patch_1">
   <path d="M 0 345.6 
L 460.8 345.6 
L 460.8 0 
L 0 0 
z
" style="fill: #ffffff"/>
  </g>
  <g id="patch_2">
   <path d="M 103.104 307.584 
L 369.216 307.584 
L 369.216 41.472 
L 103.104 41.472 
z
" style="fill: #ffffff"/>
  </g>
  <g id="pane3d_1">
   <g id="patch_3">
    <path d="M 123.197291 241.969309 
L 211.076164 168.307495 
L 209.854564 62.073991 
L 117.770234 129.272941 
" style="fill: #f2f2f2; opacity: 0.5; stroke: #f2f2f2; stroke-linejoin: miter"/>
   </g>
  </g>
  <g id="pane3d_2">
   <g id="patch_4">
    <path d="M 211.076164 168.307495 
L 352.090401 209.294766 
L 357.122702 99.402171 
L 209.854564 62.073991 
" style="fill: #e6e6e6; opacity: 0.5; stroke: #e6e6e6; stroke-linejoin: miter"/>
   </g>
  </g>
  <g id="pane3d_3">
   <g id="patch_5">
    <path d="M 123.197291 241.969309 
L 272.679269 290.790123 
L 352.090401 209.294766 
L 211.076164 168.307495 
" style="fill: #ececec; opacity: 0.5; stroke: #ececec; stroke-linejoin: miter"/>
   </g>
  </g>
  <g id="axis3d_1">
   <g id="line2d_1">
    <path d="M 123.197291 241.969309 
L 272.679269 290.790123 
" style="fill: none; stroke: #000000; stroke-width: 0.8; stroke-linecap: square"/>
   </g>
   <g id="text_1">
    <!-- x -->
    <g transform="translate(176.717053 303.76759) scale(0.1 -0.1)">
     <defs>
      <path id="DejaVuSans-78" d="M 3513 3500 
L 2247 1797 
L 3578 0 
L 2900 0 
L 1881 1375 
L 863 0 
L 184 0 
L 1544 1831 
L 300 3500 
L 978 3500 
L 1906 2253 
L 2834 3500 
L 3513 3500 
z
" transform="scale(0.015625)"/>
     </defs>
     <use xlink:href="#DejaVuSans-78"/>
    </g>
   </g>
   <g id="Line3DCollection_1">
    <path d="M 139.320236 247.235063 
L 226.345801 172.745776 
L 225.771406 66.108446 
" style="fill: none; stroke: #b0b0b0; stroke-width: 0.8"/>
    <path d="M 158.201357 253.401637 
L 244.209127 177.937939 
L 244.401102 70.830531 
" style="fill: none; stroke: #b0b0b0; stroke-width: 0.8"/>
    <path d="M 177.341035 259.652656 
L 262.296727 183.19529 
L 263.274843 75.614475 
" style="fill: none; stroke: #b0b0b0; stroke-width: 0.8"/>
    <path d="M 196.74462 265.989867 
L 280.612852 188.519065 
L 282.397457 80.4615 
" style="fill: none; stroke: #b0b0b0; stroke-width: 0.8"/>
    <path d="M 216.417608 272.415064 
L 299.161859 193.910529 
L 301.773898 85.372863 
" style="fill: none; stroke: #b0b0b0; stroke-width: 0.8"/>
    <path d="M 236.365648 278.930094 
L 317.948218 199.370982 
L 321.409254 90.349853 
" style="fill: none; stroke: #b0b0b0; stroke-width: 0.8"/>
    <path d="M 256.594549 285.536853 
L 336.976515 204.901756 
L 341.30875 95.393795 
" style="fill: none; stroke: #b0b0b0; stroke-width: 0.8"/>
   </g>
   <g id="xtick_1">
    <g id="line2d_2">
     <path d="M 140.078207 246.58628 
L 137.801034 248.53542 
" style="fill: none; stroke: #000000; stroke-width: 0.8; stroke-linecap: square"/>
    </g>
    <g id="text_2">
     <!-- −15 -->
     <g transform="translate(121.245898 270.593072) scale(0.1 -0.1)">
      <defs>
       <path id="DejaVuSans-2212" d="M 678 2272 
L 4684 2272 
L 4684 1741 
L 678 1741 
L 678 2272 
z
" transform="scale(0.015625)"/>
       <path id="DejaVuSans-31" d="M 794 531 
L 1825 531 
L 1825 4091 
L 703 3866 
L 703 4441 
L 1819 4666 
L 2450 4666 
L 2450 531 
L 3481 531 
L 3481 0 
L 794 0 
L 794 531 
z
" transform="scale(0.015625)"/>
       <path id="DejaVuSans-35" d="M 691 4666 
L 3169 4666 
L 3169 4134 
L 1269 4134 
L 1269 2991 
Q 1406 3038 1543 3061 
Q 1681 3084 1819 3084 
Q 2600 3084 3056 2656 
Q 3513 2228 3513 1497 
Q 3513 744 3044 326 
Q 2575 -91 1722 -91 
Q 1428 -91 1123 -41 
Q 819 9 494 109 
L 494 744 
Q 775 591 1075 516 
Q 1375 441 1709 441 
Q 2250 441 2565 725 
Q 2881 1009 2881 1497 
Q 2881 1984 2565 2268 
Q 2250 2553 1709 2553 
Q 1456 2553 1204 2497 
Q 953 2441 691 2322 
L 691 4666 
z
" transform="scale(0.015625)"/>
      </defs>
      <use xlink:href="#DejaVuSans-2212"/>
      <use xlink:href="#DejaVuSans-31" x="83.789062"/>
      <use xlink:href="#DejaVuSans-35" x="147.412109"/>
     </g>
    </g>
   </g>
   <g id="xtick_2">
    <g id="line2d_3">
     <path d="M 158.950877 252.744003 
L 156.699068 254.719753 
" style="fill: none; stroke: #000000; stroke-width: 0.8; stroke-linecap: square"/>
    </g>
    <g id="text_3">
     <!-- −10 -->
     <g transform="translate(140.14652 276.890358) scale(0.1 -0.1)">
      <defs>
       <path id="DejaVuSans-30" d="M 2034 4250 
Q 1547 4250 1301 3770 
Q 1056 3291 1056 2328 
Q 1056 1369 1301 889 
Q 1547 409 2034 409 
Q 2525 409 2770 889 
Q 3016 1369 3016 2328 
Q 3016 3291 2770 3770 
Q 2525 4250 2034 4250 
z
M 2034 4750 
Q 2819 4750 3233 4129 
Q 3647 3509 3647 2328 
Q 3647 1150 3233 529 
Q 2819 -91 2034 -91 
Q 1250 -91 836 529 
Q 422 1150 422 2328 
Q 422 3509 836 4129 
Q 1250 4750 2034 4750 
z
" transform="scale(0.015625)"/>
      </defs>
      <use xlink:href="#DejaVuSans-2212"/>
      <use xlink:href="#DejaVuSans-31" x="83.789062"/>
      <use xlink:href="#DejaVuSans-30" x="147.412109"/>
     </g>
    </g>
   </g>
   <g id="xtick_3">
    <g id="line2d_4">
     <path d="M 178.081803 258.985989 
L 175.856269 260.988897 
" style="fill: none; stroke: #000000; stroke-width: 0.8; stroke-linecap: square"/>
    </g>
    <g id="text_4">
     <!-- −5 -->
     <g transform="translate(162.488195 283.274206) scale(0.1 -0.1)">
      <use xlink:href="#DejaVuSans-2212"/>
      <use xlink:href="#DejaVuSans-35" x="83.789062"/>
     </g>
    </g>
   </g>
   <g id="xtick_4">
    <g id="line2d_5">
     <path d="M 197.476322 265.313979 
L 195.278004 267.34461 
" style="fill: none; stroke: #000000; stroke-width: 0.8; stroke-linecap: square"/>
    </g>
    <g id="text_5">
     <!-- 0 -->
     <g transform="translate(186.103661 289.746411) scale(0.1 -0.1)">
      <use xlink:href="#DejaVuSans-30"/>
     </g>
    </g>
   </g>
   <g id="xtick_5">
    <g id="line2d_6">
     <path d="M 217.139919 271.729763 
L 214.969791 273.788696 
" style="fill: none; stroke: #000000; stroke-width: 0.8; stroke-linecap: square"/>
    </g>
    <g id="text_6">
     <!-- 5 -->
     <g transform="translate(205.800025 296.308822) scale(0.1 -0.1)">
      <use xlink:href="#DejaVuSans-35"/>
     </g>
    </g>
   </g>
   <g id="xtick_6">
    <g id="line2d_7">
     <path d="M 237.078234 278.235182 
L 234.937303 280.323013 
" style="fill: none; stroke: #000000; stroke-width: 0.8; stroke-linecap: square"/>
    </g>
    <g id="text_7">
     <!-- 10 -->
     <g transform="translate(222.59158 302.963338) scale(0.1 -0.1)">
      <use xlink:href="#DejaVuSans-31"/>
      <use xlink:href="#DejaVuSans-30" x="63.623047"/>
     </g>
    </g>
   </g>
   <g id="xtick_7">
    <g id="line2d_8">
     <path d="M 257.297064 284.832126 
L 255.186369 286.949467 
" style="fill: none; stroke: #000000; stroke-width: 0.8; stroke-linecap: square"/>
    </g>
    <g id="text_8">
     <!-- 15 -->
     <g transform="translate(242.846688 309.711911) scale(0.1 -0.1)">
      <use xlink:href="#DejaVuSans-31"/>
      <use xlink:href="#DejaVuSans-35" x="63.623047"/>
     </g>
    </g>
   </g>
  </g>
  <g id="axis3d_2">
   <g id="line2d_9">
    <path d="M 352.090401 209.294766 
L 272.679269 290.790123 
" style="fill: none; stroke: #000000; stroke-width: 0.8; stroke-linecap: square"/>
   </g>
   <g id="Line3DCollection_2">
    <path d="M 128.439732 121.486827 
L 133.345384 233.462977 
L 281.885395 281.342373 
" style="fill: none; stroke: #b0b0b0; stroke-width: 0.8"/>
    <path d="M 147.857971 107.316281 
L 151.837575 217.962455 
L 298.636946 264.15116 
" style="fill: none; stroke: #b0b0b0; stroke-width: 0.8"/>
    <path d="M 166.584149 93.650769 
L 169.698764 202.990853 
L 314.787342 247.576881 
" style="fill: none; stroke: #b0b0b0; stroke-width: 0.8"/>
    <path d="M 184.654617 80.463765 
L 186.960704 188.521552 
L 330.368373 231.58691 
" style="fill: none; stroke: #b0b0b0; stroke-width: 0.8"/>
    <path d="M 202.103221 67.730568 
L 203.653057 174.52969 
L 345.409626 216.150885 
" style="fill: none; stroke: #b0b0b0; stroke-width: 0.8"/>
   </g>
   <g id="xtick_8">
    <g id="line2d_10">
     <path d="M 280.633899 280.938974 
L 284.391609 282.150209 
" style="fill: none; stroke: #000000; stroke-width: 0.8; stroke-linecap: square"/>
    </g>
    <g id="text_9">
     <!-- −20 -->
     <g transform="translate(284.163935 302.307679) scale(0.1 -0.1)">
      <defs>
       <path id="DejaVuSans-32" d="M 1228 531 
L 3431 531 
L 3431 0 
L 469 0 
L 469 531 
Q 828 903 1448 1529 
Q 2069 2156 2228 2338 
Q 2531 2678 2651 2914 
Q 2772 3150 2772 3378 
Q 2772 3750 2511 3984 
Q 2250 4219 1831 4219 
Q 1534 4219 1204 4116 
Q 875 4013 500 3803 
L 500 4441 
Q 881 4594 1212 4672 
Q 1544 4750 1819 4750 
Q 2544 4750 2975 4387 
Q 3406 4025 3406 3419 
Q 3406 3131 3298 2873 
Q 3191 2616 2906 2266 
Q 2828 2175 2409 1742 
Q 1991 1309 1228 531 
z
" transform="scale(0.015625)"/>
      </defs>
      <use xlink:href="#DejaVuSans-2212"/>
      <use xlink:href="#DejaVuSans-32" x="83.789062"/>
      <use xlink:href="#DejaVuSans-30" x="147.412109"/>
     </g>
    </g>
   </g>
   <g id="xtick_9">
    <g id="line2d_11">
     <path d="M 297.401256 263.762365 
L 301.11145 264.929734 
" style="fill: none; stroke: #000000; stroke-width: 0.8; stroke-linecap: square"/>
    </g>
    <g id="text_10">
     <!-- −10 -->
     <g transform="translate(300.690721 284.862031) scale(0.1 -0.1)">
      <use xlink:href="#DejaVuSans-2212"/>
      <use xlink:href="#DejaVuSans-31" x="83.789062"/>
      <use xlink:href="#DejaVuSans-30" x="147.412109"/>
     </g>
    </g>
   </g>
   <g id="xtick_10">
    <g id="line2d_12">
     <path d="M 313.56714 247.20191 
L 317.230777 248.327754 
" style="fill: none; stroke: #000000; stroke-width: 0.8; stroke-linecap: square"/>
    </g>
    <g id="text_11">
     <!-- 0 -->
     <g transform="translate(323.995172 268.042807) scale(0.1 -0.1)">
      <use xlink:href="#DejaVuSans-30"/>
     </g>
    </g>
   </g>
   <g id="xtick_11">
    <g id="line2d_13">
     <path d="M 329.163343 231.225039 
L 332.781372 232.311534 
" style="fill: none; stroke: #000000; stroke-width: 0.8; stroke-linecap: square"/>
    </g>
    <g id="text_12">
     <!-- 10 -->
     <g transform="translate(336.185248 251.816862) scale(0.1 -0.1)">
      <use xlink:href="#DejaVuSans-31"/>
      <use xlink:href="#DejaVuSans-30" x="63.623047"/>
     </g>
    </g>
   </g>
   <g id="xtick_12">
    <g id="line2d_14">
     <path d="M 344.219458 215.801439 
L 347.792813 216.850613 
" style="fill: none; stroke: #000000; stroke-width: 0.8; stroke-linecap: square"/>
    </g>
    <g id="text_13">
     <!-- 20 -->
     <g transform="translate(351.023764 236.153349) scale(0.1 -0.1)">
      <use xlink:href="#DejaVuSans-32"/>
      <use xlink:href="#DejaVuSans-30" x="63.623047"/>
     </g>
    </g>
   </g>
  </g>
  <g id="axis3d_3">
   <g id="line2d_15">
    <path d="M 352.090401 209.294766 
L 357.122702 99.402171 
" style="fill: none; stroke: #000000; stroke-width: 0.8; stroke-linecap: square"/>
   </g>
   <g id="Line3DCollection_3">
    <path d="M 352.405587 202.411903 
L 210.999501 161.640632 
L 122.857917 234.921986 
" style="fill: none; stroke: #b0b0b0; stroke-width: 0.8"/>
    <path d="M 353.085362 187.56734 
L 210.834226 147.26793 
L 122.125731 219.717661 
" style="fill: none; stroke: #b0b0b0; stroke-width: 0.8"/>
    <path d="M 353.773392 172.542532 
L 210.667041 132.729063 
L 121.384314 204.321672 
" style="fill: none; stroke: #b0b0b0; stroke-width: 0.8"/>
    <path d="M 354.469827 157.334177 
L 210.497911 118.021133 
L 120.633493 188.730373 
" style="fill: none; stroke: #b0b0b0; stroke-width: 0.8"/>
    <path d="M 355.174822 141.93889 
L 210.326804 103.141172 
L 119.873085 172.940022 
" style="fill: none; stroke: #b0b0b0; stroke-width: 0.8"/>
    <path d="M 355.888536 126.353204 
L 210.153683 88.086147 
L 119.102908 156.946784 
" style="fill: none; stroke: #b0b0b0; stroke-width: 0.8"/>
    <path d="M 356.611131 110.573564 
L 209.978513 72.852947 
L 118.32277 140.746723 
" style="fill: none; stroke: #b0b0b0; stroke-width: 0.8"/>
   </g>
   <g id="xtick_13">
    <g id="line2d_16">
     <path d="M 351.218645 202.069675 
L 354.782302 203.097176 
" style="fill: none; stroke: #000000; stroke-width: 0.8; stroke-linecap: square"/>
    </g>
    <g id="text_14">
     <!-- 10 -->
     <g transform="translate(364.341826 207.41875) scale(0.1 -0.1)">
      <use xlink:href="#DejaVuSans-31"/>
      <use xlink:href="#DejaVuSans-30" x="63.623047"/>
     </g>
    </g>
   </g>
   <g id="xtick_14">
    <g id="line2d_17">
     <path d="M 351.890989 187.228977 
L 355.476975 188.244878 
" style="fill: none; stroke: #000000; stroke-width: 0.8; stroke-linecap: square"/>
    </g>
    <g id="text_15">
     <!-- 15 -->
     <g transform="translate(365.129634 192.603496) scale(0.1 -0.1)">
      <use xlink:href="#DejaVuSans-31"/>
      <use xlink:href="#DejaVuSans-35" x="63.623047"/>
     </g>
    </g>
   </g>
   <g id="xtick_15">
    <g id="line2d_18">
     <path d="M 352.571494 172.208154 
L 356.18009 173.212097 
" style="fill: none; stroke: #000000; stroke-width: 0.8; stroke-linecap: square"/>
    </g>
    <g id="text_16">
     <!-- 20 -->
     <g transform="translate(365.926979 177.6089) scale(0.1 -0.1)">
      <use xlink:href="#DejaVuSans-32"/>
      <use xlink:href="#DejaVuSans-30" x="63.623047"/>
     </g>
    </g>
   </g>
   <g id="xtick_16">
    <g id="line2d_19">
     <path d="M 353.260309 157.003906 
L 356.891801 157.995523 
" style="fill: none; stroke: #000000; stroke-width: 0.8; stroke-linecap: square"/>
    </g>
    <g id="text_17">
     <!-- 25 -->
     <g transform="translate(366.734034 162.431687) scale(0.1 -0.1)">
      <use xlink:href="#DejaVuSans-32"/>
      <use xlink:href="#DejaVuSans-35" x="63.623047"/>
     </g>
    </g>
   </g>
   <g id="xtick_17">
    <g id="line2d_20">
     <path d="M 353.957586 141.612852 
L 357.612267 142.591763 
" style="fill: none; stroke: #000000; stroke-width: 0.8; stroke-linecap: square"/>
    </g>
    <g id="text_18">
     <!-- 30 -->
     <g transform="translate(367.550979 147.0685) scale(0.1 -0.1)">
      <defs>
       <path id="DejaVuSans-33" d="M 2597 2516 
Q 3050 2419 3304 2112 
Q 3559 1806 3559 1356 
Q 3559 666 3084 287 
Q 2609 -91 1734 -91 
Q 1441 -91 1130 -33 
Q 819 25 488 141 
L 488 750 
Q 750 597 1062 519 
Q 1375 441 1716 441 
Q 2309 441 2620 675 
Q 2931 909 2931 1356 
Q 2931 1769 2642 2001 
Q 2353 2234 1838 2234 
L 1294 2234 
L 1294 2753 
L 1863 2753 
Q 2328 2753 2575 2939 
Q 2822 3125 2822 3475 
Q 2822 3834 2567 4026 
Q 2313 4219 1838 4219 
Q 1578 4219 1281 4162 
Q 984 4106 628 3988 
L 628 4550 
Q 988 4650 1302 4700 
Q 1616 4750 1894 4750 
Q 2613 4750 3031 4423 
Q 3450 4097 3450 3541 
Q 3450 3153 3228 2886 
Q 3006 2619 2597 2516 
z
" transform="scale(0.015625)"/>
      </defs>
      <use xlink:href="#DejaVuSans-33"/>
      <use xlink:href="#DejaVuSans-30" x="63.623047"/>
     </g>
    </g>
   </g>
   <g id="xtick_18">
    <g id="line2d_21">
     <path d="M 354.663484 126.03153 
L 358.34165 126.997343 
" style="fill: none; stroke: #000000; stroke-width: 0.8; stroke-linecap: square"/>
    </g>
    <g id="text_19">
     <!-- 35 -->
     <g transform="translate(368.377996 131.515899) scale(0.1 -0.1)">
      <use xlink:href="#DejaVuSans-33"/>
      <use xlink:href="#DejaVuSans-35" x="63.623047"/>
     </g>
    </g>
   </g>
   <g id="xtick_19">
    <g id="line2d_22">
     <path d="M 355.378163 110.256388 
L 359.080118 111.208701 
" style="fill: none; stroke: #000000; stroke-width: 0.8; stroke-linecap: square"/>
    </g>
    <g id="text_20">
     <!-- 40 -->
     <g transform="translate(369.215272 115.770359) scale(0.1 -0.1)">
      <defs>
       <path id="DejaVuSans-34" d="M 2419 4116 
L 825 1625 
L 2419 1625 
L 2419 4116 
z
M 2253 4666 
L 3047 4666 
L 3047 1625 
L 3713 1625 
L 3713 1100 
L 3047 1100 
L 3047 0 
L 2419 0 
L 2419 1100 
L 313 1100 
L 313 1709 
L 2253 4666 
z
" transform="scale(0.015625)"/>
      </defs>
      <use xlink:href="#DejaVuSans-34"/>
      <use xlink:href="#DejaVuSans-30" x="63.623047"/>
     </g>
    </g>
   </g>
  </g>
  <g id="axes_1">
   <g id="line2d_23">
    <path d="M 222.557435 147.324546 
L 234.081676 160.068066 
L 242.33463 169.834681 
L 248.393357 177.264489 
L 253.36222 182.890274 
L 257.527606 187.06491 
L 261.471651 189.910732 
L 265.85157 191.777566 
L 270.555605 192.455993 
L 275.925366 191.974255 
L 282.012937 190.073801 
L 288.898609 186.685601 
L 296.278587 181.419098 
L 303.8816 174.592408 
L 311.210155 166.192402 
L 317.200259 156.701614 
L 320.485597 147.574217 
L 320.340987 140.301725 
L 316.041595 136.422807 
L 308.497853 136.469686 
L 298.762242 139.590559 
L 288.541612 144.839342 
L 278.863311 150.750648 
L 270.746931 156.50837 
L 264.216732 161.891465 
L 259.33494 166.79986 
L 255.57778 171.238629 
L 253.363407 175.457586 
L 251.905538 179.262005 
L 251.1103 183.070237 
L 250.982982 186.445245 
L 251.21631 189.812864 
L 251.968228 192.677203 
L 253.060262 195.436419 
L 254.681308 197.625079 
L 256.781684 199.538218 
L 259.506987 200.894713 
L 262.831692 201.831158 
L 266.802134 202.012154 
L 271.900435 201.066535 
L 277.985509 199.125924 
L 285.080306 195.551535 
L 293.656546 190.112086 
L 302.671568 182.478521 
L 312.114483 172.603714 
L 320.46392 160.822077 
L 326.195332 148.603885 
L 328.000861 138.019377 
L 324.237655 131.411737 
L 315.386305 130.238295 
L 303.262024 133.813894 
L 290.151895 140.382806 
L 277.947731 147.737554 
L 267.703571 154.887109 
L 259.462076 161.178638 
L 253.561994 166.589248 
L 248.910645 171.406304 
L 245.843639 175.827831 
L 243.61113 180.041359 
L 241.875469 183.977914 
L 239.819364 191.568556 
L 239.221857 195.16853 
L 237.880651 201.728771 
L 237.153481 204.851762 
L 235.309803 210.636603 
L 234.184966 213.383413 
L 230.532523 218.244229 
L 227.993412 220.641337 
L 224.925866 222.6976 
L 220.789446 224.70379 
L 215.706428 226.457719 
L 209.265054 227.45395 
L 201.45889 227.824065 
L 191.829571 226.483132 
L 180.525764 222.829847 
L 167.955895 215.263116 
L 155.570129 202.530913 
L 145.634803 183.874338 
L 141.499936 160.654956 
L 145.357328 137.305576 
L 157.241321 119.672169 
L 173.985678 111.681207 
L 191.780481 112.707372 
L 207.669559 119.718076 
L 220.617392 129.51354 
L 230.716243 139.277118 
L 238.075073 148.694794 
L 243.566387 156.904404 
L 247.818607 164.007473 
L 250.934549 169.85885 
L 253.574466 175.261005 
L 255.852968 179.430098 
L 258.111455 183.090688 
L 260.489593 185.997941 
L 263.254471 188.285017 
L 266.596496 189.677985 
L 270.474774 190.503413 
L 274.760645 190.227343 
L 280.008036 188.864557 
L 285.931234 186.236147 
L 292.662887 182.07253 
L 299.704233 176.594981 
L 306.586092 169.459261 
L 312.691464 161.094059 
L 316.982443 152.715304 
L 318.242439 145.209071 
L 316.243887 140.202928 
L 310.894824 138.206152 
L 302.927984 139.61031 
L 293.740224 143.157083 
L 284.599603 148.31737 
L 276.542177 153.81471 
L 269.645891 159.052188 
L 264.288697 163.935616 
L 260.275198 168.523674 
L 257.523968 172.739429 
L 255.759955 176.538103 
L 254.776396 180.040234 
L 254.50946 183.444067 
L 254.998008 186.573037 
L 255.780685 189.355433 
L 257.197653 191.916922 
L 259.173436 193.787814 
L 261.628341 195.508024 
L 264.974066 196.506425 
L 268.94029 196.7078 
L 273.726614 195.929262 
L 279.478484 194.060585 
L 286.184491 190.881166 
L 293.98391 185.99027 
L 302.131021 178.97275 
L 310.237612 170.226068 
L 317.335318 160.054179 
L 322.365948 149.710157 
L 323.405452 140.743434 
L 320.078649 135.196909 
L 312.805915 133.973009 
L 302.408265 136.734392 
L 291.276479 141.962736 
L 280.472811 148.357522 
L 271.192646 154.767535 
L 263.827491 160.52238 
L 258.04642 165.78181 
L 253.876307 170.397235 
L 251.144942 174.842148 
L 249.101184 178.924331 
L 247.967696 182.776101 
L 247.418993 186.510423 
L 247.093225 189.913963 
L 247.354405 193.318065 
L 247.858181 196.227917 
L 248.582609 199.115007 
L 249.715637 201.650413 
L 251.099985 203.89175 
L 252.682642 205.77818 
L 255.288676 207.305675 
L 258.068338 208.300309 
L 261.703195 208.725049 
L 266.169531 208.387161 
L 271.813166 206.868139 
L 278.619714 204.210056 
L 286.788958 199.63161 
L 296.526398 192.862739 
L 306.943819 183.614781 
L 317.581022 171.418849 
L 326.93904 157.136161 
L 332.574146 142.715668 
L 332.643257 131.29208 
L 325.947906 125.706528 
L 313.876246 126.813113 
L 298.800236 133.107255 
L 283.571598 141.636089 
L 270.301303 150.190376 
L 259.883369 157.569947 
L 251.819676 163.690349 
L 245.686707 168.986927 
L 241.493483 173.643237 
L 238.121267 177.891304 
L 233.888225 185.879245 
L 230.439744 193.501306 
L 228.669176 196.842888 
L 226.564708 200.187747 
L 224.011528 203.263578 
L 221.010901 206.0634 
L 217.229866 208.647489 
L 212.937399 210.754418 
L 207.507052 211.941377 
L 200.967953 212.531282 
L 193.443076 211.737306 
L 184.922114 209.108365 
L 175.736876 203.523034 
L 166.848975 194.963984 
L 159.452241 182.74145 
L 155.489266 167.614074 
L 156.154351 151.792361 
L 161.710108 138.129586 
L 171.632462 129.258577 
L 183.411954 126.333 
L 195.517862 128.256125 
L 206.351343 133.860977 
L 215.451205 141.042654 
L 222.59091 148.944929 
L 227.732228 156.555876 
L 231.692836 163.58783 
L 234.381846 170.093501 
L 236.251888 175.971468 
L 237.473887 181.242452 
L 238.111202 186.120082 
L 238.495691 190.588816 
L 238.676512 194.522409 
L 238.66942 198.254284 
L 238.493197 201.803606 
L 237.692035 207.894562 
L 236.307047 213.281584 
L 235.113827 215.909038 
L 233.668524 218.192645 
L 231.966638 220.599088 
L 229.764145 222.729171 
L 226.989342 224.880953 
L 223.377291 226.786162 
L 218.769888 228.531632 
L 212.984772 229.940174 
L 205.539789 230.535516 
L 196.488911 229.977675 
L 185.482168 227.582132 
L 172.663673 221.599565 
L 159.53971 210.899584 
L 147.393422 193.99665 
L 140.00606 171.041132 
L 140.403086 145.54916 
L 149.714855 123.682434 
L 165.983493 110.887769 
L 184.855641 108.74943 
L 202.713172 114.34636 
L 217.459486 123.905533 
L 228.971714 134.459932 
L 237.545956 144.292741 
L 244.192635 153.058491 
L 248.707604 160.597521 
L 252.2951 166.929242 
L 255.404798 172.164939 
L 257.939912 176.688469 
L 260.368702 180.285859 
L 263.125088 183.258805 
L 265.837904 185.329437 
L 269.276116 186.565124 
L 273.057568 187.037823 
L 277.618015 186.625885 
L 282.836304 185.108083 
L 288.531013 182.281601 
L 294.792526 178.218878 
L 301.139339 172.544314 
L 307.253612 165.768643 
L 311.726368 158.339194 
L 314.879795 151.16127 
L 314.931757 145.099264 
L 312.286024 141.668085 
L 306.804828 140.931608 
L 299.453404 142.578239 
L 291.238086 146.180749 
L 283.333052 150.741426 
L 276.251322 155.726424 
L 270.468475 160.428974 
L 265.873527 164.842681 
L 262.559526 169.069158 
L 260.329191 172.890195 
L 258.948981 176.556006 
L 258.472087 179.740066 
L 258.727911 182.777959 
L 259.389431 185.524311 
L 261.0678 187.897488 
L 263.040074 189.768818 
L 265.709953 190.983915 
L 268.913803 191.709316 
L 273.178507 191.599419 
L 278.069441 190.537436 
L 283.859732 188.229584 
L 290.373872 184.42107 
L 297.368617 179.18633 
L 304.658072 172.464064 
L 311.271811 164.244801 
L 316.404871 155.539063 
L 318.923607 147.198568 
L 318.090142 140.878134 
L 313.63216 137.838788 
L 306.204349 138.229915 
L 296.93625 141.384521 
L 287.499279 146.395325 
L 278.632801 151.894487 
L 271.130892 157.29424 
L 265.301086 162.524507 
L 260.677656 167.072658 
L 257.510499 171.514433 
L 255.476848 175.470818 
L 254.145842 179.200202 
L 253.552175 182.844169 
L 253.751401 186.043626 
L 254.208717 189.010627 
L 255.450045 191.701324 
L 257.147846 193.979669 
L 259.193991 195.995132 
L 261.966937 197.320837 
L 265.504516 198.027147 
L 269.768016 197.933108 
L 274.943634 196.907454 
L 281.051396 194.708767 
L 288.227657 190.763981 
L 296.26546 185.115168 
L 304.739644 177.386158 
L 313.21257 167.800826 
L 320.020699 156.866572 
L 324.084526 146.344121 
L 324.133493 137.934372 
L 319.3079 133.279726 
L 310.453396 133.505957 
L 299.195492 137.340328 
L 287.363821 143.522201 
L 276.673061 150.260208 
L 267.865662 156.661884 
L 260.890106 162.417395 
L 255.576267 167.507709 
L 251.722062 172.09212 
L 248.950708 176.423138 
L 247.263645 180.439844 
L 246.144712 184.30728 
L 245.570703 187.992437 
L 245.298686 191.378549 
L 245.21886 194.850058 
L 245.457688 197.933581 
L 246.001285 200.817051 
L 246.712906 203.457458 
L 247.56509 205.978937 
L 248.737987 208.070803 
L 250.342757 209.901101 
L 252.208893 211.384465 
L 254.771339 212.73112 
L 257.769827 213.329096 
L 261.550472 213.315691 
L 266.380761 212.363869 
L 272.537756 210.42061 
L 280.04778 207.092169 
L 288.93995 201.631488 
L 299.377808 193.715379 
L 310.874233 182.605822 
L 322.491727 168.592445 
L 331.928081 152.523925 
L 336.756875 137.126794 
L 334.793249 125.909186 
L 325.201766 122.233309 
L 310.183846 125.929979 
L 293.20034 134.475599 
L 277.407368 144.167887 
L 263.983086 152.805533 
L 253.58305 160.094643 
L 245.931391 165.934814 
L 240.327159 170.907488 
L 236.028871 175.270665 
L 232.965503 179.372038 
L 230.355549 183.155994 
L 228.240644 186.98135 
L 226.0711 190.452919 
L 223.729897 193.923344 
L 221.036775 197.072396 
L 218.019066 199.941962 
L 214.378512 202.332181 
L 210.112133 204.259833 
L 205.001155 205.58815 
L 198.95406 205.959316 
L 192.141693 204.823736 
L 184.625481 202.009271 
L 176.817849 196.716534 
L 169.667721 188.871248 
L 163.879957 178.4571 
L 161.085215 165.924941 
L 161.93423 153.236246 
L 166.797561 142.463587 
L 174.689669 135.337347 
L 184.486949 132.826926 
L 194.487563 134.204437 
L 203.603175 138.65268 
L 211.427539 144.734087 
L 217.544281 151.306972 
L 222.243268 158.132816 
L 225.558247 164.703202 
L 227.917689 170.803504 
L 229.26953 176.379716 
L 229.940278 181.611596 
L 229.980449 186.398038 
L 229.520952 190.671264 
L 228.482986 194.674913 
L 227.161307 198.507773 
L 225.167419 201.827507 
L 222.836338 205.121985 
L 222.836338 205.121985 
" clip-path="url(#pdfe824a8a2)" style="fill: none; stroke: #0000cc; stroke-linecap: square"/>
   </g>
   <g id="line2d_24">
    <path d="M 222.565051 147.310392 
L 234.089432 160.097731 
L 253.290531 182.89664 
L 257.55057 187.037298 
L 261.639565 189.951834 
L 265.892566 191.743933 
L 270.572647 192.420806 
L 275.878797 191.901618 
L 281.932226 190.034234 
L 288.752461 186.625775 
L 296.210337 181.492976 
L 303.93941 174.568131 
L 311.262592 166.063011 
L 317.187882 156.647546 
L 320.533329 147.551353 
L 320.288247 140.362354 
L 316.073526 136.471976 
L 308.444028 136.409162 
L 298.721494 139.600991 
L 288.457224 144.786589 
L 278.894668 150.706898 
L 270.746011 156.53902 
L 264.248432 161.928107 
L 259.336596 166.822897 
L 255.802256 171.301395 
L 253.400207 175.456937 
L 251.901995 179.354973 
L 251.120436 183.028431 
L 250.917596 186.482918 
L 251.202645 189.70353 
L 251.926306 192.662507 
L 253.075604 195.324485 
L 254.669543 197.64554 
L 256.756041 199.566808 
L 259.410869 201.007191 
L 262.736825 201.857135 
L 266.858063 201.970177 
L 271.907585 201.148588 
L 278.010469 199.127543 
L 285.248766 195.576307 
L 293.582624 190.133907 
L 302.742561 182.487546 
L 312.08916 172.561343 
L 320.479117 160.823667 
L 326.311142 148.579671 
L 327.876447 137.997563 
L 324.122921 131.428212 
L 315.352525 130.203697 
L 303.277044 133.81173 
L 290.190646 140.353542 
L 277.977981 147.80205 
L 267.668886 154.871273 
L 259.537876 161.105743 
L 253.415035 166.54113 
L 248.948926 171.379894 
L 245.75938 175.823434 
L 243.507121 180.00975 
L 241.913462 184.011653 
L 240.76072 187.858849 
L 239.88533 191.559018 
L 237.13596 204.844989 
L 236.294394 207.789598 
L 235.276117 210.596092 
L 234.018514 213.273822 
L 232.447367 215.83092 
L 230.470631 218.271826 
L 227.972349 220.592463 
L 224.80787 222.770857 
L 220.800078 224.751432 
L 215.736183 226.420554 
L 209.372237 227.566721 
L 201.461296 227.816354 
L 191.822266 226.547079 
L 180.484602 222.799157 
L 167.942377 215.255752 
L 155.531242 202.500991 
L 145.648698 183.834456 
L 141.456569 160.64334 
L 145.356036 137.308587 
L 157.174543 119.723932 
L 173.892437 111.635904 
L 191.613678 112.683697 
L 207.56606 119.707783 
L 220.583967 129.351547 
L 230.619408 139.366744 
L 238.113237 148.662735 
L 243.63946 156.864418 
L 247.749049 163.941882 
L 255.81778 179.491863 
L 258.105869 183.107991 
L 260.554129 186.032529 
L 263.320081 188.266454 
L 266.540338 189.76912 
L 270.336782 190.458906 
L 274.811883 190.214628 
L 280.032709 188.876946 
L 286.005343 186.257435 
L 292.63513 182.171533 
L 299.66276 176.511571 
L 306.589297 169.360021 
L 312.646444 161.126321 
L 316.864102 152.663286 
L 318.269453 145.223745 
L 316.248049 140.128588 
L 310.880513 138.237157 
L 302.989824 139.552951 
L 293.853499 143.289504 
L 284.727287 148.34304 
L 276.506938 153.782571 
L 269.655304 159.05995 
L 264.28819 163.961382 
L 260.311632 168.466325 
L 257.540789 172.627377 
L 255.775579 176.501492 
L 254.839165 180.122309 
L 254.593356 183.495628 
L 254.942312 186.604313 
L 255.831383 189.414385 
L 257.244288 191.878269 
L 259.199687 193.933877 
L 261.747085 195.499924 
L 264.961426 196.468614 
L 268.935169 196.697124 
L 273.765721 195.99984 
L 279.534231 194.144756 
L 286.268615 190.861132 
L 293.881022 185.872398 
L 302.074591 178.977823 
L 310.236697 170.209805 
L 317.373555 160.063017 
L 322.177255 149.687494 
L 323.334396 140.814965 
L 320.08049 135.23878 
L 312.689971 133.970753 
L 302.478331 136.681217 
L 291.235819 142.004777 
L 280.517204 148.388734 
L 271.266802 154.736621 
L 263.831804 160.555711 
L 258.164875 165.772102 
L 254.028798 170.490211 
L 251.132493 174.84074 
L 249.201537 178.921459 
L 248.007266 182.788336 
L 247.374208 186.463952 
L 247.177165 189.948569 
L 247.334426 193.229447 
L 247.80078 196.287401 
L 248.561899 199.100253 
L 249.630368 201.643036 
L 251.043112 203.885121 
L 252.860045 205.784879 
L 255.16417 207.282844 
L 258.063544 208.293894 
L 261.694099 208.697502 
L 266.218903 208.32351 
L 271.817133 206.931995 
L 278.658893 204.192995 
L 286.85963 199.68435 
L 296.388606 192.931544 
L 306.906679 183.51642 
L 317.563207 171.34848 
L 326.823013 157.137483 
L 332.541801 142.77983 
L 332.592241 131.322194 
L 325.985084 125.666277 
L 313.815435 126.802072 
L 298.731836 133.103807 
L 283.640962 141.677121 
L 270.434016 150.188481 
L 259.831081 157.588178 
L 251.759786 163.769802 
L 245.805538 169.024308 
L 241.468369 173.680654 
L 238.280099 177.978532 
L 235.855481 182.058032 
L 233.891101 185.983298 
L 230.435873 193.414522 
L 228.598468 196.895825 
L 226.500828 200.192668 
L 224.016463 203.275231 
L 221.016722 206.098567 
L 217.363946 208.590636 
L 212.911701 210.635787 
L 207.516229 212.051195 
L 201.061474 212.55379 
L 193.501114 211.7221 
L 184.941349 208.973078 
L 175.783451 203.597061 
L 166.85827 194.924905 
L 159.506319 182.701873 
L 155.407327 167.633879 
L 156.001877 151.77251 
L 161.698544 138.095538 
L 171.512576 129.250272 
L 183.463173 126.262568 
L 195.563 128.379003 
L 206.432602 133.903486 
L 215.442842 141.15215 
L 222.499959 148.918877 
L 227.79641 156.509175 
L 231.635872 163.602691 
L 234.334943 170.092535 
L 236.173237 175.977662 
L 237.377215 181.30524 
L 238.119978 186.138964 
L 238.527811 190.543057 
L 238.688482 194.575857 
L 238.658796 198.287933 
L 238.471029 201.722374 
L 238.138195 204.916159 
L 237.657878 207.90157 
L 237.014365 210.706962 
L 236.178976 213.356941 
L 235.108756 215.872436 
L 233.743842 218.27081 
L 232.004021 220.565259 
L 229.784967 222.762044 
L 226.953933 224.853786 
L 223.343899 226.807071 
L 218.746694 228.541766 
L 212.912185 229.896908 
L 205.566883 230.576002 
L 196.46189 230.064574 
L 185.471042 227.518863 
L 172.818661 221.677316 
L 159.454402 210.958523 
L 147.4275 194.011281 
L 139.982602 171.106231 
L 140.32983 145.525228 
L 149.826512 123.645676 
L 166.033191 110.907248 
L 184.876979 108.736029 
L 202.604302 114.37862 
L 217.430861 123.914461 
L 228.986615 134.406756 
L 237.662678 144.310517 
L 244.067213 153.052791 
L 248.81275 160.546261 
L 257.923029 176.65428 
L 260.405972 180.289981 
L 263.013612 183.168539 
L 265.913383 185.296764 
L 269.242095 186.642281 
L 273.111785 187.13249 
L 277.60468 186.656837 
L 282.754962 185.076121 
L 288.519322 182.243238 
L 294.740848 178.044948 
L 301.101442 172.474565 
L 307.068985 165.732492 
L 311.909419 158.33252 
L 314.79697 151.142177 
L 315.013244 145.247543 
L 312.246983 141.633386 
L 306.782952 140.797487 
L 299.440466 142.543821 
L 291.300917 146.154068 
L 283.352435 150.75533 
L 276.27801 155.643697 
L 270.422782 160.413504 
L 265.871167 164.896861 
L 262.550255 169.057506 
L 260.316632 172.913397 
L 259.01583 176.490174 
L 258.513879 179.797189 
L 258.709507 182.819647 
L 259.537165 185.520462 
L 260.966782 187.844921 
L 263.001735 189.722427 
L 265.674442 191.06297 
L 269.038702 191.750125 
L 273.157538 191.634825 
L 278.084384 190.534272 
L 283.834719 188.239559 
L 290.344687 184.537772 
L 297.411545 179.262331 
L 304.616017 172.391818 
L 311.25805 164.199401 
L 316.377847 155.400302 
L 318.92297 147.179682 
L 318.068994 140.954738 
L 313.61693 137.856383 
L 306.191357 138.207134 
L 297.026167 141.402041 
L 287.495986 146.314495 
L 278.675701 151.865558 
L 271.176607 157.353648 
L 265.205755 162.47078 
L 260.706872 167.162553 
L 257.500298 171.479851 
L 255.373708 175.489767 
L 254.129267 179.240196 
L 253.606089 182.751378 
L 253.68807 186.017842 
L 254.30344 189.013849 
L 255.420958 191.698823 
L 257.045448 194.020079 
L 259.213536 195.911108 
L 261.989559 197.285137 
L 265.461078 198.025293 
L 269.732175 197.973984 
L 274.910044 196.924913 
L 281.077923 194.621906 
L 288.248763 190.770923 
L 296.29515 185.08136 
L 304.843033 177.371738 
L 313.147037 167.766808 
L 320.051353 156.951 
L 324.118099 146.33783 
L 324.032133 137.877663 
L 319.257561 133.359326 
L 310.437477 133.455861 
L 299.230169 137.383381 
L 287.538757 143.492219 
L 276.823526 150.210648 
L 267.846132 156.603275 
L 260.789109 162.342427 
L 255.496287 167.454962 
L 251.676213 172.089613 
L 249.01715 176.38776 
L 247.239986 180.442974 
L 246.118655 184.303642 
L 245.482423 187.987077 
L 245.209899 191.492208 
L 245.220724 194.808705 
L 245.467611 197.92321 
L 245.929762 200.822447 
L 246.6081 203.493015 
L 247.522547 205.919054 
L 248.711378 208.079367 
L 250.232286 209.944335 
L 252.164403 211.471633 
L 254.610598 212.599343 
L 257.699976 213.235525 
L 261.59069 213.24392 
L 266.470958 212.42611 
L 272.550232 210.501017 
L 280.028828 207.083468 
L 289.038134 201.67197 
L 299.524171 193.695118 
L 311.036726 182.686884 
L 322.489536 168.623651 
L 331.927497 152.573597 
L 336.744704 137.073171 
L 334.756928 125.97238 
L 325.156291 122.16705 
L 310.154008 125.911409 
L 293.192537 134.361114 
L 277.230115 144.063335 
L 263.925101 152.845557 
L 253.588998 160.063247 
L 245.887688 165.924605 
L 240.248156 170.869323 
L 236.101561 175.26775 
L 232.958428 179.352762 
L 230.423252 183.241813 
L 226.013822 190.54755 
L 223.705457 193.929208 
L 221.099366 197.075191 
L 218.05112 199.923944 
L 214.428035 202.387769 
L 210.105125 204.338317 
L 204.974641 205.587892 
L 198.975058 205.867277 
L 192.129692 204.807682 
L 184.61233 201.944203 
L 176.851071 196.771987 
L 169.597 188.907907 
L 163.930177 178.376745 
L 161.069981 165.947162 
L 161.95846 153.261709 
L 166.777853 142.479993 
L 174.748191 135.427089 
L 184.471209 132.847068 
L 194.460011 134.300683 
L 203.629259 138.649046 
L 211.392424 144.661027 
L 217.57532 151.368996 
L 222.252576 158.152987 
L 225.614409 164.67276 
L 227.882207 170.775671 
L 229.262698 176.415794 
L 229.923301 181.601007 
L 229.987465 186.362371 
L 229.536087 190.740501 
L 228.609396 194.773024 
L 227.204983 198.486299 
L 225.305108 201.900672 
L 222.818757 205.007435 
L 222.818757 205.007435 
" clip-path="url(#pdfe824a8a2)" style="fill: none; stroke: #ff0000; stroke-linecap: square"/>
   </g>
  </g>
 </g>
 <defs>
  <clipPath id="pdfe824a8a2">
   <rect x="103.104" y="41.472" width="266.112" height="266.112"/>
  </clipPath>
 </defs>
</svg>
