<?xml version="1.0" encoding="utf-8" standalone="no"?>
<!DOCTYPE svg PUBLIC "-//W3C//DTD SVG 1.1//EN"
  "http://www.w3.org/Graphics/SVG/1.1/DTD/svg11.dtd">
<svg xmlns:xlink="http://www.w3.org/1999/xlink" width="460.8pt" height="345.6pt" viewBox="0 0 460.8 345.6" xmlns="http://www.w3.org/2000/svg" version="1.1">
 <metadata>
  <rdf:RDF xmlns:dc="http://purl.org/dc/elements/1.1/" xmlns:cc="http://creativecommons.org/ns#" xmlns:rdf="http://www.w3.org/1999/02/22-rdf-syntax-ns#">
   <cc:Work>
    <dc:type rdf:resource="http://purl.org/dc/dcmitype/StillImage"/>
    <dc:date>2023-10-24T02:42:40.693468</dc:date>
    <dc:format>image/svg+xml</dc:format>
    <dc:creator>
     <cc:Agent>
      <dc:title>Matplotlib v3.5.2, https://matplotlib.org/</dc:title>
     </cc:Agent>
    </dc:creator>
   </cc:Work>
  </rdf:RDF>
 </metadata>
 <defs>
  <style type="text/css">*{stroke-linejoin: round; stroke-linecap: butt}</style>
 </defs>
 <g id="figure_1">
  <g id="patch_1">
   <path d="M 0 345.6 
L 460.8 345.6 
L 460.8 0 
L 0 0 
z
" style="fill: #ffffff"/>
  </g>
  <g id="axes_1">
   <g id="patch_2">
    <path d="M 57.6 119.740235 
L 414.72 119.740235 
L 414.72 41.472 
L 57.6 41.472 
z
" style="fill: #ffffff"/>
   </g>
   <g id="matplotlib.axis_1">
    <g id="xtick_1">
     <g id="line2d_1">
      <defs>
       <path id="mdd9d2ec660" d="M 0 0 
L 0 3.5 
" style="stroke: #000000; stroke-width: 0.8"/>
      </defs>
      <g>
       <use xlink:href="#mdd9d2ec660" x="57.6" y="119.740235" style="stroke: #000000; stroke-width: 0.8"/>
      </g>
     </g>
    </g>
    <g id="xtick_2">
     <g id="line2d_2">
      <g>
       <use xlink:href="#mdd9d2ec660" x="105.216" y="119.740235" style="stroke: #000000; stroke-width: 0.8"/>
      </g>
     </g>
    </g>
    <g id="xtick_3">
     <g id="line2d_3">
      <g>
       <use xlink:href="#mdd9d2ec660" x="152.832" y="119.740235" style="stroke: #000000; stroke-width: 0.8"/>
      </g>
     </g>
    </g>
    <g id="xtick_4">
     <g id="line2d_4">
      <g>
       <use xlink:href="#mdd9d2ec660" x="200.448" y="119.740235" style="stroke: #000000; stroke-width: 0.8"/>
      </g>
     </g>
    </g>
    <g id="xtick_5">
     <g id="line2d_5">
      <g>
       <use xlink:href="#mdd9d2ec660" x="248.064" y="119.740235" style="stroke: #000000; stroke-width: 0.8"/>
      </g>
     </g>
    </g>
    <g id="xtick_6">
     <g id="line2d_6">
      <g>
       <use xlink:href="#mdd9d2ec660" x="295.68" y="119.740235" style="stroke: #000000; stroke-width: 0.8"/>
      </g>
     </g>
    </g>
    <g id="xtick_7">
     <g id="line2d_7">
      <g>
       <use xlink:href="#mdd9d2ec660" x="343.296" y="119.740235" style="stroke: #000000; stroke-width: 0.8"/>
      </g>
     </g>
    </g>
    <g id="xtick_8">
     <g id="line2d_8">
      <g>
       <use xlink:href="#mdd9d2ec660" x="390.912" y="119.740235" style="stroke: #000000; stroke-width: 0.8"/>
      </g>
     </g>
    </g>
    <g id="xtick_9">
     <g id="line2d_9">
      <g>
       <use xlink:href="#mdd9d2ec660" x="414.72" y="119.740235" style="stroke: #000000; stroke-width: 0.8"/>
      </g>
     </g>
    </g>
   </g>
   <g id="matplotlib.axis_2">
    <g id="ytick_1">
     <g id="line2d_10">
      <defs>
       <path id="mff92e8d47a" d="M 0 0 
L -3.5 0 
" style="stroke: #000000; stroke-width: 0.8"/>
      </defs>
      <g>
       <use xlink:href="#mff92e8d47a" x="57.6" y="116.182798" style="stroke: #000000; stroke-width: 0.8"/>
      </g>
     </g>
     <g id="text_1">
      <!-- 0 -->
      <g transform="translate(44.2375 119.982017)scale(0.1 -0.1)">
       <defs>
        <path id="DejaVuSans-30" d="M 2034 4250 
Q 1547 4250 1301 3770 
Q 1056 3291 1056 2328 
Q 1056 1369 1301 889 
Q 1547 409 2034 409 
Q 2525 409 2770 889 
Q 3016 1369 3016 2328 
Q 3016 3291 2770 3770 
Q 2525 4250 2034 4250 
z
M 2034 4750 
Q 2819 4750 3233 4129 
Q 3647 3509 3647 2328 
Q 3647 1150 3233 529 
Q 2819 -91 2034 -91 
Q 1250 -91 836 529 
Q 422 1150 422 2328 
Q 422 3509 836 4129 
Q 1250 4750 2034 4750 
z
" transform="scale(0.015625)"/>
       </defs>
       <use xlink:href="#DejaVuSans-30"/>
      </g>
     </g>
    </g>
    <g id="ytick_2">
     <g id="line2d_11">
      <g>
       <use xlink:href="#mff92e8d47a" x="57.6" y="68.643344" style="stroke: #000000; stroke-width: 0.8"/>
      </g>
     </g>
     <g id="text_2">
      <!-- 20 -->
      <g transform="translate(37.875 72.442563)scale(0.1 -0.1)">
       <defs>
        <path id="DejaVuSans-32" d="M 1228 531 
L 3431 531 
L 3431 0 
L 469 0 
L 469 531 
Q 828 903 1448 1529 
Q 2069 2156 2228 2338 
Q 2531 2678 2651 2914 
Q 2772 3150 2772 3378 
Q 2772 3750 2511 3984 
Q 2250 4219 1831 4219 
Q 1534 4219 1204 4116 
Q 875 4013 500 3803 
L 500 4441 
Q 881 4594 1212 4672 
Q 1544 4750 1819 4750 
Q 2544 4750 2975 4387 
Q 3406 4025 3406 3419 
Q 3406 3131 3298 2873 
Q 3191 2616 2906 2266 
Q 2828 2175 2409 1742 
Q 1991 1309 1228 531 
z
" transform="scale(0.015625)"/>
       </defs>
       <use xlink:href="#DejaVuSans-32"/>
       <use xlink:href="#DejaVuSans-30" x="63.623047"/>
      </g>
     </g>
    </g>
   </g>
   <g id="line2d_12">
    <path d="M 57.6 116.144649 
L 59.980809 116.125718 
L 64.147191 116.143417 
L 65.337595 116.120551 
L 67.123191 116.085918 
L 74.265595 116.112625 
L 78.432 115.894819 
L 80.217595 115.645976 
L 81.408 115.35014 
L 82.598405 114.871726 
L 83.788809 114.109641 
L 84.979191 112.974846 
L 86.169595 111.642211 
L 86.764809 111.211203 
L 87.36 111.328941 
L 87.955191 112.388177 
L 88.550405 114.602802 
L 89.145595 114.711259 
L 89.740809 111.746619 
L 90.336 109.862655 
L 90.931191 109.323369 
L 91.526405 109.741588 
L 93.907191 113.895096 
L 94.502405 114.540163 
L 95.097595 114.98932 
L 95.692809 115.275762 
L 96.883191 115.464692 
L 98.073595 115.327311 
L 101.644809 114.515387 
L 102.24 114.640377 
L 102.835191 114.941535 
L 104.025595 116.032033 
L 104.620809 115.673769 
L 105.811191 114.610443 
L 106.406405 114.336781 
L 107.001595 114.245693 
L 108.192 114.460397 
L 112.953595 116.164284 
L 117.12 114.873739 
L 117.715191 114.852054 
L 118.310405 114.968223 
L 118.905595 115.246993 
L 120.096 116.154316 
L 121.286405 115.140885 
L 121.881595 114.812258 
L 122.476809 114.638847 
L 123.667191 114.662824 
L 126.048 115.259886 
L 128.428809 115.752807 
L 130.809595 116.176562 
L 134.380809 115.365626 
L 134.976 115.396449 
L 136.166405 115.80453 
L 136.761595 116.130629 
L 139.142405 115.289518 
L 140.332809 115.195479 
L 145.689595 115.121854 
L 148.070405 114.936112 
L 149.260809 115.081766 
L 149.856 115.312358 
L 151.046405 116.181362 
L 152.236809 115.062162 
L 152.832 114.679656 
L 153.427191 114.536578 
L 154.022405 114.630505 
L 155.212809 115.269838 
L 156.403191 116.061667 
L 156.998405 115.957649 
L 158.784 115.19326 
L 161.76 114.067869 
L 162.950405 113.372495 
L 164.140809 112.444893 
L 165.926405 110.900582 
L 166.521595 110.62816 
L 167.116809 110.737224 
L 167.712 111.446863 
L 168.307191 112.93252 
L 168.902405 115.193594 
L 169.497595 114.432481 
L 170.092809 111.785977 
L 170.688 109.848044 
L 171.283191 108.968316 
L 171.878405 109.108046 
L 172.473595 109.977931 
L 174.854405 115.042274 
L 175.449595 115.984997 
L 176.044809 115.607556 
L 177.235191 114.403788 
L 179.020809 112.786983 
L 180.211191 111.360445 
L 180.806405 110.418644 
L 181.401595 109.259356 
L 181.996809 107.82398 
L 182.592 106.044536 
L 183.187191 103.845455 
L 183.782405 101.148764 
L 184.972809 94.042651 
L 187.353595 76.813847 
L 187.948809 74.645614 
L 188.544 74.442297 
L 189.139191 76.085616 
L 190.924809 84.136528 
L 191.52 85.057644 
L 192.115191 84.363219 
L 192.710405 82.157719 
L 193.900809 75.900334 
L 194.496 74.347003 
L 195.091191 75.653798 
L 195.686405 80.252988 
L 196.876809 95.53139 
L 198.067191 111.106692 
L 198.662405 114.9844 
L 199.852809 105.153574 
L 202.828809 84.275673 
L 205.209618 64.474141 
L 205.804809 61.436975 
L 206.4 60.212485 
L 206.995191 60.869217 
L 207.590382 63.070733 
L 208.780809 70.012124 
L 212.352 93.460061 
L 213.542382 99.46059 
L 214.137618 101.773233 
L 214.732809 103.621314 
L 215.328 105.035415 
L 215.923191 106.061065 
L 216.518382 106.749338 
L 217.113618 107.150202 
L 217.708809 107.309646 
L 218.304 107.269108 
L 218.899191 107.067607 
L 220.089618 106.352396 
L 221.28 105.641196 
L 221.875191 105.550435 
L 222.470382 105.864813 
L 223.065618 106.817885 
L 223.660809 108.666373 
L 224.256 111.618677 
L 224.851191 115.705009 
L 225.446382 111.750794 
L 226.041618 106.781126 
L 226.636809 102.857971 
L 227.232 101.009112 
L 227.827191 101.655173 
L 228.422382 104.411252 
L 230.208 115.629888 
L 231.398382 109.263798 
L 232.588809 104.834159 
L 234.969618 97.168225 
L 236.16 91.959686 
L 237.350382 85.001918 
L 238.540809 76.295682 
L 240.326382 62.781332 
L 240.921618 59.516566 
L 241.516809 57.561315 
L 242.112 57.235822 
L 242.707191 58.695373 
L 243.302382 61.875306 
L 243.897618 66.471083 
L 246.278382 88.447587 
L 246.873618 92.614805 
L 247.468809 95.859574 
L 248.064 98.199188 
L 248.659191 99.702998 
L 249.254382 100.457809 
L 249.849618 100.544227 
L 250.444809 100.02433 
L 251.04 98.93757 
L 251.635191 97.301561 
L 252.230382 95.117489 
L 252.825618 92.379719 
L 254.016 85.281093 
L 256.992 64.07776 
L 257.587191 61.346936 
L 258.182382 59.697535 
L 258.777618 59.239496 
L 259.372809 60.08092 
L 259.968 62.341044 
L 260.563191 66.048557 
L 261.753618 76.764092 
L 262.944 88.346651 
L 263.539191 93.232528 
L 264.134382 97.188725 
L 264.729618 100.171088 
L 265.324809 102.232517 
L 265.92 103.468274 
L 266.515191 103.980307 
L 267.110382 103.85613 
L 267.705618 103.159498 
L 268.300809 101.92912 
L 268.896 100.183299 
L 269.491191 97.93021 
L 270.681618 91.990614 
L 273.062382 78.312708 
L 273.657618 76.27913 
L 274.252809 75.370953 
L 274.848 75.495857 
L 276.038382 77.085051 
L 276.633618 77.452123 
L 277.228809 77.016255 
L 277.824 75.730432 
L 279.014382 72.224827 
L 279.609618 71.588928 
L 280.204809 72.787346 
L 280.8 76.085081 
L 281.990382 86.86977 
L 283.180809 97.627284 
L 283.776 101.617992 
L 284.371191 104.493712 
L 284.966382 106.310688 
L 285.561618 107.181767 
L 286.156809 107.22549 
L 286.752 106.542526 
L 287.347191 105.212865 
L 287.942382 103.308296 
L 289.132809 98.204893 
L 290.323191 93.077045 
L 290.918382 91.730577 
L 291.513618 92.076727 
L 292.108809 94.625319 
L 292.704 99.472986 
L 293.894382 114.095301 
L 294.489618 110.047281 
L 295.68 95.489752 
L 296.275191 90.423848 
L 296.870382 87.47267 
L 297.465618 86.783185 
L 298.060809 88.122019 
L 298.656 90.934985 
L 301.036809 104.749982 
L 301.632 107.104872 
L 302.227191 108.858821 
L 302.822382 110.070815 
L 303.417618 110.815392 
L 304.012809 111.161905 
L 304.608 111.164123 
L 305.203191 110.855115 
L 305.798382 110.245634 
L 306.393618 109.323616 
L 306.988809 108.053841 
L 307.584 106.377273 
L 308.179191 104.21018 
L 308.774382 101.444446 
L 309.369618 97.950845 
L 309.964809 93.591325 
L 310.56 88.249156 
L 311.750382 74.657932 
L 312.940809 59.809808 
L 313.536 54.134396 
L 314.131191 50.914809 
L 314.726382 50.43272 
L 315.321618 52.346107 
L 315.916809 56.280555 
L 316.512 62.06435 
L 317.702382 77.945623 
L 319.488 103.25511 
L 320.678382 115.104098 
L 321.273618 112.950475 
L 322.464 106.434376 
L 325.44 92.565652 
L 326.630382 85.47882 
L 328.416 74.332233 
L 329.011191 71.357966 
L 329.606382 69.086509 
L 330.201618 67.531722 
L 330.796809 66.56394 
L 331.392 66.014615 
L 331.987191 65.822306 
L 332.582382 66.127811 
L 333.177618 67.244883 
L 333.772809 69.492276 
L 334.368 72.977623 
L 335.558382 82.501836 
L 336.748809 91.953675 
L 337.344 95.622386 
L 337.939191 98.367232 
L 338.534382 100.18308 
L 339.129618 101.128356 
L 339.724809 101.282873 
L 340.32 100.724875 
L 340.915191 99.520622 
L 341.510382 97.728156 
L 342.700809 92.657852 
L 344.486382 83.710814 
L 345.081618 81.559925 
L 345.676809 80.428965 
L 346.272 80.504751 
L 346.867191 81.699755 
L 348.652809 87.780413 
L 349.248 89.018831 
L 349.843191 89.277337 
L 350.438382 88.395004 
L 351.033618 86.344903 
L 351.628809 83.261707 
L 352.819191 75.72402 
L 353.414382 72.83312 
L 354.009618 71.780847 
L 354.604809 73.120865 
L 355.2 76.675361 
L 356.985618 91.558764 
L 357.580809 95.160122 
L 358.176 97.456627 
L 358.771191 98.444235 
L 359.366382 98.238316 
L 359.961618 97.026535 
L 360.556809 95.068856 
L 361.747191 90.477537 
L 362.342382 88.935648 
L 362.937618 88.724445 
L 363.532809 90.307936 
L 364.128 93.794824 
L 364.723191 98.880811 
L 365.913618 111.610501 
L 366.508809 114.109404 
L 367.699191 101.700775 
L 368.889618 91.677651 
L 369.484809 88.171817 
L 370.08 86.101982 
L 370.675191 85.704302 
L 371.270382 86.981847 
L 371.865618 89.654471 
L 373.056 97.203231 
L 374.246382 104.683937 
L 375.436809 110.422626 
L 376.627191 114.548195 
L 377.222382 116.103787 
L 379.008 110.910169 
L 380.198382 106.259698 
L 381.388809 99.965431 
L 382.579191 93.07331 
L 383.174382 90.761968 
L 383.769618 90.479833 
L 384.364809 93.146214 
L 384.96 99.0907 
L 385.555191 107.711672 
L 386.150382 114.636541 
L 387.340809 95.730131 
L 387.936 88.974763 
L 388.531191 84.947287 
L 389.126382 83.757347 
L 389.721618 84.970147 
L 390.316809 87.775439 
L 392.102382 97.782505 
L 392.697618 100.056363 
L 393.292809 101.525543 
L 393.888 102.206327 
L 394.483191 102.154731 
L 395.078382 101.437621 
L 395.673618 100.121787 
L 396.268809 98.277436 
L 397.459191 93.409818 
L 398.649618 88.276973 
L 399.244809 86.430229 
L 399.84 85.602699 
L 400.435191 86.097686 
L 401.030382 87.993388 
L 401.625618 91.107479 
L 402.816 99.493717 
L 404.601618 112.662513 
L 405.196809 115.581487 
L 406.982382 102.59991 
L 408.768 87.894742 
L 409.363191 84.307766 
L 409.958382 82.950448 
L 410.553618 84.655058 
L 411.148809 89.512007 
L 412.339191 105.300694 
L 412.934382 114.065719 
L 413.529618 109.913431 
L 414.72 95.123123 
L 414.72 95.123123 
" clip-path="url(#p33542d05fe)" style="fill: none; stroke: #0000cc; stroke-width: 1.5; stroke-linecap: square"/>
   </g>
   <g id="line2d_13">
    <path d="M 57.6 116.182341 
L 73.075191 116.176849 
L 82.003191 116.077362 
L 84.979191 115.841393 
L 87.36 115.575817 
L 87.955191 115.64096 
L 88.550405 115.836453 
L 89.145595 116.165722 
L 90.336 115.526319 
L 90.931191 115.36813 
L 92.121595 115.449347 
L 94.502405 115.918785 
L 96.288 116.047985 
L 99.264 116.01041 
L 102.24 115.981486 
L 104.620809 116.107974 
L 106.406405 115.928919 
L 108.787191 115.99898 
L 112.358405 116.148724 
L 117.715191 115.966971 
L 120.691191 116.03177 
L 122.476809 115.900988 
L 125.452809 116.064172 
L 127.833595 116.163518 
L 133.785595 115.952897 
L 136.166405 116.087877 
L 137.952 115.88523 
L 139.737595 115.939884 
L 143.904 116.163662 
L 150.451191 115.957457 
L 152.236809 116.123675 
L 154.022405 115.864013 
L 155.808 115.91086 
L 159.974405 116.178275 
L 165.331191 115.94595 
L 167.116809 115.908512 
L 168.307191 116.037017 
L 168.902405 116.161302 
L 171.283191 115.824685 
L 173.068809 115.91548 
L 176.64 116.14107 
L 180.211191 116.152019 
L 187.353595 116.034429 
L 187.948809 116.149356 
L 190.924809 115.865125 
L 196.281595 116.100107 
L 200.448 115.971013 
L 204.019191 115.798013 
L 205.209618 116.0076 
L 205.804809 116.165471 
L 206.995191 115.779242 
L 208.185618 115.654916 
L 209.971191 115.863344 
L 212.352 116.133492 
L 214.137618 116.144501 
L 220.089618 115.869795 
L 222.470382 115.513547 
L 224.256 115.198457 
L 224.851191 115.205571 
L 225.446382 115.358113 
L 226.636809 116.132585 
L 227.827191 115.084356 
L 228.422382 114.850556 
L 229.017618 114.856722 
L 230.208 115.263479 
L 231.993618 115.908748 
L 233.184 116.143159 
L 234.969618 116.080963 
L 237.945618 116.09841 
L 239.731191 116.140292 
L 242.707191 115.89676 
L 245.683191 116.028294 
L 247.468809 115.862155 
L 253.420809 115.54879 
L 257.587191 115.029628 
L 258.182382 115.151958 
L 258.777618 115.426637 
L 259.372809 115.871251 
L 259.968 115.932063 
L 261.158382 114.884984 
L 261.753618 114.654281 
L 262.348809 114.654677 
L 263.539191 115.126726 
L 265.324809 116.017584 
L 265.92 116.123043 
L 267.705618 115.636847 
L 270.086382 115.049455 
L 271.276809 114.593661 
L 272.467191 113.89998 
L 273.657618 112.828349 
L 274.848 111.187146 
L 276.038382 108.80884 
L 277.824 104.678469 
L 278.419191 104.145688 
L 279.014382 104.946676 
L 279.609618 107.706172 
L 280.204809 112.607644 
L 280.8 113.377679 
L 281.395191 107.008856 
L 281.990382 102.290405 
L 282.585618 100.142992 
L 283.180809 100.440792 
L 283.776 102.403997 
L 285.561618 110.274094 
L 286.156809 112.237686 
L 286.752 113.721837 
L 287.347191 114.782257 
L 287.942382 115.493299 
L 288.537618 115.929982 
L 289.132809 116.154526 
L 290.323191 116.136559 
L 291.513618 115.642917 
L 292.704 114.723531 
L 295.084809 112.320529 
L 295.68 112.156517 
L 296.275191 112.523498 
L 296.870382 113.503656 
L 297.465618 115.03023 
L 298.060809 115.544459 
L 298.656 113.850525 
L 299.251191 112.533322 
L 299.846382 111.71565 
L 300.441618 111.361011 
L 301.036809 111.35033 
L 302.227191 111.830569 
L 303.417618 112.361528 
L 304.608 112.595471 
L 305.798382 112.435358 
L 306.988809 111.850048 
L 308.179191 110.790922 
L 309.369618 109.194291 
L 310.56 107.09162 
L 311.750382 104.958656 
L 312.345618 104.323214 
L 312.940809 104.42426 
L 313.536 105.700132 
L 314.131191 108.533847 
L 314.726382 113.007533 
L 315.321618 113.692707 
L 315.916809 107.862408 
L 316.512 103.16016 
L 317.107191 100.582897 
L 317.702382 100.400257 
L 318.297618 102.149915 
L 319.488 108.270155 
L 320.678382 114.077371 
L 321.273618 116.040163 
L 322.464 112.701157 
L 326.035191 104.686661 
L 326.630382 102.65021 
L 327.225618 100.160997 
L 327.820809 97.107562 
L 328.416 93.368668 
L 329.011191 88.82422 
L 330.201618 76.990974 
L 332.582382 48.542512 
L 333.177618 45.029647 
L 333.772809 45.228793 
L 334.368 49.353867 
L 334.963191 56.797769 
L 337.344 93.408251 
L 337.939191 99.961641 
L 338.534382 105.073939 
L 339.129618 108.936351 
L 339.724809 111.790036 
L 340.32 113.870679 
L 340.915191 115.387829 
L 341.510382 115.849468 
L 342.700809 114.247643 
L 344.486382 112.193564 
L 345.676809 110.404129 
L 346.867191 107.898368 
L 348.057618 104.56216 
L 349.248 101.051045 
L 349.843191 99.947854 
L 350.438382 100.011861 
L 351.033618 101.913882 
L 351.628809 106.135636 
L 352.224 112.608598 
L 352.819191 111.87471 
L 353.414382 104.084662 
L 354.009618 98.030885 
L 354.604809 94.848366 
L 355.2 94.708109 
L 355.795191 96.924474 
L 358.176 111.021877 
L 358.771191 113.47966 
L 359.366382 115.366651 
L 359.961618 115.581004 
L 360.556809 114.517483 
L 361.747191 113.052598 
L 365.318382 109.603958 
L 367.104 107.680834 
L 367.699191 107.400677 
L 368.294382 107.657343 
L 368.889618 108.736568 
L 369.484809 110.944514 
L 370.08 114.38385 
L 370.675191 113.606883 
L 371.270382 109.092292 
L 371.865618 105.550935 
L 372.460809 103.855387 
L 373.056 104.237686 
L 373.651191 106.231974 
L 375.436809 114.947738 
L 376.032 115.010582 
L 377.222382 111.390889 
L 378.412809 108.760002 
L 379.603191 106.257605 
L 380.793618 103.120484 
L 381.388809 101.089366 
L 381.984 98.625921 
L 382.579191 95.63012 
L 383.174382 91.998621 
L 384.364809 82.478914 
L 385.555191 69.913702 
L 386.745618 56.383336 
L 387.340809 51.024588 
L 387.936 47.976153 
L 388.531191 48.082005 
L 389.126382 51.603142 
L 389.721618 58.015783 
L 392.102382 90.846865 
L 392.697618 96.92613 
L 393.292809 101.69583 
L 393.888 105.284366 
L 394.483191 107.88236 
L 395.078382 109.685301 
L 395.673618 110.86761 
L 396.268809 111.573484 
L 396.864 111.911613 
L 397.459191 111.956753 
L 398.054382 111.757164 
L 398.649618 111.339735 
L 399.244809 110.710062 
L 399.84 109.857612 
L 400.435191 108.762463 
L 401.030382 107.395272 
L 402.220809 103.737131 
L 403.411191 98.928133 
L 404.601618 94.24294 
L 405.196809 93.052752 
L 405.792 93.537109 
L 406.387191 96.391864 
L 406.982382 101.889389 
L 407.577618 109.815439 
L 408.172809 113.036163 
L 409.363191 94.411017 
L 409.958382 88.226958 
L 410.553618 85.586255 
L 411.148809 86.566765 
L 411.744 90.303658 
L 414.124809 110.081925 
L 414.72 113.354123 
L 414.72 113.354123 
" clip-path="url(#p33542d05fe)" style="fill: none; stroke-dasharray: 9.6,2.4,1.5,2.4; stroke-dashoffset: 0; stroke: #ff0000; stroke-width: 1.5"/>
   </g>
   <g id="patch_3">
    <path d="M 57.6 119.740235 
L 57.6 41.472 
" style="fill: none; stroke: #000000; stroke-width: 0.8; stroke-linejoin: miter; stroke-linecap: square"/>
   </g>
   <g id="patch_4">
    <path d="M 414.72 119.740235 
L 414.72 41.472 
" style="fill: none; stroke: #000000; stroke-width: 0.8; stroke-linejoin: miter; stroke-linecap: square"/>
   </g>
   <g id="patch_5">
    <path d="M 57.6 119.740235 
L 414.72 119.740235 
" style="fill: none; stroke: #000000; stroke-width: 0.8; stroke-linejoin: miter; stroke-linecap: square"/>
   </g>
   <g id="patch_6">
    <path d="M 57.6 41.472 
L 414.72 41.472 
" style="fill: none; stroke: #000000; stroke-width: 0.8; stroke-linejoin: miter; stroke-linecap: square"/>
   </g>
  </g>
  <g id="axes_2">
   <g id="patch_7">
    <path d="M 57.6 213.662118 
L 414.72 213.662118 
L 414.72 135.393882 
L 57.6 135.393882 
z
" style="fill: #ffffff"/>
   </g>
   <g id="matplotlib.axis_3">
    <g id="xtick_10">
     <g id="line2d_14">
      <g>
       <use xlink:href="#mdd9d2ec660" x="57.6" y="213.662118" style="stroke: #000000; stroke-width: 0.8"/>
      </g>
     </g>
    </g>
    <g id="xtick_11">
     <g id="line2d_15">
      <g>
       <use xlink:href="#mdd9d2ec660" x="105.216" y="213.662118" style="stroke: #000000; stroke-width: 0.8"/>
      </g>
     </g>
    </g>
    <g id="xtick_12">
     <g id="line2d_16">
      <g>
       <use xlink:href="#mdd9d2ec660" x="152.832" y="213.662118" style="stroke: #000000; stroke-width: 0.8"/>
      </g>
     </g>
    </g>
    <g id="xtick_13">
     <g id="line2d_17">
      <g>
       <use xlink:href="#mdd9d2ec660" x="200.448" y="213.662118" style="stroke: #000000; stroke-width: 0.8"/>
      </g>
     </g>
    </g>
    <g id="xtick_14">
     <g id="line2d_18">
      <g>
       <use xlink:href="#mdd9d2ec660" x="248.064" y="213.662118" style="stroke: #000000; stroke-width: 0.8"/>
      </g>
     </g>
    </g>
    <g id="xtick_15">
     <g id="line2d_19">
      <g>
       <use xlink:href="#mdd9d2ec660" x="295.68" y="213.662118" style="stroke: #000000; stroke-width: 0.8"/>
      </g>
     </g>
    </g>
    <g id="xtick_16">
     <g id="line2d_20">
      <g>
       <use xlink:href="#mdd9d2ec660" x="343.296" y="213.662118" style="stroke: #000000; stroke-width: 0.8"/>
      </g>
     </g>
    </g>
    <g id="xtick_17">
     <g id="line2d_21">
      <g>
       <use xlink:href="#mdd9d2ec660" x="390.912" y="213.662118" style="stroke: #000000; stroke-width: 0.8"/>
      </g>
     </g>
    </g>
    <g id="xtick_18">
     <g id="line2d_22">
      <g>
       <use xlink:href="#mdd9d2ec660" x="414.72" y="213.662118" style="stroke: #000000; stroke-width: 0.8"/>
      </g>
     </g>
    </g>
   </g>
   <g id="matplotlib.axis_4">
    <g id="ytick_3">
     <g id="line2d_23">
      <g>
       <use xlink:href="#mff92e8d47a" x="57.6" y="210.104624" style="stroke: #000000; stroke-width: 0.8"/>
      </g>
     </g>
     <g id="text_3">
      <!-- 0 -->
      <g transform="translate(44.2375 213.903842)scale(0.1 -0.1)">
       <use xlink:href="#DejaVuSans-30"/>
      </g>
     </g>
    </g>
    <g id="ytick_4">
     <g id="line2d_24">
      <g>
       <use xlink:href="#mff92e8d47a" x="57.6" y="172.307219" style="stroke: #000000; stroke-width: 0.8"/>
      </g>
     </g>
     <g id="text_4">
      <!-- 20 -->
      <g transform="translate(37.875 176.106438)scale(0.1 -0.1)">
       <use xlink:href="#DejaVuSans-32"/>
       <use xlink:href="#DejaVuSans-30" x="63.623047"/>
      </g>
     </g>
    </g>
   </g>
   <g id="line2d_25">
    <path d="M 57.6 210.069021 
L 60.576 210.052462 
L 76.646405 209.886268 
L 79.027191 209.596334 
L 80.812809 209.104231 
L 82.003191 208.511405 
L 83.193595 207.571402 
L 84.384 206.205126 
L 85.574405 204.782474 
L 86.169595 204.592115 
L 86.764809 205.426108 
L 87.36 207.951479 
L 87.955191 207.823119 
L 88.550405 202.567304 
L 89.145595 198.878323 
L 89.740809 198.574568 
L 90.336 201.15279 
L 91.526405 207.58679 
L 92.121595 209.44521 
L 92.716809 209.818029 
L 93.312 209.489214 
L 93.907191 209.495283 
L 95.692809 210.06711 
L 99.264 208.578191 
L 100.454405 208.402712 
L 101.049595 208.544777 
L 101.644809 208.91533 
L 102.24 209.536357 
L 102.835191 209.846681 
L 104.025595 208.153811 
L 104.620809 207.644057 
L 105.216 207.494481 
L 105.811191 207.668232 
L 107.001595 208.515889 
L 108.192 209.349231 
L 109.382405 209.88334 
L 109.977595 210.059659 
L 111.168 209.884254 
L 113.548809 209.328998 
L 115.929595 208.67972 
L 116.524809 208.662156 
L 117.12 208.807603 
L 117.715191 209.168539 
L 118.310405 209.756013 
L 118.905595 209.703681 
L 120.096 208.326547 
L 120.691191 208.002852 
L 121.286405 207.985961 
L 121.881595 208.202009 
L 124.262405 209.453051 
L 125.452809 209.763643 
L 127.833595 210.028444 
L 129.024 210.044494 
L 130.809595 209.687584 
L 133.190405 209.123325 
L 133.785595 209.165067 
L 134.380809 209.376559 
L 134.976 209.762053 
L 135.571191 209.949975 
L 136.761595 209.085846 
L 137.356809 208.892661 
L 138.547191 208.94386 
L 140.928 209.36953 
L 142.713595 209.390168 
L 145.689595 209.08342 
L 147.475191 209.008941 
L 148.070405 209.117315 
L 148.665595 209.357808 
L 149.260809 209.771969 
L 149.856 209.833471 
L 151.046405 208.339255 
L 151.641595 207.806181 
L 152.236809 207.685909 
L 152.832 208.032024 
L 154.617595 210.040265 
L 155.212809 209.538652 
L 155.808 209.217776 
L 156.998405 208.918509 
L 159.379191 208.52913 
L 160.569595 208.122416 
L 161.76 207.484737 
L 162.950405 206.582391 
L 164.736 204.966077 
L 165.331191 204.619238 
L 165.926405 204.643404 
L 166.521595 205.323388 
L 167.116809 206.97519 
L 167.712 209.789145 
L 168.307191 206.642915 
L 168.902405 202.701758 
L 169.497595 199.833914 
L 170.092809 199.056253 
L 170.688 200.47068 
L 172.473595 208.777846 
L 173.068809 209.684126 
L 173.664 208.622548 
L 174.259191 208.040199 
L 174.854405 207.738866 
L 177.235191 206.995478 
L 177.830405 206.634046 
L 178.425595 206.14073 
L 179.020809 205.488907 
L 179.616 204.646485 
L 180.211191 203.572871 
L 180.806405 202.216644 
L 181.401595 200.514512 
L 181.996809 198.391517 
L 182.592 195.764681 
L 183.187191 192.554883 
L 184.377595 184.255709 
L 186.163191 170.436378 
L 186.758405 168.300395 
L 187.353595 169.128699 
L 187.948809 173.187939 
L 189.139191 185.750462 
L 189.734405 190.155571 
L 190.329595 191.557414 
L 190.924809 189.889694 
L 191.52 185.718176 
L 192.710405 174.043184 
L 193.305595 169.899064 
L 193.900809 169.979971 
L 194.496 176.014481 
L 196.281595 207.91078 
L 196.876809 199.780572 
L 197.472 194.997246 
L 198.067191 192.410856 
L 199.852809 187.783772 
L 200.448 185.5423 
L 201.043191 182.571113 
L 201.638382 178.815478 
L 202.828809 169.31663 
L 204.019191 159.79895 
L 204.614382 157.031912 
L 205.209618 156.859128 
L 205.804809 159.641109 
L 206.4 164.776688 
L 207.590382 176.765519 
L 208.780809 185.713344 
L 210.566382 195.774625 
L 211.756809 201.078095 
L 212.352 202.922128 
L 212.947191 204.1821 
L 213.542382 204.925811 
L 214.137618 205.257462 
L 214.732809 205.283469 
L 215.328 205.093303 
L 216.518382 204.309049 
L 218.304 202.611862 
L 219.494382 201.435041 
L 220.089618 200.986942 
L 220.684809 200.779812 
L 221.28 200.996345 
L 221.875191 201.889635 
L 222.470382 203.774342 
L 223.065618 206.971395 
L 223.660809 208.534407 
L 225.446382 190.352874 
L 226.041618 187.871085 
L 226.636809 189.901299 
L 227.232 196.117502 
L 227.827191 204.336367 
L 228.422382 208.248504 
L 229.017618 202.709906 
L 229.612809 199.380065 
L 230.208 197.648207 
L 230.803191 196.798206 
L 231.993618 195.742313 
L 232.588809 194.977418 
L 233.184 193.866952 
L 233.779191 192.339354 
L 234.374382 190.34594 
L 234.969618 187.849806 
L 236.16 181.266336 
L 237.350382 172.74378 
L 239.136 159.576425 
L 239.731191 156.752398 
L 240.326382 155.605941 
L 240.921618 156.544254 
L 241.516809 159.726824 
L 242.112 165.001655 
L 243.302382 179.529218 
L 244.492809 193.331155 
L 245.088 198.081593 
L 245.683191 201.137504 
L 246.278382 202.716799 
L 246.873618 203.159957 
L 247.468809 202.794773 
L 248.064 201.870606 
L 248.659191 200.545891 
L 249.849618 196.954032 
L 251.04 192.060366 
L 252.230382 185.532709 
L 253.420809 177.244215 
L 255.206382 163.977566 
L 255.801618 160.763144 
L 256.396809 158.853405 
L 256.992 158.437355 
L 257.587191 159.458682 
L 258.182382 161.773165 
L 258.777618 165.370183 
L 259.372809 170.394804 
L 260.563191 184.219903 
L 261.753618 197.715493 
L 262.348809 202.172022 
L 262.944 204.823985 
L 263.539191 205.970217 
L 264.134382 206.023933 
L 264.729618 205.348853 
L 265.324809 204.199648 
L 266.515191 200.978904 
L 267.705618 196.673093 
L 268.896 191.022439 
L 270.086382 183.923606 
L 271.276809 176.441946 
L 271.872 173.50252 
L 272.467191 171.842748 
L 273.062382 171.899916 
L 273.657618 173.670786 
L 274.848 179.40512 
L 275.443191 181.182428 
L 276.038382 181.188214 
L 276.633618 179.349247 
L 277.824 172.727011 
L 278.419191 170.4586 
L 279.014382 170.961169 
L 279.609618 175.21796 
L 280.8 191.766735 
L 281.395191 199.838234 
L 281.990382 205.565295 
L 282.585618 208.713101 
L 283.180809 209.781549 
L 283.776 209.43871 
L 284.371191 208.221318 
L 284.966382 206.46658 
L 286.156809 201.922325 
L 287.347191 196.201769 
L 289.132809 186.889706 
L 289.728 185.14945 
L 290.323191 185.464233 
L 290.918382 188.753496 
L 291.513618 195.399478 
L 292.108809 204.81057 
L 292.704 204.697198 
L 293.894382 185.704301 
L 294.489618 179.287861 
L 295.084809 175.498086 
L 295.68 174.607785 
L 296.275191 176.735582 
L 296.870382 181.531288 
L 298.656 200.595756 
L 299.251191 204.891498 
L 299.846382 207.596626 
L 300.441618 209.003778 
L 301.036809 209.495989 
L 301.632 209.405705 
L 302.227191 208.968142 
L 303.417618 207.547439 
L 304.608 205.622376 
L 305.798382 202.966342 
L 306.393618 201.194072 
L 306.988809 198.995568 
L 307.584 196.246659 
L 308.179191 192.801465 
L 308.774382 188.498769 
L 309.369618 183.181853 
L 310.56 169.248779 
L 311.750382 153.091183 
L 312.345618 146.89342 
L 312.940809 144.281574 
L 313.536 146.306347 
L 314.131191 152.285644 
L 315.321618 168.900855 
L 316.512 188.069675 
L 317.702382 207.956461 
L 318.297618 205.015432 
L 318.892809 200.328084 
L 319.488 197.727661 
L 320.083191 196.435717 
L 321.868809 194.514414 
L 322.464 193.447345 
L 323.059191 191.930132 
L 323.654382 189.914527 
L 324.249618 187.388618 
L 325.44 180.963492 
L 327.225618 170.367679 
L 327.820809 167.84591 
L 328.416 166.394229 
L 329.011191 166.071755 
L 329.606382 166.603474 
L 330.796809 168.309895 
L 331.392 169.033021 
L 331.987191 170.137044 
L 332.582382 172.398645 
L 333.177618 176.41763 
L 334.368 188.6499 
L 334.963191 194.771518 
L 335.558382 199.519942 
L 336.153618 202.51688 
L 336.748809 203.886324 
L 337.344 203.982247 
L 337.939191 203.17203 
L 338.534382 201.734286 
L 339.724809 197.579315 
L 340.915191 192.062482 
L 343.296 179.070899 
L 343.891191 176.920865 
L 344.486382 176.173456 
L 345.081618 177.205592 
L 345.676809 179.970355 
L 347.462382 191.123323 
L 348.057618 192.828214 
L 348.652809 192.778936 
L 349.248 191.023884 
L 349.843191 187.769979 
L 351.033618 178.084363 
L 351.628809 172.783465 
L 352.224 168.525844 
L 352.819191 166.791789 
L 353.414382 168.9183 
L 354.009618 175.138921 
L 355.2 192.750015 
L 355.795191 199.370342 
L 356.390382 202.991959 
L 356.985618 203.903897 
L 357.580809 202.817204 
L 358.176 200.40416 
L 359.366382 193.462565 
L 360.556809 186.236085 
L 361.152 183.838238 
L 361.747191 183.293127 
L 362.342382 185.356793 
L 362.937618 190.313336 
L 364.128 206.141855 
L 364.723191 205.742412 
L 365.913618 192.440682 
L 367.104 183.551775 
L 367.699191 180.37537 
L 368.294382 178.229374 
L 368.889618 177.549776 
L 369.484809 178.807163 
L 370.08 182.192376 
L 371.270382 193.389037 
L 372.460809 204.137177 
L 373.056 207.732775 
L 373.651191 210.081937 
L 374.246382 208.59118 
L 374.841618 207.66674 
L 376.627191 205.713829 
L 377.222382 204.774573 
L 377.817618 203.503449 
L 378.412809 201.811836 
L 379.008 199.619181 
L 379.603191 196.865907 
L 380.793618 189.804803 
L 381.388809 186.028255 
L 381.984 183.053511 
L 382.579191 182.245165 
L 383.174382 185.259401 
L 383.769618 193.217043 
L 384.364809 205.62532 
L 384.96 200.089295 
L 385.555191 186.57439 
L 386.150382 176.247961 
L 386.745618 170.129936 
L 387.340809 168.528739 
L 387.936 171.173596 
L 388.531191 177.137522 
L 389.721618 192.176755 
L 390.316809 198.014681 
L 390.912 201.769882 
L 391.507191 203.599729 
L 392.102382 203.946297 
L 392.697618 203.256441 
L 393.292809 201.86505 
L 393.888 199.982048 
L 395.078382 195.146754 
L 397.459191 183.539671 
L 398.054382 181.562179 
L 398.649618 180.889089 
L 399.244809 182.020836 
L 399.84 185.156901 
L 400.435191 189.999716 
L 402.220809 206.860823 
L 402.816 209.035529 
L 404.006382 202.536928 
L 405.196809 196.602247 
L 406.387191 188.916192 
L 408.172809 175.425141 
L 408.768 173.798874 
L 409.363191 176.312756 
L 409.958382 183.922657 
L 411.148809 208.709771 
L 412.339191 190.856608 
L 412.934382 184.331264 
L 413.529618 179.437162 
L 414.72 172.138631 
L 414.72 172.138631 
" clip-path="url(#p1569a65142)" style="fill: none; stroke: #0000cc; stroke-width: 1.5; stroke-linecap: square"/>
   </g>
   <g id="line2d_26">
    <path d="M 57.6 210.104471 
L 72.48 210.098076 
L 81.408 209.974626 
L 83.788809 209.769517 
L 86.764809 209.45892 
L 87.36 209.645016 
L 87.955191 210.06464 
L 89.145595 208.930172 
L 89.740809 208.657187 
L 90.336 208.812189 
L 92.121595 209.896289 
L 92.716809 210.06053 
L 95.692809 210.079215 
L 100.454405 209.886074 
L 103.430405 209.946825 
L 104.620809 209.771848 
L 105.811191 209.774439 
L 109.382405 210.090935 
L 115.929595 209.864343 
L 117.715191 210.003102 
L 118.310405 210.095045 
L 120.096 209.750115 
L 121.286405 209.738273 
L 125.452809 210.07037 
L 132.595191 209.868456 
L 134.380809 210.062879 
L 136.166405 209.694622 
L 137.356809 209.724629 
L 140.332809 210.08766 
L 143.904 210.003894 
L 149.260809 209.868343 
L 150.451191 210.080539 
L 152.832 209.62287 
L 154.022405 209.750829 
L 156.403191 210.07961 
L 158.784 210.052278 
L 164.140809 209.86411 
L 165.926405 209.81267 
L 167.116809 209.958192 
L 167.712 210.087777 
L 168.902405 209.697646 
L 170.092809 209.572265 
L 174.259191 210.09298 
L 186.163191 209.928322 
L 186.758405 210.081921 
L 188.544 209.591345 
L 189.734405 209.691291 
L 191.52 210.01412 
L 193.305595 210.087943 
L 198.067191 209.967274 
L 203.424 209.765522 
L 204.614382 210.025935 
L 205.804809 209.423929 
L 206.4 209.281221 
L 206.995191 209.32665 
L 209.376 210.052058 
L 211.161618 210.015442 
L 218.304 209.861035 
L 220.684809 209.570674 
L 223.660809 209.042738 
L 224.256 209.194888 
L 225.446382 209.96405 
L 226.636809 208.213936 
L 227.232 207.850425 
L 227.827191 208.091963 
L 229.612809 209.877624 
L 230.208 210.029896 
L 231.398382 209.826076 
L 233.779191 209.903108 
L 238.540809 210.0338 
L 241.516809 209.740068 
L 242.707191 209.934924 
L 243.302382 210.096769 
L 244.492809 209.791479 
L 245.683191 209.705636 
L 250.444809 209.709952 
L 252.825618 209.459476 
L 256.396809 208.968702 
L 256.992 209.076821 
L 257.587191 209.368102 
L 258.182382 209.894214 
L 258.777618 209.559514 
L 259.968 208.011576 
L 260.563191 207.713878 
L 261.158382 207.956788 
L 262.348809 209.227063 
L 262.944 209.824848 
L 263.539191 209.953045 
L 264.729618 209.534897 
L 267.110382 209.314122 
L 268.896 209.010947 
L 270.086382 208.611983 
L 271.276809 207.959144 
L 272.467191 206.933203 
L 273.657618 205.334516 
L 274.848 202.961984 
L 276.633618 198.388728 
L 277.228809 197.460897 
L 277.824 197.852593 
L 278.419191 200.590249 
L 279.014382 206.559244 
L 279.609618 204.571388 
L 280.204809 194.399109 
L 280.8 186.675274 
L 281.395191 184.428026 
L 281.990382 187.932563 
L 283.180809 201.687331 
L 283.776 206.96947 
L 284.371191 209.994101 
L 284.966382 208.370739 
L 285.561618 207.78512 
L 286.156809 207.778807 
L 287.347191 208.444633 
L 289.728 210.086319 
L 290.918382 209.126491 
L 292.108809 207.885762 
L 293.894382 205.805103 
L 294.489618 205.527762 
L 295.084809 205.886717 
L 295.68 207.126651 
L 296.275191 209.32076 
L 296.870382 208.144333 
L 297.465618 205.563379 
L 298.060809 203.866808 
L 298.656 203.349347 
L 299.251191 203.790252 
L 301.036809 206.624183 
L 301.632 207.233511 
L 302.227191 207.59154 
L 302.822382 207.738492 
L 303.417618 207.720429 
L 304.608 207.321003 
L 305.798382 206.540826 
L 306.988809 205.369893 
L 308.179191 203.721917 
L 309.369618 201.569524 
L 310.56 199.27766 
L 311.155191 198.488449 
L 311.750382 198.412002 
L 312.345618 199.607036 
L 312.940809 202.709948 
L 313.536 208.154749 
L 314.131191 204.487997 
L 315.321618 189.180067 
L 315.916809 186.072811 
L 316.512 187.81651 
L 317.107191 193.394726 
L 318.297618 206.756416 
L 318.892809 208.896587 
L 319.488 206.109203 
L 320.083191 204.6199 
L 320.678382 203.90005 
L 323.059191 202.43063 
L 323.654382 201.674843 
L 324.249618 200.622092 
L 324.844809 199.21945 
L 325.44 197.404209 
L 326.035191 195.098293 
L 326.630382 192.206245 
L 327.225618 188.615831 
L 327.820809 184.204486 
L 329.011191 172.505044 
L 331.392 142.560099 
L 331.987191 138.951529 
L 332.582382 140.353662 
L 333.177618 147.870316 
L 333.772809 160.65097 
L 334.963191 190.448944 
L 335.558382 201.734843 
L 336.153618 209.200581 
L 336.748809 206.840236 
L 337.344 204.987138 
L 337.939191 204.529891 
L 338.534382 204.78689 
L 340.32 206.323879 
L 340.915191 206.613301 
L 341.510382 206.717089 
L 342.105618 206.640906 
L 342.700809 206.392006 
L 343.296 205.94569 
L 343.891191 205.328357 
L 344.486382 204.502949 
L 345.081618 203.45576 
L 346.272 200.625291 
L 348.652809 193.658716 
L 349.248 193.388927 
L 349.843191 195.192465 
L 350.438382 200.033893 
L 351.033618 208.353279 
L 351.628809 200.854748 
L 352.224 189.463876 
L 352.819191 180.858649 
L 353.414382 177.669881 
L 354.009618 180.6236 
L 354.604809 188.036344 
L 355.795191 204.484002 
L 356.390382 209.775022 
L 356.985618 207.373053 
L 357.580809 205.912428 
L 358.176 205.409875 
L 358.771191 205.391255 
L 360.556809 205.848236 
L 361.152 205.846742 
L 361.747191 205.720349 
L 362.342382 205.468291 
L 363.532809 204.608472 
L 365.318382 202.703115 
L 365.913618 202.111704 
L 366.508809 201.761633 
L 367.104 201.911537 
L 367.699191 202.941061 
L 368.294382 205.262809 
L 368.889618 209.284831 
L 369.484809 205.268753 
L 370.675191 193.378064 
L 371.270382 191.068849 
L 371.865618 193.001864 
L 372.460809 198.302761 
L 373.056 204.752262 
L 373.651191 209.899333 
L 374.246382 206.072129 
L 374.841618 203.861218 
L 375.436809 202.743097 
L 376.032 202.20988 
L 377.222382 201.55624 
L 377.817618 201.070753 
L 378.412809 200.339957 
L 379.008 199.303072 
L 379.603191 197.921331 
L 380.198382 196.124168 
L 380.793618 193.84744 
L 381.388809 191.010067 
L 381.984 187.519665 
L 382.579191 183.281147 
L 383.769618 172.295436 
L 386.150382 145.877942 
L 386.745618 142.986935 
L 387.340809 144.380743 
L 387.936 150.868452 
L 388.531191 161.797976 
L 389.721618 187.796633 
L 390.316809 198.121174 
L 390.912 205.232578 
L 391.507191 209.416379 
L 392.697618 208.207393 
L 393.292809 208.424667 
L 394.483191 209.807815 
L 395.078382 209.600348 
L 398.054382 205.598427 
L 399.244809 203.405481 
L 400.435191 200.307474 
L 401.625618 195.979423 
L 403.411191 188.223431 
L 404.006382 186.677745 
L 404.601618 186.973753 
L 405.196809 190.203476 
L 405.792 197.12247 
L 406.387191 207.615123 
L 406.982382 199.827368 
L 408.172809 176.034461 
L 408.768 169.32944 
L 409.363191 168.346372 
L 409.958382 173.537381 
L 411.744 204.426544 
L 412.339191 209.104894 
L 412.934382 205.341694 
L 413.529618 203.646744 
L 414.124809 203.162422 
L 414.72 203.264541 
L 414.72 203.264541 
" clip-path="url(#p1569a65142)" style="fill: none; stroke-dasharray: 9.6,2.4,1.5,2.4; stroke-dashoffset: 0; stroke: #ff0000; stroke-width: 1.5"/>
   </g>
   <g id="patch_8">
    <path d="M 57.6 213.662118 
L 57.6 135.393882 
" style="fill: none; stroke: #000000; stroke-width: 0.8; stroke-linejoin: miter; stroke-linecap: square"/>
   </g>
   <g id="patch_9">
    <path d="M 414.72 213.662118 
L 414.72 135.393882 
" style="fill: none; stroke: #000000; stroke-width: 0.8; stroke-linejoin: miter; stroke-linecap: square"/>
   </g>
   <g id="patch_10">
    <path d="M 57.6 213.662118 
L 414.72 213.662118 
" style="fill: none; stroke: #000000; stroke-width: 0.8; stroke-linejoin: miter; stroke-linecap: square"/>
   </g>
   <g id="patch_11">
    <path d="M 57.6 135.393882 
L 414.72 135.393882 
" style="fill: none; stroke: #000000; stroke-width: 0.8; stroke-linejoin: miter; stroke-linecap: square"/>
   </g>
  </g>
  <g id="axes_3">
   <g id="patch_12">
    <path d="M 57.6 307.584 
L 414.72 307.584 
L 414.72 229.315765 
L 57.6 229.315765 
z
" style="fill: #ffffff"/>
   </g>
   <g id="matplotlib.axis_5">
    <g id="xtick_19">
     <g id="line2d_27">
      <g>
       <use xlink:href="#mdd9d2ec660" x="57.6" y="307.584" style="stroke: #000000; stroke-width: 0.8"/>
      </g>
     </g>
     <g id="text_5">
      <!-- 10 -->
      <g transform="translate(51.2375 322.182437)scale(0.1 -0.1)">
       <defs>
        <path id="DejaVuSans-31" d="M 794 531 
L 1825 531 
L 1825 4091 
L 703 3866 
L 703 4441 
L 1819 4666 
L 2450 4666 
L 2450 531 
L 3481 531 
L 3481 0 
L 794 0 
L 794 531 
z
" transform="scale(0.015625)"/>
       </defs>
       <use xlink:href="#DejaVuSans-31"/>
       <use xlink:href="#DejaVuSans-30" x="63.623047"/>
      </g>
     </g>
    </g>
    <g id="xtick_20">
     <g id="line2d_28">
      <g>
       <use xlink:href="#mdd9d2ec660" x="105.216" y="307.584" style="stroke: #000000; stroke-width: 0.8"/>
      </g>
     </g>
     <g id="text_6">
      <!-- 12 -->
      <g transform="translate(98.8535 322.182437)scale(0.1 -0.1)">
       <use xlink:href="#DejaVuSans-31"/>
       <use xlink:href="#DejaVuSans-32" x="63.623047"/>
      </g>
     </g>
    </g>
    <g id="xtick_21">
     <g id="line2d_29">
      <g>
       <use xlink:href="#mdd9d2ec660" x="152.832" y="307.584" style="stroke: #000000; stroke-width: 0.8"/>
      </g>
     </g>
     <g id="text_7">
      <!-- 14 -->
      <g transform="translate(146.4695 322.182437)scale(0.1 -0.1)">
       <defs>
        <path id="DejaVuSans-34" d="M 2419 4116 
L 825 1625 
L 2419 1625 
L 2419 4116 
z
M 2253 4666 
L 3047 4666 
L 3047 1625 
L 3713 1625 
L 3713 1100 
L 3047 1100 
L 3047 0 
L 2419 0 
L 2419 1100 
L 313 1100 
L 313 1709 
L 2253 4666 
z
" transform="scale(0.015625)"/>
       </defs>
       <use xlink:href="#DejaVuSans-31"/>
       <use xlink:href="#DejaVuSans-34" x="63.623047"/>
      </g>
     </g>
    </g>
    <g id="xtick_22">
     <g id="line2d_30">
      <g>
       <use xlink:href="#mdd9d2ec660" x="200.448" y="307.584" style="stroke: #000000; stroke-width: 0.8"/>
      </g>
     </g>
     <g id="text_8">
      <!-- 16 -->
      <g transform="translate(194.0855 322.182437)scale(0.1 -0.1)">
       <defs>
        <path id="DejaVuSans-36" d="M 2113 2584 
Q 1688 2584 1439 2293 
Q 1191 2003 1191 1497 
Q 1191 994 1439 701 
Q 1688 409 2113 409 
Q 2538 409 2786 701 
Q 3034 994 3034 1497 
Q 3034 2003 2786 2293 
Q 2538 2584 2113 2584 
z
M 3366 4563 
L 3366 3988 
Q 3128 4100 2886 4159 
Q 2644 4219 2406 4219 
Q 1781 4219 1451 3797 
Q 1122 3375 1075 2522 
Q 1259 2794 1537 2939 
Q 1816 3084 2150 3084 
Q 2853 3084 3261 2657 
Q 3669 2231 3669 1497 
Q 3669 778 3244 343 
Q 2819 -91 2113 -91 
Q 1303 -91 875 529 
Q 447 1150 447 2328 
Q 447 3434 972 4092 
Q 1497 4750 2381 4750 
Q 2619 4750 2861 4703 
Q 3103 4656 3366 4563 
z
" transform="scale(0.015625)"/>
       </defs>
       <use xlink:href="#DejaVuSans-31"/>
       <use xlink:href="#DejaVuSans-36" x="63.623047"/>
      </g>
     </g>
    </g>
    <g id="xtick_23">
     <g id="line2d_31">
      <g>
       <use xlink:href="#mdd9d2ec660" x="248.064" y="307.584" style="stroke: #000000; stroke-width: 0.8"/>
      </g>
     </g>
     <g id="text_9">
      <!-- 18 -->
      <g transform="translate(241.7015 322.182437)scale(0.1 -0.1)">
       <defs>
        <path id="DejaVuSans-38" d="M 2034 2216 
Q 1584 2216 1326 1975 
Q 1069 1734 1069 1313 
Q 1069 891 1326 650 
Q 1584 409 2034 409 
Q 2484 409 2743 651 
Q 3003 894 3003 1313 
Q 3003 1734 2745 1975 
Q 2488 2216 2034 2216 
z
M 1403 2484 
Q 997 2584 770 2862 
Q 544 3141 544 3541 
Q 544 4100 942 4425 
Q 1341 4750 2034 4750 
Q 2731 4750 3128 4425 
Q 3525 4100 3525 3541 
Q 3525 3141 3298 2862 
Q 3072 2584 2669 2484 
Q 3125 2378 3379 2068 
Q 3634 1759 3634 1313 
Q 3634 634 3220 271 
Q 2806 -91 2034 -91 
Q 1263 -91 848 271 
Q 434 634 434 1313 
Q 434 1759 690 2068 
Q 947 2378 1403 2484 
z
M 1172 3481 
Q 1172 3119 1398 2916 
Q 1625 2713 2034 2713 
Q 2441 2713 2670 2916 
Q 2900 3119 2900 3481 
Q 2900 3844 2670 4047 
Q 2441 4250 2034 4250 
Q 1625 4250 1398 4047 
Q 1172 3844 1172 3481 
z
" transform="scale(0.015625)"/>
       </defs>
       <use xlink:href="#DejaVuSans-31"/>
       <use xlink:href="#DejaVuSans-38" x="63.623047"/>
      </g>
     </g>
    </g>
    <g id="xtick_24">
     <g id="line2d_32">
      <g>
       <use xlink:href="#mdd9d2ec660" x="295.68" y="307.584" style="stroke: #000000; stroke-width: 0.8"/>
      </g>
     </g>
     <g id="text_10">
      <!-- 20 -->
      <g transform="translate(289.3175 322.182437)scale(0.1 -0.1)">
       <use xlink:href="#DejaVuSans-32"/>
       <use xlink:href="#DejaVuSans-30" x="63.623047"/>
      </g>
     </g>
    </g>
    <g id="xtick_25">
     <g id="line2d_33">
      <g>
       <use xlink:href="#mdd9d2ec660" x="343.296" y="307.584" style="stroke: #000000; stroke-width: 0.8"/>
      </g>
     </g>
     <g id="text_11">
      <!-- 22 -->
      <g transform="translate(336.9335 322.182437)scale(0.1 -0.1)">
       <use xlink:href="#DejaVuSans-32"/>
       <use xlink:href="#DejaVuSans-32" x="63.623047"/>
      </g>
     </g>
    </g>
    <g id="xtick_26">
     <g id="line2d_34">
      <g>
       <use xlink:href="#mdd9d2ec660" x="390.912" y="307.584" style="stroke: #000000; stroke-width: 0.8"/>
      </g>
     </g>
     <g id="text_12">
      <!-- 24 -->
      <g transform="translate(384.5495 322.182437)scale(0.1 -0.1)">
       <use xlink:href="#DejaVuSans-32"/>
       <use xlink:href="#DejaVuSans-34" x="63.623047"/>
      </g>
     </g>
    </g>
    <g id="xtick_27">
     <g id="line2d_35">
      <g>
       <use xlink:href="#mdd9d2ec660" x="414.72" y="307.584" style="stroke: #000000; stroke-width: 0.8"/>
      </g>
     </g>
     <g id="text_13">
      <!-- 25 -->
      <g transform="translate(408.3575 322.182437)scale(0.1 -0.1)">
       <defs>
        <path id="DejaVuSans-35" d="M 691 4666 
L 3169 4666 
L 3169 4134 
L 1269 4134 
L 1269 2991 
Q 1406 3038 1543 3061 
Q 1681 3084 1819 3084 
Q 2600 3084 3056 2656 
Q 3513 2228 3513 1497 
Q 3513 744 3044 326 
Q 2575 -91 1722 -91 
Q 1428 -91 1123 -41 
Q 819 9 494 109 
L 494 744 
Q 775 591 1075 516 
Q 1375 441 1709 441 
Q 2250 441 2565 725 
Q 2881 1009 2881 1497 
Q 2881 1984 2565 2268 
Q 2250 2553 1709 2553 
Q 1456 2553 1204 2497 
Q 953 2441 691 2322 
L 691 4666 
z
" transform="scale(0.015625)"/>
       </defs>
       <use xlink:href="#DejaVuSans-32"/>
       <use xlink:href="#DejaVuSans-35" x="63.623047"/>
      </g>
     </g>
    </g>
   </g>
   <g id="matplotlib.axis_6">
    <g id="ytick_5">
     <g id="line2d_36">
      <g>
       <use xlink:href="#mff92e8d47a" x="57.6" y="304.026462" style="stroke: #000000; stroke-width: 0.8"/>
      </g>
     </g>
     <g id="text_14">
      <!-- 0 -->
      <g transform="translate(44.2375 307.825681)scale(0.1 -0.1)">
       <use xlink:href="#DejaVuSans-30"/>
      </g>
     </g>
    </g>
    <g id="ytick_6">
     <g id="line2d_37">
      <g>
       <use xlink:href="#mff92e8d47a" x="57.6" y="262.214278" style="stroke: #000000; stroke-width: 0.8"/>
      </g>
     </g>
     <g id="text_15">
      <!-- 20 -->
      <g transform="translate(37.875 266.013496)scale(0.1 -0.1)">
       <use xlink:href="#DejaVuSans-32"/>
       <use xlink:href="#DejaVuSans-30" x="63.623047"/>
      </g>
     </g>
    </g>
   </g>
   <g id="line2d_38">
    <path d="M 57.6 303.972815 
L 59.980809 303.965134 
L 64.742405 303.942675 
L 65.337595 304.024533 
L 67.123191 303.902976 
L 80.812809 303.930317 
L 82.003191 303.753436 
L 83.193595 303.295398 
L 83.788809 302.841289 
L 84.384 302.118406 
L 84.979191 300.98992 
L 85.574405 299.292484 
L 86.169595 296.906198 
L 87.36 291.086379 
L 87.955191 289.776383 
L 88.550405 291.632122 
L 89.145595 296.84975 
L 89.740809 303.353486 
L 90.336 299.773346 
L 90.931191 297.623067 
L 91.526405 297.471676 
L 92.716809 299.1181 
L 93.312 299.903821 
L 94.502405 300.934579 
L 96.288 301.849688 
L 98.073595 302.805311 
L 99.264 303.746591 
L 99.859191 303.69709 
L 102.24 300.94874 
L 102.835191 300.681997 
L 103.430405 300.835778 
L 104.025595 301.428106 
L 105.216 303.396438 
L 105.811191 303.682152 
L 106.406405 302.909965 
L 107.001595 302.37597 
L 107.596809 302.051748 
L 108.787191 301.820704 
L 109.977595 301.870101 
L 111.763191 302.159281 
L 113.548809 302.687227 
L 114.739191 303.291198 
L 115.334405 303.714945 
L 115.929595 303.817137 
L 118.310405 301.455616 
L 118.905595 301.299134 
L 119.500809 301.532429 
L 120.096 302.128567 
L 121.286405 303.789401 
L 121.881595 303.543295 
L 122.476809 303.014815 
L 123.072 302.672213 
L 124.262405 302.37263 
L 126.048 302.341092 
L 129.024 302.551049 
L 130.809595 302.849099 
L 132 303.288809 
L 133.190405 303.982696 
L 134.976 302.621184 
L 135.571191 302.468068 
L 136.166405 302.579646 
L 137.356809 303.346328 
L 137.952 303.774693 
L 138.547191 303.925145 
L 139.737595 303.480887 
L 141.523191 303.195232 
L 145.094405 302.742472 
L 146.284809 302.410256 
L 147.475191 301.889901 
L 149.260809 300.931772 
L 149.856 300.802668 
L 150.451191 300.96982 
L 151.046405 301.545885 
L 151.641595 302.530235 
L 152.236809 303.747699 
L 152.832 303.155169 
L 153.427191 302.339098 
L 154.022405 301.946193 
L 154.617595 301.897038 
L 155.808 302.291889 
L 158.188809 303.185678 
L 160.569595 303.953962 
L 161.164809 303.848486 
L 162.355191 303.149628 
L 162.950405 302.637457 
L 163.545595 301.955763 
L 164.140809 301.042533 
L 164.736 299.826484 
L 165.331191 298.242871 
L 166.521595 294.007816 
L 167.116809 291.77198 
L 167.712 290.185879 
L 168.307191 290.099698 
L 168.902405 292.215787 
L 169.497595 296.502659 
L 170.092809 301.916755 
L 170.688 301.166933 
L 171.283191 297.792619 
L 171.878405 296.208849 
L 172.473595 295.93079 
L 173.068809 296.347328 
L 174.854405 298.302786 
L 176.044809 299.281782 
L 177.830405 300.409947 
L 179.616 301.49604 
L 180.806405 302.447168 
L 181.401595 303.102299 
L 181.996809 303.972214 
L 182.592 302.879259 
L 183.187191 301.172999 
L 183.782405 298.71221 
L 184.377595 295.155536 
L 184.972809 290.080119 
L 185.568 283.059391 
L 186.163191 273.870154 
L 187.948809 241.135179 
L 188.544 234.671703 
L 189.139191 232.873412 
L 189.734405 235.279542 
L 190.329595 240.652348 
L 190.924809 247.970297 
L 191.52 256.934912 
L 192.115191 267.936592 
L 192.710405 281.687691 
L 193.305595 298.552411 
L 193.900809 290.473207 
L 194.496 272.207105 
L 195.091191 258.70745 
L 195.686405 252.543383 
L 196.281595 252.945879 
L 196.876809 256.919536 
L 198.067191 266.513979 
L 199.257595 273.48446 
L 201.638382 284.963654 
L 202.233618 288.969558 
L 202.828809 294.066763 
L 203.424 300.550677 
L 204.019191 299.55611 
L 205.209618 281.664016 
L 205.804809 274.645387 
L 206.4 271.266606 
L 206.995191 272.368424 
L 207.590382 277.47202 
L 208.780809 293.91539 
L 209.376 302.354782 
L 209.971191 298.420398 
L 210.566382 292.741163 
L 211.161618 288.724239 
L 211.756809 286.168434 
L 212.352 284.742873 
L 212.947191 284.102069 
L 213.542382 283.958525 
L 214.137618 284.101682 
L 217.113618 285.541413 
L 217.708809 285.598967 
L 218.304 285.48171 
L 218.899191 285.14115 
L 219.494382 284.523533 
L 220.089618 283.573295 
L 220.684809 282.244745 
L 221.875191 278.47771 
L 223.065618 274.450374 
L 223.660809 273.641465 
L 224.256 274.901762 
L 224.851191 279.298618 
L 225.446382 287.393878 
L 226.041618 298.482123 
L 226.636809 297.820276 
L 227.232 288.510609 
L 227.827191 283.671847 
L 228.422382 283.134627 
L 229.017618 285.232158 
L 230.208 291.103545 
L 230.803191 293.481184 
L 231.398382 295.363226 
L 232.588809 298.156746 
L 234.969618 302.942189 
L 235.564809 303.615383 
L 236.755191 299.749078 
L 237.945618 294.39405 
L 239.136 288.284099 
L 239.731191 285.929219 
L 240.326382 284.966442 
L 240.921618 286.090286 
L 241.516809 289.606555 
L 242.707191 301.611182 
L 243.302382 300.362374 
L 243.897618 295.726849 
L 244.492809 292.925813 
L 245.088 291.749459 
L 245.683191 291.69964 
L 246.278382 292.287027 
L 247.468809 294.157831 
L 249.849618 298.443083 
L 251.04 301.190067 
L 251.635191 302.940033 
L 252.230382 302.976272 
L 252.825618 300.32805 
L 253.420809 297.041598 
L 254.611191 288.304217 
L 255.801618 278.013436 
L 256.396809 273.947673 
L 256.992 272.077058 
L 257.587191 273.446349 
L 258.182382 278.531005 
L 258.777618 286.908685 
L 259.372809 297.230296 
L 259.968 300.490948 
L 260.563191 291.998964 
L 261.158382 286.420323 
L 261.753618 283.774848 
L 262.348809 283.335203 
L 262.944 284.184725 
L 264.134382 287.194922 
L 267.705618 296.725486 
L 268.300809 298.833796 
L 269.491191 303.464452 
L 270.086382 299.406976 
L 270.681618 294.25979 
L 271.276809 287.860945 
L 272.467191 271.799949 
L 273.657618 256.183738 
L 274.252809 251.402385 
L 274.848 249.759591 
L 275.443191 251.331889 
L 276.038382 255.775886 
L 276.633618 262.74221 
L 277.228809 272.11382 
L 277.824 283.919413 
L 278.419191 297.943575 
L 279.014382 294.864846 
L 279.609618 280.439494 
L 280.204809 269.326425 
L 280.8 263.126028 
L 281.395191 261.638659 
L 281.990382 263.322975 
L 284.966382 278.780699 
L 286.752 287.170547 
L 287.347191 290.739589 
L 287.942382 295.14563 
L 288.537618 300.726911 
L 289.132809 300.253979 
L 290.323191 281.562225 
L 291.513618 262.413857 
L 292.108809 256.818621 
L 292.704 255.684728 
L 293.299191 259.070327 
L 293.894382 266.183752 
L 294.489618 276.03683 
L 295.68 300.356153 
L 296.275191 295.385535 
L 296.870382 284.80415 
L 297.465618 277.132216 
L 298.060809 272.785944 
L 298.656 271.314675 
L 299.251191 271.787948 
L 299.846382 273.28615 
L 302.227191 280.582956 
L 303.417618 283.562368 
L 305.203191 287.373803 
L 307.584 292.196631 
L 308.179191 293.688872 
L 308.774382 295.536275 
L 309.369618 297.979694 
L 309.964809 301.37234 
L 310.56 301.863741 
L 311.155191 295.091252 
L 311.750382 286.022965 
L 312.940809 263.937125 
L 313.536 256.029975 
L 314.131191 254.923326 
L 314.726382 262.277847 
L 315.321618 276.485269 
L 315.916809 293.60791 
L 316.512 298.718317 
L 317.107191 287.550249 
L 317.702382 281.868885 
L 318.297618 280.574914 
L 318.892809 281.798185 
L 321.868809 292.46601 
L 323.059191 296.315398 
L 324.249618 301.055132 
L 324.844809 303.963361 
L 325.44 300.287377 
L 326.630382 290.562656 
L 329.011191 267.604131 
L 329.606382 265.324566 
L 330.201618 266.192678 
L 330.796809 270.532763 
L 331.392 278.153596 
L 332.582382 300.032022 
L 333.177618 296.535975 
L 333.772809 286.923619 
L 334.368 280.379572 
L 334.963191 277.13014 
L 335.558382 276.534567 
L 336.153618 277.603456 
L 337.344 281.649177 
L 339.724809 290.735308 
L 340.915191 296.496918 
L 342.105618 303.290378 
L 342.700809 297.690842 
L 343.891191 283.023803 
L 345.676809 258.604164 
L 346.272 253.410935 
L 346.867191 250.844353 
L 347.462382 250.772126 
L 348.057618 252.654049 
L 348.652809 255.908184 
L 349.248 260.167898 
L 349.843191 265.370767 
L 350.438382 271.742738 
L 351.033618 279.727534 
L 351.628809 289.844119 
L 352.224 302.386783 
L 352.819191 291.116857 
L 354.009618 263.463059 
L 354.604809 255.427591 
L 355.2 252.806937 
L 355.795191 254.435384 
L 356.390382 258.396221 
L 358.771191 278.111554 
L 359.961618 290.394264 
L 360.556809 298.289482 
L 361.152 300.447978 
L 362.937618 269.622902 
L 363.532809 262.63948 
L 364.128 259.204906 
L 364.723191 259.280409 
L 365.318382 262.115469 
L 365.913618 266.848604 
L 367.104 280.091634 
L 368.294382 297.834849 
L 368.889618 299.877348 
L 370.08 279.466767 
L 370.675191 271.584432 
L 371.270382 266.395292 
L 371.865618 263.964822 
L 372.460809 263.746562 
L 373.056 264.949168 
L 374.246382 269.062785 
L 376.032 275.449713 
L 378.412809 283.523628 
L 379.008 285.963598 
L 379.603191 288.924685 
L 380.198382 292.737105 
L 381.388809 303.235472 
L 381.984 293.955444 
L 383.769618 257.707433 
L 384.364809 250.24868 
L 384.96 249.406422 
L 385.555191 255.374035 
L 386.150382 266.475813 
L 387.340809 295.759097 
L 387.936 297.998383 
L 388.531191 286.434534 
L 389.126382 278.830052 
L 389.721618 275.261619 
L 390.316809 274.805166 
L 390.912 276.197734 
L 392.102382 280.87356 
L 394.483191 290.953267 
L 395.673618 297.486665 
L 396.268809 301.736124 
L 396.864 301.12507 
L 398.054382 287.365659 
L 399.84 262.391983 
L 400.435191 256.100181 
L 401.030382 252.180441 
L 401.625618 250.726966 
L 402.220809 251.308666 
L 402.816 253.276702 
L 404.006382 259.259981 
L 405.196809 266.620512 
L 405.792 271.048084 
L 406.387191 276.428392 
L 406.982382 283.302834 
L 407.577618 292.317385 
L 408.172809 304.014106 
L 409.958382 259.791973 
L 410.553618 250.176885 
L 411.148809 246.839314 
L 411.744 248.978383 
L 412.339191 254.460222 
L 413.529618 269.057523 
L 414.72 286.210664 
L 414.72 286.210664 
" clip-path="url(#pf23c34955f)" style="fill: none; stroke: #0000cc; stroke-width: 1.5; stroke-linecap: square"/>
   </g>
   <g id="line2d_39">
    <path d="M 57.6 304.021716 
L 64.742405 304.007763 
L 69.504 304.023546 
L 83.788809 303.92078 
L 84.979191 303.748072 
L 86.169595 303.340677 
L 87.955191 302.33955 
L 88.550405 302.331675 
L 89.145595 302.762148 
L 89.740809 303.519418 
L 90.336 303.82031 
L 90.931191 303.388927 
L 91.526405 303.255756 
L 92.716809 303.413021 
L 95.097595 303.706015 
L 99.264 304.009869 
L 102.835191 303.563302 
L 104.025595 303.663633 
L 105.811191 303.969598 
L 107.596809 303.743545 
L 109.977595 303.745853 
L 114.144 303.971348 
L 114.739191 304.019414 
L 118.905595 303.534708 
L 120.096 303.740028 
L 121.286405 303.992844 
L 122.476809 303.781205 
L 124.262405 303.711617 
L 129.024 303.889467 
L 130.809595 304.0014 
L 134.976 303.502616 
L 136.166405 303.768921 
L 136.761595 303.953424 
L 137.952 303.813549 
L 139.737595 303.697547 
L 144.499191 303.846141 
L 147.475191 303.956363 
L 151.046405 303.420711 
L 152.236809 303.677192 
L 153.427191 303.969597 
L 154.617595 303.730103 
L 156.403191 303.689635 
L 164.736 303.931367 
L 168.307191 303.36854 
L 169.497595 303.724031 
L 170.092809 303.973867 
L 172.473595 303.669087 
L 181.401595 303.916435 
L 183.782405 303.980851 
L 185.568 303.654097 
L 186.758405 303.411467 
L 187.353595 303.39836 
L 188.544 303.747639 
L 189.139191 304.000711 
L 190.329595 303.758578 
L 192.115191 303.761027 
L 199.852809 304.008194 
L 201.638382 303.771276 
L 203.424 303.27542 
L 204.614382 302.993931 
L 205.209618 303.049553 
L 205.804809 303.298192 
L 206.995191 303.969426 
L 207.590382 303.676496 
L 208.780809 303.484097 
L 220.089618 303.764934 
L 221.875191 303.501587 
L 223.065618 303.015918 
L 224.256 302.100217 
L 224.851191 301.603497 
L 225.446382 301.275258 
L 226.041618 301.397942 
L 226.636809 302.12854 
L 227.232 303.301037 
L 227.827191 303.614766 
L 228.422382 302.892087 
L 229.017618 302.63397 
L 229.612809 302.669633 
L 231.993618 303.201036 
L 234.374382 303.382906 
L 239.731191 303.620811 
L 241.516809 303.966461 
L 242.707191 303.607525 
L 243.897618 303.556078 
L 246.873618 303.98505 
L 249.849618 303.815113 
L 252.825618 303.600545 
L 254.611191 303.22456 
L 255.801618 302.710186 
L 256.992 301.903554 
L 258.182382 301.088592 
L 258.777618 300.988636 
L 259.372809 301.329317 
L 259.968 302.16092 
L 260.563191 303.327006 
L 261.158382 303.575978 
L 261.753618 302.747519 
L 262.348809 302.327345 
L 262.944 302.235837 
L 264.134382 302.48627 
L 265.92 302.924606 
L 269.491191 303.45788 
L 271.276809 303.781532 
L 271.872 303.944488 
L 272.467191 303.890157 
L 273.062382 303.583817 
L 273.657618 303.143048 
L 274.252809 302.495175 
L 274.848 301.532039 
L 275.443191 300.096044 
L 276.038382 297.971265 
L 276.633618 294.897233 
L 277.228809 290.63903 
L 279.014382 273.844154 
L 279.609618 271.993448 
L 280.204809 275.858277 
L 280.8 285.691309 
L 281.395191 298.632045 
L 281.990382 297.810089 
L 282.585618 290.556997 
L 283.180809 287.87504 
L 283.776 288.172048 
L 286.156809 293.993337 
L 287.347191 295.554406 
L 288.537618 296.616129 
L 291.513618 298.99342 
L 292.108809 299.703719 
L 292.704 300.637859 
L 293.299191 301.889383 
L 293.894382 303.544879 
L 294.489618 302.4238 
L 295.68 297.726544 
L 296.275191 296.098525 
L 296.870382 295.771634 
L 297.465618 296.965817 
L 299.251191 303.679685 
L 299.846382 301.988809 
L 300.441618 300.958687 
L 301.036809 300.416455 
L 301.632 300.174781 
L 302.822382 300.091631 
L 305.203191 300.137171 
L 306.393618 299.943509 
L 306.988809 299.721679 
L 307.584 299.367018 
L 308.179191 298.833419 
L 308.774382 298.042332 
L 309.369618 296.89879 
L 309.964809 295.27749 
L 310.56 293.033941 
L 311.155191 290.0315 
L 312.345618 281.752641 
L 312.940809 277.221055 
L 313.536 273.767886 
L 314.131191 273.026976 
L 314.726382 276.518575 
L 315.321618 284.672403 
L 315.916809 296.053168 
L 316.512 300.388299 
L 317.107191 291.537479 
L 317.702382 286.818128 
L 318.297618 285.659743 
L 318.892809 286.593331 
L 320.678382 291.509077 
L 321.868809 293.642523 
L 323.059191 295.061262 
L 324.249618 296.100071 
L 325.44 296.894079 
L 326.630382 297.491139 
L 329.606382 298.709538 
L 330.201618 299.271957 
L 330.796809 300.208146 
L 331.392 301.675768 
L 331.987191 303.709977 
L 332.582382 302.047904 
L 333.177618 299.977221 
L 333.772809 298.938147 
L 334.368 299.119672 
L 334.963191 300.269267 
L 336.153618 302.959775 
L 336.748809 303.831903 
L 337.344 303.700606 
L 337.939191 303.429571 
L 339.129618 303.289704 
L 340.915191 303.47555 
L 343.296 303.885475 
L 344.486382 303.14085 
L 345.081618 302.541625 
L 345.676809 301.697041 
L 346.272 300.489765 
L 346.867191 298.76106 
L 347.462382 296.289812 
L 348.057618 292.824102 
L 348.652809 288.113366 
L 349.843191 275.04909 
L 350.438382 268.116878 
L 351.033618 263.238345 
L 351.628809 262.810857 
L 352.224 268.521753 
L 352.819191 280.178785 
L 353.414382 295.28286 
L 354.009618 298.122672 
L 354.604809 287.412817 
L 355.2 281.96527 
L 355.795191 280.840739 
L 356.390382 282.129052 
L 357.580809 286.306075 
L 358.176 288.030361 
L 358.771191 289.39216 
L 359.961618 291.312582 
L 361.152 292.557656 
L 362.342382 293.306426 
L 362.937618 293.480327 
L 363.532809 293.489122 
L 364.128 293.291783 
L 364.723191 292.829651 
L 365.318382 292.03239 
L 365.913618 290.815393 
L 366.508809 289.098761 
L 367.699191 284.200801 
L 368.294382 281.457221 
L 368.889618 279.417744 
L 369.484809 279.260017 
L 370.08 282.297454 
L 370.675191 289.10948 
L 371.270382 298.737163 
L 371.865618 299.516572 
L 372.460809 292.292163 
L 373.056 288.907146 
L 373.651191 288.668181 
L 374.246382 290.101687 
L 375.436809 293.679829 
L 376.032 295.014771 
L 376.627191 296.010791 
L 377.817618 297.305775 
L 379.008 298.077808 
L 380.198382 298.561631 
L 381.388809 298.796637 
L 382.579191 298.786892 
L 384.96 298.423439 
L 385.555191 298.651934 
L 386.150382 299.325264 
L 386.745618 300.626259 
L 387.340809 302.553782 
L 387.936 303.233409 
L 388.531191 301.241053 
L 389.126382 300.049306 
L 389.721618 299.838645 
L 390.316809 300.33041 
L 392.102382 302.550812 
L 393.292809 303.365234 
L 394.483191 303.807449 
L 395.078382 303.969048 
L 395.673618 303.935411 
L 397.459191 303.422898 
L 398.649618 302.846268 
L 399.244809 302.397686 
L 399.84 301.768671 
L 400.435191 300.872144 
L 401.030382 299.58267 
L 401.625618 297.718524 
L 402.220809 295.042208 
L 402.816 291.233229 
L 403.411191 285.993335 
L 404.006382 279.111139 
L 405.792 253.42752 
L 406.387191 248.354359 
L 406.982382 248.33412 
L 407.577618 254.345404 
L 408.172809 266.123675 
L 409.363191 300.83773 
L 410.553618 277.383646 
L 411.148809 271.072325 
L 411.744 270.134236 
L 412.339191 272.259891 
L 413.529618 278.351634 
L 414.124809 280.793098 
L 414.72 282.693054 
L 414.72 282.693054 
" clip-path="url(#pf23c34955f)" style="fill: none; stroke-dasharray: 9.6,2.4,1.5,2.4; stroke-dashoffset: 0; stroke: #ff0000; stroke-width: 1.5"/>
   </g>
   <g id="patch_13">
    <path d="M 57.6 307.584 
L 57.6 229.315765 
" style="fill: none; stroke: #000000; stroke-width: 0.8; stroke-linejoin: miter; stroke-linecap: square"/>
   </g>
   <g id="patch_14">
    <path d="M 414.72 307.584 
L 414.72 229.315765 
" style="fill: none; stroke: #000000; stroke-width: 0.8; stroke-linejoin: miter; stroke-linecap: square"/>
   </g>
   <g id="patch_15">
    <path d="M 57.6 307.584 
L 414.72 307.584 
" style="fill: none; stroke: #000000; stroke-width: 0.8; stroke-linejoin: miter; stroke-linecap: square"/>
   </g>
   <g id="patch_16">
    <path d="M 57.6 229.315765 
L 414.72 229.315765 
" style="fill: none; stroke: #000000; stroke-width: 0.8; stroke-linejoin: miter; stroke-linecap: square"/>
   </g>
  </g>
 </g>
 <defs>
  <clipPath id="p33542d05fe">
   <rect x="57.6" y="41.472" width="357.12" height="78.268235"/>
  </clipPath>
  <clipPath id="p1569a65142">
   <rect x="57.6" y="135.393882" width="357.12" height="78.268235"/>
  </clipPath>
  <clipPath id="pf23c34955f">
   <rect x="57.6" y="229.315765" width="357.12" height="78.268235"/>
  </clipPath>
 </defs>
</svg>
