<?xml version="1.0" encoding="utf-8" standalone="no"?>
<!DOCTYPE svg PUBLIC "-//W3C//DTD SVG 1.1//EN"
  "http://www.w3.org/Graphics/SVG/1.1/DTD/svg11.dtd">
<svg xmlns:xlink="http://www.w3.org/1999/xlink" width="460.8pt" height="345.6pt" viewBox="0 0 460.8 345.6" xmlns="http://www.w3.org/2000/svg" version="1.1">
 <metadata>
  <rdf:RDF xmlns:dc="http://purl.org/dc/elements/1.1/" xmlns:cc="http://creativecommons.org/ns#" xmlns:rdf="http://www.w3.org/1999/02/22-rdf-syntax-ns#">
   <cc:Work>
    <dc:type rdf:resource="http://purl.org/dc/dcmitype/StillImage"/>
    <dc:date>2023-10-24T02:42:42.203752</dc:date>
    <dc:format>image/svg+xml</dc:format>
    <dc:creator>
     <cc:Agent>
      <dc:title>Matplotlib v3.5.2, https://matplotlib.org/</dc:title>
     </cc:Agent>
    </dc:creator>
   </cc:Work>
  </rdf:RDF>
 </metadata>
 <defs>
  <style type="text/css">*{stroke-linejoin: round; stroke-linecap: butt}</style>
 </defs>
 <g id="figure_1">
  <g id="patch_1">
   <path d="M 0 345.6 
L 460.8 345.6 
L 460.8 0 
L 0 0 
z
" style="fill: #ffffff"/>
  </g>
  <g id="axes_1">
   <g id="patch_2">
    <path d="M 57.6 119.740235 
L 414.72 119.740235 
L 414.72 41.472 
L 57.6 41.472 
z
" style="fill: #ffffff"/>
   </g>
   <g id="matplotlib.axis_1">
    <g id="xtick_1">
     <g id="line2d_1">
      <defs>
       <path id="m636a34cb42" d="M 0 0 
L 0 3.5 
" style="stroke: #000000; stroke-width: 0.8"/>
      </defs>
      <g>
       <use xlink:href="#m636a34cb42" x="71.790906" y="119.740235" style="stroke: #000000; stroke-width: 0.8"/>
      </g>
     </g>
     <g id="text_1">
      <!-- 10 -->
      <g transform="translate(65.428406 134.338673)scale(0.1 -0.1)">
       <defs>
        <path id="DejaVuSans-31" d="M 794 531 
L 1825 531 
L 1825 4091 
L 703 3866 
L 703 4441 
L 1819 4666 
L 2450 4666 
L 2450 531 
L 3481 531 
L 3481 0 
L 794 0 
L 794 531 
z
" transform="scale(0.015625)"/>
        <path id="DejaVuSans-30" d="M 2034 4250 
Q 1547 4250 1301 3770 
Q 1056 3291 1056 2328 
Q 1056 1369 1301 889 
Q 1547 409 2034 409 
Q 2525 409 2770 889 
Q 3016 1369 3016 2328 
Q 3016 3291 2770 3770 
Q 2525 4250 2034 4250 
z
M 2034 4750 
Q 2819 4750 3233 4129 
Q 3647 3509 3647 2328 
Q 3647 1150 3233 529 
Q 2819 -91 2034 -91 
Q 1250 -91 836 529 
Q 422 1150 422 2328 
Q 422 3509 836 4129 
Q 1250 4750 2034 4750 
z
" transform="scale(0.015625)"/>
       </defs>
       <use xlink:href="#DejaVuSans-31"/>
       <use xlink:href="#DejaVuSans-30" x="63.623047"/>
      </g>
     </g>
    </g>
    <g id="xtick_2">
     <g id="line2d_2">
      <g>
       <use xlink:href="#m636a34cb42" x="235.139089" y="119.740235" style="stroke: #000000; stroke-width: 0.8"/>
      </g>
     </g>
     <g id="text_2">
      <!-- 12 -->
      <g transform="translate(228.776589 134.338673)scale(0.1 -0.1)">
       <defs>
        <path id="DejaVuSans-32" d="M 1228 531 
L 3431 531 
L 3431 0 
L 469 0 
L 469 531 
Q 828 903 1448 1529 
Q 2069 2156 2228 2338 
Q 2531 2678 2651 2914 
Q 2772 3150 2772 3378 
Q 2772 3750 2511 3984 
Q 2250 4219 1831 4219 
Q 1534 4219 1204 4116 
Q 875 4013 500 3803 
L 500 4441 
Q 881 4594 1212 4672 
Q 1544 4750 1819 4750 
Q 2544 4750 2975 4387 
Q 3406 4025 3406 3419 
Q 3406 3131 3298 2873 
Q 3191 2616 2906 2266 
Q 2828 2175 2409 1742 
Q 1991 1309 1228 531 
z
" transform="scale(0.015625)"/>
       </defs>
       <use xlink:href="#DejaVuSans-31"/>
       <use xlink:href="#DejaVuSans-32" x="63.623047"/>
      </g>
     </g>
    </g>
    <g id="xtick_3">
     <g id="line2d_3">
      <g>
       <use xlink:href="#m636a34cb42" x="398.487273" y="119.740235" style="stroke: #000000; stroke-width: 0.8"/>
      </g>
     </g>
     <g id="text_3">
      <!-- 14 -->
      <g transform="translate(392.124773 134.338673)scale(0.1 -0.1)">
       <defs>
        <path id="DejaVuSans-34" d="M 2419 4116 
L 825 1625 
L 2419 1625 
L 2419 4116 
z
M 2253 4666 
L 3047 4666 
L 3047 1625 
L 3713 1625 
L 3713 1100 
L 3047 1100 
L 3047 0 
L 2419 0 
L 2419 1100 
L 313 1100 
L 313 1709 
L 2253 4666 
z
" transform="scale(0.015625)"/>
       </defs>
       <use xlink:href="#DejaVuSans-31"/>
       <use xlink:href="#DejaVuSans-34" x="63.623047"/>
      </g>
     </g>
    </g>
   </g>
   <g id="matplotlib.axis_2">
    <g id="ytick_1">
     <g id="line2d_4">
      <defs>
       <path id="m7ddd3c19a0" d="M 0 0 
L -3.5 0 
" style="stroke: #000000; stroke-width: 0.8"/>
      </defs>
      <g>
       <use xlink:href="#m7ddd3c19a0" x="57.6" y="116.187706" style="stroke: #000000; stroke-width: 0.8"/>
      </g>
     </g>
     <g id="text_4">
      <!-- 0 -->
      <g transform="translate(44.2375 119.986925)scale(0.1 -0.1)">
       <use xlink:href="#DejaVuSans-30"/>
      </g>
     </g>
    </g>
    <g id="ytick_2">
     <g id="line2d_5">
      <g>
       <use xlink:href="#m7ddd3c19a0" x="57.6" y="88.727462" style="stroke: #000000; stroke-width: 0.8"/>
      </g>
     </g>
     <g id="text_5">
      <!-- 1 -->
      <g transform="translate(44.2375 92.52668)scale(0.1 -0.1)">
       <use xlink:href="#DejaVuSans-31"/>
      </g>
     </g>
    </g>
    <g id="ytick_3">
     <g id="line2d_6">
      <g>
       <use xlink:href="#m7ddd3c19a0" x="57.6" y="61.267217" style="stroke: #000000; stroke-width: 0.8"/>
      </g>
     </g>
     <g id="text_6">
      <!-- 2 -->
      <g transform="translate(44.2375 65.066436)scale(0.1 -0.1)">
       <use xlink:href="#DejaVuSans-32"/>
      </g>
     </g>
    </g>
   </g>
   <g id="line2d_7">
    <path d="M 73.832727 116.10097 
L 75.874626 108.685829 
L 77.916447 112.91862 
L 79.958346 111.769658 
L 82.000168 111.158909 
L 84.041989 111.957466 
L 86.083888 111.733001 
L 88.125709 111.689708 
L 92.209429 111.016233 
L 94.25125 112.386394 
L 96.293149 115.881027 
L 98.33497 112.040908 
L 100.376869 113.210102 
L 102.418691 115.926561 
L 104.460512 114.475921 
L 106.502411 112.85501 
L 108.544232 113.033748 
L 110.586131 112.311759 
L 112.627952 112.826114 
L 114.669773 113.666364 
L 116.711672 113.728339 
L 124.879035 116.105263 
L 131.004654 115.148966 
L 135.088296 114.954641 
L 139.172016 115.063444 
L 145.297557 115.534582 
L 151.423177 116.129533 
L 153.464998 116.032223 
L 157.548718 115.397665 
L 159.590539 114.758563 
L 161.632438 113.578938 
L 163.674259 111.330261 
L 165.71608 107.060284 
L 167.757979 99.895649 
L 169.799801 90.178933 
L 171.8417 83.119314 
L 173.883521 92.17971 
L 175.925342 102.73209 
L 177.967241 55.22085 
L 180.009062 45.029647 
L 182.050961 73.615471 
L 184.092782 105.614348 
L 186.134603 86.48579 
L 188.176502 75.246038 
L 190.218323 96.387735 
L 192.260222 97.571735 
L 194.302044 111.01809 
L 196.343865 114.053 
L 198.385764 113.392245 
L 200.427585 116.046447 
L 204.511305 115.230839 
L 206.553126 116.08507 
L 210.636846 115.854656 
L 212.678745 115.098082 
L 214.720567 114.189146 
L 216.762388 113.10069 
L 218.804287 111.874469 
L 220.846108 111.043424 
L 222.888007 111.339722 
L 226.971649 115.427782 
L 229.013548 111.513022 
L 231.055369 109.185185 
L 233.097268 109.307694 
L 235.139089 111.118811 
L 237.180911 113.342393 
L 239.22281 115.372648 
L 241.264631 115.270474 
L 243.30653 114.037904 
L 245.348351 113.565058 
L 247.390172 113.823791 
L 253.515791 115.745591 
L 255.557612 116.179896 
L 259.641333 115.788822 
L 261.683154 115.763192 
L 263.725053 115.878577 
L 265.766874 116.152756 
L 267.808695 115.648307 
L 269.850594 114.733665 
L 273.934314 112.171672 
L 275.976135 111.438577 
L 278.017956 112.05925 
L 280.059855 114.597896 
L 282.101677 114.047108 
L 284.143576 110.974736 
L 286.185397 110.16898 
L 288.227218 111.264063 
L 290.269117 112.74745 
L 292.310938 114.063335 
L 294.352837 115.523939 
L 296.394658 115.218223 
L 298.436479 114.057698 
L 300.478378 113.742265 
L 302.520199 114.123378 
L 306.60392 115.374514 
L 308.645741 115.863396 
L 310.68764 116.182588 
L 314.77136 115.797026 
L 318.855002 115.648546 
L 320.896901 115.730959 
L 322.938722 116.018773 
L 324.980621 115.734768 
L 327.022443 114.723486 
L 331.106163 112.089612 
L 333.147984 111.766993 
L 335.189883 113.094813 
L 337.231704 115.70281 
L 339.273525 114.379953 
L 341.315424 113.69019 
L 343.357245 113.720431 
L 347.440965 112.493388 
L 349.482787 113.122703 
L 351.524686 115.261015 
L 353.566507 115.016694 
L 355.608406 114.046138 
L 357.650227 114.047696 
L 363.775768 115.495401 
L 367.859488 116.007069 
L 369.901309 116.15849 
L 373.98503 115.649912 
L 378.06875 114.872677 
L 380.110571 114.476555 
L 382.15247 114.23908 
L 384.194291 114.419247 
L 386.23619 115.369549 
L 388.278011 114.976181 
L 392.361731 109.116098 
L 394.403553 107.61812 
L 396.445452 107.896246 
L 398.487273 110.125713 
L 398.487273 110.125713 
" clip-path="url(#p2461b5b00d)" style="fill: none; stroke: #385989; stroke-width: 1.5; stroke-linecap: square"/>
   </g>
   <g id="line2d_8">
    <path d="M 73.832727 115.285632 
L 75.874626 115.988557 
L 82.000168 115.889888 
L 84.041989 115.611149 
L 86.083888 116.051104 
L 88.125709 115.307046 
L 90.167608 114.945713 
L 96.293149 116.15824 
L 98.33497 115.992689 
L 100.376869 115.256397 
L 102.418691 115.823069 
L 106.502411 115.744232 
L 108.544232 115.937267 
L 112.627952 115.891585 
L 114.669773 115.714964 
L 116.711672 116.010417 
L 122.837213 116.134594 
L 151.423177 116.17087 
L 153.464998 115.904798 
L 159.590539 116.12897 
L 161.632438 116.089818 
L 165.71608 115.594828 
L 167.757979 114.922624 
L 169.799801 113.523553 
L 171.8417 112.291436 
L 173.883521 111.322621 
L 175.925342 112.754162 
L 177.967241 113.37224 
L 180.009062 105.680916 
L 182.050961 102.545639 
L 184.092782 110.270602 
L 186.134603 115.094199 
L 188.176502 112.09337 
L 190.218323 112.795654 
L 192.260222 114.758762 
L 194.302044 115.233529 
L 198.385764 115.70624 
L 202.469484 115.66597 
L 208.595025 115.825718 
L 214.720567 115.722486 
L 218.804287 115.530686 
L 220.846108 115.378482 
L 222.888007 115.597684 
L 224.929828 115.599339 
L 226.971649 116.175064 
L 233.097268 114.802998 
L 235.139089 115.108708 
L 237.180911 115.104242 
L 239.22281 116.07165 
L 243.30653 115.900238 
L 255.557612 116.141441 
L 261.683154 116.129611 
L 265.766874 115.983121 
L 271.892415 115.457476 
L 273.934314 115.65342 
L 275.976135 113.926291 
L 278.017956 114.259206 
L 280.059855 115.905843 
L 282.101677 115.537974 
L 284.143576 114.878665 
L 286.185397 115.420081 
L 288.227218 114.733812 
L 290.269117 115.707354 
L 292.310938 115.943126 
L 294.352837 115.849274 
L 296.394658 115.933196 
L 298.436479 115.849836 
L 302.520199 116.127221 
L 306.60392 116.110636 
L 318.855002 116.126435 
L 329.064264 115.29598 
L 331.106163 115.253783 
L 333.147984 115.500501 
L 335.189883 116.02436 
L 337.231704 115.520871 
L 339.273525 114.84918 
L 341.315424 114.638631 
L 343.357245 114.993722 
L 345.399144 115.708779 
L 347.440965 116.10837 
L 349.482787 115.808211 
L 351.524686 115.77002 
L 353.566507 115.931222 
L 355.608406 115.945701 
L 359.692048 115.659787 
L 361.733947 116.100532 
L 376.026929 115.968688 
L 378.06875 115.876636 
L 384.194291 115.207164 
L 386.23619 115.288789 
L 388.278011 114.385558 
L 390.319832 116.042929 
L 392.361731 115.348973 
L 394.403553 115.483171 
L 396.445452 114.702251 
L 398.487273 114.608271 
L 398.487273 114.608271 
" clip-path="url(#p2461b5b00d)" style="fill: none; stroke: #d22027; stroke-width: 1.5; stroke-linecap: square"/>
   </g>
   <g id="patch_3">
    <path d="M 57.6 119.740235 
L 57.6 41.472 
" style="fill: none; stroke: #000000; stroke-width: 0.8; stroke-linejoin: miter; stroke-linecap: square"/>
   </g>
   <g id="patch_4">
    <path d="M 414.72 119.740235 
L 414.72 41.472 
" style="fill: none; stroke: #000000; stroke-width: 0.8; stroke-linejoin: miter; stroke-linecap: square"/>
   </g>
   <g id="patch_5">
    <path d="M 57.6 119.740235 
L 414.72 119.740235 
" style="fill: none; stroke: #000000; stroke-width: 0.8; stroke-linejoin: miter; stroke-linecap: square"/>
   </g>
   <g id="patch_6">
    <path d="M 57.6 41.472 
L 414.72 41.472 
" style="fill: none; stroke: #000000; stroke-width: 0.8; stroke-linejoin: miter; stroke-linecap: square"/>
   </g>
  </g>
  <g id="axes_2">
   <g id="patch_7">
    <path d="M 57.6 213.662118 
L 414.72 213.662118 
L 414.72 135.393882 
L 57.6 135.393882 
z
" style="fill: #ffffff"/>
   </g>
   <g id="matplotlib.axis_3">
    <g id="xtick_4">
     <g id="line2d_9">
      <g>
       <use xlink:href="#m636a34cb42" x="71.790906" y="213.662118" style="stroke: #000000; stroke-width: 0.8"/>
      </g>
     </g>
     <g id="text_7">
      <!-- 10 -->
      <g transform="translate(65.428406 228.260555)scale(0.1 -0.1)">
       <use xlink:href="#DejaVuSans-31"/>
       <use xlink:href="#DejaVuSans-30" x="63.623047"/>
      </g>
     </g>
    </g>
    <g id="xtick_5">
     <g id="line2d_10">
      <g>
       <use xlink:href="#m636a34cb42" x="235.139089" y="213.662118" style="stroke: #000000; stroke-width: 0.8"/>
      </g>
     </g>
     <g id="text_8">
      <!-- 12 -->
      <g transform="translate(228.776589 228.260555)scale(0.1 -0.1)">
       <use xlink:href="#DejaVuSans-31"/>
       <use xlink:href="#DejaVuSans-32" x="63.623047"/>
      </g>
     </g>
    </g>
    <g id="xtick_6">
     <g id="line2d_11">
      <g>
       <use xlink:href="#m636a34cb42" x="398.487273" y="213.662118" style="stroke: #000000; stroke-width: 0.8"/>
      </g>
     </g>
     <g id="text_9">
      <!-- 14 -->
      <g transform="translate(392.124773 228.260555)scale(0.1 -0.1)">
       <use xlink:href="#DejaVuSans-31"/>
       <use xlink:href="#DejaVuSans-34" x="63.623047"/>
      </g>
     </g>
    </g>
   </g>
   <g id="matplotlib.axis_4">
    <g id="ytick_4">
     <g id="line2d_12">
      <g>
       <use xlink:href="#m7ddd3c19a0" x="57.6" y="210.108767" style="stroke: #000000; stroke-width: 0.8"/>
      </g>
     </g>
     <g id="text_10">
      <!-- 0 -->
      <g transform="translate(44.2375 213.907985)scale(0.1 -0.1)">
       <use xlink:href="#DejaVuSans-30"/>
      </g>
     </g>
    </g>
    <g id="ytick_5">
     <g id="line2d_13">
      <g>
       <use xlink:href="#m7ddd3c19a0" x="57.6" y="170.360292" style="stroke: #000000; stroke-width: 0.8"/>
      </g>
     </g>
     <g id="text_11">
      <!-- 5 -->
      <g transform="translate(44.2375 174.159511)scale(0.1 -0.1)">
       <defs>
        <path id="DejaVuSans-35" d="M 691 4666 
L 3169 4666 
L 3169 4134 
L 1269 4134 
L 1269 2991 
Q 1406 3038 1543 3061 
Q 1681 3084 1819 3084 
Q 2600 3084 3056 2656 
Q 3513 2228 3513 1497 
Q 3513 744 3044 326 
Q 2575 -91 1722 -91 
Q 1428 -91 1123 -41 
Q 819 9 494 109 
L 494 744 
Q 775 591 1075 516 
Q 1375 441 1709 441 
Q 2250 441 2565 725 
Q 2881 1009 2881 1497 
Q 2881 1984 2565 2268 
Q 2250 2553 1709 2553 
Q 1456 2553 1204 2497 
Q 953 2441 691 2322 
L 691 4666 
z
" transform="scale(0.015625)"/>
       </defs>
       <use xlink:href="#DejaVuSans-35"/>
      </g>
     </g>
    </g>
   </g>
   <g id="line2d_14">
    <path d="M 73.832727 209.579025 
L 75.874626 209.3552 
L 77.916447 209.770477 
L 79.958346 209.721484 
L 82.000168 210.06305 
L 84.041989 210.09857 
L 86.083888 209.863925 
L 88.125709 209.801317 
L 90.167608 209.972644 
L 92.209429 209.169692 
L 94.25125 208.8395 
L 96.293149 209.562623 
L 98.33497 209.915031 
L 100.376869 209.81789 
L 102.418691 209.264657 
L 106.502411 209.886731 
L 108.544232 209.400068 
L 110.586131 209.769037 
L 112.627952 209.796355 
L 114.669773 209.657944 
L 116.711672 209.912295 
L 118.753493 210.00417 
L 122.837213 209.473145 
L 126.920934 209.381977 
L 131.004654 209.581883 
L 137.130195 210.099597 
L 157.548718 208.452188 
L 159.590539 208.086574 
L 161.632438 207.367404 
L 163.674259 205.92817 
L 165.71608 203.184932 
L 169.799801 194.634081 
L 171.8417 197.177132 
L 173.883521 201.535372 
L 175.925342 160.432894 
L 177.967241 138.951529 
L 180.009062 183.400669 
L 182.050961 162.253706 
L 184.092782 143.559733 
L 186.134603 178.294074 
L 188.176502 209.435326 
L 190.218323 197.551848 
L 192.260222 199.6377 
L 194.302044 205.45081 
L 196.343865 207.618703 
L 198.385764 208.502156 
L 200.427585 209.526776 
L 204.511305 209.289016 
L 206.553126 209.320033 
L 212.678745 208.73285 
L 216.762388 208.174008 
L 218.804287 208.180938 
L 220.846108 208.777953 
L 222.888007 209.941863 
L 226.971649 205.381662 
L 229.013548 204.666466 
L 231.055369 206.41726 
L 233.097268 209.914319 
L 235.139089 207.043677 
L 237.180911 205.624362 
L 239.22281 206.121104 
L 243.30653 208.891689 
L 245.348351 209.763783 
L 247.390172 210.064498 
L 249.432071 210.00656 
L 251.473892 210.080979 
L 259.641333 209.359945 
L 265.766874 208.984692 
L 271.892415 208.315784 
L 273.934314 208.409065 
L 275.976135 209.189193 
L 278.017956 209.289121 
L 280.059855 206.896075 
L 282.101677 205.090471 
L 284.143576 205.333699 
L 286.185397 207.996172 
L 288.227218 208.690683 
L 290.269117 206.364798 
L 292.310938 206.131281 
L 294.352837 207.276057 
L 296.394658 208.673011 
L 298.436479 209.664738 
L 300.478378 210.063448 
L 302.520199 209.937031 
L 306.60392 210.009301 
L 310.68764 209.632981 
L 314.77136 209.455117 
L 322.938722 209.402392 
L 327.022443 209.04821 
L 329.064264 208.803477 
L 331.106163 208.809619 
L 333.147984 209.500916 
L 335.189883 209.139358 
L 337.231704 207.25244 
L 339.273525 206.323243 
L 341.315424 207.431224 
L 343.357245 209.961995 
L 345.399144 208.064055 
L 347.440965 207.416786 
L 349.482787 208.072615 
L 351.524686 209.034551 
L 353.566507 209.715116 
L 355.608406 210.070357 
L 361.733947 209.96298 
L 365.817667 209.647164 
L 369.901309 209.554194 
L 373.98503 209.80133 
L 376.026929 210.081068 
L 382.15247 208.940861 
L 384.194291 209.00779 
L 386.23619 209.987627 
L 388.278011 208.011279 
L 390.319832 205.11601 
L 392.361731 203.702936 
L 396.445452 208.56229 
L 398.487273 203.999375 
L 398.487273 203.999375 
" clip-path="url(#p9f1bdd9ff0)" style="fill: none; stroke: #385989; stroke-width: 1.5; stroke-linecap: square"/>
   </g>
   <g id="line2d_15">
    <path d="M 73.832727 209.656765 
L 75.874626 210.017082 
L 84.041989 210.008952 
L 86.083888 209.85118 
L 90.167608 209.869048 
L 92.209429 209.32409 
L 94.25125 209.545596 
L 96.293149 209.979584 
L 98.33497 210.07886 
L 100.376869 209.682304 
L 102.418691 210.006046 
L 104.460512 210.08251 
L 106.502411 209.893289 
L 120.795392 210.075471 
L 139.172016 210.088356 
L 163.674259 210.010927 
L 165.71608 209.753497 
L 167.757979 209.163698 
L 169.799801 208.199586 
L 171.8417 207.800496 
L 173.883521 209.048685 
L 175.925342 206.188362 
L 177.967241 200.776023 
L 180.009062 202.333509 
L 182.050961 209.02106 
L 184.092782 203.714581 
L 186.134603 204.791105 
L 188.176502 208.740011 
L 190.218323 209.279195 
L 192.260222 208.824936 
L 194.302044 209.605295 
L 198.385764 209.792774 
L 202.469484 210.07751 
L 220.846108 210.077934 
L 224.929828 209.723068 
L 226.971649 209.289729 
L 229.013548 209.326435 
L 231.055369 209.180408 
L 233.097268 210.07834 
L 239.22281 209.809308 
L 243.30653 210.081785 
L 247.390172 209.907844 
L 255.557612 209.950221 
L 267.808695 210.087571 
L 278.017956 209.968059 
L 280.059855 209.101384 
L 282.101677 208.881731 
L 284.143576 209.241897 
L 286.185397 209.912226 
L 288.227218 210.061107 
L 290.269117 209.7165 
L 292.310938 209.630305 
L 296.394658 210.098525 
L 300.478378 209.891263 
L 310.68764 209.973335 
L 322.938722 210.072928 
L 327.022443 209.962547 
L 331.106163 210.024182 
L 337.231704 208.864643 
L 339.273525 209.113893 
L 341.315424 209.809862 
L 343.357245 209.751514 
L 345.399144 209.470486 
L 347.440965 209.604253 
L 349.482787 209.903592 
L 351.524686 210.04401 
L 353.566507 209.907022 
L 355.608406 209.905405 
L 357.650227 209.669251 
L 359.692048 209.662764 
L 361.733947 209.948611 
L 380.110571 209.996966 
L 384.194291 209.827109 
L 386.23619 210.072656 
L 388.278011 210.104471 
L 390.319832 209.169589 
L 392.361731 208.487801 
L 394.403553 208.613866 
L 396.445452 209.864287 
L 398.487273 209.990697 
L 398.487273 209.990697 
" clip-path="url(#p9f1bdd9ff0)" style="fill: none; stroke: #d22027; stroke-width: 1.5; stroke-linecap: square"/>
   </g>
   <g id="patch_8">
    <path d="M 57.6 213.662118 
L 57.6 135.393882 
" style="fill: none; stroke: #000000; stroke-width: 0.8; stroke-linejoin: miter; stroke-linecap: square"/>
   </g>
   <g id="patch_9">
    <path d="M 414.72 213.662118 
L 414.72 135.393882 
" style="fill: none; stroke: #000000; stroke-width: 0.8; stroke-linejoin: miter; stroke-linecap: square"/>
   </g>
   <g id="patch_10">
    <path d="M 57.6 213.662118 
L 414.72 213.662118 
" style="fill: none; stroke: #000000; stroke-width: 0.8; stroke-linejoin: miter; stroke-linecap: square"/>
   </g>
   <g id="patch_11">
    <path d="M 57.6 135.393882 
L 414.72 135.393882 
" style="fill: none; stroke: #000000; stroke-width: 0.8; stroke-linejoin: miter; stroke-linecap: square"/>
   </g>
  </g>
  <g id="axes_3">
   <g id="patch_12">
    <path d="M 57.6 307.584 
L 414.72 307.584 
L 414.72 229.315765 
L 57.6 229.315765 
z
" style="fill: #ffffff"/>
   </g>
   <g id="matplotlib.axis_5">
    <g id="xtick_7">
     <g id="line2d_16">
      <g>
       <use xlink:href="#m636a34cb42" x="71.790906" y="307.584" style="stroke: #000000; stroke-width: 0.8"/>
      </g>
     </g>
     <g id="text_12">
      <!-- 10 -->
      <g transform="translate(65.428406 322.182437)scale(0.1 -0.1)">
       <use xlink:href="#DejaVuSans-31"/>
       <use xlink:href="#DejaVuSans-30" x="63.623047"/>
      </g>
     </g>
    </g>
    <g id="xtick_8">
     <g id="line2d_17">
      <g>
       <use xlink:href="#m636a34cb42" x="235.139089" y="307.584" style="stroke: #000000; stroke-width: 0.8"/>
      </g>
     </g>
     <g id="text_13">
      <!-- 12 -->
      <g transform="translate(228.776589 322.182437)scale(0.1 -0.1)">
       <use xlink:href="#DejaVuSans-31"/>
       <use xlink:href="#DejaVuSans-32" x="63.623047"/>
      </g>
     </g>
    </g>
    <g id="xtick_9">
     <g id="line2d_18">
      <g>
       <use xlink:href="#m636a34cb42" x="398.487273" y="307.584" style="stroke: #000000; stroke-width: 0.8"/>
      </g>
     </g>
     <g id="text_14">
      <!-- 14 -->
      <g transform="translate(392.124773 322.182437)scale(0.1 -0.1)">
       <use xlink:href="#DejaVuSans-31"/>
       <use xlink:href="#DejaVuSans-34" x="63.623047"/>
      </g>
     </g>
    </g>
   </g>
   <g id="matplotlib.axis_6">
    <g id="ytick_6">
     <g id="line2d_19">
      <g>
       <use xlink:href="#m7ddd3c19a0" x="57.6" y="304.02917" style="stroke: #000000; stroke-width: 0.8"/>
      </g>
     </g>
     <g id="text_15">
      <!-- 0 -->
      <g transform="translate(44.2375 307.828389)scale(0.1 -0.1)">
       <use xlink:href="#DejaVuSans-30"/>
      </g>
     </g>
    </g>
    <g id="ytick_7">
     <g id="line2d_20">
      <g>
       <use xlink:href="#m7ddd3c19a0" x="57.6" y="268.368649" style="stroke: #000000; stroke-width: 0.8"/>
      </g>
     </g>
     <g id="text_16">
      <!-- 5 -->
      <g transform="translate(44.2375 272.167868)scale(0.1 -0.1)">
       <use xlink:href="#DejaVuSans-35"/>
      </g>
     </g>
    </g>
    <g id="ytick_8">
     <g id="line2d_21">
      <g>
       <use xlink:href="#m7ddd3c19a0" x="57.6" y="232.708128" style="stroke: #000000; stroke-width: 0.8"/>
      </g>
     </g>
     <g id="text_17">
      <!-- 10 -->
      <g transform="translate(37.875 236.507347)scale(0.1 -0.1)">
       <use xlink:href="#DejaVuSans-31"/>
       <use xlink:href="#DejaVuSans-30" x="63.623047"/>
      </g>
     </g>
    </g>
   </g>
   <g id="line2d_22">
    <path d="M 73.832727 302.851376 
L 75.874626 303.981455 
L 79.958346 304.025737 
L 86.083888 303.976836 
L 88.125709 303.535175 
L 90.167608 302.782594 
L 92.209429 302.164925 
L 94.25125 302.520217 
L 96.293149 303.715246 
L 100.376869 303.923543 
L 102.418691 303.499932 
L 104.460512 303.401007 
L 106.502411 303.932773 
L 108.544232 303.648543 
L 110.586131 303.924827 
L 116.711672 303.787751 
L 122.837213 303.99325 
L 137.130195 303.972322 
L 147.339456 303.854878 
L 153.464998 303.90633 
L 155.506819 303.594803 
L 157.548718 303.078269 
L 159.590539 302.279936 
L 161.632438 301.148878 
L 163.674259 299.82775 
L 165.71608 299.048851 
L 167.757979 300.820408 
L 169.799801 299.005042 
L 171.8417 281.024155 
L 173.883521 261.510924 
L 177.967241 280.474448 
L 180.009062 232.873412 
L 182.050961 255.331786 
L 184.092782 303.17839 
L 186.134603 279.273745 
L 188.176502 278.574957 
L 190.218323 290.42639 
L 192.260222 300.673202 
L 194.302044 303.222772 
L 196.343865 302.22114 
L 198.385764 302.181445 
L 200.427585 302.8392 
L 202.469484 303.289771 
L 206.553126 303.558184 
L 212.678745 303.567093 
L 214.720567 303.764721 
L 216.762388 303.830712 
L 218.804287 303.003414 
L 220.846108 301.910257 
L 222.888007 300.973028 
L 224.929828 300.939258 
L 226.971649 302.466308 
L 229.013548 302.719879 
L 231.055369 299.984505 
L 233.097268 299.025044 
L 235.139089 300.131276 
L 237.180911 302.212887 
L 239.22281 304.012947 
L 241.264631 303.077746 
L 243.30653 302.845704 
L 245.348351 303.024681 
L 251.473892 303.918893 
L 253.515791 303.937542 
L 259.641333 303.523268 
L 265.766874 303.288083 
L 267.808695 303.340367 
L 271.892415 303.915205 
L 273.934314 302.956953 
L 275.976135 301.790849 
L 278.017956 300.924048 
L 280.059855 301.289968 
L 282.101677 303.362028 
L 284.143576 301.750664 
L 286.185397 299.795676 
L 288.227218 299.982985 
L 290.269117 301.64056 
L 292.310938 303.460293 
L 294.352837 303.446864 
L 296.394658 303.00853 
L 298.436479 303.044294 
L 306.60392 303.948324 
L 308.645741 303.955538 
L 316.813181 303.594096 
L 324.980621 303.332412 
L 327.022443 303.495276 
L 329.064264 304.020459 
L 331.106163 303.099711 
L 333.147984 301.97328 
L 335.189883 301.402853 
L 337.231704 302.193662 
L 339.273525 303.886744 
L 341.315424 302.057857 
L 343.357245 301.555548 
L 345.399144 302.207904 
L 347.440965 303.164541 
L 349.482787 303.921341 
L 353.566507 303.464417 
L 357.650227 303.570574 
L 363.775768 303.944159 
L 367.859488 304.005716 
L 378.06875 303.85792 
L 380.110571 303.524788 
L 382.15247 302.89778 
L 386.23619 300.98967 
L 388.278011 300.760943 
L 390.319832 302.392345 
L 392.361731 301.942851 
L 394.403553 298.004773 
L 396.445452 296.901871 
L 398.487273 299.521976 
L 398.487273 299.521976 
" clip-path="url(#p031b1dd7d4)" style="fill: none; stroke: #385989; stroke-width: 1.5; stroke-linecap: square"/>
   </g>
   <g id="line2d_23">
    <path d="M 73.832727 303.324068 
L 75.874626 303.987063 
L 84.041989 303.979586 
L 86.083888 303.638756 
L 88.125709 303.865548 
L 90.167608 303.956366 
L 92.209429 302.984375 
L 94.25125 303.118521 
L 96.293149 303.767306 
L 98.33497 303.765723 
L 100.376869 303.636109 
L 102.418691 303.967109 
L 114.669773 303.893784 
L 116.711672 304.017895 
L 151.423177 304.014605 
L 153.464998 303.885758 
L 159.590539 303.825768 
L 167.757979 303.504991 
L 169.799801 304.022788 
L 171.8417 302.489647 
L 173.883521 300.215047 
L 175.925342 299.66688 
L 177.967241 303.824831 
L 180.009062 295.936373 
L 182.050961 292.666789 
L 184.092782 298.454676 
L 186.134603 302.227067 
L 188.176502 300.288023 
L 190.218323 302.01882 
L 192.260222 303.213243 
L 194.302044 303.294983 
L 196.343865 303.857276 
L 212.678745 303.892369 
L 218.804287 304.018489 
L 222.888007 303.845476 
L 224.929828 303.81943 
L 226.971649 303.950604 
L 229.013548 303.603198 
L 233.097268 303.271177 
L 235.139089 303.41122 
L 237.180911 303.929544 
L 245.348351 303.915063 
L 253.515791 303.996019 
L 269.850594 303.930714 
L 271.892415 304.024625 
L 275.976135 303.803521 
L 278.017956 303.930273 
L 280.059855 303.775128 
L 282.101677 303.769277 
L 286.185397 302.983766 
L 288.227218 303.112991 
L 292.310938 303.866218 
L 306.60392 304.004254 
L 324.980621 303.931208 
L 327.022443 304.022107 
L 333.147984 303.651979 
L 335.189883 303.849686 
L 337.231704 303.66655 
L 339.273525 303.064841 
L 341.315424 302.790236 
L 343.357245 303.059299 
L 345.399144 303.60407 
L 347.440965 304.005502 
L 349.482787 303.79974 
L 351.524686 303.775278 
L 355.608406 303.948026 
L 359.692048 303.908587 
L 363.775768 303.994129 
L 384.194291 303.970899 
L 386.23619 303.717744 
L 388.278011 303.238915 
L 390.319832 303.968426 
L 394.403553 303.637801 
L 398.487273 302.210786 
L 398.487273 302.210786 
" clip-path="url(#p031b1dd7d4)" style="fill: none; stroke: #d22027; stroke-width: 1.5; stroke-linecap: square"/>
   </g>
   <g id="patch_13">
    <path d="M 57.6 307.584 
L 57.6 229.315765 
" style="fill: none; stroke: #000000; stroke-width: 0.8; stroke-linejoin: miter; stroke-linecap: square"/>
   </g>
   <g id="patch_14">
    <path d="M 414.72 307.584 
L 414.72 229.315765 
" style="fill: none; stroke: #000000; stroke-width: 0.8; stroke-linejoin: miter; stroke-linecap: square"/>
   </g>
   <g id="patch_15">
    <path d="M 57.6 307.584 
L 414.72 307.584 
" style="fill: none; stroke: #000000; stroke-width: 0.8; stroke-linejoin: miter; stroke-linecap: square"/>
   </g>
   <g id="patch_16">
    <path d="M 57.6 229.315765 
L 414.72 229.315765 
" style="fill: none; stroke: #000000; stroke-width: 0.8; stroke-linejoin: miter; stroke-linecap: square"/>
   </g>
  </g>
 </g>
 <defs>
  <clipPath id="p2461b5b00d">
   <rect x="57.6" y="41.472" width="357.12" height="78.268235"/>
  </clipPath>
  <clipPath id="p9f1bdd9ff0">
   <rect x="57.6" y="135.393882" width="357.12" height="78.268235"/>
  </clipPath>
  <clipPath id="p031b1dd7d4">
   <rect x="57.6" y="229.315765" width="357.12" height="78.268235"/>
  </clipPath>
 </defs>
</svg>
