<?xml version="1.0" encoding="utf-8" standalone="no"?>
<!DOCTYPE svg PUBLIC "-//W3C//DTD SVG 1.1//EN"
  "http://www.w3.org/Graphics/SVG/1.1/DTD/svg11.dtd">
<svg xmlns:xlink="http://www.w3.org/1999/xlink" width="460.8pt" height="345.6pt" viewBox="0 0 460.8 345.6" xmlns="http://www.w3.org/2000/svg" version="1.1">
 <metadata>
  <rdf:RDF xmlns:dc="http://purl.org/dc/elements/1.1/" xmlns:cc="http://creativecommons.org/ns#" xmlns:rdf="http://www.w3.org/1999/02/22-rdf-syntax-ns#">
   <cc:Work>
    <dc:type rdf:resource="http://purl.org/dc/dcmitype/StillImage"/>
    <dc:date>2023-10-24T02:42:40.946387</dc:date>
    <dc:format>image/svg+xml</dc:format>
    <dc:creator>
     <cc:Agent>
      <dc:title>Matplotlib v3.5.2, https://matplotlib.org/</dc:title>
     </cc:Agent>
    </dc:creator>
   </cc:Work>
  </rdf:RDF>
 </metadata>
 <defs>
  <style type="text/css">*{stroke-linejoin: round; stroke-linecap: butt}</style>
 </defs>
 <g id="figure_1">
  <g id="patch_1">
   <path d="M 0 345.6 
L 460.8 345.6 
L 460.8 0 
L 0 0 
z
" style="fill: #ffffff"/>
  </g>
  <g id="axes_1">
   <g id="patch_2">
    <path d="M 57.6 119.740235 
L 414.72 119.740235 
L 414.72 41.472 
L 57.6 41.472 
z
" style="fill: #ffffff"/>
   </g>
   <g id="matplotlib.axis_1">
    <g id="xtick_1">
     <g id="line2d_1">
      <defs>
       <path id="m117e8b334c" d="M 0 0 
L 0 3.5 
" style="stroke: #000000; stroke-width: 0.8"/>
      </defs>
      <g>
       <use xlink:href="#m117e8b334c" x="57.6" y="119.740235" style="stroke: #000000; stroke-width: 0.8"/>
      </g>
     </g>
    </g>
    <g id="xtick_2">
     <g id="line2d_2">
      <g>
       <use xlink:href="#m117e8b334c" x="236.16" y="119.740235" style="stroke: #000000; stroke-width: 0.8"/>
      </g>
     </g>
    </g>
    <g id="xtick_3">
     <g id="line2d_3">
      <g>
       <use xlink:href="#m117e8b334c" x="414.72" y="119.740235" style="stroke: #000000; stroke-width: 0.8"/>
      </g>
     </g>
    </g>
   </g>
   <g id="matplotlib.axis_2">
    <g id="ytick_1">
     <g id="line2d_4">
      <defs>
       <path id="m40ab06a2ab" d="M 0 0 
L -3.5 0 
" style="stroke: #000000; stroke-width: 0.8"/>
      </defs>
      <g>
       <use xlink:href="#m40ab06a2ab" x="57.6" y="116.184767" style="stroke: #000000; stroke-width: 0.8"/>
      </g>
     </g>
     <g id="text_1">
      <!-- 0 -->
      <g transform="translate(44.2375 119.983986)scale(0.1 -0.1)">
       <defs>
        <path id="DejaVuSans-30" d="M 2034 4250 
Q 1547 4250 1301 3770 
Q 1056 3291 1056 2328 
Q 1056 1369 1301 889 
Q 1547 409 2034 409 
Q 2525 409 2770 889 
Q 3016 1369 3016 2328 
Q 3016 3291 2770 3770 
Q 2525 4250 2034 4250 
z
M 2034 4750 
Q 2819 4750 3233 4129 
Q 3647 3509 3647 2328 
Q 3647 1150 3233 529 
Q 2819 -91 2034 -91 
Q 1250 -91 836 529 
Q 422 1150 422 2328 
Q 422 3509 836 4129 
Q 1250 4750 2034 4750 
z
" transform="scale(0.015625)"/>
       </defs>
       <use xlink:href="#DejaVuSans-30"/>
      </g>
     </g>
    </g>
    <g id="ytick_2">
     <g id="line2d_5">
      <g>
       <use xlink:href="#m40ab06a2ab" x="57.6" y="66.870525" style="stroke: #000000; stroke-width: 0.8"/>
      </g>
     </g>
     <g id="text_2">
      <!-- 2 -->
      <g transform="translate(44.2375 70.669744)scale(0.1 -0.1)">
       <defs>
        <path id="DejaVuSans-32" d="M 1228 531 
L 3431 531 
L 3431 0 
L 469 0 
L 469 531 
Q 828 903 1448 1529 
Q 2069 2156 2228 2338 
Q 2531 2678 2651 2914 
Q 2772 3150 2772 3378 
Q 2772 3750 2511 3984 
Q 2250 4219 1831 4219 
Q 1534 4219 1204 4116 
Q 875 4013 500 3803 
L 500 4441 
Q 881 4594 1212 4672 
Q 1544 4750 1819 4750 
Q 2544 4750 2975 4387 
Q 3406 4025 3406 3419 
Q 3406 3131 3298 2873 
Q 3191 2616 2906 2266 
Q 2828 2175 2409 1742 
Q 1991 1309 1228 531 
z
" transform="scale(0.015625)"/>
       </defs>
       <use xlink:href="#DejaVuSans-32"/>
      </g>
     </g>
    </g>
   </g>
   <g id="line2d_6">
    <path d="M 57.6 115.789035 
L 59.831966 115.993548 
L 62.064017 115.753831 
L 75.455983 115.279377 
L 77.688034 115.317256 
L 79.92 115.466594 
L 84.384017 116.106283 
L 86.615983 115.539057 
L 88.848034 115.141273 
L 91.08 115.080769 
L 95.544017 115.294164 
L 104.471966 116.058144 
L 106.704017 116.182588 
L 120.095983 115.456832 
L 126.791966 114.822171 
L 131.255983 114.171878 
L 135.72 113.197462 
L 137.951966 112.525651 
L 140.184017 111.681863 
L 142.415983 110.616133 
L 144.648034 109.265009 
L 146.88 107.547331 
L 149.111966 105.36154 
L 151.344017 102.584586 
L 153.575983 99.072824 
L 155.808034 94.679227 
L 158.04 89.287779 
L 160.271966 82.907624 
L 164.735983 69.083758 
L 166.968034 64.612768 
L 169.2 65.834111 
L 171.431966 76.821908 
L 173.664017 99.79495 
L 175.895983 100.920004 
L 178.128034 70.166816 
L 180.36 50.623841 
L 182.591966 45.029647 
L 184.824017 49.367969 
L 187.055983 60.174908 
L 189.288034 72.18236 
L 191.52 83.210013 
L 193.751966 92.453676 
L 195.984017 99.145166 
L 198.215983 103.804429 
L 200.448034 106.775784 
L 202.68 108.289529 
L 204.911966 108.73561 
L 207.144017 108.352519 
L 209.375983 107.310519 
L 211.608034 105.791017 
L 218.304017 100.279025 
L 220.535983 99.07711 
L 222.768034 98.888156 
L 225 100.18472 
L 227.231966 103.308732 
L 229.464017 108.271339 
L 231.695983 114.620824 
L 233.928034 110.904441 
L 236.16 104.646213 
L 238.391966 99.874207 
L 240.624017 97.035417 
L 242.855983 96.090541 
L 245.088034 96.677243 
L 247.32 98.317726 
L 249.551966 100.565157 
L 256.248034 108.023733 
L 260.711966 112.408046 
L 262.944017 114.417504 
L 265.175983 115.992708 
L 269.64 111.999408 
L 276.335983 105.661644 
L 278.568034 103.837851 
L 280.8 102.605466 
L 283.031966 102.380523 
L 285.264017 103.585573 
L 287.495983 106.477354 
L 289.728034 110.958334 
L 291.96 115.889315 
L 294.191966 110.230307 
L 296.424017 105.376658 
L 298.655983 101.967699 
L 300.888034 100.168847 
L 303.12 99.777465 
L 305.351966 100.41757 
L 307.584017 101.699101 
L 316.511966 108.099564 
L 318.744017 109.432502 
L 323.208034 111.724327 
L 329.904017 114.983035 
L 332.135983 116.120073 
L 334.368034 114.690695 
L 338.831966 111.398722 
L 341.064017 109.747204 
L 343.295983 108.39998 
L 345.528034 107.707975 
L 347.76 108.027708 
L 349.991966 109.573871 
L 352.224017 112.260861 
L 354.455983 115.6436 
L 356.688034 113.302052 
L 358.92 110.397211 
L 361.151966 108.270574 
L 363.384017 106.918479 
L 365.615983 106.199365 
L 367.848034 105.942978 
L 370.08 105.97866 
L 376.775983 106.488613 
L 379.008034 106.509366 
L 381.24 106.388957 
L 383.471966 106.119373 
L 385.704017 105.70887 
L 390.168034 104.573952 
L 394.631966 103.465122 
L 396.864017 103.252482 
L 399.095983 103.57805 
L 401.328034 104.763394 
L 403.56 107.155408 
L 405.791966 110.991364 
L 408.024017 116.169871 
L 410.255983 110.186067 
L 412.488034 104.560033 
L 412.488034 104.560033 
" clip-path="url(#p98bed861b9)" style="fill: none; stroke: #0000cc; stroke-width: 1.5; stroke-linecap: square"/>
   </g>
   <g id="line2d_7">
    <path d="M 57.6 116.180019 
L 64.295983 116.13378 
L 129.024017 116.022563 
L 137.951966 115.826039 
L 144.648034 115.488757 
L 149.111966 115.091047 
L 153.575983 114.422453 
L 155.808034 113.948671 
L 158.04 113.358828 
L 160.271966 112.643258 
L 166.968034 110.197879 
L 169.2 109.888345 
L 171.431966 110.564098 
L 173.664017 112.592013 
L 175.895983 116.007626 
L 178.128034 112.499007 
L 180.36 109.374889 
L 182.591966 107.733948 
L 184.824017 107.694733 
L 187.055983 108.576438 
L 191.52 111.323258 
L 193.751966 112.525853 
L 195.984017 113.44607 
L 198.215983 114.105674 
L 200.448034 114.540124 
L 202.68 114.786301 
L 204.911966 114.883868 
L 209.375983 114.764399 
L 216.071966 114.187154 
L 220.535983 113.886285 
L 222.768034 113.898224 
L 225 114.096491 
L 227.231966 114.531103 
L 229.464017 115.194352 
L 231.695983 116.034177 
L 233.928034 115.408585 
L 238.391966 113.90666 
L 240.624017 113.551192 
L 242.855983 113.461486 
L 245.088034 113.600232 
L 249.551966 114.277961 
L 258.48 115.871629 
L 260.711966 116.154593 
L 274.104017 114.290391 
L 278.568034 113.836656 
L 280.8 113.756841 
L 283.031966 113.945915 
L 285.264017 114.301398 
L 287.495983 114.962743 
L 289.728034 115.789272 
L 291.96 115.552257 
L 294.191966 114.618105 
L 296.424017 113.857152 
L 298.655983 113.413585 
L 300.888034 113.26146 
L 303.12 113.385396 
L 307.584017 114.083132 
L 316.511966 115.732214 
L 318.744017 116.070378 
L 320.975983 115.984769 
L 338.831966 113.676142 
L 341.064017 113.625113 
L 343.295983 113.799927 
L 345.528034 114.264061 
L 347.76 115.03994 
L 349.991966 116.057699 
L 352.224017 115.200118 
L 354.455983 114.199054 
L 356.688034 113.472108 
L 358.92 113.097989 
L 361.151966 113.062287 
L 363.384017 113.285614 
L 367.848034 114.121696 
L 374.544017 115.431631 
L 379.008034 116.096371 
L 381.24 115.986255 
L 392.4 114.544551 
L 399.095983 113.610919 
L 401.328034 113.450665 
L 403.56 113.476954 
L 405.791966 113.847233 
L 408.024017 114.482111 
L 410.255983 115.554402 
L 412.488034 115.571465 
L 412.488034 115.571465 
" clip-path="url(#p98bed861b9)" style="fill: none; stroke-dasharray: 9.6,2.4,1.5,2.4; stroke-dashoffset: 0; stroke: #ff0000; stroke-width: 1.5"/>
   </g>
   <g id="patch_3">
    <path d="M 57.6 119.740235 
L 57.6 41.472 
" style="fill: none; stroke: #000000; stroke-width: 0.8; stroke-linejoin: miter; stroke-linecap: square"/>
   </g>
   <g id="patch_4">
    <path d="M 414.72 119.740235 
L 414.72 41.472 
" style="fill: none; stroke: #000000; stroke-width: 0.8; stroke-linejoin: miter; stroke-linecap: square"/>
   </g>
   <g id="patch_5">
    <path d="M 57.6 119.740235 
L 414.72 119.740235 
" style="fill: none; stroke: #000000; stroke-width: 0.8; stroke-linejoin: miter; stroke-linecap: square"/>
   </g>
   <g id="patch_6">
    <path d="M 57.6 41.472 
L 414.72 41.472 
" style="fill: none; stroke: #000000; stroke-width: 0.8; stroke-linejoin: miter; stroke-linecap: square"/>
   </g>
  </g>
  <g id="axes_2">
   <g id="patch_7">
    <path d="M 57.6 213.662118 
L 414.72 213.662118 
L 414.72 135.393882 
L 57.6 135.393882 
z
" style="fill: #ffffff"/>
   </g>
   <g id="matplotlib.axis_3">
    <g id="xtick_4">
     <g id="line2d_8">
      <g>
       <use xlink:href="#m117e8b334c" x="57.6" y="213.662118" style="stroke: #000000; stroke-width: 0.8"/>
      </g>
     </g>
    </g>
    <g id="xtick_5">
     <g id="line2d_9">
      <g>
       <use xlink:href="#m117e8b334c" x="236.16" y="213.662118" style="stroke: #000000; stroke-width: 0.8"/>
      </g>
     </g>
    </g>
    <g id="xtick_6">
     <g id="line2d_10">
      <g>
       <use xlink:href="#m117e8b334c" x="414.72" y="213.662118" style="stroke: #000000; stroke-width: 0.8"/>
      </g>
     </g>
    </g>
   </g>
   <g id="matplotlib.axis_4">
    <g id="ytick_3">
     <g id="line2d_11">
      <g>
       <use xlink:href="#m40ab06a2ab" x="57.6" y="210.105415" style="stroke: #000000; stroke-width: 0.8"/>
      </g>
     </g>
     <g id="text_3">
      <!-- 0.0 -->
      <g transform="translate(34.696875 213.904634)scale(0.1 -0.1)">
       <defs>
        <path id="DejaVuSans-2e" d="M 684 794 
L 1344 794 
L 1344 0 
L 684 0 
L 684 794 
z
" transform="scale(0.015625)"/>
       </defs>
       <use xlink:href="#DejaVuSans-30"/>
       <use xlink:href="#DejaVuSans-2e" x="63.623047"/>
       <use xlink:href="#DejaVuSans-30" x="95.410156"/>
      </g>
     </g>
    </g>
    <g id="ytick_4">
     <g id="line2d_12">
      <g>
       <use xlink:href="#m40ab06a2ab" x="57.6" y="180.948659" style="stroke: #000000; stroke-width: 0.8"/>
      </g>
     </g>
     <g id="text_4">
      <!-- 2.5 -->
      <g transform="translate(34.696875 184.747878)scale(0.1 -0.1)">
       <defs>
        <path id="DejaVuSans-35" d="M 691 4666 
L 3169 4666 
L 3169 4134 
L 1269 4134 
L 1269 2991 
Q 1406 3038 1543 3061 
Q 1681 3084 1819 3084 
Q 2600 3084 3056 2656 
Q 3513 2228 3513 1497 
Q 3513 744 3044 326 
Q 2575 -91 1722 -91 
Q 1428 -91 1123 -41 
Q 819 9 494 109 
L 494 744 
Q 775 591 1075 516 
Q 1375 441 1709 441 
Q 2250 441 2565 725 
Q 2881 1009 2881 1497 
Q 2881 1984 2565 2268 
Q 2250 2553 1709 2553 
Q 1456 2553 1204 2497 
Q 953 2441 691 2322 
L 691 4666 
z
" transform="scale(0.015625)"/>
       </defs>
       <use xlink:href="#DejaVuSans-32"/>
       <use xlink:href="#DejaVuSans-2e" x="63.623047"/>
       <use xlink:href="#DejaVuSans-35" x="95.410156"/>
      </g>
     </g>
    </g>
    <g id="ytick_5">
     <g id="line2d_13">
      <g>
       <use xlink:href="#m40ab06a2ab" x="57.6" y="151.791903" style="stroke: #000000; stroke-width: 0.8"/>
      </g>
     </g>
     <g id="text_5">
      <!-- 5.0 -->
      <g transform="translate(34.696875 155.591122)scale(0.1 -0.1)">
       <use xlink:href="#DejaVuSans-35"/>
       <use xlink:href="#DejaVuSans-2e" x="63.623047"/>
       <use xlink:href="#DejaVuSans-30" x="95.410156"/>
      </g>
     </g>
    </g>
   </g>
   <g id="line2d_14">
    <path d="M 57.6 209.885703 
L 59.831966 209.985351 
L 66.528034 209.831698 
L 73.224017 209.782884 
L 75.455983 209.871944 
L 77.688034 210.077271 
L 79.92 209.792321 
L 84.384017 209.084034 
L 86.615983 209.063887 
L 91.08 209.627571 
L 95.544017 210.08603 
L 100.008034 209.803418 
L 106.704017 209.776168 
L 115.631966 209.655228 
L 122.328034 209.353161 
L 126.791966 209.001789 
L 131.255983 208.452179 
L 135.72 207.582681 
L 137.951966 206.968673 
L 140.184017 206.188972 
L 142.415983 205.196464 
L 144.648034 203.931826 
L 146.88 202.320643 
L 149.111966 200.273399 
L 151.344017 197.689996 
L 153.575983 194.472483 
L 155.808034 190.566073 
L 160.271966 181.272726 
L 162.504017 177.261549 
L 164.735983 176.086809 
L 166.968034 181.233522 
L 169.2 196.818003 
L 171.431966 196.025874 
L 173.664017 163.591364 
L 175.895983 140.82605 
L 178.128034 138.951529 
L 180.36 154.862163 
L 182.591966 176.522816 
L 184.824017 194.567447 
L 187.055983 206.036062 
L 189.288034 208.336794 
L 191.52 206.307622 
L 193.751966 206.345075 
L 195.984017 207.308675 
L 198.215983 208.748791 
L 200.448034 209.87391 
L 209.375983 203.470644 
L 211.608034 201.978451 
L 213.84 200.685548 
L 216.071966 199.794341 
L 218.304017 199.602634 
L 220.535983 200.479345 
L 222.768034 202.766084 
L 225 206.598545 
L 227.231966 208.513608 
L 229.464017 202.948518 
L 231.695983 198.066627 
L 233.928034 194.920851 
L 236.16 193.997795 
L 238.391966 195.070039 
L 240.624017 197.433947 
L 245.088034 203.076641 
L 247.32 205.443762 
L 249.551966 207.314914 
L 251.784017 208.739834 
L 254.015983 209.827929 
L 256.248034 209.510565 
L 262.944017 207.203849 
L 267.408034 205.318903 
L 274.104017 202.046387 
L 276.335983 201.3121 
L 278.568034 201.203711 
L 280.8 202.101289 
L 283.031966 204.32868 
L 285.264017 207.954083 
L 287.495983 207.63113 
L 289.728034 202.893339 
L 291.96 199.132608 
L 294.191966 197.135033 
L 296.424017 197.030799 
L 298.655983 198.364062 
L 305.351966 204.555069 
L 307.584017 206.08445 
L 309.815983 207.208939 
L 312.048034 208.001169 
L 314.28 208.555976 
L 318.744017 209.302746 
L 323.208034 210.012217 
L 325.44 209.734345 
L 327.671966 209.148724 
L 329.904017 208.416886 
L 332.135983 207.531795 
L 338.831966 204.55178 
L 341.064017 204.049656 
L 343.295983 204.307256 
L 345.528034 205.612409 
L 347.76 207.991353 
L 349.991966 209.151053 
L 352.224017 206.113447 
L 354.455983 203.818372 
L 356.688034 202.626191 
L 358.92 202.450105 
L 361.151966 202.942148 
L 365.615983 204.50929 
L 367.848034 205.143268 
L 370.08 205.569029 
L 372.311966 205.785972 
L 374.544017 205.818047 
L 376.775983 205.696394 
L 381.24 205.110903 
L 390.168034 203.42607 
L 392.4 203.221084 
L 394.631966 203.343778 
L 396.864017 204.012573 
L 399.095983 205.496692 
L 401.328034 208.052546 
L 403.56 208.43209 
L 408.024017 199.211033 
L 410.255983 195.921342 
L 412.488034 195.179123 
L 412.488034 195.179123 
" clip-path="url(#pa640794278)" style="fill: none; stroke: #0000cc; stroke-width: 1.5; stroke-linecap: square"/>
   </g>
   <g id="line2d_15">
    <path d="M 57.6 210.104471 
L 66.528034 210.069725 
L 120.095983 210.042159 
L 135.72 209.853131 
L 142.415983 209.605955 
L 146.88 209.303176 
L 151.344017 208.815949 
L 155.808034 208.037419 
L 160.271966 206.940593 
L 162.504017 206.364146 
L 164.735983 205.980434 
L 166.968034 206.120673 
L 169.2 207.269101 
L 171.431966 209.858672 
L 173.664017 206.535687 
L 175.895983 202.857682 
L 178.128034 201.173044 
L 180.36 202.129588 
L 184.824017 207.060545 
L 187.055983 208.819748 
L 189.288034 209.833303 
L 191.52 209.961481 
L 193.751966 209.861015 
L 200.448034 209.948615 
L 213.84 208.847665 
L 218.304017 208.756707 
L 220.535983 208.89168 
L 222.768034 209.197684 
L 225 209.692065 
L 227.231966 209.849565 
L 231.695983 208.464216 
L 233.928034 208.0518 
L 236.16 207.896147 
L 238.391966 208.067788 
L 242.855983 208.873543 
L 247.32 209.673211 
L 249.551966 209.965989 
L 251.784017 210.020939 
L 258.48 209.583355 
L 276.335983 208.622601 
L 278.568034 208.720431 
L 280.8 208.965171 
L 285.264017 210.046305 
L 289.728034 208.482692 
L 291.96 207.917684 
L 294.191966 207.699096 
L 296.424017 207.844604 
L 300.888034 208.709408 
L 305.351966 209.596508 
L 307.584017 209.913025 
L 309.815983 210.06518 
L 316.511966 209.650901 
L 325.44 209.15907 
L 334.368034 208.565027 
L 336.6 208.533523 
L 338.831966 208.647988 
L 341.064017 208.972144 
L 343.295983 209.551801 
L 345.528034 209.8478 
L 349.991966 208.094213 
L 352.224017 207.575227 
L 354.455983 207.480047 
L 356.688034 207.760406 
L 365.615983 209.715364 
L 367.848034 210.000727 
L 370.08 210.017528 
L 374.544017 209.75923 
L 385.704017 209.228092 
L 396.864017 208.422581 
L 399.095983 208.429963 
L 401.328034 208.647291 
L 403.56 209.124272 
L 405.791966 209.956787 
L 408.024017 209.260769 
L 410.255983 208.182786 
L 412.488034 207.432157 
L 412.488034 207.432157 
" clip-path="url(#pa640794278)" style="fill: none; stroke-dasharray: 9.6,2.4,1.5,2.4; stroke-dashoffset: 0; stroke: #ff0000; stroke-width: 1.5"/>
   </g>
   <g id="patch_8">
    <path d="M 57.6 213.662118 
L 57.6 135.393882 
" style="fill: none; stroke: #000000; stroke-width: 0.8; stroke-linejoin: miter; stroke-linecap: square"/>
   </g>
   <g id="patch_9">
    <path d="M 414.72 213.662118 
L 414.72 135.393882 
" style="fill: none; stroke: #000000; stroke-width: 0.8; stroke-linejoin: miter; stroke-linecap: square"/>
   </g>
   <g id="patch_10">
    <path d="M 57.6 213.662118 
L 414.72 213.662118 
" style="fill: none; stroke: #000000; stroke-width: 0.8; stroke-linejoin: miter; stroke-linecap: square"/>
   </g>
   <g id="patch_11">
    <path d="M 57.6 135.393882 
L 414.72 135.393882 
" style="fill: none; stroke: #000000; stroke-width: 0.8; stroke-linejoin: miter; stroke-linecap: square"/>
   </g>
  </g>
  <g id="axes_3">
   <g id="patch_12">
    <path d="M 57.6 307.584 
L 414.72 307.584 
L 414.72 229.315765 
L 57.6 229.315765 
z
" style="fill: #ffffff"/>
   </g>
   <g id="matplotlib.axis_5">
    <g id="xtick_7">
     <g id="line2d_16">
      <g>
       <use xlink:href="#m117e8b334c" x="57.6" y="307.584" style="stroke: #000000; stroke-width: 0.8"/>
      </g>
     </g>
     <g id="text_6">
      <!-- 10 -->
      <g transform="translate(51.2375 322.182437)scale(0.1 -0.1)">
       <defs>
        <path id="DejaVuSans-31" d="M 794 531 
L 1825 531 
L 1825 4091 
L 703 3866 
L 703 4441 
L 1819 4666 
L 2450 4666 
L 2450 531 
L 3481 531 
L 3481 0 
L 794 0 
L 794 531 
z
" transform="scale(0.015625)"/>
       </defs>
       <use xlink:href="#DejaVuSans-31"/>
       <use xlink:href="#DejaVuSans-30" x="63.623047"/>
      </g>
     </g>
    </g>
    <g id="xtick_8">
     <g id="line2d_17">
      <g>
       <use xlink:href="#m117e8b334c" x="236.16" y="307.584" style="stroke: #000000; stroke-width: 0.8"/>
      </g>
     </g>
     <g id="text_7">
      <!-- 12 -->
      <g transform="translate(229.7975 322.182437)scale(0.1 -0.1)">
       <use xlink:href="#DejaVuSans-31"/>
       <use xlink:href="#DejaVuSans-32" x="63.623047"/>
      </g>
     </g>
    </g>
    <g id="xtick_9">
     <g id="line2d_18">
      <g>
       <use xlink:href="#m117e8b334c" x="414.72" y="307.584" style="stroke: #000000; stroke-width: 0.8"/>
      </g>
     </g>
     <g id="text_8">
      <!-- 14 -->
      <g transform="translate(408.3575 322.182437)scale(0.1 -0.1)">
       <defs>
        <path id="DejaVuSans-34" d="M 2419 4116 
L 825 1625 
L 2419 1625 
L 2419 4116 
z
M 2253 4666 
L 3047 4666 
L 3047 1625 
L 3713 1625 
L 3713 1100 
L 3047 1100 
L 3047 0 
L 2419 0 
L 2419 1100 
L 313 1100 
L 313 1709 
L 2253 4666 
z
" transform="scale(0.015625)"/>
       </defs>
       <use xlink:href="#DejaVuSans-31"/>
       <use xlink:href="#DejaVuSans-34" x="63.623047"/>
      </g>
     </g>
    </g>
   </g>
   <g id="matplotlib.axis_6">
    <g id="ytick_6">
     <g id="line2d_19">
      <g>
       <use xlink:href="#m40ab06a2ab" x="57.6" y="304.026897" style="stroke: #000000; stroke-width: 0.8"/>
      </g>
     </g>
     <g id="text_9">
      <!-- 0.0 -->
      <g transform="translate(34.696875 307.826116)scale(0.1 -0.1)">
       <use xlink:href="#DejaVuSans-30"/>
       <use xlink:href="#DejaVuSans-2e" x="63.623047"/>
       <use xlink:href="#DejaVuSans-30" x="95.410156"/>
      </g>
     </g>
    </g>
    <g id="ytick_7">
     <g id="line2d_20">
      <g>
       <use xlink:href="#m40ab06a2ab" x="57.6" y="277.929825" style="stroke: #000000; stroke-width: 0.8"/>
      </g>
     </g>
     <g id="text_10">
      <!-- 2.5 -->
      <g transform="translate(34.696875 281.729044)scale(0.1 -0.1)">
       <use xlink:href="#DejaVuSans-32"/>
       <use xlink:href="#DejaVuSans-2e" x="63.623047"/>
       <use xlink:href="#DejaVuSans-35" x="95.410156"/>
      </g>
     </g>
    </g>
    <g id="ytick_8">
     <g id="line2d_21">
      <g>
       <use xlink:href="#m40ab06a2ab" x="57.6" y="251.832753" style="stroke: #000000; stroke-width: 0.8"/>
      </g>
     </g>
     <g id="text_11">
      <!-- 5.0 -->
      <g transform="translate(34.696875 255.631972)scale(0.1 -0.1)">
       <use xlink:href="#DejaVuSans-35"/>
       <use xlink:href="#DejaVuSans-2e" x="63.623047"/>
       <use xlink:href="#DejaVuSans-30" x="95.410156"/>
      </g>
     </g>
    </g>
   </g>
   <g id="line2d_22">
    <path d="M 57.6 303.759027 
L 62.064017 303.830318 
L 70.991966 303.517697 
L 77.688034 303.086238 
L 79.92 303.081273 
L 82.151966 303.259663 
L 86.615983 304.017263 
L 88.848034 303.637953 
L 91.08 303.436337 
L 95.544017 303.440313 
L 122.328034 303.870904 
L 140.184017 303.894664 
L 144.648034 303.546829 
L 146.88 303.20757 
L 149.111966 302.663622 
L 151.344017 301.787794 
L 153.575983 300.376551 
L 155.808034 298.109092 
L 158.04 294.499594 
L 160.271966 288.864836 
L 162.504017 280.389199 
L 164.735983 268.474 
L 169.2 239.414479 
L 171.431966 232.873412 
L 173.664017 242.139485 
L 175.895983 268.192144 
L 178.128034 300.666596 
L 180.36 282.79024 
L 182.591966 272.053467 
L 184.824017 271.297543 
L 187.055983 274.970107 
L 189.288034 279.518466 
L 191.52 283.441727 
L 193.751966 286.379855 
L 195.984017 288.588508 
L 198.215983 290.318855 
L 207.144017 296.130661 
L 209.375983 297.929446 
L 211.608034 300.066799 
L 213.84 302.629444 
L 216.071966 302.382279 
L 218.304017 298.89086 
L 222.768034 291.510991 
L 225 288.659216 
L 227.231966 287.327315 
L 229.464017 288.095177 
L 231.695983 291.052788 
L 233.928034 295.647826 
L 236.16 300.88106 
L 238.391966 302.307691 
L 240.624017 298.452003 
L 242.855983 295.78566 
L 245.088034 294.166757 
L 247.32 293.328096 
L 249.551966 293.013107 
L 251.784017 293.031445 
L 254.015983 293.259756 
L 256.248034 293.630483 
L 260.711966 294.70369 
L 262.944017 295.414018 
L 265.175983 296.276183 
L 267.408034 297.33983 
L 269.64 298.672573 
L 271.871966 300.355577 
L 274.104017 302.471429 
L 276.335983 302.981697 
L 278.568034 299.929902 
L 283.031966 293.495145 
L 285.264017 291.190149 
L 287.495983 290.408806 
L 289.728034 291.573692 
L 291.96 294.55033 
L 296.424017 302.843204 
L 298.655983 301.614348 
L 300.888034 298.975543 
L 303.12 297.264861 
L 305.351966 296.274206 
L 307.584017 295.768986 
L 309.815983 295.564286 
L 314.28 295.611509 
L 320.975983 296.130559 
L 325.44 296.659867 
L 327.671966 297.01986 
L 329.904017 297.49477 
L 332.135983 298.148089 
L 334.368034 299.065045 
L 336.6 300.34365 
L 341.064017 303.808366 
L 345.528034 298.872573 
L 347.76 297.010065 
L 349.991966 296.245527 
L 352.224017 296.802658 
L 354.455983 298.450523 
L 358.92 302.769766 
L 361.151966 303.521004 
L 363.384017 302.216036 
L 365.615983 301.302731 
L 367.848034 300.672178 
L 372.311966 299.876402 
L 381.24 298.626886 
L 383.471966 298.18213 
L 385.704017 297.615678 
L 387.935983 296.888257 
L 390.168034 295.95686 
L 392.4 294.784983 
L 394.631966 293.358622 
L 401.328034 288.574491 
L 403.56 287.929853 
L 405.791966 288.764472 
L 408.024017 291.640882 
L 410.255983 296.555935 
L 412.488034 302.634976 
L 412.488034 302.634976 
" clip-path="url(#p63811ace5b)" style="fill: none; stroke: #0000cc; stroke-width: 1.5; stroke-linecap: square"/>
   </g>
   <g id="line2d_23">
    <path d="M 57.6 304.003198 
L 64.295983 303.948815 
L 84.384017 303.933529 
L 88.848034 304.01981 
L 106.704017 304.008635 
L 146.88 303.947328 
L 151.344017 303.834564 
L 155.808034 303.499206 
L 158.04 303.164522 
L 160.271966 302.636843 
L 162.504017 301.81385 
L 164.735983 300.602636 
L 166.968034 298.96278 
L 169.2 297.101931 
L 171.431966 295.603808 
L 173.664017 295.564487 
L 175.895983 297.713927 
L 178.128034 301.495125 
L 180.36 302.99754 
L 182.591966 300.843557 
L 184.824017 300.178609 
L 187.055983 300.4113 
L 191.52 301.460995 
L 195.984017 302.177018 
L 202.68 302.837109 
L 209.375983 303.495137 
L 213.84 303.944043 
L 218.304017 303.122991 
L 222.768034 302.219687 
L 225 301.874732 
L 227.231966 301.714248 
L 229.464017 301.836433 
L 231.695983 302.215222 
L 236.16 303.576727 
L 238.391966 303.742966 
L 240.624017 303.197908 
L 242.855983 302.825227 
L 245.088034 302.614235 
L 249.551966 302.513387 
L 256.248034 302.719678 
L 262.944017 303.109086 
L 267.408034 303.496601 
L 271.871966 303.991704 
L 276.335983 303.180266 
L 283.031966 301.763791 
L 285.264017 301.527065 
L 287.495983 301.571469 
L 289.728034 301.93771 
L 291.96 302.596677 
L 294.191966 303.405949 
L 296.424017 303.859034 
L 298.655983 303.232527 
L 300.888034 302.802279 
L 303.12 302.565296 
L 307.584017 302.454815 
L 314.28 302.661402 
L 323.208034 303.163316 
L 327.671966 303.558758 
L 329.904017 303.824529 
L 332.135983 303.901757 
L 336.6 303.024333 
L 343.295983 301.507308 
L 345.528034 301.285728 
L 347.76 301.411231 
L 349.991966 301.925915 
L 354.455983 303.662204 
L 356.688034 303.567761 
L 358.92 302.963782 
L 361.151966 302.599422 
L 363.384017 302.429647 
L 367.848034 302.41718 
L 376.775983 302.760313 
L 385.704017 303.284815 
L 390.168034 303.708983 
L 392.4 304.004551 
L 394.631966 303.676881 
L 399.095983 302.662444 
L 403.56 301.47859 
L 405.791966 301.076117 
L 408.024017 301.002261 
L 410.255983 301.384863 
L 412.488034 302.282922 
L 412.488034 302.282922 
" clip-path="url(#p63811ace5b)" style="fill: none; stroke-dasharray: 9.6,2.4,1.5,2.4; stroke-dashoffset: 0; stroke: #ff0000; stroke-width: 1.5"/>
   </g>
   <g id="patch_13">
    <path d="M 57.6 307.584 
L 57.6 229.315765 
" style="fill: none; stroke: #000000; stroke-width: 0.8; stroke-linejoin: miter; stroke-linecap: square"/>
   </g>
   <g id="patch_14">
    <path d="M 414.72 307.584 
L 414.72 229.315765 
" style="fill: none; stroke: #000000; stroke-width: 0.8; stroke-linejoin: miter; stroke-linecap: square"/>
   </g>
   <g id="patch_15">
    <path d="M 57.6 307.584 
L 414.72 307.584 
" style="fill: none; stroke: #000000; stroke-width: 0.8; stroke-linejoin: miter; stroke-linecap: square"/>
   </g>
   <g id="patch_16">
    <path d="M 57.6 229.315765 
L 414.72 229.315765 
" style="fill: none; stroke: #000000; stroke-width: 0.8; stroke-linejoin: miter; stroke-linecap: square"/>
   </g>
  </g>
 </g>
 <defs>
  <clipPath id="p98bed861b9">
   <rect x="57.6" y="41.472" width="357.12" height="78.268235"/>
  </clipPath>
  <clipPath id="pa640794278">
   <rect x="57.6" y="135.393882" width="357.12" height="78.268235"/>
  </clipPath>
  <clipPath id="p63811ace5b">
   <rect x="57.6" y="229.315765" width="357.12" height="78.268235"/>
  </clipPath>
 </defs>
</svg>
