<?xml version="1.0" encoding="utf-8" standalone="no"?>
<!DOCTYPE svg PUBLIC "-//W3C//DTD SVG 1.1//EN"
  "http://www.w3.org/Graphics/SVG/1.1/DTD/svg11.dtd">
<svg xmlns:xlink="http://www.w3.org/1999/xlink" width="460.8pt" height="345.6pt" viewBox="0 0 460.8 345.6" xmlns="http://www.w3.org/2000/svg" version="1.1">
 <metadata>
  <rdf:RDF xmlns:dc="http://purl.org/dc/elements/1.1/" xmlns:cc="http://creativecommons.org/ns#" xmlns:rdf="http://www.w3.org/1999/02/22-rdf-syntax-ns#">
   <cc:Work>
    <dc:type rdf:resource="http://purl.org/dc/dcmitype/StillImage"/>
    <dc:date>2023-10-24T02:42:42.019430</dc:date>
    <dc:format>image/svg+xml</dc:format>
    <dc:creator>
     <cc:Agent>
      <dc:title>Matplotlib v3.5.2, https://matplotlib.org/</dc:title>
     </cc:Agent>
    </dc:creator>
   </cc:Work>
  </rdf:RDF>
 </metadata>
 <defs>
  <style type="text/css">*{stroke-linejoin: round; stroke-linecap: butt}</style>
 </defs>
 <g id="figure_1">
  <g id="patch_1">
   <path d="M 0 345.6 
L 460.8 345.6 
L 460.8 0 
L 0 0 
z
" style="fill: #ffffff"/>
  </g>
  <g id="axes_1">
   <g id="patch_2">
    <path d="M 57.6 119.740235 
L 414.72 119.740235 
L 414.72 41.472 
L 57.6 41.472 
z
" style="fill: #ffffff"/>
   </g>
   <g id="matplotlib.axis_1">
    <g id="xtick_1">
     <g id="line2d_1">
      <defs>
       <path id="m0df5419dae" d="M 0 0 
L 0 3.5 
" style="stroke: #000000; stroke-width: 0.8"/>
      </defs>
      <g>
       <use xlink:href="#m0df5419dae" x="73.289835" y="119.740235" style="stroke: #000000; stroke-width: 0.8"/>
      </g>
     </g>
     <g id="text_1">
      <!-- 10 -->
      <g transform="translate(66.927335 134.338673)scale(0.1 -0.1)">
       <defs>
        <path id="DejaVuSans-31" d="M 794 531 
L 1825 531 
L 1825 4091 
L 703 3866 
L 703 4441 
L 1819 4666 
L 2450 4666 
L 2450 531 
L 3481 531 
L 3481 0 
L 794 0 
L 794 531 
z
" transform="scale(0.015625)"/>
        <path id="DejaVuSans-30" d="M 2034 4250 
Q 1547 4250 1301 3770 
Q 1056 3291 1056 2328 
Q 1056 1369 1301 889 
Q 1547 409 2034 409 
Q 2525 409 2770 889 
Q 3016 1369 3016 2328 
Q 3016 3291 2770 3770 
Q 2525 4250 2034 4250 
z
M 2034 4750 
Q 2819 4750 3233 4129 
Q 3647 3509 3647 2328 
Q 3647 1150 3233 529 
Q 2819 -91 2034 -91 
Q 1250 -91 836 529 
Q 422 1150 422 2328 
Q 422 3509 836 4129 
Q 1250 4750 2034 4750 
z
" transform="scale(0.015625)"/>
       </defs>
       <use xlink:href="#DejaVuSans-31"/>
       <use xlink:href="#DejaVuSans-30" x="63.623047"/>
      </g>
     </g>
    </g>
    <g id="xtick_2">
     <g id="line2d_2">
      <g>
       <use xlink:href="#m0df5419dae" x="116.721879" y="119.740235" style="stroke: #000000; stroke-width: 0.8"/>
      </g>
     </g>
     <g id="text_2">
      <!-- 12 -->
      <g transform="translate(110.359379 134.338673)scale(0.1 -0.1)">
       <defs>
        <path id="DejaVuSans-32" d="M 1228 531 
L 3431 531 
L 3431 0 
L 469 0 
L 469 531 
Q 828 903 1448 1529 
Q 2069 2156 2228 2338 
Q 2531 2678 2651 2914 
Q 2772 3150 2772 3378 
Q 2772 3750 2511 3984 
Q 2250 4219 1831 4219 
Q 1534 4219 1204 4116 
Q 875 4013 500 3803 
L 500 4441 
Q 881 4594 1212 4672 
Q 1544 4750 1819 4750 
Q 2544 4750 2975 4387 
Q 3406 4025 3406 3419 
Q 3406 3131 3298 2873 
Q 3191 2616 2906 2266 
Q 2828 2175 2409 1742 
Q 1991 1309 1228 531 
z
" transform="scale(0.015625)"/>
       </defs>
       <use xlink:href="#DejaVuSans-31"/>
       <use xlink:href="#DejaVuSans-32" x="63.623047"/>
      </g>
     </g>
    </g>
    <g id="xtick_3">
     <g id="line2d_3">
      <g>
       <use xlink:href="#m0df5419dae" x="160.153923" y="119.740235" style="stroke: #000000; stroke-width: 0.8"/>
      </g>
     </g>
     <g id="text_3">
      <!-- 14 -->
      <g transform="translate(153.791423 134.338673)scale(0.1 -0.1)">
       <defs>
        <path id="DejaVuSans-34" d="M 2419 4116 
L 825 1625 
L 2419 1625 
L 2419 4116 
z
M 2253 4666 
L 3047 4666 
L 3047 1625 
L 3713 1625 
L 3713 1100 
L 3047 1100 
L 3047 0 
L 2419 0 
L 2419 1100 
L 313 1100 
L 313 1709 
L 2253 4666 
z
" transform="scale(0.015625)"/>
       </defs>
       <use xlink:href="#DejaVuSans-31"/>
       <use xlink:href="#DejaVuSans-34" x="63.623047"/>
      </g>
     </g>
    </g>
    <g id="xtick_4">
     <g id="line2d_4">
      <g>
       <use xlink:href="#m0df5419dae" x="203.585967" y="119.740235" style="stroke: #000000; stroke-width: 0.8"/>
      </g>
     </g>
     <g id="text_4">
      <!-- 16 -->
      <g transform="translate(197.223467 134.338673)scale(0.1 -0.1)">
       <defs>
        <path id="DejaVuSans-36" d="M 2113 2584 
Q 1688 2584 1439 2293 
Q 1191 2003 1191 1497 
Q 1191 994 1439 701 
Q 1688 409 2113 409 
Q 2538 409 2786 701 
Q 3034 994 3034 1497 
Q 3034 2003 2786 2293 
Q 2538 2584 2113 2584 
z
M 3366 4563 
L 3366 3988 
Q 3128 4100 2886 4159 
Q 2644 4219 2406 4219 
Q 1781 4219 1451 3797 
Q 1122 3375 1075 2522 
Q 1259 2794 1537 2939 
Q 1816 3084 2150 3084 
Q 2853 3084 3261 2657 
Q 3669 2231 3669 1497 
Q 3669 778 3244 343 
Q 2819 -91 2113 -91 
Q 1303 -91 875 529 
Q 447 1150 447 2328 
Q 447 3434 972 4092 
Q 1497 4750 2381 4750 
Q 2619 4750 2861 4703 
Q 3103 4656 3366 4563 
z
" transform="scale(0.015625)"/>
       </defs>
       <use xlink:href="#DejaVuSans-31"/>
       <use xlink:href="#DejaVuSans-36" x="63.623047"/>
      </g>
     </g>
    </g>
    <g id="xtick_5">
     <g id="line2d_5">
      <g>
       <use xlink:href="#m0df5419dae" x="247.018011" y="119.740235" style="stroke: #000000; stroke-width: 0.8"/>
      </g>
     </g>
     <g id="text_5">
      <!-- 18 -->
      <g transform="translate(240.655511 134.338673)scale(0.1 -0.1)">
       <defs>
        <path id="DejaVuSans-38" d="M 2034 2216 
Q 1584 2216 1326 1975 
Q 1069 1734 1069 1313 
Q 1069 891 1326 650 
Q 1584 409 2034 409 
Q 2484 409 2743 651 
Q 3003 894 3003 1313 
Q 3003 1734 2745 1975 
Q 2488 2216 2034 2216 
z
M 1403 2484 
Q 997 2584 770 2862 
Q 544 3141 544 3541 
Q 544 4100 942 4425 
Q 1341 4750 2034 4750 
Q 2731 4750 3128 4425 
Q 3525 4100 3525 3541 
Q 3525 3141 3298 2862 
Q 3072 2584 2669 2484 
Q 3125 2378 3379 2068 
Q 3634 1759 3634 1313 
Q 3634 634 3220 271 
Q 2806 -91 2034 -91 
Q 1263 -91 848 271 
Q 434 634 434 1313 
Q 434 1759 690 2068 
Q 947 2378 1403 2484 
z
M 1172 3481 
Q 1172 3119 1398 2916 
Q 1625 2713 2034 2713 
Q 2441 2713 2670 2916 
Q 2900 3119 2900 3481 
Q 2900 3844 2670 4047 
Q 2441 4250 2034 4250 
Q 1625 4250 1398 4047 
Q 1172 3844 1172 3481 
z
" transform="scale(0.015625)"/>
       </defs>
       <use xlink:href="#DejaVuSans-31"/>
       <use xlink:href="#DejaVuSans-38" x="63.623047"/>
      </g>
     </g>
    </g>
    <g id="xtick_6">
     <g id="line2d_6">
      <g>
       <use xlink:href="#m0df5419dae" x="290.450055" y="119.740235" style="stroke: #000000; stroke-width: 0.8"/>
      </g>
     </g>
     <g id="text_6">
      <!-- 20 -->
      <g transform="translate(284.087555 134.338673)scale(0.1 -0.1)">
       <use xlink:href="#DejaVuSans-32"/>
       <use xlink:href="#DejaVuSans-30" x="63.623047"/>
      </g>
     </g>
    </g>
    <g id="xtick_7">
     <g id="line2d_7">
      <g>
       <use xlink:href="#m0df5419dae" x="333.882099" y="119.740235" style="stroke: #000000; stroke-width: 0.8"/>
      </g>
     </g>
     <g id="text_7">
      <!-- 22 -->
      <g transform="translate(327.519599 134.338673)scale(0.1 -0.1)">
       <use xlink:href="#DejaVuSans-32"/>
       <use xlink:href="#DejaVuSans-32" x="63.623047"/>
      </g>
     </g>
    </g>
    <g id="xtick_8">
     <g id="line2d_8">
      <g>
       <use xlink:href="#m0df5419dae" x="377.314143" y="119.740235" style="stroke: #000000; stroke-width: 0.8"/>
      </g>
     </g>
     <g id="text_8">
      <!-- 24 -->
      <g transform="translate(370.951643 134.338673)scale(0.1 -0.1)">
       <use xlink:href="#DejaVuSans-32"/>
       <use xlink:href="#DejaVuSans-34" x="63.623047"/>
      </g>
     </g>
    </g>
    <g id="xtick_9">
     <g id="line2d_9">
      <g>
       <use xlink:href="#m0df5419dae" x="399.030165" y="119.740235" style="stroke: #000000; stroke-width: 0.8"/>
      </g>
     </g>
     <g id="text_9">
      <!-- 25 -->
      <g transform="translate(392.667665 134.338673)scale(0.1 -0.1)">
       <defs>
        <path id="DejaVuSans-35" d="M 691 4666 
L 3169 4666 
L 3169 4134 
L 1269 4134 
L 1269 2991 
Q 1406 3038 1543 3061 
Q 1681 3084 1819 3084 
Q 2600 3084 3056 2656 
Q 3513 2228 3513 1497 
Q 3513 744 3044 326 
Q 2575 -91 1722 -91 
Q 1428 -91 1123 -41 
Q 819 9 494 109 
L 494 744 
Q 775 591 1075 516 
Q 1375 441 1709 441 
Q 2250 441 2565 725 
Q 2881 1009 2881 1497 
Q 2881 1984 2565 2268 
Q 2250 2553 1709 2553 
Q 1456 2553 1204 2497 
Q 953 2441 691 2322 
L 691 4666 
z
" transform="scale(0.015625)"/>
       </defs>
       <use xlink:href="#DejaVuSans-32"/>
       <use xlink:href="#DejaVuSans-35" x="63.623047"/>
      </g>
     </g>
    </g>
   </g>
   <g id="matplotlib.axis_2">
    <g id="ytick_1">
     <g id="line2d_10">
      <defs>
       <path id="mb8fb486e43" d="M 0 0 
L -3.5 0 
" style="stroke: #000000; stroke-width: 0.8"/>
      </defs>
      <g>
       <use xlink:href="#mb8fb486e43" x="57.6" y="116.184077" style="stroke: #000000; stroke-width: 0.8"/>
      </g>
     </g>
     <g id="text_10">
      <!-- 0 -->
      <g transform="translate(44.2375 119.983295)scale(0.1 -0.1)">
       <use xlink:href="#DejaVuSans-30"/>
      </g>
     </g>
    </g>
    <g id="ytick_2">
     <g id="line2d_11">
      <g>
       <use xlink:href="#mb8fb486e43" x="57.6" y="87.134014" style="stroke: #000000; stroke-width: 0.8"/>
      </g>
     </g>
     <g id="text_11">
      <!-- 2 -->
      <g transform="translate(44.2375 90.933233)scale(0.1 -0.1)">
       <use xlink:href="#DejaVuSans-32"/>
      </g>
     </g>
    </g>
    <g id="ytick_3">
     <g id="line2d_12">
      <g>
       <use xlink:href="#mb8fb486e43" x="57.6" y="58.083952" style="stroke: #000000; stroke-width: 0.8"/>
      </g>
     </g>
     <g id="text_12">
      <!-- 4 -->
      <g transform="translate(44.2375 61.883171)scale(0.1 -0.1)">
       <use xlink:href="#DejaVuSans-34"/>
      </g>
     </g>
    </g>
   </g>
   <g id="line2d_13">
    <path d="M 73.832727 116.138198 
L 74.37564 112.215977 
L 74.918533 114.454901 
L 75.461445 113.84716 
L 76.004338 113.524107 
L 76.54723 113.946501 
L 78.718841 113.448638 
L 79.261733 114.173382 
L 79.804646 116.021859 
L 80.347538 113.990637 
L 80.890451 114.60908 
L 81.433343 116.045945 
L 82.519148 114.421255 
L 83.062041 114.515798 
L 83.604954 114.133904 
L 84.147846 114.40597 
L 84.690738 114.850419 
L 85.233651 114.8832 
L 87.405241 116.140469 
L 89.033959 115.634638 
L 90.119744 115.53185 
L 91.748462 115.657338 
L 95.005857 116.101834 
L 96.091662 115.766186 
L 96.634555 115.428135 
L 97.177467 114.804175 
L 97.72036 113.614742 
L 98.263252 111.356148 
L 98.806165 107.566432 
L 99.349057 102.426798 
L 99.89197 98.692629 
L 100.977755 109.06676 
L 101.520668 83.935803 
L 102.06356 78.54519 
L 103.149365 110.591324 
L 103.692258 100.473319 
L 104.23517 94.528079 
L 104.778063 105.710929 
L 105.320976 106.337203 
L 105.863868 113.449621 
L 106.40676 115.054929 
L 106.949673 114.705424 
L 107.492566 116.109358 
L 108.578371 115.677944 
L 109.121263 116.129787 
L 110.207068 116.007911 
L 111.292874 115.126943 
L 112.921571 113.463021 
L 113.464484 113.619747 
L 114.550269 115.782117 
L 115.093181 113.711413 
L 115.636074 112.48011 
L 116.178987 112.54491 
L 117.264771 114.679055 
L 117.807684 115.752954 
L 118.350577 115.698909 
L 118.893489 115.046944 
L 119.436382 114.796833 
L 119.979274 114.93369 
L 122.150885 116.179946 
L 123.23669 115.973088 
L 124.322495 116.020564 
L 124.865387 116.16559 
L 125.40828 115.898763 
L 125.951192 115.414965 
L 127.036998 114.059805 
L 127.57989 113.672036 
L 128.122782 114.000339 
L 128.665695 115.34315 
L 129.208588 115.051812 
L 129.7515 113.426688 
L 130.294393 113.000486 
L 130.837285 113.579727 
L 132.466003 115.832979 
L 133.008896 115.671271 
L 133.551788 115.057414 
L 134.094701 114.890567 
L 134.637593 115.092155 
L 136.266291 116.012533 
L 136.809203 116.18137 
L 138.437901 115.918244 
L 139.523706 115.942481 
L 140.066599 116.09472 
L 140.609511 115.944496 
L 141.152404 115.409581 
L 142.238209 114.016399 
L 142.781101 113.845751 
L 143.324014 114.548098 
L 143.866907 115.927592 
L 144.409799 115.22787 
L 144.952712 114.863021 
L 145.495604 114.879017 
L 146.581409 114.229976 
L 147.124302 114.562851 
L 147.667214 115.693906 
L 148.210107 115.564673 
L 148.75302 115.051299 
L 149.295912 115.052123 
L 150.92461 115.817884 
L 152.553307 116.168623 
L 154.182025 115.714938 
L 155.810723 115.153356 
L 156.353615 115.248655 
L 156.896528 115.751315 
L 157.43942 115.543244 
L 158.525225 112.443566 
L 159.068118 111.651215 
L 159.611031 111.798329 
L 160.153923 112.9776 
L 160.696815 115.50997 
L 161.782621 111.019758 
L 162.325533 111.287891 
L 163.411318 115.976311 
L 163.954231 115.154948 
L 164.497123 114.850148 
L 165.582929 115.176885 
L 166.668734 115.474331 
L 168.840324 115.876413 
L 169.383236 116.151207 
L 169.926129 115.736714 
L 170.469042 114.972644 
L 171.011934 113.738342 
L 171.554826 112.014805 
L 172.640632 108.104647 
L 173.183544 108.386078 
L 173.726437 113.024141 
L 174.269329 109.414122 
L 174.812242 97.91538 
L 175.355134 92.01041 
L 175.898047 96.009892 
L 176.44094 107.191622 
L 176.983832 112.338524 
L 177.526745 102.498247 
L 178.069637 99.192923 
L 178.61255 103.222571 
L 179.155442 110.497807 
L 179.698335 115.947294 
L 180.241247 114.027655 
L 180.78414 113.507134 
L 181.327053 113.673525 
L 182.412837 114.205372 
L 182.95575 114.306984 
L 184.041555 114.185585 
L 185.12734 113.7358 
L 187.298951 112.55953 
L 187.841843 112.77606 
L 188.384756 113.854942 
L 188.927648 115.859886 
L 189.470561 110.730588 
L 190.013453 102.576457 
L 190.556346 92.574497 
L 191.099258 85.486776 
L 191.642151 88.940907 
L 192.185064 106.928266 
L 192.727956 99.724259 
L 193.270848 80.930381 
L 193.813761 77.523757 
L 194.356654 86.641316 
L 195.442459 116.171962 
L 197.071156 63.828752 
L 197.614069 60.806405 
L 198.156962 82.715648 
L 198.699854 111.693129 
L 199.242767 75.335082 
L 199.785659 52.161606 
L 200.328572 67.320503 
L 200.871464 99.267313 
L 201.414357 111.274239 
L 202.500162 102.838266 
L 203.043075 106.324939 
L 203.585967 102.973555 
L 204.128859 105.221456 
L 205.214685 111.889583 
L 205.757577 114.288178 
L 207.386254 90.097788 
L 207.929188 91.535904 
L 208.47208 103.906952 
L 209.014973 110.368037 
L 209.557865 96.882722 
L 210.100757 94.384617 
L 210.643691 100.336899 
L 211.186583 108.121456 
L 211.729475 113.150846 
L 212.272368 114.408439 
L 212.81526 113.192464 
L 213.358193 111.501153 
L 213.901086 110.69883 
L 214.443978 111.245094 
L 215.529763 114.938821 
L 216.072696 115.684268 
L 216.615588 114.552395 
L 217.158481 114.036182 
L 217.701373 113.947961 
L 218.787199 114.327233 
L 219.330091 114.521566 
L 219.872984 114.583147 
L 220.415876 114.430328 
L 220.958768 113.934359 
L 221.501702 113.002321 
L 222.044594 111.551081 
L 223.673271 105.236491 
L 224.216204 105.221683 
L 224.759097 109.476906 
L 225.301989 112.088774 
L 226.387774 76.331863 
L 226.930707 68.692385 
L 227.473599 83.089674 
L 228.016492 115.395904 
L 228.559384 87.570424 
L 229.102276 77.634943 
L 229.64521 85.174875 
L 230.730995 110.620821 
L 231.273887 114.495199 
L 231.816779 111.00012 
L 232.359713 109.839483 
L 232.902605 109.926247 
L 233.98839 111.175684 
L 235.617108 113.249308 
L 236.16 114.311805 
L 236.702892 115.988489 
L 237.245785 113.826207 
L 238.33161 106.072303 
L 238.874503 101.881023 
L 239.417395 98.955375 
L 239.960287 98.315553 
L 240.503221 100.370639 
L 241.046113 105.225752 
L 241.589005 113.18026 
L 242.131898 108.563452 
L 242.67479 97.837196 
L 243.217724 91.146323 
L 243.760616 90.989847 
L 244.303508 96.179795 
L 245.389293 110.584856 
L 245.932226 115.614376 
L 246.475119 113.783165 
L 247.018011 112.555754 
L 247.560903 112.520734 
L 248.103796 113.147088 
L 249.732514 115.927164 
L 250.818298 115.964618 
L 251.361232 115.578106 
L 251.904124 113.718791 
L 252.447016 110.705801 
L 253.532801 103.406926 
L 254.075735 101.87459 
L 254.618627 103.292065 
L 255.704412 109.879201 
L 256.247304 110.80361 
L 256.790237 110.811582 
L 257.33313 113.351477 
L 257.876022 111.60395 
L 258.418914 101.211933 
L 258.961807 93.240709 
L 259.50474 91.992141 
L 260.047632 97.060642 
L 261.133417 112.126565 
L 261.676309 115.25557 
L 262.219243 112.666412 
L 262.762135 111.837102 
L 263.305027 112.153186 
L 264.390812 114.168813 
L 264.933746 115.190918 
L 265.476638 115.898127 
L 266.01953 115.997293 
L 266.562423 115.171921 
L 267.105315 113.03048 
L 267.648248 109.414617 
L 268.734033 100.374128 
L 269.276925 99.229737 
L 269.819818 103.817112 
L 270.362751 113.899175 
L 270.905643 106.676686 
L 271.448536 97.510093 
L 271.991428 93.446745 
L 272.53432 95.699005 
L 273.620146 112.696938 
L 274.705931 80.865745 
L 275.248823 77.189383 
L 275.791757 91.161705 
L 276.334649 113.121941 
L 276.877541 87.142224 
L 277.420434 77.421497 
L 277.963326 83.830367 
L 279.049152 108.845334 
L 279.592044 115.829215 
L 280.134936 112.202055 
L 280.677829 111.296681 
L 281.220762 111.816841 
L 281.763654 112.810355 
L 282.306547 113.529794 
L 282.849439 113.275921 
L 283.392331 111.297203 
L 283.935265 106.986578 
L 285.563942 87.773154 
L 286.106834 91.638737 
L 286.649768 105.2537 
L 287.19266 109.675423 
L 287.735552 95.305183 
L 288.278445 86.19944 
L 288.821337 81.937378 
L 289.36427 82.909547 
L 289.907163 88.151191 
L 290.450055 95.421408 
L 290.992947 105.407732 
L 291.53584 112.92405 
L 292.078773 97.993947 
L 292.621665 88.567507 
L 293.164558 87.879123 
L 293.70745 93.858443 
L 294.793276 109.47943 
L 295.336168 114.524465 
L 295.87906 115.048194 
L 296.421953 113.914669 
L 296.964845 113.804169 
L 297.507779 114.281359 
L 298.593563 115.862992 
L 299.136456 115.665213 
L 301.850958 111.571807 
L 302.393851 111.159564 
L 302.936784 111.546786 
L 303.479676 113.689508 
L 304.022569 113.312702 
L 304.565461 103.337635 
L 305.651287 76.998825 
L 306.194179 76.41503 
L 306.737071 91.544333 
L 307.279964 113.127935 
L 307.822856 101.696741 
L 308.36579 96.750554 
L 308.908682 107.965691 
L 309.451574 107.412851 
L 309.994467 90.490896 
L 310.537359 85.414523 
L 311.080292 88.111199 
L 311.623185 99.186104 
L 312.166077 114.109753 
L 313.251862 106.014334 
L 313.794795 104.286703 
L 314.337687 105.079021 
L 315.423472 108.08804 
L 317.05219 113.760648 
L 317.595082 115.968983 
L 319.223801 105.758459 
L 319.766693 104.61868 
L 320.309585 106.824372 
L 320.852478 112.173513 
L 321.39537 114.001229 
L 321.938303 110.166399 
L 322.481196 110.957393 
L 323.024088 115.812415 
L 323.56698 107.941881 
L 324.109873 103.093129 
L 324.652806 106.378209 
L 325.195698 114.283284 
L 325.738591 100.903856 
L 326.281483 93.447797 
L 326.824375 94.348042 
L 328.453093 114.184578 
L 328.995986 114.632675 
L 329.538878 113.099952 
L 330.081812 112.881768 
L 331.167596 113.829933 
L 331.710489 113.942328 
L 332.253381 113.180622 
L 332.796314 111.197535 
L 333.339207 107.858754 
L 334.424991 100.011117 
L 334.967884 99.600488 
L 335.510817 104.443229 
L 336.053709 113.924492 
L 336.596602 107.673362 
L 337.139494 99.171671 
L 337.682386 94.754993 
L 338.22532 94.934045 
L 338.768212 99.198796 
L 339.853997 112.431339 
L 340.396889 113.520703 
L 340.939823 105.89405 
L 342.5685 75.051292 
L 343.111392 81.616615 
L 343.654325 106.930894 
L 344.197218 93.069088 
L 344.74011 73.516909 
L 345.283002 74.093887 
L 346.91172 112.409354 
L 347.454613 113.565369 
L 349.083331 103.117807 
L 350.169115 92.086544 
L 350.712008 89.245694 
L 351.2549 93.370904 
L 351.797834 105.264581 
L 352.340726 112.26019 
L 352.883618 100.416593 
L 353.426511 94.134122 
L 353.969403 93.549397 
L 354.512336 98.22599 
L 355.055229 105.484502 
L 355.598121 110.478927 
L 356.141013 110.558277 
L 357.226839 103.441006 
L 357.769731 103.858686 
L 358.312624 110.651634 
L 358.855516 110.200623 
L 359.398408 99.265493 
L 359.941342 93.910445 
L 360.484234 95.321967 
L 362.112911 113.465942 
L 362.655845 114.986018 
L 363.198737 112.693721 
L 363.741629 111.524595 
L 364.284522 111.033673 
L 364.827414 110.871668 
L 365.91324 110.938383 
L 366.456132 111.335077 
L 366.999024 112.470161 
L 367.541917 115.23128 
L 368.08485 111.53725 
L 368.627742 101.817419 
L 369.713527 76.28558 
L 370.256419 76.998307 
L 370.799353 97.482799 
L 371.342245 105.137654 
L 371.885137 82.11943 
L 372.42803 67.979304 
L 372.970922 59.794455 
L 373.513856 62.445138 
L 374.056748 79.823365 
L 374.59964 104.490231 
L 375.142533 103.575743 
L 375.685425 85.226182 
L 376.228358 77.846917 
L 376.771251 81.557418 
L 378.399928 109.877481 
L 378.942861 114.517723 
L 379.485753 115.816668 
L 380.028646 115.357267 
L 381.11443 116.049876 
L 381.657364 115.95071 
L 382.200256 114.923732 
L 382.743148 112.578957 
L 384.371867 102.023182 
L 384.914759 102.678583 
L 385.457651 108.078261 
L 386.000544 115.155205 
L 386.543436 105.616165 
L 387.086369 100.00116 
L 387.629262 100.745633 
L 388.715046 112.218271 
L 389.257939 114.753683 
L 389.800872 110.992747 
L 390.343764 109.203859 
L 390.886657 109.302126 
L 391.972441 114.508884 
L 392.515375 103.638258 
L 393.601159 73.207846 
L 394.144052 71.102615 
L 394.686944 92.204011 
L 395.229878 103.263948 
L 395.77277 75.103888 
L 396.315662 71.060408 
L 396.858555 84.828794 
L 397.401447 102.055692 
L 397.94438 113.91309 
L 398.487273 114.252147 
L 398.487273 114.252147 
" clip-path="url(#p7d5088b0b0)" style="fill: none; stroke: #385989; stroke-width: 1.5; stroke-linecap: square"/>
   </g>
   <g id="line2d_14">
    <path d="M 73.832727 115.706927 
L 74.37564 116.078737 
L 76.54723 115.879108 
L 77.090143 116.111821 
L 77.633035 115.718254 
L 78.175948 115.527128 
L 79.804646 116.168491 
L 80.347538 116.080923 
L 80.890451 115.691463 
L 81.433343 115.991203 
L 82.519148 115.949502 
L 83.062041 116.051608 
L 84.690738 115.934021 
L 85.233651 116.0903 
L 87.948154 116.169407 
L 93.377159 116.174685 
L 94.462965 116.175171 
L 95.005857 116.034433 
L 97.177467 116.132299 
L 98.263252 115.870475 
L 98.806165 115.514914 
L 99.89197 114.123154 
L 100.434863 113.610702 
L 100.977755 114.367912 
L 101.520668 114.694842 
L 102.06356 110.626535 
L 102.606473 108.968138 
L 103.149365 113.054238 
L 103.692258 115.605668 
L 104.23517 114.018387 
L 104.778063 114.389859 
L 105.320976 115.42824 
L 105.863868 115.679367 
L 107.492566 115.905287 
L 112.378679 115.836548 
L 112.921571 115.75604 
L 113.464484 115.871986 
L 114.007376 115.872861 
L 114.550269 116.17739 
L 116.178987 115.451639 
L 116.721879 115.613343 
L 117.264771 115.610981 
L 117.807684 116.122689 
L 118.893489 116.032021 
L 123.23669 116.177912 
L 125.951192 115.95414 
L 126.494085 115.797823 
L 127.036998 115.901468 
L 127.57989 114.987907 
L 128.122782 115.164001 
L 128.665695 116.034986 
L 129.208588 115.840403 
L 129.7515 115.491663 
L 130.294393 115.778043 
L 130.837285 115.415043 
L 131.380198 115.929996 
L 131.92309 116.054707 
L 133.551788 116.005361 
L 134.637593 116.152083 
L 137.352096 116.169984 
L 140.066599 115.980291 
L 142.238209 115.69008 
L 142.781101 115.820581 
L 143.324014 116.097675 
L 144.952712 115.364697 
L 145.495604 115.552522 
L 146.038517 115.930749 
L 146.581409 116.142112 
L 147.124302 115.983344 
L 148.210107 116.04841 
L 149.295912 115.989807 
L 149.838804 115.904835 
L 150.381717 116.137966 
L 154.724918 116.019537 
L 156.353615 115.665421 
L 156.896528 115.708597 
L 157.43942 115.230835 
L 157.982313 116.107497 
L 158.525225 115.740431 
L 159.068118 115.811415 
L 159.611031 115.398349 
L 160.153923 115.348638 
L 160.696815 116.072299 
L 161.239728 116.149345 
L 161.782621 115.920231 
L 162.325533 115.901816 
L 163.954231 116.16265 
L 169.926129 116.043281 
L 171.554826 115.82804 
L 172.640632 115.399962 
L 173.183544 115.532729 
L 173.726437 115.936919 
L 174.812242 115.434073 
L 175.355134 114.668795 
L 176.44094 115.986135 
L 176.983832 116.03213 
L 177.526745 115.76899 
L 178.069637 115.93282 
L 178.61255 115.96894 
L 179.155442 116.160846 
L 181.327053 116.104002 
L 181.869945 115.829952 
L 182.412837 115.703339 
L 182.95575 116.177293 
L 186.213145 116.1487 
L 188.384756 115.90701 
L 190.013453 115.384293 
L 190.556346 115.158973 
L 191.099258 115.68596 
L 191.642151 115.975364 
L 192.185064 114.197597 
L 192.727956 113.796301 
L 193.270848 115.154807 
L 193.813761 115.903381 
L 194.356654 116.169674 
L 194.899566 115.724867 
L 195.985351 116.178113 
L 196.528264 116.174103 
L 197.071156 116.055351 
L 202.500162 116.158108 
L 203.043075 115.901568 
L 203.585967 116.050301 
L 204.128859 116.034057 
L 206.30047 115.119026 
L 206.843362 115.187217 
L 207.386254 115.791461 
L 207.929188 115.267329 
L 208.47208 114.264732 
L 209.014973 114.0499 
L 209.557865 114.962924 
L 210.100757 116.103318 
L 210.643691 115.383617 
L 211.729475 115.631277 
L 212.81526 116.138947 
L 213.358193 116.044473 
L 216.615588 116.098491 
L 220.958768 116.031901 
L 221.501702 116.086947 
L 222.587486 115.981047 
L 223.130379 116.123515 
L 223.673271 115.944983 
L 224.216204 115.930322 
L 224.759097 113.837139 
L 225.301989 114.756556 
L 225.844881 113.773094 
L 226.387774 116.051058 
L 226.930707 112.50692 
L 227.473599 109.946468 
L 228.016492 109.863482 
L 228.559384 113.799498 
L 229.102276 113.708993 
L 229.64521 112.088506 
L 230.188102 112.454507 
L 230.730995 113.894549 
L 231.273887 114.967129 
L 231.816779 115.789294 
L 232.359713 116.150977 
L 233.445497 115.937163 
L 235.074215 116.049735 
L 235.617108 116.022512 
L 236.16 116.17277 
L 236.702892 115.984538 
L 237.245785 116.067477 
L 238.33161 115.947269 
L 239.960287 116.096871 
L 240.503221 115.813144 
L 241.589005 115.698601 
L 242.131898 116.123163 
L 243.217724 115.463529 
L 243.760616 115.562094 
L 244.846401 116.120337 
L 245.932226 115.768338 
L 246.475119 115.816028 
L 247.018011 115.382532 
L 247.560903 115.154948 
L 248.103796 116.047548 
L 249.189621 116.071111 
L 249.732514 116.171946 
L 252.447016 116.080567 
L 253.532801 115.617999 
L 254.075735 115.348663 
L 255.161519 114.305803 
L 255.704412 114.049508 
L 256.247304 114.515749 
L 256.790237 115.987446 
L 257.33313 113.018997 
L 257.876022 111.988482 
L 258.418914 112.043564 
L 259.50474 115.862342 
L 260.047632 113.004755 
L 260.590525 113.331975 
L 261.133417 113.956891 
L 261.676309 115.047119 
L 262.219243 115.874286 
L 262.762135 116.00991 
L 264.390812 115.584094 
L 264.933746 115.795779 
L 265.476638 115.833012 
L 266.01953 115.715636 
L 267.105315 115.66516 
L 267.648248 115.586456 
L 268.191141 115.893044 
L 269.276925 114.812386 
L 269.819818 115.224556 
L 270.362751 115.141527 
L 270.905643 115.261764 
L 271.448536 115.686858 
L 271.991428 115.621798 
L 272.53432 113.170795 
L 273.077254 108.625584 
L 273.620146 101.587885 
L 274.163038 92.845054 
L 274.705931 87.672988 
L 275.248823 95.198503 
L 275.791757 109.18227 
L 276.334649 69.44704 
L 276.877541 45.029647 
L 277.420434 58.391665 
L 277.963326 100.168914 
L 278.506259 92.487346 
L 279.049152 77.541456 
L 279.592044 83.775859 
L 280.677829 106.416487 
L 281.220762 113.950717 
L 281.763654 114.631022 
L 282.306547 113.153443 
L 282.849439 112.839062 
L 283.935265 113.846056 
L 285.021049 115.147326 
L 286.106834 115.938693 
L 286.649768 116.047682 
L 287.19266 115.880165 
L 287.735552 115.226818 
L 288.278445 113.876124 
L 288.821337 111.874689 
L 289.36427 109.282415 
L 289.907163 108.253143 
L 290.450055 108.511199 
L 290.992947 114.905857 
L 292.078773 102.161185 
L 292.621665 101.674414 
L 293.164558 107.521041 
L 293.70745 114.804932 
L 294.793276 110.695017 
L 295.336168 110.980293 
L 296.964845 114.659381 
L 297.507779 115.385291 
L 298.050671 115.834073 
L 298.593563 116.041704 
L 299.679348 115.978134 
L 300.222281 115.953545 
L 300.765174 115.703478 
L 301.308066 115.730745 
L 302.393851 116.033863 
L 302.936784 115.652321 
L 303.479676 114.364287 
L 304.022569 112.075775 
L 304.565461 108.533826 
L 305.651287 99.356466 
L 306.194179 98.099571 
L 307.279964 110.183118 
L 308.36579 65.077971 
L 308.908682 64.833306 
L 309.994467 109.888819 
L 310.537359 86.394271 
L 311.080292 81.446496 
L 311.623185 89.550353 
L 312.708969 110.305297 
L 313.251862 116.139873 
L 313.794795 113.134609 
L 314.337687 111.915101 
L 314.88058 111.728506 
L 317.05219 112.599695 
L 317.595082 112.488813 
L 318.137975 112.210585 
L 319.223801 111.316524 
L 319.766693 111.028982 
L 320.309585 111.327542 
L 320.852478 112.880659 
L 321.39537 115.595872 
L 321.938303 108.016186 
L 322.481196 95.364796 
L 323.56698 63.508976 
L 324.109873 65.02924 
L 325.195698 109.735906 
L 325.738591 70.508751 
L 326.281483 55.364833 
L 326.824375 61.733587 
L 327.910201 99.780149 
L 328.453093 113.739525 
L 329.538878 106.887783 
L 330.081812 106.035459 
L 330.624704 106.81723 
L 332.796314 112.795403 
L 333.339207 112.163495 
L 334.424991 114.786421 
L 334.967884 114.313421 
L 336.053709 114.650945 
L 336.596602 115.202023 
L 337.139494 116.082578 
L 337.682386 113.850993 
L 338.22532 109.811926 
L 338.768212 103.623028 
L 339.853997 89.182491 
L 340.396889 90.031469 
L 340.939823 105.078719 
L 341.482715 98.378822 
L 342.025607 65.829591 
L 342.5685 47.089746 
L 343.111392 54.519011 
L 343.654325 88.350065 
L 344.197218 102.479458 
L 344.74011 75.657024 
L 345.283002 72.197741 
L 345.825895 83.762002 
L 346.368828 98.319965 
L 346.91172 109.420192 
L 347.454613 115.950683 
L 347.997505 112.646412 
L 348.540397 111.67597 
L 349.083331 111.718503 
L 349.626223 112.148653 
L 351.2549 114.314073 
L 352.340726 115.323254 
L 352.883618 115.914911 
L 353.426511 115.844258 
L 353.969403 114.842518 
L 354.512336 113.176747 
L 355.598121 108.313167 
L 356.683906 101.761158 
L 357.226839 106.464971 
L 357.769731 114.605413 
L 358.855516 74.470349 
L 359.398408 70.958855 
L 360.484234 109.44832 
L 361.027126 88.112481 
L 361.570019 85.108443 
L 362.112911 93.907332 
L 362.655845 105.053601 
L 363.198737 113.068938 
L 363.741629 114.225434 
L 364.284522 112.00022 
L 365.370347 111.588818 
L 365.91324 111.794379 
L 366.456132 112.49761 
L 366.999024 112.5731 
L 368.08485 112.378918 
L 369.170635 111.940605 
L 369.713527 111.896278 
L 370.256419 112.520412 
L 370.799353 114.314114 
L 371.342245 114.214542 
L 371.885137 107.332292 
L 372.42803 96.86209 
L 373.513856 73.92787 
L 374.056748 73.937216 
L 375.142533 110.726332 
L 375.685425 80.721419 
L 376.228358 65.654069 
L 376.771251 69.072491 
L 378.399928 111.669422 
L 378.942861 112.851501 
L 379.485753 109.046583 
L 380.028646 107.980831 
L 380.571538 108.346592 
L 383.286041 114.81047 
L 383.828933 115.692911 
L 384.371867 116.107136 
L 385.457651 114.990712 
L 386.000544 114.791756 
L 386.543436 114.953671 
L 387.086369 115.752762 
L 387.629262 115.020831 
L 388.172154 111.322802 
L 388.715046 105.116742 
L 389.800872 87.84036 
L 390.343764 86.335454 
L 390.886657 94.132832 
L 391.429549 113.465077 
L 392.515375 73.417544 
L 393.058267 59.404788 
L 393.601159 54.241549 
L 394.144052 62.551175 
L 394.686944 92.519441 
L 395.229878 97.452606 
L 395.77277 66.895496 
L 396.315662 61.573568 
L 396.858555 75.587067 
L 397.401447 94.767916 
L 397.94438 109.504644 
L 398.487273 114.795611 
L 398.487273 114.795611 
" clip-path="url(#p7d5088b0b0)" style="fill: none; stroke: #d22027; stroke-width: 1.5; stroke-linecap: square"/>
   </g>
   <g id="patch_3">
    <path d="M 57.6 119.740235 
L 57.6 41.472 
" style="fill: none; stroke: #000000; stroke-width: 0.8; stroke-linejoin: miter; stroke-linecap: square"/>
   </g>
   <g id="patch_4">
    <path d="M 414.72 119.740235 
L 414.72 41.472 
" style="fill: none; stroke: #000000; stroke-width: 0.8; stroke-linejoin: miter; stroke-linecap: square"/>
   </g>
   <g id="patch_5">
    <path d="M 57.6 119.740235 
L 414.72 119.740235 
" style="fill: none; stroke: #000000; stroke-width: 0.8; stroke-linejoin: miter; stroke-linecap: square"/>
   </g>
   <g id="patch_6">
    <path d="M 57.6 41.472 
L 414.72 41.472 
" style="fill: none; stroke: #000000; stroke-width: 0.8; stroke-linejoin: miter; stroke-linecap: square"/>
   </g>
  </g>
  <g id="axes_2">
   <g id="patch_7">
    <path d="M 57.6 213.662118 
L 414.72 213.662118 
L 414.72 135.393882 
L 57.6 135.393882 
z
" style="fill: #ffffff"/>
   </g>
   <g id="matplotlib.axis_3">
    <g id="xtick_10">
     <g id="line2d_15">
      <g>
       <use xlink:href="#m0df5419dae" x="73.289835" y="213.662118" style="stroke: #000000; stroke-width: 0.8"/>
      </g>
     </g>
     <g id="text_13">
      <!-- 10 -->
      <g transform="translate(66.927335 228.260555)scale(0.1 -0.1)">
       <use xlink:href="#DejaVuSans-31"/>
       <use xlink:href="#DejaVuSans-30" x="63.623047"/>
      </g>
     </g>
    </g>
    <g id="xtick_11">
     <g id="line2d_16">
      <g>
       <use xlink:href="#m0df5419dae" x="116.721879" y="213.662118" style="stroke: #000000; stroke-width: 0.8"/>
      </g>
     </g>
     <g id="text_14">
      <!-- 12 -->
      <g transform="translate(110.359379 228.260555)scale(0.1 -0.1)">
       <use xlink:href="#DejaVuSans-31"/>
       <use xlink:href="#DejaVuSans-32" x="63.623047"/>
      </g>
     </g>
    </g>
    <g id="xtick_12">
     <g id="line2d_17">
      <g>
       <use xlink:href="#m0df5419dae" x="160.153923" y="213.662118" style="stroke: #000000; stroke-width: 0.8"/>
      </g>
     </g>
     <g id="text_15">
      <!-- 14 -->
      <g transform="translate(153.791423 228.260555)scale(0.1 -0.1)">
       <use xlink:href="#DejaVuSans-31"/>
       <use xlink:href="#DejaVuSans-34" x="63.623047"/>
      </g>
     </g>
    </g>
    <g id="xtick_13">
     <g id="line2d_18">
      <g>
       <use xlink:href="#m0df5419dae" x="203.585967" y="213.662118" style="stroke: #000000; stroke-width: 0.8"/>
      </g>
     </g>
     <g id="text_16">
      <!-- 16 -->
      <g transform="translate(197.223467 228.260555)scale(0.1 -0.1)">
       <use xlink:href="#DejaVuSans-31"/>
       <use xlink:href="#DejaVuSans-36" x="63.623047"/>
      </g>
     </g>
    </g>
    <g id="xtick_14">
     <g id="line2d_19">
      <g>
       <use xlink:href="#m0df5419dae" x="247.018011" y="213.662118" style="stroke: #000000; stroke-width: 0.8"/>
      </g>
     </g>
     <g id="text_17">
      <!-- 18 -->
      <g transform="translate(240.655511 228.260555)scale(0.1 -0.1)">
       <use xlink:href="#DejaVuSans-31"/>
       <use xlink:href="#DejaVuSans-38" x="63.623047"/>
      </g>
     </g>
    </g>
    <g id="xtick_15">
     <g id="line2d_20">
      <g>
       <use xlink:href="#m0df5419dae" x="290.450055" y="213.662118" style="stroke: #000000; stroke-width: 0.8"/>
      </g>
     </g>
     <g id="text_18">
      <!-- 20 -->
      <g transform="translate(284.087555 228.260555)scale(0.1 -0.1)">
       <use xlink:href="#DejaVuSans-32"/>
       <use xlink:href="#DejaVuSans-30" x="63.623047"/>
      </g>
     </g>
    </g>
    <g id="xtick_16">
     <g id="line2d_21">
      <g>
       <use xlink:href="#m0df5419dae" x="333.882099" y="213.662118" style="stroke: #000000; stroke-width: 0.8"/>
      </g>
     </g>
     <g id="text_19">
      <!-- 22 -->
      <g transform="translate(327.519599 228.260555)scale(0.1 -0.1)">
       <use xlink:href="#DejaVuSans-32"/>
       <use xlink:href="#DejaVuSans-32" x="63.623047"/>
      </g>
     </g>
    </g>
    <g id="xtick_17">
     <g id="line2d_22">
      <g>
       <use xlink:href="#m0df5419dae" x="377.314143" y="213.662118" style="stroke: #000000; stroke-width: 0.8"/>
      </g>
     </g>
     <g id="text_20">
      <!-- 24 -->
      <g transform="translate(370.951643 228.260555)scale(0.1 -0.1)">
       <use xlink:href="#DejaVuSans-32"/>
       <use xlink:href="#DejaVuSans-34" x="63.623047"/>
      </g>
     </g>
    </g>
    <g id="xtick_18">
     <g id="line2d_23">
      <g>
       <use xlink:href="#m0df5419dae" x="399.030165" y="213.662118" style="stroke: #000000; stroke-width: 0.8"/>
      </g>
     </g>
     <g id="text_21">
      <!-- 25 -->
      <g transform="translate(392.667665 228.260555)scale(0.1 -0.1)">
       <use xlink:href="#DejaVuSans-32"/>
       <use xlink:href="#DejaVuSans-35" x="63.623047"/>
      </g>
     </g>
    </g>
   </g>
   <g id="matplotlib.axis_4">
    <g id="ytick_4">
     <g id="line2d_24">
      <g>
       <use xlink:href="#mb8fb486e43" x="57.6" y="210.10554" style="stroke: #000000; stroke-width: 0.8"/>
      </g>
     </g>
     <g id="text_22">
      <!-- 0 -->
      <g transform="translate(44.2375 213.904759)scale(0.1 -0.1)">
       <use xlink:href="#DejaVuSans-30"/>
      </g>
     </g>
    </g>
    <g id="ytick_5">
     <g id="line2d_25">
      <g>
       <use xlink:href="#mb8fb486e43" x="57.6" y="162.206417" style="stroke: #000000; stroke-width: 0.8"/>
      </g>
     </g>
     <g id="text_23">
      <!-- 10 -->
      <g transform="translate(37.875 166.005636)scale(0.1 -0.1)">
       <use xlink:href="#DejaVuSans-31"/>
       <use xlink:href="#DejaVuSans-30" x="63.623047"/>
      </g>
     </g>
    </g>
   </g>
   <g id="line2d_26">
    <path d="M 73.832727 209.786357 
L 74.37564 209.651496 
L 74.918533 209.901712 
L 75.461445 209.872192 
L 76.004338 210.077995 
L 76.54723 210.099397 
L 77.633035 209.920293 
L 78.175948 210.023523 
L 78.718841 209.539722 
L 79.261733 209.340772 
L 79.804646 209.776474 
L 80.347538 209.988809 
L 80.890451 209.930279 
L 81.433343 209.596941 
L 82.519148 209.971758 
L 83.062041 209.67853 
L 83.604954 209.900844 
L 85.776544 210.042518 
L 86.862349 209.722561 
L 87.948154 209.66763 
L 89.576852 209.882478 
L 90.662657 210.100016 
L 96.634555 208.887113 
L 97.177467 208.453793 
L 97.72036 207.586615 
L 98.263252 205.933738 
L 99.349057 200.781612 
L 99.89197 202.313871 
L 100.434863 204.939832 
L 100.977755 180.174445 
L 101.520668 167.231325 
L 102.06356 194.013169 
L 103.149365 170.007896 
L 104.23517 209.699774 
L 104.778063 202.539647 
L 105.320976 203.796431 
L 105.863868 207.298992 
L 106.40676 208.605208 
L 107.492566 209.754875 
L 110.749981 209.276512 
L 111.835766 208.939795 
L 112.378679 208.94397 
L 112.921571 209.303688 
L 113.464484 210.004977 
L 114.550269 207.257328 
L 115.093181 206.826403 
L 115.636074 207.881305 
L 116.178987 209.988381 
L 116.721879 208.258738 
L 117.264771 207.403562 
L 117.807684 207.702863 
L 118.893489 209.372217 
L 119.436382 209.897678 
L 119.979274 210.078867 
L 122.150885 209.843621 
L 124.322495 209.512313 
L 125.951192 209.147936 
L 126.494085 209.025219 
L 127.036998 209.081423 
L 127.57989 209.551472 
L 128.122782 209.611681 
L 128.665695 208.169805 
L 129.208588 207.081878 
L 129.7515 207.228429 
L 130.294393 208.832644 
L 130.837285 209.251106 
L 131.380198 207.849695 
L 131.92309 207.708995 
L 133.551788 209.838001 
L 134.094701 210.078235 
L 134.637593 210.002065 
L 135.723398 210.04561 
L 137.352096 209.747413 
L 141.152404 209.466526 
L 141.695296 209.319067 
L 142.238209 209.322768 
L 142.781101 209.739294 
L 143.324014 209.521445 
L 143.866907 208.384524 
L 144.409799 207.824657 
L 144.952712 208.492247 
L 145.495604 210.017106 
L 146.038517 208.873545 
L 146.581409 208.483547 
L 147.124302 208.878702 
L 147.667214 209.458296 
L 148.210107 209.868355 
L 148.75302 210.082397 
L 150.92461 209.914484 
L 152.010415 209.77664 
L 153.09622 209.81682 
L 154.182025 210.088851 
L 155.810723 209.401845 
L 156.353615 209.442171 
L 156.896528 210.03255 
L 157.43942 208.841746 
L 157.982313 207.097266 
L 158.525225 206.245849 
L 159.611031 209.173745 
L 160.153923 206.424462 
L 160.696815 206.348593 
L 161.782621 210.104445 
L 162.325533 209.367767 
L 162.868426 209.306004 
L 165.040036 209.923005 
L 166.668734 209.771037 
L 167.754539 209.701787 
L 168.840324 209.8825 
L 169.383236 210.054564 
L 169.926129 209.555865 
L 170.469042 208.748475 
L 171.011934 207.523652 
L 172.097739 204.655115 
L 172.640632 204.896325 
L 173.183544 208.905616 
L 173.726437 202.26717 
L 174.269329 191.433562 
L 174.812242 187.99775 
L 175.355134 198.944528 
L 175.898047 202.216698 
L 176.44094 190.514903 
L 176.983832 193.060554 
L 177.526745 202.749664 
L 178.069637 210.055287 
L 178.61255 207.291265 
L 179.155442 207.032728 
L 179.698335 207.658697 
L 180.78414 209.178922 
L 181.327053 209.575788 
L 181.869945 209.727213 
L 182.95575 209.643377 
L 186.756058 208.81808 
L 187.298951 209.123216 
L 187.841843 210.009277 
L 188.384756 208.255458 
L 188.927648 204.656758 
L 190.556346 189.039881 
L 191.099258 195.29913 
L 191.642151 205.405384 
L 192.185064 182.043795 
L 192.727956 172.720508 
L 193.270848 183.68707 
L 193.813761 202.777052 
L 194.356654 203.410386 
L 194.899566 196.575054 
L 195.442459 191.845575 
L 195.985351 184.133599 
L 196.528264 173.649484 
L 197.071156 170.767618 
L 197.614069 194.066601 
L 198.156962 175.426476 
L 198.699854 138.951529 
L 199.242767 158.430185 
L 199.785659 205.354 
L 200.328572 190.105581 
L 200.871464 187.729427 
L 201.414357 195.350655 
L 201.957269 201.112556 
L 203.043075 205.852298 
L 203.585967 208.2658 
L 204.128859 209.749861 
L 204.671752 208.011221 
L 205.214685 204.396469 
L 206.30047 194.391825 
L 206.843362 191.827391 
L 207.386254 196.786653 
L 207.929188 208.969078 
L 208.47208 191.926282 
L 209.014973 184.85901 
L 209.557865 192.511074 
L 210.100757 206.353841 
L 210.643691 204.706656 
L 211.186583 203.526058 
L 211.729475 207.135178 
L 212.272368 209.094269 
L 212.81526 207.277728 
L 213.358193 207.839498 
L 213.901086 209.555547 
L 214.443978 209.066317 
L 214.98687 208.170269 
L 215.529763 207.946344 
L 216.072696 208.134324 
L 217.701373 209.090195 
L 218.244265 209.23014 
L 218.787199 209.253873 
L 219.330091 209.164727 
L 219.872984 208.940089 
L 220.415876 208.560361 
L 220.958768 207.966557 
L 221.501702 207.137216 
L 222.587486 205.010879 
L 223.130379 204.359809 
L 223.673271 205.156443 
L 224.216204 208.971396 
L 224.759097 202.806115 
L 225.844881 177.306494 
L 226.387774 176.280356 
L 226.930707 197.689759 
L 227.473599 185.82926 
L 228.016492 162.758524 
L 228.559384 171.744485 
L 229.102276 197.548372 
L 229.64521 203.536329 
L 230.188102 197.586891 
L 230.730995 199.253126 
L 231.816779 205.926905 
L 232.359713 207.929446 
L 232.902605 209.072139 
L 233.445497 209.658306 
L 234.531282 210.09854 
L 235.074215 209.909689 
L 235.617108 209.514833 
L 236.16 208.755339 
L 236.702892 207.477844 
L 237.788718 203.433812 
L 238.33161 201.434186 
L 238.874503 200.574032 
L 239.417395 201.742597 
L 239.960287 205.111568 
L 240.503221 209.940531 
L 242.131898 194.502256 
L 242.67479 193.702674 
L 243.217724 198.011357 
L 243.760616 205.341412 
L 244.303508 208.28162 
L 244.846401 204.710196 
L 245.389293 203.989041 
L 245.932226 204.928451 
L 247.018011 207.798664 
L 247.560903 208.900658 
L 248.103796 209.677269 
L 248.646729 210.030918 
L 249.189621 209.763482 
L 249.732514 209.744708 
L 250.275406 210.025855 
L 250.818298 209.486628 
L 251.361232 208.272043 
L 252.989909 202.589603 
L 253.532801 202.417046 
L 254.075735 204.880014 
L 254.618627 209.285866 
L 255.161519 207.521536 
L 255.704412 208.160756 
L 256.247304 208.279763 
L 256.790237 206.980492 
L 257.33313 207.237721 
L 257.876022 196.850541 
L 258.418914 191.017244 
L 258.961807 194.844037 
L 259.50474 204.467457 
L 260.047632 207.267326 
L 260.590525 203.288306 
L 261.133417 203.043485 
L 261.676309 204.563335 
L 262.762135 208.057019 
L 263.305027 209.221132 
L 263.84792 209.982393 
L 264.933746 209.705196 
L 265.476638 209.95078 
L 266.01953 209.518582 
L 266.562423 208.112391 
L 267.105315 205.90455 
L 268.191141 200.755224 
L 268.734033 200.775345 
L 269.276925 205.547078 
L 269.819818 204.90962 
L 270.362751 194.37955 
L 270.905643 189.741098 
L 271.448536 194.057964 
L 271.991428 204.136222 
L 272.53432 205.463875 
L 273.620146 188.502021 
L 274.163038 182.8308 
L 274.705931 185.576749 
L 275.248823 203.523586 
L 275.791757 188.14487 
L 276.334649 169.349921 
L 276.877541 175.402893 
L 277.420434 196.883741 
L 277.963326 205.374504 
L 278.506259 198.414542 
L 279.049152 199.101183 
L 280.134936 205.723066 
L 280.677829 208.083475 
L 281.220762 209.482809 
L 281.763654 210.016424 
L 282.306547 209.643929 
L 282.849439 208.176604 
L 283.392331 205.304351 
L 285.021049 193.054692 
L 285.563942 197.002664 
L 286.106834 209.499948 
L 286.649768 191.071797 
L 287.19266 180.140017 
L 287.735552 183.695368 
L 288.278445 195.419907 
L 288.821337 203.834311 
L 289.36427 205.358717 
L 289.907163 205.363687 
L 290.450055 209.905575 
L 291.53584 188.823165 
L 292.078773 186.691837 
L 292.621665 194.181643 
L 293.164558 205.144928 
L 293.70745 207.02166 
L 294.250342 203.78099 
L 294.793276 203.880401 
L 296.421953 208.436948 
L 296.964845 209.399805 
L 297.507779 210.024382 
L 301.850958 208.265073 
L 302.393851 208.583009 
L 302.936784 209.8789 
L 303.479676 207.084482 
L 304.022569 200.667964 
L 305.108353 180.97074 
L 305.651287 181.523223 
L 306.194179 203.059345 
L 306.737071 184.135457 
L 307.279964 173.315426 
L 307.822856 197.829192 
L 308.36579 198.908984 
L 308.908682 206.356131 
L 309.451574 191.15944 
L 309.994467 181.867827 
L 311.080292 206.640969 
L 311.623185 197.317439 
L 312.166077 196.822528 
L 312.708969 199.938725 
L 313.251862 203.743821 
L 313.794795 206.614523 
L 314.337687 208.36546 
L 314.88058 209.427021 
L 315.423472 210.063315 
L 315.966364 209.626838 
L 316.509298 208.964373 
L 317.05219 207.985723 
L 318.680867 203.572271 
L 319.223801 203.759896 
L 319.766693 206.595346 
L 320.309585 208.236701 
L 320.852478 202.761133 
L 321.39537 201.088387 
L 321.938303 205.556702 
L 322.481196 205.798921 
L 323.024088 197.719214 
L 323.56698 196.155745 
L 324.109873 204.18176 
L 324.652806 201.676044 
L 325.195698 190.232643 
L 325.738591 189.674712 
L 326.824375 208.954675 
L 327.367309 204.886237 
L 327.910201 203.127808 
L 328.453093 204.081222 
L 329.538878 207.567739 
L 330.081812 208.773733 
L 330.624704 209.431718 
L 331.167596 209.500911 
L 331.710489 208.920882 
L 332.253381 207.585995 
L 333.882099 201.087803 
L 334.424991 201.670797 
L 334.967884 206.627319 
L 335.510817 204.561718 
L 336.053709 195.529393 
L 336.596602 191.91164 
L 337.139494 195.580732 
L 338.22532 209.537207 
L 338.768212 207.279937 
L 339.853997 204.49065 
L 340.396889 201.294038 
L 340.939823 195.264635 
L 341.482715 187.493904 
L 342.025607 183.534372 
L 342.5685 193.123722 
L 343.111392 200.019962 
L 343.654325 171.088457 
L 344.197218 164.977402 
L 344.74011 184.315804 
L 345.283002 208.23272 
L 345.825895 199.151883 
L 346.368828 197.216901 
L 347.454613 202.975287 
L 347.997505 204.337509 
L 348.540397 203.583028 
L 349.083331 200.935616 
L 349.626223 197.486707 
L 350.169115 195.824296 
L 350.712008 199.791899 
L 351.2549 208.844549 
L 351.797834 194.075692 
L 352.340726 185.887232 
L 352.883618 189.951543 
L 353.426511 201.59398 
L 353.969403 208.793155 
L 354.512336 205.468635 
L 355.055229 207.356093 
L 355.598121 208.530832 
L 356.141013 203.842324 
L 356.683906 201.115992 
L 357.226839 203.041893 
L 357.769731 209.502957 
L 358.312624 198.950789 
L 358.855516 191.950714 
L 359.398408 193.003854 
L 360.484234 208.623128 
L 361.570019 204.445086 
L 362.112911 204.714615 
L 363.198737 206.849081 
L 363.741629 207.633791 
L 364.284522 208.092408 
L 364.827414 208.307306 
L 365.91324 208.569714 
L 366.999024 209.566978 
L 367.541917 206.315531 
L 368.08485 200.398732 
L 369.170635 182.476373 
L 369.713527 181.552086 
L 370.256419 199.783013 
L 370.799353 185.001046 
L 371.342245 157.102958 
L 371.885137 159.453716 
L 372.970922 202.748716 
L 373.513856 210.068666 
L 374.056748 202.566344 
L 374.59964 188.648255 
L 375.142533 178.207343 
L 375.685425 180.905397 
L 376.771251 208.660285 
L 377.314143 203.676753 
L 377.857035 201.943422 
L 378.399928 203.407053 
L 379.485753 207.623714 
L 380.028646 208.884568 
L 380.571538 209.408738 
L 381.11443 209.179238 
L 381.657364 208.173352 
L 382.200256 206.353721 
L 383.286041 201.301644 
L 383.828933 200.198506 
L 384.371867 202.573868 
L 384.914759 209.438967 
L 386.000544 195.292033 
L 386.543436 195.883454 
L 387.629262 209.526582 
L 388.172154 205.75786 
L 388.715046 203.799128 
L 389.257939 203.743772 
L 389.800872 204.604713 
L 390.343764 206.190012 
L 390.886657 208.890626 
L 391.429549 206.704827 
L 391.972441 199.11431 
L 393.058267 179.338235 
L 393.601159 182.129758 
L 394.144052 207.470711 
L 394.686944 174.743535 
L 395.229878 156.469509 
L 395.77277 173.479246 
L 396.315662 203.728522 
L 396.858555 198.129126 
L 397.401447 195.534585 
L 397.94438 201.243819 
L 398.487273 209.28752 
L 398.487273 209.28752 
" clip-path="url(#p5a9b361683)" style="fill: none; stroke: #385989; stroke-width: 1.5; stroke-linecap: square"/>
   </g>
   <g id="line2d_27">
    <path d="M 73.832727 209.833197 
L 74.37564 210.050298 
L 78.175948 209.961103 
L 78.718841 209.632751 
L 79.261733 209.766215 
L 79.804646 210.027704 
L 80.347538 210.087521 
L 80.890451 209.848585 
L 81.433343 210.043648 
L 81.976236 210.08972 
L 82.519148 209.975709 
L 87.405241 210.092761 
L 97.72036 210.046589 
L 98.263252 209.89148 
L 98.806165 209.53611 
L 99.349057 208.955206 
L 99.89197 208.714743 
L 100.434863 209.466812 
L 100.977755 207.743387 
L 101.520668 204.482303 
L 102.06356 205.420731 
L 102.606473 209.450167 
L 103.149365 206.252866 
L 103.692258 206.901502 
L 104.23517 209.280827 
L 104.778063 209.605701 
L 105.320976 209.331997 
L 105.863868 209.802185 
L 106.949673 209.915146 
L 108.035478 210.086707 
L 112.921571 210.086963 
L 115.636074 209.546179 
L 116.178987 210.087208 
L 117.807684 209.925108 
L 118.893489 210.089283 
L 120.522187 209.97782 
L 128.122782 210.02076 
L 128.665695 209.498565 
L 129.208588 209.366217 
L 129.7515 209.583227 
L 130.294393 209.987119 
L 130.837285 210.076824 
L 131.380198 209.869189 
L 131.92309 209.817254 
L 133.008896 210.09937 
L 134.637593 209.97105 
L 142.238209 210.054576 
L 143.866907 209.355921 
L 144.409799 209.506101 
L 144.952712 209.925442 
L 145.495604 209.890286 
L 146.038517 209.720959 
L 148.210107 209.983983 
L 148.75302 209.983009 
L 149.295912 209.84072 
L 149.838804 209.836812 
L 150.381717 210.009042 
L 155.810723 210.010052 
L 156.353615 209.935834 
L 156.896528 210.083783 
L 157.43942 210.102952 
L 158.525225 209.128864 
L 159.068118 209.204821 
L 159.611031 209.958235 
L 160.153923 210.0344 
L 160.696815 209.69966 
L 161.239728 209.585101 
L 162.325533 210.104246 
L 163.411318 209.937493 
L 171.011934 209.932943 
L 172.097739 209.885065 
L 172.640632 209.995873 
L 173.183544 209.823286 
L 173.726437 209.525087 
L 174.269329 208.755392 
L 174.812242 208.92736 
L 175.355134 210.092606 
L 175.898047 209.567579 
L 176.44094 209.37926 
L 176.983832 209.623648 
L 177.526745 209.995439 
L 180.78414 210.024503 
L 183.498643 210.076779 
L 188.384756 210.041965 
L 189.470561 209.795983 
L 190.556346 210.090175 
L 191.099258 209.237008 
L 191.642151 208.718278 
L 192.185064 209.055884 
L 192.727956 210.079492 
L 193.270848 209.257013 
L 194.356654 209.64795 
L 194.899566 210.095376 
L 195.442459 209.888816 
L 196.528264 209.914353 
L 198.156962 210.063453 
L 199.785659 210.09201 
L 205.214685 209.784528 
L 205.757577 209.706631 
L 206.843362 209.795203 
L 207.929188 207.97899 
L 208.47208 208.49747 
L 209.014973 210.009597 
L 209.557865 208.740916 
L 210.100757 208.649103 
L 211.186583 210.071202 
L 211.729475 209.797082 
L 212.81526 209.822898 
L 215.529763 210.084808 
L 222.587486 209.937916 
L 223.130379 209.801607 
L 223.673271 209.335043 
L 224.216204 209.311123 
L 224.759097 206.859481 
L 225.301989 207.704887 
L 225.844881 209.706434 
L 226.387774 206.935647 
L 226.930707 203.020818 
L 227.473599 204.401092 
L 228.016492 208.710493 
L 228.559384 204.030616 
L 229.102276 204.942744 
L 229.64521 208.228781 
L 230.188102 209.814989 
L 230.730995 209.178189 
L 231.273887 209.277409 
L 232.359713 209.782351 
L 233.445497 210.02564 
L 235.074215 210.092882 
L 236.16 210.021261 
L 237.788718 210.062806 
L 238.874503 209.9164 
L 240.503221 209.520262 
L 241.589005 210.000758 
L 242.131898 209.486783 
L 242.67479 209.307989 
L 243.760616 210.00195 
L 244.303508 209.692357 
L 244.846401 209.637035 
L 247.560903 210.079526 
L 252.447016 210.021206 
L 253.532801 209.699644 
L 254.618627 209.162246 
L 255.161519 209.070921 
L 255.704412 209.659509 
L 256.247304 209.02334 
L 256.790237 206.562264 
L 257.33313 205.064184 
L 258.418914 209.46434 
L 258.961807 206.21415 
L 259.50474 205.590403 
L 260.047632 208.084446 
L 260.590525 209.726057 
L 261.133417 209.368972 
L 261.676309 209.187158 
L 262.219243 209.280978 
L 263.305027 209.700949 
L 264.933746 209.975357 
L 265.476638 209.898567 
L 266.562423 210.02865 
L 267.648248 209.717227 
L 268.191141 209.920258 
L 269.819818 209.594141 
L 270.362751 209.681066 
L 270.905643 209.995506 
L 271.448536 209.451559 
L 271.991428 207.836929 
L 272.53432 204.849851 
L 273.620146 194.541208 
L 274.163038 191.822551 
L 274.705931 200.201898 
L 275.248823 193.857942 
L 275.791757 158.659369 
L 276.334649 145.23559 
L 276.877541 177.094351 
L 277.420434 186.768602 
L 277.963326 154.302565 
L 278.506259 164.787703 
L 279.049152 193.121705 
L 279.592044 206.446198 
L 280.134936 199.809044 
L 280.677829 200.836702 
L 281.763654 206.29781 
L 282.306547 208.08583 
L 282.849439 209.210322 
L 283.392331 209.871817 
L 283.935265 209.969435 
L 285.021049 209.672474 
L 286.106834 209.761018 
L 286.649768 210.051188 
L 287.19266 209.620737 
L 287.735552 208.715671 
L 288.821337 205.770486 
L 289.36427 204.889771 
L 289.907163 207.215309 
L 290.450055 207.45507 
L 290.992947 200.190151 
L 291.53584 196.063002 
L 292.078773 200.587224 
L 292.621665 209.818543 
L 293.164558 203.439308 
L 293.70745 201.953679 
L 295.336168 209.681639 
L 296.421953 209.254128 
L 296.964845 209.317108 
L 299.136456 210.102695 
L 300.222281 209.957852 
L 300.765174 209.897212 
L 301.308066 210.011039 
L 301.850958 209.910732 
L 302.393851 209.46647 
L 302.936784 208.554576 
L 303.479676 207.051443 
L 304.022569 204.760731 
L 305.108353 199.360064 
L 305.651287 199.645871 
L 306.194179 206.413294 
L 306.737071 198.261208 
L 307.279964 178.296422 
L 307.822856 166.556481 
L 308.36579 177.044268 
L 308.908682 209.796726 
L 309.451574 176.532729 
L 309.994467 166.369071 
L 310.537359 181.539393 
L 311.080292 202.867566 
L 311.623185 204.308596 
L 312.166077 200.816346 
L 312.708969 202.092537 
L 313.794795 206.590716 
L 314.337687 207.978507 
L 314.88058 208.77022 
L 315.423472 209.176242 
L 315.966364 209.264202 
L 317.05219 208.958696 
L 318.680867 208.114848 
L 319.223801 208.070736 
L 319.766693 208.426876 
L 320.309585 209.689855 
L 320.852478 207.707522 
L 321.39537 202.415365 
L 321.938303 194.104442 
L 322.481196 183.198665 
L 323.024088 174.882803 
L 323.56698 180.005987 
L 324.109873 203.547533 
L 325.195698 151.329283 
L 325.738591 157.705944 
L 326.824375 208.707351 
L 327.367309 194.828304 
L 327.910201 192.8902 
L 328.453093 196.273002 
L 329.538878 204.491882 
L 330.081812 206.955888 
L 330.624704 208.652895 
L 331.167596 209.740351 
L 331.710489 209.960257 
L 332.796314 209.831567 
L 333.339207 209.74237 
L 333.882099 209.787015 
L 334.424991 210.084142 
L 334.967884 209.780768 
L 335.510817 209.853598 
L 336.053709 210.063533 
L 336.596602 209.315108 
L 337.139494 207.81126 
L 337.682386 205.171301 
L 338.22532 201.065669 
L 338.768212 196.091598 
L 339.311104 192.568097 
L 339.853997 195.742198 
L 340.396889 209.438615 
L 341.482715 160.245388 
L 342.025607 155.723223 
L 343.111392 201.047293 
L 343.654325 164.117193 
L 344.197218 156.363305 
L 344.74011 177.396891 
L 345.283002 203.76716 
L 345.825895 201.601955 
L 346.368828 198.342251 
L 346.91172 200.470344 
L 347.997505 206.345111 
L 348.540397 208.066779 
L 349.083331 209.132201 
L 349.626223 209.716794 
L 350.169115 209.994999 
L 350.712008 210.069262 
L 352.340726 209.793684 
L 352.883618 209.497006 
L 353.426511 208.965934 
L 353.969403 208.066792 
L 354.512336 206.674203 
L 355.055229 204.840657 
L 355.598121 202.580913 
L 356.141013 202.542561 
L 356.683906 206.602377 
L 357.226839 203.994686 
L 358.312624 173.213453 
L 358.855516 177.511743 
L 359.398408 207.065444 
L 359.941342 179.302995 
L 360.484234 168.750621 
L 361.027126 185.015851 
L 361.570019 205.895643 
L 362.112911 202.585733 
L 362.655845 200.558514 
L 363.198737 202.529081 
L 363.741629 205.069795 
L 364.284522 206.963409 
L 364.827414 208.434584 
L 365.370347 209.100272 
L 365.91324 208.873483 
L 366.999024 209.276324 
L 367.541917 208.873728 
L 368.627742 208.523668 
L 369.170635 208.603326 
L 370.256419 209.739543 
L 370.799353 207.050566 
L 371.342245 202.385066 
L 372.970922 182.709457 
L 373.513856 187.386038 
L 374.056748 206.783202 
L 375.142533 164.37806 
L 375.685425 166.541174 
L 376.771251 208.144731 
L 377.314143 199.490892 
L 377.857035 196.150942 
L 378.399928 198.045518 
L 379.485753 204.745115 
L 380.028646 207.129241 
L 380.571538 208.716018 
L 381.11443 209.740345 
L 381.657364 209.921612 
L 382.743148 209.455129 
L 383.828933 209.344111 
L 384.914759 209.251841 
L 385.457651 209.386253 
L 386.543436 209.839835 
L 387.086369 208.43574 
L 387.629262 205.804515 
L 388.172154 201.748728 
L 389.257939 191.918325 
L 389.800872 192.362218 
L 390.343764 202.635365 
L 390.886657 197.819916 
L 391.429549 179.441521 
L 391.972441 171.387853 
L 392.515375 173.5216 
L 393.058267 178.121873 
L 394.144052 202.82209 
L 394.686944 166.10138 
L 395.229878 150.174609 
L 395.77277 169.389606 
L 396.315662 201.296269 
L 396.858555 198.929653 
L 397.401447 194.115349 
L 397.94438 197.106756 
L 398.487273 201.927931 
L 398.487273 201.927931 
" clip-path="url(#p5a9b361683)" style="fill: none; stroke: #d22027; stroke-width: 1.5; stroke-linecap: square"/>
   </g>
   <g id="patch_8">
    <path d="M 57.6 213.662118 
L 57.6 135.393882 
" style="fill: none; stroke: #000000; stroke-width: 0.8; stroke-linejoin: miter; stroke-linecap: square"/>
   </g>
   <g id="patch_9">
    <path d="M 414.72 213.662118 
L 414.72 135.393882 
" style="fill: none; stroke: #000000; stroke-width: 0.8; stroke-linejoin: miter; stroke-linecap: square"/>
   </g>
   <g id="patch_10">
    <path d="M 57.6 213.662118 
L 414.72 213.662118 
" style="fill: none; stroke: #000000; stroke-width: 0.8; stroke-linejoin: miter; stroke-linecap: square"/>
   </g>
   <g id="patch_11">
    <path d="M 57.6 135.393882 
L 414.72 135.393882 
" style="fill: none; stroke: #000000; stroke-width: 0.8; stroke-linejoin: miter; stroke-linecap: square"/>
   </g>
  </g>
  <g id="axes_3">
   <g id="patch_12">
    <path d="M 57.6 307.584 
L 414.72 307.584 
L 414.72 229.315765 
L 57.6 229.315765 
z
" style="fill: #ffffff"/>
   </g>
   <g id="matplotlib.axis_5">
    <g id="xtick_19">
     <g id="line2d_28">
      <g>
       <use xlink:href="#m0df5419dae" x="73.289835" y="307.584" style="stroke: #000000; stroke-width: 0.8"/>
      </g>
     </g>
     <g id="text_24">
      <!-- 10 -->
      <g transform="translate(66.927335 322.182437)scale(0.1 -0.1)">
       <use xlink:href="#DejaVuSans-31"/>
       <use xlink:href="#DejaVuSans-30" x="63.623047"/>
      </g>
     </g>
    </g>
    <g id="xtick_20">
     <g id="line2d_29">
      <g>
       <use xlink:href="#m0df5419dae" x="116.721879" y="307.584" style="stroke: #000000; stroke-width: 0.8"/>
      </g>
     </g>
     <g id="text_25">
      <!-- 12 -->
      <g transform="translate(110.359379 322.182437)scale(0.1 -0.1)">
       <use xlink:href="#DejaVuSans-31"/>
       <use xlink:href="#DejaVuSans-32" x="63.623047"/>
      </g>
     </g>
    </g>
    <g id="xtick_21">
     <g id="line2d_30">
      <g>
       <use xlink:href="#m0df5419dae" x="160.153923" y="307.584" style="stroke: #000000; stroke-width: 0.8"/>
      </g>
     </g>
     <g id="text_26">
      <!-- 14 -->
      <g transform="translate(153.791423 322.182437)scale(0.1 -0.1)">
       <use xlink:href="#DejaVuSans-31"/>
       <use xlink:href="#DejaVuSans-34" x="63.623047"/>
      </g>
     </g>
    </g>
    <g id="xtick_22">
     <g id="line2d_31">
      <g>
       <use xlink:href="#m0df5419dae" x="203.585967" y="307.584" style="stroke: #000000; stroke-width: 0.8"/>
      </g>
     </g>
     <g id="text_27">
      <!-- 16 -->
      <g transform="translate(197.223467 322.182437)scale(0.1 -0.1)">
       <use xlink:href="#DejaVuSans-31"/>
       <use xlink:href="#DejaVuSans-36" x="63.623047"/>
      </g>
     </g>
    </g>
    <g id="xtick_23">
     <g id="line2d_32">
      <g>
       <use xlink:href="#m0df5419dae" x="247.018011" y="307.584" style="stroke: #000000; stroke-width: 0.8"/>
      </g>
     </g>
     <g id="text_28">
      <!-- 18 -->
      <g transform="translate(240.655511 322.182437)scale(0.1 -0.1)">
       <use xlink:href="#DejaVuSans-31"/>
       <use xlink:href="#DejaVuSans-38" x="63.623047"/>
      </g>
     </g>
    </g>
    <g id="xtick_24">
     <g id="line2d_33">
      <g>
       <use xlink:href="#m0df5419dae" x="290.450055" y="307.584" style="stroke: #000000; stroke-width: 0.8"/>
      </g>
     </g>
     <g id="text_29">
      <!-- 20 -->
      <g transform="translate(284.087555 322.182437)scale(0.1 -0.1)">
       <use xlink:href="#DejaVuSans-32"/>
       <use xlink:href="#DejaVuSans-30" x="63.623047"/>
      </g>
     </g>
    </g>
    <g id="xtick_25">
     <g id="line2d_34">
      <g>
       <use xlink:href="#m0df5419dae" x="333.882099" y="307.584" style="stroke: #000000; stroke-width: 0.8"/>
      </g>
     </g>
     <g id="text_30">
      <!-- 22 -->
      <g transform="translate(327.519599 322.182437)scale(0.1 -0.1)">
       <use xlink:href="#DejaVuSans-32"/>
       <use xlink:href="#DejaVuSans-32" x="63.623047"/>
      </g>
     </g>
    </g>
    <g id="xtick_26">
     <g id="line2d_35">
      <g>
       <use xlink:href="#m0df5419dae" x="377.314143" y="307.584" style="stroke: #000000; stroke-width: 0.8"/>
      </g>
     </g>
     <g id="text_31">
      <!-- 24 -->
      <g transform="translate(370.951643 322.182437)scale(0.1 -0.1)">
       <use xlink:href="#DejaVuSans-32"/>
       <use xlink:href="#DejaVuSans-34" x="63.623047"/>
      </g>
     </g>
    </g>
    <g id="xtick_27">
     <g id="line2d_36">
      <g>
       <use xlink:href="#m0df5419dae" x="399.030165" y="307.584" style="stroke: #000000; stroke-width: 0.8"/>
      </g>
     </g>
     <g id="text_32">
      <!-- 25 -->
      <g transform="translate(392.667665 322.182437)scale(0.1 -0.1)">
       <use xlink:href="#DejaVuSans-32"/>
       <use xlink:href="#DejaVuSans-35" x="63.623047"/>
      </g>
     </g>
    </g>
   </g>
   <g id="matplotlib.axis_6">
    <g id="ytick_6">
     <g id="line2d_37">
      <g>
       <use xlink:href="#mb8fb486e43" x="57.6" y="304.026393" style="stroke: #000000; stroke-width: 0.8"/>
      </g>
     </g>
     <g id="text_33">
      <!-- 0 -->
      <g transform="translate(44.2375 307.825612)scale(0.1 -0.1)">
       <use xlink:href="#DejaVuSans-30"/>
      </g>
     </g>
    </g>
    <g id="ytick_7">
     <g id="line2d_38">
      <g>
       <use xlink:href="#mb8fb486e43" x="57.6" y="254.695032" style="stroke: #000000; stroke-width: 0.8"/>
      </g>
     </g>
     <g id="text_34">
      <!-- 10 -->
      <g transform="translate(37.875 258.494251)scale(0.1 -0.1)">
       <use xlink:href="#DejaVuSans-31"/>
       <use xlink:href="#DejaVuSans-30" x="63.623047"/>
      </g>
     </g>
    </g>
   </g>
   <g id="line2d_39">
    <path d="M 73.832727 303.211736 
L 74.37564 303.993389 
L 77.090143 303.990194 
L 77.633035 303.684706 
L 78.718841 302.736931 
L 79.261733 302.98268 
L 79.804646 303.809257 
L 80.890451 303.953332 
L 81.433343 303.660329 
L 81.976236 303.591904 
L 82.519148 303.959716 
L 83.062041 303.76312 
L 83.604954 303.954221 
L 85.776544 303.918255 
L 87.948154 304.017356 
L 92.291354 303.916838 
L 95.005857 303.941427 
L 95.548749 303.725949 
L 96.091662 303.368673 
L 96.634555 302.816482 
L 98.263252 300.581604 
L 98.806165 301.806955 
L 99.349057 300.551302 
L 100.434863 274.617359 
L 101.520668 287.734055 
L 102.06356 254.809356 
L 102.606473 270.343371 
L 103.149365 303.437925 
L 103.692258 286.903553 
L 104.23517 286.420215 
L 105.320976 301.705136 
L 105.863868 303.468623 
L 106.40676 302.775814 
L 106.949673 302.748358 
L 108.035478 303.514965 
L 109.121263 303.700621 
L 110.749981 303.706783 
L 111.835766 303.889123 
L 112.378679 303.316897 
L 113.464484 301.912519 
L 114.007376 301.889162 
L 114.550269 302.945392 
L 115.093181 303.120782 
L 115.636074 301.228778 
L 116.178987 300.565137 
L 116.721879 301.330296 
L 117.807684 304.015171 
L 118.350577 303.368311 
L 118.893489 303.207813 
L 119.979274 303.560069 
L 121.065079 303.950116 
L 121.607992 303.963015 
L 123.779582 303.603893 
L 124.865387 303.513797 
L 125.40828 303.549961 
L 126.494085 303.947565 
L 128.122782 301.878641 
L 128.665695 302.13174 
L 129.208588 303.564943 
L 130.294393 301.098168 
L 130.837285 301.227726 
L 131.92309 303.632911 
L 132.466003 303.623623 
L 133.008896 303.320436 
L 133.551788 303.345173 
L 135.723398 303.970473 
L 136.809203 303.895229 
L 140.609511 303.544459 
L 141.152404 303.657108 
L 141.695296 304.020367 
L 143.324014 302.209821 
L 143.866907 302.756808 
L 144.409799 303.927879 
L 144.952712 302.662874 
L 145.495604 302.315437 
L 146.038517 302.766659 
L 147.124302 303.95181 
L 148.210107 303.635764 
L 149.295912 303.709191 
L 151.467522 304.018243 
L 154.724918 303.907942 
L 155.26781 303.677522 
L 155.810723 303.243832 
L 156.896528 301.924031 
L 157.43942 301.765824 
L 157.982313 302.894233 
L 158.525225 302.583327 
L 159.068118 299.859436 
L 159.611031 299.09658 
L 160.153923 300.908855 
L 160.696815 303.674021 
L 161.239728 302.378596 
L 161.782621 301.758849 
L 162.325533 302.288829 
L 162.868426 303.18776 
L 163.411318 303.868369 
L 165.582929 303.765118 
L 166.668734 303.850951 
L 167.754539 303.760278 
L 168.840324 303.444307 
L 170.469042 302.862492 
L 171.011934 303.14379 
L 171.554826 303.791629 
L 172.097739 301.190457 
L 173.183544 291.801674 
L 173.726437 290.111819 
L 174.269329 297.128143 
L 174.812242 294.99019 
L 175.355134 280.48059 
L 175.898047 280.145532 
L 176.44094 293.107971 
L 176.983832 301.15156 
L 177.526745 294.533849 
L 178.069637 294.754361 
L 179.155442 301.580717 
L 179.698335 303.574486 
L 180.241247 303.631709 
L 180.78414 303.402128 
L 181.869945 303.577825 
L 182.95575 303.791795 
L 184.041555 303.769366 
L 185.12734 303.42103 
L 185.670253 303.074366 
L 186.213145 302.547454 
L 186.756058 301.775552 
L 187.298951 300.696593 
L 188.927648 296.766479 
L 189.470561 297.795274 
L 190.013453 303.333432 
L 190.556346 292.669279 
L 191.099258 276.699567 
L 191.642151 267.335655 
L 192.185064 276.342346 
L 192.727956 300.567152 
L 193.270848 287.150671 
L 193.813761 283.721951 
L 194.899566 301.77567 
L 195.442459 292.463625 
L 195.985351 291.158932 
L 196.528264 303.959384 
L 197.614069 239.976077 
L 198.156962 242.604626 
L 198.699854 291.279023 
L 199.242767 269.29353 
L 199.785659 256.304372 
L 200.328572 270.06335 
L 200.871464 293.25114 
L 201.414357 302.037214 
L 201.957269 299.765533 
L 202.500162 299.729383 
L 203.043075 300.15315 
L 203.585967 300.223 
L 204.128859 299.69473 
L 204.671752 298.860053 
L 205.214685 298.773569 
L 206.30047 302.326545 
L 206.843362 292.177037 
L 207.386254 279.741836 
L 207.929188 273.103638 
L 208.47208 280.839317 
L 209.014973 301.10604 
L 209.557865 287.267263 
L 210.100757 278.688181 
L 210.643691 280.524074 
L 212.272368 300.517475 
L 212.81526 302.486201 
L 213.358193 299.391087 
L 213.901086 298.358701 
L 214.443978 298.82496 
L 216.072696 302.186537 
L 216.615588 302.817339 
L 217.158481 303.143273 
L 217.701373 303.269548 
L 218.787199 303.191979 
L 220.415876 302.876499 
L 220.958768 302.903537 
L 221.501702 303.186566 
L 222.044594 303.972726 
L 222.587486 302.4434 
L 223.130379 299.553231 
L 224.759097 286.559122 
L 225.301989 289.129027 
L 225.844881 302.977011 
L 226.930707 256.25426 
L 227.473599 257.603145 
L 228.016492 288.819101 
L 228.559384 285.011082 
L 229.102276 273.410504 
L 229.64521 281.539546 
L 230.188102 293.941479 
L 230.730995 302.111407 
L 231.273887 302.493709 
L 231.816779 301.693347 
L 232.359713 301.889501 
L 233.445497 302.568091 
L 234.531282 302.670634 
L 235.617108 302.595865 
L 236.16 302.760592 
L 236.702892 303.370933 
L 237.245785 303.280623 
L 237.788718 300.786442 
L 238.874503 293.554626 
L 239.417395 291.908714 
L 239.960287 295.067318 
L 240.503221 303.933707 
L 241.046113 291.957046 
L 241.589005 283.43171 
L 242.131898 283.652916 
L 242.67479 292.241047 
L 243.217724 303.287126 
L 243.760616 297.413932 
L 244.303508 295.545347 
L 244.846401 297.265591 
L 245.932226 302.108718 
L 246.475119 303.481622 
L 247.018011 303.824044 
L 248.103796 303.162687 
L 249.732514 302.318592 
L 250.275406 301.994476 
L 250.818298 301.801439 
L 251.361232 301.987097 
L 251.904124 303.014051 
L 252.447016 302.544801 
L 252.989909 298.143939 
L 254.075735 286.72096 
L 254.618627 285.312608 
L 255.161519 290.793095 
L 255.704412 302.965087 
L 256.790237 276.849047 
L 257.33313 271.917041 
L 257.876022 279.076285 
L 258.418914 295.464122 
L 258.961807 296.726876 
L 259.50474 289.319364 
L 260.047632 290.33723 
L 261.133417 299.700381 
L 261.676309 302.660368 
L 262.219243 303.891981 
L 262.762135 303.219733 
L 264.933746 301.862748 
L 266.562423 300.251954 
L 267.105315 300.578758 
L 267.648248 302.46156 
L 268.191141 301.259271 
L 269.276925 286.978972 
L 269.819818 283.597984 
L 270.362751 287.867932 
L 270.905643 297.874857 
L 271.448536 301.133906 
L 271.991428 297.934372 
L 272.53432 300.128888 
L 273.077254 303.866411 
L 273.620146 303.983512 
L 274.163038 296.18817 
L 275.248823 265.04352 
L 275.791757 267.434356 
L 276.334649 292.340041 
L 276.877541 286.817164 
L 277.420434 274.854939 
L 277.963326 280.446458 
L 278.506259 291.616531 
L 279.049152 300.121205 
L 279.592044 303.551708 
L 280.134936 301.905556 
L 280.677829 301.411253 
L 281.220762 301.129338 
L 281.763654 300.652276 
L 282.849439 299.030445 
L 283.392331 298.628007 
L 283.935265 299.888044 
L 284.478157 303.500993 
L 285.021049 294.025023 
L 285.563942 281.512103 
L 286.106834 273.183109 
L 286.649768 277.740391 
L 287.19266 294.392402 
L 287.735552 296.997974 
L 288.278445 289.471052 
L 288.821337 289.099039 
L 289.36427 289.752503 
L 289.907163 287.144193 
L 290.450055 282.367876 
L 290.992947 281.858844 
L 291.53584 290.546471 
L 292.078773 302.811547 
L 292.621665 291.202498 
L 293.164558 288.000325 
L 293.70745 291.304988 
L 294.250342 296.494747 
L 294.793276 300.592985 
L 295.336168 302.947058 
L 295.87906 303.989361 
L 296.421953 303.731601 
L 296.964845 303.672381 
L 298.593563 303.796642 
L 299.679348 303.600152 
L 300.222281 303.342574 
L 300.765174 302.892357 
L 301.308066 302.13537 
L 301.850958 300.971377 
L 302.393851 299.279955 
L 303.479676 294.991939 
L 304.022569 294.932411 
L 304.565461 301.047855 
L 305.108353 289.34339 
L 305.651287 261.020634 
L 306.194179 240.687352 
L 306.737071 255.834477 
L 307.279964 303.930349 
L 307.822856 256.977194 
L 308.36579 232.873412 
L 308.908682 238.786586 
L 309.994467 298.250496 
L 310.537359 276.237646 
L 311.080292 275.415352 
L 312.166077 296.171152 
L 312.708969 302.273988 
L 313.251862 303.181802 
L 313.794795 302.352907 
L 315.966364 301.863137 
L 316.509298 301.638626 
L 317.05219 301.628651 
L 317.595082 302.238112 
L 318.137975 304.006784 
L 318.680867 300.632604 
L 319.766693 290.418472 
L 320.309585 287.421676 
L 320.852478 288.968537 
L 321.39537 294.945331 
L 321.938303 302.868046 
L 322.481196 297.403416 
L 323.56698 281.64444 
L 324.109873 276.267627 
L 324.652806 279.151239 
L 325.195698 292.245636 
L 325.738591 299.423128 
L 326.281483 289.250014 
L 326.824375 288.400206 
L 328.453093 302.24047 
L 328.995986 303.706067 
L 329.538878 302.663427 
L 331.167596 301.122891 
L 331.710489 300.632299 
L 332.253381 300.407765 
L 332.796314 300.934557 
L 333.339207 302.982658 
L 333.882099 300.784787 
L 334.967884 288.394828 
L 335.510817 286.563284 
L 336.053709 291.637596 
L 336.596602 301.375204 
L 337.682386 294.537796 
L 338.22532 296.050712 
L 338.768212 300.401948 
L 339.311104 302.68373 
L 339.853997 298.392672 
L 340.396889 295.691488 
L 340.939823 296.196038 
L 341.482715 303.06242 
L 342.025607 289.160879 
L 342.5685 268.500448 
L 343.111392 258.749407 
L 343.654325 275.414959 
L 344.197218 298.574876 
L 344.74011 275.249365 
L 345.283002 274.737508 
L 346.368828 298.473156 
L 346.91172 302.528773 
L 347.454613 299.242772 
L 347.997505 297.998367 
L 348.540397 298.014073 
L 349.083331 299.718841 
L 349.626223 303.749291 
L 350.169115 295.3915 
L 350.712008 285.082212 
L 351.2549 278.760642 
L 351.797834 283.08415 
L 352.340726 297.169532 
L 352.883618 296.699961 
L 353.426511 290.472743 
L 353.969403 292.137057 
L 355.055229 302.737963 
L 355.598121 303.148074 
L 356.141013 303.200319 
L 356.683906 297.80673 
L 357.226839 290.555954 
L 357.769731 285.625295 
L 358.312624 287.638323 
L 358.855516 297.133515 
L 359.398408 299.357108 
L 359.941342 292.251122 
L 360.484234 291.599767 
L 362.112911 301.656818 
L 362.655845 303.305498 
L 363.198737 303.965607 
L 365.370347 302.422246 
L 365.91324 301.509576 
L 366.456132 300.136982 
L 367.541917 296.305319 
L 368.08485 295.464428 
L 368.627742 298.621751 
L 369.170635 297.968592 
L 370.256419 255.170824 
L 370.799353 255.26142 
L 371.342245 284.976287 
L 371.885137 288.725948 
L 372.42803 273.568475 
L 372.970922 271.351693 
L 374.056748 271.616179 
L 374.59964 277.063139 
L 375.142533 293.097146 
L 375.685425 295.39202 
L 376.228358 284.012365 
L 376.771251 284.3844 
L 377.857035 297.8464 
L 378.399928 302.302066 
L 378.942861 303.466576 
L 379.485753 302.439153 
L 380.571538 301.452419 
L 381.657364 300.705646 
L 382.200256 300.910874 
L 382.743148 302.296673 
L 383.286041 302.387568 
L 384.914759 286.221688 
L 385.457651 288.44863 
L 386.000544 296.950696 
L 386.543436 300.94229 
L 387.086369 294.372179 
L 387.629262 293.338046 
L 388.172154 296.238923 
L 389.257939 303.663979 
L 389.800872 301.689772 
L 391.429549 294.257321 
L 391.972441 293.55244 
L 392.515375 298.002482 
L 393.058267 295.654858 
L 394.144052 251.445997 
L 394.686944 259.942046 
L 395.229878 298.213208 
L 395.77277 275.015173 
L 396.315662 268.616903 
L 397.401447 297.802773 
L 397.94438 301.196717 
L 398.487273 298.959163 
L 398.487273 298.959163 
" clip-path="url(#p1598e80e71)" style="fill: none; stroke: #385989; stroke-width: 1.5; stroke-linecap: square"/>
   </g>
   <g id="line2d_40">
    <path d="M 73.832727 303.538688 
L 74.37564 303.997268 
L 76.54723 303.992097 
L 77.090143 303.756351 
L 78.175948 303.976035 
L 78.718841 303.303729 
L 79.261733 303.396514 
L 79.804646 303.845266 
L 80.890451 303.75452 
L 81.433343 303.983466 
L 85.233651 304.018594 
L 96.091662 303.958243 
L 98.806165 303.663828 
L 99.349057 304.021978 
L 99.89197 302.961535 
L 100.434863 301.388239 
L 100.977755 301.009082 
L 101.520668 303.885055 
L 102.06356 298.428764 
L 102.606473 296.167257 
L 103.149365 300.170625 
L 103.692258 302.779914 
L 104.23517 301.438715 
L 104.778063 302.635873 
L 105.320976 303.462032 
L 105.863868 303.51857 
L 106.40676 303.907497 
L 111.835766 303.975338 
L 112.378679 304.019005 
L 114.007376 303.88132 
L 114.550269 303.97205 
L 115.636074 303.612282 
L 116.178987 303.502103 
L 116.721879 303.598969 
L 117.264771 303.957483 
L 119.979274 303.977478 
L 122.150885 303.99373 
L 125.951192 303.958292 
L 126.494085 304.023249 
L 127.57989 303.870315 
L 128.122782 303.957988 
L 129.7515 303.594375 
L 130.294393 303.303307 
L 130.837285 303.392689 
L 131.92309 303.913682 
L 136.266291 303.999308 
L 142.238209 303.803069 
L 142.781101 303.765497 
L 143.324014 303.902247 
L 143.866907 303.775575 
L 144.409799 303.359385 
L 144.952712 303.169446 
L 145.495604 303.355552 
L 146.581409 304.010022 
L 147.124302 303.8677 
L 148.210107 303.91631 
L 149.295912 303.936508 
L 156.353615 303.986087 
L 156.896528 303.810985 
L 157.43942 303.479789 
L 157.982313 303.984377 
L 159.068118 303.755691 
L 160.153923 302.768652 
L 160.696815 303.811725 
L 161.239728 303.99177 
L 161.782621 303.782657 
L 162.868426 303.861371 
L 165.040036 304.010816 
L 169.383236 303.940108 
L 169.926129 303.903106 
L 170.469042 303.989508 
L 172.097739 303.92412 
L 173.183544 303.503539 
L 174.269329 303.746036 
L 174.812242 303.063586 
L 175.355134 302.57853 
L 175.898047 303.073831 
L 176.44094 303.785943 
L 176.983832 303.77428 
L 177.526745 303.64729 
L 179.698335 304.008228 
L 185.670253 303.984386 
L 189.470561 303.96644 
L 190.013453 303.717629 
L 190.556346 303.200397 
L 191.642151 303.716123 
L 192.185064 302.3538 
L 192.727956 302.216548 
L 193.270848 302.680921 
L 193.813761 303.933096 
L 194.356654 303.527558 
L 194.899566 303.551098 
L 196.528264 303.979309 
L 199.242767 304.009952 
L 203.043075 304.010177 
L 203.585967 303.552874 
L 204.128859 303.361569 
L 204.671752 303.880477 
L 205.214685 303.971115 
L 205.757577 303.818002 
L 206.843362 303.025411 
L 207.386254 303.12032 
L 207.929188 303.670682 
L 208.47208 302.167092 
L 209.014973 301.569323 
L 209.557865 302.646511 
L 210.100757 304.005251 
L 210.643691 303.253086 
L 211.186583 303.323993 
L 212.272368 303.838224 
L 213.358193 304.005817 
L 222.044594 303.850577 
L 223.673271 303.672423 
L 224.216204 303.934374 
L 224.759097 303.984591 
L 225.301989 303.28606 
L 225.844881 299.236489 
L 226.387774 299.364373 
L 226.930707 303.314885 
L 227.473599 298.34755 
L 228.016492 296.285477 
L 228.559384 300.606719 
L 229.102276 302.311223 
L 229.64521 300.768794 
L 230.188102 301.711384 
L 230.730995 303.017095 
L 231.273887 303.774713 
L 231.816779 303.964302 
L 232.902605 303.919126 
L 235.074215 304.010249 
L 235.617108 303.980622 
L 236.16 303.631285 
L 236.702892 303.581161 
L 237.245785 304.003308 
L 239.960287 303.888555 
L 241.046113 303.18474 
L 241.589005 302.971284 
L 242.131898 303.330753 
L 242.67479 303.957128 
L 243.217724 303.530065 
L 243.760616 303.420499 
L 244.846401 303.921378 
L 245.389293 303.966983 
L 246.475119 303.932204 
L 247.018011 304.020018 
L 249.732514 303.965075 
L 254.075735 303.931279 
L 254.618627 303.701423 
L 255.161519 302.971436 
L 255.704412 301.891898 
L 256.247304 301.227507 
L 256.790237 301.979957 
L 257.33313 303.148021 
L 257.876022 299.831989 
L 258.418914 298.05769 
L 259.50474 303.982304 
L 260.047632 301.808761 
L 260.590525 301.871129 
L 261.676309 303.41117 
L 262.219243 303.863056 
L 263.305027 303.961583 
L 264.390812 303.924285 
L 264.933746 304.010285 
L 266.01953 303.925164 
L 266.562423 304.006758 
L 267.648248 303.803587 
L 268.191141 303.8034 
L 269.276925 303.475401 
L 270.362751 302.637778 
L 270.905643 301.958612 
L 271.991428 300.160892 
L 272.53432 299.729912 
L 273.077254 301.149037 
L 273.620146 301.260527 
L 274.163038 288.744998 
L 274.705931 271.14753 
L 275.248823 260.645984 
L 275.791757 277.620101 
L 276.334649 282.708808 
L 276.877541 237.344154 
L 277.420434 236.247483 
L 277.963326 278.199996 
L 278.506259 287.205166 
L 279.049152 273.621659 
L 279.592044 281.335935 
L 280.134936 292.967001 
L 280.677829 300.98952 
L 281.220762 303.671092 
L 281.763654 302.731486 
L 282.306547 302.86895 
L 283.935265 303.569568 
L 285.021049 303.565744 
L 285.563942 303.437094 
L 286.649768 302.899481 
L 287.19266 302.571936 
L 287.735552 302.422662 
L 288.278445 302.851841 
L 288.821337 303.661264 
L 289.36427 300.371784 
L 289.907163 296.291411 
L 290.450055 293.280061 
L 290.992947 296.423581 
L 291.53584 302.731749 
L 292.078773 293.289926 
L 292.621665 290.741915 
L 293.164558 295.404605 
L 293.70745 301.940934 
L 294.250342 302.037583 
L 294.793276 300.889185 
L 295.336168 301.402001 
L 296.421953 303.063534 
L 296.964845 303.486028 
L 297.507779 303.721092 
L 298.593563 303.803659 
L 299.679348 303.666222 
L 300.222281 303.5658 
L 301.850958 302.839574 
L 302.936784 301.911936 
L 303.479676 301.735517 
L 304.022569 302.298831 
L 304.565461 303.572877 
L 305.108353 298.720506 
L 306.194179 281.008762 
L 306.737071 276.266601 
L 307.279964 285.052782 
L 307.822856 297.491056 
L 308.36579 266.08875 
L 308.908682 250.796194 
L 309.451574 266.082623 
L 309.994467 299.587952 
L 310.537359 283.8188 
L 311.080292 279.625681 
L 312.708969 302.248938 
L 313.251862 303.561191 
L 313.794795 302.986057 
L 314.337687 303.110764 
L 315.423472 303.626992 
L 316.509298 303.903363 
L 318.137975 303.981362 
L 319.223801 303.804758 
L 319.766693 303.603365 
L 320.309585 303.209874 
L 321.938303 301.52769 
L 322.481196 302.108403 
L 323.024088 303.560975 
L 323.56698 296.57566 
L 324.109873 292.429964 
L 324.652806 294.92894 
L 325.195698 304.025505 
L 325.738591 294.970626 
L 326.281483 294.164739 
L 327.367309 303.264678 
L 327.910201 302.621558 
L 328.453093 302.347373 
L 330.081812 303.574075 
L 330.624704 303.896888 
L 331.167596 303.880014 
L 331.710489 303.982837 
L 332.253381 303.853056 
L 332.796314 303.936827 
L 333.339207 303.759177 
L 333.882099 303.908022 
L 334.424991 303.631112 
L 336.596602 301.127836 
L 337.139494 300.25176 
L 337.682386 299.873077 
L 338.22532 300.931323 
L 338.768212 302.921374 
L 339.311104 293.606773 
L 340.396889 266.856178 
L 340.939823 267.379348 
L 341.482715 289.02307 
L 342.025607 282.330266 
L 342.5685 249.078365 
L 343.111392 239.206081 
L 343.654325 262.723312 
L 344.197218 303.661584 
L 344.74011 276.451729 
L 345.283002 273.667079 
L 346.368828 295.8618 
L 346.91172 302.26301 
L 347.454613 303.239198 
L 347.997505 302.732996 
L 349.083331 303.372086 
L 350.169115 303.983843 
L 351.2549 303.686399 
L 353.969403 302.686634 
L 354.512336 302.943176 
L 355.055229 303.773544 
L 355.598121 300.047105 
L 356.141013 295.042028 
L 357.226839 282.845641 
L 357.769731 286.087633 
L 358.312624 302.762843 
L 358.855516 273.347779 
L 359.398408 254.835283 
L 359.941342 268.018637 
L 360.484234 301.519221 
L 361.027126 282.854118 
L 361.570019 280.440912 
L 362.655845 298.464745 
L 363.198737 303.37499 
L 363.741629 302.838438 
L 364.284522 302.702543 
L 365.370347 303.253382 
L 365.91324 303.684372 
L 366.456132 303.468955 
L 366.999024 303.536607 
L 367.541917 303.995641 
L 369.170635 303.972523 
L 369.713527 303.818785 
L 370.256419 303.508293 
L 370.799353 302.935689 
L 371.885137 301.078448 
L 372.42803 300.600108 
L 372.970922 301.722289 
L 373.513856 302.140276 
L 374.056748 296.680244 
L 374.59964 293.920671 
L 375.685425 302.529276 
L 376.228358 297.684672 
L 376.771251 297.721969 
L 377.857035 303.040008 
L 378.399928 303.780678 
L 378.942861 303.366087 
L 380.028646 303.561923 
L 381.11443 303.778012 
L 382.200256 303.813744 
L 383.286041 303.673251 
L 384.371867 303.280777 
L 384.914759 302.932623 
L 385.457651 302.396612 
L 386.000544 301.702041 
L 387.086369 299.820883 
L 387.629262 298.606382 
L 388.172154 298.682345 
L 388.715046 302.358925 
L 389.257939 297.503076 
L 390.343764 272.088291 
L 390.886657 267.883723 
L 391.429549 279.465318 
L 391.972441 298.654029 
L 392.515375 291.73261 
L 394.144052 245.241186 
L 394.686944 258.423013 
L 395.229878 299.180775 
L 395.77277 272.736688 
L 396.315662 265.54812 
L 397.94438 302.058325 
L 398.487273 302.706789 
L 398.487273 302.706789 
" clip-path="url(#p1598e80e71)" style="fill: none; stroke: #d22027; stroke-width: 1.5; stroke-linecap: square"/>
   </g>
   <g id="patch_13">
    <path d="M 57.6 307.584 
L 57.6 229.315765 
" style="fill: none; stroke: #000000; stroke-width: 0.8; stroke-linejoin: miter; stroke-linecap: square"/>
   </g>
   <g id="patch_14">
    <path d="M 414.72 307.584 
L 414.72 229.315765 
" style="fill: none; stroke: #000000; stroke-width: 0.8; stroke-linejoin: miter; stroke-linecap: square"/>
   </g>
   <g id="patch_15">
    <path d="M 57.6 307.584 
L 414.72 307.584 
" style="fill: none; stroke: #000000; stroke-width: 0.8; stroke-linejoin: miter; stroke-linecap: square"/>
   </g>
   <g id="patch_16">
    <path d="M 57.6 229.315765 
L 414.72 229.315765 
" style="fill: none; stroke: #000000; stroke-width: 0.8; stroke-linejoin: miter; stroke-linecap: square"/>
   </g>
  </g>
 </g>
 <defs>
  <clipPath id="p7d5088b0b0">
   <rect x="57.6" y="41.472" width="357.12" height="78.268235"/>
  </clipPath>
  <clipPath id="p5a9b361683">
   <rect x="57.6" y="135.393882" width="357.12" height="78.268235"/>
  </clipPath>
  <clipPath id="p1598e80e71">
   <rect x="57.6" y="229.315765" width="357.12" height="78.268235"/>
  </clipPath>
 </defs>
</svg>
