<?xml version="1.0" encoding="utf-8" standalone="no"?>
<!DOCTYPE svg PUBLIC "-//W3C//DTD SVG 1.1//EN"
  "http://www.w3.org/Graphics/SVG/1.1/DTD/svg11.dtd">
<svg xmlns:xlink="http://www.w3.org/1999/xlink" width="460.8pt" height="345.6pt" viewBox="0 0 460.8 345.6" xmlns="http://www.w3.org/2000/svg" version="1.1">
 <metadata>
  <rdf:RDF xmlns:dc="http://purl.org/dc/elements/1.1/" xmlns:cc="http://creativecommons.org/ns#" xmlns:rdf="http://www.w3.org/1999/02/22-rdf-syntax-ns#">
   <cc:Work>
    <dc:type rdf:resource="http://purl.org/dc/dcmitype/StillImage"/>
    <dc:date>2023-12-14T15:12:33.735454</dc:date>
    <dc:format>image/svg+xml</dc:format>
    <dc:creator>
     <cc:Agent>
      <dc:title>Matplotlib v3.7.3, https://matplotlib.org/</dc:title>
     </cc:Agent>
    </dc:creator>
   </cc:Work>
  </rdf:RDF>
 </metadata>
 <defs>
  <style type="text/css">*{stroke-linejoin: round; stroke-linecap: butt}</style>
 </defs>
 <g id="figure_1">
  <g id="patch_1">
   <path d="M 0 345.6 
L 460.8 345.6 
L 460.8 0 
L 0 0 
z
" style="fill: #ffffff"/>
  </g>
  <g id="axes_1">
   <g id="patch_2">
    <path d="M 57.6 119.740235 
L 414.72 119.740235 
L 414.72 41.472 
L 57.6 41.472 
z
" style="fill: #ffffff"/>
   </g>
   <g id="matplotlib.axis_1">
    <g id="xtick_1">
     <g id="line2d_1">
      <defs>
       <path id="mf07f895905" d="M 0 0 
L 0 3.5 
" style="stroke: #000000; stroke-width: 0.8"/>
      </defs>
      <g>
       <use xlink:href="#mf07f895905" x="57.6" y="119.740235" style="stroke: #000000; stroke-width: 0.8"/>
      </g>
     </g>
    </g>
    <g id="xtick_2">
     <g id="line2d_2">
      <g>
       <use xlink:href="#mf07f895905" x="105.216" y="119.740235" style="stroke: #000000; stroke-width: 0.8"/>
      </g>
     </g>
    </g>
    <g id="xtick_3">
     <g id="line2d_3">
      <g>
       <use xlink:href="#mf07f895905" x="152.832" y="119.740235" style="stroke: #000000; stroke-width: 0.8"/>
      </g>
     </g>
    </g>
    <g id="xtick_4">
     <g id="line2d_4">
      <g>
       <use xlink:href="#mf07f895905" x="200.448" y="119.740235" style="stroke: #000000; stroke-width: 0.8"/>
      </g>
     </g>
    </g>
    <g id="xtick_5">
     <g id="line2d_5">
      <g>
       <use xlink:href="#mf07f895905" x="248.064" y="119.740235" style="stroke: #000000; stroke-width: 0.8"/>
      </g>
     </g>
    </g>
    <g id="xtick_6">
     <g id="line2d_6">
      <g>
       <use xlink:href="#mf07f895905" x="295.68" y="119.740235" style="stroke: #000000; stroke-width: 0.8"/>
      </g>
     </g>
    </g>
    <g id="xtick_7">
     <g id="line2d_7">
      <g>
       <use xlink:href="#mf07f895905" x="343.296" y="119.740235" style="stroke: #000000; stroke-width: 0.8"/>
      </g>
     </g>
    </g>
    <g id="xtick_8">
     <g id="line2d_8">
      <g>
       <use xlink:href="#mf07f895905" x="390.912" y="119.740235" style="stroke: #000000; stroke-width: 0.8"/>
      </g>
     </g>
    </g>
    <g id="xtick_9">
     <g id="line2d_9">
      <g>
       <use xlink:href="#mf07f895905" x="414.72" y="119.740235" style="stroke: #000000; stroke-width: 0.8"/>
      </g>
     </g>
    </g>
   </g>
   <g id="matplotlib.axis_2">
    <g id="ytick_1">
     <g id="line2d_10">
      <defs>
       <path id="md9ee563589" d="M 0 0 
L -3.5 0 
" style="stroke: #000000; stroke-width: 0.8"/>
      </defs>
      <g>
       <use xlink:href="#md9ee563589" x="57.6" y="101.114726" style="stroke: #000000; stroke-width: 0.8"/>
      </g>
     </g>
     <g id="text_1">
      <!-- −10 -->
      <g transform="translate(29.495313 104.913944) scale(0.1 -0.1)">
       <defs>
        <path id="DejaVuSans-2212" d="M 678 2272 
L 4684 2272 
L 4684 1741 
L 678 1741 
L 678 2272 
z
" transform="scale(0.015625)"/>
        <path id="DejaVuSans-31" d="M 794 531 
L 1825 531 
L 1825 4091 
L 703 3866 
L 703 4441 
L 1819 4666 
L 2450 4666 
L 2450 531 
L 3481 531 
L 3481 0 
L 794 0 
L 794 531 
z
" transform="scale(0.015625)"/>
        <path id="DejaVuSans-30" d="M 2034 4250 
Q 1547 4250 1301 3770 
Q 1056 3291 1056 2328 
Q 1056 1369 1301 889 
Q 1547 409 2034 409 
Q 2525 409 2770 889 
Q 3016 1369 3016 2328 
Q 3016 3291 2770 3770 
Q 2525 4250 2034 4250 
z
M 2034 4750 
Q 2819 4750 3233 4129 
Q 3647 3509 3647 2328 
Q 3647 1150 3233 529 
Q 2819 -91 2034 -91 
Q 1250 -91 836 529 
Q 422 1150 422 2328 
Q 422 3509 836 4129 
Q 1250 4750 2034 4750 
z
" transform="scale(0.015625)"/>
       </defs>
       <use xlink:href="#DejaVuSans-2212"/>
       <use xlink:href="#DejaVuSans-31" x="83.789062"/>
       <use xlink:href="#DejaVuSans-30" x="147.412109"/>
      </g>
     </g>
    </g>
    <g id="ytick_2">
     <g id="line2d_11">
      <g>
       <use xlink:href="#md9ee563589" x="57.6" y="80.00448" style="stroke: #000000; stroke-width: 0.8"/>
      </g>
     </g>
     <g id="text_2">
      <!-- 0 -->
      <g transform="translate(44.2375 83.803699) scale(0.1 -0.1)">
       <use xlink:href="#DejaVuSans-30"/>
      </g>
     </g>
    </g>
    <g id="ytick_3">
     <g id="line2d_12">
      <g>
       <use xlink:href="#md9ee563589" x="57.6" y="58.894234" style="stroke: #000000; stroke-width: 0.8"/>
      </g>
     </g>
     <g id="text_3">
      <!-- 10 -->
      <g transform="translate(37.875 62.693453) scale(0.1 -0.1)">
       <use xlink:href="#DejaVuSans-31"/>
       <use xlink:href="#DejaVuSans-30" x="63.623047"/>
      </g>
     </g>
    </g>
   </g>
   <g id="line2d_13">
    <path d="M 57.6 86.017653 
L 58.7904 88.077652 
L 59.9808 91.281682 
L 61.1712 95.938907 
L 63.552 108.164007 
L 64.7424 111.114371 
L 65.9328 107.994484 
L 68.3136 92.587478 
L 69.504 86.889821 
L 70.6944 83.490556 
L 71.8848 81.71144 
L 73.0752 80.876586 
L 74.2656 80.53943 
L 75.456 80.459329 
L 76.6464 80.529857 
L 77.8368 80.724736 
L 79.0272 81.071295 
L 80.2176 81.647112 
L 81.408 82.596453 
L 82.5984 84.167563 
L 83.7888 86.772556 
L 84.9792 91.049134 
L 86.1696 97.777346 
L 88.5504 115.722914 
L 89.7408 116.182588 
L 90.9312 106.00585 
L 92.1216 92.969116 
L 93.312 83.185931 
L 94.5024 77.247826 
L 95.6928 73.739329 
L 99.264 66.210379 
L 100.4544 62.861724 
L 101.6448 59.144911 
L 102.8352 55.935702 
L 104.0256 54.605451 
L 105.216 56.060724 
L 106.4064 59.728614 
L 107.5968 63.994964 
L 108.7872 67.501781 
L 109.9776 69.696519 
L 111.168 70.575931 
L 112.3584 70.301518 
L 113.5488 68.989151 
L 114.7392 66.670433 
L 115.9296 63.388535 
L 118.3104 55.744379 
L 119.5008 53.865938 
L 120.6912 55.078929 
L 121.8816 58.975665 
L 123.072 63.738968 
L 124.2624 67.739655 
L 125.4528 70.312279 
L 126.6432 71.468327 
L 127.8336 71.421638 
L 129.024 70.325553 
L 130.2144 68.206809 
L 131.4048 65.030172 
L 133.7856 56.498981 
L 134.976 53.371443 
L 136.1664 53.405164 
L 137.3568 56.967157 
L 139.7376 67.156538 
L 140.928 70.544083 
L 142.1184 72.342619 
L 143.3088 72.82541 
L 144.4992 72.237892 
L 145.6896 70.66463 
L 146.88 68.038461 
L 148.0704 64.252966 
L 150.4512 54.599945 
L 151.6416 51.81191 
L 152.832 53.16147 
L 154.0224 58.240916 
L 155.2128 64.402313 
L 156.4032 69.424541 
L 157.5936 72.610457 
L 158.784 74.173792 
L 159.9744 74.521665 
L 161.1648 73.927453 
L 162.3552 72.45605 
L 163.5456 69.984763 
L 164.736 66.279411 
L 165.9264 61.216462 
L 167.1168 55.359864 
L 168.3072 50.798039 
L 169.4976 50.636701 
L 170.688 55.690388 
L 171.8784 63.036066 
L 173.0688 69.43533 
L 174.2592 73.689478 
L 175.4496 76.028941 
L 176.64 77.051909 
L 177.8304 77.23161 
L 179.0208 76.81225 
L 180.2112 75.833842 
L 181.4016 74.164312 
L 182.592 71.509534 
L 183.7824 67.434751 
L 184.9728 61.544589 
L 186.1632 54.204882 
L 187.3536 48.03616 
L 188.544 47.77717 
L 189.7344 54.789629 
L 190.9248 64.455424 
L 192.1152 72.336708 
L 193.3056 77.357601 
L 194.496 80.229894 
L 195.6864 81.927807 
L 198.0672 84.535751 
L 199.2576 86.345901 
L 200.448 89.012555 
L 201.6384 92.960808 
L 202.8288 98.503496 
L 204.0192 105.210351 
L 205.2096 110.72646 
L 206.4 111.060379 
L 207.5904 105.013405 
L 208.7808 96.362492 
L 209.9712 89.064449 
L 211.1616 84.318907 
L 212.352 81.645695 
L 213.5424 80.229758 
L 214.7328 79.436554 
L 217.1136 78.262787 
L 218.304 77.436751 
L 219.4944 76.173769 
L 220.6848 74.175547 
L 221.8752 70.998402 
L 223.0656 66.049881 
L 224.256 58.882827 
L 225.4464 50.420507 
L 226.6368 45.029647 
L 227.8272 48.291112 
L 230.208 69.293742 
L 231.3984 76.776355 
L 232.5888 81.241285 
L 233.7792 83.909398 
L 236.16 87.861086 
L 237.3504 90.421416 
L 238.5408 93.920928 
L 239.7312 98.496973 
L 240.9216 103.650337 
L 242.112 107.682846 
L 243.3024 108.133065 
L 244.4928 104.18407 
L 246.8736 92.200133 
L 248.064 88.212397 
L 249.2544 86.013465 
L 250.4448 85.187831 
L 251.6352 85.373067 
L 252.8256 86.409127 
L 254.016 88.342721 
L 255.2064 91.383358 
L 256.3968 95.78474 
L 258.7776 107.299883 
L 259.968 110.316084 
L 261.1584 107.843447 
L 263.5392 93.595491 
L 264.7296 88.014355 
L 265.92 84.632796 
L 267.1104 82.905995 
L 268.3008 82.227335 
L 269.4912 82.199563 
L 270.6816 82.646309 
L 271.872 83.566885 
L 273.0624 85.10939 
L 274.2528 87.574312 
L 275.4432 91.420074 
L 276.6336 97.148741 
L 279.0144 111.876863 
L 280.2048 113.590553 
L 281.3952 107.113012 
L 282.5856 96.818651 
L 283.776 88.030362 
L 284.9664 82.32331 
L 286.1568 79.008966 
L 287.3472 76.995616 
L 289.728 73.708526 
L 290.9184 71.388598 
L 292.1088 68.060777 
L 293.2992 63.410983 
L 295.68 52.007423 
L 296.8704 49.756777 
L 298.0608 53.080628 
L 300.4416 67.396086 
L 301.632 72.595466 
L 302.8224 75.660308 
L 304.0128 77.174445 
L 305.2032 77.713028 
L 306.3936 77.631081 
L 307.584 77.068246 
L 308.7744 75.99207 
L 309.9648 74.218658 
L 311.1552 71.40688 
L 312.3456 67.071762 
L 313.536 60.791099 
L 314.7264 53.059354 
L 315.9168 46.981691 
L 317.1072 47.687776 
L 318.2976 55.818549 
L 319.488 65.941137 
L 320.6784 73.772902 
L 321.8688 78.634177 
L 323.0592 81.434315 
L 324.2496 83.204619 
L 325.44 84.704469 
L 326.6304 86.464051 
L 327.8208 88.91148 
L 329.0112 92.449481 
L 330.2016 97.373356 
L 331.392 103.42274 
L 332.5824 108.869029 
L 333.7728 110.39207 
L 334.9632 106.142603 
L 337.344 91.449939 
L 338.5344 86.510425 
L 339.7248 83.671776 
L 340.9152 82.283585 
L 342.1056 81.772227 
L 343.296 81.794489 
L 344.4864 82.210258 
L 345.6768 83.032366 
L 346.8672 84.404008 
L 348.0576 86.609509 
L 349.248 90.098618 
L 350.4384 95.43653 
L 352.8192 110.885735 
L 354.0096 114.595538 
L 355.2 109.599528 
L 357.5808 89.272608 
L 358.7712 82.663466 
L 359.9616 78.773269 
L 361.152 76.424169 
L 363.5328 72.740686 
L 364.7232 70.238588 
L 365.9136 66.743469 
L 367.104 62.050385 
L 368.2944 56.552672 
L 369.4848 51.940609 
L 370.6752 50.994621 
L 371.8656 54.958357 
L 374.2464 67.938641 
L 375.4368 72.32934 
L 376.6272 74.808823 
L 377.8176 75.871214 
L 379.008 75.957477 
L 380.1984 75.294125 
L 381.3888 73.891556 
L 382.5792 71.573334 
L 383.7696 68.017822 
L 384.96 62.904045 
L 387.3408 50.378279 
L 388.5312 48.560979 
L 389.7216 53.237636 
L 392.1024 69.325455 
L 393.2928 74.612674 
L 394.4832 77.668061 
L 395.6736 79.279862 
L 396.864 80.124467 
L 400.4352 81.625082 
L 401.6256 82.426354 
L 402.816 83.686386 
L 404.0064 85.709491 
L 405.1968 88.96285 
L 406.3872 94.082361 
L 407.5776 101.557347 
L 408.768 110.373422 
L 409.9584 115.72294 
L 411.1488 111.735994 
L 413.5296 89.671625 
L 414.72 82.157545 
L 414.72 82.157545 
" clip-path="url(#paaaadcb631)" style="fill: none; stroke: #0000cc; stroke-width: 1.5; stroke-linecap: square"/>
   </g>
   <g id="line2d_14">
    <path d="M 57.6 86.017639 
L 58.790405 88.077607 
L 59.980809 91.281617 
L 61.171191 95.93873 
L 63.552 108.16382 
L 64.742405 111.11424 
L 65.932809 107.994449 
L 68.313595 92.587732 
L 69.504 86.890078 
L 70.694405 83.490845 
L 71.884809 81.711757 
L 73.075191 80.876988 
L 74.265595 80.539941 
L 75.456 80.46002 
L 76.646405 80.530808 
L 77.836809 80.726129 
L 79.027191 81.0734 
L 80.217595 81.650355 
L 81.408 82.601599 
L 82.598405 84.17576 
L 83.788809 86.785737 
L 84.979191 91.069844 
L 86.169595 97.807913 
L 88.550405 115.742674 
L 89.740809 116.159525 
L 90.931191 105.956772 
L 92.121595 92.926888 
L 93.312 83.160279 
L 94.502405 77.234643 
L 95.692809 73.732685 
L 99.264 66.20334 
L 100.454405 62.852016 
L 101.644809 59.133552 
L 102.835191 55.926034 
L 104.025595 54.60216 
L 105.216 56.066244 
L 106.406405 59.740319 
L 107.596809 64.008102 
L 108.787191 67.512915 
L 109.977595 69.704513 
L 111.168 70.580759 
L 112.358405 70.303525 
L 113.548809 68.98849 
L 114.739191 66.66701 
L 115.929595 63.382128 
L 118.310405 55.735608 
L 119.500809 53.861352 
L 120.691191 55.081494 
L 121.881595 58.984268 
L 123.072 63.749814 
L 124.262405 67.749637 
L 125.452809 70.320161 
L 126.643191 71.474057 
L 127.833595 71.425572 
L 129.024 70.327803 
L 130.214405 68.207521 
L 131.404809 65.028919 
L 133.785595 56.493466 
L 134.976 53.365816 
L 136.166405 53.40258 
L 137.356809 56.969309 
L 139.737595 67.163499 
L 140.928 70.551001 
L 142.118405 72.349065 
L 143.308809 72.831502 
L 144.499191 72.243978 
L 145.689595 70.670966 
L 146.88 68.045049 
L 148.070405 64.259355 
L 150.451191 54.600904 
L 151.641595 51.807179 
L 152.832 53.154635 
L 154.022405 58.234244 
L 155.212809 64.399748 
L 156.403191 69.426002 
L 157.593595 72.614943 
L 158.784 74.180527 
L 159.974405 74.530426 
L 161.164809 73.938564 
L 162.355191 72.47039 
L 163.545595 70.003321 
L 164.736 66.302754 
L 165.926405 61.242997 
L 167.116809 55.382466 
L 168.307191 50.803349 
L 169.497595 50.61672 
L 170.688 55.656263 
L 171.878405 63.006337 
L 173.068809 69.418393 
L 174.259191 73.684529 
L 175.449595 76.032837 
L 176.64 77.06225 
L 177.830405 77.24778 
L 179.020809 76.835262 
L 180.211191 75.866381 
L 181.401595 74.211019 
L 182.592 71.576997 
L 183.782405 67.530279 
L 184.972809 61.669119 
L 186.163191 54.332533 
L 187.353595 48.091686 
L 188.544 47.693027 
L 189.734405 54.617629 
L 190.924809 64.299662 
L 192.115191 72.239965 
L 193.305595 77.312804 
L 194.496 80.217905 
L 195.686405 81.933712 
L 198.067191 84.556679 
L 199.257595 86.371091 
L 200.448 89.0415 
L 201.638382 92.991893 
L 202.828809 98.531504 
L 204.019191 105.222504 
L 205.209618 110.707539 
L 206.4 111.014392 
L 207.590382 104.971544 
L 208.780809 96.34729 
L 209.971191 89.076017 
L 211.161618 84.348799 
L 212.352 81.688308 
L 213.542382 80.283913 
L 214.732809 79.50529 
L 217.113618 78.387004 
L 218.304 77.614076 
L 219.494382 76.434684 
L 220.684809 74.567198 
L 221.875191 71.588745 
L 223.065618 66.914154 
L 224.256 60.019276 
L 225.446382 51.497528 
L 226.636809 45.213409 
L 227.827191 47.161485 
L 229.017618 57.036471 
L 230.208 68.074665 
L 231.398382 76.09428 
L 232.588809 80.937582 
L 233.779191 83.805035 
L 236.16 87.832494 
L 237.350382 90.341045 
L 238.540809 93.747106 
L 239.731191 98.20197 
L 240.921618 103.260182 
L 242.112 107.337484 
L 243.302382 108.046781 
L 244.492809 104.432558 
L 246.873618 92.669829 
L 248.064 88.623903 
L 249.254382 86.35977 
L 250.444809 85.493889 
L 251.635191 85.670147 
L 252.825618 86.725695 
L 254.016 88.70177 
L 255.206382 91.796464 
L 256.396809 96.232683 
L 258.777618 107.435841 
L 259.968 110.022598 
L 261.158382 107.24961 
L 263.539191 93.338349 
L 264.729618 88.03169 
L 265.92 84.852202 
L 267.110382 83.274189 
L 268.300809 82.733492 
L 269.491191 82.875225 
L 270.681618 83.565423 
L 271.872 84.854298 
L 273.062382 86.955668 
L 274.252809 90.241729 
L 275.443191 95.175921 
L 277.824 109.259787 
L 279.014382 113.146871 
L 280.204809 109.581331 
L 282.585618 91.327562 
L 283.776 84.838824 
L 284.966382 80.974767 
L 286.156809 78.771082 
L 289.728 74.5009 
L 290.918382 72.265432 
L 292.108809 68.94784 
L 293.299191 64.151244 
L 295.68 51.422252 
L 296.870382 48.364096 
L 298.060809 51.748162 
L 300.441618 67.901927 
L 301.632 73.74836 
L 302.822382 77.223909 
L 304.012809 79.086075 
L 305.203191 80.062163 
L 309.964809 82.496915 
L 311.155191 83.773739 
L 312.345618 85.8159 
L 313.536 89.087947 
L 314.726382 94.21522 
L 315.916809 101.658529 
L 317.107191 110.358281 
L 318.297618 115.53413 
L 319.488 111.434274 
L 321.868809 89.729618 
L 323.059191 82.329586 
L 324.249618 77.945115 
L 325.44 75.282136 
L 327.820809 71.093217 
L 329.011191 68.318382 
L 330.201618 64.608984 
L 332.582382 55.268022 
L 333.772809 52.338679 
L 334.963191 53.214148 
L 336.153618 57.776253 
L 337.344 63.663038 
L 338.534382 68.648372 
L 339.724809 71.899388 
L 340.915191 73.528831 
L 342.105618 73.901722 
L 343.296 73.281402 
L 344.486382 71.736045 
L 345.676809 69.157097 
L 346.867191 65.353294 
L 349.248 54.796736 
L 350.438382 51.012687 
L 351.628809 51.675832 
L 352.819191 56.93745 
L 354.009618 63.858613 
L 355.2 69.661357 
L 356.390382 73.427552 
L 357.580809 75.414506 
L 358.771191 76.147502 
L 359.961618 76.013219 
L 361.152 75.173507 
L 362.342382 73.583259 
L 363.532809 71.0194 
L 364.723191 67.128923 
L 365.913618 61.621177 
L 367.104 54.912926 
L 368.294382 49.323281 
L 369.484809 48.860844 
L 370.675191 54.830273 
L 371.865618 63.499679 
L 373.056 70.857466 
L 374.246382 75.657245 
L 375.436809 78.367316 
L 376.627191 79.806918 
L 377.817618 80.618211 
L 380.198382 81.836062 
L 381.388809 82.699832 
L 382.579191 84.021198 
L 383.769618 86.109609 
L 384.96 89.421529 
L 386.150382 94.549738 
L 387.340809 101.876366 
L 388.531191 110.239092 
L 389.721618 114.978013 
L 390.912 110.814159 
L 393.292809 89.962041 
L 394.483191 82.842714 
L 395.673618 78.623203 
L 396.864 76.083719 
L 399.244809 72.189946 
L 400.435191 69.604962 
L 401.625618 66.052652 
L 402.816 61.396971 
L 404.006382 56.157943 
L 405.196809 52.09941 
L 406.387191 51.752986 
L 407.577618 55.890653 
L 409.958382 68.080591 
L 411.148809 72.072459 
L 412.339191 74.262477 
L 413.529618 75.090341 
L 414.72 74.928556 
L 414.72 74.928556 
" clip-path="url(#paaaadcb631)" style="fill: none; stroke-dasharray: 9.6,2.4,1.5,2.4; stroke-dashoffset: 0; stroke: #ff0000; stroke-width: 1.5"/>
   </g>
   <g id="patch_3">
    <path d="M 57.6 119.740235 
L 57.6 41.472 
" style="fill: none; stroke: #000000; stroke-width: 0.8; stroke-linejoin: miter; stroke-linecap: square"/>
   </g>
   <g id="patch_4">
    <path d="M 414.72 119.740235 
L 414.72 41.472 
" style="fill: none; stroke: #000000; stroke-width: 0.8; stroke-linejoin: miter; stroke-linecap: square"/>
   </g>
   <g id="patch_5">
    <path d="M 57.6 119.740235 
L 414.72 119.740235 
" style="fill: none; stroke: #000000; stroke-width: 0.8; stroke-linejoin: miter; stroke-linecap: square"/>
   </g>
   <g id="patch_6">
    <path d="M 57.6 41.472 
L 414.72 41.472 
" style="fill: none; stroke: #000000; stroke-width: 0.8; stroke-linejoin: miter; stroke-linecap: square"/>
   </g>
  </g>
  <g id="axes_2">
   <g id="patch_7">
    <path d="M 57.6 213.662118 
L 414.72 213.662118 
L 414.72 135.393882 
L 57.6 135.393882 
z
" style="fill: #ffffff"/>
   </g>
   <g id="matplotlib.axis_3">
    <g id="xtick_10">
     <g id="line2d_15">
      <g>
       <use xlink:href="#mf07f895905" x="57.6" y="213.662118" style="stroke: #000000; stroke-width: 0.8"/>
      </g>
     </g>
    </g>
    <g id="xtick_11">
     <g id="line2d_16">
      <g>
       <use xlink:href="#mf07f895905" x="105.216" y="213.662118" style="stroke: #000000; stroke-width: 0.8"/>
      </g>
     </g>
    </g>
    <g id="xtick_12">
     <g id="line2d_17">
      <g>
       <use xlink:href="#mf07f895905" x="152.832" y="213.662118" style="stroke: #000000; stroke-width: 0.8"/>
      </g>
     </g>
    </g>
    <g id="xtick_13">
     <g id="line2d_18">
      <g>
       <use xlink:href="#mf07f895905" x="200.448" y="213.662118" style="stroke: #000000; stroke-width: 0.8"/>
      </g>
     </g>
    </g>
    <g id="xtick_14">
     <g id="line2d_19">
      <g>
       <use xlink:href="#mf07f895905" x="248.064" y="213.662118" style="stroke: #000000; stroke-width: 0.8"/>
      </g>
     </g>
    </g>
    <g id="xtick_15">
     <g id="line2d_20">
      <g>
       <use xlink:href="#mf07f895905" x="295.68" y="213.662118" style="stroke: #000000; stroke-width: 0.8"/>
      </g>
     </g>
    </g>
    <g id="xtick_16">
     <g id="line2d_21">
      <g>
       <use xlink:href="#mf07f895905" x="343.296" y="213.662118" style="stroke: #000000; stroke-width: 0.8"/>
      </g>
     </g>
    </g>
    <g id="xtick_17">
     <g id="line2d_22">
      <g>
       <use xlink:href="#mf07f895905" x="390.912" y="213.662118" style="stroke: #000000; stroke-width: 0.8"/>
      </g>
     </g>
    </g>
    <g id="xtick_18">
     <g id="line2d_23">
      <g>
       <use xlink:href="#mf07f895905" x="414.72" y="213.662118" style="stroke: #000000; stroke-width: 0.8"/>
      </g>
     </g>
    </g>
   </g>
   <g id="matplotlib.axis_4">
    <g id="ytick_4">
     <g id="line2d_24">
      <g>
       <use xlink:href="#md9ee563589" x="57.6" y="206.033377" style="stroke: #000000; stroke-width: 0.8"/>
      </g>
     </g>
     <g id="text_4">
      <!-- −20 -->
      <g transform="translate(29.495313 209.832596) scale(0.1 -0.1)">
       <defs>
        <path id="DejaVuSans-32" d="M 1228 531 
L 3431 531 
L 3431 0 
L 469 0 
L 469 531 
Q 828 903 1448 1529 
Q 2069 2156 2228 2338 
Q 2531 2678 2651 2914 
Q 2772 3150 2772 3378 
Q 2772 3750 2511 3984 
Q 2250 4219 1831 4219 
Q 1534 4219 1204 4116 
Q 875 4013 500 3803 
L 500 4441 
Q 881 4594 1212 4672 
Q 1544 4750 1819 4750 
Q 2544 4750 2975 4387 
Q 3406 4025 3406 3419 
Q 3406 3131 3298 2873 
Q 3191 2616 2906 2266 
Q 2828 2175 2409 1742 
Q 1991 1309 1228 531 
z
" transform="scale(0.015625)"/>
       </defs>
       <use xlink:href="#DejaVuSans-2212"/>
       <use xlink:href="#DejaVuSans-32" x="83.789062"/>
       <use xlink:href="#DejaVuSans-30" x="147.412109"/>
      </g>
     </g>
    </g>
    <g id="ytick_5">
     <g id="line2d_25">
      <g>
       <use xlink:href="#md9ee563589" x="57.6" y="173.771029" style="stroke: #000000; stroke-width: 0.8"/>
      </g>
     </g>
     <g id="text_5">
      <!-- 0 -->
      <g transform="translate(44.2375 177.570247) scale(0.1 -0.1)">
       <use xlink:href="#DejaVuSans-30"/>
      </g>
     </g>
    </g>
    <g id="ytick_6">
     <g id="line2d_26">
      <g>
       <use xlink:href="#md9ee563589" x="57.6" y="141.50868" style="stroke: #000000; stroke-width: 0.8"/>
      </g>
     </g>
     <g id="text_6">
      <!-- 20 -->
      <g transform="translate(37.875 145.307899) scale(0.1 -0.1)">
       <use xlink:href="#DejaVuSans-32"/>
       <use xlink:href="#DejaVuSans-30" x="63.623047"/>
      </g>
     </g>
    </g>
   </g>
   <g id="line2d_27">
    <path d="M 57.6 180.793129 
L 58.7904 183.879459 
L 59.9808 188.329656 
L 62.3616 200.519202 
L 63.552 203.275768 
L 64.7424 197.689488 
L 65.9328 185.962876 
L 67.1232 176.628143 
L 68.3136 172.790921 
L 69.504 172.21106 
L 73.0752 173.625736 
L 77.8368 174.722123 
L 79.0272 175.26413 
L 80.2176 176.144154 
L 81.408 177.597124 
L 82.5984 180.011975 
L 83.7888 184.008097 
L 84.9792 190.431217 
L 87.36 209.655597 
L 88.5504 210.104471 
L 89.7408 192.909567 
L 90.9312 173.524864 
L 92.1216 165.543901 
L 93.312 164.46206 
L 94.5024 164.847738 
L 95.6928 164.719121 
L 96.8832 163.627073 
L 98.0736 161.543041 
L 99.264 158.582193 
L 100.4544 155.139033 
L 101.6448 152.226998 
L 102.8352 151.550721 
L 104.0256 154.390601 
L 106.4064 164.776503 
L 107.5968 167.720065 
L 108.7872 168.622421 
L 109.9776 168.207305 
L 111.168 166.987586 
L 112.3584 165.126887 
L 113.5488 162.577887 
L 114.7392 159.275399 
L 117.12 151.884875 
L 118.3104 150.52858 
L 119.5008 153.131069 
L 121.8816 164.835835 
L 123.072 168.33357 
L 124.2624 169.477715 
L 125.4528 169.165657 
L 126.6432 168.04179 
L 127.8336 166.3167 
L 129.024 163.925797 
L 130.2144 160.715116 
L 132.5952 152.383168 
L 133.7856 149.540058 
L 134.976 150.667278 
L 136.1664 156.419058 
L 137.3568 163.564591 
L 138.5472 168.447448 
L 139.7376 170.390709 
L 140.928 170.453458 
L 142.1184 169.581496 
L 143.3088 168.161069 
L 144.4992 166.18579 
L 145.6896 163.456128 
L 146.88 159.744259 
L 149.2608 150.296275 
L 150.4512 147.860092 
L 151.6416 150.81644 
L 154.0224 166.47514 
L 155.2128 170.757131 
L 156.4032 171.974326 
L 157.5936 171.644773 
L 158.784 170.681373 
L 159.9744 169.349818 
L 161.1648 167.558516 
L 162.3552 165.041479 
L 163.5456 161.458011 
L 164.736 156.568556 
L 165.9264 150.770633 
L 167.1168 146.213987 
L 168.3072 147.132636 
L 169.4976 155.424762 
L 170.688 165.671737 
L 171.8784 171.890145 
L 173.0688 173.892861 
L 174.2592 173.838482 
L 176.64 172.342493 
L 177.8304 171.43497 
L 179.0208 170.27641 
L 180.2112 168.615028 
L 181.4016 166.099333 
L 182.592 162.260266 
L 183.7824 156.613857 
L 184.9728 149.262796 
L 186.1632 142.666928 
L 187.3536 143.261587 
L 188.544 154.898186 
L 189.7344 168.764408 
L 190.9248 175.971322 
L 192.1152 177.708131 
L 193.3056 177.519127 
L 194.496 177.210028 
L 195.6864 177.351733 
L 196.8768 178.092994 
L 198.0672 179.547183 
L 199.2576 181.933428 
L 200.448 185.599544 
L 201.6384 190.888702 
L 202.8288 197.557432 
L 204.0192 203.294859 
L 205.2096 202.68563 
L 206.4 192.684427 
L 207.5904 180.363576 
L 208.7808 173.427189 
L 209.9712 171.489932 
L 211.1616 171.608871 
L 212.352 172.094621 
L 213.5424 172.384 
L 214.7328 172.372025 
L 215.9232 172.055606 
L 217.1136 171.397275 
L 218.304 170.27441 
L 219.4944 168.443628 
L 220.6848 165.49719 
L 221.8752 160.84173 
L 223.0656 153.887872 
L 224.256 145.109236 
L 225.4464 138.951529 
L 226.6368 144.529541 
L 227.8272 161.540017 
L 229.0176 175.0338 
L 230.208 179.722623 
L 231.3984 180.156837 
L 232.5888 179.848277 
L 233.7792 180.056506 
L 234.9696 181.112754 
L 236.16 183.143436 
L 237.3504 186.285215 
L 238.5408 190.592438 
L 239.7312 195.592871 
L 240.9216 199.46478 
L 242.112 198.919299 
L 243.3024 192.384479 
L 244.4928 183.682023 
L 245.6832 177.778493 
L 246.8736 175.522727 
L 248.064 175.402474 
L 249.2544 176.164456 
L 250.4448 177.311202 
L 251.6352 178.819659 
L 252.8256 180.898507 
L 254.016 183.875111 
L 255.2064 188.100096 
L 257.5872 199.508085 
L 258.7776 202.291912 
L 259.968 197.669996 
L 261.1584 187.083854 
L 262.3488 178.011312 
L 263.5392 173.914562 
L 264.7296 173.127871 
L 265.92 173.575811 
L 269.4912 175.788893 
L 270.6816 176.815286 
L 271.872 178.319018 
L 273.0624 180.63689 
L 274.2528 184.243074 
L 275.4432 189.701792 
L 277.824 204.885125 
L 279.0144 206.372368 
L 280.2048 195.523346 
L 281.3952 179.969051 
L 282.5856 171.149483 
L 283.776 168.844196 
L 284.9664 168.9345 
L 286.1568 169.19716 
L 287.3472 168.913688 
L 288.5376 167.887658 
L 289.728 165.981284 
L 290.9184 162.97114 
L 292.1088 158.600577 
L 294.4896 147.322845 
L 295.68 145.497858 
L 296.8704 151.353987 
L 298.0608 162.12887 
L 299.2512 170.41779 
L 300.4416 173.825653 
L 301.632 174.312915 
L 302.8224 173.782478 
L 305.2032 172.308315 
L 306.3936 171.452953 
L 307.584 170.302668 
L 308.7744 168.593694 
L 309.9648 165.953886 
L 311.1552 161.875721 
L 312.3456 155.837012 
L 313.536 148.018 
L 314.7264 141.392432 
L 315.9168 143.27921 
L 318.2976 170.823103 
L 319.488 177.302809 
L 320.6784 178.567844 
L 323.0592 178.12478 
L 324.2496 178.557458 
L 325.44 179.73721 
L 326.6304 181.817364 
L 327.8208 185.051512 
L 329.0112 189.706088 
L 331.392 201.149025 
L 332.5824 202.057045 
L 333.7728 194.83303 
L 334.9632 183.652982 
L 336.1536 175.966263 
L 337.344 173.162138 
L 338.5344 172.942937 
L 340.9152 174.178474 
L 343.296 175.487715 
L 344.4864 176.382355 
L 345.6768 177.70792 
L 346.8672 179.773792 
L 348.0576 183.033414 
L 349.248 188.086086 
L 350.4384 195.375309 
L 351.6288 203.832352 
L 352.8192 207.953766 
L 354.0096 199.540028 
L 355.2 182.78524 
L 356.3904 171.595458 
L 357.5808 168.199708 
L 358.7712 168.06987 
L 359.9616 168.353483 
L 361.152 168.082321 
L 362.3424 166.998402 
L 363.5328 164.9685 
L 364.7232 161.81212 
L 365.9136 157.388901 
L 367.104 152.034398 
L 368.2944 147.488822 
L 369.4848 147.378803 
L 370.6752 154.050474 
L 371.8656 163.652097 
L 373.056 170.303416 
L 374.2464 172.851102 
L 375.4368 173.052111 
L 376.6272 172.372846 
L 377.8176 171.403323 
L 379.008 170.208833 
L 380.1984 168.615648 
L 381.3888 166.323163 
L 382.5792 162.934706 
L 383.7696 158.044526 
L 386.1504 145.417886 
L 387.3408 144.054979 
L 388.5312 151.989455 
L 389.7216 164.506297 
L 390.912 172.839603 
L 392.1024 175.676272 
L 393.2928 175.842007 
L 395.6736 174.953748 
L 396.864 174.816944 
L 398.0544 174.93593 
L 399.2448 175.309248 
L 400.4352 175.99444 
L 401.6256 177.135547 
L 402.816 178.997879 
L 404.0064 182.018932 
L 405.1968 186.839364 
L 406.3872 194.109091 
L 407.5776 203.328321 
L 408.768 209.584392 
L 409.9584 202.944435 
L 411.1488 184.654151 
L 412.3392 171.126142 
L 413.5296 166.8385 
L 414.72 166.590403 
L 414.72 166.590403 
" clip-path="url(#p9900ffcc76)" style="fill: none; stroke: #0000cc; stroke-width: 1.5; stroke-linecap: square"/>
   </g>
   <g id="line2d_28">
    <path d="M 57.6 180.793106 
L 58.790405 183.879445 
L 59.980809 188.329652 
L 62.361595 200.519121 
L 63.552 203.275763 
L 64.742405 197.689571 
L 65.932809 185.962971 
L 67.123191 176.628363 
L 68.313595 172.791099 
L 69.504 172.21125 
L 73.075191 173.626146 
L 77.836809 174.724078 
L 79.027191 175.267069 
L 80.217595 176.148893 
L 81.408 177.604699 
L 82.598405 180.024206 
L 83.788809 184.027674 
L 84.979191 190.460945 
L 87.36 209.680851 
L 88.550405 210.068712 
L 89.740809 192.826389 
L 90.931191 173.476808 
L 92.121595 165.535313 
L 93.312 164.466061 
L 94.502405 164.851879 
L 95.692809 164.720155 
L 96.883191 163.624564 
L 98.073595 161.536994 
L 99.264 158.572874 
L 100.454405 155.127785 
L 101.644809 152.217621 
L 102.835191 151.549372 
L 104.025595 154.400626 
L 106.406405 164.791268 
L 107.596809 167.729104 
L 108.787191 168.626575 
L 109.977595 168.208414 
L 111.168 166.98673 
L 112.358405 165.12426 
L 113.548809 162.573176 
L 114.739191 159.268279 
L 117.12 151.875747 
L 118.310405 150.52472 
L 119.500809 153.137056 
L 121.881595 164.848931 
L 123.072 168.342446 
L 124.262405 169.482662 
L 125.452809 169.168253 
L 126.643191 168.043141 
L 127.833595 166.317145 
L 129.024 163.925182 
L 130.214405 160.712952 
L 132.595191 152.376837 
L 133.785595 149.533624 
L 134.976 150.6651 
L 136.166405 156.423763 
L 137.356809 163.573143 
L 138.547191 168.455423 
L 139.737595 170.396774 
L 140.928 170.458141 
L 142.118405 169.585687 
L 143.308809 168.165406 
L 144.499191 166.190611 
L 145.689595 163.4614 
L 146.88 159.749511 
L 149.260809 150.295832 
L 150.451191 147.852796 
L 151.641595 150.804411 
L 154.022405 166.475051 
L 155.212809 170.761981 
L 156.403191 171.980921 
L 157.593595 171.652072 
L 158.784 170.689583 
L 159.974405 169.359728 
L 161.164809 167.571182 
L 162.355191 165.058093 
L 163.545595 161.479294 
L 164.736 156.593349 
L 165.926405 150.792102 
L 167.116809 146.215847 
L 168.307191 147.099951 
L 169.497595 155.374509 
L 170.688 165.639603 
L 171.878405 171.883812 
L 173.068809 173.900348 
L 174.259191 173.85075 
L 176.64 172.359291 
L 177.830405 171.45657 
L 179.020809 170.306029 
L 180.211191 168.657497 
L 181.401595 166.161182 
L 182.592 162.349288 
L 183.782405 156.733727 
L 186.163191 142.723736 
L 187.353595 143.122495 
L 188.544 154.626303 
L 189.734405 168.586214 
L 190.924809 175.928566 
L 192.115191 177.726075 
L 193.305595 177.549585 
L 194.496 177.237898 
L 195.686405 177.37568 
L 196.876809 178.115347 
L 198.067191 179.570344 
L 199.257595 181.958815 
L 200.448 185.626777 
L 201.638382 190.913179 
L 202.828809 197.566533 
L 204.019191 203.267175 
L 205.209618 202.618218 
L 206.4 192.628295 
L 207.590382 180.361681 
L 208.780809 173.460689 
L 209.971191 171.533258 
L 211.161618 171.654283 
L 212.352 172.144495 
L 213.542382 172.444332 
L 214.732809 172.451236 
L 215.923191 172.165664 
L 217.113618 171.556289 
L 218.304 170.510803 
L 219.494382 168.801794 
L 220.684809 166.042899 
L 221.875191 161.656872 
L 223.065618 155.006702 
L 224.256 146.269512 
L 225.446382 139.138303 
L 226.636809 142.664155 
L 227.827191 159.08768 
L 229.017618 173.926454 
L 230.208 179.632878 
L 231.398382 180.362902 
L 232.588809 180.045987 
L 233.779191 180.172437 
L 234.969618 181.139941 
L 236.16 183.078289 
L 237.350382 186.111214 
L 238.540809 190.289276 
L 239.731191 195.180381 
L 240.921618 199.094105 
L 242.112 198.890951 
L 243.302382 192.835309 
L 244.492809 184.314948 
L 245.683191 178.271391 
L 246.873618 175.830857 
L 248.064 175.609396 
L 249.254382 176.344686 
L 250.444809 177.507639 
L 251.635191 179.055821 
L 252.825618 181.18957 
L 254.016 184.227732 
L 255.206382 188.495784 
L 257.587191 199.591534 
L 258.777618 201.831235 
L 259.968 196.787159 
L 261.158382 186.441758 
L 262.348809 177.928977 
L 263.539191 174.175326 
L 264.729618 173.507281 
L 265.92 174.001422 
L 268.300809 175.611944 
L 269.491191 176.609266 
L 270.681618 177.970472 
L 271.872 179.992595 
L 273.062382 183.085823 
L 274.252809 187.760178 
L 275.443191 194.353384 
L 276.633618 201.931208 
L 277.824 206.038831 
L 279.014382 199.807223 
L 280.204809 185.359355 
L 281.395191 174.280349 
L 282.585618 170.216659 
L 283.776 169.764544 
L 284.966382 170.133968 
L 286.156809 170.242812 
L 287.347191 169.796519 
L 288.537618 168.689226 
L 289.728 166.761093 
L 290.918382 163.723817 
L 292.108809 159.206411 
L 294.489618 146.502966 
L 295.68 143.568423 
L 296.870382 149.556829 
L 298.060809 162.007942 
L 299.251191 171.657101 
L 300.441618 175.451931 
L 301.632 175.959495 
L 304.012809 175.082372 
L 305.203191 174.90812 
L 306.393618 175.005699 
L 307.584 175.372544 
L 308.774382 176.061661 
L 309.964809 177.213838 
L 311.155191 179.092058 
L 312.345618 182.130434 
L 313.536 186.959802 
L 314.726382 194.202879 
L 315.916809 203.303015 
L 317.107191 209.322068 
L 318.297618 202.578906 
L 319.488 184.533769 
L 320.678382 171.319047 
L 321.868809 167.104617 
L 323.059191 166.85287 
L 324.249618 167.137505 
L 325.44 166.802869 
L 326.630382 165.559399 
L 327.820809 163.300354 
L 329.011191 159.937663 
L 331.392 150.996611 
L 332.582382 148.417199 
L 333.772809 150.716246 
L 336.153618 165.479749 
L 337.344 169.985143 
L 338.534382 171.436858 
L 339.724809 171.218801 
L 340.915191 170.263576 
L 342.105618 168.875545 
L 343.296 166.986435 
L 344.486382 164.34674 
L 345.676809 160.650977 
L 346.867191 155.761166 
L 348.057618 150.297999 
L 349.248 146.653364 
L 350.438382 148.70217 
L 351.628809 157.127457 
L 352.819191 166.358538 
L 354.009618 171.625744 
L 355.2 173.205879 
L 356.390382 173.008887 
L 357.580809 172.216414 
L 358.771191 171.211301 
L 359.961618 169.963571 
L 361.152 168.258175 
L 362.342382 165.767311 
L 363.532809 162.071883 
L 364.723191 156.784969 
L 365.913618 150.1064 
L 367.104 144.285051 
L 368.294382 144.71384 
L 369.484809 154.604591 
L 370.675191 167.013677 
L 371.865618 174.079458 
L 373.056 176.079658 
L 374.246382 175.977733 
L 375.436809 175.494904 
L 376.627191 175.209395 
L 377.817618 175.231758 
L 379.008 175.568158 
L 380.198382 176.259874 
L 381.388809 177.436213 
L 382.579191 179.350766 
L 383.769618 182.424979 
L 384.96 187.258728 
L 386.150382 194.397546 
L 387.340809 203.14157 
L 388.531191 208.547716 
L 389.721618 201.658724 
L 390.912 184.376529 
L 392.102382 171.905422 
L 393.292809 167.836945 
L 394.483191 167.564805 
L 395.673618 167.859824 
L 396.864 167.601292 
L 398.054382 166.495241 
L 399.244809 164.414637 
L 400.435191 161.211194 
L 401.625618 156.819981 
L 402.816 151.724527 
L 404.006382 147.815875 
L 405.196809 148.500376 
L 406.387191 155.317723 
L 407.577618 164.194447 
L 408.768 170.081503 
L 409.958382 172.262713 
L 411.148809 172.338139 
L 412.339191 171.57274 
L 413.529618 170.454596 
L 414.72 169.000733 
L 414.72 169.000733 
" clip-path="url(#p9900ffcc76)" style="fill: none; stroke-dasharray: 9.6,2.4,1.5,2.4; stroke-dashoffset: 0; stroke: #ff0000; stroke-width: 1.5"/>
   </g>
   <g id="patch_8">
    <path d="M 57.6 213.662118 
L 57.6 135.393882 
" style="fill: none; stroke: #000000; stroke-width: 0.8; stroke-linejoin: miter; stroke-linecap: square"/>
   </g>
   <g id="patch_9">
    <path d="M 414.72 213.662118 
L 414.72 135.393882 
" style="fill: none; stroke: #000000; stroke-width: 0.8; stroke-linejoin: miter; stroke-linecap: square"/>
   </g>
   <g id="patch_10">
    <path d="M 57.6 213.662118 
L 414.72 213.662118 
" style="fill: none; stroke: #000000; stroke-width: 0.8; stroke-linejoin: miter; stroke-linecap: square"/>
   </g>
   <g id="patch_11">
    <path d="M 57.6 135.393882 
L 414.72 135.393882 
" style="fill: none; stroke: #000000; stroke-width: 0.8; stroke-linejoin: miter; stroke-linecap: square"/>
   </g>
  </g>
  <g id="axes_3">
   <g id="patch_12">
    <path d="M 57.6 307.584 
L 414.72 307.584 
L 414.72 229.315765 
L 57.6 229.315765 
z
" style="fill: #ffffff"/>
   </g>
   <g id="matplotlib.axis_5">
    <g id="xtick_19">
     <g id="line2d_29">
      <g>
       <use xlink:href="#mf07f895905" x="57.6" y="307.584" style="stroke: #000000; stroke-width: 0.8"/>
      </g>
     </g>
     <g id="text_7">
      <!-- 10 -->
      <g transform="translate(51.2375 322.182437) scale(0.1 -0.1)">
       <use xlink:href="#DejaVuSans-31"/>
       <use xlink:href="#DejaVuSans-30" x="63.623047"/>
      </g>
     </g>
    </g>
    <g id="xtick_20">
     <g id="line2d_30">
      <g>
       <use xlink:href="#mf07f895905" x="105.216" y="307.584" style="stroke: #000000; stroke-width: 0.8"/>
      </g>
     </g>
     <g id="text_8">
      <!-- 12 -->
      <g transform="translate(98.8535 322.182437) scale(0.1 -0.1)">
       <use xlink:href="#DejaVuSans-31"/>
       <use xlink:href="#DejaVuSans-32" x="63.623047"/>
      </g>
     </g>
    </g>
    <g id="xtick_21">
     <g id="line2d_31">
      <g>
       <use xlink:href="#mf07f895905" x="152.832" y="307.584" style="stroke: #000000; stroke-width: 0.8"/>
      </g>
     </g>
     <g id="text_9">
      <!-- 14 -->
      <g transform="translate(146.4695 322.182437) scale(0.1 -0.1)">
       <defs>
        <path id="DejaVuSans-34" d="M 2419 4116 
L 825 1625 
L 2419 1625 
L 2419 4116 
z
M 2253 4666 
L 3047 4666 
L 3047 1625 
L 3713 1625 
L 3713 1100 
L 3047 1100 
L 3047 0 
L 2419 0 
L 2419 1100 
L 313 1100 
L 313 1709 
L 2253 4666 
z
" transform="scale(0.015625)"/>
       </defs>
       <use xlink:href="#DejaVuSans-31"/>
       <use xlink:href="#DejaVuSans-34" x="63.623047"/>
      </g>
     </g>
    </g>
    <g id="xtick_22">
     <g id="line2d_32">
      <g>
       <use xlink:href="#mf07f895905" x="200.448" y="307.584" style="stroke: #000000; stroke-width: 0.8"/>
      </g>
     </g>
     <g id="text_10">
      <!-- 16 -->
      <g transform="translate(194.0855 322.182437) scale(0.1 -0.1)">
       <defs>
        <path id="DejaVuSans-36" d="M 2113 2584 
Q 1688 2584 1439 2293 
Q 1191 2003 1191 1497 
Q 1191 994 1439 701 
Q 1688 409 2113 409 
Q 2538 409 2786 701 
Q 3034 994 3034 1497 
Q 3034 2003 2786 2293 
Q 2538 2584 2113 2584 
z
M 3366 4563 
L 3366 3988 
Q 3128 4100 2886 4159 
Q 2644 4219 2406 4219 
Q 1781 4219 1451 3797 
Q 1122 3375 1075 2522 
Q 1259 2794 1537 2939 
Q 1816 3084 2150 3084 
Q 2853 3084 3261 2657 
Q 3669 2231 3669 1497 
Q 3669 778 3244 343 
Q 2819 -91 2113 -91 
Q 1303 -91 875 529 
Q 447 1150 447 2328 
Q 447 3434 972 4092 
Q 1497 4750 2381 4750 
Q 2619 4750 2861 4703 
Q 3103 4656 3366 4563 
z
" transform="scale(0.015625)"/>
       </defs>
       <use xlink:href="#DejaVuSans-31"/>
       <use xlink:href="#DejaVuSans-36" x="63.623047"/>
      </g>
     </g>
    </g>
    <g id="xtick_23">
     <g id="line2d_33">
      <g>
       <use xlink:href="#mf07f895905" x="248.064" y="307.584" style="stroke: #000000; stroke-width: 0.8"/>
      </g>
     </g>
     <g id="text_11">
      <!-- 18 -->
      <g transform="translate(241.7015 322.182437) scale(0.1 -0.1)">
       <defs>
        <path id="DejaVuSans-38" d="M 2034 2216 
Q 1584 2216 1326 1975 
Q 1069 1734 1069 1313 
Q 1069 891 1326 650 
Q 1584 409 2034 409 
Q 2484 409 2743 651 
Q 3003 894 3003 1313 
Q 3003 1734 2745 1975 
Q 2488 2216 2034 2216 
z
M 1403 2484 
Q 997 2584 770 2862 
Q 544 3141 544 3541 
Q 544 4100 942 4425 
Q 1341 4750 2034 4750 
Q 2731 4750 3128 4425 
Q 3525 4100 3525 3541 
Q 3525 3141 3298 2862 
Q 3072 2584 2669 2484 
Q 3125 2378 3379 2068 
Q 3634 1759 3634 1313 
Q 3634 634 3220 271 
Q 2806 -91 2034 -91 
Q 1263 -91 848 271 
Q 434 634 434 1313 
Q 434 1759 690 2068 
Q 947 2378 1403 2484 
z
M 1172 3481 
Q 1172 3119 1398 2916 
Q 1625 2713 2034 2713 
Q 2441 2713 2670 2916 
Q 2900 3119 2900 3481 
Q 2900 3844 2670 4047 
Q 2441 4250 2034 4250 
Q 1625 4250 1398 4047 
Q 1172 3844 1172 3481 
z
" transform="scale(0.015625)"/>
       </defs>
       <use xlink:href="#DejaVuSans-31"/>
       <use xlink:href="#DejaVuSans-38" x="63.623047"/>
      </g>
     </g>
    </g>
    <g id="xtick_24">
     <g id="line2d_34">
      <g>
       <use xlink:href="#mf07f895905" x="295.68" y="307.584" style="stroke: #000000; stroke-width: 0.8"/>
      </g>
     </g>
     <g id="text_12">
      <!-- 20 -->
      <g transform="translate(289.3175 322.182437) scale(0.1 -0.1)">
       <use xlink:href="#DejaVuSans-32"/>
       <use xlink:href="#DejaVuSans-30" x="63.623047"/>
      </g>
     </g>
    </g>
    <g id="xtick_25">
     <g id="line2d_35">
      <g>
       <use xlink:href="#mf07f895905" x="343.296" y="307.584" style="stroke: #000000; stroke-width: 0.8"/>
      </g>
     </g>
     <g id="text_13">
      <!-- 22 -->
      <g transform="translate(336.9335 322.182437) scale(0.1 -0.1)">
       <use xlink:href="#DejaVuSans-32"/>
       <use xlink:href="#DejaVuSans-32" x="63.623047"/>
      </g>
     </g>
    </g>
    <g id="xtick_26">
     <g id="line2d_36">
      <g>
       <use xlink:href="#mf07f895905" x="390.912" y="307.584" style="stroke: #000000; stroke-width: 0.8"/>
      </g>
     </g>
     <g id="text_14">
      <!-- 24 -->
      <g transform="translate(384.5495 322.182437) scale(0.1 -0.1)">
       <use xlink:href="#DejaVuSans-32"/>
       <use xlink:href="#DejaVuSans-34" x="63.623047"/>
      </g>
     </g>
    </g>
    <g id="xtick_27">
     <g id="line2d_37">
      <g>
       <use xlink:href="#mf07f895905" x="414.72" y="307.584" style="stroke: #000000; stroke-width: 0.8"/>
      </g>
     </g>
     <g id="text_15">
      <!-- 25 -->
      <g transform="translate(408.3575 322.182437) scale(0.1 -0.1)">
       <defs>
        <path id="DejaVuSans-35" d="M 691 4666 
L 3169 4666 
L 3169 4134 
L 1269 4134 
L 1269 2991 
Q 1406 3038 1543 3061 
Q 1681 3084 1819 3084 
Q 2600 3084 3056 2656 
Q 3513 2228 3513 1497 
Q 3513 744 3044 326 
Q 2575 -91 1722 -91 
Q 1428 -91 1123 -41 
Q 819 9 494 109 
L 494 744 
Q 775 591 1075 516 
Q 1375 441 1709 441 
Q 2250 441 2565 725 
Q 2881 1009 2881 1497 
Q 2881 1984 2565 2268 
Q 2250 2553 1709 2553 
Q 1456 2553 1204 2497 
Q 953 2441 691 2322 
L 691 4666 
z
" transform="scale(0.015625)"/>
       </defs>
       <use xlink:href="#DejaVuSans-32"/>
       <use xlink:href="#DejaVuSans-35" x="63.623047"/>
      </g>
     </g>
    </g>
   </g>
   <g id="matplotlib.axis_6">
    <g id="ytick_7">
     <g id="line2d_38">
      <g>
       <use xlink:href="#md9ee563589" x="57.6" y="278.011377" style="stroke: #000000; stroke-width: 0.8"/>
      </g>
     </g>
     <g id="text_16">
      <!-- 20 -->
      <g transform="translate(37.875 281.810595) scale(0.1 -0.1)">
       <use xlink:href="#DejaVuSans-32"/>
       <use xlink:href="#DejaVuSans-30" x="63.623047"/>
      </g>
     </g>
    </g>
    <g id="ytick_8">
     <g id="line2d_39">
      <g>
       <use xlink:href="#md9ee563589" x="57.6" y="239.598312" style="stroke: #000000; stroke-width: 0.8"/>
      </g>
     </g>
     <g id="text_17">
      <!-- 40 -->
      <g transform="translate(37.875 243.39753) scale(0.1 -0.1)">
       <use xlink:href="#DejaVuSans-34"/>
       <use xlink:href="#DejaVuSans-30" x="63.623047"/>
      </g>
     </g>
    </g>
   </g>
   <g id="line2d_40">
    <path d="M 57.6 286.764212 
L 58.7904 288.885053 
L 59.9808 289.184474 
L 61.1712 286.280374 
L 62.3616 278.069966 
L 64.7424 248.519862 
L 65.9328 242.58036 
L 67.1232 247.173629 
L 69.504 263.488059 
L 70.6944 270.27762 
L 71.8848 276.092881 
L 73.0752 281.138704 
L 74.2656 285.543448 
L 75.456 289.395144 
L 76.6464 292.763032 
L 77.8368 295.703982 
L 79.0272 298.26192 
L 80.2176 300.460658 
L 81.408 302.281913 
L 82.5984 303.603145 
L 83.7888 304.026353 
L 84.9792 302.434105 
L 86.1696 296.056661 
L 87.36 279.918799 
L 88.5504 252.975055 
L 89.7408 232.899771 
L 90.9312 235.807491 
L 92.1216 248.290095 
L 93.312 258.59484 
L 94.5024 265.789513 
L 95.6928 271.005614 
L 96.8832 274.767113 
L 98.0736 277.048447 
L 99.264 277.4654 
L 100.4544 275.390649 
L 101.6448 270.321267 
L 104.0256 255.669969 
L 105.216 252.232124 
L 106.4064 253.567714 
L 107.5968 257.903944 
L 109.9776 268.250066 
L 111.168 272.686617 
L 112.3584 276.222864 
L 113.5488 278.548203 
L 114.7392 279.158184 
L 115.9296 277.296691 
L 117.12 272.203155 
L 119.5008 255.699933 
L 120.6912 251.144855 
L 121.8816 252.135891 
L 123.072 256.726932 
L 125.4528 267.915153 
L 126.6432 272.756154 
L 127.8336 276.740058 
L 129.024 279.62771 
L 130.2144 280.989297 
L 131.4048 280.08247 
L 132.5952 275.900162 
L 133.7856 267.911285 
L 134.976 257.898365 
L 136.1664 250.652444 
L 137.3568 249.803304 
L 138.5472 254.056799 
L 140.928 266.256119 
L 142.1184 271.697437 
L 143.3088 276.340392 
L 144.4992 280.059032 
L 145.6896 282.592986 
L 146.88 283.40506 
L 148.0704 281.528364 
L 149.2608 275.675403 
L 150.4512 265.454205 
L 151.6416 253.999231 
L 152.832 247.659715 
L 154.0224 249.12558 
L 155.2128 255.116067 
L 157.5936 268.362631 
L 158.784 273.923323 
L 159.9744 278.680058 
L 161.1648 282.591288 
L 162.3552 285.482586 
L 163.5456 286.917942 
L 164.736 285.980121 
L 165.9264 281.09671 
L 167.1168 270.735174 
L 168.3072 256.528025 
L 169.4976 246.026152 
L 170.688 245.426164 
L 171.8784 251.741459 
L 174.2592 266.712435 
L 175.4496 272.886979 
L 176.64 278.232188 
L 177.8304 282.860785 
L 179.0208 286.824257 
L 180.2112 290.103092 
L 181.4016 292.548137 
L 182.592 293.725415 
L 183.7824 292.585441 
L 184.9728 286.98778 
L 186.1632 274.085067 
L 187.3536 254.893223 
L 188.544 240.703278 
L 189.7344 241.149483 
L 193.3056 266.916726 
L 194.496 273.196757 
L 195.6864 278.486483 
L 196.8768 282.953799 
L 198.0672 286.619215 
L 199.2576 289.345413 
L 200.448 290.710968 
L 201.6384 289.732877 
L 202.8288 284.526062 
L 204.0192 272.826231 
L 205.2096 255.87449 
L 206.4 243.141964 
L 207.5904 242.853851 
L 208.7808 250.536137 
L 209.9712 259.261034 
L 211.1616 266.788062 
L 212.352 273.128594 
L 213.5424 278.567465 
L 214.7328 283.285345 
L 215.9232 287.386478 
L 217.1136 290.933715 
L 218.304 293.949921 
L 219.4944 296.385866 
L 220.6848 298.027357 
L 221.8752 298.262226 
L 223.0656 295.56991 
L 224.256 286.841947 
L 225.4464 268.650418 
L 226.6368 245.821224 
L 227.8272 235.662794 
L 229.0176 242.220034 
L 230.208 253.132218 
L 231.3984 262.129858 
L 232.5888 269.032435 
L 233.7792 274.510843 
L 234.9696 278.860241 
L 236.16 282.039945 
L 237.3504 283.700259 
L 238.5408 283.07362 
L 239.7312 278.916375 
L 240.9216 270.154795 
L 242.112 258.208954 
L 243.3024 248.88114 
L 244.4928 247.404264 
L 245.6832 252.291742 
L 248.064 265.964958 
L 249.2544 271.904334 
L 250.4448 277.035571 
L 251.6352 281.364408 
L 252.8256 284.80495 
L 254.016 287.087148 
L 255.2064 287.581468 
L 256.3968 285.038832 
L 257.5872 277.607043 
L 259.968 250.308891 
L 261.1584 243.9329 
L 262.3488 247.468421 
L 264.7296 262.962894 
L 265.92 269.714123 
L 267.1104 275.531975 
L 268.3008 280.579877 
L 269.4912 284.961639 
L 270.6816 288.729649 
L 271.872 291.878936 
L 273.0624 294.295547 
L 274.2528 295.618038 
L 275.4432 294.921895 
L 276.6336 290.170128 
L 277.824 278.12982 
L 279.0144 258.163868 
L 280.2048 240.749121 
L 281.3952 238.916106 
L 282.5856 247.821121 
L 283.776 257.665496 
L 284.9664 265.638108 
L 286.1568 272.037926 
L 287.3472 277.319788 
L 288.5376 281.661557 
L 289.728 285.023378 
L 290.9184 287.122016 
L 292.1088 287.264433 
L 293.2992 284.101989 
L 294.4896 275.793856 
L 296.8704 248.679696 
L 298.0608 244.043975 
L 299.2512 248.623111 
L 301.632 264.089728 
L 302.8224 270.672233 
L 304.0128 276.353054 
L 305.2032 281.28393 
L 306.3936 285.556301 
L 307.584 289.209243 
L 308.7744 292.21372 
L 309.9648 294.402425 
L 311.1552 295.29244 
L 312.3456 293.704211 
L 313.536 287.219202 
L 314.7264 272.745854 
L 315.9168 252.168417 
L 317.1072 238.766537 
L 318.2976 241.15648 
L 320.6784 260.204878 
L 321.8688 267.662574 
L 323.0592 273.728837 
L 324.2496 278.772374 
L 325.44 282.911416 
L 326.6304 286.06735 
L 327.8208 287.905823 
L 329.0112 287.638383 
L 330.2016 283.764211 
L 331.392 274.375865 
L 332.5824 259.803315 
L 333.7728 246.833032 
L 334.9632 243.829065 
L 336.1536 249.514278 
L 338.5344 265.179279 
L 339.7248 271.652069 
L 340.9152 277.236343 
L 342.1056 282.09096 
L 343.296 286.313446 
L 344.4864 289.959485 
L 345.6768 293.039107 
L 346.8672 295.475316 
L 348.0576 296.990516 
L 349.248 296.833298 
L 350.4384 293.230532 
L 351.6288 282.907206 
L 354.0096 242.777266 
L 355.2 236.862917 
L 356.3904 244.909803 
L 357.5808 255.361752 
L 358.7712 263.836045 
L 359.9616 270.475097 
L 361.152 275.844715 
L 362.3424 280.171684 
L 363.5328 283.402903 
L 364.7232 285.199901 
L 365.9136 284.794071 
L 367.104 280.845886 
L 368.2944 271.94687 
L 369.4848 259.052815 
L 370.6752 248.270664 
L 371.8656 246.032252 
L 373.056 251.083723 
L 375.4368 265.513583 
L 376.6272 271.702133 
L 377.8176 277.061078 
L 379.008 281.661229 
L 380.1984 285.503328 
L 381.3888 288.47093 
L 382.5792 290.216497 
L 383.7696 289.919794 
L 384.96 285.940304 
L 386.1504 275.981625 
L 388.5312 245.359269 
L 389.7216 242.138282 
L 390.912 248.585669 
L 392.1024 257.332412 
L 393.2928 265.138406 
L 394.4832 271.721137 
L 395.6736 277.353731 
L 396.864 282.23827 
L 398.0544 286.494088 
L 399.2448 290.19962 
L 400.4352 293.406625 
L 401.6256 296.13203 
L 402.816 298.322094 
L 404.0064 299.75435 
L 405.1968 299.787568 
L 406.3872 296.799942 
L 407.5776 287.415078 
L 408.768 267.916383 
L 409.9584 243.977931 
L 411.1488 234.511695 
L 412.3392 242.248495 
L 413.5296 253.517285 
L 414.72 262.416781 
L 414.72 262.416781 
" clip-path="url(#pb5c991e199)" style="fill: none; stroke: #0000cc; stroke-width: 1.5; stroke-linecap: square"/>
   </g>
   <g id="line2d_41">
    <path d="M 57.6 286.764187 
L 58.790405 288.885119 
L 59.980809 289.184554 
L 61.171191 286.280564 
L 62.361595 278.070261 
L 64.742405 248.520163 
L 65.932809 242.580566 
L 67.123191 247.173601 
L 69.504 263.488005 
L 70.694405 270.277588 
L 71.884809 276.092871 
L 73.075191 281.138639 
L 74.265595 285.543376 
L 75.456 289.395109 
L 76.646405 292.763005 
L 77.836809 295.703881 
L 79.027191 298.261747 
L 80.217595 300.460179 
L 81.408 302.280823 
L 82.598405 303.600509 
L 83.788809 304.019441 
L 84.979191 302.416272 
L 86.169595 296.013186 
L 87.36 279.831736 
L 88.550405 252.871698 
L 89.740809 232.873412 
L 90.931191 235.85098 
L 92.121595 248.335866 
L 93.312 258.627265 
L 94.502405 265.813412 
L 95.692809 271.024637 
L 96.883191 274.782257 
L 98.073595 277.059256 
L 99.264 277.470176 
L 100.454405 275.386757 
L 101.644809 270.306724 
L 104.025595 255.649579 
L 105.216 252.224346 
L 106.406405 253.572838 
L 107.596809 257.91663 
L 109.977595 268.265489 
L 111.168 272.701156 
L 112.358405 276.235802 
L 113.548809 278.558737 
L 114.739191 279.164776 
L 115.929595 277.296938 
L 117.12 272.194537 
L 119.500809 255.681488 
L 120.691191 251.135117 
L 121.881595 252.137491 
L 123.072 256.735634 
L 125.452809 267.927333 
L 126.643191 272.768118 
L 127.833595 276.751563 
L 129.024 279.638385 
L 130.214405 280.998773 
L 131.404809 280.089477 
L 132.595191 275.90267 
L 133.785595 267.906862 
L 134.976 257.887682 
L 136.166405 250.641641 
L 137.356809 249.798382 
L 138.547191 254.057768 
L 140.928 266.262145 
L 142.118405 271.704377 
L 143.308809 276.348135 
L 144.499191 280.067692 
L 145.689595 282.603139 
L 146.88 283.417527 
L 148.070405 281.54379 
L 149.260809 275.692922 
L 150.451191 265.469268 
L 151.641595 254.003761 
L 152.832 247.65238 
L 154.022405 249.11407 
L 155.212809 255.106656 
L 157.593595 268.358882 
L 158.784 273.921771 
L 159.974405 278.680811 
L 161.164809 282.595059 
L 162.355191 285.490976 
L 163.545595 286.934245 
L 164.736 286.009866 
L 165.926405 281.146445 
L 167.116809 270.80307 
L 168.307191 256.587173 
L 169.497595 246.038469 
L 170.688 245.396159 
L 171.878405 251.700845 
L 174.259191 266.683579 
L 175.449595 272.863508 
L 176.64 278.213256 
L 177.830405 282.846333 
L 179.020809 286.815099 
L 180.211191 290.101651 
L 181.401595 292.560316 
L 182.592 293.764613 
L 183.782405 292.679641 
L 184.972809 287.183902 
L 186.163191 274.412568 
L 187.353595 255.231592 
L 188.544 240.798755 
L 189.734405 241.008796 
L 193.305595 266.792138 
L 194.496 273.091148 
L 195.686405 278.393448 
L 196.876809 282.869686 
L 198.067191 286.540818 
L 199.257595 289.269085 
L 200.448 290.631616 
L 201.638382 289.644368 
L 202.828809 284.424867 
L 204.019191 272.728052 
L 205.209618 255.828088 
L 206.4 243.179084 
L 207.590382 242.924187 
L 208.780809 250.590589 
L 209.971191 259.295732 
L 211.161618 266.812348 
L 212.352 273.148076 
L 213.542382 278.585127 
L 214.732809 283.303398 
L 215.923191 287.407436 
L 217.113618 290.962618 
L 218.304 293.997136 
L 219.494382 296.475669 
L 220.684809 298.217514 
L 221.875191 298.689433 
L 223.065618 296.536217 
L 224.256 288.858063 
L 225.446382 271.887226 
L 226.636809 248.528197 
L 227.827191 235.614664 
L 229.017618 240.632381 
L 230.208 251.642092 
L 231.398382 260.997426 
L 232.588809 268.126262 
L 233.779191 273.738235 
L 234.969618 278.185605 
L 236.16 281.458523 
L 237.350382 283.235473 
L 238.540809 282.792586 
L 239.731191 278.946366 
L 240.921618 270.628843 
L 242.112 259.033199 
L 243.302382 249.573574 
L 244.492809 247.579753 
L 245.683191 252.056736 
L 248.064 265.527303 
L 249.254382 271.465027 
L 250.444809 276.597568 
L 251.635191 280.91605 
L 252.825618 284.321104 
L 254.016 286.521891 
L 255.206382 286.860423 
L 256.396809 284.070134 
L 257.587191 276.382729 
L 259.968 249.907376 
L 261.158382 244.435199 
L 262.348809 248.270065 
L 264.729618 263.463454 
L 265.92 270.08714 
L 267.110382 275.809846 
L 268.300809 280.770841 
L 269.491191 285.051575 
L 270.681618 288.67266 
L 271.872 291.563581 
L 273.062382 293.465827 
L 274.252809 293.701809 
L 275.443191 290.741261 
L 276.633618 281.877645 
L 277.824 265.14293 
L 279.014382 246.366996 
L 280.204809 239.084304 
L 281.395191 244.991694 
L 282.585618 254.668215 
L 283.776 263.177678 
L 284.966382 270.097709 
L 286.156809 275.857514 
L 287.347191 280.724366 
L 288.537618 284.78637 
L 289.728 287.986007 
L 290.918382 290.053592 
L 292.108809 290.303635 
L 293.299191 287.293261 
L 294.489618 278.751764 
L 296.870382 247.665764 
L 298.060809 241.685869 
L 299.251191 246.775893 
L 301.632 263.59073 
L 302.822382 270.414867 
L 304.012809 276.228664 
L 305.203191 281.258184 
L 306.393618 285.63641 
L 307.584 289.446678 
L 308.774382 292.742999 
L 309.964809 295.542712 
L 311.155191 297.790331 
L 312.345618 299.258884 
L 313.536 299.298548 
L 314.726382 296.280962 
L 315.916809 286.862391 
L 317.107191 267.492338 
L 318.297618 244.005242 
L 319.488 234.91551 
L 320.678382 242.568015 
L 321.868809 253.702477 
L 323.059191 262.562167 
L 324.249618 269.268453 
L 325.44 274.528262 
L 326.630382 278.604592 
L 327.820809 281.398365 
L 329.011191 282.47296 
L 330.201618 280.973378 
L 331.392 275.731588 
L 332.582382 266.308126 
L 333.772809 255.334432 
L 334.963191 248.630971 
L 336.153618 249.296508 
L 337.344 254.731328 
L 339.724809 267.666893 
L 340.915191 273.190045 
L 342.105618 277.904182 
L 343.296 281.736798 
L 344.486382 284.476207 
L 345.676809 285.632777 
L 346.867191 284.236093 
L 348.057618 278.772019 
L 349.248 268.164518 
L 350.438382 254.89942 
L 351.628809 246.33925 
L 352.819191 246.963289 
L 354.009618 253.314851 
L 356.390382 267.609146 
L 357.580809 273.542229 
L 358.771191 278.672723 
L 359.961618 283.061454 
L 361.152 286.689665 
L 362.342382 289.405933 
L 363.532809 290.787148 
L 364.723191 289.858169 
L 365.913618 284.743657 
L 367.104 273.151146 
L 368.294382 256.185925 
L 369.484809 243.222627 
L 370.675191 242.715128 
L 371.865618 250.349472 
L 373.056 259.102059 
L 374.246382 266.658766 
L 375.436809 273.019707 
L 376.627191 278.472491 
L 377.817618 283.200618 
L 379.008 287.308246 
L 380.198382 290.857163 
L 381.388809 293.866187 
L 382.579191 296.275962 
L 383.769618 297.847993 
L 384.96 297.913563 
L 386.150382 294.839014 
L 387.340809 285.398149 
L 388.531191 266.493761 
L 389.721618 244.258702 
L 390.912 235.983403 
L 392.102382 243.349191 
L 393.292809 254.127253 
L 394.483191 262.889591 
L 395.673618 269.653258 
L 396.864 275.052765 
L 398.054382 279.348803 
L 399.244809 282.483938 
L 400.435191 284.094134 
L 401.625618 283.386655 
L 402.816 279.073808 
L 404.006382 270.047469 
L 405.196809 257.819992 
L 406.387191 248.445675 
L 407.577618 247.193862 
L 408.768 252.31765 
L 411.148809 266.162578 
L 412.339191 272.125609 
L 413.529618 277.278678 
L 414.72 281.641138 
L 414.72 281.641138 
" clip-path="url(#pb5c991e199)" style="fill: none; stroke-dasharray: 9.6,2.4,1.5,2.4; stroke-dashoffset: 0; stroke: #ff0000; stroke-width: 1.5"/>
   </g>
   <g id="patch_13">
    <path d="M 57.6 307.584 
L 57.6 229.315765 
" style="fill: none; stroke: #000000; stroke-width: 0.8; stroke-linejoin: miter; stroke-linecap: square"/>
   </g>
   <g id="patch_14">
    <path d="M 414.72 307.584 
L 414.72 229.315765 
" style="fill: none; stroke: #000000; stroke-width: 0.8; stroke-linejoin: miter; stroke-linecap: square"/>
   </g>
   <g id="patch_15">
    <path d="M 57.6 307.584 
L 414.72 307.584 
" style="fill: none; stroke: #000000; stroke-width: 0.8; stroke-linejoin: miter; stroke-linecap: square"/>
   </g>
   <g id="patch_16">
    <path d="M 57.6 229.315765 
L 414.72 229.315765 
" style="fill: none; stroke: #000000; stroke-width: 0.8; stroke-linejoin: miter; stroke-linecap: square"/>
   </g>
  </g>
 </g>
 <defs>
  <clipPath id="paaaadcb631">
   <rect x="57.6" y="41.472" width="357.12" height="78.268235"/>
  </clipPath>
  <clipPath id="p9900ffcc76">
   <rect x="57.6" y="135.393882" width="357.12" height="78.268235"/>
  </clipPath>
  <clipPath id="pb5c991e199">
   <rect x="57.6" y="229.315765" width="357.12" height="78.268235"/>
  </clipPath>
 </defs>
</svg>
