<?xml version="1.0" encoding="utf-8" standalone="no"?>
<!DOCTYPE svg PUBLIC "-//W3C//DTD SVG 1.1//EN"
  "http://www.w3.org/Graphics/SVG/1.1/DTD/svg11.dtd">
<svg xmlns:xlink="http://www.w3.org/1999/xlink" width="460.8pt" height="345.6pt" viewBox="0 0 460.8 345.6" xmlns="http://www.w3.org/2000/svg" version="1.1">
 <metadata>
  <rdf:RDF xmlns:dc="http://purl.org/dc/elements/1.1/" xmlns:cc="http://creativecommons.org/ns#" xmlns:rdf="http://www.w3.org/1999/02/22-rdf-syntax-ns#">
   <cc:Work>
    <dc:type rdf:resource="http://purl.org/dc/dcmitype/StillImage"/>
    <dc:date>2023-12-14T15:12:34.957310</dc:date>
    <dc:format>image/svg+xml</dc:format>
    <dc:creator>
     <cc:Agent>
      <dc:title>Matplotlib v3.7.3, https://matplotlib.org/</dc:title>
     </cc:Agent>
    </dc:creator>
   </cc:Work>
  </rdf:RDF>
 </metadata>
 <defs>
  <style type="text/css">*{stroke-linejoin: round; stroke-linecap: butt}</style>
 </defs>
 <g id="figure_1">
  <g id="patch_1">
   <path d="M 0 345.6 
L 460.8 345.6 
L 460.8 0 
L 0 0 
z
" style="fill: #ffffff"/>
  </g>
  <g id="axes_1">
   <g id="patch_2">
    <path d="M 57.6 119.740235 
L 414.72 119.740235 
L 414.72 41.472 
L 57.6 41.472 
z
" style="fill: #ffffff"/>
   </g>
   <g id="matplotlib.axis_1">
    <g id="xtick_1">
     <g id="line2d_1">
      <defs>
       <path id="m09bf01a841" d="M 0 0 
L 0 3.5 
" style="stroke: #000000; stroke-width: 0.8"/>
      </defs>
      <g>
       <use xlink:href="#m09bf01a841" x="57.6" y="119.740235" style="stroke: #000000; stroke-width: 0.8"/>
      </g>
     </g>
    </g>
    <g id="xtick_2">
     <g id="line2d_2">
      <g>
       <use xlink:href="#m09bf01a841" x="105.216" y="119.740235" style="stroke: #000000; stroke-width: 0.8"/>
      </g>
     </g>
    </g>
    <g id="xtick_3">
     <g id="line2d_3">
      <g>
       <use xlink:href="#m09bf01a841" x="152.832" y="119.740235" style="stroke: #000000; stroke-width: 0.8"/>
      </g>
     </g>
    </g>
    <g id="xtick_4">
     <g id="line2d_4">
      <g>
       <use xlink:href="#m09bf01a841" x="200.448" y="119.740235" style="stroke: #000000; stroke-width: 0.8"/>
      </g>
     </g>
    </g>
    <g id="xtick_5">
     <g id="line2d_5">
      <g>
       <use xlink:href="#m09bf01a841" x="248.064" y="119.740235" style="stroke: #000000; stroke-width: 0.8"/>
      </g>
     </g>
    </g>
    <g id="xtick_6">
     <g id="line2d_6">
      <g>
       <use xlink:href="#m09bf01a841" x="295.68" y="119.740235" style="stroke: #000000; stroke-width: 0.8"/>
      </g>
     </g>
    </g>
    <g id="xtick_7">
     <g id="line2d_7">
      <g>
       <use xlink:href="#m09bf01a841" x="343.296" y="119.740235" style="stroke: #000000; stroke-width: 0.8"/>
      </g>
     </g>
    </g>
    <g id="xtick_8">
     <g id="line2d_8">
      <g>
       <use xlink:href="#m09bf01a841" x="390.912" y="119.740235" style="stroke: #000000; stroke-width: 0.8"/>
      </g>
     </g>
    </g>
    <g id="xtick_9">
     <g id="line2d_9">
      <g>
       <use xlink:href="#m09bf01a841" x="414.72" y="119.740235" style="stroke: #000000; stroke-width: 0.8"/>
      </g>
     </g>
    </g>
   </g>
   <g id="matplotlib.axis_2">
    <g id="ytick_1">
     <g id="line2d_10">
      <defs>
       <path id="m21c93b657c" d="M 0 0 
L -3.5 0 
" style="stroke: #000000; stroke-width: 0.8"/>
      </defs>
      <g>
       <use xlink:href="#m21c93b657c" x="57.6" y="101.220792" style="stroke: #000000; stroke-width: 0.8"/>
      </g>
     </g>
     <g id="text_1">
      <!-- −10 -->
      <g transform="translate(29.495313 105.020011) scale(0.1 -0.1)">
       <defs>
        <path id="DejaVuSans-2212" d="M 678 2272 
L 4684 2272 
L 4684 1741 
L 678 1741 
L 678 2272 
z
" transform="scale(0.015625)"/>
        <path id="DejaVuSans-31" d="M 794 531 
L 1825 531 
L 1825 4091 
L 703 3866 
L 703 4441 
L 1819 4666 
L 2450 4666 
L 2450 531 
L 3481 531 
L 3481 0 
L 794 0 
L 794 531 
z
" transform="scale(0.015625)"/>
        <path id="DejaVuSans-30" d="M 2034 4250 
Q 1547 4250 1301 3770 
Q 1056 3291 1056 2328 
Q 1056 1369 1301 889 
Q 1547 409 2034 409 
Q 2525 409 2770 889 
Q 3016 1369 3016 2328 
Q 3016 3291 2770 3770 
Q 2525 4250 2034 4250 
z
M 2034 4750 
Q 2819 4750 3233 4129 
Q 3647 3509 3647 2328 
Q 3647 1150 3233 529 
Q 2819 -91 2034 -91 
Q 1250 -91 836 529 
Q 422 1150 422 2328 
Q 422 3509 836 4129 
Q 1250 4750 2034 4750 
z
" transform="scale(0.015625)"/>
       </defs>
       <use xlink:href="#DejaVuSans-2212"/>
       <use xlink:href="#DejaVuSans-31" x="83.789062"/>
       <use xlink:href="#DejaVuSans-30" x="147.412109"/>
      </g>
     </g>
    </g>
    <g id="ytick_2">
     <g id="line2d_11">
      <g>
       <use xlink:href="#m21c93b657c" x="57.6" y="80.370686" style="stroke: #000000; stroke-width: 0.8"/>
      </g>
     </g>
     <g id="text_2">
      <!-- 0 -->
      <g transform="translate(44.2375 84.169904) scale(0.1 -0.1)">
       <use xlink:href="#DejaVuSans-30"/>
      </g>
     </g>
    </g>
    <g id="ytick_3">
     <g id="line2d_12">
      <g>
       <use xlink:href="#m21c93b657c" x="57.6" y="59.52058" style="stroke: #000000; stroke-width: 0.8"/>
      </g>
     </g>
     <g id="text_3">
      <!-- 10 -->
      <g transform="translate(37.875 63.319798) scale(0.1 -0.1)">
       <use xlink:href="#DejaVuSans-31"/>
       <use xlink:href="#DejaVuSans-30" x="63.623047"/>
      </g>
     </g>
    </g>
   </g>
   <g id="line2d_13">
    <path d="M 57.6 86.30976 
L 58.7904 88.344373 
L 59.9808 91.50892 
L 61.1712 96.108754 
L 63.552 108.183205 
L 64.7424 111.097213 
L 65.9328 108.015772 
L 68.3136 92.798625 
L 69.504 87.171179 
L 70.6944 83.813803 
L 71.8848 82.056611 
L 73.0752 81.232045 
L 74.2656 80.899044 
L 75.456 80.819929 
L 76.6464 80.889589 
L 77.8368 81.082066 
L 79.0272 81.424354 
L 80.2176 81.993076 
L 81.408 82.930718 
L 82.5984 84.482468 
L 83.7888 87.055359 
L 84.9792 91.279238 
L 86.1696 97.924538 
L 88.5504 115.648965 
L 89.7408 116.102974 
L 90.9312 106.051643 
L 92.1216 93.175559 
L 93.312 83.512932 
L 94.5024 77.648002 
L 95.6928 74.18274 
L 99.264 66.746568 
L 100.4544 63.439178 
L 101.6448 59.768168 
L 102.8352 56.598506 
L 104.0256 55.284647 
L 105.216 56.721986 
L 106.4064 60.344677 
L 107.5968 64.558454 
L 108.7872 68.022057 
L 109.9776 70.189749 
L 111.168 71.058324 
L 112.3584 70.787293 
L 113.5488 69.491098 
L 114.7392 67.200953 
L 115.9296 63.959498 
L 118.3104 56.40954 
L 119.5008 54.554247 
L 120.6912 55.75229 
L 121.8816 59.601007 
L 123.072 64.305612 
L 124.2624 68.256999 
L 125.4528 70.797921 
L 126.6432 71.939723 
L 127.8336 71.893609 
L 129.024 70.811032 
L 130.2144 68.718397 
L 131.4048 65.580905 
L 133.7856 57.154843 
L 134.976 54.065846 
L 136.1664 54.099151 
L 137.3568 57.61725 
L 139.7376 67.681068 
L 140.928 71.026869 
L 142.1184 72.803241 
L 143.3088 73.280083 
L 144.4992 72.699805 
L 145.6896 71.14593 
L 146.88 68.552123 
L 148.0704 64.813276 
L 150.4512 55.279209 
L 151.6416 52.525531 
L 152.832 53.85846 
L 154.0224 58.875313 
L 155.2128 64.960783 
L 156.4032 69.921123 
L 157.5936 73.067779 
L 158.784 74.611849 
L 159.9744 74.955436 
L 161.1648 74.368546 
L 162.3552 72.915275 
L 163.5456 70.474441 
L 164.736 66.81475 
L 165.9264 61.814191 
L 167.1168 56.029764 
L 168.3072 51.524154 
L 169.4976 51.364803 
L 170.688 56.356214 
L 171.8784 63.611372 
L 173.0688 69.931779 
L 174.2592 74.133503 
L 175.4496 76.444137 
L 176.64 77.454499 
L 177.8304 77.631986 
L 179.0208 77.217794 
L 180.2112 76.251442 
L 181.4016 74.602486 
L 182.592 71.980423 
L 183.7824 67.955853 
L 184.9728 62.138275 
L 186.1632 54.889014 
L 187.3536 48.796309 
L 188.544 48.540511 
L 189.7344 55.466555 
L 190.9248 65.013239 
L 192.1152 72.797403 
L 193.3056 77.756424 
L 194.496 80.593322 
L 195.6864 82.270311 
L 198.0672 84.846118 
L 199.2576 86.633963 
L 200.448 89.267756 
L 201.6384 93.167354 
L 202.8288 98.64174 
L 204.0192 105.265947 
L 205.2096 110.714082 
L 206.4 111.043886 
L 207.5904 105.071428 
L 208.7808 96.52712 
L 209.9712 89.31901 
L 211.1616 84.631946 
L 212.352 81.991676 
L 213.5424 80.593188 
L 214.7328 79.809759 
L 217.1136 78.650456 
L 218.304 77.834599 
L 219.4944 76.587181 
L 220.6848 74.613582 
L 221.8752 71.475589 
L 223.0656 66.588048 
L 224.256 59.509313 
L 225.4464 51.151274 
L 226.6368 45.826845 
L 227.8272 49.048119 
L 230.208 69.791935 
L 231.3984 77.182341 
L 232.5888 81.59225 
L 233.7792 84.227484 
L 236.16 88.130476 
L 237.3504 90.659255 
L 238.5408 94.115643 
L 239.7312 98.635298 
L 240.9216 103.725157 
L 242.112 107.707974 
L 243.3024 108.152644 
L 244.4928 104.252312 
L 246.8736 92.416053 
L 248.064 88.477457 
L 249.2544 86.305623 
L 250.4448 85.490163 
L 251.6352 85.673116 
L 252.8256 86.696409 
L 254.016 88.606176 
L 255.2064 91.609342 
L 256.3968 95.956487 
L 258.7776 107.32973 
L 259.968 110.308762 
L 261.1584 107.866595 
L 263.5392 93.794216 
L 264.7296 88.281856 
L 265.92 84.941967 
L 267.1104 83.236446 
L 268.3008 82.566149 
L 269.4912 82.538719 
L 270.6816 82.97996 
L 271.872 83.889192 
L 273.0624 85.412688 
L 274.2528 87.847236 
L 275.4432 91.645606 
L 276.6336 97.30368 
L 279.0144 111.850308 
L 280.2048 113.54288 
L 281.3952 107.145162 
L 282.5856 96.977657 
L 283.776 88.297666 
L 284.9664 82.660941 
L 286.1568 79.387439 
L 287.3472 77.3989 
L 289.728 74.152317 
L 290.9184 71.860977 
L 292.1088 68.574164 
L 293.2992 63.981669 
L 295.68 52.718635 
L 296.8704 50.495723 
L 298.0608 53.778615 
L 300.4416 67.917664 
L 301.632 73.052973 
L 302.8224 76.080047 
L 304.0128 77.575525 
L 305.2032 78.107471 
L 306.3936 78.026534 
L 307.584 77.470635 
L 308.7744 76.407721 
L 309.9648 74.656163 
L 311.1552 71.879034 
L 312.3456 67.597337 
L 313.536 61.394069 
L 314.7264 53.757602 
L 315.9168 47.754834 
L 317.1072 48.452218 
L 318.2976 56.482796 
L 319.488 66.480644 
L 320.6784 74.215899 
L 321.8688 79.017269 
L 323.0592 81.782901 
L 324.2496 83.531389 
L 325.44 85.012757 
L 326.6304 86.750656 
L 327.8208 89.167926 
L 329.0112 92.662328 
L 330.2016 97.525527 
L 331.392 103.500364 
L 332.5824 108.87954 
L 333.7728 110.383812 
L 334.9632 106.186711 
L 337.344 91.675104 
L 338.5344 86.796459 
L 339.7248 83.99279 
L 340.9152 82.621706 
L 342.1056 82.11665 
L 343.296 82.138637 
L 344.4864 82.549282 
L 345.6768 83.36126 
L 346.8672 84.715999 
L 348.0576 86.894322 
L 349.248 90.340434 
L 350.4384 95.612568 
L 352.8192 110.871394 
L 354.0096 114.535482 
L 355.2 109.601036 
L 357.5808 89.524603 
L 358.7712 82.996906 
L 359.9616 79.154647 
L 361.152 76.834495 
L 363.5328 73.196403 
L 364.7232 70.725138 
L 365.9136 67.273089 
L 367.104 62.637838 
L 368.2944 57.207873 
L 369.4848 52.652643 
L 370.6752 51.718313 
L 371.8656 55.633205 
L 374.2464 68.453533 
L 375.4368 72.790126 
L 376.6272 75.239055 
L 377.8176 76.288354 
L 379.008 76.373553 
L 380.1984 75.718376 
L 381.3888 74.333091 
L 382.5792 72.043436 
L 383.7696 68.531739 
L 384.96 63.480978 
L 387.3408 51.109566 
L 388.5312 49.31466 
L 389.7216 53.933688 
L 392.1024 69.823257 
L 393.2928 75.045323 
L 394.4832 78.063058 
L 395.6736 79.654997 
L 396.864 80.489194 
L 400.4352 81.971318 
L 401.6256 82.762715 
L 402.816 84.00722 
L 404.0064 86.005394 
L 405.1968 89.218663 
L 406.3872 94.275086 
L 407.5776 101.657959 
L 408.768 110.365394 
L 409.9584 115.648991 
L 411.1488 111.711176 
L 413.5296 89.918704 
L 414.72 82.497219 
L 414.72 82.497219 
" clip-path="url(#p12057dd360)" style="fill: none; stroke: #0000cc; stroke-width: 1.5; stroke-linecap: square"/>
   </g>
   <g id="line2d_14">
    <path d="M 57.6 86.30976 
L 58.7904 88.343943 
L 59.9808 91.508028 
L 61.1712 96.10722 
L 63.552 108.180129 
L 64.7424 111.094442 
L 65.9328 108.014619 
L 68.3136 92.799936 
L 69.504 87.172273 
L 70.6944 83.814252 
L 71.8848 82.056355 
L 73.0752 81.231139 
L 74.2656 80.897495 
L 75.456 80.817617 
L 76.6464 80.886209 
L 77.8368 81.077057 
L 79.0272 81.416757 
L 80.2176 81.981285 
L 81.408 82.912059 
L 82.5984 84.452519 
L 83.7888 87.007053 
L 84.9792 91.202507 
L 86.1696 97.810568 
L 88.5504 115.570359 
L 89.7408 116.182588 
L 90.9312 106.232495 
L 92.1216 93.334737 
L 93.312 83.611587 
L 94.5024 77.699953 
L 95.6928 74.209589 
L 99.264 66.77269 
L 100.4544 63.474788 
L 101.6448 59.810033 
L 102.8352 56.635014 
L 104.0256 55.298866 
L 105.216 56.705022 
L 106.4064 60.304892 
L 107.5968 64.512624 
L 108.7872 67.982511 
L 109.9776 70.161202 
L 111.168 71.040956 
L 112.3584 70.780091 
L 113.5488 69.493628 
L 114.7392 67.213757 
L 115.9296 63.983235 
L 118.3104 56.443268 
L 119.5008 54.57367 
L 120.6912 55.745647 
L 121.8816 59.571618 
L 123.072 64.26711 
L 124.2624 68.220886 
L 125.4528 70.769085 
L 126.6432 71.918592 
L 127.8336 71.879132 
L 129.024 70.802442 
L 130.2144 68.715939 
L 131.4048 65.585905 
L 133.7856 57.177146 
L 134.976 54.089357 
L 136.1664 54.111619 
L 137.3568 57.611529 
L 139.7376 67.655165 
L 140.928 71.000752 
L 142.1184 72.778839 
L 143.3088 73.257078 
L 144.4992 72.677105 
L 145.6896 71.12258 
L 146.88 68.528041 
L 148.0704 64.790359 
L 150.4512 55.278617 
L 151.6416 52.546547 
L 152.832 53.89254 
L 154.0224 58.90373 
L 155.2128 64.972268 
L 156.4032 69.915951 
L 157.5936 73.050475 
L 158.784 74.585819 
L 159.9744 74.921568 
L 161.1648 74.325471 
L 162.3552 72.859953 
L 163.5456 70.403083 
L 164.736 66.725343 
L 165.9264 61.713407 
L 167.1168 55.945596 
L 168.3072 51.508168 
L 169.4976 51.446024 
L 170.688 56.489208 
L 171.8784 63.725215 
L 173.0688 69.99536 
L 174.2592 74.150552 
L 175.4496 76.427553 
L 176.64 77.413362 
L 177.8304 77.568624 
L 179.0208 77.128004 
L 180.2112 76.124595 
L 181.4016 74.420786 
L 182.592 71.71856 
L 183.7824 67.586593 
L 184.9728 61.661166 
L 186.1632 54.411162 
L 187.3536 48.60994 
L 188.544 48.886913 
L 189.7344 56.126965 
L 190.9248 65.596948 
L 192.1152 73.153349 
L 193.3056 77.917361 
L 194.496 80.632216 
L 195.6864 82.242566 
L 198.0672 84.760105 
L 199.2576 86.529375 
L 200.448 89.145205 
L 201.6384 93.031188 
L 202.8288 98.511996 
L 204.0192 105.19457 
L 205.2096 110.772583 
L 206.4 111.229436 
L 207.5904 105.259221 
L 208.7808 96.612485 
L 209.9712 89.293505 
L 211.1616 84.527028 
L 212.352 81.83212 
L 213.5424 80.385759 
L 214.7328 79.544223 
L 217.1136 78.170182 
L 218.304 77.150776 
L 219.4944 75.584992 
L 220.6848 73.119788 
L 221.8752 69.257084 
L 223.0656 63.445325 
L 225.4464 48.283169 
L 226.6368 46.624232 
L 227.8272 53.543663 
L 229.0176 64.239663 
L 230.208 73.190741 
L 231.3984 78.935064 
L 232.5888 82.282025 
L 233.7792 84.383105 
L 234.9696 86.122406 
L 236.16 88.109655 
L 237.3504 90.80033 
L 238.5408 94.549659 
L 239.7312 99.463326 
L 240.9216 104.887309 
L 242.112 108.771374 
L 243.3024 108.438325 
L 244.4928 103.523834 
L 245.6832 96.771522 
L 246.8736 90.980257 
L 248.064 87.164666 
L 249.2544 85.126718 
L 250.4448 84.36023 
L 251.6352 84.479267 
L 252.8256 85.317702 
L 254.016 86.915889 
L 255.2064 89.490615 
L 256.3968 93.381143 
L 257.5872 98.84303 
L 258.7776 105.391671 
L 259.968 110.659994 
L 261.1584 110.796595 
L 262.3488 104.793288 
L 263.5392 96.371655 
L 264.7296 89.310748 
L 265.92 84.732977 
L 267.1104 82.167226 
L 268.3008 80.830483 
L 269.4912 80.117911 
L 273.0624 78.638506 
L 274.2528 77.771942 
L 275.4432 76.398463 
L 276.6336 74.187626 
L 277.824 70.6374 
L 279.0144 65.100943 
L 281.3952 48.696214 
L 282.5856 45.029647 
L 283.776 51.012222 
L 284.9664 62.524272 
L 286.1568 72.750446 
L 287.3472 79.443207 
L 288.5376 83.370165 
L 289.728 85.841819 
L 290.9184 87.879409 
L 292.1088 90.164252 
L 293.2992 93.143008 
L 294.4896 97.036551 
L 296.8704 105.782055 
L 298.0608 107.527598 
L 299.2512 105.439214 
L 300.4416 100.450316 
L 301.632 94.964767 
L 302.8224 90.70045 
L 304.0128 88.115274 
L 305.2032 86.997692 
L 306.3936 87.028458 
L 307.584 88.024746 
L 308.7744 89.986563 
L 309.9648 93.047997 
L 311.1552 97.319153 
L 313.536 107.172306 
L 314.7264 108.82932 
L 315.9168 105.849393 
L 318.2976 93.542998 
L 319.488 88.981286 
L 320.6784 86.306396 
L 321.8688 85.113895 
L 323.0592 84.97623 
L 324.2496 85.656826 
L 325.44 87.133698 
L 326.6304 89.57055 
L 327.8208 93.256461 
L 329.0112 98.412089 
L 330.2016 104.611481 
L 331.392 109.778594 
L 332.5824 110.405658 
L 333.7728 105.218212 
L 334.9632 97.333076 
L 336.1536 90.420039 
L 337.344 85.817222 
L 338.5344 83.230542 
L 339.7248 81.960277 
L 340.9152 81.442634 
L 342.1056 81.344617 
L 343.296 81.514793 
L 344.4864 81.924201 
L 345.6768 82.635096 
L 346.8672 83.801325 
L 348.0576 85.697195 
L 349.248 88.765501 
L 350.4384 93.632287 
L 351.6288 100.850062 
L 352.8192 109.676077 
L 354.0096 115.690897 
L 355.2 112.646094 
L 357.5808 90.647297 
L 358.7712 82.815243 
L 359.9616 78.149625 
L 361.152 75.33209 
L 363.5328 71.026362 
L 364.7232 68.256048 
L 365.9136 64.626622 
L 368.2944 55.93377 
L 369.4848 53.522539 
L 370.6752 54.67275 
L 371.8656 59.047955 
L 373.056 64.469869 
L 374.2464 68.996606 
L 375.4368 71.909808 
L 376.6272 73.302073 
L 377.8176 73.478452 
L 379.008 72.649822 
L 380.1984 70.852934 
L 381.3888 67.98453 
L 382.5792 63.940778 
L 384.96 54.265675 
L 386.1504 52.184895 
L 387.3408 54.510004 
L 390.912 70.985245 
L 392.1024 73.813345 
L 393.2928 75.112713 
L 394.4832 75.296102 
L 395.6736 74.606703 
L 396.864 73.076364 
L 398.0544 70.553666 
L 399.2448 66.778507 
L 400.4352 61.609331 
L 401.6256 55.633695 
L 402.816 51.060752 
L 404.0064 51.127661 
L 405.1968 56.523614 
L 406.3872 64.073283 
L 407.5776 70.50142 
L 408.768 74.713567 
L 409.9584 77.025386 
L 411.1488 78.074858 
L 412.3392 78.354216 
L 413.5296 78.127596 
L 414.72 77.46861 
L 414.72 77.46861 
" clip-path="url(#p12057dd360)" style="fill: none; stroke-dasharray: 9.6,2.4,1.5,2.4; stroke-dashoffset: 0; stroke: #ff0000; stroke-width: 1.5"/>
   </g>
   <g id="patch_3">
    <path d="M 57.6 119.740235 
L 57.6 41.472 
" style="fill: none; stroke: #000000; stroke-width: 0.8; stroke-linejoin: miter; stroke-linecap: square"/>
   </g>
   <g id="patch_4">
    <path d="M 414.72 119.740235 
L 414.72 41.472 
" style="fill: none; stroke: #000000; stroke-width: 0.8; stroke-linejoin: miter; stroke-linecap: square"/>
   </g>
   <g id="patch_5">
    <path d="M 57.6 119.740235 
L 414.72 119.740235 
" style="fill: none; stroke: #000000; stroke-width: 0.8; stroke-linejoin: miter; stroke-linecap: square"/>
   </g>
   <g id="patch_6">
    <path d="M 57.6 41.472 
L 414.72 41.472 
" style="fill: none; stroke: #000000; stroke-width: 0.8; stroke-linejoin: miter; stroke-linecap: square"/>
   </g>
  </g>
  <g id="axes_2">
   <g id="patch_7">
    <path d="M 57.6 213.662118 
L 414.72 213.662118 
L 414.72 135.393882 
L 57.6 135.393882 
z
" style="fill: #ffffff"/>
   </g>
   <g id="matplotlib.axis_3">
    <g id="xtick_10">
     <g id="line2d_15">
      <g>
       <use xlink:href="#m09bf01a841" x="57.6" y="213.662118" style="stroke: #000000; stroke-width: 0.8"/>
      </g>
     </g>
    </g>
    <g id="xtick_11">
     <g id="line2d_16">
      <g>
       <use xlink:href="#m09bf01a841" x="105.216" y="213.662118" style="stroke: #000000; stroke-width: 0.8"/>
      </g>
     </g>
    </g>
    <g id="xtick_12">
     <g id="line2d_17">
      <g>
       <use xlink:href="#m09bf01a841" x="152.832" y="213.662118" style="stroke: #000000; stroke-width: 0.8"/>
      </g>
     </g>
    </g>
    <g id="xtick_13">
     <g id="line2d_18">
      <g>
       <use xlink:href="#m09bf01a841" x="200.448" y="213.662118" style="stroke: #000000; stroke-width: 0.8"/>
      </g>
     </g>
    </g>
    <g id="xtick_14">
     <g id="line2d_19">
      <g>
       <use xlink:href="#m09bf01a841" x="248.064" y="213.662118" style="stroke: #000000; stroke-width: 0.8"/>
      </g>
     </g>
    </g>
    <g id="xtick_15">
     <g id="line2d_20">
      <g>
       <use xlink:href="#m09bf01a841" x="295.68" y="213.662118" style="stroke: #000000; stroke-width: 0.8"/>
      </g>
     </g>
    </g>
    <g id="xtick_16">
     <g id="line2d_21">
      <g>
       <use xlink:href="#m09bf01a841" x="343.296" y="213.662118" style="stroke: #000000; stroke-width: 0.8"/>
      </g>
     </g>
    </g>
    <g id="xtick_17">
     <g id="line2d_22">
      <g>
       <use xlink:href="#m09bf01a841" x="390.912" y="213.662118" style="stroke: #000000; stroke-width: 0.8"/>
      </g>
     </g>
    </g>
    <g id="xtick_18">
     <g id="line2d_23">
      <g>
       <use xlink:href="#m09bf01a841" x="414.72" y="213.662118" style="stroke: #000000; stroke-width: 0.8"/>
      </g>
     </g>
    </g>
   </g>
   <g id="matplotlib.axis_4">
    <g id="ytick_4">
     <g id="line2d_24">
      <g>
       <use xlink:href="#m21c93b657c" x="57.6" y="205.971163" style="stroke: #000000; stroke-width: 0.8"/>
      </g>
     </g>
     <g id="text_4">
      <!-- −20 -->
      <g transform="translate(29.495313 209.770382) scale(0.1 -0.1)">
       <defs>
        <path id="DejaVuSans-32" d="M 1228 531 
L 3431 531 
L 3431 0 
L 469 0 
L 469 531 
Q 828 903 1448 1529 
Q 2069 2156 2228 2338 
Q 2531 2678 2651 2914 
Q 2772 3150 2772 3378 
Q 2772 3750 2511 3984 
Q 2250 4219 1831 4219 
Q 1534 4219 1204 4116 
Q 875 4013 500 3803 
L 500 4441 
Q 881 4594 1212 4672 
Q 1544 4750 1819 4750 
Q 2544 4750 2975 4387 
Q 3406 4025 3406 3419 
Q 3406 3131 3298 2873 
Q 3191 2616 2906 2266 
Q 2828 2175 2409 1742 
Q 1991 1309 1228 531 
z
" transform="scale(0.015625)"/>
       </defs>
       <use xlink:href="#DejaVuSans-2212"/>
       <use xlink:href="#DejaVuSans-32" x="83.789062"/>
       <use xlink:href="#DejaVuSans-30" x="147.412109"/>
      </g>
     </g>
    </g>
    <g id="ytick_5">
     <g id="line2d_25">
      <g>
       <use xlink:href="#m21c93b657c" x="57.6" y="174.221255" style="stroke: #000000; stroke-width: 0.8"/>
      </g>
     </g>
     <g id="text_5">
      <!-- 0 -->
      <g transform="translate(44.2375 178.020473) scale(0.1 -0.1)">
       <use xlink:href="#DejaVuSans-30"/>
      </g>
     </g>
    </g>
    <g id="ytick_6">
     <g id="line2d_26">
      <g>
       <use xlink:href="#m21c93b657c" x="57.6" y="142.471346" style="stroke: #000000; stroke-width: 0.8"/>
      </g>
     </g>
     <g id="text_6">
      <!-- 20 -->
      <g transform="translate(37.875 146.270565) scale(0.1 -0.1)">
       <use xlink:href="#DejaVuSans-32"/>
       <use xlink:href="#DejaVuSans-30" x="63.623047"/>
      </g>
     </g>
    </g>
   </g>
   <g id="line2d_27">
    <path d="M 57.6 181.131819 
L 58.7904 184.169127 
L 59.9808 188.548639 
L 62.3616 200.544572 
L 63.552 203.257354 
L 64.7424 197.759805 
L 65.9328 186.219452 
L 67.1232 177.032988 
L 68.3136 173.256715 
L 69.504 172.686064 
L 73.0752 174.07827 
L 77.8368 175.157243 
L 79.0272 175.69064 
L 80.2176 176.556687 
L 81.408 177.986578 
L 82.5984 180.363073 
L 83.7888 184.295722 
L 84.9792 190.616821 
L 87.36 209.535849 
L 88.5504 209.977593 
L 89.7408 193.055806 
L 90.9312 173.978999 
L 92.1216 166.124803 
L 93.312 165.060145 
L 94.5024 165.439697 
L 95.6928 165.313123 
L 96.8832 164.23842 
L 98.0736 162.18749 
L 99.264 159.273671 
L 100.4544 155.885201 
L 101.6448 153.019419 
L 102.8352 152.353884 
L 104.0256 155.148657 
L 106.4064 165.369594 
L 107.5968 168.266402 
L 108.7872 169.154424 
L 109.9776 168.745902 
L 111.168 167.545557 
L 112.3584 165.714412 
L 113.5488 163.205899 
L 114.7392 159.955867 
L 117.12 152.68273 
L 118.3104 151.347978 
L 119.5008 153.90913 
L 121.8816 165.427983 
L 123.072 168.870162 
L 124.2624 169.996134 
L 125.4528 169.689032 
L 126.6432 168.583016 
L 127.8336 166.885327 
L 129.024 164.5324 
L 130.2144 161.372716 
L 132.5952 153.173109 
L 133.7856 150.375158 
L 134.976 151.484473 
L 136.1664 157.144894 
L 137.3568 164.176931 
L 138.5472 168.982231 
L 139.7376 170.894626 
L 140.928 170.956378 
L 142.1184 170.098266 
L 143.3088 168.700401 
L 144.4992 166.756497 
L 145.6896 164.070191 
L 146.88 160.417279 
L 149.2608 151.119362 
L 150.4512 148.721875 
L 151.6416 151.631266 
L 154.0224 167.041251 
L 155.2128 171.255228 
L 156.4032 172.45309 
L 157.5936 172.128772 
L 158.784 171.180674 
L 159.9744 169.870268 
L 161.1648 168.107419 
L 162.3552 165.630361 
L 163.5456 162.103811 
L 164.736 157.292018 
L 165.9264 151.586186 
L 167.1168 147.101916 
L 168.3072 148.005973 
L 169.4976 156.166391 
L 170.688 166.250608 
L 171.8784 172.370246 
L 173.0688 174.341152 
L 174.2592 174.287637 
L 176.64 172.815409 
L 177.8304 171.922301 
L 179.0208 170.782142 
L 180.2112 169.147149 
L 181.4016 166.671412 
L 182.592 162.893323 
L 183.7824 157.336599 
L 184.9728 150.102299 
L 186.1632 143.611196 
L 187.3536 144.19641 
L 188.544 155.64818 
L 189.7344 169.294156 
L 190.9248 176.386599 
L 192.1152 178.095822 
L 193.3056 177.90982 
L 194.496 177.60563 
L 195.6864 177.745085 
L 196.8768 178.474572 
L 198.0672 179.905663 
L 199.2576 182.254006 
L 200.448 185.861891 
L 201.6384 191.067039 
L 202.8288 197.629846 
L 204.0192 203.276142 
L 205.2096 202.67659 
L 206.4 192.834242 
L 207.5904 180.709089 
L 208.7808 173.882876 
L 209.9712 171.97639 
L 211.1616 172.093439 
L 212.352 172.571474 
L 213.5424 172.856257 
L 214.7328 172.844472 
L 215.9232 172.533079 
L 217.1136 171.885205 
L 218.304 170.780174 
L 219.4944 168.978472 
L 220.6848 166.078833 
L 221.8752 161.497319 
L 223.0656 154.653913 
L 224.256 146.014712 
L 225.4464 139.954812 
L 226.6368 145.444225 
L 227.8272 162.184515 
L 229.0176 175.463969 
L 230.208 180.078317 
L 231.3984 180.505634 
L 232.5888 180.201974 
L 233.7792 180.406897 
L 234.9696 181.446368 
L 236.16 183.444795 
L 237.3504 186.536671 
L 238.5408 190.775481 
L 239.7312 195.696489 
L 240.9216 199.506898 
L 242.112 198.970081 
L 243.3024 192.539058 
L 244.4928 183.974827 
L 245.6832 178.165066 
L 246.8736 175.94513 
L 248.064 175.826787 
L 249.2544 176.576666 
L 250.4448 177.705198 
L 251.6352 179.189694 
L 252.8256 181.235523 
L 254.016 184.164848 
L 255.2064 188.322726 
L 257.5872 199.549516 
L 258.7776 202.289126 
L 259.968 197.740622 
L 261.1584 187.322625 
L 262.3488 178.394188 
L 263.5392 174.362508 
L 264.7296 173.588312 
L 265.92 174.029137 
L 269.4912 176.207068 
L 270.6816 177.217158 
L 271.872 178.697006 
L 273.0624 180.978062 
L 274.2528 184.526967 
L 275.4432 189.898981 
L 277.824 204.841149 
L 279.0144 206.304769 
L 280.2048 195.628068 
L 281.3952 180.320831 
L 282.5856 171.641348 
L 283.776 169.372678 
L 284.9664 169.461547 
L 286.1568 169.720035 
L 287.3472 169.441065 
L 288.5376 168.431332 
L 289.728 166.555239 
L 290.9184 163.592906 
L 292.1088 159.291764 
L 294.4896 148.193161 
L 295.68 146.397162 
L 296.8704 152.160275 
L 298.0608 162.764015 
L 299.2512 170.921277 
L 300.4416 174.275011 
L 301.632 174.754534 
L 302.8224 174.232522 
L 305.2032 172.781774 
L 306.3936 171.939998 
L 307.584 170.807984 
L 308.7744 169.126154 
L 309.9648 166.528276 
L 311.1552 162.514886 
L 312.3456 156.572093 
L 313.536 148.877275 
L 314.7264 142.356945 
L 315.9168 144.213754 
L 318.2976 171.320153 
L 319.488 177.696937 
L 320.6784 178.941879 
L 323.0592 178.505853 
L 324.2496 178.931658 
L 325.44 180.092672 
L 326.6304 182.139786 
L 327.8208 185.322564 
L 329.0112 189.903209 
L 331.392 201.164391 
L 332.5824 202.057989 
L 333.7728 194.948717 
L 334.9632 183.946247 
L 336.1536 176.381621 
L 337.344 173.622035 
L 338.5344 173.406315 
L 340.9152 174.622229 
L 343.296 175.910674 
L 344.4864 176.791104 
L 345.6768 178.095614 
L 346.8672 180.128673 
L 348.0576 183.336521 
L 349.248 188.308939 
L 350.4384 195.482383 
L 351.6288 203.805098 
L 352.8192 207.86105 
L 354.0096 199.580951 
L 355.2 183.092288 
L 356.3904 172.08024 
L 357.5808 168.738426 
L 358.7712 168.610651 
L 359.9616 168.889758 
L 361.152 168.622904 
L 362.3424 167.556201 
L 363.5328 165.558541 
L 364.7232 162.452296 
L 365.9136 158.099332 
L 367.104 152.829878 
L 368.2944 148.356502 
L 369.4848 148.248231 
L 370.6752 154.813932 
L 371.8656 164.263047 
L 373.056 170.80872 
L 374.2464 173.315939 
L 375.4368 173.513756 
L 376.6272 172.84528 
L 377.8176 171.891156 
L 379.008 170.715639 
L 380.1984 169.147759 
L 381.3888 166.891687 
L 382.5792 163.557051 
L 383.7696 158.744544 
L 386.1504 146.31846 
L 387.3408 144.9772 
L 388.5312 152.785649 
L 389.7216 165.10368 
L 390.912 173.304623 
L 392.1024 176.096236 
L 393.2928 176.259339 
L 395.6736 175.385188 
L 396.864 175.250557 
L 398.0544 175.367653 
L 399.2448 175.735041 
L 400.4352 176.40935 
L 401.6256 177.532332 
L 402.816 179.365084 
L 404.0064 182.338153 
L 405.1968 187.082019 
L 406.3872 194.236276 
L 407.5776 203.309073 
L 408.768 209.465775 
L 409.9584 202.931284 
L 411.1488 184.931514 
L 412.3392 171.618378 
L 413.5296 167.398839 
L 414.72 167.154683 
L 414.72 167.154683 
" clip-path="url(#p3e028552d6)" style="fill: none; stroke: #0000cc; stroke-width: 1.5; stroke-linecap: square"/>
   </g>
   <g id="line2d_28">
    <path d="M 57.6 181.131819 
L 58.7904 184.169398 
L 59.9808 188.549029 
L 62.3616 200.544486 
L 63.552 203.256672 
L 64.7424 197.758555 
L 65.9328 186.217479 
L 67.1232 177.030266 
L 68.3136 173.253803 
L 69.504 172.683451 
L 73.0752 174.076303 
L 77.8368 175.15047 
L 79.0272 175.680117 
L 80.2176 176.539993 
L 81.408 177.959699 
L 82.5984 180.319487 
L 83.7888 184.22564 
L 84.9792 190.509411 
L 87.36 209.442064 
L 88.5504 210.104471 
L 89.7408 193.358003 
L 90.9312 174.154803 
L 92.1216 166.154649 
L 93.312 165.043578 
L 94.5024 165.422949 
L 95.6928 165.307912 
L 96.8832 164.246234 
L 98.0736 162.208027 
L 99.264 159.305921 
L 100.4544 155.924558 
L 101.6448 153.052744 
L 102.8352 152.359896 
L 104.0256 155.11535 
L 106.4064 165.320072 
L 107.5968 168.236402 
L 108.7872 169.141064 
L 109.9776 168.742819 
L 111.168 167.548979 
L 112.3584 165.723626 
L 113.5488 163.222122 
L 114.7392 159.980728 
L 117.12 152.715743 
L 118.3104 151.363362 
L 119.5008 153.890701 
L 121.8816 165.383631 
L 123.072 168.840316 
L 124.2624 169.979723 
L 125.4528 169.680459 
L 126.6432 168.578455 
L 127.8336 166.883545 
L 129.024 164.534072 
L 130.2144 161.379788 
L 132.5952 153.196097 
L 133.7856 150.39962 
L 134.976 151.494889 
L 136.1664 157.131083 
L 137.3568 164.14876 
L 138.5472 168.955182 
L 139.7376 170.873966 
L 140.928 170.940102 
L 142.1184 170.083209 
L 143.3088 168.684377 
L 144.4992 166.738424 
L 145.6896 164.050107 
L 146.88 160.397103 
L 149.2608 151.121097 
L 150.4512 148.750512 
L 151.6416 151.67832 
L 154.0224 167.046193 
L 155.2128 171.239909 
L 156.4032 172.42964 
L 157.5936 172.101785 
L 158.784 171.149525 
L 159.9744 169.832057 
L 161.1648 168.058206 
L 162.3552 165.565815 
L 163.5456 162.021061 
L 164.736 157.195844 
L 165.9264 151.503628 
L 167.1168 147.096529 
L 168.3072 148.134592 
L 169.4976 156.362133 
L 170.688 166.375715 
L 171.8784 172.396258 
L 173.0688 174.313937 
L 174.2592 174.24155 
L 175.4496 173.560183 
L 177.8304 171.838594 
L 179.0208 170.666811 
L 180.2112 168.981908 
L 181.4016 166.430968 
L 182.592 162.548196 
L 183.7824 156.875319 
L 184.9728 149.610847 
L 186.1632 143.421906 
L 187.3536 144.762356 
L 188.544 156.682485 
L 189.7344 169.94768 
L 190.9248 176.535523 
L 192.1152 178.024372 
L 194.496 177.499402 
L 195.6864 177.652162 
L 196.8768 178.385718 
L 198.0672 179.81124 
L 199.2576 182.147667 
L 200.448 185.744009 
L 201.6384 190.954113 
L 202.8288 197.573797 
L 204.0192 203.370817 
L 205.2096 202.953024 
L 206.4 193.090289 
L 207.5904 180.74517 
L 208.7808 173.760895 
L 209.9712 171.806588 
L 211.1616 171.913644 
L 212.352 172.375416 
L 213.5424 172.621088 
L 214.7328 172.537605 
L 215.9232 172.108406 
L 217.1136 171.273469 
L 218.304 169.874221 
L 219.4944 167.614488 
L 220.6848 164.025659 
L 221.8752 158.51394 
L 224.256 142.848237 
L 225.4464 141.332773 
L 226.6368 152.874575 
L 227.8272 169.022443 
L 229.0176 177.780255 
L 230.208 179.892279 
L 232.5888 179.559522 
L 233.7792 180.017468 
L 234.9696 181.309328 
L 236.16 183.572776 
L 237.3504 186.993413 
L 238.5408 191.64781 
L 239.7312 196.952647 
L 240.9216 200.686099 
L 242.112 199.102009 
L 243.3024 191.19284 
L 244.4928 182.080956 
L 245.6832 176.661557 
L 246.8736 174.933915 
L 248.064 175.058984 
L 249.2544 175.829941 
L 250.4448 176.836173 
L 251.6352 178.093066 
L 252.8256 179.809426 
L 254.016 182.30794 
L 255.2064 185.995915 
L 256.3968 191.229081 
L 257.5872 197.735712 
L 258.7776 203.180882 
L 259.968 202.30559 
L 261.1584 192.441785 
L 262.3488 180.593508 
L 263.5392 173.993116 
L 264.7296 172.166487 
L 265.92 172.303397 
L 267.1104 172.801908 
L 268.3008 173.132125 
L 269.4912 173.203934 
L 270.6816 173.030799 
L 271.872 172.603817 
L 273.0624 171.849296 
L 274.2528 170.602606 
L 275.4432 168.570221 
L 276.6336 165.277653 
L 277.824 160.057932 
L 279.0144 152.355362 
L 280.2048 143.243453 
L 281.3952 138.951529 
L 282.5856 148.860043 
L 283.776 167.228911 
L 284.9664 178.404103 
L 286.1568 181.32193 
L 287.3472 181.263409 
L 288.5376 181.070028 
L 289.728 181.610489 
L 290.9184 183.091773 
L 292.1088 185.597853 
L 293.2992 189.162122 
L 295.68 197.482399 
L 296.8704 198.621293 
L 298.0608 194.739944 
L 299.2512 187.370491 
L 300.4416 180.926292 
L 301.632 177.648365 
L 302.8224 176.874458 
L 304.0128 177.38452 
L 305.2032 178.508442 
L 306.3936 180.095095 
L 307.584 182.280412 
L 308.7744 185.325256 
L 309.9648 189.454941 
L 312.3456 199.103976 
L 313.536 200.147513 
L 314.7264 194.923874 
L 315.9168 185.952977 
L 317.1072 178.92087 
L 318.2976 175.831291 
L 319.488 175.330603 
L 320.6784 175.91927 
L 321.8688 176.90755 
L 323.0592 178.173126 
L 324.2496 179.869282 
L 325.44 182.289264 
L 326.6304 185.808344 
L 327.8208 190.748565 
L 329.0112 196.870257 
L 330.2016 202.13556 
L 331.392 201.890529 
L 332.5824 193.30657 
L 333.7728 182.054906 
L 334.9632 175.205754 
L 336.1536 173.04582 
L 337.344 173.062966 
L 339.7248 174.182464 
L 343.296 175.528797 
L 344.4864 176.230686 
L 345.6768 177.322805 
L 346.8672 179.077098 
L 348.0576 181.920227 
L 349.248 186.480244 
L 350.4384 193.445045 
L 351.6288 202.564687 
L 352.8192 209.552473 
L 354.0096 204.469203 
L 355.2 186.558024 
L 356.3904 172.137349 
L 357.5808 167.261266 
L 358.7712 166.866868 
L 359.9616 167.168855 
L 361.152 166.869324 
L 362.3424 165.652178 
L 363.5328 163.42911 
L 364.7232 160.160789 
L 367.104 151.922203 
L 368.2944 149.964529 
L 369.4848 152.574382 
L 371.8656 166.074019 
L 373.056 170.030277 
L 374.2464 171.271626 
L 375.4368 170.984844 
L 376.6272 169.960609 
L 377.8176 168.445157 
L 379.008 166.355402 
L 380.1984 163.458479 
L 381.3888 159.533563 
L 383.7696 150.081687 
L 384.96 148.507853 
L 386.1504 152.797584 
L 387.3408 161.267477 
L 388.5312 168.521759 
L 389.7216 172.016953 
L 390.912 172.763672 
L 392.1024 172.257042 
L 393.2928 171.258839 
L 394.4832 169.937893 
L 395.6736 168.159494 
L 396.864 165.638537 
L 398.0544 162.019437 
L 399.2448 157.047875 
L 400.4352 151.133701 
L 401.6256 146.54736 
L 402.816 147.752568 
L 404.0064 156.544477 
L 405.1968 166.970988 
L 406.3872 173.019759 
L 407.5776 174.840588 
L 408.768 174.72337 
L 412.3392 172.685896 
L 413.5296 171.840726 
L 414.72 170.656866 
L 414.72 170.656866 
" clip-path="url(#p3e028552d6)" style="fill: none; stroke-dasharray: 9.6,2.4,1.5,2.4; stroke-dashoffset: 0; stroke: #ff0000; stroke-width: 1.5"/>
   </g>
   <g id="patch_8">
    <path d="M 57.6 213.662118 
L 57.6 135.393882 
" style="fill: none; stroke: #000000; stroke-width: 0.8; stroke-linejoin: miter; stroke-linecap: square"/>
   </g>
   <g id="patch_9">
    <path d="M 414.72 213.662118 
L 414.72 135.393882 
" style="fill: none; stroke: #000000; stroke-width: 0.8; stroke-linejoin: miter; stroke-linecap: square"/>
   </g>
   <g id="patch_10">
    <path d="M 57.6 213.662118 
L 414.72 213.662118 
" style="fill: none; stroke: #000000; stroke-width: 0.8; stroke-linejoin: miter; stroke-linecap: square"/>
   </g>
   <g id="patch_11">
    <path d="M 57.6 135.393882 
L 414.72 135.393882 
" style="fill: none; stroke: #000000; stroke-width: 0.8; stroke-linejoin: miter; stroke-linecap: square"/>
   </g>
  </g>
  <g id="axes_3">
   <g id="patch_12">
    <path d="M 57.6 307.584 
L 414.72 307.584 
L 414.72 229.315765 
L 57.6 229.315765 
z
" style="fill: #ffffff"/>
   </g>
   <g id="matplotlib.axis_5">
    <g id="xtick_19">
     <g id="line2d_29">
      <g>
       <use xlink:href="#m09bf01a841" x="57.6" y="307.584" style="stroke: #000000; stroke-width: 0.8"/>
      </g>
     </g>
     <g id="text_7">
      <!-- 10 -->
      <g transform="translate(51.2375 322.182437) scale(0.1 -0.1)">
       <use xlink:href="#DejaVuSans-31"/>
       <use xlink:href="#DejaVuSans-30" x="63.623047"/>
      </g>
     </g>
    </g>
    <g id="xtick_20">
     <g id="line2d_30">
      <g>
       <use xlink:href="#m09bf01a841" x="105.216" y="307.584" style="stroke: #000000; stroke-width: 0.8"/>
      </g>
     </g>
     <g id="text_8">
      <!-- 12 -->
      <g transform="translate(98.8535 322.182437) scale(0.1 -0.1)">
       <use xlink:href="#DejaVuSans-31"/>
       <use xlink:href="#DejaVuSans-32" x="63.623047"/>
      </g>
     </g>
    </g>
    <g id="xtick_21">
     <g id="line2d_31">
      <g>
       <use xlink:href="#m09bf01a841" x="152.832" y="307.584" style="stroke: #000000; stroke-width: 0.8"/>
      </g>
     </g>
     <g id="text_9">
      <!-- 14 -->
      <g transform="translate(146.4695 322.182437) scale(0.1 -0.1)">
       <defs>
        <path id="DejaVuSans-34" d="M 2419 4116 
L 825 1625 
L 2419 1625 
L 2419 4116 
z
M 2253 4666 
L 3047 4666 
L 3047 1625 
L 3713 1625 
L 3713 1100 
L 3047 1100 
L 3047 0 
L 2419 0 
L 2419 1100 
L 313 1100 
L 313 1709 
L 2253 4666 
z
" transform="scale(0.015625)"/>
       </defs>
       <use xlink:href="#DejaVuSans-31"/>
       <use xlink:href="#DejaVuSans-34" x="63.623047"/>
      </g>
     </g>
    </g>
    <g id="xtick_22">
     <g id="line2d_32">
      <g>
       <use xlink:href="#m09bf01a841" x="200.448" y="307.584" style="stroke: #000000; stroke-width: 0.8"/>
      </g>
     </g>
     <g id="text_10">
      <!-- 16 -->
      <g transform="translate(194.0855 322.182437) scale(0.1 -0.1)">
       <defs>
        <path id="DejaVuSans-36" d="M 2113 2584 
Q 1688 2584 1439 2293 
Q 1191 2003 1191 1497 
Q 1191 994 1439 701 
Q 1688 409 2113 409 
Q 2538 409 2786 701 
Q 3034 994 3034 1497 
Q 3034 2003 2786 2293 
Q 2538 2584 2113 2584 
z
M 3366 4563 
L 3366 3988 
Q 3128 4100 2886 4159 
Q 2644 4219 2406 4219 
Q 1781 4219 1451 3797 
Q 1122 3375 1075 2522 
Q 1259 2794 1537 2939 
Q 1816 3084 2150 3084 
Q 2853 3084 3261 2657 
Q 3669 2231 3669 1497 
Q 3669 778 3244 343 
Q 2819 -91 2113 -91 
Q 1303 -91 875 529 
Q 447 1150 447 2328 
Q 447 3434 972 4092 
Q 1497 4750 2381 4750 
Q 2619 4750 2861 4703 
Q 3103 4656 3366 4563 
z
" transform="scale(0.015625)"/>
       </defs>
       <use xlink:href="#DejaVuSans-31"/>
       <use xlink:href="#DejaVuSans-36" x="63.623047"/>
      </g>
     </g>
    </g>
    <g id="xtick_23">
     <g id="line2d_33">
      <g>
       <use xlink:href="#m09bf01a841" x="248.064" y="307.584" style="stroke: #000000; stroke-width: 0.8"/>
      </g>
     </g>
     <g id="text_11">
      <!-- 18 -->
      <g transform="translate(241.7015 322.182437) scale(0.1 -0.1)">
       <defs>
        <path id="DejaVuSans-38" d="M 2034 2216 
Q 1584 2216 1326 1975 
Q 1069 1734 1069 1313 
Q 1069 891 1326 650 
Q 1584 409 2034 409 
Q 2484 409 2743 651 
Q 3003 894 3003 1313 
Q 3003 1734 2745 1975 
Q 2488 2216 2034 2216 
z
M 1403 2484 
Q 997 2584 770 2862 
Q 544 3141 544 3541 
Q 544 4100 942 4425 
Q 1341 4750 2034 4750 
Q 2731 4750 3128 4425 
Q 3525 4100 3525 3541 
Q 3525 3141 3298 2862 
Q 3072 2584 2669 2484 
Q 3125 2378 3379 2068 
Q 3634 1759 3634 1313 
Q 3634 634 3220 271 
Q 2806 -91 2034 -91 
Q 1263 -91 848 271 
Q 434 634 434 1313 
Q 434 1759 690 2068 
Q 947 2378 1403 2484 
z
M 1172 3481 
Q 1172 3119 1398 2916 
Q 1625 2713 2034 2713 
Q 2441 2713 2670 2916 
Q 2900 3119 2900 3481 
Q 2900 3844 2670 4047 
Q 2441 4250 2034 4250 
Q 1625 4250 1398 4047 
Q 1172 3844 1172 3481 
z
" transform="scale(0.015625)"/>
       </defs>
       <use xlink:href="#DejaVuSans-31"/>
       <use xlink:href="#DejaVuSans-38" x="63.623047"/>
      </g>
     </g>
    </g>
    <g id="xtick_24">
     <g id="line2d_34">
      <g>
       <use xlink:href="#m09bf01a841" x="295.68" y="307.584" style="stroke: #000000; stroke-width: 0.8"/>
      </g>
     </g>
     <g id="text_12">
      <!-- 20 -->
      <g transform="translate(289.3175 322.182437) scale(0.1 -0.1)">
       <use xlink:href="#DejaVuSans-32"/>
       <use xlink:href="#DejaVuSans-30" x="63.623047"/>
      </g>
     </g>
    </g>
    <g id="xtick_25">
     <g id="line2d_35">
      <g>
       <use xlink:href="#m09bf01a841" x="343.296" y="307.584" style="stroke: #000000; stroke-width: 0.8"/>
      </g>
     </g>
     <g id="text_13">
      <!-- 22 -->
      <g transform="translate(336.9335 322.182437) scale(0.1 -0.1)">
       <use xlink:href="#DejaVuSans-32"/>
       <use xlink:href="#DejaVuSans-32" x="63.623047"/>
      </g>
     </g>
    </g>
    <g id="xtick_26">
     <g id="line2d_36">
      <g>
       <use xlink:href="#m09bf01a841" x="390.912" y="307.584" style="stroke: #000000; stroke-width: 0.8"/>
      </g>
     </g>
     <g id="text_14">
      <!-- 24 -->
      <g transform="translate(384.5495 322.182437) scale(0.1 -0.1)">
       <use xlink:href="#DejaVuSans-32"/>
       <use xlink:href="#DejaVuSans-34" x="63.623047"/>
      </g>
     </g>
    </g>
    <g id="xtick_27">
     <g id="line2d_37">
      <g>
       <use xlink:href="#m09bf01a841" x="414.72" y="307.584" style="stroke: #000000; stroke-width: 0.8"/>
      </g>
     </g>
     <g id="text_15">
      <!-- 25 -->
      <g transform="translate(408.3575 322.182437) scale(0.1 -0.1)">
       <defs>
        <path id="DejaVuSans-35" d="M 691 4666 
L 3169 4666 
L 3169 4134 
L 1269 4134 
L 1269 2991 
Q 1406 3038 1543 3061 
Q 1681 3084 1819 3084 
Q 2600 3084 3056 2656 
Q 3513 2228 3513 1497 
Q 3513 744 3044 326 
Q 2575 -91 1722 -91 
Q 1428 -91 1123 -41 
Q 819 9 494 109 
L 494 744 
Q 775 591 1075 516 
Q 1375 441 1709 441 
Q 2250 441 2565 725 
Q 2881 1009 2881 1497 
Q 2881 1984 2565 2268 
Q 2250 2553 1709 2553 
Q 1456 2553 1204 2497 
Q 953 2441 691 2322 
L 691 4666 
z
" transform="scale(0.015625)"/>
       </defs>
       <use xlink:href="#DejaVuSans-32"/>
       <use xlink:href="#DejaVuSans-35" x="63.623047"/>
      </g>
     </g>
    </g>
   </g>
   <g id="matplotlib.axis_6">
    <g id="ytick_7">
     <g id="line2d_38">
      <g>
       <use xlink:href="#m21c93b657c" x="57.6" y="277.986513" style="stroke: #000000; stroke-width: 0.8"/>
      </g>
     </g>
     <g id="text_16">
      <!-- 20 -->
      <g transform="translate(37.875 281.785732) scale(0.1 -0.1)">
       <use xlink:href="#DejaVuSans-32"/>
       <use xlink:href="#DejaVuSans-30" x="63.623047"/>
      </g>
     </g>
    </g>
    <g id="ytick_8">
     <g id="line2d_39">
      <g>
       <use xlink:href="#m21c93b657c" x="57.6" y="239.572174" style="stroke: #000000; stroke-width: 0.8"/>
      </g>
     </g>
     <g id="text_17">
      <!-- 40 -->
      <g transform="translate(37.875 243.371393) scale(0.1 -0.1)">
       <use xlink:href="#DejaVuSans-34"/>
       <use xlink:href="#DejaVuSans-30" x="63.623047"/>
      </g>
     </g>
    </g>
   </g>
   <g id="line2d_40">
    <path d="M 57.6 286.739639 
L 58.7904 288.86055 
L 59.9808 289.159981 
L 61.1712 286.255784 
L 62.3616 278.045104 
L 64.7424 248.49402 
L 65.9328 242.554321 
L 67.1232 247.147743 
L 69.504 263.462713 
L 70.6944 270.2525 
L 71.8848 276.067954 
L 73.0752 281.113944 
L 74.2656 285.518834 
L 75.456 289.370658 
L 76.6464 292.738658 
L 77.8368 295.679706 
L 79.0272 298.237728 
L 80.2176 300.436539 
L 81.408 302.257854 
L 82.5984 303.57913 
L 83.7888 304.002352 
L 84.9792 302.410051 
L 86.1696 296.032396 
L 87.36 279.893999 
L 88.5504 252.949361 
L 89.7408 232.873412 
L 90.9312 235.781228 
L 92.1216 248.264246 
L 93.312 258.569332 
L 94.5024 265.764244 
L 95.6928 270.980518 
L 96.8832 274.742142 
L 98.0736 277.023551 
L 99.264 277.440519 
L 100.4544 275.365699 
L 101.6448 270.296149 
L 104.0256 255.644364 
L 105.216 252.206406 
L 106.4064 253.542039 
L 107.5968 257.878414 
L 109.9776 268.224878 
L 111.168 272.661577 
L 112.3584 276.197941 
L 113.5488 278.523358 
L 114.7392 279.133359 
L 115.9296 277.271804 
L 117.12 272.178098 
L 119.5008 255.67433 
L 120.6912 251.1191 
L 121.8816 252.110169 
L 123.072 256.701362 
L 125.4528 267.889955 
L 126.6432 272.731116 
L 127.8336 276.715152 
L 129.024 279.6029 
L 130.2144 280.964532 
L 131.4048 280.057676 
L 132.5952 275.875228 
L 133.7856 267.886086 
L 134.976 257.872834 
L 136.1664 250.626674 
L 137.3568 249.777505 
L 138.5472 254.031141 
L 140.928 266.230865 
L 142.1184 271.672364 
L 143.3088 276.315473 
L 144.4992 280.034237 
L 145.6896 282.568274 
L 146.88 283.380375 
L 148.0704 281.503618 
L 149.2608 275.650462 
L 150.4512 265.428925 
L 151.6416 253.973571 
L 152.832 247.633845 
L 154.0224 249.099759 
L 155.2128 255.090444 
L 157.5936 268.337448 
L 158.784 273.898323 
L 159.9744 278.655217 
L 161.1648 282.566576 
L 162.3552 285.45797 
L 163.5456 286.893373 
L 164.736 285.955522 
L 165.9264 281.071949 
L 167.1168 270.710069 
L 168.3072 256.502449 
L 169.4976 246.000228 
L 170.688 245.400219 
L 171.8784 251.715724 
L 174.2592 266.687197 
L 175.4496 272.861946 
L 176.64 278.207332 
L 177.8304 282.836082 
L 179.0208 286.799686 
L 180.2112 290.078629 
L 181.4016 292.523756 
L 182.592 293.701073 
L 183.7824 292.561061 
L 184.9728 286.963214 
L 186.1632 274.060073 
L 187.3536 254.867593 
L 188.544 240.677177 
L 189.7344 241.123397 
L 193.3056 266.891495 
L 194.496 273.171734 
L 195.6864 278.461635 
L 196.8768 282.929099 
L 198.0672 286.594637 
L 199.2576 289.320925 
L 200.448 290.686526 
L 201.6384 289.708402 
L 202.8288 284.501414 
L 204.0192 272.801196 
L 205.2096 255.848893 
L 206.4 243.115945 
L 207.5904 242.827822 
L 208.7808 250.510362 
L 209.9712 259.235549 
L 211.1616 266.762826 
L 212.352 273.103568 
L 213.5424 278.54262 
L 214.7328 283.260656 
L 215.9232 287.361925 
L 217.1136 290.90928 
L 218.304 293.925586 
L 219.4944 296.361612 
L 220.6848 298.003158 
L 221.8752 298.238034 
L 223.0656 295.545628 
L 224.256 286.817376 
L 225.4464 268.625244 
L 226.6368 245.795293 
L 227.8272 235.636526 
L 229.0176 242.193984 
L 230.208 253.10653 
L 231.3984 262.104467 
L 232.5888 269.007273 
L 233.7792 274.485863 
L 234.9696 278.835405 
L 236.16 282.015215 
L 237.3504 283.675585 
L 238.5408 283.048925 
L 239.7312 278.891541 
L 240.9216 270.129671 
L 242.112 258.183434 
L 243.3024 248.85531 
L 244.4928 247.378386 
L 245.6832 252.266026 
L 248.064 265.939695 
L 249.2544 271.879268 
L 250.4448 277.010675 
L 251.6352 281.339656 
L 252.8256 284.780312 
L 254.016 287.062585 
L 255.2064 287.556922 
L 256.3968 285.014201 
L 257.5872 277.582166 
L 259.968 250.283109 
L 261.1584 243.906907 
L 262.3488 247.442545 
L 264.7296 262.937532 
L 265.92 269.688984 
L 267.1104 275.507029 
L 268.3008 280.555099 
L 269.4912 284.937006 
L 270.6816 288.705141 
L 271.872 291.854532 
L 273.0624 294.271224 
L 274.2528 295.593759 
L 275.4432 294.897593 
L 276.6336 290.145668 
L 277.824 278.104961 
L 279.0144 258.138346 
L 280.2048 240.723021 
L 281.3952 238.889946 
L 282.5856 247.795257 
L 283.776 257.639958 
L 284.9664 265.612834 
L 286.1568 272.012865 
L 287.3472 277.294902 
L 288.5376 281.636815 
L 289.728 284.998747 
L 290.9184 287.097455 
L 292.1088 287.239876 
L 293.2992 284.077327 
L 294.4896 275.768919 
L 296.8704 248.65386 
L 298.0608 244.017985 
L 299.2512 248.597273 
L 301.632 264.064403 
L 302.8224 270.647126 
L 304.0128 276.328135 
L 305.2032 281.259175 
L 306.3936 285.531688 
L 307.584 289.184751 
L 308.7744 292.189327 
L 309.9648 294.378105 
L 311.1552 295.268149 
L 312.3456 293.679868 
L 313.536 287.194644 
L 314.7264 272.720816 
L 315.9168 252.142696 
L 317.1072 238.740372 
L 318.2976 241.130394 
L 320.6784 260.179424 
L 321.8688 267.637367 
L 323.0592 273.703831 
L 324.2496 278.747536 
L 325.44 282.886715 
L 326.6304 286.042753 
L 327.8208 287.881288 
L 329.0112 287.613839 
L 330.2016 283.739538 
L 331.392 274.350881 
L 332.5824 259.777847 
L 333.7728 246.807134 
L 334.9632 243.803067 
L 336.1536 249.48847 
L 338.5344 265.15399 
L 339.7248 271.626994 
L 340.9152 277.211454 
L 342.1056 282.066232 
L 343.296 286.288858 
L 344.4864 289.935017 
L 345.6768 293.014742 
L 346.8672 295.451031 
L 348.0576 296.966282 
L 349.248 296.809059 
L 350.4384 293.206174 
L 351.6288 282.882505 
L 354.0096 242.751234 
L 355.2 236.836689 
L 356.3904 244.883842 
L 357.5808 255.336137 
L 358.7712 263.810711 
L 359.9616 270.449984 
L 361.152 275.81978 
L 362.3424 280.146892 
L 363.5328 283.378218 
L 364.7232 285.175276 
L 365.9136 284.769433 
L 367.104 280.821116 
L 368.2944 271.921805 
L 369.4848 259.027322 
L 370.6752 248.244814 
L 371.8656 246.006328 
L 373.056 251.057966 
L 375.4368 265.488305 
L 376.6272 271.677061 
L 377.8176 277.036183 
L 379.008 281.636486 
L 380.1984 285.478713 
L 381.3888 288.446413 
L 382.5792 290.192038 
L 383.7696 289.895326 
L 384.96 285.915704 
L 386.1504 275.956694 
L 388.5312 245.333322 
L 389.7216 242.112229 
L 390.912 248.55983 
L 392.1024 257.306863 
L 393.2928 265.113115 
L 394.4832 271.696065 
L 395.6736 277.328845 
L 396.864 282.213546 
L 398.0544 286.469506 
L 399.2448 290.175161 
L 400.4352 293.382272 
L 401.6256 296.107767 
L 402.816 298.297904 
L 404.0064 299.730208 
L 405.1968 299.763427 
L 406.3872 296.775702 
L 407.5776 287.390526 
L 408.768 267.891185 
L 409.9584 243.951938 
L 411.1488 234.485389 
L 412.3392 242.222445 
L 413.5296 253.491609 
L 414.72 262.3914 
L 414.72 262.3914 
" clip-path="url(#p6ae735d452)" style="fill: none; stroke: #0000cc; stroke-width: 1.5; stroke-linecap: square"/>
   </g>
   <g id="line2d_41">
    <path d="M 57.6 286.739639 
L 58.7904 288.860132 
L 59.9808 289.159162 
L 61.1712 286.254603 
L 62.3616 278.043754 
L 64.7424 248.493336 
L 65.9328 242.553886 
L 67.1232 247.147796 
L 69.504 263.463458 
L 70.6944 270.253021 
L 71.8848 276.068117 
L 73.0752 281.113763 
L 74.2656 285.518379 
L 75.456 289.370013 
L 76.6464 292.737922 
L 77.8368 295.679014 
L 79.0272 298.23733 
L 80.2176 300.436994 
L 81.408 302.260547 
L 82.5984 303.587684 
L 83.7888 304.026353 
L 84.9792 302.474058 
L 86.1696 296.190748 
L 87.36 280.21433 
L 88.5504 253.334273 
L 89.7408 232.975936 
L 90.9312 235.621866 
L 92.1216 248.096084 
L 93.312 258.451687 
L 94.5024 265.678522 
L 95.6928 270.91253 
L 96.8832 274.687752 
L 98.0736 276.984421 
L 99.264 277.422571 
L 100.4544 275.378186 
L 101.6448 270.34622 
L 104.0256 255.716628 
L 105.216 252.236008 
L 106.4064 253.525196 
L 107.5968 257.834601 
L 109.9776 268.170201 
L 111.168 272.6095 
L 112.3584 276.150928 
L 113.5488 278.484533 
L 114.7392 279.108035 
L 115.9296 277.268544 
L 117.12 272.206448 
L 119.5008 255.739864 
L 120.6912 251.154989 
L 121.8816 252.105828 
L 123.072 256.671327 
L 125.4528 267.846553 
L 126.6432 272.687622 
L 127.8336 276.672741 
L 129.024 279.562566 
L 130.2144 280.928149 
L 131.4048 280.029451 
L 132.5952 275.863127 
L 133.7856 267.89945 
L 134.976 257.910336 
L 136.1664 250.666508 
L 137.3568 249.797239 
L 138.5472 254.029175 
L 140.928 266.209596 
L 142.1184 271.647186 
L 143.3088 276.286808 
L 144.4992 280.001253 
L 145.6896 282.528998 
L 146.88 283.331805 
L 148.0704 281.443159 
L 149.2608 275.581402 
L 150.4512 265.370171 
L 151.6416 253.955862 
L 152.832 247.663335 
L 154.0224 249.146843 
L 155.2128 255.130477 
L 157.5936 268.354543 
L 158.784 273.906216 
L 159.9744 278.653472 
L 161.1648 282.552419 
L 162.3552 285.424921 
L 163.5456 286.828614 
L 164.736 285.837189 
L 165.9264 280.874613 
L 167.1168 270.441998 
L 168.3072 256.272032 
L 169.4976 245.954621 
L 170.688 245.51949 
L 171.8784 251.87591 
L 174.2592 266.800764 
L 175.4496 272.95409 
L 176.64 278.281324 
L 177.8304 282.892146 
L 179.0208 286.834415 
L 180.2112 290.08212 
L 181.4016 292.472274 
L 182.592 293.541026 
L 183.7824 292.180997 
L 184.9728 286.180278 
L 186.1632 272.776476 
L 187.3536 253.58533 
L 188.544 240.361351 
L 189.7344 241.688899 
L 192.1152 259.845978 
L 193.3056 267.371389 
L 194.496 273.579406 
L 195.6864 278.82092 
L 196.8768 283.254304 
L 198.0672 286.898297 
L 199.2576 289.618355 
L 200.448 290.99944 
L 201.6384 290.065885 
L 202.8288 284.924139 
L 204.0192 273.235058 
L 205.2096 256.084627 
L 206.4 242.991514 
L 207.5904 242.534651 
L 208.7808 250.269906 
L 209.9712 259.075415 
L 211.1616 266.64784 
L 212.352 273.008988 
L 213.5424 278.455717 
L 214.7328 283.172238 
L 215.9232 287.260006 
L 217.1136 290.771542 
L 218.304 293.704028 
L 219.4944 295.946322 
L 220.6848 297.136297 
L 221.8752 296.326457 
L 223.0656 291.373782 
L 224.256 278.760932 
L 225.4464 257.645878 
L 226.6368 239.424988 
L 227.8272 238.061186 
L 230.208 257.707719 
L 231.3984 265.650083 
L 232.5888 271.924033 
L 233.7792 277.017439 
L 234.9696 281.078097 
L 236.16 283.986402 
L 237.3504 285.311334 
L 238.5408 284.143059 
L 239.7312 279.02397 
L 240.9216 268.826817 
L 242.112 255.713627 
L 243.3024 246.76001 
L 244.4928 246.826138 
L 245.6832 252.898984 
L 248.064 267.165408 
L 249.2544 273.130332 
L 250.4448 278.288116 
L 251.6352 282.695067 
L 252.8256 286.327192 
L 254.016 289.022499 
L 255.2064 290.339022 
L 256.3968 289.274491 
L 257.5872 283.94566 
L 258.7776 272.184122 
L 259.968 255.459467 
L 261.1584 243.221497 
L 262.3488 243.210941 
L 263.5392 250.858645 
L 264.7296 259.485298 
L 265.92 266.949087 
L 267.1104 273.256008 
L 268.3008 278.676963 
L 269.4912 283.387415 
L 270.6816 287.493137 
L 271.872 291.065616 
L 273.0624 294.150148 
L 274.2528 296.752752 
L 275.4432 298.795291 
L 276.6336 299.995037 
L 277.824 299.562225 
L 279.0144 295.553956 
L 280.2048 284.204076 
L 282.5856 240.079426 
L 283.776 235.07515 
L 284.9664 244.674272 
L 286.1568 255.615061 
L 287.3472 263.964973 
L 288.5376 270.276773 
L 289.728 275.200427 
L 290.9184 278.908703 
L 292.1088 281.215056 
L 293.2992 281.57694 
L 294.4896 279.051774 
L 295.68 272.619223 
L 298.0608 252.853948 
L 299.2512 248.653109 
L 300.4416 251.109447 
L 301.632 256.987322 
L 304.0128 269.363732 
L 305.2032 274.527595 
L 306.3936 278.853108 
L 307.584 282.199955 
L 308.7744 284.235529 
L 309.9648 284.271467 
L 311.1552 281.108625 
L 312.3456 273.362809 
L 314.7264 250.193306 
L 315.9168 246.395607 
L 317.1072 250.261743 
L 319.488 264.263882 
L 320.6784 270.512776 
L 321.8688 275.933599 
L 323.0592 280.571948 
L 324.2496 284.407509 
L 325.44 287.288255 
L 326.6304 288.803564 
L 327.8208 288.039416 
L 329.0112 283.306829 
L 330.2016 272.649569 
L 331.392 257.148164 
L 332.5824 244.950782 
L 333.7728 243.790621 
L 334.9632 250.542978 
L 336.1536 258.875301 
L 337.344 266.312648 
L 338.5344 272.662896 
L 339.7248 278.140939 
L 340.9152 282.910171 
L 342.1056 287.073867 
L 343.296 290.704315 
L 344.4864 293.851604 
L 345.6768 296.534924 
L 346.8672 298.709705 
L 348.0576 300.178072 
L 349.248 300.357806 
L 350.4384 297.747464 
L 351.6288 289.101261 
L 352.8192 270.347071 
L 354.0096 245.662579 
L 355.2 234.079824 
L 356.3904 240.9663 
L 357.5808 252.453058 
L 358.7712 261.616221 
L 359.9616 268.428281 
L 361.152 273.685147 
L 362.3424 277.694338 
L 363.5328 280.360728 
L 364.7232 281.242114 
L 365.9136 279.511024 
L 367.104 274.14648 
L 368.2944 265.039324 
L 369.4848 255.023371 
L 370.6752 249.362931 
L 371.8656 250.398807 
L 373.056 255.63774 
L 375.4368 267.970921 
L 376.6272 273.248313 
L 377.8176 277.70046 
L 379.008 281.192631 
L 380.1984 283.421212 
L 381.3888 283.761698 
L 382.5792 281.118419 
L 383.7696 274.161392 
L 386.1504 251.687693 
L 387.3408 246.915805 
L 388.5312 249.863133 
L 392.1024 269.672101 
L 393.2928 275.123013 
L 394.4832 279.777316 
L 395.6736 283.596937 
L 396.864 286.403747 
L 398.0544 287.745293 
L 399.2448 286.65662 
L 400.4352 281.462849 
L 401.6256 270.526959 
L 402.816 255.680617 
L 404.0064 245.099224 
L 405.1968 245.019711 
L 406.3872 251.802107 
L 407.5776 259.832616 
L 408.768 267.026297 
L 409.9584 273.214572 
L 411.1488 278.569925 
L 412.3392 283.224549 
L 413.5296 287.254159 
L 414.72 290.686802 
L 414.72 290.686802 
" clip-path="url(#p6ae735d452)" style="fill: none; stroke-dasharray: 9.6,2.4,1.5,2.4; stroke-dashoffset: 0; stroke: #ff0000; stroke-width: 1.5"/>
   </g>
   <g id="patch_13">
    <path d="M 57.6 307.584 
L 57.6 229.315765 
" style="fill: none; stroke: #000000; stroke-width: 0.8; stroke-linejoin: miter; stroke-linecap: square"/>
   </g>
   <g id="patch_14">
    <path d="M 414.72 307.584 
L 414.72 229.315765 
" style="fill: none; stroke: #000000; stroke-width: 0.8; stroke-linejoin: miter; stroke-linecap: square"/>
   </g>
   <g id="patch_15">
    <path d="M 57.6 307.584 
L 414.72 307.584 
" style="fill: none; stroke: #000000; stroke-width: 0.8; stroke-linejoin: miter; stroke-linecap: square"/>
   </g>
   <g id="patch_16">
    <path d="M 57.6 229.315765 
L 414.72 229.315765 
" style="fill: none; stroke: #000000; stroke-width: 0.8; stroke-linejoin: miter; stroke-linecap: square"/>
   </g>
  </g>
 </g>
 <defs>
  <clipPath id="p12057dd360">
   <rect x="57.6" y="41.472" width="357.12" height="78.268235"/>
  </clipPath>
  <clipPath id="p3e028552d6">
   <rect x="57.6" y="135.393882" width="357.12" height="78.268235"/>
  </clipPath>
  <clipPath id="p6ae735d452">
   <rect x="57.6" y="229.315765" width="357.12" height="78.268235"/>
  </clipPath>
 </defs>
</svg>
