<?xml version="1.0" encoding="utf-8" standalone="no"?>
<!DOCTYPE svg PUBLIC "-//W3C//DTD SVG 1.1//EN"
  "http://www.w3.org/Graphics/SVG/1.1/DTD/svg11.dtd">
<svg xmlns:xlink="http://www.w3.org/1999/xlink" width="460.8pt" height="345.6pt" viewBox="0 0 460.8 345.6" xmlns="http://www.w3.org/2000/svg" version="1.1">
 <metadata>
  <rdf:RDF xmlns:dc="http://purl.org/dc/elements/1.1/" xmlns:cc="http://creativecommons.org/ns#" xmlns:rdf="http://www.w3.org/1999/02/22-rdf-syntax-ns#">
   <cc:Work>
    <dc:type rdf:resource="http://purl.org/dc/dcmitype/StillImage"/>
    <dc:date>2023-12-14T15:12:35.582687</dc:date>
    <dc:format>image/svg+xml</dc:format>
    <dc:creator>
     <cc:Agent>
      <dc:title>Matplotlib v3.7.3, https://matplotlib.org/</dc:title>
     </cc:Agent>
    </dc:creator>
   </cc:Work>
  </rdf:RDF>
 </metadata>
 <defs>
  <style type="text/css">*{stroke-linejoin: round; stroke-linecap: butt}</style>
 </defs>
 <g id="figure_1">
  <g id="patch_1">
   <path d="M 0 345.6 
L 460.8 345.6 
L 460.8 0 
L 0 0 
z
" style="fill: #ffffff"/>
  </g>
  <g id="axes_1">
   <g id="patch_2">
    <path d="M 57.6 119.740235 
L 414.72 119.740235 
L 414.72 41.472 
L 57.6 41.472 
z
" style="fill: #ffffff"/>
   </g>
   <g id="matplotlib.axis_1">
    <g id="xtick_1">
     <g id="line2d_1">
      <defs>
       <path id="mb7e0cc8943" d="M 0 0 
L 0 3.5 
" style="stroke: #000000; stroke-width: 0.8"/>
      </defs>
      <g>
       <use xlink:href="#mb7e0cc8943" x="57.6" y="119.740235" style="stroke: #000000; stroke-width: 0.8"/>
      </g>
     </g>
    </g>
    <g id="xtick_2">
     <g id="line2d_2">
      <g>
       <use xlink:href="#mb7e0cc8943" x="105.216" y="119.740235" style="stroke: #000000; stroke-width: 0.8"/>
      </g>
     </g>
    </g>
    <g id="xtick_3">
     <g id="line2d_3">
      <g>
       <use xlink:href="#mb7e0cc8943" x="152.832" y="119.740235" style="stroke: #000000; stroke-width: 0.8"/>
      </g>
     </g>
    </g>
    <g id="xtick_4">
     <g id="line2d_4">
      <g>
       <use xlink:href="#mb7e0cc8943" x="200.448" y="119.740235" style="stroke: #000000; stroke-width: 0.8"/>
      </g>
     </g>
    </g>
    <g id="xtick_5">
     <g id="line2d_5">
      <g>
       <use xlink:href="#mb7e0cc8943" x="248.064" y="119.740235" style="stroke: #000000; stroke-width: 0.8"/>
      </g>
     </g>
    </g>
    <g id="xtick_6">
     <g id="line2d_6">
      <g>
       <use xlink:href="#mb7e0cc8943" x="295.68" y="119.740235" style="stroke: #000000; stroke-width: 0.8"/>
      </g>
     </g>
    </g>
    <g id="xtick_7">
     <g id="line2d_7">
      <g>
       <use xlink:href="#mb7e0cc8943" x="343.296" y="119.740235" style="stroke: #000000; stroke-width: 0.8"/>
      </g>
     </g>
    </g>
    <g id="xtick_8">
     <g id="line2d_8">
      <g>
       <use xlink:href="#mb7e0cc8943" x="390.912" y="119.740235" style="stroke: #000000; stroke-width: 0.8"/>
      </g>
     </g>
    </g>
    <g id="xtick_9">
     <g id="line2d_9">
      <g>
       <use xlink:href="#mb7e0cc8943" x="414.72" y="119.740235" style="stroke: #000000; stroke-width: 0.8"/>
      </g>
     </g>
    </g>
   </g>
   <g id="matplotlib.axis_2">
    <g id="ytick_1">
     <g id="line2d_10">
      <defs>
       <path id="m368e5ad4db" d="M 0 0 
L -3.5 0 
" style="stroke: #000000; stroke-width: 0.8"/>
      </defs>
      <g>
       <use xlink:href="#m368e5ad4db" x="57.6" y="100.270412" style="stroke: #000000; stroke-width: 0.8"/>
      </g>
     </g>
     <g id="text_1">
      <!-- −10 -->
      <g transform="translate(29.495313 104.069631) scale(0.1 -0.1)">
       <defs>
        <path id="DejaVuSans-2212" d="M 678 2272 
L 4684 2272 
L 4684 1741 
L 678 1741 
L 678 2272 
z
" transform="scale(0.015625)"/>
        <path id="DejaVuSans-31" d="M 794 531 
L 1825 531 
L 1825 4091 
L 703 3866 
L 703 4441 
L 1819 4666 
L 2450 4666 
L 2450 531 
L 3481 531 
L 3481 0 
L 794 0 
L 794 531 
z
" transform="scale(0.015625)"/>
        <path id="DejaVuSans-30" d="M 2034 4250 
Q 1547 4250 1301 3770 
Q 1056 3291 1056 2328 
Q 1056 1369 1301 889 
Q 1547 409 2034 409 
Q 2525 409 2770 889 
Q 3016 1369 3016 2328 
Q 3016 3291 2770 3770 
Q 2525 4250 2034 4250 
z
M 2034 4750 
Q 2819 4750 3233 4129 
Q 3647 3509 3647 2328 
Q 3647 1150 3233 529 
Q 2819 -91 2034 -91 
Q 1250 -91 836 529 
Q 422 1150 422 2328 
Q 422 3509 836 4129 
Q 1250 4750 2034 4750 
z
" transform="scale(0.015625)"/>
       </defs>
       <use xlink:href="#DejaVuSans-2212"/>
       <use xlink:href="#DejaVuSans-31" x="83.789062"/>
       <use xlink:href="#DejaVuSans-30" x="147.412109"/>
      </g>
     </g>
    </g>
    <g id="ytick_2">
     <g id="line2d_11">
      <g>
       <use xlink:href="#m368e5ad4db" x="57.6" y="79.67185" style="stroke: #000000; stroke-width: 0.8"/>
      </g>
     </g>
     <g id="text_2">
      <!-- 0 -->
      <g transform="translate(44.2375 83.471069) scale(0.1 -0.1)">
       <use xlink:href="#DejaVuSans-30"/>
      </g>
     </g>
    </g>
    <g id="ytick_3">
     <g id="line2d_12">
      <g>
       <use xlink:href="#m368e5ad4db" x="57.6" y="59.073289" style="stroke: #000000; stroke-width: 0.8"/>
      </g>
     </g>
     <g id="text_3">
      <!-- 10 -->
      <g transform="translate(37.875 62.872507) scale(0.1 -0.1)">
       <use xlink:href="#DejaVuSans-31"/>
       <use xlink:href="#DejaVuSans-30" x="63.623047"/>
      </g>
     </g>
    </g>
   </g>
   <g id="line2d_13">
    <path d="M 57.6 85.539273 
L 58.7904 87.54934 
L 59.9808 90.675708 
L 61.1712 95.220048 
L 63.552 107.148828 
L 64.7424 110.02768 
L 65.9328 106.983414 
L 68.3136 91.949853 
L 69.504 86.3903 
L 70.6944 83.073429 
L 71.8848 81.337436 
L 73.0752 80.522818 
L 74.2656 80.193834 
L 75.456 80.115674 
L 76.6464 80.184493 
L 77.8368 80.374648 
L 79.0272 80.712807 
L 80.2176 81.274667 
L 81.408 82.200997 
L 82.5984 83.734026 
L 83.7888 86.275877 
L 84.9792 90.448797 
L 86.1696 97.013926 
L 88.5504 114.524517 
L 89.7408 114.97305 
L 90.9312 105.042982 
L 92.1216 92.322241 
L 93.312 82.776187 
L 94.5024 76.982014 
L 95.6928 73.558559 
L 99.264 66.2121 
L 100.4544 62.944612 
L 101.6448 59.31789 
L 102.8352 56.186468 
L 104.0256 54.88846 
L 105.216 56.308459 
L 106.4064 59.887444 
L 107.5968 64.050384 
L 108.7872 67.472201 
L 109.9776 69.613741 
L 111.168 70.471837 
L 112.3584 70.204076 
L 113.5488 68.923518 
L 114.7392 66.661003 
L 115.9296 63.458654 
L 118.3104 55.999782 
L 119.5008 54.166872 
L 120.6912 55.350461 
L 121.8816 59.152746 
L 123.072 63.800593 
L 124.2624 67.704308 
L 125.4528 70.214576 
L 126.6432 71.342602 
L 127.8336 71.297045 
L 129.024 70.227528 
L 130.2144 68.160139 
L 131.4048 65.0605 
L 133.7856 56.736093 
L 134.976 53.684363 
L 136.1664 53.717267 
L 137.3568 57.192922 
L 139.7376 67.135326 
L 140.928 70.440761 
L 142.1184 72.195703 
L 143.3088 72.666792 
L 144.4992 72.093514 
L 145.6896 70.558386 
L 146.88 67.995872 
L 148.0704 64.302132 
L 150.4512 54.883088 
L 151.6416 52.162631 
L 152.832 53.479479 
L 154.0224 58.435806 
L 155.2128 64.447859 
L 156.4032 69.348356 
L 157.5936 72.457049 
L 158.784 73.982491 
L 159.9744 74.321932 
L 161.1648 73.742123 
L 162.3552 72.306384 
L 163.5456 69.894998 
L 164.736 66.279459 
L 165.9264 61.339229 
L 167.1168 55.624588 
L 168.3072 51.173335 
L 169.4976 51.015907 
L 170.688 55.9471 
L 171.8784 63.114728 
L 173.0688 69.358883 
L 174.2592 73.509915 
L 175.4496 75.792673 
L 176.64 76.790846 
L 177.8304 76.966191 
L 179.0208 76.556996 
L 180.2112 75.602303 
L 181.4016 73.97324 
L 182.592 71.382811 
L 183.7824 67.406795 
L 184.9728 61.659403 
L 186.1632 54.4976 
L 187.3536 48.4784 
L 188.544 48.225688 
L 189.7344 55.068174 
L 190.9248 64.499683 
L 192.1152 72.189935 
L 193.3056 77.089129 
L 194.496 79.891801 
L 195.6864 81.548558 
L 198.0672 84.093289 
L 199.2576 85.859564 
L 200.448 88.461582 
L 201.6384 92.314134 
L 202.8288 97.722475 
L 204.0192 104.266765 
L 205.2096 109.649171 
L 206.4 109.974996 
L 207.5904 104.074592 
L 208.7808 95.633367 
L 209.9712 88.512218 
L 211.1616 83.881701 
L 212.352 81.273284 
L 213.5424 79.891668 
L 214.7328 79.117691 
L 217.1136 77.972374 
L 218.304 77.16636 
L 219.4944 75.933991 
L 220.6848 73.984203 
L 221.8752 70.884068 
L 223.0656 66.055492 
L 224.256 59.062158 
L 225.4464 50.804954 
L 226.6368 45.544761 
L 227.8272 48.727172 
L 230.208 69.220726 
L 231.3984 76.521971 
L 232.5888 80.878677 
L 233.7792 83.482118 
L 236.16 87.338023 
L 237.3504 89.836294 
L 238.5408 93.250982 
L 239.7312 97.71611 
L 240.9216 102.744564 
L 242.112 106.67933 
L 243.3024 107.118636 
L 244.4928 103.265359 
L 246.8736 91.571897 
L 248.064 87.680818 
L 249.2544 85.535186 
L 250.4448 84.729564 
L 251.6352 84.91031 
L 252.8256 85.921257 
L 254.016 87.807984 
L 255.2064 90.774919 
L 256.3968 95.069618 
L 258.7776 106.305649 
L 259.968 109.248741 
L 261.1584 106.836038 
L 263.5392 92.933434 
L 264.7296 87.487577 
L 265.92 84.187982 
L 267.1104 82.503037 
L 268.3008 81.840827 
L 269.4912 81.813728 
L 270.6816 82.249645 
L 271.872 83.147907 
L 273.0624 84.653024 
L 274.2528 87.0582 
L 275.4432 90.810746 
L 276.6336 96.400558 
L 279.0144 110.771689 
L 280.2048 112.443842 
L 281.3952 106.123308 
L 282.5856 96.078468 
L 283.776 87.503196 
L 284.9664 81.934475 
L 286.1568 78.700466 
L 287.3472 76.735917 
L 289.728 73.528502 
L 290.9184 71.264806 
L 292.1088 68.017647 
L 293.2992 63.480558 
L 295.68 52.353405 
L 296.8704 50.157312 
L 298.0608 53.400597 
L 300.4416 67.369067 
L 301.632 72.442421 
L 302.8224 75.432976 
L 304.0128 76.910412 
L 305.2032 77.43594 
L 306.3936 77.355979 
L 307.584 76.806787 
L 308.7744 75.756696 
L 309.9648 74.02627 
L 311.1552 71.282645 
L 312.3456 67.052604 
L 313.536 60.924176 
L 314.7264 53.379838 
L 315.9168 47.44949 
L 317.1072 48.13846 
L 318.2976 56.072154 
L 319.488 65.949384 
L 320.6784 73.591317 
L 321.8688 78.334762 
L 323.0592 81.067028 
L 324.2496 82.794422 
L 325.44 84.257918 
L 326.6304 85.97485 
L 327.8208 88.362957 
L 329.0112 91.815201 
L 330.2016 96.619728 
L 331.392 102.522483 
L 332.5824 107.836762 
L 333.7728 109.322885 
L 334.9632 105.17642 
L 337.344 90.839887 
L 338.5344 86.0201 
L 339.7248 83.250256 
L 340.9152 81.895713 
L 342.1056 81.39675 
L 343.296 81.418472 
L 344.4864 81.824163 
L 345.6768 82.626345 
L 346.8672 83.96474 
L 348.0576 86.116783 
L 349.248 89.52132 
L 350.4384 94.729848 
L 352.8192 109.804585 
L 354.0096 113.424468 
L 355.2 108.549554 
L 357.5808 88.715331 
L 358.7712 82.266386 
L 359.9616 78.470482 
L 361.152 76.178322 
L 363.5328 72.584121 
L 364.7232 70.14267 
L 365.9136 66.732269 
L 367.104 62.152939 
L 368.2944 56.788483 
L 369.4848 52.28821 
L 370.6752 51.365152 
L 371.8656 55.232813 
L 374.2464 67.898471 
L 375.4368 72.182745 
L 376.6272 74.602129 
L 377.8176 75.638769 
L 379.008 75.722941 
L 380.1984 75.075668 
L 381.3888 73.707096 
L 382.5792 71.445064 
L 383.7696 67.975734 
L 384.96 62.985907 
L 387.3408 50.763749 
L 388.5312 48.990498 
L 389.7216 53.553799 
L 392.1024 69.251671 
L 393.2928 74.410735 
L 394.4832 77.392063 
L 395.6736 78.964796 
L 396.864 79.788929 
L 400.4352 81.253172 
L 401.6256 82.035021 
L 402.816 83.264512 
L 404.0064 85.238579 
L 405.1968 88.413082 
L 406.3872 93.408502 
L 407.5776 100.702305 
L 408.768 109.30469 
L 409.9584 114.524543 
L 411.1488 110.634235 
L 413.5296 89.104677 
L 414.72 81.772728 
L 414.72 81.772728 
" clip-path="url(#p435bf35cc0)" style="fill: none; stroke: #0000cc; stroke-width: 1.5; stroke-linecap: square"/>
   </g>
   <g id="line2d_14">
    <path d="M -1 73.630407 
L -0.729595 74.032719 
L -0.134393 74.585648 
L 0.460798 74.858375 
L 1.056 74.891715 
L 1.651202 74.712909 
L 2.246393 74.335534 
L 2.841595 73.760206 
L 3.436798 72.975611 
L 4.032 71.959754 
L 4.627202 70.681807 
L 5.222405 69.105279 
L 6.412809 64.922698 
L 7.603202 59.382646 
L 8.793607 53.463588 
L 9.388809 51.168778 
L 9.984 49.923807 
L 10.579191 50.087889 
L 11.174405 51.744068 
L 11.769595 54.63902 
L 14.150405 68.995236 
L 14.745595 71.612519 
L 15.340786 73.659385 
L 15.936 75.196528 
L 16.531191 76.30839 
L 17.126405 77.081413 
L 17.721595 77.592081 
L 18.316786 77.902539 
L 18.912 78.059742 
L 20.102405 78.034117 
L 21.292809 77.645086 
L 22.483214 76.879254 
L 23.078405 76.317663 
L 23.673618 75.601311 
L 24.268809 74.692286 
L 24.864 73.542306 
L 25.459214 72.092029 
L 26.054405 70.27184 
L 26.649618 68.006704 
L 27.244809 65.228589 
L 28.435214 58.084951 
L 29.625595 50.065318 
L 30.220809 47.043007 
L 30.816 45.738257 
L 31.411214 46.709712 
L 32.006405 49.912647 
L 33.196809 60.116279 
L 34.387191 70.027004 
L 34.982405 73.83336 
L 35.577595 76.821857 
L 36.172809 79.107919 
L 36.768 80.844021 
L 37.958405 83.25981 
L 40.934405 88.079878 
L 42.124786 90.970573 
L 43.315214 94.939363 
L 45.100809 102.585726 
L 45.696023 105.017667 
L 46.291214 106.899033 
L 46.886405 107.872939 
L 47.481618 107.680281 
L 48.076809 106.272577 
L 48.672 103.848275 
L 51.052809 91.535378 
L 51.648 89.209805 
L 52.243214 87.37876 
L 52.838405 86.00991 
L 53.433595 85.045603 
L 54.028809 84.422568 
L 54.624 84.08362 
L 55.219214 83.983245 
L 55.814405 84.089806 
L 56.409595 84.385603 
L 57.004809 84.866162 
L 57.6 85.539259 
L 58.195191 86.423694 
L 58.790405 87.548879 
L 59.385595 88.952008 
L 59.980809 90.674805 
L 61.171191 95.218472 
L 62.361595 101.138765 
L 63.552 107.145752 
L 64.147191 109.218787 
L 64.742405 110.024929 
L 65.337595 109.264266 
L 65.932786 106.98238 
L 67.123191 99.592699 
L 68.313595 91.951213 
L 68.908809 88.866404 
L 69.504 86.391374 
L 70.099191 84.488049 
L 70.694405 83.073887 
L 71.289595 82.053682 
L 71.884809 81.337125 
L 72.48 80.847135 
L 73.670405 80.314816 
L 74.860786 80.130336 
L 76.646405 80.181006 
L 78.432 80.515325 
L 79.622405 80.949152 
L 80.812809 81.664782 
L 81.408 82.181792 
L 82.003191 82.847042 
L 82.598405 83.703247 
L 83.193595 84.806264 
L 83.788809 86.226363 
L 84.384 88.047836 
L 84.979191 90.36984 
L 85.574405 93.293831 
L 86.764786 101.171969 
L 87.955191 110.652598 
L 88.550405 114.443833 
L 89.145595 116.182588 
L 89.740786 115.055241 
L 90.336 111.098876 
L 92.716809 87.162062 
L 93.312 82.877712 
L 93.907191 79.55996 
L 94.502405 77.035424 
L 95.097595 75.105796 
L 96.288 72.319526 
L 98.668786 67.64173 
L 99.859191 64.681912 
L 102.835191 56.22384 
L 103.430405 55.254582 
L 104.025595 54.902897 
L 104.620809 55.254699 
L 105.216 56.290984 
L 105.811191 57.887122 
L 108.787191 67.431609 
L 109.382405 68.675568 
L 109.977595 69.584441 
L 110.572786 70.170326 
L 111.168 70.453976 
L 111.763191 70.457022 
L 112.358405 70.196614 
L 112.953595 69.684624 
L 113.548786 68.926136 
L 114.144 67.922347 
L 115.334405 65.187481 
L 116.524809 61.606432 
L 118.310405 56.034272 
L 118.905595 54.787413 
L 119.500809 54.186742 
L 120.096 54.366792 
L 120.691191 55.343557 
L 121.286405 57.0009 
L 124.262405 67.667298 
L 124.857595 69.108629 
L 125.452786 70.185038 
L 126.048 70.913248 
L 126.643191 71.320953 
L 127.238405 71.436187 
L 127.833595 71.282207 
L 128.428809 70.874138 
L 129.024 70.218687 
L 129.619191 69.315038 
L 130.214405 68.157572 
L 131.404809 65.065521 
L 132.595191 61.052064 
L 133.785595 56.758848 
L 134.380786 54.953296 
L 134.976 53.708335 
L 135.571191 53.256875 
L 136.166405 53.729996 
L 136.761595 55.101358 
L 137.356786 57.187008 
L 139.737595 67.108782 
L 140.332809 68.964214 
L 140.928 70.414048 
L 141.523191 71.471715 
L 142.118405 72.170732 
L 142.713595 72.549413 
L 143.308809 72.643181 
L 143.904 72.47814 
L 144.499191 72.070169 
L 145.094405 71.423878 
L 145.689595 70.53437 
L 146.284786 69.388795 
L 147.475191 66.267749 
L 148.665595 62.031467 
L 150.451191 54.882323 
L 151.046405 53.123818 
L 151.641595 52.184079 
L 152.236809 52.296398 
L 152.832 53.514544 
L 153.427191 55.677964 
L 156.403191 69.343244 
L 156.998405 71.112489 
L 157.593595 72.439393 
L 158.188786 73.369414 
L 158.784 73.955835 
L 159.379191 74.24849 
L 159.974405 74.287195 
L 160.569595 74.099007 
L 161.164786 73.697909 
L 161.76 73.084902 
L 162.355191 72.249542 
L 162.950405 71.171153 
L 163.545595 69.821647 
L 164.140809 68.169396 
L 165.331191 63.866365 
L 168.307191 51.156682 
L 168.902405 50.444948 
L 169.497595 51.099335 
L 170.092786 53.084762 
L 171.283191 59.622073 
L 172.473595 66.565192 
L 173.664 71.74018 
L 174.259191 73.527658 
L 174.854405 74.847359 
L 175.449595 75.775777 
L 176.044809 76.388126 
L 176.64 76.748699 
L 177.235191 76.90798 
L 177.830405 76.901188 
L 178.425595 76.750394 
L 179.020809 76.464973 
L 179.616 76.042721 
L 180.211191 75.472204 
L 180.806405 74.730839 
L 181.401595 73.78664 
L 181.996786 72.598381 
L 182.592 71.114015 
L 183.187191 69.276458 
L 183.782405 67.027849 
L 184.972786 61.169945 
L 186.758405 50.680566 
L 187.353595 48.287702 
L 187.948809 47.463912 
L 188.544 48.581796 
L 189.139191 51.530453 
L 190.329595 60.485827 
L 191.52 69.180458 
L 192.115191 72.555821 
L 192.710405 75.21916 
L 193.305595 77.254679 
L 193.900786 78.783991 
L 194.496 79.932095 
L 195.686405 81.520453 
L 198.067191 84.005429 
L 199.257595 85.75279 
L 199.852809 86.914773 
L 200.448 88.336595 
L 201.043191 90.072862 
L 202.233618 94.681685 
L 203.424 100.82804 
L 204.614382 107.328178 
L 205.209618 109.709953 
L 205.804809 110.782068 
L 206.4 110.164636 
L 206.995236 107.857301 
L 208.185618 100.016941 
L 209.376 91.801693 
L 209.971191 88.484937 
L 210.566382 85.824297 
L 211.161618 83.773392 
L 211.756809 82.237901 
L 212.352 81.109405 
L 212.947191 80.285734 
L 214.137618 79.217641 
L 215.923191 78.201019 
L 217.113618 77.480242 
L 218.304 76.465627 
L 218.899236 75.773243 
L 219.494427 74.907222 
L 220.089618 73.819801 
L 220.684809 72.454078 
L 221.28 70.742754 
L 221.875191 68.612573 
L 222.470382 65.993577 
L 223.660809 59.179729 
L 225.446382 47.902618 
L 226.041618 46.082525 
L 226.636809 46.393915 
L 227.232 48.974087 
L 227.827191 53.326255 
L 229.612809 68.670825 
L 230.208 72.672262 
L 230.803236 75.851672 
L 231.398427 78.298396 
L 231.993618 80.155492 
L 232.588809 81.575052 
L 233.779191 83.636206 
L 235.564809 86.269586 
L 236.755191 88.532471 
L 237.945618 91.684837 
L 239.136 95.991841 
L 241.516809 106.215747 
L 242.112 107.762517 
L 242.707236 108.221508 
L 243.302427 107.412291 
L 243.897618 105.409918 
L 245.088 99.198291 
L 246.278382 92.750896 
L 246.873618 90.110986 
L 247.468809 87.979229 
L 248.064 86.34281 
L 248.659191 85.149039 
L 249.254382 84.33133 
L 249.849618 83.824297 
L 250.444809 83.573201 
L 251.04 83.536176 
L 251.635191 83.685979 
L 252.230382 84.009199 
L 252.825618 84.504823 
L 253.420809 85.183985 
L 254.016 86.068407 
L 254.611236 87.190407 
L 255.206427 88.590394 
L 255.801618 90.314293 
L 256.992 94.89895 
L 258.182382 100.972691 
L 259.372809 107.299739 
L 259.968 109.564705 
L 260.563191 110.528499 
L 261.158382 109.84234 
L 261.753618 107.526858 
L 262.944 99.827633 
L 264.134382 91.817051 
L 264.729618 88.586157 
L 265.324809 85.99549 
L 265.92 84.000774 
L 266.515236 82.511102 
L 267.110427 81.422983 
L 267.705618 80.63838 
L 268.896 79.658967 
L 270.086382 79.086086 
L 272.467191 78.090573 
L 273.657618 77.319127 
L 274.848 76.116813 
L 275.443191 75.268941 
L 276.038382 74.194712 
L 276.633618 72.832838 
L 277.228809 71.111411 
L 277.824 68.949274 
L 278.419236 66.263889 
L 279.609618 59.160289 
L 281.395191 47.068037 
L 281.990382 45.08881 
L 282.585618 45.452075 
L 283.180809 48.309887 
L 283.776 53.080698 
L 285.561618 69.513139 
L 286.156809 73.704312 
L 286.752 77.010401 
L 287.347191 79.546595 
L 287.942382 81.476307 
L 289.132809 84.167036 
L 292.108809 89.494333 
L 293.299191 92.574401 
L 294.489618 96.606853 
L 296.275191 103.537992 
L 296.870382 105.384172 
L 297.465618 106.538297 
L 298.060809 106.754363 
L 298.656 105.927128 
L 299.251191 104.14427 
L 300.441618 98.825796 
L 301.632 93.31227 
L 302.822427 89.187491 
L 303.417618 87.775351 
L 304.012809 86.765435 
L 304.608 86.111579 
L 305.203191 85.767464 
L 305.798382 85.693745 
L 306.393618 85.862588 
L 306.988809 86.258401 
L 307.584 86.878043 
L 308.179191 87.729595 
L 308.774382 88.830507 
L 309.369618 90.204526 
L 310.56 93.864488 
L 311.750382 98.727714 
L 312.940809 104.080909 
L 313.536 106.338534 
L 314.131236 107.832199 
L 314.726427 108.22192 
L 315.321618 107.339644 
L 315.916809 105.275145 
L 317.107191 99.007931 
L 318.297618 92.585078 
L 318.892809 89.971251 
L 319.488 87.866932 
L 320.083191 86.255983 
L 320.678382 85.084303 
L 321.273618 84.284902 
L 321.868809 83.792931 
L 322.464 83.553884 
L 323.059191 83.526778 
L 323.654382 83.685293 
L 324.249618 84.016417 
L 324.844809 84.519719 
L 325.44 85.207198 
L 326.035236 86.100921 
L 326.630427 87.233599 
L 327.225618 88.646002 
L 327.820809 90.384677 
L 329.011191 95.003698 
L 330.201618 101.106917 
L 331.392 107.41886 
L 331.987191 109.648299 
L 332.582382 110.550666 
L 333.177618 109.792955 
L 333.772809 107.412921 
L 334.963191 99.651293 
L 336.153618 91.660098 
L 336.748809 88.452271 
L 337.344 85.885128 
L 337.939236 83.911216 
L 338.534427 82.438727 
L 339.129618 81.363568 
L 339.724809 80.58773 
L 340.915191 79.61636 
L 342.105618 79.040586 
L 344.486382 78.011216 
L 345.676809 77.202117 
L 346.867191 75.940462 
L 347.462382 75.050901 
L 348.057618 73.923364 
L 348.652809 72.495805 
L 349.248 70.694575 
L 349.843236 68.437053 
L 350.438427 65.644675 
L 351.628809 58.344432 
L 352.819191 49.893411 
L 353.414382 46.581305 
L 354.009618 45.029647 
L 354.604809 45.893741 
L 355.2 49.175009 
L 356.390382 59.903906 
L 357.580809 70.353861 
L 358.176 74.352577 
L 358.771191 77.486165 
L 359.366382 79.882419 
L 359.961618 81.707342 
L 361.152 84.27705 
L 363.532809 88.353767 
L 364.723191 91.068708 
L 365.913618 94.702419 
L 367.699191 101.622168 
L 368.294382 103.856599 
L 368.889618 105.654643 
L 369.484809 106.716504 
L 370.08 106.804453 
L 370.675191 105.83414 
L 371.270382 103.919926 
L 372.460809 98.447833 
L 373.651236 92.933704 
L 374.246427 90.688889 
L 374.841618 88.884165 
L 375.436809 87.514712 
L 376.032 86.544332 
L 376.627191 85.924721 
L 377.222382 85.609091 
L 377.817618 85.558526 
L 378.412809 85.745935 
L 379.008 86.157037 
L 379.603191 86.789689 
L 380.198382 87.653158 
L 380.793618 88.766413 
L 381.388809 90.154041 
L 382.579191 93.851229 
L 383.769618 98.771367 
L 384.96 104.193611 
L 385.555236 106.478363 
L 386.150427 107.982354 
L 386.745618 108.358715 
L 387.340809 107.438356 
L 387.936 105.318296 
L 389.126382 98.9336 
L 390.316809 92.435604 
L 390.912 89.802163 
L 391.507191 87.686269 
L 392.102382 86.068402 
L 392.697618 84.89148 
L 393.292809 84.086255 
L 393.888 83.586244 
L 394.483191 83.335511 
L 395.078382 83.292266 
L 395.673618 83.428995 
L 396.268809 83.731607 
L 396.864 84.199184 
L 397.459236 84.841874 
L 398.054427 85.680929 
L 398.649618 86.74798 
L 399.244809 88.083553 
L 399.84 89.735126 
L 400.435191 91.751453 
L 401.625618 97.0026 
L 404.006382 109.344669 
L 404.601618 110.712034 
L 405.196809 110.436422 
L 405.792 108.434422 
L 406.387191 105.041887 
L 408.768 89.067318 
L 409.363236 86.278235 
L 409.958427 84.113937 
L 410.553618 82.485476 
L 411.148809 81.285023 
L 411.744 80.408301 
L 412.934382 79.277279 
L 414.72 78.232475 
L 414.72 78.232475 
" clip-path="url(#p435bf35cc0)" style="fill: none; stroke-dasharray: 9.6,2.4,1.5,2.4; stroke-dashoffset: 0; stroke: #ff0000; stroke-width: 1.5"/>
   </g>
   <g id="patch_3">
    <path d="M 57.6 119.740235 
L 57.6 41.472 
" style="fill: none; stroke: #000000; stroke-width: 0.8; stroke-linejoin: miter; stroke-linecap: square"/>
   </g>
   <g id="patch_4">
    <path d="M 414.72 119.740235 
L 414.72 41.472 
" style="fill: none; stroke: #000000; stroke-width: 0.8; stroke-linejoin: miter; stroke-linecap: square"/>
   </g>
   <g id="patch_5">
    <path d="M 57.6 119.740235 
L 414.72 119.740235 
" style="fill: none; stroke: #000000; stroke-width: 0.8; stroke-linejoin: miter; stroke-linecap: square"/>
   </g>
   <g id="patch_6">
    <path d="M 57.6 41.472 
L 414.72 41.472 
" style="fill: none; stroke: #000000; stroke-width: 0.8; stroke-linejoin: miter; stroke-linecap: square"/>
   </g>
  </g>
  <g id="axes_2">
   <g id="patch_7">
    <path d="M 57.6 213.662118 
L 414.72 213.662118 
L 414.72 135.393882 
L 57.6 135.393882 
z
" style="fill: #ffffff"/>
   </g>
   <g id="matplotlib.axis_3">
    <g id="xtick_10">
     <g id="line2d_15">
      <g>
       <use xlink:href="#mb7e0cc8943" x="57.6" y="213.662118" style="stroke: #000000; stroke-width: 0.8"/>
      </g>
     </g>
    </g>
    <g id="xtick_11">
     <g id="line2d_16">
      <g>
       <use xlink:href="#mb7e0cc8943" x="105.216" y="213.662118" style="stroke: #000000; stroke-width: 0.8"/>
      </g>
     </g>
    </g>
    <g id="xtick_12">
     <g id="line2d_17">
      <g>
       <use xlink:href="#mb7e0cc8943" x="152.832" y="213.662118" style="stroke: #000000; stroke-width: 0.8"/>
      </g>
     </g>
    </g>
    <g id="xtick_13">
     <g id="line2d_18">
      <g>
       <use xlink:href="#mb7e0cc8943" x="200.448" y="213.662118" style="stroke: #000000; stroke-width: 0.8"/>
      </g>
     </g>
    </g>
    <g id="xtick_14">
     <g id="line2d_19">
      <g>
       <use xlink:href="#mb7e0cc8943" x="248.064" y="213.662118" style="stroke: #000000; stroke-width: 0.8"/>
      </g>
     </g>
    </g>
    <g id="xtick_15">
     <g id="line2d_20">
      <g>
       <use xlink:href="#mb7e0cc8943" x="295.68" y="213.662118" style="stroke: #000000; stroke-width: 0.8"/>
      </g>
     </g>
    </g>
    <g id="xtick_16">
     <g id="line2d_21">
      <g>
       <use xlink:href="#mb7e0cc8943" x="343.296" y="213.662118" style="stroke: #000000; stroke-width: 0.8"/>
      </g>
     </g>
    </g>
    <g id="xtick_17">
     <g id="line2d_22">
      <g>
       <use xlink:href="#mb7e0cc8943" x="390.912" y="213.662118" style="stroke: #000000; stroke-width: 0.8"/>
      </g>
     </g>
    </g>
    <g id="xtick_18">
     <g id="line2d_23">
      <g>
       <use xlink:href="#mb7e0cc8943" x="414.72" y="213.662118" style="stroke: #000000; stroke-width: 0.8"/>
      </g>
     </g>
    </g>
   </g>
   <g id="matplotlib.axis_4">
    <g id="ytick_4">
     <g id="line2d_24">
      <g>
       <use xlink:href="#m368e5ad4db" x="57.6" y="204.400445" style="stroke: #000000; stroke-width: 0.8"/>
      </g>
     </g>
     <g id="text_4">
      <!-- −20 -->
      <g transform="translate(29.495313 208.199664) scale(0.1 -0.1)">
       <defs>
        <path id="DejaVuSans-32" d="M 1228 531 
L 3431 531 
L 3431 0 
L 469 0 
L 469 531 
Q 828 903 1448 1529 
Q 2069 2156 2228 2338 
Q 2531 2678 2651 2914 
Q 2772 3150 2772 3378 
Q 2772 3750 2511 3984 
Q 2250 4219 1831 4219 
Q 1534 4219 1204 4116 
Q 875 4013 500 3803 
L 500 4441 
Q 881 4594 1212 4672 
Q 1544 4750 1819 4750 
Q 2544 4750 2975 4387 
Q 3406 4025 3406 3419 
Q 3406 3131 3298 2873 
Q 3191 2616 2906 2266 
Q 2828 2175 2409 1742 
Q 1991 1309 1228 531 
z
" transform="scale(0.015625)"/>
       </defs>
       <use xlink:href="#DejaVuSans-2212"/>
       <use xlink:href="#DejaVuSans-32" x="83.789062"/>
       <use xlink:href="#DejaVuSans-30" x="147.412109"/>
      </g>
     </g>
    </g>
    <g id="ytick_5">
     <g id="line2d_25">
      <g>
       <use xlink:href="#m368e5ad4db" x="57.6" y="173.243863" style="stroke: #000000; stroke-width: 0.8"/>
      </g>
     </g>
     <g id="text_5">
      <!-- 0 -->
      <g transform="translate(44.2375 177.043082) scale(0.1 -0.1)">
       <use xlink:href="#DejaVuSans-30"/>
      </g>
     </g>
    </g>
    <g id="ytick_6">
     <g id="line2d_26">
      <g>
       <use xlink:href="#m368e5ad4db" x="57.6" y="142.087282" style="stroke: #000000; stroke-width: 0.8"/>
      </g>
     </g>
     <g id="text_6">
      <!-- 20 -->
      <g transform="translate(37.875 145.886501) scale(0.1 -0.1)">
       <use xlink:href="#DejaVuSans-32"/>
       <use xlink:href="#DejaVuSans-30" x="63.623047"/>
      </g>
     </g>
    </g>
   </g>
   <g id="line2d_27">
    <path d="M 57.6 180.025287 
L 58.7904 183.005835 
L 59.9808 187.303505 
L 62.3616 199.075264 
L 63.552 201.737351 
L 64.7424 196.342537 
L 65.9328 185.017845 
L 67.1232 176.003052 
L 68.3136 172.297349 
L 69.504 171.737362 
L 73.0752 173.10355 
L 77.8368 174.16236 
L 79.0272 174.68579 
L 80.2176 175.535652 
L 81.408 176.938822 
L 82.5984 179.270906 
L 83.7888 183.130064 
L 84.9792 189.333037 
L 87.36 207.898516 
L 88.5504 208.332005 
L 89.7408 191.726444 
L 90.9312 173.006136 
L 92.1216 165.298715 
L 93.312 164.253953 
L 94.5024 164.626412 
L 95.6928 164.502203 
L 96.8832 163.447584 
L 98.0736 161.43498 
L 99.264 158.575613 
L 100.4544 155.250465 
L 101.6448 152.438238 
L 102.8352 151.785139 
L 104.0256 154.527685 
L 106.4064 164.557618 
L 107.5968 167.400292 
L 108.7872 168.27172 
L 109.9776 167.870832 
L 111.168 166.692918 
L 112.3584 164.895993 
L 113.5488 162.434358 
L 114.7392 159.24506 
L 117.12 152.10784 
L 118.3104 150.798031 
L 119.5008 153.311322 
L 121.8816 164.614916 
L 123.072 167.99277 
L 124.2624 169.0977 
L 125.4528 168.796337 
L 126.6432 167.71099 
L 127.8336 166.045026 
L 129.024 163.73607 
L 130.2144 160.635432 
L 132.5952 152.589055 
L 133.7856 149.843391 
L 134.976 150.931975 
L 136.1664 156.486618 
L 137.3568 163.387244 
L 138.5472 168.102745 
L 139.7376 169.979401 
L 140.928 170.04 
L 142.1184 169.197923 
L 143.3088 167.826181 
L 144.4992 165.918603 
L 145.6896 163.282498 
L 146.88 159.69785 
L 149.2608 150.573688 
L 150.4512 148.221004 
L 151.6416 151.076026 
L 154.0224 166.198036 
L 155.2128 170.333265 
L 156.4032 171.508742 
L 157.5936 171.190484 
L 158.784 170.260104 
L 159.9744 168.974186 
L 161.1648 167.24428 
L 162.3552 164.813512 
L 163.5456 161.352865 
L 164.736 156.630992 
L 165.9264 151.031788 
L 167.1168 146.631318 
L 168.3072 147.51848 
L 169.4976 155.5264 
L 170.688 165.422169 
L 171.8784 171.427446 
L 173.0688 173.36152 
L 174.2592 173.309005 
L 176.64 171.864289 
L 177.8304 170.987872 
L 179.0208 169.86902 
L 180.2112 168.26458 
L 181.4016 165.835109 
L 182.592 162.127623 
L 183.7824 156.67474 
L 184.9728 149.575631 
L 186.1632 143.205831 
L 187.3536 143.780109 
L 188.544 155.017873 
L 189.7344 168.40884 
L 190.9248 175.368743 
L 192.1152 177.046024 
L 193.3056 176.863499 
L 194.496 176.564994 
L 195.6864 176.701842 
L 196.8768 177.417697 
L 198.0672 178.822044 
L 199.2576 181.126503 
L 200.448 184.666965 
L 201.6384 189.774842 
L 202.8288 196.215007 
L 204.0192 201.755788 
L 205.2096 201.16744 
L 206.4 191.50902 
L 207.5904 179.610457 
L 208.7808 172.911808 
L 209.9712 171.04095 
L 211.1616 171.155812 
L 212.352 171.624913 
L 213.5424 171.904374 
L 214.7328 171.892809 
L 215.9232 171.587236 
L 217.1136 170.951469 
L 218.304 169.867088 
L 219.4944 168.099055 
L 220.6848 165.253604 
L 221.8752 160.757706 
L 223.0656 154.042187 
L 224.256 145.564431 
L 225.4464 139.617775 
L 226.6368 145.004605 
L 227.8272 161.43206 
L 229.0176 174.463355 
L 230.208 178.991472 
L 231.3984 179.410803 
L 232.5888 179.112819 
L 233.7792 179.313911 
L 234.9696 180.333957 
L 236.16 182.295039 
L 237.3504 185.329135 
L 238.5408 189.488732 
L 239.7312 194.317779 
L 240.9216 198.056981 
L 242.112 197.530196 
L 243.3024 191.219353 
L 244.4928 182.815166 
L 245.6832 177.113975 
L 246.8736 174.935524 
L 248.064 174.819392 
L 249.2544 175.555258 
L 250.4448 176.6627 
L 251.6352 178.119456 
L 252.8256 180.127053 
L 254.016 183.001636 
L 255.2064 187.081813 
L 257.5872 198.098803 
L 258.7776 200.787216 
L 259.968 196.323712 
L 261.1584 186.100402 
L 262.3488 177.338815 
L 263.5392 173.382477 
L 264.7296 172.622749 
L 265.92 173.055336 
L 269.4912 175.192567 
L 270.6816 176.183781 
L 271.872 177.635974 
L 273.0624 179.874403 
L 274.2528 183.356988 
L 275.4432 188.628612 
L 277.824 203.291548 
L 279.0144 204.727817 
L 280.2048 194.250637 
L 281.3952 179.229454 
L 282.5856 170.712169 
L 283.776 168.485894 
L 284.9664 168.573103 
L 286.1568 168.826761 
L 287.3472 168.553004 
L 288.5376 167.56214 
L 289.728 165.721106 
L 290.9184 162.814132 
L 292.1088 158.593368 
L 294.4896 147.70217 
L 295.68 145.939734 
L 296.8704 151.595148 
L 298.0608 162.000731 
L 299.2512 170.005554 
L 300.4416 173.296615 
L 301.632 173.767177 
L 302.8224 173.25492 
L 305.2032 171.831283 
L 306.3936 171.005238 
L 307.584 169.894379 
L 308.7744 168.243978 
L 309.9648 165.694647 
L 311.1552 161.756258 
L 312.3456 155.924521 
L 313.536 148.3735 
L 314.7264 141.975018 
L 315.9168 143.797128 
L 318.2976 170.396976 
L 319.488 176.654594 
L 320.6784 177.876271 
L 323.0592 177.448394 
L 324.2496 177.866241 
L 325.44 179.005558 
L 326.6304 181.014417 
L 327.8208 184.137717 
L 329.0112 188.632761 
L 331.392 199.6835 
L 332.5824 200.560399 
L 333.7728 193.583981 
L 334.9632 182.78712 
L 336.1536 175.363858 
L 337.344 172.655842 
L 338.5344 172.444154 
L 340.9152 173.637344 
L 343.296 174.901712 
L 344.4864 175.765689 
L 345.6768 177.045821 
L 346.8672 179.040887 
L 348.0576 182.188788 
L 349.248 187.068284 
L 350.4384 194.107674 
L 351.6288 202.274858 
L 352.8192 206.255015 
L 354.0096 198.129651 
L 355.2 181.94912 
L 356.3904 171.142859 
L 357.5808 167.863495 
L 358.7712 167.738108 
L 359.9616 168.012 
L 361.152 167.750132 
L 362.3424 166.703363 
L 363.5328 164.743034 
L 364.7232 161.694837 
L 365.9136 157.42322 
L 367.104 152.252239 
L 368.2944 147.862459 
L 369.4848 147.756211 
L 370.6752 154.199216 
L 371.8656 163.47175 
L 373.056 169.8951 
L 374.2464 172.355466 
L 375.4368 172.549586 
L 376.6272 171.893602 
L 377.8176 170.957309 
L 379.008 169.803759 
L 380.1984 168.265179 
L 381.3888 166.051267 
L 382.5792 162.778948 
L 383.7696 158.056375 
L 386.1504 145.862503 
L 387.3408 144.546308 
L 388.5312 152.208836 
L 389.7216 164.296674 
L 390.912 172.344361 
L 392.1024 175.083806 
L 393.2928 175.243861 
L 395.6736 174.386046 
L 396.864 174.253931 
L 398.0544 174.368839 
L 399.2448 174.729361 
L 400.4352 175.391069 
L 401.6256 176.493065 
L 402.816 178.291567 
L 404.0064 181.209077 
L 405.1968 185.864292 
L 406.3872 192.884854 
L 407.5776 201.788103 
L 408.768 207.829752 
L 409.9584 201.417374 
L 411.1488 183.753975 
L 412.3392 170.689628 
L 413.5296 166.548942 
L 414.72 166.309348 
L 414.72 166.309348 
" clip-path="url(#p0a089bc964)" style="fill: none; stroke: #0000cc; stroke-width: 1.5; stroke-linecap: square"/>
   </g>
   <g id="line2d_28">
    <path d="M -1 171.31888 
L -0.134393 170.62229 
L 1.056 169.39846 
L 2.246393 167.769898 
L 3.436798 165.469897 
L 4.627202 162.146434 
L 5.817607 157.487967 
L 8.198405 146.464002 
L 8.793607 145.364425 
L 9.388809 146.106158 
L 9.984 148.985637 
L 11.174405 159.2107 
L 11.769595 164.483267 
L 12.364809 168.683353 
L 12.96 171.541398 
L 13.555191 173.198966 
L 14.150405 173.973214 
L 14.745595 174.183747 
L 15.340786 174.0783 
L 17.126405 173.191205 
L 20.697618 171.303484 
L 21.888023 170.311413 
L 22.483214 169.635847 
L 23.078405 168.790874 
L 23.673618 167.728555 
L 24.268809 166.390648 
L 24.864 164.707853 
L 25.459214 162.601892 
L 26.054405 159.993472 
L 27.244809 153.091869 
L 29.030405 141.385518 
L 29.625595 139.935979 
L 30.220809 141.632233 
L 30.816 146.923343 
L 32.601595 170.250661 
L 33.196809 174.972872 
L 33.792 177.59728 
L 34.387191 178.752416 
L 34.982405 179.06559 
L 36.172809 178.821674 
L 36.768 178.707563 
L 37.363191 178.733773 
L 37.958405 178.940361 
L 38.553595 179.347721 
L 39.148786 179.969916 
L 39.744 180.821946 
L 40.339191 181.922514 
L 40.934405 183.293885 
L 42.124786 186.924109 
L 43.315214 191.665181 
L 44.505618 196.60892 
L 45.100809 198.403532 
L 45.696023 199.12176 
L 46.291214 198.322456 
L 46.886405 195.840061 
L 48.076809 187.408959 
L 49.267214 179.392249 
L 49.862405 176.819209 
L 50.457618 175.237263 
L 51.052809 174.435975 
L 51.648 174.176035 
L 52.243214 174.257589 
L 53.433595 174.93815 
L 54.624 175.935398 
L 55.814405 177.199161 
L 57.004809 178.910358 
L 58.195191 181.373829 
L 58.790405 183.006079 
L 59.980809 187.303848 
L 61.171191 193.025805 
L 62.361595 199.075122 
L 62.956786 201.170439 
L 63.552 201.736696 
L 64.147191 200.164768 
L 64.742405 196.341393 
L 66.528 179.83666 
L 67.123191 176.000463 
L 67.718405 173.577175 
L 68.313595 172.294543 
L 68.908809 171.786358 
L 69.504 171.73475 
L 70.694405 172.181308 
L 72.48 172.926081 
L 74.265595 173.367646 
L 77.241595 173.971792 
L 78.432 174.384887 
L 79.622405 175.044838 
L 80.812809 176.127259 
L 81.408 176.911279 
L 82.003191 177.922356 
L 82.598405 179.226325 
L 83.193595 180.905384 
L 83.788809 183.058445 
L 84.384 185.795987 
L 84.979191 189.223279 
L 86.169595 198.228407 
L 87.36 207.802584 
L 87.955191 210.104471 
L 88.550405 208.461659 
L 89.145595 202.015134 
L 90.931191 173.186177 
L 91.526405 167.951174 
L 92.121595 165.329392 
L 92.716809 164.363807 
L 93.312 164.237142 
L 94.502405 164.60939 
L 95.097595 164.658515 
L 95.692809 164.496938 
L 96.288 164.098155 
L 96.883191 163.455599 
L 97.478405 162.572006 
L 98.668786 160.124305 
L 100.454405 155.290532 
L 101.644786 152.472137 
L 102.24 151.754299 
L 102.835191 151.791197 
L 103.430405 152.713595 
L 104.025595 154.493547 
L 105.216 159.630976 
L 106.406405 164.507 
L 107.001595 166.218905 
L 107.596809 167.369628 
L 108.192 168.018064 
L 108.787191 168.258048 
L 109.382405 168.182938 
L 109.977595 167.867697 
L 110.572786 167.362753 
L 111.763191 165.878325 
L 112.953595 163.767096 
L 114.144 160.949764 
L 115.334405 157.445969 
L 116.524809 153.716312 
L 117.12 152.141475 
L 117.715191 151.083103 
L 118.310405 150.813624 
L 118.905595 151.537865 
L 119.500809 153.292468 
L 120.691191 158.920325 
L 121.881595 164.569603 
L 122.476786 166.590605 
L 123.072 167.962322 
L 123.667191 168.753586 
L 124.262405 169.080964 
L 124.857595 169.060974 
L 125.452786 168.787604 
L 126.048 168.324126 
L 127.238405 166.947152 
L 128.428809 164.980078 
L 129.619191 162.296193 
L 130.809595 158.781905 
L 133.190405 150.914705 
L 133.785595 149.868277 
L 134.380786 149.80326 
L 134.976 150.942583 
L 135.571191 153.27033 
L 137.952 166.09769 
L 138.547191 168.075095 
L 139.142405 169.318712 
L 139.737595 169.958269 
L 140.332809 170.148289 
L 140.928 170.023319 
L 141.523191 169.681246 
L 142.713595 168.556588 
L 143.904 166.931397 
L 145.094405 164.687156 
L 146.284786 161.596991 
L 147.475191 157.514399 
L 149.260786 150.575461 
L 149.856 148.924125 
L 150.451191 148.250156 
L 151.046405 148.934517 
L 151.641595 151.124185 
L 152.236809 154.582038 
L 154.022405 166.203268 
L 154.617595 168.715504 
L 155.212809 170.317733 
L 155.808 171.172179 
L 156.403191 171.484749 
L 156.998405 171.4374 
L 157.593595 171.16288 
L 158.784 170.228242 
L 159.974405 168.935122 
L 161.164786 167.194075 
L 162.355191 164.747628 
L 163.545595 161.268383 
L 164.736 156.53272 
L 166.521595 148.399971 
L 167.116809 146.625631 
L 167.712 146.216417 
L 168.307191 147.649775 
L 168.902405 150.993352 
L 171.283191 169.109736 
L 171.878405 171.454097 
L 172.473595 172.765233 
L 173.068786 173.333805 
L 173.664 173.431389 
L 174.259191 173.261989 
L 175.449595 172.593007 
L 177.830405 170.902563 
L 179.020809 169.751491 
L 180.211191 168.096219 
L 180.806405 166.975607 
L 181.401595 165.589983 
L 181.996786 163.878243 
L 182.592 161.775773 
L 183.782405 156.204536 
L 186.163191 143.013706 
L 186.758405 142.323911 
L 187.353595 144.357646 
L 187.948809 149.253173 
L 189.734405 169.075466 
L 190.329595 173.157321 
L 190.924809 175.520578 
L 191.52 176.628876 
L 192.115191 176.973247 
L 192.710405 176.930187 
L 194.496 176.456861 
L 195.091191 176.465986 
L 195.686405 176.607391 
L 196.281595 176.891012 
L 196.876786 177.327419 
L 197.472 177.931798 
L 198.067191 178.726249 
L 198.662405 179.74203 
L 199.257595 181.018829 
L 199.852809 182.603931 
L 200.448 184.547787 
L 201.638382 189.660932 
L 204.019191 201.852774 
L 204.614382 202.793192 
L 205.209618 201.447766 
L 205.804809 197.569384 
L 208.185618 175.427982 
L 208.780809 172.786975 
L 209.376 171.407475 
L 209.971191 170.868115 
L 210.566382 170.807655 
L 211.756809 171.207757 
L 212.947191 171.58381 
L 214.137618 171.664328 
L 215.328 171.412334 
L 216.518382 170.799175 
L 217.708809 169.721376 
L 218.304 168.945139 
L 218.899236 167.959012 
L 219.494427 166.711183 
L 220.089618 165.137718 
L 220.684809 163.165274 
L 221.28 160.716204 
L 222.470382 154.177154 
L 224.256 142.378284 
L 224.851191 140.32354 
L 225.446382 141.067472 
L 226.041618 145.328306 
L 228.422382 173.639232 
L 229.017618 176.781356 
L 229.612809 178.286585 
L 230.208 178.793428 
L 230.803236 178.802992 
L 231.993618 178.493117 
L 232.588809 178.461596 
L 233.184 178.595219 
L 233.779191 178.918348 
L 234.374382 179.446061 
L 234.969618 180.192935 
L 235.564809 181.176986 
L 236.16 182.421223 
L 236.755191 183.950848 
L 237.945618 187.936399 
L 240.326382 197.833719 
L 240.921618 199.251451 
L 241.516809 199.31825 
L 242.112 197.668247 
L 242.707236 194.335792 
L 244.492809 180.902733 
L 245.088 177.701025 
L 245.683191 175.593467 
L 246.278382 174.414382 
L 246.873618 173.910205 
L 247.468809 173.844351 
L 248.064 174.038455 
L 249.254382 174.793959 
L 250.444809 175.775565 
L 251.635191 176.998807 
L 252.825618 178.668024 
L 253.420809 179.764695 
L 254.016 181.098788 
L 254.611236 182.723413 
L 255.206427 184.691495 
L 256.396809 189.803516 
L 258.777618 201.642814 
L 259.372809 202.433771 
L 259.968 200.980784 
L 260.563191 197.094535 
L 262.348809 179.660138 
L 262.944 175.591201 
L 263.539191 173.039654 
L 264.134382 171.703466 
L 264.729618 171.180595 
L 265.324809 171.126053 
L 266.515236 171.542834 
L 267.705618 171.970219 
L 268.896 172.153848 
L 270.086382 172.075546 
L 271.276809 171.740288 
L 272.467191 171.101362 
L 273.657618 170.029327 
L 274.252809 169.260614 
L 274.848 168.280678 
L 275.443191 167.033098 
L 276.038382 165.448919 
L 276.633618 163.446212 
L 277.228809 160.936118 
L 277.824 157.838552 
L 279.014427 149.852596 
L 280.204809 141.349395 
L 280.8 138.997968 
L 281.395191 139.719471 
L 281.990382 144.380815 
L 284.371191 175.041328 
L 284.966382 178.194243 
L 285.561618 179.619022 
L 286.156809 180.039644 
L 286.752 179.994995 
L 287.942382 179.702547 
L 288.537618 179.737351 
L 289.132809 179.970521 
L 289.728 180.423618 
L 290.323236 181.109315 
L 290.918427 182.038677 
L 291.513618 183.223621 
L 292.704 186.397509 
L 293.894382 190.553494 
L 295.084809 194.971148 
L 295.68 196.701722 
L 296.275191 197.627869 
L 296.870382 197.374717 
L 297.465618 195.731811 
L 298.060809 192.806523 
L 299.846382 181.650163 
L 300.441618 178.948932 
L 301.036809 177.118352 
L 301.632 176.055577 
L 302.227236 175.581739 
L 302.822427 175.519374 
L 303.417618 175.728606 
L 304.608 176.626082 
L 305.798382 177.95286 
L 306.988809 179.760204 
L 308.179191 182.281083 
L 309.369618 185.8066 
L 310.56 190.474775 
L 312.345618 197.939838 
L 312.940809 199.300703 
L 313.536 199.28123 
L 314.131236 197.531112 
L 314.726427 194.113302 
L 316.512 180.686778 
L 317.107191 177.545386 
L 317.702382 175.494956 
L 318.297618 174.360618 
L 318.892809 173.887336 
L 319.488 173.840439 
L 320.083191 174.04519 
L 321.273618 174.809114 
L 322.464 175.794057 
L 323.654382 177.022875 
L 324.844809 178.703323 
L 325.44 179.808438 
L 326.035236 181.153343 
L 326.630427 182.791023 
L 327.225618 184.774816 
L 328.416 189.922048 
L 330.201618 199.43205 
L 330.796809 201.72621 
L 331.392 202.441272 
L 331.987191 200.888171 
L 332.582382 196.902641 
L 334.368 179.446548 
L 334.963191 175.437993 
L 335.558382 172.942634 
L 336.153618 171.648059 
L 336.748809 171.151418 
L 337.344 171.110898 
L 338.534427 171.533567 
L 339.724809 171.953519 
L 340.915191 172.124719 
L 342.105618 172.030114 
L 343.296 171.67156 
L 344.486382 170.997609 
L 345.676809 169.870475 
L 346.272 169.062721 
L 346.867191 168.033858 
L 347.462382 166.725484 
L 348.057618 165.065822 
L 348.652809 162.971726 
L 349.248 160.355197 
L 349.843236 157.142305 
L 351.033618 148.988433 
L 352.224 140.783144 
L 352.819191 138.951529 
L 353.414382 140.418663 
L 354.009618 145.810726 
L 355.795191 170.711092 
L 356.390382 175.739653 
L 356.985618 178.490269 
L 357.580809 179.668812 
L 358.176 179.96712 
L 360.556809 179.676031 
L 361.152 179.944949 
L 361.747236 180.434786 
L 362.342427 181.158148 
L 362.937618 182.126291 
L 363.532809 183.352571 
L 364.723191 186.616337 
L 365.913618 190.858291 
L 367.104 195.294401 
L 367.699191 196.972789 
L 368.294382 197.787353 
L 368.889618 197.366104 
L 369.484809 195.52568 
L 370.08 192.421119 
L 371.865618 181.172279 
L 372.460809 178.559868 
L 373.056 176.826279 
L 373.651236 175.848189 
L 374.246427 175.438749 
L 374.841618 175.420475 
L 375.436809 175.657457 
L 376.627191 176.579723 
L 377.817618 177.913319 
L 379.008 179.72563 
L 380.198382 182.259278 
L 381.388809 185.813558 
L 382.579191 190.534508 
L 384.364809 198.106763 
L 384.96 199.483361 
L 385.555236 199.447955 
L 386.150427 197.64261 
L 386.745618 194.137425 
L 388.531191 180.49057 
L 389.126382 177.335442 
L 389.721618 175.291715 
L 390.316809 174.172609 
L 390.912 173.714194 
L 391.507191 173.677548 
L 392.102382 173.886284 
L 393.292809 174.638672 
L 395.078382 176.133487 
L 396.268809 177.477145 
L 397.459236 179.382417 
L 398.054427 180.654163 
L 398.649618 182.208086 
L 399.244809 184.10026 
L 400.435191 189.077154 
L 402.816 201.478382 
L 403.411191 202.785498 
L 404.006382 201.927416 
L 404.601618 198.518483 
L 405.792 186.571469 
L 406.387191 180.640372 
L 406.982382 176.104696 
L 407.577618 173.172333 
L 408.172809 171.580692 
L 408.768 170.910028 
L 409.363236 170.780258 
L 410.553618 171.146219 
L 411.744 171.540993 
L 412.934382 171.648301 
L 414.124809 171.420928 
L 414.72 171.175732 
L 414.72 171.175732 
" clip-path="url(#p0a089bc964)" style="fill: none; stroke-dasharray: 9.6,2.4,1.5,2.4; stroke-dashoffset: 0; stroke: #ff0000; stroke-width: 1.5"/>
   </g>
   <g id="patch_8">
    <path d="M 57.6 213.662118 
L 57.6 135.393882 
" style="fill: none; stroke: #000000; stroke-width: 0.8; stroke-linejoin: miter; stroke-linecap: square"/>
   </g>
   <g id="patch_9">
    <path d="M 414.72 213.662118 
L 414.72 135.393882 
" style="fill: none; stroke: #000000; stroke-width: 0.8; stroke-linejoin: miter; stroke-linecap: square"/>
   </g>
   <g id="patch_10">
    <path d="M 57.6 213.662118 
L 414.72 213.662118 
" style="fill: none; stroke: #000000; stroke-width: 0.8; stroke-linejoin: miter; stroke-linecap: square"/>
   </g>
   <g id="patch_11">
    <path d="M 57.6 135.393882 
L 414.72 135.393882 
" style="fill: none; stroke: #000000; stroke-width: 0.8; stroke-linejoin: miter; stroke-linecap: square"/>
   </g>
  </g>
  <g id="axes_3">
   <g id="patch_12">
    <path d="M 57.6 307.584 
L 414.72 307.584 
L 414.72 229.315765 
L 57.6 229.315765 
z
" style="fill: #ffffff"/>
   </g>
   <g id="matplotlib.axis_5">
    <g id="xtick_19">
     <g id="line2d_29">
      <g>
       <use xlink:href="#mb7e0cc8943" x="57.6" y="307.584" style="stroke: #000000; stroke-width: 0.8"/>
      </g>
     </g>
     <g id="text_7">
      <!-- 10 -->
      <g transform="translate(51.2375 322.182437) scale(0.1 -0.1)">
       <use xlink:href="#DejaVuSans-31"/>
       <use xlink:href="#DejaVuSans-30" x="63.623047"/>
      </g>
     </g>
    </g>
    <g id="xtick_20">
     <g id="line2d_30">
      <g>
       <use xlink:href="#mb7e0cc8943" x="105.216" y="307.584" style="stroke: #000000; stroke-width: 0.8"/>
      </g>
     </g>
     <g id="text_8">
      <!-- 12 -->
      <g transform="translate(98.8535 322.182437) scale(0.1 -0.1)">
       <use xlink:href="#DejaVuSans-31"/>
       <use xlink:href="#DejaVuSans-32" x="63.623047"/>
      </g>
     </g>
    </g>
    <g id="xtick_21">
     <g id="line2d_31">
      <g>
       <use xlink:href="#mb7e0cc8943" x="152.832" y="307.584" style="stroke: #000000; stroke-width: 0.8"/>
      </g>
     </g>
     <g id="text_9">
      <!-- 14 -->
      <g transform="translate(146.4695 322.182437) scale(0.1 -0.1)">
       <defs>
        <path id="DejaVuSans-34" d="M 2419 4116 
L 825 1625 
L 2419 1625 
L 2419 4116 
z
M 2253 4666 
L 3047 4666 
L 3047 1625 
L 3713 1625 
L 3713 1100 
L 3047 1100 
L 3047 0 
L 2419 0 
L 2419 1100 
L 313 1100 
L 313 1709 
L 2253 4666 
z
" transform="scale(0.015625)"/>
       </defs>
       <use xlink:href="#DejaVuSans-31"/>
       <use xlink:href="#DejaVuSans-34" x="63.623047"/>
      </g>
     </g>
    </g>
    <g id="xtick_22">
     <g id="line2d_32">
      <g>
       <use xlink:href="#mb7e0cc8943" x="200.448" y="307.584" style="stroke: #000000; stroke-width: 0.8"/>
      </g>
     </g>
     <g id="text_10">
      <!-- 16 -->
      <g transform="translate(194.0855 322.182437) scale(0.1 -0.1)">
       <defs>
        <path id="DejaVuSans-36" d="M 2113 2584 
Q 1688 2584 1439 2293 
Q 1191 2003 1191 1497 
Q 1191 994 1439 701 
Q 1688 409 2113 409 
Q 2538 409 2786 701 
Q 3034 994 3034 1497 
Q 3034 2003 2786 2293 
Q 2538 2584 2113 2584 
z
M 3366 4563 
L 3366 3988 
Q 3128 4100 2886 4159 
Q 2644 4219 2406 4219 
Q 1781 4219 1451 3797 
Q 1122 3375 1075 2522 
Q 1259 2794 1537 2939 
Q 1816 3084 2150 3084 
Q 2853 3084 3261 2657 
Q 3669 2231 3669 1497 
Q 3669 778 3244 343 
Q 2819 -91 2113 -91 
Q 1303 -91 875 529 
Q 447 1150 447 2328 
Q 447 3434 972 4092 
Q 1497 4750 2381 4750 
Q 2619 4750 2861 4703 
Q 3103 4656 3366 4563 
z
" transform="scale(0.015625)"/>
       </defs>
       <use xlink:href="#DejaVuSans-31"/>
       <use xlink:href="#DejaVuSans-36" x="63.623047"/>
      </g>
     </g>
    </g>
    <g id="xtick_23">
     <g id="line2d_33">
      <g>
       <use xlink:href="#mb7e0cc8943" x="248.064" y="307.584" style="stroke: #000000; stroke-width: 0.8"/>
      </g>
     </g>
     <g id="text_11">
      <!-- 18 -->
      <g transform="translate(241.7015 322.182437) scale(0.1 -0.1)">
       <defs>
        <path id="DejaVuSans-38" d="M 2034 2216 
Q 1584 2216 1326 1975 
Q 1069 1734 1069 1313 
Q 1069 891 1326 650 
Q 1584 409 2034 409 
Q 2484 409 2743 651 
Q 3003 894 3003 1313 
Q 3003 1734 2745 1975 
Q 2488 2216 2034 2216 
z
M 1403 2484 
Q 997 2584 770 2862 
Q 544 3141 544 3541 
Q 544 4100 942 4425 
Q 1341 4750 2034 4750 
Q 2731 4750 3128 4425 
Q 3525 4100 3525 3541 
Q 3525 3141 3298 2862 
Q 3072 2584 2669 2484 
Q 3125 2378 3379 2068 
Q 3634 1759 3634 1313 
Q 3634 634 3220 271 
Q 2806 -91 2034 -91 
Q 1263 -91 848 271 
Q 434 634 434 1313 
Q 434 1759 690 2068 
Q 947 2378 1403 2484 
z
M 1172 3481 
Q 1172 3119 1398 2916 
Q 1625 2713 2034 2713 
Q 2441 2713 2670 2916 
Q 2900 3119 2900 3481 
Q 2900 3844 2670 4047 
Q 2441 4250 2034 4250 
Q 1625 4250 1398 4047 
Q 1172 3844 1172 3481 
z
" transform="scale(0.015625)"/>
       </defs>
       <use xlink:href="#DejaVuSans-31"/>
       <use xlink:href="#DejaVuSans-38" x="63.623047"/>
      </g>
     </g>
    </g>
    <g id="xtick_24">
     <g id="line2d_34">
      <g>
       <use xlink:href="#mb7e0cc8943" x="295.68" y="307.584" style="stroke: #000000; stroke-width: 0.8"/>
      </g>
     </g>
     <g id="text_12">
      <!-- 20 -->
      <g transform="translate(289.3175 322.182437) scale(0.1 -0.1)">
       <use xlink:href="#DejaVuSans-32"/>
       <use xlink:href="#DejaVuSans-30" x="63.623047"/>
      </g>
     </g>
    </g>
    <g id="xtick_25">
     <g id="line2d_35">
      <g>
       <use xlink:href="#mb7e0cc8943" x="343.296" y="307.584" style="stroke: #000000; stroke-width: 0.8"/>
      </g>
     </g>
     <g id="text_13">
      <!-- 22 -->
      <g transform="translate(336.9335 322.182437) scale(0.1 -0.1)">
       <use xlink:href="#DejaVuSans-32"/>
       <use xlink:href="#DejaVuSans-32" x="63.623047"/>
      </g>
     </g>
    </g>
    <g id="xtick_26">
     <g id="line2d_36">
      <g>
       <use xlink:href="#mb7e0cc8943" x="390.912" y="307.584" style="stroke: #000000; stroke-width: 0.8"/>
      </g>
     </g>
     <g id="text_14">
      <!-- 24 -->
      <g transform="translate(384.5495 322.182437) scale(0.1 -0.1)">
       <use xlink:href="#DejaVuSans-32"/>
       <use xlink:href="#DejaVuSans-34" x="63.623047"/>
      </g>
     </g>
    </g>
    <g id="xtick_27">
     <g id="line2d_37">
      <g>
       <use xlink:href="#mb7e0cc8943" x="414.72" y="307.584" style="stroke: #000000; stroke-width: 0.8"/>
      </g>
     </g>
     <g id="text_15">
      <!-- 25 -->
      <g transform="translate(408.3575 322.182437) scale(0.1 -0.1)">
       <defs>
        <path id="DejaVuSans-35" d="M 691 4666 
L 3169 4666 
L 3169 4134 
L 1269 4134 
L 1269 2991 
Q 1406 3038 1543 3061 
Q 1681 3084 1819 3084 
Q 2600 3084 3056 2656 
Q 3513 2228 3513 1497 
Q 3513 744 3044 326 
Q 2575 -91 1722 -91 
Q 1428 -91 1123 -41 
Q 819 9 494 109 
L 494 744 
Q 775 591 1075 516 
Q 1375 441 1709 441 
Q 2250 441 2565 725 
Q 2881 1009 2881 1497 
Q 2881 1984 2565 2268 
Q 2250 2553 1709 2553 
Q 1456 2553 1204 2497 
Q 953 2441 691 2322 
L 691 4666 
z
" transform="scale(0.015625)"/>
       </defs>
       <use xlink:href="#DejaVuSans-32"/>
       <use xlink:href="#DejaVuSans-35" x="63.623047"/>
      </g>
     </g>
    </g>
   </g>
   <g id="matplotlib.axis_6">
    <g id="ytick_7">
     <g id="line2d_38">
      <g>
       <use xlink:href="#m368e5ad4db" x="57.6" y="278.373618" style="stroke: #000000; stroke-width: 0.8"/>
      </g>
     </g>
     <g id="text_16">
      <!-- 20 -->
      <g transform="translate(37.875 282.172837) scale(0.1 -0.1)">
       <use xlink:href="#DejaVuSans-32"/>
       <use xlink:href="#DejaVuSans-30" x="63.623047"/>
      </g>
     </g>
    </g>
    <g id="ytick_8">
     <g id="line2d_39">
      <g>
       <use xlink:href="#m368e5ad4db" x="57.6" y="240.53198" style="stroke: #000000; stroke-width: 0.8"/>
      </g>
     </g>
     <g id="text_17">
      <!-- 40 -->
      <g transform="translate(37.875 244.331199) scale(0.1 -0.1)">
       <use xlink:href="#DejaVuSans-34"/>
       <use xlink:href="#DejaVuSans-30" x="63.623047"/>
      </g>
     </g>
    </g>
   </g>
   <g id="line2d_40">
    <path d="M 57.6 286.996247 
L 58.7904 289.08554 
L 59.9808 289.380507 
L 61.1712 286.519607 
L 62.3616 278.431336 
L 64.7424 249.320815 
L 65.9328 243.469667 
L 67.1232 247.994608 
L 69.504 264.066347 
L 70.6944 270.754908 
L 71.8848 276.483662 
L 73.0752 281.454423 
L 74.2656 285.793643 
L 75.456 289.588042 
L 76.6464 292.90583 
L 77.8368 295.803031 
L 79.0272 298.322917 
L 80.2176 300.488947 
L 81.408 302.283109 
L 82.5984 303.584687 
L 83.7888 304.0016 
L 84.9792 302.433037 
L 86.1696 296.150463 
L 87.36 280.252666 
L 88.5504 253.709733 
L 89.7408 233.933086 
L 90.9312 236.797551 
L 92.1216 249.094466 
L 93.312 259.245918 
L 94.5024 266.333565 
L 95.6928 271.472072 
L 96.8832 275.177616 
L 98.0736 277.425012 
L 99.264 277.835764 
L 100.4544 275.791876 
L 101.6448 270.797906 
L 104.0256 256.364558 
L 105.216 252.977854 
L 106.4064 254.293575 
L 107.5968 258.565301 
L 109.9776 268.757515 
L 111.168 273.128069 
L 112.3584 276.611711 
L 113.5488 278.902459 
L 114.7392 279.503366 
L 115.9296 277.669564 
L 117.12 272.651798 
L 119.5008 256.394076 
L 120.6912 251.906758 
L 121.8816 252.883052 
L 123.072 257.405797 
L 125.4528 268.427584 
L 126.6432 273.196571 
L 127.8336 277.121211 
L 129.024 279.965907 
L 130.2144 281.307239 
L 131.4048 280.413903 
L 132.5952 276.293809 
L 133.7856 268.423774 
L 134.976 258.559804 
L 136.1664 251.421673 
L 137.3568 250.585164 
L 138.5472 254.775385 
L 140.928 266.79323 
L 142.1184 272.153603 
L 143.3088 276.72749 
L 144.4992 280.390813 
L 145.6896 282.887072 
L 146.88 283.687066 
L 148.0704 281.838288 
L 149.2608 276.072394 
L 150.4512 266.003245 
L 151.6416 254.718673 
L 152.832 248.473463 
L 154.0224 249.917523 
L 155.2128 255.818896 
L 157.5936 268.868406 
L 158.784 274.346377 
L 159.9744 279.032352 
L 161.1648 282.885399 
L 162.3552 285.733687 
L 163.5456 287.14769 
L 164.736 286.22382 
L 165.9264 281.413055 
L 167.1168 271.205655 
L 168.3072 257.20985 
L 169.4976 246.864201 
L 170.688 246.273138 
L 171.8784 252.494488 
L 174.2592 267.242758 
L 175.4496 273.325451 
L 176.64 278.591145 
L 177.8304 283.150887 
L 179.0208 287.0554 
L 180.2112 290.285459 
L 181.4016 292.694132 
L 182.592 293.853897 
L 183.7824 292.730881 
L 184.9728 287.21649 
L 186.1632 274.505715 
L 187.3536 255.599366 
L 188.544 241.620509 
L 189.7344 242.060076 
L 193.3056 267.44401 
L 194.496 273.63062 
L 195.6864 278.841657 
L 196.8768 283.242518 
L 198.0672 286.853408 
L 199.2576 289.539051 
L 200.448 290.884292 
L 201.6384 289.920751 
L 202.8288 284.791392 
L 204.0192 273.265606 
L 205.2096 256.566037 
L 206.4 244.022918 
L 207.5904 243.73909 
L 208.7808 251.307096 
L 209.9712 259.902203 
L 211.1616 267.317259 
L 212.352 273.563471 
L 213.5424 278.921434 
L 214.7328 283.569132 
L 215.9232 287.609257 
L 217.1136 291.103726 
L 218.304 294.075063 
L 219.4944 296.474772 
L 220.6848 298.091844 
L 221.8752 298.323219 
L 223.0656 295.670953 
L 224.256 287.072826 
L 225.4464 269.151912 
L 226.6368 246.662321 
L 227.8272 236.655006 
L 229.0176 243.114702 
L 230.208 253.864558 
L 231.3984 262.72835 
L 232.5888 269.528246 
L 233.7792 274.925158 
L 234.9696 279.209854 
L 236.16 282.342258 
L 237.3504 283.977874 
L 238.5408 283.360557 
L 239.7312 279.265154 
L 240.9216 270.63391 
L 242.112 258.865773 
L 243.3024 249.676718 
L 244.4928 248.221812 
L 245.6832 253.036585 
L 248.064 266.5064 
L 249.2544 272.357423 
L 250.4448 277.412329 
L 251.6352 281.67677 
L 252.8256 285.066131 
L 254.016 287.314379 
L 255.2064 287.801346 
L 256.3968 285.296534 
L 257.5872 277.9753 
L 259.968 251.08323 
L 261.1584 244.802088 
L 262.3488 248.285015 
L 264.7296 263.548995 
L 265.92 270.199793 
L 267.1104 275.931099 
L 268.3008 280.90391 
L 269.4912 285.220489 
L 270.6816 288.932447 
L 271.872 292.034886 
L 273.0624 294.415548 
L 274.2528 295.718366 
L 275.4432 295.032579 
L 276.6336 290.351498 
L 277.824 278.4903 
L 279.0144 258.821357 
L 280.2048 241.66567 
L 281.3952 239.859923 
L 282.5856 248.632468 
L 283.776 258.330399 
L 284.9664 266.184412 
L 286.1568 272.489028 
L 287.3472 277.692318 
L 288.5376 281.969499 
L 289.728 285.28131 
L 290.9184 287.348729 
L 292.1088 287.489027 
L 293.2992 284.373627 
L 294.4896 276.189085 
L 296.8704 249.478271 
L 298.0608 244.91151 
L 299.2512 249.422528 
L 301.632 264.659066 
L 302.8224 271.14365 
L 304.0128 276.739964 
L 305.2032 281.59749 
L 306.3936 285.806305 
L 307.584 289.404907 
L 308.7744 292.364689 
L 309.9648 294.520835 
L 311.1552 295.397611 
L 312.3456 293.833008 
L 313.536 287.444469 
L 314.7264 273.186424 
L 315.9168 252.915094 
L 317.1072 239.712579 
L 318.2976 242.066969 
L 320.6784 260.832006 
L 321.8688 268.178763 
L 323.0592 274.154784 
L 324.2496 279.123295 
L 325.44 283.200765 
L 326.6304 286.309752 
L 327.8208 288.120876 
L 329.0112 287.857415 
L 330.2016 284.040874 
L 331.392 274.792188 
L 332.5824 260.436417 
L 333.7728 247.659078 
L 334.9632 244.699797 
L 336.1536 250.300438 
L 338.5344 265.732409 
L 339.7248 272.10891 
L 340.9152 277.610114 
L 342.1056 282.392515 
L 343.296 286.552187 
L 344.4864 290.143988 
L 345.6768 293.177798 
L 346.8672 295.577766 
L 348.0576 297.070426 
L 349.248 296.915548 
L 350.4384 293.366376 
L 351.6288 283.196618 
L 354.0096 243.663645 
L 355.2 237.837277 
L 356.3904 245.764459 
L 357.5808 256.060926 
L 358.7712 264.409156 
L 359.9616 270.949447 
L 361.152 276.239188 
L 362.3424 280.501789 
L 363.5328 283.684941 
L 364.7232 285.455207 
L 365.9136 285.055414 
L 367.104 281.165962 
L 368.2944 272.399326 
L 369.4848 259.697081 
L 370.6752 249.075324 
L 371.8656 246.87021 
L 373.056 251.846536 
L 375.4368 266.06174 
L 376.6272 272.15823 
L 377.8176 277.437456 
L 379.008 281.969176 
L 380.1984 285.75412 
L 381.3888 288.677576 
L 382.5792 290.397177 
L 383.7696 290.104888 
L 384.96 286.184596 
L 386.1504 276.374061 
L 388.5312 246.207238 
L 389.7216 243.034166 
L 390.912 249.385643 
L 392.1024 258.002271 
L 393.2928 265.692143 
L 394.4832 272.176951 
L 395.6736 277.725755 
L 396.864 282.537632 
L 398.0544 286.730142 
L 399.2448 290.380551 
L 400.4352 293.539849 
L 401.6256 296.224711 
L 402.816 298.382196 
L 404.0064 299.793146 
L 405.1968 299.82587 
L 406.3872 296.882688 
L 407.5776 287.637431 
L 408.768 268.428796 
L 409.9584 244.846448 
L 411.1488 235.521031 
L 412.3392 243.142739 
L 413.5296 254.243896 
L 414.72 263.011005 
L 414.72 263.011005 
" clip-path="url(#p47b40b9f36)" style="fill: none; stroke: #0000cc; stroke-width: 1.5; stroke-linecap: square"/>
   </g>
   <g id="line2d_41">
    <path d="M -1 271.186427 
L -0.134393 275.118062 
L 1.056 279.817727 
L 2.246393 283.719604 
L 3.436798 286.686068 
L 4.032 287.715771 
L 4.627202 288.341776 
L 5.222405 288.443361 
L 5.817607 287.852048 
L 6.412809 286.3469 
L 7.008 283.667301 
L 7.603202 279.564368 
L 8.198405 273.917752 
L 10.579191 246.949789 
L 11.174405 244.492047 
L 11.769595 244.819857 
L 12.364809 247.243554 
L 13.555191 254.881171 
L 15.340786 266.256332 
L 16.531191 272.566104 
L 17.721595 278.012421 
L 18.912 282.749346 
L 20.102405 286.871841 
L 21.292809 290.43609 
L 22.483214 293.456712 
L 23.673618 295.869432 
L 24.268809 296.783401 
L 24.864 297.42837 
L 25.459214 297.704369 
L 26.054405 297.453968 
L 26.649618 296.437535 
L 27.244809 294.308559 
L 27.84 290.608701 
L 28.435214 284.829832 
L 29.030405 276.621891 
L 30.816 244.867822 
L 31.411214 238.68333 
L 32.006405 237.312942 
L 32.601595 239.904509 
L 33.792 250.033473 
L 34.982405 259.707787 
L 36.172809 267.224805 
L 37.363191 273.168135 
L 38.553595 277.971095 
L 39.744 281.725321 
L 40.339191 283.163958 
L 40.934405 284.249283 
L 41.529595 284.90438 
L 42.124786 285.020489 
L 42.72 284.451757 
L 43.315214 283.017675 
L 43.910405 280.522324 
L 44.505618 276.805269 
L 45.100809 271.839541 
L 46.886405 253.645107 
L 47.481618 249.341681 
L 48.076809 247.225192 
L 48.672 247.345186 
L 49.267214 249.235378 
L 50.457618 255.722192 
L 52.243214 266.170141 
L 53.433595 272.18779 
L 54.624 277.397027 
L 55.814405 281.845529 
L 57.004809 285.505434 
L 58.195191 288.210916 
L 58.790405 289.085159 
L 59.385595 289.521787 
L 59.980809 289.379701 
L 60.576 288.463068 
L 61.171191 286.518561 
L 61.766405 283.257404 
L 62.361595 278.430152 
L 62.956786 271.980219 
L 64.742405 249.320211 
L 65.337595 244.855351 
L 65.932786 243.469179 
L 66.528 244.82466 
L 67.123191 247.994476 
L 70.099191 267.546841 
L 71.289595 273.724741 
L 72.48 279.054489 
L 74.265595 285.793156 
L 76.051191 291.301928 
L 77.836786 295.802251 
L 79.622405 299.449847 
L 80.812809 301.437857 
L 82.003191 303.015523 
L 82.598405 303.59351 
L 83.193595 303.96266 
L 83.788809 304.026353 
L 84.384 303.624084 
L 84.979191 302.498796 
L 85.574405 300.252139 
L 86.169595 296.313026 
L 86.764786 289.968037 
L 87.36 280.581432 
L 89.145595 241.579978 
L 89.740786 234.038517 
L 90.336 232.873412 
L 90.931191 236.634256 
L 92.716809 254.472209 
L 93.907191 262.992925 
L 95.097595 269.020598 
L 96.288 273.433418 
L 96.883191 275.122126 
L 97.478405 276.451805 
L 98.073595 277.385205 
L 98.668786 277.864823 
L 99.264 277.817605 
L 99.859191 277.158546 
L 100.454405 275.80481 
L 101.049595 273.699681 
L 101.644786 270.849388 
L 102.835191 263.524157 
L 104.025595 256.438561 
L 104.620809 254.116993 
L 105.216 253.008157 
L 105.811191 253.124482 
L 106.406405 254.276311 
L 107.001595 256.172461 
L 108.192 261.084134 
L 109.977595 268.701518 
L 111.168 273.074755 
L 112.358405 276.563638 
L 112.953595 277.887031 
L 113.548786 278.862812 
L 114.144 279.421555 
L 114.739191 279.477563 
L 115.334405 278.928464 
L 115.929595 277.666302 
L 116.524809 275.597101 
L 117.12 272.680868 
L 118.310405 264.746738 
L 119.500809 256.461128 
L 120.096 253.524549 
L 120.691191 251.943442 
L 121.286405 251.793035 
L 121.881595 252.878526 
L 122.476786 254.857619 
L 123.667191 260.144801 
L 125.452786 268.3831 
L 126.643191 273.151955 
L 127.833595 277.077788 
L 129.024 279.924674 
L 129.619191 280.822401 
L 130.214405 281.270045 
L 130.809595 281.165358 
L 131.404809 280.385036 
L 132 278.795642 
L 132.595191 276.28144 
L 133.190405 272.796067 
L 134.380786 263.520442 
L 135.571191 254.368154 
L 136.166405 251.462349 
L 136.761595 250.222536 
L 137.356786 250.605385 
L 137.952 252.272038 
L 139.142405 257.707153 
L 141.523191 269.541657 
L 142.713595 274.517544 
L 143.904 278.653133 
L 145.094405 281.773046 
L 145.689595 282.846869 
L 146.284786 283.502888 
L 146.88 283.637297 
L 147.475191 283.115828 
L 148.070405 281.776278 
L 148.665595 279.448797 
L 149.260786 276.001532 
L 149.856 271.425101 
L 151.641595 254.700361 
L 152.236809 250.636737 
L 152.832 248.503591 
L 153.427191 248.399364 
L 154.022405 249.965833 
L 154.617595 252.631899 
L 158.188786 271.719569 
L 159.379191 276.792396 
L 160.569595 281.062149 
L 161.76 284.430981 
L 162.355191 285.699997 
L 162.950405 286.614485 
L 163.545595 287.08149 
L 164.140809 286.969725 
L 164.736 286.102647 
L 165.331191 284.261696 
L 165.926405 281.210785 
L 166.521595 276.767062 
L 167.712 264.057774 
L 168.902405 250.85568 
L 169.497595 246.817269 
L 170.092786 245.401722 
L 170.688 246.39538 
L 171.283191 249.080335 
L 174.854405 270.500497 
L 176.044809 276.137153 
L 177.235191 281.021574 
L 178.425595 285.231638 
L 179.616 288.781467 
L 180.806405 291.589861 
L 181.401595 292.64161 
L 181.996786 293.376765 
L 182.592 293.690281 
L 183.187191 293.422315 
L 183.782405 292.341877 
L 184.377595 290.133998 
L 184.972786 286.415285 
L 185.568 280.817595 
L 186.163191 273.192559 
L 187.948809 246.152687 
L 188.544 241.299064 
L 189.139191 240.363836 
L 189.734405 242.639899 
L 190.924809 251.52509 
L 192.115191 260.526724 
L 193.305595 267.935526 
L 194.496 274.048225 
L 195.686405 279.209751 
L 196.876786 283.57562 
L 198.067191 287.164321 
L 199.257595 289.8434 
L 199.852809 290.731249 
L 200.448 291.204121 
L 201.043191 291.122187 
L 201.638382 290.285606 
L 202.233618 288.426175 
L 202.828809 285.221818 
L 203.424 280.362123 
L 204.019191 273.706319 
L 205.804809 249.058715 
L 206.4 243.894544 
L 206.995236 242.126755 
L 207.590427 243.440619 
L 208.185618 246.787717 
L 210.566382 263.639147 
L 211.756809 270.463275 
L 212.947191 276.249376 
L 214.137618 281.239027 
L 215.328 285.565912 
L 216.518382 289.304009 
L 217.708809 292.480792 
L 218.899236 295.048678 
L 219.494427 296.04935 
L 220.089618 296.796821 
L 220.684809 297.20317 
L 221.28 297.129765 
L 221.875191 296.363814 
L 222.470382 294.594111 
L 223.065618 291.398667 
L 223.660809 286.284051 
L 224.256 278.841317 
L 225.446382 257.994557 
L 226.041618 247.556983 
L 226.636809 240.257855 
L 227.232 237.578456 
L 227.827191 239.165648 
L 228.422382 243.410558 
L 230.208 258.53547 
L 231.398427 266.329594 
L 232.588809 272.492502 
L 233.779191 277.498991 
L 234.969618 281.491018 
L 235.564809 283.079545 
L 236.16 284.348587 
L 236.755191 285.234845 
L 237.350382 285.645114 
L 237.945618 285.449858 
L 238.540809 284.479935 
L 239.136 282.53366 
L 239.731191 279.410018 
L 240.326382 274.982032 
L 241.516809 262.842317 
L 242.707236 250.956822 
L 243.302427 247.550335 
L 243.897618 246.534901 
L 244.492809 247.65769 
L 245.088 250.268648 
L 249.254382 273.622592 
L 250.444809 278.705336 
L 251.635191 283.050138 
L 252.825618 286.63598 
L 254.016 289.307525 
L 254.611236 290.184228 
L 255.206427 290.638094 
L 255.801618 290.527961 
L 256.396809 289.654249 
L 256.992 287.752813 
L 257.587191 284.512017 
L 258.182382 279.642647 
L 258.777618 273.035438 
L 260.563191 249.073612 
L 261.158382 244.185195 
L 261.753618 242.585361 
L 262.348809 243.940313 
L 262.944 247.240218 
L 265.324809 263.8243 
L 266.515236 270.600214 
L 267.705618 276.367603 
L 268.896 281.354889 
L 270.086382 285.695981 
L 271.276809 289.475197 
L 272.467191 292.747258 
L 273.657618 295.5319 
L 274.848 297.783409 
L 275.443191 298.655467 
L 276.038382 299.295627 
L 276.633618 299.615926 
L 277.228809 299.474633 
L 277.824 298.651289 
L 278.419236 296.813942 
L 279.014427 293.500719 
L 279.609618 288.147655 
L 280.204809 280.253577 
L 281.395191 257.688131 
L 281.990382 246.301391 
L 282.585618 238.448963 
L 283.180809 235.794118 
L 283.776 237.815797 
L 284.966382 248.228907 
L 286.156809 258.431539 
L 287.347191 266.153315 
L 288.537618 272.086138 
L 289.728 276.750883 
L 290.918427 280.240761 
L 291.513618 281.484304 
L 292.108809 282.319273 
L 292.704 282.658913 
L 293.299191 282.387035 
L 293.894382 281.36193 
L 294.489618 279.428636 
L 295.084809 276.457712 
L 295.68 272.409702 
L 298.060809 252.340041 
L 298.656 249.699269 
L 299.251191 248.969965 
L 299.846382 249.953419 
L 300.441618 252.173143 
L 301.632 258.347484 
L 303.417618 267.830797 
L 304.608 273.30179 
L 305.798382 277.977306 
L 306.988809 281.786612 
L 307.584 283.310934 
L 308.179191 284.525455 
L 308.774382 285.361825 
L 309.369618 285.722722 
L 309.964809 285.474644 
L 310.56 284.444772 
L 311.155191 282.429038 
L 311.750382 279.227004 
L 312.345618 274.717807 
L 313.536 262.476474 
L 314.726427 250.69811 
L 315.321618 247.417956 
L 315.916809 246.534007 
L 316.512 247.761299 
L 317.107191 250.437182 
L 320.678382 270.956282 
L 321.868809 276.404899 
L 323.059191 281.096552 
L 324.249618 285.052373 
L 325.44 288.191937 
L 326.035236 289.382991 
L 326.630427 290.243957 
L 327.225618 290.677716 
L 327.820809 290.540715 
L 328.416 289.630718 
L 329.011191 287.680549 
L 329.606382 284.376986 
L 330.201618 279.433056 
L 330.796809 272.751759 
L 332.582382 248.793759 
L 333.177618 244.025776 
L 333.772809 242.56079 
L 334.368 244.022954 
L 334.963191 247.385688 
L 337.344 263.97551 
L 338.534427 270.728999 
L 339.724809 276.478503 
L 340.915191 281.450734 
L 342.105618 285.778259 
L 343.296 289.543745 
L 344.486382 292.800016 
L 345.676809 295.564156 
L 346.867191 297.77746 
L 347.462382 298.617923 
L 348.057618 299.210626 
L 348.652809 299.458964 
L 349.248 299.207746 
L 349.843236 298.217172 
L 350.438427 296.133436 
L 351.033618 292.470795 
L 351.628809 286.665057 
L 352.224 278.272275 
L 354.009618 244.480191 
L 354.604809 237.625406 
L 355.2 235.995704 
L 355.795191 238.698497 
L 358.771191 263.330247 
L 359.961618 269.905221 
L 361.152 275.069769 
L 362.342427 279.074411 
L 362.937618 280.621911 
L 363.532809 281.816886 
L 364.128 282.594491 
L 364.723191 282.863276 
L 365.318382 282.50233 
L 365.913618 281.363979 
L 366.508809 279.291371 
L 367.104 276.157161 
L 367.699191 271.936456 
L 370.08 251.760983 
L 370.675191 249.333721 
L 371.270382 248.846333 
L 371.865618 250.043441 
L 372.460809 252.418046 
L 374.246427 262.034009 
L 376.032 271.053822 
L 377.222382 276.108602 
L 378.412809 280.344059 
L 379.603191 283.637554 
L 380.198382 284.843461 
L 380.793618 285.671184 
L 381.388809 286.021801 
L 381.984 285.75976 
L 382.579191 284.70834 
L 383.174382 282.658805 
L 383.769618 279.403907 
L 384.364809 274.818592 
L 385.555236 262.36398 
L 386.745618 250.422877 
L 387.340809 247.138527 
L 387.936 246.301519 
L 388.531191 247.602657 
L 389.126382 250.35374 
L 392.697618 271.05231 
L 393.888 276.51848 
L 395.078382 281.232854 
L 396.268809 285.227553 
L 397.459236 288.441421 
L 398.054427 289.693546 
L 398.649618 290.641181 
L 399.244809 291.197596 
L 399.84 291.231959 
L 400.435191 290.55701 
L 401.030382 288.916945 
L 401.625618 285.996024 
L 402.220809 281.472017 
L 402.816 275.152618 
L 405.196809 244.621783 
L 405.792 242.182784 
L 406.387191 242.969578 
L 406.982382 246.0196 
L 409.958427 266.533737 
L 411.148809 272.902688 
L 412.339191 278.345549 
L 413.529618 283.05508 
L 414.72 287.136272 
L 414.72 287.136272 
" clip-path="url(#p47b40b9f36)" style="fill: none; stroke-dasharray: 9.6,2.4,1.5,2.4; stroke-dashoffset: 0; stroke: #ff0000; stroke-width: 1.5"/>
   </g>
   <g id="patch_13">
    <path d="M 57.6 307.584 
L 57.6 229.315765 
" style="fill: none; stroke: #000000; stroke-width: 0.8; stroke-linejoin: miter; stroke-linecap: square"/>
   </g>
   <g id="patch_14">
    <path d="M 414.72 307.584 
L 414.72 229.315765 
" style="fill: none; stroke: #000000; stroke-width: 0.8; stroke-linejoin: miter; stroke-linecap: square"/>
   </g>
   <g id="patch_15">
    <path d="M 57.6 307.584 
L 414.72 307.584 
" style="fill: none; stroke: #000000; stroke-width: 0.8; stroke-linejoin: miter; stroke-linecap: square"/>
   </g>
   <g id="patch_16">
    <path d="M 57.6 229.315765 
L 414.72 229.315765 
" style="fill: none; stroke: #000000; stroke-width: 0.8; stroke-linejoin: miter; stroke-linecap: square"/>
   </g>
  </g>
 </g>
 <defs>
  <clipPath id="p435bf35cc0">
   <rect x="57.6" y="41.472" width="357.12" height="78.268235"/>
  </clipPath>
  <clipPath id="p0a089bc964">
   <rect x="57.6" y="135.393882" width="357.12" height="78.268235"/>
  </clipPath>
  <clipPath id="p47b40b9f36">
   <rect x="57.6" y="229.315765" width="357.12" height="78.268235"/>
  </clipPath>
 </defs>
</svg>
