<?xml version="1.0" encoding="utf-8" standalone="no"?>
<!DOCTYPE svg PUBLIC "-//W3C//DTD SVG 1.1//EN"
  "http://www.w3.org/Graphics/SVG/1.1/DTD/svg11.dtd">
<svg xmlns:xlink="http://www.w3.org/1999/xlink" width="460.8pt" height="345.6pt" viewBox="0 0 460.8 345.6" xmlns="http://www.w3.org/2000/svg" version="1.1">
 <metadata>
  <rdf:RDF xmlns:dc="http://purl.org/dc/elements/1.1/" xmlns:cc="http://creativecommons.org/ns#" xmlns:rdf="http://www.w3.org/1999/02/22-rdf-syntax-ns#">
   <cc:Work>
    <dc:type rdf:resource="http://purl.org/dc/dcmitype/StillImage"/>
    <dc:date>2023-12-14T15:12:34.351553</dc:date>
    <dc:format>image/svg+xml</dc:format>
    <dc:creator>
     <cc:Agent>
      <dc:title>Matplotlib v3.7.3, https://matplotlib.org/</dc:title>
     </cc:Agent>
    </dc:creator>
   </cc:Work>
  </rdf:RDF>
 </metadata>
 <defs>
  <style type="text/css">*{stroke-linejoin: round; stroke-linecap: butt}</style>
 </defs>
 <g id="figure_1">
  <g id="patch_1">
   <path d="M 0 345.6 
L 460.8 345.6 
L 460.8 0 
L 0 0 
z
" style="fill: #ffffff"/>
  </g>
  <g id="axes_1">
   <g id="patch_2">
    <path d="M 57.6 119.740235 
L 414.72 119.740235 
L 414.72 41.472 
L 57.6 41.472 
z
" style="fill: #ffffff"/>
   </g>
   <g id="matplotlib.axis_1">
    <g id="xtick_1">
     <g id="line2d_1">
      <defs>
       <path id="mf9e85c03f9" d="M 0 0 
L 0 3.5 
" style="stroke: #000000; stroke-width: 0.8"/>
      </defs>
      <g>
       <use xlink:href="#mf9e85c03f9" x="57.6" y="119.740235" style="stroke: #000000; stroke-width: 0.8"/>
      </g>
     </g>
    </g>
    <g id="xtick_2">
     <g id="line2d_2">
      <g>
       <use xlink:href="#mf9e85c03f9" x="105.216" y="119.740235" style="stroke: #000000; stroke-width: 0.8"/>
      </g>
     </g>
    </g>
    <g id="xtick_3">
     <g id="line2d_3">
      <g>
       <use xlink:href="#mf9e85c03f9" x="152.832" y="119.740235" style="stroke: #000000; stroke-width: 0.8"/>
      </g>
     </g>
    </g>
    <g id="xtick_4">
     <g id="line2d_4">
      <g>
       <use xlink:href="#mf9e85c03f9" x="200.448" y="119.740235" style="stroke: #000000; stroke-width: 0.8"/>
      </g>
     </g>
    </g>
    <g id="xtick_5">
     <g id="line2d_5">
      <g>
       <use xlink:href="#mf9e85c03f9" x="248.064" y="119.740235" style="stroke: #000000; stroke-width: 0.8"/>
      </g>
     </g>
    </g>
    <g id="xtick_6">
     <g id="line2d_6">
      <g>
       <use xlink:href="#mf9e85c03f9" x="295.68" y="119.740235" style="stroke: #000000; stroke-width: 0.8"/>
      </g>
     </g>
    </g>
    <g id="xtick_7">
     <g id="line2d_7">
      <g>
       <use xlink:href="#mf9e85c03f9" x="343.296" y="119.740235" style="stroke: #000000; stroke-width: 0.8"/>
      </g>
     </g>
    </g>
    <g id="xtick_8">
     <g id="line2d_8">
      <g>
       <use xlink:href="#mf9e85c03f9" x="390.912" y="119.740235" style="stroke: #000000; stroke-width: 0.8"/>
      </g>
     </g>
    </g>
    <g id="xtick_9">
     <g id="line2d_9">
      <g>
       <use xlink:href="#mf9e85c03f9" x="414.72" y="119.740235" style="stroke: #000000; stroke-width: 0.8"/>
      </g>
     </g>
    </g>
   </g>
   <g id="matplotlib.axis_2">
    <g id="ytick_1">
     <g id="line2d_10">
      <defs>
       <path id="m768db7785f" d="M 0 0 
L -3.5 0 
" style="stroke: #000000; stroke-width: 0.8"/>
      </defs>
      <g>
       <use xlink:href="#m768db7785f" x="57.6" y="101.562038" style="stroke: #000000; stroke-width: 0.8"/>
      </g>
     </g>
     <g id="text_1">
      <!-- −10 -->
      <g transform="translate(29.495313 105.361257) scale(0.1 -0.1)">
       <defs>
        <path id="DejaVuSans-2212" d="M 678 2272 
L 4684 2272 
L 4684 1741 
L 678 1741 
L 678 2272 
z
" transform="scale(0.015625)"/>
        <path id="DejaVuSans-31" d="M 794 531 
L 1825 531 
L 1825 4091 
L 703 3866 
L 703 4441 
L 1819 4666 
L 2450 4666 
L 2450 531 
L 3481 531 
L 3481 0 
L 794 0 
L 794 531 
z
" transform="scale(0.015625)"/>
        <path id="DejaVuSans-30" d="M 2034 4250 
Q 1547 4250 1301 3770 
Q 1056 3291 1056 2328 
Q 1056 1369 1301 889 
Q 1547 409 2034 409 
Q 2525 409 2770 889 
Q 3016 1369 3016 2328 
Q 3016 3291 2770 3770 
Q 2525 4250 2034 4250 
z
M 2034 4750 
Q 2819 4750 3233 4129 
Q 3647 3509 3647 2328 
Q 3647 1150 3233 529 
Q 2819 -91 2034 -91 
Q 1250 -91 836 529 
Q 422 1150 422 2328 
Q 422 3509 836 4129 
Q 1250 4750 2034 4750 
z
" transform="scale(0.015625)"/>
       </defs>
       <use xlink:href="#DejaVuSans-2212"/>
       <use xlink:href="#DejaVuSans-31" x="83.789062"/>
       <use xlink:href="#DejaVuSans-30" x="147.412109"/>
      </g>
     </g>
    </g>
    <g id="ytick_2">
     <g id="line2d_11">
      <g>
       <use xlink:href="#m768db7785f" x="57.6" y="81.078481" style="stroke: #000000; stroke-width: 0.8"/>
      </g>
     </g>
     <g id="text_2">
      <!-- 0 -->
      <g transform="translate(44.2375 84.8777) scale(0.1 -0.1)">
       <use xlink:href="#DejaVuSans-30"/>
      </g>
     </g>
    </g>
    <g id="ytick_3">
     <g id="line2d_12">
      <g>
       <use xlink:href="#m768db7785f" x="57.6" y="60.594925" style="stroke: #000000; stroke-width: 0.8"/>
      </g>
     </g>
     <g id="text_3">
      <!-- 10 -->
      <g transform="translate(37.875 64.394143) scale(0.1 -0.1)">
       <use xlink:href="#DejaVuSans-31"/>
       <use xlink:href="#DejaVuSans-30" x="63.623047"/>
      </g>
     </g>
    </g>
   </g>
   <g id="line2d_13">
    <path d="M 57.6 86.913145 
L 58.7904 88.91199 
L 59.9808 92.020903 
L 61.1712 96.539871 
L 63.552 108.40205 
L 64.7424 111.264829 
L 65.9328 108.23756 
L 68.3136 93.287934 
L 69.504 87.759421 
L 70.6944 84.461068 
L 71.8848 82.734768 
L 73.0752 81.924698 
L 74.2656 81.597551 
L 75.456 81.519827 
L 76.6464 81.588262 
L 77.8368 81.777355 
L 79.0272 82.113626 
L 80.2176 82.672349 
L 81.408 83.593508 
L 82.5984 85.117978 
L 83.7888 87.645637 
L 84.9792 91.795258 
L 86.1696 98.323733 
L 88.5504 115.73656 
L 89.7408 116.182588 
L 90.9312 106.307962 
L 92.1216 93.658242 
L 93.312 84.165486 
L 94.5024 78.403663 
L 95.6928 74.999321 
L 99.264 67.693879 
L 100.4544 64.444633 
L 101.6448 60.83816 
L 102.8352 57.724222 
L 104.0256 56.433461 
L 105.216 57.845531 
L 106.4064 61.404535 
L 107.5968 65.544232 
L 108.7872 68.946944 
L 109.9776 71.076528 
L 111.168 71.929833 
L 112.3584 71.663567 
L 113.5488 70.390159 
L 114.7392 68.140275 
L 115.9296 64.955806 
L 118.3104 57.538578 
L 119.5008 55.715901 
L 120.6912 56.892883 
L 121.8816 60.673938 
L 123.072 65.295835 
L 124.2624 69.177756 
L 125.4528 71.674008 
L 126.6432 72.795737 
L 127.8336 72.750434 
L 129.024 71.686888 
L 130.2144 69.631042 
L 131.4048 66.548708 
L 133.7856 58.270779 
L 134.976 55.236086 
L 136.1664 55.268806 
L 137.3568 58.725056 
L 139.7376 68.61195 
L 140.928 71.898931 
L 142.1184 73.644074 
L 143.3088 74.112533 
L 144.4992 73.542456 
L 145.6896 72.015899 
L 146.88 69.467692 
L 148.0704 65.794575 
L 150.4512 56.428119 
L 151.6416 53.72285 
L 152.832 55.032346 
L 154.0224 59.961002 
L 155.2128 65.939488 
L 156.4032 70.812624 
L 157.5936 73.903961 
L 158.784 75.420886 
L 159.9744 75.758432 
L 161.1648 75.181861 
L 162.3552 73.754138 
L 163.5456 71.356215 
L 164.736 67.760862 
L 165.9264 62.848214 
L 167.1168 57.165478 
L 168.3072 52.739078 
L 169.4976 52.582529 
L 170.688 57.48619 
L 171.8784 64.6138 
L 173.0688 70.823093 
L 174.2592 74.95095 
L 175.4496 77.220962 
L 176.64 78.213562 
L 177.8304 78.387928 
L 179.0208 77.981018 
L 180.2112 77.031655 
L 181.4016 75.411688 
L 182.592 72.835721 
L 183.7824 68.881904 
L 184.9728 63.1666 
L 186.1632 56.044783 
L 187.3536 50.059189 
L 188.544 49.807888 
L 189.7344 56.612171 
L 190.9248 65.991022 
L 192.1152 73.638339 
L 193.3056 78.510179 
L 194.496 81.297204 
L 195.6864 82.944711 
L 198.0672 85.475235 
L 199.2576 87.231648 
L 200.448 89.819139 
L 201.6384 93.650181 
L 202.8288 99.028326 
L 204.0192 105.536078 
L 205.2096 110.888434 
L 206.4 111.21244 
L 207.5904 105.344979 
L 208.7808 96.950882 
L 209.9712 89.869492 
L 211.1616 85.264828 
L 212.352 82.670974 
L 213.5424 81.297072 
L 214.7328 80.527416 
L 217.1136 79.388494 
L 218.304 78.586979 
L 219.4944 77.361491 
L 220.6848 75.422589 
L 221.8752 72.339763 
L 223.0656 67.538145 
L 224.256 60.583857 
L 225.4464 52.372753 
L 226.6368 47.141929 
L 227.8272 50.306572 
L 230.208 70.685707 
L 231.3984 77.946188 
L 232.5888 82.27857 
L 233.7792 84.867476 
L 236.16 88.701852 
L 237.3504 91.186175 
L 238.5408 94.581799 
L 239.7312 99.021997 
L 240.9216 104.022376 
L 242.112 107.935174 
L 243.3024 108.372027 
L 244.4928 104.540264 
L 246.8736 92.912088 
L 248.064 89.042734 
L 249.2544 86.909081 
L 250.4448 86.107957 
L 251.6352 86.287694 
L 252.8256 87.292997 
L 254.016 89.169189 
L 255.2064 92.11956 
L 256.3968 96.390281 
L 258.7776 107.563579 
L 259.968 110.49024 
L 261.1584 108.091006 
L 263.5392 94.266023 
L 264.7296 88.850571 
L 265.92 85.569399 
L 267.1104 83.893861 
L 268.3008 83.235348 
L 269.4912 83.2084 
L 270.6816 83.641884 
L 271.872 84.535131 
L 273.0624 86.031844 
L 274.2528 88.423592 
L 275.4432 92.155186 
L 276.6336 97.713789 
L 279.0144 112.004685 
L 280.2048 113.667501 
L 281.3952 107.382256 
L 282.5856 97.393498 
L 283.776 88.866103 
L 284.9664 83.328474 
L 286.1568 80.112521 
L 287.3472 78.15894 
L 289.728 74.969433 
L 290.9184 72.718375 
L 292.1088 69.489345 
L 293.2992 64.977587 
L 295.68 53.91256 
L 296.8704 51.728727 
L 298.0608 54.953905 
L 300.4416 68.844386 
L 301.632 73.889415 
L 302.8224 76.863273 
L 304.0128 78.332461 
L 305.2032 78.855055 
L 306.3936 78.77554 
L 307.584 78.229414 
L 308.7744 77.185186 
L 309.9648 75.464421 
L 311.1552 72.736114 
L 312.3456 68.52969 
L 313.536 62.435478 
L 314.7264 54.933262 
L 315.9168 49.036024 
L 317.1072 49.721147 
L 318.2976 57.610546 
L 319.488 67.43263 
L 320.6784 75.031897 
L 321.8688 79.748858 
L 323.0592 82.465869 
L 324.2496 84.183619 
L 325.44 85.638944 
L 326.6304 87.346291 
L 327.8208 89.721064 
L 329.0112 93.154034 
L 330.2016 97.931736 
L 331.392 103.801535 
L 332.5824 109.086143 
L 333.7728 110.56397 
L 334.9632 106.440655 
L 337.344 92.184165 
L 338.5344 87.391288 
L 339.7248 84.636908 
L 340.9152 83.289928 
L 342.1056 82.793751 
L 343.296 82.815351 
L 344.4864 83.218777 
L 345.6768 84.01648 
L 346.8672 85.347403 
L 348.0576 87.487431 
L 349.248 90.87296 
L 350.4384 96.052407 
L 352.8192 111.04298 
L 354.0096 114.642652 
L 355.2 109.794956 
L 357.5808 90.071471 
L 358.7712 83.658532 
L 359.9616 79.88382 
L 361.152 77.604458 
L 363.5328 74.030324 
L 364.7232 71.602504 
L 365.9136 68.211144 
L 367.104 63.657381 
L 368.2944 58.322876 
L 369.4848 53.847728 
L 370.6752 52.929824 
L 371.8656 56.775891 
L 374.2464 69.370835 
L 375.4368 73.631189 
L 376.6272 76.037066 
L 377.8176 77.067917 
L 379.008 77.15162 
L 380.1984 76.50796 
L 381.3888 75.147029 
L 382.5792 72.897627 
L 383.7696 69.447666 
L 384.96 64.485699 
L 387.3408 52.331778 
L 388.5312 50.568428 
L 389.7216 55.106252 
L 392.1024 70.716479 
L 393.2928 75.84674 
L 394.4832 78.811422 
L 395.6736 80.375374 
L 396.864 81.194907 
L 400.4352 82.650974 
L 401.6256 83.428458 
L 402.816 84.651084 
L 404.0064 86.61413 
L 405.1968 89.770909 
L 406.3872 94.738439 
L 407.5776 101.99152 
L 408.768 110.545876 
L 409.9584 115.736586 
L 411.1488 111.867998 
L 413.5296 90.458643 
L 414.72 83.16763 
L 414.72 83.16763 
" clip-path="url(#p5a6c17640f)" style="fill: none; stroke: #0000cc; stroke-width: 1.5; stroke-linecap: square"/>
   </g>
   <g id="line2d_14">
    <path d="M 57.6 86.913145 
L 58.790405 88.875742 
L 59.980809 91.915691 
L 61.171191 96.352977 
L 63.552 108.345009 
L 64.742405 111.476946 
L 65.932809 108.380722 
L 67.123191 100.841116 
L 68.313595 92.551205 
L 69.504 87.416773 
L 70.694405 84.198621 
L 71.884809 82.462648 
L 73.075191 81.559088 
L 75.456 80.92986 
L 77.836809 80.563741 
L 79.027191 80.304448 
L 80.217595 79.870123 
L 81.408 79.197569 
L 82.598405 78.094349 
L 83.788809 76.294385 
L 84.979191 73.348759 
L 86.169595 68.60584 
L 87.36 61.36427 
L 88.550405 51.990192 
L 89.740809 45.029647 
L 90.931191 48.350474 
L 92.121595 59.460523 
L 93.312 73.77851 
L 94.502405 79.470113 
L 95.692809 81.128715 
L 96.883191 85.651043 
L 98.073595 86.32755 
L 100.454405 89.681346 
L 101.644809 92.75091 
L 102.835191 96.666449 
L 104.025595 101.213178 
L 105.216 106.246451 
L 106.406405 108.950844 
L 107.596809 106.858398 
L 108.787191 101.675202 
L 109.977595 95.00308 
L 111.168 89.648569 
L 112.358405 87.254573 
L 113.548809 85.906539 
L 114.739191 85.356917 
L 115.929595 85.934483 
L 117.12 87.162072 
L 118.310405 89.167311 
L 119.500809 92.419437 
L 120.691191 97.001219 
L 123.072 109.002296 
L 124.262405 111.374139 
L 125.452809 107.642831 
L 127.833595 91.707386 
L 129.024 86.797653 
L 130.214405 83.936289 
L 131.404809 82.264207 
L 132.595191 81.434904 
L 134.976 80.822052 
L 137.356809 80.337464 
L 138.547191 79.957158 
L 139.737595 79.339958 
L 140.928 78.362176 
L 142.118405 76.769512 
L 143.308809 74.177165 
L 144.499191 69.996842 
L 145.689595 63.522452 
L 148.070405 46.431904 
L 149.260809 46.611506 
L 150.451191 56.058799 
L 151.641595 70.356196 
L 152.832 76.116353 
L 154.022405 83.176464 
L 155.212809 85.694722 
L 156.403191 88.808892 
L 157.593595 90.326649 
L 158.784 93.501745 
L 159.974405 97.006879 
L 161.164809 100.949357 
L 162.355191 104.322805 
L 163.545595 106.441637 
L 164.736 105.669044 
L 165.926405 101.484845 
L 167.116809 96.595418 
L 168.307191 92.709555 
L 169.497595 89.651021 
L 170.688 88.559821 
L 171.878405 88.686997 
L 173.068809 89.387738 
L 174.259191 91.304019 
L 175.449595 94.281968 
L 176.64 98.151787 
L 177.830405 102.988309 
L 179.020809 107.077626 
L 180.211191 108.118851 
L 181.401595 105.356918 
L 183.782405 93.429512 
L 184.972809 90.019075 
L 186.163191 87.700606 
L 187.353595 86.557739 
L 188.544 86.874219 
L 189.734405 87.815794 
L 190.924809 89.585914 
L 192.115191 92.594609 
L 193.305595 96.726637 
L 195.686405 107.58951 
L 196.876809 110.093927 
L 198.067191 107.526026 
L 199.257595 100.983938 
L 200.448 93.39267 
L 201.638382 88.611596 
L 202.828809 85.894497 
L 204.019191 84.195437 
L 205.209618 83.725463 
L 206.4 83.911567 
L 207.590382 84.518345 
L 208.780809 85.732529 
L 209.971191 87.722023 
L 211.161618 90.78699 
L 212.352 95.432777 
L 213.542382 101.868489 
L 214.732809 109.154262 
L 215.923191 113.485162 
L 217.113618 110.108374 
L 218.304 101.374271 
L 219.494382 90.98942 
L 220.684809 85.291063 
L 221.875191 81.717697 
L 223.065618 79.676575 
L 224.256 77.997893 
L 225.446382 77.028285 
L 226.636809 75.220511 
L 227.827191 73.056211 
L 229.017618 69.515833 
L 230.208 64.903727 
L 232.588809 52.844905 
L 233.779191 50.547991 
L 234.969618 54.984025 
L 236.16 62.352016 
L 237.350382 71.437881 
L 238.540809 73.322634 
L 239.731191 80.120131 
L 240.921618 78.854302 
L 242.112 82.577916 
L 243.302382 81.451971 
L 244.492809 84.508143 
L 245.683191 84.913415 
L 246.873618 87.535172 
L 248.064 90.546464 
L 249.254382 95.002395 
L 250.444809 101.478371 
L 251.635191 108.684284 
L 252.825618 113.340122 
L 254.016 110.534977 
L 255.206382 101.689515 
L 256.396809 91.223884 
L 257.587191 86.047063 
L 258.777618 82.260198 
L 259.968 80.18899 
L 261.158382 78.666918 
L 262.348809 78.041841 
L 264.729618 74.732554 
L 265.92 71.79047 
L 267.110382 67.906826 
L 268.300809 62.040799 
L 269.491191 55.469453 
L 270.681618 50.264898 
L 271.872 51.401898 
L 273.062382 57.761265 
L 274.252809 68.016286 
L 275.443191 71.534076 
L 276.633618 80.342718 
L 277.824 79.108694 
L 279.014382 84.205619 
L 280.204809 83.377228 
L 281.395191 87.695825 
L 282.585618 89.228263 
L 283.776 93.056808 
L 287.347191 108.948121 
L 288.537618 110.394671 
L 289.728 105.693775 
L 293.299191 86.92713 
L 294.489618 84.703563 
L 295.68 83.771084 
L 296.870382 83.164658 
L 298.060809 83.250244 
L 299.251191 83.9443 
L 300.441618 84.905627 
L 301.632 86.626451 
L 302.822382 89.303999 
L 304.012809 93.382202 
L 305.203191 99.404224 
L 306.393618 106.973463 
L 307.584 113.308441 
L 308.774382 112.794694 
L 309.964809 104.788057 
L 311.155191 93.334054 
L 312.345618 86.816413 
L 313.536 82.506201 
L 314.726382 79.805036 
L 315.916809 78.072753 
L 317.107191 77.144054 
L 318.297618 75.386906 
L 319.488 73.31172 
L 320.678382 70.020854 
L 321.868809 65.714745 
L 324.249618 53.871944 
L 325.44 50.810708 
L 326.630382 54.137729 
L 327.820809 60.96196 
L 329.011191 69.957259 
L 330.201618 72.521751 
L 331.392 79.299834 
L 332.582382 78.231969 
L 333.772809 81.888207 
L 334.963191 80.530072 
L 336.153618 83.363166 
L 337.344 83.133223 
L 338.534382 85.263982 
L 339.724809 87.006248 
L 340.915191 90.131321 
L 342.105618 94.827061 
L 343.296 101.327581 
L 344.486382 109.189168 
L 345.676809 114.270566 
L 346.867191 111.14782 
L 348.057618 102.248883 
L 349.248 90.447776 
L 350.438382 84.240947 
L 351.628809 80.761314 
L 354.009618 76.625427 
L 355.2 75.50325 
L 356.390382 73.282982 
L 357.580809 70.655967 
L 358.771191 66.375499 
L 359.961618 61.464452 
L 361.152 55.513534 
L 362.342382 52.285096 
L 363.532809 53.171884 
L 364.723191 60.090826 
L 365.913618 65.552039 
L 367.104 75.147333 
L 368.294382 72.777554 
L 369.484809 81.280435 
L 370.675191 77.734183 
L 371.865618 84.08416 
L 373.056 82.315736 
L 374.246382 88.685544 
L 375.436809 90.328845 
L 376.627191 94.907939 
L 377.817618 101.531431 
L 379.008 106.492216 
L 380.198382 110.613542 
L 381.388809 108.742337 
L 382.579191 100.701426 
L 383.769618 95.448221 
L 384.96 92.898293 
L 386.150382 86.973173 
L 387.340809 87.002392 
L 389.721618 87.915877 
L 390.912 90.320489 
L 392.102382 93.272374 
L 393.292809 96.809296 
L 394.483191 102.42359 
L 395.673618 106.958231 
L 396.864 108.834974 
L 398.054382 107.244268 
L 400.435191 92.944842 
L 401.625618 91.13433 
L 402.816 87.898676 
L 404.006382 86.315353 
L 405.196809 87.488983 
L 406.387191 88.478938 
L 407.577618 90.165381 
L 408.768 93.601979 
L 409.958382 97.576916 
L 412.339191 107.944676 
L 413.529618 109.050425 
L 414.72 106.437614 
L 414.72 106.437614 
" clip-path="url(#p5a6c17640f)" style="fill: none; stroke-dasharray: 9.6,2.4,1.5,2.4; stroke-dashoffset: 0; stroke: #ff0000; stroke-width: 1.5"/>
   </g>
   <g id="patch_3">
    <path d="M 57.6 119.740235 
L 57.6 41.472 
" style="fill: none; stroke: #000000; stroke-width: 0.8; stroke-linejoin: miter; stroke-linecap: square"/>
   </g>
   <g id="patch_4">
    <path d="M 414.72 119.740235 
L 414.72 41.472 
" style="fill: none; stroke: #000000; stroke-width: 0.8; stroke-linejoin: miter; stroke-linecap: square"/>
   </g>
   <g id="patch_5">
    <path d="M 57.6 119.740235 
L 414.72 119.740235 
" style="fill: none; stroke: #000000; stroke-width: 0.8; stroke-linejoin: miter; stroke-linecap: square"/>
   </g>
   <g id="patch_6">
    <path d="M 57.6 41.472 
L 414.72 41.472 
" style="fill: none; stroke: #000000; stroke-width: 0.8; stroke-linejoin: miter; stroke-linecap: square"/>
   </g>
  </g>
  <g id="axes_2">
   <g id="patch_7">
    <path d="M 57.6 213.662118 
L 414.72 213.662118 
L 414.72 135.393882 
L 57.6 135.393882 
z
" style="fill: #ffffff"/>
   </g>
   <g id="matplotlib.axis_3">
    <g id="xtick_10">
     <g id="line2d_15">
      <g>
       <use xlink:href="#mf9e85c03f9" x="57.6" y="213.662118" style="stroke: #000000; stroke-width: 0.8"/>
      </g>
     </g>
    </g>
    <g id="xtick_11">
     <g id="line2d_16">
      <g>
       <use xlink:href="#mf9e85c03f9" x="105.216" y="213.662118" style="stroke: #000000; stroke-width: 0.8"/>
      </g>
     </g>
    </g>
    <g id="xtick_12">
     <g id="line2d_17">
      <g>
       <use xlink:href="#mf9e85c03f9" x="152.832" y="213.662118" style="stroke: #000000; stroke-width: 0.8"/>
      </g>
     </g>
    </g>
    <g id="xtick_13">
     <g id="line2d_18">
      <g>
       <use xlink:href="#mf9e85c03f9" x="200.448" y="213.662118" style="stroke: #000000; stroke-width: 0.8"/>
      </g>
     </g>
    </g>
    <g id="xtick_14">
     <g id="line2d_19">
      <g>
       <use xlink:href="#mf9e85c03f9" x="248.064" y="213.662118" style="stroke: #000000; stroke-width: 0.8"/>
      </g>
     </g>
    </g>
    <g id="xtick_15">
     <g id="line2d_20">
      <g>
       <use xlink:href="#mf9e85c03f9" x="295.68" y="213.662118" style="stroke: #000000; stroke-width: 0.8"/>
      </g>
     </g>
    </g>
    <g id="xtick_16">
     <g id="line2d_21">
      <g>
       <use xlink:href="#mf9e85c03f9" x="343.296" y="213.662118" style="stroke: #000000; stroke-width: 0.8"/>
      </g>
     </g>
    </g>
    <g id="xtick_17">
     <g id="line2d_22">
      <g>
       <use xlink:href="#mf9e85c03f9" x="390.912" y="213.662118" style="stroke: #000000; stroke-width: 0.8"/>
      </g>
     </g>
    </g>
    <g id="xtick_18">
     <g id="line2d_23">
      <g>
       <use xlink:href="#mf9e85c03f9" x="414.72" y="213.662118" style="stroke: #000000; stroke-width: 0.8"/>
      </g>
     </g>
    </g>
   </g>
   <g id="matplotlib.axis_4">
    <g id="ytick_4">
     <g id="line2d_24">
      <g>
       <use xlink:href="#m768db7785f" x="57.6" y="206.210424" style="stroke: #000000; stroke-width: 0.8"/>
      </g>
     </g>
     <g id="text_4">
      <!-- −20 -->
      <g transform="translate(29.495313 210.009642) scale(0.1 -0.1)">
       <defs>
        <path id="DejaVuSans-32" d="M 1228 531 
L 3431 531 
L 3431 0 
L 469 0 
L 469 531 
Q 828 903 1448 1529 
Q 2069 2156 2228 2338 
Q 2531 2678 2651 2914 
Q 2772 3150 2772 3378 
Q 2772 3750 2511 3984 
Q 2250 4219 1831 4219 
Q 1534 4219 1204 4116 
Q 875 4013 500 3803 
L 500 4441 
Q 881 4594 1212 4672 
Q 1544 4750 1819 4750 
Q 2544 4750 2975 4387 
Q 3406 4025 3406 3419 
Q 3406 3131 3298 2873 
Q 3191 2616 2906 2266 
Q 2828 2175 2409 1742 
Q 1991 1309 1228 531 
z
" transform="scale(0.015625)"/>
       </defs>
       <use xlink:href="#DejaVuSans-2212"/>
       <use xlink:href="#DejaVuSans-32" x="83.789062"/>
       <use xlink:href="#DejaVuSans-30" x="147.412109"/>
      </g>
     </g>
    </g>
    <g id="ytick_5">
     <g id="line2d_25">
      <g>
       <use xlink:href="#m768db7785f" x="57.6" y="175.351125" style="stroke: #000000; stroke-width: 0.8"/>
      </g>
     </g>
     <g id="text_5">
      <!-- 0 -->
      <g transform="translate(44.2375 179.150343) scale(0.1 -0.1)">
       <use xlink:href="#DejaVuSans-30"/>
      </g>
     </g>
    </g>
    <g id="ytick_6">
     <g id="line2d_26">
      <g>
       <use xlink:href="#m768db7785f" x="57.6" y="144.491825" style="stroke: #000000; stroke-width: 0.8"/>
      </g>
     </g>
     <g id="text_6">
      <!-- 20 -->
      <g transform="translate(37.875 148.291044) scale(0.1 -0.1)">
       <use xlink:href="#DejaVuSans-32"/>
       <use xlink:href="#DejaVuSans-30" x="63.623047"/>
      </g>
     </g>
    </g>
   </g>
   <g id="line2d_27">
    <path d="M 57.6 182.067843 
L 58.7904 185.019952 
L 59.9808 189.276615 
L 62.3616 200.936053 
L 63.552 203.572739 
L 64.7424 198.2294 
L 65.9328 187.012764 
L 67.1232 178.083987 
L 68.3136 174.413641 
L 69.504 173.858997 
L 73.0752 175.21215 
L 77.8368 176.260857 
L 79.0272 176.779293 
L 80.2176 177.621046 
L 81.408 179.010828 
L 82.5984 181.32066 
L 83.7888 185.142995 
L 84.9792 191.286782 
L 87.36 209.675118 
L 88.5504 210.104471 
L 89.7408 193.657352 
L 90.9312 175.115665 
L 92.1216 167.481785 
L 93.312 166.446992 
L 94.5024 166.815897 
L 95.6928 166.692873 
L 96.8832 165.648317 
L 98.0736 163.654916 
L 99.264 160.822832 
L 100.4544 157.529411 
L 101.6448 154.744017 
L 102.8352 154.09715 
L 104.0256 156.813528 
L 106.4064 166.74776 
L 107.5968 169.56331 
L 108.7872 170.426423 
L 109.9776 170.02936 
L 111.168 168.862685 
L 112.3584 167.082906 
L 113.5488 164.644758 
L 114.7392 161.485892 
L 117.12 154.416772 
L 118.3104 153.119461 
L 119.5008 155.608771 
L 121.8816 166.804511 
L 123.072 170.150135 
L 124.2624 171.244522 
L 125.4528 170.946035 
L 126.6432 169.871043 
L 127.8336 168.220976 
L 129.024 165.93405 
L 130.2144 162.862998 
L 132.5952 154.893396 
L 133.7856 152.173929 
L 134.976 153.252127 
L 136.1664 158.753769 
L 137.3568 165.588552 
L 138.5472 170.25906 
L 139.7376 172.117811 
L 140.928 172.177831 
L 142.1184 171.343789 
L 143.3088 169.985135 
L 144.4992 168.095759 
L 145.6896 165.484806 
L 146.88 161.934361 
L 149.2608 152.897258 
L 150.4512 150.567022 
L 151.6416 153.394803 
L 154.0224 168.372525 
L 155.2128 172.468298 
L 156.4032 173.632559 
L 157.5936 173.317338 
L 158.784 172.395834 
L 159.9744 171.122187 
L 161.1648 169.408786 
L 162.3552 167.001212 
L 163.5456 163.573585 
L 164.736 158.896766 
L 165.9264 153.350987 
L 167.1168 148.992504 
L 168.3072 149.871202 
L 169.4976 157.802714 
L 170.688 167.604061 
L 171.8784 173.552038 
L 173.0688 175.467658 
L 174.2592 175.415645 
L 176.64 173.984714 
L 177.8304 173.116658 
L 179.0208 172.008482 
L 180.2112 170.419352 
L 181.4016 168.013061 
L 182.592 164.34095 
L 183.7824 158.940096 
L 184.9728 151.908724 
L 186.1632 145.599702 
L 187.3536 146.1685 
L 188.544 157.299039 
L 189.7344 170.562235 
L 190.9248 177.45573 
L 192.1152 179.117007 
L 193.3056 178.936223 
L 194.496 178.640566 
L 195.6864 178.776109 
L 196.8768 179.485133 
L 198.0672 180.876081 
L 199.2576 183.158551 
L 200.448 186.665232 
L 201.6384 191.724372 
L 202.8288 198.103087 
L 204.0192 203.591 
L 205.2096 203.008266 
L 206.4 193.442003 
L 207.5904 181.656971 
L 208.7808 175.022238 
L 209.9712 173.16923 
L 211.1616 173.282996 
L 212.352 173.747622 
L 213.5424 174.024416 
L 214.7328 174.012962 
L 215.9232 173.710304 
L 217.1136 173.080603 
L 218.304 172.006569 
L 219.4944 170.255406 
L 220.6848 167.437104 
L 221.8752 162.984105 
L 223.0656 156.332662 
L 224.256 147.935797 
L 225.4464 142.045882 
L 226.6368 147.381313 
L 227.8272 163.652025 
L 229.0176 176.55898 
L 230.208 181.043892 
L 231.3984 181.459222 
L 232.5888 181.164081 
L 233.7792 181.363255 
L 234.9696 182.373568 
L 236.16 184.315938 
L 237.3504 187.321084 
L 238.5408 191.440992 
L 239.7312 196.223962 
L 240.9216 199.927486 
L 242.112 199.405728 
L 243.3024 193.155099 
L 244.4928 184.831102 
L 245.6832 179.184309 
L 246.8736 177.026644 
L 248.064 176.91162 
L 249.2544 177.640464 
L 250.4448 178.737341 
L 251.6352 180.180196 
L 252.8256 182.168637 
L 254.016 185.015793 
L 255.2064 189.057039 
L 257.5872 199.968909 
L 258.7776 202.63167 
L 259.968 198.210756 
L 261.1584 188.084992 
L 262.3488 179.407004 
L 263.5392 175.488416 
L 264.7296 174.735937 
L 265.92 175.164396 
L 269.4912 177.281234 
L 270.6816 178.262991 
L 271.872 179.701328 
L 273.0624 181.918398 
L 274.2528 185.367754 
L 275.4432 190.589079 
L 277.824 205.112108 
L 279.0144 206.534672 
L 280.2048 196.157461 
L 281.3952 181.279603 
L 282.5856 172.843587 
L 283.776 170.638554 
L 284.9664 170.724931 
L 286.1568 170.976168 
L 287.3472 170.705023 
L 288.5376 169.723614 
L 289.728 167.900146 
L 290.9184 165.020909 
L 292.1088 160.840417 
L 294.4896 150.053139 
L 295.68 148.307519 
L 296.8704 153.908972 
L 298.0608 164.215269 
L 299.2512 172.143714 
L 300.4416 175.403373 
L 301.632 175.869445 
L 302.8224 175.362076 
L 305.2032 173.952022 
L 306.3936 173.133859 
L 307.584 172.033599 
L 308.7744 170.398946 
L 309.9648 167.87394 
L 311.1552 163.973129 
L 312.3456 158.197036 
L 313.536 150.718063 
L 314.7264 144.380633 
L 315.9168 146.185357 
L 318.2976 172.531401 
L 319.488 178.729312 
L 320.6784 179.939332 
L 323.0592 179.515537 
L 324.2496 179.929398 
L 325.44 181.057844 
L 326.6304 183.047535 
L 327.8208 186.141033 
L 329.0112 190.593188 
L 331.392 201.538486 
L 332.5824 202.407018 
L 333.7728 195.497165 
L 334.9632 184.803324 
L 336.1536 177.450891 
L 337.344 174.768713 
L 338.5344 174.559045 
L 340.9152 175.740851 
L 343.296 176.993154 
L 344.4864 177.848888 
L 345.6768 179.116805 
L 346.8672 181.092836 
L 348.0576 184.210701 
L 349.248 189.043638 
L 350.4384 196.015862 
L 351.6288 204.105118 
L 352.8192 208.047298 
L 354.0096 199.999462 
L 355.2 183.973319 
L 356.3904 173.270167 
L 357.5808 170.022093 
L 358.7712 169.897903 
L 359.9616 170.169181 
L 361.152 169.909812 
L 362.3424 168.873031 
L 363.5328 166.931406 
L 364.7232 163.912294 
L 365.9136 159.681435 
L 367.104 154.559793 
L 368.2944 150.211898 
L 369.4848 150.106664 
L 370.6752 156.488192 
L 371.8656 165.672252 
L 373.056 172.034314 
L 374.2464 174.471204 
L 375.4368 174.663472 
L 376.6272 174.013747 
L 377.8176 173.086387 
L 379.008 171.943844 
L 380.1984 170.419945 
L 381.3888 168.227157 
L 382.5792 164.98606 
L 383.7696 160.308548 
L 386.1504 148.231025 
L 387.3408 146.927389 
L 388.5312 154.516804 
L 389.7216 166.489305 
L 390.912 174.460205 
L 392.1024 177.173511 
L 393.2928 177.332039 
L 395.6736 176.482409 
L 396.864 176.351554 
L 398.0544 176.465366 
L 399.2448 176.822448 
L 400.4352 177.477842 
L 401.6256 178.569324 
L 402.816 180.350665 
L 404.0064 183.240337 
L 405.1968 187.851135 
L 406.3872 194.80471 
L 407.5776 203.623008 
L 408.768 209.60701 
L 409.9584 203.255816 
L 411.1488 185.760954 
L 412.3392 172.821261 
L 413.5296 168.720083 
L 414.72 168.482775 
L 414.72 168.482775 
" clip-path="url(#p1a57b9cb38)" style="fill: none; stroke: #0000cc; stroke-width: 1.5; stroke-linecap: square"/>
   </g>
   <g id="line2d_28">
    <path d="M 57.6 182.067843 
L 58.790405 184.91226 
L 59.980809 189.057341 
L 61.171191 194.659285 
L 62.361595 200.826736 
L 63.552 203.997989 
L 64.742405 198.723586 
L 65.932809 186.82493 
L 67.123191 177.322614 
L 68.313595 173.690974 
L 69.504 174.09277 
L 70.694405 173.939597 
L 71.884809 174.676091 
L 73.075191 174.920923 
L 74.265595 175.048628 
L 77.836809 174.620926 
L 79.027191 174.264889 
L 80.217595 173.638329 
L 81.408 172.644606 
L 82.598405 170.994307 
L 83.788809 168.294458 
L 84.979191 163.893604 
L 86.169595 157.000746 
L 87.36 147.440966 
L 88.550405 138.951529 
L 89.740809 143.991983 
L 92.121595 182.460016 
L 93.312 182.956206 
L 94.502405 177.746729 
L 95.692809 180.902013 
L 96.883191 183.018022 
L 98.073595 180.11134 
L 100.454405 185.627388 
L 101.644809 189.317196 
L 102.835191 193.398756 
L 104.025595 198.123135 
L 105.216 200.860546 
L 106.406405 197.363961 
L 107.596809 188.703096 
L 108.787191 180.951262 
L 109.977595 176.438179 
L 111.168 176.256304 
L 112.358405 177.348668 
L 113.548809 177.442752 
L 114.739191 178.800067 
L 115.929595 180.406066 
L 117.12 182.294036 
L 118.310405 185.337212 
L 119.500809 189.694683 
L 121.881595 201.467696 
L 123.072 203.832655 
L 124.262405 197.424322 
L 125.452809 185.508582 
L 126.643191 176.586757 
L 127.833595 173.437748 
L 129.024 174.120769 
L 130.214405 174.036251 
L 131.404809 174.587812 
L 132.595191 174.920138 
L 133.785595 174.9512 
L 136.166405 174.677725 
L 137.356809 174.3227 
L 138.547191 173.780818 
L 139.737595 172.885484 
L 140.928 171.438609 
L 142.118405 169.060318 
L 143.308809 165.201165 
L 144.499191 159.094732 
L 146.88 140.922505 
L 148.070405 140.955845 
L 150.451191 176.884093 
L 151.641595 182.08276 
L 152.832 179.410344 
L 154.022405 185.680685 
L 155.212809 182.099069 
L 156.403191 184.291152 
L 157.593595 185.84729 
L 158.784 190.045324 
L 159.974405 193.076193 
L 161.164809 195.784887 
L 162.355191 197.3694 
L 163.545595 195.831533 
L 164.736 190.039629 
L 165.926405 183.41773 
L 167.116809 179.97314 
L 168.307191 178.716715 
L 169.497595 178.839181 
L 170.688 180.45951 
L 171.878405 181.632219 
L 173.068809 183.617244 
L 174.259191 186.722227 
L 175.449595 190.457679 
L 176.64 194.969031 
L 177.830405 198.990123 
L 179.020809 199.49286 
L 180.211191 194.461649 
L 181.401595 186.310243 
L 182.592 179.63217 
L 183.782405 177.505553 
L 184.972809 177.802476 
L 186.163191 177.669317 
L 188.544 180.698409 
L 189.734405 182.413595 
L 190.924809 185.333178 
L 192.115191 189.325676 
L 194.496 199.812096 
L 195.686405 202.241831 
L 196.876809 197.552397 
L 198.067191 187.506827 
L 199.257595 178.830662 
L 200.448 175.144685 
L 201.638382 175.606199 
L 202.828809 175.581699 
L 204.019191 176.258438 
L 205.209618 177.307718 
L 206.4 178.056735 
L 207.590382 179.309032 
L 208.780809 181.211482 
L 209.971191 184.047641 
L 211.161618 188.354943 
L 212.352 194.496542 
L 213.542382 201.879745 
L 214.732809 206.695735 
L 215.923191 201.27057 
L 217.113618 186.650518 
L 218.304 175.006925 
L 219.494382 170.590461 
L 220.684809 172.162861 
L 221.875191 171.2708 
L 223.065618 171.892216 
L 224.256 171.214458 
L 225.446382 170.356835 
L 226.636809 167.939811 
L 227.827191 165.239007 
L 229.017618 160.522621 
L 230.208 154.860144 
L 231.398382 148.522871 
L 232.588809 147.083598 
L 233.779191 153.599184 
L 234.969618 166.721833 
L 236.16 173.299087 
L 237.350382 177.067128 
L 238.540809 174.984025 
L 239.731191 180.148259 
L 240.921618 173.694938 
L 242.112 179.315496 
L 243.302382 176.666314 
L 244.492809 180.528518 
L 245.683191 180.370193 
L 248.064 188.052458 
L 249.254382 193.997272 
L 250.444809 201.425779 
L 251.635191 206.6109 
L 252.825618 201.955693 
L 254.016 187.356457 
L 255.206382 175.127778 
L 256.396809 171.105574 
L 257.587191 172.844896 
L 258.777618 171.287773 
L 259.968 172.629746 
L 262.348809 171.444353 
L 264.729618 167.343743 
L 265.92 163.253004 
L 267.110382 158.14032 
L 268.300809 151.186316 
L 269.491191 146.22923 
L 270.681618 147.879325 
L 271.872 160.245637 
L 273.062382 170.398648 
L 274.252809 177.257086 
L 275.443191 176.190338 
L 276.633618 182.162291 
L 277.824 174.508879 
L 279.014382 182.002986 
L 280.204809 179.274261 
L 281.395191 184.515959 
L 282.585618 185.511567 
L 284.966382 196.438876 
L 286.156809 201.12868 
L 287.347191 202.042587 
L 288.537618 195.039948 
L 289.728 184.809146 
L 290.918382 178.603352 
L 292.108809 174.572412 
L 293.299191 173.885017 
L 294.489618 176.330747 
L 295.68 175.881342 
L 298.060809 177.699267 
L 299.251191 178.67552 
L 300.441618 180.207439 
L 301.632 182.730504 
L 302.822382 186.500038 
L 304.012809 192.155194 
L 306.393618 206.573165 
L 307.584 205.536401 
L 309.964809 177.012447 
L 311.155191 170.63301 
L 312.345618 172.016059 
L 313.536 170.612874 
L 314.726382 171.639494 
L 315.916809 171.331861 
L 317.107191 170.411401 
L 319.488 165.721517 
L 320.678382 161.332996 
L 321.868809 155.943989 
L 323.059191 149.660171 
L 324.249618 147.252574 
L 325.44 152.200448 
L 326.630382 164.515248 
L 327.820809 172.031823 
L 329.011191 176.501474 
L 330.201618 174.934811 
L 331.392 179.610197 
L 332.582382 173.347157 
L 333.772809 178.638151 
L 334.963191 175.502466 
L 336.153618 179.153809 
L 337.344 178.138 
L 338.534382 181.316135 
L 339.724809 183.401564 
L 340.915191 187.827158 
L 342.105618 194.117598 
L 343.296 201.963601 
L 344.486382 207.756417 
L 345.676809 202.910471 
L 346.867191 187.350101 
L 348.057618 174.317504 
L 349.248 168.790516 
L 350.438382 171.462814 
L 351.628809 170.327035 
L 352.819191 170.747181 
L 354.009618 169.874516 
L 355.2 168.848104 
L 357.580809 162.554267 
L 359.961618 152.119511 
L 361.152 147.992547 
L 362.342382 151.971733 
L 363.532809 159.762635 
L 364.723191 171.847176 
L 365.913618 173.250241 
L 367.104 177.840389 
L 368.294382 171.48419 
L 369.484809 181.78897 
L 370.675191 171.92826 
L 371.865618 182.379569 
L 373.056 179.686486 
L 374.246382 186.574255 
L 375.436809 187.090948 
L 376.627191 193.954486 
L 377.817618 200.120552 
L 379.008 202.88644 
L 380.198382 198.966283 
L 381.388809 187.846454 
L 382.579191 179.723186 
L 383.769618 179.718831 
L 384.96 177.181744 
L 386.150382 175.878472 
L 387.340809 181.005114 
L 388.531191 180.251093 
L 389.721618 183.039361 
L 392.102382 189.32984 
L 394.483191 199.309595 
L 395.673618 200.807396 
L 396.864 196.569572 
L 399.244809 178.409905 
L 400.435191 177.777284 
L 401.625618 178.927147 
L 402.816 176.403491 
L 404.006382 179.8719 
L 405.196809 181.792531 
L 406.387191 182.756692 
L 407.577618 186.05944 
L 408.768 190.256746 
L 411.148809 199.890455 
L 412.339191 200.996389 
L 413.529618 195.617005 
L 414.72 186.900439 
L 414.72 186.900439 
" clip-path="url(#p1a57b9cb38)" style="fill: none; stroke-dasharray: 9.6,2.4,1.5,2.4; stroke-dashoffset: 0; stroke: #ff0000; stroke-width: 1.5"/>
   </g>
   <g id="patch_8">
    <path d="M 57.6 213.662118 
L 57.6 135.393882 
" style="fill: none; stroke: #000000; stroke-width: 0.8; stroke-linejoin: miter; stroke-linecap: square"/>
   </g>
   <g id="patch_9">
    <path d="M 414.72 213.662118 
L 414.72 135.393882 
" style="fill: none; stroke: #000000; stroke-width: 0.8; stroke-linejoin: miter; stroke-linecap: square"/>
   </g>
   <g id="patch_10">
    <path d="M 57.6 213.662118 
L 414.72 213.662118 
" style="fill: none; stroke: #000000; stroke-width: 0.8; stroke-linejoin: miter; stroke-linecap: square"/>
   </g>
   <g id="patch_11">
    <path d="M 57.6 135.393882 
L 414.72 135.393882 
" style="fill: none; stroke: #000000; stroke-width: 0.8; stroke-linejoin: miter; stroke-linecap: square"/>
   </g>
  </g>
  <g id="axes_3">
   <g id="patch_12">
    <path d="M 57.6 307.584 
L 414.72 307.584 
L 414.72 229.315765 
L 57.6 229.315765 
z
" style="fill: #ffffff"/>
   </g>
   <g id="matplotlib.axis_5">
    <g id="xtick_19">
     <g id="line2d_29">
      <g>
       <use xlink:href="#mf9e85c03f9" x="57.6" y="307.584" style="stroke: #000000; stroke-width: 0.8"/>
      </g>
     </g>
     <g id="text_7">
      <!-- 10 -->
      <g transform="translate(51.2375 322.182437) scale(0.1 -0.1)">
       <use xlink:href="#DejaVuSans-31"/>
       <use xlink:href="#DejaVuSans-30" x="63.623047"/>
      </g>
     </g>
    </g>
    <g id="xtick_20">
     <g id="line2d_30">
      <g>
       <use xlink:href="#mf9e85c03f9" x="105.216" y="307.584" style="stroke: #000000; stroke-width: 0.8"/>
      </g>
     </g>
     <g id="text_8">
      <!-- 12 -->
      <g transform="translate(98.8535 322.182437) scale(0.1 -0.1)">
       <use xlink:href="#DejaVuSans-31"/>
       <use xlink:href="#DejaVuSans-32" x="63.623047"/>
      </g>
     </g>
    </g>
    <g id="xtick_21">
     <g id="line2d_31">
      <g>
       <use xlink:href="#mf9e85c03f9" x="152.832" y="307.584" style="stroke: #000000; stroke-width: 0.8"/>
      </g>
     </g>
     <g id="text_9">
      <!-- 14 -->
      <g transform="translate(146.4695 322.182437) scale(0.1 -0.1)">
       <defs>
        <path id="DejaVuSans-34" d="M 2419 4116 
L 825 1625 
L 2419 1625 
L 2419 4116 
z
M 2253 4666 
L 3047 4666 
L 3047 1625 
L 3713 1625 
L 3713 1100 
L 3047 1100 
L 3047 0 
L 2419 0 
L 2419 1100 
L 313 1100 
L 313 1709 
L 2253 4666 
z
" transform="scale(0.015625)"/>
       </defs>
       <use xlink:href="#DejaVuSans-31"/>
       <use xlink:href="#DejaVuSans-34" x="63.623047"/>
      </g>
     </g>
    </g>
    <g id="xtick_22">
     <g id="line2d_32">
      <g>
       <use xlink:href="#mf9e85c03f9" x="200.448" y="307.584" style="stroke: #000000; stroke-width: 0.8"/>
      </g>
     </g>
     <g id="text_10">
      <!-- 16 -->
      <g transform="translate(194.0855 322.182437) scale(0.1 -0.1)">
       <defs>
        <path id="DejaVuSans-36" d="M 2113 2584 
Q 1688 2584 1439 2293 
Q 1191 2003 1191 1497 
Q 1191 994 1439 701 
Q 1688 409 2113 409 
Q 2538 409 2786 701 
Q 3034 994 3034 1497 
Q 3034 2003 2786 2293 
Q 2538 2584 2113 2584 
z
M 3366 4563 
L 3366 3988 
Q 3128 4100 2886 4159 
Q 2644 4219 2406 4219 
Q 1781 4219 1451 3797 
Q 1122 3375 1075 2522 
Q 1259 2794 1537 2939 
Q 1816 3084 2150 3084 
Q 2853 3084 3261 2657 
Q 3669 2231 3669 1497 
Q 3669 778 3244 343 
Q 2819 -91 2113 -91 
Q 1303 -91 875 529 
Q 447 1150 447 2328 
Q 447 3434 972 4092 
Q 1497 4750 2381 4750 
Q 2619 4750 2861 4703 
Q 3103 4656 3366 4563 
z
" transform="scale(0.015625)"/>
       </defs>
       <use xlink:href="#DejaVuSans-31"/>
       <use xlink:href="#DejaVuSans-36" x="63.623047"/>
      </g>
     </g>
    </g>
    <g id="xtick_23">
     <g id="line2d_33">
      <g>
       <use xlink:href="#mf9e85c03f9" x="248.064" y="307.584" style="stroke: #000000; stroke-width: 0.8"/>
      </g>
     </g>
     <g id="text_11">
      <!-- 18 -->
      <g transform="translate(241.7015 322.182437) scale(0.1 -0.1)">
       <defs>
        <path id="DejaVuSans-38" d="M 2034 2216 
Q 1584 2216 1326 1975 
Q 1069 1734 1069 1313 
Q 1069 891 1326 650 
Q 1584 409 2034 409 
Q 2484 409 2743 651 
Q 3003 894 3003 1313 
Q 3003 1734 2745 1975 
Q 2488 2216 2034 2216 
z
M 1403 2484 
Q 997 2584 770 2862 
Q 544 3141 544 3541 
Q 544 4100 942 4425 
Q 1341 4750 2034 4750 
Q 2731 4750 3128 4425 
Q 3525 4100 3525 3541 
Q 3525 3141 3298 2862 
Q 3072 2584 2669 2484 
Q 3125 2378 3379 2068 
Q 3634 1759 3634 1313 
Q 3634 634 3220 271 
Q 2806 -91 2034 -91 
Q 1263 -91 848 271 
Q 434 634 434 1313 
Q 434 1759 690 2068 
Q 947 2378 1403 2484 
z
M 1172 3481 
Q 1172 3119 1398 2916 
Q 1625 2713 2034 2713 
Q 2441 2713 2670 2916 
Q 2900 3119 2900 3481 
Q 2900 3844 2670 4047 
Q 2441 4250 2034 4250 
Q 1625 4250 1398 4047 
Q 1172 3844 1172 3481 
z
" transform="scale(0.015625)"/>
       </defs>
       <use xlink:href="#DejaVuSans-31"/>
       <use xlink:href="#DejaVuSans-38" x="63.623047"/>
      </g>
     </g>
    </g>
    <g id="xtick_24">
     <g id="line2d_34">
      <g>
       <use xlink:href="#mf9e85c03f9" x="295.68" y="307.584" style="stroke: #000000; stroke-width: 0.8"/>
      </g>
     </g>
     <g id="text_12">
      <!-- 20 -->
      <g transform="translate(289.3175 322.182437) scale(0.1 -0.1)">
       <use xlink:href="#DejaVuSans-32"/>
       <use xlink:href="#DejaVuSans-30" x="63.623047"/>
      </g>
     </g>
    </g>
    <g id="xtick_25">
     <g id="line2d_35">
      <g>
       <use xlink:href="#mf9e85c03f9" x="343.296" y="307.584" style="stroke: #000000; stroke-width: 0.8"/>
      </g>
     </g>
     <g id="text_13">
      <!-- 22 -->
      <g transform="translate(336.9335 322.182437) scale(0.1 -0.1)">
       <use xlink:href="#DejaVuSans-32"/>
       <use xlink:href="#DejaVuSans-32" x="63.623047"/>
      </g>
     </g>
    </g>
    <g id="xtick_26">
     <g id="line2d_36">
      <g>
       <use xlink:href="#mf9e85c03f9" x="390.912" y="307.584" style="stroke: #000000; stroke-width: 0.8"/>
      </g>
     </g>
     <g id="text_14">
      <!-- 24 -->
      <g transform="translate(384.5495 322.182437) scale(0.1 -0.1)">
       <use xlink:href="#DejaVuSans-32"/>
       <use xlink:href="#DejaVuSans-34" x="63.623047"/>
      </g>
     </g>
    </g>
    <g id="xtick_27">
     <g id="line2d_37">
      <g>
       <use xlink:href="#mf9e85c03f9" x="414.72" y="307.584" style="stroke: #000000; stroke-width: 0.8"/>
      </g>
     </g>
     <g id="text_15">
      <!-- 25 -->
      <g transform="translate(408.3575 322.182437) scale(0.1 -0.1)">
       <defs>
        <path id="DejaVuSans-35" d="M 691 4666 
L 3169 4666 
L 3169 4134 
L 1269 4134 
L 1269 2991 
Q 1406 3038 1543 3061 
Q 1681 3084 1819 3084 
Q 2600 3084 3056 2656 
Q 3513 2228 3513 1497 
Q 3513 744 3044 326 
Q 2575 -91 1722 -91 
Q 1428 -91 1123 -41 
Q 819 9 494 109 
L 494 744 
Q 775 591 1075 516 
Q 1375 441 1709 441 
Q 2250 441 2565 725 
Q 2881 1009 2881 1497 
Q 2881 1984 2565 2268 
Q 2250 2553 1709 2553 
Q 1456 2553 1204 2497 
Q 953 2441 691 2322 
L 691 4666 
z
" transform="scale(0.015625)"/>
       </defs>
       <use xlink:href="#DejaVuSans-32"/>
       <use xlink:href="#DejaVuSans-35" x="63.623047"/>
      </g>
     </g>
    </g>
   </g>
   <g id="matplotlib.axis_6">
    <g id="ytick_7">
     <g id="line2d_38">
      <g>
       <use xlink:href="#m768db7785f" x="57.6" y="277.656677" style="stroke: #000000; stroke-width: 0.8"/>
      </g>
     </g>
     <g id="text_16">
      <!-- 20 -->
      <g transform="translate(37.875 281.455896) scale(0.1 -0.1)">
       <use xlink:href="#DejaVuSans-32"/>
       <use xlink:href="#DejaVuSans-30" x="63.623047"/>
      </g>
     </g>
    </g>
    <g id="ytick_8">
     <g id="line2d_39">
      <g>
       <use xlink:href="#m768db7785f" x="57.6" y="239.573896" style="stroke: #000000; stroke-width: 0.8"/>
      </g>
     </g>
     <g id="text_17">
      <!-- 40 -->
      <g transform="translate(37.875 243.373115) scale(0.1 -0.1)">
       <use xlink:href="#DejaVuSans-34"/>
       <use xlink:href="#DejaVuSans-30" x="63.623047"/>
      </g>
     </g>
    </g>
   </g>
   <g id="line2d_40">
    <path d="M 57.6 286.334253 
L 58.7904 288.436859 
L 59.9808 288.733706 
L 61.1712 285.854575 
L 62.3616 277.714763 
L 64.7424 248.418737 
L 65.9328 242.530304 
L 67.1232 247.084079 
L 69.504 263.258234 
L 70.6944 269.989418 
L 71.8848 275.754677 
L 73.0752 280.757115 
L 74.2656 285.123986 
L 75.456 288.942564 
L 76.6464 292.281495 
L 77.8368 295.197158 
L 79.0272 297.733102 
L 80.2176 299.912934 
L 81.408 301.71853 
L 82.5984 303.028401 
L 83.7888 303.447971 
L 84.9792 301.869413 
L 86.1696 295.546804 
L 87.36 279.547699 
L 88.5504 252.835623 
L 89.7408 232.932952 
L 90.9312 235.81567 
L 92.1216 248.190946 
L 93.312 258.407088 
L 94.5024 265.5399 
L 95.6928 270.711151 
L 96.8832 274.440308 
L 98.0736 276.702026 
L 99.264 277.115395 
L 100.4544 275.058483 
L 101.6448 270.032689 
L 104.0256 255.507366 
L 105.216 252.099081 
L 106.4064 253.423186 
L 107.5968 257.722133 
L 109.9776 267.979296 
L 111.168 272.377701 
L 112.3584 275.883543 
L 113.5488 278.188888 
L 114.7392 278.793624 
L 115.9296 276.948137 
L 117.12 271.898395 
L 119.5008 255.537072 
L 120.6912 251.021159 
L 121.8816 252.003675 
L 123.072 256.555241 
L 125.4528 267.647263 
L 126.6432 272.44664 
L 127.8336 276.396289 
L 129.024 279.259113 
L 130.2144 280.608992 
L 131.4048 279.709963 
L 132.5952 275.563615 
L 133.7856 267.643428 
L 134.976 257.716602 
L 136.1664 250.532983 
L 137.3568 249.691144 
L 138.5472 253.908066 
L 140.928 266.002493 
L 142.1184 271.397026 
L 143.3088 276.00006 
L 144.4992 279.686727 
L 145.6896 282.198892 
L 146.88 283.003984 
L 148.0704 281.143425 
L 149.2608 275.340789 
L 150.4512 265.207475 
L 151.6416 253.850993 
L 152.832 247.565986 
L 154.0224 249.019248 
L 155.2128 254.958227 
L 157.5936 268.090894 
L 158.784 273.603773 
L 159.9744 278.319609 
L 161.1648 282.197209 
L 162.3552 285.063647 
L 163.5456 286.486661 
L 164.736 285.556904 
L 165.9264 280.715482 
L 167.1168 270.443037 
L 168.3072 256.358044 
L 169.4976 245.946469 
L 170.688 245.351639 
L 171.8784 251.612634 
L 174.2592 266.454887 
L 175.4496 272.576341 
L 176.64 277.87559 
L 177.8304 282.464389 
L 179.0208 286.393783 
L 180.2112 289.644425 
L 181.4016 292.068447 
L 182.592 293.235603 
L 183.7824 292.105431 
L 184.9728 286.555899 
L 186.1632 273.764126 
L 187.3536 254.737298 
L 188.544 240.669362 
L 189.7344 241.11173 
L 193.3056 266.657421 
L 194.496 272.883455 
L 195.6864 278.127698 
L 196.8768 282.556603 
L 198.0672 286.190503 
L 199.2576 288.893261 
L 200.448 290.247075 
L 201.6384 289.277393 
L 202.8288 284.115347 
L 204.0192 272.516115 
L 205.2096 255.710129 
L 206.4 243.08708 
L 207.5904 242.801444 
L 208.7808 250.417676 
L 209.9712 259.067554 
L 211.1616 266.529863 
L 212.352 272.815878 
L 213.5424 278.207984 
L 214.7328 282.885299 
L 215.9232 286.951169 
L 217.1136 290.467906 
L 218.304 293.458178 
L 219.4944 295.873179 
L 220.6848 297.500556 
L 221.8752 297.733405 
L 223.0656 295.064238 
L 224.256 286.41132 
L 225.4464 268.376206 
L 226.6368 245.743302 
L 227.8272 235.672217 
L 229.0176 242.173077 
L 230.208 252.991436 
L 231.3984 261.911711 
L 232.5888 268.754938 
L 233.7792 274.186242 
L 234.9696 278.498242 
L 236.16 281.650606 
L 237.3504 283.296646 
L 238.5408 282.675394 
L 239.7312 278.553894 
L 240.9216 269.867648 
L 242.112 258.02452 
L 243.3024 248.776909 
L 244.4928 247.312732 
L 245.6832 252.158186 
L 248.064 265.713836 
L 249.2544 271.602144 
L 250.4448 276.689262 
L 251.6352 280.980878 
L 252.8256 284.391838 
L 254.016 286.654413 
L 255.2064 287.144483 
L 256.3968 284.623708 
L 257.5872 277.25582 
L 259.968 250.192384 
L 261.1584 243.871215 
L 262.3488 247.376337 
L 264.7296 262.737585 
L 265.92 269.430765 
L 267.1104 275.198594 
L 268.3008 280.203093 
L 269.4912 284.547179 
L 270.6816 288.282791 
L 271.872 291.405 
L 273.0624 293.800833 
L 274.2528 295.111953 
L 275.4432 294.421795 
L 276.6336 289.710885 
L 277.824 277.774102 
L 279.0144 257.979821 
L 280.2048 240.71481 
L 281.3952 238.897556 
L 282.5856 247.726005 
L 283.776 257.485735 
L 284.9664 265.389797 
L 286.1568 271.734588 
L 287.3472 276.971035 
L 288.5376 281.275473 
L 289.728 284.608387 
L 290.9184 286.688981 
L 292.1088 286.830173 
L 293.2992 283.694921 
L 294.4896 275.458223 
L 296.8704 248.577197 
L 298.0608 243.981335 
L 299.2512 248.521098 
L 301.632 263.85473 
L 302.8224 270.380637 
L 304.0128 276.012613 
L 305.2032 280.901093 
L 306.3936 285.136729 
L 307.584 288.758262 
L 308.7744 291.736905 
L 309.9648 293.906791 
L 311.1552 294.789154 
L 312.3456 293.214581 
L 313.536 286.785331 
L 314.7264 272.436428 
L 315.9168 252.035921 
L 317.1072 238.749274 
L 318.2976 241.118667 
L 320.6784 260.003283 
L 321.8688 267.396856 
L 323.0592 273.410959 
L 324.2496 278.411131 
L 325.44 282.514585 
L 326.6304 285.643383 
L 327.8208 287.466049 
L 329.0112 287.200908 
L 330.2016 283.360047 
L 331.392 274.052424 
L 332.5824 259.605172 
L 333.7728 246.746411 
L 334.9632 243.768272 
L 336.1536 249.404603 
L 338.5344 264.934913 
L 339.7248 271.352048 
L 340.9152 276.888308 
L 342.1056 281.701184 
L 343.296 285.887364 
L 344.4864 289.502053 
L 345.6768 292.555196 
L 346.8672 294.970457 
L 348.0576 296.472629 
L 349.248 296.316764 
L 350.4384 292.744975 
L 351.6288 282.510411 
L 354.0096 242.725518 
L 355.2 236.862021 
L 356.3904 244.839719 
L 357.5808 255.201799 
L 358.7712 263.603228 
L 359.9616 270.185196 
L 361.152 275.508645 
L 362.3424 279.79841 
L 363.5328 283.001846 
L 364.7232 284.783393 
L 365.9136 284.381052 
L 367.104 280.466815 
L 368.2944 271.644314 
L 369.4848 258.861125 
L 370.6752 248.171682 
L 371.8656 245.952516 
L 373.056 250.960553 
L 375.4368 265.266343 
L 376.6272 271.401682 
L 377.8176 276.714549 
L 379.008 281.275147 
L 380.1984 285.084211 
L 381.3888 288.026297 
L 382.5792 289.756855 
L 383.7696 289.462704 
L 384.96 285.51743 
L 386.1504 275.644378 
L 388.5312 245.28532 
L 389.7216 242.092028 
L 390.912 248.483978 
L 392.1024 257.155515 
L 393.2928 264.894391 
L 394.4832 271.420522 
L 395.6736 277.004686 
L 396.864 281.847226 
L 398.0544 286.066452 
L 399.2448 289.740123 
L 400.4352 292.919554 
L 401.6256 295.621525 
L 402.816 297.792758 
L 404.0064 299.212699 
L 405.1968 299.245632 
L 406.3872 296.283694 
L 407.5776 286.979523 
L 408.768 267.648483 
L 409.9584 243.915858 
L 411.1488 234.531015 
L 412.3392 242.201293 
L 413.5296 253.373191 
L 414.72 262.196167 
L 414.72 262.196167 
" clip-path="url(#p9cc09e532f)" style="fill: none; stroke: #0000cc; stroke-width: 1.5; stroke-linecap: square"/>
   </g>
   <g id="line2d_41">
    <path d="M 57.6 286.334253 
L 58.790405 288.410003 
L 59.980809 288.805719 
L 61.171191 286.178579 
L 62.361595 278.353446 
L 63.552 263.956238 
L 64.742405 248.121272 
L 65.932809 242.137308 
L 67.123191 246.824232 
L 69.504 263.819506 
L 70.694405 270.211626 
L 71.884809 275.893507 
L 73.075191 281.024393 
L 74.265595 285.326049 
L 76.646405 292.379395 
L 77.836809 295.213742 
L 79.027191 297.69646 
L 80.217595 299.853198 
L 81.408 301.671166 
L 82.598405 303.120648 
L 83.788809 304.026353 
L 84.979191 303.857674 
L 86.169595 301.202406 
L 87.36 292.698059 
L 88.550405 272.794209 
L 89.740809 243.777671 
L 90.931191 232.873412 
L 92.121595 239.61631 
L 93.312 247.492645 
L 94.502405 260.474227 
L 95.692809 267.023709 
L 96.883191 271.190152 
L 99.264 280.601967 
L 100.454405 282.304736 
L 101.644809 283.212176 
L 102.835191 281.146376 
L 104.025595 275.152209 
L 105.216 264.681637 
L 106.406405 252.150151 
L 107.596809 246.201259 
L 108.787191 249.465836 
L 109.977595 255.503567 
L 112.358405 269.755612 
L 114.739191 279.384853 
L 115.929595 283.671787 
L 117.12 286.512507 
L 118.310405 288.495992 
L 119.500809 288.702756 
L 120.691191 285.439557 
L 121.881595 276.896895 
L 124.262405 246.700043 
L 125.452809 242.376689 
L 126.643191 247.851379 
L 129.024 264.690966 
L 130.214405 271.027146 
L 132.595191 281.591254 
L 133.785595 285.819417 
L 136.166405 292.738327 
L 137.356809 295.529562 
L 138.547191 297.945886 
L 139.737595 300.033993 
L 140.928 301.730149 
L 142.118405 302.921072 
L 143.308809 303.210522 
L 144.499191 301.500662 
L 145.689595 295.112762 
L 146.88 279.000214 
L 148.070405 251.400159 
L 149.260809 233.6307 
L 150.451191 236.178413 
L 152.832 259.544565 
L 154.022405 267.154777 
L 155.212809 268.642495 
L 156.403191 275.282148 
L 157.593595 278.201147 
L 158.784 278.487846 
L 159.974405 276.407507 
L 161.164809 271.781726 
L 162.355191 264.289523 
L 163.545595 255.999445 
L 164.736 250.435526 
L 165.926405 250.759069 
L 170.688 273.090111 
L 171.878405 277.16092 
L 173.068809 280.073323 
L 174.259191 282.253533 
L 175.449595 281.958022 
L 176.64 278.681163 
L 177.830405 271.463962 
L 179.020809 260.190478 
L 180.211191 250.373655 
L 181.401595 247.816477 
L 182.592 251.17583 
L 183.782405 257.943062 
L 184.972809 265.366169 
L 188.544 280.272852 
L 189.734405 283.278535 
L 190.924809 285.577254 
L 192.115191 286.097794 
L 193.305595 283.368931 
L 194.496 276.190958 
L 196.876809 249.721734 
L 198.067191 244.501407 
L 199.257595 248.19189 
L 200.448 255.425346 
L 201.638382 263.854144 
L 202.828809 270.133888 
L 205.209618 280.685759 
L 206.4 284.783895 
L 207.590382 288.238962 
L 208.780809 291.184405 
L 209.971191 293.045972 
L 211.161618 293.389792 
L 212.352 290.860592 
L 213.542382 282.699221 
L 214.732809 266.261691 
L 215.923191 246.361038 
L 217.113618 238.656856 
L 218.304 244.337509 
L 220.684809 263.453285 
L 221.875191 269.813009 
L 224.256 280.242134 
L 225.446382 284.310789 
L 226.636809 287.199116 
L 227.827191 289.090935 
L 229.017618 289.076688 
L 230.208 285.483201 
L 231.398382 276.402693 
L 233.779191 246.087058 
L 234.969618 242.571198 
L 236.16 247.104211 
L 237.350382 257.671081 
L 238.540809 264.13773 
L 239.731191 271.647066 
L 240.921618 274.68069 
L 242.112 281.06753 
L 243.302382 283.187036 
L 244.492809 288.394199 
L 245.683191 290.285617 
L 246.873618 292.959847 
L 248.064 293.10957 
L 249.254382 290.941025 
L 250.444809 283.422225 
L 251.635191 267.369595 
L 252.825618 247.341321 
L 254.016 238.753551 
L 255.206382 243.5642 
L 257.587191 263.601193 
L 259.968 274.97648 
L 261.158382 280.260485 
L 262.348809 284.426183 
L 263.539191 287.574478 
L 264.729618 290.100608 
L 265.92 291.137799 
L 267.110382 289.550294 
L 268.300809 283.595206 
L 269.491191 270.220599 
L 270.681618 252.46643 
L 271.872 241.486273 
L 273.062382 242.525812 
L 274.252809 253.022871 
L 275.443191 259.966732 
L 276.633618 268.561474 
L 277.824 271.389304 
L 279.014382 278.409526 
L 280.204809 279.393059 
L 281.395191 285.274396 
L 282.585618 285.758229 
L 283.776 286.4777 
L 284.966382 282.479227 
L 286.156809 272.917142 
L 288.537618 246.924143 
L 289.728 243.697781 
L 292.108809 257.798875 
L 293.299191 263.715702 
L 294.489618 271.993116 
L 295.68 276.949301 
L 298.060809 285.917141 
L 299.251191 289.300571 
L 300.441618 292.033767 
L 301.632 294.32741 
L 302.822382 295.151217 
L 304.012809 293.737752 
L 305.203191 287.780752 
L 306.393618 273.675275 
L 307.584 252.151697 
L 308.774382 238.205447 
L 309.964809 240.212127 
L 311.155191 250.005178 
L 312.345618 261.157578 
L 313.536 267.515911 
L 315.916809 278.643384 
L 317.107191 282.884014 
L 318.297618 285.926482 
L 319.488 288.140533 
L 320.678382 288.546523 
L 321.868809 285.705767 
L 323.059191 277.818276 
L 325.44 248.343425 
L 326.630382 242.847148 
L 327.820809 246.336602 
L 329.011191 256.310309 
L 330.201618 262.957448 
L 331.392 270.559051 
L 332.582382 274.057469 
L 333.772809 280.407521 
L 334.963191 282.707742 
L 336.153618 288.055552 
L 337.344 290.2773 
L 338.534382 293.542156 
L 339.724809 294.950647 
L 340.915191 295.597379 
L 342.105618 293.176739 
L 343.296 285.161543 
L 344.486382 268.328046 
L 345.676809 246.376135 
L 346.867191 237.246091 
L 348.057618 242.964283 
L 349.248 252.035214 
L 350.438382 262.752212 
L 351.628809 269.199457 
L 354.009618 279.194845 
L 355.2 283.113777 
L 356.390382 285.453084 
L 357.580809 286.355487 
L 358.771191 284.725601 
L 359.961618 278.427556 
L 361.152 266.836872 
L 362.342382 252.053717 
L 363.532809 244.580072 
L 364.723191 247.550124 
L 365.913618 251.673564 
L 367.104 262.663001 
L 368.294382 267.233329 
L 369.484809 274.566806 
L 370.675191 273.493822 
L 371.865618 281.073507 
L 373.056 280.683825 
L 374.246382 287.07672 
L 375.436809 285.687363 
L 376.627191 285.909199 
L 377.817618 278.940363 
L 380.198382 251.708923 
L 381.388809 244.392781 
L 382.579191 245.635539 
L 383.769618 257.156746 
L 384.96 262.687072 
L 386.150382 265.30328 
L 387.340809 274.894426 
L 389.721618 280.458421 
L 390.912 284.060075 
L 392.102382 283.4842 
L 393.292809 281.107098 
L 394.483191 274.760889 
L 395.673618 262.058519 
L 396.864 250.787143 
L 398.054382 246.897424 
L 399.244809 248.059481 
L 401.625618 265.868424 
L 402.816 268.440641 
L 404.006382 274.521217 
L 405.196809 279.826629 
L 406.387191 281.627546 
L 407.577618 284.32193 
L 408.768 284.748499 
L 409.958382 280.876556 
L 411.148809 273.576105 
L 413.529618 248.998121 
L 414.72 246.301062 
L 414.72 246.301062 
" clip-path="url(#p9cc09e532f)" style="fill: none; stroke-dasharray: 9.6,2.4,1.5,2.4; stroke-dashoffset: 0; stroke: #ff0000; stroke-width: 1.5"/>
   </g>
   <g id="patch_13">
    <path d="M 57.6 307.584 
L 57.6 229.315765 
" style="fill: none; stroke: #000000; stroke-width: 0.8; stroke-linejoin: miter; stroke-linecap: square"/>
   </g>
   <g id="patch_14">
    <path d="M 414.72 307.584 
L 414.72 229.315765 
" style="fill: none; stroke: #000000; stroke-width: 0.8; stroke-linejoin: miter; stroke-linecap: square"/>
   </g>
   <g id="patch_15">
    <path d="M 57.6 307.584 
L 414.72 307.584 
" style="fill: none; stroke: #000000; stroke-width: 0.8; stroke-linejoin: miter; stroke-linecap: square"/>
   </g>
   <g id="patch_16">
    <path d="M 57.6 229.315765 
L 414.72 229.315765 
" style="fill: none; stroke: #000000; stroke-width: 0.8; stroke-linejoin: miter; stroke-linecap: square"/>
   </g>
  </g>
 </g>
 <defs>
  <clipPath id="p5a6c17640f">
   <rect x="57.6" y="41.472" width="357.12" height="78.268235"/>
  </clipPath>
  <clipPath id="p1a57b9cb38">
   <rect x="57.6" y="135.393882" width="357.12" height="78.268235"/>
  </clipPath>
  <clipPath id="p9cc09e532f">
   <rect x="57.6" y="229.315765" width="357.12" height="78.268235"/>
  </clipPath>
 </defs>
</svg>
