<?xml version="1.0" encoding="utf-8" standalone="no"?>
<!DOCTYPE svg PUBLIC "-//W3C//DTD SVG 1.1//EN"
  "http://www.w3.org/Graphics/SVG/1.1/DTD/svg11.dtd">
<svg xmlns:xlink="http://www.w3.org/1999/xlink" width="460.8pt" height="345.6pt" viewBox="0 0 460.8 345.6" xmlns="http://www.w3.org/2000/svg" version="1.1">
 <metadata>
  <rdf:RDF xmlns:dc="http://purl.org/dc/elements/1.1/" xmlns:cc="http://creativecommons.org/ns#" xmlns:rdf="http://www.w3.org/1999/02/22-rdf-syntax-ns#">
   <cc:Work>
    <dc:type rdf:resource="http://purl.org/dc/dcmitype/StillImage"/>
    <dc:date>2023-12-14T02:41:43.392744</dc:date>
    <dc:format>image/svg+xml</dc:format>
    <dc:creator>
     <cc:Agent>
      <dc:title>Matplotlib v3.7.3, https://matplotlib.org/</dc:title>
     </cc:Agent>
    </dc:creator>
   </cc:Work>
  </rdf:RDF>
 </metadata>
 <defs>
  <style type="text/css">*{stroke-linejoin: round; stroke-linecap: butt}</style>
 </defs>
 <g id="figure_1">
  <g id="patch_1">
   <path d="M 0 345.6 
L 460.8 345.6 
L 460.8 0 
L 0 0 
z
" style="fill: #ffffff"/>
  </g>
  <g id="axes_1">
   <g id="patch_2">
    <path d="M 57.6 119.740235 
L 414.72 119.740235 
L 414.72 41.472 
L 57.6 41.472 
z
" style="fill: #ffffff"/>
   </g>
   <g id="matplotlib.axis_1">
    <g id="xtick_1">
     <g id="line2d_1">
      <defs>
       <path id="m720207db0d" d="M 0 0 
L 0 3.5 
" style="stroke: #000000; stroke-width: 0.8"/>
      </defs>
      <g>
       <use xlink:href="#m720207db0d" x="57.6" y="119.740235" style="stroke: #000000; stroke-width: 0.8"/>
      </g>
     </g>
    </g>
    <g id="xtick_2">
     <g id="line2d_2">
      <g>
       <use xlink:href="#m720207db0d" x="105.216" y="119.740235" style="stroke: #000000; stroke-width: 0.8"/>
      </g>
     </g>
    </g>
    <g id="xtick_3">
     <g id="line2d_3">
      <g>
       <use xlink:href="#m720207db0d" x="152.832" y="119.740235" style="stroke: #000000; stroke-width: 0.8"/>
      </g>
     </g>
    </g>
    <g id="xtick_4">
     <g id="line2d_4">
      <g>
       <use xlink:href="#m720207db0d" x="200.448" y="119.740235" style="stroke: #000000; stroke-width: 0.8"/>
      </g>
     </g>
    </g>
    <g id="xtick_5">
     <g id="line2d_5">
      <g>
       <use xlink:href="#m720207db0d" x="248.064" y="119.740235" style="stroke: #000000; stroke-width: 0.8"/>
      </g>
     </g>
    </g>
    <g id="xtick_6">
     <g id="line2d_6">
      <g>
       <use xlink:href="#m720207db0d" x="295.68" y="119.740235" style="stroke: #000000; stroke-width: 0.8"/>
      </g>
     </g>
    </g>
    <g id="xtick_7">
     <g id="line2d_7">
      <g>
       <use xlink:href="#m720207db0d" x="343.296" y="119.740235" style="stroke: #000000; stroke-width: 0.8"/>
      </g>
     </g>
    </g>
    <g id="xtick_8">
     <g id="line2d_8">
      <g>
       <use xlink:href="#m720207db0d" x="390.912" y="119.740235" style="stroke: #000000; stroke-width: 0.8"/>
      </g>
     </g>
    </g>
    <g id="xtick_9">
     <g id="line2d_9">
      <g>
       <use xlink:href="#m720207db0d" x="414.72" y="119.740235" style="stroke: #000000; stroke-width: 0.8"/>
      </g>
     </g>
    </g>
   </g>
   <g id="matplotlib.axis_2">
    <g id="ytick_1">
     <g id="line2d_10">
      <defs>
       <path id="m3c75400abe" d="M 0 0 
L -3.5 0 
" style="stroke: #000000; stroke-width: 0.8"/>
      </defs>
      <g>
       <use xlink:href="#m3c75400abe" x="57.6" y="100.023683" style="stroke: #000000; stroke-width: 0.8"/>
      </g>
     </g>
     <g id="text_1">
      <!-- −10 -->
      <g transform="translate(29.495313 103.822902) scale(0.1 -0.1)">
       <defs>
        <path id="DejaVuSans-2212" d="M 678 2272 
L 4684 2272 
L 4684 1741 
L 678 1741 
L 678 2272 
z
" transform="scale(0.015625)"/>
        <path id="DejaVuSans-31" d="M 794 531 
L 1825 531 
L 1825 4091 
L 703 3866 
L 703 4441 
L 1819 4666 
L 2450 4666 
L 2450 531 
L 3481 531 
L 3481 0 
L 794 0 
L 794 531 
z
" transform="scale(0.015625)"/>
        <path id="DejaVuSans-30" d="M 2034 4250 
Q 1547 4250 1301 3770 
Q 1056 3291 1056 2328 
Q 1056 1369 1301 889 
Q 1547 409 2034 409 
Q 2525 409 2770 889 
Q 3016 1369 3016 2328 
Q 3016 3291 2770 3770 
Q 2525 4250 2034 4250 
z
M 2034 4750 
Q 2819 4750 3233 4129 
Q 3647 3509 3647 2328 
Q 3647 1150 3233 529 
Q 2819 -91 2034 -91 
Q 1250 -91 836 529 
Q 422 1150 422 2328 
Q 422 3509 836 4129 
Q 1250 4750 2034 4750 
z
" transform="scale(0.015625)"/>
       </defs>
       <use xlink:href="#DejaVuSans-2212"/>
       <use xlink:href="#DejaVuSans-31" x="83.789062"/>
       <use xlink:href="#DejaVuSans-30" x="147.412109"/>
      </g>
     </g>
    </g>
    <g id="ytick_2">
     <g id="line2d_11">
      <g>
       <use xlink:href="#m3c75400abe" x="57.6" y="79.350521" style="stroke: #000000; stroke-width: 0.8"/>
      </g>
     </g>
     <g id="text_2">
      <!-- 0 -->
      <g transform="translate(44.2375 83.14974) scale(0.1 -0.1)">
       <use xlink:href="#DejaVuSans-30"/>
      </g>
     </g>
    </g>
    <g id="ytick_3">
     <g id="line2d_12">
      <g>
       <use xlink:href="#m3c75400abe" x="57.6" y="58.677358" style="stroke: #000000; stroke-width: 0.8"/>
      </g>
     </g>
     <g id="text_3">
      <!-- 10 -->
      <g transform="translate(37.875 62.476577) scale(0.1 -0.1)">
       <use xlink:href="#DejaVuSans-31"/>
       <use xlink:href="#DejaVuSans-30" x="63.623047"/>
      </g>
     </g>
    </g>
   </g>
   <g id="line2d_13">
    <path d="M 57.6 85.739712 
L 58.1952 86.326904 
L 58.7904 87.648791 
L 59.3856 88.676533 
L 59.9808 90.274837 
L 60.576 92.823956 
L 61.1712 94.446345 
L 63.552 107.275107 
L 64.1472 109.131801 
L 64.7424 110.044908 
L 65.3376 109.182907 
L 65.9328 106.942709 
L 66.528 103.776009 
L 67.7184 94.805842 
L 68.9088 88.823153 
L 70.0992 83.897625 
L 71.2896 81.687765 
L 71.8848 81.398472 
L 73.0752 80.111337 
L 73.6704 79.767796 
L 74.2656 80.232534 
L 74.8608 80.360042 
L 75.456 79.77543 
L 76.0512 79.588754 
L 77.2416 79.927101 
L 77.8368 79.84254 
L 78.432 80.483259 
L 79.0272 80.352686 
L 79.6224 79.926454 
L 80.2176 81.119464 
L 80.8128 81.354079 
L 81.408 81.186165 
L 82.0032 82.33112 
L 83.1936 83.9642 
L 83.7888 86.383568 
L 84.384 88.022947 
L 85.5744 92.891145 
L 86.1696 96.261138 
L 88.5504 114.591082 
L 89.1456 116.182588 
L 89.7408 115.398495 
L 90.336 110.772826 
L 92.7168 86.746379 
L 93.312 81.949388 
L 93.9072 78.652051 
L 94.5024 76.698307 
L 95.0976 73.978038 
L 95.6928 73.218666 
L 96.288 72.243987 
L 97.4784 69.31221 
L 98.0736 68.708436 
L 98.6688 66.795964 
L 99.264 66.18168 
L 100.4544 62.709514 
L 101.0496 60.764707 
L 102.24 57.399599 
L 102.8352 55.68853 
L 103.4304 54.53701 
L 104.0256 55.151968 
L 104.6208 54.550383 
L 105.8112 57.599696 
L 106.4064 59.983644 
L 107.0016 61.377495 
L 107.5968 63.137637 
L 108.192 65.431436 
L 109.3824 68.195469 
L 109.9776 68.947154 
L 110.5728 69.36429 
L 111.168 70.372993 
L 111.7632 69.865364 
L 112.3584 70.21894 
L 112.9536 69.803439 
L 114.144 68.001239 
L 114.7392 66.03471 
L 115.9296 63.432995 
L 117.12 58.579877 
L 117.7152 57.720006 
L 118.3104 55.586178 
L 118.9056 54.205049 
L 119.5008 53.581338 
L 120.096 53.284711 
L 121.2864 56.520013 
L 123.072 63.252181 
L 123.6672 65.863628 
L 124.2624 67.271692 
L 124.8576 69.084408 
L 125.4528 69.554848 
L 126.048 70.496604 
L 126.6432 70.860398 
L 127.2384 71.459235 
L 127.8336 70.516715 
L 128.4288 70.39562 
L 129.6192 69.079481 
L 130.8096 66.603518 
L 131.4048 64.397629 
L 132 63.602466 
L 132.5952 60.688714 
L 133.7856 56.071372 
L 134.976 53.418924 
L 135.5712 52.784758 
L 136.1664 53.562093 
L 136.7616 54.581091 
L 137.952 58.83808 
L 138.5472 62.009334 
L 139.1424 64.48332 
L 140.3328 68.56988 
L 141.5232 71.166162 
L 142.7136 72.388877 
L 143.904 72.305747 
L 145.0944 71.374851 
L 146.2848 68.737755 
L 146.88 67.902263 
L 149.2608 58.967504 
L 149.856 56.999126 
L 150.4512 54.330731 
L 151.0464 52.369227 
L 151.6416 51.91361 
L 152.2368 51.96187 
L 152.832 53.326799 
L 153.4272 55.241785 
L 154.6176 61.316798 
L 155.2128 63.573347 
L 155.808 66.651726 
L 156.4032 68.520551 
L 156.9984 70.936217 
L 157.5936 71.716021 
L 158.1888 73.215658 
L 158.784 73.72995 
L 159.3792 74.567732 
L 159.9744 73.75564 
L 160.5696 73.974613 
L 161.1648 73.62585 
L 161.76 72.953134 
L 162.3552 72.495601 
L 162.9504 70.515218 
L 163.5456 70.056844 
L 164.736 65.562537 
L 165.9264 61.580256 
L 166.5216 58.191867 
L 167.1168 55.889822 
L 167.712 52.700638 
L 168.3072 50.423985 
L 168.9024 50.376455 
L 169.4976 50.484095 
L 170.0928 52.470873 
L 170.688 55.221389 
L 171.8784 62.947776 
L 172.4736 65.614354 
L 173.0688 68.961221 
L 173.664 71.327574 
L 174.2592 73.014011 
L 174.8544 74.118872 
L 175.4496 76.045091 
L 176.0448 75.663305 
L 176.64 76.739558 
L 177.8304 77.16751 
L 178.4256 76.300924 
L 180.2112 75.474928 
L 180.8064 73.919124 
L 181.4016 73.789517 
L 181.9968 71.984361 
L 182.592 70.992731 
L 183.7824 66.747476 
L 185.568 58.584987 
L 186.1632 55.071366 
L 186.7584 50.674777 
L 187.3536 47.701203 
L 187.9488 47.332183 
L 188.544 48.265894 
L 189.1392 50.336535 
L 190.3296 59.195177 
L 190.9248 64.73024 
L 191.52 68.762345 
L 192.7104 74.644704 
L 193.9008 78.612537 
L 194.496 79.685026 
L 195.0912 80.249844 
L 195.6864 81.342518 
L 196.2816 81.786019 
L 197.472 83.028445 
L 198.0672 83.428192 
L 198.6624 84.332787 
L 200.448 87.95676 
L 201.0432 89.197876 
L 201.6384 92.712744 
L 202.2336 94.748935 
L 203.424 100.031719 
L 204.0192 104.001901 
L 204.6144 107.216961 
L 205.2096 109.776303 
L 205.8048 110.502838 
L 206.4 109.389528 
L 206.9952 107.153981 
L 208.7808 95.9029 
L 209.376 90.752602 
L 210.5664 85.894371 
L 211.1616 83.85297 
L 211.7568 82.353939 
L 213.5424 79.213749 
L 214.1376 79.009351 
L 214.7328 79.654374 
L 215.328 78.289286 
L 215.9232 79.081517 
L 216.5184 77.727068 
L 217.7088 77.079246 
L 218.304 76.915676 
L 218.8992 77.241814 
L 219.4944 74.815896 
L 220.0896 74.900556 
L 220.6848 73.8521 
L 221.8752 70.2847 
L 222.4704 68.417611 
L 223.6608 62.526231 
L 224.256 58.971832 
L 225.4464 50.384311 
L 226.0416 47.074548 
L 226.6368 45.029647 
L 227.232 45.459845 
L 227.8272 47.969324 
L 228.4224 52.884742 
L 229.6128 64.265605 
L 230.208 69.186028 
L 231.3984 76.547986 
L 231.9936 78.868119 
L 232.5888 80.235132 
L 233.184 82.054187 
L 234.3744 84.145327 
L 234.9696 84.53367 
L 235.5648 86.302535 
L 236.16 86.920857 
L 236.7552 88.227857 
L 237.9456 90.482626 
L 238.5408 93.358485 
L 239.136 95.001575 
L 239.7312 97.010701 
L 240.9216 102.779297 
L 241.5168 104.440154 
L 242.112 106.905419 
L 243.3024 107.23151 
L 244.4928 102.934907 
L 245.088 99.47495 
L 245.6832 97.128439 
L 246.8736 91.478651 
L 247.4688 89.143881 
L 248.064 87.789104 
L 248.6592 86.121595 
L 249.2544 85.385806 
L 249.8496 85.008889 
L 250.4448 84.767692 
L 251.6352 84.046903 
L 252.2304 85.457715 
L 252.8256 85.71329 
L 253.4208 86.444782 
L 254.016 87.734737 
L 254.6112 88.703317 
L 255.2064 90.457331 
L 256.3968 94.974828 
L 256.992 97.940101 
L 257.5872 100.198564 
L 258.1824 104.049669 
L 259.3728 108.7292 
L 259.968 108.921595 
L 260.5632 108.432516 
L 261.1584 106.318899 
L 261.7536 103.677175 
L 262.3488 99.399503 
L 262.944 95.950832 
L 263.5392 93.386691 
L 264.1344 89.839084 
L 264.7296 87.521688 
L 265.92 83.756591 
L 266.5152 82.698762 
L 267.7056 81.900635 
L 268.896 81.369178 
L 269.4912 82.427937 
L 270.0864 81.76085 
L 270.6816 82.00341 
L 271.2768 82.641243 
L 271.872 82.761192 
L 272.4672 83.613517 
L 273.6576 84.988997 
L 274.2528 86.673935 
L 274.848 88.858392 
L 275.4432 90.099304 
L 276.0384 92.68584 
L 277.2288 99.708981 
L 279.0144 110.681761 
L 279.6096 111.840638 
L 280.2048 112.264573 
L 280.8 110.481321 
L 281.3952 106.130575 
L 283.1808 91.320873 
L 283.776 87.331961 
L 284.3712 84.441517 
L 285.5616 79.668998 
L 286.1568 78.609419 
L 286.752 77.189981 
L 287.3472 76.239857 
L 287.9424 76.165858 
L 288.5376 74.345462 
L 289.1328 74.597861 
L 289.728 73.556726 
L 290.3232 72.04183 
L 290.9184 71.066186 
L 291.5136 69.240696 
L 292.1088 67.939646 
L 293.2992 62.480411 
L 293.8944 60.580399 
L 295.68 51.902078 
L 296.2752 50.742657 
L 296.8704 50.135709 
L 297.4656 50.952737 
L 298.0608 53.090123 
L 298.656 55.940981 
L 299.8464 64.141857 
L 301.632 71.840931 
L 302.2272 73.874056 
L 302.8224 74.77101 
L 303.4176 76.146724 
L 304.0128 76.341164 
L 304.608 77.326679 
L 305.2032 77.010833 
L 305.7984 77.057816 
L 306.3936 77.331558 
L 306.9888 76.558446 
L 307.584 76.5186 
L 308.1792 76.152237 
L 308.7744 75.595127 
L 309.3696 74.529274 
L 309.9648 72.935474 
L 311.1552 71.110173 
L 311.7504 69.16834 
L 313.536 60.735681 
L 315.3216 49.409344 
L 315.9168 46.937952 
L 316.512 46.658482 
L 317.1072 47.750131 
L 317.7024 51.094493 
L 320.0832 70.121327 
L 320.6784 73.014496 
L 321.2736 76.53798 
L 321.8688 78.592846 
L 322.464 79.476987 
L 323.6544 82.308478 
L 324.2496 82.275847 
L 324.8448 83.74941 
L 325.44 84.054868 
L 326.0352 84.88183 
L 326.6304 85.350406 
L 327.2256 86.549664 
L 327.8208 87.440333 
L 328.416 90.484015 
L 329.0112 91.602469 
L 329.6064 93.398666 
L 330.7968 98.552092 
L 331.392 102.165833 
L 331.9872 104.603757 
L 332.5824 108.047871 
L 333.1776 108.738846 
L 333.7728 109.193933 
L 334.368 107.908449 
L 334.9632 105.143452 
L 336.1536 97.677777 
L 336.7488 93.241029 
L 337.344 90.287157 
L 337.9392 88.366929 
L 338.5344 85.607718 
L 339.1296 83.978335 
L 339.7248 83.603519 
L 340.32 82.419577 
L 340.9152 81.962627 
L 341.5104 80.789428 
L 342.1056 81.040085 
L 342.7008 81.421784 
L 343.296 80.907816 
L 343.8912 81.960577 
L 345.0816 81.408717 
L 345.6768 82.26986 
L 346.272 82.680713 
L 346.8672 83.236832 
L 347.4624 84.649734 
L 348.0576 85.606627 
L 348.6528 86.82686 
L 349.248 89.543547 
L 349.8432 91.658765 
L 351.6288 101.253662 
L 352.8192 109.359798 
L 353.4144 111.891162 
L 354.0096 113.787476 
L 355.2 108.744695 
L 357.5808 87.810331 
L 358.7712 81.694583 
L 359.9616 78.695188 
L 361.152 75.412116 
L 361.7472 74.623574 
L 362.3424 74.159728 
L 363.5328 72.357027 
L 364.7232 70.332119 
L 365.3184 67.808053 
L 365.9136 66.177469 
L 367.6992 59.446395 
L 368.2944 55.636129 
L 369.4848 51.881805 
L 370.08 50.51362 
L 370.6752 51.199866 
L 371.2704 52.40326 
L 371.8656 54.904456 
L 373.6512 65.25621 
L 374.8416 69.649086 
L 375.4368 71.33352 
L 376.032 73.448069 
L 376.6272 74.672346 
L 378.4128 75.771856 
L 380.1984 74.679423 
L 380.7936 73.867867 
L 381.3888 73.523898 
L 382.5792 71.393961 
L 383.1744 68.858084 
L 383.7696 67.84768 
L 384.3648 65.66048 
L 385.5552 59.194662 
L 386.1504 56.139697 
L 386.7456 52.457655 
L 387.936 48.694728 
L 388.5312 48.748101 
L 389.1264 50.589491 
L 389.7216 52.959936 
L 392.1024 69.497599 
L 392.6976 72.123657 
L 393.2928 74.134065 
L 393.888 75.739871 
L 395.6736 79.07916 
L 396.2688 78.749429 
L 396.864 79.385761 
L 397.4592 79.738507 
L 399.2448 80.265876 
L 399.84 80.334162 
L 400.4352 81.047242 
L 401.0304 81.508582 
L 401.6256 81.627377 
L 402.2208 82.061747 
L 402.816 82.657107 
L 403.4112 83.954904 
L 404.0064 84.944301 
L 404.6016 86.852889 
L 405.1968 87.925274 
L 405.792 91.096275 
L 406.3872 93.16297 
L 407.5776 101.099186 
L 409.3632 112.609369 
L 409.9584 114.839251 
L 410.5536 113.833181 
L 411.1488 110.655171 
L 411.744 105.980199 
L 412.9344 93.725538 
L 414.1248 84.879413 
L 414.72 81.503915 
L 414.72 81.503915 
" clip-path="url(#pee7c6ff715)" style="fill: none; stroke: #0000cc; stroke-width: 1.5; stroke-linecap: square"/>
   </g>
   <g id="line2d_14">
    <path d="M 57.6 85.269835 
L 58.790405 87.31613 
L 59.385595 88.715464 
L 59.980809 90.441561 
L 61.171191 95.002382 
L 62.361595 100.945718 
L 63.552 106.960829 
L 64.147191 109.025994 
L 64.742405 109.815402 
L 65.337595 109.031924 
L 65.932809 106.726005 
L 67.123191 99.299506 
L 68.313595 91.642269 
L 68.908809 88.554463 
L 69.504 86.079233 
L 70.099191 84.149894 
L 70.694405 82.73286 
L 71.289595 81.710517 
L 71.884809 80.992047 
L 72.48 80.499918 
L 73.670405 79.962067 
L 74.860809 79.768216 
L 76.646405 79.793374 
L 78.432 80.07607 
L 79.622405 80.447562 
L 80.812809 81.062205 
L 82.003191 82.057588 
L 82.598405 82.795771 
L 83.193595 83.745432 
L 83.788809 84.969066 
L 84.384 86.5433 
L 84.979191 88.561076 
L 85.574405 91.127618 
L 86.169595 94.341653 
L 87.36 102.819587 
L 88.550405 112.272215 
L 89.145595 115.435094 
L 89.740809 116.103421 
L 90.336 113.741851 
L 90.931191 108.786204 
L 92.716809 89.817567 
L 93.312 84.847504 
L 93.907191 80.973521 
L 94.502405 77.977437 
L 95.097595 75.701092 
L 96.288 72.537126 
L 99.859191 65.092877 
L 101.644809 59.957806 
L 102.835191 56.636549 
L 103.430405 55.426234 
L 104.025595 54.744087 
L 104.620809 54.714883 
L 105.216 55.376439 
L 105.811191 56.679145 
L 107.001595 60.425214 
L 108.192 64.415933 
L 109.382405 67.516065 
L 109.977595 68.587481 
L 110.572809 69.332413 
L 111.168 69.766222 
L 111.763191 69.909495 
L 112.358405 69.781144 
L 112.953595 69.39551 
L 113.548809 68.761235 
L 114.144 67.882049 
L 114.739191 66.75962 
L 115.929595 63.813007 
L 118.905595 55.019185 
L 119.500809 54.137071 
L 120.096 53.966996 
L 120.691191 54.578217 
L 121.286405 55.914474 
L 122.476809 60.014421 
L 123.667191 64.46755 
L 124.857595 67.952401 
L 125.452809 69.170882 
L 126.048 70.036761 
L 126.643191 70.572084 
L 127.238405 70.80377 
L 127.833595 70.75614 
L 128.428809 70.447536 
L 129.024 69.887924 
L 129.619191 69.076593 
L 130.214405 68.010909 
L 131.404809 65.120123 
L 132.595191 61.307311 
L 134.380809 55.237046 
L 134.976 53.843539 
L 135.571191 53.15372 
L 136.166405 53.328509 
L 136.761595 54.391087 
L 137.356809 56.210905 
L 140.332809 67.811705 
L 140.928 69.355014 
L 141.523191 70.505249 
L 142.118405 71.293518 
L 142.713595 71.750882 
L 143.308809 71.911932 
L 143.904 71.804059 
L 144.499191 71.445082 
L 145.094405 70.842821 
L 145.689595 69.995338 
L 146.284809 68.892881 
L 147.475191 65.874493 
L 148.665595 61.777435 
L 150.451191 54.853023 
L 151.046405 53.121691 
L 151.641595 52.155114 
L 152.236809 52.17938 
L 152.832 53.259377 
L 153.427191 55.264758 
L 154.617595 60.802254 
L 155.808 66.270273 
L 156.403191 68.474034 
L 156.998405 70.235775 
L 157.593595 71.56406 
L 158.188809 72.49715 
L 158.784 73.083306 
L 159.379191 73.368799 
L 159.974405 73.391226 
L 160.569595 73.17636 
L 161.164809 72.737201 
L 161.76 72.074378 
L 162.355191 71.177496 
L 162.950405 70.027159 
L 163.545595 68.597893 
L 164.736 64.809122 
L 165.926405 59.829371 
L 167.116809 54.418413 
L 167.712 52.212934 
L 168.307191 50.84128 
L 168.902405 50.633215 
L 169.497595 51.724825 
L 170.092809 53.98297 
L 171.283191 60.472719 
L 172.473595 66.895227 
L 173.068809 69.464396 
L 173.664 71.515019 
L 174.259191 73.072941 
L 174.854405 74.197704 
L 175.449595 74.958833 
L 176.044809 75.421438 
L 176.64 75.639533 
L 177.235191 75.674949 
L 177.830405 75.511474 
L 178.425595 75.181678 
L 179.020809 74.684788 
L 179.616 74.008738 
L 180.211191 73.130668 
L 180.806405 72.01748 
L 181.401595 70.627239 
L 181.996809 68.91181 
L 182.592 66.823569 
L 183.782405 61.424265 
L 185.568 51.667712 
L 186.163191 49.258363 
L 186.758405 48.147655 
L 187.353595 48.7228 
L 187.948809 50.994979 
L 189.139191 58.815848 
L 190.329595 67.071391 
L 190.924809 70.414094 
L 191.52 73.098772 
L 192.115191 75.169772 
L 192.710405 76.72122 
L 193.305595 77.861294 
L 193.900809 78.692718 
L 195.091191 79.767095 
L 196.876809 80.775896 
L 198.067191 81.480919 
L 199.257595 82.46883 
L 199.852809 83.14241 
L 200.448 83.984887 
L 201.638382 86.429419 
L 202.233618 88.07472 
L 202.828809 90.137375 
L 203.424 92.68829 
L 204.614382 99.386821 
L 206.4 110.874976 
L 206.995191 112.960293 
L 207.590382 112.967766 
L 208.185618 110.674259 
L 208.780809 106.498768 
L 210.566382 91.004832 
L 211.161618 86.868275 
L 211.756809 83.560993 
L 212.352 81.005885 
L 212.947191 79.062478 
L 213.542382 77.582494 
L 214.732809 75.455387 
L 217.113618 71.778476 
L 218.304 69.154127 
L 219.494382 65.49515 
L 220.684809 60.676188 
L 222.470382 52.944672 
L 223.065618 51.300573 
L 223.660809 50.712423 
L 224.256 51.383588 
L 224.851191 53.271265 
L 226.041618 59.379704 
L 227.232 65.883764 
L 228.422382 70.768946 
L 229.017618 72.459227 
L 229.612809 73.699087 
L 230.208 74.554543 
L 230.803191 75.09102 
L 231.398382 75.364776 
L 231.993618 75.418979 
L 232.588809 75.282169 
L 233.184 74.968997 
L 233.779191 74.481461 
L 234.374382 73.809493 
L 234.969618 72.931684 
L 235.564809 71.817124 
L 236.16 70.42547 
L 237.350382 66.602192 
L 238.540809 61.273763 
L 240.326382 51.77307 
L 240.921618 49.474682 
L 241.516809 48.454182 
L 242.112 49.066738 
L 242.707191 51.309019 
L 243.897618 58.928736 
L 245.088 66.952823 
L 245.683191 70.207091 
L 246.278382 72.824317 
L 246.873618 74.84283 
L 247.468809 76.350083 
L 248.064 77.451102 
L 248.659191 78.261341 
L 249.254382 78.828438 
L 250.444809 79.545922 
L 254.611191 81.312794 
L 255.801618 82.319177 
L 256.396809 83.028893 
L 256.992 83.929881 
L 257.587191 85.075278 
L 258.182382 86.530008 
L 258.777618 88.371373 
L 259.372809 90.685501 
L 259.968 93.554652 
L 261.158382 101.093962 
L 262.348809 109.768358 
L 262.944 113.092167 
L 263.539191 114.528454 
L 264.134382 113.426832 
L 264.729618 109.847976 
L 265.92 98.645227 
L 267.110382 88.031241 
L 267.705618 84.021222 
L 268.300809 80.894056 
L 268.896 78.507444 
L 269.491191 76.686891 
L 270.681618 74.093942 
L 273.062382 69.808688 
L 274.252809 66.946644 
L 275.443191 63.200743 
L 277.824 54.552764 
L 278.419191 53.144119 
L 279.014382 52.538784 
L 279.609618 52.897728 
L 280.204809 54.217234 
L 280.8 56.320343 
L 283.180809 66.691188 
L 283.776 68.663189 
L 284.371191 70.211431 
L 284.966382 71.35512 
L 285.561618 72.127746 
L 286.156809 72.571706 
L 286.752 72.72615 
L 287.347191 72.621191 
L 287.942382 72.275488 
L 288.537618 71.696128 
L 289.132809 70.879197 
L 289.728 69.811629 
L 290.323191 68.474647 
L 291.513618 64.921282 
L 292.704 60.245068 
L 293.894382 55.163491 
L 294.489618 53.038763 
L 295.084809 51.635819 
L 295.68 51.261333 
L 296.275191 52.071947 
L 296.870382 53.980492 
L 298.060809 59.843049 
L 299.251191 65.94724 
L 300.441618 70.494561 
L 301.036809 72.055552 
L 301.632 73.187152 
L 302.227191 73.947634 
L 302.822382 74.394942 
L 303.417618 74.577763 
L 304.012809 74.532352 
L 304.608 74.281095 
L 305.203191 73.832723 
L 305.798382 73.183591 
L 306.393618 72.318008 
L 306.988809 71.210811 
L 307.584 69.828147 
L 308.774382 66.065068 
L 309.964809 60.924352 
L 311.750382 52.146903 
L 312.345618 50.149023 
L 312.940809 49.352882 
L 313.536 50.039022 
L 314.131191 52.175391 
L 315.321618 59.207521 
L 316.512 66.59849 
L 317.107191 69.613165 
L 317.702382 72.043985 
L 318.297618 73.9178 
L 318.892809 75.306907 
L 319.488 76.299141 
L 320.083191 77.003745 
L 320.678382 77.445664 
L 321.273618 77.705632 
L 322.464 77.836405 
L 323.654382 77.587492 
L 324.844809 76.994056 
L 326.035191 75.969051 
L 326.630382 75.234439 
L 327.225618 74.302383 
L 327.820809 73.12296 
L 328.416 71.63471 
L 329.011191 69.766323 
L 329.606382 67.441009 
L 330.201618 64.590421 
L 331.392 57.286702 
L 332.582382 49.215561 
L 333.177618 46.275775 
L 333.772809 45.148876 
L 334.368 46.359681 
L 334.963191 49.797675 
L 337.939191 73.934381 
L 338.534382 76.878172 
L 339.129618 79.126198 
L 339.724809 80.835044 
L 340.915191 83.232332 
L 343.296 87.014295 
L 344.486382 89.566578 
L 345.676809 93.095895 
L 346.867191 97.719713 
L 348.652809 105.197299 
L 349.248 106.858722 
L 349.843191 107.552505 
L 350.438382 107.06904 
L 351.033618 105.419944 
L 351.628809 102.849437 
L 354.009618 90.795921 
L 354.604809 88.61014 
L 355.2 86.909188 
L 355.795191 85.619035 
L 356.390382 84.746801 
L 356.985618 84.203481 
L 357.580809 83.93536 
L 358.176 83.901116 
L 358.771191 84.073448 
L 359.366382 84.438669 
L 359.961618 84.996103 
L 360.556809 85.757111 
L 361.152 86.744102 
L 361.747191 87.988539 
L 362.342382 89.528604 
L 363.532809 93.646077 
L 364.723191 99.193854 
L 365.913618 105.325443 
L 366.508809 107.835479 
L 367.104 109.348217 
L 367.699191 109.453954 
L 368.294382 108.001551 
L 368.889618 105.198504 
L 371.270382 90.371985 
L 371.865618 87.593468 
L 372.460809 85.407069 
L 373.056 83.753545 
L 373.651191 82.545579 
L 374.246382 81.691359 
L 374.841618 81.108574 
L 375.436809 80.729256 
L 376.627191 80.385128 
L 377.817618 80.396357 
L 379.008 80.660291 
L 380.198382 81.160781 
L 381.388809 82.046153 
L 381.984 82.676138 
L 382.579191 83.477457 
L 383.174382 84.497039 
L 383.769618 85.793944 
L 384.364809 87.439362 
L 384.96 89.515711 
L 385.555191 92.109362 
L 386.745618 99.075791 
L 388.531191 111.657087 
L 389.126382 114.118116 
L 389.721618 114.28933 
L 390.316809 111.853456 
L 390.912 107.27255 
L 392.697618 90.319871 
L 393.292809 85.857326 
L 393.888 82.315587 
L 394.483191 79.59054 
L 395.078382 77.517167 
L 395.673618 75.921381 
L 396.864 73.555909 
L 398.649618 70.417715 
L 399.84 67.747808 
L 401.030382 64.227716 
L 404.006382 53.764579 
L 404.601618 52.727933 
L 405.196809 52.592673 
L 405.792 53.442943 
L 406.387191 55.185308 
L 407.577618 60.289404 
L 408.768 65.5539 
L 409.958382 69.492059 
L 410.553618 70.836459 
L 411.148809 71.789747 
L 411.744 72.393161 
L 412.339191 72.688392 
L 412.934382 72.710473 
L 413.529618 72.484012 
L 414.124809 72.021934 
L 414.72 71.325541 
L 414.72 71.325541 
" clip-path="url(#pee7c6ff715)" style="fill: none; stroke-dasharray: 9.6,2.4,1.5,2.4; stroke-dashoffset: 0; stroke: #ff0000; stroke-width: 1.5"/>
   </g>
   <g id="patch_3">
    <path d="M 57.6 119.740235 
L 57.6 41.472 
" style="fill: none; stroke: #000000; stroke-width: 0.8; stroke-linejoin: miter; stroke-linecap: square"/>
   </g>
   <g id="patch_4">
    <path d="M 414.72 119.740235 
L 414.72 41.472 
" style="fill: none; stroke: #000000; stroke-width: 0.8; stroke-linejoin: miter; stroke-linecap: square"/>
   </g>
   <g id="patch_5">
    <path d="M 57.6 119.740235 
L 414.72 119.740235 
" style="fill: none; stroke: #000000; stroke-width: 0.8; stroke-linejoin: miter; stroke-linecap: square"/>
   </g>
   <g id="patch_6">
    <path d="M 57.6 41.472 
L 414.72 41.472 
" style="fill: none; stroke: #000000; stroke-width: 0.8; stroke-linejoin: miter; stroke-linecap: square"/>
   </g>
  </g>
  <g id="axes_2">
   <g id="patch_7">
    <path d="M 57.6 213.662118 
L 414.72 213.662118 
L 414.72 135.393882 
L 57.6 135.393882 
z
" style="fill: #ffffff"/>
   </g>
   <g id="matplotlib.axis_3">
    <g id="xtick_10">
     <g id="line2d_15">
      <g>
       <use xlink:href="#m720207db0d" x="57.6" y="213.662118" style="stroke: #000000; stroke-width: 0.8"/>
      </g>
     </g>
    </g>
    <g id="xtick_11">
     <g id="line2d_16">
      <g>
       <use xlink:href="#m720207db0d" x="105.216" y="213.662118" style="stroke: #000000; stroke-width: 0.8"/>
      </g>
     </g>
    </g>
    <g id="xtick_12">
     <g id="line2d_17">
      <g>
       <use xlink:href="#m720207db0d" x="152.832" y="213.662118" style="stroke: #000000; stroke-width: 0.8"/>
      </g>
     </g>
    </g>
    <g id="xtick_13">
     <g id="line2d_18">
      <g>
       <use xlink:href="#m720207db0d" x="200.448" y="213.662118" style="stroke: #000000; stroke-width: 0.8"/>
      </g>
     </g>
    </g>
    <g id="xtick_14">
     <g id="line2d_19">
      <g>
       <use xlink:href="#m720207db0d" x="248.064" y="213.662118" style="stroke: #000000; stroke-width: 0.8"/>
      </g>
     </g>
    </g>
    <g id="xtick_15">
     <g id="line2d_20">
      <g>
       <use xlink:href="#m720207db0d" x="295.68" y="213.662118" style="stroke: #000000; stroke-width: 0.8"/>
      </g>
     </g>
    </g>
    <g id="xtick_16">
     <g id="line2d_21">
      <g>
       <use xlink:href="#m720207db0d" x="343.296" y="213.662118" style="stroke: #000000; stroke-width: 0.8"/>
      </g>
     </g>
    </g>
    <g id="xtick_17">
     <g id="line2d_22">
      <g>
       <use xlink:href="#m720207db0d" x="390.912" y="213.662118" style="stroke: #000000; stroke-width: 0.8"/>
      </g>
     </g>
    </g>
    <g id="xtick_18">
     <g id="line2d_23">
      <g>
       <use xlink:href="#m720207db0d" x="414.72" y="213.662118" style="stroke: #000000; stroke-width: 0.8"/>
      </g>
     </g>
    </g>
   </g>
   <g id="matplotlib.axis_4">
    <g id="ytick_4">
     <g id="line2d_24">
      <g>
       <use xlink:href="#m3c75400abe" x="57.6" y="203.817339" style="stroke: #000000; stroke-width: 0.8"/>
      </g>
     </g>
     <g id="text_4">
      <!-- −20 -->
      <g transform="translate(29.495313 207.616558) scale(0.1 -0.1)">
       <defs>
        <path id="DejaVuSans-32" d="M 1228 531 
L 3431 531 
L 3431 0 
L 469 0 
L 469 531 
Q 828 903 1448 1529 
Q 2069 2156 2228 2338 
Q 2531 2678 2651 2914 
Q 2772 3150 2772 3378 
Q 2772 3750 2511 3984 
Q 2250 4219 1831 4219 
Q 1534 4219 1204 4116 
Q 875 4013 500 3803 
L 500 4441 
Q 881 4594 1212 4672 
Q 1544 4750 1819 4750 
Q 2544 4750 2975 4387 
Q 3406 4025 3406 3419 
Q 3406 3131 3298 2873 
Q 3191 2616 2906 2266 
Q 2828 2175 2409 1742 
Q 1991 1309 1228 531 
z
" transform="scale(0.015625)"/>
       </defs>
       <use xlink:href="#DejaVuSans-2212"/>
       <use xlink:href="#DejaVuSans-32" x="83.789062"/>
       <use xlink:href="#DejaVuSans-30" x="147.412109"/>
      </g>
     </g>
    </g>
    <g id="ytick_5">
     <g id="line2d_25">
      <g>
       <use xlink:href="#m3c75400abe" x="57.6" y="172.646108" style="stroke: #000000; stroke-width: 0.8"/>
      </g>
     </g>
     <g id="text_5">
      <!-- 0 -->
      <g transform="translate(44.2375 176.445327) scale(0.1 -0.1)">
       <use xlink:href="#DejaVuSans-30"/>
      </g>
     </g>
    </g>
    <g id="ytick_6">
     <g id="line2d_26">
      <g>
       <use xlink:href="#m3c75400abe" x="57.6" y="141.474877" style="stroke: #000000; stroke-width: 0.8"/>
      </g>
     </g>
     <g id="text_6">
      <!-- 20 -->
      <g transform="translate(37.875 145.274096) scale(0.1 -0.1)">
       <use xlink:href="#DejaVuSans-32"/>
       <use xlink:href="#DejaVuSans-30" x="63.623047"/>
      </g>
     </g>
    </g>
   </g>
   <g id="line2d_27">
    <path d="M 57.6 179.426553 
L 58.1952 180.333706 
L 58.7904 182.576639 
L 59.3856 183.940045 
L 59.9808 186.286289 
L 61.1712 192.42339 
L 62.3616 198.473856 
L 62.9568 200.14572 
L 63.552 200.981226 
L 64.1472 199.383059 
L 64.7424 195.669752 
L 66.528 179.435113 
L 67.1232 175.578334 
L 68.3136 171.347895 
L 68.9088 171.128498 
L 69.504 171.027848 
L 70.0992 171.337949 
L 70.6944 171.862165 
L 71.2896 171.521783 
L 72.48 172.537016 
L 74.2656 172.218842 
L 74.8608 172.575696 
L 75.456 173.153651 
L 76.0512 173.431669 
L 76.6464 173.188504 
L 77.2416 173.474517 
L 77.8368 173.488412 
L 78.432 174.257536 
L 79.0272 174.196031 
L 80.8128 175.551293 
L 82.5984 178.510922 
L 83.7888 182.238856 
L 84.384 184.790618 
L 86.1696 197.946839 
L 87.36 207.261875 
L 87.9552 210.104471 
L 88.5504 207.44351 
L 89.1456 200.948507 
L 90.9312 172.405361 
L 91.5264 167.391645 
L 92.1216 164.680147 
L 92.7168 163.617052 
L 93.9072 163.684803 
L 94.5024 164.242794 
L 95.0976 164.189271 
L 96.288 163.705896 
L 96.8832 163.18919 
L 98.0736 161.082486 
L 98.6688 159.379803 
L 99.264 158.270996 
L 99.8592 155.895998 
L 100.4544 154.689755 
L 101.0496 153.105579 
L 101.6448 152.195801 
L 102.24 150.681906 
L 102.8352 151.47068 
L 103.4304 152.601554 
L 104.0256 154.141153 
L 105.216 158.710745 
L 105.8112 161.547126 
L 107.0016 165.763936 
L 107.5968 166.372356 
L 108.192 167.563356 
L 108.7872 167.665005 
L 109.9776 167.305869 
L 110.5728 166.687916 
L 111.168 165.690902 
L 111.7632 165.460335 
L 112.3584 164.688325 
L 115.3344 156.977501 
L 116.5248 153.354523 
L 117.12 150.991856 
L 117.7152 150.429483 
L 118.3104 150.05227 
L 118.9056 150.662327 
L 120.096 155.251085 
L 121.8816 164.301194 
L 122.4768 166.26379 
L 123.072 167.615592 
L 123.6672 167.59242 
L 124.2624 168.931194 
L 126.6432 167.173712 
L 127.2384 166.30527 
L 127.8336 165.234952 
L 128.4288 164.450324 
L 129.024 163.162623 
L 131.4048 156.687184 
L 132.5952 152.062831 
L 133.1904 149.948969 
L 133.7856 149.11486 
L 134.3808 149.414872 
L 134.976 150.351382 
L 135.5712 152.653324 
L 136.7616 158.937496 
L 137.3568 163.034499 
L 137.952 165.594476 
L 139.1424 168.944556 
L 139.7376 169.098142 
L 140.3328 169.678666 
L 140.928 169.284055 
L 141.5232 169.46971 
L 142.1184 168.452002 
L 142.7136 168.123818 
L 143.3088 167.038567 
L 143.904 167.136495 
L 144.4992 165.336494 
L 145.0944 164.210625 
L 146.2848 160.723725 
L 146.88 159.45069 
L 148.0704 154.24727 
L 149.856 148.193785 
L 150.4512 147.481478 
L 151.0464 148.426691 
L 151.6416 150.112589 
L 153.4272 161.97718 
L 154.6176 168.2042 
L 155.808 170.395638 
L 156.4032 171.302649 
L 156.9984 170.892432 
L 157.5936 170.204191 
L 159.3792 168.966208 
L 160.5696 167.343525 
L 161.1648 166.147881 
L 161.76 165.732362 
L 162.3552 164.354959 
L 164.736 156.076119 
L 165.9264 150.096606 
L 166.5216 147.684494 
L 167.1168 146.379117 
L 167.712 145.693115 
L 168.3072 146.924194 
L 168.9024 150.356713 
L 170.688 164.929837 
L 171.2832 168.458251 
L 172.4736 172.54919 
L 173.0688 172.964872 
L 173.664 172.712439 
L 174.2592 172.695716 
L 174.8544 172.442915 
L 175.4496 171.894422 
L 176.0448 172.126256 
L 178.4256 169.629453 
L 179.0208 169.708003 
L 179.616 168.918042 
L 180.2112 167.583438 
L 180.8064 166.693426 
L 181.9968 163.754658 
L 182.592 161.515689 
L 184.3776 152.627587 
L 186.1632 142.498904 
L 186.7584 141.768619 
L 187.3536 142.850156 
L 187.9488 147.832777 
L 189.7344 168.152567 
L 190.3296 172.368052 
L 190.9248 174.799499 
L 191.52 176.096764 
L 192.1152 176.606356 
L 192.7104 176.495513 
L 193.3056 176.254683 
L 193.9008 175.850179 
L 194.496 176.257961 
L 195.0912 175.630255 
L 195.6864 175.682325 
L 196.2816 176.689529 
L 196.8768 176.629878 
L 198.0672 178.323865 
L 198.6624 179.794295 
L 199.2576 180.494539 
L 199.8528 181.953592 
L 202.2336 192.364801 
L 203.424 198.49447 
L 204.0192 201.221081 
L 204.6144 202.125385 
L 205.2096 200.260624 
L 205.8048 196.882298 
L 206.9952 185.133255 
L 207.5904 179.028505 
L 208.1856 174.937337 
L 208.7808 171.958084 
L 209.376 170.813813 
L 210.5664 170.358775 
L 211.1616 170.903437 
L 211.7568 170.815939 
L 212.352 171.003915 
L 212.9472 171.026225 
L 213.5424 170.918088 
L 214.1376 171.354268 
L 214.7328 171.417497 
L 215.328 171.332614 
L 215.9232 171.017166 
L 217.1136 170.126654 
L 217.7088 169.86863 
L 218.304 169.168396 
L 218.8992 169.160751 
L 220.6848 164.776502 
L 221.28 162.875187 
L 222.4704 157.164093 
L 223.0656 152.932651 
L 223.6608 149.499099 
L 224.256 144.353021 
L 224.8512 141.303226 
L 225.4464 138.951529 
L 226.0416 139.765636 
L 226.6368 144.097509 
L 228.4224 169.089892 
L 229.0176 173.894608 
L 229.6128 176.527387 
L 230.208 178.543662 
L 230.8032 179.087541 
L 231.3984 179.045492 
L 232.5888 178.670124 
L 233.184 178.172206 
L 233.7792 178.72166 
L 234.3744 178.838564 
L 235.5648 180.827528 
L 236.7552 183.153408 
L 237.9456 186.497302 
L 239.136 191.263621 
L 240.3264 196.461199 
L 240.9216 197.716755 
L 241.5168 198.104827 
L 242.112 197.107244 
L 242.7072 194.257892 
L 243.3024 190.859537 
L 245.088 178.563304 
L 245.6832 176.523456 
L 246.2784 175.008274 
L 246.8736 173.971016 
L 248.6592 174.856458 
L 249.2544 174.915865 
L 249.8496 175.42859 
L 250.4448 176.655705 
L 251.04 176.750557 
L 251.6352 177.415661 
L 252.2304 178.508674 
L 252.8256 179.992465 
L 253.4208 180.345455 
L 255.2064 186.148427 
L 256.992 194.755853 
L 257.5872 197.648164 
L 258.1824 199.311574 
L 258.7776 200.408133 
L 259.3728 198.958346 
L 259.968 196.044658 
L 262.3488 176.618833 
L 262.944 174.237524 
L 264.1344 171.756823 
L 265.92 172.238113 
L 266.5152 172.543745 
L 267.1104 173.498918 
L 267.7056 173.067561 
L 268.3008 174.037381 
L 268.896 174.724784 
L 269.4912 175.150569 
L 270.0864 174.942307 
L 270.6816 175.853233 
L 271.872 177.105995 
L 273.0624 178.973322 
L 274.2528 182.771644 
L 275.4432 187.838721 
L 277.2288 199.064044 
L 277.824 202.971382 
L 278.4192 204.737558 
L 279.0144 204.131615 
L 279.6096 200.218776 
L 281.9904 173.491194 
L 282.5856 170.261146 
L 283.1808 168.738065 
L 283.776 167.533674 
L 284.3712 167.925365 
L 284.9664 167.77435 
L 286.1568 168.411654 
L 286.752 167.910036 
L 287.3472 167.756556 
L 287.9424 167.20201 
L 288.5376 166.949924 
L 289.1328 166.147029 
L 290.3232 163.857509 
L 292.704 155.542759 
L 293.8944 149.431903 
L 295.0848 145.21642 
L 295.68 145.156225 
L 296.2752 147.07262 
L 296.8704 150.544263 
L 298.656 165.961273 
L 299.2512 169.573031 
L 299.8464 171.720372 
L 300.4416 172.741992 
L 301.632 173.124314 
L 302.2272 172.691203 
L 302.8224 172.757674 
L 303.4176 172.049935 
L 304.0128 171.922895 
L 304.608 171.274621 
L 305.2032 171.142257 
L 305.7984 170.478299 
L 306.3936 170.522418 
L 307.584 168.939671 
L 308.1792 168.599201 
L 308.7744 167.084974 
L 309.3696 166.229556 
L 310.56 163.654057 
L 311.7504 158.546699 
L 314.7264 141.570356 
L 315.3216 140.737355 
L 315.9168 143.399183 
L 316.512 148.909639 
L 318.2976 169.836875 
L 318.8928 173.967993 
L 320.0832 177.194486 
L 320.6784 177.392986 
L 321.2736 177.009163 
L 321.8688 177.128039 
L 323.6544 176.787526 
L 324.2496 176.971336 
L 325.44 178.19169 
L 326.0352 179.478387 
L 326.6304 180.248783 
L 327.2256 181.393261 
L 327.8208 184.105631 
L 328.416 185.870687 
L 329.0112 188.175377 
L 330.7968 196.951477 
L 331.392 199.350768 
L 331.9872 199.921674 
L 332.5824 199.650043 
L 333.1776 197.474569 
L 333.7728 193.09016 
L 334.9632 182.131217 
L 335.5584 177.943146 
L 336.1536 174.897439 
L 336.7488 173.125772 
L 337.344 172.15539 
L 337.9392 172.116518 
L 338.5344 171.774817 
L 339.1296 172.289918 
L 339.7248 172.544769 
L 340.32 172.208041 
L 340.9152 173.146827 
L 341.5104 173.191124 
L 342.1056 173.531267 
L 342.7008 174.201767 
L 343.296 174.317446 
L 343.8912 174.814843 
L 344.4864 174.91474 
L 345.0816 175.824521 
L 345.6768 176.944492 
L 346.272 176.80704 
L 346.8672 178.161654 
L 348.6528 183.909026 
L 349.248 186.823154 
L 349.8432 189.143423 
L 352.224 204.855457 
L 352.8192 204.906698 
L 353.4144 203.314215 
L 354.0096 197.5057 
L 355.2 181.306876 
L 355.7952 174.415036 
L 356.3904 170.264409 
L 357.5808 167.195753 
L 358.7712 167.004323 
L 359.3664 167.367594 
L 361.152 167.236557 
L 362.3424 166.134189 
L 362.9376 165.285316 
L 364.128 162.716783 
L 364.7232 160.81999 
L 365.3184 159.409037 
L 365.9136 157.509626 
L 366.5088 153.712039 
L 367.104 152.081618 
L 367.6992 148.902627 
L 368.2944 147.156651 
L 368.8896 146.252971 
L 369.4848 146.9555 
L 370.08 149.760813 
L 370.6752 153.618485 
L 371.8656 162.629096 
L 372.4608 166.319979 
L 373.056 169.12067 
L 373.6512 170.866367 
L 374.2464 171.589504 
L 374.8416 172.03448 
L 375.4368 171.519199 
L 376.032 171.875229 
L 376.6272 171.017939 
L 377.2224 171.082755 
L 377.8176 170.269613 
L 378.4128 170.015548 
L 379.008 168.864833 
L 379.6032 168.574229 
L 381.984 164.125116 
L 383.1744 159.975908 
L 384.3648 154.678804 
L 386.1504 145.00333 
L 386.7456 143.958189 
L 387.3408 144.089003 
L 387.936 146.828976 
L 390.3168 168.795003 
L 390.912 171.848111 
L 391.5072 173.703921 
L 392.1024 174.706924 
L 393.2928 174.003077 
L 393.888 174.372717 
L 394.4832 174.192087 
L 395.6736 173.353332 
L 396.2688 173.790082 
L 398.0544 174.224716 
L 398.6496 174.118191 
L 399.2448 174.627669 
L 399.84 174.614493 
L 400.4352 174.791717 
L 401.0304 175.44795 
L 401.6256 175.500591 
L 402.2208 176.875287 
L 402.816 177.481314 
L 404.6016 182.503148 
L 405.1968 185.843491 
L 405.792 188.355392 
L 407.5776 200.90388 
L 408.1728 205.158281 
L 408.768 207.090805 
L 409.3632 205.78975 
L 409.9584 200.48788 
L 410.5536 192.707158 
L 411.1488 182.903086 
L 411.744 175.467281 
L 412.3392 170.161235 
L 412.9344 167.297393 
L 413.5296 165.862675 
L 414.72 165.684544 
L 414.72 165.684544 
" clip-path="url(#pd6b4b073e9)" style="fill: none; stroke: #0000cc; stroke-width: 1.5; stroke-linecap: square"/>
   </g>
   <g id="line2d_28">
    <path d="M 57.6 179.451036 
L 58.195191 180.752818 
L 58.790405 182.398302 
L 59.980809 186.710306 
L 61.171191 192.432231 
L 62.361595 198.46117 
L 62.956809 200.536594 
L 63.552 201.077928 
L 64.147191 199.481963 
L 64.742405 195.645866 
L 66.528 179.191756 
L 67.123191 175.381985 
L 67.718405 172.977529 
L 68.313595 171.706969 
L 68.908809 171.205544 
L 69.504 171.15639 
L 70.099191 171.303644 
L 72.48 172.304861 
L 74.265595 172.728937 
L 77.836809 173.422703 
L 79.027191 173.867443 
L 80.217595 174.58869 
L 80.812809 175.109143 
L 81.408 175.780053 
L 82.003191 176.63904 
L 82.598405 177.749519 
L 83.193595 179.185846 
L 83.788809 181.037604 
L 84.384 183.410314 
L 84.979191 186.417522 
L 85.574405 190.155595 
L 86.764809 199.701217 
L 87.36 204.760884 
L 87.955191 208.649568 
L 88.550405 209.616337 
L 89.145595 206.032874 
L 89.740809 197.785133 
L 90.931191 177.061395 
L 91.526405 169.895611 
L 92.121595 165.803859 
L 92.716809 163.972122 
L 93.312 163.439972 
L 95.692809 163.902479 
L 96.288 163.646778 
L 96.883191 163.150119 
L 97.478405 162.411497 
L 98.073595 161.437617 
L 99.264 158.846601 
L 101.644809 152.658895 
L 102.24 151.660374 
L 102.835191 151.288934 
L 103.430405 151.722223 
L 104.025595 153.019901 
L 104.620809 155.070213 
L 106.406405 162.643873 
L 107.001595 164.60578 
L 107.596809 166.028505 
L 108.192 166.926717 
L 108.787191 167.374555 
L 109.382405 167.463262 
L 109.977595 167.275331 
L 110.572809 166.872251 
L 111.168 166.293202 
L 112.358405 164.667988 
L 113.548809 162.402119 
L 114.739191 159.434277 
L 117.715191 151.115623 
L 118.310405 150.498023 
L 118.905595 150.765445 
L 119.500809 152.031233 
L 120.096 154.208437 
L 122.476809 164.975681 
L 123.072 166.602465 
L 123.667191 167.629205 
L 124.262405 168.149889 
L 124.857595 168.277934 
L 125.452809 168.114313 
L 126.048 167.733497 
L 127.238405 166.481976 
L 128.428809 164.639129 
L 129.619191 162.083574 
L 130.809595 158.773403 
L 133.190405 151.063426 
L 133.785595 149.848152 
L 134.380809 149.482453 
L 134.976 150.216345 
L 135.571191 152.112846 
L 136.761595 158.304713 
L 137.952 164.472237 
L 138.547191 166.633757 
L 139.142405 168.072555 
L 139.737595 168.882551 
L 140.332809 169.204986 
L 140.928 169.175529 
L 141.523191 168.896436 
L 142.118405 168.439961 
L 143.308809 167.117961 
L 144.499191 165.251886 
L 145.689595 162.681171 
L 146.88 159.211152 
L 148.665595 152.577294 
L 149.260809 150.461642 
L 149.856 148.855083 
L 150.451191 148.153635 
L 151.046405 148.714224 
L 151.641595 150.688451 
L 152.236809 153.882915 
L 154.022405 165.008584 
L 154.617595 167.518551 
L 155.212809 169.162083 
L 155.808 170.071646 
L 156.403191 170.434179 
L 156.998405 170.422253 
L 157.593595 170.166192 
L 158.784 169.220558 
L 159.974405 167.863664 
L 161.164809 166.015751 
L 162.355191 163.429891 
L 163.545595 159.810967 
L 164.736 155.040425 
L 165.926405 149.751646 
L 166.521595 147.600884 
L 167.116809 146.395248 
L 167.712 146.655435 
L 168.307191 148.692543 
L 168.902405 152.367369 
L 170.688 165.855126 
L 171.283191 168.846894 
L 171.878405 170.749404 
L 172.473595 171.765297 
L 173.068809 172.156904 
L 173.664 172.154323 
L 174.259191 171.924093 
L 175.449595 171.152275 
L 177.235191 169.648355 
L 178.425595 168.269484 
L 179.616 166.30402 
L 180.211191 164.990784 
L 180.806405 163.386872 
L 181.401595 161.437226 
L 182.592 156.337927 
L 184.972809 144.155994 
L 185.568 143.172946 
L 186.163191 144.45044 
L 186.758405 148.251332 
L 189.139191 170.350561 
L 189.734405 173.023621 
L 190.329595 174.428978 
L 190.924809 174.985833 
L 191.52 175.056428 
L 192.710405 174.661889 
L 193.900809 174.280938 
L 195.091191 174.189846 
L 196.281595 174.425668 
L 197.472 175.01448 
L 198.662405 176.054515 
L 199.257595 176.804549 
L 199.852809 177.757935 
L 200.448 178.965406 
L 201.043191 180.42864 
L 201.638382 182.361765 
L 202.233618 184.751491 
L 202.828809 187.66994 
L 204.019191 195.107927 
L 205.209618 203.040034 
L 205.804809 205.398324 
L 206.4 205.117052 
L 206.995191 201.350125 
L 207.590382 194.450948 
L 208.780809 178.474458 
L 209.376 172.836214 
L 209.971191 169.418541 
L 210.566382 167.727995 
L 211.161618 167.114865 
L 211.756809 167.058438 
L 213.542382 167.409802 
L 214.137618 167.29855 
L 214.732809 166.999868 
L 215.328 166.497947 
L 215.923191 165.7787 
L 216.518382 164.824615 
L 217.113618 163.613486 
L 217.708809 162.120746 
L 218.899191 158.216561 
L 221.28 148.336319 
L 221.875191 146.815058 
L 222.470382 146.583617 
L 223.065618 148.03307 
L 223.660809 151.180426 
L 226.041618 167.856252 
L 226.636809 170.070221 
L 227.232 171.336556 
L 227.827191 171.902808 
L 228.422382 172.008529 
L 229.017618 171.837611 
L 230.208 171.100278 
L 231.398382 170.122906 
L 232.588809 168.904443 
L 233.779191 167.246894 
L 234.374382 166.159823 
L 234.969618 164.83854 
L 235.564809 163.230804 
L 236.755191 158.986902 
L 237.945618 153.169054 
L 239.136 146.806053 
L 239.731191 144.449084 
L 240.326382 143.592602 
L 240.921618 144.932228 
L 241.516809 148.68442 
L 243.897618 170.060218 
L 244.492809 172.66272 
L 245.088 174.043464 
L 245.683191 174.597726 
L 246.278382 174.670695 
L 247.468809 174.260774 
L 248.659191 173.832465 
L 249.849618 173.618123 
L 251.04 173.648143 
L 252.230382 173.908849 
L 253.420809 174.43109 
L 254.611191 175.317719 
L 255.206382 175.955971 
L 255.801618 176.771599 
L 256.396809 177.812643 
L 256.992 179.139778 
L 257.587191 180.827656 
L 258.182382 182.963198 
L 258.777618 185.638848 
L 259.372809 188.932325 
L 260.563191 197.345501 
L 261.753618 205.695372 
L 262.348809 207.419183 
L 262.944 205.641874 
L 263.539191 199.790918 
L 265.324809 174.245711 
L 265.92 169.355368 
L 266.515191 166.76365 
L 267.110382 165.70681 
L 267.705618 165.480799 
L 269.491191 165.844461 
L 270.086382 165.739421 
L 270.681618 165.421462 
L 271.276809 164.873611 
L 271.872 164.086027 
L 272.467191 163.034715 
L 273.657618 160.179265 
L 274.848 156.349395 
L 276.633618 150.254679 
L 277.228809 149.035596 
L 277.824 148.790179 
L 278.419191 149.787976 
L 279.014382 152.060243 
L 280.204809 159.011896 
L 281.395191 165.476102 
L 281.990382 167.60865 
L 282.585618 168.961967 
L 283.180809 169.672151 
L 283.776 169.906277 
L 284.371191 169.808965 
L 284.966382 169.492102 
L 286.156809 168.428619 
L 287.347191 166.899192 
L 288.537618 164.791812 
L 289.728 161.863453 
L 290.918382 157.898361 
L 293.299191 148.56111 
L 293.894382 147.326376 
L 294.489618 147.37035 
L 295.084809 148.995853 
L 295.68 152.140857 
L 297.465618 164.631106 
L 298.060809 167.642472 
L 298.656 169.65368 
L 299.251191 170.80036 
L 299.846382 171.303474 
L 300.441618 171.375693 
L 301.036809 171.180161 
L 302.227191 170.370613 
L 303.417618 169.247392 
L 304.608 167.778829 
L 305.798382 165.738857 
L 306.988809 162.795791 
L 308.179191 158.627082 
L 309.369618 153.089536 
L 310.56 147.320339 
L 311.155191 145.341473 
L 311.750382 144.806109 
L 312.345618 146.270893 
L 312.940809 149.840425 
L 314.726382 165.488285 
L 315.321618 169.233948 
L 315.916809 171.651198 
L 316.512 172.967691 
L 317.107191 173.514952 
L 317.702382 173.594121 
L 318.892809 173.14139 
L 321.868809 171.684461 
L 323.654382 170.693629 
L 324.844809 169.692524 
L 325.44 169.007005 
L 326.035191 168.147533 
L 326.630382 167.065202 
L 327.225618 165.70028 
L 327.820809 163.982039 
L 328.416 161.830732 
L 329.011191 159.16625 
L 330.201618 152.131329 
L 331.392 143.757641 
L 331.987191 140.454721 
L 332.582382 139.224959 
L 333.177618 141.263734 
L 333.772809 146.917642 
L 335.558382 170.341133 
L 336.153618 174.864019 
L 336.748809 177.318597 
L 337.344 178.361074 
L 337.939191 178.613824 
L 340.32 178.302028 
L 340.915191 178.540198 
L 341.510382 178.984153 
L 342.105618 179.647643 
L 342.700809 180.545428 
L 343.296 181.695995 
L 344.486382 184.840067 
L 345.676809 189.138157 
L 347.462382 196.330635 
L 348.057618 197.861386 
L 348.652809 198.221544 
L 349.248 197.032735 
L 349.843191 194.235477 
L 352.224 178.261133 
L 352.819191 175.966795 
L 353.414382 174.600169 
L 354.009618 173.945406 
L 354.604809 173.777161 
L 355.2 173.913828 
L 355.795191 174.183517 
L 356.985618 175.100729 
L 358.176 176.287674 
L 359.366382 177.858829 
L 360.556809 180.081482 
L 361.152 181.546761 
L 362.342382 185.421589 
L 363.532809 190.711202 
L 365.318382 199.312967 
L 365.913618 200.739742 
L 366.508809 200.372057 
L 367.104 197.80323 
L 367.699191 193.253825 
L 368.889618 182.071705 
L 369.484809 177.554471 
L 370.08 174.421641 
L 370.675191 172.56903 
L 371.270382 171.67479 
L 371.865618 171.397519 
L 372.460809 171.467021 
L 374.246382 172.283883 
L 376.032 173.009892 
L 378.412809 173.906172 
L 379.603191 174.591817 
L 380.793618 175.620494 
L 381.388809 176.350561 
L 381.984 177.279835 
L 382.579191 178.463396 
L 383.174382 179.969504 
L 383.769618 181.880003 
L 384.364809 184.285778 
L 384.96 187.275596 
L 386.150382 195.132233 
L 387.340809 204.011334 
L 387.936 206.93053 
L 388.531191 207.002124 
L 389.126382 203.102237 
L 389.721618 195.488582 
L 390.912 177.582269 
L 391.507191 171.407974 
L 392.102382 167.785246 
L 392.697618 166.082082 
L 393.292809 165.527716 
L 393.888 165.52557 
L 395.078382 165.832934 
L 395.673618 165.820565 
L 396.268809 165.609066 
L 396.864 165.174391 
L 397.459191 164.504617 
L 398.054382 163.590381 
L 398.649618 162.422785 
L 399.84 159.308945 
L 401.030382 155.28596 
L 402.220809 151.114662 
L 402.816 149.540202 
L 403.411191 148.767169 
L 404.006382 149.120818 
L 404.601618 150.77145 
L 405.196809 153.592062 
L 406.982382 164.103779 
L 407.577618 166.645388 
L 408.172809 168.376977 
L 408.768 169.388731 
L 409.363191 169.840738 
L 409.958382 169.894388 
L 410.553618 169.677676 
L 411.148809 169.277635 
L 412.339191 168.096061 
L 413.529618 166.441126 
L 414.72 164.155037 
L 414.72 164.155037 
" clip-path="url(#pd6b4b073e9)" style="fill: none; stroke-dasharray: 9.6,2.4,1.5,2.4; stroke-dashoffset: 0; stroke: #ff0000; stroke-width: 1.5"/>
   </g>
   <g id="patch_8">
    <path d="M 57.6 213.662118 
L 57.6 135.393882 
" style="fill: none; stroke: #000000; stroke-width: 0.8; stroke-linejoin: miter; stroke-linecap: square"/>
   </g>
   <g id="patch_9">
    <path d="M 414.72 213.662118 
L 414.72 135.393882 
" style="fill: none; stroke: #000000; stroke-width: 0.8; stroke-linejoin: miter; stroke-linecap: square"/>
   </g>
   <g id="patch_10">
    <path d="M 57.6 213.662118 
L 414.72 213.662118 
" style="fill: none; stroke: #000000; stroke-width: 0.8; stroke-linejoin: miter; stroke-linecap: square"/>
   </g>
   <g id="patch_11">
    <path d="M 57.6 135.393882 
L 414.72 135.393882 
" style="fill: none; stroke: #000000; stroke-width: 0.8; stroke-linejoin: miter; stroke-linecap: square"/>
   </g>
  </g>
  <g id="axes_3">
   <g id="patch_12">
    <path d="M 57.6 307.584 
L 414.72 307.584 
L 414.72 229.315765 
L 57.6 229.315765 
z
" style="fill: #ffffff"/>
   </g>
   <g id="matplotlib.axis_5">
    <g id="xtick_19">
     <g id="line2d_29">
      <g>
       <use xlink:href="#m720207db0d" x="57.6" y="307.584" style="stroke: #000000; stroke-width: 0.8"/>
      </g>
     </g>
     <g id="text_7">
      <!-- 10 -->
      <g transform="translate(51.2375 322.182437) scale(0.1 -0.1)">
       <use xlink:href="#DejaVuSans-31"/>
       <use xlink:href="#DejaVuSans-30" x="63.623047"/>
      </g>
     </g>
    </g>
    <g id="xtick_20">
     <g id="line2d_30">
      <g>
       <use xlink:href="#m720207db0d" x="105.216" y="307.584" style="stroke: #000000; stroke-width: 0.8"/>
      </g>
     </g>
     <g id="text_8">
      <!-- 12 -->
      <g transform="translate(98.8535 322.182437) scale(0.1 -0.1)">
       <use xlink:href="#DejaVuSans-31"/>
       <use xlink:href="#DejaVuSans-32" x="63.623047"/>
      </g>
     </g>
    </g>
    <g id="xtick_21">
     <g id="line2d_31">
      <g>
       <use xlink:href="#m720207db0d" x="152.832" y="307.584" style="stroke: #000000; stroke-width: 0.8"/>
      </g>
     </g>
     <g id="text_9">
      <!-- 14 -->
      <g transform="translate(146.4695 322.182437) scale(0.1 -0.1)">
       <defs>
        <path id="DejaVuSans-34" d="M 2419 4116 
L 825 1625 
L 2419 1625 
L 2419 4116 
z
M 2253 4666 
L 3047 4666 
L 3047 1625 
L 3713 1625 
L 3713 1100 
L 3047 1100 
L 3047 0 
L 2419 0 
L 2419 1100 
L 313 1100 
L 313 1709 
L 2253 4666 
z
" transform="scale(0.015625)"/>
       </defs>
       <use xlink:href="#DejaVuSans-31"/>
       <use xlink:href="#DejaVuSans-34" x="63.623047"/>
      </g>
     </g>
    </g>
    <g id="xtick_22">
     <g id="line2d_32">
      <g>
       <use xlink:href="#m720207db0d" x="200.448" y="307.584" style="stroke: #000000; stroke-width: 0.8"/>
      </g>
     </g>
     <g id="text_10">
      <!-- 16 -->
      <g transform="translate(194.0855 322.182437) scale(0.1 -0.1)">
       <defs>
        <path id="DejaVuSans-36" d="M 2113 2584 
Q 1688 2584 1439 2293 
Q 1191 2003 1191 1497 
Q 1191 994 1439 701 
Q 1688 409 2113 409 
Q 2538 409 2786 701 
Q 3034 994 3034 1497 
Q 3034 2003 2786 2293 
Q 2538 2584 2113 2584 
z
M 3366 4563 
L 3366 3988 
Q 3128 4100 2886 4159 
Q 2644 4219 2406 4219 
Q 1781 4219 1451 3797 
Q 1122 3375 1075 2522 
Q 1259 2794 1537 2939 
Q 1816 3084 2150 3084 
Q 2853 3084 3261 2657 
Q 3669 2231 3669 1497 
Q 3669 778 3244 343 
Q 2819 -91 2113 -91 
Q 1303 -91 875 529 
Q 447 1150 447 2328 
Q 447 3434 972 4092 
Q 1497 4750 2381 4750 
Q 2619 4750 2861 4703 
Q 3103 4656 3366 4563 
z
" transform="scale(0.015625)"/>
       </defs>
       <use xlink:href="#DejaVuSans-31"/>
       <use xlink:href="#DejaVuSans-36" x="63.623047"/>
      </g>
     </g>
    </g>
    <g id="xtick_23">
     <g id="line2d_33">
      <g>
       <use xlink:href="#m720207db0d" x="248.064" y="307.584" style="stroke: #000000; stroke-width: 0.8"/>
      </g>
     </g>
     <g id="text_11">
      <!-- 18 -->
      <g transform="translate(241.7015 322.182437) scale(0.1 -0.1)">
       <defs>
        <path id="DejaVuSans-38" d="M 2034 2216 
Q 1584 2216 1326 1975 
Q 1069 1734 1069 1313 
Q 1069 891 1326 650 
Q 1584 409 2034 409 
Q 2484 409 2743 651 
Q 3003 894 3003 1313 
Q 3003 1734 2745 1975 
Q 2488 2216 2034 2216 
z
M 1403 2484 
Q 997 2584 770 2862 
Q 544 3141 544 3541 
Q 544 4100 942 4425 
Q 1341 4750 2034 4750 
Q 2731 4750 3128 4425 
Q 3525 4100 3525 3541 
Q 3525 3141 3298 2862 
Q 3072 2584 2669 2484 
Q 3125 2378 3379 2068 
Q 3634 1759 3634 1313 
Q 3634 634 3220 271 
Q 2806 -91 2034 -91 
Q 1263 -91 848 271 
Q 434 634 434 1313 
Q 434 1759 690 2068 
Q 947 2378 1403 2484 
z
M 1172 3481 
Q 1172 3119 1398 2916 
Q 1625 2713 2034 2713 
Q 2441 2713 2670 2916 
Q 2900 3119 2900 3481 
Q 2900 3844 2670 4047 
Q 2441 4250 2034 4250 
Q 1625 4250 1398 4047 
Q 1172 3844 1172 3481 
z
" transform="scale(0.015625)"/>
       </defs>
       <use xlink:href="#DejaVuSans-31"/>
       <use xlink:href="#DejaVuSans-38" x="63.623047"/>
      </g>
     </g>
    </g>
    <g id="xtick_24">
     <g id="line2d_34">
      <g>
       <use xlink:href="#m720207db0d" x="295.68" y="307.584" style="stroke: #000000; stroke-width: 0.8"/>
      </g>
     </g>
     <g id="text_12">
      <!-- 20 -->
      <g transform="translate(289.3175 322.182437) scale(0.1 -0.1)">
       <use xlink:href="#DejaVuSans-32"/>
       <use xlink:href="#DejaVuSans-30" x="63.623047"/>
      </g>
     </g>
    </g>
    <g id="xtick_25">
     <g id="line2d_35">
      <g>
       <use xlink:href="#m720207db0d" x="343.296" y="307.584" style="stroke: #000000; stroke-width: 0.8"/>
      </g>
     </g>
     <g id="text_13">
      <!-- 22 -->
      <g transform="translate(336.9335 322.182437) scale(0.1 -0.1)">
       <use xlink:href="#DejaVuSans-32"/>
       <use xlink:href="#DejaVuSans-32" x="63.623047"/>
      </g>
     </g>
    </g>
    <g id="xtick_26">
     <g id="line2d_36">
      <g>
       <use xlink:href="#m720207db0d" x="390.912" y="307.584" style="stroke: #000000; stroke-width: 0.8"/>
      </g>
     </g>
     <g id="text_14">
      <!-- 24 -->
      <g transform="translate(384.5495 322.182437) scale(0.1 -0.1)">
       <use xlink:href="#DejaVuSans-32"/>
       <use xlink:href="#DejaVuSans-34" x="63.623047"/>
      </g>
     </g>
    </g>
    <g id="xtick_27">
     <g id="line2d_37">
      <g>
       <use xlink:href="#m720207db0d" x="414.72" y="307.584" style="stroke: #000000; stroke-width: 0.8"/>
      </g>
     </g>
     <g id="text_15">
      <!-- 25 -->
      <g transform="translate(408.3575 322.182437) scale(0.1 -0.1)">
       <defs>
        <path id="DejaVuSans-35" d="M 691 4666 
L 3169 4666 
L 3169 4134 
L 1269 4134 
L 1269 2991 
Q 1406 3038 1543 3061 
Q 1681 3084 1819 3084 
Q 2600 3084 3056 2656 
Q 3513 2228 3513 1497 
Q 3513 744 3044 326 
Q 2575 -91 1722 -91 
Q 1428 -91 1123 -41 
Q 819 9 494 109 
L 494 744 
Q 775 591 1075 516 
Q 1375 441 1709 441 
Q 2250 441 2565 725 
Q 2881 1009 2881 1497 
Q 2881 1984 2565 2268 
Q 2250 2553 1709 2553 
Q 1456 2553 1204 2497 
Q 953 2441 691 2322 
L 691 4666 
z
" transform="scale(0.015625)"/>
       </defs>
       <use xlink:href="#DejaVuSans-32"/>
       <use xlink:href="#DejaVuSans-35" x="63.623047"/>
      </g>
     </g>
    </g>
   </g>
   <g id="matplotlib.axis_6">
    <g id="ytick_7">
     <g id="line2d_38">
      <g>
       <use xlink:href="#m3c75400abe" x="57.6" y="278.226948" style="stroke: #000000; stroke-width: 0.8"/>
      </g>
     </g>
     <g id="text_16">
      <!-- 20 -->
      <g transform="translate(37.875 282.026167) scale(0.1 -0.1)">
       <use xlink:href="#DejaVuSans-32"/>
       <use xlink:href="#DejaVuSans-30" x="63.623047"/>
      </g>
     </g>
    </g>
    <g id="ytick_8">
     <g id="line2d_39">
      <g>
       <use xlink:href="#m3c75400abe" x="57.6" y="240.816916" style="stroke: #000000; stroke-width: 0.8"/>
      </g>
     </g>
     <g id="text_17">
      <!-- 40 -->
      <g transform="translate(37.875 244.616135) scale(0.1 -0.1)">
       <use xlink:href="#DejaVuSans-34"/>
       <use xlink:href="#DejaVuSans-30" x="63.623047"/>
      </g>
     </g>
    </g>
   </g>
   <g id="line2d_40">
    <path d="M 57.6 286.789321 
L 58.1952 287.965522 
L 58.7904 288.460146 
L 59.9808 289.124255 
L 60.576 288.434616 
L 61.1712 286.287794 
L 61.7664 283.316884 
L 62.3616 278.268886 
L 63.552 264.067216 
L 64.7424 249.643763 
L 65.3376 244.922513 
L 65.9328 243.595652 
L 66.528 245.516769 
L 67.1232 248.261204 
L 67.7184 252.002216 
L 69.504 264.649461 
L 71.2896 273.679746 
L 73.6704 283.854888 
L 74.8608 287.804351 
L 77.2416 293.965169 
L 77.8368 294.866861 
L 79.0272 297.869425 
L 79.6224 299.11957 
L 80.2176 299.59669 
L 81.408 301.571762 
L 82.0032 303.063255 
L 82.5984 302.991366 
L 83.1936 303.779827 
L 83.7888 303.476672 
L 84.384 303.018412 
L 84.9792 302.375363 
L 85.5744 299.81993 
L 86.1696 295.721012 
L 86.7648 289.292727 
L 87.36 279.592075 
L 87.9552 267.915456 
L 89.1456 241.393746 
L 89.7408 234.664454 
L 90.336 233.676932 
L 90.9312 237.241322 
L 92.7168 254.548258 
L 93.9072 263.15441 
L 95.0976 269.328958 
L 95.6928 271.679125 
L 96.288 273.513983 
L 96.8832 274.546889 
L 97.4784 276.287612 
L 98.0736 277.510505 
L 98.6688 277.6889 
L 99.264 277.611646 
L 99.8592 277.191728 
L 100.4544 275.862527 
L 101.6448 270.918232 
L 102.24 267.536297 
L 103.4304 259.602846 
L 104.0256 255.906796 
L 105.216 253.433319 
L 105.8112 253.05517 
L 106.4064 254.166493 
L 107.0016 257.175412 
L 107.5968 258.543052 
L 108.192 260.701716 
L 108.7872 264.16892 
L 109.9776 268.394528 
L 111.168 272.814884 
L 112.3584 276.484468 
L 112.9536 277.586867 
L 113.5488 279.14865 
L 114.144 279.101246 
L 114.7392 279.517812 
L 115.3344 279.031447 
L 115.9296 278.384371 
L 116.5248 275.123458 
L 117.12 272.889161 
L 120.096 253.428528 
L 121.2864 251.988643 
L 122.4768 254.834263 
L 123.6672 259.879228 
L 124.8576 266.078872 
L 127.8336 277.383365 
L 128.4288 278.436298 
L 129.024 279.936939 
L 129.6192 280.841509 
L 130.2144 281.429917 
L 130.8096 281.001695 
L 131.4048 279.859396 
L 132 279.320869 
L 133.1904 272.911733 
L 135.5712 254.541596 
L 136.1664 251.708275 
L 136.7616 250.163255 
L 137.3568 250.746767 
L 138.5472 254.31438 
L 139.7376 260.854173 
L 142.7136 274.818783 
L 143.3088 276.29488 
L 145.0944 281.705751 
L 145.6896 282.859204 
L 146.2848 283.336926 
L 146.88 283.573351 
L 147.4752 283.166101 
L 148.6656 279.544256 
L 149.2608 276.191556 
L 150.4512 266.121773 
L 151.6416 255.076014 
L 152.2368 250.40896 
L 152.832 249.201552 
L 153.4272 248.634235 
L 154.0224 250.486607 
L 154.6176 252.898383 
L 158.1888 271.471965 
L 158.784 274.533443 
L 159.3792 276.523381 
L 159.9744 279.026629 
L 162.3552 285.961491 
L 163.5456 287.273819 
L 164.736 286.571156 
L 165.9264 281.670187 
L 166.5216 277.26064 
L 167.712 264.529398 
L 168.3072 257.278079 
L 168.9024 251.623325 
L 169.4976 247.35884 
L 170.0928 245.462326 
L 170.688 246.010857 
L 172.4736 256.137056 
L 173.0688 260.595303 
L 173.664 263.476674 
L 174.2592 267.414079 
L 175.4496 273.181917 
L 177.8304 283.450037 
L 178.4256 284.778253 
L 179.616 288.459783 
L 180.2112 289.90129 
L 180.8064 291.043327 
L 181.4016 291.878195 
L 181.9968 293.357407 
L 182.592 293.350648 
L 183.1872 293.172198 
L 183.7824 292.345109 
L 184.3776 290.141432 
L 184.9728 286.42497 
L 185.568 281.929482 
L 186.1632 274.451331 
L 187.9488 247.680431 
L 188.544 242.09959 
L 189.1392 241.129452 
L 189.7344 241.716343 
L 190.3296 245.491218 
L 190.9248 251.048337 
L 192.7104 264.46969 
L 193.9008 270.317583 
L 194.496 273.957927 
L 195.0912 276.55307 
L 196.2816 280.657639 
L 196.8768 283.373544 
L 197.472 285.083994 
L 198.0672 286.081035 
L 198.6624 287.973191 
L 199.8528 290.25908 
L 200.448 289.976908 
L 201.0432 290.16052 
L 201.6384 289.63707 
L 202.2336 287.766839 
L 202.8288 284.471307 
L 203.424 279.622417 
L 204.0192 273.374939 
L 205.8048 249.71795 
L 206.4 244.217035 
L 206.9952 242.773704 
L 207.5904 244.271273 
L 208.1856 247.240465 
L 208.7808 252.192229 
L 212.352 273.585467 
L 212.9472 276.303511 
L 213.5424 278.49273 
L 214.1376 281.234961 
L 214.7328 283.078912 
L 215.9232 287.920544 
L 216.5184 289.504866 
L 217.1136 290.408376 
L 217.7088 292.201402 
L 218.304 293.388651 
L 218.8992 295.152585 
L 220.0896 296.910045 
L 220.6848 297.1053 
L 221.28 297.866245 
L 222.4704 297.506105 
L 223.0656 295.199892 
L 223.6608 291.820102 
L 224.256 286.668621 
L 224.8512 278.973649 
L 226.0416 257.512537 
L 226.6368 246.296943 
L 227.232 239.834935 
L 227.8272 237.199376 
L 228.4224 238.945805 
L 229.0176 243.020875 
L 230.208 253.977049 
L 231.9936 266.795896 
L 232.5888 269.124532 
L 233.184 272.204573 
L 234.9696 279.020687 
L 235.5648 281.22575 
L 236.16 281.78766 
L 236.7552 283.352238 
L 237.3504 283.614225 
L 237.9456 284.111381 
L 238.5408 283.61159 
L 239.7312 279.265036 
L 240.9216 270.578778 
L 241.5168 265.193206 
L 242.7072 253.409215 
L 243.3024 249.530701 
L 244.4928 248.585141 
L 245.6832 253.299656 
L 246.2784 256.349471 
L 247.4688 263.300214 
L 248.064 266.770211 
L 250.4448 277.746912 
L 251.6352 281.575196 
L 253.4208 286.40401 
L 254.6112 287.38491 
L 255.2064 287.583003 
L 255.8016 286.952608 
L 256.992 282.691549 
L 257.5872 277.68134 
L 258.7776 264.798995 
L 259.968 251.498234 
L 260.5632 246.646096 
L 261.1584 245.282046 
L 261.7536 245.942929 
L 262.3488 248.229495 
L 264.7296 263.669163 
L 265.3248 266.701443 
L 265.92 270.500005 
L 268.3008 280.501827 
L 268.896 282.322223 
L 269.4912 285.059581 
L 271.2768 290.759657 
L 271.872 291.335782 
L 272.4672 293.078237 
L 273.0624 294.272764 
L 273.6576 294.018035 
L 274.2528 295.095344 
L 274.848 295.539116 
L 275.4432 295.108317 
L 276.6336 289.895559 
L 277.2288 285.197586 
L 277.824 278.298688 
L 278.4192 269.722351 
L 279.6096 249.389203 
L 280.2048 242.015313 
L 280.8 239.015767 
L 281.3952 240.201635 
L 281.9904 243.174256 
L 283.776 258.334512 
L 284.3712 262.928111 
L 286.752 275.180345 
L 287.3472 277.227369 
L 287.9424 280.046589 
L 288.5376 281.546249 
L 289.1328 283.594331 
L 289.728 285.097822 
L 290.9184 287.249739 
L 292.704 286.41574 
L 293.2992 283.861143 
L 293.8944 280.600712 
L 294.4896 276.189204 
L 296.8704 250.062976 
L 297.4656 245.972127 
L 298.0608 244.600779 
L 298.656 246.516769 
L 299.8464 253.351315 
L 300.4416 257.44773 
L 301.0368 260.697826 
L 302.2272 267.832474 
L 302.8224 270.549174 
L 303.4176 274.371421 
L 304.608 279.13046 
L 305.2032 280.903512 
L 305.7984 283.993427 
L 309.3696 293.287105 
L 309.9648 294.188344 
L 310.56 294.425401 
L 311.1552 295.387296 
L 311.7504 295.112998 
L 312.3456 293.638304 
L 312.9408 291.159556 
L 313.536 287.292728 
L 314.1312 280.899024 
L 314.7264 273.045515 
L 316.512 244.342269 
L 317.1072 240.036366 
L 317.7024 239.702809 
L 318.2976 242.109443 
L 319.488 251.905891 
L 321.8688 269.041444 
L 322.464 270.949441 
L 323.0592 274.50893 
L 324.2496 278.997898 
L 324.8448 280.462068 
L 325.44 283.518645 
L 326.0352 284.478214 
L 326.6304 286.330462 
L 327.2256 287.698503 
L 327.8208 287.454412 
L 328.416 288.518956 
L 329.6064 286.214198 
L 330.2016 284.332883 
L 331.392 275.226851 
L 331.9872 268.554989 
L 333.1776 252.764718 
L 333.7728 247.714046 
L 334.368 244.370575 
L 334.9632 244.71147 
L 336.1536 250.366697 
L 336.7488 254.831954 
L 340.32 274.677649 
L 340.9152 277.675526 
L 341.5104 279.474835 
L 342.7008 284.219233 
L 343.296 286.039608 
L 343.8912 288.586286 
L 344.4864 289.703036 
L 346.272 294.154155 
L 346.8672 295.456149 
L 348.0576 296.732824 
L 348.6528 296.820549 
L 349.248 296.089951 
L 349.8432 295.705422 
L 350.4384 292.909086 
L 351.0336 288.523706 
L 351.6288 282.933155 
L 352.224 274.24463 
L 354.0096 243.282928 
L 354.6048 238.735609 
L 355.2 237.780433 
L 355.7952 241.080619 
L 357.5808 256.236405 
L 359.9616 271.067411 
L 360.5568 273.75894 
L 361.152 275.670385 
L 361.7472 278.704813 
L 362.3424 280.470485 
L 364.128 284.390037 
L 364.7232 284.367271 
L 365.3184 285.342465 
L 365.9136 284.785243 
L 366.5088 283.820844 
L 367.104 280.991235 
L 367.6992 277.269404 
L 368.8896 266.170941 
L 370.08 253.605563 
L 370.6752 248.784781 
L 371.2704 246.940965 
L 371.8656 246.988131 
L 372.4608 248.541036 
L 373.6512 255.460258 
L 376.032 269.566391 
L 376.6272 271.726598 
L 377.2224 274.954556 
L 378.4128 279.190897 
L 379.008 281.145553 
L 379.6032 283.91391 
L 380.7936 287.549192 
L 381.984 289.942858 
L 382.5792 290.343816 
L 383.1744 289.813193 
L 383.7696 290.314254 
L 384.3648 288.185294 
L 384.96 285.600783 
L 385.5552 282.001967 
L 386.7456 269.548608 
L 387.936 252.550275 
L 388.5312 246.341914 
L 389.1264 243.082852 
L 389.7216 243.420622 
L 390.3168 245.639705 
L 391.5072 253.607627 
L 392.6976 262.478222 
L 396.2688 280.350733 
L 397.4592 284.538461 
L 398.0544 286.044281 
L 398.6496 288.09899 
L 399.2448 290.783911 
L 399.84 291.705754 
L 402.2208 297.099165 
L 402.816 298.025301 
L 404.0064 299.012998 
L 404.6016 300.074534 
L 405.1968 299.174886 
L 405.792 298.678739 
L 406.3872 296.78894 
L 406.9824 293.166273 
L 407.5776 287.149672 
L 408.1728 279.024504 
L 410.5536 237.407467 
L 411.1488 235.448848 
L 411.744 238.4229 
L 414.1248 259.286866 
L 414.72 262.991049 
L 414.72 262.991049 
" clip-path="url(#pcefc11a4c0)" style="fill: none; stroke: #0000cc; stroke-width: 1.5; stroke-linecap: square"/>
   </g>
   <g id="line2d_41">
    <path d="M 57.6 286.720726 
L 58.195191 287.936159 
L 58.790405 288.792878 
L 59.385595 289.216465 
L 59.980809 289.066823 
L 60.576 288.149486 
L 61.171191 286.213346 
L 61.766405 282.97371 
L 62.361595 278.186563 
L 62.956809 271.799017 
L 64.742405 249.444951 
L 65.337595 245.069839 
L 65.932809 243.734254 
L 66.528 245.096227 
L 67.123191 248.237109 
L 70.099191 267.531292 
L 71.289595 273.635084 
L 72.48 278.901182 
L 74.265595 285.560038 
L 76.051191 291.005128 
L 77.836809 295.456384 
L 79.622405 299.07435 
L 80.812809 301.065009 
L 82.003191 302.672556 
L 82.598405 303.311967 
L 83.193595 303.786537 
L 83.788809 304.026353 
L 84.384 303.914152 
L 84.979191 303.257914 
L 85.574405 301.751501 
L 86.169595 298.930559 
L 86.764809 294.153504 
L 87.36 286.68735 
L 87.955191 276.044249 
L 89.740809 237.848921 
L 90.336 232.873412 
L 90.931191 234.012725 
L 91.526405 239.027008 
L 92.716809 251.333664 
L 93.907191 260.730357 
L 95.097595 267.268169 
L 96.288 272.013962 
L 97.478405 275.361682 
L 98.073595 276.493802 
L 98.668809 277.211615 
L 99.264 277.452528 
L 99.859191 277.140885 
L 100.454405 276.19518 
L 101.049595 274.546562 
L 101.644809 272.167006 
L 102.835191 265.552862 
L 104.025595 258.332508 
L 104.620809 255.558286 
L 105.216 253.83925 
L 105.811191 253.343169 
L 106.406405 253.928975 
L 107.001595 255.389524 
L 108.192 259.822677 
L 110.572809 269.608232 
L 111.763191 273.677349 
L 112.953595 276.809188 
L 113.548809 277.922914 
L 114.144 278.659359 
L 114.739191 278.942649 
L 115.334405 278.681605 
L 115.929595 277.774842 
L 116.524809 276.125964 
L 117.12 273.672942 
L 117.715191 270.434758 
L 120.096 255.073612 
L 120.691191 252.945687 
L 121.286405 252.181038 
L 121.881595 252.705132 
L 122.476809 254.245904 
L 123.667191 259.045983 
L 126.048 269.602512 
L 127.238405 274.026846 
L 128.428809 277.557391 
L 129.024 278.905181 
L 129.619191 279.851665 
L 130.214405 280.437762 
L 130.809595 280.515729 
L 131.404809 279.974199 
L 132 278.690595 
L 132.595191 276.55131 
L 133.190405 273.492949 
L 134.380809 265.003278 
L 135.571191 255.97923 
L 136.166405 252.771211 
L 136.761595 251.066376 
L 137.356809 250.938281 
L 137.952 252.153513 
L 138.547191 254.312453 
L 140.332809 262.909332 
L 142.118405 271.103686 
L 143.308809 275.654854 
L 144.499191 279.311668 
L 145.094405 280.733811 
L 145.689595 281.821283 
L 146.284809 282.502444 
L 146.88 282.680174 
L 147.475191 282.229464 
L 148.070405 281.001439 
L 148.665595 278.840571 
L 149.260809 275.627642 
L 149.856 271.35441 
L 152.236809 251.614471 
L 152.832 249.41681 
L 153.427191 249.130046 
L 154.022405 250.448473 
L 154.617595 252.872284 
L 158.784 273.809194 
L 159.974405 278.35884 
L 161.164809 282.045886 
L 161.76 283.507544 
L 162.355191 284.655472 
L 162.950405 285.418286 
L 163.545595 285.694168 
L 164.140809 285.344077 
L 164.736 284.189479 
L 165.331191 282.010644 
L 165.926405 278.635455 
L 166.521595 273.946098 
L 167.712 261.50057 
L 168.307191 255.13861 
L 168.902405 250.070689 
L 169.497595 247.150501 
L 170.092809 246.629822 
L 170.688 248.136512 
L 171.283191 250.975339 
L 174.854405 271.341125 
L 176.044809 276.687552 
L 177.235191 281.284027 
L 178.425595 285.181816 
L 179.616 288.294476 
L 180.211191 289.489213 
L 180.806405 290.370216 
L 181.401595 290.84523 
L 181.996809 290.777312 
L 182.592 289.970384 
L 183.187191 288.161532 
L 183.782405 285.034281 
L 184.377595 280.281552 
L 184.972809 273.758964 
L 186.758405 249.44182 
L 187.353595 244.270201 
L 187.948809 242.436306 
L 188.544 243.658232 
L 189.139191 246.908121 
L 191.52 263.547104 
L 192.710405 270.305568 
L 193.900809 276.036826 
L 195.091191 280.979631 
L 196.281595 285.267803 
L 197.472 288.97549 
L 198.662405 292.132439 
L 199.852809 294.698639 
L 200.448 295.710336 
L 201.043191 296.401891 
L 201.638382 296.852047 
L 202.233618 296.854451 
L 202.828809 296.208239 
L 203.424 294.618295 
L 204.019191 291.682745 
L 204.614382 286.919055 
L 205.209618 279.893845 
L 206.4 259.631544 
L 206.995191 249.050295 
L 207.590382 241.261174 
L 208.185618 237.946809 
L 208.780809 239.006695 
L 209.376 242.947455 
L 211.161618 257.9707 
L 212.352 265.812211 
L 213.542382 272.008235 
L 214.732809 277.021325 
L 215.923191 281.027287 
L 217.113618 283.922918 
L 217.708809 284.844464 
L 218.304 285.306965 
L 218.899191 285.186945 
L 219.494382 284.322021 
L 220.089618 282.516489 
L 220.684809 279.570657 
L 221.28 275.347941 
L 222.470382 263.570684 
L 223.660809 251.661257 
L 224.256 248.062285 
L 224.851191 246.80398 
L 225.446382 247.701245 
L 226.041618 250.141813 
L 227.232 257.046144 
L 229.017618 267.354491 
L 230.208 273.202009 
L 231.398382 278.260358 
L 232.588809 282.586428 
L 233.779191 286.160408 
L 234.969618 288.832209 
L 235.564809 289.716774 
L 236.16 290.187132 
L 236.755191 290.094164 
L 237.350382 289.265923 
L 237.945618 287.438108 
L 238.540809 284.306049 
L 239.136 279.586096 
L 239.731191 273.164393 
L 241.516809 249.623968 
L 242.112 244.695592 
L 242.707191 242.975124 
L 243.302382 244.181824 
L 243.897618 247.347389 
L 246.873618 267.166509 
L 248.064 273.349429 
L 249.254382 278.658527 
L 250.444809 283.275001 
L 251.635191 287.299918 
L 252.825618 290.804725 
L 254.016 293.836457 
L 255.206382 296.407622 
L 256.396809 298.458946 
L 256.992 299.228446 
L 257.587191 299.755702 
L 258.182382 299.942175 
L 258.777618 299.628791 
L 259.372809 298.568359 
L 259.968 296.392663 
L 260.563191 292.558936 
L 261.158382 286.543477 
L 261.753618 277.863549 
L 263.539191 243.514297 
L 264.134382 236.956886 
L 264.729618 235.780068 
L 265.324809 238.876055 
L 267.705618 259.62465 
L 268.896 266.923701 
L 270.086382 272.510915 
L 271.276809 276.846154 
L 272.467191 279.972021 
L 273.062382 280.979223 
L 273.657618 281.536934 
L 274.252809 281.54745 
L 274.848 280.888721 
L 275.443191 279.422799 
L 276.038382 277.020236 
L 276.633618 273.610988 
L 277.824 264.255205 
L 279.014382 254.6286 
L 279.609618 251.42378 
L 280.204809 249.932349 
L 280.8 250.152516 
L 281.395191 251.748568 
L 282.585618 257.214841 
L 284.966382 269.238324 
L 286.156809 274.306735 
L 287.347191 278.563252 
L 288.537618 281.872193 
L 289.132809 283.083753 
L 289.728 283.918929 
L 290.323191 284.284968 
L 290.918382 284.05699 
L 291.513618 283.076424 
L 292.108809 281.161162 
L 292.704 278.138821 
L 293.299191 273.917344 
L 294.489618 262.584303 
L 295.68 251.71768 
L 296.275191 248.629779 
L 296.870382 247.706302 
L 297.465618 248.728894 
L 298.060809 251.131263 
L 299.846382 261.224452 
L 301.632 270.631698 
L 302.822382 275.90838 
L 304.012809 280.41657 
L 305.203191 284.124872 
L 306.393618 286.867794 
L 306.988809 287.758856 
L 307.584 288.214935 
L 308.179191 288.105782 
L 308.774382 287.235197 
L 309.369618 285.376405 
L 309.964809 282.266476 
L 310.56 277.684956 
L 311.155191 271.59556 
L 312.940809 250.263419 
L 313.536 245.969846 
L 314.131191 244.520129 
L 314.726382 245.65344 
L 315.321618 248.551189 
L 318.892809 270.518249 
L 320.083191 276.150473 
L 321.273618 281.056094 
L 322.464 285.329495 
L 323.654382 289.039969 
L 324.844809 292.222058 
L 326.035191 294.854933 
L 327.225618 296.797051 
L 327.820809 297.394005 
L 328.416 297.617015 
L 329.011191 297.303425 
L 329.606382 296.206002 
L 330.201618 293.968113 
L 330.796809 290.122005 
L 331.392 284.158351 
L 331.987191 275.756074 
L 333.772809 244.164531 
L 334.368 238.433162 
L 334.963191 237.518907 
L 335.558382 240.412087 
L 338.534382 264.026016 
L 339.724809 270.509236 
L 340.915191 275.704923 
L 342.105618 279.842206 
L 343.296 282.85154 
L 343.891191 283.849778 
L 344.486382 284.38182 
L 345.081618 284.350069 
L 345.676809 283.604952 
L 346.272 281.967082 
L 346.867191 279.252398 
L 347.462382 275.332873 
L 348.652809 264.286917 
L 349.843191 252.786013 
L 350.438382 249.089955 
L 351.033618 247.562451 
L 351.628809 248.119659 
L 352.224 250.24569 
L 353.414382 256.750903 
L 355.2 266.871801 
L 356.985618 275.282368 
L 358.176 279.935533 
L 359.366382 283.816897 
L 360.556809 286.806864 
L 361.152 287.874126 
L 361.747191 288.562658 
L 362.342382 288.759044 
L 362.937618 288.30262 
L 363.532809 286.978252 
L 364.128 284.523061 
L 364.723191 280.668496 
L 365.318382 275.245391 
L 366.508809 260.634655 
L 367.104 253.202485 
L 367.699191 247.469333 
L 368.294382 244.474322 
L 368.889618 244.390132 
L 369.484809 246.585912 
L 370.675191 254.157159 
L 372.460809 265.651414 
L 373.651191 272.002906 
L 374.841618 277.471414 
L 376.032 282.227562 
L 377.817618 288.252165 
L 379.008 291.627788 
L 380.198382 294.53229 
L 381.388809 296.979861 
L 382.579191 298.869546 
L 383.174382 299.522962 
L 383.769618 299.888601 
L 384.364809 299.839601 
L 384.96 299.174961 
L 385.555191 297.58824 
L 386.150382 294.639792 
L 386.745618 289.767632 
L 387.340809 282.41238 
L 387.936 272.360672 
L 389.126382 248.391547 
L 389.721618 239.486773 
L 390.316809 235.715586 
L 390.912 236.979584 
L 391.507191 241.447984 
L 393.292809 257.504788 
L 394.483191 265.344539 
L 395.673618 271.286015 
L 396.864 275.909742 
L 398.054382 279.334358 
L 398.649618 280.539237 
L 399.244809 281.333262 
L 399.84 281.632212 
L 400.435191 281.32607 
L 401.030382 280.282334 
L 401.625618 278.362602 
L 402.220809 275.45913 
L 402.816 271.557723 
L 405.196809 252.827479 
L 405.792 250.451753 
L 406.387191 249.840007 
L 406.982382 250.803201 
L 407.577618 252.910266 
L 408.768 258.769396 
L 410.553618 267.852793 
L 411.744 273.113618 
L 412.934382 277.583032 
L 414.124809 281.151174 
L 414.72 282.526117 
L 414.72 282.526117 
" clip-path="url(#pcefc11a4c0)" style="fill: none; stroke-dasharray: 9.6,2.4,1.5,2.4; stroke-dashoffset: 0; stroke: #ff0000; stroke-width: 1.5"/>
   </g>
   <g id="patch_13">
    <path d="M 57.6 307.584 
L 57.6 229.315765 
" style="fill: none; stroke: #000000; stroke-width: 0.8; stroke-linejoin: miter; stroke-linecap: square"/>
   </g>
   <g id="patch_14">
    <path d="M 414.72 307.584 
L 414.72 229.315765 
" style="fill: none; stroke: #000000; stroke-width: 0.8; stroke-linejoin: miter; stroke-linecap: square"/>
   </g>
   <g id="patch_15">
    <path d="M 57.6 307.584 
L 414.72 307.584 
" style="fill: none; stroke: #000000; stroke-width: 0.8; stroke-linejoin: miter; stroke-linecap: square"/>
   </g>
   <g id="patch_16">
    <path d="M 57.6 229.315765 
L 414.72 229.315765 
" style="fill: none; stroke: #000000; stroke-width: 0.8; stroke-linejoin: miter; stroke-linecap: square"/>
   </g>
  </g>
 </g>
 <defs>
  <clipPath id="pee7c6ff715">
   <rect x="57.6" y="41.472" width="357.12" height="78.268235"/>
  </clipPath>
  <clipPath id="pd6b4b073e9">
   <rect x="57.6" y="135.393882" width="357.12" height="78.268235"/>
  </clipPath>
  <clipPath id="pcefc11a4c0">
   <rect x="57.6" y="229.315765" width="357.12" height="78.268235"/>
  </clipPath>
 </defs>
</svg>
