<?xml version="1.0" encoding="utf-8" standalone="no"?>
<!DOCTYPE svg PUBLIC "-//W3C//DTD SVG 1.1//EN"
  "http://www.w3.org/Graphics/SVG/1.1/DTD/svg11.dtd">
<svg xmlns:xlink="http://www.w3.org/1999/xlink" width="460.8pt" height="345.6pt" viewBox="0 0 460.8 345.6" xmlns="http://www.w3.org/2000/svg" version="1.1">
 <metadata>
  <rdf:RDF xmlns:dc="http://purl.org/dc/elements/1.1/" xmlns:cc="http://creativecommons.org/ns#" xmlns:rdf="http://www.w3.org/1999/02/22-rdf-syntax-ns#">
   <cc:Work>
    <dc:type rdf:resource="http://purl.org/dc/dcmitype/StillImage"/>
    <dc:date>2023-12-14T02:41:44.719897</dc:date>
    <dc:format>image/svg+xml</dc:format>
    <dc:creator>
     <cc:Agent>
      <dc:title>Matplotlib v3.7.3, https://matplotlib.org/</dc:title>
     </cc:Agent>
    </dc:creator>
   </cc:Work>
  </rdf:RDF>
 </metadata>
 <defs>
  <style type="text/css">*{stroke-linejoin: round; stroke-linecap: butt}</style>
 </defs>
 <g id="figure_1">
  <g id="patch_1">
   <path d="M 0 345.6 
L 460.8 345.6 
L 460.8 0 
L 0 0 
z
" style="fill: #ffffff"/>
  </g>
  <g id="axes_1">
   <g id="patch_2">
    <path d="M 57.6 119.740235 
L 414.72 119.740235 
L 414.72 41.472 
L 57.6 41.472 
z
" style="fill: #ffffff"/>
   </g>
   <g id="matplotlib.axis_1">
    <g id="xtick_1">
     <g id="line2d_1">
      <defs>
       <path id="m4382e556b2" d="M 0 0 
L 0 3.5 
" style="stroke: #000000; stroke-width: 0.8"/>
      </defs>
      <g>
       <use xlink:href="#m4382e556b2" x="57.6" y="119.740235" style="stroke: #000000; stroke-width: 0.8"/>
      </g>
     </g>
    </g>
    <g id="xtick_2">
     <g id="line2d_2">
      <g>
       <use xlink:href="#m4382e556b2" x="105.216" y="119.740235" style="stroke: #000000; stroke-width: 0.8"/>
      </g>
     </g>
    </g>
    <g id="xtick_3">
     <g id="line2d_3">
      <g>
       <use xlink:href="#m4382e556b2" x="152.832" y="119.740235" style="stroke: #000000; stroke-width: 0.8"/>
      </g>
     </g>
    </g>
    <g id="xtick_4">
     <g id="line2d_4">
      <g>
       <use xlink:href="#m4382e556b2" x="200.448" y="119.740235" style="stroke: #000000; stroke-width: 0.8"/>
      </g>
     </g>
    </g>
    <g id="xtick_5">
     <g id="line2d_5">
      <g>
       <use xlink:href="#m4382e556b2" x="248.064" y="119.740235" style="stroke: #000000; stroke-width: 0.8"/>
      </g>
     </g>
    </g>
    <g id="xtick_6">
     <g id="line2d_6">
      <g>
       <use xlink:href="#m4382e556b2" x="295.68" y="119.740235" style="stroke: #000000; stroke-width: 0.8"/>
      </g>
     </g>
    </g>
    <g id="xtick_7">
     <g id="line2d_7">
      <g>
       <use xlink:href="#m4382e556b2" x="343.296" y="119.740235" style="stroke: #000000; stroke-width: 0.8"/>
      </g>
     </g>
    </g>
    <g id="xtick_8">
     <g id="line2d_8">
      <g>
       <use xlink:href="#m4382e556b2" x="390.912" y="119.740235" style="stroke: #000000; stroke-width: 0.8"/>
      </g>
     </g>
    </g>
    <g id="xtick_9">
     <g id="line2d_9">
      <g>
       <use xlink:href="#m4382e556b2" x="414.72" y="119.740235" style="stroke: #000000; stroke-width: 0.8"/>
      </g>
     </g>
    </g>
   </g>
   <g id="matplotlib.axis_2">
    <g id="ytick_1">
     <g id="line2d_10">
      <defs>
       <path id="mf97d1d40ee" d="M 0 0 
L -3.5 0 
" style="stroke: #000000; stroke-width: 0.8"/>
      </defs>
      <g>
       <use xlink:href="#mf97d1d40ee" x="57.6" y="100.316594" style="stroke: #000000; stroke-width: 0.8"/>
      </g>
     </g>
     <g id="text_1">
      <!-- −10 -->
      <g transform="translate(29.495313 104.115812) scale(0.1 -0.1)">
       <defs>
        <path id="DejaVuSans-2212" d="M 678 2272 
L 4684 2272 
L 4684 1741 
L 678 1741 
L 678 2272 
z
" transform="scale(0.015625)"/>
        <path id="DejaVuSans-31" d="M 794 531 
L 1825 531 
L 1825 4091 
L 703 3866 
L 703 4441 
L 1819 4666 
L 2450 4666 
L 2450 531 
L 3481 531 
L 3481 0 
L 794 0 
L 794 531 
z
" transform="scale(0.015625)"/>
        <path id="DejaVuSans-30" d="M 2034 4250 
Q 1547 4250 1301 3770 
Q 1056 3291 1056 2328 
Q 1056 1369 1301 889 
Q 1547 409 2034 409 
Q 2525 409 2770 889 
Q 3016 1369 3016 2328 
Q 3016 3291 2770 3770 
Q 2525 4250 2034 4250 
z
M 2034 4750 
Q 2819 4750 3233 4129 
Q 3647 3509 3647 2328 
Q 3647 1150 3233 529 
Q 2819 -91 2034 -91 
Q 1250 -91 836 529 
Q 422 1150 422 2328 
Q 422 3509 836 4129 
Q 1250 4750 2034 4750 
z
" transform="scale(0.015625)"/>
       </defs>
       <use xlink:href="#DejaVuSans-2212"/>
       <use xlink:href="#DejaVuSans-31" x="83.789062"/>
       <use xlink:href="#DejaVuSans-30" x="147.412109"/>
      </g>
     </g>
    </g>
    <g id="ytick_2">
     <g id="line2d_11">
      <g>
       <use xlink:href="#mf97d1d40ee" x="57.6" y="80.018171" style="stroke: #000000; stroke-width: 0.8"/>
      </g>
     </g>
     <g id="text_2">
      <!-- 0 -->
      <g transform="translate(44.2375 83.81739) scale(0.1 -0.1)">
       <use xlink:href="#DejaVuSans-30"/>
      </g>
     </g>
    </g>
    <g id="ytick_3">
     <g id="line2d_12">
      <g>
       <use xlink:href="#mf97d1d40ee" x="57.6" y="59.719748" style="stroke: #000000; stroke-width: 0.8"/>
      </g>
     </g>
     <g id="text_3">
      <!-- 10 -->
      <g transform="translate(37.875 63.518967) scale(0.1 -0.1)">
       <use xlink:href="#DejaVuSans-31"/>
       <use xlink:href="#DejaVuSans-30" x="63.623047"/>
      </g>
     </g>
    </g>
   </g>
   <g id="line2d_13">
    <path d="M 57.6 86.291546 
L 58.1952 86.868094 
L 58.7904 88.166019 
L 59.3856 89.175132 
L 59.9808 90.744463 
L 60.576 93.247375 
L 61.1712 94.840355 
L 63.552 107.436572 
L 64.1472 109.259609 
L 64.7424 110.156165 
L 65.3376 109.309789 
L 65.9328 107.110199 
L 66.528 104.000901 
L 67.7184 95.193335 
L 68.9088 89.319094 
L 70.0992 84.48285 
L 71.2896 82.313048 
L 71.8848 82.028999 
L 73.0752 80.765196 
L 73.6704 80.427882 
L 74.2656 80.884196 
L 74.8608 81.009393 
L 75.456 80.435378 
L 76.0512 80.252086 
L 77.2416 80.584299 
L 77.8368 80.501271 
L 78.432 81.130376 
L 79.0272 81.00217 
L 79.6224 80.583665 
L 80.2176 81.755048 
L 80.8128 81.98541 
L 81.408 81.820541 
L 82.0032 82.944741 
L 83.1936 84.548218 
L 83.7888 86.923731 
L 84.384 88.533394 
L 85.5744 93.313346 
L 86.1696 96.622251 
L 88.5504 114.619931 
L 89.1456 116.182588 
L 89.7408 115.412708 
L 90.336 110.870888 
L 92.7168 87.279965 
L 93.312 82.569928 
L 93.9072 79.332363 
L 94.5024 77.414034 
L 95.0976 74.743074 
L 95.6928 73.997467 
L 96.288 73.040456 
L 97.4784 70.161824 
L 98.0736 69.568993 
L 98.6688 67.691188 
L 99.264 67.08804 
L 100.4544 63.678814 
L 101.0496 61.769259 
L 102.24 58.46515 
L 102.8352 56.785098 
L 103.4304 55.654451 
L 104.0256 56.258262 
L 104.6208 55.667582 
L 105.8112 58.661621 
L 106.4064 61.002355 
L 107.0016 62.37094 
L 107.5968 64.099176 
L 108.192 66.351395 
L 109.3824 69.065325 
L 109.9776 69.803385 
L 110.5728 70.212959 
L 111.168 71.203377 
L 111.7632 70.70495 
L 112.3584 71.052117 
L 112.9536 70.644148 
L 114.144 68.874616 
L 114.7392 66.943734 
L 115.9296 64.38918 
L 117.12 59.624034 
L 117.7152 58.779749 
L 118.3104 56.684601 
L 118.9056 55.328508 
L 119.5008 54.716103 
L 120.096 54.424853 
L 121.2864 57.601509 
L 123.072 64.211644 
L 123.6672 66.775753 
L 124.2624 68.158293 
L 124.8576 69.938151 
L 125.4528 70.400063 
L 126.048 71.324748 
L 126.6432 71.681947 
L 127.2384 72.269929 
L 127.8336 71.344495 
L 128.4288 71.225594 
L 129.6192 69.933313 
L 130.8096 67.502232 
L 131.4048 65.336328 
L 132 64.555579 
L 132.5952 61.694644 
L 133.7856 57.161 
L 134.976 54.556633 
L 135.5712 53.933963 
L 136.1664 54.697206 
L 136.7616 55.697734 
L 137.952 59.877557 
L 138.5472 62.991325 
L 139.1424 65.420466 
L 140.3328 69.43295 
L 141.5232 71.982169 
L 142.7136 73.18272 
L 143.904 73.101097 
L 145.0944 72.187075 
L 146.2848 69.597781 
L 146.88 68.777434 
L 149.2608 60.004634 
L 149.856 58.071937 
L 150.4512 55.451911 
L 151.0464 53.525963 
L 151.6416 53.078605 
L 152.2368 53.125991 
L 152.832 54.466177 
L 153.4272 56.346451 
L 154.6176 62.311343 
L 155.2128 64.526987 
L 155.808 67.549565 
L 156.4032 69.384514 
L 156.9984 71.756392 
L 157.5936 72.522061 
L 158.1888 73.994514 
L 158.784 74.499483 
L 159.3792 75.322079 
L 159.9744 74.524708 
L 160.5696 74.739712 
L 161.1648 74.39727 
L 161.76 73.736749 
L 162.3552 73.28751 
L 162.9504 71.343025 
L 163.5456 70.89296 
L 164.736 66.48012 
L 165.9264 62.570025 
L 166.5216 59.243057 
L 167.1168 56.982741 
L 167.712 53.851367 
L 168.3072 51.615982 
L 168.9024 51.569314 
L 169.4976 51.675003 
L 170.0928 53.625767 
L 170.688 56.326425 
L 171.8784 63.912757 
L 172.4736 66.530998 
L 173.0688 69.817197 
L 173.664 72.140655 
L 174.2592 73.796522 
L 174.8544 74.881356 
L 175.4496 76.772658 
L 176.0448 76.397793 
L 176.64 77.454537 
L 177.8304 77.874731 
L 178.4256 77.023853 
L 180.2112 76.212831 
L 180.8064 74.685229 
L 181.4016 74.55797 
L 181.9968 72.785536 
L 182.592 71.811882 
L 183.7824 67.64358 
L 185.568 59.629051 
L 186.1632 56.179121 
L 186.7584 51.862229 
L 187.3536 48.942556 
L 187.9488 48.580225 
L 188.544 49.497011 
L 189.1392 51.530118 
L 190.3296 60.22818 
L 190.9248 65.66291 
L 191.52 69.621925 
L 192.7104 75.397656 
L 193.9008 79.293564 
L 194.496 80.346612 
L 195.0912 80.901192 
L 195.6864 81.974059 
L 196.2816 82.409521 
L 197.472 83.629426 
L 198.0672 84.021927 
L 198.6624 84.910124 
L 200.448 88.468406 
L 201.0432 89.687025 
L 201.6384 93.138179 
L 202.2336 95.13746 
L 203.424 100.324484 
L 204.0192 104.222699 
L 204.6144 107.37948 
L 205.2096 109.892429 
L 205.8048 110.605794 
L 206.4 109.512665 
L 206.9952 107.317641 
L 208.7808 96.270507 
L 209.376 91.213568 
L 210.5664 86.443402 
L 211.1616 84.439005 
L 211.7568 82.967146 
L 213.5424 79.883878 
L 214.1376 79.683185 
L 214.7328 80.316516 
L 215.328 78.976173 
L 215.9232 79.754044 
L 216.5184 78.424147 
L 217.7088 77.788068 
L 218.304 77.627462 
L 218.8992 77.947688 
L 219.4944 75.565744 
L 220.0896 75.64887 
L 220.6848 74.619419 
L 221.8752 71.116685 
L 222.4704 69.28344 
L 223.6608 63.498853 
L 224.256 60.008884 
L 225.4464 51.577028 
L 226.0416 48.32726 
L 226.6368 46.319427 
L 227.232 46.741827 
L 227.8272 49.205817 
L 228.4224 54.032134 
L 229.6128 65.206698 
L 230.208 70.037928 
L 231.3984 77.266437 
L 231.9936 79.544513 
L 232.5888 80.886747 
L 233.184 82.672828 
L 234.3744 84.726063 
L 234.9696 85.107366 
L 235.5648 86.844167 
L 236.16 87.45128 
L 236.7552 88.734589 
L 237.9456 90.948486 
L 238.5408 93.772215 
L 239.136 95.385521 
L 239.7312 97.358228 
L 240.9216 103.022257 
L 241.5168 104.653007 
L 242.112 107.073585 
L 243.3024 107.393765 
L 244.4928 103.175046 
L 245.088 99.777807 
L 245.6832 97.473831 
L 246.8736 91.926456 
L 247.4688 89.634008 
L 248.064 88.303789 
L 248.6592 86.666507 
L 249.2544 85.944056 
L 249.8496 85.57397 
L 250.4448 85.337146 
L 251.6352 84.629422 
L 252.2304 86.014661 
L 252.8256 86.265603 
L 253.4208 86.983835 
L 254.016 88.250407 
L 254.6112 89.20143 
L 255.2064 90.923649 
L 256.3968 95.359258 
L 256.992 98.270781 
L 257.5872 100.488304 
L 258.1824 104.269601 
L 259.3728 108.864307 
L 259.968 109.053214 
L 260.5632 108.573001 
L 261.1584 106.497697 
L 261.7536 103.903859 
L 262.3488 99.703727 
L 262.944 96.31757 
L 263.5392 93.799909 
L 264.1344 90.316609 
L 264.7296 88.041221 
L 265.92 84.344373 
L 266.5152 83.305719 
L 267.7056 82.52206 
L 268.896 82.000236 
L 269.4912 83.039803 
L 270.0864 82.384809 
L 270.6816 82.622972 
L 271.2768 83.249242 
L 271.872 83.367017 
L 272.4672 84.203892 
L 273.6576 85.55444 
L 274.2528 87.208835 
L 274.848 89.353694 
L 275.4432 90.572112 
L 276.0384 93.111762 
L 277.2288 100.007596 
L 279.0144 110.781474 
L 279.6096 111.919344 
L 280.2048 112.335595 
L 280.8 110.584667 
L 281.3952 106.312787 
L 283.1808 91.771538 
L 283.776 87.854932 
L 284.3712 85.016883 
L 285.5616 80.330875 
L 286.1568 79.290503 
L 286.752 77.896794 
L 287.3472 76.963894 
L 287.9424 76.891236 
L 288.5376 75.103838 
L 289.1328 75.351662 
L 289.728 74.3294 
L 290.3232 72.841964 
L 290.9184 71.884006 
L 291.5136 70.091605 
L 292.1088 68.81414 
L 293.2992 63.453863 
L 293.8944 61.588292 
L 295.68 53.067282 
L 296.2752 51.928878 
L 296.8704 51.332932 
L 297.4656 52.13515 
L 298.0608 54.233792 
L 298.656 57.032973 
L 299.8464 65.085192 
L 301.632 72.644707 
L 302.2272 74.640977 
L 302.8224 75.521673 
L 303.4176 76.872449 
L 304.0128 77.063364 
L 304.608 78.031015 
L 305.2032 77.720894 
L 305.7984 77.767026 
L 306.3936 78.035805 
L 306.9888 77.276707 
L 307.584 77.237584 
L 308.1792 76.877862 
L 308.7744 76.33085 
L 309.3696 75.284318 
L 309.9648 73.719408 
L 311.1552 71.927195 
L 311.7504 70.020561 
L 313.536 61.74076 
L 315.3216 50.619734 
L 315.9168 48.193141 
L 316.512 47.918737 
L 317.1072 48.990598 
L 317.7024 52.274336 
L 320.0832 70.956274 
L 320.6784 73.796998 
L 321.2736 77.256613 
L 321.8688 79.274231 
L 322.464 80.142344 
L 323.6544 82.922509 
L 324.2496 82.89047 
L 324.8448 84.337322 
L 325.44 84.637242 
L 326.0352 85.449215 
L 326.6304 85.909297 
L 327.2256 87.086816 
L 327.8208 87.96134 
L 328.416 90.949849 
L 329.0112 92.04803 
L 329.6064 93.811668 
L 330.7968 98.871677 
L 331.392 102.419913 
L 331.9872 104.813645 
L 332.5824 108.195328 
L 333.1776 108.873778 
L 333.7728 109.320616 
L 334.368 108.058434 
L 334.9632 105.343557 
L 336.1536 98.013211 
L 336.7488 93.656888 
L 337.344 90.75656 
L 337.9392 88.87114 
L 338.5344 86.161944 
L 339.1296 84.562098 
L 339.7248 84.194076 
L 340.32 83.031595 
L 340.9152 82.582928 
L 341.5104 81.430995 
L 342.1056 81.677109 
L 342.7008 82.051889 
L 343.296 81.547238 
L 343.8912 82.580915 
L 345.0816 82.039059 
L 345.6768 82.884592 
L 346.272 83.287997 
L 346.8672 83.834036 
L 347.4624 85.221326 
L 348.0576 86.160873 
L 348.6528 87.358988 
L 349.248 90.026429 
L 349.8432 92.103306 
L 351.6288 101.524276 
L 352.8192 109.483474 
L 353.4144 111.968952 
L 354.0096 113.830892 
L 355.2 108.879521 
L 357.5808 88.324631 
L 358.7712 82.319742 
L 359.9616 79.374717 
L 361.152 76.151157 
L 361.7472 75.376909 
L 362.3424 74.921471 
L 363.5328 73.151447 
L 364.7232 71.163245 
L 365.3184 68.684932 
L 365.9136 67.083905 
L 367.6992 60.474844 
L 368.2944 56.733647 
L 369.4848 53.047377 
L 370.08 51.703993 
L 370.6752 52.377799 
L 371.2704 53.559379 
L 371.8656 56.015236 
L 373.6512 66.179346 
L 374.8416 70.492592 
L 375.4368 72.146494 
L 376.032 74.222712 
L 376.6272 75.424797 
L 378.4128 76.504376 
L 380.1984 75.431745 
L 380.7936 74.634901 
L 381.3888 74.297166 
L 382.5792 72.205839 
L 383.1744 69.715929 
L 383.7696 68.72384 
L 384.3648 66.576288 
L 385.5552 60.227675 
L 386.1504 57.228087 
L 386.7456 53.612788 
L 387.936 49.918072 
L 388.5312 49.970477 
L 389.1264 51.778488 
L 389.7216 54.105965 
L 392.1024 70.343851 
L 392.6976 72.922307 
L 393.2928 74.896273 
L 393.888 76.472971 
L 395.6736 79.751729 
L 396.2688 79.427975 
L 396.864 80.052772 
L 397.4592 80.399124 
L 399.2448 80.916933 
L 399.84 80.983982 
L 400.4352 81.684136 
L 401.0304 82.137113 
L 401.6256 82.253755 
L 402.2208 82.680251 
L 402.816 83.264819 
L 403.4112 84.539091 
L 404.0064 85.510553 
L 404.6016 87.384545 
L 405.1968 88.43749 
L 405.792 91.551012 
L 406.3872 93.580244 
L 407.5776 101.3726 
L 409.3632 112.67414 
L 409.9584 114.863602 
L 410.5536 113.875768 
L 411.1488 110.755366 
L 411.744 106.165136 
L 412.9344 94.132614 
L 414.1248 85.446842 
L 414.72 82.132531 
L 414.72 82.132531 
" clip-path="url(#p19f0276de5)" style="fill: none; stroke: #0000cc; stroke-width: 1.5; stroke-linecap: square"/>
   </g>
   <g id="line2d_14">
    <path d="M 57.6 86.291546 
L 58.1952 87.074697 
L 58.7904 88.143121 
L 59.3856 89.518553 
L 59.9808 91.231476 
L 61.1712 95.771067 
L 63.552 107.401838 
L 64.1472 109.270731 
L 64.7424 109.843908 
L 65.3376 108.872363 
L 65.9328 106.453565 
L 67.1232 99.084109 
L 68.3136 91.707992 
L 68.9088 88.770974 
L 69.504 86.42911 
L 70.0992 84.637763 
L 70.6944 83.313947 
L 71.2896 82.365 
L 71.8848 81.704551 
L 72.48 81.259696 
L 73.6704 80.800964 
L 74.8608 80.688802 
L 76.0512 80.784855 
L 77.2416 81.053747 
L 78.432 81.531613 
L 79.6224 82.322087 
L 80.2176 82.88995 
L 80.8128 83.616802 
L 81.408 84.547575 
L 82.0032 85.739199 
L 82.5984 87.262187 
L 83.1936 89.20047 
L 83.7888 91.646643 
L 84.384 94.687016 
L 85.5744 102.622835 
L 86.7648 111.432057 
L 87.36 114.457805 
L 87.9552 115.270221 
L 88.5504 113.343287 
L 89.1456 108.987234 
L 91.5264 86.637905 
L 92.1216 82.837867 
L 92.7168 79.908539 
L 93.312 77.679715 
L 93.9072 75.967757 
L 95.0976 73.448919 
L 96.8832 70.191674 
L 98.0736 67.515002 
L 99.264 64.119819 
L 101.6448 56.514378 
L 102.24 55.272861 
L 102.8352 54.700644 
L 103.4304 54.930115 
L 104.0256 55.969294 
L 104.6208 57.69024 
L 107.5968 68.45828 
L 108.192 69.884512 
L 108.7872 70.944043 
L 109.3824 71.65716 
L 109.9776 72.053464 
L 110.5728 72.162357 
L 111.168 72.007444 
L 111.7632 71.603869 
L 112.3584 70.957777 
L 112.9536 70.067372 
L 113.5488 68.925516 
L 114.7392 65.861698 
L 115.9296 61.845032 
L 117.7152 55.599469 
L 118.3104 54.268882 
L 118.9056 53.731743 
L 119.5008 54.136828 
L 120.096 55.471492 
L 120.6912 57.5559 
L 123.072 67.662557 
L 123.6672 69.567367 
L 124.2624 71.060969 
L 124.8576 72.157893 
L 125.4528 72.893544 
L 126.048 73.309101 
L 126.6432 73.442024 
L 127.2384 73.320905 
L 127.8336 72.96327 
L 128.4288 72.375238 
L 129.024 71.552404 
L 129.6192 70.481766 
L 130.2144 69.144992 
L 131.4048 65.609047 
L 132.5952 60.995524 
L 133.7856 56.063891 
L 134.3808 54.054248 
L 134.976 52.783254 
L 135.5712 52.537354 
L 136.1664 53.442441 
L 136.7616 55.398975 
L 137.952 61.189077 
L 139.1424 67.090623 
L 139.7376 69.496498 
L 140.3328 71.433926 
L 140.928 72.912555 
L 141.5232 73.976661 
L 142.1184 74.683024 
L 142.7136 75.086913 
L 143.3088 75.234442 
L 143.904 75.159151 
L 144.4992 74.88109 
L 145.0944 74.40715 
L 145.6896 73.731952 
L 146.2848 72.838981 
L 146.88 71.70211 
L 147.4752 70.288034 
L 148.0704 68.560754 
L 149.2608 64.065692 
L 151.6416 52.893957 
L 152.2368 51.168904 
L 152.832 50.687328 
L 153.4272 51.665075 
L 154.0224 53.998875 
L 155.2128 61.037232 
L 156.4032 68.092299 
L 156.9984 70.912247 
L 157.5936 73.164254 
L 158.1888 74.885476 
L 158.784 76.150538 
L 159.3792 77.0443 
L 159.9744 77.646296 
L 160.5696 78.023424 
L 161.1648 78.227694 
L 162.3552 78.255064 
L 163.5456 77.885481 
L 164.736 77.121437 
L 165.3312 76.556997 
L 165.9264 75.836437 
L 166.5216 74.922623 
L 167.1168 73.768289 
L 167.712 72.31558 
L 168.3072 70.497275 
L 168.9024 68.242007 
L 170.0928 62.209626 
L 172.4736 47.944016 
L 173.0688 46.837838 
L 173.664 47.932931 
L 174.2592 51.141449 
L 175.4496 61.054821 
L 176.64 70.569055 
L 177.2352 74.212434 
L 177.8304 77.070596 
L 178.4256 79.255093 
L 179.0208 80.911918 
L 180.2112 83.208871 
L 183.1872 87.740833 
L 184.3776 90.47361 
L 185.568 94.286378 
L 186.7584 99.237366 
L 187.9488 104.554358 
L 188.544 106.711562 
L 189.1392 108.041282 
L 189.7344 108.221275 
L 190.3296 107.122518 
L 190.9248 104.881204 
L 192.1152 98.48375 
L 193.3056 92.181222 
L 193.9008 89.665617 
L 194.496 87.660053 
L 195.0912 86.13783 
L 195.6864 85.03986 
L 196.2816 84.297692 
L 196.8768 83.847224 
L 197.472 83.635603 
L 198.0672 83.623836 
L 198.6624 83.787037 
L 199.2576 84.113648 
L 199.8528 84.604385 
L 200.448 85.271313 
L 201.0432 86.137139 
L 201.6384 87.234506 
L 202.2336 88.604774 
L 202.8288 90.295225 
L 203.424 92.352836 
L 204.6144 97.669946 
L 206.4 107.253001 
L 206.9952 109.603748 
L 207.5904 110.669682 
L 208.1856 110.07481 
L 208.7808 107.815696 
L 209.9712 100.1081 
L 211.1616 92.013462 
L 211.7568 88.741967 
L 212.352 86.116494 
L 212.9472 84.092334 
L 213.5424 82.576644 
L 214.1376 81.463074 
L 214.7328 80.650917 
L 215.9232 79.600703 
L 217.7088 78.610899 
L 218.8992 77.916315 
L 220.0896 76.941604 
L 220.6848 76.276781 
L 221.28 75.445169 
L 221.8752 74.400791 
L 222.4704 73.088139 
L 223.0656 71.441932 
L 223.6608 69.389749 
L 224.256 66.860751 
L 225.4464 60.238513 
L 227.232 48.956606 
L 227.8272 46.953756 
L 228.4224 47.010881 
L 229.0176 49.3342 
L 229.6128 53.492784 
L 231.3984 68.731522 
L 231.9936 72.778507 
L 232.5888 76.007214 
L 233.184 78.497873 
L 233.7792 80.389483 
L 234.3744 81.833051 
L 235.5648 83.91464 
L 237.3504 86.524699 
L 238.5408 88.740847 
L 239.7312 91.818341 
L 240.9216 96.020154 
L 243.3024 106.039881 
L 243.8976 107.587964 
L 244.4928 108.086508 
L 245.088 107.35134 
L 245.6832 105.443933 
L 246.8736 99.418276 
L 248.064 93.089891 
L 249.2544 88.371647 
L 249.8496 86.746827 
L 250.4448 85.559317 
L 251.04 84.744841 
L 251.6352 84.239974 
L 252.2304 83.990701 
L 252.8256 83.956127 
L 253.4208 84.109386 
L 254.016 84.437182 
L 254.6112 84.938849 
L 255.2064 85.625392 
L 255.8016 86.518618 
L 256.3968 87.650157 
L 256.992 89.059788 
L 257.5872 90.791932 
L 258.7776 95.374236 
L 259.968 101.372035 
L 261.1584 107.461598 
L 261.7536 109.539344 
L 262.3488 110.30124 
L 262.944 109.445627 
L 263.5392 107.037906 
L 264.7296 99.426527 
L 265.92 91.702179 
L 266.5152 88.617107 
L 267.1104 86.153657 
L 267.7056 84.263917 
L 268.3008 82.85844 
L 268.896 81.837244 
L 269.4912 81.106858 
L 270.0864 80.587808 
L 271.2768 79.943436 
L 273.0624 79.387309 
L 274.848 78.797552 
L 276.0384 78.177082 
L 277.2288 77.195568 
L 277.824 76.497815 
L 278.4192 75.608187 
L 279.0144 74.47298 
L 279.6096 73.025764 
L 280.2048 71.187165 
L 280.8 68.868502 
L 281.3952 65.984058 
L 282.5856 58.394309 
L 283.776 49.654181 
L 284.3712 46.356981 
L 284.9664 45.029647 
L 285.5616 46.316361 
L 286.1568 50.102724 
L 288.5376 72.151578 
L 289.1328 76.107691 
L 289.728 79.179765 
L 290.3232 81.521183 
L 290.9184 83.310767 
L 292.1088 85.887798 
L 294.4896 90.255881 
L 295.68 93.168331 
L 296.8704 96.868727 
L 298.656 102.997308 
L 299.2512 104.580344 
L 299.8464 105.555104 
L 300.4416 105.728329 
L 301.0368 105.020108 
L 301.632 103.50173 
L 302.8224 98.928567 
L 304.0128 94.083571 
L 305.2032 90.379454 
L 305.7984 89.100106 
L 306.3936 88.19084 
L 306.9888 87.61974 
L 307.584 87.352056 
L 308.1792 87.357724 
L 308.7744 87.615313 
L 309.3696 88.113473 
L 309.9648 88.850696 
L 310.56 89.833722 
L 311.1552 91.074504 
L 312.3456 94.369991 
L 313.536 98.661983 
L 314.7264 103.264218 
L 315.3216 105.178237 
L 315.9168 106.453093 
L 316.512 106.82765 
L 317.1072 106.168054 
L 317.7024 104.530114 
L 318.8928 99.358623 
L 320.0832 93.817173 
L 321.2736 89.589791 
L 321.8688 88.122085 
L 322.464 87.05925 
L 323.0592 86.35597 
L 323.6544 85.964914 
L 324.2496 85.84527 
L 324.8448 85.96701 
L 325.44 86.312463 
L 326.0352 86.876311 
L 326.6304 87.664679 
L 327.2256 88.693517 
L 327.8208 89.985984 
L 329.0112 93.461031 
L 330.2016 98.158704 
L 331.9872 105.888347 
L 332.5824 107.60216 
L 333.1776 108.286728 
L 333.7728 107.718944 
L 334.368 105.922888 
L 334.9632 103.175169 
L 337.344 90.665107 
L 337.9392 88.450367 
L 338.5344 86.735006 
L 339.1296 85.470309 
L 339.7248 84.589838 
L 340.32 84.026739 
L 340.9152 83.723158 
L 341.5104 83.634368 
L 342.1056 83.729825 
L 342.7008 83.9927 
L 343.296 84.418885 
L 343.8912 85.015993 
L 344.4864 85.802559 
L 345.0816 86.807358 
L 345.6768 88.068453 
L 346.272 89.631132 
L 346.8672 91.543238 
L 348.0576 96.552456 
L 350.4384 108.813052 
L 351.0336 110.41712 
L 351.6288 110.472451 
L 352.224 108.820678 
L 352.8192 105.716735 
L 355.2 89.9296 
L 355.7952 87.066687 
L 356.3904 84.828547 
L 356.9856 83.136164 
L 357.5808 81.885898 
L 358.176 80.973928 
L 358.7712 80.308218 
L 359.9616 79.426651 
L 362.9376 77.77652 
L 364.128 76.722746 
L 364.7232 75.996623 
L 365.3184 75.085334 
L 365.9136 73.93891 
L 366.5088 72.497329 
L 367.104 70.691136 
L 367.6992 68.446013 
L 368.2944 65.695435 
L 369.4848 58.638598 
L 370.6752 50.760503 
L 371.2704 47.822713 
L 371.8656 46.592577 
L 372.4608 47.606786 
L 373.056 50.804739 
L 374.2464 60.871433 
L 375.4368 70.593006 
L 376.032 74.318957 
L 376.6272 77.242247 
L 377.2224 79.477448 
L 377.8176 81.174722 
L 379.008 83.537615 
L 381.984 88.268293 
L 383.1744 91.113015 
L 384.3648 95.024007 
L 386.1504 102.581124 
L 386.7456 104.994504 
L 387.3408 106.869239 
L 387.936 107.850535 
L 388.5312 107.678424 
L 389.1264 106.300877 
L 389.7216 103.911426 
L 392.1024 91.718275 
L 392.6976 89.410859 
L 393.2928 87.593057 
L 393.888 86.232835 
L 394.4832 85.272866 
L 395.0784 84.650204 
L 395.6736 84.307807 
L 396.2688 84.200226 
L 396.864 84.295674 
L 397.4592 84.576155 
L 398.0544 85.036729 
L 398.6496 85.684558 
L 399.2448 86.537926 
L 399.84 87.625158 
L 400.4352 88.982903 
L 401.0304 90.65279 
L 402.2208 95.073934 
L 403.4112 100.887154 
L 404.6016 106.904773 
L 405.1968 109.062717 
L 405.792 110.004117 
L 406.3872 109.402709 
L 406.9824 107.267309 
L 408.1728 100.038 
L 409.3632 92.393561 
L 409.9584 89.27938 
L 410.5536 86.770625 
L 411.1488 84.834663 
L 411.744 83.391378 
L 412.3392 82.345794 
L 412.9344 81.606811 
L 413.5296 81.096037 
L 414.72 80.522032 
L 414.72 80.522032 
" clip-path="url(#p19f0276de5)" style="fill: none; stroke-dasharray: 9.6,2.4,1.5,2.4; stroke-dashoffset: 0; stroke: #ff0000; stroke-width: 1.5"/>
   </g>
   <g id="patch_3">
    <path d="M 57.6 119.740235 
L 57.6 41.472 
" style="fill: none; stroke: #000000; stroke-width: 0.8; stroke-linejoin: miter; stroke-linecap: square"/>
   </g>
   <g id="patch_4">
    <path d="M 414.72 119.740235 
L 414.72 41.472 
" style="fill: none; stroke: #000000; stroke-width: 0.8; stroke-linejoin: miter; stroke-linecap: square"/>
   </g>
   <g id="patch_5">
    <path d="M 57.6 119.740235 
L 414.72 119.740235 
" style="fill: none; stroke: #000000; stroke-width: 0.8; stroke-linejoin: miter; stroke-linecap: square"/>
   </g>
   <g id="patch_6">
    <path d="M 57.6 41.472 
L 414.72 41.472 
" style="fill: none; stroke: #000000; stroke-width: 0.8; stroke-linejoin: miter; stroke-linecap: square"/>
   </g>
  </g>
  <g id="axes_2">
   <g id="patch_7">
    <path d="M 57.6 213.662118 
L 414.72 213.662118 
L 414.72 135.393882 
L 57.6 135.393882 
z
" style="fill: #ffffff"/>
   </g>
   <g id="matplotlib.axis_3">
    <g id="xtick_10">
     <g id="line2d_15">
      <g>
       <use xlink:href="#m4382e556b2" x="57.6" y="213.662118" style="stroke: #000000; stroke-width: 0.8"/>
      </g>
     </g>
    </g>
    <g id="xtick_11">
     <g id="line2d_16">
      <g>
       <use xlink:href="#m4382e556b2" x="105.216" y="213.662118" style="stroke: #000000; stroke-width: 0.8"/>
      </g>
     </g>
    </g>
    <g id="xtick_12">
     <g id="line2d_17">
      <g>
       <use xlink:href="#m4382e556b2" x="152.832" y="213.662118" style="stroke: #000000; stroke-width: 0.8"/>
      </g>
     </g>
    </g>
    <g id="xtick_13">
     <g id="line2d_18">
      <g>
       <use xlink:href="#m4382e556b2" x="200.448" y="213.662118" style="stroke: #000000; stroke-width: 0.8"/>
      </g>
     </g>
    </g>
    <g id="xtick_14">
     <g id="line2d_19">
      <g>
       <use xlink:href="#m4382e556b2" x="248.064" y="213.662118" style="stroke: #000000; stroke-width: 0.8"/>
      </g>
     </g>
    </g>
    <g id="xtick_15">
     <g id="line2d_20">
      <g>
       <use xlink:href="#m4382e556b2" x="295.68" y="213.662118" style="stroke: #000000; stroke-width: 0.8"/>
      </g>
     </g>
    </g>
    <g id="xtick_16">
     <g id="line2d_21">
      <g>
       <use xlink:href="#m4382e556b2" x="343.296" y="213.662118" style="stroke: #000000; stroke-width: 0.8"/>
      </g>
     </g>
    </g>
    <g id="xtick_17">
     <g id="line2d_22">
      <g>
       <use xlink:href="#m4382e556b2" x="390.912" y="213.662118" style="stroke: #000000; stroke-width: 0.8"/>
      </g>
     </g>
    </g>
    <g id="xtick_18">
     <g id="line2d_23">
      <g>
       <use xlink:href="#m4382e556b2" x="414.72" y="213.662118" style="stroke: #000000; stroke-width: 0.8"/>
      </g>
     </g>
    </g>
   </g>
   <g id="matplotlib.axis_4">
    <g id="ytick_4">
     <g id="line2d_24">
      <g>
       <use xlink:href="#mf97d1d40ee" x="57.6" y="203.963797" style="stroke: #000000; stroke-width: 0.8"/>
      </g>
     </g>
     <g id="text_4">
      <!-- −20 -->
      <g transform="translate(29.495313 207.763016) scale(0.1 -0.1)">
       <defs>
        <path id="DejaVuSans-32" d="M 1228 531 
L 3431 531 
L 3431 0 
L 469 0 
L 469 531 
Q 828 903 1448 1529 
Q 2069 2156 2228 2338 
Q 2531 2678 2651 2914 
Q 2772 3150 2772 3378 
Q 2772 3750 2511 3984 
Q 2250 4219 1831 4219 
Q 1534 4219 1204 4116 
Q 875 4013 500 3803 
L 500 4441 
Q 881 4594 1212 4672 
Q 1544 4750 1819 4750 
Q 2544 4750 2975 4387 
Q 3406 4025 3406 3419 
Q 3406 3131 3298 2873 
Q 3191 2616 2906 2266 
Q 2828 2175 2409 1742 
Q 1991 1309 1228 531 
z
" transform="scale(0.015625)"/>
       </defs>
       <use xlink:href="#DejaVuSans-2212"/>
       <use xlink:href="#DejaVuSans-32" x="83.789062"/>
       <use xlink:href="#DejaVuSans-30" x="147.412109"/>
      </g>
     </g>
    </g>
    <g id="ytick_5">
     <g id="line2d_25">
      <g>
       <use xlink:href="#mf97d1d40ee" x="57.6" y="173.518697" style="stroke: #000000; stroke-width: 0.8"/>
      </g>
     </g>
     <g id="text_5">
      <!-- 0 -->
      <g transform="translate(44.2375 177.317916) scale(0.1 -0.1)">
       <use xlink:href="#DejaVuSans-30"/>
      </g>
     </g>
    </g>
    <g id="ytick_6">
     <g id="line2d_26">
      <g>
       <use xlink:href="#mf97d1d40ee" x="57.6" y="143.073597" style="stroke: #000000; stroke-width: 0.8"/>
      </g>
     </g>
     <g id="text_6">
      <!-- 20 -->
      <g transform="translate(37.875 146.872816) scale(0.1 -0.1)">
       <use xlink:href="#DejaVuSans-32"/>
       <use xlink:href="#DejaVuSans-30" x="63.623047"/>
      </g>
     </g>
    </g>
   </g>
   <g id="line2d_27">
    <path d="M 57.6 180.141192 
L 58.1952 181.027213 
L 58.7904 183.217897 
L 59.3856 184.549543 
L 59.9808 186.841131 
L 61.1712 192.835269 
L 62.3616 198.74479 
L 62.9568 200.377709 
L 63.552 201.193751 
L 64.1472 199.632813 
L 64.7424 196.006008 
L 66.528 180.149553 
L 67.1232 176.382617 
L 68.3136 172.250726 
L 69.504 171.938134 
L 70.0992 172.241011 
L 70.6944 172.753016 
L 71.2896 172.420563 
L 72.48 173.412146 
L 74.2656 173.101384 
L 74.8608 173.449925 
L 75.456 174.014416 
L 76.0512 174.285958 
L 76.6464 174.048458 
L 77.2416 174.327808 
L 77.8368 174.341379 
L 78.432 175.092586 
L 79.0272 175.032514 
L 80.8128 176.356206 
L 82.5984 179.246891 
L 83.7888 182.887983 
L 84.384 185.380301 
L 86.1696 198.230049 
L 87.36 207.328093 
L 87.9552 210.104471 
L 88.5504 207.505497 
L 89.1456 201.161794 
L 90.9312 173.283558 
L 91.5264 168.386636 
L 92.1216 165.738302 
L 92.7168 164.699972 
L 93.9072 164.766145 
L 94.5024 165.311137 
L 95.0976 165.258861 
L 96.288 164.786746 
L 96.8832 164.282077 
L 98.0736 162.224448 
L 98.6688 160.561429 
L 99.264 159.478452 
L 99.8592 157.158779 
L 100.4544 155.980635 
L 101.0496 154.433362 
L 101.6448 153.544778 
L 102.24 152.066149 
L 102.8352 152.836549 
L 103.4304 153.941078 
L 104.0256 155.444813 
L 105.216 159.907957 
L 105.8112 162.678264 
L 107.0016 166.796844 
L 107.5968 167.391091 
L 108.192 168.554347 
L 108.7872 168.653628 
L 109.9776 168.302858 
L 110.5728 167.699301 
L 111.168 166.725511 
L 111.7632 166.500315 
L 112.3584 165.746289 
L 115.3344 158.215089 
L 116.5248 154.676508 
L 117.12 152.368878 
L 117.7152 151.819606 
L 118.3104 151.45118 
L 118.9056 152.047026 
L 120.096 156.528889 
L 121.8816 165.368177 
L 122.4768 167.285054 
L 123.072 168.605366 
L 123.6672 168.582734 
L 124.2624 169.890322 
L 126.6432 168.173779 
L 127.2384 167.325568 
L 127.8336 166.280183 
L 128.4288 165.513833 
L 129.024 164.256129 
L 131.4048 157.931534 
L 132.5952 153.414905 
L 133.1904 151.350285 
L 133.7856 150.535607 
L 134.3808 150.82863 
L 134.976 151.743324 
L 135.5712 153.991642 
L 136.7616 160.129425 
L 137.3568 164.130989 
L 137.952 166.631331 
L 139.1424 169.903372 
L 139.7376 170.05338 
L 140.3328 170.620381 
L 140.928 170.234963 
L 141.5232 170.416293 
L 142.1184 169.422292 
L 142.7136 169.101753 
L 143.3088 168.041783 
L 143.904 168.13743 
L 144.4992 166.37936 
L 145.0944 165.279718 
L 146.2848 161.874044 
L 146.88 160.630665 
L 148.0704 155.548458 
L 149.856 149.635988 
L 150.4512 148.940275 
L 151.0464 149.863468 
L 151.6416 151.510094 
L 153.4272 163.0983 
L 154.6176 169.180262 
L 155.808 171.320651 
L 156.4032 172.206533 
L 156.9984 171.805873 
L 157.5936 171.133664 
L 159.3792 169.92452 
L 160.5696 168.339637 
L 161.1648 167.171846 
L 161.76 166.766006 
L 162.3552 165.420689 
L 164.736 157.334704 
L 165.9264 151.494484 
L 166.5216 149.138561 
L 167.1168 147.863592 
L 167.712 147.193571 
L 168.3072 148.395972 
L 168.9024 151.748531 
L 170.688 165.982176 
L 171.2832 169.428396 
L 172.4736 173.424036 
L 173.0688 173.830035 
L 173.664 173.583483 
L 174.2592 173.567149 
L 174.8544 173.320237 
L 175.4496 172.784521 
L 176.0448 173.010955 
L 178.4256 170.572315 
L 179.0208 170.649035 
L 179.616 169.877476 
L 180.2112 168.573961 
L 180.8064 167.704682 
L 181.9968 164.834372 
L 182.592 162.64756 
L 184.3776 153.966506 
L 186.1632 144.073769 
L 186.7584 143.360496 
L 187.3536 144.416839 
L 187.9488 149.28339 
L 189.7344 169.129832 
L 190.3296 173.247118 
L 190.9248 175.621925 
L 191.52 176.88897 
L 192.1152 177.386692 
L 192.7104 177.278431 
L 193.3056 177.04321 
L 193.9008 176.648129 
L 194.496 177.046412 
L 195.0912 176.433329 
L 195.6864 176.484185 
L 196.2816 177.467927 
L 196.8768 177.409665 
L 198.0672 179.064191 
L 198.6624 180.500367 
L 199.2576 181.1843 
L 199.8528 182.609364 
L 202.2336 192.778045 
L 203.424 198.764924 
L 204.0192 201.428019 
L 204.6144 202.311257 
L 205.2096 200.489935 
L 205.8048 197.190307 
L 206.9952 185.714957 
L 207.5904 179.752417 
L 208.1856 175.756552 
L 208.7808 172.8467 
L 209.376 171.729085 
L 210.5664 171.284647 
L 211.1616 171.816622 
L 211.7568 171.731161 
L 212.352 171.914758 
L 212.9472 171.936549 
L 213.5424 171.830931 
L 214.1376 172.25695 
L 214.7328 172.318706 
L 215.328 172.2358 
L 215.9232 171.927701 
L 217.1136 171.057933 
L 217.7088 170.80592 
L 218.304 170.121998 
L 218.8992 170.114531 
L 220.6848 165.832412 
L 221.28 163.975388 
L 222.4704 158.397334 
L 224.256 145.884695 
L 224.8512 142.905945 
L 225.4464 140.60903 
L 226.0416 141.404173 
L 226.6368 145.635135 
L 228.4224 170.045323 
L 229.0176 174.738113 
L 229.6128 177.309562 
L 230.208 179.278868 
L 230.8032 179.810077 
L 231.3984 179.769008 
L 232.5888 179.402384 
L 233.184 178.916065 
L 233.7792 179.452719 
L 234.3744 179.5669 
L 235.5648 181.509531 
L 236.7552 183.78123 
L 237.9456 187.047229 
L 239.136 191.702517 
L 240.3264 196.779018 
L 240.9216 198.005325 
L 241.5168 198.384358 
L 242.112 197.410013 
L 242.7072 194.627036 
L 243.3024 191.307846 
L 245.088 179.298052 
L 245.6832 177.305723 
L 246.2784 175.825836 
L 246.8736 174.812741 
L 248.6592 175.677557 
L 249.2544 175.73558 
L 249.8496 176.236361 
L 250.4448 177.434891 
L 251.04 177.527533 
L 251.6352 178.177143 
L 252.2304 179.244695 
L 252.8256 180.693921 
L 253.4208 181.038688 
L 255.2064 186.706481 
L 256.992 195.113398 
L 257.5872 197.938333 
L 258.1824 199.562993 
L 258.7776 200.634009 
L 259.3728 199.217994 
L 259.968 196.37218 
L 262.3488 177.398877 
L 262.944 175.073041 
L 264.1344 172.650127 
L 265.92 173.120206 
L 266.5152 173.418718 
L 267.1104 174.351641 
L 267.7056 173.930332 
L 268.3008 174.87756 
L 268.896 175.54895 
L 269.4912 175.964817 
L 270.0864 175.761406 
L 270.6816 176.651112 
L 271.872 177.874691 
L 273.0624 179.698519 
L 274.2528 183.40836 
L 275.4432 188.3574 
L 277.2288 199.32123 
L 277.824 203.137547 
L 278.4192 204.86258 
L 279.0144 204.270752 
L 279.6096 200.449063 
L 281.9904 174.344097 
L 282.5856 171.189292 
L 283.1808 169.701691 
L 283.776 168.525356 
L 284.3712 168.907923 
L 284.9664 168.760426 
L 286.1568 169.382884 
L 286.752 168.892952 
L 287.3472 168.743047 
L 287.9424 168.201418 
L 288.5376 167.955205 
L 289.1328 167.171013 
L 290.3232 164.934827 
L 292.704 156.813769 
L 293.8944 150.845264 
L 295.0848 146.727981 
L 295.68 146.669188 
L 296.2752 148.54094 
L 296.8704 151.931712 
L 298.656 166.989584 
L 299.2512 170.517207 
L 299.8464 172.614526 
L 300.4416 173.612348 
L 301.632 173.985763 
L 302.2272 173.562741 
L 302.8224 173.627664 
L 303.4176 172.936412 
L 304.0128 172.812331 
L 304.608 172.179158 
L 305.2032 172.049878 
L 305.7984 171.401387 
L 306.3936 171.444478 
L 307.584 169.898601 
L 308.1792 169.566062 
L 308.7744 168.087109 
L 309.3696 167.251618 
L 310.56 164.736115 
L 311.7504 159.747733 
L 314.7264 143.166851 
L 315.3216 142.353255 
L 315.9168 144.953076 
L 316.512 150.335167 
L 318.2976 170.774904 
L 318.8928 174.809789 
L 320.0832 177.96112 
L 320.6784 178.154997 
L 321.2736 177.780115 
L 321.8688 177.896222 
L 323.6544 177.563641 
L 324.2496 177.743169 
L 325.44 178.935095 
L 326.0352 180.191818 
L 326.6304 180.944269 
L 327.2256 182.062085 
L 327.8208 184.711271 
L 328.416 186.435211 
L 329.0112 188.686213 
L 330.7968 197.257875 
L 331.392 199.601274 
L 331.9872 200.158882 
L 332.5824 199.893578 
L 333.1776 197.768781 
L 333.7728 193.486507 
L 334.9632 182.782851 
L 335.5584 178.692341 
L 336.1536 175.717583 
L 336.7488 173.987188 
L 337.344 173.03941 
L 337.9392 173.001443 
L 338.5344 172.667703 
L 339.1296 173.170804 
L 339.7248 173.419719 
L 340.32 173.090834 
L 340.9152 174.007751 
L 341.5104 174.051016 
L 342.1056 174.383236 
L 342.7008 175.038117 
L 343.296 175.151101 
L 343.8912 175.636911 
L 344.4864 175.734481 
L 345.0816 176.623069 
L 345.6768 177.71695 
L 346.272 177.5827 
L 346.8672 178.905759 
L 348.6528 184.519246 
L 349.248 187.36549 
L 349.8432 189.631709 
L 352.224 204.977732 
L 352.8192 205.027779 
L 353.4144 203.472394 
L 354.0096 197.799187 
L 355.2 181.977713 
L 355.7952 175.246418 
L 356.3904 171.192479 
L 357.5808 168.195308 
L 358.7712 168.008336 
L 359.3664 168.363145 
L 361.152 168.23516 
L 362.3424 167.158473 
L 362.9376 166.329374 
L 364.128 163.820674 
L 364.7232 161.968067 
L 365.3184 160.589982 
L 365.9136 158.734817 
L 366.5088 155.025695 
L 367.104 153.433255 
L 367.6992 150.328318 
L 368.2944 148.623014 
L 368.8896 147.740385 
L 369.4848 148.426549 
L 370.08 151.166512 
L 370.6752 154.93432 
L 371.8656 163.73503 
L 372.4608 167.339934 
L 373.056 170.075384 
L 373.6512 171.780415 
L 374.2464 172.486707 
L 374.8416 172.921317 
L 375.4368 172.418039 
L 376.032 172.765775 
L 376.6272 171.928456 
L 377.2224 171.991762 
L 377.8176 171.197562 
L 378.4128 170.949416 
L 379.008 169.825506 
L 379.6032 169.541672 
L 381.984 165.196201 
L 383.1744 161.143648 
L 384.3648 155.969939 
L 386.1504 146.519855 
L 386.7456 145.49906 
L 387.3408 145.626826 
L 387.936 148.302972 
L 390.3168 169.757303 
L 390.912 172.739289 
L 391.5072 174.551868 
L 392.1024 175.531507 
L 393.2928 174.844055 
L 393.888 175.205085 
L 394.4832 175.028663 
L 395.6736 174.209446 
L 396.2688 174.636022 
L 398.0544 175.060532 
L 398.6496 174.956488 
L 399.2448 175.454098 
L 399.84 175.441228 
L 400.4352 175.614324 
L 401.0304 176.25527 
L 401.6256 176.306685 
L 402.2208 177.649358 
L 402.816 178.241267 
L 404.6016 183.146118 
L 405.1968 186.408648 
L 405.792 188.862035 
L 407.5776 201.118207 
L 408.1728 205.273502 
L 408.768 207.161008 
L 409.3632 205.890261 
L 409.9584 200.711898 
L 410.5536 193.112427 
L 411.1488 183.536739 
L 411.744 176.274151 
L 412.3392 171.091709 
L 412.9344 168.29458 
L 413.5296 166.893283 
L 414.72 166.719302 
L 414.72 166.719302 
" clip-path="url(#pec49cb6eda)" style="fill: none; stroke: #0000cc; stroke-width: 1.5; stroke-linecap: square"/>
   </g>
   <g id="line2d_28">
    <path d="M 57.6 180.141192 
L 58.7904 183.241711 
L 59.9808 187.572496 
L 61.1712 193.221522 
L 62.3616 198.99202 
L 62.9568 200.83929 
L 63.552 201.107512 
L 64.1472 199.25997 
L 64.7424 195.28803 
L 66.528 179.411781 
L 67.1232 175.896663 
L 67.7184 173.719943 
L 68.3136 172.597128 
L 68.9088 172.178066 
L 69.504 172.168065 
L 70.6944 172.630527 
L 72.48 173.378067 
L 74.8608 174.027881 
L 76.6464 174.576362 
L 77.8368 175.158014 
L 79.0272 176.081749 
L 79.6224 176.741254 
L 80.2176 177.585192 
L 80.8128 178.666618 
L 81.408 180.052073 
L 82.0032 181.822872 
L 82.5984 184.073559 
L 83.1936 186.90332 
L 83.7888 190.39205 
L 84.9792 199.195927 
L 85.5744 203.828105 
L 86.1696 207.415175 
L 86.7648 208.439293 
L 87.36 205.468064 
L 87.9552 198.301359 
L 89.1456 179.420107 
L 89.7408 172.495548 
L 90.336 168.342 
L 90.9312 166.349665 
L 91.5264 165.67193 
L 92.1216 165.635304 
L 93.312 165.962154 
L 93.9072 165.964582 
L 94.5024 165.762716 
L 95.0976 165.333081 
L 95.6928 164.666834 
L 96.288 163.760833 
L 97.4784 161.235463 
L 98.6688 157.872639 
L 100.4544 152.658486 
L 101.0496 151.632367 
L 101.6448 151.409394 
L 102.24 152.195848 
L 102.8352 154.020387 
L 104.0256 159.745058 
L 105.216 165.363829 
L 105.8112 167.335264 
L 106.4064 168.653015 
L 107.0016 169.396989 
L 107.5968 169.689207 
L 108.192 169.648064 
L 108.7872 169.366388 
L 109.3824 168.905954 
L 110.5728 167.560983 
L 111.7632 165.650346 
L 112.9536 163.035631 
L 114.144 159.58266 
L 116.5248 151.629905 
L 117.12 150.487696 
L 117.7152 150.310526 
L 118.3104 151.347419 
L 118.9056 153.611157 
L 121.2864 166.598434 
L 121.8816 168.628914 
L 122.4768 169.909455 
L 123.072 170.573852 
L 123.6672 170.782913 
L 124.2624 170.676886 
L 124.8576 170.357764 
L 126.048 169.301615 
L 127.2384 167.784528 
L 128.4288 165.692708 
L 129.6192 162.789944 
L 130.8096 158.878693 
L 133.1904 149.891361 
L 133.7856 148.812735 
L 134.3808 149.01325 
L 134.976 150.754348 
L 135.5712 153.930276 
L 137.3568 165.983966 
L 137.952 168.805836 
L 138.5472 170.666948 
L 139.1424 171.710315 
L 139.7376 172.150709 
L 140.3328 172.189272 
L 140.928 171.978347 
L 142.1184 171.161321 
L 143.3088 170.033402 
L 144.4992 168.548897 
L 145.6896 166.478912 
L 146.88 163.496541 
L 148.0704 159.27377 
L 149.2608 153.816474 
L 150.4512 148.380661 
L 151.0464 146.722051 
L 151.6416 146.590307 
L 152.2368 148.452294 
L 152.832 152.277189 
L 154.6176 167.308366 
L 155.2128 170.66312 
L 155.808 172.765385 
L 156.4032 173.86744 
L 156.9984 174.288623 
L 157.5936 174.302629 
L 158.784 173.812094 
L 162.9504 171.542689 
L 164.1408 170.542085 
L 165.3312 169.022068 
L 165.9264 167.964942 
L 166.5216 166.637347 
L 167.1168 164.97245 
L 167.712 162.89583 
L 168.3072 160.334153 
L 169.4976 153.61598 
L 170.688 145.691532 
L 171.2832 142.579672 
L 171.8784 141.416548 
L 172.4736 143.297959 
L 173.0688 148.550343 
L 174.8544 170.669187 
L 175.4496 175.066517 
L 176.0448 177.504661 
L 176.64 178.575317 
L 177.2352 178.861696 
L 178.4256 178.619689 
L 179.0208 178.504125 
L 179.616 178.518612 
L 180.2112 178.700857 
L 180.8064 179.070301 
L 181.4016 179.640735 
L 181.9968 180.427296 
L 182.592 181.449606 
L 183.1872 182.731864 
L 184.3776 186.173722 
L 185.568 190.803463 
L 186.7584 195.938556 
L 187.3536 198.030501 
L 187.9488 199.187598 
L 188.544 198.90157 
L 189.1392 196.873721 
L 189.7344 193.25042 
L 191.52 180.067587 
L 192.1152 177.16421 
L 192.7104 175.324712 
L 193.3056 174.347314 
L 193.9008 173.975061 
L 194.496 173.983845 
L 195.6864 174.557721 
L 197.472 175.907539 
L 198.6624 177.074626 
L 199.8528 178.674162 
L 200.448 179.729305 
L 201.0432 181.016509 
L 201.6384 182.588577 
L 202.2336 184.49951 
L 203.424 189.495798 
L 205.8048 201.386412 
L 206.4 202.316401 
L 206.9952 201.026389 
L 207.5904 197.270841 
L 209.9712 175.703235 
L 210.5664 173.116418 
L 211.1616 171.761192 
L 211.7568 171.228005 
L 212.352 171.164709 
L 213.5424 171.55258 
L 214.7328 171.922585 
L 215.9232 172.008548 
L 217.1136 171.77477 
L 218.304 171.195509 
L 219.4944 170.173662 
L 220.0896 169.436964 
L 220.6848 168.500634 
L 221.28 167.314878 
L 221.8752 165.818594 
L 222.4704 163.940455 
L 223.0656 161.604263 
L 223.6608 158.74335 
L 224.8512 151.448039 
L 226.0416 143.703885 
L 226.6368 141.450676 
L 227.232 141.817167 
L 227.8272 145.607199 
L 228.4224 152.438326 
L 229.6128 168.056404 
L 230.208 173.504358 
L 230.8032 176.78753 
L 231.3984 178.398814 
L 231.9936 178.970722 
L 232.5888 179.013148 
L 234.3744 178.670039 
L 234.9696 178.786491 
L 235.5648 179.08749 
L 236.16 179.588187 
L 236.7552 180.30245 
L 237.3504 181.247412 
L 237.9456 182.444588 
L 239.136 185.687534 
L 240.3264 190.104537 
L 242.112 197.343442 
L 242.7072 198.751663 
L 243.3024 198.876291 
L 243.8976 197.356196 
L 244.4928 194.205652 
L 246.2784 181.229342 
L 246.8736 178.079822 
L 247.4688 175.98646 
L 248.064 174.800513 
L 248.6592 174.280836 
L 249.2544 174.1979 
L 249.8496 174.376947 
L 251.04 175.111939 
L 252.2304 176.083842 
L 253.4208 177.30354 
L 254.6112 178.970631 
L 255.2064 180.065068 
L 255.8016 181.39471 
L 256.3968 183.010678 
L 257.5872 187.290984 
L 258.7776 193.030914 
L 259.968 199.128313 
L 260.5632 201.229633 
L 261.1584 201.756814 
L 261.7536 200.082819 
L 262.3488 196.109996 
L 264.1344 179.399871 
L 264.7296 175.638653 
L 265.3248 173.310767 
L 265.92 172.111467 
L 266.5152 171.659837 
L 267.1104 171.635542 
L 268.3008 172.063029 
L 269.4912 172.499806 
L 270.6816 172.724212 
L 271.872 172.733179 
L 273.0624 172.549041 
L 274.2528 172.156244 
L 275.4432 171.479613 
L 276.6336 170.363227 
L 277.2288 169.560563 
L 277.824 168.533075 
L 278.4192 167.218816 
L 279.0144 165.541666 
L 279.6096 163.412357 
L 280.2048 160.735384 
L 280.8 157.428901 
L 281.9904 148.985462 
L 283.1808 140.588656 
L 283.776 138.951529 
L 284.3712 140.950364 
L 284.9664 147.114929 
L 286.752 172.868016 
L 287.3472 177.556193 
L 287.9424 179.961006 
L 288.5376 180.888855 
L 289.1328 181.045366 
L 290.9184 180.686055 
L 291.5136 180.825265 
L 292.1088 181.183394 
L 292.704 181.773582 
L 293.2992 182.602443 
L 293.8944 183.674354 
L 295.0848 186.544229 
L 296.8704 192.184706 
L 297.4656 194.000616 
L 298.0608 195.416719 
L 298.656 196.125225 
L 299.2512 195.841986 
L 299.8464 194.421482 
L 300.4416 191.962416 
L 302.2272 182.518172 
L 302.8224 180.132211 
L 303.4176 178.458502 
L 304.0128 177.443256 
L 304.608 176.959166 
L 305.2032 176.86802 
L 305.7984 177.054543 
L 306.3936 177.43765 
L 307.584 178.628237 
L 308.7744 180.337978 
L 309.9648 182.697357 
L 311.1552 185.904368 
L 312.3456 190.00153 
L 313.536 194.415516 
L 314.1312 196.22234 
L 314.7264 197.299564 
L 315.3216 197.266687 
L 315.9168 195.876978 
L 316.512 193.178237 
L 318.8928 179.378863 
L 319.488 177.451566 
L 320.0832 176.303442 
L 320.6784 175.762228 
L 321.2736 175.648616 
L 321.8688 175.817682 
L 323.0592 176.647032 
L 324.2496 177.894612 
L 325.44 179.589259 
L 326.6304 181.949807 
L 327.8208 185.266255 
L 329.0112 189.7191 
L 330.7968 197.220765 
L 331.392 198.830601 
L 331.9872 199.19884 
L 332.5824 197.910081 
L 333.1776 194.905216 
L 335.5584 178.254681 
L 336.1536 175.991322 
L 336.7488 174.686455 
L 337.344 174.092311 
L 337.9392 173.96549 
L 338.5344 174.117742 
L 339.7248 174.81195 
L 341.5104 176.246649 
L 342.7008 177.523073 
L 343.8912 179.317202 
L 344.4864 180.510875 
L 345.0816 181.968509 
L 345.6768 183.744132 
L 346.8672 188.432539 
L 348.0576 194.576796 
L 349.248 200.571224 
L 349.8432 202.151763 
L 350.4384 201.763582 
L 351.0336 198.926975 
L 351.6288 193.897187 
L 352.8192 181.80655 
L 353.4144 177.109693 
L 354.0096 173.969051 
L 354.6048 172.196171 
L 355.2 171.397295 
L 355.7952 171.189788 
L 356.3904 171.286827 
L 358.176 171.915614 
L 359.3664 172.07252 
L 360.5568 171.919655 
L 361.7472 171.441684 
L 362.9376 170.56472 
L 363.5328 169.926889 
L 364.128 169.113872 
L 364.7232 168.081851 
L 365.3184 166.775882 
L 365.9136 165.129656 
L 366.5088 163.067839 
L 367.104 160.514292 
L 368.2944 153.767172 
L 369.4848 145.680258 
L 370.08 142.415044 
L 370.6752 141.073118 
L 371.2704 142.813171 
L 371.8656 148.040677 
L 373.6512 170.704679 
L 374.2464 175.248657 
L 374.8416 177.765095 
L 375.4368 178.867229 
L 376.032 179.16147 
L 377.2224 178.920335 
L 377.8176 178.810684 
L 378.4128 178.837995 
L 379.008 179.040719 
L 379.6032 179.438519 
L 380.1984 180.045113 
L 380.7936 180.87521 
L 381.3888 181.947352 
L 381.984 183.283428 
L 383.1744 186.823307 
L 384.3648 191.455426 
L 385.5552 196.305399 
L 386.1504 198.079492 
L 386.7456 198.807349 
L 387.3408 198.052451 
L 387.936 195.645036 
L 389.1264 187.399848 
L 390.3168 179.524176 
L 390.912 176.991527 
L 391.5072 175.432677 
L 392.1024 174.641266 
L 392.6976 174.381837 
L 393.2928 174.457497 
L 394.4832 175.114062 
L 395.6736 176.075047 
L 396.864 177.287916 
L 398.0544 178.926305 
L 399.2448 181.284847 
L 399.84 182.849557 
L 401.0304 186.982792 
L 402.2208 192.531792 
L 403.4112 198.520404 
L 404.0064 200.693982 
L 404.6016 201.436063 
L 405.1968 200.116912 
L 405.792 196.558652 
L 408.1728 176.424904 
L 408.768 173.929176 
L 409.3632 172.5862 
L 409.9584 172.034851 
L 410.5536 171.954326 
L 411.744 172.367124 
L 413.5296 173.071729 
L 414.72 173.349192 
L 414.72 173.349192 
" clip-path="url(#pec49cb6eda)" style="fill: none; stroke-dasharray: 9.6,2.4,1.5,2.4; stroke-dashoffset: 0; stroke: #ff0000; stroke-width: 1.5"/>
   </g>
   <g id="patch_8">
    <path d="M 57.6 213.662118 
L 57.6 135.393882 
" style="fill: none; stroke: #000000; stroke-width: 0.8; stroke-linejoin: miter; stroke-linecap: square"/>
   </g>
   <g id="patch_9">
    <path d="M 414.72 213.662118 
L 414.72 135.393882 
" style="fill: none; stroke: #000000; stroke-width: 0.8; stroke-linejoin: miter; stroke-linecap: square"/>
   </g>
   <g id="patch_10">
    <path d="M 57.6 213.662118 
L 414.72 213.662118 
" style="fill: none; stroke: #000000; stroke-width: 0.8; stroke-linejoin: miter; stroke-linecap: square"/>
   </g>
   <g id="patch_11">
    <path d="M 57.6 135.393882 
L 414.72 135.393882 
" style="fill: none; stroke: #000000; stroke-width: 0.8; stroke-linejoin: miter; stroke-linecap: square"/>
   </g>
  </g>
  <g id="axes_3">
   <g id="patch_12">
    <path d="M 57.6 307.584 
L 414.72 307.584 
L 414.72 229.315765 
L 57.6 229.315765 
z
" style="fill: #ffffff"/>
   </g>
   <g id="matplotlib.axis_5">
    <g id="xtick_19">
     <g id="line2d_29">
      <g>
       <use xlink:href="#m4382e556b2" x="57.6" y="307.584" style="stroke: #000000; stroke-width: 0.8"/>
      </g>
     </g>
     <g id="text_7">
      <!-- 10 -->
      <g transform="translate(51.2375 322.182437) scale(0.1 -0.1)">
       <use xlink:href="#DejaVuSans-31"/>
       <use xlink:href="#DejaVuSans-30" x="63.623047"/>
      </g>
     </g>
    </g>
    <g id="xtick_20">
     <g id="line2d_30">
      <g>
       <use xlink:href="#m4382e556b2" x="105.216" y="307.584" style="stroke: #000000; stroke-width: 0.8"/>
      </g>
     </g>
     <g id="text_8">
      <!-- 12 -->
      <g transform="translate(98.8535 322.182437) scale(0.1 -0.1)">
       <use xlink:href="#DejaVuSans-31"/>
       <use xlink:href="#DejaVuSans-32" x="63.623047"/>
      </g>
     </g>
    </g>
    <g id="xtick_21">
     <g id="line2d_31">
      <g>
       <use xlink:href="#m4382e556b2" x="152.832" y="307.584" style="stroke: #000000; stroke-width: 0.8"/>
      </g>
     </g>
     <g id="text_9">
      <!-- 14 -->
      <g transform="translate(146.4695 322.182437) scale(0.1 -0.1)">
       <defs>
        <path id="DejaVuSans-34" d="M 2419 4116 
L 825 1625 
L 2419 1625 
L 2419 4116 
z
M 2253 4666 
L 3047 4666 
L 3047 1625 
L 3713 1625 
L 3713 1100 
L 3047 1100 
L 3047 0 
L 2419 0 
L 2419 1100 
L 313 1100 
L 313 1709 
L 2253 4666 
z
" transform="scale(0.015625)"/>
       </defs>
       <use xlink:href="#DejaVuSans-31"/>
       <use xlink:href="#DejaVuSans-34" x="63.623047"/>
      </g>
     </g>
    </g>
    <g id="xtick_22">
     <g id="line2d_32">
      <g>
       <use xlink:href="#m4382e556b2" x="200.448" y="307.584" style="stroke: #000000; stroke-width: 0.8"/>
      </g>
     </g>
     <g id="text_10">
      <!-- 16 -->
      <g transform="translate(194.0855 322.182437) scale(0.1 -0.1)">
       <defs>
        <path id="DejaVuSans-36" d="M 2113 2584 
Q 1688 2584 1439 2293 
Q 1191 2003 1191 1497 
Q 1191 994 1439 701 
Q 1688 409 2113 409 
Q 2538 409 2786 701 
Q 3034 994 3034 1497 
Q 3034 2003 2786 2293 
Q 2538 2584 2113 2584 
z
M 3366 4563 
L 3366 3988 
Q 3128 4100 2886 4159 
Q 2644 4219 2406 4219 
Q 1781 4219 1451 3797 
Q 1122 3375 1075 2522 
Q 1259 2794 1537 2939 
Q 1816 3084 2150 3084 
Q 2853 3084 3261 2657 
Q 3669 2231 3669 1497 
Q 3669 778 3244 343 
Q 2819 -91 2113 -91 
Q 1303 -91 875 529 
Q 447 1150 447 2328 
Q 447 3434 972 4092 
Q 1497 4750 2381 4750 
Q 2619 4750 2861 4703 
Q 3103 4656 3366 4563 
z
" transform="scale(0.015625)"/>
       </defs>
       <use xlink:href="#DejaVuSans-31"/>
       <use xlink:href="#DejaVuSans-36" x="63.623047"/>
      </g>
     </g>
    </g>
    <g id="xtick_23">
     <g id="line2d_33">
      <g>
       <use xlink:href="#m4382e556b2" x="248.064" y="307.584" style="stroke: #000000; stroke-width: 0.8"/>
      </g>
     </g>
     <g id="text_11">
      <!-- 18 -->
      <g transform="translate(241.7015 322.182437) scale(0.1 -0.1)">
       <defs>
        <path id="DejaVuSans-38" d="M 2034 2216 
Q 1584 2216 1326 1975 
Q 1069 1734 1069 1313 
Q 1069 891 1326 650 
Q 1584 409 2034 409 
Q 2484 409 2743 651 
Q 3003 894 3003 1313 
Q 3003 1734 2745 1975 
Q 2488 2216 2034 2216 
z
M 1403 2484 
Q 997 2584 770 2862 
Q 544 3141 544 3541 
Q 544 4100 942 4425 
Q 1341 4750 2034 4750 
Q 2731 4750 3128 4425 
Q 3525 4100 3525 3541 
Q 3525 3141 3298 2862 
Q 3072 2584 2669 2484 
Q 3125 2378 3379 2068 
Q 3634 1759 3634 1313 
Q 3634 634 3220 271 
Q 2806 -91 2034 -91 
Q 1263 -91 848 271 
Q 434 634 434 1313 
Q 434 1759 690 2068 
Q 947 2378 1403 2484 
z
M 1172 3481 
Q 1172 3119 1398 2916 
Q 1625 2713 2034 2713 
Q 2441 2713 2670 2916 
Q 2900 3119 2900 3481 
Q 2900 3844 2670 4047 
Q 2441 4250 2034 4250 
Q 1625 4250 1398 4047 
Q 1172 3844 1172 3481 
z
" transform="scale(0.015625)"/>
       </defs>
       <use xlink:href="#DejaVuSans-31"/>
       <use xlink:href="#DejaVuSans-38" x="63.623047"/>
      </g>
     </g>
    </g>
    <g id="xtick_24">
     <g id="line2d_34">
      <g>
       <use xlink:href="#m4382e556b2" x="295.68" y="307.584" style="stroke: #000000; stroke-width: 0.8"/>
      </g>
     </g>
     <g id="text_12">
      <!-- 20 -->
      <g transform="translate(289.3175 322.182437) scale(0.1 -0.1)">
       <use xlink:href="#DejaVuSans-32"/>
       <use xlink:href="#DejaVuSans-30" x="63.623047"/>
      </g>
     </g>
    </g>
    <g id="xtick_25">
     <g id="line2d_35">
      <g>
       <use xlink:href="#m4382e556b2" x="343.296" y="307.584" style="stroke: #000000; stroke-width: 0.8"/>
      </g>
     </g>
     <g id="text_13">
      <!-- 22 -->
      <g transform="translate(336.9335 322.182437) scale(0.1 -0.1)">
       <use xlink:href="#DejaVuSans-32"/>
       <use xlink:href="#DejaVuSans-32" x="63.623047"/>
      </g>
     </g>
    </g>
    <g id="xtick_26">
     <g id="line2d_36">
      <g>
       <use xlink:href="#m4382e556b2" x="390.912" y="307.584" style="stroke: #000000; stroke-width: 0.8"/>
      </g>
     </g>
     <g id="text_14">
      <!-- 24 -->
      <g transform="translate(384.5495 322.182437) scale(0.1 -0.1)">
       <use xlink:href="#DejaVuSans-32"/>
       <use xlink:href="#DejaVuSans-34" x="63.623047"/>
      </g>
     </g>
    </g>
    <g id="xtick_27">
     <g id="line2d_37">
      <g>
       <use xlink:href="#m4382e556b2" x="414.72" y="307.584" style="stroke: #000000; stroke-width: 0.8"/>
      </g>
     </g>
     <g id="text_15">
      <!-- 25 -->
      <g transform="translate(408.3575 322.182437) scale(0.1 -0.1)">
       <defs>
        <path id="DejaVuSans-35" d="M 691 4666 
L 3169 4666 
L 3169 4134 
L 1269 4134 
L 1269 2991 
Q 1406 3038 1543 3061 
Q 1681 3084 1819 3084 
Q 2600 3084 3056 2656 
Q 3513 2228 3513 1497 
Q 3513 744 3044 326 
Q 2575 -91 1722 -91 
Q 1428 -91 1123 -41 
Q 819 9 494 109 
L 494 744 
Q 775 591 1075 516 
Q 1375 441 1709 441 
Q 2250 441 2565 725 
Q 2881 1009 2881 1497 
Q 2881 1984 2565 2268 
Q 2250 2553 1709 2553 
Q 1456 2553 1204 2497 
Q 953 2441 691 2322 
L 691 4666 
z
" transform="scale(0.015625)"/>
       </defs>
       <use xlink:href="#DejaVuSans-32"/>
       <use xlink:href="#DejaVuSans-35" x="63.623047"/>
      </g>
     </g>
    </g>
   </g>
   <g id="matplotlib.axis_6">
    <g id="ytick_7">
     <g id="line2d_38">
      <g>
       <use xlink:href="#mf97d1d40ee" x="57.6" y="278.090726" style="stroke: #000000; stroke-width: 0.8"/>
      </g>
     </g>
     <g id="text_16">
      <!-- 20 -->
      <g transform="translate(37.875 281.889945) scale(0.1 -0.1)">
       <use xlink:href="#DejaVuSans-32"/>
       <use xlink:href="#DejaVuSans-30" x="63.623047"/>
      </g>
     </g>
    </g>
    <g id="ytick_8">
     <g id="line2d_39">
      <g>
       <use xlink:href="#mf97d1d40ee" x="57.6" y="240.120343" style="stroke: #000000; stroke-width: 0.8"/>
      </g>
     </g>
     <g id="text_17">
      <!-- 40 -->
      <g transform="translate(37.875 243.919562) scale(0.1 -0.1)">
       <use xlink:href="#DejaVuSans-34"/>
       <use xlink:href="#DejaVuSans-30" x="63.623047"/>
      </g>
     </g>
    </g>
   </g>
   <g id="line2d_40">
    <path d="M 57.6 286.781352 
L 58.1952 287.975171 
L 58.7904 288.477204 
L 59.9808 289.15126 
L 60.576 288.451292 
L 61.1712 286.272313 
L 61.7664 283.256902 
L 62.3616 278.133293 
L 63.552 263.718901 
L 64.7424 249.079404 
L 65.3376 244.287437 
L 65.9328 242.940701 
L 66.528 244.890594 
L 67.1232 247.676136 
L 67.7184 251.473183 
L 69.504 264.309867 
L 71.2896 273.475414 
L 73.6704 283.802965 
L 74.8608 287.811586 
L 77.2416 294.064684 
L 77.8368 294.979882 
L 79.0272 298.027421 
L 79.6224 299.296291 
L 80.2176 299.780558 
L 81.408 301.785214 
L 82.0032 303.299047 
L 82.5984 303.226082 
L 83.1936 304.026353 
L 83.7888 303.718656 
L 84.384 303.253533 
L 84.9792 302.600852 
L 85.5744 300.007141 
L 86.1696 295.846828 
L 86.7648 289.322256 
L 87.36 279.476301 
L 87.9552 267.624782 
L 89.1456 240.705813 
L 89.7408 233.875725 
L 90.336 232.873412 
L 90.9312 236.491192 
L 92.7168 254.057362 
L 93.9072 262.792422 
L 95.0976 269.059456 
L 95.6928 271.444826 
L 96.288 273.307167 
L 96.8832 274.355545 
L 97.4784 276.122342 
L 98.0736 277.363552 
L 98.6688 277.544619 
L 99.264 277.466208 
L 99.8592 277.04 
L 100.4544 275.69089 
L 101.6448 270.672536 
L 102.24 267.239944 
L 103.4304 259.18766 
L 104.0256 255.436249 
L 105.216 252.925722 
L 105.8112 252.54191 
L 106.4064 253.669878 
L 107.0016 256.723868 
L 107.5968 258.111993 
L 108.192 260.302991 
L 108.7872 263.822128 
L 109.9776 268.11103 
L 111.168 272.597597 
L 112.3584 276.322147 
L 112.9536 277.441058 
L 113.5488 279.026234 
L 114.144 278.97812 
L 114.7392 279.400926 
L 115.3344 278.907276 
L 115.9296 278.250507 
L 116.5248 274.94075 
L 117.12 272.672987 
L 120.096 252.92086 
L 121.2864 251.459408 
L 122.4768 254.347651 
L 123.6672 259.468182 
L 124.8576 265.760688 
L 127.8336 277.234508 
L 128.4288 278.303212 
L 129.024 279.826331 
L 129.6192 280.74445 
L 130.2144 281.341671 
L 130.8096 280.907035 
L 131.4048 279.747626 
L 132 279.201033 
L 133.1904 272.695897 
L 135.5712 254.0506 
L 136.1664 251.17484 
L 136.7616 249.606677 
L 137.3568 250.19893 
L 138.5472 253.819981 
L 139.7376 260.457731 
L 142.7136 274.631512 
L 143.3088 276.129719 
L 145.0944 281.621637 
L 145.6896 282.792367 
L 146.2848 283.277245 
L 146.88 283.517211 
L 147.4752 283.103861 
L 148.6656 279.427766 
L 149.2608 276.024847 
L 150.4512 265.804233 
L 151.6416 254.593023 
L 152.2368 249.856063 
L 152.832 248.63057 
L 153.4272 248.054755 
L 154.0224 249.934873 
L 154.6176 252.382774 
L 158.1888 271.234562 
L 158.784 274.341897 
L 159.3792 276.361642 
L 159.9744 278.902385 
L 162.3552 285.941122 
L 163.5456 287.273107 
L 164.736 286.559919 
L 165.9264 281.58554 
L 166.5216 277.109945 
L 167.712 264.188006 
L 168.3072 256.828072 
L 168.9024 251.088617 
L 169.4976 246.760256 
L 170.0928 244.835335 
L 170.688 245.392082 
L 172.4736 255.669957 
L 173.0688 260.194983 
L 173.664 263.119513 
L 174.2592 267.115895 
L 175.4496 272.970128 
L 177.8304 283.39205 
L 178.4256 284.740161 
L 179.616 288.476835 
L 180.2112 289.939934 
L 180.8064 291.099077 
L 181.4016 291.94645 
L 181.9968 293.447819 
L 182.592 293.440959 
L 183.1872 293.259835 
L 183.7824 292.420358 
L 184.3776 290.183673 
L 184.9728 286.411543 
L 185.568 281.848719 
L 186.1632 274.258555 
L 187.9488 247.086664 
L 188.544 241.42223 
L 189.1392 240.437561 
L 189.7344 241.033243 
L 190.3296 244.86466 
L 190.9248 250.505017 
L 192.7104 264.127403 
L 193.9008 270.06289 
L 194.496 273.757762 
L 195.0912 276.391776 
L 196.2816 280.557826 
L 196.8768 283.314411 
L 197.472 285.050481 
L 198.0672 286.062457 
L 198.6624 287.982955 
L 199.8528 290.303083 
L 200.448 290.016685 
L 201.0432 290.203047 
L 201.6384 289.671757 
L 202.2336 287.773512 
L 202.8288 284.428617 
L 203.424 279.507098 
L 204.0192 273.166041 
L 205.8048 249.154702 
L 206.4 243.571391 
L 206.9952 242.106441 
L 207.5904 243.626441 
L 208.1856 246.640108 
L 208.7808 251.666043 
L 212.352 273.379722 
L 212.9472 276.138478 
L 213.5424 278.36049 
L 214.1376 281.143795 
L 214.7328 283.015366 
L 215.9232 287.92952 
L 216.5184 289.537572 
L 217.1136 290.454616 
L 217.7088 292.274498 
L 218.304 293.479531 
L 218.8992 295.269886 
L 220.0896 297.05367 
L 220.6848 297.25185 
L 221.28 298.024193 
L 222.4704 297.658659 
L 223.0656 295.317902 
L 223.6608 291.887488 
L 224.256 286.658844 
L 224.8512 278.848612 
L 226.0416 257.066042 
L 226.6368 245.682453 
L 227.232 239.123653 
L 227.8272 236.448618 
L 228.4224 238.221206 
L 229.0176 242.357314 
L 230.208 253.477597 
L 231.9936 266.488453 
L 232.5888 268.851969 
L 233.184 271.978144 
L 234.9696 278.896355 
L 235.5648 281.134446 
L 236.16 281.704773 
L 236.7552 283.292786 
L 237.3504 283.558697 
L 237.9456 284.063301 
L 238.5408 283.556023 
L 239.7312 279.144363 
L 240.9216 270.327997 
L 241.5168 264.861757 
L 242.7072 252.901257 
L 243.3024 248.964648 
L 244.4928 248.004925 
L 245.6832 252.790058 
L 246.2784 255.885554 
L 247.4688 262.94041 
L 248.064 266.462384 
L 250.4448 277.6035 
L 251.6352 281.489126 
L 253.4208 286.39027 
L 254.6112 287.385862 
L 255.2064 287.586922 
L 255.8016 286.947085 
L 256.992 282.622201 
L 257.5872 277.536946 
L 258.7776 264.46164 
L 259.968 250.961653 
L 260.5632 246.036837 
L 261.1584 244.652355 
L 261.7536 245.323137 
L 262.3488 247.643952 
L 264.7296 263.314886 
L 265.3248 266.392585 
L 265.92 270.248044 
L 268.3008 280.39968 
L 268.896 282.247343 
L 269.4912 285.025703 
L 271.2768 290.811158 
L 271.872 291.395913 
L 272.4672 293.164467 
L 273.0624 294.376887 
L 273.6576 294.118342 
L 274.2528 295.211788 
L 274.848 295.662207 
L 275.4432 295.224955 
L 276.6336 289.934117 
L 277.2288 285.165775 
L 277.824 278.163541 
L 278.4192 269.458742 
L 279.6096 248.821031 
L 280.2048 241.336691 
L 280.8 238.292215 
L 281.3952 239.495846 
L 281.9904 242.512993 
L 283.776 257.900329 
L 284.3712 262.562734 
L 286.752 274.998489 
L 287.3472 277.076175 
L 287.9424 279.937623 
L 288.5376 281.459746 
L 289.1328 283.538506 
L 289.728 285.064516 
L 290.9184 287.248667 
L 292.704 286.402175 
L 293.2992 283.809314 
L 293.8944 280.500046 
L 294.4896 276.02246 
L 296.8704 249.504897 
L 297.4656 245.352772 
L 298.0608 243.960883 
L 298.656 245.905572 
L 299.8464 252.842491 
L 300.4416 257.000264 
L 301.0368 260.299042 
L 302.2272 267.540557 
L 302.8224 270.297949 
L 303.4176 274.177448 
L 304.608 279.007772 
L 305.2032 280.807382 
L 305.7984 283.943579 
L 309.3696 293.376464 
L 309.9648 294.291203 
L 310.56 294.53181 
L 311.1552 295.508113 
L 311.7504 295.229706 
L 312.3456 293.732924 
L 312.9408 291.217047 
L 313.536 287.292299 
L 314.1312 280.802826 
L 314.7264 272.831682 
L 316.512 243.698501 
L 317.1072 239.328102 
L 317.7024 238.989548 
L 318.2976 241.43223 
L 319.488 251.375415 
L 321.8688 268.767636 
L 322.464 270.704213 
L 323.0592 274.317018 
L 324.2496 278.873224 
L 324.8448 280.359326 
L 325.44 283.461685 
L 326.0352 284.435628 
L 326.6304 286.31562 
L 327.2256 287.704153 
L 327.8208 287.456405 
L 328.416 288.536894 
L 329.6064 286.197615 
L 330.2016 284.28812 
L 331.392 275.045692 
L 331.9872 268.273895 
L 333.1776 252.247107 
L 333.7728 247.120783 
L 334.368 243.727231 
L 334.9632 244.073232 
L 336.1536 249.813166 
L 336.7488 254.345307 
L 340.32 274.488263 
L 340.9152 277.531045 
L 341.5104 279.357304 
L 342.7008 284.172767 
L 343.296 286.020409 
L 343.8912 288.605233 
L 344.4864 289.73871 
L 346.272 294.256501 
L 346.8672 295.577998 
L 348.0576 296.873795 
L 348.6528 296.962834 
L 349.248 296.221293 
L 349.8432 295.831004 
L 350.4384 292.992783 
L 351.0336 288.541716 
L 351.6288 282.867426 
L 352.224 274.048759 
L 354.0096 242.623293 
L 354.6048 238.007861 
L 355.2 237.038377 
L 355.7952 240.387996 
L 357.5808 255.770795 
L 359.9616 270.823949 
L 360.5568 273.555793 
L 361.152 275.495869 
L 361.7472 278.575749 
L 362.3424 280.367869 
L 364.128 284.34613 
L 364.7232 284.323023 
L 365.3184 285.312824 
L 365.9136 284.747256 
L 366.5088 283.768411 
L 367.104 280.896418 
L 367.6992 277.118839 
L 368.8896 265.854137 
L 370.08 253.100547 
L 370.6752 248.207556 
L 371.2704 246.336122 
L 371.8656 246.383994 
L 372.4608 247.960159 
L 373.6512 254.983022 
L 376.032 269.300446 
L 376.6272 271.49301 
L 377.2224 274.769318 
L 378.4128 279.069114 
L 379.008 281.053048 
L 379.6032 283.862871 
L 380.7936 287.552605 
L 381.984 289.982125 
L 382.5792 290.389089 
L 383.1744 289.850518 
L 383.7696 290.359083 
L 384.3648 288.198235 
L 384.96 285.575011 
L 385.5552 281.92229 
L 386.7456 269.282397 
L 387.936 252.029452 
L 388.5312 245.728098 
L 389.1264 242.420219 
L 389.7216 242.763049 
L 390.3168 245.015371 
L 391.5072 253.102642 
L 392.6976 262.106106 
L 396.2688 280.246323 
L 397.4592 284.496777 
L 398.0544 286.025152 
L 398.6496 288.110638 
L 399.2448 290.835776 
L 399.84 291.771426 
L 402.2208 297.245623 
L 402.816 298.185632 
L 404.0064 299.188123 
L 404.6016 300.265559 
L 405.1968 299.352436 
L 405.792 298.848858 
L 406.3872 296.930752 
L 406.9824 293.253822 
L 407.5776 287.147101 
L 408.1728 278.900229 
L 410.5536 236.659825 
L 411.1488 234.671868 
L 411.744 237.690468 
L 414.1248 258.866948 
L 414.72 262.626614 
L 414.72 262.626614 
" clip-path="url(#pc12837bc44)" style="fill: none; stroke: #0000cc; stroke-width: 1.5; stroke-linecap: square"/>
   </g>
   <g id="line2d_41">
    <path d="M 57.6 286.781352 
L 58.1952 287.943142 
L 58.7904 288.754047 
L 59.3856 289.110534 
L 59.9808 288.86371 
L 60.576 287.809512 
L 61.1712 285.688908 
L 61.7664 282.215983 
L 62.3616 277.162165 
L 63.552 262.734582 
L 64.7424 248.231267 
L 65.3376 244.215719 
L 65.9328 243.2581 
L 66.528 244.912888 
L 67.1232 248.231046 
L 69.504 264.236608 
L 70.6944 270.858326 
L 71.8848 276.541172 
L 73.0752 281.47714 
L 74.8608 287.73373 
L 76.6464 292.841092 
L 77.8368 295.697039 
L 79.0272 298.144509 
L 80.2176 300.156027 
L 81.408 301.580969 
L 82.0032 301.949877 
L 82.5984 301.951875 
L 83.1936 301.401158 
L 83.7888 300.006429 
L 84.384 297.333975 
L 84.9792 292.79543 
L 85.5744 285.730619 
L 86.1696 275.709913 
L 87.9552 239.262203 
L 88.5504 233.914664 
L 89.1456 234.340765 
L 89.7408 238.717006 
L 91.5264 255.803692 
L 92.7168 263.97694 
L 93.9072 269.974902 
L 95.0976 274.505794 
L 96.288 277.717602 
L 96.8832 278.766141 
L 97.4784 279.367108 
L 98.0736 279.436908 
L 98.6688 278.873344 
L 99.264 277.56558 
L 99.8592 275.417196 
L 100.4544 272.387744 
L 101.6448 264.160974 
L 102.8352 255.652944 
L 103.4304 252.698469 
L 104.0256 251.169652 
L 104.6208 251.121467 
L 105.216 252.329917 
L 105.8112 254.428075 
L 107.0016 259.898201 
L 108.7872 268.290872 
L 109.9776 273.128322 
L 111.168 277.119234 
L 112.3584 280.039997 
L 112.9536 280.980587 
L 113.5488 281.475414 
L 114.144 281.420864 
L 114.7392 280.689786 
L 115.3344 279.140996 
L 115.9296 276.645699 
L 116.5248 273.139168 
L 117.7152 263.625771 
L 118.9056 253.992424 
L 119.5008 250.848269 
L 120.096 249.43782 
L 120.6912 249.73929 
L 121.2864 251.403874 
L 122.4768 256.964214 
L 124.8576 269.098798 
L 126.048 274.204805 
L 127.2384 278.48256 
L 128.4288 281.78562 
L 129.024 282.978893 
L 129.6192 283.781171 
L 130.2144 284.095624 
L 130.8096 283.792742 
L 131.4048 282.709925 
L 132 280.66369 
L 132.5952 277.48685 
L 133.1904 273.104006 
L 134.3808 261.5632 
L 134.976 255.648062 
L 135.5712 250.858263 
L 136.1664 247.968142 
L 136.7616 247.254263 
L 137.3568 248.449516 
L 137.952 250.970468 
L 139.7376 261.202132 
L 141.5232 270.656886 
L 142.7136 275.955368 
L 143.904 280.471024 
L 145.0944 284.16021 
L 146.2848 286.833304 
L 146.88 287.657261 
L 147.4752 288.013767 
L 148.0704 287.757138 
L 148.6656 286.690805 
L 149.2608 284.570605 
L 149.856 281.136137 
L 150.4512 276.195308 
L 151.6416 262.348187 
L 152.832 248.712057 
L 153.4272 244.980158 
L 154.0224 244.105658 
L 154.6176 245.677846 
L 155.2128 248.832536 
L 158.1888 267.748293 
L 159.3792 273.810254 
L 160.5696 279.058682 
L 161.76 283.625383 
L 162.9504 287.588914 
L 164.1408 290.987125 
L 165.3312 293.799555 
L 166.5216 295.881807 
L 167.1168 296.532658 
L 167.712 296.798229 
L 168.3072 296.516647 
L 168.9024 295.443795 
L 169.4976 293.231062 
L 170.0928 289.425891 
L 170.688 283.543048 
L 171.2832 275.282621 
L 173.0688 244.274704 
L 173.664 238.518562 
L 174.2592 237.43369 
L 174.8544 240.119406 
L 177.8304 263.65421 
L 179.0208 270.31366 
L 180.2112 275.707935 
L 181.4016 280.080965 
L 182.592 283.40423 
L 183.1872 284.592808 
L 183.7824 285.3806 
L 184.3776 285.665585 
L 184.9728 285.307117 
L 185.568 284.123707 
L 186.1632 281.904495 
L 186.7584 278.449634 
L 187.3536 273.657543 
L 188.544 260.978168 
L 189.1392 254.523883 
L 189.7344 249.407099 
L 190.3296 246.48728 
L 190.9248 246.006478 
L 191.52 247.575126 
L 192.1152 250.482228 
L 195.0912 268.146866 
L 196.2816 273.973353 
L 197.472 279.012322 
L 198.6624 283.323799 
L 199.8528 286.889923 
L 201.0432 289.562081 
L 201.6384 290.449632 
L 202.2336 290.923403 
L 202.8288 290.843172 
L 203.424 290.008873 
L 204.0192 288.152379 
L 204.6144 284.951187 
L 205.2096 280.094407 
L 205.8048 273.439616 
L 207.5904 248.747957 
L 208.1856 243.548046 
L 208.7808 241.744817 
L 209.376 243.03304 
L 209.9712 246.368606 
L 212.352 263.254013 
L 213.5424 270.103649 
L 214.7328 275.913203 
L 215.9232 280.923999 
L 217.1136 285.270933 
L 218.304 289.029173 
L 219.4944 292.228201 
L 220.6848 294.826208 
L 221.28 295.848529 
L 221.8752 296.625337 
L 222.4704 297.073132 
L 223.0656 297.059286 
L 223.6608 296.379537 
L 224.256 294.732683 
L 224.8512 291.705442 
L 225.4464 286.801991 
L 226.0416 279.584977 
L 227.232 258.878441 
L 227.8272 248.154257 
L 228.4224 240.342096 
L 229.0176 237.11623 
L 229.6128 238.317167 
L 230.208 242.394589 
L 231.9936 257.658991 
L 233.184 265.586852 
L 234.3744 271.835129 
L 235.5648 276.901054 
L 236.7552 280.940847 
L 237.9456 283.842576 
L 238.5408 284.75201 
L 239.136 285.188322 
L 239.7312 285.024263 
L 240.3264 284.093377 
L 240.9216 282.19731 
L 241.5168 279.136839 
L 242.112 274.783518 
L 243.3024 262.784295 
L 244.4928 250.890681 
L 245.088 247.399994 
L 245.6832 246.2742 
L 246.2784 247.292641 
L 246.8736 249.826355 
L 248.6592 260.488692 
L 250.4448 270.302081 
L 251.6352 275.792181 
L 252.8256 280.518087 
L 254.016 284.496754 
L 255.2064 287.641618 
L 255.8016 288.825071 
L 256.3968 289.669012 
L 256.992 290.07324 
L 257.5872 289.891084 
L 258.1824 288.917347 
L 258.7776 286.884512 
L 259.3728 283.484862 
L 259.968 278.448816 
L 260.5632 271.711741 
L 262.3488 248.175091 
L 262.944 243.685728 
L 263.5392 242.444652 
L 264.1344 244.029367 
L 264.7296 247.423483 
L 267.1104 263.886666 
L 268.3008 270.607366 
L 269.4912 276.344413 
L 270.6816 281.314465 
L 272.4672 287.603198 
L 274.2528 292.72501 
L 275.4432 295.575678 
L 276.6336 297.991515 
L 277.824 299.909357 
L 278.4192 300.618287 
L 279.0144 301.086186 
L 279.6096 301.20985 
L 280.2048 300.822261 
L 280.8 299.661168 
L 281.3952 297.333745 
L 281.9904 293.298429 
L 282.5856 286.921359 
L 283.1808 277.716099 
L 284.9664 241.674983 
L 285.5616 235.155775 
L 286.1568 234.352793 
L 286.752 237.912267 
L 289.1328 259.385774 
L 290.3232 266.651692 
L 291.5136 272.138144 
L 292.704 276.307544 
L 293.2992 277.910566 
L 293.8944 279.154116 
L 294.4896 279.982938 
L 295.0848 280.319045 
L 295.68 280.061598 
L 296.2752 279.091874 
L 296.8704 277.289069 
L 297.4656 274.564086 
L 298.0608 270.915971 
L 300.4416 253.357378 
L 301.0368 251.005602 
L 301.632 250.267009 
L 302.2272 251.012405 
L 302.8224 252.880228 
L 304.0128 258.36288 
L 306.3936 269.857743 
L 307.584 274.636886 
L 308.7744 278.54096 
L 309.3696 280.101975 
L 309.9648 281.34607 
L 310.56 282.208992 
L 311.1552 282.60278 
L 311.7504 282.411792 
L 312.3456 281.493226 
L 312.9408 279.68849 
L 313.536 276.855177 
L 314.1312 272.929748 
L 315.3216 262.503295 
L 316.512 252.466881 
L 317.1072 249.493309 
L 317.7024 248.452226 
L 318.2976 249.204713 
L 318.8928 251.292283 
L 320.0832 257.423241 
L 321.8688 267.038305 
L 323.0592 272.610661 
L 324.2496 277.38892 
L 325.44 281.314617 
L 326.6304 284.206827 
L 327.2256 285.145577 
L 327.8208 285.635013 
L 328.416 285.549625 
L 329.0112 284.723577 
L 329.6064 282.954931 
L 330.2016 280.031744 
L 330.7968 275.797812 
L 331.9872 263.79258 
L 333.1776 251.330655 
L 333.7728 247.433686 
L 334.368 245.954618 
L 334.9632 246.743392 
L 335.5584 249.178059 
L 336.7488 256.235775 
L 338.5344 266.824685 
L 339.7248 272.823982 
L 340.9152 278.016498 
L 342.1056 282.473575 
L 343.296 286.194434 
L 344.4864 289.062073 
L 345.0816 290.081346 
L 345.6768 290.726559 
L 346.272 290.876626 
L 346.8672 290.355926 
L 347.4624 288.922812 
L 348.0576 286.272483 
L 348.6528 282.078854 
L 349.248 276.112863 
L 350.4384 259.804557 
L 351.0336 251.49 
L 351.6288 245.185189 
L 352.224 242.081744 
L 352.8192 242.293316 
L 353.4144 244.981719 
L 355.2 257.780177 
L 356.3904 265.515588 
L 357.5808 272.00712 
L 358.7712 277.54946 
L 359.9616 282.345539 
L 361.152 286.508406 
L 362.3424 290.101608 
L 363.5328 293.142721 
L 364.7232 295.567664 
L 365.3184 296.483707 
L 365.9136 297.126953 
L 366.5088 297.39597 
L 367.104 297.13122 
L 367.6992 296.090217 
L 368.2944 293.923184 
L 368.8896 290.169422 
L 369.4848 284.322209 
L 370.08 276.041683 
L 371.8656 244.295347 
L 372.4608 238.220322 
L 373.056 236.956798 
L 373.6512 239.618183 
L 374.8416 249.782665 
L 376.032 259.450775 
L 377.2224 266.969247 
L 378.4128 272.921972 
L 379.6032 277.737528 
L 380.7936 281.506114 
L 381.3888 282.952604 
L 381.984 284.046165 
L 382.5792 284.710046 
L 383.1744 284.835196 
L 383.7696 284.275289 
L 384.3648 282.84859 
L 384.96 280.356814 
L 385.5552 276.636145 
L 386.1504 271.654106 
L 387.936 253.3084 
L 388.5312 248.939504 
L 389.1264 246.7723 
L 389.7216 246.865307 
L 390.3168 248.751523 
L 391.5072 255.2705 
L 393.2928 265.782658 
L 394.4832 271.835753 
L 395.6736 277.077057 
L 396.864 281.557898 
L 398.0544 285.255668 
L 399.2448 288.01369 
L 399.84 288.924535 
L 400.4352 289.408597 
L 401.0304 289.328575 
L 401.6256 288.492462 
L 402.2208 286.64924 
L 402.816 283.507185 
L 403.4112 278.801781 
L 404.0064 272.443708 
L 405.792 249.422092 
L 406.3872 244.624999 
L 406.9824 242.931035 
L 407.5776 244.079694 
L 408.1728 247.158034 
L 411.1488 266.884642 
L 412.3392 273.134942 
L 413.5296 278.521391 
L 414.72 283.211162 
L 414.72 283.211162 
" clip-path="url(#pc12837bc44)" style="fill: none; stroke-dasharray: 9.6,2.4,1.5,2.4; stroke-dashoffset: 0; stroke: #ff0000; stroke-width: 1.5"/>
   </g>
   <g id="patch_13">
    <path d="M 57.6 307.584 
L 57.6 229.315765 
" style="fill: none; stroke: #000000; stroke-width: 0.8; stroke-linejoin: miter; stroke-linecap: square"/>
   </g>
   <g id="patch_14">
    <path d="M 414.72 307.584 
L 414.72 229.315765 
" style="fill: none; stroke: #000000; stroke-width: 0.8; stroke-linejoin: miter; stroke-linecap: square"/>
   </g>
   <g id="patch_15">
    <path d="M 57.6 307.584 
L 414.72 307.584 
" style="fill: none; stroke: #000000; stroke-width: 0.8; stroke-linejoin: miter; stroke-linecap: square"/>
   </g>
   <g id="patch_16">
    <path d="M 57.6 229.315765 
L 414.72 229.315765 
" style="fill: none; stroke: #000000; stroke-width: 0.8; stroke-linejoin: miter; stroke-linecap: square"/>
   </g>
  </g>
 </g>
 <defs>
  <clipPath id="p19f0276de5">
   <rect x="57.6" y="41.472" width="357.12" height="78.268235"/>
  </clipPath>
  <clipPath id="pec49cb6eda">
   <rect x="57.6" y="135.393882" width="357.12" height="78.268235"/>
  </clipPath>
  <clipPath id="pc12837bc44">
   <rect x="57.6" y="229.315765" width="357.12" height="78.268235"/>
  </clipPath>
 </defs>
</svg>
