<?xml version="1.0" encoding="utf-8" standalone="no"?>
<!DOCTYPE svg PUBLIC "-//W3C//DTD SVG 1.1//EN"
  "http://www.w3.org/Graphics/SVG/1.1/DTD/svg11.dtd">
<svg xmlns:xlink="http://www.w3.org/1999/xlink" width="460.8pt" height="345.6pt" viewBox="0 0 460.8 345.6" xmlns="http://www.w3.org/2000/svg" version="1.1">
 <metadata>
  <rdf:RDF xmlns:dc="http://purl.org/dc/elements/1.1/" xmlns:cc="http://creativecommons.org/ns#" xmlns:rdf="http://www.w3.org/1999/02/22-rdf-syntax-ns#">
   <cc:Work>
    <dc:type rdf:resource="http://purl.org/dc/dcmitype/StillImage"/>
    <dc:date>2023-12-14T02:41:45.365298</dc:date>
    <dc:format>image/svg+xml</dc:format>
    <dc:creator>
     <cc:Agent>
      <dc:title>Matplotlib v3.7.3, https://matplotlib.org/</dc:title>
     </cc:Agent>
    </dc:creator>
   </cc:Work>
  </rdf:RDF>
 </metadata>
 <defs>
  <style type="text/css">*{stroke-linejoin: round; stroke-linecap: butt}</style>
 </defs>
 <g id="figure_1">
  <g id="patch_1">
   <path d="M 0 345.6 
L 460.8 345.6 
L 460.8 0 
L 0 0 
z
" style="fill: #ffffff"/>
  </g>
  <g id="axes_1">
   <g id="patch_2">
    <path d="M 57.6 119.740235 
L 414.72 119.740235 
L 414.72 41.472 
L 57.6 41.472 
z
" style="fill: #ffffff"/>
   </g>
   <g id="matplotlib.axis_1">
    <g id="xtick_1">
     <g id="line2d_1">
      <defs>
       <path id="mfc84c05299" d="M 0 0 
L 0 3.5 
" style="stroke: #000000; stroke-width: 0.8"/>
      </defs>
      <g>
       <use xlink:href="#mfc84c05299" x="57.6" y="119.740235" style="stroke: #000000; stroke-width: 0.8"/>
      </g>
     </g>
    </g>
    <g id="xtick_2">
     <g id="line2d_2">
      <g>
       <use xlink:href="#mfc84c05299" x="105.216" y="119.740235" style="stroke: #000000; stroke-width: 0.8"/>
      </g>
     </g>
    </g>
    <g id="xtick_3">
     <g id="line2d_3">
      <g>
       <use xlink:href="#mfc84c05299" x="152.832" y="119.740235" style="stroke: #000000; stroke-width: 0.8"/>
      </g>
     </g>
    </g>
    <g id="xtick_4">
     <g id="line2d_4">
      <g>
       <use xlink:href="#mfc84c05299" x="200.448" y="119.740235" style="stroke: #000000; stroke-width: 0.8"/>
      </g>
     </g>
    </g>
    <g id="xtick_5">
     <g id="line2d_5">
      <g>
       <use xlink:href="#mfc84c05299" x="248.064" y="119.740235" style="stroke: #000000; stroke-width: 0.8"/>
      </g>
     </g>
    </g>
    <g id="xtick_6">
     <g id="line2d_6">
      <g>
       <use xlink:href="#mfc84c05299" x="295.68" y="119.740235" style="stroke: #000000; stroke-width: 0.8"/>
      </g>
     </g>
    </g>
    <g id="xtick_7">
     <g id="line2d_7">
      <g>
       <use xlink:href="#mfc84c05299" x="343.296" y="119.740235" style="stroke: #000000; stroke-width: 0.8"/>
      </g>
     </g>
    </g>
    <g id="xtick_8">
     <g id="line2d_8">
      <g>
       <use xlink:href="#mfc84c05299" x="390.912" y="119.740235" style="stroke: #000000; stroke-width: 0.8"/>
      </g>
     </g>
    </g>
    <g id="xtick_9">
     <g id="line2d_9">
      <g>
       <use xlink:href="#mfc84c05299" x="414.72" y="119.740235" style="stroke: #000000; stroke-width: 0.8"/>
      </g>
     </g>
    </g>
   </g>
   <g id="matplotlib.axis_2">
    <g id="ytick_1">
     <g id="line2d_10">
      <defs>
       <path id="m8cb4e387de" d="M 0 0 
L -3.5 0 
" style="stroke: #000000; stroke-width: 0.8"/>
      </defs>
      <g>
       <use xlink:href="#m8cb4e387de" x="57.6" y="100.515853" style="stroke: #000000; stroke-width: 0.8"/>
      </g>
     </g>
     <g id="text_1">
      <!-- −10 -->
      <g transform="translate(29.495313 104.315072) scale(0.1 -0.1)">
       <defs>
        <path id="DejaVuSans-2212" d="M 678 2272 
L 4684 2272 
L 4684 1741 
L 678 1741 
L 678 2272 
z
" transform="scale(0.015625)"/>
        <path id="DejaVuSans-31" d="M 794 531 
L 1825 531 
L 1825 4091 
L 703 3866 
L 703 4441 
L 1819 4666 
L 2450 4666 
L 2450 531 
L 3481 531 
L 3481 0 
L 794 0 
L 794 531 
z
" transform="scale(0.015625)"/>
        <path id="DejaVuSans-30" d="M 2034 4250 
Q 1547 4250 1301 3770 
Q 1056 3291 1056 2328 
Q 1056 1369 1301 889 
Q 1547 409 2034 409 
Q 2525 409 2770 889 
Q 3016 1369 3016 2328 
Q 3016 3291 2770 3770 
Q 2525 4250 2034 4250 
z
M 2034 4750 
Q 2819 4750 3233 4129 
Q 3647 3509 3647 2328 
Q 3647 1150 3233 529 
Q 2819 -91 2034 -91 
Q 1250 -91 836 529 
Q 422 1150 422 2328 
Q 422 3509 836 4129 
Q 1250 4750 2034 4750 
z
" transform="scale(0.015625)"/>
       </defs>
       <use xlink:href="#DejaVuSans-2212"/>
       <use xlink:href="#DejaVuSans-31" x="83.789062"/>
       <use xlink:href="#DejaVuSans-30" x="147.412109"/>
      </g>
     </g>
    </g>
    <g id="ytick_2">
     <g id="line2d_11">
      <g>
       <use xlink:href="#m8cb4e387de" x="57.6" y="80.472356" style="stroke: #000000; stroke-width: 0.8"/>
      </g>
     </g>
     <g id="text_2">
      <!-- 0 -->
      <g transform="translate(44.2375 84.271575) scale(0.1 -0.1)">
       <use xlink:href="#DejaVuSans-30"/>
      </g>
     </g>
    </g>
    <g id="ytick_3">
     <g id="line2d_12">
      <g>
       <use xlink:href="#m8cb4e387de" x="57.6" y="60.428859" style="stroke: #000000; stroke-width: 0.8"/>
      </g>
     </g>
     <g id="text_3">
      <!-- 10 -->
      <g transform="translate(37.875 64.228078) scale(0.1 -0.1)">
       <use xlink:href="#DejaVuSans-31"/>
       <use xlink:href="#DejaVuSans-30" x="63.623047"/>
      </g>
     </g>
    </g>
   </g>
   <g id="line2d_13">
    <path d="M 57.6 86.666945 
L 58.1952 87.236251 
L 58.7904 88.517876 
L 59.3856 89.514316 
L 59.9808 91.063938 
L 60.576 93.535416 
L 61.1712 95.108389 
L 63.552 107.546412 
L 64.1472 109.346554 
L 64.7424 110.23185 
L 65.3376 109.396104 
L 65.9328 107.224139 
L 66.528 104.153889 
L 67.7184 95.456937 
L 68.9088 89.65647 
L 70.0992 84.880964 
L 71.2896 82.738412 
L 71.8848 82.45793 
L 73.0752 81.209999 
L 73.6704 80.876921 
L 74.2656 81.327505 
L 74.8608 81.451129 
L 75.456 80.884323 
L 76.0512 80.703333 
L 77.2416 81.031374 
L 77.8368 80.949389 
L 78.432 81.570593 
L 79.0272 81.443997 
L 79.6224 81.030748 
L 80.2176 82.18742 
L 80.8128 82.414889 
L 81.408 82.25209 
L 82.0032 83.362171 
L 83.1936 84.945511 
L 83.7888 87.29119 
L 84.384 88.880637 
L 85.5744 93.600558 
L 86.1696 96.867907 
L 88.5504 114.639556 
L 89.1456 116.182588 
L 89.7408 115.422377 
L 90.336 110.937597 
L 92.7168 87.64295 
L 93.312 82.992066 
L 93.9072 79.795161 
L 94.5024 77.900924 
L 95.0976 75.263509 
L 95.6928 74.527266 
L 96.288 73.582273 
L 97.4784 70.739793 
L 98.0736 70.154409 
L 98.6688 68.300187 
L 99.264 67.704613 
L 100.4544 64.338203 
L 101.0496 62.452631 
L 102.24 59.190018 
L 102.8352 57.531064 
L 103.4304 56.414618 
L 104.0256 57.010845 
L 104.6208 56.427584 
L 105.8112 59.38402 
L 106.4064 61.695358 
L 107.0016 63.046755 
L 107.5968 64.753286 
L 108.192 66.97722 
L 109.3824 69.657066 
L 109.9776 70.385856 
L 110.5728 70.790287 
L 111.168 71.768266 
L 111.7632 71.276099 
L 112.3584 71.618906 
L 112.9536 71.216061 
L 114.144 69.468752 
L 114.7392 67.56212 
L 115.9296 65.039648 
L 117.12 60.334347 
L 117.7152 59.500666 
L 118.3104 57.43183 
L 118.9056 56.092768 
L 119.5008 55.488054 
L 120.096 55.200462 
L 121.2864 58.337223 
L 123.072 64.864342 
L 123.6672 67.396248 
L 124.2624 68.761425 
L 124.8576 70.51893 
L 125.4528 70.975041 
L 126.048 71.888113 
L 126.6432 72.240826 
L 127.2384 72.821424 
L 127.8336 71.907612 
L 128.4288 71.790204 
L 129.6192 70.514153 
L 130.8096 68.113603 
L 131.4048 65.974901 
L 132 65.203957 
L 132.5952 62.378952 
L 133.7856 57.902246 
L 134.976 55.330587 
L 135.5712 54.715737 
L 136.1664 55.469395 
L 136.7616 56.457356 
L 137.952 60.584686 
L 138.5472 63.659349 
L 139.1424 66.057982 
L 140.3328 70.020074 
L 141.5232 72.537278 
L 142.7136 73.722751 
L 143.904 73.642153 
L 145.0944 72.73961 
L 146.2848 70.182835 
L 146.88 69.37279 
L 149.2608 60.710167 
L 149.856 58.801742 
L 150.4512 56.214622 
L 151.0464 54.312861 
L 151.6416 53.871122 
L 152.2368 53.917912 
L 152.832 55.241267 
L 153.4272 57.097927 
L 154.6176 62.987906 
L 155.2128 65.175725 
L 155.808 68.160342 
L 156.4032 69.972246 
L 156.9984 72.314336 
L 157.5936 73.070389 
L 158.1888 74.524349 
L 158.784 75.022977 
L 159.3792 75.835242 
L 159.9744 75.047885 
L 160.5696 75.260188 
L 161.1648 74.922048 
L 161.76 74.269822 
L 162.3552 73.826224 
L 162.9504 71.90616 
L 163.5456 71.461747 
L 164.736 67.104328 
L 165.9264 63.243339 
L 166.5216 59.958154 
L 167.1168 57.726226 
L 167.712 54.634178 
L 168.3072 52.426868 
L 168.9024 52.380786 
L 169.4976 52.485147 
L 170.0928 54.411412 
L 170.688 57.078152 
L 171.8784 64.569208 
L 172.4736 67.154567 
L 173.0688 70.399495 
L 173.664 72.693773 
L 174.2592 74.328844 
L 174.8544 75.400053 
L 175.4496 77.267604 
L 176.0448 76.897446 
L 176.64 77.940918 
L 177.8304 78.355835 
L 178.4256 77.515644 
L 180.2112 76.714806 
L 180.8064 75.20639 
L 181.4016 75.08073 
L 181.9968 73.330555 
L 182.592 72.369129 
L 183.7824 68.253176 
L 185.568 60.339301 
L 186.1632 56.932698 
L 186.7584 52.670021 
L 187.3536 49.787016 
L 187.9488 49.429236 
L 188.544 50.334508 
L 189.1392 52.342081 
L 190.3296 60.930906 
L 190.9248 66.297381 
L 191.52 70.206676 
L 192.7104 75.90987 
L 193.9008 79.756849 
L 194.496 80.796672 
L 195.0912 81.344288 
L 195.6864 82.403681 
L 196.2816 82.833673 
L 197.472 84.038258 
L 198.0672 84.425829 
L 198.6624 85.302872 
L 200.448 88.816465 
L 201.0432 90.01978 
L 201.6384 93.427591 
L 202.2336 95.401764 
L 203.424 100.523644 
L 204.0192 104.372902 
L 204.6144 107.490037 
L 205.2096 109.971426 
L 205.8048 110.675832 
L 206.4 109.596432 
L 206.9952 107.428975 
L 208.7808 96.520581 
L 209.376 91.527152 
L 210.5664 86.816893 
L 211.1616 84.837669 
L 211.7568 83.384296 
L 213.5424 80.33975 
L 214.1376 80.141578 
L 214.7328 80.766954 
L 215.328 79.443445 
L 215.9232 80.211546 
L 216.5184 78.898351 
L 217.7088 78.27026 
L 218.304 78.111672 
L 218.8992 78.427876 
L 219.4944 76.075847 
L 220.0896 76.157929 
L 220.6848 75.141406 
L 221.8752 71.682663 
L 222.4704 69.872442 
L 223.6608 64.160502 
L 224.256 60.714364 
L 225.4464 52.388402 
L 226.0416 49.179448 
L 226.6368 47.196831 
L 227.232 47.613926 
L 227.8272 50.046971 
L 228.4224 54.812675 
L 229.6128 65.846898 
L 230.208 70.617454 
L 231.3984 77.755181 
L 231.9936 80.004647 
L 232.5888 81.330024 
L 233.184 83.093674 
L 234.3744 85.121122 
L 234.9696 85.497636 
L 235.5648 87.212625 
L 236.16 87.812114 
L 236.7552 89.079305 
L 237.9456 91.265399 
L 238.5408 94.053664 
L 239.136 95.646709 
L 239.7312 97.594641 
L 240.9216 103.187536 
L 241.5168 104.797806 
L 242.112 107.187984 
L 243.3024 107.504143 
L 244.4928 103.338406 
L 245.088 99.983833 
L 245.6832 97.708792 
L 246.8736 92.231086 
L 247.4688 89.967429 
L 248.064 88.653916 
L 248.6592 87.037196 
L 249.2544 86.323818 
L 249.8496 85.958381 
L 250.4448 85.72453 
L 251.6352 85.025695 
L 252.2304 86.393536 
L 252.8256 86.641327 
L 253.4208 87.350539 
L 254.016 88.601204 
L 254.6112 89.540283 
L 255.2064 91.240874 
L 256.3968 95.620776 
L 256.992 98.495733 
L 257.5872 100.685407 
L 258.1824 104.419215 
L 259.3728 108.956216 
L 259.968 109.142751 
L 260.5632 108.668569 
L 261.1584 106.619328 
L 261.7536 104.058066 
L 262.3488 99.910684 
L 262.944 96.567053 
L 263.5392 94.081011 
L 264.1344 90.641457 
L 264.7296 88.394645 
L 265.92 84.744226 
L 266.5152 83.718616 
L 267.7056 82.944799 
L 268.896 82.429529 
L 269.4912 83.456039 
L 270.0864 82.809271 
L 270.6816 83.044443 
L 271.2768 83.662849 
L 271.872 83.779144 
L 273.0624 85.242431 
L 273.6576 85.939095 
L 274.2528 87.572713 
L 274.848 89.690635 
L 275.4432 90.893752 
L 276.0384 93.401506 
L 277.2288 100.210736 
L 279.0144 110.849306 
L 279.6096 111.972885 
L 280.2048 112.383909 
L 280.8 110.654971 
L 281.3952 106.43674 
L 283.1808 92.078114 
L 283.776 88.210696 
L 284.3712 85.40829 
L 285.5616 80.781133 
L 286.1568 79.753826 
L 286.752 78.377622 
L 287.3472 77.456437 
L 287.9424 77.384692 
L 288.5376 75.619742 
L 289.1328 75.864453 
L 289.728 74.855029 
L 290.3232 73.386274 
L 290.9184 72.440347 
L 291.5136 70.670457 
L 292.1088 69.409035 
L 293.2992 64.116077 
L 293.8944 62.273936 
L 295.68 53.859941 
L 296.2752 52.735833 
L 296.8704 52.147372 
L 297.4656 52.939515 
L 298.0608 55.011801 
L 298.656 57.775827 
L 299.8464 65.726919 
L 301.632 73.191494 
L 302.2272 75.162694 
L 302.8224 76.032329 
L 303.4176 77.366141 
L 304.0128 77.554658 
L 304.608 78.510156 
L 305.2032 78.203931 
L 305.7984 78.249483 
L 306.3936 78.514887 
L 306.9888 77.765322 
L 307.584 77.726691 
L 308.1792 77.371486 
L 308.7744 76.831344 
L 309.3696 75.797955 
L 309.9648 74.252699 
L 311.1552 72.482994 
L 311.7504 70.600305 
L 313.536 62.424489 
L 315.3216 51.443131 
L 315.9168 49.047013 
L 316.512 48.776055 
L 317.1072 49.834455 
L 317.7024 53.076953 
L 320.0832 71.524266 
L 320.6784 74.329315 
L 321.2736 77.74548 
L 321.8688 79.737759 
L 322.464 80.59497 
L 323.6544 83.340219 
L 324.2496 83.308582 
L 324.8448 84.737264 
L 325.44 85.033417 
L 326.0352 85.835192 
L 326.6304 86.289496 
L 327.2256 87.452227 
L 327.8208 88.315768 
L 328.416 91.266745 
L 329.0112 92.351133 
L 329.6064 94.092622 
L 330.7968 99.089083 
L 331.392 102.592757 
L 331.9872 104.956427 
L 332.5824 108.295639 
L 333.1776 108.965568 
L 333.7728 109.406794 
L 334.368 108.160464 
L 334.9632 105.479683 
L 336.1536 98.241398 
L 336.7488 93.939786 
L 337.344 91.075883 
L 337.9392 89.214141 
L 338.5344 86.53897 
L 339.1296 84.959216 
L 339.7248 84.595816 
L 340.32 83.447935 
L 340.9152 83.004903 
L 341.5104 81.867437 
L 342.1056 82.110459 
L 342.7008 82.480533 
L 343.296 81.982219 
L 343.8912 83.002915 
L 345.0816 82.467864 
L 345.6768 83.302778 
L 346.272 83.701117 
L 346.8672 84.240298 
L 347.4624 85.610165 
L 348.0576 86.537913 
L 348.6528 87.72098 
L 349.248 90.354922 
L 349.8432 92.405715 
L 351.6288 101.708368 
L 352.8192 109.567607 
L 353.4144 112.021871 
L 354.0096 113.860427 
L 355.2 108.971239 
L 357.5808 88.674496 
L 358.7712 82.745022 
L 359.9616 79.836983 
L 361.152 76.653908 
L 361.7472 75.889383 
L 362.3424 75.439665 
L 363.5328 73.691871 
L 364.7232 71.728638 
L 365.3184 69.28145 
L 365.9136 67.70053 
L 367.6992 61.174472 
L 368.2944 57.48026 
L 369.4848 53.840285 
L 370.08 52.513773 
L 370.6752 53.179117 
L 371.2704 54.345858 
L 371.8656 56.770872 
L 373.6512 66.807331 
L 374.8416 71.066408 
L 375.4368 72.699538 
L 376.032 74.749682 
L 376.6272 75.93667 
L 378.4128 77.002691 
L 380.1984 75.943531 
L 380.7936 75.156694 
L 381.3888 74.823201 
L 382.5792 72.758138 
L 383.1744 70.299499 
L 383.7696 69.31987 
L 384.3648 67.199288 
L 385.5552 60.930407 
L 386.1504 57.96849 
L 386.7456 54.398596 
L 387.936 50.750281 
L 388.5312 50.802028 
L 389.1264 52.587333 
L 389.7216 54.885579 
L 392.1024 70.919535 
L 392.6976 73.465609 
L 393.2928 75.414784 
L 393.888 76.97168 
L 395.6736 80.20926 
L 396.2688 79.889573 
L 396.864 80.506523 
L 397.4592 80.848525 
L 399.2448 81.359831 
L 399.84 81.426038 
L 400.4352 82.117398 
L 401.0304 82.564687 
L 401.6256 82.679864 
L 402.2208 83.101003 
L 402.816 83.67823 
L 403.4112 84.936499 
L 404.0064 85.89576 
L 404.6016 87.746216 
L 405.1968 88.785938 
L 405.792 91.860357 
L 406.3872 93.864104 
L 407.5776 101.558598 
L 409.3632 112.718202 
L 409.9584 114.880167 
L 410.5536 113.904739 
L 411.1488 110.823526 
L 411.744 106.290944 
L 412.9344 94.409537 
L 414.1248 85.832849 
L 414.72 82.560162 
L 414.72 82.560162 
" clip-path="url(#p246c4aeb21)" style="fill: none; stroke: #0000cc; stroke-width: 1.5; stroke-linecap: square"/>
   </g>
   <g id="line2d_14">
    <path d="M 57.6 86.666945 
L 58.195191 87.440208 
L 58.790405 88.495225 
L 59.385595 89.853381 
L 59.980809 91.544826 
L 61.171191 96.027341 
L 63.552 107.512087 
L 64.147191 109.357479 
L 64.742405 109.923497 
L 65.337595 108.96418 
L 65.932786 106.57582 
L 67.123191 99.298993 
L 68.313595 92.015425 
L 68.908809 89.115204 
L 69.504 86.802734 
L 70.099191 85.033921 
L 70.694405 83.726651 
L 71.289595 82.789693 
L 71.884809 82.137556 
L 72.48 81.698211 
L 73.670405 81.245354 
L 74.860786 81.134537 
L 76.051191 81.229392 
L 77.241595 81.494951 
L 78.432 81.96675 
L 79.622405 82.747336 
L 80.217595 83.308002 
L 80.812809 84.025819 
L 81.408 84.944822 
L 82.003191 86.121383 
L 82.598405 87.625253 
L 83.193595 89.539164 
L 83.788809 91.954656 
L 84.384 94.956746 
L 85.574405 102.792909 
L 86.764786 111.491429 
L 87.36 114.479392 
L 87.955191 115.281831 
L 88.550405 113.379161 
L 89.145595 109.077932 
L 91.526405 87.009281 
L 92.121595 83.256587 
L 92.716809 80.364366 
L 93.312 78.16321 
L 93.907191 76.472687 
L 95.097595 73.985447 
L 96.883191 70.769067 
L 98.073595 68.125974 
L 99.264 64.773473 
L 101.644786 57.263773 
L 102.24 56.037886 
L 102.835191 55.472957 
L 103.430405 55.699616 
L 104.025595 56.725781 
L 104.620809 58.425184 
L 107.596809 69.057747 
L 108.192 70.465881 
L 108.787191 71.512008 
L 109.382405 72.216155 
L 109.977595 72.607446 
L 110.572786 72.714822 
L 111.168 72.561951 
L 111.763191 72.163265 
L 112.358405 71.525294 
L 112.953595 70.646076 
L 113.548786 69.518419 
L 114.739191 66.492992 
L 115.929595 62.526818 
L 117.715191 56.359771 
L 118.310405 55.046203 
L 118.905595 54.516226 
L 119.500809 54.916645 
L 120.096 56.2349 
L 120.691191 58.293283 
L 123.072 68.272689 
L 123.667191 70.153365 
L 124.262405 71.627976 
L 124.857595 72.710958 
L 125.452786 73.437193 
L 126.048 73.847381 
L 126.643191 73.978545 
L 127.238405 73.85875 
L 127.833595 73.505579 
L 128.428809 72.92469 
L 129.024 72.112083 
L 129.619191 71.054734 
L 130.214405 69.734587 
L 131.404809 66.242695 
L 132.595191 61.686987 
L 133.785595 56.817526 
L 134.380786 54.833606 
L 134.976 53.579201 
L 135.571191 53.337162 
L 136.166405 54.231624 
L 136.761595 56.164127 
L 137.952 61.881819 
L 139.142405 67.708772 
L 139.737595 70.08404 
L 140.332809 71.99682 
L 140.928 73.45653 
L 141.523191 74.506965 
L 142.118405 75.204241 
L 142.713595 75.602823 
L 143.308809 75.74834 
L 143.904 75.673778 
L 144.499191 75.399047 
L 145.094405 74.930914 
L 145.689595 74.26396 
L 146.284786 73.381999 
L 146.88 72.259122 
L 147.475191 70.862536 
L 148.070405 69.156562 
L 149.260786 64.71739 
L 151.641595 53.686713 
L 152.236809 51.984541 
L 152.832 51.510697 
L 153.427191 52.477734 
L 154.022405 54.783532 
L 155.212809 61.734233 
L 156.403191 68.699475 
L 156.998405 71.483374 
L 157.593595 73.706267 
L 158.188786 75.405342 
L 158.784 76.653908 
L 159.379191 77.536134 
L 159.974405 78.130138 
L 160.569595 78.502329 
L 161.164786 78.703719 
L 162.355191 78.7303 
L 163.545595 78.364852 
L 164.736 77.609614 
L 165.331191 77.052257 
L 165.926405 76.33993 
L 166.521595 75.436211 
L 167.116809 74.295667 
L 167.712 72.860398 
L 168.307191 71.063041 
L 168.902405 68.834186 
L 170.092786 62.87443 
L 172.473595 48.79473 
L 173.068786 47.709894 
L 173.664 48.799556 
L 174.259191 51.973931 
L 175.449595 61.765958 
L 176.64 71.155685 
L 177.235191 74.750044 
L 177.830405 77.569469 
L 178.425595 79.724252 
L 179.020809 81.358408 
L 180.211191 83.624384 
L 183.187191 88.09912 
L 184.377595 90.798585 
L 185.568 94.564961 
L 186.758405 99.455434 
L 187.948809 104.706157 
L 188.544 106.836288 
L 189.139191 108.148327 
L 189.734405 108.323083 
L 190.329595 107.234671 
L 190.924809 105.018219 
L 192.115191 98.69738 
L 193.305595 92.473829 
L 193.900786 89.990559 
L 194.496 88.010927 
L 195.091191 86.508648 
L 195.686405 85.425189 
L 196.281595 84.69281 
L 196.876786 84.248464 
L 197.472 84.039603 
L 198.067191 84.028066 
L 198.662405 84.189082 
L 199.257595 84.511294 
L 199.852809 84.995482 
L 200.448 85.65342 
L 201.043191 86.5076 
L 201.638382 87.590287 
L 202.233618 88.942386 
L 202.828809 90.610448 
L 203.424 92.640952 
L 204.614382 97.889432 
L 206.4 107.35727 
L 206.995236 109.684037 
L 207.590427 110.743305 
L 208.185618 110.162496 
L 208.780809 107.936523 
L 209.971191 100.326822 
L 211.161618 92.327324 
L 211.756809 89.093255 
L 212.352 86.497498 
L 212.947191 84.495913 
L 213.542382 82.996964 
L 214.137618 81.895423 
L 214.732809 81.091952 
L 215.923191 80.052268 
L 217.708809 79.070312 
L 218.899236 78.379667 
L 220.089618 77.41001 
L 221.28 75.921405 
L 221.875191 74.882497 
L 222.470382 73.577157 
L 223.065618 71.94032 
L 223.660809 69.900887 
L 224.256 67.388875 
L 225.446382 60.823984 
L 227.232 49.729038 
L 227.827191 47.809456 
L 228.422382 47.935503 
L 229.017618 50.291388 
L 229.612809 54.434691 
L 231.398427 69.450308 
L 231.993618 73.417318 
L 232.588809 76.578517 
L 233.184 79.015395 
L 233.779191 80.865718 
L 234.374382 82.278342 
L 235.564809 84.318857 
L 237.350382 86.889881 
L 238.540809 89.08024 
L 239.731191 92.124952 
L 240.921618 96.284243 
L 243.302427 106.20075 
L 243.897618 107.728485 
L 244.492809 108.214531 
L 245.088 107.477438 
L 245.683191 105.579959 
L 246.873618 99.604025 
L 248.064 93.341896 
L 249.254382 88.680075 
L 249.849618 87.075814 
L 250.444809 85.90371 
L 251.04 85.09962 
L 251.635191 84.600625 
L 252.230382 84.353301 
L 252.825618 84.316975 
L 253.420809 84.464933 
L 254.016 84.784258 
L 254.611236 85.273766 
L 255.206427 85.944385 
L 255.801618 86.81741 
L 256.396809 87.924047 
L 256.992 89.303526 
L 257.587191 91.000104 
L 258.777618 95.497756 
L 259.968 101.413052 
L 261.158382 107.482075 
L 261.753618 109.595162 
L 262.348809 110.423173 
L 262.944 109.65159 
L 263.539191 107.326779 
L 264.729618 99.825163 
L 265.92 92.132949 
L 266.515236 89.047747 
L 267.110427 86.579887 
L 267.705618 84.683829 
L 268.300809 83.271356 
L 268.896 82.242959 
L 269.491191 81.505262 
L 270.681618 80.598162 
L 271.872 80.091191 
L 274.848 79.037563 
L 276.038382 78.314713 
L 277.228809 77.170065 
L 277.824 76.357385 
L 278.419236 75.322845 
L 279.014427 74.006413 
L 279.609618 72.335565 
L 280.204809 70.227307 
L 280.8 67.596783 
L 281.990382 60.576698 
L 283.776 48.413566 
L 284.371191 46.369015 
L 284.966382 46.701355 
L 285.561618 49.572298 
L 286.156809 54.386627 
L 287.942382 70.896556 
L 288.537618 75.077944 
L 289.132809 78.367205 
L 289.728 80.887142 
L 290.323236 82.805566 
L 291.513618 85.495685 
L 294.489618 90.923595 
L 295.68 94.016135 
L 296.870382 97.929299 
L 298.656 104.109671 
L 299.251191 105.525937 
L 299.846382 106.218233 
L 300.441618 106.020787 
L 301.036809 104.912334 
L 301.632 103.03432 
L 304.608 91.297185 
L 305.203191 89.761797 
L 305.798382 88.617196 
L 306.393618 87.833986 
L 306.988809 87.373674 
L 307.584 87.199789 
L 308.179191 87.283256 
L 308.774382 87.60528 
L 309.369618 88.158148 
L 309.964809 88.944105 
L 310.56 89.974014 
L 311.155191 91.263821 
L 312.345618 94.679254 
L 313.536 99.13204 
L 314.726427 103.896953 
L 315.321618 105.851946 
L 315.916809 107.110434 
L 316.512 107.397471 
L 317.107191 106.585444 
L 317.702382 104.757616 
L 318.892809 99.237548 
L 320.083191 93.521219 
L 321.273618 89.266154 
L 321.868809 87.80899 
L 322.464 86.758546 
L 323.059191 86.062575 
L 323.654382 85.668856 
L 324.249618 85.533596 
L 324.844809 85.624851 
L 325.44 85.923594 
L 326.035236 86.423908 
L 326.630427 87.131259 
L 327.225618 88.062482 
L 327.820809 89.242632 
L 328.416 90.703032 
L 329.606382 94.581114 
L 330.796809 99.728166 
L 331.987191 105.305445 
L 332.582382 107.550334 
L 333.177618 108.885528 
L 333.772809 108.960839 
L 334.368 107.654314 
L 334.963191 105.145499 
L 337.939236 89.133812 
L 338.534427 87.107996 
L 339.129618 85.577221 
L 339.724809 84.46918 
L 340.32 83.705828 
L 340.915191 83.216208 
L 341.510382 82.941896 
L 342.105618 82.839347 
L 342.700809 82.87878 
L 343.296 83.042914 
L 344.486382 83.731498 
L 345.081618 84.273728 
L 345.676809 84.974274 
L 346.272 85.865238 
L 346.867191 86.988748 
L 347.462382 88.395327 
L 348.057618 90.143876 
L 348.652809 92.295638 
L 349.843236 97.971542 
L 351.628809 108.53966 
L 352.224 111.142237 
L 352.819191 112.240386 
L 353.414382 111.389546 
L 354.009618 108.628311 
L 355.2 99.732716 
L 356.390382 90.873089 
L 356.985618 87.40684 
L 357.580809 84.664424 
L 358.176 82.562404 
L 358.771191 80.977041 
L 359.366382 79.77907 
L 360.556809 78.092098 
L 362.937618 75.309511 
L 364.128 73.312036 
L 364.723191 71.992427 
L 365.318382 70.393085 
L 366.508809 66.183456 
L 367.699191 60.594701 
L 368.889618 54.594859 
L 369.484809 52.273916 
L 370.08 51.039358 
L 370.675191 51.26338 
L 371.270382 53.021404 
L 371.865618 56.03366 
L 374.246427 70.58828 
L 374.841618 73.190129 
L 375.436809 75.217124 
L 376.032 76.739233 
L 376.627191 77.847197 
L 377.222382 78.631682 
L 377.817618 79.172527 
L 379.008 79.76697 
L 380.198382 79.981536 
L 381.984 79.947003 
L 383.769618 79.615808 
L 384.96 79.182782 
L 386.150427 78.468375 
L 386.745618 77.952821 
L 387.340809 77.290172 
L 387.936 76.437768 
L 388.531191 75.340973 
L 389.126382 73.931106 
L 389.721618 72.124648 
L 390.316809 69.82632 
L 390.912 66.939358 
L 392.102382 59.209528 
L 393.292809 50.062005 
L 393.888 46.517438 
L 394.483191 45.029647 
L 395.078382 46.332988 
L 395.673618 50.321377 
L 398.054427 73.418928 
L 398.649618 77.495862 
L 399.244809 80.648076 
L 399.84 83.045891 
L 400.435191 84.880521 
L 401.625618 87.541867 
L 404.006382 92.081151 
L 405.196809 94.988068 
L 408.172809 103.391979 
L 408.768 104.370346 
L 409.363236 104.734169 
L 409.958427 104.3945 
L 410.553618 103.368271 
L 411.148809 101.779857 
L 414.124809 92.273767 
L 414.72 91.036451 
L 414.72 91.036451 
" clip-path="url(#p246c4aeb21)" style="fill: none; stroke-dasharray: 9.6,2.4,1.5,2.4; stroke-dashoffset: 0; stroke: #ff0000; stroke-width: 1.5"/>
   </g>
   <g id="patch_3">
    <path d="M 57.6 119.740235 
L 57.6 41.472 
" style="fill: none; stroke: #000000; stroke-width: 0.8; stroke-linejoin: miter; stroke-linecap: square"/>
   </g>
   <g id="patch_4">
    <path d="M 414.72 119.740235 
L 414.72 41.472 
" style="fill: none; stroke: #000000; stroke-width: 0.8; stroke-linejoin: miter; stroke-linecap: square"/>
   </g>
   <g id="patch_5">
    <path d="M 57.6 119.740235 
L 414.72 119.740235 
" style="fill: none; stroke: #000000; stroke-width: 0.8; stroke-linejoin: miter; stroke-linecap: square"/>
   </g>
   <g id="patch_6">
    <path d="M 57.6 41.472 
L 414.72 41.472 
" style="fill: none; stroke: #000000; stroke-width: 0.8; stroke-linejoin: miter; stroke-linecap: square"/>
   </g>
  </g>
  <g id="axes_2">
   <g id="patch_7">
    <path d="M 57.6 213.662118 
L 414.72 213.662118 
L 414.72 135.393882 
L 57.6 135.393882 
z
" style="fill: #ffffff"/>
   </g>
   <g id="matplotlib.axis_3">
    <g id="xtick_10">
     <g id="line2d_15">
      <g>
       <use xlink:href="#mfc84c05299" x="57.6" y="213.662118" style="stroke: #000000; stroke-width: 0.8"/>
      </g>
     </g>
    </g>
    <g id="xtick_11">
     <g id="line2d_16">
      <g>
       <use xlink:href="#mfc84c05299" x="105.216" y="213.662118" style="stroke: #000000; stroke-width: 0.8"/>
      </g>
     </g>
    </g>
    <g id="xtick_12">
     <g id="line2d_17">
      <g>
       <use xlink:href="#mfc84c05299" x="152.832" y="213.662118" style="stroke: #000000; stroke-width: 0.8"/>
      </g>
     </g>
    </g>
    <g id="xtick_13">
     <g id="line2d_18">
      <g>
       <use xlink:href="#mfc84c05299" x="200.448" y="213.662118" style="stroke: #000000; stroke-width: 0.8"/>
      </g>
     </g>
    </g>
    <g id="xtick_14">
     <g id="line2d_19">
      <g>
       <use xlink:href="#mfc84c05299" x="248.064" y="213.662118" style="stroke: #000000; stroke-width: 0.8"/>
      </g>
     </g>
    </g>
    <g id="xtick_15">
     <g id="line2d_20">
      <g>
       <use xlink:href="#mfc84c05299" x="295.68" y="213.662118" style="stroke: #000000; stroke-width: 0.8"/>
      </g>
     </g>
    </g>
    <g id="xtick_16">
     <g id="line2d_21">
      <g>
       <use xlink:href="#mfc84c05299" x="343.296" y="213.662118" style="stroke: #000000; stroke-width: 0.8"/>
      </g>
     </g>
    </g>
    <g id="xtick_17">
     <g id="line2d_22">
      <g>
       <use xlink:href="#mfc84c05299" x="390.912" y="213.662118" style="stroke: #000000; stroke-width: 0.8"/>
      </g>
     </g>
    </g>
    <g id="xtick_18">
     <g id="line2d_23">
      <g>
       <use xlink:href="#mfc84c05299" x="414.72" y="213.662118" style="stroke: #000000; stroke-width: 0.8"/>
      </g>
     </g>
    </g>
   </g>
   <g id="matplotlib.axis_4">
    <g id="ytick_4">
     <g id="line2d_24">
      <g>
       <use xlink:href="#m8cb4e387de" x="57.6" y="204.069621" style="stroke: #000000; stroke-width: 0.8"/>
      </g>
     </g>
     <g id="text_4">
      <!-- −20 -->
      <g transform="translate(29.495313 207.86884) scale(0.1 -0.1)">
       <defs>
        <path id="DejaVuSans-32" d="M 1228 531 
L 3431 531 
L 3431 0 
L 469 0 
L 469 531 
Q 828 903 1448 1529 
Q 2069 2156 2228 2338 
Q 2531 2678 2651 2914 
Q 2772 3150 2772 3378 
Q 2772 3750 2511 3984 
Q 2250 4219 1831 4219 
Q 1534 4219 1204 4116 
Q 875 4013 500 3803 
L 500 4441 
Q 881 4594 1212 4672 
Q 1544 4750 1819 4750 
Q 2544 4750 2975 4387 
Q 3406 4025 3406 3419 
Q 3406 3131 3298 2873 
Q 3191 2616 2906 2266 
Q 2828 2175 2409 1742 
Q 1991 1309 1228 531 
z
" transform="scale(0.015625)"/>
       </defs>
       <use xlink:href="#DejaVuSans-2212"/>
       <use xlink:href="#DejaVuSans-32" x="83.789062"/>
       <use xlink:href="#DejaVuSans-30" x="147.412109"/>
      </g>
     </g>
    </g>
    <g id="ytick_5">
     <g id="line2d_25">
      <g>
       <use xlink:href="#m8cb4e387de" x="57.6" y="174.149189" style="stroke: #000000; stroke-width: 0.8"/>
      </g>
     </g>
     <g id="text_5">
      <!-- 0 -->
      <g transform="translate(44.2375 177.948408) scale(0.1 -0.1)">
       <use xlink:href="#DejaVuSans-30"/>
      </g>
     </g>
    </g>
    <g id="ytick_6">
     <g id="line2d_26">
      <g>
       <use xlink:href="#m8cb4e387de" x="57.6" y="144.228757" style="stroke: #000000; stroke-width: 0.8"/>
      </g>
     </g>
     <g id="text_6">
      <!-- 20 -->
      <g transform="translate(37.875 148.027976) scale(0.1 -0.1)">
       <use xlink:href="#DejaVuSans-32"/>
       <use xlink:href="#DejaVuSans-30" x="63.623047"/>
      </g>
     </g>
    </g>
   </g>
   <g id="line2d_27">
    <path d="M 57.6 180.657557 
L 58.1952 181.528309 
L 58.7904 183.68124 
L 59.3856 184.989938 
L 59.9808 187.242034 
L 61.1712 193.132874 
L 62.3616 198.940554 
L 62.9568 200.545332 
L 63.552 201.347312 
L 64.1472 199.813274 
L 64.7424 196.24897 
L 66.528 180.665774 
L 67.1232 176.963755 
L 68.3136 172.903069 
L 69.504 172.595864 
L 70.0992 172.893522 
L 70.6944 173.396703 
L 71.2896 173.069979 
L 72.48 174.044475 
L 74.2656 173.739068 
L 74.8608 174.081602 
L 75.456 174.636366 
L 76.0512 174.903228 
L 76.6464 174.669821 
L 77.2416 174.944356 
L 77.8368 174.957694 
L 78.432 175.695955 
L 79.0272 175.636918 
L 80.8128 176.937798 
L 82.5984 179.778668 
L 83.7888 183.357012 
L 84.384 185.806379 
L 86.1696 198.434684 
L 87.36 207.375939 
L 87.9552 210.104471 
L 88.5504 207.550285 
L 89.1456 201.315906 
L 90.9312 173.918102 
L 91.5264 169.10557 
L 92.1216 166.502876 
L 92.7168 165.482439 
L 93.9072 165.547472 
L 94.5024 166.083072 
L 95.0976 166.031697 
L 96.288 165.567719 
L 96.8832 165.071746 
L 98.0736 163.049577 
L 98.6688 161.415217 
L 99.264 160.350903 
L 99.8592 158.071206 
L 100.4544 156.913365 
L 101.0496 155.392757 
L 101.6448 154.519485 
L 102.24 153.066338 
L 102.8352 153.823461 
L 103.4304 154.908957 
L 104.0256 156.386777 
L 105.216 160.773006 
L 105.8112 163.495572 
L 107.0016 167.543176 
L 107.5968 168.127182 
L 108.192 169.270391 
L 108.7872 169.367961 
L 109.9776 169.023236 
L 110.5728 168.43008 
L 111.168 167.473072 
L 111.7632 167.251757 
L 112.3584 166.510725 
L 115.3344 159.109312 
L 116.5248 155.631712 
L 117.12 153.36385 
L 117.7152 152.824044 
L 118.3104 152.461968 
L 118.9056 153.047545 
L 120.096 157.452171 
L 121.8816 166.139129 
L 122.4768 168.022972 
L 123.072 169.320531 
L 123.6672 169.298289 
L 124.2624 170.583343 
L 126.6432 168.896382 
L 127.2384 168.062788 
L 127.8336 167.035418 
L 128.4288 166.282275 
L 129.024 165.046245 
L 131.4048 158.830644 
L 132.5952 154.391851 
L 133.1904 152.362811 
L 133.7856 151.562172 
L 134.3808 151.850146 
L 134.976 152.749076 
L 135.5712 154.958649 
L 136.7616 160.990658 
L 137.3568 164.923262 
L 137.952 167.380515 
L 139.1424 170.596168 
L 139.7376 170.743591 
L 140.3328 171.30082 
L 140.928 170.922044 
L 141.5232 171.10025 
L 142.1184 170.123378 
L 142.7136 169.808363 
L 143.3088 168.76666 
L 143.904 168.860659 
L 144.4992 167.132886 
L 145.0944 166.052194 
L 146.2848 162.705212 
L 146.88 161.48326 
L 148.0704 156.488636 
L 149.856 150.678057 
L 150.4512 149.994333 
L 151.0464 150.901617 
L 151.6416 152.519866 
L 153.4272 163.90837 
L 154.6176 169.88552 
L 155.808 171.989023 
L 156.4032 172.859638 
L 156.9984 172.465882 
L 157.5936 171.805258 
L 159.3792 170.616952 
L 160.5696 169.059381 
L 161.1648 167.911715 
L 161.76 167.512869 
L 162.3552 166.190736 
L 164.736 158.244099 
L 165.9264 152.504525 
L 166.5216 150.189202 
L 167.1168 148.936205 
L 167.712 148.277731 
L 168.3072 149.459411 
L 168.9024 152.754194 
L 170.688 166.742547 
L 171.2832 170.129377 
L 172.4736 174.05616 
L 173.0688 174.455162 
L 173.664 174.212858 
L 174.2592 174.196806 
L 174.8544 173.954149 
L 175.4496 173.427665 
L 176.0448 173.650197 
L 178.4256 171.253583 
L 179.0208 171.32898 
L 179.616 170.570718 
L 180.2112 169.289667 
L 180.8064 168.435368 
L 181.9968 165.614523 
L 182.592 163.465397 
L 184.3776 154.933946 
L 186.1632 145.211693 
L 186.7584 144.510712 
L 187.3536 145.548851 
L 187.9488 150.331536 
L 189.7344 169.835959 
L 190.3296 173.88229 
L 190.9248 176.216171 
L 191.52 177.461381 
L 192.1152 177.950525 
L 192.7104 177.84413 
L 193.3056 177.612964 
L 193.9008 177.224691 
L 194.496 177.61611 
L 195.0912 177.013592 
L 195.6864 177.063572 
L 196.2816 178.030361 
L 196.8768 177.973103 
L 198.0672 179.599116 
L 198.6624 181.010542 
L 199.2576 181.682688 
L 199.8528 183.083194 
L 202.2336 193.076635 
L 203.424 198.960341 
L 204.0192 201.577542 
L 204.6144 202.44556 
L 205.2096 200.655625 
L 205.8048 197.412861 
L 206.9952 186.135268 
L 207.5904 180.275482 
L 208.1856 176.348478 
L 208.7808 173.488773 
L 209.376 172.390418 
L 210.5664 171.953639 
L 211.1616 172.476446 
L 211.7568 172.392458 
L 212.352 172.572891 
L 212.9472 172.594306 
L 213.5424 172.490509 
L 214.1376 172.909186 
L 214.7328 172.969878 
L 215.328 172.888401 
L 215.9232 172.585611 
L 217.1136 171.730832 
L 217.7088 171.483162 
L 218.304 170.811026 
L 218.8992 170.803688 
L 220.6848 166.595364 
L 221.28 164.770343 
L 222.4704 159.288416 
L 224.256 146.991411 
L 224.8512 144.063994 
L 225.4464 141.806663 
L 226.0416 142.588103 
L 226.6368 146.746151 
L 228.4224 170.735672 
L 229.0176 175.347591 
L 229.6128 177.874725 
L 230.208 179.810093 
L 230.8032 180.332148 
L 231.3984 180.291786 
L 232.5888 179.931481 
L 233.184 179.453543 
L 233.7792 179.980949 
L 234.3744 180.093162 
L 235.5648 182.002315 
L 236.7552 184.234865 
L 237.9456 187.44458 
L 239.136 192.019642 
L 240.3264 197.008659 
L 240.9216 198.213833 
L 241.5168 198.586333 
L 242.112 197.62878 
L 242.7072 194.893763 
L 243.3024 191.631773 
L 245.088 179.828947 
L 245.6832 177.870952 
L 246.2784 176.416568 
L 246.8736 175.420932 
L 248.6592 176.270845 
L 249.2544 176.327868 
L 249.8496 176.820019 
L 250.4448 177.997894 
L 251.04 178.08894 
L 251.6352 178.727355 
L 252.2304 179.776509 
L 252.8256 181.200761 
L 253.4208 181.539586 
L 255.2064 187.109704 
L 256.992 195.371743 
L 257.5872 198.147995 
L 258.1824 199.744657 
L 258.7776 200.797215 
L 259.3728 199.405603 
L 259.968 196.608832 
L 262.3488 177.962501 
L 262.944 175.676746 
L 264.1344 173.295588 
L 265.92 173.757566 
L 266.5152 174.050933 
L 267.1104 174.967779 
L 267.7056 174.553731 
L 268.3008 175.484635 
L 268.896 176.144454 
L 269.4912 176.553155 
L 270.0864 176.353249 
L 270.6816 177.227623 
L 271.872 178.430116 
L 273.0624 180.222512 
L 274.2528 183.868421 
L 275.4432 188.732173 
L 277.2288 199.50706 
L 277.824 203.25761 
L 278.4192 204.952915 
L 279.0144 204.371286 
L 279.6096 200.615457 
L 281.9904 174.960365 
L 282.5856 171.859927 
L 283.1808 170.397963 
L 283.776 169.2419 
L 284.3712 169.617873 
L 284.9664 169.472919 
L 286.1568 170.08465 
L 286.752 169.60316 
L 287.3472 169.455839 
L 287.9424 168.923544 
L 288.5376 168.681574 
L 289.1328 167.910896 
L 290.3232 165.713247 
L 292.704 157.732141 
L 293.8944 151.866494 
L 295.0848 147.820164 
L 295.68 147.762384 
L 296.2752 149.60188 
L 296.8704 152.934218 
L 298.656 167.732594 
L 299.2512 171.199424 
L 299.8464 173.2606 
L 300.4416 174.241226 
L 301.632 174.608206 
L 302.2272 174.192474 
L 302.8224 174.256278 
L 303.4176 173.576939 
L 304.0128 173.454996 
L 304.608 172.832735 
L 305.2032 172.705682 
L 305.7984 172.068367 
L 306.3936 172.110716 
L 307.584 170.591479 
L 308.1792 170.264671 
L 308.7744 168.811205 
L 309.3696 167.990112 
L 310.56 165.51796 
L 311.7504 160.615543 
L 314.7264 144.320404 
L 315.3216 143.520829 
L 315.9168 146.075847 
L 316.512 151.365187 
L 318.2976 171.452681 
L 318.8928 175.418031 
L 320.0832 178.515055 
L 320.6784 178.705591 
L 321.2736 178.337169 
L 321.8688 178.451275 
L 323.6544 178.124426 
L 324.2496 178.300859 
L 325.44 179.472245 
L 326.0352 180.707311 
L 326.6304 181.446794 
L 327.2256 182.545347 
L 327.8208 185.148879 
L 328.416 186.843109 
L 329.0112 189.055319 
L 330.7968 197.479264 
L 331.392 199.782278 
L 331.9872 200.330277 
L 332.5824 200.069545 
L 333.1776 197.981365 
L 333.7728 193.772889 
L 334.9632 183.253692 
L 335.5584 179.233674 
L 336.1536 176.310181 
L 336.7488 174.609606 
L 337.344 173.678162 
L 337.9392 173.640849 
L 338.5344 173.31286 
L 339.1296 173.807292 
L 339.7248 174.051917 
L 340.32 173.7287 
L 340.9152 174.629815 
L 341.5104 174.672335 
L 342.1056 174.998829 
L 342.7008 175.642424 
L 343.296 175.753461 
L 343.8912 176.2309 
L 344.4864 176.326788 
L 345.0816 177.200062 
L 345.6768 178.275093 
L 346.272 178.143156 
L 346.8672 179.443414 
L 348.6528 184.960163 
L 349.248 187.757357 
L 349.8432 189.984521 
L 352.224 205.066083 
L 352.8192 205.115267 
L 353.4144 203.586686 
L 354.0096 198.011247 
L 355.2 182.462429 
L 355.7952 175.847136 
L 356.3904 171.86306 
L 357.5808 168.917539 
L 358.7712 168.73379 
L 359.3664 169.082484 
L 361.152 168.956705 
L 362.3424 167.898572 
L 362.9376 167.083761 
L 364.128 164.618295 
L 364.7232 162.797614 
L 365.3184 161.443278 
L 365.9136 159.620084 
L 366.5088 155.974881 
L 367.104 154.409884 
L 367.6992 151.358456 
L 368.2944 149.68254 
L 368.8896 148.815121 
L 369.4848 149.489461 
L 370.08 152.182205 
L 370.6752 155.885082 
L 371.8656 164.534126 
L 372.4608 168.076907 
L 373.056 170.765215 
L 373.6512 172.440863 
L 374.2464 173.134983 
L 374.8416 173.562104 
L 375.4368 173.067499 
L 376.032 173.409243 
L 376.6272 172.586353 
L 377.2224 172.648568 
L 377.8176 171.868055 
L 378.4128 171.624185 
L 379.008 170.519644 
L 379.6032 170.240701 
L 381.984 165.970117 
L 383.1744 161.987403 
L 384.3648 156.902854 
L 386.1504 147.615625 
L 386.7456 146.612422 
L 387.3408 146.737986 
L 387.936 149.368013 
L 390.3168 170.452616 
L 390.912 173.383213 
L 391.5072 175.164556 
L 392.1024 176.127311 
L 393.2928 175.451707 
L 393.888 175.806515 
L 394.4832 175.633133 
L 395.6736 174.828034 
L 396.2688 175.247259 
L 398.0544 175.664453 
L 398.6496 175.562202 
L 399.2448 176.051237 
L 399.84 176.038589 
L 400.4352 176.208702 
L 401.0304 176.838602 
L 401.6256 176.889131 
L 402.2208 178.208665 
L 402.816 178.790374 
L 404.6016 183.610698 
L 405.1968 186.817004 
L 405.792 189.228111 
L 407.5776 201.27307 
L 408.1728 205.356756 
L 408.768 207.211734 
L 409.3632 205.962886 
L 409.9584 200.873763 
L 410.5536 193.405255 
L 411.1488 183.994588 
L 411.744 176.857158 
L 412.3392 171.764026 
L 412.9344 169.015101 
L 413.5296 167.637953 
L 414.72 167.46697 
L 414.72 167.46697 
" clip-path="url(#pfa2a18e8a3)" style="fill: none; stroke: #0000cc; stroke-width: 1.5; stroke-linecap: square"/>
   </g>
   <g id="line2d_28">
    <path d="M 57.6 180.657557 
L 58.790405 183.704636 
L 59.980809 187.960815 
L 61.171191 193.512373 
L 62.361595 199.18345 
L 62.956786 200.998894 
L 63.552 201.26258 
L 64.147191 199.446965 
L 64.742405 195.543404 
L 66.528 179.94077 
L 67.123191 176.486232 
L 67.718405 174.34694 
L 68.313595 173.243496 
L 68.908809 172.831631 
L 69.504 172.821804 
L 70.694405 173.276346 
L 72.48 174.010993 
L 74.860786 174.649618 
L 76.646405 175.188617 
L 77.836786 175.760204 
L 79.027191 176.668042 
L 79.622405 177.316189 
L 80.217595 178.145566 
L 80.812809 179.208379 
L 81.408 180.569928 
L 82.003191 182.310167 
L 82.598405 184.522035 
L 83.193595 187.302936 
L 83.788809 190.731615 
L 84.979191 199.383586 
L 85.574405 203.936127 
L 86.169595 207.461369 
L 86.764786 208.468108 
L 87.36 205.548334 
L 87.955191 198.505457 
L 89.145595 179.94942 
L 89.740786 173.144008 
L 90.336 169.061837 
L 90.931191 167.103629 
L 91.526405 166.437711 
L 92.121595 166.401399 
L 93.312 166.722664 
L 93.907191 166.725089 
L 94.502405 166.526689 
L 95.097595 166.104451 
L 95.692809 165.449679 
L 96.288 164.559306 
L 97.478405 162.077437 
L 98.668786 158.772654 
L 100.454405 153.648519 
L 101.049595 152.640176 
L 101.644786 152.421152 
L 102.24 153.194121 
L 102.835191 154.987206 
L 104.025595 160.613155 
L 105.216 166.134902 
L 105.811191 168.072243 
L 106.406405 169.367202 
L 107.001595 170.0983 
L 107.596809 170.385453 
L 108.192 170.34495 
L 108.787191 170.06814 
L 109.382405 169.615608 
L 110.572786 168.293783 
L 111.763191 166.415986 
L 112.953595 163.846236 
L 114.144 160.452707 
L 116.524809 152.637435 
L 117.12 151.51522 
L 117.715191 151.341385 
L 118.310405 152.360972 
L 118.905595 154.586107 
L 121.286405 167.349075 
L 121.881595 169.344132 
L 122.476786 170.602287 
L 123.072 171.25505 
L 123.667191 171.460311 
L 124.262405 171.356024 
L 124.857595 171.042337 
L 126.048 170.004253 
L 127.238405 168.513161 
L 128.428809 166.457161 
L 129.619191 163.60415 
L 130.809595 159.76001 
L 133.190405 150.928211 
L 133.785595 149.868967 
L 134.380786 150.067003 
L 134.976 151.779119 
L 135.571191 154.900988 
L 137.356786 166.746235 
L 137.952 169.518807 
L 138.547191 171.347214 
L 139.142405 172.372136 
L 139.737595 172.804579 
L 140.332809 172.842276 
L 140.928 172.634865 
L 142.118405 171.831759 
L 143.308809 170.723127 
L 144.499191 169.263993 
L 145.689595 167.229293 
L 146.88 164.297742 
L 148.070405 160.147033 
L 149.260786 154.783602 
L 150.451191 149.442411 
L 151.046405 147.813778 
L 151.641595 147.686283 
L 152.236809 149.518437 
L 152.832 153.27931 
L 154.617595 168.050027 
L 155.212809 171.345426 
L 155.808 173.410071 
L 156.403191 174.492149 
L 156.998405 174.905538 
L 157.593595 174.918947 
L 158.784 174.436639 
L 162.950405 172.205425 
L 164.140809 171.221267 
L 165.331191 169.725853 
L 165.926405 168.68626 
L 166.521595 167.380674 
L 167.116809 165.742842 
L 167.712 163.700396 
L 168.307191 161.181419 
L 169.497595 154.575479 
L 170.688 146.789072 
L 171.283191 143.736431 
L 171.878405 142.602903 
L 172.473595 144.464186 
L 173.068786 149.63657 
L 174.854405 171.367317 
L 175.449595 175.680523 
L 176.044809 178.070681 
L 176.64 179.119144 
L 177.235191 179.398732 
L 178.425595 179.160149 
L 179.020809 179.046903 
L 179.616 179.061606 
L 180.211191 179.241205 
L 180.806405 179.604795 
L 181.401595 180.165887 
L 181.996786 180.93949 
L 182.592 181.944661 
L 183.187191 183.205552 
L 184.377595 186.58958 
L 185.568 191.141215 
L 186.758405 196.188597 
L 187.353595 198.24377 
L 187.948809 199.379099 
L 188.544 199.094921 
L 189.139191 197.097806 
L 189.734405 193.532285 
L 191.52 180.57409 
L 192.115191 177.722865 
L 192.710405 175.91722 
L 193.305595 174.958509 
L 193.900786 174.593935 
L 194.496 174.603374 
L 195.686405 175.167818 
L 197.472 176.493629 
L 198.662405 177.63963 
L 199.852809 179.210234 
L 200.448 180.246289 
L 201.043191 181.510234 
L 201.638382 183.054065 
L 202.233618 184.930978 
L 203.424 189.839134 
L 205.804809 201.535391 
L 206.4 202.458058 
L 206.995236 201.199709 
L 207.590427 197.515958 
L 209.971191 176.302703 
L 210.566382 173.754363 
L 211.161618 172.418484 
L 211.756809 171.892306 
L 212.352 171.829012 
L 213.542382 172.209462 
L 214.732809 172.57242 
L 215.923191 172.655306 
L 217.113618 172.42251 
L 218.304 171.848199 
L 219.494427 170.836049 
L 220.089618 170.106426 
L 220.684809 169.179439 
L 221.28 168.005575 
L 221.875191 166.524813 
L 222.470382 164.666717 
L 223.065618 162.356574 
L 223.660809 159.530156 
L 224.851191 152.339677 
L 226.041618 144.769684 
L 226.636809 142.623413 
L 227.232 143.082063 
L 227.827191 146.907115 
L 229.017618 161.703505 
L 229.612809 168.962163 
L 230.208 174.24231 
L 230.803236 177.407807 
L 231.398427 178.951367 
L 231.993618 179.491905 
L 232.588809 179.524485 
L 233.779191 179.228637 
L 234.374382 179.189927 
L 234.969618 179.307927 
L 235.564809 179.607165 
L 236.16 180.10249 
L 236.755191 180.807554 
L 237.350382 181.739339 
L 237.945618 182.919368 
L 239.136 186.115031 
L 240.326382 190.46812 
L 242.112 197.600834 
L 242.707236 198.984572 
L 243.302427 199.099389 
L 243.897618 197.58988 
L 244.492809 194.472668 
L 246.278382 181.678065 
L 246.873618 178.583108 
L 247.468809 176.530303 
L 248.064 175.370269 
L 248.659191 174.864341 
L 249.254382 174.786087 
L 249.849618 174.963693 
L 251.04 175.684805 
L 252.230382 176.63397 
L 253.420809 177.822203 
L 254.611236 179.444916 
L 255.206427 180.510353 
L 255.801618 181.805283 
L 256.396809 183.380218 
L 257.587191 187.55926 
L 258.777618 193.188847 
L 259.968 199.233539 
L 260.563191 201.368578 
L 261.158382 201.984949 
L 261.753618 200.445447 
L 262.348809 196.61853 
L 264.134382 180.093078 
L 264.729618 176.314908 
L 265.324809 173.962781 
L 265.92 172.741655 
L 266.515236 172.273465 
L 267.110427 172.237123 
L 268.300809 172.64844 
L 269.491191 173.071039 
L 270.681618 173.276614 
L 271.872 173.25682 
L 273.062382 173.028731 
L 274.252809 172.565195 
L 275.443191 171.775757 
L 276.038382 171.206458 
L 276.633618 170.478443 
L 277.228809 169.548251 
L 277.824 168.360412 
L 278.419236 166.84611 
L 279.014427 164.924045 
L 279.609618 162.504248 
L 280.204809 159.502206 
L 281.395191 151.682863 
L 282.585618 143.190096 
L 283.180809 140.752076 
L 283.776 141.357736 
L 284.371191 145.931807 
L 286.752 176.42936 
L 287.347191 179.48866 
L 287.942382 180.839325 
L 288.537618 181.215763 
L 289.728 180.980319 
L 290.323236 180.876007 
L 290.918427 180.930999 
L 291.513618 181.187317 
L 292.108809 181.663791 
L 292.704 182.370157 
L 293.299191 183.313783 
L 294.489618 185.934254 
L 295.68 189.477178 
L 297.465618 195.222099 
L 298.060809 196.449118 
L 298.656 196.816068 
L 299.251191 196.059121 
L 299.846382 194.113649 
L 301.036809 187.798897 
L 302.227236 181.612431 
L 302.822427 179.488136 
L 303.417618 178.097891 
L 304.012809 177.332882 
L 304.608 177.042665 
L 305.203191 177.088101 
L 305.798382 177.363271 
L 306.988809 178.361877 
L 308.179191 179.832576 
L 309.369618 181.863796 
L 310.56 184.671877 
L 311.750382 188.438868 
L 314.131236 197.073848 
L 314.726427 198.135409 
L 315.321618 197.995404 
L 315.916809 196.400936 
L 316.512 193.43556 
L 318.297618 181.9152 
L 318.892809 179.148067 
L 319.488 177.294731 
L 320.083191 176.234514 
L 320.678382 175.769581 
L 321.273618 175.708698 
L 321.868809 175.904123 
L 323.059191 176.714623 
L 324.249618 177.866039 
L 325.44 179.39915 
L 326.630427 181.538329 
L 327.820809 184.597239 
L 329.011191 188.857224 
L 331.392 199.072283 
L 331.987191 200.259954 
L 332.582382 199.856718 
L 333.177618 197.542935 
L 333.772809 193.521222 
L 334.963191 183.640181 
L 335.558382 179.575137 
L 336.153618 176.696246 
L 336.748809 174.946726 
L 337.344 174.06951 
L 337.939236 173.775364 
L 338.534427 173.827159 
L 339.724809 174.377401 
L 342.105618 175.829659 
L 343.296 176.730109 
L 344.486382 177.979074 
L 345.081618 178.81723 
L 345.676809 179.854389 
L 346.272 181.142653 
L 346.867191 182.74231 
L 347.462382 184.718156 
L 348.057618 187.131107 
L 349.248 193.354804 
L 350.438427 200.536299 
L 351.033618 203.322454 
L 351.628809 204.389097 
L 352.224 202.812693 
L 352.819191 198.296627 
L 354.604809 178.405799 
L 355.2 174.147205 
L 355.795191 171.658322 
L 356.390382 170.476563 
L 356.985618 170.093264 
L 357.580809 170.113775 
L 359.366382 170.520728 
L 359.961618 170.474444 
L 360.556809 170.284515 
L 361.152 169.939167 
L 361.747236 169.42605 
L 362.342427 168.728516 
L 362.937618 167.822622 
L 363.532809 166.676886 
L 364.128 165.253257 
L 364.723191 163.510942 
L 365.913618 158.950462 
L 368.294382 147.929426 
L 368.889618 146.830567 
L 369.484809 147.618074 
L 370.08 150.596304 
L 371.270382 161.023068 
L 371.865618 166.298542 
L 372.460809 170.426738 
L 373.056 173.176729 
L 373.651236 174.729636 
L 374.246427 175.425853 
L 374.841618 175.592977 
L 375.436809 175.47715 
L 379.008 174.164047 
L 383.174382 173.244 
L 384.364809 172.731615 
L 385.555236 171.902516 
L 386.150427 171.305283 
L 386.745618 170.536918 
L 387.340809 169.547132 
L 387.936 168.272062 
L 388.531191 166.632266 
L 389.126382 164.532874 
L 389.721618 161.868926 
L 390.316809 158.543676 
L 391.507191 149.875586 
L 392.697618 140.896692 
L 393.292809 138.951529 
L 393.888 140.853945 
L 394.483191 147.28794 
L 396.268809 174.513868 
L 396.864 179.304359 
L 397.459236 181.675139 
L 398.054427 182.530204 
L 398.649618 182.625855 
L 399.84 182.274918 
L 400.435191 182.239762 
L 401.030382 182.407175 
L 401.625618 182.801745 
L 402.220809 183.42987 
L 402.816 184.289786 
L 404.006382 186.669675 
L 405.792 191.395119 
L 406.982382 194.185199 
L 407.577618 194.912515 
L 408.172809 194.90053 
L 408.768 194.014164 
L 409.363236 192.275862 
L 410.553618 187.224554 
L 411.744 182.427981 
L 412.339191 180.749554 
L 412.934382 179.624942 
L 413.529618 178.993107 
L 414.124809 178.75934 
L 414.72 178.83027 
L 414.72 178.83027 
" clip-path="url(#pfa2a18e8a3)" style="fill: none; stroke-dasharray: 9.6,2.4,1.5,2.4; stroke-dashoffset: 0; stroke: #ff0000; stroke-width: 1.5"/>
   </g>
   <g id="patch_8">
    <path d="M 57.6 213.662118 
L 57.6 135.393882 
" style="fill: none; stroke: #000000; stroke-width: 0.8; stroke-linejoin: miter; stroke-linecap: square"/>
   </g>
   <g id="patch_9">
    <path d="M 414.72 213.662118 
L 414.72 135.393882 
" style="fill: none; stroke: #000000; stroke-width: 0.8; stroke-linejoin: miter; stroke-linecap: square"/>
   </g>
   <g id="patch_10">
    <path d="M 57.6 213.662118 
L 414.72 213.662118 
" style="fill: none; stroke: #000000; stroke-width: 0.8; stroke-linejoin: miter; stroke-linecap: square"/>
   </g>
   <g id="patch_11">
    <path d="M 57.6 135.393882 
L 414.72 135.393882 
" style="fill: none; stroke: #000000; stroke-width: 0.8; stroke-linejoin: miter; stroke-linecap: square"/>
   </g>
  </g>
  <g id="axes_3">
   <g id="patch_12">
    <path d="M 57.6 307.584 
L 414.72 307.584 
L 414.72 229.315765 
L 57.6 229.315765 
z
" style="fill: #ffffff"/>
   </g>
   <g id="matplotlib.axis_5">
    <g id="xtick_19">
     <g id="line2d_29">
      <g>
       <use xlink:href="#mfc84c05299" x="57.6" y="307.584" style="stroke: #000000; stroke-width: 0.8"/>
      </g>
     </g>
     <g id="text_7">
      <!-- 10 -->
      <g transform="translate(51.2375 322.182437) scale(0.1 -0.1)">
       <use xlink:href="#DejaVuSans-31"/>
       <use xlink:href="#DejaVuSans-30" x="63.623047"/>
      </g>
     </g>
    </g>
    <g id="xtick_20">
     <g id="line2d_30">
      <g>
       <use xlink:href="#mfc84c05299" x="105.216" y="307.584" style="stroke: #000000; stroke-width: 0.8"/>
      </g>
     </g>
     <g id="text_8">
      <!-- 12 -->
      <g transform="translate(98.8535 322.182437) scale(0.1 -0.1)">
       <use xlink:href="#DejaVuSans-31"/>
       <use xlink:href="#DejaVuSans-32" x="63.623047"/>
      </g>
     </g>
    </g>
    <g id="xtick_21">
     <g id="line2d_31">
      <g>
       <use xlink:href="#mfc84c05299" x="152.832" y="307.584" style="stroke: #000000; stroke-width: 0.8"/>
      </g>
     </g>
     <g id="text_9">
      <!-- 14 -->
      <g transform="translate(146.4695 322.182437) scale(0.1 -0.1)">
       <defs>
        <path id="DejaVuSans-34" d="M 2419 4116 
L 825 1625 
L 2419 1625 
L 2419 4116 
z
M 2253 4666 
L 3047 4666 
L 3047 1625 
L 3713 1625 
L 3713 1100 
L 3047 1100 
L 3047 0 
L 2419 0 
L 2419 1100 
L 313 1100 
L 313 1709 
L 2253 4666 
z
" transform="scale(0.015625)"/>
       </defs>
       <use xlink:href="#DejaVuSans-31"/>
       <use xlink:href="#DejaVuSans-34" x="63.623047"/>
      </g>
     </g>
    </g>
    <g id="xtick_22">
     <g id="line2d_32">
      <g>
       <use xlink:href="#mfc84c05299" x="200.448" y="307.584" style="stroke: #000000; stroke-width: 0.8"/>
      </g>
     </g>
     <g id="text_10">
      <!-- 16 -->
      <g transform="translate(194.0855 322.182437) scale(0.1 -0.1)">
       <defs>
        <path id="DejaVuSans-36" d="M 2113 2584 
Q 1688 2584 1439 2293 
Q 1191 2003 1191 1497 
Q 1191 994 1439 701 
Q 1688 409 2113 409 
Q 2538 409 2786 701 
Q 3034 994 3034 1497 
Q 3034 2003 2786 2293 
Q 2538 2584 2113 2584 
z
M 3366 4563 
L 3366 3988 
Q 3128 4100 2886 4159 
Q 2644 4219 2406 4219 
Q 1781 4219 1451 3797 
Q 1122 3375 1075 2522 
Q 1259 2794 1537 2939 
Q 1816 3084 2150 3084 
Q 2853 3084 3261 2657 
Q 3669 2231 3669 1497 
Q 3669 778 3244 343 
Q 2819 -91 2113 -91 
Q 1303 -91 875 529 
Q 447 1150 447 2328 
Q 447 3434 972 4092 
Q 1497 4750 2381 4750 
Q 2619 4750 2861 4703 
Q 3103 4656 3366 4563 
z
" transform="scale(0.015625)"/>
       </defs>
       <use xlink:href="#DejaVuSans-31"/>
       <use xlink:href="#DejaVuSans-36" x="63.623047"/>
      </g>
     </g>
    </g>
    <g id="xtick_23">
     <g id="line2d_33">
      <g>
       <use xlink:href="#mfc84c05299" x="248.064" y="307.584" style="stroke: #000000; stroke-width: 0.8"/>
      </g>
     </g>
     <g id="text_11">
      <!-- 18 -->
      <g transform="translate(241.7015 322.182437) scale(0.1 -0.1)">
       <defs>
        <path id="DejaVuSans-38" d="M 2034 2216 
Q 1584 2216 1326 1975 
Q 1069 1734 1069 1313 
Q 1069 891 1326 650 
Q 1584 409 2034 409 
Q 2484 409 2743 651 
Q 3003 894 3003 1313 
Q 3003 1734 2745 1975 
Q 2488 2216 2034 2216 
z
M 1403 2484 
Q 997 2584 770 2862 
Q 544 3141 544 3541 
Q 544 4100 942 4425 
Q 1341 4750 2034 4750 
Q 2731 4750 3128 4425 
Q 3525 4100 3525 3541 
Q 3525 3141 3298 2862 
Q 3072 2584 2669 2484 
Q 3125 2378 3379 2068 
Q 3634 1759 3634 1313 
Q 3634 634 3220 271 
Q 2806 -91 2034 -91 
Q 1263 -91 848 271 
Q 434 634 434 1313 
Q 434 1759 690 2068 
Q 947 2378 1403 2484 
z
M 1172 3481 
Q 1172 3119 1398 2916 
Q 1625 2713 2034 2713 
Q 2441 2713 2670 2916 
Q 2900 3119 2900 3481 
Q 2900 3844 2670 4047 
Q 2441 4250 2034 4250 
Q 1625 4250 1398 4047 
Q 1172 3844 1172 3481 
z
" transform="scale(0.015625)"/>
       </defs>
       <use xlink:href="#DejaVuSans-31"/>
       <use xlink:href="#DejaVuSans-38" x="63.623047"/>
      </g>
     </g>
    </g>
    <g id="xtick_24">
     <g id="line2d_34">
      <g>
       <use xlink:href="#mfc84c05299" x="295.68" y="307.584" style="stroke: #000000; stroke-width: 0.8"/>
      </g>
     </g>
     <g id="text_12">
      <!-- 20 -->
      <g transform="translate(289.3175 322.182437) scale(0.1 -0.1)">
       <use xlink:href="#DejaVuSans-32"/>
       <use xlink:href="#DejaVuSans-30" x="63.623047"/>
      </g>
     </g>
    </g>
    <g id="xtick_25">
     <g id="line2d_35">
      <g>
       <use xlink:href="#mfc84c05299" x="343.296" y="307.584" style="stroke: #000000; stroke-width: 0.8"/>
      </g>
     </g>
     <g id="text_13">
      <!-- 22 -->
      <g transform="translate(336.9335 322.182437) scale(0.1 -0.1)">
       <use xlink:href="#DejaVuSans-32"/>
       <use xlink:href="#DejaVuSans-32" x="63.623047"/>
      </g>
     </g>
    </g>
    <g id="xtick_26">
     <g id="line2d_36">
      <g>
       <use xlink:href="#mfc84c05299" x="390.912" y="307.584" style="stroke: #000000; stroke-width: 0.8"/>
      </g>
     </g>
     <g id="text_14">
      <!-- 24 -->
      <g transform="translate(384.5495 322.182437) scale(0.1 -0.1)">
       <use xlink:href="#DejaVuSans-32"/>
       <use xlink:href="#DejaVuSans-34" x="63.623047"/>
      </g>
     </g>
    </g>
    <g id="xtick_27">
     <g id="line2d_37">
      <g>
       <use xlink:href="#mfc84c05299" x="414.72" y="307.584" style="stroke: #000000; stroke-width: 0.8"/>
      </g>
     </g>
     <g id="text_15">
      <!-- 25 -->
      <g transform="translate(408.3575 322.182437) scale(0.1 -0.1)">
       <defs>
        <path id="DejaVuSans-35" d="M 691 4666 
L 3169 4666 
L 3169 4134 
L 1269 4134 
L 1269 2991 
Q 1406 3038 1543 3061 
Q 1681 3084 1819 3084 
Q 2600 3084 3056 2656 
Q 3513 2228 3513 1497 
Q 3513 744 3044 326 
Q 2575 -91 1722 -91 
Q 1428 -91 1123 -41 
Q 819 9 494 109 
L 494 744 
Q 775 591 1075 516 
Q 1375 441 1709 441 
Q 2250 441 2565 725 
Q 2881 1009 2881 1497 
Q 2881 1984 2565 2268 
Q 2250 2553 1709 2553 
Q 1456 2553 1204 2497 
Q 953 2441 691 2322 
L 691 4666 
z
" transform="scale(0.015625)"/>
       </defs>
       <use xlink:href="#DejaVuSans-32"/>
       <use xlink:href="#DejaVuSans-35" x="63.623047"/>
      </g>
     </g>
    </g>
   </g>
   <g id="matplotlib.axis_6">
    <g id="ytick_7">
     <g id="line2d_38">
      <g>
       <use xlink:href="#m8cb4e387de" x="57.6" y="278.12681" style="stroke: #000000; stroke-width: 0.8"/>
      </g>
     </g>
     <g id="text_16">
      <!-- 20 -->
      <g transform="translate(37.875 281.926029) scale(0.1 -0.1)">
       <use xlink:href="#DejaVuSans-32"/>
       <use xlink:href="#DejaVuSans-30" x="63.623047"/>
      </g>
     </g>
    </g>
    <g id="ytick_8">
     <g id="line2d_39">
      <g>
       <use xlink:href="#m8cb4e387de" x="57.6" y="240.209255" style="stroke: #000000; stroke-width: 0.8"/>
      </g>
     </g>
     <g id="text_17">
      <!-- 40 -->
      <g transform="translate(37.875 244.008473) scale(0.1 -0.1)">
       <use xlink:href="#DejaVuSans-34"/>
       <use xlink:href="#DejaVuSans-30" x="63.623047"/>
      </g>
     </g>
    </g>
   </g>
   <g id="line2d_40">
    <path d="M 57.6 286.805345 
L 58.1952 287.997503 
L 58.7904 288.498837 
L 59.9808 289.171955 
L 60.576 288.472961 
L 61.1712 286.297014 
L 61.7664 283.285799 
L 62.3616 278.169317 
L 63.552 263.77498 
L 64.7424 249.155851 
L 65.3376 244.370551 
L 65.9328 243.025689 
L 66.528 244.972868 
L 67.1232 247.754536 
L 67.7184 251.5463 
L 69.504 264.365124 
L 71.2896 273.517919 
L 73.6704 283.831101 
L 74.8608 287.834145 
L 77.2416 294.078543 
L 77.8368 294.992469 
L 79.0272 298.035767 
L 79.6224 299.302872 
L 80.2176 299.786465 
L 81.408 301.788332 
L 82.0032 303.300059 
L 82.5984 303.227195 
L 83.1936 304.026353 
L 83.7888 303.719084 
L 84.384 303.254608 
L 84.9792 302.602835 
L 85.5744 300.012733 
L 86.1696 295.858208 
L 86.7648 289.342714 
L 87.36 279.510457 
L 87.9552 267.675427 
L 89.1456 240.79391 
L 89.7408 233.973325 
L 90.336 232.972406 
L 90.9312 236.585153 
L 92.7168 254.126883 
L 93.9072 262.84979 
L 95.0976 269.108105 
L 95.6928 271.490156 
L 96.288 273.349907 
L 96.8832 274.396826 
L 97.4784 276.161165 
L 98.0736 277.400648 
L 98.6688 277.581463 
L 99.264 277.503161 
L 99.8592 277.077546 
L 100.4544 275.730312 
L 101.6448 270.718941 
L 102.24 267.291124 
L 103.4304 259.250044 
L 104.0256 255.503852 
L 105.216 252.996818 
L 105.8112 252.61354 
L 106.4064 253.739938 
L 107.0016 256.789679 
L 107.5968 258.175873 
L 108.192 260.363822 
L 108.7872 263.878064 
L 109.9776 268.160999 
L 111.168 272.641324 
L 112.3584 276.360691 
L 112.9536 277.478046 
L 113.5488 279.061017 
L 114.144 279.012969 
L 114.7392 279.435187 
L 115.3344 278.942224 
L 115.9296 278.286369 
L 116.5248 274.981216 
L 117.12 272.716608 
L 120.096 252.991962 
L 121.2864 251.532543 
L 122.4768 254.416768 
L 123.6672 259.530176 
L 124.8576 265.813927 
L 127.8336 277.271783 
L 128.4288 278.339 
L 129.024 279.86 
L 129.6192 280.776842 
L 130.2144 281.373232 
L 130.8096 280.939201 
L 131.4048 279.781404 
L 132 279.235572 
L 133.1904 272.739486 
L 135.5712 254.12013 
L 136.1664 251.248372 
L 136.7616 249.682391 
L 137.3568 250.273819 
L 138.5472 253.889832 
L 139.7376 260.518348 
L 142.7136 274.672408 
L 143.3088 276.168531 
L 145.0944 281.652808 
L 145.6896 282.82191 
L 146.2848 283.306113 
L 146.88 283.545745 
L 147.4752 283.13297 
L 148.6656 279.46199 
L 149.2608 276.063805 
L 150.4512 265.857411 
L 151.6416 254.661799 
L 152.2368 249.93143 
L 152.832 248.707641 
L 153.4272 248.132628 
L 154.0224 250.01013 
L 154.6176 252.454626 
L 158.1888 271.280185 
L 158.784 274.383197 
L 159.3792 276.400132 
L 159.9744 278.93734 
L 162.3552 285.966284 
L 163.5456 287.296416 
L 164.736 286.58422 
L 165.9264 281.616762 
L 166.5216 277.147393 
L 167.712 264.243433 
L 168.3072 256.893739 
L 168.9024 251.162269 
L 169.4976 246.83993 
L 170.0928 244.917687 
L 170.688 245.47366 
L 172.4736 255.737235 
L 173.0688 260.255966 
L 173.664 263.176426 
L 174.2592 267.167248 
L 175.4496 273.013336 
L 177.8304 283.420758 
L 178.4256 284.766993 
L 179.616 288.498469 
L 180.2112 289.959533 
L 180.8064 291.117063 
L 181.4016 291.963257 
L 181.9968 293.462537 
L 182.592 293.455687 
L 183.1872 293.274815 
L 183.7824 292.436506 
L 184.3776 290.202932 
L 184.9728 286.43605 
L 185.568 281.879575 
L 186.1632 274.299971 
L 187.9488 247.165883 
L 188.544 241.50933 
L 189.1392 240.526031 
L 189.7344 241.120884 
L 190.3296 244.946971 
L 190.9248 250.579481 
L 192.7104 264.182914 
L 193.9008 270.110143 
L 194.496 273.799874 
L 195.0912 276.430224 
L 196.2816 280.590478 
L 196.8768 283.343228 
L 197.472 285.076882 
L 198.0672 286.08745 
L 198.6624 288.005276 
L 199.8528 290.322176 
L 200.448 290.036176 
L 201.0432 290.222279 
L 201.6384 289.691728 
L 202.2336 287.796125 
L 202.8288 284.455883 
L 203.424 279.541211 
L 204.0192 273.208976 
L 205.8048 249.231044 
L 206.4 243.655501 
L 206.9952 242.192589 
L 207.5904 243.710475 
L 208.1856 246.719949 
L 208.7808 251.738891 
L 212.352 273.422361 
L 212.9472 276.177278 
L 213.5424 278.396198 
L 214.1376 281.175631 
L 214.7328 283.044599 
L 215.9232 287.951915 
L 216.5184 289.55773 
L 217.1136 290.473498 
L 217.7088 292.290849 
L 218.304 293.494204 
L 218.8992 295.282069 
L 220.0896 297.063371 
L 220.6848 297.261276 
L 221.28 298.032544 
L 222.4704 297.667518 
L 223.0656 295.330018 
L 223.6608 291.904376 
L 224.256 286.683008 
L 224.8512 278.883642 
L 226.0416 257.131377 
L 226.6368 245.763626 
L 227.232 239.213951 
L 227.8272 236.542638 
L 228.4224 238.31276 
L 229.0176 242.443113 
L 230.208 253.547925 
L 231.9936 266.540679 
L 232.5888 268.900907 
L 233.184 272.022732 
L 234.9696 278.931318 
L 235.5648 281.166295 
L 236.16 281.735829 
L 236.7552 283.321633 
L 237.3504 283.587174 
L 237.9456 284.091075 
L 238.5408 283.584503 
L 239.7312 279.178981 
L 240.9216 270.374882 
L 241.5168 264.916246 
L 242.7072 252.972387 
L 243.3024 249.041255 
L 244.4928 248.082867 
L 245.6832 252.861342 
L 246.2784 255.952532 
L 247.4688 262.997573 
L 248.064 266.514646 
L 250.4448 277.640262 
L 251.6352 281.520482 
L 253.4208 286.414807 
L 254.6112 287.409014 
L 255.2064 287.609794 
L 255.8016 286.970847 
L 256.992 282.651981 
L 257.5872 277.573801 
L 258.7776 264.516686 
L 259.968 251.035481 
L 260.5632 246.117517 
L 261.1584 244.734961 
L 261.7536 245.40481 
L 262.3488 247.722397 
L 264.7296 263.371527 
L 265.3248 266.444944 
L 265.92 270.29504 
L 268.3008 280.432552 
L 268.896 282.277644 
L 269.4912 285.052138 
L 271.2768 290.829544 
L 271.872 291.413486 
L 272.4672 293.179579 
L 273.0624 294.390312 
L 273.6576 294.132127 
L 274.2528 295.224052 
L 274.848 295.673844 
L 275.4432 295.2372 
L 276.6336 289.953723 
L 277.2288 285.192015 
L 277.824 278.199523 
L 278.4192 269.506835 
L 279.6096 248.897837 
L 280.2048 241.42391 
L 280.8 238.38367 
L 281.3952 239.585627 
L 281.9904 242.598576 
L 283.776 257.964503 
L 284.3712 262.620422 
L 286.752 275.038875 
L 287.3472 277.11367 
L 287.9424 279.971137 
L 288.5376 281.491142 
L 289.1328 283.56701 
L 289.728 285.090898 
L 290.9184 287.272009 
L 292.704 286.426695 
L 293.2992 283.837442 
L 293.8944 280.532778 
L 294.4896 276.061422 
L 296.8704 249.580752 
L 297.4656 245.434404 
L 298.0608 244.044451 
L 298.656 245.986435 
L 299.8464 252.913702 
L 300.4416 257.065691 
L 301.0368 260.359879 
L 302.2272 267.591319 
L 302.8224 270.344875 
L 303.4176 274.218977 
L 304.608 279.04258 
L 305.2032 280.839686 
L 305.7984 283.97152 
L 309.3696 293.391281 
L 309.9648 294.304747 
L 310.56 294.54502 
L 311.1552 295.519964 
L 311.7504 295.241945 
L 312.3456 293.747245 
L 312.9408 291.234868 
L 313.536 287.315581 
L 314.1312 280.835137 
L 314.7264 272.875083 
L 316.512 243.782434 
L 317.1072 239.418116 
L 317.7024 239.080033 
L 318.2976 241.519317 
L 319.488 251.448668 
L 321.8688 268.816691 
L 322.464 270.750573 
L 323.0592 274.358352 
L 324.2496 278.90822 
L 324.8448 280.392253 
L 325.44 283.490297 
L 326.0352 284.462885 
L 326.6304 286.340261 
L 327.2256 287.726861 
L 327.8208 287.479459 
L 328.416 288.558445 
L 329.6064 286.222419 
L 330.2016 284.315582 
L 331.392 275.086012 
L 331.9872 268.323637 
L 333.1776 252.319147 
L 333.7728 247.199955 
L 334.368 243.811124 
L 334.9632 244.156644 
L 336.1536 249.888593 
L 336.7488 254.414428 
L 340.32 274.529359 
L 340.9152 277.567907 
L 341.5104 279.391626 
L 342.7008 284.200389 
L 343.296 286.04546 
L 343.8912 288.626688 
L 344.4864 289.758589 
L 346.272 294.270093 
L 346.8672 295.589752 
L 348.0576 296.883747 
L 348.6528 296.972661 
L 349.248 296.232152 
L 349.8432 295.842406 
L 350.4384 293.008134 
L 351.0336 288.563259 
L 351.6288 282.896864 
L 352.224 274.090466 
L 354.0096 242.708722 
L 354.6048 238.099712 
L 355.2 237.131577 
L 355.7952 240.476535 
L 357.5808 255.837932 
L 359.9616 270.870143 
L 360.5568 273.598187 
L 361.152 275.535563 
L 361.7472 278.611158 
L 362.3424 280.400784 
L 364.128 284.373511 
L 364.7232 284.350436 
L 365.3184 285.33886 
L 365.9136 284.774079 
L 366.5088 283.796595 
L 367.104 280.928599 
L 367.6992 277.156276 
L 368.8896 265.907245 
L 370.08 253.171399 
L 370.6752 248.285216 
L 371.2704 246.416386 
L 371.8656 246.464192 
L 372.4608 248.038164 
L 373.6512 255.051256 
L 376.032 269.34876 
L 376.6272 271.538273 
L 377.2224 274.810023 
L 378.4128 279.103836 
L 379.008 281.085011 
L 379.6032 283.890924 
L 380.7936 287.575524 
L 381.984 290.001664 
L 382.5792 290.408062 
L 383.1744 289.870241 
L 383.7696 290.378098 
L 384.3648 288.220257 
L 384.96 285.600682 
L 385.5552 281.953043 
L 386.7456 269.330736 
L 387.936 252.101795 
L 388.5312 245.809208 
L 389.1264 242.505931 
L 389.7216 242.848284 
L 390.3168 245.097472 
L 391.5072 253.173491 
L 392.6976 262.164429 
L 396.2688 280.279408 
L 397.4592 284.523948 
L 398.0544 286.050197 
L 398.6496 288.132782 
L 399.2448 290.854128 
L 399.84 291.788476 
L 402.2208 297.255057 
L 402.816 298.193758 
L 404.0064 299.194854 
L 404.6016 300.270791 
L 405.1968 299.358939 
L 405.792 298.856061 
L 406.3872 296.940624 
L 406.9824 293.26881 
L 407.5776 287.170585 
L 408.1728 278.935186 
L 410.5536 236.753551 
L 411.1488 234.76836 
L 411.744 237.782761 
L 414.1248 258.929777 
L 414.72 262.684213 
L 414.72 262.684213 
" clip-path="url(#pa508dc6bb7)" style="fill: none; stroke: #0000cc; stroke-width: 1.5; stroke-linecap: square"/>
   </g>
   <g id="line2d_41">
    <path d="M 57.6 286.805345 
L 58.195191 287.965502 
L 58.790405 288.775296 
L 59.385595 289.131309 
L 59.980809 288.884811 
L 60.576 287.832124 
L 61.171191 285.714514 
L 61.766405 282.24638 
L 62.361595 277.199682 
L 63.552 262.792138 
L 64.742405 248.308926 
L 65.337595 244.298955 
L 65.932786 243.342602 
L 66.528 244.99508 
L 67.123191 248.308568 
L 69.504 264.292005 
L 70.694405 270.904516 
L 71.884809 276.579482 
L 73.075191 281.508502 
L 74.860786 287.756344 
L 76.646405 292.856654 
L 77.836786 295.708589 
L 79.027191 298.152734 
L 80.217595 300.161478 
L 81.408 301.584361 
L 82.003191 301.95289 
L 82.598405 301.954849 
L 83.193595 301.404998 
L 83.788809 300.012196 
L 84.384 297.343602 
L 84.979191 292.81158 
L 85.574405 285.756598 
L 86.169595 275.750143 
L 87.955191 239.352856 
L 88.550405 234.01227 
L 89.145595 234.437442 
L 89.740786 238.807312 
L 91.526405 255.870471 
L 92.716809 264.032513 
L 93.907191 270.022095 
L 95.097595 274.546631 
L 96.288 277.753907 
L 96.883191 278.800973 
L 97.478405 279.401056 
L 98.073595 279.470699 
L 98.668786 278.907886 
L 99.264 277.601884 
L 99.859191 275.45649 
L 100.454405 272.43119 
L 101.644786 264.216098 
L 102.835191 255.720218 
L 103.430405 252.769984 
L 104.025595 251.243438 
L 104.620809 251.195421 
L 105.216 252.402343 
L 105.811191 254.497499 
L 107.001595 259.959987 
L 108.787191 268.340797 
L 109.977595 273.171406 
L 111.168 277.156616 
L 112.358405 280.073125 
L 112.953595 281.012221 
L 113.548786 281.50626 
L 114.144 281.451564 
L 114.739191 280.72136 
L 115.334405 279.174413 
L 115.929595 276.68242 
L 116.524809 273.180479 
L 117.715191 263.67969 
L 118.905595 254.060556 
L 119.500809 250.921511 
L 120.096 249.513912 
L 120.691191 249.815605 
L 121.286405 251.47832 
L 122.476786 257.031134 
L 124.857595 269.148484 
L 126.048 274.247151 
L 127.238405 278.518729 
L 128.428809 281.816902 
L 129.024 283.008276 
L 129.619191 283.809143 
L 130.214405 284.122764 
L 130.809595 283.819854 
L 131.404809 282.737974 
L 132 280.693904 
L 132.595191 277.520781 
L 133.190405 273.143238 
L 134.380786 261.618234 
L 134.976 255.711864 
L 135.571191 250.930011 
L 136.166405 248.045349 
L 136.761595 247.333938 
L 137.356786 248.528536 
L 137.952 251.046597 
L 139.737595 261.264046 
L 141.523191 270.705073 
L 142.713595 275.995888 
L 143.904 280.504916 
L 145.094405 284.18857 
L 146.284786 286.857334 
L 146.88 287.679689 
L 147.475191 288.035183 
L 148.070405 287.778108 
L 148.665595 286.712299 
L 149.260786 284.593863 
L 149.856 281.162644 
L 150.451191 276.227247 
L 151.641595 262.397815 
L 152.832 248.784002 
L 153.427191 245.060438 
L 154.022405 244.190348 
L 154.617595 245.76256 
L 155.212809 248.914048 
L 158.188786 267.802435 
L 159.379191 273.855419 
L 160.569595 279.096124 
L 161.76 283.656056 
L 162.950405 287.613655 
L 164.140809 291.00667 
L 165.331191 293.814404 
L 166.521595 295.892673 
L 167.116809 296.54143 
L 167.712 296.804806 
L 168.307191 296.521619 
L 168.902405 295.446749 
L 169.497595 293.231902 
L 170.092786 289.425888 
L 170.688 283.542764 
L 171.283191 275.286031 
L 173.068786 244.330613 
L 173.664 238.59969 
L 174.259191 237.532591 
L 174.854405 240.225096 
L 177.830405 263.724578 
L 179.020809 270.372194 
L 180.211191 275.757135 
L 181.401595 280.12271 
L 182.592 283.440009 
L 183.187191 284.626206 
L 183.782405 285.411965 
L 184.377595 285.695459 
L 184.972786 285.336045 
L 185.568 284.152334 
L 186.163191 281.933782 
L 186.758405 278.480647 
L 187.353595 273.69191 
L 188.544 261.023015 
L 189.139191 254.575757 
L 189.734405 249.468644 
L 190.329595 246.558129 
L 190.924809 246.083923 
L 191.52 247.655559 
L 192.115191 250.562141 
L 195.091191 268.205101 
L 196.281595 274.023005 
L 197.472 279.054601 
L 198.662405 283.359949 
L 199.852809 286.92146 
L 201.043191 289.591067 
L 201.638382 290.47854 
L 202.233618 290.953391 
L 202.828809 290.875679 
L 203.424 290.045921 
L 204.019191 288.196456 
L 204.614382 285.005108 
L 205.209618 280.160386 
L 205.804809 273.51922 
L 207.590427 248.844794 
L 208.185618 243.636776 
L 208.780809 241.822149 
L 209.376 243.099658 
L 209.971191 246.427104 
L 212.352 263.295556 
L 213.542382 270.138371 
L 214.732809 275.941687 
L 215.923191 280.946517 
L 217.113618 285.288019 
L 218.304 289.040618 
L 219.494427 292.233651 
L 220.684809 294.82349 
L 221.28 295.839929 
L 221.875191 296.608828 
L 222.470382 297.045531 
L 223.065618 297.015741 
L 223.660809 296.313027 
L 224.256 294.633044 
L 224.851191 291.561207 
L 225.446382 286.602383 
L 226.041618 279.326763 
L 227.232 258.59146 
L 227.827191 247.953395 
L 228.422382 240.289511 
L 229.017618 237.219311 
L 229.612809 238.528751 
L 230.208 242.650873 
L 231.993618 257.865881 
L 233.184 265.751576 
L 234.374382 271.973242 
L 235.564809 277.021321 
L 236.755191 281.047606 
L 237.945618 283.938625 
L 238.540809 284.843254 
L 239.136 285.274824 
L 239.731191 285.105811 
L 240.326382 284.168911 
L 240.921618 282.265096 
L 241.516809 279.194386 
L 242.112 274.827956 
L 243.302427 262.798125 
L 244.492809 250.894917 
L 245.088 247.415066 
L 245.683191 246.307399 
L 246.278382 247.345095 
L 246.873618 249.894481 
L 248.659191 260.571948 
L 250.444809 270.378759 
L 251.635191 275.863542 
L 252.825618 280.586389 
L 254.016 284.565968 
L 255.206427 287.719687 
L 255.801618 288.912422 
L 256.396809 289.770813 
L 256.992 290.196548 
L 257.587191 290.045122 
L 258.182382 289.114052 
L 258.777618 287.137088 
L 259.372809 283.805708 
L 259.968 278.842369 
L 260.563191 272.164331 
L 262.348809 248.473083 
L 262.944 243.822288 
L 263.539191 242.432719 
L 264.134382 243.918956 
L 264.729618 247.269469 
L 267.110427 263.770044 
L 268.300809 270.512188 
L 269.491191 276.261883 
L 270.681618 281.240045 
L 271.872 285.577876 
L 273.062382 289.361293 
L 274.252809 292.651608 
L 275.443191 295.484756 
L 276.633618 297.853355 
L 277.824 299.652285 
L 278.419236 300.24571 
L 279.014427 300.530588 
L 279.609618 300.366089 
L 280.204809 299.529459 
L 280.8 297.68185 
L 281.395191 294.34434 
L 281.990382 288.920923 
L 282.585618 280.857964 
L 283.776 257.501394 
L 284.371191 245.58778 
L 284.966382 237.364757 
L 285.561618 234.620271 
L 286.156809 236.785552 
L 287.347191 247.613708 
L 288.537618 257.979931 
L 289.728 265.676137 
L 290.918427 271.500194 
L 292.108809 275.998893 
L 293.299191 279.246933 
L 293.894382 280.328676 
L 294.489618 280.966838 
L 295.084809 281.069354 
L 295.68 280.520036 
L 296.275191 279.186708 
L 296.870382 276.942883 
L 297.465618 273.713376 
L 298.656 264.687308 
L 299.846382 255.07482 
L 300.441618 251.695436 
L 301.036809 249.948538 
L 301.632 249.89881 
L 302.227236 251.267392 
L 302.822427 253.60783 
L 304.608 262.674745 
L 306.393618 271.170603 
L 307.584 275.897169 
L 308.774382 279.740597 
L 309.369618 281.269644 
L 309.964809 282.478817 
L 310.56 283.300447 
L 311.155191 283.641006 
L 311.750382 283.375491 
L 312.345618 282.348249 
L 312.940809 280.384286 
L 313.536 277.325008 
L 314.131236 273.098455 
L 315.321618 261.938089 
L 316.512 251.457074 
L 317.107191 248.536067 
L 317.702382 247.710228 
L 318.297618 248.756937 
L 318.892809 251.134218 
L 320.083191 257.674448 
L 321.868809 267.542666 
L 323.059191 273.196488 
L 324.249618 278.058294 
L 325.44 282.109219 
L 326.630427 285.219747 
L 327.225618 286.325963 
L 327.820809 287.038763 
L 328.416 287.246776 
L 329.011191 286.794942 
L 329.606382 285.481329 
L 330.201618 283.065967 
L 330.796809 279.316565 
L 331.392 274.107037 
L 333.772809 248.032247 
L 334.368 245.179314 
L 334.963191 245.003603 
L 335.558382 246.973361 
L 336.748809 254.099141 
L 338.534427 265.348067 
L 339.724809 271.686408 
L 340.915191 277.16565 
L 342.105618 281.919907 
L 343.296 286.023708 
L 344.486382 289.494984 
L 345.676809 292.263775 
L 346.272 293.316603 
L 346.867191 294.072356 
L 347.462382 294.430904 
L 348.057618 294.239986 
L 348.652809 293.272911 
L 349.248 291.21489 
L 349.843236 287.668115 
L 350.438427 282.221637 
L 351.033618 274.643107 
L 352.819191 246.250362 
L 353.414382 240.659989 
L 354.009618 239.205741 
L 354.604809 241.271654 
L 355.795191 250.31732 
L 356.985618 259.588399 
L 358.176 267.138137 
L 359.366382 273.300166 
L 360.556809 278.454804 
L 361.747236 282.755938 
L 362.937618 286.18612 
L 363.532809 287.51803 
L 364.128 288.528837 
L 364.723191 289.134229 
L 365.318382 289.209636 
L 365.913618 288.578633 
L 366.508809 287.006582 
L 367.104 284.211377 
L 367.699191 279.919266 
L 368.294382 273.988318 
L 370.675191 245.704825 
L 371.270382 243.291603 
L 371.865618 243.823172 
L 372.460809 246.504779 
L 376.032 269.435483 
L 377.222382 275.316641 
L 378.412809 280.412091 
L 380.198382 286.866455 
L 381.984 292.144035 
L 383.769618 296.449291 
L 384.96 298.847829 
L 386.150427 300.881546 
L 387.340809 302.489924 
L 387.936 303.074794 
L 388.531191 303.442093 
L 389.126382 303.490711 
L 389.721618 303.054332 
L 390.316809 301.867354 
L 390.912 299.521082 
L 391.507191 295.435886 
L 392.102382 288.902581 
L 392.697618 279.321224 
L 394.483191 240.667587 
L 395.078382 233.626461 
L 395.673618 232.873412 
L 396.268809 236.830128 
L 398.054427 254.554244 
L 399.244809 262.989562 
L 400.435191 269.000468 
L 401.625618 273.427203 
L 402.220809 275.127525 
L 402.816 276.470471 
L 403.411191 277.417102 
L 404.006382 277.908978 
L 404.601618 277.870102 
L 405.196809 277.212528 
L 405.792 275.848613 
L 406.387191 273.715507 
L 406.982382 270.81406 
L 408.172809 263.309482 
L 409.363236 256.001952 
L 409.958427 253.598566 
L 410.553618 252.446818 
L 411.148809 252.560384 
L 411.744 253.740536 
L 412.339191 255.683272 
L 413.529618 260.701418 
L 414.72 265.971807 
L 414.72 265.971807 
" clip-path="url(#pa508dc6bb7)" style="fill: none; stroke-dasharray: 9.6,2.4,1.5,2.4; stroke-dashoffset: 0; stroke: #ff0000; stroke-width: 1.5"/>
   </g>
   <g id="patch_13">
    <path d="M 57.6 307.584 
L 57.6 229.315765 
" style="fill: none; stroke: #000000; stroke-width: 0.8; stroke-linejoin: miter; stroke-linecap: square"/>
   </g>
   <g id="patch_14">
    <path d="M 414.72 307.584 
L 414.72 229.315765 
" style="fill: none; stroke: #000000; stroke-width: 0.8; stroke-linejoin: miter; stroke-linecap: square"/>
   </g>
   <g id="patch_15">
    <path d="M 57.6 307.584 
L 414.72 307.584 
" style="fill: none; stroke: #000000; stroke-width: 0.8; stroke-linejoin: miter; stroke-linecap: square"/>
   </g>
   <g id="patch_16">
    <path d="M 57.6 229.315765 
L 414.72 229.315765 
" style="fill: none; stroke: #000000; stroke-width: 0.8; stroke-linejoin: miter; stroke-linecap: square"/>
   </g>
  </g>
 </g>
 <defs>
  <clipPath id="p246c4aeb21">
   <rect x="57.6" y="41.472" width="357.12" height="78.268235"/>
  </clipPath>
  <clipPath id="pfa2a18e8a3">
   <rect x="57.6" y="135.393882" width="357.12" height="78.268235"/>
  </clipPath>
  <clipPath id="pa508dc6bb7">
   <rect x="57.6" y="229.315765" width="357.12" height="78.268235"/>
  </clipPath>
 </defs>
</svg>
