<?xml version="1.0" encoding="utf-8" standalone="no"?>
<!DOCTYPE svg PUBLIC "-//W3C//DTD SVG 1.1//EN"
  "http://www.w3.org/Graphics/SVG/1.1/DTD/svg11.dtd">
<svg xmlns:xlink="http://www.w3.org/1999/xlink" width="460.8pt" height="345.6pt" viewBox="0 0 460.8 345.6" xmlns="http://www.w3.org/2000/svg" version="1.1">
 <metadata>
  <rdf:RDF xmlns:dc="http://purl.org/dc/elements/1.1/" xmlns:cc="http://creativecommons.org/ns#" xmlns:rdf="http://www.w3.org/1999/02/22-rdf-syntax-ns#">
   <cc:Work>
    <dc:type rdf:resource="http://purl.org/dc/dcmitype/StillImage"/>
    <dc:date>2023-12-14T02:41:44.083931</dc:date>
    <dc:format>image/svg+xml</dc:format>
    <dc:creator>
     <cc:Agent>
      <dc:title>Matplotlib v3.7.3, https://matplotlib.org/</dc:title>
     </cc:Agent>
    </dc:creator>
   </cc:Work>
  </rdf:RDF>
 </metadata>
 <defs>
  <style type="text/css">*{stroke-linejoin: round; stroke-linecap: butt}</style>
 </defs>
 <g id="figure_1">
  <g id="patch_1">
   <path d="M 0 345.6 
L 460.8 345.6 
L 460.8 0 
L 0 0 
z
" style="fill: #ffffff"/>
  </g>
  <g id="axes_1">
   <g id="patch_2">
    <path d="M 57.6 119.740235 
L 414.72 119.740235 
L 414.72 41.472 
L 57.6 41.472 
z
" style="fill: #ffffff"/>
   </g>
   <g id="matplotlib.axis_1">
    <g id="xtick_1">
     <g id="line2d_1">
      <defs>
       <path id="m9dcedd344b" d="M 0 0 
L 0 3.5 
" style="stroke: #000000; stroke-width: 0.8"/>
      </defs>
      <g>
       <use xlink:href="#m9dcedd344b" x="57.6" y="119.740235" style="stroke: #000000; stroke-width: 0.8"/>
      </g>
     </g>
    </g>
    <g id="xtick_2">
     <g id="line2d_2">
      <g>
       <use xlink:href="#m9dcedd344b" x="105.216" y="119.740235" style="stroke: #000000; stroke-width: 0.8"/>
      </g>
     </g>
    </g>
    <g id="xtick_3">
     <g id="line2d_3">
      <g>
       <use xlink:href="#m9dcedd344b" x="152.832" y="119.740235" style="stroke: #000000; stroke-width: 0.8"/>
      </g>
     </g>
    </g>
    <g id="xtick_4">
     <g id="line2d_4">
      <g>
       <use xlink:href="#m9dcedd344b" x="200.448" y="119.740235" style="stroke: #000000; stroke-width: 0.8"/>
      </g>
     </g>
    </g>
    <g id="xtick_5">
     <g id="line2d_5">
      <g>
       <use xlink:href="#m9dcedd344b" x="248.064" y="119.740235" style="stroke: #000000; stroke-width: 0.8"/>
      </g>
     </g>
    </g>
    <g id="xtick_6">
     <g id="line2d_6">
      <g>
       <use xlink:href="#m9dcedd344b" x="295.68" y="119.740235" style="stroke: #000000; stroke-width: 0.8"/>
      </g>
     </g>
    </g>
    <g id="xtick_7">
     <g id="line2d_7">
      <g>
       <use xlink:href="#m9dcedd344b" x="343.296" y="119.740235" style="stroke: #000000; stroke-width: 0.8"/>
      </g>
     </g>
    </g>
    <g id="xtick_8">
     <g id="line2d_8">
      <g>
       <use xlink:href="#m9dcedd344b" x="390.912" y="119.740235" style="stroke: #000000; stroke-width: 0.8"/>
      </g>
     </g>
    </g>
    <g id="xtick_9">
     <g id="line2d_9">
      <g>
       <use xlink:href="#m9dcedd344b" x="414.72" y="119.740235" style="stroke: #000000; stroke-width: 0.8"/>
      </g>
     </g>
    </g>
   </g>
   <g id="matplotlib.axis_2">
    <g id="ytick_1">
     <g id="line2d_10">
      <defs>
       <path id="m4003b20f9c" d="M 0 0 
L -3.5 0 
" style="stroke: #000000; stroke-width: 0.8"/>
      </defs>
      <g>
       <use xlink:href="#m4003b20f9c" x="57.6" y="100.023683" style="stroke: #000000; stroke-width: 0.8"/>
      </g>
     </g>
     <g id="text_1">
      <!-- −10 -->
      <g transform="translate(29.495313 103.822902) scale(0.1 -0.1)">
       <defs>
        <path id="DejaVuSans-2212" d="M 678 2272 
L 4684 2272 
L 4684 1741 
L 678 1741 
L 678 2272 
z
" transform="scale(0.015625)"/>
        <path id="DejaVuSans-31" d="M 794 531 
L 1825 531 
L 1825 4091 
L 703 3866 
L 703 4441 
L 1819 4666 
L 2450 4666 
L 2450 531 
L 3481 531 
L 3481 0 
L 794 0 
L 794 531 
z
" transform="scale(0.015625)"/>
        <path id="DejaVuSans-30" d="M 2034 4250 
Q 1547 4250 1301 3770 
Q 1056 3291 1056 2328 
Q 1056 1369 1301 889 
Q 1547 409 2034 409 
Q 2525 409 2770 889 
Q 3016 1369 3016 2328 
Q 3016 3291 2770 3770 
Q 2525 4250 2034 4250 
z
M 2034 4750 
Q 2819 4750 3233 4129 
Q 3647 3509 3647 2328 
Q 3647 1150 3233 529 
Q 2819 -91 2034 -91 
Q 1250 -91 836 529 
Q 422 1150 422 2328 
Q 422 3509 836 4129 
Q 1250 4750 2034 4750 
z
" transform="scale(0.015625)"/>
       </defs>
       <use xlink:href="#DejaVuSans-2212"/>
       <use xlink:href="#DejaVuSans-31" x="83.789062"/>
       <use xlink:href="#DejaVuSans-30" x="147.412109"/>
      </g>
     </g>
    </g>
    <g id="ytick_2">
     <g id="line2d_11">
      <g>
       <use xlink:href="#m4003b20f9c" x="57.6" y="79.350521" style="stroke: #000000; stroke-width: 0.8"/>
      </g>
     </g>
     <g id="text_2">
      <!-- 0 -->
      <g transform="translate(44.2375 83.14974) scale(0.1 -0.1)">
       <use xlink:href="#DejaVuSans-30"/>
      </g>
     </g>
    </g>
    <g id="ytick_3">
     <g id="line2d_12">
      <g>
       <use xlink:href="#m4003b20f9c" x="57.6" y="58.677358" style="stroke: #000000; stroke-width: 0.8"/>
      </g>
     </g>
     <g id="text_3">
      <!-- 10 -->
      <g transform="translate(37.875 62.476577) scale(0.1 -0.1)">
       <use xlink:href="#DejaVuSans-31"/>
       <use xlink:href="#DejaVuSans-30" x="63.623047"/>
      </g>
     </g>
    </g>
   </g>
   <g id="line2d_13">
    <path d="M 57.6 85.739712 
L 58.1952 86.326904 
L 58.7904 87.648791 
L 59.3856 88.676533 
L 59.9808 90.274837 
L 60.576 92.823956 
L 61.1712 94.446345 
L 63.552 107.275107 
L 64.1472 109.131801 
L 64.7424 110.044908 
L 65.3376 109.182907 
L 65.9328 106.942709 
L 66.528 103.776009 
L 67.7184 94.805842 
L 68.9088 88.823153 
L 70.0992 83.897625 
L 71.2896 81.687765 
L 71.8848 81.398472 
L 73.0752 80.111337 
L 73.6704 79.767796 
L 74.2656 80.232534 
L 74.8608 80.360042 
L 75.456 79.77543 
L 76.0512 79.588754 
L 77.2416 79.927101 
L 77.8368 79.84254 
L 78.432 80.483259 
L 79.0272 80.352686 
L 79.6224 79.926454 
L 80.2176 81.119464 
L 80.8128 81.354079 
L 81.408 81.186165 
L 82.0032 82.33112 
L 83.1936 83.9642 
L 83.7888 86.383568 
L 84.384 88.022947 
L 85.5744 92.891145 
L 86.1696 96.261138 
L 88.5504 114.591082 
L 89.1456 116.182588 
L 89.7408 115.398495 
L 90.336 110.772826 
L 92.7168 86.746379 
L 93.312 81.949388 
L 93.9072 78.652051 
L 94.5024 76.698307 
L 95.0976 73.978038 
L 95.6928 73.218666 
L 96.288 72.243987 
L 97.4784 69.31221 
L 98.0736 68.708436 
L 98.6688 66.795964 
L 99.264 66.18168 
L 100.4544 62.709514 
L 101.0496 60.764707 
L 102.24 57.399599 
L 102.8352 55.68853 
L 103.4304 54.53701 
L 104.0256 55.151968 
L 104.6208 54.550383 
L 105.8112 57.599696 
L 106.4064 59.983644 
L 107.0016 61.377495 
L 107.5968 63.137637 
L 108.192 65.431436 
L 109.3824 68.195469 
L 109.9776 68.947154 
L 110.5728 69.36429 
L 111.168 70.372993 
L 111.7632 69.865364 
L 112.3584 70.21894 
L 112.9536 69.803439 
L 114.144 68.001239 
L 114.7392 66.03471 
L 115.9296 63.432995 
L 117.12 58.579877 
L 117.7152 57.720006 
L 118.3104 55.586178 
L 118.9056 54.205049 
L 119.5008 53.581338 
L 120.096 53.284711 
L 121.2864 56.520013 
L 123.072 63.252181 
L 123.6672 65.863628 
L 124.2624 67.271692 
L 124.8576 69.084408 
L 125.4528 69.554848 
L 126.048 70.496604 
L 126.6432 70.860398 
L 127.2384 71.459235 
L 127.8336 70.516715 
L 128.4288 70.39562 
L 129.6192 69.079481 
L 130.8096 66.603518 
L 131.4048 64.397629 
L 132 63.602466 
L 132.5952 60.688714 
L 133.7856 56.071372 
L 134.976 53.418924 
L 135.5712 52.784758 
L 136.1664 53.562093 
L 136.7616 54.581091 
L 137.952 58.83808 
L 138.5472 62.009334 
L 139.1424 64.48332 
L 140.3328 68.56988 
L 141.5232 71.166162 
L 142.7136 72.388877 
L 143.904 72.305747 
L 145.0944 71.374851 
L 146.2848 68.737755 
L 146.88 67.902263 
L 149.2608 58.967504 
L 149.856 56.999126 
L 150.4512 54.330731 
L 151.0464 52.369227 
L 151.6416 51.91361 
L 152.2368 51.96187 
L 152.832 53.326799 
L 153.4272 55.241785 
L 154.6176 61.316798 
L 155.2128 63.573347 
L 155.808 66.651726 
L 156.4032 68.520551 
L 156.9984 70.936217 
L 157.5936 71.716021 
L 158.1888 73.215658 
L 158.784 73.72995 
L 159.3792 74.567732 
L 159.9744 73.75564 
L 160.5696 73.974613 
L 161.1648 73.62585 
L 161.76 72.953134 
L 162.3552 72.495601 
L 162.9504 70.515218 
L 163.5456 70.056844 
L 164.736 65.562537 
L 165.9264 61.580256 
L 166.5216 58.191867 
L 167.1168 55.889822 
L 167.712 52.700638 
L 168.3072 50.423985 
L 168.9024 50.376455 
L 169.4976 50.484095 
L 170.0928 52.470873 
L 170.688 55.221389 
L 171.8784 62.947776 
L 172.4736 65.614354 
L 173.0688 68.961221 
L 173.664 71.327574 
L 174.2592 73.014011 
L 174.8544 74.118872 
L 175.4496 76.045091 
L 176.0448 75.663305 
L 176.64 76.739558 
L 177.8304 77.16751 
L 178.4256 76.300924 
L 180.2112 75.474928 
L 180.8064 73.919124 
L 181.4016 73.789517 
L 181.9968 71.984361 
L 182.592 70.992731 
L 183.7824 66.747476 
L 185.568 58.584987 
L 186.1632 55.071366 
L 186.7584 50.674777 
L 187.3536 47.701203 
L 187.9488 47.332183 
L 188.544 48.265894 
L 189.1392 50.336535 
L 190.3296 59.195177 
L 190.9248 64.73024 
L 191.52 68.762345 
L 192.7104 74.644704 
L 193.9008 78.612537 
L 194.496 79.685026 
L 195.0912 80.249844 
L 195.6864 81.342518 
L 196.2816 81.786019 
L 197.472 83.028445 
L 198.0672 83.428192 
L 198.6624 84.332787 
L 200.448 87.95676 
L 201.0432 89.197876 
L 201.6384 92.712744 
L 202.2336 94.748935 
L 203.424 100.031719 
L 204.0192 104.001901 
L 204.6144 107.216961 
L 205.2096 109.776303 
L 205.8048 110.502838 
L 206.4 109.389528 
L 206.9952 107.153981 
L 208.7808 95.9029 
L 209.376 90.752602 
L 210.5664 85.894371 
L 211.1616 83.85297 
L 211.7568 82.353939 
L 213.5424 79.213749 
L 214.1376 79.009351 
L 214.7328 79.654374 
L 215.328 78.289286 
L 215.9232 79.081517 
L 216.5184 77.727068 
L 217.7088 77.079246 
L 218.304 76.915676 
L 218.8992 77.241814 
L 219.4944 74.815896 
L 220.0896 74.900556 
L 220.6848 73.8521 
L 221.8752 70.2847 
L 222.4704 68.417611 
L 223.6608 62.526231 
L 224.256 58.971832 
L 225.4464 50.384311 
L 226.0416 47.074548 
L 226.6368 45.029647 
L 227.232 45.459845 
L 227.8272 47.969324 
L 228.4224 52.884742 
L 229.6128 64.265605 
L 230.208 69.186028 
L 231.3984 76.547986 
L 231.9936 78.868119 
L 232.5888 80.235132 
L 233.184 82.054187 
L 234.3744 84.145327 
L 234.9696 84.53367 
L 235.5648 86.302535 
L 236.16 86.920857 
L 236.7552 88.227857 
L 237.9456 90.482626 
L 238.5408 93.358485 
L 239.136 95.001575 
L 239.7312 97.010701 
L 240.9216 102.779297 
L 241.5168 104.440154 
L 242.112 106.905419 
L 243.3024 107.23151 
L 244.4928 102.934907 
L 245.088 99.47495 
L 245.6832 97.128439 
L 246.8736 91.478651 
L 247.4688 89.143881 
L 248.064 87.789104 
L 248.6592 86.121595 
L 249.2544 85.385806 
L 249.8496 85.008889 
L 250.4448 84.767692 
L 251.6352 84.046903 
L 252.2304 85.457715 
L 252.8256 85.71329 
L 253.4208 86.444782 
L 254.016 87.734737 
L 254.6112 88.703317 
L 255.2064 90.457331 
L 256.3968 94.974828 
L 256.992 97.940101 
L 257.5872 100.198564 
L 258.1824 104.049669 
L 259.3728 108.7292 
L 259.968 108.921595 
L 260.5632 108.432516 
L 261.1584 106.318899 
L 261.7536 103.677175 
L 262.3488 99.399503 
L 262.944 95.950832 
L 263.5392 93.386691 
L 264.1344 89.839084 
L 264.7296 87.521688 
L 265.92 83.756591 
L 266.5152 82.698762 
L 267.7056 81.900635 
L 268.896 81.369178 
L 269.4912 82.427937 
L 270.0864 81.76085 
L 270.6816 82.00341 
L 271.2768 82.641243 
L 271.872 82.761192 
L 272.4672 83.613517 
L 273.6576 84.988997 
L 274.2528 86.673935 
L 274.848 88.858392 
L 275.4432 90.099304 
L 276.0384 92.68584 
L 277.2288 99.708981 
L 279.0144 110.681761 
L 279.6096 111.840638 
L 280.2048 112.264573 
L 280.8 110.481321 
L 281.3952 106.130575 
L 283.1808 91.320873 
L 283.776 87.331961 
L 284.3712 84.441517 
L 285.5616 79.668998 
L 286.1568 78.609419 
L 286.752 77.189981 
L 287.3472 76.239857 
L 287.9424 76.165858 
L 288.5376 74.345462 
L 289.1328 74.597861 
L 289.728 73.556726 
L 290.3232 72.04183 
L 290.9184 71.066186 
L 291.5136 69.240696 
L 292.1088 67.939646 
L 293.2992 62.480411 
L 293.8944 60.580399 
L 295.68 51.902078 
L 296.2752 50.742657 
L 296.8704 50.135709 
L 297.4656 50.952737 
L 298.0608 53.090123 
L 298.656 55.940981 
L 299.8464 64.141857 
L 301.632 71.840931 
L 302.2272 73.874056 
L 302.8224 74.77101 
L 303.4176 76.146724 
L 304.0128 76.341164 
L 304.608 77.326679 
L 305.2032 77.010833 
L 305.7984 77.057816 
L 306.3936 77.331558 
L 306.9888 76.558446 
L 307.584 76.5186 
L 308.1792 76.152237 
L 308.7744 75.595127 
L 309.3696 74.529274 
L 309.9648 72.935474 
L 311.1552 71.110173 
L 311.7504 69.16834 
L 313.536 60.735681 
L 315.3216 49.409344 
L 315.9168 46.937952 
L 316.512 46.658482 
L 317.1072 47.750131 
L 317.7024 51.094493 
L 320.0832 70.121327 
L 320.6784 73.014496 
L 321.2736 76.53798 
L 321.8688 78.592846 
L 322.464 79.476987 
L 323.6544 82.308478 
L 324.2496 82.275847 
L 324.8448 83.74941 
L 325.44 84.054868 
L 326.0352 84.88183 
L 326.6304 85.350406 
L 327.2256 86.549664 
L 327.8208 87.440333 
L 328.416 90.484015 
L 329.0112 91.602469 
L 329.6064 93.398666 
L 330.7968 98.552092 
L 331.392 102.165833 
L 331.9872 104.603757 
L 332.5824 108.047871 
L 333.1776 108.738846 
L 333.7728 109.193933 
L 334.368 107.908449 
L 334.9632 105.143452 
L 336.1536 97.677777 
L 336.7488 93.241029 
L 337.344 90.287157 
L 337.9392 88.366929 
L 338.5344 85.607718 
L 339.1296 83.978335 
L 339.7248 83.603519 
L 340.32 82.419577 
L 340.9152 81.962627 
L 341.5104 80.789428 
L 342.1056 81.040085 
L 342.7008 81.421784 
L 343.296 80.907816 
L 343.8912 81.960577 
L 345.0816 81.408717 
L 345.6768 82.26986 
L 346.272 82.680713 
L 346.8672 83.236832 
L 347.4624 84.649734 
L 348.0576 85.606627 
L 348.6528 86.82686 
L 349.248 89.543547 
L 349.8432 91.658765 
L 351.6288 101.253662 
L 352.8192 109.359798 
L 353.4144 111.891162 
L 354.0096 113.787476 
L 355.2 108.744695 
L 357.5808 87.810331 
L 358.7712 81.694583 
L 359.9616 78.695188 
L 361.152 75.412116 
L 361.7472 74.623574 
L 362.3424 74.159728 
L 363.5328 72.357027 
L 364.7232 70.332119 
L 365.3184 67.808053 
L 365.9136 66.177469 
L 367.6992 59.446395 
L 368.2944 55.636129 
L 369.4848 51.881805 
L 370.08 50.51362 
L 370.6752 51.199866 
L 371.2704 52.40326 
L 371.8656 54.904456 
L 373.6512 65.25621 
L 374.8416 69.649086 
L 375.4368 71.33352 
L 376.032 73.448069 
L 376.6272 74.672346 
L 378.4128 75.771856 
L 380.1984 74.679423 
L 380.7936 73.867867 
L 381.3888 73.523898 
L 382.5792 71.393961 
L 383.1744 68.858084 
L 383.7696 67.84768 
L 384.3648 65.66048 
L 385.5552 59.194662 
L 386.1504 56.139697 
L 386.7456 52.457655 
L 387.936 48.694728 
L 388.5312 48.748101 
L 389.1264 50.589491 
L 389.7216 52.959936 
L 392.1024 69.497599 
L 392.6976 72.123657 
L 393.2928 74.134065 
L 393.888 75.739871 
L 395.6736 79.07916 
L 396.2688 78.749429 
L 396.864 79.385761 
L 397.4592 79.738507 
L 399.2448 80.265876 
L 399.84 80.334162 
L 400.4352 81.047242 
L 401.0304 81.508582 
L 401.6256 81.627377 
L 402.2208 82.061747 
L 402.816 82.657107 
L 403.4112 83.954904 
L 404.0064 84.944301 
L 404.6016 86.852889 
L 405.1968 87.925274 
L 405.792 91.096275 
L 406.3872 93.16297 
L 407.5776 101.099186 
L 409.3632 112.609369 
L 409.9584 114.839251 
L 410.5536 113.833181 
L 411.1488 110.655171 
L 411.744 105.980199 
L 412.9344 93.725538 
L 414.1248 84.879413 
L 414.72 81.503915 
L 414.72 81.503915 
" clip-path="url(#p42ecfbfa68)" style="fill: none; stroke: #0000cc; stroke-width: 1.5; stroke-linecap: square"/>
   </g>
   <g id="line2d_14">
    <path d="M 57.6 85.739712 
L 58.195191 86.25194 
L 59.385595 88.969519 
L 59.980809 90.645433 
L 61.171191 95.278974 
L 62.361595 101.206567 
L 63.552 107.077243 
L 64.147191 109.01552 
L 64.742405 109.685099 
L 65.337595 108.845609 
L 65.932809 106.524517 
L 67.123191 99.044885 
L 68.313595 91.576845 
L 68.908809 88.554867 
L 69.504 86.122363 
L 70.099191 84.240634 
L 70.694405 82.8358 
L 71.289595 81.81819 
L 71.884809 81.105505 
L 72.48 80.622641 
L 73.670405 80.116717 
L 74.860809 79.981877 
L 76.051191 80.064548 
L 77.241595 80.319187 
L 78.432 80.774473 
L 79.622405 81.525965 
L 80.217595 82.064782 
L 80.812809 82.753732 
L 81.408 83.635361 
L 82.003191 84.763847 
L 82.598405 86.206872 
L 83.193595 88.046288 
L 83.788809 90.375221 
L 84.384 93.286797 
L 85.574405 101.027332 
L 86.764809 110.088634 
L 87.36 113.566142 
L 87.955191 115.079601 
L 88.550405 114.066233 
L 89.145595 110.570662 
L 90.336 98.174407 
L 91.526405 87.35604 
L 92.121595 83.09238 
L 92.716809 79.855895 
L 93.312 77.328691 
L 94.502405 73.933373 
L 95.692809 71.630805 
L 97.478405 68.239883 
L 98.668809 65.311699 
L 99.859191 61.657621 
L 101.644809 55.875579 
L 102.24 54.500016 
L 102.835191 53.756595 
L 103.430405 53.800333 
L 104.025595 54.662879 
L 104.620809 56.234729 
L 105.811191 60.612035 
L 107.001595 65.067344 
L 108.192 68.408269 
L 108.787191 69.543262 
L 109.382405 70.331272 
L 109.977595 70.797783 
L 110.572809 70.97001 
L 111.168 70.871018 
L 111.763191 70.516692 
L 112.358405 69.914701 
L 112.953595 69.065175 
L 113.548809 67.962951 
L 114.739191 64.98037 
L 115.929595 61.045136 
L 117.715191 54.844221 
L 118.310405 53.483728 
L 118.905595 52.893191 
L 119.500809 53.22432 
L 120.096 54.464815 
L 120.691191 56.438272 
L 123.072 66.224745 
L 123.667191 68.110337 
L 124.262405 69.601642 
L 124.857595 70.706561 
L 125.452809 71.453919 
L 126.048 71.879398 
L 126.643191 72.016231 
L 127.238405 71.890375 
L 127.833595 71.518079 
L 128.428809 70.905256 
L 129.024 70.048325 
L 129.619191 68.936232 
L 130.214405 67.554105 
L 131.404809 63.941425 
L 133.190405 56.917092 
L 133.785595 54.671632 
L 134.380809 52.912748 
L 134.976 51.960664 
L 135.571191 52.05073 
L 136.166405 53.22789 
L 136.761595 55.318827 
L 139.737595 68.569745 
L 140.332809 70.305907 
L 140.928 71.614112 
L 141.523191 72.533953 
L 142.118405 73.113551 
L 142.713595 73.39775 
L 143.308809 73.422749 
L 143.904 73.21338 
L 144.499191 72.781991 
L 145.094405 72.128895 
L 145.689595 71.243352 
L 146.284809 70.105303 
L 146.88 68.688397 
L 148.070405 64.916041 
L 149.260809 59.900187 
L 150.451191 54.404882 
L 151.046405 52.134854 
L 151.641595 50.71517 
L 152.236809 50.503642 
L 152.832 51.633698 
L 153.427191 53.933945 
L 154.617595 60.43686 
L 155.808 66.85079 
L 156.403191 69.409743 
L 156.998405 71.452567 
L 157.593595 73.008957 
L 158.188809 74.137211 
L 158.784 74.906006 
L 159.379191 75.378323 
L 159.974405 75.606468 
L 160.569595 75.630011 
L 161.164809 75.474282 
L 161.76 75.151488 
L 162.355191 74.661527 
L 162.950405 73.992617 
L 163.545595 73.122103 
L 164.140809 72.017051 
L 164.736 70.635351 
L 165.331191 68.928357 
L 165.926405 66.846765 
L 167.116809 61.442747 
L 168.902405 51.561152 
L 169.497595 49.102564 
L 170.092809 48.001618 
L 170.688 48.671185 
L 171.283191 51.06173 
L 172.473595 58.932867 
L 173.664 67.163915 
L 174.259191 70.48383 
L 174.854405 73.14033 
L 175.449595 75.195734 
L 176.044809 76.737657 
L 176.64 77.875588 
L 177.235191 78.710033 
L 178.425595 79.79203 
L 180.211191 80.818289 
L 181.401595 81.543925 
L 182.592 82.566032 
L 183.187191 83.263773 
L 183.782405 84.136509 
L 184.377595 85.232058 
L 184.972809 86.608023 
L 185.568 88.331807 
L 186.163191 90.477424 
L 186.758405 93.115512 
L 187.948809 99.974901 
L 189.139191 107.964916 
L 189.734405 111.21663 
L 190.329595 112.981893 
L 190.924809 112.699303 
L 191.52 110.257481 
L 192.115191 105.902792 
L 193.900809 90.375086 
L 194.496 86.341975 
L 195.091191 83.130267 
L 195.686405 80.64484 
L 196.281595 78.755498 
L 196.876809 77.306798 
L 198.067191 75.220849 
L 199.852809 72.58512 
L 201.043191 70.326785 
L 202.233618 67.173925 
L 203.424 62.856926 
L 205.804809 52.610512 
L 206.4 51.102054 
L 206.995191 50.725044 
L 207.590382 51.641807 
L 208.185618 53.728135 
L 209.376 59.934506 
L 210.566382 66.268607 
L 211.161618 68.843712 
L 211.756809 70.917249 
L 212.352 72.508206 
L 212.947191 73.667557 
L 213.542382 74.459435 
L 214.137618 74.944783 
L 214.732809 75.174681 
L 215.328 75.188069 
L 215.923191 75.009933 
L 216.518382 74.651942 
L 217.113618 74.113287 
L 217.708809 73.381305 
L 218.304 72.432415 
L 218.899191 71.233159 
L 219.494382 69.742089 
L 220.089618 67.913821 
L 221.28 63.101496 
L 223.660809 50.810694 
L 224.256 48.945699 
L 224.851191 48.565678 
L 225.446382 49.893402 
L 226.041618 52.701166 
L 229.017618 71.125209 
L 229.612809 73.459533 
L 230.208 75.241134 
L 230.803191 76.55961 
L 231.398382 77.515511 
L 231.993618 78.195395 
L 233.184 79.008911 
L 234.374382 79.425302 
L 238.540809 80.481352 
L 239.731191 81.104741 
L 240.921618 82.113894 
L 241.516809 82.838876 
L 242.112 83.768905 
L 242.707191 84.962485 
L 243.302382 86.492463 
L 243.897618 88.446398 
L 244.492809 90.922536 
L 245.088 94.015555 
L 246.278382 102.16573 
L 247.468809 111.311468 
L 248.064 114.469169 
L 248.659191 115.402668 
L 249.254382 113.701697 
L 249.849618 109.518174 
L 251.635191 90.790062 
L 252.825618 81.754071 
L 253.420809 78.692936 
L 254.016 76.307278 
L 255.206382 73.062156 
L 258.777618 65.864011 
L 259.968 62.515072 
L 261.753618 56.963194 
L 262.348809 55.474321 
L 262.944 54.483261 
L 263.539191 54.161791 
L 264.134382 54.594648 
L 264.729618 55.743945 
L 265.324809 57.458547 
L 267.705618 65.696782 
L 268.300809 67.281725 
L 268.896 68.529883 
L 269.491191 69.438979 
L 270.086382 70.024614 
L 270.681618 70.30927 
L 271.276809 70.314928 
L 271.872 70.058895 
L 272.467191 69.551923 
L 273.062382 68.798207 
L 273.657618 67.797105 
L 274.848 65.049409 
L 276.038382 61.402358 
L 277.824 55.572289 
L 278.419191 54.219665 
L 279.014382 53.534767 
L 279.609618 53.670075 
L 280.204809 54.644036 
L 280.8 56.328508 
L 283.776 67.241714 
L 284.371191 68.726193 
L 284.966382 69.843223 
L 285.561618 70.610781 
L 286.156809 71.056991 
L 286.752 71.210478 
L 287.347191 71.094812 
L 287.942382 70.725702 
L 288.537618 70.11011 
L 289.132809 69.247034 
L 289.728 68.129776 
L 290.918382 65.104652 
L 292.108809 61.094807 
L 293.894382 54.711383 
L 294.489618 53.292445 
L 295.084809 52.664983 
L 295.68 52.991903 
L 296.275191 54.263399 
L 296.870382 56.295743 
L 299.251191 66.365104 
L 299.846382 68.297806 
L 300.441618 69.825309 
L 301.036809 70.958285 
L 301.632 71.728527 
L 302.227191 72.174435 
L 302.822382 72.331452 
L 303.417618 72.227254 
L 304.012809 71.879291 
L 304.608 71.294121 
L 305.203191 70.468154 
L 305.798382 69.38944 
L 306.393618 68.040922 
L 307.584 64.477182 
L 308.774382 59.846224 
L 309.964809 54.938964 
L 310.56 52.97337 
L 311.155191 51.776615 
L 311.750382 51.629954 
L 312.345618 52.631037 
L 312.940809 54.639378 
L 314.131191 60.358289 
L 315.321618 66.101625 
L 315.916809 68.431625 
L 316.512 70.304906 
L 317.107191 71.732815 
L 317.702382 72.756015 
L 318.297618 73.42647 
L 318.892809 73.79384 
L 319.488 73.899218 
L 320.083191 73.77226 
L 320.678382 73.429694 
L 321.273618 72.875626 
L 321.868809 72.102334 
L 322.464 71.091478 
L 323.059191 69.816202 
L 323.654382 68.244677 
L 324.844809 64.104084 
L 326.035191 58.703566 
L 327.225618 53.085505 
L 327.820809 51.003076 
L 328.416 49.989862 
L 329.011191 50.357998 
L 329.606382 52.114933 
L 330.201618 54.952665 
L 332.582382 68.383456 
L 333.177618 70.805482 
L 333.772809 72.697868 
L 334.368 74.112745 
L 334.963191 75.123081 
L 335.558382 75.803311 
L 336.153618 76.217393 
L 336.748809 76.417554 
L 337.344 76.441871 
L 337.939191 76.314409 
L 338.534382 76.047005 
L 339.129618 75.639899 
L 339.724809 75.082626 
L 340.32 74.354575 
L 340.915191 73.424966 
L 341.510382 72.252942 
L 342.105618 70.788164 
L 342.700809 68.973109 
L 343.296 66.749266 
L 344.486382 60.93122 
L 346.272 50.321439 
L 346.867191 47.833119 
L 347.462382 46.958108 
L 348.057618 48.103655 
L 348.652809 51.087792 
L 349.843191 59.969226 
L 351.033618 68.694134 
L 351.628809 72.078985 
L 352.224 74.753743 
L 352.819191 76.809109 
L 353.414382 78.353896 
L 354.009618 79.518725 
L 355.2 81.124587 
L 357.580809 83.582419 
L 358.771191 85.292077 
L 359.366382 86.429619 
L 359.961618 87.823388 
L 360.556809 89.528574 
L 361.152 91.599015 
L 362.342382 96.96668 
L 364.723191 109.346529 
L 365.318382 110.62014 
L 365.913618 110.264685 
L 366.508809 108.207933 
L 367.104 104.697574 
L 368.889618 91.997981 
L 370.08 85.774494 
L 370.675191 83.601145 
L 371.270382 81.955515 
L 371.865618 80.73365 
L 372.460809 79.834029 
L 373.651191 78.658752 
L 377.222382 76.148308 
L 378.412809 74.68813 
L 379.008 73.67766 
L 379.603191 72.412444 
L 380.198382 70.830213 
L 380.793618 68.861267 
L 381.388809 66.435147 
L 382.579191 60.041055 
L 384.364809 48.579749 
L 384.96 46.203237 
L 385.555191 45.827729 
L 386.150382 47.773578 
L 386.745618 51.607389 
L 389.126382 70.873776 
L 389.721618 74.257653 
L 390.316809 76.905353 
L 390.912 78.924761 
L 391.507191 80.456919 
L 392.697618 82.621 
L 395.078382 86.05336 
L 396.268809 88.424171 
L 397.459191 91.782653 
L 398.649618 96.383063 
L 401.030382 106.898633 
L 401.625618 108.253006 
L 402.220809 108.402825 
L 402.816 107.219449 
L 403.411191 104.819507 
L 406.387191 88.851497 
L 406.982382 86.765606 
L 407.577618 85.170005 
L 408.172809 84.004346 
L 408.768 83.198228 
L 409.363191 82.686168 
L 409.958382 82.41021 
L 410.553618 82.327265 
L 411.148809 82.408781 
L 411.744 82.637928 
L 412.339191 83.010786 
L 412.934382 83.53432 
L 413.529618 84.22576 
L 414.124809 85.112782 
L 414.72 86.233023 
L 414.72 86.233023 
" clip-path="url(#p42ecfbfa68)" style="fill: none; stroke-dasharray: 9.6,2.4,1.5,2.4; stroke-dashoffset: 0; stroke: #ff0000; stroke-width: 1.5"/>
   </g>
   <g id="patch_3">
    <path d="M 57.6 119.740235 
L 57.6 41.472 
" style="fill: none; stroke: #000000; stroke-width: 0.8; stroke-linejoin: miter; stroke-linecap: square"/>
   </g>
   <g id="patch_4">
    <path d="M 414.72 119.740235 
L 414.72 41.472 
" style="fill: none; stroke: #000000; stroke-width: 0.8; stroke-linejoin: miter; stroke-linecap: square"/>
   </g>
   <g id="patch_5">
    <path d="M 57.6 119.740235 
L 414.72 119.740235 
" style="fill: none; stroke: #000000; stroke-width: 0.8; stroke-linejoin: miter; stroke-linecap: square"/>
   </g>
   <g id="patch_6">
    <path d="M 57.6 41.472 
L 414.72 41.472 
" style="fill: none; stroke: #000000; stroke-width: 0.8; stroke-linejoin: miter; stroke-linecap: square"/>
   </g>
  </g>
  <g id="axes_2">
   <g id="patch_7">
    <path d="M 57.6 213.662118 
L 414.72 213.662118 
L 414.72 135.393882 
L 57.6 135.393882 
z
" style="fill: #ffffff"/>
   </g>
   <g id="matplotlib.axis_3">
    <g id="xtick_10">
     <g id="line2d_15">
      <g>
       <use xlink:href="#m9dcedd344b" x="57.6" y="213.662118" style="stroke: #000000; stroke-width: 0.8"/>
      </g>
     </g>
    </g>
    <g id="xtick_11">
     <g id="line2d_16">
      <g>
       <use xlink:href="#m9dcedd344b" x="105.216" y="213.662118" style="stroke: #000000; stroke-width: 0.8"/>
      </g>
     </g>
    </g>
    <g id="xtick_12">
     <g id="line2d_17">
      <g>
       <use xlink:href="#m9dcedd344b" x="152.832" y="213.662118" style="stroke: #000000; stroke-width: 0.8"/>
      </g>
     </g>
    </g>
    <g id="xtick_13">
     <g id="line2d_18">
      <g>
       <use xlink:href="#m9dcedd344b" x="200.448" y="213.662118" style="stroke: #000000; stroke-width: 0.8"/>
      </g>
     </g>
    </g>
    <g id="xtick_14">
     <g id="line2d_19">
      <g>
       <use xlink:href="#m9dcedd344b" x="248.064" y="213.662118" style="stroke: #000000; stroke-width: 0.8"/>
      </g>
     </g>
    </g>
    <g id="xtick_15">
     <g id="line2d_20">
      <g>
       <use xlink:href="#m9dcedd344b" x="295.68" y="213.662118" style="stroke: #000000; stroke-width: 0.8"/>
      </g>
     </g>
    </g>
    <g id="xtick_16">
     <g id="line2d_21">
      <g>
       <use xlink:href="#m9dcedd344b" x="343.296" y="213.662118" style="stroke: #000000; stroke-width: 0.8"/>
      </g>
     </g>
    </g>
    <g id="xtick_17">
     <g id="line2d_22">
      <g>
       <use xlink:href="#m9dcedd344b" x="390.912" y="213.662118" style="stroke: #000000; stroke-width: 0.8"/>
      </g>
     </g>
    </g>
    <g id="xtick_18">
     <g id="line2d_23">
      <g>
       <use xlink:href="#m9dcedd344b" x="414.72" y="213.662118" style="stroke: #000000; stroke-width: 0.8"/>
      </g>
     </g>
    </g>
   </g>
   <g id="matplotlib.axis_4">
    <g id="ytick_4">
     <g id="line2d_24">
      <g>
       <use xlink:href="#m4003b20f9c" x="57.6" y="203.817339" style="stroke: #000000; stroke-width: 0.8"/>
      </g>
     </g>
     <g id="text_4">
      <!-- −20 -->
      <g transform="translate(29.495313 207.616558) scale(0.1 -0.1)">
       <defs>
        <path id="DejaVuSans-32" d="M 1228 531 
L 3431 531 
L 3431 0 
L 469 0 
L 469 531 
Q 828 903 1448 1529 
Q 2069 2156 2228 2338 
Q 2531 2678 2651 2914 
Q 2772 3150 2772 3378 
Q 2772 3750 2511 3984 
Q 2250 4219 1831 4219 
Q 1534 4219 1204 4116 
Q 875 4013 500 3803 
L 500 4441 
Q 881 4594 1212 4672 
Q 1544 4750 1819 4750 
Q 2544 4750 2975 4387 
Q 3406 4025 3406 3419 
Q 3406 3131 3298 2873 
Q 3191 2616 2906 2266 
Q 2828 2175 2409 1742 
Q 1991 1309 1228 531 
z
" transform="scale(0.015625)"/>
       </defs>
       <use xlink:href="#DejaVuSans-2212"/>
       <use xlink:href="#DejaVuSans-32" x="83.789062"/>
       <use xlink:href="#DejaVuSans-30" x="147.412109"/>
      </g>
     </g>
    </g>
    <g id="ytick_5">
     <g id="line2d_25">
      <g>
       <use xlink:href="#m4003b20f9c" x="57.6" y="172.646108" style="stroke: #000000; stroke-width: 0.8"/>
      </g>
     </g>
     <g id="text_5">
      <!-- 0 -->
      <g transform="translate(44.2375 176.445327) scale(0.1 -0.1)">
       <use xlink:href="#DejaVuSans-30"/>
      </g>
     </g>
    </g>
    <g id="ytick_6">
     <g id="line2d_26">
      <g>
       <use xlink:href="#m4003b20f9c" x="57.6" y="141.474877" style="stroke: #000000; stroke-width: 0.8"/>
      </g>
     </g>
     <g id="text_6">
      <!-- 20 -->
      <g transform="translate(37.875 145.274096) scale(0.1 -0.1)">
       <use xlink:href="#DejaVuSans-32"/>
       <use xlink:href="#DejaVuSans-30" x="63.623047"/>
      </g>
     </g>
    </g>
   </g>
   <g id="line2d_27">
    <path d="M 57.6 179.426553 
L 58.1952 180.333706 
L 58.7904 182.576639 
L 59.3856 183.940045 
L 59.9808 186.286289 
L 61.1712 192.42339 
L 62.3616 198.473856 
L 62.9568 200.14572 
L 63.552 200.981226 
L 64.1472 199.383059 
L 64.7424 195.669752 
L 66.528 179.435113 
L 67.1232 175.578334 
L 68.3136 171.347895 
L 68.9088 171.128498 
L 69.504 171.027848 
L 70.0992 171.337949 
L 70.6944 171.862165 
L 71.2896 171.521783 
L 72.48 172.537016 
L 74.2656 172.218842 
L 74.8608 172.575696 
L 75.456 173.153651 
L 76.0512 173.431669 
L 76.6464 173.188504 
L 77.2416 173.474517 
L 77.8368 173.488412 
L 78.432 174.257536 
L 79.0272 174.196031 
L 80.8128 175.551293 
L 82.5984 178.510922 
L 83.7888 182.238856 
L 84.384 184.790618 
L 86.1696 197.946839 
L 87.36 207.261875 
L 87.9552 210.104471 
L 88.5504 207.44351 
L 89.1456 200.948507 
L 90.9312 172.405361 
L 91.5264 167.391645 
L 92.1216 164.680147 
L 92.7168 163.617052 
L 93.9072 163.684803 
L 94.5024 164.242794 
L 95.0976 164.189271 
L 96.288 163.705896 
L 96.8832 163.18919 
L 98.0736 161.082486 
L 98.6688 159.379803 
L 99.264 158.270996 
L 99.8592 155.895998 
L 100.4544 154.689755 
L 101.0496 153.105579 
L 101.6448 152.195801 
L 102.24 150.681906 
L 102.8352 151.47068 
L 103.4304 152.601554 
L 104.0256 154.141153 
L 105.216 158.710745 
L 105.8112 161.547126 
L 107.0016 165.763936 
L 107.5968 166.372356 
L 108.192 167.563356 
L 108.7872 167.665005 
L 109.9776 167.305869 
L 110.5728 166.687916 
L 111.168 165.690902 
L 111.7632 165.460335 
L 112.3584 164.688325 
L 115.3344 156.977501 
L 116.5248 153.354523 
L 117.12 150.991856 
L 117.7152 150.429483 
L 118.3104 150.05227 
L 118.9056 150.662327 
L 120.096 155.251085 
L 121.8816 164.301194 
L 122.4768 166.26379 
L 123.072 167.615592 
L 123.6672 167.59242 
L 124.2624 168.931194 
L 126.6432 167.173712 
L 127.2384 166.30527 
L 127.8336 165.234952 
L 128.4288 164.450324 
L 129.024 163.162623 
L 131.4048 156.687184 
L 132.5952 152.062831 
L 133.1904 149.948969 
L 133.7856 149.11486 
L 134.3808 149.414872 
L 134.976 150.351382 
L 135.5712 152.653324 
L 136.7616 158.937496 
L 137.3568 163.034499 
L 137.952 165.594476 
L 139.1424 168.944556 
L 139.7376 169.098142 
L 140.3328 169.678666 
L 140.928 169.284055 
L 141.5232 169.46971 
L 142.1184 168.452002 
L 142.7136 168.123818 
L 143.3088 167.038567 
L 143.904 167.136495 
L 144.4992 165.336494 
L 145.0944 164.210625 
L 146.2848 160.723725 
L 146.88 159.45069 
L 148.0704 154.24727 
L 149.856 148.193785 
L 150.4512 147.481478 
L 151.0464 148.426691 
L 151.6416 150.112589 
L 153.4272 161.97718 
L 154.6176 168.2042 
L 155.808 170.395638 
L 156.4032 171.302649 
L 156.9984 170.892432 
L 157.5936 170.204191 
L 159.3792 168.966208 
L 160.5696 167.343525 
L 161.1648 166.147881 
L 161.76 165.732362 
L 162.3552 164.354959 
L 164.736 156.076119 
L 165.9264 150.096606 
L 166.5216 147.684494 
L 167.1168 146.379117 
L 167.712 145.693115 
L 168.3072 146.924194 
L 168.9024 150.356713 
L 170.688 164.929837 
L 171.2832 168.458251 
L 172.4736 172.54919 
L 173.0688 172.964872 
L 173.664 172.712439 
L 174.2592 172.695716 
L 174.8544 172.442915 
L 175.4496 171.894422 
L 176.0448 172.126256 
L 178.4256 169.629453 
L 179.0208 169.708003 
L 179.616 168.918042 
L 180.2112 167.583438 
L 180.8064 166.693426 
L 181.9968 163.754658 
L 182.592 161.515689 
L 184.3776 152.627587 
L 186.1632 142.498904 
L 186.7584 141.768619 
L 187.3536 142.850156 
L 187.9488 147.832777 
L 189.7344 168.152567 
L 190.3296 172.368052 
L 190.9248 174.799499 
L 191.52 176.096764 
L 192.1152 176.606356 
L 192.7104 176.495513 
L 193.3056 176.254683 
L 193.9008 175.850179 
L 194.496 176.257961 
L 195.0912 175.630255 
L 195.6864 175.682325 
L 196.2816 176.689529 
L 196.8768 176.629878 
L 198.0672 178.323865 
L 198.6624 179.794295 
L 199.2576 180.494539 
L 199.8528 181.953592 
L 202.2336 192.364801 
L 203.424 198.49447 
L 204.0192 201.221081 
L 204.6144 202.125385 
L 205.2096 200.260624 
L 205.8048 196.882298 
L 206.9952 185.133255 
L 207.5904 179.028505 
L 208.1856 174.937337 
L 208.7808 171.958084 
L 209.376 170.813813 
L 210.5664 170.358775 
L 211.1616 170.903437 
L 211.7568 170.815939 
L 212.352 171.003915 
L 212.9472 171.026225 
L 213.5424 170.918088 
L 214.1376 171.354268 
L 214.7328 171.417497 
L 215.328 171.332614 
L 215.9232 171.017166 
L 217.1136 170.126654 
L 217.7088 169.86863 
L 218.304 169.168396 
L 218.8992 169.160751 
L 220.6848 164.776502 
L 221.28 162.875187 
L 222.4704 157.164093 
L 223.0656 152.932651 
L 223.6608 149.499099 
L 224.256 144.353021 
L 224.8512 141.303226 
L 225.4464 138.951529 
L 226.0416 139.765636 
L 226.6368 144.097509 
L 228.4224 169.089892 
L 229.0176 173.894608 
L 229.6128 176.527387 
L 230.208 178.543662 
L 230.8032 179.087541 
L 231.3984 179.045492 
L 232.5888 178.670124 
L 233.184 178.172206 
L 233.7792 178.72166 
L 234.3744 178.838564 
L 235.5648 180.827528 
L 236.7552 183.153408 
L 237.9456 186.497302 
L 239.136 191.263621 
L 240.3264 196.461199 
L 240.9216 197.716755 
L 241.5168 198.104827 
L 242.112 197.107244 
L 242.7072 194.257892 
L 243.3024 190.859537 
L 245.088 178.563304 
L 245.6832 176.523456 
L 246.2784 175.008274 
L 246.8736 173.971016 
L 248.6592 174.856458 
L 249.2544 174.915865 
L 249.8496 175.42859 
L 250.4448 176.655705 
L 251.04 176.750557 
L 251.6352 177.415661 
L 252.2304 178.508674 
L 252.8256 179.992465 
L 253.4208 180.345455 
L 255.2064 186.148427 
L 256.992 194.755853 
L 257.5872 197.648164 
L 258.1824 199.311574 
L 258.7776 200.408133 
L 259.3728 198.958346 
L 259.968 196.044658 
L 262.3488 176.618833 
L 262.944 174.237524 
L 264.1344 171.756823 
L 265.92 172.238113 
L 266.5152 172.543745 
L 267.1104 173.498918 
L 267.7056 173.067561 
L 268.3008 174.037381 
L 268.896 174.724784 
L 269.4912 175.150569 
L 270.0864 174.942307 
L 270.6816 175.853233 
L 271.872 177.105995 
L 273.0624 178.973322 
L 274.2528 182.771644 
L 275.4432 187.838721 
L 277.2288 199.064044 
L 277.824 202.971382 
L 278.4192 204.737558 
L 279.0144 204.131615 
L 279.6096 200.218776 
L 281.9904 173.491194 
L 282.5856 170.261146 
L 283.1808 168.738065 
L 283.776 167.533674 
L 284.3712 167.925365 
L 284.9664 167.77435 
L 286.1568 168.411654 
L 286.752 167.910036 
L 287.3472 167.756556 
L 287.9424 167.20201 
L 288.5376 166.949924 
L 289.1328 166.147029 
L 290.3232 163.857509 
L 292.704 155.542759 
L 293.8944 149.431903 
L 295.0848 145.21642 
L 295.68 145.156225 
L 296.2752 147.07262 
L 296.8704 150.544263 
L 298.656 165.961273 
L 299.2512 169.573031 
L 299.8464 171.720372 
L 300.4416 172.741992 
L 301.632 173.124314 
L 302.2272 172.691203 
L 302.8224 172.757674 
L 303.4176 172.049935 
L 304.0128 171.922895 
L 304.608 171.274621 
L 305.2032 171.142257 
L 305.7984 170.478299 
L 306.3936 170.522418 
L 307.584 168.939671 
L 308.1792 168.599201 
L 308.7744 167.084974 
L 309.3696 166.229556 
L 310.56 163.654057 
L 311.7504 158.546699 
L 314.7264 141.570356 
L 315.3216 140.737355 
L 315.9168 143.399183 
L 316.512 148.909639 
L 318.2976 169.836875 
L 318.8928 173.967993 
L 320.0832 177.194486 
L 320.6784 177.392986 
L 321.2736 177.009163 
L 321.8688 177.128039 
L 323.6544 176.787526 
L 324.2496 176.971336 
L 325.44 178.19169 
L 326.0352 179.478387 
L 326.6304 180.248783 
L 327.2256 181.393261 
L 327.8208 184.105631 
L 328.416 185.870687 
L 329.0112 188.175377 
L 330.7968 196.951477 
L 331.392 199.350768 
L 331.9872 199.921674 
L 332.5824 199.650043 
L 333.1776 197.474569 
L 333.7728 193.09016 
L 334.9632 182.131217 
L 335.5584 177.943146 
L 336.1536 174.897439 
L 336.7488 173.125772 
L 337.344 172.15539 
L 337.9392 172.116518 
L 338.5344 171.774817 
L 339.1296 172.289918 
L 339.7248 172.544769 
L 340.32 172.208041 
L 340.9152 173.146827 
L 341.5104 173.191124 
L 342.1056 173.531267 
L 342.7008 174.201767 
L 343.296 174.317446 
L 343.8912 174.814843 
L 344.4864 174.91474 
L 345.0816 175.824521 
L 345.6768 176.944492 
L 346.272 176.80704 
L 346.8672 178.161654 
L 348.6528 183.909026 
L 349.248 186.823154 
L 349.8432 189.143423 
L 352.224 204.855457 
L 352.8192 204.906698 
L 353.4144 203.314215 
L 354.0096 197.5057 
L 355.2 181.306876 
L 355.7952 174.415036 
L 356.3904 170.264409 
L 357.5808 167.195753 
L 358.7712 167.004323 
L 359.3664 167.367594 
L 361.152 167.236557 
L 362.3424 166.134189 
L 362.9376 165.285316 
L 364.128 162.716783 
L 364.7232 160.81999 
L 365.3184 159.409037 
L 365.9136 157.509626 
L 366.5088 153.712039 
L 367.104 152.081618 
L 367.6992 148.902627 
L 368.2944 147.156651 
L 368.8896 146.252971 
L 369.4848 146.9555 
L 370.08 149.760813 
L 370.6752 153.618485 
L 371.8656 162.629096 
L 372.4608 166.319979 
L 373.056 169.12067 
L 373.6512 170.866367 
L 374.2464 171.589504 
L 374.8416 172.03448 
L 375.4368 171.519199 
L 376.032 171.875229 
L 376.6272 171.017939 
L 377.2224 171.082755 
L 377.8176 170.269613 
L 378.4128 170.015548 
L 379.008 168.864833 
L 379.6032 168.574229 
L 381.984 164.125116 
L 383.1744 159.975908 
L 384.3648 154.678804 
L 386.1504 145.00333 
L 386.7456 143.958189 
L 387.3408 144.089003 
L 387.936 146.828976 
L 390.3168 168.795003 
L 390.912 171.848111 
L 391.5072 173.703921 
L 392.1024 174.706924 
L 393.2928 174.003077 
L 393.888 174.372717 
L 394.4832 174.192087 
L 395.6736 173.353332 
L 396.2688 173.790082 
L 398.0544 174.224716 
L 398.6496 174.118191 
L 399.2448 174.627669 
L 399.84 174.614493 
L 400.4352 174.791717 
L 401.0304 175.44795 
L 401.6256 175.500591 
L 402.2208 176.875287 
L 402.816 177.481314 
L 404.6016 182.503148 
L 405.1968 185.843491 
L 405.792 188.355392 
L 407.5776 200.90388 
L 408.1728 205.158281 
L 408.768 207.090805 
L 409.3632 205.78975 
L 409.9584 200.48788 
L 410.5536 192.707158 
L 411.1488 182.903086 
L 411.744 175.467281 
L 412.3392 170.161235 
L 412.9344 167.297393 
L 413.5296 165.862675 
L 414.72 165.684544 
L 414.72 165.684544 
" clip-path="url(#pdd405d2c6a)" style="fill: none; stroke: #0000cc; stroke-width: 1.5; stroke-linecap: square"/>
   </g>
   <g id="line2d_28">
    <path d="M 57.6 179.426553 
L 58.790405 182.476814 
L 59.385595 184.456295 
L 60.576 189.540591 
L 62.361595 198.458843 
L 62.956809 200.438036 
L 63.552 200.883233 
L 64.147191 199.188642 
L 64.742405 195.26217 
L 66.528 179.116984 
L 67.123191 175.507932 
L 67.718405 173.148684 
L 68.313595 171.879953 
L 68.908809 171.381569 
L 69.504 171.312214 
L 70.694405 171.743845 
L 72.48 172.458553 
L 74.860809 173.066381 
L 76.646405 173.581256 
L 77.836809 174.134889 
L 79.027191 175.019632 
L 79.622405 175.652672 
L 80.217595 176.463346 
L 80.812809 177.502581 
L 81.408 178.834401 
L 82.003191 180.53746 
L 82.598405 182.704312 
L 83.193595 185.434976 
L 83.788809 188.817984 
L 84.979191 197.533789 
L 86.169595 206.534207 
L 86.764809 208.635947 
L 87.36 207.03346 
L 87.955191 200.813631 
L 89.740809 173.181918 
L 90.336 168.488847 
L 90.931191 165.580035 
L 91.526405 164.492632 
L 92.716809 164.528371 
L 93.312 164.873432 
L 93.907191 164.935336 
L 94.502405 164.772006 
L 95.097595 164.43795 
L 95.692809 163.798707 
L 96.288 162.938891 
L 96.883191 161.832477 
L 98.073595 158.909873 
L 100.454405 151.78571 
L 101.049595 150.609461 
L 101.644809 150.178535 
L 102.24 150.715599 
L 102.835191 152.28884 
L 103.430405 154.744758 
L 105.216 163.470553 
L 105.811191 165.590058 
L 106.406405 167.067134 
L 107.001595 167.960344 
L 107.596809 168.377078 
L 108.192 168.430125 
L 108.787191 168.213843 
L 109.382405 167.795184 
L 110.572809 166.48886 
L 111.763191 164.592046 
L 112.953595 161.991902 
L 114.144 158.565663 
L 116.524809 150.673562 
L 117.12 149.512717 
L 117.715191 149.274828 
L 118.310405 150.195075 
L 118.905595 152.293283 
L 120.096 158.762722 
L 121.286405 164.896689 
L 121.881595 166.962696 
L 122.476809 168.309435 
L 123.072 169.050659 
L 123.667191 169.327307 
L 124.262405 169.268892 
L 124.857595 168.973895 
L 126.048 167.90232 
L 127.238405 166.307511 
L 128.428809 164.097473 
L 129.619191 161.059168 
L 130.809595 157.052696 
L 132.595191 150.262902 
L 133.190405 148.651519 
L 133.785595 147.986297 
L 134.380809 148.62021 
L 134.976 150.68217 
L 135.571191 153.95533 
L 137.356809 165.161679 
L 137.952 167.626986 
L 138.547191 169.230264 
L 139.142405 170.12038 
L 139.737595 170.477471 
L 140.332809 170.466926 
L 140.928 170.213975 
L 142.118405 169.271868 
L 143.308809 167.918289 
L 144.499191 166.076466 
L 145.689595 163.49512 
L 146.88 159.867147 
L 148.070405 155.056325 
L 149.260809 149.714485 
L 149.856 147.528513 
L 150.451191 146.306347 
L 151.046405 146.565943 
L 151.641595 148.600047 
L 152.236809 152.261116 
L 154.022405 165.80301 
L 154.617595 168.785112 
L 155.212809 170.683157 
L 155.808 171.719103 
L 156.403191 172.136355 
L 156.998405 172.154607 
L 157.593595 171.937269 
L 158.784 171.167203 
L 160.569595 169.629806 
L 161.76 168.241467 
L 162.950405 166.267667 
L 163.545595 164.948293 
L 164.140809 163.335251 
L 164.736 161.371653 
L 165.926405 156.225087 
L 168.307191 144.033727 
L 168.902405 143.158586 
L 169.497595 144.556241 
L 170.092809 148.406639 
L 172.473595 170.437605 
L 173.068809 173.030852 
L 173.664 174.427179 
L 174.259191 175.003478 
L 174.854405 175.087144 
L 176.044809 174.697564 
L 177.235191 174.291548 
L 178.425595 174.179018 
L 179.616 174.410335 
L 180.806405 175.013496 
L 181.996809 176.090193 
L 182.592 176.869097 
L 183.187191 177.860028 
L 183.782405 179.115093 
L 184.377595 180.697678 
L 184.972809 182.680765 
L 185.568 185.140331 
L 186.758405 191.690656 
L 188.544 203.492179 
L 189.139191 205.597389 
L 189.734405 204.92709 
L 190.329595 200.661689 
L 192.710405 172.393783 
L 193.305595 169.208169 
L 193.900809 167.549654 
L 194.496 167.112691 
L 195.091191 167.065343 
L 196.281595 167.442921 
L 196.876809 167.444651 
L 197.472 167.319691 
L 198.067191 166.983476 
L 198.662405 166.438235 
L 199.257595 165.681419 
L 199.852809 164.681996 
L 200.448 163.423407 
L 201.638382 160.027821 
L 202.828809 155.422741 
L 204.614382 148.034284 
L 205.209618 146.713674 
L 205.804809 146.765752 
L 206.4 148.507493 
L 206.995191 151.858324 
L 208.780809 165.051008 
L 209.376 168.129671 
L 209.971191 170.144618 
L 210.566382 171.285306 
L 211.161618 171.783343 
L 211.756809 171.853965 
L 212.352 171.663942 
L 213.542382 170.891424 
L 214.732809 169.860932 
L 215.923191 168.558911 
L 217.113618 166.773265 
L 217.708809 165.599661 
L 218.304 164.173738 
L 218.899191 162.442071 
L 220.089618 157.875122 
L 221.28 151.855381 
L 222.470382 145.819997 
L 223.065618 144.052751 
L 223.660809 144.082726 
L 224.256 146.395587 
L 224.851191 150.86745 
L 226.636809 167.586102 
L 227.232 171.003764 
L 227.827191 173.045436 
L 228.422382 174.083997 
L 229.017618 174.447026 
L 229.612809 174.425742 
L 230.803191 173.951195 
L 231.993618 173.472104 
L 233.184 173.195207 
L 234.374382 173.115053 
L 235.564809 173.194626 
L 236.755191 173.426917 
L 237.945618 173.851101 
L 239.136 174.564189 
L 239.731191 175.080781 
L 240.326382 175.74533 
L 240.921618 176.600428 
L 241.516809 177.700629 
L 242.112 179.11469 
L 242.707191 180.926952 
L 243.302382 183.235923 
L 243.897618 186.145917 
L 244.492809 189.743583 
L 245.683191 198.894066 
L 246.278382 203.798232 
L 246.873618 207.743655 
L 247.468809 209.161912 
L 248.064 206.392008 
L 248.659191 198.858806 
L 249.849618 178.236281 
L 250.444809 171.257834 
L 251.04 167.098439 
L 251.635191 164.571883 
L 252.230382 163.974637 
L 253.420809 164.145316 
L 254.016 164.515594 
L 254.611191 164.465983 
L 255.206382 164.26837 
L 255.801618 163.842722 
L 256.396809 163.120165 
L 256.992 162.188477 
L 258.182382 159.6078 
L 259.968 154.532403 
L 260.563191 152.890675 
L 261.158382 151.577882 
L 261.753618 150.841853 
L 262.348809 150.912081 
L 262.944 151.919435 
L 263.539191 153.820795 
L 265.92 164.188564 
L 266.515191 165.896662 
L 267.110382 167.030881 
L 267.705618 167.663021 
L 268.300809 167.891293 
L 268.896 167.80965 
L 269.491191 167.492052 
L 270.086382 166.988228 
L 271.276809 165.512591 
L 272.467191 163.411163 
L 273.657618 160.586703 
L 274.848 157.028688 
L 276.633618 151.497 
L 277.228809 150.335543 
L 277.824 149.970139 
L 278.419191 150.622546 
L 279.014382 152.344118 
L 280.204809 158.050533 
L 281.395191 163.875378 
L 281.990382 165.966461 
L 282.585618 167.395792 
L 283.180809 168.237445 
L 283.776 168.607755 
L 284.371191 168.623529 
L 284.966382 168.379642 
L 285.561618 167.94176 
L 286.752 166.613973 
L 287.942382 164.704161 
L 289.132809 162.083186 
L 290.323191 158.610195 
L 292.704 150.490758 
L 293.299191 149.264634 
L 293.894382 148.985408 
L 294.489618 149.906826 
L 295.084809 152.058183 
L 296.275191 158.746345 
L 297.465618 165.078986 
L 298.060809 167.196083 
L 298.656 168.567199 
L 299.251191 169.316144 
L 299.846382 169.592458 
L 300.441618 169.532168 
L 301.036809 169.237779 
L 302.227191 168.182438 
L 303.417618 166.627035 
L 304.608 164.475474 
L 305.798382 161.498919 
L 306.988809 157.513346 
L 309.369618 148.606443 
L 309.964809 147.649691 
L 310.56 147.985535 
L 311.155191 149.821768 
L 311.750382 153.013144 
L 313.536 164.817107 
L 314.131191 167.539235 
L 314.726382 169.337917 
L 315.321618 170.363054 
L 315.916809 170.807269 
L 316.512 170.851882 
L 317.107191 170.637645 
L 318.297618 169.765989 
L 319.488 168.517233 
L 320.678382 166.842134 
L 321.868809 164.499358 
L 323.059191 161.15855 
L 324.249618 156.557981 
L 326.035191 148.337299 
L 326.630382 146.350709 
L 327.225618 145.611 
L 327.820809 146.622714 
L 328.416 149.536413 
L 329.606382 159.095077 
L 330.201618 163.917667 
L 330.796809 167.716856 
L 331.392 170.287177 
L 331.987191 171.804378 
L 332.582382 172.539209 
L 333.177618 172.747403 
L 333.772809 172.64238 
L 334.963191 172.005908 
L 336.748809 170.751112 
L 337.939191 169.736962 
L 339.129618 168.367126 
L 339.724809 167.460289 
L 340.32 166.345215 
L 340.915191 164.967197 
L 341.510382 163.264507 
L 342.105618 161.172344 
L 343.296 155.621457 
L 345.081618 145.061886 
L 345.676809 142.55071 
L 346.272 141.927615 
L 346.867191 143.956438 
L 347.462382 148.703054 
L 349.248 168.341047 
L 349.843191 172.400878 
L 350.438382 174.753499 
L 351.033618 175.930573 
L 351.628809 176.329743 
L 352.224 176.315613 
L 354.009618 175.807888 
L 354.604809 175.786583 
L 355.2 175.894502 
L 355.795191 176.146837 
L 356.390382 176.552678 
L 356.985618 177.126217 
L 357.580809 177.889203 
L 358.176 178.871056 
L 358.771191 180.110673 
L 359.366382 181.654691 
L 359.961618 183.55369 
L 361.152 188.576871 
L 363.532809 201.030631 
L 364.128 202.298952 
L 364.723191 201.348431 
L 365.318382 197.768958 
L 367.699191 175.345984 
L 368.294382 172.474054 
L 368.889618 170.86651 
L 369.484809 170.227389 
L 370.08 170.088852 
L 371.270382 170.451162 
L 372.460809 170.782237 
L 373.651191 170.798861 
L 374.841618 170.454205 
L 376.032 169.702763 
L 376.627191 169.139155 
L 377.222382 168.416585 
L 377.817618 167.498225 
L 378.412809 166.336582 
L 379.008 164.873129 
L 379.603191 163.038943 
L 380.198382 160.759564 
L 380.793618 157.968173 
L 381.984 150.823062 
L 383.174382 143.082655 
L 383.769618 140.649652 
L 384.364809 140.615314 
L 384.96 143.745533 
L 385.555191 149.830823 
L 386.745618 165.337249 
L 387.340809 171.274473 
L 387.936 174.937499 
L 388.531191 176.891477 
L 389.126382 177.75356 
L 389.721618 177.926117 
L 392.102382 177.546564 
L 392.697618 177.738392 
L 393.292809 178.121459 
L 393.888 178.714637 
L 394.483191 179.53111 
L 395.078382 180.59377 
L 395.673618 181.92923 
L 396.864 185.526289 
L 398.054382 190.391268 
L 399.244809 195.824845 
L 399.84 198.056166 
L 400.435191 199.302722 
L 401.030382 199.004905 
L 401.625618 196.817018 
L 402.220809 192.892247 
L 404.006382 179.026768 
L 404.601618 176.055103 
L 405.196809 174.142348 
L 405.792 173.129709 
L 406.387191 172.740125 
L 406.982382 172.731444 
L 408.172809 173.258571 
L 409.958382 174.422781 
L 411.148809 175.380352 
L 412.339191 176.677461 
L 412.934382 177.536542 
L 413.529618 178.59228 
L 414.124809 179.895759 
L 414.72 181.504514 
L 414.72 181.504514 
" clip-path="url(#pdd405d2c6a)" style="fill: none; stroke-dasharray: 9.6,2.4,1.5,2.4; stroke-dashoffset: 0; stroke: #ff0000; stroke-width: 1.5"/>
   </g>
   <g id="patch_8">
    <path d="M 57.6 213.662118 
L 57.6 135.393882 
" style="fill: none; stroke: #000000; stroke-width: 0.8; stroke-linejoin: miter; stroke-linecap: square"/>
   </g>
   <g id="patch_9">
    <path d="M 414.72 213.662118 
L 414.72 135.393882 
" style="fill: none; stroke: #000000; stroke-width: 0.8; stroke-linejoin: miter; stroke-linecap: square"/>
   </g>
   <g id="patch_10">
    <path d="M 57.6 213.662118 
L 414.72 213.662118 
" style="fill: none; stroke: #000000; stroke-width: 0.8; stroke-linejoin: miter; stroke-linecap: square"/>
   </g>
   <g id="patch_11">
    <path d="M 57.6 135.393882 
L 414.72 135.393882 
" style="fill: none; stroke: #000000; stroke-width: 0.8; stroke-linejoin: miter; stroke-linecap: square"/>
   </g>
  </g>
  <g id="axes_3">
   <g id="patch_12">
    <path d="M 57.6 307.584 
L 414.72 307.584 
L 414.72 229.315765 
L 57.6 229.315765 
z
" style="fill: #ffffff"/>
   </g>
   <g id="matplotlib.axis_5">
    <g id="xtick_19">
     <g id="line2d_29">
      <g>
       <use xlink:href="#m9dcedd344b" x="57.6" y="307.584" style="stroke: #000000; stroke-width: 0.8"/>
      </g>
     </g>
     <g id="text_7">
      <!-- 10 -->
      <g transform="translate(51.2375 322.182437) scale(0.1 -0.1)">
       <use xlink:href="#DejaVuSans-31"/>
       <use xlink:href="#DejaVuSans-30" x="63.623047"/>
      </g>
     </g>
    </g>
    <g id="xtick_20">
     <g id="line2d_30">
      <g>
       <use xlink:href="#m9dcedd344b" x="105.216" y="307.584" style="stroke: #000000; stroke-width: 0.8"/>
      </g>
     </g>
     <g id="text_8">
      <!-- 12 -->
      <g transform="translate(98.8535 322.182437) scale(0.1 -0.1)">
       <use xlink:href="#DejaVuSans-31"/>
       <use xlink:href="#DejaVuSans-32" x="63.623047"/>
      </g>
     </g>
    </g>
    <g id="xtick_21">
     <g id="line2d_31">
      <g>
       <use xlink:href="#m9dcedd344b" x="152.832" y="307.584" style="stroke: #000000; stroke-width: 0.8"/>
      </g>
     </g>
     <g id="text_9">
      <!-- 14 -->
      <g transform="translate(146.4695 322.182437) scale(0.1 -0.1)">
       <defs>
        <path id="DejaVuSans-34" d="M 2419 4116 
L 825 1625 
L 2419 1625 
L 2419 4116 
z
M 2253 4666 
L 3047 4666 
L 3047 1625 
L 3713 1625 
L 3713 1100 
L 3047 1100 
L 3047 0 
L 2419 0 
L 2419 1100 
L 313 1100 
L 313 1709 
L 2253 4666 
z
" transform="scale(0.015625)"/>
       </defs>
       <use xlink:href="#DejaVuSans-31"/>
       <use xlink:href="#DejaVuSans-34" x="63.623047"/>
      </g>
     </g>
    </g>
    <g id="xtick_22">
     <g id="line2d_32">
      <g>
       <use xlink:href="#m9dcedd344b" x="200.448" y="307.584" style="stroke: #000000; stroke-width: 0.8"/>
      </g>
     </g>
     <g id="text_10">
      <!-- 16 -->
      <g transform="translate(194.0855 322.182437) scale(0.1 -0.1)">
       <defs>
        <path id="DejaVuSans-36" d="M 2113 2584 
Q 1688 2584 1439 2293 
Q 1191 2003 1191 1497 
Q 1191 994 1439 701 
Q 1688 409 2113 409 
Q 2538 409 2786 701 
Q 3034 994 3034 1497 
Q 3034 2003 2786 2293 
Q 2538 2584 2113 2584 
z
M 3366 4563 
L 3366 3988 
Q 3128 4100 2886 4159 
Q 2644 4219 2406 4219 
Q 1781 4219 1451 3797 
Q 1122 3375 1075 2522 
Q 1259 2794 1537 2939 
Q 1816 3084 2150 3084 
Q 2853 3084 3261 2657 
Q 3669 2231 3669 1497 
Q 3669 778 3244 343 
Q 2819 -91 2113 -91 
Q 1303 -91 875 529 
Q 447 1150 447 2328 
Q 447 3434 972 4092 
Q 1497 4750 2381 4750 
Q 2619 4750 2861 4703 
Q 3103 4656 3366 4563 
z
" transform="scale(0.015625)"/>
       </defs>
       <use xlink:href="#DejaVuSans-31"/>
       <use xlink:href="#DejaVuSans-36" x="63.623047"/>
      </g>
     </g>
    </g>
    <g id="xtick_23">
     <g id="line2d_33">
      <g>
       <use xlink:href="#m9dcedd344b" x="248.064" y="307.584" style="stroke: #000000; stroke-width: 0.8"/>
      </g>
     </g>
     <g id="text_11">
      <!-- 18 -->
      <g transform="translate(241.7015 322.182437) scale(0.1 -0.1)">
       <defs>
        <path id="DejaVuSans-38" d="M 2034 2216 
Q 1584 2216 1326 1975 
Q 1069 1734 1069 1313 
Q 1069 891 1326 650 
Q 1584 409 2034 409 
Q 2484 409 2743 651 
Q 3003 894 3003 1313 
Q 3003 1734 2745 1975 
Q 2488 2216 2034 2216 
z
M 1403 2484 
Q 997 2584 770 2862 
Q 544 3141 544 3541 
Q 544 4100 942 4425 
Q 1341 4750 2034 4750 
Q 2731 4750 3128 4425 
Q 3525 4100 3525 3541 
Q 3525 3141 3298 2862 
Q 3072 2584 2669 2484 
Q 3125 2378 3379 2068 
Q 3634 1759 3634 1313 
Q 3634 634 3220 271 
Q 2806 -91 2034 -91 
Q 1263 -91 848 271 
Q 434 634 434 1313 
Q 434 1759 690 2068 
Q 947 2378 1403 2484 
z
M 1172 3481 
Q 1172 3119 1398 2916 
Q 1625 2713 2034 2713 
Q 2441 2713 2670 2916 
Q 2900 3119 2900 3481 
Q 2900 3844 2670 4047 
Q 2441 4250 2034 4250 
Q 1625 4250 1398 4047 
Q 1172 3844 1172 3481 
z
" transform="scale(0.015625)"/>
       </defs>
       <use xlink:href="#DejaVuSans-31"/>
       <use xlink:href="#DejaVuSans-38" x="63.623047"/>
      </g>
     </g>
    </g>
    <g id="xtick_24">
     <g id="line2d_34">
      <g>
       <use xlink:href="#m9dcedd344b" x="295.68" y="307.584" style="stroke: #000000; stroke-width: 0.8"/>
      </g>
     </g>
     <g id="text_12">
      <!-- 20 -->
      <g transform="translate(289.3175 322.182437) scale(0.1 -0.1)">
       <use xlink:href="#DejaVuSans-32"/>
       <use xlink:href="#DejaVuSans-30" x="63.623047"/>
      </g>
     </g>
    </g>
    <g id="xtick_25">
     <g id="line2d_35">
      <g>
       <use xlink:href="#m9dcedd344b" x="343.296" y="307.584" style="stroke: #000000; stroke-width: 0.8"/>
      </g>
     </g>
     <g id="text_13">
      <!-- 22 -->
      <g transform="translate(336.9335 322.182437) scale(0.1 -0.1)">
       <use xlink:href="#DejaVuSans-32"/>
       <use xlink:href="#DejaVuSans-32" x="63.623047"/>
      </g>
     </g>
    </g>
    <g id="xtick_26">
     <g id="line2d_36">
      <g>
       <use xlink:href="#m9dcedd344b" x="390.912" y="307.584" style="stroke: #000000; stroke-width: 0.8"/>
      </g>
     </g>
     <g id="text_14">
      <!-- 24 -->
      <g transform="translate(384.5495 322.182437) scale(0.1 -0.1)">
       <use xlink:href="#DejaVuSans-32"/>
       <use xlink:href="#DejaVuSans-34" x="63.623047"/>
      </g>
     </g>
    </g>
    <g id="xtick_27">
     <g id="line2d_37">
      <g>
       <use xlink:href="#m9dcedd344b" x="414.72" y="307.584" style="stroke: #000000; stroke-width: 0.8"/>
      </g>
     </g>
     <g id="text_15">
      <!-- 25 -->
      <g transform="translate(408.3575 322.182437) scale(0.1 -0.1)">
       <defs>
        <path id="DejaVuSans-35" d="M 691 4666 
L 3169 4666 
L 3169 4134 
L 1269 4134 
L 1269 2991 
Q 1406 3038 1543 3061 
Q 1681 3084 1819 3084 
Q 2600 3084 3056 2656 
Q 3513 2228 3513 1497 
Q 3513 744 3044 326 
Q 2575 -91 1722 -91 
Q 1428 -91 1123 -41 
Q 819 9 494 109 
L 494 744 
Q 775 591 1075 516 
Q 1375 441 1709 441 
Q 2250 441 2565 725 
Q 2881 1009 2881 1497 
Q 2881 1984 2565 2268 
Q 2250 2553 1709 2553 
Q 1456 2553 1204 2497 
Q 953 2441 691 2322 
L 691 4666 
z
" transform="scale(0.015625)"/>
       </defs>
       <use xlink:href="#DejaVuSans-32"/>
       <use xlink:href="#DejaVuSans-35" x="63.623047"/>
      </g>
     </g>
    </g>
   </g>
   <g id="matplotlib.axis_6">
    <g id="ytick_7">
     <g id="line2d_38">
      <g>
       <use xlink:href="#m4003b20f9c" x="57.6" y="278.090726" style="stroke: #000000; stroke-width: 0.8"/>
      </g>
     </g>
     <g id="text_16">
      <!-- 20 -->
      <g transform="translate(37.875 281.889945) scale(0.1 -0.1)">
       <use xlink:href="#DejaVuSans-32"/>
       <use xlink:href="#DejaVuSans-30" x="63.623047"/>
      </g>
     </g>
    </g>
    <g id="ytick_8">
     <g id="line2d_39">
      <g>
       <use xlink:href="#m4003b20f9c" x="57.6" y="240.120343" style="stroke: #000000; stroke-width: 0.8"/>
      </g>
     </g>
     <g id="text_17">
      <!-- 40 -->
      <g transform="translate(37.875 243.919562) scale(0.1 -0.1)">
       <use xlink:href="#DejaVuSans-34"/>
       <use xlink:href="#DejaVuSans-30" x="63.623047"/>
      </g>
     </g>
    </g>
   </g>
   <g id="line2d_40">
    <path d="M 57.6 286.781352 
L 58.1952 287.975171 
L 58.7904 288.477204 
L 59.9808 289.15126 
L 60.576 288.451292 
L 61.1712 286.272313 
L 61.7664 283.256902 
L 62.3616 278.133293 
L 63.552 263.718901 
L 64.7424 249.079404 
L 65.3376 244.287437 
L 65.9328 242.940701 
L 66.528 244.890594 
L 67.1232 247.676136 
L 67.7184 251.473183 
L 69.504 264.309867 
L 71.2896 273.475414 
L 73.6704 283.802965 
L 74.8608 287.811586 
L 77.2416 294.064684 
L 77.8368 294.979882 
L 79.0272 298.027421 
L 79.6224 299.296291 
L 80.2176 299.780558 
L 81.408 301.785214 
L 82.0032 303.299047 
L 82.5984 303.226082 
L 83.1936 304.026353 
L 83.7888 303.718656 
L 84.384 303.253533 
L 84.9792 302.600852 
L 85.5744 300.007141 
L 86.1696 295.846828 
L 86.7648 289.322256 
L 87.36 279.476301 
L 87.9552 267.624782 
L 89.1456 240.705813 
L 89.7408 233.875725 
L 90.336 232.873412 
L 90.9312 236.491192 
L 92.7168 254.057362 
L 93.9072 262.792422 
L 95.0976 269.059456 
L 95.6928 271.444826 
L 96.288 273.307167 
L 96.8832 274.355545 
L 97.4784 276.122342 
L 98.0736 277.363552 
L 98.6688 277.544619 
L 99.264 277.466208 
L 99.8592 277.04 
L 100.4544 275.69089 
L 101.6448 270.672536 
L 102.24 267.239944 
L 103.4304 259.18766 
L 104.0256 255.436249 
L 105.216 252.925722 
L 105.8112 252.54191 
L 106.4064 253.669878 
L 107.0016 256.723868 
L 107.5968 258.111993 
L 108.192 260.302991 
L 108.7872 263.822128 
L 109.9776 268.11103 
L 111.168 272.597597 
L 112.3584 276.322147 
L 112.9536 277.441058 
L 113.5488 279.026234 
L 114.144 278.97812 
L 114.7392 279.400926 
L 115.3344 278.907276 
L 115.9296 278.250507 
L 116.5248 274.94075 
L 117.12 272.672987 
L 120.096 252.92086 
L 121.2864 251.459408 
L 122.4768 254.347651 
L 123.6672 259.468182 
L 124.8576 265.760688 
L 127.8336 277.234508 
L 128.4288 278.303212 
L 129.024 279.826331 
L 129.6192 280.74445 
L 130.2144 281.341671 
L 130.8096 280.907035 
L 131.4048 279.747626 
L 132 279.201033 
L 133.1904 272.695897 
L 135.5712 254.0506 
L 136.1664 251.17484 
L 136.7616 249.606677 
L 137.3568 250.19893 
L 138.5472 253.819981 
L 139.7376 260.457731 
L 142.7136 274.631512 
L 143.3088 276.129719 
L 145.0944 281.621637 
L 145.6896 282.792367 
L 146.2848 283.277245 
L 146.88 283.517211 
L 147.4752 283.103861 
L 148.6656 279.427766 
L 149.2608 276.024847 
L 150.4512 265.804233 
L 151.6416 254.593023 
L 152.2368 249.856063 
L 152.832 248.63057 
L 153.4272 248.054755 
L 154.0224 249.934873 
L 154.6176 252.382774 
L 158.1888 271.234562 
L 158.784 274.341897 
L 159.3792 276.361642 
L 159.9744 278.902385 
L 162.3552 285.941122 
L 163.5456 287.273107 
L 164.736 286.559919 
L 165.9264 281.58554 
L 166.5216 277.109945 
L 167.712 264.188006 
L 168.3072 256.828072 
L 168.9024 251.088617 
L 169.4976 246.760256 
L 170.0928 244.835335 
L 170.688 245.392082 
L 172.4736 255.669957 
L 173.0688 260.194983 
L 173.664 263.119513 
L 174.2592 267.115895 
L 175.4496 272.970128 
L 177.8304 283.39205 
L 178.4256 284.740161 
L 179.616 288.476835 
L 180.2112 289.939934 
L 180.8064 291.099077 
L 181.4016 291.94645 
L 181.9968 293.447819 
L 182.592 293.440959 
L 183.1872 293.259835 
L 183.7824 292.420358 
L 184.3776 290.183673 
L 184.9728 286.411543 
L 185.568 281.848719 
L 186.1632 274.258555 
L 187.9488 247.086664 
L 188.544 241.42223 
L 189.1392 240.437561 
L 189.7344 241.033243 
L 190.3296 244.86466 
L 190.9248 250.505017 
L 192.7104 264.127403 
L 193.9008 270.06289 
L 194.496 273.757762 
L 195.0912 276.391776 
L 196.2816 280.557826 
L 196.8768 283.314411 
L 197.472 285.050481 
L 198.0672 286.062457 
L 198.6624 287.982955 
L 199.8528 290.303083 
L 200.448 290.016685 
L 201.0432 290.203047 
L 201.6384 289.671757 
L 202.2336 287.773512 
L 202.8288 284.428617 
L 203.424 279.507098 
L 204.0192 273.166041 
L 205.8048 249.154702 
L 206.4 243.571391 
L 206.9952 242.106441 
L 207.5904 243.626441 
L 208.1856 246.640108 
L 208.7808 251.666043 
L 212.352 273.379722 
L 212.9472 276.138478 
L 213.5424 278.36049 
L 214.1376 281.143795 
L 214.7328 283.015366 
L 215.9232 287.92952 
L 216.5184 289.537572 
L 217.1136 290.454616 
L 217.7088 292.274498 
L 218.304 293.479531 
L 218.8992 295.269886 
L 220.0896 297.05367 
L 220.6848 297.25185 
L 221.28 298.024193 
L 222.4704 297.658659 
L 223.0656 295.317902 
L 223.6608 291.887488 
L 224.256 286.658844 
L 224.8512 278.848612 
L 226.0416 257.066042 
L 226.6368 245.682453 
L 227.232 239.123653 
L 227.8272 236.448618 
L 228.4224 238.221206 
L 229.0176 242.357314 
L 230.208 253.477597 
L 231.9936 266.488453 
L 232.5888 268.851969 
L 233.184 271.978144 
L 234.9696 278.896355 
L 235.5648 281.134446 
L 236.16 281.704773 
L 236.7552 283.292786 
L 237.3504 283.558697 
L 237.9456 284.063301 
L 238.5408 283.556023 
L 239.7312 279.144363 
L 240.9216 270.327997 
L 241.5168 264.861757 
L 242.7072 252.901257 
L 243.3024 248.964648 
L 244.4928 248.004925 
L 245.6832 252.790058 
L 246.2784 255.885554 
L 247.4688 262.94041 
L 248.064 266.462384 
L 250.4448 277.6035 
L 251.6352 281.489126 
L 253.4208 286.39027 
L 254.6112 287.385862 
L 255.2064 287.586922 
L 255.8016 286.947085 
L 256.992 282.622201 
L 257.5872 277.536946 
L 258.7776 264.46164 
L 259.968 250.961653 
L 260.5632 246.036837 
L 261.1584 244.652355 
L 261.7536 245.323137 
L 262.3488 247.643952 
L 264.7296 263.314886 
L 265.3248 266.392585 
L 265.92 270.248044 
L 268.3008 280.39968 
L 268.896 282.247343 
L 269.4912 285.025703 
L 271.2768 290.811158 
L 271.872 291.395913 
L 272.4672 293.164467 
L 273.0624 294.376887 
L 273.6576 294.118342 
L 274.2528 295.211788 
L 274.848 295.662207 
L 275.4432 295.224955 
L 276.6336 289.934117 
L 277.2288 285.165775 
L 277.824 278.163541 
L 278.4192 269.458742 
L 279.6096 248.821031 
L 280.2048 241.336691 
L 280.8 238.292215 
L 281.3952 239.495846 
L 281.9904 242.512993 
L 283.776 257.900329 
L 284.3712 262.562734 
L 286.752 274.998489 
L 287.3472 277.076175 
L 287.9424 279.937623 
L 288.5376 281.459746 
L 289.1328 283.538506 
L 289.728 285.064516 
L 290.9184 287.248667 
L 292.704 286.402175 
L 293.2992 283.809314 
L 293.8944 280.500046 
L 294.4896 276.02246 
L 296.8704 249.504897 
L 297.4656 245.352772 
L 298.0608 243.960883 
L 298.656 245.905572 
L 299.8464 252.842491 
L 300.4416 257.000264 
L 301.0368 260.299042 
L 302.2272 267.540557 
L 302.8224 270.297949 
L 303.4176 274.177448 
L 304.608 279.007772 
L 305.2032 280.807382 
L 305.7984 283.943579 
L 309.3696 293.376464 
L 309.9648 294.291203 
L 310.56 294.53181 
L 311.1552 295.508113 
L 311.7504 295.229706 
L 312.3456 293.732924 
L 312.9408 291.217047 
L 313.536 287.292299 
L 314.1312 280.802826 
L 314.7264 272.831682 
L 316.512 243.698501 
L 317.1072 239.328102 
L 317.7024 238.989548 
L 318.2976 241.43223 
L 319.488 251.375415 
L 321.8688 268.767636 
L 322.464 270.704213 
L 323.0592 274.317018 
L 324.2496 278.873224 
L 324.8448 280.359326 
L 325.44 283.461685 
L 326.0352 284.435628 
L 326.6304 286.31562 
L 327.2256 287.704153 
L 327.8208 287.456405 
L 328.416 288.536894 
L 329.6064 286.197615 
L 330.2016 284.28812 
L 331.392 275.045692 
L 331.9872 268.273895 
L 333.1776 252.247107 
L 333.7728 247.120783 
L 334.368 243.727231 
L 334.9632 244.073232 
L 336.1536 249.813166 
L 336.7488 254.345307 
L 340.32 274.488263 
L 340.9152 277.531045 
L 341.5104 279.357304 
L 342.7008 284.172767 
L 343.296 286.020409 
L 343.8912 288.605233 
L 344.4864 289.73871 
L 346.272 294.256501 
L 346.8672 295.577998 
L 348.0576 296.873795 
L 348.6528 296.962834 
L 349.248 296.221293 
L 349.8432 295.831004 
L 350.4384 292.992783 
L 351.0336 288.541716 
L 351.6288 282.867426 
L 352.224 274.048759 
L 354.0096 242.623293 
L 354.6048 238.007861 
L 355.2 237.038377 
L 355.7952 240.387996 
L 357.5808 255.770795 
L 359.9616 270.823949 
L 360.5568 273.555793 
L 361.152 275.495869 
L 361.7472 278.575749 
L 362.3424 280.367869 
L 364.128 284.34613 
L 364.7232 284.323023 
L 365.3184 285.312824 
L 365.9136 284.747256 
L 366.5088 283.768411 
L 367.104 280.896418 
L 367.6992 277.118839 
L 368.8896 265.854137 
L 370.08 253.100547 
L 370.6752 248.207556 
L 371.2704 246.336122 
L 371.8656 246.383994 
L 372.4608 247.960159 
L 373.6512 254.983022 
L 376.032 269.300446 
L 376.6272 271.49301 
L 377.2224 274.769318 
L 378.4128 279.069114 
L 379.008 281.053048 
L 379.6032 283.862871 
L 380.7936 287.552605 
L 381.984 289.982125 
L 382.5792 290.389089 
L 383.1744 289.850518 
L 383.7696 290.359083 
L 384.3648 288.198235 
L 384.96 285.575011 
L 385.5552 281.92229 
L 386.7456 269.282397 
L 387.936 252.029452 
L 388.5312 245.728098 
L 389.1264 242.420219 
L 389.7216 242.763049 
L 390.3168 245.015371 
L 391.5072 253.102642 
L 392.6976 262.106106 
L 396.2688 280.246323 
L 397.4592 284.496777 
L 398.0544 286.025152 
L 398.6496 288.110638 
L 399.2448 290.835776 
L 399.84 291.771426 
L 402.2208 297.245623 
L 402.816 298.185632 
L 404.0064 299.188123 
L 404.6016 300.265559 
L 405.1968 299.352436 
L 405.792 298.848858 
L 406.3872 296.930752 
L 406.9824 293.253822 
L 407.5776 287.147101 
L 408.1728 278.900229 
L 410.5536 236.659825 
L 411.1488 234.671868 
L 411.744 237.690468 
L 414.1248 258.866948 
L 414.72 262.626614 
L 414.72 262.626614 
" clip-path="url(#p38a1e24014)" style="fill: none; stroke: #0000cc; stroke-width: 1.5; stroke-linecap: square"/>
   </g>
   <g id="line2d_41">
    <path d="M 57.6 286.781352 
L 58.790405 288.645741 
L 59.385595 289.10226 
L 59.980809 288.870299 
L 60.576 287.882973 
L 61.171191 285.861901 
L 61.766405 282.502265 
L 62.361595 277.574702 
L 63.552 263.361403 
L 64.742405 248.662846 
L 65.337595 244.448058 
L 65.932809 243.31818 
L 66.528 244.779394 
L 67.123191 247.892926 
L 70.099191 267.359677 
L 71.289595 273.517488 
L 72.48 278.83966 
L 74.265595 285.588037 
L 76.051191 291.117258 
L 77.836809 295.62121 
L 79.027191 298.110257 
L 80.217595 300.174811 
L 81.408 301.69075 
L 82.003191 302.137502 
L 82.598405 302.257502 
L 83.193595 301.888554 
L 83.788809 300.773937 
L 84.384 298.525429 
L 84.979191 294.600387 
L 85.574405 288.346605 
L 86.169595 279.219451 
L 87.955191 241.851744 
L 88.550405 234.631975 
L 89.145595 233.820816 
L 89.740809 237.52117 
L 90.931191 248.849073 
L 91.526405 254.638921 
L 92.716809 263.014689 
L 93.312 266.465938 
L 94.502405 271.764428 
L 95.692809 275.742161 
L 96.288 277.257763 
L 96.883191 278.386665 
L 97.478405 279.09181 
L 98.073595 279.291423 
L 98.668809 278.888746 
L 99.264 277.776047 
L 99.859191 275.855323 
L 100.454405 273.073419 
L 101.644809 265.271561 
L 102.835191 256.78125 
L 103.430405 253.617896 
L 104.025595 251.779958 
L 104.620809 251.394895 
L 105.216 252.30051 
L 105.811191 254.158039 
L 107.001595 259.330468 
L 109.382405 270.072841 
L 110.572809 274.513766 
L 111.763191 278.034936 
L 112.358405 279.363206 
L 112.953595 280.331746 
L 113.548809 280.864116 
L 114.144 280.861797 
L 114.739191 280.204871 
L 115.334405 278.761185 
L 115.929595 276.411147 
L 116.524809 273.095568 
L 117.715191 264.063954 
L 118.905595 254.797114 
L 119.500809 251.676527 
L 120.096 250.173505 
L 120.691191 250.307045 
L 121.286405 251.775131 
L 121.881595 254.132374 
L 126.048 273.683616 
L 127.238405 277.854359 
L 128.428809 281.01254 
L 129.024 282.105758 
L 129.619191 282.78215 
L 130.214405 282.94027 
L 130.809595 282.449179 
L 131.404809 281.152313 
L 132 278.886607 
L 132.595191 275.528259 
L 133.190405 271.073335 
L 134.976 254.796071 
L 135.571191 250.80106 
L 136.166405 248.65492 
L 136.761595 248.477 
L 137.356809 249.940587 
L 137.952 252.491418 
L 142.118405 273.755564 
L 143.308809 278.377402 
L 144.499191 282.131752 
L 145.094405 283.622945 
L 145.689595 284.796399 
L 146.284809 285.579304 
L 146.88 285.867806 
L 147.475191 285.519563 
L 148.070405 284.350792 
L 148.665595 282.146971 
L 149.260809 278.702829 
L 149.856 273.910331 
L 151.046405 261.17879 
L 151.641595 254.671216 
L 152.236809 249.487155 
L 152.832 246.50073 
L 153.427191 245.980717 
L 154.022405 247.549625 
L 154.617595 250.466672 
L 157.593595 268.064328 
L 158.784 273.89416 
L 159.974405 278.953284 
L 161.164809 283.289027 
L 162.355191 286.875511 
L 163.545595 289.55968 
L 164.140809 290.44896 
L 164.736 290.920725 
L 165.331191 290.833626 
L 165.926405 289.985872 
L 166.521595 288.107017 
L 167.116809 284.872492 
L 167.712 279.972369 
L 168.307191 273.273361 
L 170.092809 248.623962 
L 170.688 243.481074 
L 171.283191 241.729894 
L 171.878405 243.095137 
L 172.473595 246.518523 
L 174.854405 263.344263 
L 176.044809 270.152574 
L 177.235191 275.959711 
L 178.425595 280.987865 
L 179.616 285.355618 
L 180.806405 289.130774 
L 181.996809 292.338682 
L 183.187191 294.9319 
L 183.782405 295.942935 
L 184.377595 296.698595 
L 184.972809 297.110374 
L 185.568 297.038317 
L 186.163191 296.268274 
L 186.758405 294.487681 
L 187.353595 291.274662 
L 187.948809 286.137317 
L 188.544 278.66937 
L 189.734405 257.691938 
L 190.329595 247.097579 
L 190.924809 239.68779 
L 191.52 237.153966 
L 192.115191 238.936308 
L 192.710405 243.016036 
L 194.496 258.202742 
L 195.686405 266.073469 
L 196.876809 272.194407 
L 198.067191 277.195914 
L 199.257595 281.179483 
L 199.852809 282.758188 
L 200.448 284.015042 
L 201.043191 284.882839 
L 201.638382 285.265788 
L 202.233618 285.031662 
L 202.828809 284.009067 
L 203.424 281.99563 
L 204.019191 278.794242 
L 204.614382 274.290845 
L 205.804809 262.111817 
L 206.995191 250.461607 
L 207.590382 247.226655 
L 208.185618 246.3665 
L 208.780809 247.606612 
L 209.376 250.275803 
L 212.947191 270.589215 
L 214.137618 276.027126 
L 215.328 280.713484 
L 216.518382 284.644201 
L 217.708809 287.709172 
L 218.304 288.829711 
L 218.899191 289.586154 
L 219.494382 289.868095 
L 220.089618 289.515737 
L 220.684809 288.309094 
L 221.28 285.969038 
L 221.875191 282.191299 
L 222.470382 276.746153 
L 223.660809 261.503234 
L 224.256 253.411126 
L 224.851191 246.916203 
L 225.446382 243.257432 
L 226.041618 242.794932 
L 226.636809 244.945822 
L 227.827191 252.851989 
L 229.612809 264.806567 
L 230.803191 271.359341 
L 231.993618 276.999367 
L 233.184 281.910483 
L 234.969618 288.139747 
L 236.755191 293.224641 
L 237.945618 296.073795 
L 239.136 298.534541 
L 240.326382 300.610952 
L 241.516809 302.232947 
L 242.112 302.805598 
L 242.707191 303.139076 
L 243.302382 303.120983 
L 243.897618 302.567979 
L 244.492809 301.190398 
L 245.088 298.553146 
L 245.683191 294.058607 
L 246.278382 287.019486 
L 246.873618 276.943806 
L 248.659191 238.903631 
L 249.254382 233.151448 
L 249.849618 233.924003 
L 250.444809 238.424776 
L 252.825618 259.938887 
L 253.420809 263.865331 
L 254.611191 269.620969 
L 255.801618 273.995835 
L 256.396809 275.650874 
L 256.992 276.964387 
L 257.587191 277.866184 
L 258.182382 278.313947 
L 258.777618 278.219766 
L 259.372809 277.492125 
L 259.968 276.038176 
L 260.563191 273.794624 
L 261.158382 270.765696 
L 263.539191 255.627315 
L 264.134382 253.278587 
L 264.729618 252.229989 
L 265.324809 252.467086 
L 265.92 253.760584 
L 266.515191 255.786074 
L 268.300809 263.545983 
L 270.086382 270.946464 
L 271.276809 274.980619 
L 272.467191 278.002977 
L 273.062382 279.023284 
L 273.657618 279.628974 
L 274.252809 279.731935 
L 274.848 279.22639 
L 275.443191 277.996931 
L 276.038382 275.939348 
L 276.633618 273.000036 
L 277.824 264.869499 
L 279.014382 256.211205 
L 279.609618 253.086412 
L 280.204809 251.363796 
L 280.8 251.138322 
L 281.395191 252.20888 
L 281.990382 254.208328 
L 283.180809 259.565153 
L 284.966382 267.914394 
L 286.156809 272.770292 
L 287.347191 276.803064 
L 288.537618 279.786327 
L 289.132809 280.768095 
L 289.728 281.313481 
L 290.323191 281.321858 
L 290.918382 280.669343 
L 291.513618 279.217357 
L 292.108809 276.837253 
L 292.704 273.459356 
L 293.894382 264.182081 
L 295.084809 254.586252 
L 295.68 251.345569 
L 296.275191 249.787215 
L 296.870382 249.930749 
L 297.465618 251.454843 
L 298.060809 253.888253 
L 302.227191 273.821699 
L 303.417618 278.082513 
L 304.608 281.360316 
L 305.203191 282.5328 
L 305.798382 283.306702 
L 306.393618 283.584302 
L 306.988809 283.236571 
L 307.584 282.104141 
L 308.179191 280.011717 
L 308.774382 276.807979 
L 309.369618 272.442522 
L 311.750382 251.038549 
L 312.345618 248.399343 
L 312.940809 247.844919 
L 313.536 249.100186 
L 314.131191 251.592311 
L 318.297618 273.407943 
L 319.488 278.201822 
L 320.678382 282.172952 
L 321.868809 285.158291 
L 322.464 286.170153 
L 323.059191 286.755762 
L 323.654382 286.79239 
L 324.249618 286.112964 
L 324.844809 284.505474 
L 325.44 281.732196 
L 326.035191 277.588918 
L 326.630382 272.02404 
L 328.416 251.73335 
L 329.011191 247.163272 
L 329.606382 245.162508 
L 330.201618 245.693267 
L 330.796809 248.107631 
L 331.987191 255.381545 
L 333.772809 266.284781 
L 334.963191 272.441825 
L 336.153618 277.792577 
L 337.344 282.433584 
L 338.534382 286.403776 
L 339.724809 289.673038 
L 340.915191 292.078347 
L 341.510382 292.83303 
L 342.105618 293.161362 
L 342.700809 292.90444 
L 343.296 291.831872 
L 343.891191 289.630434 
L 344.486382 285.920416 
L 345.081618 280.340782 
L 345.676809 272.754538 
L 347.462382 245.941456 
L 348.057618 241.067925 
L 348.652809 240.064916 
L 349.248 242.326735 
L 350.438382 251.217777 
L 351.628809 260.180555 
L 352.819191 267.560268 
L 354.009618 273.695671 
L 355.2 278.906098 
L 356.390382 283.333088 
L 357.580809 286.99107 
L 358.771191 289.755674 
L 359.366382 290.69876 
L 359.961618 291.240709 
L 360.556809 291.247547 
L 361.152 290.526302 
L 361.747191 288.815141 
L 362.342382 285.792605 
L 362.937618 281.13402 
L 363.532809 274.653277 
L 365.318382 249.477196 
L 365.913618 243.767923 
L 366.508809 241.566715 
L 367.104 242.580073 
L 367.699191 245.663007 
L 370.675191 266.337414 
L 371.865618 272.694011 
L 373.056 278.129572 
L 374.246382 282.829656 
L 375.436809 286.894311 
L 376.627191 290.361436 
L 377.817618 293.193128 
L 378.412809 294.323104 
L 379.008 295.205984 
L 379.603191 295.76492 
L 380.198382 295.878321 
L 380.793618 295.359727 
L 381.388809 293.934716 
L 381.984 291.225983 
L 382.579191 286.775974 
L 383.174382 280.164735 
L 384.364809 260.802194 
L 384.96 250.351572 
L 385.555191 242.216015 
L 386.150382 238.165046 
L 386.745618 238.477304 
L 387.340809 242.013919 
L 389.721618 261.229292 
L 390.912 268.355813 
L 392.102382 274.150632 
L 393.292809 278.930832 
L 394.483191 282.744623 
L 395.078382 284.24473 
L 395.673618 285.416472 
L 396.268809 286.187123 
L 396.864 286.451113 
L 397.459191 286.062111 
L 398.054382 284.830121 
L 398.649618 282.532639 
L 399.244809 278.955871 
L 399.84 273.985574 
L 401.030382 260.787007 
L 401.625618 254.06268 
L 402.220809 248.774379 
L 402.816 245.848202 
L 403.411191 245.48014 
L 404.006382 247.159753 
L 404.601618 250.156518 
L 407.577618 268.208955 
L 408.768 274.091756 
L 409.958382 279.191803 
L 411.148809 283.604411 
L 412.339191 287.351524 
L 413.529618 290.36422 
L 414.124809 291.528912 
L 414.72 292.393334 
L 414.72 292.393334 
" clip-path="url(#p38a1e24014)" style="fill: none; stroke-dasharray: 9.6,2.4,1.5,2.4; stroke-dashoffset: 0; stroke: #ff0000; stroke-width: 1.5"/>
   </g>
   <g id="patch_13">
    <path d="M 57.6 307.584 
L 57.6 229.315765 
" style="fill: none; stroke: #000000; stroke-width: 0.8; stroke-linejoin: miter; stroke-linecap: square"/>
   </g>
   <g id="patch_14">
    <path d="M 414.72 307.584 
L 414.72 229.315765 
" style="fill: none; stroke: #000000; stroke-width: 0.8; stroke-linejoin: miter; stroke-linecap: square"/>
   </g>
   <g id="patch_15">
    <path d="M 57.6 307.584 
L 414.72 307.584 
" style="fill: none; stroke: #000000; stroke-width: 0.8; stroke-linejoin: miter; stroke-linecap: square"/>
   </g>
   <g id="patch_16">
    <path d="M 57.6 229.315765 
L 414.72 229.315765 
" style="fill: none; stroke: #000000; stroke-width: 0.8; stroke-linejoin: miter; stroke-linecap: square"/>
   </g>
  </g>
 </g>
 <defs>
  <clipPath id="p42ecfbfa68">
   <rect x="57.6" y="41.472" width="357.12" height="78.268235"/>
  </clipPath>
  <clipPath id="pdd405d2c6a">
   <rect x="57.6" y="135.393882" width="357.12" height="78.268235"/>
  </clipPath>
  <clipPath id="p38a1e24014">
   <rect x="57.6" y="229.315765" width="357.12" height="78.268235"/>
  </clipPath>
 </defs>
</svg>
