<?xml version="1.0" encoding="utf-8" standalone="no"?>
<!DOCTYPE svg PUBLIC "-//W3C//DTD SVG 1.1//EN"
  "http://www.w3.org/Graphics/SVG/1.1/DTD/svg11.dtd">
<svg xmlns:xlink="http://www.w3.org/1999/xlink" width="460.8pt" height="345.6pt" viewBox="0 0 460.8 345.6" xmlns="http://www.w3.org/2000/svg" version="1.1">
 <metadata>
  <rdf:RDF xmlns:dc="http://purl.org/dc/elements/1.1/" xmlns:cc="http://creativecommons.org/ns#" xmlns:rdf="http://www.w3.org/1999/02/22-rdf-syntax-ns#">
   <cc:Work>
    <dc:type rdf:resource="http://purl.org/dc/dcmitype/StillImage"/>
    <dc:date>2023-11-13T18:22:57.474901</dc:date>
    <dc:format>image/svg+xml</dc:format>
    <dc:creator>
     <cc:Agent>
      <dc:title>Matplotlib v3.5.2, https://matplotlib.org/</dc:title>
     </cc:Agent>
    </dc:creator>
   </cc:Work>
  </rdf:RDF>
 </metadata>
 <defs>
  <style type="text/css">*{stroke-linejoin: round; stroke-linecap: butt}</style>
 </defs>
 <g id="figure_1">
  <g id="patch_1">
   <path d="M 0 345.6 
L 460.8 345.6 
L 460.8 0 
L 0 0 
z
" style="fill: #ffffff"/>
  </g>
  <g id="axes_1">
   <g id="patch_2">
    <path d="M 57.6 119.740235 
L 414.72 119.740235 
L 414.72 41.472 
L 57.6 41.472 
z
" style="fill: #ffffff"/>
   </g>
   <g id="matplotlib.axis_1">
    <g id="xtick_1">
     <g id="line2d_1">
      <defs>
       <path id="m97c9c67c4e" d="M 0 0 
L 0 3.5 
" style="stroke: #000000; stroke-width: 0.8"/>
      </defs>
      <g>
       <use xlink:href="#m97c9c67c4e" x="73.832727" y="119.740235" style="stroke: #000000; stroke-width: 0.8"/>
      </g>
     </g>
    </g>
    <g id="xtick_2">
     <g id="line2d_2">
      <g>
       <use xlink:href="#m97c9c67c4e" x="127.959861" y="119.740235" style="stroke: #000000; stroke-width: 0.8"/>
      </g>
     </g>
    </g>
    <g id="xtick_3">
     <g id="line2d_3">
      <g>
       <use xlink:href="#m97c9c67c4e" x="182.086994" y="119.740235" style="stroke: #000000; stroke-width: 0.8"/>
      </g>
     </g>
    </g>
    <g id="xtick_4">
     <g id="line2d_4">
      <g>
       <use xlink:href="#m97c9c67c4e" x="236.214127" y="119.740235" style="stroke: #000000; stroke-width: 0.8"/>
      </g>
     </g>
    </g>
    <g id="xtick_5">
     <g id="line2d_5">
      <g>
       <use xlink:href="#m97c9c67c4e" x="290.34126" y="119.740235" style="stroke: #000000; stroke-width: 0.8"/>
      </g>
     </g>
    </g>
    <g id="xtick_6">
     <g id="line2d_6">
      <g>
       <use xlink:href="#m97c9c67c4e" x="344.468394" y="119.740235" style="stroke: #000000; stroke-width: 0.8"/>
      </g>
     </g>
    </g>
    <g id="xtick_7">
     <g id="line2d_7">
      <g>
       <use xlink:href="#m97c9c67c4e" x="398.595527" y="119.740235" style="stroke: #000000; stroke-width: 0.8"/>
      </g>
     </g>
    </g>
   </g>
   <g id="matplotlib.axis_2">
    <g id="ytick_1">
     <g id="line2d_8">
      <defs>
       <path id="m102979d9a1" d="M 0 0 
L -3.5 0 
" style="stroke: #000000; stroke-width: 0.8"/>
      </defs>
      <g>
       <use xlink:href="#m102979d9a1" x="57.6" y="105.100788" style="stroke: #000000; stroke-width: 0.8"/>
      </g>
     </g>
     <g id="text_1">
      <!-- −2 -->
      <g transform="translate(35.857813 108.900006)scale(0.1 -0.1)">
       <defs>
        <path id="DejaVuSans-2212" d="M 678 2272 
L 4684 2272 
L 4684 1741 
L 678 1741 
L 678 2272 
z
" transform="scale(0.015625)"/>
        <path id="DejaVuSans-32" d="M 1228 531 
L 3431 531 
L 3431 0 
L 469 0 
L 469 531 
Q 828 903 1448 1529 
Q 2069 2156 2228 2338 
Q 2531 2678 2651 2914 
Q 2772 3150 2772 3378 
Q 2772 3750 2511 3984 
Q 2250 4219 1831 4219 
Q 1534 4219 1204 4116 
Q 875 4013 500 3803 
L 500 4441 
Q 881 4594 1212 4672 
Q 1544 4750 1819 4750 
Q 2544 4750 2975 4387 
Q 3406 4025 3406 3419 
Q 3406 3131 3298 2873 
Q 3191 2616 2906 2266 
Q 2828 2175 2409 1742 
Q 1991 1309 1228 531 
z
" transform="scale(0.015625)"/>
       </defs>
       <use xlink:href="#DejaVuSans-2212"/>
       <use xlink:href="#DejaVuSans-32" x="83.789062"/>
      </g>
     </g>
    </g>
    <g id="ytick_2">
     <g id="line2d_9">
      <g>
       <use xlink:href="#m102979d9a1" x="57.6" y="75.742178" style="stroke: #000000; stroke-width: 0.8"/>
      </g>
     </g>
     <g id="text_2">
      <!-- 0 -->
      <g transform="translate(44.2375 79.541396)scale(0.1 -0.1)">
       <defs>
        <path id="DejaVuSans-30" d="M 2034 4250 
Q 1547 4250 1301 3770 
Q 1056 3291 1056 2328 
Q 1056 1369 1301 889 
Q 1547 409 2034 409 
Q 2525 409 2770 889 
Q 3016 1369 3016 2328 
Q 3016 3291 2770 3770 
Q 2525 4250 2034 4250 
z
M 2034 4750 
Q 2819 4750 3233 4129 
Q 3647 3509 3647 2328 
Q 3647 1150 3233 529 
Q 2819 -91 2034 -91 
Q 1250 -91 836 529 
Q 422 1150 422 2328 
Q 422 3509 836 4129 
Q 1250 4750 2034 4750 
z
" transform="scale(0.015625)"/>
       </defs>
       <use xlink:href="#DejaVuSans-30"/>
      </g>
     </g>
    </g>
    <g id="ytick_3">
     <g id="line2d_10">
      <g>
       <use xlink:href="#m102979d9a1" x="57.6" y="46.383568" style="stroke: #000000; stroke-width: 0.8"/>
      </g>
     </g>
     <g id="text_3">
      <!-- 2 -->
      <g transform="translate(44.2375 50.182786)scale(0.1 -0.1)">
       <use xlink:href="#DejaVuSans-32"/>
      </g>
     </g>
    </g>
   </g>
   <g id="line2d_11">
    <path d="M 73.832727 75.769656 
L 74.698761 75.580915 
L 75.781304 75.604298 
L 79.028932 75.875551 
L 81.410526 75.556974 
L 82.817831 75.647258 
L 84.116883 75.950937 
L 85.199425 76.22531 
L 85.848951 76.038341 
L 86.931494 75.405972 
L 87.797528 74.985329 
L 88.338799 74.922666 
L 88.771816 75.049654 
L 89.204833 75.379092 
L 89.63785 75.952528 
L 90.612139 77.543497 
L 90.936901 77.537502 
L 91.261664 77.270532 
L 91.694681 76.611721 
L 92.66897 74.553297 
L 93.42675 73.225716 
L 93.859767 72.898579 
L 94.184529 72.967428 
L 94.509292 73.37188 
L 94.834055 74.171591 
L 95.267072 75.955834 
L 96.024852 79.650854 
L 96.349615 80.300119 
L 96.566123 80.438001 
L 96.782632 80.367003 
L 97.107395 79.91964 
L 97.540412 78.808766 
L 98.189937 76.417472 
L 99.597243 70.999696 
L 100.03026 70.024038 
L 100.355023 69.708952 
L 100.571531 69.740836 
L 100.78804 69.993513 
L 101.112802 70.805552 
L 101.654074 73.024016 
L 102.628362 78.398024 
L 103.494396 82.821606 
L 104.035668 84.536313 
L 104.36043 84.940812 
L 104.576939 84.888722 
L 104.793448 84.544721 
L 105.11821 83.416683 
L 105.442973 81.465469 
L 105.87599 77.410818 
L 107.066787 63.833273 
L 107.39155 62.957739 
L 107.499804 62.932565 
L 107.716313 63.238475 
L 108.041076 64.478614 
L 108.474093 67.28427 
L 109.231872 74.052522 
L 110.314415 83.485922 
L 110.747432 85.752578 
L 111.072195 86.453717 
L 111.180449 86.458285 
L 111.396958 86.079954 
L 111.613466 85.134005 
L 113.562043 73.220448 
L 114.211569 70.779655 
L 114.644586 69.769301 
L 114.969349 69.380145 
L 115.294111 69.336458 
L 115.618874 69.664807 
L 115.943637 70.391758 
L 116.376654 72.026988 
L 116.917925 75.229879 
L 117.675705 80.161234 
L 118.000468 81.098784 
L 118.325231 81.396036 
L 118.541739 81.289202 
L 118.866502 80.747524 
L 119.299519 79.473053 
L 120.165553 75.94366 
L 121.031587 72.729979 
L 121.464605 71.850147 
L 121.681113 71.698491 
L 121.897622 71.779583 
L 122.11413 72.123853 
L 122.438893 73.202178 
L 123.196673 76.320297 
L 123.62969 77.26004 
L 124.062707 77.683699 
L 124.38747 77.72309 
L 124.820487 77.484907 
L 125.361758 76.861001 
L 126.985572 74.695075 
L 127.418589 74.519308 
L 127.743352 74.619163 
L 128.284623 75.176695 
L 129.042403 75.781305 
L 129.800183 76.108274 
L 130.557963 76.210154 
L 131.532251 76.094971 
L 132.939557 75.65146 
L 134.022099 75.366357 
L 134.888134 75.449758 
L 136.620202 75.956495 
L 137.59449 76.09869 
L 138.35227 75.973087 
L 140.084338 75.427972 
L 141.058627 75.572874 
L 143.223712 76.017748 
L 143.981492 75.897507 
L 145.172289 75.554521 
L 146.146577 75.569674 
L 149.394205 75.848261 
L 150.909765 75.626795 
L 152.425325 75.716455 
L 154.482156 75.827074 
L 157.729784 75.72611 
L 160.219632 75.770704 
L 162.276463 75.705638 
L 166.065362 75.718445 
L 167.689176 75.709736 
L 171.045059 75.748058 
L 172.668873 75.674358 
L 176.457772 75.746297 
L 177.756823 75.619635 
L 179.272383 75.772808 
L 180.896197 75.893373 
L 181.870485 75.751358 
L 182.953028 75.53351 
L 183.927316 75.617244 
L 186.417165 75.970479 
L 187.174944 75.817027 
L 188.365741 75.448987 
L 189.123521 75.51393 
L 190.530827 75.917165 
L 191.613369 76.123273 
L 192.371149 76.0305 
L 193.020675 75.710369 
L 193.778455 75.380089 
L 194.644489 75.260962 
L 195.618777 75.386514 
L 196.809574 75.796551 
L 198.758151 76.56468 
L 199.191168 76.395474 
L 199.840694 75.865657 
L 201.139745 74.718442 
L 201.572762 74.578546 
L 202.005779 74.681929 
L 202.438796 75.10181 
L 202.871813 75.911402 
L 203.30483 77.183922 
L 204.170864 80.14325 
L 204.387373 80.083582 
L 204.603881 79.669706 
L 204.928644 78.498155 
L 205.469915 75.508965 
L 206.877221 66.980347 
L 207.310238 65.752023 
L 207.526746 65.630444 
L 207.743255 65.906378 
L 207.959764 66.631667 
L 208.284526 68.675548 
L 208.717543 73.457334 
L 209.258815 83.112677 
L 209.800086 90.873025 
L 210.233103 93.833382 
L 210.449612 94.358166 
L 210.557866 94.401713 
L 210.774374 94.07969 
L 211.099137 92.659592 
L 211.532154 89.256977 
L 212.18168 81.662117 
L 213.264223 65.409561 
L 214.45502 48.278575 
L 214.779782 45.325431 
L 214.888037 45.029647 
L 214.996291 45.075407 
L 215.212799 46.11657 
L 215.537562 49.771211 
L 215.970579 57.763415 
L 216.728359 76.959701 
L 217.919156 106.911647 
L 218.352173 113.614097 
L 218.676936 115.99364 
L 218.78519 116.182588 
L 218.893444 116.038175 
L 219.109953 114.674272 
L 219.434716 109.659519 
L 219.759479 100.632148 
L 220.950276 60.297366 
L 221.491547 51.202333 
L 221.924564 47.660663 
L 222.141072 46.995161 
L 222.249327 46.916558 
L 222.357581 46.998935 
L 222.57409 47.621274 
L 222.898852 49.603667 
L 223.331869 53.938546 
L 223.981395 63.24188 
L 225.063938 82.836153 
L 225.713463 93.754688 
L 226.038226 96.391264 
L 226.254735 97.074768 
L 226.362989 97.126293 
L 226.579497 96.702288 
L 226.90426 94.908829 
L 227.337277 90.8055 
L 228.095057 80.835244 
L 229.1776 66.787686 
L 229.610617 63.326248 
L 229.93538 62.174679 
L 230.043634 62.122924 
L 230.151888 62.255017 
L 230.368397 63.113468 
L 230.69316 66.052253 
L 231.450939 75.002345 
L 231.992211 78.527906 
L 232.425228 79.900697 
L 232.749991 80.2414 
L 232.966499 80.196054 
L 233.291262 79.793397 
L 233.724279 78.787441 
L 235.564602 73.820901 
L 235.78111 73.702601 
L 235.997619 73.786124 
L 236.322381 74.314715 
L 237.080161 75.519175 
L 237.729687 76.170671 
L 238.379212 76.517692 
L 239.028738 76.604084 
L 239.678264 76.473694 
L 240.544298 76.038406 
L 242.492875 74.887662 
L 243.034146 74.998668 
L 243.791926 75.402695 
L 245.523994 76.412612 
L 246.065265 76.466758 
L 246.606537 76.269889 
L 247.147808 75.763792 
L 247.689079 75.351275 
L 248.230351 75.199435 
L 248.879876 75.27172 
L 249.854165 75.672954 
L 251.044962 76.158028 
L 251.694487 76.196448 
L 252.235759 76.004449 
L 253.318301 75.433321 
L 253.967827 75.397562 
L 254.833861 75.578055 
L 256.674184 76.046208 
L 257.323709 75.985244 
L 257.973235 75.69117 
L 258.62276 75.476746 
L 259.38054 75.493062 
L 260.571337 75.813398 
L 261.762134 76.073745 
L 262.41166 76.019474 
L 263.061185 75.727509 
L 263.927219 75.239225 
L 264.468491 75.246767 
L 265.226271 75.532102 
L 267.066593 76.385597 
L 267.607864 76.363366 
L 268.149136 76.082968 
L 268.690407 75.469979 
L 269.123424 74.98991 
L 269.556441 74.798559 
L 269.989458 74.839307 
L 270.53073 75.130375 
L 271.505018 75.99227 
L 272.371052 76.682037 
L 272.912324 76.8658 
L 273.345341 76.785584 
L 273.778358 76.442053 
L 275.293917 74.736605 
L 275.835189 74.632819 
L 276.37646 74.748708 
L 277.025986 75.109359 
L 278.000274 75.928722 
L 279.624088 77.325765 
L 279.948851 77.366253 
L 280.273614 77.210689 
L 280.706631 76.765222 
L 281.464411 75.586759 
L 282.655207 73.74254 
L 283.088225 73.387378 
L 283.412987 73.321093 
L 283.73775 73.469012 
L 284.062513 73.869566 
L 284.49553 74.863051 
L 285.036801 76.919787 
L 285.469818 78.218486 
L 285.794581 78.697996 
L 286.119344 78.818834 
L 286.444107 78.638869 
L 286.877124 78.031017 
L 287.526649 76.609506 
L 288.825701 73.628889 
L 289.258718 73.097529 
L 289.583481 72.993186 
L 289.908243 73.205292 
L 290.233006 73.79266 
L 291.09904 75.858257 
L 291.748566 76.778424 
L 292.289837 77.176292 
L 292.831109 77.284637 
L 293.37238 77.146467 
L 294.021905 76.715819 
L 294.88794 75.814215 
L 296.295245 74.257317 
L 296.728262 74.25463 
L 297.161279 74.491047 
L 297.810805 75.146104 
L 299.434619 76.974522 
L 299.867636 77.173613 
L 300.300653 77.121654 
L 300.625416 76.877264 
L 301.058433 76.222549 
L 301.707958 75.070958 
L 302.140975 74.704995 
L 302.573993 74.607665 
L 303.00701 74.721219 
L 303.656535 75.160629 
L 305.388603 76.534605 
L 305.821621 76.611243 
L 306.254638 76.465639 
L 306.795909 75.945371 
L 307.445435 75.479464 
L 308.09496 75.294765 
L 308.85274 75.336796 
L 310.043537 75.694069 
L 311.234334 76.009892 
L 311.992114 75.982384 
L 313.940691 75.669145 
L 315.672759 75.613822 
L 317.296573 75.79099 
L 318.379115 75.895693 
L 319.786421 75.773499 
L 321.843252 75.591293 
L 322.81754 75.716837 
L 323.900083 75.868342 
L 325.307389 75.820114 
L 328.338508 75.632199 
L 332.45217 75.833205 
L 333.426459 75.575971 
L 334.184238 75.359062 
L 334.833764 75.434719 
L 335.808052 75.812274 
L 337.107104 76.288905 
L 337.756629 76.293012 
L 338.297901 76.080539 
L 338.839172 75.61069 
L 339.596952 74.847695 
L 340.029969 74.775497 
L 340.462986 74.921329 
L 341.112511 75.414907 
L 342.736325 76.835672 
L 343.169343 76.956573 
L 343.60236 76.851466 
L 344.035377 76.459105 
L 344.468394 75.718234 
L 345.009665 74.819624 
L 345.442682 74.451527 
L 345.875699 74.344565 
L 346.308716 74.451949 
L 346.849988 74.816325 
L 347.716022 75.715806 
L 349.015073 77.064303 
L 349.556344 77.367006 
L 349.989361 77.403136 
L 350.422378 77.151114 
L 350.96365 76.492228 
L 352.046192 74.663717 
L 352.803972 73.561831 
L 353.236989 73.203881 
L 353.561752 73.130592 
L 353.886515 73.264696 
L 354.211278 73.642287 
L 354.644295 74.586876 
L 355.077312 76.114043 
L 355.835092 79.046992 
L 356.159854 79.505209 
L 356.376363 79.56578 
L 356.592872 79.455743 
L 356.917634 79.018271 
L 357.458906 77.743544 
L 359.407482 72.373982 
L 359.732245 72.100826 
L 359.948754 72.1214 
L 360.165262 72.329434 
L 360.490025 73.040446 
L 361.789076 76.975339 
L 362.330348 77.682688 
L 362.763365 77.906501 
L 363.196382 77.873448 
L 363.629399 77.627087 
L 364.278924 76.952882 
L 365.253213 75.54705 
L 366.335756 74.012228 
L 366.660518 73.837776 
L 366.985281 73.860663 
L 367.418298 74.139891 
L 368.067824 74.929388 
L 369.799892 77.304912 
L 370.232909 77.527404 
L 370.557672 77.496283 
L 370.882435 77.258004 
L 371.315452 76.559788 
L 372.181486 74.735847 
L 372.614503 74.374622 
L 373.04752 74.328517 
L 373.480537 74.525945 
L 374.130063 75.122113 
L 375.645622 76.660514 
L 376.07864 76.815802 
L 376.511657 76.71351 
L 376.944674 76.282051 
L 377.594199 75.570531 
L 378.135471 75.269095 
L 378.784996 75.179029 
L 379.542776 75.334432 
L 382.032624 76.09014 
L 382.898658 75.902389 
L 384.630727 75.619547 
L 386.146286 75.590286 
L 387.553592 75.779088 
L 388.744389 75.930588 
L 390.04344 75.791794 
L 392.100271 75.552176 
L 392.966305 75.666611 
L 394.265356 75.918046 
L 395.456153 75.844558 
L 398.054256 75.588559 
L 398.487273 75.639722 
L 398.487273 75.639722 
" clip-path="url(#pd0a3c130d2)" style="fill: none; stroke: #0000cc; stroke-width: 1.5; stroke-linecap: square"/>
   </g>
   <g id="patch_3">
    <path d="M 57.6 119.740235 
L 57.6 41.472 
" style="fill: none; stroke: #000000; stroke-width: 0.8; stroke-linejoin: miter; stroke-linecap: square"/>
   </g>
   <g id="patch_4">
    <path d="M 414.72 119.740235 
L 414.72 41.472 
" style="fill: none; stroke: #000000; stroke-width: 0.8; stroke-linejoin: miter; stroke-linecap: square"/>
   </g>
   <g id="patch_5">
    <path d="M 57.6 119.740235 
L 414.72 119.740235 
" style="fill: none; stroke: #000000; stroke-width: 0.8; stroke-linejoin: miter; stroke-linecap: square"/>
   </g>
   <g id="patch_6">
    <path d="M 57.6 41.472 
L 414.72 41.472 
" style="fill: none; stroke: #000000; stroke-width: 0.8; stroke-linejoin: miter; stroke-linecap: square"/>
   </g>
  </g>
  <g id="axes_2">
   <g id="patch_7">
    <path d="M 57.6 213.662118 
L 414.72 213.662118 
L 414.72 135.393882 
L 57.6 135.393882 
z
" style="fill: #ffffff"/>
   </g>
   <g id="matplotlib.axis_3">
    <g id="xtick_8">
     <g id="line2d_12">
      <g>
       <use xlink:href="#m97c9c67c4e" x="73.832727" y="213.662118" style="stroke: #000000; stroke-width: 0.8"/>
      </g>
     </g>
    </g>
    <g id="xtick_9">
     <g id="line2d_13">
      <g>
       <use xlink:href="#m97c9c67c4e" x="127.959861" y="213.662118" style="stroke: #000000; stroke-width: 0.8"/>
      </g>
     </g>
    </g>
    <g id="xtick_10">
     <g id="line2d_14">
      <g>
       <use xlink:href="#m97c9c67c4e" x="182.086994" y="213.662118" style="stroke: #000000; stroke-width: 0.8"/>
      </g>
     </g>
    </g>
    <g id="xtick_11">
     <g id="line2d_15">
      <g>
       <use xlink:href="#m97c9c67c4e" x="236.214127" y="213.662118" style="stroke: #000000; stroke-width: 0.8"/>
      </g>
     </g>
    </g>
    <g id="xtick_12">
     <g id="line2d_16">
      <g>
       <use xlink:href="#m97c9c67c4e" x="290.34126" y="213.662118" style="stroke: #000000; stroke-width: 0.8"/>
      </g>
     </g>
    </g>
    <g id="xtick_13">
     <g id="line2d_17">
      <g>
       <use xlink:href="#m97c9c67c4e" x="344.468394" y="213.662118" style="stroke: #000000; stroke-width: 0.8"/>
      </g>
     </g>
    </g>
    <g id="xtick_14">
     <g id="line2d_18">
      <g>
       <use xlink:href="#m97c9c67c4e" x="398.595527" y="213.662118" style="stroke: #000000; stroke-width: 0.8"/>
      </g>
     </g>
    </g>
   </g>
   <g id="matplotlib.axis_4">
    <g id="ytick_4">
     <g id="line2d_19">
      <g>
       <use xlink:href="#m102979d9a1" x="57.6" y="211.919203" style="stroke: #000000; stroke-width: 0.8"/>
      </g>
     </g>
     <g id="text_4">
      <!-- −10 -->
      <g transform="translate(29.495313 215.718422)scale(0.1 -0.1)">
       <defs>
        <path id="DejaVuSans-31" d="M 794 531 
L 1825 531 
L 1825 4091 
L 703 3866 
L 703 4441 
L 1819 4666 
L 2450 4666 
L 2450 531 
L 3481 531 
L 3481 0 
L 794 0 
L 794 531 
z
" transform="scale(0.015625)"/>
       </defs>
       <use xlink:href="#DejaVuSans-2212"/>
       <use xlink:href="#DejaVuSans-31" x="83.789062"/>
       <use xlink:href="#DejaVuSans-30" x="147.412109"/>
      </g>
     </g>
    </g>
    <g id="ytick_5">
     <g id="line2d_20">
      <g>
       <use xlink:href="#m102979d9a1" x="57.6" y="172.866057" style="stroke: #000000; stroke-width: 0.8"/>
      </g>
     </g>
     <g id="text_5">
      <!-- 0 -->
      <g transform="translate(44.2375 176.665276)scale(0.1 -0.1)">
       <use xlink:href="#DejaVuSans-30"/>
      </g>
     </g>
    </g>
   </g>
   <g id="line2d_21">
    <path d="M 73.832727 172.882306 
L 76.647338 172.848004 
L 81.51878 172.818808 
L 83.03434 172.676499 
L 83.900374 172.823903 
L 84.5499 173.147503 
L 85.199425 173.475768 
L 85.740697 173.464394 
L 86.390222 173.200597 
L 88.447053 172.108484 
L 88.88007 172.164653 
L 89.313087 172.444937 
L 89.746104 173.011807 
L 90.720393 174.620716 
L 91.045156 174.724585 
L 91.369918 174.626256 
L 91.802936 174.243745 
L 92.452461 173.312268 
L 93.859767 171.196618 
L 94.292784 170.912138 
L 94.617546 170.920971 
L 94.942309 171.168089 
L 95.267072 171.697027 
L 96.566123 174.48266 
L 97.107395 175.094965 
L 97.648666 175.385897 
L 98.081683 175.371191 
L 98.5147 175.105515 
L 98.947717 174.544265 
L 99.380734 173.627463 
L 99.922006 171.864844 
L 100.463277 169.245301 
L 101.437565 163.765151 
L 101.654074 163.45539 
L 101.870582 163.51666 
L 102.087091 163.91321 
L 102.411854 165.055475 
L 102.953125 168.095448 
L 104.143922 176.895432 
L 104.793448 180.866584 
L 105.226465 182.389777 
L 105.442973 182.674765 
L 105.659482 182.580078 
L 105.87599 182.059498 
L 106.200753 180.377253 
L 107.175041 173.696285 
L 107.824567 170.729464 
L 108.474093 168.795255 
L 108.90711 168.046455 
L 109.231872 167.771695 
L 109.556635 167.75393 
L 109.881398 168.009686 
L 110.206161 168.561341 
L 110.639178 169.806495 
L 111.072195 171.71008 
L 111.613466 175.169891 
L 112.154738 178.669309 
L 112.4795 179.615452 
L 112.696009 179.820313 
L 112.912518 179.727783 
L 113.23728 179.112342 
L 113.670297 177.59468 
L 114.428077 173.829148 
L 115.51062 168.547707 
L 115.943637 167.249839 
L 116.2684 166.79961 
L 116.484908 166.798986 
L 116.701417 167.067614 
L 117.02618 168.029544 
L 117.892214 171.429166 
L 118.541739 172.962667 
L 119.083011 173.725057 
L 119.624282 174.130132 
L 120.165553 174.260883 
L 120.706825 174.180077 
L 121.35635 173.862842 
L 122.11413 173.232079 
L 123.196673 172.215203 
L 123.737944 172.12631 
L 124.279215 172.268181 
L 125.14525 172.769353 
L 126.444301 173.51166 
L 126.985572 173.59661 
L 127.526843 173.438655 
L 128.068115 172.978517 
L 128.609386 172.59902 
L 129.150657 172.454622 
L 129.800183 172.502365 
L 130.882726 172.859319 
L 132.181777 173.240477 
L 132.939557 173.2088 
L 135.104642 172.732202 
L 136.83671 172.91444 
L 138.35227 172.977475 
L 141.491644 172.858602 
L 145.71356 172.871439 
L 179.813654 172.913732 
L 181.545723 172.916706 
L 183.819062 172.804747 
L 186.850182 172.939782 
L 189.34003 172.732817 
L 194.103217 173.055671 
L 197.134337 172.597896 
L 197.783862 172.866545 
L 198.325134 173.350381 
L 198.758151 173.660903 
L 199.082914 173.666006 
L 199.515931 173.429111 
L 200.165456 172.721784 
L 201.356253 171.326203 
L 201.78927 171.158507 
L 202.114033 171.279059 
L 202.438796 171.678558 
L 202.763559 172.422268 
L 203.196576 174.069763 
L 203.629593 176.631624 
L 204.170864 179.919525 
L 204.495627 180.733999 
L 204.712136 180.836204 
L 204.928644 180.623696 
L 205.253407 179.787579 
L 205.686424 177.885843 
L 206.444204 173.184085 
L 207.635001 165.603972 
L 208.068018 163.843281 
L 208.392781 163.182844 
L 208.609289 163.132616 
L 208.825798 163.441997 
L 209.15056 164.670134 
L 209.90834 169.35284 
L 211.207392 179.363482 
L 211.965171 184.379511 
L 212.398188 186.003743 
L 212.614697 186.277481 
L 212.722951 186.249189 
L 212.93946 185.815318 
L 213.155968 184.812449 
L 213.480731 182.058444 
L 213.913748 175.584099 
L 214.346765 165.203446 
L 215.104545 144.358838 
L 215.429308 140.276665 
L 215.645816 139.109904 
L 215.754071 138.951529 
L 215.862325 139.058041 
L 216.078834 140.010325 
L 216.403596 143.079438 
L 216.836613 149.65653 
L 217.594393 165.574886 
L 219.109953 198.792334 
L 219.651224 206.525423 
L 220.084241 209.849409 
L 220.30075 210.092348 
L 220.517258 209.317012 
L 220.842021 206.456043 
L 221.275038 200.000801 
L 221.924564 186.388161 
L 223.548378 150.035477 
L 223.981395 144.208085 
L 224.306158 141.942605 
L 224.522666 141.624423 
L 224.630921 141.859573 
L 224.847429 143.177391 
L 225.172192 147.443674 
L 226.471243 170.696798 
L 227.012514 175.713333 
L 227.553786 178.639486 
L 227.986803 179.812508 
L 228.311566 180.152435 
L 228.528074 180.164451 
L 228.852837 179.908003 
L 229.285854 179.134197 
L 229.827125 177.59823 
L 230.476651 175.043173 
L 231.342685 171.434553 
L 231.775702 170.692316 
L 232.100465 170.551007 
L 232.425228 170.692481 
L 232.858245 171.211544 
L 233.616025 172.627507 
L 234.590313 174.396095 
L 235.02333 174.827146 
L 235.348093 174.905923 
L 235.672856 174.724088 
L 235.997619 174.237577 
L 236.971907 172.319621 
L 237.404924 172.021032 
L 237.837941 171.987598 
L 238.379212 172.207031 
L 239.353501 172.9455 
L 240.219535 173.525718 
L 240.760806 173.667999 
L 241.193823 173.592325 
L 241.62684 173.308055 
L 242.276366 172.867937 
L 242.925892 172.684081 
L 243.791926 172.692069 
L 246.9313 172.982983 
L 248.338605 172.839176 
L 254.076081 172.861466 
L 257.215455 172.870086 
L 259.38054 172.762647 
L 262.41166 172.992973 
L 263.16944 172.773299 
L 263.927219 172.527218 
L 264.684999 172.543057 
L 265.767542 172.834224 
L 267.174847 173.214915 
L 267.932627 173.183559 
L 268.582153 172.902199 
L 269.339933 172.484619 
L 269.989458 172.381109 
L 270.747238 172.477586 
L 271.938035 172.885258 
L 273.561849 173.426081 
L 274.427883 173.484634 
L 275.185663 173.260077 
L 276.37646 172.589863 
L 277.350748 172.120554 
L 277.89202 172.057002 
L 278.325037 172.180485 
L 278.758054 172.511075 
L 279.191071 173.100581 
L 280.165359 174.693616 
L 280.490122 174.813267 
L 280.814885 174.739637 
L 281.247902 174.398236 
L 281.897428 173.529132 
L 283.412987 171.295109 
L 283.846004 170.98642 
L 284.170767 170.949156 
L 284.49553 171.118124 
L 284.820293 171.529331 
L 285.686327 172.898563 
L 286.335853 173.479762 
L 286.985378 173.754137 
L 287.634904 173.782378 
L 288.392684 173.558753 
L 289.150463 173.08951 
L 289.908243 172.373145 
L 290.882532 171.384684 
L 291.315549 171.361406 
L 291.748566 171.574603 
L 292.398091 172.199639 
L 294.238414 174.198946 
L 294.671431 174.342596 
L 295.104448 174.232508 
L 295.537465 173.809119 
L 296.511754 172.496186 
L 297.053025 172.23247 
L 297.594296 172.223727 
L 298.352076 172.484705 
L 300.408907 173.363848 
L 301.058433 173.320634 
L 302.898755 172.858263 
L 304.522569 172.693032 
L 305.821621 172.754397 
L 308.203214 173.025203 
L 311.667351 172.741835 
L 313.399419 172.987907 
L 315.023233 172.850239 
L 316.755301 172.754883 
L 320.760709 172.8556 
L 323.467066 172.835338 
L 327.688982 172.846633 
L 329.637559 172.748131 
L 332.885187 172.967251 
L 333.642967 172.705182 
L 334.292493 172.503119 
L 335.050273 172.532605 
L 336.132815 172.861862 
L 337.431866 173.250973 
L 338.081392 173.247008 
L 338.622663 173.053599 
L 340.138223 172.232841 
L 340.787749 172.312295 
L 341.653783 172.671979 
L 343.385851 173.463797 
L 344.035377 173.521293 
L 344.684902 173.335242 
L 347.824276 172.127258 
L 348.365547 172.2479 
L 348.906819 172.623762 
L 349.44809 173.339207 
L 350.530633 175.160699 
L 350.855395 175.224818 
L 351.180158 175.067693 
L 351.613175 174.581712 
L 352.262701 173.456858 
L 353.670006 170.9016 
L 354.103023 170.516832 
L 354.427786 170.471926 
L 354.752549 170.68778 
L 355.077312 171.21112 
L 356.159854 173.556086 
L 356.701126 174.082883 
L 357.134143 174.247095 
L 357.675414 174.19803 
L 358.32494 173.857071 
L 359.190974 173.081654 
L 360.381771 171.679167 
L 361.139551 170.881172 
L 361.464314 170.843564 
L 361.897331 171.058622 
L 362.438602 171.649114 
L 363.41289 173.159325 
L 364.278924 174.373669 
L 364.820196 174.778209 
L 365.144959 174.812154 
L 365.469721 174.650043 
L 365.794484 174.260167 
L 367.093535 172.148387 
L 367.526552 171.967018 
L 368.067824 172.020154 
L 368.717349 172.352038 
L 370.665926 173.525634 
L 371.207198 173.544583 
L 371.856723 173.291378 
L 373.155774 172.876665 
L 374.56308 172.655717 
L 375.862131 172.669306 
L 376.836419 172.883994 
L 377.702454 173.089724 
L 378.676742 173.050659 
L 381.816116 172.669242 
L 384.19771 172.991965 
L 387.661846 172.792918 
L 388.960897 172.934663 
L 390.909474 172.855324 
L 393.074559 172.818138 
L 395.780916 172.88847 
L 398.487273 172.807293 
L 398.487273 172.807293 
" clip-path="url(#pa8844ba7e0)" style="fill: none; stroke: #0000cc; stroke-width: 1.5; stroke-linecap: square"/>
   </g>
   <g id="patch_8">
    <path d="M 57.6 213.662118 
L 57.6 135.393882 
" style="fill: none; stroke: #000000; stroke-width: 0.8; stroke-linejoin: miter; stroke-linecap: square"/>
   </g>
   <g id="patch_9">
    <path d="M 414.72 213.662118 
L 414.72 135.393882 
" style="fill: none; stroke: #000000; stroke-width: 0.8; stroke-linejoin: miter; stroke-linecap: square"/>
   </g>
   <g id="patch_10">
    <path d="M 57.6 213.662118 
L 414.72 213.662118 
" style="fill: none; stroke: #000000; stroke-width: 0.8; stroke-linejoin: miter; stroke-linecap: square"/>
   </g>
   <g id="patch_11">
    <path d="M 57.6 135.393882 
L 414.72 135.393882 
" style="fill: none; stroke: #000000; stroke-width: 0.8; stroke-linejoin: miter; stroke-linecap: square"/>
   </g>
  </g>
  <g id="axes_3">
   <g id="patch_12">
    <path d="M 57.6 307.584 
L 414.72 307.584 
L 414.72 229.315765 
L 57.6 229.315765 
z
" style="fill: #ffffff"/>
   </g>
   <g id="matplotlib.axis_5">
    <g id="xtick_15">
     <g id="line2d_22">
      <g>
       <use xlink:href="#m97c9c67c4e" x="73.832727" y="307.584" style="stroke: #000000; stroke-width: 0.8"/>
      </g>
     </g>
     <g id="text_6">
      <!-- 10.0 -->
      <g transform="translate(62.699915 322.182437)scale(0.1 -0.1)">
       <defs>
        <path id="DejaVuSans-2e" d="M 684 794 
L 1344 794 
L 1344 0 
L 684 0 
L 684 794 
z
" transform="scale(0.015625)"/>
       </defs>
       <use xlink:href="#DejaVuSans-31"/>
       <use xlink:href="#DejaVuSans-30" x="63.623047"/>
       <use xlink:href="#DejaVuSans-2e" x="127.246094"/>
       <use xlink:href="#DejaVuSans-30" x="159.033203"/>
      </g>
     </g>
    </g>
    <g id="xtick_16">
     <g id="line2d_23">
      <g>
       <use xlink:href="#m97c9c67c4e" x="127.959861" y="307.584" style="stroke: #000000; stroke-width: 0.8"/>
      </g>
     </g>
     <g id="text_7">
      <!-- 10.5 -->
      <g transform="translate(116.827048 322.182437)scale(0.1 -0.1)">
       <defs>
        <path id="DejaVuSans-35" d="M 691 4666 
L 3169 4666 
L 3169 4134 
L 1269 4134 
L 1269 2991 
Q 1406 3038 1543 3061 
Q 1681 3084 1819 3084 
Q 2600 3084 3056 2656 
Q 3513 2228 3513 1497 
Q 3513 744 3044 326 
Q 2575 -91 1722 -91 
Q 1428 -91 1123 -41 
Q 819 9 494 109 
L 494 744 
Q 775 591 1075 516 
Q 1375 441 1709 441 
Q 2250 441 2565 725 
Q 2881 1009 2881 1497 
Q 2881 1984 2565 2268 
Q 2250 2553 1709 2553 
Q 1456 2553 1204 2497 
Q 953 2441 691 2322 
L 691 4666 
z
" transform="scale(0.015625)"/>
       </defs>
       <use xlink:href="#DejaVuSans-31"/>
       <use xlink:href="#DejaVuSans-30" x="63.623047"/>
       <use xlink:href="#DejaVuSans-2e" x="127.246094"/>
       <use xlink:href="#DejaVuSans-35" x="159.033203"/>
      </g>
     </g>
    </g>
    <g id="xtick_17">
     <g id="line2d_24">
      <g>
       <use xlink:href="#m97c9c67c4e" x="182.086994" y="307.584" style="stroke: #000000; stroke-width: 0.8"/>
      </g>
     </g>
     <g id="text_8">
      <!-- 11.0 -->
      <g transform="translate(170.954181 322.182437)scale(0.1 -0.1)">
       <use xlink:href="#DejaVuSans-31"/>
       <use xlink:href="#DejaVuSans-31" x="63.623047"/>
       <use xlink:href="#DejaVuSans-2e" x="127.246094"/>
       <use xlink:href="#DejaVuSans-30" x="159.033203"/>
      </g>
     </g>
    </g>
    <g id="xtick_18">
     <g id="line2d_25">
      <g>
       <use xlink:href="#m97c9c67c4e" x="236.214127" y="307.584" style="stroke: #000000; stroke-width: 0.8"/>
      </g>
     </g>
     <g id="text_9">
      <!-- 11.5 -->
      <g transform="translate(225.081315 322.182437)scale(0.1 -0.1)">
       <use xlink:href="#DejaVuSans-31"/>
       <use xlink:href="#DejaVuSans-31" x="63.623047"/>
       <use xlink:href="#DejaVuSans-2e" x="127.246094"/>
       <use xlink:href="#DejaVuSans-35" x="159.033203"/>
      </g>
     </g>
    </g>
    <g id="xtick_19">
     <g id="line2d_26">
      <g>
       <use xlink:href="#m97c9c67c4e" x="290.34126" y="307.584" style="stroke: #000000; stroke-width: 0.8"/>
      </g>
     </g>
     <g id="text_10">
      <!-- 12.0 -->
      <g transform="translate(279.208448 322.182437)scale(0.1 -0.1)">
       <use xlink:href="#DejaVuSans-31"/>
       <use xlink:href="#DejaVuSans-32" x="63.623047"/>
       <use xlink:href="#DejaVuSans-2e" x="127.246094"/>
       <use xlink:href="#DejaVuSans-30" x="159.033203"/>
      </g>
     </g>
    </g>
    <g id="xtick_20">
     <g id="line2d_27">
      <g>
       <use xlink:href="#m97c9c67c4e" x="344.468394" y="307.584" style="stroke: #000000; stroke-width: 0.8"/>
      </g>
     </g>
     <g id="text_11">
      <!-- 12.5 -->
      <g transform="translate(333.335581 322.182437)scale(0.1 -0.1)">
       <use xlink:href="#DejaVuSans-31"/>
       <use xlink:href="#DejaVuSans-32" x="63.623047"/>
       <use xlink:href="#DejaVuSans-2e" x="127.246094"/>
       <use xlink:href="#DejaVuSans-35" x="159.033203"/>
      </g>
     </g>
    </g>
    <g id="xtick_21">
     <g id="line2d_28">
      <g>
       <use xlink:href="#m97c9c67c4e" x="398.595527" y="307.584" style="stroke: #000000; stroke-width: 0.8"/>
      </g>
     </g>
     <g id="text_12">
      <!-- 13.0 -->
      <g transform="translate(387.462714 322.182437)scale(0.1 -0.1)">
       <defs>
        <path id="DejaVuSans-33" d="M 2597 2516 
Q 3050 2419 3304 2112 
Q 3559 1806 3559 1356 
Q 3559 666 3084 287 
Q 2609 -91 1734 -91 
Q 1441 -91 1130 -33 
Q 819 25 488 141 
L 488 750 
Q 750 597 1062 519 
Q 1375 441 1716 441 
Q 2309 441 2620 675 
Q 2931 909 2931 1356 
Q 2931 1769 2642 2001 
Q 2353 2234 1838 2234 
L 1294 2234 
L 1294 2753 
L 1863 2753 
Q 2328 2753 2575 2939 
Q 2822 3125 2822 3475 
Q 2822 3834 2567 4026 
Q 2313 4219 1838 4219 
Q 1578 4219 1281 4162 
Q 984 4106 628 3988 
L 628 4550 
Q 988 4650 1302 4700 
Q 1616 4750 1894 4750 
Q 2613 4750 3031 4423 
Q 3450 4097 3450 3541 
Q 3450 3153 3228 2886 
Q 3006 2619 2597 2516 
z
" transform="scale(0.015625)"/>
       </defs>
       <use xlink:href="#DejaVuSans-31"/>
       <use xlink:href="#DejaVuSans-33" x="63.623047"/>
       <use xlink:href="#DejaVuSans-2e" x="127.246094"/>
       <use xlink:href="#DejaVuSans-30" x="159.033203"/>
      </g>
     </g>
    </g>
   </g>
   <g id="matplotlib.axis_6">
    <g id="ytick_6">
     <g id="line2d_29">
      <g>
       <use xlink:href="#m102979d9a1" x="57.6" y="290.626743" style="stroke: #000000; stroke-width: 0.8"/>
      </g>
     </g>
     <g id="text_13">
      <!-- −5 -->
      <g transform="translate(35.857813 294.425962)scale(0.1 -0.1)">
       <use xlink:href="#DejaVuSans-2212"/>
       <use xlink:href="#DejaVuSans-35" x="83.789062"/>
      </g>
     </g>
    </g>
    <g id="ytick_7">
     <g id="line2d_30">
      <g>
       <use xlink:href="#m102979d9a1" x="57.6" y="268.840328" style="stroke: #000000; stroke-width: 0.8"/>
      </g>
     </g>
     <g id="text_14">
      <!-- 0 -->
      <g transform="translate(44.2375 272.639547)scale(0.1 -0.1)">
       <use xlink:href="#DejaVuSans-30"/>
      </g>
     </g>
    </g>
    <g id="ytick_8">
     <g id="line2d_31">
      <g>
       <use xlink:href="#m102979d9a1" x="57.6" y="247.053914" style="stroke: #000000; stroke-width: 0.8"/>
      </g>
     </g>
     <g id="text_15">
      <!-- 5 -->
      <g transform="translate(44.2375 250.853132)scale(0.1 -0.1)">
       <use xlink:href="#DejaVuSans-35"/>
      </g>
     </g>
    </g>
   </g>
   <g id="line2d_32">
    <path d="M 73.832727 268.901922 
L 74.698761 269.015675 
L 75.889558 268.916281 
L 78.054644 268.659806 
L 78.920678 268.824384 
L 80.219729 269.211832 
L 81.085763 269.101922 
L 83.79212 268.496498 
L 84.441645 268.718689 
L 85.524188 269.268074 
L 86.281968 269.311397 
L 87.148002 269.120958 
L 89.962613 268.308221 
L 90.503884 268.414619 
L 91.15341 268.810619 
L 93.101987 270.257999 
L 93.535004 270.249365 
L 93.968021 269.962399 
L 94.401038 269.311161 
L 94.834055 268.202693 
L 95.375326 266.019301 
L 95.916598 263.788277 
L 96.24136 263.315416 
L 96.457869 263.326563 
L 96.674378 263.568745 
L 96.99914 264.306623 
L 97.540412 266.302619 
L 99.488988 274.627928 
L 99.813751 275.087275 
L 100.03026 275.084604 
L 100.246768 274.794557 
L 100.571531 273.744956 
L 101.004548 271.095137 
L 101.654074 267.402541 
L 102.195345 265.352082 
L 102.736616 264.11906 
L 103.169634 263.676281 
L 103.494396 263.651297 
L 103.819159 263.890695 
L 104.143922 264.402313 
L 104.576939 265.533716 
L 105.11821 267.74806 
L 105.659482 270.995951 
L 106.309007 276.555916 
L 106.742024 279.69798 
L 107.066787 280.559343 
L 107.283296 280.52016 
L 107.499804 280.052253 
L 107.824567 278.663536 
L 108.365838 274.964178 
L 110.422669 258.642158 
L 110.747432 257.615162 
L 110.963941 257.402542 
L 111.180449 257.618588 
L 111.396958 258.305514 
L 111.721721 260.307598 
L 112.4795 265.430899 
L 113.129026 268.507612 
L 113.778552 270.643614 
L 114.319823 271.816036 
L 114.861094 272.474612 
L 115.294111 272.625061 
L 115.618874 272.502769 
L 115.943637 272.160484 
L 116.376654 271.323185 
L 116.809671 269.990149 
L 117.78396 266.529303 
L 118.108722 266.135624 
L 118.433485 266.087676 
L 118.758248 266.321116 
L 119.191265 266.961767 
L 119.949045 268.58752 
L 120.923333 270.61138 
L 121.35635 271.146958 
L 121.681113 271.299883 
L 122.005876 271.188711 
L 122.330639 270.769937 
L 123.413181 268.769793 
L 123.954453 268.366671 
L 124.495724 268.25665 
L 125.14525 268.376979 
L 127.635098 269.131592 
L 131.640506 268.780811 
L 141.275135 268.851708 
L 149.394205 268.834606 
L 162.70948 268.840548 
L 177.215552 268.878607 
L 179.7054 268.811292 
L 181.653977 268.842202 
L 183.494299 268.948766 
L 186.958436 268.789131 
L 188.690504 269.108829 
L 189.664793 268.889421 
L 191.288607 268.500398 
L 191.938132 268.580164 
L 192.479403 268.85775 
L 193.778455 269.785578 
L 194.319726 269.701777 
L 194.969252 269.319953 
L 196.917828 267.929048 
L 197.350845 267.932834 
L 197.783862 268.190418 
L 198.21688 268.775346 
L 198.866405 269.781323 
L 199.299422 270.04439 
L 199.732439 270.03472 
L 200.273711 269.730855 
L 201.03149 268.980217 
L 202.222287 267.81488 
L 202.763559 267.621101 
L 203.196576 267.751575 
L 203.629593 268.215927 
L 204.06261 269.056123 
L 204.82039 271.131794 
L 206.011187 274.401779 
L 206.444204 274.983956 
L 206.660712 275.03801 
L 206.877221 274.892233 
L 207.201984 274.224931 
L 207.526746 272.911106 
L 207.959764 269.927521 
L 208.392781 265.228637 
L 208.934052 256.387785 
L 209.583578 244.358413 
L 209.90834 241.835529 
L 210.124849 241.446566 
L 210.233103 241.608085 
L 210.449612 242.588422 
L 210.774374 245.533734 
L 211.207392 251.728564 
L 211.965171 266.653652 
L 213.372477 295.284922 
L 213.913748 301.971529 
L 214.238511 303.831625 
L 214.346765 304.026353 
L 214.45502 303.990071 
L 214.671528 303.215958 
L 214.996291 300.578181 
L 215.429308 294.689438 
L 216.078834 281.937888 
L 218.135665 237.327828 
L 218.568682 233.359003 
L 218.78519 232.873412 
L 218.893444 233.064699 
L 219.109953 234.401618 
L 219.434716 239.054257 
L 219.759479 247.305701 
L 220.733767 277.106299 
L 221.166784 283.435284 
L 221.491547 285.870834 
L 221.708055 286.584057 
L 221.924564 286.678112 
L 222.141072 286.240002 
L 222.465835 284.760467 
L 223.007107 280.692313 
L 223.873141 271.977874 
L 225.713463 253.288676 
L 226.038226 252.346448 
L 226.14648 252.341829 
L 226.362989 252.745043 
L 226.687752 254.252378 
L 227.120769 257.590105 
L 227.878549 265.58927 
L 229.069346 277.958854 
L 229.502363 280.766839 
L 229.827125 281.851008 
L 230.043634 281.99235 
L 230.260142 281.612254 
L 230.476651 280.664432 
L 230.801414 278.081283 
L 231.450939 272.693475 
L 231.992211 269.817906 
L 232.533482 268.057173 
L 232.966499 267.26071 
L 233.399516 266.873061 
L 233.832533 266.787331 
L 234.373805 266.967517 
L 235.239839 267.593423 
L 236.647144 268.62418 
L 237.404924 268.909677 
L 238.270958 268.999773 
L 239.570009 268.859093 
L 240.760806 268.776617 
L 241.518586 268.946732 
L 242.276366 269.187365 
L 243.034146 269.187059 
L 244.116689 268.939102 
L 245.848757 268.525708 
L 246.606537 268.559004 
L 248.879876 268.958293 
L 252.668776 268.890375 
L 253.751318 268.966686 
L 255.483387 268.820919 
L 257.215455 268.737493 
L 260.679591 268.890593 
L 263.494202 268.727425 
L 265.334525 268.942672 
L 266.850085 269.044132 
L 267.716119 268.908218 
L 268.473899 268.582456 
L 269.231678 268.214181 
L 269.77295 268.237512 
L 270.422475 268.504339 
L 272.587561 269.631447 
L 273.020578 269.572983 
L 273.453595 269.308071 
L 273.886612 268.785063 
L 274.752646 267.574798 
L 275.185663 267.418359 
L 275.61868 267.515408 
L 276.159951 267.903615 
L 277.025986 268.865291 
L 278.108528 270.000445 
L 278.6498 270.266198 
L 279.082817 270.226641 
L 279.515834 269.899208 
L 280.706631 268.719698 
L 281.680919 268.049456 
L 282.438699 267.793691 
L 282.97997 267.811223 
L 283.521242 268.048123 
L 284.062513 268.560923 
L 284.603784 269.415525 
L 285.469818 270.990052 
L 285.794581 271.129274 
L 286.119344 271.034045 
L 286.552361 270.61554 
L 287.201887 269.568215 
L 288.717446 266.932528 
L 289.150463 266.578437 
L 289.475226 266.540946 
L 289.799989 266.743143 
L 290.124752 267.223942 
L 291.207295 269.291356 
L 291.748566 269.693666 
L 292.289837 269.776337 
L 292.939363 269.585955 
L 293.913651 269.00017 
L 295.212702 268.245291 
L 295.970482 268.057368 
L 296.620008 268.135184 
L 297.486042 268.494547 
L 299.542873 269.486155 
L 300.192399 269.519207 
L 300.73367 269.334279 
L 301.49145 268.751386 
L 302.140975 268.481143 
L 302.790501 268.463281 
L 303.656535 268.67526 
L 305.496858 269.19188 
L 306.254638 269.13143 
L 308.09496 268.705157 
L 309.502266 268.797572 
L 311.667351 268.938569 
L 315.781013 268.816789 
L 320.435947 268.80455 
L 322.384523 268.820425 
L 324.441354 268.921378 
L 328.013745 268.817646 
L 329.529305 268.981339 
L 331.153119 268.850258 
L 333.101696 268.713775 
L 334.617255 268.880486 
L 336.674087 269.009049 
L 337.864883 268.876743 
L 338.839172 268.55099 
L 339.596952 268.282076 
L 340.138223 268.34364 
L 340.896003 268.683351 
L 342.628071 269.576526 
L 343.169343 269.566946 
L 343.60236 269.350431 
L 344.035377 268.892861 
L 344.576648 267.926421 
L 345.009665 267.339592 
L 345.442682 267.140473 
L 345.875699 267.258128 
L 346.416971 267.73967 
L 347.283005 268.934574 
L 348.257293 270.21478 
L 348.798564 270.573315 
L 349.123327 270.580687 
L 349.44809 270.390025 
L 349.772853 269.96632 
L 350.638887 268.55793 
L 351.288413 267.925542 
L 351.937938 267.613591 
L 352.479209 267.57606 
L 353.020481 267.733686 
L 353.670006 268.188199 
L 354.319532 268.962212 
L 354.969058 270.112098 
L 355.726837 271.589195 
L 356.0516 271.74678 
L 356.376363 271.619966 
L 356.80938 271.094058 
L 357.458906 269.783599 
L 358.974465 266.425439 
L 359.407482 265.94075 
L 359.732245 265.855686 
L 360.057008 266.065507 
L 360.381771 266.620102 
L 360.814788 267.93747 
L 361.356059 269.315201 
L 361.789076 269.928473 
L 362.222093 270.196193 
L 362.65511 270.194176 
L 363.196382 269.918964 
L 364.062416 269.136499 
L 365.253213 268.058134 
L 365.902738 267.744469 
L 366.44401 267.718854 
L 367.093535 267.929484 
L 367.95957 268.476882 
L 369.691638 269.632914 
L 370.341163 269.769405 
L 370.882435 269.634401 
L 371.315452 269.317284 
L 372.28974 268.45553 
L 372.831012 268.330152 
L 373.480537 268.419331 
L 374.56308 268.857869 
L 375.645622 269.249021 
L 376.295148 269.284186 
L 376.836419 269.12591 
L 377.702454 268.77241 
L 378.568488 268.673861 
L 379.867539 268.785269 
L 381.92437 268.96136 
L 386.795812 268.835337 
L 390.151694 268.835365 
L 392.749797 268.826078 
L 394.806628 268.913046 
L 398.16251 268.798443 
L 398.487273 268.85561 
L 398.487273 268.85561 
" clip-path="url(#p21bf11b301)" style="fill: none; stroke: #0000cc; stroke-width: 1.5; stroke-linecap: square"/>
   </g>
   <g id="patch_13">
    <path d="M 57.6 307.584 
L 57.6 229.315765 
" style="fill: none; stroke: #000000; stroke-width: 0.8; stroke-linejoin: miter; stroke-linecap: square"/>
   </g>
   <g id="patch_14">
    <path d="M 414.72 307.584 
L 414.72 229.315765 
" style="fill: none; stroke: #000000; stroke-width: 0.8; stroke-linejoin: miter; stroke-linecap: square"/>
   </g>
   <g id="patch_15">
    <path d="M 57.6 307.584 
L 414.72 307.584 
" style="fill: none; stroke: #000000; stroke-width: 0.8; stroke-linejoin: miter; stroke-linecap: square"/>
   </g>
   <g id="patch_16">
    <path d="M 57.6 229.315765 
L 414.72 229.315765 
" style="fill: none; stroke: #000000; stroke-width: 0.8; stroke-linejoin: miter; stroke-linecap: square"/>
   </g>
  </g>
 </g>
 <defs>
  <clipPath id="pd0a3c130d2">
   <rect x="57.6" y="41.472" width="357.12" height="78.268235"/>
  </clipPath>
  <clipPath id="pa8844ba7e0">
   <rect x="57.6" y="135.393882" width="357.12" height="78.268235"/>
  </clipPath>
  <clipPath id="p21bf11b301">
   <rect x="57.6" y="229.315765" width="357.12" height="78.268235"/>
  </clipPath>
 </defs>
</svg>
