<?xml version="1.0" encoding="utf-8" standalone="no"?>
<!DOCTYPE svg PUBLIC "-//W3C//DTD SVG 1.1//EN"
  "http://www.w3.org/Graphics/SVG/1.1/DTD/svg11.dtd">
<svg xmlns:xlink="http://www.w3.org/1999/xlink" width="460.8pt" height="345.6pt" viewBox="0 0 460.8 345.6" xmlns="http://www.w3.org/2000/svg" version="1.1">
 <metadata>
  <rdf:RDF xmlns:dc="http://purl.org/dc/elements/1.1/" xmlns:cc="http://creativecommons.org/ns#" xmlns:rdf="http://www.w3.org/1999/02/22-rdf-syntax-ns#">
   <cc:Work>
    <dc:type rdf:resource="http://purl.org/dc/dcmitype/StillImage"/>
    <dc:date>2023-11-13T15:29:28.466769</dc:date>
    <dc:format>image/svg+xml</dc:format>
    <dc:creator>
     <cc:Agent>
      <dc:title>Matplotlib v3.7.3, https://matplotlib.org/</dc:title>
     </cc:Agent>
    </dc:creator>
   </cc:Work>
  </rdf:RDF>
 </metadata>
 <defs>
  <style type="text/css">*{stroke-linejoin: round; stroke-linecap: butt}</style>
 </defs>
 <g id="figure_1">
  <g id="patch_1">
   <path d="M 0 345.6 
L 460.8 345.6 
L 460.8 0 
L 0 0 
z
" style="fill: #ffffff"/>
  </g>
  <g id="axes_1">
   <g id="patch_2">
    <path d="M 57.6 119.740235 
L 414.72 119.740235 
L 414.72 41.472 
L 57.6 41.472 
z
" style="fill: #ffffff"/>
   </g>
   <g id="matplotlib.axis_1">
    <g id="xtick_1">
     <g id="line2d_1">
      <defs>
       <path id="md258cbd3cf" d="M 0 0 
L 0 3.5 
" style="stroke: #000000; stroke-width: 0.8"/>
      </defs>
      <g>
       <use xlink:href="#md258cbd3cf" x="73.832727" y="119.740235" style="stroke: #000000; stroke-width: 0.8"/>
      </g>
     </g>
    </g>
    <g id="xtick_2">
     <g id="line2d_2">
      <g>
       <use xlink:href="#md258cbd3cf" x="117.264771" y="119.740235" style="stroke: #000000; stroke-width: 0.8"/>
      </g>
     </g>
    </g>
    <g id="xtick_3">
     <g id="line2d_3">
      <g>
       <use xlink:href="#md258cbd3cf" x="160.696815" y="119.740235" style="stroke: #000000; stroke-width: 0.8"/>
      </g>
     </g>
    </g>
    <g id="xtick_4">
     <g id="line2d_4">
      <g>
       <use xlink:href="#md258cbd3cf" x="204.128859" y="119.740235" style="stroke: #000000; stroke-width: 0.8"/>
      </g>
     </g>
    </g>
    <g id="xtick_5">
     <g id="line2d_5">
      <g>
       <use xlink:href="#md258cbd3cf" x="247.560903" y="119.740235" style="stroke: #000000; stroke-width: 0.8"/>
      </g>
     </g>
    </g>
    <g id="xtick_6">
     <g id="line2d_6">
      <g>
       <use xlink:href="#md258cbd3cf" x="290.992947" y="119.740235" style="stroke: #000000; stroke-width: 0.8"/>
      </g>
     </g>
    </g>
    <g id="xtick_7">
     <g id="line2d_7">
      <g>
       <use xlink:href="#md258cbd3cf" x="334.424991" y="119.740235" style="stroke: #000000; stroke-width: 0.8"/>
      </g>
     </g>
    </g>
    <g id="xtick_8">
     <g id="line2d_8">
      <g>
       <use xlink:href="#md258cbd3cf" x="377.857035" y="119.740235" style="stroke: #000000; stroke-width: 0.8"/>
      </g>
     </g>
    </g>
   </g>
   <g id="matplotlib.axis_2">
    <g id="ytick_1">
     <g id="line2d_9">
      <defs>
       <path id="m04d9b4c6c5" d="M 0 0 
L -3.5 0 
" style="stroke: #000000; stroke-width: 0.8"/>
      </defs>
      <g>
       <use xlink:href="#m04d9b4c6c5" x="57.6" y="101.142732" style="stroke: #000000; stroke-width: 0.8"/>
      </g>
     </g>
     <g id="text_1">
      <!-- −10 -->
      <g transform="translate(29.495313 104.941951) scale(0.1 -0.1)">
       <defs>
        <path id="DejaVuSans-2212" d="M 678 2272 
L 4684 2272 
L 4684 1741 
L 678 1741 
L 678 2272 
z
" transform="scale(0.015625)"/>
        <path id="DejaVuSans-31" d="M 794 531 
L 1825 531 
L 1825 4091 
L 703 3866 
L 703 4441 
L 1819 4666 
L 2450 4666 
L 2450 531 
L 3481 531 
L 3481 0 
L 794 0 
L 794 531 
z
" transform="scale(0.015625)"/>
        <path id="DejaVuSans-30" d="M 2034 4250 
Q 1547 4250 1301 3770 
Q 1056 3291 1056 2328 
Q 1056 1369 1301 889 
Q 1547 409 2034 409 
Q 2525 409 2770 889 
Q 3016 1369 3016 2328 
Q 3016 3291 2770 3770 
Q 2525 4250 2034 4250 
z
M 2034 4750 
Q 2819 4750 3233 4129 
Q 3647 3509 3647 2328 
Q 3647 1150 3233 529 
Q 2819 -91 2034 -91 
Q 1250 -91 836 529 
Q 422 1150 422 2328 
Q 422 3509 836 4129 
Q 1250 4750 2034 4750 
z
" transform="scale(0.015625)"/>
       </defs>
       <use xlink:href="#DejaVuSans-2212"/>
       <use xlink:href="#DejaVuSans-31" x="83.789062"/>
       <use xlink:href="#DejaVuSans-30" x="147.412109"/>
      </g>
     </g>
    </g>
    <g id="ytick_2">
     <g id="line2d_10">
      <g>
       <use xlink:href="#m04d9b4c6c5" x="57.6" y="80.542536" style="stroke: #000000; stroke-width: 0.8"/>
      </g>
     </g>
     <g id="text_2">
      <!-- 0 -->
      <g transform="translate(44.2375 84.341755) scale(0.1 -0.1)">
       <use xlink:href="#DejaVuSans-30"/>
      </g>
     </g>
    </g>
    <g id="ytick_3">
     <g id="line2d_11">
      <g>
       <use xlink:href="#m04d9b4c6c5" x="57.6" y="59.94234" style="stroke: #000000; stroke-width: 0.8"/>
      </g>
     </g>
     <g id="text_3">
      <!-- 10 -->
      <g transform="translate(37.875 63.741559) scale(0.1 -0.1)">
       <use xlink:href="#DejaVuSans-31"/>
       <use xlink:href="#DejaVuSans-30" x="63.623047"/>
      </g>
     </g>
    </g>
   </g>
   <g id="line2d_12">
    <path d="M 73.832727 86.41041 
L 74.918533 88.420678 
L 76.004338 91.547309 
L 77.090122 96.091974 
L 79.261733 108.021668 
L 80.347538 110.900774 
L 81.433343 107.856211 
L 83.604954 92.821392 
L 84.690759 87.261428 
L 85.776544 83.944372 
L 86.862349 82.208253 
L 87.948154 81.393566 
L 89.033959 81.064559 
L 90.119764 80.986395 
L 91.205549 81.055221 
L 92.291354 81.245391 
L 93.377159 81.58358 
L 94.462944 82.145476 
L 95.548749 83.071889 
L 96.634555 84.605058 
L 97.72036 87.147135 
L 98.806165 91.320396 
L 99.89195 97.885932 
L 102.06356 115.398019 
L 103.149345 115.846616 
L 104.23515 105.915733 
L 105.320955 93.193866 
L 106.40676 83.647099 
L 107.492566 77.85245 
L 108.578371 74.428721 
L 111.835766 67.081744 
L 112.921571 63.813928 
L 114.007376 60.186936 
L 115.093181 57.055266 
L 116.178987 55.75718 
L 117.264771 57.177316 
L 118.350577 60.756551 
L 119.436382 64.919852 
L 120.522166 68.341895 
L 121.607972 70.483635 
L 122.693777 71.341794 
L 123.779582 71.074015 
L 124.865387 69.793349 
L 125.951192 67.530616 
L 127.036998 64.328025 
L 129.208588 56.868581 
L 130.294393 55.035533 
L 131.380198 56.219272 
L 132.466003 60.021908 
L 133.551808 64.670107 
L 134.637593 68.574028 
L 135.723398 71.084524 
L 136.809203 72.212629 
L 137.894988 72.167074 
L 138.980793 71.097479 
L 140.066599 69.029921 
L 141.152404 65.930019 
L 143.323994 57.60497 
L 144.409799 54.55299 
L 145.495604 54.585918 
L 146.581389 58.061756 
L 148.752999 68.004977 
L 149.838804 71.3107 
L 150.92461 73.065798 
L 152.010394 73.536923 
L 153.096199 72.963601 
L 154.182005 71.428365 
L 155.267789 68.865671 
L 156.353594 65.171682 
L 158.525205 55.751819 
L 159.61101 53.031136 
L 160.696815 54.348115 
L 161.782621 59.304867 
L 162.868426 65.317376 
L 163.95421 70.218183 
L 165.040016 73.327144 
L 166.125821 74.852717 
L 167.211626 75.192192 
L 168.297431 74.612337 
L 169.383216 73.176505 
L 170.469021 70.764911 
L 171.554826 67.149049 
L 172.640611 62.208506 
L 173.726416 56.49342 
L 174.812221 52.04179 
L 175.898027 51.88433 
L 176.983832 56.815881 
L 178.069637 63.984141 
L 179.155442 70.228793 
L 180.241247 74.380173 
L 181.327032 76.663055 
L 182.412837 77.6613 
L 183.498643 77.836662 
L 184.584448 77.427435 
L 185.670253 76.472643 
L 186.756038 74.84347 
L 187.841843 72.252854 
L 188.927648 68.276485 
L 190.013433 62.528793 
L 191.099238 55.366282 
L 192.185043 49.346602 
L 193.270848 49.093867 
L 194.356654 55.936965 
L 195.442438 65.369057 
L 196.528243 73.059927 
L 197.614049 77.959591 
L 198.699833 80.762471 
L 199.785638 82.41938 
L 201.957249 84.964307 
L 203.043054 86.730714 
L 204.128859 89.332985 
L 205.214644 93.18581 
L 206.30047 98.594668 
L 207.386254 105.139416 
L 208.47208 110.522265 
L 209.557865 110.848042 
L 210.643649 104.947442 
L 211.729475 96.50512 
L 212.81526 89.383661 
L 213.901044 84.752786 
L 214.98687 82.144124 
L 216.072655 80.762401 
L 217.158481 79.988332 
L 219.33005 78.842949 
L 220.415876 78.036862 
L 221.50166 76.804423 
L 222.587445 74.854471 
L 223.673271 71.754068 
L 224.759055 66.925322 
L 225.844881 59.931123 
L 226.930666 51.673376 
L 228.01645 46.412785 
L 229.102276 49.595384 
L 231.273887 70.09067 
L 232.359713 77.392483 
L 233.445497 81.74953 
L 234.531323 84.353189 
L 236.702892 88.209277 
L 237.788718 90.707822 
L 238.874503 94.122814 
L 239.960287 98.588124 
L 241.046113 103.617133 
L 242.131898 107.552123 
L 243.217724 107.991439 
L 244.303508 104.137957 
L 246.475119 92.443512 
L 247.560903 88.552092 
L 248.646688 86.406369 
L 249.732514 85.600652 
L 250.818298 85.781405 
L 251.904124 86.792445 
L 252.989909 88.679327 
L 254.075693 91.646488 
L 255.161519 95.94163 
L 257.333088 107.178256 
L 258.418914 110.121781 
L 259.504699 107.708985 
L 262.762094 88.358963 
L 263.84792 85.059041 
L 264.933704 83.373971 
L 266.019489 82.711691 
L 267.105315 82.684586 
L 268.191099 83.12052 
L 269.276925 84.018864 
L 270.36271 85.524064 
L 271.448494 87.929419 
L 272.53432 91.682207 
L 273.620146 97.272601 
L 275.791757 111.644896 
L 276.877541 113.317078 
L 277.963367 106.995886 
L 279.049152 96.950162 
L 280.134936 88.374634 
L 281.220762 82.805222 
L 282.306547 79.571025 
L 283.392331 77.606395 
L 285.563942 74.398723 
L 286.649768 72.134737 
L 287.735552 68.887408 
L 288.821337 64.35 
L 290.992947 53.221895 
L 292.078732 51.025653 
L 293.164558 54.269283 
L 295.336168 68.238906 
L 296.421953 73.312605 
L 297.507737 76.303267 
L 298.593563 77.780894 
L 299.679348 78.306449 
L 300.765132 78.226483 
L 301.850958 77.677259 
L 302.936743 76.627109 
L 304.022569 74.89652 
L 305.108353 72.152664 
L 306.194138 67.922449 
L 307.279964 61.793261 
L 308.365748 54.248529 
L 309.451533 48.317677 
L 310.537359 49.006559 
L 311.623143 56.940644 
L 312.708969 66.818816 
L 313.794754 74.461492 
L 314.880538 79.205296 
L 315.966364 81.937789 
L 317.05219 83.665393 
L 318.137975 85.128983 
L 319.223801 86.846053 
L 320.309585 89.234317 
L 321.395411 92.686971 
L 322.481196 97.491817 
L 324.652806 108.709781 
L 325.738591 110.195905 
L 326.824375 106.049166 
L 328.995986 91.711439 
L 330.081812 86.891191 
L 331.167596 84.121245 
L 332.253381 82.766575 
L 333.339207 82.267571 
L 334.424991 82.289294 
L 335.510776 82.69501 
L 336.596602 83.497254 
L 337.682386 84.835759 
L 338.768212 86.988024 
L 339.853997 90.392821 
L 340.939781 95.60171 
L 343.111392 110.677528 
L 344.197176 114.297846 
L 345.283002 109.422627 
L 347.454613 89.586709 
L 348.540397 83.137341 
L 349.626182 79.341152 
L 350.712008 77.048713 
L 352.883577 73.454329 
L 353.969403 71.012593 
L 355.055187 67.602083 
L 356.141013 63.022281 
L 357.226798 57.657491 
L 358.312582 53.156794 
L 359.398408 52.23358 
L 360.484234 56.101542 
L 362.655845 68.768271 
L 363.741629 73.052859 
L 364.827455 75.472492 
L 365.91324 76.509152 
L 366.999024 76.593317 
L 368.08485 75.945951 
L 369.170635 74.57732 
L 370.256419 72.315087 
L 371.342245 68.845393 
L 372.42803 63.855288 
L 374.59964 51.632184 
L 375.685425 49.85876 
L 376.771251 54.422651 
L 378.94282 70.121404 
L 380.028646 75.281087 
L 381.11443 78.262541 
L 382.200256 79.835449 
L 383.286041 80.659636 
L 386.543436 82.12399 
L 387.62922 82.90588 
L 388.715046 84.135481 
L 389.800831 86.109627 
L 390.886657 89.284448 
L 391.972441 94.280138 
L 393.058226 101.574401 
L 394.144052 110.177677 
L 395.229836 115.397975 
L 396.315662 111.507254 
L 398.487273 89.97602 
L 398.487273 89.97602 
" clip-path="url(#pf20d0e15db)" style="fill: none; stroke: #0000cc; stroke-width: 1.5; stroke-linecap: square"/>
   </g>
   <g id="line2d_13">
    <path d="M 73.832727 86.41041 
L 74.918533 88.385015 
L 76.004338 91.44335 
L 77.090122 95.906089 
L 79.261733 107.959091 
L 80.347538 111.105948 
L 81.433343 108.008408 
L 83.604954 92.106736 
L 84.690759 86.863071 
L 85.776544 83.657707 
L 86.862349 81.912434 
L 87.948154 80.964917 
L 90.119764 80.305488 
L 92.291354 79.842149 
L 93.377159 79.494493 
L 94.462944 78.913312 
L 95.548749 78.004937 
L 96.634555 76.518322 
L 97.72036 74.101401 
L 98.806165 70.185839 
L 99.89195 64.057493 
L 102.06356 46.572347 
L 103.149345 45.029647 
L 104.23515 53.636866 
L 105.320955 67.566295 
L 106.40676 75.073691 
L 107.492566 84.02996 
L 108.578371 85.648093 
L 109.664176 89.831158 
L 110.749981 91.806354 
L 112.921571 98.617268 
L 114.007376 101.633344 
L 115.093181 103.800421 
L 116.178987 104.412853 
L 117.264771 102.016995 
L 119.436382 95.525147 
L 120.522166 92.242932 
L 121.607972 90.620136 
L 123.779582 91.072258 
L 124.865387 92.656043 
L 127.036998 98.402405 
L 128.122803 102.091383 
L 129.208588 104.947359 
L 130.294393 104.920124 
L 131.380198 103.070691 
L 132.466003 99.136136 
L 133.551808 94.052298 
L 134.637593 91.590282 
L 136.809203 89.193624 
L 137.894988 90.188302 
L 138.980793 91.908439 
L 140.066599 94.041876 
L 142.238209 101.793698 
L 143.323994 104.879146 
L 144.409799 106.615206 
L 145.495604 103.905717 
L 146.581389 99.035326 
L 147.667194 95.708378 
L 148.752999 91.819945 
L 149.838804 88.676539 
L 150.92461 89.088725 
L 152.010394 89.261334 
L 153.096199 90.139189 
L 155.267789 96.142866 
L 156.353594 100.121542 
L 157.4394 104.826709 
L 158.525205 106.669924 
L 159.61101 105.826434 
L 160.696815 102.330335 
L 161.782621 95.41609 
L 162.868426 90.726948 
L 163.95421 89.771097 
L 165.040016 87.612604 
L 166.125821 87.485963 
L 168.297431 90.585266 
L 169.383216 93.524655 
L 172.640611 106.734998 
L 173.726416 108.087537 
L 174.812221 104.541208 
L 176.983832 94.121421 
L 178.069637 88.840707 
L 179.155442 87.006625 
L 180.241247 86.385231 
L 181.327032 86.062434 
L 182.412837 87.131045 
L 183.498643 89.033566 
L 184.584448 91.733026 
L 185.670253 95.997756 
L 187.841843 106.75612 
L 188.927648 109.925387 
L 190.013433 107.350794 
L 192.185043 94.001513 
L 193.270848 88.721867 
L 194.356654 85.215311 
L 195.442438 83.916328 
L 196.528243 83.254134 
L 197.614049 83.323148 
L 198.699833 83.897628 
L 199.785638 85.098561 
L 200.871444 86.978251 
L 201.957249 89.97215 
L 203.043054 94.468733 
L 204.128859 100.785283 
L 205.214644 108.171631 
L 206.30047 112.999618 
L 207.386254 110.397525 
L 208.47208 101.947314 
L 209.557865 91.163776 
L 210.643649 85.105538 
L 211.729475 81.536598 
L 212.81526 79.375717 
L 213.901044 77.638772 
L 214.98687 76.686178 
L 216.072655 74.988176 
L 217.158481 72.932659 
L 218.244265 69.566298 
L 219.33005 65.128003 
L 221.50166 52.849363 
L 222.587445 49.68801 
L 223.673271 53.226247 
L 224.759055 60.477198 
L 225.844881 69.774509 
L 226.930666 72.538637 
L 228.01645 79.039365 
L 229.102276 78.364586 
L 230.188102 81.836127 
L 231.273887 80.818827 
L 232.359713 83.646966 
L 233.445497 83.939484 
L 235.617108 88.982647 
L 236.702892 93.078175 
L 237.788718 99.127741 
L 238.874503 106.408199 
L 239.960287 112.495329 
L 241.046113 111.911536 
L 242.131898 104.075158 
L 243.217724 93.395243 
L 244.303508 87.024551 
L 245.389293 82.554472 
L 246.475119 79.962608 
L 247.560903 78.283375 
L 248.646688 77.464625 
L 250.818298 74.19551 
L 251.904124 71.355282 
L 252.989909 67.551186 
L 254.075693 61.885646 
L 255.161519 55.388651 
L 256.247304 50.045892 
L 257.333088 50.5909 
L 258.418914 56.594807 
L 259.504699 66.37419 
L 260.590525 70.840045 
L 261.676309 78.62424 
L 262.762094 78.241198 
L 263.84792 82.496528 
L 264.933704 81.622835 
L 266.019489 85.030269 
L 267.105315 85.759539 
L 268.191099 88.863667 
L 269.276925 92.536522 
L 270.36271 97.501779 
L 271.448494 104.18442 
L 272.53432 110.020595 
L 273.620146 111.294004 
L 274.705931 106.238532 
L 275.791757 96.748948 
L 276.877541 88.734767 
L 277.963367 84.98159 
L 279.049152 82.111036 
L 280.134936 80.579447 
L 281.220762 79.675436 
L 282.306547 79.29944 
L 284.478157 77.572412 
L 285.563942 76.089717 
L 286.649768 73.922543 
L 287.735552 70.409503 
L 288.821337 65.195388 
L 290.992947 50.086753 
L 292.078732 46.765751 
L 293.164558 52.120992 
L 295.336168 72.406943 
L 296.421953 78.318203 
L 297.507737 81.394122 
L 298.593563 84.013216 
L 299.679348 85.508107 
L 300.765132 87.398046 
L 301.850958 89.759191 
L 302.936743 93.154377 
L 304.022569 97.774181 
L 305.108353 103.250118 
L 306.194138 108.133433 
L 307.279964 109.380679 
L 308.365748 105.299667 
L 310.537359 91.804056 
L 311.623143 87.453616 
L 312.708969 84.89777 
L 313.794754 83.819424 
L 314.880538 83.541855 
L 315.966364 83.897245 
L 317.05219 84.81702 
L 318.137975 86.436532 
L 319.223801 88.987963 
L 320.309585 92.887867 
L 321.395411 98.500501 
L 322.481196 105.552888 
L 323.56698 111.640814 
L 324.652806 111.837528 
L 325.738591 105.037515 
L 326.824375 94.875534 
L 327.910201 87.705133 
L 328.995986 83.30245 
L 330.081812 80.560527 
L 331.167596 78.9284 
L 332.253381 77.907054 
L 333.339207 76.690018 
L 334.424991 75.108623 
L 335.510776 72.758757 
L 336.596602 69.327662 
L 337.682386 64.293384 
L 339.853997 51.308545 
L 340.939781 49.096651 
L 342.025607 53.673909 
L 343.111392 62.617889 
L 344.197176 70.33518 
L 345.283002 76.373952 
L 346.368787 78.630126 
L 347.454613 81.202161 
L 348.540397 81.637052 
L 349.626182 83.04526 
L 350.712008 83.769893 
L 351.797792 85.458008 
L 352.883577 87.602328 
L 353.969403 90.996918 
L 355.055187 96.044072 
L 357.226798 110.069729 
L 358.312582 113.216964 
L 359.398408 108.381632 
L 361.570019 89.341126 
L 362.655845 83.672694 
L 363.741629 80.374453 
L 365.91324 76.775326 
L 366.999024 75.476606 
L 368.08485 73.426637 
L 369.170635 70.770581 
L 370.256419 66.646731 
L 371.342245 61.382485 
L 372.42803 55.107009 
L 373.513856 50.858914 
L 374.59964 51.527568 
L 375.685425 58.049271 
L 377.857035 73.181347 
L 378.94282 74.386854 
L 380.028646 79.342616 
L 381.11443 78.276761 
L 382.200256 80.86034 
L 383.286041 79.650574 
L 384.371825 81.479112 
L 385.457651 80.983862 
L 386.543436 82.080067 
L 387.62922 82.538879 
L 388.715046 83.854307 
L 389.800831 85.677922 
L 390.886657 88.679305 
L 391.972441 93.461864 
L 393.058226 100.594678 
L 394.144052 109.656287 
L 395.229836 116.182588 
L 396.315662 112.572002 
L 397.401447 102.19348 
L 398.487273 86.837207 
L 398.487273 86.837207 
" clip-path="url(#pf20d0e15db)" style="fill: none; stroke: #008800; stroke-width: 1.5; stroke-linecap: square"/>
   </g>
   <g id="line2d_14">
    <path d="M 73.832727 86.41041 
L 74.918533 88.420607 
L 76.004338 91.547203 
L 77.090122 96.091796 
L 79.261733 108.021512 
L 80.347538 110.900646 
L 81.433343 107.856233 
L 83.604954 92.821761 
L 84.690759 87.26177 
L 85.776544 83.944667 
L 86.862349 82.208564 
L 87.948154 81.393964 
L 89.033959 81.06506 
L 90.119764 80.98707 
L 91.205549 81.056147 
L 92.291354 81.246749 
L 93.377159 81.58563 
L 94.462944 82.148645 
L 95.548749 83.076905 
L 96.634555 84.613033 
L 97.72036 87.15995 
L 98.806165 91.340548 
L 99.89195 97.915816 
L 102.06356 115.417251 
L 103.149345 115.82403 
L 104.23515 105.867789 
L 105.320955 93.152723 
L 106.40676 83.622088 
L 107.492566 77.839622 
L 108.578371 74.422276 
L 111.835766 67.074849 
L 112.921571 63.804497 
L 114.007376 60.175876 
L 115.093181 57.045856 
L 116.178987 55.753968 
L 117.264771 57.182678 
L 118.350577 60.767983 
L 119.436382 64.932651 
L 120.522166 68.352783 
L 121.607972 70.49143 
L 122.693777 71.346504 
L 123.779582 71.075968 
L 124.865387 69.792706 
L 125.951192 67.527316 
L 127.036998 64.321801 
L 129.208588 56.86003 
L 130.294393 55.031059 
L 131.380198 56.221721 
L 132.466003 60.030199 
L 133.551808 64.680604 
L 134.637593 68.583786 
L 135.723398 71.092203 
L 136.809203 72.218219 
L 137.894988 72.170905 
L 138.980793 71.09966 
L 140.066599 69.030607 
L 141.152404 65.928803 
L 143.323994 57.599577 
L 144.409799 54.547496 
L 145.495604 54.583371 
L 146.581389 58.063924 
L 148.752999 68.01181 
L 149.838804 71.317465 
L 150.92461 73.072086 
L 152.010394 73.542867 
L 153.096199 72.969538 
L 154.182005 71.434532 
L 155.267789 68.87206 
L 156.353594 65.177834 
L 158.525205 55.752743 
L 159.61101 53.026518 
L 160.696815 54.341417 
L 161.782621 59.298297 
L 162.868426 65.314834 
L 163.95421 70.219647 
L 165.040016 73.33154 
L 166.125821 74.859298 
L 167.211626 75.200743 
L 168.297431 74.623181 
L 169.383216 73.19048 
L 170.469021 70.783018 
L 171.554826 67.171861 
L 172.640611 62.234354 
L 173.726416 56.515421 
L 174.812221 52.046941 
L 175.898027 51.864821 
L 176.983832 56.782602 
L 178.069637 63.95509 
L 179.155442 70.212222 
L 180.241247 74.375284 
L 181.327032 76.666853 
L 182.412837 77.671395 
L 183.498643 77.852442 
L 184.584448 77.449891 
L 185.670253 76.504419 
L 186.756038 74.889053 
L 187.841843 72.318672 
L 188.927648 68.369728 
L 190.013433 62.650181 
L 191.099238 55.490856 
L 192.185043 49.400796 
L 193.270848 49.011769 
L 194.356654 55.769063 
L 195.442438 65.217167 
L 196.528243 72.965622 
L 197.614049 77.915895 
L 198.699833 80.750805 
L 199.785638 82.425156 
L 201.957249 84.984749 
L 203.043054 86.755322 
L 204.128859 89.36121 
L 205.214644 93.216158 
L 206.30047 98.621924 
L 207.386254 105.151262 
L 208.47208 110.503771 
L 209.557865 110.803211 
L 210.643649 104.906365 
L 211.729475 96.490484 
L 212.81526 89.394894 
L 213.901044 84.781892 
L 214.98687 82.185681 
L 216.072655 80.815218 
L 217.158481 80.055408 
L 219.33005 78.96414 
L 220.415876 78.209888 
L 221.50166 77.058992 
L 222.587445 75.236626 
L 223.673271 72.330136 
L 224.759055 67.768489 
L 225.844881 61.0402 
L 226.930666 52.724348 
L 228.01645 46.592061 
L 229.102276 48.493069 
L 230.188102 58.129463 
L 231.273887 68.900961 
L 232.359713 76.726812 
L 233.445497 81.453094 
L 234.531323 84.251265 
L 236.702892 88.181416 
L 237.788718 90.629358 
L 238.874503 93.953124 
L 239.960287 98.300352 
L 241.046113 103.236352 
L 242.131898 107.215141 
L 243.217724 107.907301 
L 244.303508 104.380402 
L 246.475119 92.901875 
L 247.560903 88.953704 
L 248.646688 86.744275 
L 249.732514 85.899315 
L 250.818298 86.071314 
L 251.904124 87.101358 
L 252.989909 89.029689 
L 254.075693 92.049611 
L 255.161519 96.378646 
L 257.333088 107.311122 
L 258.418914 109.835379 
L 259.504699 107.12939 
L 261.676309 93.554242 
L 262.762094 88.375799 
L 263.84792 85.273131 
L 264.933704 83.733246 
L 266.019489 83.205612 
L 267.105315 83.343921 
L 268.191099 84.017443 
L 269.276925 85.275177 
L 270.36271 87.325775 
L 271.448494 90.532441 
L 272.53432 95.347417 
L 274.705931 109.090999 
L 275.791757 112.884167 
L 276.877541 109.404774 
L 279.049152 91.592038 
L 280.134936 85.260077 
L 281.220762 81.489381 
L 282.306547 79.338939 
L 285.563942 75.17193 
L 286.649768 72.990474 
L 287.735552 69.753039 
L 288.821337 65.072335 
L 290.992947 52.650891 
L 292.078732 49.666624 
L 293.164558 52.968927 
L 295.336168 68.732396 
L 296.421953 74.437572 
L 297.507737 77.829148 
L 298.593563 79.646321 
L 299.679348 80.598826 
L 304.022569 82.974752 
L 305.108353 84.220726 
L 306.194138 86.213546 
L 307.279964 89.406536 
L 308.365748 94.409927 
L 309.451533 101.673396 
L 310.537359 110.162952 
L 311.623143 115.213746 
L 312.708969 111.212947 
L 314.880538 90.032703 
L 315.966364 82.811465 
L 317.05219 78.532928 
L 318.137975 75.934291 
L 320.309585 71.84658 
L 321.395411 69.138789 
L 322.481196 65.519014 
L 324.652806 56.403742 
L 325.738591 53.545176 
L 326.824375 54.399492 
L 327.910201 58.851371 
L 328.995986 64.595924 
L 330.081812 69.460806 
L 331.167596 72.633274 
L 332.253381 74.223348 
L 333.339207 74.587228 
L 334.424991 73.981897 
L 335.510776 72.473878 
L 336.596602 69.95724 
L 337.682386 66.245341 
L 339.853997 55.943843 
L 340.939781 52.251222 
L 342.025607 52.898344 
L 343.111392 58.032834 
L 344.197176 64.786773 
L 345.283002 70.449317 
L 346.368787 74.124515 
L 347.454613 76.063462 
L 348.540397 76.778748 
L 349.626182 76.64771 
L 350.712008 75.828286 
L 351.797792 74.276461 
L 352.883577 71.774548 
L 353.969403 67.978069 
L 355.055187 62.603397 
L 356.141013 56.057226 
L 357.226798 50.602633 
L 358.312582 50.151369 
L 359.398408 55.97657 
L 360.484234 64.436512 
L 361.570019 71.616526 
L 362.655845 76.300336 
L 363.741629 78.944929 
L 364.827455 80.349748 
L 365.91324 81.14144 
L 368.08485 82.329866 
L 369.170635 83.172766 
L 370.256419 84.462206 
L 371.342245 86.500158 
L 372.42803 89.732058 
L 373.513856 94.736363 
L 374.59964 101.88597 
L 375.685425 110.046643 
L 376.771251 114.671065 
L 377.857035 110.607816 
L 380.028646 90.25951 
L 381.11443 83.312195 
L 382.200256 79.194633 
L 383.286041 76.716506 
L 385.457651 72.916811 
L 386.543436 70.394284 
L 387.62922 66.927802 
L 388.715046 62.384608 
L 389.800831 57.272162 
L 390.886657 53.311687 
L 391.972441 52.973633 
L 393.058226 57.01133 
L 395.229836 68.906743 
L 396.315662 72.802163 
L 397.401447 74.939268 
L 398.487273 75.747129 
L 398.487273 75.747129 
" clip-path="url(#pf20d0e15db)" style="fill: none; stroke: #ff0000; stroke-width: 1.5; stroke-linecap: square"/>
   </g>
   <g id="patch_3">
    <path d="M 57.6 119.740235 
L 57.6 41.472 
" style="fill: none; stroke: #000000; stroke-width: 0.8; stroke-linejoin: miter; stroke-linecap: square"/>
   </g>
   <g id="patch_4">
    <path d="M 414.72 119.740235 
L 414.72 41.472 
" style="fill: none; stroke: #000000; stroke-width: 0.8; stroke-linejoin: miter; stroke-linecap: square"/>
   </g>
   <g id="patch_5">
    <path d="M 57.6 119.740235 
L 414.72 119.740235 
" style="fill: none; stroke: #000000; stroke-width: 0.8; stroke-linejoin: miter; stroke-linecap: square"/>
   </g>
   <g id="patch_6">
    <path d="M 57.6 41.472 
L 414.72 41.472 
" style="fill: none; stroke: #000000; stroke-width: 0.8; stroke-linejoin: miter; stroke-linecap: square"/>
   </g>
  </g>
  <g id="axes_2">
   <g id="patch_7">
    <path d="M 57.6 213.662118 
L 414.72 213.662118 
L 414.72 135.393882 
L 57.6 135.393882 
z
" style="fill: #ffffff"/>
   </g>
   <g id="matplotlib.axis_3">
    <g id="xtick_9">
     <g id="line2d_15">
      <g>
       <use xlink:href="#md258cbd3cf" x="73.832727" y="213.662118" style="stroke: #000000; stroke-width: 0.8"/>
      </g>
     </g>
    </g>
    <g id="xtick_10">
     <g id="line2d_16">
      <g>
       <use xlink:href="#md258cbd3cf" x="117.264771" y="213.662118" style="stroke: #000000; stroke-width: 0.8"/>
      </g>
     </g>
    </g>
    <g id="xtick_11">
     <g id="line2d_17">
      <g>
       <use xlink:href="#md258cbd3cf" x="160.696815" y="213.662118" style="stroke: #000000; stroke-width: 0.8"/>
      </g>
     </g>
    </g>
    <g id="xtick_12">
     <g id="line2d_18">
      <g>
       <use xlink:href="#md258cbd3cf" x="204.128859" y="213.662118" style="stroke: #000000; stroke-width: 0.8"/>
      </g>
     </g>
    </g>
    <g id="xtick_13">
     <g id="line2d_19">
      <g>
       <use xlink:href="#md258cbd3cf" x="247.560903" y="213.662118" style="stroke: #000000; stroke-width: 0.8"/>
      </g>
     </g>
    </g>
    <g id="xtick_14">
     <g id="line2d_20">
      <g>
       <use xlink:href="#md258cbd3cf" x="290.992947" y="213.662118" style="stroke: #000000; stroke-width: 0.8"/>
      </g>
     </g>
    </g>
    <g id="xtick_15">
     <g id="line2d_21">
      <g>
       <use xlink:href="#md258cbd3cf" x="334.424991" y="213.662118" style="stroke: #000000; stroke-width: 0.8"/>
      </g>
     </g>
    </g>
    <g id="xtick_16">
     <g id="line2d_22">
      <g>
       <use xlink:href="#md258cbd3cf" x="377.857035" y="213.662118" style="stroke: #000000; stroke-width: 0.8"/>
      </g>
     </g>
    </g>
   </g>
   <g id="matplotlib.axis_4">
    <g id="ytick_4">
     <g id="line2d_23">
      <g>
       <use xlink:href="#m04d9b4c6c5" x="57.6" y="205.558867" style="stroke: #000000; stroke-width: 0.8"/>
      </g>
     </g>
     <g id="text_4">
      <!-- −20 -->
      <g transform="translate(29.495313 209.358086) scale(0.1 -0.1)">
       <defs>
        <path id="DejaVuSans-32" d="M 1228 531 
L 3431 531 
L 3431 0 
L 469 0 
L 469 531 
Q 828 903 1448 1529 
Q 2069 2156 2228 2338 
Q 2531 2678 2651 2914 
Q 2772 3150 2772 3378 
Q 2772 3750 2511 3984 
Q 2250 4219 1831 4219 
Q 1534 4219 1204 4116 
Q 875 4013 500 3803 
L 500 4441 
Q 881 4594 1212 4672 
Q 1544 4750 1819 4750 
Q 2544 4750 2975 4387 
Q 3406 4025 3406 3419 
Q 3406 3131 3298 2873 
Q 3191 2616 2906 2266 
Q 2828 2175 2409 1742 
Q 1991 1309 1228 531 
z
" transform="scale(0.015625)"/>
       </defs>
       <use xlink:href="#DejaVuSans-2212"/>
       <use xlink:href="#DejaVuSans-32" x="83.789062"/>
       <use xlink:href="#DejaVuSans-30" x="147.412109"/>
      </g>
     </g>
    </g>
    <g id="ytick_5">
     <g id="line2d_24">
      <g>
       <use xlink:href="#m04d9b4c6c5" x="57.6" y="174.681795" style="stroke: #000000; stroke-width: 0.8"/>
      </g>
     </g>
     <g id="text_5">
      <!-- 0 -->
      <g transform="translate(44.2375 178.481014) scale(0.1 -0.1)">
       <use xlink:href="#DejaVuSans-30"/>
      </g>
     </g>
    </g>
    <g id="ytick_6">
     <g id="line2d_25">
      <g>
       <use xlink:href="#m04d9b4c6c5" x="57.6" y="143.804723" style="stroke: #000000; stroke-width: 0.8"/>
      </g>
     </g>
     <g id="text_6">
      <!-- 20 -->
      <g transform="translate(37.875 147.603941) scale(0.1 -0.1)">
       <use xlink:href="#DejaVuSans-32"/>
       <use xlink:href="#DejaVuSans-30" x="63.623047"/>
      </g>
     </g>
    </g>
   </g>
   <g id="line2d_26">
    <path d="M 73.832727 181.40236 
L 74.918533 184.356229 
L 76.004338 188.615362 
L 78.175928 200.281455 
L 79.261733 202.919668 
L 80.347538 197.573301 
L 81.433343 186.350042 
L 82.519148 177.416183 
L 83.604954 173.743742 
L 84.690759 173.188812 
L 87.948154 174.542744 
L 92.291354 175.592054 
L 93.377159 176.110792 
L 94.462944 176.953016 
L 95.548749 178.343613 
L 96.634555 180.654803 
L 97.72036 184.479377 
L 98.806165 190.626715 
L 100.977755 209.025557 
L 102.06356 209.455085 
L 103.149345 192.99888 
L 104.23515 174.446254 
L 105.320955 166.807905 
L 106.40676 165.772534 
L 107.492566 166.141654 
L 108.578371 166.018549 
L 109.664176 164.973379 
L 110.749981 162.97883 
L 111.835766 160.145162 
L 112.921571 156.849779 
L 114.007376 154.062805 
L 115.093181 153.415589 
L 116.178987 156.133586 
L 118.350577 166.073466 
L 119.436382 168.890657 
L 120.522166 169.754256 
L 121.607972 169.356962 
L 122.693777 168.189616 
L 123.779582 166.408826 
L 124.865387 163.969259 
L 125.951192 160.808525 
L 128.122803 153.735331 
L 129.208588 152.437328 
L 130.294393 154.928082 
L 132.466003 166.130365 
L 133.551808 169.477851 
L 134.637593 170.572826 
L 135.723398 170.274163 
L 136.809203 169.198552 
L 137.894988 167.547564 
L 138.980793 165.259321 
L 140.066599 162.186488 
L 142.238209 154.212272 
L 143.323994 151.491254 
L 144.409799 152.570064 
L 145.495604 158.074971 
L 146.581389 164.913512 
L 147.667194 169.586747 
L 148.752999 171.446611 
L 149.838804 171.506676 
L 150.92461 170.672149 
L 152.010394 169.312736 
L 153.096199 167.422254 
L 154.182005 164.809818 
L 155.267789 161.257356 
L 157.4394 152.215019 
L 158.525205 149.883418 
L 159.61101 152.712817 
L 161.782621 167.699236 
L 162.868426 171.797324 
L 163.95421 172.962237 
L 165.040016 172.646842 
L 166.125821 171.724813 
L 167.211626 170.450408 
L 168.297431 168.736032 
L 169.383216 166.327102 
L 170.469021 162.897476 
L 171.554826 158.217918 
L 172.640611 152.669032 
L 173.726416 148.308018 
L 174.812221 149.187145 
L 175.898027 157.123319 
L 176.983832 166.930242 
L 178.069637 172.881693 
L 179.155442 174.798401 
L 180.241247 174.746343 
L 182.412837 173.314602 
L 183.498643 172.446042 
L 184.584448 171.337229 
L 185.670253 169.747145 
L 186.756038 167.3395 
L 187.841843 163.6653 
L 188.927648 158.261285 
L 191.099238 144.913233 
L 192.185043 145.482377 
L 193.270848 156.619265 
L 194.356654 169.890214 
L 195.442438 176.787568 
L 196.528243 178.449842 
L 197.614049 178.26896 
L 198.699833 177.973133 
L 199.785638 178.108748 
L 200.871444 178.818182 
L 201.957249 180.20991 
L 203.043054 182.493682 
L 204.128859 186.002445 
L 205.214644 191.064456 
L 206.30047 197.446942 
L 207.386254 202.937943 
L 208.47208 202.35482 
L 209.557865 192.78291 
L 210.643649 180.99155 
L 211.729475 174.352628 
L 212.81526 172.498649 
L 213.901044 172.612467 
L 214.98687 173.077363 
L 216.072655 173.354318 
L 217.158481 173.342861 
L 218.244265 173.04004 
L 219.33005 172.409995 
L 220.415876 171.335334 
L 221.50166 169.583203 
L 222.587445 166.763264 
L 223.673271 162.307669 
L 224.759055 155.652676 
L 225.844881 147.250588 
L 226.930666 141.357376 
L 228.01645 146.695511 
L 229.102276 162.975917 
L 230.188102 175.890494 
L 231.273887 180.377857 
L 232.359713 180.793407 
L 233.445497 180.498096 
L 234.531323 180.69741 
L 235.617108 181.708325 
L 236.702892 183.651726 
L 237.788718 186.658692 
L 238.874503 190.781008 
L 239.960287 195.566555 
L 241.046113 199.272335 
L 242.131898 198.750303 
L 243.217724 192.495751 
L 244.303508 184.167287 
L 245.389293 178.517266 
L 246.475119 176.358277 
L 247.560903 176.243197 
L 248.646688 176.972432 
L 249.732514 178.069958 
L 250.818298 179.51363 
L 251.904124 181.503244 
L 252.989909 184.352046 
L 254.075693 188.395606 
L 256.247304 199.313758 
L 257.333088 201.978068 
L 258.418914 197.554482 
L 259.504699 187.423217 
L 260.590525 178.740044 
L 261.676309 174.819203 
L 262.762094 174.066252 
L 263.84792 174.494956 
L 267.105315 176.613024 
L 268.191099 177.595309 
L 269.276925 179.034496 
L 270.36271 181.252791 
L 271.448494 184.704118 
L 272.53432 189.928378 
L 274.705931 204.459993 
L 275.791757 205.88326 
L 276.877541 195.499815 
L 277.963367 180.613407 
L 279.049152 172.172676 
L 280.134936 169.96652 
L 281.220762 170.052947 
L 282.306547 170.304319 
L 283.392331 170.033027 
L 284.478157 169.051008 
L 285.563942 167.226553 
L 286.649768 164.345516 
L 287.735552 160.162729 
L 289.907163 149.369229 
L 290.992947 147.622624 
L 292.078732 153.227237 
L 293.164558 163.539675 
L 294.250342 171.472451 
L 295.336168 174.734105 
L 296.421953 175.20041 
L 297.507737 174.692771 
L 299.679348 173.281886 
L 300.765132 172.463256 
L 301.850958 171.362382 
L 302.936743 169.726819 
L 304.022569 167.200322 
L 305.108353 163.297244 
L 306.194138 157.518038 
L 307.279964 150.034422 
L 308.365748 143.69351 
L 309.451533 145.499091 
L 311.623143 171.86012 
L 312.708969 178.061874 
L 313.794754 179.272645 
L 315.966364 178.848604 
L 317.05219 179.262724 
L 318.137975 180.391817 
L 319.223801 182.382659 
L 320.309585 185.477898 
L 321.395411 189.932788 
L 323.56698 200.884301 
L 324.652806 201.753198 
L 325.738591 194.8393 
L 326.824375 184.139493 
L 327.910201 176.782757 
L 328.995986 174.099045 
L 330.081812 173.889269 
L 332.253381 175.071746 
L 334.424991 176.324762 
L 335.510776 177.18098 
L 336.596602 178.449628 
L 337.682386 180.426802 
L 338.768212 183.546536 
L 339.853997 188.382242 
L 340.939781 195.358411 
L 342.025607 203.452481 
L 343.111392 207.396822 
L 344.197176 199.344808 
L 345.283002 183.309121 
L 346.368787 172.599781 
L 347.454613 169.349691 
L 348.540397 169.225428 
L 349.626182 169.496865 
L 350.712008 169.237342 
L 351.797792 168.19998 
L 352.883577 166.257326 
L 353.969403 163.236367 
L 355.055187 159.003267 
L 356.141013 153.878536 
L 357.226798 149.528165 
L 358.312582 149.422724 
L 359.398408 155.807931 
L 360.484234 164.997322 
L 361.570019 171.363077 
L 362.655845 173.801377 
L 363.741629 173.993744 
L 364.827455 173.343608 
L 365.91324 172.415718 
L 366.999024 171.272567 
L 368.08485 169.747705 
L 369.170635 167.553742 
L 370.256419 164.310747 
L 371.342245 159.630427 
L 373.513856 147.546058 
L 374.59964 146.24166 
L 375.685425 153.835562 
L 376.771251 165.815234 
L 377.857035 173.790439 
L 378.94282 176.505212 
L 380.028646 176.663843 
L 382.200256 175.813725 
L 383.286041 175.682801 
L 384.371825 175.796674 
L 385.457651 176.153961 
L 386.543436 176.809747 
L 387.62922 177.901827 
L 388.715046 179.684213 
L 389.800831 182.575435 
L 390.886657 187.188985 
L 391.972441 194.146397 
L 393.058226 202.96969 
L 394.144052 208.957401 
L 395.229836 202.602782 
L 396.315662 185.097366 
L 397.401447 172.150633 
L 398.487273 168.046921 
L 398.487273 168.046921 
" clip-path="url(#p2812ca6d8f)" style="fill: none; stroke: #0000cc; stroke-width: 1.5; stroke-linecap: square"/>
   </g>
   <g id="line2d_27">
    <path d="M 73.832727 181.40236 
L 74.918533 184.250383 
L 76.004338 188.3998 
L 78.175928 200.168938 
L 79.261733 203.33647 
L 80.347538 198.070474 
L 81.433343 186.195272 
L 82.519148 176.672883 
L 83.604954 172.977699 
L 84.690759 173.389448 
L 85.776544 173.27018 
L 86.862349 173.926619 
L 87.948154 174.18044 
L 89.033959 174.315705 
L 92.291354 173.710975 
L 93.377159 173.226728 
L 94.462944 172.38668 
L 95.548749 171.052287 
L 96.634555 168.844938 
L 97.72036 165.259543 
L 98.806165 159.537004 
L 99.89195 151.087178 
L 100.977755 141.366059 
L 102.06356 138.951529 
L 103.149345 154.670507 
L 104.23515 173.235841 
L 105.320955 182.382344 
L 106.40676 181.502509 
L 107.492566 186.3605 
L 108.578371 181.709598 
L 109.664176 186.355322 
L 110.749981 187.277052 
L 111.835766 190.882867 
L 112.921571 193.132475 
L 114.007376 194.610554 
L 115.093181 194.382524 
L 116.178987 191.217794 
L 117.264771 186.267117 
L 118.350577 182.980406 
L 119.436382 180.807177 
L 120.522166 179.794381 
L 121.607972 181.383652 
L 123.779582 183.995706 
L 128.122803 195.953198 
L 129.208588 195.427997 
L 130.294393 191.626697 
L 132.466003 181.406042 
L 133.551808 179.215396 
L 134.637593 180.350943 
L 135.723398 180.032052 
L 136.809203 181.20266 
L 137.894988 184.035448 
L 138.980793 185.997031 
L 140.066599 189.390734 
L 141.152404 193.497965 
L 142.238209 196.376573 
L 143.323994 197.009835 
L 144.409799 193.312544 
L 145.495604 186.23491 
L 146.581389 182.0017 
L 147.667194 180.17992 
L 148.752999 177.610667 
L 149.838804 179.312818 
L 150.92461 181.602051 
L 152.010394 181.74201 
L 153.096199 184.874391 
L 155.267789 191.922434 
L 156.353594 196.077275 
L 157.4394 198.158309 
L 158.525205 195.649046 
L 159.61101 189.860806 
L 160.696815 182.379547 
L 161.782621 177.048759 
L 162.868426 178.492234 
L 163.95421 179.022953 
L 165.040016 178.110801 
L 166.125821 181.350017 
L 167.211626 183.190442 
L 168.297431 185.642574 
L 171.554826 198.317428 
L 172.640611 199.182692 
L 173.726416 193.748514 
L 174.812221 185.674806 
L 175.898027 180.297858 
L 176.983832 176.43694 
L 178.069637 175.892213 
L 179.155442 178.105322 
L 180.241247 178.044059 
L 181.327032 179.54817 
L 183.498643 184.381837 
L 184.584448 188.266256 
L 186.756038 198.83474 
L 187.841843 201.693018 
L 188.927648 197.487 
L 190.013433 187.261115 
L 191.099238 179.001543 
L 192.185043 175.254388 
L 193.270848 174.254467 
L 194.356654 174.864881 
L 195.442438 175.927908 
L 196.528243 176.232616 
L 198.699833 178.520818 
L 199.785638 180.334169 
L 200.871444 183.053645 
L 201.957249 187.226957 
L 203.043054 193.204909 
L 204.128859 200.578161 
L 205.214644 205.914269 
L 206.30047 201.664424 
L 207.386254 187.438293 
L 208.47208 174.975138 
L 209.557865 169.854316 
L 210.643649 171.659929 
L 211.729475 170.729087 
L 212.81526 171.202469 
L 213.901044 170.725644 
L 214.98687 169.969882 
L 216.072655 167.682201 
L 217.158481 165.130082 
L 218.244265 160.659752 
L 219.33005 155.137214 
L 220.415876 148.58855 
L 221.50166 145.977507 
L 222.587445 151.300079 
L 223.673271 164.173751 
L 224.759055 172.128122 
L 225.844881 176.295234 
L 226.930666 174.59658 
L 228.01645 179.240516 
L 229.102276 173.383582 
L 230.188102 178.337339 
L 231.273887 175.789922 
L 232.359713 179.421901 
L 233.445497 179.052283 
L 235.617108 185.970707 
L 236.702892 191.541643 
L 237.788718 198.841707 
L 238.874503 205.369112 
L 239.960287 204.111683 
L 242.131898 176.957783 
L 243.217724 171.076604 
L 244.303508 171.796021 
L 245.389293 170.470363 
L 246.475119 171.627496 
L 247.560903 171.300857 
L 248.646688 170.670984 
L 250.818298 166.758568 
L 251.904124 162.878138 
L 252.989909 157.913404 
L 254.075693 151.182931 
L 255.161519 146.047696 
L 256.247304 147.056234 
L 258.418914 168.967629 
L 259.504699 176.000215 
L 260.590525 175.567584 
L 261.676309 180.126396 
L 262.762094 173.940131 
L 263.84792 179.676854 
L 264.933704 176.784544 
L 266.019489 181.199649 
L 267.105315 181.296128 
L 269.276925 190.142596 
L 271.448494 202.43545 
L 272.53432 203.506878 
L 273.620146 194.778385 
L 274.705931 181.619878 
L 275.791757 173.050937 
L 276.877541 172.356423 
L 277.963367 173.21398 
L 279.049152 172.258815 
L 280.134936 173.399978 
L 282.306547 172.845927 
L 284.478157 170.823087 
L 285.563942 168.680458 
L 286.649768 165.596963 
L 287.735552 160.667083 
L 288.821337 153.733084 
L 289.907163 145.513997 
L 290.992947 141.715438 
L 292.078732 150.848478 
L 293.164558 167.003533 
L 294.250342 178.155066 
L 295.336168 179.758937 
L 296.421953 179.351991 
L 297.507737 179.552541 
L 298.593563 180.272875 
L 299.679348 180.656178 
L 300.765132 182.893196 
L 301.850958 185.845111 
L 302.936743 190.094724 
L 305.108353 200.09125 
L 306.194138 200.821965 
L 307.279964 194.146355 
L 308.365748 183.959627 
L 309.451533 177.130503 
L 310.537359 174.905245 
L 311.623143 174.792348 
L 312.708969 175.387376 
L 314.880538 177.031539 
L 315.966364 178.180046 
L 317.05219 179.755584 
L 318.137975 182.13628 
L 319.223801 185.726248 
L 320.309585 190.983197 
L 322.481196 204.302286 
L 323.56698 204.058674 
L 324.652806 192.595773 
L 325.738591 178.836559 
L 326.824375 171.844235 
L 327.910201 171.694261 
L 328.995986 171.292817 
L 330.081812 171.667953 
L 331.167596 171.751183 
L 332.253381 171.127393 
L 333.339207 169.760725 
L 334.424991 167.811528 
L 335.510776 164.639604 
L 336.596602 160.015409 
L 338.768212 147.1244 
L 339.853997 144.938466 
L 340.939781 153.0647 
L 342.025607 165.84275 
L 343.111392 175.059124 
L 344.197176 176.920548 
L 345.283002 177.899115 
L 346.368787 176.363533 
L 347.454613 177.578986 
L 348.540397 176.536985 
L 349.626182 178.186768 
L 350.712008 178.782395 
L 351.797792 181.125947 
L 352.883577 184.002905 
L 353.969403 188.700854 
L 355.055187 195.223482 
L 356.141013 202.611586 
L 357.226798 206.128828 
L 358.312582 198.25466 
L 359.398408 183.278583 
L 360.484234 173.135319 
L 361.570019 169.758961 
L 362.655845 170.909381 
L 363.741629 170.572819 
L 364.827455 170.662583 
L 365.91324 169.773263 
L 366.999024 168.574045 
L 368.08485 165.847182 
L 369.170635 162.441552 
L 370.256419 157.185813 
L 371.342245 151.377144 
L 372.42803 146.649217 
L 373.513856 149.265275 
L 374.59964 158.540942 
L 375.685425 170.368936 
L 376.771251 174.043821 
L 377.857035 176.37577 
L 378.94282 173.749502 
L 380.028646 177.756882 
L 381.11443 172.757375 
L 382.200256 176.644277 
L 383.286041 174.087554 
L 384.371825 176.516693 
L 385.457651 175.288199 
L 386.543436 176.987044 
L 387.62922 177.449846 
L 388.715046 179.389388 
L 389.800831 182.032309 
L 390.886657 186.431504 
L 391.972441 193.192588 
L 393.058226 202.323475 
L 394.144052 210.104471 
L 395.229836 205.206774 
L 396.315662 185.95006 
L 397.401447 170.001691 
L 398.487273 163.183583 
L 398.487273 163.183583 
" clip-path="url(#p2812ca6d8f)" style="fill: none; stroke: #008800; stroke-width: 1.5; stroke-linecap: square"/>
   </g>
   <g id="line2d_28">
    <path d="M 73.832727 181.40236 
L 74.918533 184.356178 
L 76.004338 188.615302 
L 78.175928 200.281382 
L 79.261733 202.919659 
L 80.347538 197.573326 
L 81.433343 186.350242 
L 82.519148 177.416442 
L 83.604954 173.743942 
L 84.690759 173.18899 
L 87.948154 174.543134 
L 92.291354 175.593923 
L 93.377159 176.113598 
L 94.462944 176.957559 
L 95.548749 178.350856 
L 96.634555 180.666475 
L 97.72036 184.498043 
L 98.806165 190.655083 
L 100.977755 209.049727 
L 102.06356 209.420934 
L 103.149345 192.918959 
L 104.23515 174.400208 
L 105.320955 166.799703 
L 106.40676 165.776363 
L 107.492566 166.145614 
L 108.578371 166.019546 
L 109.664176 164.970998 
L 110.749981 162.973063 
L 111.835766 160.136216 
L 112.921571 156.839052 
L 114.007376 154.053845 
L 115.093181 153.414289 
L 116.178987 156.143116 
L 118.350577 166.087606 
L 119.436382 168.899298 
L 120.522166 169.758233 
L 121.607972 169.358028 
L 122.693777 168.1888 
L 123.779582 166.4063 
L 124.865387 163.964754 
L 125.951192 160.801762 
L 128.122803 153.72665 
L 129.208588 152.433633 
L 130.294393 154.933801 
L 132.466003 166.142793 
L 133.551808 169.486304 
L 134.637593 170.577562 
L 135.723398 170.276653 
L 136.809203 169.19985 
L 137.894988 167.547965 
L 138.980793 165.258708 
L 140.066599 162.184404 
L 142.238209 154.206224 
L 143.323994 151.485092 
L 144.409799 152.567985 
L 145.495604 158.079383 
L 146.581389 164.921784 
L 147.667194 169.59443 
L 148.752999 171.452424 
L 149.838804 171.511155 
L 150.92461 170.676163 
L 152.010394 169.316866 
L 153.096199 167.426864 
L 154.182005 164.81484 
L 155.267789 161.262331 
L 157.4394 152.214573 
L 158.525205 149.876436 
L 159.61101 152.701314 
L 161.782621 167.699091 
L 162.868426 171.80195 
L 163.95421 172.968551 
L 165.040016 172.653822 
L 166.125821 171.73266 
L 167.211626 170.459906 
L 168.297431 168.748157 
L 169.383216 166.342974 
L 170.469021 162.917841 
L 171.554826 158.241688 
L 172.640611 152.689534 
L 173.726416 148.309774 
L 174.812221 149.155916 
L 175.898027 157.075183 
L 176.983832 166.899516 
L 178.069637 172.875612 
L 179.155442 174.805562 
L 180.241247 174.758094 
L 182.412837 173.330675 
L 183.498643 172.466714 
L 184.584448 171.365575 
L 185.670253 169.787828 
L 186.756038 167.398699 
L 187.841843 163.75048 
L 188.927648 158.376038 
L 191.099238 144.967607 
L 192.185043 145.349244 
L 193.270848 156.359103 
L 194.356654 169.719605 
L 195.442438 176.746693 
L 196.528243 178.46702 
L 197.614049 178.298108 
L 198.699833 177.999804 
L 199.785638 178.13167 
L 200.871444 178.839578 
L 201.957249 180.2321 
L 203.043054 182.518015 
L 204.128859 186.028483 
L 205.214644 191.087898 
L 206.30047 197.455571 
L 207.386254 202.91144 
L 208.47208 202.290348 
L 209.557865 192.729371 
L 210.643649 180.989459 
L 211.729475 174.384781 
L 212.81526 172.540109 
L 213.901044 172.655937 
L 214.98687 173.125101 
L 216.072655 173.412064 
L 217.158481 173.418672 
L 218.244265 173.145362 
L 219.33005 172.562152 
L 220.415876 171.561557 
L 221.50166 169.925929 
L 222.587445 167.285495 
L 223.673271 163.087794 
L 224.759055 156.723168 
L 225.844881 148.361134 
L 226.930666 141.536124 
L 228.01645 144.910584 
L 230.188102 174.830547 
L 231.273887 180.291949 
L 232.359713 180.990627 
L 233.445497 180.68732 
L 234.531323 180.808341 
L 235.617108 181.734302 
L 236.702892 183.589421 
L 237.788718 186.49212 
L 238.874503 190.490784 
L 239.960287 195.171876 
L 241.046113 198.917553 
L 242.131898 198.723122 
L 243.217724 192.927496 
L 244.303508 184.772981 
L 245.389293 178.988922 
L 246.475119 176.653179 
L 247.560903 176.441226 
L 248.646688 177.144945 
L 249.732514 178.257963 
L 250.818298 179.73967 
L 251.904124 181.781801 
L 252.989909 184.68951 
L 254.075693 188.774301 
L 256.247304 199.393623 
L 257.333088 201.537156 
L 258.418914 196.709662 
L 259.504699 186.80847 
L 260.590525 178.66121 
L 261.676309 175.068733 
L 262.762094 174.429372 
L 263.84792 174.902296 
L 266.019489 176.443665 
L 267.105315 177.398165 
L 268.191099 178.700923 
L 269.276925 180.636221 
L 270.36271 183.596632 
L 271.448494 188.07028 
L 272.53432 194.380388 
L 273.620146 201.632837 
L 274.705931 205.564087 
L 275.791757 199.600051 
L 276.877541 185.772544 
L 277.963367 175.169247 
L 279.049152 171.280042 
L 280.134936 170.84734 
L 281.220762 171.200902 
L 282.306547 171.305072 
L 283.392331 170.877942 
L 284.478157 169.818194 
L 285.563942 167.972851 
L 286.649768 165.065989 
L 287.735552 160.74255 
L 289.907163 148.584564 
L 290.992947 145.776024 
L 292.078732 151.507301 
L 293.164558 163.42379 
L 294.250342 172.658635 
L 295.336168 176.290523 
L 296.421953 176.776293 
L 298.593563 175.936832 
L 299.679348 175.770062 
L 300.765132 175.863452 
L 301.850958 176.214545 
L 302.936743 176.874072 
L 304.022569 177.976778 
L 305.108353 179.774351 
L 306.194138 182.682265 
L 307.279964 187.30427 
L 308.365748 194.236345 
L 309.451533 202.945741 
L 310.537359 208.706349 
L 311.623143 202.252724 
L 312.708969 184.982407 
L 313.794754 172.335096 
L 314.880538 168.301625 
L 315.966364 168.060687 
L 317.05219 168.333101 
L 318.137975 168.012833 
L 319.223801 166.822755 
L 320.309585 164.660708 
L 321.395411 161.442404 
L 323.56698 152.885262 
L 324.652806 150.416604 
L 325.738591 152.616935 
L 327.910201 166.746525 
L 328.995986 171.058468 
L 330.081812 172.447849 
L 331.167596 172.239155 
L 332.253381 171.324945 
L 333.339207 169.996513 
L 334.424991 168.188517 
L 335.510776 165.662165 
L 336.596602 162.12509 
L 337.682386 157.445237 
L 338.768212 152.216647 
L 339.853997 148.728505 
L 340.939781 150.68934 
L 343.111392 167.587581 
L 344.197176 172.628624 
L 345.283002 174.140912 
L 346.368787 173.952378 
L 347.454613 173.193932 
L 348.540397 172.231976 
L 349.626182 171.037822 
L 350.712008 169.405652 
L 351.797792 167.02174 
L 352.883577 163.484986 
L 353.969403 158.42508 
L 355.055187 152.033274 
L 356.141013 146.461882 
L 357.226798 146.872259 
L 358.312582 156.338323 
L 359.398408 168.21459 
L 360.484234 174.976982 
L 361.570019 176.891297 
L 362.655845 176.793748 
L 363.741629 176.331651 
L 364.827455 176.058401 
L 365.91324 176.079804 
L 366.999024 176.401759 
L 368.08485 177.063775 
L 369.170635 178.189605 
L 370.256419 180.021951 
L 371.342245 182.964164 
L 372.42803 187.590361 
L 373.513856 194.422655 
L 374.59964 202.791228 
L 375.685425 207.965246 
L 376.771251 201.372053 
L 377.857035 184.831918 
L 378.94282 172.896293 
L 380.028646 169.002508 
L 381.11443 168.742054 
L 382.200256 169.024405 
L 383.286041 168.776974 
L 384.371825 167.718414 
L 385.457651 165.727146 
L 386.543436 162.661253 
L 387.62922 158.458589 
L 388.715046 153.581923 
L 389.800831 149.8411 
L 390.886657 150.49621 
L 391.972441 157.020835 
L 393.058226 165.516412 
L 394.144052 171.15069 
L 395.229836 173.238243 
L 396.315662 173.310431 
L 397.401447 172.577896 
L 398.487273 171.507763 
L 398.487273 171.507763 
" clip-path="url(#p2812ca6d8f)" style="fill: none; stroke: #ff0000; stroke-width: 1.5; stroke-linecap: square"/>
   </g>
   <g id="patch_8">
    <path d="M 57.6 213.662118 
L 57.6 135.393882 
" style="fill: none; stroke: #000000; stroke-width: 0.8; stroke-linejoin: miter; stroke-linecap: square"/>
   </g>
   <g id="patch_9">
    <path d="M 414.72 213.662118 
L 414.72 135.393882 
" style="fill: none; stroke: #000000; stroke-width: 0.8; stroke-linejoin: miter; stroke-linecap: square"/>
   </g>
   <g id="patch_10">
    <path d="M 57.6 213.662118 
L 414.72 213.662118 
" style="fill: none; stroke: #000000; stroke-width: 0.8; stroke-linejoin: miter; stroke-linecap: square"/>
   </g>
   <g id="patch_11">
    <path d="M 57.6 135.393882 
L 414.72 135.393882 
" style="fill: none; stroke: #000000; stroke-width: 0.8; stroke-linejoin: miter; stroke-linecap: square"/>
   </g>
  </g>
  <g id="axes_3">
   <g id="patch_12">
    <path d="M 57.6 307.584 
L 414.72 307.584 
L 414.72 229.315765 
L 57.6 229.315765 
z
" style="fill: #ffffff"/>
   </g>
   <g id="matplotlib.axis_5">
    <g id="xtick_17">
     <g id="line2d_29">
      <g>
       <use xlink:href="#md258cbd3cf" x="73.832727" y="307.584" style="stroke: #000000; stroke-width: 0.8"/>
      </g>
     </g>
     <g id="text_7">
      <!-- 10 -->
      <g transform="translate(67.470227 322.182437) scale(0.1 -0.1)">
       <use xlink:href="#DejaVuSans-31"/>
       <use xlink:href="#DejaVuSans-30" x="63.623047"/>
      </g>
     </g>
    </g>
    <g id="xtick_18">
     <g id="line2d_30">
      <g>
       <use xlink:href="#md258cbd3cf" x="117.264771" y="307.584" style="stroke: #000000; stroke-width: 0.8"/>
      </g>
     </g>
     <g id="text_8">
      <!-- 12 -->
      <g transform="translate(110.902271 322.182437) scale(0.1 -0.1)">
       <use xlink:href="#DejaVuSans-31"/>
       <use xlink:href="#DejaVuSans-32" x="63.623047"/>
      </g>
     </g>
    </g>
    <g id="xtick_19">
     <g id="line2d_31">
      <g>
       <use xlink:href="#md258cbd3cf" x="160.696815" y="307.584" style="stroke: #000000; stroke-width: 0.8"/>
      </g>
     </g>
     <g id="text_9">
      <!-- 14 -->
      <g transform="translate(154.334315 322.182437) scale(0.1 -0.1)">
       <defs>
        <path id="DejaVuSans-34" d="M 2419 4116 
L 825 1625 
L 2419 1625 
L 2419 4116 
z
M 2253 4666 
L 3047 4666 
L 3047 1625 
L 3713 1625 
L 3713 1100 
L 3047 1100 
L 3047 0 
L 2419 0 
L 2419 1100 
L 313 1100 
L 313 1709 
L 2253 4666 
z
" transform="scale(0.015625)"/>
       </defs>
       <use xlink:href="#DejaVuSans-31"/>
       <use xlink:href="#DejaVuSans-34" x="63.623047"/>
      </g>
     </g>
    </g>
    <g id="xtick_20">
     <g id="line2d_32">
      <g>
       <use xlink:href="#md258cbd3cf" x="204.128859" y="307.584" style="stroke: #000000; stroke-width: 0.8"/>
      </g>
     </g>
     <g id="text_10">
      <!-- 16 -->
      <g transform="translate(197.766359 322.182437) scale(0.1 -0.1)">
       <defs>
        <path id="DejaVuSans-36" d="M 2113 2584 
Q 1688 2584 1439 2293 
Q 1191 2003 1191 1497 
Q 1191 994 1439 701 
Q 1688 409 2113 409 
Q 2538 409 2786 701 
Q 3034 994 3034 1497 
Q 3034 2003 2786 2293 
Q 2538 2584 2113 2584 
z
M 3366 4563 
L 3366 3988 
Q 3128 4100 2886 4159 
Q 2644 4219 2406 4219 
Q 1781 4219 1451 3797 
Q 1122 3375 1075 2522 
Q 1259 2794 1537 2939 
Q 1816 3084 2150 3084 
Q 2853 3084 3261 2657 
Q 3669 2231 3669 1497 
Q 3669 778 3244 343 
Q 2819 -91 2113 -91 
Q 1303 -91 875 529 
Q 447 1150 447 2328 
Q 447 3434 972 4092 
Q 1497 4750 2381 4750 
Q 2619 4750 2861 4703 
Q 3103 4656 3366 4563 
z
" transform="scale(0.015625)"/>
       </defs>
       <use xlink:href="#DejaVuSans-31"/>
       <use xlink:href="#DejaVuSans-36" x="63.623047"/>
      </g>
     </g>
    </g>
    <g id="xtick_21">
     <g id="line2d_33">
      <g>
       <use xlink:href="#md258cbd3cf" x="247.560903" y="307.584" style="stroke: #000000; stroke-width: 0.8"/>
      </g>
     </g>
     <g id="text_11">
      <!-- 18 -->
      <g transform="translate(241.198403 322.182437) scale(0.1 -0.1)">
       <defs>
        <path id="DejaVuSans-38" d="M 2034 2216 
Q 1584 2216 1326 1975 
Q 1069 1734 1069 1313 
Q 1069 891 1326 650 
Q 1584 409 2034 409 
Q 2484 409 2743 651 
Q 3003 894 3003 1313 
Q 3003 1734 2745 1975 
Q 2488 2216 2034 2216 
z
M 1403 2484 
Q 997 2584 770 2862 
Q 544 3141 544 3541 
Q 544 4100 942 4425 
Q 1341 4750 2034 4750 
Q 2731 4750 3128 4425 
Q 3525 4100 3525 3541 
Q 3525 3141 3298 2862 
Q 3072 2584 2669 2484 
Q 3125 2378 3379 2068 
Q 3634 1759 3634 1313 
Q 3634 634 3220 271 
Q 2806 -91 2034 -91 
Q 1263 -91 848 271 
Q 434 634 434 1313 
Q 434 1759 690 2068 
Q 947 2378 1403 2484 
z
M 1172 3481 
Q 1172 3119 1398 2916 
Q 1625 2713 2034 2713 
Q 2441 2713 2670 2916 
Q 2900 3119 2900 3481 
Q 2900 3844 2670 4047 
Q 2441 4250 2034 4250 
Q 1625 4250 1398 4047 
Q 1172 3844 1172 3481 
z
" transform="scale(0.015625)"/>
       </defs>
       <use xlink:href="#DejaVuSans-31"/>
       <use xlink:href="#DejaVuSans-38" x="63.623047"/>
      </g>
     </g>
    </g>
    <g id="xtick_22">
     <g id="line2d_34">
      <g>
       <use xlink:href="#md258cbd3cf" x="290.992947" y="307.584" style="stroke: #000000; stroke-width: 0.8"/>
      </g>
     </g>
     <g id="text_12">
      <!-- 20 -->
      <g transform="translate(284.630447 322.182437) scale(0.1 -0.1)">
       <use xlink:href="#DejaVuSans-32"/>
       <use xlink:href="#DejaVuSans-30" x="63.623047"/>
      </g>
     </g>
    </g>
    <g id="xtick_23">
     <g id="line2d_35">
      <g>
       <use xlink:href="#md258cbd3cf" x="334.424991" y="307.584" style="stroke: #000000; stroke-width: 0.8"/>
      </g>
     </g>
     <g id="text_13">
      <!-- 22 -->
      <g transform="translate(328.062491 322.182437) scale(0.1 -0.1)">
       <use xlink:href="#DejaVuSans-32"/>
       <use xlink:href="#DejaVuSans-32" x="63.623047"/>
      </g>
     </g>
    </g>
    <g id="xtick_24">
     <g id="line2d_36">
      <g>
       <use xlink:href="#md258cbd3cf" x="377.857035" y="307.584" style="stroke: #000000; stroke-width: 0.8"/>
      </g>
     </g>
     <g id="text_14">
      <!-- 24 -->
      <g transform="translate(371.494535 322.182437) scale(0.1 -0.1)">
       <use xlink:href="#DejaVuSans-32"/>
       <use xlink:href="#DejaVuSans-34" x="63.623047"/>
      </g>
     </g>
    </g>
   </g>
   <g id="matplotlib.axis_6">
    <g id="ytick_7">
     <g id="line2d_37">
      <g>
       <use xlink:href="#m04d9b4c6c5" x="57.6" y="278.01138" style="stroke: #000000; stroke-width: 0.8"/>
      </g>
     </g>
     <g id="text_15">
      <!-- 20 -->
      <g transform="translate(37.875 281.810598) scale(0.1 -0.1)">
       <use xlink:href="#DejaVuSans-32"/>
       <use xlink:href="#DejaVuSans-30" x="63.623047"/>
      </g>
     </g>
    </g>
    <g id="ytick_8">
     <g id="line2d_38">
      <g>
       <use xlink:href="#m04d9b4c6c5" x="57.6" y="239.598312" style="stroke: #000000; stroke-width: 0.8"/>
      </g>
     </g>
     <g id="text_16">
      <!-- 40 -->
      <g transform="translate(37.875 243.397531) scale(0.1 -0.1)">
       <use xlink:href="#DejaVuSans-34"/>
       <use xlink:href="#DejaVuSans-30" x="63.623047"/>
      </g>
     </g>
    </g>
   </g>
   <g id="line2d_39">
    <path d="M 73.832727 286.76419 
L 74.918533 288.885071 
L 76.004338 289.184467 
L 77.090122 286.280371 
L 78.175928 278.069978 
L 80.347538 248.519931 
L 81.433343 242.580362 
L 82.519148 247.173688 
L 84.690759 263.488214 
L 85.776544 270.277657 
L 86.862349 276.09289 
L 87.948154 281.138753 
L 89.033959 285.543501 
L 90.119764 289.395186 
L 91.205549 292.763061 
L 92.291354 295.703998 
L 93.377159 298.261947 
L 94.462944 300.460648 
L 95.548749 302.281924 
L 96.634555 303.603161 
L 97.72036 304.026353 
L 98.806165 302.434072 
L 99.89195 296.056736 
L 100.977755 279.918803 
L 102.06356 252.974813 
L 103.149345 232.899895 
L 104.23515 235.807447 
L 105.320955 248.290164 
L 106.40676 258.594864 
L 107.492566 265.789566 
L 108.578371 271.00568 
L 109.664176 274.767156 
L 110.749981 277.048461 
L 111.835766 277.465409 
L 112.921571 275.39061 
L 114.007376 270.321225 
L 116.178987 255.669884 
L 117.264771 252.232117 
L 118.350577 253.567708 
L 119.436382 257.903973 
L 121.607972 268.250089 
L 122.693777 272.686627 
L 123.779582 276.222851 
L 124.865387 278.548209 
L 125.951192 279.15818 
L 127.036998 277.296667 
L 128.122803 272.203019 
L 130.294393 255.699917 
L 131.380198 251.144822 
L 132.466003 252.135967 
L 133.551808 256.727041 
L 135.723398 267.915191 
L 136.809203 272.756174 
L 137.894988 276.740016 
L 138.980793 279.627693 
L 140.066599 280.989298 
L 141.152404 280.082469 
L 142.238209 275.900146 
L 143.323994 267.911312 
L 144.409799 257.898382 
L 145.495604 250.65239 
L 146.581389 249.803272 
L 147.667194 254.056709 
L 149.838804 266.256087 
L 150.92461 271.697451 
L 152.010394 276.340339 
L 153.096199 280.059031 
L 154.182005 282.592975 
L 155.267789 283.405067 
L 156.353594 281.528439 
L 157.4394 275.675452 
L 158.525205 265.45424 
L 159.61101 253.999249 
L 160.696815 247.659698 
L 161.782621 249.125626 
L 162.868426 255.116114 
L 165.040016 268.362585 
L 166.125821 273.923279 
L 167.211626 278.680101 
L 168.297431 282.591295 
L 169.383216 285.482567 
L 170.469021 286.917945 
L 171.554826 285.980104 
L 172.640611 281.096775 
L 173.726416 270.735303 
L 174.812221 256.528182 
L 175.898027 246.026129 
L 176.983832 245.426151 
L 178.069637 251.741505 
L 180.241247 266.712566 
L 181.327032 272.886995 
L 182.412837 278.232159 
L 183.498643 282.860786 
L 184.584448 286.824257 
L 185.670253 290.10315 
L 186.756038 292.548145 
L 187.841843 293.725418 
L 188.927648 292.585431 
L 190.013433 286.987962 
L 191.099238 274.085053 
L 192.185043 254.89318 
L 193.270848 240.703302 
L 194.356654 241.149524 
L 197.614049 266.916694 
L 198.699833 273.196667 
L 199.785638 278.486438 
L 200.871444 282.953793 
L 201.957249 286.619177 
L 203.043054 289.345388 
L 204.128859 290.710974 
L 205.214644 289.732888 
L 206.30047 284.525966 
L 207.386254 272.826201 
L 208.47208 255.874346 
L 209.557865 243.141865 
L 210.643649 242.853705 
L 211.729475 250.536355 
L 212.81526 259.260958 
L 213.901044 266.787936 
L 214.98687 273.128514 
L 216.072655 278.567319 
L 217.158481 283.285356 
L 218.244265 287.386394 
L 219.33005 290.933601 
L 220.415876 293.949882 
L 221.50166 296.385812 
L 222.587445 298.027347 
L 223.673271 298.262233 
L 224.759055 295.570106 
L 225.844881 286.841809 
L 226.930666 268.650499 
L 228.01645 245.821785 
L 229.102276 235.662794 
L 230.188102 242.220226 
L 231.273887 253.132319 
L 232.359713 262.129964 
L 233.445497 269.032569 
L 234.531323 274.511037 
L 235.617108 278.860354 
L 236.702892 282.039901 
L 237.788718 283.700271 
L 238.874503 283.073587 
L 239.960287 278.916513 
L 241.046113 270.15468 
L 242.131898 258.209123 
L 243.217724 248.88095 
L 244.303508 247.404247 
L 245.389293 252.291606 
L 247.560903 265.965062 
L 248.646688 271.904209 
L 249.732514 277.035562 
L 250.818298 281.36437 
L 251.904124 284.804966 
L 252.989909 287.087159 
L 254.075693 287.581471 
L 255.161519 285.038738 
L 256.247304 277.607045 
L 258.418914 250.308738 
L 259.504699 243.932918 
L 260.590525 247.468387 
L 262.762094 262.962762 
L 263.84792 269.714088 
L 264.933704 275.531863 
L 266.019489 280.579788 
L 267.105315 284.961678 
L 268.191099 288.729565 
L 269.276925 291.878928 
L 270.36271 294.295508 
L 271.448494 295.618033 
L 272.53432 294.921953 
L 273.620146 290.170096 
L 274.705931 278.12961 
L 275.791757 258.163654 
L 276.877541 240.748912 
L 277.963367 238.916231 
L 279.049152 247.821432 
L 280.134936 257.665332 
L 281.220762 265.63831 
L 282.306547 272.038048 
L 283.392331 277.319718 
L 284.478157 281.66166 
L 285.563942 285.023348 
L 286.649768 287.122062 
L 287.735552 287.264436 
L 288.821337 284.102035 
L 289.907163 275.793833 
L 292.078732 248.679759 
L 293.164558 244.043988 
L 294.250342 248.622999 
L 296.421953 264.089859 
L 297.507737 270.672067 
L 298.593563 276.353145 
L 299.679348 281.283941 
L 300.765132 285.556286 
L 301.850958 289.209188 
L 302.936743 292.213651 
L 304.022569 294.402419 
L 305.108353 295.292444 
L 306.194138 293.704324 
L 307.279964 287.219044 
L 308.365748 272.746081 
L 309.451533 252.168759 
L 310.537359 238.766628 
L 311.623143 241.156219 
L 313.794754 260.20484 
L 314.880538 267.66249 
L 315.966364 273.728744 
L 317.05219 278.772491 
L 318.137975 282.911457 
L 319.223801 286.067375 
L 320.309585 287.905821 
L 321.395411 287.638335 
L 322.481196 283.764146 
L 323.56698 274.375671 
L 324.652806 259.802932 
L 325.738591 246.832913 
L 326.824375 243.829052 
L 327.910201 249.514302 
L 330.081812 265.179468 
L 331.167596 271.652015 
L 332.253381 277.236351 
L 333.339207 282.091003 
L 334.424991 286.313405 
L 335.510776 289.959433 
L 336.596602 293.039081 
L 337.682386 295.475311 
L 338.768212 296.990534 
L 339.853997 296.833291 
L 340.939781 293.230555 
L 342.025607 282.906944 
L 344.197176 242.777779 
L 345.283002 236.862883 
L 346.368787 244.909564 
L 347.454613 255.361784 
L 348.540397 263.835952 
L 349.626182 270.474935 
L 350.712008 275.844764 
L 351.797792 280.171663 
L 352.883577 283.402801 
L 353.969403 285.199907 
L 355.055187 284.794149 
L 356.141013 280.845946 
L 357.226798 271.947168 
L 358.312582 259.053113 
L 359.398408 248.270719 
L 360.484234 246.032246 
L 361.570019 251.083728 
L 363.741629 265.51363 
L 364.827455 271.70241 
L 365.91324 277.06125 
L 366.999024 281.661183 
L 368.08485 285.503465 
L 369.170635 288.470917 
L 370.256419 290.216504 
L 371.342245 289.919756 
L 372.42803 285.940329 
L 373.513856 275.981576 
L 375.685425 245.359195 
L 376.771251 242.13838 
L 377.857035 248.585802 
L 378.94282 257.332249 
L 380.028646 265.138558 
L 381.11443 271.721064 
L 382.200256 277.353843 
L 383.286041 282.238357 
L 384.371825 286.494018 
L 385.457651 290.199589 
L 386.543436 293.406663 
L 387.62922 296.131996 
L 388.715046 298.322096 
L 389.800831 299.754325 
L 390.886657 299.787576 
L 391.972441 296.800071 
L 393.058226 287.415518 
L 394.144052 267.916536 
L 395.229836 243.978245 
L 396.315662 234.511712 
L 397.401447 242.248265 
L 398.487273 253.517389 
L 398.487273 253.517389 
" clip-path="url(#p6a6d6ae1bd)" style="fill: none; stroke: #0000cc; stroke-width: 1.5; stroke-linecap: square"/>
   </g>
   <g id="line2d_40">
    <path d="M 73.832727 286.76419 
L 74.918533 288.85798 
L 76.004338 289.255383 
L 77.090122 286.605504 
L 78.175928 278.71682 
L 80.347538 248.215897 
L 81.433343 242.158974 
L 82.519148 246.920057 
L 84.690759 263.959879 
L 85.776544 270.54625 
L 87.948154 281.367972 
L 89.033959 285.758654 
L 91.205549 292.844533 
L 92.291354 295.709913 
L 93.377159 298.201645 
L 94.462944 300.341767 
L 95.548749 302.109325 
L 96.634555 303.400021 
L 97.72036 303.874218 
L 98.806165 302.584487 
L 99.89195 297.146212 
L 100.977755 282.758846 
L 102.06356 255.983791 
L 103.149345 234.240482 
L 104.23515 234.858303 
L 105.320955 248.216578 
L 107.492566 266.547326 
L 108.578371 268.413993 
L 109.664176 274.272685 
L 110.749981 275.178763 
L 111.835766 275.01053 
L 112.921571 272.119824 
L 114.007376 266.627051 
L 115.093181 260.534452 
L 116.178987 255.25331 
L 117.264771 252.991117 
L 118.350577 255.953024 
L 119.436382 260.607704 
L 120.522166 264.406708 
L 121.607972 269.681152 
L 122.693777 273.682312 
L 124.865387 277.885872 
L 125.951192 277.36469 
L 127.036998 273.870449 
L 128.122803 268.342772 
L 129.208588 260.188789 
L 130.294393 253.479194 
L 131.380198 252.58539 
L 132.466003 254.63059 
L 133.551808 258.745763 
L 134.637593 265.851676 
L 135.723398 270.091678 
L 136.809203 273.520325 
L 137.894988 277.874016 
L 138.980793 279.073901 
L 140.066599 278.985874 
L 141.152404 276.951581 
L 142.238209 270.130168 
L 143.323994 261.39847 
L 144.409799 253.878962 
L 145.495604 249.783411 
L 146.581389 252.860951 
L 147.667194 259.760383 
L 148.752999 263.319328 
L 149.838804 268.727399 
L 150.92461 274.890994 
L 152.010394 277.016802 
L 153.096199 279.96406 
L 154.182005 281.407437 
L 155.267789 278.752891 
L 156.353594 274.180121 
L 157.4394 265.601071 
L 158.525205 254.715842 
L 159.61101 249.849589 
L 160.696815 250.9373 
L 161.782621 253.93678 
L 162.868426 262.441352 
L 163.95421 269.212894 
L 165.040016 272.14785 
L 166.125821 277.714659 
L 167.211626 281.043054 
L 168.297431 282.175221 
L 169.383216 282.812931 
L 170.469021 279.590247 
L 171.554826 271.802372 
L 173.726416 250.42219 
L 174.812221 247.154595 
L 176.983832 258.092136 
L 178.069637 263.654916 
L 179.155442 271.305388 
L 180.241247 275.899734 
L 182.412837 283.958867 
L 183.498643 285.925904 
L 184.584448 286.454637 
L 185.670253 284.399578 
L 186.756038 277.177935 
L 187.841843 264.629615 
L 188.927648 250.722324 
L 190.013433 244.186927 
L 191.099238 247.898619 
L 192.185043 255.931611 
L 194.356654 269.646894 
L 195.442438 275.791339 
L 197.614049 284.852035 
L 198.699833 288.525946 
L 199.785638 291.414133 
L 200.871444 293.42645 
L 201.957249 294.009873 
L 203.043054 291.758918 
L 204.128859 284.205315 
L 205.214644 268.384152 
L 206.30047 247.966062 
L 207.386254 238.690177 
L 208.47208 243.504926 
L 209.557865 252.643351 
L 210.643649 262.84127 
L 211.729475 269.588897 
L 213.901044 280.12349 
L 214.98687 284.411288 
L 216.072655 287.469427 
L 217.158481 289.550219 
L 218.244265 289.901519 
L 219.33005 286.970703 
L 220.415876 278.789902 
L 222.587445 247.674954 
L 223.673271 242.186778 
L 224.759055 246.15573 
L 225.844881 256.317864 
L 228.01645 271.074347 
L 229.102276 274.451658 
L 230.188102 280.890445 
L 231.273887 283.407056 
L 232.359713 288.519557 
L 233.445497 290.607902 
L 234.531323 293.545732 
L 235.617108 294.148573 
L 236.702892 292.949912 
L 237.788718 287.062387 
L 238.874503 273.114099 
L 239.960287 252.447507 
L 241.046113 239.08365 
L 242.131898 241.048746 
L 244.303508 261.378821 
L 245.389293 267.960311 
L 247.560903 279.253436 
L 248.646688 283.715401 
L 249.732514 287.067302 
L 250.818298 289.700783 
L 251.904124 290.933001 
L 252.989909 289.644742 
L 254.075693 284.12695 
L 255.161519 271.51716 
L 256.247304 254.05424 
L 257.333088 242.309283 
L 258.418914 242.719586 
L 259.504699 252.296239 
L 260.590525 259.71833 
L 261.676309 268.210637 
L 262.762094 272.043992 
L 263.84792 278.858348 
L 264.933704 280.945884 
L 266.019489 286.557519 
L 267.105315 288.202271 
L 268.191099 290.672679 
L 269.276925 289.786576 
L 270.36271 285.628098 
L 271.448494 275.465676 
L 272.53432 258.154563 
L 273.620146 243.590938 
L 274.705931 241.982345 
L 275.791757 248.574445 
L 276.877541 258.300795 
L 277.963367 267.018389 
L 281.220762 283.028738 
L 282.306547 287.082141 
L 283.392331 290.516351 
L 284.478157 293.553368 
L 285.563942 295.831954 
L 286.649768 297.195922 
L 287.735552 296.918804 
L 288.821337 293.158143 
L 289.907163 282.660881 
L 292.078732 241.519398 
L 293.164558 237.391589 
L 294.250342 245.722695 
L 296.421953 264.409644 
L 297.507737 270.92912 
L 298.593563 276.134792 
L 299.679348 280.368694 
L 300.765132 283.946224 
L 301.850958 285.676804 
L 302.936743 285.454365 
L 304.022569 281.802508 
L 305.108353 272.975422 
L 306.194138 259.423912 
L 307.279964 247.548054 
L 308.365748 244.999668 
L 309.451533 250.571442 
L 311.623143 265.698551 
L 312.708969 271.914872 
L 313.794754 277.455217 
L 314.880538 282.103272 
L 315.966364 286.106534 
L 317.05219 289.414208 
L 318.137975 291.861325 
L 319.223801 293.059164 
L 320.309585 292.038086 
L 321.395411 286.736027 
L 322.481196 274.202759 
L 323.56698 254.76196 
L 324.652806 240.63272 
L 325.738591 241.20756 
L 326.824375 249.990493 
L 327.910201 260.06725 
L 328.995986 267.480256 
L 331.167596 278.861951 
L 332.253381 283.428159 
L 333.339207 287.060264 
L 334.424991 289.953064 
L 335.510776 291.701405 
L 336.596602 291.509988 
L 337.682386 287.79539 
L 338.768212 277.86683 
L 340.939781 244.431498 
L 342.025607 240.923266 
L 343.111392 247.969695 
L 345.283002 265.150417 
L 347.454613 277.397341 
L 349.626182 286.27331 
L 351.797792 292.323174 
L 352.883577 293.898898 
L 353.969403 293.919244 
L 355.055187 290.507451 
L 356.141013 280.787864 
L 358.312582 243.507298 
L 359.398408 238.755555 
L 360.484234 246.338985 
L 362.655845 264.65267 
L 363.741629 271.257271 
L 364.827455 276.61595 
L 365.91324 281.214187 
L 366.999024 285.030425 
L 368.08485 287.609148 
L 369.170635 288.690248 
L 370.256419 287.290293 
L 371.342245 281.34903 
L 372.42803 269.323052 
L 373.513856 253.070281 
L 374.59964 243.573493 
L 375.685425 245.458843 
L 376.771251 251.635861 
L 377.857035 261.474788 
L 378.94282 267.638883 
L 380.028646 274.5885 
L 381.11443 277.930499 
L 382.200256 283.679449 
L 383.286041 286.445737 
L 384.371825 290.899776 
L 385.457651 293.415916 
L 386.543436 296.491009 
L 388.715046 300.598515 
L 389.800831 301.759815 
L 390.886657 301.837818 
L 391.972441 299.281234 
L 393.058226 290.853549 
L 394.144052 271.582429 
L 395.229836 244.174436 
L 396.315662 233.194973 
L 397.401447 240.528279 
L 398.487273 249.445463 
L 398.487273 249.445463 
" clip-path="url(#p6a6d6ae1bd)" style="fill: none; stroke: #008800; stroke-width: 1.5; stroke-linecap: square"/>
   </g>
   <g id="line2d_41">
    <path d="M 73.832727 286.76419 
L 74.918533 288.885123 
L 76.004338 289.184557 
L 77.090122 286.280568 
L 78.175928 278.070264 
L 80.347538 248.520164 
L 81.433343 242.580567 
L 82.519148 247.173601 
L 84.690759 263.488007 
L 85.776544 270.277591 
L 86.862349 276.092874 
L 87.948154 281.138642 
L 89.033959 285.543379 
L 90.119764 289.395112 
L 91.205549 292.763009 
L 92.291354 295.703885 
L 93.377159 298.261751 
L 94.462944 300.460184 
L 95.548749 302.280827 
L 96.634555 303.600513 
L 97.72036 304.019446 
L 98.806165 302.416276 
L 99.89195 296.01319 
L 100.977755 279.831739 
L 102.06356 252.871699 
L 103.149345 232.873412 
L 104.23515 235.85098 
L 105.320955 248.335867 
L 106.40676 258.627266 
L 107.492566 265.813414 
L 108.578371 271.024639 
L 109.664176 274.78226 
L 110.749981 277.059259 
L 111.835766 277.470178 
L 112.921571 275.386759 
L 114.007376 270.306726 
L 116.178987 255.64958 
L 117.264771 252.224348 
L 118.350577 253.572839 
L 119.436382 257.916631 
L 121.607972 268.265491 
L 122.693777 272.701158 
L 123.779582 276.235804 
L 124.865387 278.55874 
L 125.951192 279.164779 
L 127.036998 277.29694 
L 128.122803 272.194539 
L 130.294393 255.681489 
L 131.380198 251.135118 
L 132.466003 252.137492 
L 133.551808 256.735636 
L 135.723398 267.927335 
L 136.809203 272.768121 
L 137.894988 276.751566 
L 138.980793 279.638388 
L 140.066599 280.998776 
L 141.152404 280.08948 
L 142.238209 275.902673 
L 143.323994 267.906864 
L 144.409799 257.887684 
L 145.495604 250.641643 
L 146.581389 249.798383 
L 147.667194 254.057769 
L 149.838804 266.262147 
L 150.92461 271.704379 
L 152.010394 276.348138 
L 153.096199 280.067695 
L 154.182005 282.603142 
L 155.267789 283.41753 
L 156.353594 281.543794 
L 157.4394 275.692924 
L 158.525205 265.46927 
L 159.61101 254.003762 
L 160.696815 247.652381 
L 161.782621 249.114071 
L 162.868426 255.106658 
L 165.040016 268.358884 
L 166.125821 273.921774 
L 167.211626 278.680814 
L 168.297431 282.595062 
L 169.383216 285.490979 
L 170.469021 286.934248 
L 171.554826 286.009869 
L 172.640611 281.146448 
L 173.726416 270.803072 
L 174.812221 256.587174 
L 175.898027 246.03847 
L 176.983832 245.396159 
L 178.069637 251.700846 
L 180.241247 266.683582 
L 181.327032 272.86351 
L 182.412837 278.213258 
L 183.498643 282.846336 
L 184.584448 286.815102 
L 185.670253 290.101654 
L 186.756038 292.56032 
L 187.841843 293.764617 
L 188.927648 292.679645 
L 190.013433 287.183906 
L 191.099238 274.412571 
L 192.185043 255.231593 
L 193.270848 240.798755 
L 194.356654 241.008796 
L 197.614049 266.79214 
L 198.699833 273.09115 
L 199.785638 278.393451 
L 200.871444 282.869689 
L 201.957249 286.540821 
L 203.043054 289.269088 
L 204.128859 290.63162 
L 205.214644 289.644371 
L 206.30047 284.42487 
L 207.386254 272.728054 
L 208.47208 255.828089 
L 209.557865 243.179085 
L 210.643649 242.924187 
L 211.729475 250.59059 
L 212.81526 259.295734 
L 213.901044 266.81235 
L 214.98687 273.148079 
L 216.072655 278.58513 
L 217.158481 283.303401 
L 218.244265 287.407439 
L 219.33005 290.962622 
L 220.415876 293.99714 
L 221.50166 296.475673 
L 222.587445 298.217518 
L 223.673271 298.689437 
L 224.759055 296.536221 
L 225.844881 288.858067 
L 226.930666 271.887228 
L 228.01645 248.528198 
L 229.102276 235.614664 
L 230.188102 240.632381 
L 231.273887 251.642093 
L 232.359713 260.997428 
L 233.445497 268.126265 
L 234.531323 273.738238 
L 235.617108 278.185608 
L 236.702892 281.458526 
L 237.788718 283.235477 
L 238.874503 282.79259 
L 239.960287 278.946369 
L 241.046113 270.628845 
L 242.131898 259.033201 
L 243.217724 249.573575 
L 244.303508 247.579754 
L 245.389293 252.056738 
L 247.560903 265.527305 
L 248.646688 271.465029 
L 249.732514 276.597571 
L 250.818298 280.916053 
L 251.904124 284.321107 
L 252.989909 286.521894 
L 254.075693 286.860427 
L 255.161519 284.070138 
L 256.247304 276.382732 
L 258.418914 249.907377 
L 259.504699 244.435199 
L 260.590525 248.270066 
L 262.762094 263.463456 
L 263.84792 270.087142 
L 264.933704 275.809848 
L 266.019489 280.770844 
L 267.105315 285.051578 
L 268.191099 288.672663 
L 269.276925 291.563585 
L 270.36271 293.465831 
L 271.448494 293.701813 
L 272.53432 290.741264 
L 273.620146 281.877648 
L 274.705931 265.142932 
L 275.791757 246.366997 
L 276.877541 239.084304 
L 277.963367 244.991695 
L 279.049152 254.668217 
L 280.134936 263.17768 
L 281.220762 270.097711 
L 282.306547 275.857517 
L 283.392331 280.724369 
L 284.478157 284.786373 
L 285.563942 287.986011 
L 286.649768 290.053596 
L 287.735552 290.303639 
L 288.821337 287.293264 
L 289.907163 278.751767 
L 292.078732 247.665765 
L 293.164558 241.685869 
L 294.250342 246.775894 
L 296.421953 263.590732 
L 297.507737 270.414869 
L 298.593563 276.228667 
L 299.679348 281.258187 
L 300.765132 285.636413 
L 301.850958 289.446681 
L 302.936743 292.743003 
L 304.022569 295.542716 
L 305.108353 297.790335 
L 306.194138 299.258889 
L 307.279964 299.298552 
L 308.365748 296.280966 
L 309.451533 286.862394 
L 310.537359 267.49234 
L 311.623143 244.005242 
L 312.708969 234.91551 
L 313.794754 242.568015 
L 314.880538 253.702479 
L 315.966364 262.562169 
L 317.05219 269.268455 
L 318.137975 274.528265 
L 319.223801 278.604595 
L 320.309585 281.398368 
L 321.395411 282.472964 
L 322.481196 280.973381 
L 323.56698 275.73159 
L 324.652806 266.308128 
L 325.738591 255.334433 
L 326.824375 248.630972 
L 327.910201 249.296509 
L 328.995986 254.731329 
L 331.167596 267.666895 
L 332.253381 273.190047 
L 333.339207 277.904185 
L 334.424991 281.736801 
L 335.510776 284.476211 
L 336.596602 285.63278 
L 337.682386 284.236096 
L 338.768212 278.772022 
L 339.853997 268.164521 
L 340.939781 254.899422 
L 342.025607 246.339251 
L 343.111392 246.96329 
L 344.197176 253.314852 
L 346.368787 267.609148 
L 347.454613 273.542232 
L 348.540397 278.672726 
L 349.626182 283.061457 
L 350.712008 286.689668 
L 351.797792 289.405937 
L 352.883577 290.787152 
L 353.969403 289.858172 
L 355.055187 284.74366 
L 356.141013 273.151148 
L 357.226798 256.185927 
L 358.312582 243.222628 
L 359.398408 242.715128 
L 360.484234 250.349474 
L 361.570019 259.102061 
L 362.655845 266.658768 
L 363.741629 273.019709 
L 364.827455 278.472494 
L 365.91324 283.200621 
L 366.999024 287.30825 
L 368.08485 290.857166 
L 369.170635 293.866191 
L 370.256419 296.275966 
L 371.342245 297.847997 
L 372.42803 297.913567 
L 373.513856 294.839018 
L 374.59964 285.398153 
L 375.685425 266.493763 
L 376.771251 244.258702 
L 377.857035 235.983403 
L 378.94282 243.349192 
L 380.028646 254.127254 
L 381.11443 262.889593 
L 382.200256 269.653261 
L 383.286041 275.052768 
L 384.371825 279.348806 
L 385.457651 282.483941 
L 386.543436 284.094138 
L 387.62922 283.386658 
L 388.715046 279.073811 
L 389.800831 270.047472 
L 390.886657 257.819993 
L 391.972441 248.445676 
L 393.058226 247.193863 
L 394.144052 252.317652 
L 396.315662 266.16258 
L 397.401447 272.125611 
L 398.487273 277.278681 
L 398.487273 277.278681 
" clip-path="url(#p6a6d6ae1bd)" style="fill: none; stroke: #ff0000; stroke-width: 1.5; stroke-linecap: square"/>
   </g>
   <g id="patch_13">
    <path d="M 57.6 307.584 
L 57.6 229.315765 
" style="fill: none; stroke: #000000; stroke-width: 0.8; stroke-linejoin: miter; stroke-linecap: square"/>
   </g>
   <g id="patch_14">
    <path d="M 414.72 307.584 
L 414.72 229.315765 
" style="fill: none; stroke: #000000; stroke-width: 0.8; stroke-linejoin: miter; stroke-linecap: square"/>
   </g>
   <g id="patch_15">
    <path d="M 57.6 307.584 
L 414.72 307.584 
" style="fill: none; stroke: #000000; stroke-width: 0.8; stroke-linejoin: miter; stroke-linecap: square"/>
   </g>
   <g id="patch_16">
    <path d="M 57.6 229.315765 
L 414.72 229.315765 
" style="fill: none; stroke: #000000; stroke-width: 0.8; stroke-linejoin: miter; stroke-linecap: square"/>
   </g>
  </g>
 </g>
 <defs>
  <clipPath id="pf20d0e15db">
   <rect x="57.6" y="41.472" width="357.12" height="78.268235"/>
  </clipPath>
  <clipPath id="p2812ca6d8f">
   <rect x="57.6" y="135.393882" width="357.12" height="78.268235"/>
  </clipPath>
  <clipPath id="p6a6d6ae1bd">
   <rect x="57.6" y="229.315765" width="357.12" height="78.268235"/>
  </clipPath>
 </defs>
</svg>
