<?xml version="1.0" encoding="utf-8" standalone="no"?>
<!DOCTYPE svg PUBLIC "-//W3C//DTD SVG 1.1//EN"
  "http://www.w3.org/Graphics/SVG/1.1/DTD/svg11.dtd">
<svg xmlns:xlink="http://www.w3.org/1999/xlink" width="460.8pt" height="345.6pt" viewBox="0 0 460.8 345.6" xmlns="http://www.w3.org/2000/svg" version="1.1">
 <metadata>
  <rdf:RDF xmlns:dc="http://purl.org/dc/elements/1.1/" xmlns:cc="http://creativecommons.org/ns#" xmlns:rdf="http://www.w3.org/1999/02/22-rdf-syntax-ns#">
   <cc:Work>
    <dc:type rdf:resource="http://purl.org/dc/dcmitype/StillImage"/>
    <dc:date>2023-12-13T17:02:12.188347</dc:date>
    <dc:format>image/svg+xml</dc:format>
    <dc:creator>
     <cc:Agent>
      <dc:title>Matplotlib v3.7.3, https://matplotlib.org/</dc:title>
     </cc:Agent>
    </dc:creator>
   </cc:Work>
  </rdf:RDF>
 </metadata>
 <defs>
  <style type="text/css">*{stroke-linejoin: round; stroke-linecap: butt}</style>
 </defs>
 <g id="figure_1">
  <g id="patch_1">
   <path d="M 0 345.6 
L 460.8 345.6 
L 460.8 0 
L 0 0 
z
" style="fill: #ffffff"/>
  </g>
  <g id="axes_1">
   <g id="patch_2">
    <path d="M 57.6 119.740235 
L 414.72 119.740235 
L 414.72 41.472 
L 57.6 41.472 
z
" style="fill: #ffffff"/>
   </g>
   <g id="matplotlib.axis_1">
    <g id="xtick_1">
     <g id="line2d_1">
      <defs>
       <path id="m60d9705d9e" d="M 0 0 
L 0 3.5 
" style="stroke: #000000; stroke-width: 0.8"/>
      </defs>
      <g>
       <use xlink:href="#m60d9705d9e" x="57.6" y="119.740235" style="stroke: #000000; stroke-width: 0.8"/>
      </g>
     </g>
    </g>
    <g id="xtick_2">
     <g id="line2d_2">
      <g>
       <use xlink:href="#m60d9705d9e" x="105.216" y="119.740235" style="stroke: #000000; stroke-width: 0.8"/>
      </g>
     </g>
    </g>
    <g id="xtick_3">
     <g id="line2d_3">
      <g>
       <use xlink:href="#m60d9705d9e" x="152.832" y="119.740235" style="stroke: #000000; stroke-width: 0.8"/>
      </g>
     </g>
    </g>
    <g id="xtick_4">
     <g id="line2d_4">
      <g>
       <use xlink:href="#m60d9705d9e" x="200.448" y="119.740235" style="stroke: #000000; stroke-width: 0.8"/>
      </g>
     </g>
    </g>
    <g id="xtick_5">
     <g id="line2d_5">
      <g>
       <use xlink:href="#m60d9705d9e" x="248.064" y="119.740235" style="stroke: #000000; stroke-width: 0.8"/>
      </g>
     </g>
    </g>
    <g id="xtick_6">
     <g id="line2d_6">
      <g>
       <use xlink:href="#m60d9705d9e" x="295.68" y="119.740235" style="stroke: #000000; stroke-width: 0.8"/>
      </g>
     </g>
    </g>
    <g id="xtick_7">
     <g id="line2d_7">
      <g>
       <use xlink:href="#m60d9705d9e" x="343.296" y="119.740235" style="stroke: #000000; stroke-width: 0.8"/>
      </g>
     </g>
    </g>
    <g id="xtick_8">
     <g id="line2d_8">
      <g>
       <use xlink:href="#m60d9705d9e" x="390.912" y="119.740235" style="stroke: #000000; stroke-width: 0.8"/>
      </g>
     </g>
    </g>
    <g id="xtick_9">
     <g id="line2d_9">
      <g>
       <use xlink:href="#m60d9705d9e" x="414.72" y="119.740235" style="stroke: #000000; stroke-width: 0.8"/>
      </g>
     </g>
    </g>
   </g>
   <g id="matplotlib.axis_2">
    <g id="ytick_1">
     <g id="line2d_10">
      <defs>
       <path id="m03c3990b83" d="M 0 0 
L -3.5 0 
" style="stroke: #000000; stroke-width: 0.8"/>
      </defs>
      <g>
       <use xlink:href="#m03c3990b83" x="57.6" y="100.266359" style="stroke: #000000; stroke-width: 0.8"/>
      </g>
     </g>
     <g id="text_1">
      <!-- −10 -->
      <g transform="translate(29.495313 104.065578) scale(0.1 -0.1)">
       <defs>
        <path id="DejaVuSans-2212" d="M 678 2272 
L 4684 2272 
L 4684 1741 
L 678 1741 
L 678 2272 
z
" transform="scale(0.015625)"/>
        <path id="DejaVuSans-31" d="M 794 531 
L 1825 531 
L 1825 4091 
L 703 3866 
L 703 4441 
L 1819 4666 
L 2450 4666 
L 2450 531 
L 3481 531 
L 3481 0 
L 794 0 
L 794 531 
z
" transform="scale(0.015625)"/>
        <path id="DejaVuSans-30" d="M 2034 4250 
Q 1547 4250 1301 3770 
Q 1056 3291 1056 2328 
Q 1056 1369 1301 889 
Q 1547 409 2034 409 
Q 2525 409 2770 889 
Q 3016 1369 3016 2328 
Q 3016 3291 2770 3770 
Q 2525 4250 2034 4250 
z
M 2034 4750 
Q 2819 4750 3233 4129 
Q 3647 3509 3647 2328 
Q 3647 1150 3233 529 
Q 2819 -91 2034 -91 
Q 1250 -91 836 529 
Q 422 1150 422 2328 
Q 422 3509 836 4129 
Q 1250 4750 2034 4750 
z
" transform="scale(0.015625)"/>
       </defs>
       <use xlink:href="#DejaVuSans-2212"/>
       <use xlink:href="#DejaVuSans-31" x="83.789062"/>
       <use xlink:href="#DejaVuSans-30" x="147.412109"/>
      </g>
     </g>
    </g>
    <g id="ytick_2">
     <g id="line2d_11">
      <g>
       <use xlink:href="#m03c3990b83" x="57.6" y="79.655069" style="stroke: #000000; stroke-width: 0.8"/>
      </g>
     </g>
     <g id="text_2">
      <!-- 0 -->
      <g transform="translate(44.2375 83.454287) scale(0.1 -0.1)">
       <use xlink:href="#DejaVuSans-30"/>
      </g>
     </g>
    </g>
    <g id="ytick_3">
     <g id="line2d_12">
      <g>
       <use xlink:href="#m03c3990b83" x="57.6" y="59.043778" style="stroke: #000000; stroke-width: 0.8"/>
      </g>
     </g>
     <g id="text_3">
      <!-- 10 -->
      <g transform="translate(37.875 62.842997) scale(0.1 -0.1)">
       <use xlink:href="#DejaVuSans-31"/>
       <use xlink:href="#DejaVuSans-30" x="63.623047"/>
      </g>
     </g>
    </g>
   </g>
   <g id="line2d_13">
    <path d="M 57.6 85.517697 
L 58.7904 87.503072 
L 59.9808 90.689576 
L 61.1712 95.17031 
L 64.1472 109.295642 
L 64.7424 110.002511 
L 65.3376 109.236944 
L 65.9328 106.931752 
L 67.1232 99.639691 
L 68.3136 91.933468 
L 68.9088 88.870152 
L 69.504 86.40533 
L 70.0992 84.478788 
L 70.6944 83.042669 
L 71.2896 82.02803 
L 71.8848 81.328078 
L 73.0752 80.505085 
L 73.6704 80.274606 
L 74.8608 80.089234 
L 77.8368 80.35961 
L 79.0272 80.664379 
L 80.8128 81.639282 
L 82.0032 82.834355 
L 82.5984 83.708976 
L 83.1936 84.860827 
L 83.7888 86.343973 
L 84.384 88.146963 
L 84.9792 90.417819 
L 85.5744 93.346292 
L 86.7648 101.290325 
L 87.9552 110.816384 
L 88.5504 114.487336 
L 89.1456 116.14398 
L 89.7408 115.014376 
L 90.336 110.964702 
L 92.7168 87.001003 
L 93.312 82.807539 
L 93.9072 79.482669 
L 94.5024 76.977904 
L 95.0976 74.993144 
L 96.288 72.265421 
L 98.0736 68.863354 
L 98.6688 67.681405 
L 100.4544 62.920758 
L 102.24 57.583169 
L 102.8352 56.132496 
L 103.4304 55.148556 
L 104.0256 54.842424 
L 104.6208 55.255851 
L 105.216 56.276245 
L 105.8112 57.881968 
L 108.7872 67.418223 
L 109.3824 68.663663 
L 109.9776 69.580723 
L 110.5728 70.165522 
L 111.168 70.473682 
L 111.7632 70.477697 
L 112.3584 70.179742 
L 112.9536 69.65725 
L 113.5488 68.899977 
L 114.144 67.887604 
L 115.3344 65.159491 
L 118.9056 54.762309 
L 119.5008 54.134715 
L 120.096 54.336018 
L 120.6912 55.331161 
L 121.2864 57.014309 
L 124.2624 67.6898 
L 124.8576 69.133111 
L 125.4528 70.267587 
L 126.6432 71.412287 
L 127.2384 71.403594 
L 127.8336 71.281657 
L 128.4288 70.851193 
L 129.024 70.208611 
L 129.6192 69.314439 
L 130.8096 66.697518 
L 132 63.201328 
L 133.7856 56.636496 
L 134.3808 54.926938 
L 134.976 53.62578 
L 135.5712 53.197679 
L 136.1664 53.718428 
L 136.7616 55.045584 
L 137.3568 57.172056 
L 139.7376 67.149069 
L 140.3328 68.978411 
L 140.928 70.395577 
L 141.5232 71.479471 
L 142.1184 72.186685 
L 142.7136 72.597603 
L 143.3088 72.671627 
L 143.904 72.462963 
L 144.4992 72.074905 
L 145.6896 70.528023 
L 146.2848 69.38024 
L 147.4752 66.273121 
L 148.6656 62.043863 
L 150.4512 54.856513 
L 151.0464 53.054946 
L 151.6416 52.143884 
L 152.2368 52.237242 
L 152.832 53.444862 
L 153.4272 55.635146 
L 156.4032 69.374425 
L 156.9984 71.110979 
L 157.5936 72.39587 
L 158.1888 73.411414 
L 158.784 73.95015 
L 159.3792 74.271142 
L 159.9744 74.304542 
L 160.5696 74.141864 
L 161.1648 73.720845 
L 161.76 73.122493 
L 162.3552 72.269074 
L 162.9504 71.183431 
L 163.5456 69.860505 
L 164.736 66.258954 
L 165.9264 61.31191 
L 167.712 53.0087 
L 168.3072 51.138168 
L 168.9024 50.321922 
L 169.4976 50.953366 
L 170.0928 52.954206 
L 171.2832 59.453274 
L 172.4736 66.476133 
L 173.664 71.683723 
L 174.2592 73.516812 
L 174.8544 74.866844 
L 175.4496 75.764647 
L 176.0448 76.379389 
L 176.64 76.741033 
L 177.2352 76.959387 
L 177.8304 76.94065 
L 178.4256 76.808608 
L 179.616 76.095876 
L 180.2112 75.585455 
L 180.8064 74.88371 
L 181.9968 72.855145 
L 183.1872 69.630067 
L 184.3776 64.709603 
L 185.568 58.108481 
L 186.7584 51.022132 
L 187.3536 48.396783 
L 187.9488 47.318089 
L 188.544 48.164553 
L 189.1392 50.869539 
L 190.3296 59.81178 
L 191.52 68.676971 
L 192.1152 72.152747 
L 192.7104 74.928438 
L 193.3056 77.119521 
L 194.496 79.915764 
L 195.6864 81.543952 
L 198.0672 84.046407 
L 199.2576 85.929863 
L 199.8528 87.007381 
L 201.0432 90.142143 
L 202.2336 94.864824 
L 203.424 100.890927 
L 204.6144 107.343 
L 205.2096 109.585617 
L 205.8048 110.650467 
L 206.4 109.985241 
L 206.9952 107.584714 
L 207.5904 104.086875 
L 209.376 91.797349 
L 209.9712 88.497123 
L 210.5664 85.878852 
L 211.1616 83.806952 
L 212.352 81.261752 
L 213.5424 79.833233 
L 214.7328 79.06371 
L 215.328 78.844735 
L 217.1136 77.884075 
L 217.7088 77.594655 
L 218.8992 76.551445 
L 219.4944 75.911508 
L 220.0896 75.06646 
L 221.28 72.61154 
L 221.8752 70.862617 
L 222.4704 68.752122 
L 223.6608 62.786276 
L 224.8512 54.934206 
L 225.4464 50.712031 
L 226.0416 47.433033 
L 226.6368 45.496098 
L 227.232 45.899779 
L 227.8272 48.708794 
L 228.4224 53.218618 
L 230.208 69.18176 
L 230.8032 73.277748 
L 231.3984 76.47215 
L 231.9936 78.938437 
L 232.5888 80.879352 
L 233.7792 83.473035 
L 234.9696 85.430743 
L 236.16 87.317136 
L 237.3504 89.80651 
L 238.5408 93.255885 
L 239.7312 97.743698 
L 241.5168 105.022417 
L 242.112 106.670046 
L 242.7072 107.422989 
L 243.3024 107.100046 
L 243.8976 105.671777 
L 244.4928 103.259069 
L 246.8736 91.540076 
L 247.4688 89.390893 
L 248.064 87.67512 
L 248.6592 86.361915 
L 249.2544 85.491869 
L 250.4448 84.699961 
L 251.04 84.664751 
L 251.6352 84.848016 
L 252.2304 85.226333 
L 252.8256 85.861005 
L 254.016 87.82042 
L 254.6112 89.122261 
L 255.2064 90.73154 
L 256.3968 95.063736 
L 259.3728 108.377533 
L 259.968 109.261095 
L 260.5632 108.792674 
L 261.1584 106.866283 
L 261.7536 103.831088 
L 263.5392 92.930361 
L 264.1344 89.873276 
L 264.7296 87.517487 
L 265.3248 85.616841 
L 265.92 84.206115 
L 267.1104 82.440979 
L 267.7056 82.007352 
L 268.3008 81.794412 
L 268.896 81.706994 
L 269.4912 81.758942 
L 271.2768 82.615471 
L 271.872 83.10153 
L 273.0624 84.647716 
L 273.6576 85.66011 
L 274.2528 87.032961 
L 275.4432 90.7728 
L 276.0384 93.341026 
L 277.2288 99.873377 
L 278.4192 107.562986 
L 279.0144 110.7597 
L 279.6096 112.638843 
L 280.2048 112.42451 
L 280.8 110.128338 
L 281.3952 106.109586 
L 283.1808 91.490359 
L 283.776 87.435932 
L 284.3712 84.327041 
L 284.9664 81.858326 
L 285.5616 80.06486 
L 286.752 77.570925 
L 289.728 73.467785 
L 290.3232 72.47072 
L 291.5136 69.741189 
L 292.704 65.856301 
L 293.2992 63.471194 
L 295.68 52.285822 
L 296.2752 50.577651 
L 296.8704 50.119356 
L 297.4656 51.081737 
L 298.0608 53.380131 
L 299.2512 60.327993 
L 300.4416 67.31264 
L 301.0368 70.142785 
L 301.632 72.431337 
L 302.2272 74.138216 
L 302.8224 75.378486 
L 303.4176 76.237433 
L 304.0128 76.878846 
L 304.608 77.217297 
L 305.7984 77.448411 
L 306.3936 77.339625 
L 307.584 76.74565 
L 308.1792 76.351451 
L 308.7744 75.786202 
L 309.3696 75.00723 
L 310.56 72.726308 
L 311.1552 71.28467 
L 312.3456 67.019597 
L 312.9408 64.258474 
L 314.1312 57.181193 
L 315.3216 49.887838 
L 315.9168 47.396574 
L 316.512 46.694288 
L 317.1072 48.095164 
L 317.7024 51.43384 
L 320.6784 73.583762 
L 321.2736 76.257927 
L 321.8688 78.389473 
L 323.0592 81.077691 
L 324.2496 82.758779 
L 326.6304 85.964357 
L 327.2256 87.021983 
L 328.416 89.938679 
L 329.0112 91.793957 
L 330.2016 96.59809 
L 332.5824 107.828859 
L 333.1776 109.206301 
L 333.7728 109.307046 
L 334.368 107.875352 
L 334.9632 105.115875 
L 337.9392 88.149557 
L 338.5344 85.976699 
L 339.1296 84.368987 
L 339.7248 83.213067 
L 340.32 82.406418 
L 341.5104 81.480688 
L 342.7008 81.360484 
L 343.8912 81.588272 
L 344.4864 81.787699 
L 345.0816 82.130486 
L 346.272 83.227145 
L 347.4624 84.892326 
L 348.0576 86.095896 
L 348.6528 87.601024 
L 349.248 89.447385 
L 350.4384 94.64492 
L 351.6288 101.970936 
L 352.8192 109.825368 
L 353.4144 112.505471 
L 354.0096 113.409061 
L 354.6048 112.065895 
L 355.2 108.570316 
L 357.5808 88.732926 
L 358.176 85.09379 
L 358.7712 82.240219 
L 359.3664 80.085218 
L 359.9616 78.473913 
L 361.152 76.189541 
L 364.128 71.464915 
L 365.3184 68.556618 
L 366.5088 64.626988 
L 367.6992 59.479583 
L 368.8896 54.285838 
L 369.4848 52.255175 
L 370.08 51.249843 
L 370.6752 51.338654 
L 371.2704 52.70582 
L 371.8656 55.177187 
L 374.2464 67.893005 
L 375.4368 72.264471 
L 376.6272 74.632409 
L 377.2224 75.258491 
L 377.8176 75.643604 
L 378.4128 75.787713 
L 379.008 75.69476 
L 379.6032 75.459938 
L 380.1984 75.062111 
L 380.7936 74.457507 
L 381.984 72.64493 
L 382.5792 71.417068 
L 383.1744 69.875239 
L 384.3648 65.658842 
L 385.5552 59.909907 
L 386.7456 53.375677 
L 387.3408 50.702294 
L 387.936 49.112094 
L 388.5312 49.000392 
L 389.1264 50.522121 
L 389.7216 53.51899 
L 392.1024 69.219805 
L 393.2928 74.459976 
L 393.888 76.165846 
L 394.4832 77.379227 
L 395.6736 79.014412 
L 397.4592 80.033658 
L 398.6496 80.502694 
L 399.84 80.899245 
L 401.0304 81.58939 
L 402.2208 82.596173 
L 403.4112 84.085818 
L 404.0064 85.215839 
L 404.6016 86.635214 
L 405.1968 88.376925 
L 405.792 90.613651 
L 406.3872 93.354499 
L 407.5776 100.698471 
L 408.768 109.355121 
L 409.3632 112.759446 
L 409.9584 114.508535 
L 410.5536 113.749191 
L 411.1488 110.616757 
L 412.3392 99.797643 
L 413.5296 89.146388 
L 414.1248 84.9143 
L 414.72 81.832624 
L 414.72 81.832624 
" clip-path="url(#p6ed2486f8c)" style="fill: none; stroke: #0000cc; stroke-width: 1.5; stroke-linecap: square"/>
   </g>
   <g id="line2d_14">
    <path d="M 57.6 85.533535 
L 58.195191 86.416346 
L 58.790405 87.542829 
L 59.385595 88.947307 
L 59.980809 90.671973 
L 61.171191 95.219344 
L 62.361595 101.14318 
L 63.552 107.150979 
L 64.147191 109.222789 
L 64.742405 110.026763 
L 65.337595 109.263545 
L 65.932809 106.978924 
L 67.123191 99.585601 
L 68.313595 91.941542 
L 68.908809 88.855771 
L 69.504 86.379888 
L 70.099191 84.476113 
L 70.694405 83.061257 
L 71.289595 82.040596 
L 71.884809 81.323594 
L 72.48 80.833282 
L 73.670405 80.300907 
L 74.860809 80.116654 
L 76.646405 80.169154 
L 78.432 80.507151 
L 79.622405 80.945304 
L 80.812809 81.668139 
L 81.408 82.190069 
L 82.003191 82.861425 
L 82.598405 83.725885 
L 83.193595 84.839251 
L 83.788809 86.271807 
L 84.384 88.109047 
L 84.979191 90.450159 
L 85.574405 93.395771 
L 86.764809 101.315748 
L 87.955191 110.78631 
L 88.550405 114.526525 
L 89.145595 116.182588 
L 89.740809 114.961777 
L 90.336 110.932947 
L 92.716809 87.0203 
L 93.312 82.766837 
L 93.907191 79.472973 
L 94.502405 76.968849 
L 95.097595 75.053642 
L 96.288 72.281868 
L 98.668809 67.599203 
L 99.859191 64.62834 
L 102.835191 56.155214 
L 103.430405 55.192884 
L 104.025595 54.852599 
L 104.620809 55.218678 
L 105.216 56.270189 
L 105.811191 57.880269 
L 108.787191 67.445863 
L 109.382405 68.686986 
L 109.977595 69.592208 
L 110.572809 70.174371 
L 111.168 70.454081 
L 111.763191 70.453162 
L 112.358405 70.189052 
L 112.953595 69.673008 
L 113.548809 68.910456 
L 114.144 67.902252 
L 115.334405 65.157019 
L 116.524809 61.563587 
L 118.310405 55.975646 
L 118.905595 54.72801 
L 119.500809 54.130087 
L 120.096 54.316622 
L 120.691191 55.302651 
L 121.286405 56.970525 
L 124.262405 67.670369 
L 124.857595 69.113101 
L 125.452809 70.190086 
L 126.048 70.918316 
L 126.643191 71.325705 
L 127.238405 71.440502 
L 127.833595 71.286064 
L 128.428809 70.877551 
L 129.024 70.221559 
L 129.619191 69.316731 
L 130.214405 68.15807 
L 131.404809 65.061992 
L 132.595191 61.039457 
L 133.785595 56.729419 
L 134.380809 54.912922 
L 134.976 53.656785 
L 135.571191 53.195746 
L 136.166405 53.663032 
L 136.761595 55.033521 
L 137.356809 57.123396 
L 139.737595 67.084635 
L 140.332809 68.94914 
L 140.928 70.406842 
L 141.523191 71.471312 
L 142.118405 72.176035 
L 142.713595 72.559681 
L 143.308809 72.658012 
L 143.904 72.497369 
L 144.499191 72.094171 
L 145.094405 71.452634 
L 145.689595 70.568229 
L 146.284809 69.428159 
L 147.475191 66.317304 
L 148.665595 62.084225 
L 150.451191 54.895287 
L 151.046405 53.105468 
L 151.641595 52.128526 
L 152.236809 52.203726 
L 152.832 53.392466 
L 153.427191 55.540284 
L 156.403191 69.283347 
L 156.998405 71.074482 
L 157.593595 72.420484 
L 158.188809 73.366951 
L 158.784 73.967707 
L 159.379191 74.273159 
L 159.974405 74.323864 
L 160.569595 74.147796 
L 161.164809 73.759224 
L 161.76 73.160282 
L 162.355191 72.340475 
L 162.950405 71.279923 
L 163.545595 69.950228 
L 164.140809 68.319492 
L 165.331191 64.056826 
L 168.307191 51.184478 
L 168.902405 50.360815 
L 169.497595 50.902536 
L 170.092809 52.800032 
L 170.688 55.752753 
L 173.068809 69.230375 
L 173.664 71.602107 
L 174.259191 73.439688 
L 174.854405 74.801876 
L 175.449595 75.765866 
L 176.044809 76.407782 
L 176.64 76.794083 
L 177.235191 76.97688 
L 177.830405 76.993741 
L 178.425595 76.867193 
L 179.020809 76.609368 
L 179.616 76.219312 
L 180.211191 75.687296 
L 180.806405 74.99255 
L 181.401595 74.105551 
L 181.996809 72.986084 
L 182.592 71.584625 
L 183.187191 69.843874 
L 183.782405 67.703673 
L 184.972809 62.056917 
L 187.353595 48.655326 
L 187.948809 47.33318 
L 188.544 47.920385 
L 189.139191 50.449987 
L 190.329595 59.170825 
L 191.52 68.209354 
L 192.115191 71.810618 
L 192.710405 74.681629 
L 193.305595 76.891135 
L 193.900809 78.557601 
L 194.496 79.809048 
L 195.686405 81.527268 
L 198.662405 84.919267 
L 199.852809 87.053217 
L 200.448 88.481123 
L 201.043191 90.220113 
L 202.233618 94.815132 
L 203.424 100.895625 
L 204.614382 107.253796 
L 205.209618 109.549705 
L 205.804809 110.551778 
L 206.4 109.903046 
L 206.995191 107.614719 
L 208.185618 99.921653 
L 209.376 91.874258 
L 209.971191 88.621661 
L 210.566382 86.010649 
L 211.161618 83.998507 
L 211.756809 82.494627 
L 212.352 81.394983 
L 212.947191 80.601629 
L 214.137618 79.606919 
L 215.328 79.01878 
L 217.708809 77.975397 
L 218.899191 77.159915 
L 220.089618 75.888338 
L 220.684809 74.992215 
L 221.28 73.857696 
L 221.875191 72.421654 
L 222.470382 70.610282 
L 223.065618 68.341305 
L 223.660809 65.537819 
L 224.851191 58.218316 
L 226.041618 49.795854 
L 226.636809 46.525338 
L 227.232 45.029647 
L 227.827191 45.947644 
L 228.422382 49.264508 
L 229.612809 59.991064 
L 230.803191 70.384134 
L 231.398382 74.353797 
L 231.993618 77.462165 
L 232.588809 79.837731 
L 233.184 81.645508 
L 234.374382 84.190625 
L 236.755191 88.234323 
L 237.945618 90.937493 
L 239.136 94.567416 
L 240.921618 101.534747 
L 242.112 105.659529 
L 242.707191 106.779663 
L 243.302382 106.921735 
L 243.897618 105.989722 
L 244.492809 104.090378 
L 245.683191 98.58091 
L 246.873618 92.984038 
L 247.468809 90.697303 
L 248.064 88.854935 
L 248.659191 87.453441 
L 249.254382 86.455275 
L 249.849618 85.811087 
L 250.444809 85.47319 
L 251.04 85.400768 
L 251.635191 85.565721 
L 252.230382 85.952591 
L 252.825618 86.558058 
L 253.420809 87.39104 
L 254.016 88.469612 
L 254.611191 89.819461 
L 255.801618 93.439105 
L 256.992 98.318222 
L 258.777618 106.246453 
L 259.372809 107.936012 
L 259.968 108.52848 
L 260.563191 107.809911 
L 261.158382 105.834643 
L 262.348809 99.495398 
L 263.539191 92.817432 
L 264.729618 87.845249 
L 265.324809 86.131448 
L 265.92 84.872776 
L 266.515191 83.998404 
L 267.110382 83.438672 
L 267.705618 83.134365 
L 268.300809 83.039519 
L 268.896 83.123297 
L 269.491191 83.368103 
L 270.086382 83.769483 
L 270.681618 84.334369 
L 271.276809 85.080675 
L 271.872 86.036802 
L 272.467191 87.240375 
L 273.062382 88.738717 
L 273.657618 90.583167 
L 274.848 95.485209 
L 276.038382 101.927109 
L 277.228809 108.390541 
L 277.824 110.483773 
L 278.419191 111.075235 
L 279.014382 109.872591 
L 279.609618 107.016819 
L 280.8 98.593446 
L 281.990382 90.456502 
L 282.585618 87.28866 
L 283.180809 84.78669 
L 283.776 82.877776 
L 284.371191 81.455126 
L 284.966382 80.405352 
L 285.561618 79.626354 
L 286.752 78.555197 
L 289.132809 76.839106 
L 290.323191 75.591376 
L 290.918382 74.746972 
L 291.513618 73.696834 
L 292.108809 72.388472 
L 292.704 70.760421 
L 293.299191 68.746252 
L 293.894382 66.28307 
L 295.084809 59.904209 
L 296.870382 49.099458 
L 297.465618 47.082412 
L 298.060809 46.938002 
L 298.656 48.899982 
L 299.251191 52.638852 
L 301.632 71.092252 
L 302.227191 74.308549 
L 302.822382 76.805473 
L 303.417618 78.700492 
L 304.012809 80.131583 
L 305.203191 82.110474 
L 308.179191 86.062031 
L 309.369618 88.521471 
L 310.56 92.084378 
L 311.750382 97.026242 
L 314.131191 108.230234 
L 314.726382 109.48184 
L 315.321618 109.312677 
L 315.916809 107.639986 
L 316.512 104.720719 
L 318.892809 90.279312 
L 319.488 87.651364 
L 320.083191 85.597459 
L 320.678382 84.054144 
L 321.273618 82.936679 
L 321.868809 82.157513 
L 322.464 81.640018 
L 323.059191 81.320154 
L 323.654382 81.151709 
L 324.844809 81.144125 
L 326.035191 81.480653 
L 327.225618 82.162929 
L 328.416 83.309712 
L 329.011191 84.127841 
L 329.606382 85.164559 
L 330.201618 86.476185 
L 330.796809 88.128514 
L 331.392 90.197759 
L 331.987191 92.759663 
L 333.177618 99.527695 
L 334.963191 111.322439 
L 335.558382 113.516848 
L 336.153618 113.576287 
L 336.748809 111.247066 
L 337.344 106.960254 
L 339.129618 91.067087 
L 339.724809 86.839626 
L 340.32 83.468228 
L 340.915191 80.867026 
L 341.510382 78.88932 
L 342.105618 77.375087 
L 343.296 75.173017 
L 345.081618 72.360748 
L 346.272 69.965424 
L 347.462382 66.683459 
L 348.652809 62.324985 
L 350.438382 54.849096 
L 351.033618 52.935494 
L 351.628809 51.846294 
L 352.224 51.846055 
L 352.819191 53.015298 
L 353.414382 55.20283 
L 356.390382 69.457581 
L 356.985618 71.322834 
L 357.580809 72.729634 
L 358.176 73.727262 
L 358.771191 74.374555 
L 359.366382 74.725936 
L 359.961618 74.825989 
L 360.556809 74.705676 
L 361.152 74.382835 
L 361.747191 73.861339 
L 362.342382 73.133623 
L 362.937618 72.180504 
L 363.532809 70.973537 
L 364.128 69.478059 
L 365.318382 65.482916 
L 366.508809 60.108823 
L 367.699191 54.152861 
L 368.294382 51.682205 
L 368.889618 50.141379 
L 369.484809 49.930169 
L 370.08 51.211089 
L 370.675191 53.814369 
L 373.651191 70.919663 
L 374.246382 73.100329 
L 374.841618 74.75459 
L 375.436809 75.961846 
L 376.032 76.808592 
L 376.627191 77.373708 
L 377.222382 77.722722 
L 377.817618 77.905374 
L 379.008 77.90278 
L 380.198382 77.511549 
L 381.388809 76.72412 
L 381.984 76.14489 
L 382.579191 75.406125 
L 383.174382 74.46948 
L 383.769618 73.285866 
L 384.364809 71.796059 
L 384.96 69.930746 
L 385.555191 67.616843 
L 386.745618 61.429839 
L 388.531191 49.74916 
L 389.126382 46.935307 
L 389.721618 45.894518 
L 390.316809 47.115117 
L 390.912 50.479411 
L 393.888 73.973893 
L 394.483191 76.849419 
L 395.078382 79.045375 
L 395.673618 80.711989 
L 396.864 83.032037 
L 399.84 87.699839 
L 401.030382 90.532661 
L 402.220809 94.466559 
L 403.411191 99.520868 
L 404.601618 104.831056 
L 405.196809 106.908509 
L 405.792 108.104847 
L 406.387191 108.11733 
L 406.982382 106.850805 
L 407.577618 104.475 
L 410.553618 89.244028 
L 411.148809 87.28786 
L 411.744 85.812448 
L 412.339191 84.757253 
L 412.934382 84.054068 
L 413.529618 83.640383 
L 414.124809 83.465255 
L 414.72 83.4919 
L 414.72 83.4919 
" clip-path="url(#p6ed2486f8c)" style="fill: none; stroke-dasharray: 9.6,2.4,1.5,2.4; stroke-dashoffset: 0; stroke: #ff0000; stroke-width: 1.5"/>
   </g>
   <g id="patch_3">
    <path d="M 57.6 119.740235 
L 57.6 41.472 
" style="fill: none; stroke: #000000; stroke-width: 0.8; stroke-linejoin: miter; stroke-linecap: square"/>
   </g>
   <g id="patch_4">
    <path d="M 414.72 119.740235 
L 414.72 41.472 
" style="fill: none; stroke: #000000; stroke-width: 0.8; stroke-linejoin: miter; stroke-linecap: square"/>
   </g>
   <g id="patch_5">
    <path d="M 57.6 119.740235 
L 414.72 119.740235 
" style="fill: none; stroke: #000000; stroke-width: 0.8; stroke-linejoin: miter; stroke-linecap: square"/>
   </g>
   <g id="patch_6">
    <path d="M 57.6 41.472 
L 414.72 41.472 
" style="fill: none; stroke: #000000; stroke-width: 0.8; stroke-linejoin: miter; stroke-linecap: square"/>
   </g>
  </g>
  <g id="axes_2">
   <g id="patch_7">
    <path d="M 57.6 213.662118 
L 414.72 213.662118 
L 414.72 135.393882 
L 57.6 135.393882 
z
" style="fill: #ffffff"/>
   </g>
   <g id="matplotlib.axis_3">
    <g id="xtick_10">
     <g id="line2d_15">
      <g>
       <use xlink:href="#m60d9705d9e" x="57.6" y="213.662118" style="stroke: #000000; stroke-width: 0.8"/>
      </g>
     </g>
    </g>
    <g id="xtick_11">
     <g id="line2d_16">
      <g>
       <use xlink:href="#m60d9705d9e" x="105.216" y="213.662118" style="stroke: #000000; stroke-width: 0.8"/>
      </g>
     </g>
    </g>
    <g id="xtick_12">
     <g id="line2d_17">
      <g>
       <use xlink:href="#m60d9705d9e" x="152.832" y="213.662118" style="stroke: #000000; stroke-width: 0.8"/>
      </g>
     </g>
    </g>
    <g id="xtick_13">
     <g id="line2d_18">
      <g>
       <use xlink:href="#m60d9705d9e" x="200.448" y="213.662118" style="stroke: #000000; stroke-width: 0.8"/>
      </g>
     </g>
    </g>
    <g id="xtick_14">
     <g id="line2d_19">
      <g>
       <use xlink:href="#m60d9705d9e" x="248.064" y="213.662118" style="stroke: #000000; stroke-width: 0.8"/>
      </g>
     </g>
    </g>
    <g id="xtick_15">
     <g id="line2d_20">
      <g>
       <use xlink:href="#m60d9705d9e" x="295.68" y="213.662118" style="stroke: #000000; stroke-width: 0.8"/>
      </g>
     </g>
    </g>
    <g id="xtick_16">
     <g id="line2d_21">
      <g>
       <use xlink:href="#m60d9705d9e" x="343.296" y="213.662118" style="stroke: #000000; stroke-width: 0.8"/>
      </g>
     </g>
    </g>
    <g id="xtick_17">
     <g id="line2d_22">
      <g>
       <use xlink:href="#m60d9705d9e" x="390.912" y="213.662118" style="stroke: #000000; stroke-width: 0.8"/>
      </g>
     </g>
    </g>
    <g id="xtick_18">
     <g id="line2d_23">
      <g>
       <use xlink:href="#m60d9705d9e" x="414.72" y="213.662118" style="stroke: #000000; stroke-width: 0.8"/>
      </g>
     </g>
    </g>
   </g>
   <g id="matplotlib.axis_4">
    <g id="ytick_4">
     <g id="line2d_24">
      <g>
       <use xlink:href="#m03c3990b83" x="57.6" y="204.395802" style="stroke: #000000; stroke-width: 0.8"/>
      </g>
     </g>
     <g id="text_4">
      <!-- −20 -->
      <g transform="translate(29.495313 208.195021) scale(0.1 -0.1)">
       <defs>
        <path id="DejaVuSans-32" d="M 1228 531 
L 3431 531 
L 3431 0 
L 469 0 
L 469 531 
Q 828 903 1448 1529 
Q 2069 2156 2228 2338 
Q 2531 2678 2651 2914 
Q 2772 3150 2772 3378 
Q 2772 3750 2511 3984 
Q 2250 4219 1831 4219 
Q 1534 4219 1204 4116 
Q 875 4013 500 3803 
L 500 4441 
Q 881 4594 1212 4672 
Q 1544 4750 1819 4750 
Q 2544 4750 2975 4387 
Q 3406 4025 3406 3419 
Q 3406 3131 3298 2873 
Q 3191 2616 2906 2266 
Q 2828 2175 2409 1742 
Q 1991 1309 1228 531 
z
" transform="scale(0.015625)"/>
       </defs>
       <use xlink:href="#DejaVuSans-2212"/>
       <use xlink:href="#DejaVuSans-32" x="83.789062"/>
       <use xlink:href="#DejaVuSans-30" x="147.412109"/>
      </g>
     </g>
    </g>
    <g id="ytick_5">
     <g id="line2d_25">
      <g>
       <use xlink:href="#m03c3990b83" x="57.6" y="173.216282" style="stroke: #000000; stroke-width: 0.8"/>
      </g>
     </g>
     <g id="text_5">
      <!-- 0 -->
      <g transform="translate(44.2375 177.015501) scale(0.1 -0.1)">
       <use xlink:href="#DejaVuSans-30"/>
      </g>
     </g>
    </g>
    <g id="ytick_6">
     <g id="line2d_26">
      <g>
       <use xlink:href="#m03c3990b83" x="57.6" y="142.036762" style="stroke: #000000; stroke-width: 0.8"/>
      </g>
     </g>
     <g id="text_6">
      <!-- 20 -->
      <g transform="translate(37.875 145.83598) scale(0.1 -0.1)">
       <use xlink:href="#DejaVuSans-32"/>
       <use xlink:href="#DejaVuSans-30" x="63.623047"/>
      </g>
     </g>
    </g>
   </g>
   <g id="line2d_27">
    <path d="M 57.6 180.022283 
L 58.1952 181.34086 
L 58.7904 182.943992 
L 59.9808 187.30318 
L 61.1712 193.010832 
L 62.3616 199.078561 
L 62.9568 201.169991 
L 63.552 201.751188 
L 64.1472 200.189858 
L 64.7424 196.403363 
L 66.528 179.805036 
L 67.1232 175.986897 
L 67.7184 173.581987 
L 68.3136 172.299796 
L 68.9088 171.751284 
L 69.504 171.752734 
L 70.6944 172.128261 
L 71.8848 172.65951 
L 73.6704 173.239914 
L 77.8368 174.121793 
L 79.0272 174.683673 
L 80.2176 175.516328 
L 80.8128 176.124054 
L 82.0032 177.930649 
L 82.5984 179.26739 
L 83.1936 180.945337 
L 83.7888 183.145224 
L 84.384 185.90678 
L 84.9792 189.331771 
L 86.1696 198.352745 
L 87.36 207.865353 
L 87.9552 210.085422 
L 88.5504 208.310441 
L 89.1456 201.713231 
L 90.9312 173.030061 
L 91.5264 167.794201 
L 92.1216 165.289014 
L 92.7168 164.315389 
L 93.312 164.233051 
L 95.0976 164.626988 
L 95.6928 164.475316 
L 96.288 164.033537 
L 96.8832 163.397269 
L 97.4784 162.506472 
L 98.6688 160.022645 
L 101.6448 152.408643 
L 102.24 151.668458 
L 102.8352 151.703009 
L 103.4304 152.679405 
L 104.0256 154.49206 
L 106.4064 164.527122 
L 107.0016 166.234785 
L 107.5968 167.394102 
L 108.192 167.980327 
L 108.7872 168.228197 
L 109.3824 168.162592 
L 109.9776 167.845452 
L 111.168 166.667909 
L 112.3584 164.841596 
L 113.5488 162.41111 
L 115.3344 157.369925 
L 116.5248 153.700461 
L 117.12 152.063691 
L 117.7152 151.054126 
L 118.3104 150.750969 
L 118.9056 151.498762 
L 119.5008 153.296893 
L 120.6912 158.917082 
L 121.8816 164.588055 
L 122.4768 166.625839 
L 123.072 167.981388 
L 123.6672 168.749903 
L 124.2624 169.06794 
L 124.8576 169.007159 
L 126.048 168.304996 
L 126.6432 167.679025 
L 127.8336 166.028916 
L 128.4288 164.953214 
L 129.6192 162.263938 
L 130.8096 158.712687 
L 132.5952 152.527382 
L 133.1904 150.851796 
L 133.7856 149.786975 
L 134.3808 149.714959 
L 134.976 150.920617 
L 135.5712 153.209583 
L 137.952 166.067226 
L 138.5472 168.129927 
L 139.1424 169.296509 
L 139.7376 169.9511 
L 140.3328 170.134672 
L 140.928 170.008867 
L 141.5232 169.696144 
L 142.1184 169.193671 
L 143.3088 167.779056 
L 143.904 166.945462 
L 145.0944 164.676776 
L 146.2848 161.590147 
L 147.4752 157.499972 
L 149.2608 150.505093 
L 149.856 148.857033 
L 150.4512 148.193418 
L 151.0464 148.843357 
L 151.6416 151.012142 
L 152.2368 154.453922 
L 153.4272 162.665715 
L 154.0224 166.174724 
L 154.6176 168.723071 
L 155.2128 170.334084 
L 155.808 171.127315 
L 156.4032 171.503394 
L 156.9984 171.391146 
L 157.5936 171.118721 
L 158.784 170.196013 
L 159.9744 168.9521 
L 161.1648 167.171392 
L 161.76 166.108656 
L 162.3552 164.785994 
L 163.5456 161.306875 
L 164.736 156.534166 
L 166.5216 148.40884 
L 167.1168 146.520581 
L 167.712 146.067726 
L 168.3072 147.470867 
L 168.9024 150.804783 
L 171.2832 168.98472 
L 171.8784 171.323784 
L 172.4736 172.774044 
L 173.0688 173.342475 
L 173.664 173.489186 
L 174.8544 172.970236 
L 176.0448 172.268294 
L 178.4256 170.439475 
L 179.0208 169.853624 
L 180.2112 168.239873 
L 180.8064 167.151024 
L 181.4016 165.82168 
L 182.592 162.074634 
L 183.1872 159.635929 
L 184.3776 153.222994 
L 185.568 145.913075 
L 186.1632 143.144227 
L 186.7584 142.157736 
L 187.3536 143.756069 
L 187.9488 148.276904 
L 189.7344 168.378324 
L 190.3296 172.740402 
L 190.9248 175.354276 
L 191.52 176.594501 
L 192.1152 177.009251 
L 192.7104 177.044773 
L 193.9008 176.666547 
L 194.496 176.527341 
L 195.0912 176.507809 
L 195.6864 176.674764 
L 196.8768 177.403187 
L 197.472 178.01778 
L 198.0672 178.818871 
L 199.2576 181.084264 
L 200.448 184.646725 
L 201.6384 189.724469 
L 204.0192 201.732024 
L 204.6144 202.606606 
L 205.2096 201.16264 
L 205.8048 197.25125 
L 207.5904 179.566444 
L 208.1856 175.461566 
L 208.7808 172.919632 
L 209.376 171.535043 
L 209.9712 170.984773 
L 210.5664 170.924431 
L 212.352 171.606249 
L 213.5424 171.842325 
L 214.7328 171.881275 
L 216.5184 171.251008 
L 217.7088 170.518696 
L 218.8992 169.063174 
L 219.4944 168.0749 
L 220.0896 166.867827 
L 220.6848 165.256699 
L 221.28 163.252489 
L 221.8752 160.749721 
L 222.4704 157.683328 
L 223.6608 149.802825 
L 224.8512 141.711543 
L 225.4464 139.582717 
L 226.0416 140.389095 
L 226.6368 144.969447 
L 229.0176 174.399086 
L 229.6128 177.547366 
L 230.208 179.009093 
L 230.8032 179.400219 
L 231.3984 179.389964 
L 231.9936 179.172539 
L 233.184 179.121203 
L 233.7792 179.298985 
L 234.3744 179.681533 
L 234.9696 180.282563 
L 235.5648 181.151163 
L 236.16 182.247424 
L 237.3504 185.300311 
L 238.5408 189.49399 
L 240.3264 196.456765 
L 240.9216 198.06211 
L 241.5168 198.507612 
L 242.112 197.518986 
L 242.7072 194.99426 
L 243.8976 186.854153 
L 245.088 179.437744 
L 245.6832 177.066151 
L 246.2784 175.625358 
L 246.8736 174.894041 
L 247.4688 174.699107 
L 248.064 174.775257 
L 249.2544 175.513557 
L 249.8496 175.996217 
L 251.04 177.296808 
L 252.2304 179.081414 
L 252.8256 180.067663 
L 254.016 182.972454 
L 255.2064 187.044095 
L 256.3968 192.390267 
L 257.5872 198.107264 
L 258.1824 200.112512 
L 258.7776 200.769374 
L 259.3728 199.570256 
L 259.968 196.286754 
L 262.3488 177.311126 
L 262.944 174.767691 
L 263.5392 173.332615 
L 264.1344 172.732771 
L 264.7296 172.63443 
L 265.3248 172.764136 
L 267.7056 174.013441 
L 270.6816 176.172009 
L 271.872 177.627565 
L 272.4672 178.589329 
L 273.6576 181.389248 
L 274.2528 183.319704 
L 275.4432 188.589211 
L 276.6336 195.888358 
L 277.824 203.267102 
L 278.4192 205.27753 
L 279.0144 204.760825 
L 279.6096 200.92747 
L 280.8 186.376709 
L 281.3952 179.158966 
L 281.9904 173.923424 
L 282.5856 170.709731 
L 283.1808 169.09932 
L 283.776 168.463247 
L 284.3712 168.393969 
L 286.1568 168.774391 
L 286.752 168.747385 
L 287.3472 168.56862 
L 288.5376 167.538148 
L 289.1328 166.773552 
L 289.728 165.699205 
L 290.3232 164.383387 
L 291.5136 160.8606 
L 292.704 155.975827 
L 294.4896 147.672017 
L 295.0848 146.008462 
L 295.68 145.902309 
L 296.2752 147.737759 
L 296.8704 151.59873 
L 298.656 166.641762 
L 299.2512 169.984946 
L 299.8464 172.105951 
L 300.4416 173.276743 
L 301.0368 173.706811 
L 301.632 173.775478 
L 302.2272 173.572816 
L 305.7984 171.453537 
L 306.9888 170.44552 
L 307.584 169.898662 
L 308.7744 168.232511 
L 309.3696 167.103642 
L 309.9648 165.63888 
L 310.56 163.856089 
L 311.1552 161.703346 
L 311.7504 159.056142 
L 312.9408 152.273793 
L 314.1312 144.591066 
L 314.7264 141.934689 
L 315.3216 141.336846 
L 315.9168 143.758568 
L 316.512 149.275658 
L 318.2976 170.36557 
L 318.8928 174.362423 
L 319.488 176.636303 
L 320.0832 177.569763 
L 320.6784 177.831137 
L 321.2736 177.75512 
L 321.8688 177.529725 
L 323.0592 177.402588 
L 324.2496 177.79151 
L 324.8448 178.26724 
L 325.44 178.964403 
L 326.0352 179.883335 
L 326.6304 181.01742 
L 327.2256 182.413308 
L 327.8208 184.133933 
L 329.0112 188.624504 
L 331.392 199.657744 
L 331.9872 200.941561 
L 332.5824 200.536157 
L 333.1776 198.011652 
L 333.7728 193.577149 
L 334.9632 182.770146 
L 335.5584 178.431662 
L 336.1536 175.348022 
L 336.7488 173.520003 
L 337.344 172.665342 
L 337.9392 172.401349 
L 338.5344 172.432217 
L 339.7248 172.966005 
L 342.1056 174.226896 
L 343.296 174.843011 
L 344.4864 175.761957 
L 345.0816 176.302103 
L 346.272 177.882477 
L 346.8672 179.025553 
L 347.4624 180.416586 
L 348.0576 182.18013 
L 348.6528 184.39227 
L 349.248 187.046225 
L 350.4384 194.09553 
L 351.6288 202.252973 
L 352.224 205.290209 
L 352.8192 206.243851 
L 353.4144 203.914131 
L 354.0096 198.114357 
L 355.7952 175.420496 
L 356.3904 171.091293 
L 356.9856 168.838182 
L 357.5808 167.853394 
L 358.176 167.651209 
L 358.7712 167.711607 
L 359.9616 167.988988 
L 360.5568 168.004723 
L 361.152 167.725324 
L 361.7472 167.317675 
L 362.9376 165.85633 
L 364.128 163.35897 
L 365.3184 159.67593 
L 366.5088 154.878169 
L 367.6992 149.742323 
L 368.2944 147.828469 
L 368.8896 147.020478 
L 369.4848 147.690882 
L 370.08 150.208252 
L 370.6752 154.158002 
L 371.8656 163.474432 
L 372.4608 167.175622 
L 373.056 169.834192 
L 373.6512 171.499734 
L 374.2464 172.309506 
L 374.8416 172.628905 
L 375.4368 172.555295 
L 376.032 172.270858 
L 377.8176 170.939896 
L 379.008 169.751998 
L 380.1984 168.267954 
L 381.3888 166.004092 
L 381.984 164.563583 
L 383.1744 160.610153 
L 384.3648 155.093038 
L 386.1504 145.824282 
L 386.7456 144.181885 
L 387.3408 144.48946 
L 387.936 147.245333 
L 388.5312 152.106092 
L 389.7216 164.259068 
L 390.3168 169.000191 
L 390.912 172.317492 
L 391.5072 174.176281 
L 392.1024 175.061945 
L 392.6976 175.308663 
L 393.2928 175.213864 
L 395.0784 174.502321 
L 395.6736 174.301971 
L 397.4592 174.266141 
L 398.6496 174.450054 
L 399.84 175.004598 
L 401.0304 175.85113 
L 402.2208 177.278556 
L 402.816 178.276456 
L 403.4112 179.580224 
L 404.0064 181.161254 
L 404.6016 183.250855 
L 405.1968 185.821584 
L 406.3872 192.851647 
L 408.1728 205.74515 
L 408.768 207.797028 
L 409.3632 206.637374 
L 409.9584 201.38889 
L 411.744 175.896858 
L 412.3392 170.631842 
L 412.9344 167.801929 
L 413.5296 166.524879 
L 414.1248 166.198773 
L 414.72 166.267987 
L 414.72 166.267987 
" clip-path="url(#pbe1a3df2aa)" style="fill: none; stroke: #0000cc; stroke-width: 1.5; stroke-linecap: square"/>
   </g>
   <g id="line2d_28">
    <path d="M 57.6 180.011094 
L 58.195191 181.358979 
L 58.790405 182.993243 
L 59.980809 187.295935 
L 61.171191 193.022745 
L 62.361595 199.073719 
L 62.956809 201.16727 
L 63.552 201.729544 
L 64.147191 200.152105 
L 64.742405 196.322932 
L 66.528 179.80911 
L 67.123191 175.972258 
L 67.718405 173.548667 
L 68.313595 172.265945 
L 68.908809 171.757837 
L 69.504 171.706352 
L 70.694405 172.153708 
L 72.48 172.899669 
L 74.265595 173.342648 
L 77.241595 173.951979 
L 78.432 174.3692 
L 79.622405 175.035939 
L 80.812809 176.129251 
L 81.408 176.920998 
L 82.003191 177.941483 
L 82.598405 179.257623 
L 83.193595 180.952113 
L 83.788809 183.123957 
L 84.384 185.883936 
L 84.979191 189.335916 
L 86.169595 198.382031 
L 87.36 207.905223 
L 87.955191 210.104471 
L 88.550405 208.313288 
L 89.145595 201.728264 
L 90.931191 172.974252 
L 91.526405 167.829181 
L 92.121595 165.268292 
L 92.716809 164.335499 
L 93.312 164.22256 
L 94.502405 164.593812 
L 95.097595 164.637242 
L 95.692809 164.469074 
L 96.288 164.063127 
L 96.883191 163.413481 
L 97.478405 162.52254 
L 98.668809 160.059912 
L 100.454405 155.207706 
L 101.644809 152.390774 
L 102.24 151.681943 
L 102.835191 151.733895 
L 103.430405 152.676203 
L 104.025595 154.477297 
L 105.216 159.644372 
L 106.406405 164.523407 
L 107.001595 166.229528 
L 107.596809 167.372767 
L 108.192 168.013756 
L 108.787191 168.247313 
L 109.382405 168.166682 
L 109.977595 167.84694 
L 110.572809 167.338419 
L 111.763191 165.847474 
L 112.953595 163.729138 
L 114.144 160.902563 
L 115.334405 157.386688 
L 116.524809 153.644724 
L 117.12 152.065731 
L 117.715191 151.007305 
L 118.310405 150.742439 
L 118.905595 151.476687 
L 119.500809 153.245613 
L 120.691191 158.903873 
L 121.881595 164.569275 
L 122.476809 166.59174 
L 123.072 167.962127 
L 123.667191 168.750802 
L 124.262405 169.075194 
L 124.857595 169.052737 
L 125.452809 168.777159 
L 126.048 168.312119 
L 127.238405 166.933126 
L 128.428809 164.964469 
L 129.619191 162.277458 
L 130.809595 158.756687 
L 133.190405 150.853672 
L 133.785595 149.79437 
L 134.380809 149.718387 
L 134.976 150.851955 
L 135.571191 153.18182 
L 137.952 166.070098 
L 138.547191 168.059774 
L 139.142405 169.311638 
L 139.737595 169.956102 
L 140.332809 170.148803 
L 140.928 170.025392 
L 141.523191 169.684581 
L 142.713595 168.563202 
L 143.904 166.943575 
L 145.094405 164.70726 
L 146.284809 161.625408 
L 147.475191 157.545747 
L 149.260809 150.564916 
L 149.856 148.877959 
L 150.451191 148.158118 
L 151.046405 148.794326 
L 151.641595 150.946611 
L 152.236809 154.390377 
L 154.022405 166.103633 
L 154.617595 168.656874 
L 155.212809 170.291434 
L 155.808 171.16839 
L 156.403191 171.495297 
L 156.998405 171.45668 
L 157.593595 171.187946 
L 158.784 170.262863 
L 159.974405 168.983333 
L 161.164809 167.26417 
L 162.355191 164.849899 
L 163.545595 161.410586 
L 164.736 156.70722 
L 166.521595 148.49163 
L 167.116809 146.613798 
L 167.712 146.060956 
L 168.307191 147.337498 
L 168.902405 150.558073 
L 171.283191 168.894608 
L 171.878405 171.344216 
L 172.473595 172.732144 
L 173.068809 173.349868 
L 173.664 173.475998 
L 174.259191 173.322179 
L 175.449595 172.668833 
L 177.830405 171.028477 
L 179.020809 169.934312 
L 180.211191 168.370562 
L 180.806405 167.312897 
L 181.401595 166.003953 
L 181.996809 164.383015 
L 182.592 162.385742 
L 183.187191 159.949909 
L 184.377595 153.664412 
L 185.568 146.3276 
L 186.163191 143.370007 
L 186.758405 142.03929 
L 187.353595 143.284619 
L 187.948809 147.50672 
L 189.734405 167.741844 
L 190.329595 172.371126 
L 190.924809 175.171906 
L 191.52 176.565136 
L 192.115191 177.065948 
L 192.710405 177.093283 
L 194.496 176.618795 
L 195.091191 176.610552 
L 195.686405 176.737072 
L 196.281595 177.009706 
L 196.876809 177.439601 
L 197.472 178.040915 
L 198.067191 178.83552 
L 198.662405 179.853045 
L 199.257595 181.132231 
L 199.852809 182.718204 
L 200.448 184.659241 
L 201.638382 189.740658 
L 204.019191 201.629879 
L 204.614382 202.46795 
L 205.209618 201.067483 
L 205.804809 197.219092 
L 207.590382 179.724675 
L 208.185618 175.609583 
L 208.780809 173.021533 
L 209.376 171.661129 
L 209.971191 171.12452 
L 210.566382 171.063005 
L 211.756809 171.475237 
L 212.947191 171.900597 
L 214.137618 172.076845 
L 215.328 171.984155 
L 216.518382 171.624371 
L 217.708809 170.945335 
L 218.899191 169.810059 
L 219.494382 168.996623 
L 220.089618 167.960763 
L 220.684809 166.643823 
L 221.28 164.974201 
L 221.875191 162.868819 
L 222.470382 160.240267 
L 223.660809 153.179185 
L 225.446382 140.710053 
L 226.041618 138.951529 
L 226.636809 140.506133 
L 227.232 145.963967 
L 229.017618 170.760602 
L 229.612809 175.725086 
L 230.208 178.432075 
L 230.803191 179.586385 
L 231.398382 179.873043 
L 233.779191 179.572075 
L 234.374382 179.838328 
L 234.969618 180.324898 
L 235.564809 181.043934 
L 236.16 182.007688 
L 236.755191 183.229895 
L 237.945618 186.491567 
L 239.136 190.753997 
L 240.326382 195.261185 
L 240.921618 196.999841 
L 241.516809 197.885859 
L 242.112 197.534026 
L 242.707191 195.741221 
L 243.302382 192.645259 
L 245.088 181.219335 
L 245.683191 178.538215 
L 246.278382 176.752397 
L 246.873618 175.739217 
L 247.468809 175.307966 
L 248.064 175.2762 
L 248.659191 175.505192 
L 249.849618 176.408953 
L 251.04 177.713596 
L 252.230382 179.480185 
L 253.420809 181.949933 
L 254.611191 185.430391 
L 255.801618 190.106288 
L 257.587191 197.902968 
L 258.182382 199.500921 
L 258.777618 199.747972 
L 259.372809 198.22443 
L 259.968 194.912179 
L 261.753618 180.973626 
L 262.348809 177.591376 
L 262.944 175.357349 
L 263.539191 174.102309 
L 264.134382 173.557415 
L 264.729618 173.469967 
L 265.324809 173.648903 
L 266.515191 174.363509 
L 268.300809 175.771555 
L 269.491191 177.002225 
L 270.681618 178.728731 
L 271.276809 179.880258 
L 271.872 181.291559 
L 272.467191 183.018998 
L 273.062382 185.120499 
L 274.252809 190.588865 
L 276.038382 200.513221 
L 276.633618 202.693954 
L 277.228809 203.029483 
L 277.824 200.835257 
L 278.419191 196.10064 
L 280.204809 177.810779 
L 280.8 174.042822 
L 281.395191 171.829505 
L 281.990382 170.769082 
L 282.585618 170.428698 
L 283.180809 170.469631 
L 285.561618 171.156068 
L 286.752 171.054377 
L 287.942382 170.537383 
L 288.537618 170.102867 
L 289.132809 169.52919 
L 289.728 168.789867 
L 290.323191 167.848851 
L 290.918382 166.660456 
L 291.513618 165.168242 
L 292.108809 163.307142 
L 292.704 161.008806 
L 293.894382 154.913421 
L 295.68 143.78337 
L 296.275191 141.579355 
L 296.870382 141.75193 
L 297.465618 145.057249 
L 298.060809 151.244278 
L 299.251191 166.098512 
L 299.846382 171.603843 
L 300.441618 175.089215 
L 301.036809 176.914361 
L 301.632 177.644367 
L 302.227191 177.772594 
L 304.608 177.351316 
L 305.203191 177.51085 
L 305.798382 177.838203 
L 306.393618 178.346297 
L 306.988809 179.050964 
L 307.584 179.974689 
L 308.179191 181.146406 
L 308.774382 182.603928 
L 309.369618 184.384908 
L 310.56 189.022651 
L 312.940809 200.095048 
L 313.536 201.201201 
L 314.131191 200.449843 
L 314.726382 197.540839 
L 315.916809 187.224337 
L 316.512 181.915493 
L 317.107191 177.695084 
L 317.702382 174.830128 
L 318.297618 173.173595 
L 318.892809 172.403656 
L 319.488 172.197081 
L 320.083191 172.304702 
L 321.868809 173.181454 
L 326.035191 175.352567 
L 327.225618 176.453417 
L 327.820809 177.214918 
L 328.416 178.173127 
L 329.011191 179.382125 
L 329.606382 180.907454 
L 330.201618 182.825761 
L 330.796809 185.219593 
L 331.392 188.164395 
L 332.582382 195.751604 
L 333.772809 204.000654 
L 334.368 206.534349 
L 334.963191 206.353663 
L 335.558382 202.530717 
L 336.153618 195.390146 
L 337.344 178.773661 
L 337.939191 172.955518 
L 338.534382 169.462112 
L 339.129618 167.760059 
L 339.724809 167.163971 
L 340.32 167.12449 
L 341.510382 167.430038 
L 342.105618 167.457563 
L 342.700809 167.310487 
L 343.296 166.962392 
L 343.891191 166.398609 
L 344.486382 165.60447 
L 345.081618 164.564315 
L 345.676809 163.259514 
L 346.867191 159.790056 
L 348.057618 155.241305 
L 349.248 150.430254 
L 349.843191 148.608809 
L 350.438382 147.754367 
L 351.033618 148.296406 
L 351.628809 150.43675 
L 352.224 153.969459 
L 354.009618 166.225516 
L 354.604809 168.905462 
L 355.2 170.616031 
L 355.795191 171.531558 
L 356.390382 171.875871 
L 356.985618 171.84679 
L 357.580809 171.588875 
L 358.771191 170.708519 
L 359.961618 169.520707 
L 361.152 167.95132 
L 362.342382 165.751367 
L 363.532809 162.577739 
L 364.723191 158.103889 
L 367.104 146.968635 
L 367.699191 145.515366 
L 368.294382 145.750357 
L 368.889618 148.082589 
L 369.484809 152.351941 
L 371.270382 167.650676 
L 371.865618 170.838585 
L 372.460809 172.77264 
L 373.056 173.74129 
L 373.651191 174.070927 
L 374.246382 174.028359 
L 375.436809 173.489577 
L 379.603191 171.185505 
L 380.793618 170.154919 
L 381.388809 169.455659 
L 381.984 168.58298 
L 382.579191 167.487826 
L 383.174382 166.111571 
L 383.769618 164.384477 
L 384.364809 162.229375 
L 384.96 159.570711 
L 386.150382 152.603215 
L 387.340809 144.427615 
L 387.936 141.267859 
L 388.531191 140.174447 
L 389.126382 142.269767 
L 389.721618 147.842796 
L 391.507191 170.634255 
L 392.102382 175.057721 
L 392.697618 177.480803 
L 393.292809 178.524883 
L 393.888 178.787915 
L 396.268809 178.440322 
L 396.864 178.643295 
L 397.459191 179.041113 
L 398.054382 179.648668 
L 398.649618 180.481015 
L 399.244809 181.558744 
L 399.84 182.905978 
L 401.030382 186.503255 
L 402.220809 191.29041 
L 403.411191 196.478389 
L 404.006382 198.499762 
L 404.601618 199.497472 
L 405.196809 198.973451 
L 405.792 196.677274 
L 406.387191 192.828043 
L 408.172809 179.566967 
L 408.768 176.755638 
L 409.363191 175.004398 
L 409.958382 174.097001 
L 410.553618 173.775446 
L 411.148809 173.820743 
L 412.339191 174.447402 
L 413.529618 175.361549 
L 414.72 176.478138 
L 414.72 176.478138 
" clip-path="url(#pbe1a3df2aa)" style="fill: none; stroke-dasharray: 9.6,2.4,1.5,2.4; stroke-dashoffset: 0; stroke: #ff0000; stroke-width: 1.5"/>
   </g>
   <g id="patch_8">
    <path d="M 57.6 213.662118 
L 57.6 135.393882 
" style="fill: none; stroke: #000000; stroke-width: 0.8; stroke-linejoin: miter; stroke-linecap: square"/>
   </g>
   <g id="patch_9">
    <path d="M 414.72 213.662118 
L 414.72 135.393882 
" style="fill: none; stroke: #000000; stroke-width: 0.8; stroke-linejoin: miter; stroke-linecap: square"/>
   </g>
   <g id="patch_10">
    <path d="M 57.6 213.662118 
L 414.72 213.662118 
" style="fill: none; stroke: #000000; stroke-width: 0.8; stroke-linejoin: miter; stroke-linecap: square"/>
   </g>
   <g id="patch_11">
    <path d="M 57.6 135.393882 
L 414.72 135.393882 
" style="fill: none; stroke: #000000; stroke-width: 0.8; stroke-linejoin: miter; stroke-linecap: square"/>
   </g>
  </g>
  <g id="axes_3">
   <g id="patch_12">
    <path d="M 57.6 307.584 
L 414.72 307.584 
L 414.72 229.315765 
L 57.6 229.315765 
z
" style="fill: #ffffff"/>
   </g>
   <g id="matplotlib.axis_5">
    <g id="xtick_19">
     <g id="line2d_29">
      <g>
       <use xlink:href="#m60d9705d9e" x="57.6" y="307.584" style="stroke: #000000; stroke-width: 0.8"/>
      </g>
     </g>
     <g id="text_7">
      <!-- 10 -->
      <g transform="translate(51.2375 322.182437) scale(0.1 -0.1)">
       <use xlink:href="#DejaVuSans-31"/>
       <use xlink:href="#DejaVuSans-30" x="63.623047"/>
      </g>
     </g>
    </g>
    <g id="xtick_20">
     <g id="line2d_30">
      <g>
       <use xlink:href="#m60d9705d9e" x="105.216" y="307.584" style="stroke: #000000; stroke-width: 0.8"/>
      </g>
     </g>
     <g id="text_8">
      <!-- 12 -->
      <g transform="translate(98.8535 322.182437) scale(0.1 -0.1)">
       <use xlink:href="#DejaVuSans-31"/>
       <use xlink:href="#DejaVuSans-32" x="63.623047"/>
      </g>
     </g>
    </g>
    <g id="xtick_21">
     <g id="line2d_31">
      <g>
       <use xlink:href="#m60d9705d9e" x="152.832" y="307.584" style="stroke: #000000; stroke-width: 0.8"/>
      </g>
     </g>
     <g id="text_9">
      <!-- 14 -->
      <g transform="translate(146.4695 322.182437) scale(0.1 -0.1)">
       <defs>
        <path id="DejaVuSans-34" d="M 2419 4116 
L 825 1625 
L 2419 1625 
L 2419 4116 
z
M 2253 4666 
L 3047 4666 
L 3047 1625 
L 3713 1625 
L 3713 1100 
L 3047 1100 
L 3047 0 
L 2419 0 
L 2419 1100 
L 313 1100 
L 313 1709 
L 2253 4666 
z
" transform="scale(0.015625)"/>
       </defs>
       <use xlink:href="#DejaVuSans-31"/>
       <use xlink:href="#DejaVuSans-34" x="63.623047"/>
      </g>
     </g>
    </g>
    <g id="xtick_22">
     <g id="line2d_32">
      <g>
       <use xlink:href="#m60d9705d9e" x="200.448" y="307.584" style="stroke: #000000; stroke-width: 0.8"/>
      </g>
     </g>
     <g id="text_10">
      <!-- 16 -->
      <g transform="translate(194.0855 322.182437) scale(0.1 -0.1)">
       <defs>
        <path id="DejaVuSans-36" d="M 2113 2584 
Q 1688 2584 1439 2293 
Q 1191 2003 1191 1497 
Q 1191 994 1439 701 
Q 1688 409 2113 409 
Q 2538 409 2786 701 
Q 3034 994 3034 1497 
Q 3034 2003 2786 2293 
Q 2538 2584 2113 2584 
z
M 3366 4563 
L 3366 3988 
Q 3128 4100 2886 4159 
Q 2644 4219 2406 4219 
Q 1781 4219 1451 3797 
Q 1122 3375 1075 2522 
Q 1259 2794 1537 2939 
Q 1816 3084 2150 3084 
Q 2853 3084 3261 2657 
Q 3669 2231 3669 1497 
Q 3669 778 3244 343 
Q 2819 -91 2113 -91 
Q 1303 -91 875 529 
Q 447 1150 447 2328 
Q 447 3434 972 4092 
Q 1497 4750 2381 4750 
Q 2619 4750 2861 4703 
Q 3103 4656 3366 4563 
z
" transform="scale(0.015625)"/>
       </defs>
       <use xlink:href="#DejaVuSans-31"/>
       <use xlink:href="#DejaVuSans-36" x="63.623047"/>
      </g>
     </g>
    </g>
    <g id="xtick_23">
     <g id="line2d_33">
      <g>
       <use xlink:href="#m60d9705d9e" x="248.064" y="307.584" style="stroke: #000000; stroke-width: 0.8"/>
      </g>
     </g>
     <g id="text_11">
      <!-- 18 -->
      <g transform="translate(241.7015 322.182437) scale(0.1 -0.1)">
       <defs>
        <path id="DejaVuSans-38" d="M 2034 2216 
Q 1584 2216 1326 1975 
Q 1069 1734 1069 1313 
Q 1069 891 1326 650 
Q 1584 409 2034 409 
Q 2484 409 2743 651 
Q 3003 894 3003 1313 
Q 3003 1734 2745 1975 
Q 2488 2216 2034 2216 
z
M 1403 2484 
Q 997 2584 770 2862 
Q 544 3141 544 3541 
Q 544 4100 942 4425 
Q 1341 4750 2034 4750 
Q 2731 4750 3128 4425 
Q 3525 4100 3525 3541 
Q 3525 3141 3298 2862 
Q 3072 2584 2669 2484 
Q 3125 2378 3379 2068 
Q 3634 1759 3634 1313 
Q 3634 634 3220 271 
Q 2806 -91 2034 -91 
Q 1263 -91 848 271 
Q 434 634 434 1313 
Q 434 1759 690 2068 
Q 947 2378 1403 2484 
z
M 1172 3481 
Q 1172 3119 1398 2916 
Q 1625 2713 2034 2713 
Q 2441 2713 2670 2916 
Q 2900 3119 2900 3481 
Q 2900 3844 2670 4047 
Q 2441 4250 2034 4250 
Q 1625 4250 1398 4047 
Q 1172 3844 1172 3481 
z
" transform="scale(0.015625)"/>
       </defs>
       <use xlink:href="#DejaVuSans-31"/>
       <use xlink:href="#DejaVuSans-38" x="63.623047"/>
      </g>
     </g>
    </g>
    <g id="xtick_24">
     <g id="line2d_34">
      <g>
       <use xlink:href="#m60d9705d9e" x="295.68" y="307.584" style="stroke: #000000; stroke-width: 0.8"/>
      </g>
     </g>
     <g id="text_12">
      <!-- 20 -->
      <g transform="translate(289.3175 322.182437) scale(0.1 -0.1)">
       <use xlink:href="#DejaVuSans-32"/>
       <use xlink:href="#DejaVuSans-30" x="63.623047"/>
      </g>
     </g>
    </g>
    <g id="xtick_25">
     <g id="line2d_35">
      <g>
       <use xlink:href="#m60d9705d9e" x="343.296" y="307.584" style="stroke: #000000; stroke-width: 0.8"/>
      </g>
     </g>
     <g id="text_13">
      <!-- 22 -->
      <g transform="translate(336.9335 322.182437) scale(0.1 -0.1)">
       <use xlink:href="#DejaVuSans-32"/>
       <use xlink:href="#DejaVuSans-32" x="63.623047"/>
      </g>
     </g>
    </g>
    <g id="xtick_26">
     <g id="line2d_36">
      <g>
       <use xlink:href="#m60d9705d9e" x="390.912" y="307.584" style="stroke: #000000; stroke-width: 0.8"/>
      </g>
     </g>
     <g id="text_14">
      <!-- 24 -->
      <g transform="translate(384.5495 322.182437) scale(0.1 -0.1)">
       <use xlink:href="#DejaVuSans-32"/>
       <use xlink:href="#DejaVuSans-34" x="63.623047"/>
      </g>
     </g>
    </g>
    <g id="xtick_27">
     <g id="line2d_37">
      <g>
       <use xlink:href="#m60d9705d9e" x="414.72" y="307.584" style="stroke: #000000; stroke-width: 0.8"/>
      </g>
     </g>
     <g id="text_15">
      <!-- 25 -->
      <g transform="translate(408.3575 322.182437) scale(0.1 -0.1)">
       <defs>
        <path id="DejaVuSans-35" d="M 691 4666 
L 3169 4666 
L 3169 4134 
L 1269 4134 
L 1269 2991 
Q 1406 3038 1543 3061 
Q 1681 3084 1819 3084 
Q 2600 3084 3056 2656 
Q 3513 2228 3513 1497 
Q 3513 744 3044 326 
Q 2575 -91 1722 -91 
Q 1428 -91 1123 -41 
Q 819 9 494 109 
L 494 744 
Q 775 591 1075 516 
Q 1375 441 1709 441 
Q 2250 441 2565 725 
Q 2881 1009 2881 1497 
Q 2881 1984 2565 2268 
Q 2250 2553 1709 2553 
Q 1456 2553 1204 2497 
Q 953 2441 691 2322 
L 691 4666 
z
" transform="scale(0.015625)"/>
       </defs>
       <use xlink:href="#DejaVuSans-32"/>
       <use xlink:href="#DejaVuSans-35" x="63.623047"/>
      </g>
     </g>
    </g>
   </g>
   <g id="matplotlib.axis_6">
    <g id="ytick_7">
     <g id="line2d_38">
      <g>
       <use xlink:href="#m03c3990b83" x="57.6" y="278.336549" style="stroke: #000000; stroke-width: 0.8"/>
      </g>
     </g>
     <g id="text_16">
      <!-- 20 -->
      <g transform="translate(37.875 282.135768) scale(0.1 -0.1)">
       <use xlink:href="#DejaVuSans-32"/>
       <use xlink:href="#DejaVuSans-30" x="63.623047"/>
      </g>
     </g>
    </g>
    <g id="ytick_8">
     <g id="line2d_39">
      <g>
       <use xlink:href="#m03c3990b83" x="57.6" y="240.47183" style="stroke: #000000; stroke-width: 0.8"/>
      </g>
     </g>
     <g id="text_17">
      <!-- 40 -->
      <g transform="translate(37.875 244.271049) scale(0.1 -0.1)">
       <use xlink:href="#DejaVuSans-34"/>
       <use xlink:href="#DejaVuSans-30" x="63.623047"/>
      </g>
     </g>
    </g>
   </g>
   <g id="line2d_40">
    <path d="M 57.6 287.022417 
L 58.1952 288.250887 
L 58.7904 289.017147 
L 59.3856 289.45686 
L 59.9808 289.3208 
L 60.576 288.389219 
L 61.1712 286.464795 
L 61.7664 283.204702 
L 62.3616 278.387247 
L 62.9568 271.986284 
L 64.7424 249.233908 
L 65.3376 244.825018 
L 65.9328 243.337092 
L 66.528 244.803628 
L 67.1232 247.949704 
L 70.0992 267.495695 
L 71.2896 273.693755 
L 73.0752 281.422334 
L 74.2656 285.768424 
L 76.0512 291.260605 
L 77.2416 294.347918 
L 79.0272 298.322112 
L 80.8128 301.383642 
L 82.0032 302.980752 
L 82.5984 303.590482 
L 83.1936 303.881607 
L 83.7888 304.026353 
L 84.384 303.540781 
L 84.9792 302.389299 
L 85.5744 300.091194 
L 86.1696 296.092911 
L 86.7648 289.736381 
L 87.36 280.270428 
L 89.1456 241.2687 
L 89.7408 233.820294 
L 90.336 232.891184 
L 90.9312 236.763161 
L 92.7168 254.578082 
L 93.9072 263.037479 
L 95.0976 269.088694 
L 95.6928 271.488958 
L 96.8832 275.102283 
L 97.4784 276.477095 
L 98.0736 277.378363 
L 98.6688 277.812954 
L 99.264 277.807426 
L 99.8592 277.083521 
L 100.4544 275.747068 
L 101.0496 273.601697 
L 101.6448 270.786624 
L 102.8352 263.390413 
L 104.0256 256.299434 
L 104.6208 254.037609 
L 105.216 252.917274 
L 105.8112 253.129718 
L 106.4064 254.231052 
L 107.0016 256.121656 
L 108.7872 263.728818 
L 110.5728 271.004282 
L 111.7632 274.955898 
L 112.9536 277.941218 
L 113.5488 278.860712 
L 114.144 279.443472 
L 114.7392 279.447957 
L 115.3344 278.92895 
L 115.9296 277.626226 
L 116.5248 275.573416 
L 117.12 272.587228 
L 118.3104 264.64588 
L 119.5008 256.372049 
L 120.096 253.457825 
L 120.6912 251.874334 
L 121.2864 251.768372 
L 121.8816 252.791862 
L 122.4768 254.841158 
L 123.6672 260.125763 
L 125.4528 268.43352 
L 126.6432 273.154265 
L 127.8336 277.079718 
L 128.4288 278.68251 
L 129.024 279.937289 
L 129.6192 280.797068 
L 130.2144 281.304183 
L 130.8096 281.195105 
L 131.4048 280.350394 
L 132 278.762884 
L 132.5952 276.258243 
L 133.1904 272.776184 
L 134.3808 263.464184 
L 135.5712 254.260098 
L 136.1664 251.400071 
L 136.7616 250.11906 
L 137.3568 250.505939 
L 137.952 252.244986 
L 139.1424 257.659261 
L 140.928 266.739854 
L 142.1184 272.18578 
L 143.3088 276.688305 
L 144.4992 280.338072 
L 145.0944 281.815418 
L 145.6896 282.836156 
L 146.2848 283.567529 
L 146.88 283.627509 
L 147.4752 283.109336 
L 148.0704 281.819385 
L 148.6656 279.459427 
L 149.2608 276.040829 
L 149.856 271.458688 
L 151.6416 254.71625 
L 152.2368 250.58063 
L 152.832 248.466237 
L 153.4272 248.341485 
L 154.0224 249.847226 
L 155.2128 255.797781 
L 157.5936 268.873186 
L 158.784 274.27242 
L 159.9744 279.010981 
L 161.1648 282.854433 
L 161.76 284.438595 
L 162.3552 285.700505 
L 162.9504 286.598344 
L 163.5456 287.092261 
L 164.1408 286.993722 
L 164.736 286.202415 
L 165.3312 284.391323 
L 165.9264 281.394063 
L 166.5216 276.987422 
L 167.712 264.293268 
L 168.9024 250.946056 
L 169.4976 246.784648 
L 170.0928 245.277443 
L 170.688 246.150806 
L 171.2832 248.823241 
L 174.8544 270.362494 
L 176.64 278.581552 
L 177.8304 283.124934 
L 179.0208 287.040573 
L 180.2112 290.247869 
L 181.4016 292.720647 
L 181.9968 293.42758 
L 182.592 293.820117 
L 183.1872 293.708183 
L 183.7824 292.685155 
L 184.3776 290.70483 
L 184.9728 287.157695 
L 185.568 281.807347 
L 186.1632 274.463958 
L 187.9488 247.007918 
L 188.544 241.517053 
L 189.1392 240.100703 
L 189.7344 242.029009 
L 190.3296 245.967685 
L 192.1152 259.892085 
L 193.3056 267.419913 
L 194.496 273.587208 
L 195.6864 278.831629 
L 196.8768 283.247675 
L 198.0672 286.895215 
L 198.6624 288.352588 
L 199.8528 290.3972 
L 200.448 290.875265 
L 201.0432 290.779367 
L 201.6384 289.839807 
L 202.2336 287.937322 
L 202.8288 284.785599 
L 203.424 279.882342 
L 204.0192 273.174388 
L 205.8048 248.971451 
L 206.4 244.013065 
L 206.9952 242.352847 
L 207.5904 243.735872 
L 208.1856 247.022381 
L 210.5664 263.744661 
L 211.7568 270.460314 
L 212.9472 276.287288 
L 214.1376 281.303535 
L 215.328 285.615484 
L 216.5184 289.405834 
L 217.7088 292.649001 
L 218.8992 295.300318 
L 219.4944 296.491168 
L 220.0896 297.425859 
L 220.6848 298.097107 
L 221.28 298.387248 
L 221.8752 298.246478 
L 222.4704 297.495706 
L 223.0656 295.68669 
L 223.6608 292.375257 
L 224.256 287.052714 
L 224.8512 279.310117 
L 226.0416 257.44568 
L 226.6368 246.675914 
L 227.232 239.115452 
L 227.8272 236.613057 
L 228.4224 238.513176 
L 229.0176 243.026392 
L 230.208 253.855652 
L 231.3984 262.688945 
L 232.5888 269.486254 
L 233.7792 274.861836 
L 234.9696 279.198037 
L 235.5648 280.961317 
L 236.7552 283.395737 
L 237.3504 283.981591 
L 237.9456 284.002311 
L 238.5408 283.297345 
L 239.136 281.754705 
L 239.7312 279.219497 
L 240.3264 275.470444 
L 241.5168 264.864889 
L 242.7072 253.480361 
L 243.3024 249.635782 
L 243.8976 247.871587 
L 244.4928 248.14898 
L 245.088 250.093301 
L 246.2784 256.39313 
L 248.6592 269.511598 
L 249.8496 274.919254 
L 251.04 279.59935 
L 252.2304 283.385804 
L 252.8256 285.028023 
L 253.4208 286.302111 
L 254.016 287.283019 
L 254.6112 287.773854 
L 255.2064 287.751969 
L 255.8016 287.049634 
L 256.3968 285.270026 
L 256.992 282.350784 
L 257.5872 277.89375 
L 258.1824 272.110632 
L 259.968 250.983585 
L 260.5632 246.545317 
L 261.1584 244.77779 
L 261.7536 245.577407 
L 262.3488 248.200211 
L 265.92 270.126616 
L 267.1104 275.860943 
L 268.3008 280.866007 
L 269.4912 285.201781 
L 271.2768 290.5533 
L 272.4672 293.291509 
L 273.0624 294.392366 
L 273.6576 295.204124 
L 274.2528 295.718341 
L 274.848 295.707922 
L 275.4432 295.057118 
L 276.0384 293.354545 
L 276.6336 290.364797 
L 277.2288 285.501079 
L 277.824 278.399068 
L 279.0144 258.778766 
L 279.6096 248.735076 
L 280.2048 241.560829 
L 280.8 238.688587 
L 281.3952 239.704437 
L 281.9904 243.611399 
L 283.776 258.276512 
L 284.9664 266.142035 
L 286.1568 272.462414 
L 287.3472 277.664495 
L 288.5376 281.912015 
L 289.728 285.241917 
L 290.3232 286.45381 
L 290.9184 287.407203 
L 291.5136 287.732835 
L 292.1088 287.442345 
L 292.704 286.408691 
L 293.2992 284.339601 
L 293.8944 281.000736 
L 294.4896 276.124125 
L 295.68 262.711542 
L 296.8704 249.447844 
L 297.4656 245.745718 
L 298.0608 244.869131 
L 298.656 246.323148 
L 299.2512 249.365811 
L 302.2272 267.985776 
L 303.4176 273.990454 
L 304.608 279.171987 
L 305.7984 283.776688 
L 306.9888 287.625865 
L 308.1792 290.983597 
L 309.3696 293.546203 
L 309.9648 294.492521 
L 310.56 295.181165 
L 311.1552 295.401448 
L 311.7504 295.019356 
L 312.3456 293.811169 
L 312.9408 291.37684 
L 313.536 287.457127 
L 314.1312 281.324529 
L 314.7264 273.15879 
L 316.512 244.390506 
L 317.1072 239.599002 
L 317.7024 239.138866 
L 318.2976 241.996977 
L 321.2736 264.64594 
L 322.464 271.233195 
L 323.6544 276.713638 
L 324.8448 281.260871 
L 326.0352 284.816678 
L 326.6304 286.280004 
L 327.2256 287.393752 
L 327.8208 288.136049 
L 328.416 288.292092 
L 329.0112 287.880734 
L 329.6064 286.582753 
L 330.2016 283.991956 
L 330.7968 280.161164 
L 331.392 274.736666 
L 332.5824 260.357179 
L 333.1776 253.143494 
L 333.7728 247.632399 
L 334.368 244.667954 
L 334.9632 244.641447 
L 335.5584 246.750803 
L 336.7488 254.269151 
L 338.5344 265.691998 
L 339.7248 272.072054 
L 340.9152 277.575361 
L 342.1056 282.342851 
L 343.8912 288.417025 
L 345.0816 291.707241 
L 346.272 294.430897 
L 346.8672 295.568643 
L 348.0576 297.085282 
L 348.6528 297.253796 
L 349.248 296.892292 
L 349.8432 295.699815 
L 350.4384 293.375492 
L 351.0336 289.353998 
L 351.6288 283.162121 
L 352.224 274.578265 
L 354.0096 243.621536 
L 354.6048 238.324754 
L 355.2 237.778907 
L 355.7952 240.839783 
L 358.7712 264.369642 
L 359.9616 270.909443 
L 361.152 276.202683 
L 362.3424 280.453938 
L 363.5328 283.641841 
L 364.128 284.778035 
L 364.7232 285.428738 
L 365.3184 285.619089 
L 365.9136 285.014022 
L 366.5088 283.603809 
L 367.104 281.120556 
L 367.6992 277.344421 
L 368.2944 272.358442 
L 370.08 253.558102 
L 370.6752 249.060341 
L 371.2704 246.777371 
L 371.8656 246.824321 
L 372.4608 248.704679 
L 373.6512 255.350138 
L 375.4368 266.001476 
L 377.2224 274.900103 
L 378.4128 279.722228 
L 379.6032 283.931826 
L 380.7936 287.345375 
L 381.984 289.710358 
L 382.5792 290.370044 
L 383.1744 290.480804 
L 383.7696 290.064061 
L 384.3648 288.686368 
L 384.96 286.204403 
L 385.5552 282.102464 
L 386.1504 276.357713 
L 387.3408 260.453617 
L 387.936 252.445728 
L 388.5312 246.186188 
L 389.1264 242.877392 
L 389.7216 242.972847 
L 390.3168 245.479304 
L 391.5072 253.705757 
L 392.6976 261.967512 
L 393.888 269.016437 
L 395.0784 275.029101 
L 396.864 282.577949 
L 398.6496 288.63663 
L 400.4352 293.476392 
L 401.6256 296.192647 
L 402.816 298.389966 
L 403.4112 299.184227 
L 404.0064 299.782384 
L 404.6016 300.04867 
L 405.1968 299.776861 
L 405.792 298.834632 
L 406.3872 296.881939 
L 406.9824 293.314099 
L 407.5776 287.621681 
L 408.1728 279.289805 
L 410.5536 237.414641 
L 411.1488 235.46106 
L 411.744 238.075729 
L 412.9344 248.83298 
L 414.1248 258.891197 
L 414.72 262.979355 
L 414.72 262.979355 
" clip-path="url(#pb528cb2ac0)" style="fill: none; stroke: #0000cc; stroke-width: 1.5; stroke-linecap: square"/>
   </g>
   <g id="line2d_41">
    <path d="M 57.6 286.963323 
L 58.195191 288.180727 
L 58.790405 289.054587 
L 59.385595 289.490112 
L 59.980809 289.346059 
L 60.576 288.426193 
L 61.171191 286.477124 
L 61.766405 283.210048 
L 62.361595 278.375599 
L 62.956809 271.917751 
L 64.742405 249.247348 
L 65.337595 244.785518 
L 65.932809 243.404241 
L 66.528 244.765022 
L 67.123191 247.939774 
L 70.099191 267.510812 
L 71.289595 273.693472 
L 72.48 279.026947 
L 74.265595 285.769955 
L 76.051191 291.281523 
L 77.836809 295.783696 
L 79.027191 298.304278 
L 80.217595 300.470752 
L 81.408 302.26498 
L 82.598405 303.561749 
L 83.193595 303.923811 
L 83.788809 303.975329 
L 84.384 303.554137 
L 84.979191 302.398297 
L 85.574405 300.104821 
L 86.169595 296.097048 
L 86.764809 289.660079 
L 87.36 280.169841 
L 89.145595 241.201143 
L 89.740809 233.855139 
L 90.336 232.873412 
L 90.931191 236.738741 
L 92.716809 254.570663 
L 93.907191 263.049094 
L 95.097595 269.058804 
L 96.288 273.461148 
L 96.883191 275.144525 
L 97.478405 276.468599 
L 98.073595 277.394591 
L 98.668809 277.865348 
L 99.264 277.806435 
L 99.859191 277.132951 
L 100.454405 275.761346 
L 101.049595 273.635582 
L 101.644809 270.762634 
L 102.835191 263.398808 
L 104.025595 256.307497 
L 104.620809 253.999345 
L 105.216 252.911523 
L 105.811191 253.05102 
L 106.406405 254.225495 
L 107.001595 256.140478 
L 108.192 261.076884 
L 109.977595 268.710354 
L 111.168 273.087654 
L 112.358405 276.577756 
L 112.953595 277.900673 
L 113.548809 278.874957 
L 114.144 279.431079 
L 114.739191 279.482707 
L 115.334405 278.927189 
L 115.929595 277.655599 
L 116.524809 275.573744 
L 117.12 272.641387 
L 118.310405 264.667478 
L 119.500809 256.354386 
L 120.096 253.415585 
L 120.691191 251.840618 
L 121.286405 251.702427 
L 121.881595 252.802706 
L 122.476809 254.796453 
L 123.667191 260.107115 
L 125.452809 268.367141 
L 126.643191 273.145718 
L 127.833595 277.079916 
L 129.024 279.935151 
L 129.619191 280.836305 
L 130.214405 281.288243 
L 130.809595 281.187699 
L 131.404809 280.410831 
L 132 278.82328 
L 132.595191 276.30824 
L 133.190405 272.817402 
L 134.380809 263.510392 
L 135.571191 254.305134 
L 136.166405 251.374738 
L 136.761595 250.118369 
L 137.356809 250.494404 
L 137.952 252.162789 
L 139.142405 257.615271 
L 141.523191 269.488275 
L 142.713595 274.480658 
L 143.904 278.633404 
L 145.094405 281.774006 
L 145.689595 282.860877 
L 146.284809 283.532406 
L 146.88 283.685527 
L 147.475191 283.186274 
L 148.070405 281.872286 
L 148.665595 279.571766 
L 149.260809 276.148717 
L 149.856 271.587018 
L 152.236809 250.624427 
L 152.832 248.414084 
L 153.427191 248.250551 
L 154.022405 249.783269 
L 154.617595 252.43876 
L 158.188809 271.60439 
L 159.379191 276.704166 
L 160.569595 281.002972 
L 161.76 284.40918 
L 162.355191 285.702825 
L 162.950405 286.64865 
L 163.545595 287.155987 
L 164.140809 287.096413 
L 164.736 286.296402 
L 165.331191 284.538038 
L 165.926405 281.58246 
L 166.521595 277.235157 
L 167.116809 271.471851 
L 168.902405 251.16233 
L 169.497595 246.892976 
L 170.092809 245.254756 
L 170.688 246.08774 
L 171.283191 248.689506 
L 173.068809 259.985881 
L 174.259191 267.052762 
L 175.449595 273.164992 
L 176.64 278.455189 
L 177.830405 283.037594 
L 179.020809 286.966273 
L 180.211191 290.227428 
L 181.401595 292.685527 
L 181.996809 293.505396 
L 182.592 293.938342 
L 183.187191 293.841064 
L 183.782405 293.001563 
L 184.377595 291.12412 
L 184.972809 287.833375 
L 185.568 282.733674 
L 186.163191 275.577886 
L 187.948809 247.863632 
L 188.544 241.925383 
L 189.139191 239.951507 
L 189.734405 241.529019 
L 190.329595 245.352052 
L 192.115191 259.330484 
L 193.305595 266.966304 
L 194.496 273.226275 
L 195.686405 278.488243 
L 196.876809 282.927743 
L 198.067191 286.56855 
L 199.257595 289.276949 
L 199.852809 290.169336 
L 200.448 290.639354 
L 201.043191 290.549919 
L 201.638382 289.697053 
L 202.233618 287.820066 
L 202.828809 284.607234 
L 203.424 279.765744 
L 204.019191 273.179114 
L 205.804809 249.121093 
L 206.4 244.148894 
L 206.995191 242.474194 
L 207.590382 243.781922 
L 208.185618 247.065246 
L 210.566382 263.696936 
L 211.756809 270.494905 
L 212.947191 276.27643 
L 214.137618 281.274572 
L 215.328 285.623294 
L 216.518382 289.406626 
L 217.708809 292.677764 
L 218.899191 295.452226 
L 220.089618 297.671966 
L 220.684809 298.512451 
L 221.28 299.102597 
L 221.875191 299.344025 
L 222.470382 299.080837 
L 223.065618 298.070862 
L 223.660809 295.957326 
L 224.256 292.254305 
L 224.851191 286.386563 
L 225.446382 277.947324 
L 227.232 244.269042 
L 227.827191 237.544762 
L 228.422382 236.024726 
L 229.017618 238.785263 
L 231.993618 263.378073 
L 233.184 269.95239 
L 234.374382 275.129365 
L 235.564809 279.156013 
L 236.16 280.718562 
L 236.755191 281.934082 
L 237.350382 282.734153 
L 237.945618 283.029733 
L 238.540809 282.699821 
L 239.136 281.595671 
L 239.731191 279.556452 
L 240.326382 276.447636 
L 240.921618 272.232968 
L 243.302382 251.725073 
L 243.897618 249.175519 
L 244.492809 248.599929 
L 245.088 249.752344 
L 245.683191 252.11976 
L 247.468809 261.811775 
L 249.254382 270.914947 
L 250.444809 276.021069 
L 251.635191 280.313566 
L 252.825618 283.683816 
L 253.420809 284.941891 
L 254.016 285.835793 
L 254.611191 286.271659 
L 255.206382 286.118767 
L 255.801618 285.204288 
L 256.396809 283.318481 
L 256.992 280.243746 
L 257.587191 275.825688 
L 258.777618 263.447855 
L 259.968 250.934264 
L 260.563191 247.205918 
L 261.158382 245.96957 
L 261.753618 247.000422 
L 262.348809 249.623035 
L 266.515191 273.445299 
L 267.705618 278.617355 
L 268.896 283.067015 
L 270.086382 286.806784 
L 271.276809 289.744604 
L 271.872 290.832336 
L 272.467191 291.582433 
L 273.062382 291.883301 
L 273.657618 291.576182 
L 274.252809 290.435379 
L 274.848 288.162472 
L 275.443191 284.412655 
L 276.038382 278.885772 
L 277.228809 262.802238 
L 278.419191 246.620009 
L 279.014382 242.385668 
L 279.609618 241.696335 
L 280.204809 243.888752 
L 281.395191 252.266933 
L 282.585618 260.928901 
L 283.776 268.221592 
L 284.966382 274.332731 
L 286.156809 279.560077 
L 287.347191 284.068097 
L 288.537618 287.934559 
L 289.728 291.168285 
L 290.918382 293.670765 
L 291.513618 294.559797 
L 292.108809 295.111172 
L 292.704 295.199958 
L 293.299191 294.636642 
L 293.894382 293.147166 
L 294.489618 290.361545 
L 295.084809 285.846034 
L 295.68 279.225939 
L 296.870382 260.266235 
L 297.465618 250.295424 
L 298.060809 242.748046 
L 298.656 239.217486 
L 299.251191 239.780519 
L 299.846382 243.216383 
L 302.227191 261.905251 
L 303.417618 269.041251 
L 304.608 274.878668 
L 305.798382 279.743556 
L 306.988809 283.728267 
L 308.179191 286.739596 
L 308.774382 287.781725 
L 309.369618 288.416301 
L 309.964809 288.522373 
L 310.56 287.931549 
L 311.155191 286.421616 
L 311.750382 283.729189 
L 312.345618 279.60233 
L 312.940809 273.918721 
L 315.321618 246.765684 
L 315.916809 244.308916 
L 316.512 244.660601 
L 317.107191 247.118288 
L 318.297618 254.815661 
L 320.083191 266.231858 
L 321.273618 272.552897 
L 322.464 278.006466 
L 323.654382 282.750376 
L 324.844809 286.882636 
L 326.035191 290.463599 
L 327.225618 293.517967 
L 328.416 296.004614 
L 329.011191 296.986061 
L 329.606382 297.733642 
L 330.201618 298.16614 
L 330.796809 298.153918 
L 331.392 297.493967 
L 331.987191 295.887649 
L 332.582382 292.909743 
L 333.177618 288.046181 
L 333.772809 280.819233 
L 334.963191 259.714198 
L 335.558382 248.576084 
L 336.153618 240.342402 
L 336.748809 236.84705 
L 337.344 237.987486 
L 337.939191 242.147927 
L 339.724809 257.706514 
L 340.915191 265.659857 
L 342.105618 271.855631 
L 343.296 276.821177 
L 344.486382 280.706017 
L 345.081618 282.207862 
L 345.676809 283.360984 
L 346.272 284.094483 
L 346.867191 284.307794 
L 347.462382 283.866024 
L 348.057618 282.601724 
L 348.652809 280.331678 
L 349.248 276.901228 
L 349.843191 272.269241 
L 352.224 250.334261 
L 352.819191 247.920862 
L 353.414382 247.668178 
L 354.009618 249.213233 
L 354.604809 251.942922 
L 358.176 271.567976 
L 359.366382 276.771682 
L 360.556809 281.194629 
L 361.747191 284.783104 
L 362.342382 286.208644 
L 362.937618 287.328609 
L 363.532809 288.067539 
L 364.128 288.31585 
L 364.723191 287.918132 
L 365.318382 286.667865 
L 365.913618 284.313281 
L 366.508809 280.597998 
L 367.104 275.357839 
L 368.294382 261.154355 
L 368.889618 253.827655 
L 369.484809 248.055311 
L 370.08 244.875883 
L 370.675191 244.536712 
L 371.270382 246.49717 
L 372.460809 253.822966 
L 374.246382 265.337789 
L 375.436809 271.769004 
L 376.627191 277.3141 
L 377.817618 282.133415 
L 379.008 286.325089 
L 380.198382 289.944995 
L 381.388809 293.006531 
L 382.579191 295.436888 
L 383.174382 296.345808 
L 383.769618 296.971944 
L 384.364809 297.209468 
L 384.96 296.893523 
L 385.555191 295.775386 
L 386.150382 293.500199 
L 386.745618 289.608199 
L 387.340809 283.611856 
L 387.936 275.220904 
L 389.721618 244.140451 
L 390.316809 238.571262 
L 390.912 237.702087 
L 391.507191 240.565547 
L 394.483191 264.120033 
L 395.673618 270.721346 
L 396.864 276.061214 
L 398.054382 280.375395 
L 399.244809 283.623853 
L 399.84 284.763276 
L 400.435191 285.490622 
L 401.030382 285.699183 
L 401.625618 285.245085 
L 402.220809 283.944483 
L 402.816 281.588659 
L 403.411191 277.991121 
L 404.006382 273.076109 
L 406.387191 249.346865 
L 406.982382 246.779912 
L 407.577618 246.594647 
L 408.172809 248.35019 
L 408.768 251.337327 
L 411.744 268.827464 
L 412.934382 274.567955 
L 414.124809 279.527553 
L 414.72 281.732396 
L 414.72 281.732396 
" clip-path="url(#pb528cb2ac0)" style="fill: none; stroke-dasharray: 9.6,2.4,1.5,2.4; stroke-dashoffset: 0; stroke: #ff0000; stroke-width: 1.5"/>
   </g>
   <g id="patch_13">
    <path d="M 57.6 307.584 
L 57.6 229.315765 
" style="fill: none; stroke: #000000; stroke-width: 0.8; stroke-linejoin: miter; stroke-linecap: square"/>
   </g>
   <g id="patch_14">
    <path d="M 414.72 307.584 
L 414.72 229.315765 
" style="fill: none; stroke: #000000; stroke-width: 0.8; stroke-linejoin: miter; stroke-linecap: square"/>
   </g>
   <g id="patch_15">
    <path d="M 57.6 307.584 
L 414.72 307.584 
" style="fill: none; stroke: #000000; stroke-width: 0.8; stroke-linejoin: miter; stroke-linecap: square"/>
   </g>
   <g id="patch_16">
    <path d="M 57.6 229.315765 
L 414.72 229.315765 
" style="fill: none; stroke: #000000; stroke-width: 0.8; stroke-linejoin: miter; stroke-linecap: square"/>
   </g>
  </g>
 </g>
 <defs>
  <clipPath id="p6ed2486f8c">
   <rect x="57.6" y="41.472" width="357.12" height="78.268235"/>
  </clipPath>
  <clipPath id="pbe1a3df2aa">
   <rect x="57.6" y="135.393882" width="357.12" height="78.268235"/>
  </clipPath>
  <clipPath id="pb528cb2ac0">
   <rect x="57.6" y="229.315765" width="357.12" height="78.268235"/>
  </clipPath>
 </defs>
</svg>
