<?xml version="1.0" encoding="utf-8" standalone="no"?>
<!DOCTYPE svg PUBLIC "-//W3C//DTD SVG 1.1//EN"
  "http://www.w3.org/Graphics/SVG/1.1/DTD/svg11.dtd">
<svg xmlns:xlink="http://www.w3.org/1999/xlink" width="460.8pt" height="345.6pt" viewBox="0 0 460.8 345.6" xmlns="http://www.w3.org/2000/svg" version="1.1">
 <metadata>
  <rdf:RDF xmlns:dc="http://purl.org/dc/elements/1.1/" xmlns:cc="http://creativecommons.org/ns#" xmlns:rdf="http://www.w3.org/1999/02/22-rdf-syntax-ns#">
   <cc:Work>
    <dc:type rdf:resource="http://purl.org/dc/dcmitype/StillImage"/>
    <dc:date>2023-12-13T17:02:13.509144</dc:date>
    <dc:format>image/svg+xml</dc:format>
    <dc:creator>
     <cc:Agent>
      <dc:title>Matplotlib v3.7.3, https://matplotlib.org/</dc:title>
     </cc:Agent>
    </dc:creator>
   </cc:Work>
  </rdf:RDF>
 </metadata>
 <defs>
  <style type="text/css">*{stroke-linejoin: round; stroke-linecap: butt}</style>
 </defs>
 <g id="figure_1">
  <g id="patch_1">
   <path d="M 0 345.6 
L 460.8 345.6 
L 460.8 0 
L 0 0 
z
" style="fill: #ffffff"/>
  </g>
  <g id="axes_1">
   <g id="patch_2">
    <path d="M 57.6 119.740235 
L 414.72 119.740235 
L 414.72 41.472 
L 57.6 41.472 
z
" style="fill: #ffffff"/>
   </g>
   <g id="matplotlib.axis_1">
    <g id="xtick_1">
     <g id="line2d_1">
      <defs>
       <path id="meacf1fe105" d="M 0 0 
L 0 3.5 
" style="stroke: #000000; stroke-width: 0.8"/>
      </defs>
      <g>
       <use xlink:href="#meacf1fe105" x="57.6" y="119.740235" style="stroke: #000000; stroke-width: 0.8"/>
      </g>
     </g>
    </g>
    <g id="xtick_2">
     <g id="line2d_2">
      <g>
       <use xlink:href="#meacf1fe105" x="105.216" y="119.740235" style="stroke: #000000; stroke-width: 0.8"/>
      </g>
     </g>
    </g>
    <g id="xtick_3">
     <g id="line2d_3">
      <g>
       <use xlink:href="#meacf1fe105" x="152.832" y="119.740235" style="stroke: #000000; stroke-width: 0.8"/>
      </g>
     </g>
    </g>
    <g id="xtick_4">
     <g id="line2d_4">
      <g>
       <use xlink:href="#meacf1fe105" x="200.448" y="119.740235" style="stroke: #000000; stroke-width: 0.8"/>
      </g>
     </g>
    </g>
    <g id="xtick_5">
     <g id="line2d_5">
      <g>
       <use xlink:href="#meacf1fe105" x="248.064" y="119.740235" style="stroke: #000000; stroke-width: 0.8"/>
      </g>
     </g>
    </g>
    <g id="xtick_6">
     <g id="line2d_6">
      <g>
       <use xlink:href="#meacf1fe105" x="295.68" y="119.740235" style="stroke: #000000; stroke-width: 0.8"/>
      </g>
     </g>
    </g>
    <g id="xtick_7">
     <g id="line2d_7">
      <g>
       <use xlink:href="#meacf1fe105" x="343.296" y="119.740235" style="stroke: #000000; stroke-width: 0.8"/>
      </g>
     </g>
    </g>
    <g id="xtick_8">
     <g id="line2d_8">
      <g>
       <use xlink:href="#meacf1fe105" x="390.912" y="119.740235" style="stroke: #000000; stroke-width: 0.8"/>
      </g>
     </g>
    </g>
    <g id="xtick_9">
     <g id="line2d_9">
      <g>
       <use xlink:href="#meacf1fe105" x="414.72" y="119.740235" style="stroke: #000000; stroke-width: 0.8"/>
      </g>
     </g>
    </g>
   </g>
   <g id="matplotlib.axis_2">
    <g id="ytick_1">
     <g id="line2d_10">
      <defs>
       <path id="mbe059f0115" d="M 0 0 
L -3.5 0 
" style="stroke: #000000; stroke-width: 0.8"/>
      </defs>
      <g>
       <use xlink:href="#mbe059f0115" x="57.6" y="100.085621" style="stroke: #000000; stroke-width: 0.8"/>
      </g>
     </g>
     <g id="text_1">
      <!-- −10 -->
      <g transform="translate(29.495313 103.88484) scale(0.1 -0.1)">
       <defs>
        <path id="DejaVuSans-2212" d="M 678 2272 
L 4684 2272 
L 4684 1741 
L 678 1741 
L 678 2272 
z
" transform="scale(0.015625)"/>
        <path id="DejaVuSans-31" d="M 794 531 
L 1825 531 
L 1825 4091 
L 703 3866 
L 703 4441 
L 1819 4666 
L 2450 4666 
L 2450 531 
L 3481 531 
L 3481 0 
L 794 0 
L 794 531 
z
" transform="scale(0.015625)"/>
        <path id="DejaVuSans-30" d="M 2034 4250 
Q 1547 4250 1301 3770 
Q 1056 3291 1056 2328 
Q 1056 1369 1301 889 
Q 1547 409 2034 409 
Q 2525 409 2770 889 
Q 3016 1369 3016 2328 
Q 3016 3291 2770 3770 
Q 2525 4250 2034 4250 
z
M 2034 4750 
Q 2819 4750 3233 4129 
Q 3647 3509 3647 2328 
Q 3647 1150 3233 529 
Q 2819 -91 2034 -91 
Q 1250 -91 836 529 
Q 422 1150 422 2328 
Q 422 3509 836 4129 
Q 1250 4750 2034 4750 
z
" transform="scale(0.015625)"/>
       </defs>
       <use xlink:href="#DejaVuSans-2212"/>
       <use xlink:href="#DejaVuSans-31" x="83.789062"/>
       <use xlink:href="#DejaVuSans-30" x="147.412109"/>
      </g>
     </g>
    </g>
    <g id="ytick_2">
     <g id="line2d_11">
      <g>
       <use xlink:href="#mbe059f0115" x="57.6" y="79.366811" style="stroke: #000000; stroke-width: 0.8"/>
      </g>
     </g>
     <g id="text_2">
      <!-- 0 -->
      <g transform="translate(44.2375 83.166029) scale(0.1 -0.1)">
       <use xlink:href="#DejaVuSans-30"/>
      </g>
     </g>
    </g>
    <g id="ytick_3">
     <g id="line2d_12">
      <g>
       <use xlink:href="#mbe059f0115" x="57.6" y="58.648" style="stroke: #000000; stroke-width: 0.8"/>
      </g>
     </g>
     <g id="text_3">
      <!-- 10 -->
      <g transform="translate(37.875 62.447219) scale(0.1 -0.1)">
       <use xlink:href="#DejaVuSans-31"/>
       <use xlink:href="#DejaVuSans-30" x="63.623047"/>
      </g>
     </g>
    </g>
   </g>
   <g id="line2d_13">
    <path d="M 57.6 85.260022 
L 58.7904 87.255753 
L 59.9808 90.45888 
L 61.1712 94.962989 
L 64.1472 109.162006 
L 64.7424 109.872563 
L 65.3376 109.103002 
L 65.9328 106.785785 
L 67.1232 99.455684 
L 68.3136 91.709261 
L 68.9088 88.629965 
L 69.504 86.152286 
L 70.0992 84.215693 
L 70.6944 82.772083 
L 71.2896 81.75215 
L 71.8848 81.048547 
L 73.0752 80.221261 
L 73.6704 79.98958 
L 74.8608 79.803241 
L 77.8368 80.075027 
L 79.0272 80.381386 
L 80.8128 81.361375 
L 82.0032 82.562682 
L 82.5984 83.441866 
L 83.1936 84.599725 
L 83.7888 86.090609 
L 84.384 87.903003 
L 84.9792 90.185705 
L 85.5744 93.129455 
L 86.7648 101.114929 
L 87.9552 110.690681 
L 88.5504 114.380783 
L 89.1456 116.046069 
L 89.7408 114.910573 
L 90.336 110.839774 
L 92.7168 86.751066 
L 93.312 82.535726 
L 93.9072 79.193512 
L 94.5024 76.67568 
L 95.0976 74.680567 
L 96.288 71.938614 
L 98.0736 68.5188 
L 98.6688 67.330686 
L 100.4544 62.545204 
L 102.24 57.179771 
L 102.8352 55.721531 
L 103.4304 54.732458 
L 104.0256 54.424728 
L 104.6208 54.840313 
L 105.216 55.866029 
L 105.8112 57.480129 
L 108.7872 67.066131 
L 109.3824 68.318068 
L 109.9776 69.239911 
L 110.5728 69.827761 
L 111.168 70.137528 
L 111.7632 70.141564 
L 112.3584 69.842055 
L 112.9536 69.316838 
L 113.5488 68.555614 
L 114.144 67.53796 
L 115.3344 64.795616 
L 118.9056 54.344196 
L 119.5008 53.713329 
L 120.096 53.915681 
L 120.6912 54.916016 
L 121.2864 56.607944 
L 124.2624 67.339124 
L 124.8576 68.789965 
L 125.4528 69.930359 
L 126.6432 71.08103 
L 127.2384 71.072291 
L 127.8336 70.949719 
L 128.4288 70.517009 
L 129.024 69.871075 
L 129.6192 68.972239 
L 130.8096 66.341666 
L 132 62.827238 
L 133.7856 56.22816 
L 134.3808 54.509684 
L 134.976 53.201738 
L 135.5712 52.771404 
L 136.1664 53.29487 
L 136.7616 54.628949 
L 137.3568 56.766513 
L 139.7376 66.795573 
L 140.3328 68.634457 
L 140.928 70.059016 
L 141.5232 71.148564 
L 142.1184 71.859468 
L 142.7136 72.272529 
L 143.3088 72.346939 
L 143.904 72.137187 
L 144.4992 71.747104 
L 145.6896 70.192153 
L 146.2848 69.038383 
L 147.4752 65.915055 
L 148.6656 61.663735 
L 150.4512 54.438891 
L 151.0464 52.627926 
L 151.6416 51.712112 
L 152.2368 51.805957 
L 152.832 53.019877 
L 153.4272 55.221586 
L 156.4032 69.032537 
L 156.9984 70.77815 
L 157.5936 72.069744 
L 158.1888 73.090585 
L 158.784 73.632132 
L 159.3792 73.954798 
L 159.9744 73.988373 
L 160.5696 73.824846 
L 161.1648 73.401631 
L 161.76 72.800158 
L 162.3552 71.942286 
L 162.9504 70.85098 
L 163.5456 69.521153 
L 164.736 65.900814 
L 165.9264 60.927964 
L 167.712 52.581439 
L 168.3072 50.701149 
L 168.9024 49.880646 
L 169.4976 50.515383 
L 170.0928 52.526661 
L 171.2832 59.059632 
L 172.4736 66.119126 
L 173.664 71.353882 
L 174.2592 73.196534 
L 174.8544 74.553608 
L 175.4496 75.456094 
L 176.0448 76.074043 
L 176.64 76.437574 
L 177.2352 76.657067 
L 177.8304 76.638232 
L 178.4256 76.505501 
L 179.616 75.789051 
L 180.2112 75.275967 
L 180.8064 74.570562 
L 181.9968 72.531415 
L 183.1872 69.289513 
L 184.3776 64.343381 
L 185.568 57.707824 
L 186.7584 50.584508 
L 187.3536 47.945464 
L 187.9488 46.861143 
L 188.544 47.712022 
L 189.1392 50.431119 
L 190.3296 59.420008 
L 191.52 68.331445 
L 192.1152 71.825352 
L 192.7104 74.615523 
L 193.3056 76.818036 
L 194.496 79.628866 
L 195.6864 81.265547 
L 198.0672 83.781057 
L 199.2576 85.674338 
L 199.8528 86.757476 
L 201.0432 89.908592 
L 202.2336 94.655909 
L 203.424 100.713448 
L 204.6144 107.199179 
L 205.2096 109.453493 
L 205.8048 110.523899 
L 206.4 109.855203 
L 206.9952 107.442153 
L 207.5904 103.926067 
L 209.376 91.572432 
L 209.9712 88.25499 
L 210.5664 85.623061 
L 211.1616 83.540353 
L 212.352 80.981875 
L 213.5424 79.545904 
L 214.7328 78.772367 
L 215.328 78.55225 
L 217.1136 77.586578 
L 217.7088 77.295648 
L 218.8992 76.246997 
L 219.4944 75.603721 
L 220.0896 74.754265 
L 221.28 72.286539 
L 221.8752 70.528493 
L 222.4704 68.406988 
L 223.6608 62.41002 
L 224.8512 54.51699 
L 225.4464 50.272789 
L 226.0416 46.976686 
L 226.6368 45.029647 
L 227.232 45.435434 
L 227.8272 48.259102 
L 228.4224 52.792453 
L 230.208 68.838867 
L 230.8032 72.956222 
L 231.3984 76.167288 
L 231.9936 78.64644 
L 232.5888 80.59748 
L 233.7792 83.204693 
L 234.9696 85.172614 
L 236.16 87.068847 
L 237.3504 89.571207 
L 238.5408 93.038576 
L 239.7312 97.549801 
L 241.5168 104.86649 
L 242.112 106.522714 
L 242.7072 107.279584 
L 243.3024 106.954957 
L 243.8976 105.519237 
L 244.4928 103.093943 
L 246.8736 91.313817 
L 247.4688 89.153423 
L 248.064 87.4287 
L 248.6592 86.108644 
L 249.2544 85.234059 
L 250.4448 84.43802 
L 251.04 84.402627 
L 251.6352 84.586847 
L 252.2304 84.967138 
L 252.8256 85.605121 
L 254.016 87.574757 
L 254.6112 88.883389 
L 255.2064 90.501063 
L 256.3968 94.855859 
L 259.3728 108.239107 
L 259.968 109.127279 
L 260.5632 108.656414 
L 261.1584 106.719974 
L 261.7536 103.668946 
L 263.5392 92.711354 
L 264.1344 89.638322 
L 264.7296 87.270244 
L 265.3248 85.359683 
L 265.92 83.941597 
L 267.1104 82.167254 
L 267.7056 81.731365 
L 268.3008 81.517314 
L 268.896 81.42944 
L 269.4912 81.481659 
L 271.2768 82.342656 
L 271.872 82.831251 
L 273.0624 84.385502 
L 273.6576 85.403178 
L 274.2528 86.78319 
L 275.4432 90.542538 
L 276.0384 93.124162 
L 277.2288 99.690589 
L 278.4192 107.420312 
L 279.0144 110.633701 
L 279.6096 112.522648 
L 280.2048 112.307196 
L 280.8 109.999046 
L 281.3952 105.95933 
L 283.1808 91.26384 
L 283.776 87.188264 
L 284.3712 84.063155 
L 284.9664 81.581561 
L 285.5616 79.77874 
L 286.752 77.271795 
L 289.728 73.147251 
L 290.3232 72.144984 
L 291.5136 69.401215 
L 292.704 65.49606 
L 293.2992 63.098511 
L 295.68 51.854791 
L 296.2752 50.137708 
L 296.8704 49.677022 
L 297.4656 50.644425 
L 298.0608 52.954808 
L 299.2512 59.938913 
L 300.4416 66.959997 
L 301.0368 69.804905 
L 301.632 72.105396 
L 302.2272 73.821179 
L 302.8224 75.067919 
L 303.4176 75.931346 
L 304.0128 76.576106 
L 304.608 76.916322 
L 305.7984 77.148642 
L 306.3936 77.039289 
L 307.584 76.442215 
L 308.1792 76.04596 
L 308.7744 75.477762 
L 309.3696 74.694726 
L 310.56 72.401905 
L 311.1552 70.952747 
L 312.3456 66.665425 
L 312.9408 63.889899 
L 314.1312 56.775698 
L 315.3216 49.444297 
L 315.9168 46.940038 
L 316.512 46.234087 
L 317.1072 47.642271 
L 317.7024 50.998364 
L 320.6784 73.263833 
L 321.2736 75.951947 
L 321.8688 78.094613 
L 323.0592 80.796854 
L 324.2496 82.486712 
L 326.6304 85.709012 
L 327.2256 86.772155 
L 328.416 89.704066 
L 329.0112 91.569022 
L 330.2016 96.398216 
L 332.5824 107.687572 
L 333.1776 109.072199 
L 333.7728 109.17347 
L 334.368 107.734307 
L 334.9632 104.960435 
L 337.9392 87.905612 
L 338.5344 85.721418 
L 339.1296 84.105319 
L 339.7248 82.943369 
L 340.32 82.132513 
L 341.5104 81.201954 
L 342.7008 81.081122 
L 343.8912 81.310099 
L 344.4864 81.510566 
L 345.0816 81.855141 
L 346.272 82.957521 
L 347.4624 84.631389 
L 348.0576 85.841237 
L 348.6528 87.354216 
L 349.248 89.210209 
L 350.4384 94.434857 
L 351.6288 101.79909 
L 352.8192 109.694496 
L 353.4144 112.38858 
L 354.0096 113.296884 
L 354.6048 111.94671 
L 355.2 108.432897 
L 357.5808 88.492023 
L 358.176 84.833904 
L 358.7712 81.965447 
L 359.3664 79.799204 
L 359.9616 78.179494 
L 361.152 75.883204 
L 364.128 71.133932 
L 365.3184 68.210465 
L 366.5088 64.260335 
L 367.6992 59.086078 
L 368.8896 53.86524 
L 369.4848 51.823983 
L 370.08 50.813407 
L 370.6752 50.902682 
L 371.2704 52.276979 
L 371.8656 54.761238 
L 374.2464 67.54339 
L 375.4368 71.93766 
L 376.6272 74.31795 
L 377.2224 74.947297 
L 377.8176 75.33442 
L 378.4128 75.479281 
L 379.008 75.385843 
L 379.6032 75.149796 
L 380.1984 74.749893 
L 380.7936 74.142135 
L 381.984 72.320103 
L 382.5792 71.085835 
L 383.1744 69.535964 
L 384.3648 65.297572 
L 385.5552 59.518647 
L 386.7456 52.95033 
L 387.3408 50.263002 
L 387.936 48.664507 
L 388.5312 48.552221 
L 389.1264 50.081889 
L 389.7216 53.094391 
L 392.1024 68.877111 
L 393.2928 74.144617 
L 393.888 75.859387 
L 394.4832 77.079097 
L 395.6736 78.722812 
L 397.4592 79.747375 
L 398.6496 80.218858 
L 399.84 80.617477 
L 401.0304 81.311223 
L 402.2208 82.323257 
L 403.4112 83.820673 
L 404.0064 84.956589 
L 404.6016 86.383369 
L 405.1968 88.134165 
L 405.792 90.382559 
L 406.3872 93.137705 
L 407.5776 100.519988 
L 408.768 109.221796 
L 409.3632 112.643879 
L 409.9584 114.402092 
L 410.5536 113.638787 
L 411.1488 110.490013 
L 412.3392 99.61446 
L 413.5296 88.907642 
L 414.1248 84.653478 
L 414.72 81.555726 
L 414.72 81.555726 
" clip-path="url(#p35a4d93d62)" style="fill: none; stroke: #0000cc; stroke-width: 1.5; stroke-linecap: square"/>
   </g>
   <g id="line2d_14">
    <path d="M 57.6 85.260022 
L 58.1952 86.15717 
L 58.7904 87.295416 
L 59.3856 88.712923 
L 59.9808 90.452151 
L 61.1712 95.0363 
L 62.3616 101.003944 
L 63.552 107.045935 
L 64.1472 109.121184 
L 64.7424 109.914923 
L 65.3376 109.128487 
L 65.9328 106.812439 
L 67.1232 99.354694 
L 68.3136 91.667567 
L 68.9088 88.568774 
L 69.504 86.083943 
L 70.0992 84.173757 
L 70.6944 82.754791 
L 71.2896 81.73096 
L 71.8848 81.011318 
L 72.48 80.518265 
L 73.6704 79.979268 
L 74.8608 79.784733 
L 76.6464 79.809476 
L 78.432 80.091671 
L 79.6224 80.46292 
L 80.8128 81.076952 
L 82.0032 82.092121 
L 82.5984 82.828552 
L 83.1936 83.778558 
L 83.7888 85.003957 
L 84.384 86.581976 
L 84.9792 88.605571 
L 85.5744 91.178861 
L 86.1696 94.401297 
L 87.36 102.898876 
L 88.5504 112.363731 
L 89.1456 115.523926 
L 89.7408 116.182588 
L 90.336 113.806527 
L 90.9312 108.8368 
L 92.7168 89.840871 
L 93.312 84.864918 
L 93.9072 80.936949 
L 94.5024 77.92636 
L 95.0976 75.638247 
L 96.288 72.45472 
L 99.8592 64.9633 
L 101.6448 59.842613 
L 102.8352 56.573203 
L 103.4304 55.402096 
L 104.0256 54.763272 
L 104.6208 54.775036 
L 105.216 55.468442 
L 105.8112 56.770928 
L 107.0016 60.519794 
L 108.192 64.473802 
L 109.3824 67.525417 
L 109.9776 68.57368 
L 110.5728 69.297121 
L 111.168 69.711203 
L 111.7632 69.835944 
L 112.3584 69.689892 
L 112.9536 69.286928 
L 113.5488 68.635363 
L 114.144 67.73898 
L 115.3344 65.223817 
L 116.5248 61.846491 
L 118.3104 56.32291 
L 118.9056 54.945976 
L 119.5008 54.12865 
L 120.096 54.026725 
L 120.6912 54.698147 
L 121.2864 56.076436 
L 122.4768 60.191017 
L 123.6672 64.58876 
L 124.8576 67.995889 
L 125.4528 69.177072 
L 126.048 70.008817 
L 126.6432 70.512994 
L 127.2384 70.715838 
L 127.8336 70.640949 
L 128.4288 70.305505 
L 129.024 69.718927 
L 129.6192 68.883453 
L 130.2144 67.796411 
L 131.4048 64.860021 
L 132.5952 61.015738 
L 134.3808 55.038848 
L 134.976 53.732588 
L 135.5712 53.151447 
L 136.1664 53.439204 
L 136.7616 54.599507 
L 137.3568 56.485139 
L 140.3328 67.966168 
L 140.928 69.454524 
L 141.5232 70.556004 
L 142.1184 71.29683 
L 142.7136 71.711594 
L 143.3088 71.833433 
L 143.904 71.688401 
L 144.4992 71.292875 
L 145.0944 70.653048 
L 145.6896 69.765926 
L 146.2848 68.621728 
L 147.4752 65.516487 
L 148.6656 61.353806 
L 150.4512 54.529805 
L 151.0464 52.924597 
L 151.6416 52.124916 
L 152.2368 52.331452 
L 152.832 53.574458 
L 153.4272 55.689801 
L 156.4032 68.736686 
L 156.9984 70.415373 
L 157.5936 71.667527 
L 158.1888 72.533062 
L 158.784 73.05972 
L 159.3792 73.291957 
L 159.9744 73.264889 
L 160.5696 73.001628 
L 161.1648 72.512678 
L 161.76 71.796512 
L 162.3552 70.840955 
L 162.9504 69.625452 
L 163.5456 68.124821 
L 164.736 64.187059 
L 165.9264 59.100642 
L 167.1168 53.827151 
L 167.712 51.821863 
L 168.3072 50.735347 
L 168.9024 50.854699 
L 169.4976 52.248962 
L 170.0928 54.722879 
L 172.4736 67.497812 
L 173.0688 69.921283 
L 173.664 71.832422 
L 174.2592 73.266488 
L 174.8544 74.285497 
L 175.4496 74.957321 
L 176.0448 75.343571 
L 176.64 75.493712 
L 177.2352 75.443006 
L 177.8304 75.212498 
L 178.4256 74.809855 
L 179.0208 74.230395 
L 179.616 73.457984 
L 180.2112 72.465848 
L 180.8064 71.217611 
L 181.4016 69.669356 
L 181.9968 67.774095 
L 183.1872 62.803118 
L 185.568 50.421812 
L 186.1632 48.664391 
L 186.7584 48.409878 
L 187.3536 49.859408 
L 187.9488 52.808775 
L 190.3296 68.684268 
L 190.9248 71.649223 
L 191.52 73.981063 
L 192.1152 75.750477 
L 192.7104 77.057881 
L 193.3056 78.006822 
L 193.9008 78.690388 
L 195.0912 79.555291 
L 196.8768 80.32741 
L 198.6624 81.166011 
L 199.8528 82.047941 
L 200.448 82.66097 
L 201.0432 83.434668 
L 201.6384 84.414083 
L 202.2336 85.654954 
L 202.8288 87.224817 
L 203.424 89.201992 
L 204.0192 91.669634 
L 204.6144 94.69952 
L 205.8048 102.43756 
L 206.9952 110.7466 
L 207.5904 113.509388 
L 208.1856 114.194085 
L 208.7808 112.35673 
L 209.376 108.2839 
L 211.7568 87.096866 
L 212.352 83.413876 
L 212.9472 80.560639 
L 213.5424 78.387356 
L 214.1376 76.724987 
L 215.328 74.321246 
L 217.7088 70.150661 
L 218.8992 67.256885 
L 220.0896 63.410795 
L 222.4704 54.270586 
L 223.0656 52.72082 
L 223.6608 52.016335 
L 224.256 52.344868 
L 224.8512 53.714236 
L 225.4464 55.936745 
L 227.8272 66.948698 
L 228.4224 69.033667 
L 229.0176 70.673273 
L 229.6128 71.887299 
L 230.208 72.718615 
L 230.8032 73.21616 
L 231.3984 73.424445 
L 231.9936 73.377997 
L 232.5888 73.099017 
L 233.184 72.596965 
L 233.7792 71.869229 
L 234.3744 70.902532 
L 234.9696 69.675193 
L 235.5648 68.160871 
L 236.7552 64.185638 
L 237.9456 59.044275 
L 239.136 53.711257 
L 239.7312 51.688461 
L 240.3264 50.602887 
L 240.9216 50.745847 
L 241.5168 52.183747 
L 242.112 54.712313 
L 244.4928 67.64417 
L 245.088 70.080765 
L 245.6832 71.99916 
L 246.2784 73.437604 
L 246.8736 74.460508 
L 247.4688 75.137531 
L 248.064 75.531599 
L 248.6592 75.693187 
L 249.2544 75.658411 
L 249.8496 75.449139 
L 250.4448 75.073909 
L 251.04 74.528992 
L 251.6352 73.799274 
L 252.2304 72.858956 
L 252.8256 71.67233 
L 253.4208 70.19532 
L 254.016 68.379011 
L 255.2064 63.562205 
L 256.3968 57.244278 
L 257.5872 50.872174 
L 258.1824 48.759083 
L 258.7776 48.080689 
L 259.3728 49.137884 
L 259.968 51.823461 
L 261.1584 59.982422 
L 262.3488 68.034248 
L 262.944 71.203748 
L 263.5392 73.71894 
L 264.1344 75.642167 
L 264.7296 77.074148 
L 265.3248 78.123126 
L 265.92 78.888577 
L 267.1104 79.888852 
L 270.6816 82.079205 
L 271.872 83.370455 
L 272.4672 84.266949 
L 273.0624 85.393352 
L 273.6576 86.808774 
L 274.2528 88.582011 
L 274.848 90.787735 
L 275.4432 93.495336 
L 276.6336 100.496728 
L 277.824 108.533688 
L 278.4192 111.717933 
L 279.0144 113.305372 
L 279.6096 112.682772 
L 280.2048 109.796894 
L 281.3952 99.863447 
L 282.5856 89.810812 
L 283.1808 85.883663 
L 283.776 82.780568 
L 284.3712 80.399256 
L 284.9664 78.591698 
L 285.5616 77.205172 
L 286.752 75.164555 
L 288.5376 72.470619 
L 289.728 70.116475 
L 290.9184 66.839991 
L 292.1088 62.404967 
L 294.4896 52.333814 
L 295.0848 51.001071 
L 295.68 50.805722 
L 296.2752 51.876703 
L 296.8704 54.084539 
L 298.0608 60.435481 
L 299.2512 66.743896 
L 299.8464 69.275356 
L 300.4416 71.298577 
L 301.0368 72.835946 
L 301.632 73.943427 
L 302.2272 74.687365 
L 302.8224 75.130446 
L 303.4176 75.324445 
L 304.0128 75.307338 
L 304.608 75.102833 
L 305.2032 74.721022 
L 305.7984 74.159367 
L 306.3936 73.403653 
L 306.9888 72.428883 
L 307.584 71.200404 
L 308.1792 69.676004 
L 308.7744 67.810334 
L 309.9648 62.919929 
L 312.3456 50.684786 
L 312.9408 48.894139 
L 313.536 48.558112 
L 314.1312 49.890833 
L 314.7264 52.715169 
L 317.7024 71.328052 
L 318.2976 73.670048 
L 318.8928 75.450127 
L 319.488 76.764543 
L 320.0832 77.714336 
L 320.6784 78.391083 
L 321.8688 79.215166 
L 323.0592 79.668314 
L 326.0352 80.586111 
L 327.2256 81.211013 
L 328.416 82.203109 
L 329.0112 82.909529 
L 329.6064 83.811072 
L 330.2016 84.962554 
L 330.7968 86.431919 
L 331.392 88.30057 
L 331.9872 90.659859 
L 332.5824 93.598861 
L 333.7728 101.354381 
L 334.9632 110.339219 
L 335.5584 113.760525 
L 336.1536 115.173112 
L 336.7488 113.899458 
L 337.344 110.042301 
L 339.7248 87.38455 
L 340.32 83.311512 
L 340.9152 80.148029 
L 341.5104 77.736328 
L 342.1056 75.892342 
L 343.296 73.235191 
L 345.6768 68.735021 
L 346.8672 65.75095 
L 348.0576 61.987512 
L 349.8432 55.857481 
L 350.4384 54.316446 
L 351.0336 53.403049 
L 351.6288 53.301024 
L 352.224 54.077456 
L 352.8192 55.649686 
L 354.0096 60.269931 
L 355.2 65.100557 
L 356.3904 68.766602 
L 356.9856 70.024312 
L 357.5808 70.91072 
L 358.176 71.457101 
L 358.7712 71.697193 
L 359.3664 71.659909 
L 359.9616 71.365558 
L 360.5568 70.824515 
L 361.152 70.037626 
L 361.7472 68.998038 
L 362.3424 67.694623 
L 363.5328 64.267418 
L 364.7232 59.883115 
L 365.9136 55.331405 
L 366.5088 53.528457 
L 367.104 52.42069 
L 367.6992 52.246483 
L 368.2944 53.102971 
L 368.8896 54.897465 
L 370.08 60.191569 
L 371.2704 65.653177 
L 372.4608 69.730696 
L 373.056 71.123641 
L 373.6512 72.116347 
L 374.2464 72.753667 
L 374.8416 73.080872 
L 375.4368 73.135936 
L 376.032 72.945769 
L 376.6272 72.524936 
L 377.2224 71.875872 
L 377.8176 70.990033 
L 378.4128 69.849925 
L 379.008 68.432465 
L 380.1984 64.682891 
L 381.3888 59.769571 
L 382.5792 54.50381 
L 383.1744 52.372251 
L 383.7696 51.056276 
L 384.3648 50.868671 
L 384.96 51.936025 
L 385.5552 54.129692 
L 386.7456 60.43639 
L 387.936 66.70496 
L 388.5312 69.222224 
L 389.1264 71.234669 
L 389.7216 72.763706 
L 390.3168 73.86424 
L 390.912 74.601643 
L 391.5072 75.037763 
L 392.1024 75.223667 
L 392.6976 75.196705 
L 393.2928 74.980007 
L 393.888 74.583099 
L 394.4832 74.002868 
L 395.0784 73.224532 
L 395.6736 72.222595 
L 396.2688 70.962119 
L 396.864 69.401108 
L 397.4592 67.495445 
L 398.6496 62.530314 
L 401.0304 50.480599 
L 401.6256 48.874658 
L 402.2208 48.750905 
L 402.816 50.273317 
L 403.4112 53.219615 
L 405.792 68.678471 
L 406.3872 71.544799 
L 406.9824 73.795777 
L 407.5776 75.499387 
L 408.1728 76.751545 
L 408.768 77.650877 
L 409.3632 78.285748 
L 410.5536 79.038699 
L 411.744 79.417712 
L 414.72 79.983316 
L 414.72 79.983316 
" clip-path="url(#p35a4d93d62)" style="fill: none; stroke-dasharray: 9.6,2.4,1.5,2.4; stroke-dashoffset: 0; stroke: #ff0000; stroke-width: 1.5"/>
   </g>
   <g id="patch_3">
    <path d="M 57.6 119.740235 
L 57.6 41.472 
" style="fill: none; stroke: #000000; stroke-width: 0.8; stroke-linejoin: miter; stroke-linecap: square"/>
   </g>
   <g id="patch_4">
    <path d="M 414.72 119.740235 
L 414.72 41.472 
" style="fill: none; stroke: #000000; stroke-width: 0.8; stroke-linejoin: miter; stroke-linecap: square"/>
   </g>
   <g id="patch_5">
    <path d="M 57.6 119.740235 
L 414.72 119.740235 
" style="fill: none; stroke: #000000; stroke-width: 0.8; stroke-linejoin: miter; stroke-linecap: square"/>
   </g>
   <g id="patch_6">
    <path d="M 57.6 41.472 
L 414.72 41.472 
" style="fill: none; stroke: #000000; stroke-width: 0.8; stroke-linejoin: miter; stroke-linecap: square"/>
   </g>
  </g>
  <g id="axes_2">
   <g id="patch_7">
    <path d="M 57.6 213.662118 
L 414.72 213.662118 
L 414.72 135.393882 
L 57.6 135.393882 
z
" style="fill: #ffffff"/>
   </g>
   <g id="matplotlib.axis_3">
    <g id="xtick_10">
     <g id="line2d_15">
      <g>
       <use xlink:href="#meacf1fe105" x="57.6" y="213.662118" style="stroke: #000000; stroke-width: 0.8"/>
      </g>
     </g>
    </g>
    <g id="xtick_11">
     <g id="line2d_16">
      <g>
       <use xlink:href="#meacf1fe105" x="105.216" y="213.662118" style="stroke: #000000; stroke-width: 0.8"/>
      </g>
     </g>
    </g>
    <g id="xtick_12">
     <g id="line2d_17">
      <g>
       <use xlink:href="#meacf1fe105" x="152.832" y="213.662118" style="stroke: #000000; stroke-width: 0.8"/>
      </g>
     </g>
    </g>
    <g id="xtick_13">
     <g id="line2d_18">
      <g>
       <use xlink:href="#meacf1fe105" x="200.448" y="213.662118" style="stroke: #000000; stroke-width: 0.8"/>
      </g>
     </g>
    </g>
    <g id="xtick_14">
     <g id="line2d_19">
      <g>
       <use xlink:href="#meacf1fe105" x="248.064" y="213.662118" style="stroke: #000000; stroke-width: 0.8"/>
      </g>
     </g>
    </g>
    <g id="xtick_15">
     <g id="line2d_20">
      <g>
       <use xlink:href="#meacf1fe105" x="295.68" y="213.662118" style="stroke: #000000; stroke-width: 0.8"/>
      </g>
     </g>
    </g>
    <g id="xtick_16">
     <g id="line2d_21">
      <g>
       <use xlink:href="#meacf1fe105" x="343.296" y="213.662118" style="stroke: #000000; stroke-width: 0.8"/>
      </g>
     </g>
    </g>
    <g id="xtick_17">
     <g id="line2d_22">
      <g>
       <use xlink:href="#meacf1fe105" x="390.912" y="213.662118" style="stroke: #000000; stroke-width: 0.8"/>
      </g>
     </g>
    </g>
    <g id="xtick_18">
     <g id="line2d_23">
      <g>
       <use xlink:href="#meacf1fe105" x="414.72" y="213.662118" style="stroke: #000000; stroke-width: 0.8"/>
      </g>
     </g>
    </g>
   </g>
   <g id="matplotlib.axis_4">
    <g id="ytick_4">
     <g id="line2d_24">
      <g>
       <use xlink:href="#mbe059f0115" x="57.6" y="204.196091" style="stroke: #000000; stroke-width: 0.8"/>
      </g>
     </g>
     <g id="text_4">
      <!-- −20 -->
      <g transform="translate(29.495313 207.99531) scale(0.1 -0.1)">
       <defs>
        <path id="DejaVuSans-32" d="M 1228 531 
L 3431 531 
L 3431 0 
L 469 0 
L 469 531 
Q 828 903 1448 1529 
Q 2069 2156 2228 2338 
Q 2531 2678 2651 2914 
Q 2772 3150 2772 3378 
Q 2772 3750 2511 3984 
Q 2250 4219 1831 4219 
Q 1534 4219 1204 4116 
Q 875 4013 500 3803 
L 500 4441 
Q 881 4594 1212 4672 
Q 1544 4750 1819 4750 
Q 2544 4750 2975 4387 
Q 3406 4025 3406 3419 
Q 3406 3131 3298 2873 
Q 3191 2616 2906 2266 
Q 2828 2175 2409 1742 
Q 1991 1309 1228 531 
z
" transform="scale(0.015625)"/>
       </defs>
       <use xlink:href="#DejaVuSans-2212"/>
       <use xlink:href="#DejaVuSans-32" x="83.789062"/>
       <use xlink:href="#DejaVuSans-30" x="147.412109"/>
      </g>
     </g>
    </g>
    <g id="ytick_5">
     <g id="line2d_25">
      <g>
       <use xlink:href="#mbe059f0115" x="57.6" y="172.809001" style="stroke: #000000; stroke-width: 0.8"/>
      </g>
     </g>
     <g id="text_5">
      <!-- 0 -->
      <g transform="translate(44.2375 176.60822) scale(0.1 -0.1)">
       <use xlink:href="#DejaVuSans-30"/>
      </g>
     </g>
    </g>
    <g id="ytick_6">
     <g id="line2d_26">
      <g>
       <use xlink:href="#mbe059f0115" x="57.6" y="141.421911" style="stroke: #000000; stroke-width: 0.8"/>
      </g>
     </g>
     <g id="text_6">
      <!-- 20 -->
      <g transform="translate(37.875 145.221129) scale(0.1 -0.1)">
       <use xlink:href="#DejaVuSans-32"/>
       <use xlink:href="#DejaVuSans-30" x="63.623047"/>
      </g>
     </g>
    </g>
   </g>
   <g id="line2d_27">
    <path d="M 57.6 179.660311 
L 58.1952 180.987666 
L 58.7904 182.601471 
L 59.9808 186.989679 
L 61.1712 192.735328 
L 62.3616 198.843451 
L 62.9568 200.948805 
L 63.552 201.533871 
L 64.1472 199.962146 
L 64.7424 196.150444 
L 66.528 179.441618 
L 67.1232 175.59806 
L 67.7184 173.17714 
L 68.3136 171.886414 
L 68.9088 171.33425 
L 69.504 171.335709 
L 70.6944 171.713736 
L 71.8848 172.248523 
L 73.6704 172.83279 
L 77.8368 173.720541 
L 79.0272 174.286161 
L 80.2176 175.124359 
L 80.8128 175.736131 
L 82.0032 177.554753 
L 82.5984 178.900393 
L 83.1936 180.589511 
L 83.7888 182.804043 
L 84.384 185.583982 
L 84.9792 189.031774 
L 86.1696 198.112804 
L 87.36 207.68874 
L 87.9552 209.923587 
L 88.5504 208.13679 
L 89.1456 201.495661 
L 90.9312 172.62154 
L 91.5264 167.350824 
L 92.1216 164.828959 
L 92.7168 163.848852 
L 93.312 163.765967 
L 95.0976 164.162526 
L 95.6928 164.009844 
L 96.288 163.565124 
L 96.8832 162.924621 
L 97.4784 162.027893 
L 98.6688 159.52753 
L 101.6448 151.86284 
L 102.24 151.117728 
L 102.8352 151.152508 
L 103.4304 152.135405 
L 104.0256 153.960127 
L 106.4064 164.061995 
L 107.0016 165.781026 
L 107.5968 166.948061 
L 108.192 167.538189 
L 108.7872 167.787709 
L 109.3824 167.721667 
L 109.9776 167.402416 
L 111.168 166.217034 
L 112.3584 164.378562 
L 113.5488 161.931896 
L 115.3344 156.857151 
L 116.5248 153.163258 
L 117.12 151.515591 
L 117.7152 150.499306 
L 118.3104 150.19413 
L 118.9056 150.946902 
L 119.5008 152.757004 
L 120.6912 158.414608 
L 121.8816 164.123333 
L 122.4768 166.174684 
L 123.072 167.539257 
L 123.6672 168.312888 
L 124.2624 168.633043 
L 124.8576 168.571856 
L 126.048 167.865019 
L 126.6432 167.234881 
L 127.8336 165.573787 
L 128.4288 164.490924 
L 129.6192 161.783744 
L 130.8096 158.208852 
L 132.5952 151.98237 
L 133.1904 150.295629 
L 133.7856 149.223719 
L 134.3808 149.151224 
L 134.976 150.364908 
L 135.5712 152.669113 
L 137.952 165.612352 
L 138.5472 167.688784 
L 139.1424 168.863133 
L 139.7376 169.522082 
L 140.3328 169.706876 
L 140.928 169.580233 
L 141.5232 169.265429 
L 142.1184 168.75961 
L 143.3088 167.335577 
L 143.904 166.496435 
L 145.0944 164.212646 
L 146.2848 161.105468 
L 147.4752 156.988064 
L 149.2608 149.946618 
L 149.856 148.287587 
L 150.4512 147.619554 
L 151.0464 148.273819 
L 151.6416 150.457042 
L 152.2368 153.921735 
L 153.4272 162.188196 
L 154.0224 165.720565 
L 154.6176 168.285877 
L 155.2128 169.907615 
L 155.808 170.706127 
L 156.4032 171.08471 
L 156.9984 170.971715 
L 157.5936 170.697476 
L 158.784 169.768625 
L 159.9744 168.516431 
L 161.1648 166.723869 
L 161.76 165.654058 
L 162.3552 164.322591 
L 163.5456 160.82031 
L 164.736 156.015828 
L 166.5216 147.836409 
L 167.1168 145.93558 
L 167.712 145.47971 
L 168.3072 146.892193 
L 168.9024 150.248303 
L 171.2832 168.549268 
L 171.8784 170.903905 
L 172.4736 172.363818 
L 173.0688 172.936034 
L 173.664 173.083721 
L 174.8544 172.561317 
L 176.0448 171.854702 
L 178.4256 170.013708 
L 179.0208 169.423957 
L 180.2112 167.799462 
L 180.8064 166.703365 
L 181.4016 165.365171 
L 182.592 161.59318 
L 183.1872 159.13824 
L 184.3776 152.682613 
L 185.568 145.32403 
L 186.1632 142.536749 
L 186.7584 141.54369 
L 187.3536 143.152664 
L 187.9488 147.703595 
L 189.7344 167.938835 
L 190.3296 172.329953 
L 190.9248 174.961228 
L 191.52 176.209709 
L 192.1152 176.627221 
L 192.7104 176.662979 
L 193.9008 176.282235 
L 194.496 176.142102 
L 195.0912 176.122441 
L 195.6864 176.290507 
L 196.8768 177.023779 
L 197.472 177.642464 
L 198.0672 178.448888 
L 199.2576 180.729362 
L 200.448 184.315539 
L 201.6384 189.427087 
L 204.0192 201.514579 
L 204.6144 202.394984 
L 205.2096 200.941405 
L 205.8048 197.003975 
L 207.5904 179.201438 
L 208.1856 175.069232 
L 208.7808 172.510376 
L 209.376 171.116569 
L 209.9712 170.562637 
L 210.5664 170.501893 
L 212.352 171.18825 
L 213.5424 171.425897 
L 214.7328 171.465106 
L 216.5184 170.830643 
L 217.7088 170.093457 
L 218.8992 168.628245 
L 219.4944 167.633391 
L 220.0896 166.418282 
L 220.6848 164.796429 
L 221.28 162.778876 
L 221.8752 160.259447 
L 222.4704 157.17264 
L 223.6608 149.239675 
L 224.8512 141.094527 
L 225.4464 138.951529 
L 226.0416 139.763276 
L 226.6368 144.37412 
L 229.0176 173.999679 
L 229.6128 177.168919 
L 230.208 178.640376 
L 230.8032 179.034106 
L 231.3984 179.023783 
L 231.9936 178.80491 
L 233.184 178.753232 
L 233.7792 178.932198 
L 234.3744 179.317293 
L 234.9696 179.922323 
L 235.5648 180.796707 
L 236.16 181.900265 
L 237.3504 184.973477 
L 238.5408 189.195074 
L 240.3264 196.204201 
L 240.9216 197.820234 
L 241.5168 198.268701 
L 242.112 197.273494 
L 242.7072 194.731961 
L 243.8976 186.537662 
L 245.088 179.07188 
L 245.6832 176.684499 
L 246.2784 175.234115 
L 246.8736 174.49793 
L 247.4688 174.301697 
L 248.064 174.378354 
L 249.2544 175.12157 
L 249.8496 175.607442 
L 251.04 176.916692 
L 252.2304 178.713179 
L 252.8256 179.705993 
L 254.016 182.630122 
L 255.2064 186.72887 
L 256.3968 192.110632 
L 257.5872 197.865689 
L 258.1824 199.884286 
L 258.7776 200.545521 
L 259.3728 199.33842 
L 259.968 196.033059 
L 262.3488 176.931105 
L 262.944 174.370738 
L 263.5392 172.926108 
L 264.1344 172.322271 
L 264.7296 172.223275 
L 265.3248 172.353845 
L 267.7056 173.611467 
L 270.6816 175.784405 
L 271.872 177.249651 
L 272.4672 178.217817 
L 273.6576 181.036376 
L 274.2528 182.979684 
L 275.4432 188.284271 
L 276.6336 195.632011 
L 277.824 203.059877 
L 278.4192 205.083689 
L 279.0144 204.563543 
L 279.6096 200.704669 
L 280.8 186.05704 
L 281.3952 178.791247 
L 281.9904 173.520851 
L 282.5856 170.285763 
L 283.1808 168.664631 
L 283.776 168.024324 
L 284.3712 167.954585 
L 286.1568 168.337539 
L 286.752 168.310353 
L 287.3472 168.130398 
L 288.5376 167.093066 
L 289.1328 166.32338 
L 289.728 165.241881 
L 290.3232 163.917303 
L 291.5136 160.371064 
L 292.704 155.453772 
L 294.4896 147.094682 
L 295.0848 145.420051 
L 295.68 145.313192 
L 296.2752 147.160861 
L 296.8704 151.047536 
L 298.656 166.190713 
L 299.2512 169.556153 
L 299.8464 171.691278 
L 300.4416 172.869864 
L 301.0368 173.302795 
L 301.632 173.37192 
L 302.2272 173.167908 
L 305.7984 171.03452 
L 306.9888 170.019793 
L 307.584 169.469295 
L 308.7744 167.792052 
L 309.3696 166.655668 
L 309.9648 165.181155 
L 310.56 163.386495 
L 311.1552 161.21942 
L 311.7504 158.554594 
L 312.9408 151.727092 
L 314.1312 143.99322 
L 314.7264 141.319159 
L 315.3216 140.717335 
L 315.9168 143.15518 
L 316.512 148.708998 
L 318.2976 169.939311 
L 318.8928 173.962772 
L 319.488 176.25179 
L 320.0832 177.191464 
L 320.6784 177.454578 
L 321.2736 177.378055 
L 321.8688 177.15116 
L 323.0592 177.023176 
L 324.2496 177.414688 
L 324.8448 177.893584 
L 325.44 178.595388 
L 326.0352 179.520438 
L 326.6304 180.662073 
L 327.2256 182.067253 
L 327.8208 183.799334 
L 329.0112 188.319799 
L 331.392 199.426491 
L 331.9872 200.718854 
L 332.5824 200.310751 
L 333.1776 197.76944 
L 333.7728 193.305415 
L 334.9632 182.426467 
L 335.5584 178.059101 
L 336.1536 174.954932 
L 336.7488 173.114744 
L 337.344 172.254393 
L 337.9392 171.988643 
L 338.5344 172.019716 
L 339.7248 172.557058 
L 342.1056 173.826343 
L 343.296 174.44656 
L 344.4864 175.371623 
L 345.0816 175.915365 
L 346.272 177.50626 
L 346.8672 178.656945 
L 347.4624 180.05724 
L 348.0576 181.832524 
L 348.6528 184.05939 
L 349.248 186.731013 
L 350.4384 193.827248 
L 351.6288 202.038996 
L 352.224 205.096451 
L 352.8192 206.056443 
L 353.4144 203.711213 
L 354.0096 197.872828 
L 355.7952 175.027889 
L 356.3904 170.669865 
L 356.9856 168.401754 
L 357.5808 167.410411 
L 358.176 167.20688 
L 358.7712 167.26768 
L 359.9616 167.546907 
L 360.5568 167.562747 
L 361.152 167.281488 
L 361.7472 166.871125 
L 362.9376 165.400052 
L 364.128 162.886066 
L 365.3184 159.178508 
L 366.5088 154.348806 
L 367.6992 149.17877 
L 368.2944 147.252175 
L 368.8896 146.438805 
L 369.4848 147.113672 
L 370.08 149.647801 
L 370.6752 153.623845 
L 371.8656 163.002297 
L 372.4608 166.728126 
L 373.056 169.404395 
L 373.6512 171.081025 
L 374.2464 171.896189 
L 374.8416 172.217714 
L 375.4368 172.143614 
L 376.032 171.857283 
L 377.8176 170.51746 
L 379.008 169.321655 
L 380.1984 167.827731 
L 381.3888 165.548798 
L 381.984 164.098698 
L 383.1744 160.11895 
L 384.3648 154.565106 
L 386.1504 145.234646 
L 386.7456 143.581315 
L 387.3408 143.890938 
L 387.936 146.665157 
L 388.5312 151.558275 
L 389.7216 163.792157 
L 390.3168 168.564842 
L 390.912 171.904228 
L 391.5072 173.775391 
L 392.1024 174.666951 
L 392.6976 174.915312 
L 393.2928 174.819881 
L 395.0784 174.103602 
L 395.6736 173.901917 
L 397.4592 173.865849 
L 398.6496 174.050986 
L 399.84 174.609222 
L 401.0304 175.46139 
L 402.2208 176.898319 
L 402.816 177.902861 
L 403.4112 179.215309 
L 404.0064 180.806865 
L 404.6016 182.910376 
L 405.1968 185.49822 
L 406.3872 192.575083 
L 408.1728 205.554422 
L 408.768 207.61996 
L 409.3632 206.452585 
L 409.9584 201.169161 
L 411.744 175.507422 
L 412.3392 170.207355 
L 412.9344 167.358603 
L 413.5296 166.073051 
L 414.1248 165.744775 
L 414.72 165.814449 
L 414.72 165.814449 
" clip-path="url(#p257663427e)" style="fill: none; stroke: #0000cc; stroke-width: 1.5; stroke-linecap: square"/>
   </g>
   <g id="line2d_28">
    <path d="M 57.6 179.660311 
L 58.1952 181.020453 
L 58.7904 182.668109 
L 59.9808 187.008826 
L 61.1712 192.786525 
L 62.3616 198.883 
L 62.9568 200.983089 
L 63.552 201.531347 
L 64.1472 199.916168 
L 64.7424 196.031542 
L 66.528 179.379274 
L 67.1232 175.528351 
L 67.7184 173.101673 
L 68.3136 171.821142 
L 68.9088 171.317004 
L 69.504 171.269334 
L 70.6944 171.720591 
L 72.48 172.46329 
L 74.2656 172.891592 
L 77.8368 173.590505 
L 79.0272 174.038189 
L 80.2176 174.763987 
L 80.8128 175.28783 
L 81.408 175.962896 
L 82.0032 176.834319 
L 82.5984 177.960056 
L 83.1936 179.413554 
L 83.7888 181.285627 
L 84.384 183.683414 
L 84.9792 186.721753 
L 85.5744 190.497347 
L 86.7648 200.133117 
L 87.36 205.2351 
L 87.9552 209.14823 
L 88.5504 210.104471 
L 89.1456 206.46544 
L 89.7408 198.126102 
L 90.9312 177.220237 
L 91.5264 170.003402 
L 92.1216 165.885996 
L 92.7168 164.044952 
L 93.312 163.511744 
L 93.9072 163.570332 
L 95.0976 163.937152 
L 95.6928 163.903718 
L 96.288 163.641625 
L 96.8832 163.135732 
L 97.4784 162.385798 
L 98.0736 161.399231 
L 99.264 158.784989 
L 101.6448 152.628831 
L 102.24 151.669736 
L 102.8352 151.348909 
L 103.4304 151.836453 
L 104.0256 153.181272 
L 104.6208 155.261182 
L 106.4064 162.811045 
L 107.0016 164.746899 
L 107.5968 166.143001 
L 108.192 167.017524 
L 108.7872 167.445348 
L 109.3824 167.517151 
L 109.9776 167.314011 
L 110.5728 166.896303 
L 111.168 166.301892 
L 112.3584 164.641248 
L 113.5488 162.33264 
L 114.7392 159.32111 
L 117.12 152.289954 
L 117.7152 151.073544 
L 118.3104 150.531971 
L 118.9056 150.888709 
L 119.5008 152.240043 
L 120.096 154.479669 
L 121.8816 162.975881 
L 122.4768 165.172296 
L 123.072 166.748776 
L 123.6672 167.732364 
L 124.2624 168.218524 
L 124.8576 168.319523 
L 125.4528 168.133666 
L 126.048 167.732831 
L 127.2384 166.439661 
L 128.4288 164.544885 
L 129.6192 161.955908 
L 130.8096 158.572878 
L 133.1904 150.893663 
L 133.7856 149.772613 
L 134.3808 149.541278 
L 134.976 150.429994 
L 135.5712 152.46591 
L 136.7616 158.774393 
L 137.952 164.830626 
L 138.5472 166.9052 
L 139.1424 168.264369 
L 139.7376 169.010247 
L 140.3328 169.28415 
L 140.928 169.217741 
L 141.5232 168.911399 
L 142.7136 167.808595 
L 143.904 166.167784 
L 145.0944 163.897447 
L 146.2848 160.798488 
L 147.4752 156.768637 
L 149.2608 150.159394 
L 149.856 148.688596 
L 150.4512 148.192355 
L 151.0464 149.000854 
L 151.6416 151.210488 
L 152.832 158.490806 
L 154.0224 165.54297 
L 154.6176 167.906522 
L 155.2128 169.419228 
L 155.808 170.227478 
L 156.4032 170.517701 
L 156.9984 170.455769 
L 157.5936 170.163825 
L 158.784 169.161564 
L 159.9744 167.738433 
L 161.1648 165.794018 
L 162.3552 163.071831 
L 163.5456 159.286195 
L 164.736 154.381181 
L 165.9264 149.188446 
L 166.5216 147.238406 
L 167.1168 146.372631 
L 167.712 147.074991 
L 168.3072 149.555306 
L 168.9024 153.54001 
L 170.0928 162.915056 
L 170.688 166.72458 
L 171.2832 169.43474 
L 171.8784 171.098212 
L 172.4736 171.940583 
L 173.0688 172.21857 
L 173.664 172.145954 
L 174.8544 171.489751 
L 176.0448 170.553218 
L 177.2352 169.403419 
L 178.4256 167.873816 
L 179.616 165.674432 
L 180.2112 164.20609 
L 180.8064 162.420576 
L 181.9968 157.710806 
L 183.1872 151.516649 
L 184.3776 145.347403 
L 184.9728 143.585094 
L 185.568 143.727951 
L 186.1632 146.30923 
L 186.7584 151.169862 
L 187.9488 163.424936 
L 188.544 168.380608 
L 189.1392 171.781116 
L 189.7344 173.758374 
L 190.3296 174.690907 
L 190.9248 174.970364 
L 191.52 174.900077 
L 193.9008 174.0493 
L 195.0912 173.930743 
L 196.2816 174.077013 
L 197.472 174.493111 
L 198.6624 175.245799 
L 199.2576 175.793385 
L 199.8528 176.493437 
L 200.448 177.386074 
L 201.0432 178.522566 
L 201.6384 179.966841 
L 202.2336 181.79582 
L 202.8288 184.096476 
L 203.424 186.955347 
L 204.6144 194.506895 
L 205.8048 203.315734 
L 206.4 206.536133 
L 206.9952 207.262084 
L 207.5904 204.275823 
L 208.1856 197.49304 
L 209.376 179.776803 
L 209.9712 173.11836 
L 210.5664 168.991155 
L 211.1616 166.912711 
L 211.7568 166.135147 
L 212.352 166.029624 
L 214.1376 166.37708 
L 214.7328 166.234445 
L 215.328 165.879236 
L 215.9232 165.295954 
L 216.5184 164.473018 
L 217.1136 163.398211 
L 217.7088 162.058678 
L 218.8992 158.561235 
L 221.28 149.863558 
L 221.8752 148.468565 
L 222.4704 148.10001 
L 223.0656 149.078294 
L 223.6608 151.467039 
L 224.8512 158.961335 
L 226.0416 165.944688 
L 226.6368 168.221603 
L 227.232 169.649273 
L 227.8272 170.387851 
L 228.4224 170.627464 
L 229.0176 170.532028 
L 229.6128 170.21964 
L 230.8032 169.199792 
L 231.9936 167.771407 
L 233.184 165.821012 
L 234.3744 163.084222 
L 235.5648 159.26799 
L 236.7552 154.310246 
L 237.9456 149.051596 
L 238.5408 147.078467 
L 239.136 146.211421 
L 239.7312 146.945356 
L 240.3264 149.491599 
L 241.5168 158.397599 
L 242.7072 166.913655 
L 243.3024 169.625086 
L 243.8976 171.276514 
L 244.4928 172.103453 
L 245.088 172.368629 
L 245.6832 172.288514 
L 246.8736 171.635335 
L 248.6592 170.204038 
L 249.8496 168.954333 
L 251.04 167.222672 
L 251.6352 166.075768 
L 252.2304 164.675606 
L 252.8256 162.966815 
L 253.4208 160.894538 
L 254.6112 155.522765 
L 256.3968 145.781845 
L 256.992 143.59664 
L 257.5872 143.164491 
L 258.1824 145.156952 
L 258.7776 149.62733 
L 260.5632 167.543615 
L 261.1584 171.382076 
L 261.7536 173.689864 
L 262.3488 174.832526 
L 262.944 175.228174 
L 263.5392 175.214171 
L 265.92 174.426924 
L 267.1104 174.378306 
L 268.3008 174.661126 
L 269.4912 175.307966 
L 270.6816 176.431252 
L 271.2768 177.238371 
L 271.872 178.263193 
L 272.4672 179.559987 
L 273.0624 181.19467 
L 273.6576 183.242929 
L 274.2528 185.782988 
L 275.4432 192.533828 
L 277.2288 204.3607 
L 277.824 206.145115 
L 278.4192 204.949606 
L 279.0144 200.175084 
L 280.8 176.863256 
L 281.3952 171.795777 
L 281.9904 168.881598 
L 282.5856 167.53513 
L 283.1808 167.118805 
L 283.776 167.149484 
L 284.9664 167.454416 
L 285.5616 167.461529 
L 286.1568 167.295875 
L 286.752 166.934786 
L 287.3472 166.363568 
L 287.9424 165.567349 
L 288.5376 164.527329 
L 289.1328 163.220432 
L 290.3232 159.714601 
L 291.5136 155.016772 
L 292.704 149.835409 
L 293.2992 147.734323 
L 293.8944 146.574873 
L 294.4896 146.859319 
L 295.0848 148.882076 
L 295.68 152.500777 
L 297.4656 165.778491 
L 298.0608 168.747106 
L 298.656 170.647519 
L 299.2512 171.671297 
L 299.8464 172.071485 
L 300.4416 172.072646 
L 301.0368 171.83884 
L 302.2272 171.034581 
L 303.4176 169.999675 
L 304.608 168.688579 
L 305.7984 166.877508 
L 306.3936 165.68404 
L 306.9888 164.233502 
L 307.584 162.472799 
L 308.7744 157.838129 
L 309.9648 151.748424 
L 311.1552 145.649208 
L 311.7504 143.857734 
L 312.3456 143.898246 
L 312.9408 146.307638 
L 313.536 150.970254 
L 315.3216 167.954001 
L 315.9168 171.407644 
L 316.512 173.449264 
L 317.1072 174.435848 
L 317.7024 174.751232 
L 318.2976 174.698686 
L 321.2736 173.656129 
L 322.464 173.558446 
L 323.6544 173.659655 
L 324.8448 173.954362 
L 326.0352 174.489643 
L 327.2256 175.382659 
L 327.8208 176.025861 
L 328.416 176.849855 
L 329.0112 177.905433 
L 329.6064 179.256751 
L 330.2016 180.982793 
L 330.7968 183.176486 
L 331.392 185.937835 
L 331.9872 189.353794 
L 333.1776 198.107471 
L 334.368 206.893792 
L 334.9632 208.668621 
L 335.5584 206.672237 
L 336.1536 200.31563 
L 337.9392 173.445214 
L 338.5344 168.537663 
L 339.1296 166.022298 
L 339.7248 165.053567 
L 340.32 164.891215 
L 342.1056 165.265622 
L 342.7008 165.119261 
L 343.296 164.744737 
L 343.8912 164.128984 
L 344.4864 163.266007 
L 345.0816 162.152546 
L 346.272 159.185646 
L 349.248 150.24583 
L 349.8432 149.613118 
L 350.4384 150.000547 
L 351.0336 151.534068 
L 351.6288 154.090726 
L 353.4144 163.626297 
L 354.0096 165.996701 
L 354.6048 167.649913 
L 355.2 168.644515 
L 355.7952 169.108548 
L 356.3904 169.178949 
L 356.9856 168.969157 
L 357.5808 168.558508 
L 358.7712 167.294342 
L 359.9616 165.479239 
L 361.152 162.978655 
L 362.3424 159.604662 
L 363.5328 155.363726 
L 364.7232 150.951802 
L 365.3184 149.25513 
L 365.9136 148.377551 
L 366.5088 148.681772 
L 367.104 150.362163 
L 367.6992 153.29814 
L 369.4848 164.349802 
L 370.08 167.011698 
L 370.6752 168.814472 
L 371.2704 169.859783 
L 371.8656 170.322931 
L 372.4608 170.377646 
L 373.056 170.160777 
L 374.2464 169.240397 
L 375.4368 167.874037 
L 376.6272 166.00635 
L 377.8176 163.403379 
L 379.008 159.784149 
L 380.1984 155.052812 
L 381.3888 149.885732 
L 381.984 147.801346 
L 382.5792 146.65765 
L 383.1744 146.949025 
L 383.7696 148.962867 
L 384.3648 152.555163 
L 386.1504 165.727431 
L 386.7456 168.678249 
L 387.3408 170.570817 
L 387.936 171.59285 
L 388.5312 171.993814 
L 389.1264 171.99581 
L 389.7216 171.761481 
L 390.912 170.949579 
L 392.1024 169.896427 
L 393.2928 168.554461 
L 394.4832 166.696791 
L 395.0784 165.473104 
L 395.6736 163.987614 
L 396.2688 162.188002 
L 397.4592 157.475721 
L 399.84 145.458893 
L 400.4352 143.891586 
L 401.0304 144.223606 
L 401.6256 146.916957 
L 402.2208 151.752649 
L 403.4112 163.614914 
L 404.0064 168.351211 
L 404.6016 171.592091 
L 405.1968 173.474821 
L 405.792 174.360545 
L 406.3872 174.619774 
L 406.9824 174.5394 
L 409.9584 173.442296 
L 411.1488 173.287012 
L 412.9344 173.335105 
L 414.72 173.681197 
L 414.72 173.681197 
" clip-path="url(#p257663427e)" style="fill: none; stroke-dasharray: 9.6,2.4,1.5,2.4; stroke-dashoffset: 0; stroke: #ff0000; stroke-width: 1.5"/>
   </g>
   <g id="patch_8">
    <path d="M 57.6 213.662118 
L 57.6 135.393882 
" style="fill: none; stroke: #000000; stroke-width: 0.8; stroke-linejoin: miter; stroke-linecap: square"/>
   </g>
   <g id="patch_9">
    <path d="M 414.72 213.662118 
L 414.72 135.393882 
" style="fill: none; stroke: #000000; stroke-width: 0.8; stroke-linejoin: miter; stroke-linecap: square"/>
   </g>
   <g id="patch_10">
    <path d="M 57.6 213.662118 
L 414.72 213.662118 
" style="fill: none; stroke: #000000; stroke-width: 0.8; stroke-linejoin: miter; stroke-linecap: square"/>
   </g>
   <g id="patch_11">
    <path d="M 57.6 135.393882 
L 414.72 135.393882 
" style="fill: none; stroke: #000000; stroke-width: 0.8; stroke-linejoin: miter; stroke-linecap: square"/>
   </g>
  </g>
  <g id="axes_3">
   <g id="patch_12">
    <path d="M 57.6 307.584 
L 414.72 307.584 
L 414.72 229.315765 
L 57.6 229.315765 
z
" style="fill: #ffffff"/>
   </g>
   <g id="matplotlib.axis_5">
    <g id="xtick_19">
     <g id="line2d_29">
      <g>
       <use xlink:href="#meacf1fe105" x="57.6" y="307.584" style="stroke: #000000; stroke-width: 0.8"/>
      </g>
     </g>
     <g id="text_7">
      <!-- 10 -->
      <g transform="translate(51.2375 322.182437) scale(0.1 -0.1)">
       <use xlink:href="#DejaVuSans-31"/>
       <use xlink:href="#DejaVuSans-30" x="63.623047"/>
      </g>
     </g>
    </g>
    <g id="xtick_20">
     <g id="line2d_30">
      <g>
       <use xlink:href="#meacf1fe105" x="105.216" y="307.584" style="stroke: #000000; stroke-width: 0.8"/>
      </g>
     </g>
     <g id="text_8">
      <!-- 12 -->
      <g transform="translate(98.8535 322.182437) scale(0.1 -0.1)">
       <use xlink:href="#DejaVuSans-31"/>
       <use xlink:href="#DejaVuSans-32" x="63.623047"/>
      </g>
     </g>
    </g>
    <g id="xtick_21">
     <g id="line2d_31">
      <g>
       <use xlink:href="#meacf1fe105" x="152.832" y="307.584" style="stroke: #000000; stroke-width: 0.8"/>
      </g>
     </g>
     <g id="text_9">
      <!-- 14 -->
      <g transform="translate(146.4695 322.182437) scale(0.1 -0.1)">
       <defs>
        <path id="DejaVuSans-34" d="M 2419 4116 
L 825 1625 
L 2419 1625 
L 2419 4116 
z
M 2253 4666 
L 3047 4666 
L 3047 1625 
L 3713 1625 
L 3713 1100 
L 3047 1100 
L 3047 0 
L 2419 0 
L 2419 1100 
L 313 1100 
L 313 1709 
L 2253 4666 
z
" transform="scale(0.015625)"/>
       </defs>
       <use xlink:href="#DejaVuSans-31"/>
       <use xlink:href="#DejaVuSans-34" x="63.623047"/>
      </g>
     </g>
    </g>
    <g id="xtick_22">
     <g id="line2d_32">
      <g>
       <use xlink:href="#meacf1fe105" x="200.448" y="307.584" style="stroke: #000000; stroke-width: 0.8"/>
      </g>
     </g>
     <g id="text_10">
      <!-- 16 -->
      <g transform="translate(194.0855 322.182437) scale(0.1 -0.1)">
       <defs>
        <path id="DejaVuSans-36" d="M 2113 2584 
Q 1688 2584 1439 2293 
Q 1191 2003 1191 1497 
Q 1191 994 1439 701 
Q 1688 409 2113 409 
Q 2538 409 2786 701 
Q 3034 994 3034 1497 
Q 3034 2003 2786 2293 
Q 2538 2584 2113 2584 
z
M 3366 4563 
L 3366 3988 
Q 3128 4100 2886 4159 
Q 2644 4219 2406 4219 
Q 1781 4219 1451 3797 
Q 1122 3375 1075 2522 
Q 1259 2794 1537 2939 
Q 1816 3084 2150 3084 
Q 2853 3084 3261 2657 
Q 3669 2231 3669 1497 
Q 3669 778 3244 343 
Q 2819 -91 2113 -91 
Q 1303 -91 875 529 
Q 447 1150 447 2328 
Q 447 3434 972 4092 
Q 1497 4750 2381 4750 
Q 2619 4750 2861 4703 
Q 3103 4656 3366 4563 
z
" transform="scale(0.015625)"/>
       </defs>
       <use xlink:href="#DejaVuSans-31"/>
       <use xlink:href="#DejaVuSans-36" x="63.623047"/>
      </g>
     </g>
    </g>
    <g id="xtick_23">
     <g id="line2d_33">
      <g>
       <use xlink:href="#meacf1fe105" x="248.064" y="307.584" style="stroke: #000000; stroke-width: 0.8"/>
      </g>
     </g>
     <g id="text_11">
      <!-- 18 -->
      <g transform="translate(241.7015 322.182437) scale(0.1 -0.1)">
       <defs>
        <path id="DejaVuSans-38" d="M 2034 2216 
Q 1584 2216 1326 1975 
Q 1069 1734 1069 1313 
Q 1069 891 1326 650 
Q 1584 409 2034 409 
Q 2484 409 2743 651 
Q 3003 894 3003 1313 
Q 3003 1734 2745 1975 
Q 2488 2216 2034 2216 
z
M 1403 2484 
Q 997 2584 770 2862 
Q 544 3141 544 3541 
Q 544 4100 942 4425 
Q 1341 4750 2034 4750 
Q 2731 4750 3128 4425 
Q 3525 4100 3525 3541 
Q 3525 3141 3298 2862 
Q 3072 2584 2669 2484 
Q 3125 2378 3379 2068 
Q 3634 1759 3634 1313 
Q 3634 634 3220 271 
Q 2806 -91 2034 -91 
Q 1263 -91 848 271 
Q 434 634 434 1313 
Q 434 1759 690 2068 
Q 947 2378 1403 2484 
z
M 1172 3481 
Q 1172 3119 1398 2916 
Q 1625 2713 2034 2713 
Q 2441 2713 2670 2916 
Q 2900 3119 2900 3481 
Q 2900 3844 2670 4047 
Q 2441 4250 2034 4250 
Q 1625 4250 1398 4047 
Q 1172 3844 1172 3481 
z
" transform="scale(0.015625)"/>
       </defs>
       <use xlink:href="#DejaVuSans-31"/>
       <use xlink:href="#DejaVuSans-38" x="63.623047"/>
      </g>
     </g>
    </g>
    <g id="xtick_24">
     <g id="line2d_34">
      <g>
       <use xlink:href="#meacf1fe105" x="295.68" y="307.584" style="stroke: #000000; stroke-width: 0.8"/>
      </g>
     </g>
     <g id="text_12">
      <!-- 20 -->
      <g transform="translate(289.3175 322.182437) scale(0.1 -0.1)">
       <use xlink:href="#DejaVuSans-32"/>
       <use xlink:href="#DejaVuSans-30" x="63.623047"/>
      </g>
     </g>
    </g>
    <g id="xtick_25">
     <g id="line2d_35">
      <g>
       <use xlink:href="#meacf1fe105" x="343.296" y="307.584" style="stroke: #000000; stroke-width: 0.8"/>
      </g>
     </g>
     <g id="text_13">
      <!-- 22 -->
      <g transform="translate(336.9335 322.182437) scale(0.1 -0.1)">
       <use xlink:href="#DejaVuSans-32"/>
       <use xlink:href="#DejaVuSans-32" x="63.623047"/>
      </g>
     </g>
    </g>
    <g id="xtick_26">
     <g id="line2d_36">
      <g>
       <use xlink:href="#meacf1fe105" x="390.912" y="307.584" style="stroke: #000000; stroke-width: 0.8"/>
      </g>
     </g>
     <g id="text_14">
      <!-- 24 -->
      <g transform="translate(384.5495 322.182437) scale(0.1 -0.1)">
       <use xlink:href="#DejaVuSans-32"/>
       <use xlink:href="#DejaVuSans-34" x="63.623047"/>
      </g>
     </g>
    </g>
    <g id="xtick_27">
     <g id="line2d_37">
      <g>
       <use xlink:href="#meacf1fe105" x="414.72" y="307.584" style="stroke: #000000; stroke-width: 0.8"/>
      </g>
     </g>
     <g id="text_15">
      <!-- 25 -->
      <g transform="translate(408.3575 322.182437) scale(0.1 -0.1)">
       <defs>
        <path id="DejaVuSans-35" d="M 691 4666 
L 3169 4666 
L 3169 4134 
L 1269 4134 
L 1269 2991 
Q 1406 3038 1543 3061 
Q 1681 3084 1819 3084 
Q 2600 3084 3056 2656 
Q 3513 2228 3513 1497 
Q 3513 744 3044 326 
Q 2575 -91 1722 -91 
Q 1428 -91 1123 -41 
Q 819 9 494 109 
L 494 744 
Q 775 591 1075 516 
Q 1375 441 1709 441 
Q 2250 441 2565 725 
Q 2881 1009 2881 1497 
Q 2881 1984 2565 2268 
Q 2250 2553 1709 2553 
Q 1456 2553 1204 2497 
Q 953 2441 691 2322 
L 691 4666 
z
" transform="scale(0.015625)"/>
       </defs>
       <use xlink:href="#DejaVuSans-32"/>
       <use xlink:href="#DejaVuSans-35" x="63.623047"/>
      </g>
     </g>
    </g>
   </g>
   <g id="matplotlib.axis_6">
    <g id="ytick_7">
     <g id="line2d_38">
      <g>
       <use xlink:href="#mbe059f0115" x="57.6" y="278.211593" style="stroke: #000000; stroke-width: 0.8"/>
      </g>
     </g>
     <g id="text_16">
      <!-- 20 -->
      <g transform="translate(37.875 282.010812) scale(0.1 -0.1)">
       <use xlink:href="#DejaVuSans-32"/>
       <use xlink:href="#DejaVuSans-30" x="63.623047"/>
      </g>
     </g>
    </g>
    <g id="ytick_8">
     <g id="line2d_39">
      <g>
       <use xlink:href="#mbe059f0115" x="57.6" y="240.828206" style="stroke: #000000; stroke-width: 0.8"/>
      </g>
     </g>
     <g id="text_17">
      <!-- 40 -->
      <g transform="translate(37.875 244.627425) scale(0.1 -0.1)">
       <use xlink:href="#DejaVuSans-34"/>
       <use xlink:href="#DejaVuSans-30" x="63.623047"/>
      </g>
     </g>
    </g>
   </g>
   <g id="line2d_40">
    <path d="M 57.6 286.787048 
L 58.1952 287.999902 
L 58.7904 288.756421 
L 59.3856 289.190544 
L 59.9808 289.056214 
L 60.576 288.136475 
L 61.1712 286.236514 
L 61.7664 283.017863 
L 62.3616 278.261647 
L 62.9568 271.942052 
L 64.7424 249.478902 
L 65.3376 245.126057 
L 65.9328 243.657045 
L 66.528 245.104939 
L 67.1232 248.211022 
L 70.0992 267.508547 
L 71.2896 273.627818 
L 73.0752 281.258152 
L 74.2656 285.548995 
L 76.0512 290.97136 
L 77.2416 294.019428 
L 79.0272 297.943103 
L 80.8128 300.965715 
L 82.0032 302.542522 
L 82.5984 303.144501 
L 83.1936 303.431926 
L 83.7888 303.574832 
L 84.384 303.095432 
L 84.9792 301.958587 
L 85.5744 299.689696 
L 86.1696 295.742238 
L 86.7648 289.466512 
L 87.36 280.120889 
L 89.1456 241.614946 
L 89.7408 234.261224 
L 90.336 233.343924 
L 90.9312 237.166681 
L 92.7168 254.755141 
L 93.9072 263.107003 
L 95.0976 269.081296 
L 95.6928 271.451048 
L 96.8832 275.018441 
L 97.4784 276.375776 
L 98.0736 277.265588 
L 98.6688 277.694654 
L 99.264 277.689197 
L 99.8592 276.974494 
L 100.4544 275.655029 
L 101.0496 273.53693 
L 101.6448 270.757642 
L 102.8352 263.45545 
L 104.0256 256.454612 
L 104.6208 254.221539 
L 105.216 253.115445 
L 105.8112 253.325189 
L 106.4064 254.412523 
L 107.0016 256.279093 
L 108.7872 263.789554 
L 110.5728 270.972533 
L 111.7632 274.873916 
L 112.9536 277.821287 
L 113.5488 278.729093 
L 114.144 279.304446 
L 114.7392 279.308873 
L 115.3344 278.796464 
L 115.9296 277.5103 
L 116.5248 275.483585 
L 117.12 272.535357 
L 118.3104 264.694959 
L 119.5008 256.526303 
L 120.096 253.649124 
L 120.6912 252.085763 
L 121.2864 251.981148 
L 121.8816 252.991627 
L 122.4768 255.014873 
L 123.6672 260.2323 
L 125.4528 268.434451 
L 126.6432 273.095186 
L 127.8336 276.970739 
L 128.4288 278.553157 
L 129.024 279.791985 
L 129.6192 280.640834 
L 130.2144 281.141503 
L 130.8096 281.033811 
L 131.4048 280.199838 
L 132 278.632509 
L 132.5952 276.159706 
L 133.1904 272.721911 
L 134.3808 263.528284 
L 135.5712 254.4412 
L 136.1664 251.617528 
L 136.7616 250.352802 
L 137.3568 250.734763 
L 137.952 252.451704 
L 139.1424 257.797153 
L 140.928 266.762314 
L 142.1184 272.139012 
L 143.3088 276.584301 
L 144.4992 280.187673 
L 145.0944 281.646239 
L 145.6896 282.654002 
L 146.2848 283.376078 
L 146.88 283.435295 
L 147.4752 282.923709 
L 148.0704 281.650156 
L 148.6656 279.320198 
L 149.2608 275.945057 
L 149.856 271.421163 
L 151.6416 254.891553 
L 152.2368 250.808505 
L 152.832 248.720989 
L 153.4272 248.597823 
L 154.0224 250.084423 
L 155.2128 255.959336 
L 157.5936 268.868528 
L 158.784 274.199127 
L 159.9744 278.877452 
L 161.1648 282.672047 
L 161.76 284.236071 
L 162.3552 285.481939 
L 162.9504 286.368366 
L 163.5456 286.856004 
L 164.1408 286.758718 
L 164.736 285.977469 
L 165.3312 284.1894 
L 165.9264 281.23024 
L 166.5216 276.879616 
L 167.712 264.346829 
L 168.9024 251.169285 
L 169.4976 247.060776 
L 170.0928 245.57273 
L 170.688 246.434992 
L 171.2832 249.073455 
L 174.8544 270.338904 
L 176.64 278.453482 
L 177.8304 282.939109 
L 179.0208 286.804973 
L 180.2112 289.971498 
L 181.4016 292.412842 
L 181.9968 293.110789 
L 182.592 293.498336 
L 183.1872 293.387825 
L 183.7824 292.377802 
L 184.3776 290.42265 
L 184.9728 286.920606 
L 185.568 281.638271 
L 186.1632 274.38823 
L 187.9488 247.281208 
L 188.544 241.860142 
L 189.1392 240.461797 
L 189.7344 242.365591 
L 190.3296 246.254198 
L 192.1152 260.001593 
L 193.3056 267.433728 
L 194.496 273.522626 
L 195.6864 278.70038 
L 196.8768 283.06029 
L 198.0672 286.661463 
L 198.6624 288.10031 
L 199.8528 290.118931 
L 200.448 290.590919 
L 201.0432 290.49624 
L 201.6384 289.568623 
L 202.2336 287.690323 
L 202.8288 284.578663 
L 203.424 279.737737 
L 204.0192 273.115053 
L 205.8048 249.219781 
L 206.4 244.324426 
L 206.9952 242.685312 
L 207.5904 244.050756 
L 208.1856 247.295487 
L 210.5664 263.805196 
L 211.7568 270.43548 
L 212.9472 276.188382 
L 214.1376 281.140864 
L 215.328 285.397999 
L 216.5184 289.140167 
L 217.7088 292.342107 
L 218.8992 294.95972 
L 219.4944 296.135433 
L 220.0896 297.058242 
L 220.6848 297.720957 
L 221.28 298.007411 
L 221.8752 297.86843 
L 222.4704 297.127201 
L 223.0656 295.341182 
L 223.6608 292.071843 
L 224.256 286.81696 
L 224.8512 279.172786 
L 226.0416 257.586287 
L 226.6368 246.953424 
L 227.232 239.48907 
L 227.8272 237.018485 
L 228.4224 238.89445 
L 229.0176 243.350295 
L 230.208 254.041894 
L 231.3984 262.7629 
L 232.5888 269.473802 
L 233.7792 274.78105 
L 234.9696 279.06213 
L 235.5648 280.802996 
L 236.7552 283.20647 
L 237.3504 283.784876 
L 237.9456 283.805333 
L 238.5408 283.109329 
L 239.136 281.586298 
L 239.7312 279.083317 
L 240.3264 275.381922 
L 241.5168 264.911183 
L 242.7072 253.671375 
L 243.3024 249.875667 
L 243.8976 248.133898 
L 244.4928 248.407765 
L 245.088 250.32737 
L 246.2784 256.547116 
L 248.6592 269.498824 
L 249.8496 274.837738 
L 251.04 279.458341 
L 252.2304 283.196663 
L 252.8256 284.818006 
L 253.4208 286.075898 
L 254.016 287.044337 
L 254.6112 287.528933 
L 255.2064 287.507325 
L 255.8016 286.813919 
L 256.3968 285.056933 
L 256.992 282.1748 
L 257.5872 277.774423 
L 258.1824 272.064819 
L 259.968 251.206337 
L 260.5632 246.824488 
L 261.1584 245.07943 
L 261.7536 245.868881 
L 262.3488 248.458345 
L 265.92 270.106024 
L 267.1104 275.767457 
L 268.3008 280.708897 
L 269.4912 284.989556 
L 271.2768 290.273046 
L 272.4672 292.976447 
L 273.0624 294.063311 
L 273.6576 294.86475 
L 274.2528 295.37243 
L 274.848 295.362143 
L 275.4432 294.719612 
L 276.0384 293.038682 
L 276.6336 290.08694 
L 277.2288 285.285048 
L 277.824 278.273317 
L 279.0144 258.902427 
L 279.6096 248.986411 
L 280.2048 241.903362 
L 280.8 239.067632 
L 281.3952 240.070569 
L 281.9904 243.927865 
L 283.776 258.406557 
L 284.9664 266.172095 
L 286.1568 272.412129 
L 287.3472 277.548083 
L 288.5376 281.741609 
L 289.728 285.029181 
L 290.3232 286.225669 
L 290.9184 287.166943 
L 291.5136 287.488435 
L 292.1088 287.201638 
L 292.704 286.181123 
L 293.2992 284.138335 
L 293.8944 280.841913 
L 294.4896 276.027293 
L 295.68 262.785209 
L 296.8704 249.690118 
L 297.4656 246.035053 
L 298.0608 245.169609 
L 298.656 246.605143 
L 299.2512 249.609128 
L 302.2272 267.992398 
L 303.4176 273.920746 
L 304.608 279.036411 
L 305.7984 283.582578 
L 306.9888 287.382824 
L 308.1792 290.697873 
L 309.3696 293.227904 
L 309.9648 294.162192 
L 310.56 294.842082 
L 311.1552 295.059566 
L 311.7504 294.682331 
L 312.3456 293.489502 
L 312.9408 291.086118 
L 313.536 287.216232 
L 314.1312 281.16159 
L 314.7264 273.099653 
L 316.512 244.697068 
L 317.1072 239.966474 
L 317.7024 239.512187 
L 318.2976 242.333966 
L 321.2736 264.695018 
L 322.464 271.198537 
L 323.6544 276.609312 
L 324.8448 281.098742 
L 326.0352 284.609347 
L 326.6304 286.054072 
L 327.2256 287.153662 
L 327.8208 287.886523 
L 328.416 288.040583 
L 329.0112 287.634454 
L 329.6064 286.352973 
L 330.2016 283.79511 
L 330.7968 280.013014 
L 331.392 274.657471 
L 332.5824 260.460775 
L 333.1776 253.338789 
L 333.7728 247.897751 
L 334.368 244.97099 
L 334.9632 244.94482 
L 335.5584 247.027362 
L 336.7488 254.450137 
L 338.5344 265.727778 
L 339.7248 272.026732 
L 340.9152 277.460082 
L 342.1056 282.166968 
L 343.8912 288.163928 
L 345.0816 291.412319 
L 346.272 294.101352 
L 346.8672 295.224635 
L 348.0576 296.721995 
L 348.6528 296.888367 
L 349.248 296.531458 
L 349.8432 295.354139 
L 350.4384 293.059363 
L 351.0336 289.088989 
L 351.6288 282.975824 
L 352.224 274.501084 
L 354.0096 243.937874 
L 354.6048 238.708424 
L 355.2 238.169515 
L 355.7952 241.191482 
L 358.7712 264.422232 
L 359.9616 270.8789 
L 361.152 276.104853 
L 362.3424 280.302066 
L 363.5328 283.449445 
L 364.128 284.571196 
L 364.7232 285.213627 
L 365.3184 285.401558 
L 365.9136 284.804183 
L 366.5088 283.411897 
L 367.104 280.96021 
L 367.6992 277.232077 
L 368.2944 272.309479 
L 370.08 253.748127 
L 370.6752 249.307541 
L 371.2704 247.053592 
L 371.8656 247.099945 
L 372.4608 248.9564 
L 373.6512 255.517383 
L 375.4368 266.033322 
L 377.2224 274.818831 
L 378.4128 279.579658 
L 379.6032 283.735744 
L 380.7936 287.1059 
L 381.984 289.44082 
L 382.5792 290.09212 
L 383.1744 290.201472 
L 383.7696 289.790027 
L 384.3648 288.429847 
L 384.96 285.979432 
L 385.5552 281.929636 
L 386.1504 276.257912 
L 387.3408 260.555987 
L 387.936 252.649894 
L 388.5312 246.469924 
L 389.1264 243.203189 
L 389.7216 243.29743 
L 390.3168 245.772025 
L 391.5072 253.893905 
L 392.6976 262.050637 
L 393.888 269.009958 
L 395.0784 274.94619 
L 396.864 282.399077 
L 398.6496 288.380741 
L 400.4352 293.158981 
L 401.6256 295.840706 
L 402.816 298.010094 
L 403.4112 298.794259 
L 404.0064 299.384811 
L 404.6016 299.647712 
L 405.1968 299.379359 
L 405.792 298.449108 
L 406.3872 296.521236 
L 406.9824 292.99875 
L 407.5776 287.378694 
L 408.1728 279.152731 
L 410.5536 237.80988 
L 411.1488 235.881132 
L 411.744 238.462564 
L 412.9344 249.08307 
L 414.1248 259.013428 
L 414.72 263.049618 
L 414.72 263.049618 
" clip-path="url(#pe952a876f0)" style="fill: none; stroke: #0000cc; stroke-width: 1.5; stroke-linecap: square"/>
   </g>
   <g id="line2d_41">
    <path d="M 57.6 286.787048 
L 58.1952 287.982543 
L 58.7904 288.84062 
L 59.3856 289.264806 
L 59.9808 289.114909 
L 60.576 288.196374 
L 61.1712 286.25787 
L 61.7664 283.013473 
L 62.3616 278.21681 
L 62.9568 271.815237 
L 64.7424 249.40562 
L 65.3376 245.024728 
L 65.9328 243.693867 
L 66.528 245.067618 
L 67.1232 248.223242 
L 70.0992 267.558925 
L 71.2896 273.659305 
L 72.48 278.921659 
L 74.2656 285.574861 
L 76.0512 291.014115 
L 77.8368 295.459871 
L 79.6224 299.072905 
L 80.8128 301.060584 
L 82.0032 302.683273 
L 82.5984 303.319363 
L 83.1936 303.790345 
L 83.7888 304.026353 
L 84.384 303.910053 
L 84.9792 303.248747 
L 85.5744 301.735488 
L 86.1696 298.905454 
L 86.7648 294.116858 
L 87.36 286.636819 
L 87.9552 275.98055 
L 89.7408 237.816226 
L 90.336 232.873412 
L 90.9312 234.03898 
L 91.5264 239.067437 
L 92.7168 251.378088 
L 93.9072 260.769086 
L 95.0976 267.284146 
L 96.288 271.996664 
L 97.4784 275.301758 
L 98.0736 276.408448 
L 98.6688 277.097643 
L 99.264 277.307127 
L 99.8592 276.961688 
L 100.4544 275.982161 
L 101.0496 274.303192 
L 101.6448 271.902691 
L 102.8352 265.30489 
L 104.0256 258.208554 
L 104.6208 255.524146 
L 105.216 253.893429 
L 105.8112 253.440472 
L 106.4064 254.074853 
L 107.0016 255.561897 
L 108.192 259.997925 
L 110.5728 269.711819 
L 111.7632 273.733041 
L 112.9536 276.806539 
L 113.5488 277.885049 
L 114.144 278.580811 
L 114.7392 278.817181 
L 115.3344 278.502682 
L 115.9296 277.537163 
L 116.5248 275.827847 
L 117.12 273.319869 
L 118.3104 266.162736 
L 119.5008 258.097915 
L 120.096 254.932225 
L 120.6912 252.940313 
L 121.2864 252.297458 
L 121.8816 252.910757 
L 122.4768 254.502979 
L 123.6672 259.319471 
L 126.048 269.780244 
L 127.2384 274.140885 
L 128.4288 277.594549 
L 129.024 278.89538 
L 129.6192 279.843189 
L 130.2144 280.364957 
L 130.8096 280.367457 
L 131.4048 279.738451 
L 132 278.355892 
L 132.5952 276.111443 
L 133.1904 272.954617 
L 134.3808 264.381892 
L 135.5712 255.56373 
L 136.1664 252.55813 
L 136.7616 251.067297 
L 137.3568 251.124488 
L 137.952 252.46784 
L 138.5472 254.696175 
L 140.3328 263.292364 
L 142.1184 271.384753 
L 143.3088 275.862671 
L 144.4992 279.430309 
L 145.0944 280.796757 
L 145.6896 281.817484 
L 146.2848 282.416904 
L 146.88 282.493946 
L 147.4752 281.92026 
L 148.0704 280.545968 
L 148.6656 278.221073 
L 149.2608 274.842768 
L 150.4512 265.242228 
L 151.6416 254.861327 
L 152.2368 251.214767 
L 152.832 249.365708 
L 153.4272 249.373291 
L 154.0224 250.902204 
L 154.6176 253.43874 
L 158.1888 271.672489 
L 159.3792 276.530276 
L 160.5696 280.561577 
L 161.76 283.615039 
L 162.3552 284.672702 
L 162.9504 285.321562 
L 163.5456 285.451683 
L 164.1408 284.915339 
L 164.736 283.527297 
L 165.3312 281.081518 
L 165.9264 277.400026 
L 166.5216 272.429577 
L 168.9024 249.27449 
L 169.4976 246.989232 
L 170.0928 247.023997 
L 170.688 248.903463 
L 171.8784 255.46727 
L 173.664 266.001646 
L 174.8544 272.038362 
L 176.0448 277.265673 
L 177.2352 281.755087 
L 178.4256 285.510612 
L 179.616 288.424706 
L 180.2112 289.477907 
L 180.8064 290.170574 
L 181.4016 290.389622 
L 181.9968 289.971055 
L 182.592 288.688859 
L 183.1872 286.256343 
L 183.7824 282.361897 
L 184.3776 276.773356 
L 185.568 261.235055 
L 186.1632 253.094956 
L 186.7584 246.704977 
L 187.3536 243.295078 
L 187.9488 243.113126 
L 188.544 245.45239 
L 189.7344 253.515136 
L 190.9248 261.76432 
L 192.1152 268.790071 
L 193.3056 274.738673 
L 194.496 279.863918 
L 195.6864 284.319627 
L 196.8768 288.199118 
L 198.0672 291.563343 
L 199.2576 294.441505 
L 200.448 296.805982 
L 201.6384 298.499142 
L 202.2336 298.967113 
L 202.8288 299.044576 
L 203.424 298.550094 
L 204.0192 297.206483 
L 204.6144 294.613763 
L 205.2096 290.251061 
L 205.8048 283.570169 
L 206.4 274.278659 
L 208.1856 241.545846 
L 208.7808 236.711792 
L 209.376 236.931815 
L 209.9712 240.72738 
L 211.7568 256.606599 
L 212.9472 264.718801 
L 214.1376 270.909292 
L 215.328 275.784051 
L 216.5184 279.515074 
L 217.1136 280.913676 
L 217.7088 281.941467 
L 218.304 282.524625 
L 218.8992 282.561569 
L 219.4944 281.921975 
L 220.0896 280.453913 
L 220.6848 278.007836 
L 221.28 274.48803 
L 222.4704 264.631464 
L 223.6608 254.263039 
L 224.256 250.767641 
L 224.8512 249.126738 
L 225.4464 249.344782 
L 226.0416 251.044291 
L 227.232 256.823151 
L 229.6128 269.301988 
L 230.8032 274.531468 
L 231.9936 278.966013 
L 233.184 282.519578 
L 233.7792 283.899661 
L 234.3744 284.949206 
L 234.9696 285.589185 
L 235.5648 285.708151 
L 236.16 285.155883 
L 236.7552 283.743404 
L 237.3504 281.259727 
L 237.9456 277.521675 
L 238.5408 272.4732 
L 240.9216 249.019461 
L 241.5168 246.755185 
L 242.112 246.847654 
L 242.7072 248.797361 
L 243.8976 255.472909 
L 245.6832 266.076356 
L 246.8736 272.131013 
L 248.064 277.373399 
L 249.2544 281.88396 
L 250.4448 285.677316 
L 251.6352 288.665174 
L 252.2304 289.779508 
L 252.8256 290.558775 
L 253.4208 290.899802 
L 254.016 290.650626 
L 254.6112 289.597338 
L 255.2064 287.459521 
L 255.8016 283.913542 
L 256.3968 278.677055 
L 256.992 271.690326 
L 258.7776 247.716625 
L 259.3728 243.421693 
L 259.968 242.496987 
L 260.5632 244.395694 
L 261.1584 248.014557 
L 263.5392 264.557 
L 264.7296 271.15582 
L 265.92 276.766335 
L 267.1104 281.611262 
L 268.3008 285.814086 
L 269.4912 289.443404 
L 270.6816 292.521939 
L 271.872 294.995976 
L 272.4672 295.947801 
L 273.0624 296.641397 
L 273.6576 296.984493 
L 274.2528 296.83154 
L 274.848 295.960355 
L 275.4432 294.047856 
L 276.0384 290.661583 
L 276.6336 285.308159 
L 277.2288 277.611424 
L 279.0144 246.508962 
L 279.6096 239.818476 
L 280.2048 237.785041 
L 280.8 239.826749 
L 281.9904 249.502278 
L 283.1808 259.171498 
L 284.3712 266.745973 
L 285.5616 272.739153 
L 286.752 277.60056 
L 287.9424 281.448928 
L 288.5376 282.9593 
L 289.1328 284.141325 
L 289.728 284.927017 
L 290.3232 285.217923 
L 290.9184 284.87899 
L 291.5136 283.737082 
L 292.1088 281.59276 
L 292.704 278.25953 
L 293.2992 273.646811 
L 294.4896 261.476736 
L 295.0848 255.281313 
L 295.68 250.349399 
L 296.2752 247.499663 
L 296.8704 246.976615 
L 297.4656 248.429239 
L 298.0608 251.193009 
L 301.632 271.299187 
L 302.8224 276.604659 
L 304.0128 281.162557 
L 305.2032 284.978489 
L 306.3936 287.94763 
L 306.9888 289.028286 
L 307.584 289.750564 
L 308.1792 290.004391 
L 308.7744 289.630494 
L 309.3696 288.409772 
L 309.9648 286.064497 
L 310.56 282.292124 
L 311.1552 276.864005 
L 312.3456 261.687132 
L 312.9408 253.651319 
L 313.536 247.246803 
L 314.1312 243.706376 
L 314.7264 243.335507 
L 315.3216 245.496955 
L 316.512 253.359352 
L 317.7024 261.565779 
L 318.8928 268.601901 
L 320.0832 274.571991 
L 321.2736 279.721297 
L 322.464 284.20389 
L 324.2496 289.882463 
L 325.44 293.067282 
L 326.6304 295.822722 
L 327.8208 298.158222 
L 329.0112 300.0127 
L 329.6064 300.698146 
L 330.2016 301.149987 
L 330.7968 301.267495 
L 331.392 300.887273 
L 331.9872 299.752036 
L 332.5824 297.474988 
L 333.1776 293.520147 
L 333.7728 287.254779 
L 334.368 278.182161 
L 336.1536 242.357431 
L 336.7488 235.795369 
L 337.344 234.934225 
L 337.9392 238.442857 
L 340.32 259.724843 
L 341.5104 266.881534 
L 342.7008 272.260502 
L 343.8912 276.325652 
L 344.4864 277.877231 
L 345.0816 279.069516 
L 345.6768 279.847399 
L 346.272 280.133755 
L 346.8672 279.829934 
L 347.4624 278.821615 
L 348.0576 276.995633 
L 348.6528 274.274455 
L 349.248 270.671823 
L 351.6288 253.815322 
L 352.224 251.664262 
L 352.8192 251.063817 
L 353.4144 251.871529 
L 354.0096 253.735103 
L 355.2 259.093269 
L 357.5808 270.254828 
L 358.7712 274.879681 
L 359.9616 278.627824 
L 360.5568 280.105407 
L 361.152 281.259196 
L 361.7472 282.022236 
L 362.3424 282.304092 
L 362.9376 281.987902 
L 363.5328 280.932887 
L 364.128 278.98904 
L 364.7232 276.033475 
L 365.3184 272.036642 
L 367.6992 252.528517 
L 368.2944 250.016701 
L 368.8896 249.358213 
L 369.4848 250.35226 
L 370.08 252.536856 
L 371.2704 258.580104 
L 373.056 267.864521 
L 374.2464 273.223691 
L 375.4368 277.79465 
L 376.6272 281.4954 
L 377.2224 282.959592 
L 377.8176 284.106812 
L 378.4128 284.865889 
L 379.008 285.136318 
L 379.6032 284.782018 
L 380.1984 283.629914 
L 380.7936 281.481874 
L 381.3888 278.153974 
L 381.984 273.558908 
L 384.3648 250.432891 
L 384.96 247.607386 
L 385.5552 247.086259 
L 386.1504 248.523987 
L 386.7456 251.265262 
L 390.3168 271.287081 
L 391.5072 276.578858 
L 392.6976 281.120522 
L 393.888 284.911625 
L 395.0784 287.836801 
L 395.6736 288.882515 
L 396.2688 289.55631 
L 396.864 289.743017 
L 397.4592 289.277381 
L 398.0544 287.934735 
L 398.6496 285.435578 
L 399.2448 281.486074 
L 399.84 275.886616 
L 401.0304 260.630267 
L 401.6256 252.814509 
L 402.2208 246.795398 
L 402.816 243.691431 
L 403.4112 243.674666 
L 404.0064 246.040214 
L 405.1968 253.956329 
L 406.3872 262.057905 
L 407.5776 269.002719 
L 408.768 274.910372 
L 409.9584 280.014352 
L 411.744 286.470489 
L 413.5296 291.74633 
L 414.72 294.714101 
L 414.72 294.714101 
" clip-path="url(#pe952a876f0)" style="fill: none; stroke-dasharray: 9.6,2.4,1.5,2.4; stroke-dashoffset: 0; stroke: #ff0000; stroke-width: 1.5"/>
   </g>
   <g id="patch_13">
    <path d="M 57.6 307.584 
L 57.6 229.315765 
" style="fill: none; stroke: #000000; stroke-width: 0.8; stroke-linejoin: miter; stroke-linecap: square"/>
   </g>
   <g id="patch_14">
    <path d="M 414.72 307.584 
L 414.72 229.315765 
" style="fill: none; stroke: #000000; stroke-width: 0.8; stroke-linejoin: miter; stroke-linecap: square"/>
   </g>
   <g id="patch_15">
    <path d="M 57.6 307.584 
L 414.72 307.584 
" style="fill: none; stroke: #000000; stroke-width: 0.8; stroke-linejoin: miter; stroke-linecap: square"/>
   </g>
   <g id="patch_16">
    <path d="M 57.6 229.315765 
L 414.72 229.315765 
" style="fill: none; stroke: #000000; stroke-width: 0.8; stroke-linejoin: miter; stroke-linecap: square"/>
   </g>
  </g>
 </g>
 <defs>
  <clipPath id="p35a4d93d62">
   <rect x="57.6" y="41.472" width="357.12" height="78.268235"/>
  </clipPath>
  <clipPath id="p257663427e">
   <rect x="57.6" y="135.393882" width="357.12" height="78.268235"/>
  </clipPath>
  <clipPath id="pe952a876f0">
   <rect x="57.6" y="229.315765" width="357.12" height="78.268235"/>
  </clipPath>
 </defs>
</svg>
