<?xml version="1.0" encoding="utf-8" standalone="no"?>
<!DOCTYPE svg PUBLIC "-//W3C//DTD SVG 1.1//EN"
  "http://www.w3.org/Graphics/SVG/1.1/DTD/svg11.dtd">
<svg xmlns:xlink="http://www.w3.org/1999/xlink" width="460.8pt" height="345.6pt" viewBox="0 0 460.8 345.6" xmlns="http://www.w3.org/2000/svg" version="1.1">
 <metadata>
  <rdf:RDF xmlns:dc="http://purl.org/dc/elements/1.1/" xmlns:cc="http://creativecommons.org/ns#" xmlns:rdf="http://www.w3.org/1999/02/22-rdf-syntax-ns#">
   <cc:Work>
    <dc:type rdf:resource="http://purl.org/dc/dcmitype/StillImage"/>
    <dc:date>2023-12-13T17:02:14.158198</dc:date>
    <dc:format>image/svg+xml</dc:format>
    <dc:creator>
     <cc:Agent>
      <dc:title>Matplotlib v3.7.3, https://matplotlib.org/</dc:title>
     </cc:Agent>
    </dc:creator>
   </cc:Work>
  </rdf:RDF>
 </metadata>
 <defs>
  <style type="text/css">*{stroke-linejoin: round; stroke-linecap: butt}</style>
 </defs>
 <g id="figure_1">
  <g id="patch_1">
   <path d="M 0 345.6 
L 460.8 345.6 
L 460.8 0 
L 0 0 
z
" style="fill: #ffffff"/>
  </g>
  <g id="axes_1">
   <g id="patch_2">
    <path d="M 57.6 119.740235 
L 414.72 119.740235 
L 414.72 41.472 
L 57.6 41.472 
z
" style="fill: #ffffff"/>
   </g>
   <g id="matplotlib.axis_1">
    <g id="xtick_1">
     <g id="line2d_1">
      <defs>
       <path id="m3398176c05" d="M 0 0 
L 0 3.5 
" style="stroke: #000000; stroke-width: 0.8"/>
      </defs>
      <g>
       <use xlink:href="#m3398176c05" x="57.6" y="119.740235" style="stroke: #000000; stroke-width: 0.8"/>
      </g>
     </g>
    </g>
    <g id="xtick_2">
     <g id="line2d_2">
      <g>
       <use xlink:href="#m3398176c05" x="105.216" y="119.740235" style="stroke: #000000; stroke-width: 0.8"/>
      </g>
     </g>
    </g>
    <g id="xtick_3">
     <g id="line2d_3">
      <g>
       <use xlink:href="#m3398176c05" x="152.832" y="119.740235" style="stroke: #000000; stroke-width: 0.8"/>
      </g>
     </g>
    </g>
    <g id="xtick_4">
     <g id="line2d_4">
      <g>
       <use xlink:href="#m3398176c05" x="200.448" y="119.740235" style="stroke: #000000; stroke-width: 0.8"/>
      </g>
     </g>
    </g>
    <g id="xtick_5">
     <g id="line2d_5">
      <g>
       <use xlink:href="#m3398176c05" x="248.064" y="119.740235" style="stroke: #000000; stroke-width: 0.8"/>
      </g>
     </g>
    </g>
    <g id="xtick_6">
     <g id="line2d_6">
      <g>
       <use xlink:href="#m3398176c05" x="295.68" y="119.740235" style="stroke: #000000; stroke-width: 0.8"/>
      </g>
     </g>
    </g>
    <g id="xtick_7">
     <g id="line2d_7">
      <g>
       <use xlink:href="#m3398176c05" x="343.296" y="119.740235" style="stroke: #000000; stroke-width: 0.8"/>
      </g>
     </g>
    </g>
    <g id="xtick_8">
     <g id="line2d_8">
      <g>
       <use xlink:href="#m3398176c05" x="390.912" y="119.740235" style="stroke: #000000; stroke-width: 0.8"/>
      </g>
     </g>
    </g>
    <g id="xtick_9">
     <g id="line2d_9">
      <g>
       <use xlink:href="#m3398176c05" x="414.72" y="119.740235" style="stroke: #000000; stroke-width: 0.8"/>
      </g>
     </g>
    </g>
   </g>
   <g id="matplotlib.axis_2">
    <g id="ytick_1">
     <g id="line2d_10">
      <defs>
       <path id="m7eb6f89f6c" d="M 0 0 
L -3.5 0 
" style="stroke: #000000; stroke-width: 0.8"/>
      </defs>
      <g>
       <use xlink:href="#m7eb6f89f6c" x="57.6" y="99.40387" style="stroke: #000000; stroke-width: 0.8"/>
      </g>
     </g>
     <g id="text_1">
      <!-- −10 -->
      <g transform="translate(29.495313 103.203089) scale(0.1 -0.1)">
       <defs>
        <path id="DejaVuSans-2212" d="M 678 2272 
L 4684 2272 
L 4684 1741 
L 678 1741 
L 678 2272 
z
" transform="scale(0.015625)"/>
        <path id="DejaVuSans-31" d="M 794 531 
L 1825 531 
L 1825 4091 
L 703 3866 
L 703 4441 
L 1819 4666 
L 2450 4666 
L 2450 531 
L 3481 531 
L 3481 0 
L 794 0 
L 794 531 
z
" transform="scale(0.015625)"/>
        <path id="DejaVuSans-30" d="M 2034 4250 
Q 1547 4250 1301 3770 
Q 1056 3291 1056 2328 
Q 1056 1369 1301 889 
Q 1547 409 2034 409 
Q 2525 409 2770 889 
Q 3016 1369 3016 2328 
Q 3016 3291 2770 3770 
Q 2525 4250 2034 4250 
z
M 2034 4750 
Q 2819 4750 3233 4129 
Q 3647 3509 3647 2328 
Q 3647 1150 3233 529 
Q 2819 -91 2034 -91 
Q 1250 -91 836 529 
Q 422 1150 422 2328 
Q 422 3509 836 4129 
Q 1250 4750 2034 4750 
z
" transform="scale(0.015625)"/>
       </defs>
       <use xlink:href="#DejaVuSans-2212"/>
       <use xlink:href="#DejaVuSans-31" x="83.789062"/>
       <use xlink:href="#DejaVuSans-30" x="147.412109"/>
      </g>
     </g>
    </g>
    <g id="ytick_2">
     <g id="line2d_11">
      <g>
       <use xlink:href="#m7eb6f89f6c" x="57.6" y="78.941618" style="stroke: #000000; stroke-width: 0.8"/>
      </g>
     </g>
     <g id="text_2">
      <!-- 0 -->
      <g transform="translate(44.2375 82.740837) scale(0.1 -0.1)">
       <use xlink:href="#DejaVuSans-30"/>
      </g>
     </g>
    </g>
    <g id="ytick_3">
     <g id="line2d_12">
      <g>
       <use xlink:href="#m7eb6f89f6c" x="57.6" y="58.479366" style="stroke: #000000; stroke-width: 0.8"/>
      </g>
     </g>
     <g id="text_3">
      <!-- 10 -->
      <g transform="translate(37.875 62.278584) scale(0.1 -0.1)">
       <use xlink:href="#DejaVuSans-31"/>
       <use xlink:href="#DejaVuSans-30" x="63.623047"/>
      </g>
     </g>
    </g>
   </g>
   <g id="line2d_13">
    <path d="M 57.6 84.761855 
L 58.7904 86.732873 
L 59.9808 89.896336 
L 61.1712 94.344671 
L 64.1472 108.367864 
L 64.7424 109.069621 
L 65.3376 108.30959 
L 65.9328 106.021066 
L 67.1232 98.781733 
L 68.3136 91.131233 
L 68.9088 88.090068 
L 69.504 85.643069 
L 70.0992 83.730457 
L 70.6944 82.304723 
L 71.2896 81.29742 
L 71.8848 80.60253 
L 73.0752 79.785488 
L 73.6704 79.556676 
L 74.8608 79.372644 
L 77.8368 79.641065 
L 79.0272 79.94363 
L 80.8128 80.911484 
L 82.0032 82.097915 
L 82.5984 82.966212 
L 83.1936 84.109734 
L 83.7888 85.582156 
L 84.384 87.372108 
L 84.9792 89.626544 
L 85.5744 92.533841 
L 86.7648 100.420432 
L 87.9552 109.877609 
L 88.5504 113.522017 
L 89.1456 115.166682 
L 89.7408 114.045246 
L 90.336 110.024855 
L 92.7168 86.234435 
L 93.312 82.071293 
L 93.9072 78.770465 
L 94.5024 76.283811 
L 95.0976 74.313404 
L 96.288 71.605404 
L 98.0736 68.227937 
L 98.6688 67.054535 
L 100.4544 62.328311 
L 102.24 57.029318 
L 102.8352 55.589134 
L 103.4304 54.61231 
L 104.0256 54.30839 
L 104.6208 54.718829 
L 105.216 55.731844 
L 105.8112 57.325956 
L 108.7872 66.793256 
L 109.3824 68.02969 
L 109.9776 68.940119 
L 110.5728 69.520689 
L 111.168 69.826621 
L 111.7632 69.830607 
L 112.3584 69.534806 
L 112.9536 69.016092 
L 113.5488 68.264295 
L 114.144 67.259243 
L 115.3344 64.550856 
L 118.9056 54.228855 
L 119.5008 53.6058 
L 120.096 53.805647 
L 120.6912 54.793594 
L 121.2864 56.464571 
L 124.2624 67.062869 
L 124.8576 68.495744 
L 125.4528 69.622017 
L 126.6432 70.758439 
L 127.2384 70.749809 
L 127.8336 70.628754 
L 128.4288 70.201402 
L 129.024 69.563467 
L 129.6192 68.675761 
L 130.8096 66.077762 
L 132 62.606852 
L 133.7856 56.08949 
L 134.3808 54.392294 
L 134.976 53.100544 
L 135.5712 52.675539 
L 136.1664 53.192522 
L 136.7616 54.510082 
L 137.3568 56.621177 
L 139.7376 66.526048 
L 140.3328 68.342162 
L 140.928 69.74908 
L 141.5232 70.825137 
L 142.1184 71.527237 
L 142.7136 71.935184 
L 143.3088 72.008673 
L 143.904 71.801518 
L 144.4992 71.416265 
L 145.6896 69.880569 
L 146.2848 68.741085 
L 147.4752 65.656433 
L 148.6656 61.457757 
L 150.4512 54.322378 
L 151.0464 52.533838 
L 151.6416 51.629363 
L 152.2368 51.722046 
L 152.832 52.920935 
L 153.4272 55.095381 
L 156.4032 68.735312 
L 156.9984 70.459309 
L 157.5936 71.73491 
L 158.1888 72.74311 
L 158.784 73.277951 
L 159.3792 73.596622 
L 159.9744 73.629781 
L 160.5696 73.468278 
L 161.1648 73.050304 
L 161.76 72.456279 
L 162.3552 71.60903 
L 162.9504 70.531237 
L 163.5456 69.217878 
L 164.736 65.642369 
L 165.9264 60.731097 
L 167.712 52.487926 
L 168.3072 50.630919 
L 168.9024 49.820576 
L 169.4976 50.447454 
L 170.0928 52.433826 
L 171.2832 58.8859 
L 172.4736 65.857978 
L 173.664 71.027912 
L 174.2592 72.847747 
L 174.8544 74.188016 
L 175.4496 75.079327 
L 176.0448 75.689624 
L 176.64 76.048653 
L 177.2352 76.265429 
L 177.8304 76.246827 
L 178.4256 76.115739 
L 179.616 75.408161 
L 180.2112 74.901431 
L 180.8064 74.204761 
L 181.9968 72.190864 
L 183.1872 68.989106 
L 184.3776 64.104222 
L 185.568 57.550832 
L 186.7584 50.515723 
L 187.3536 47.909358 
L 187.9488 46.838464 
L 188.544 47.678807 
L 189.1392 50.364233 
L 190.3296 59.241814 
L 191.52 68.042902 
L 192.1152 71.493544 
L 192.7104 74.249165 
L 193.3056 76.424404 
L 194.496 79.200428 
L 195.6864 80.816843 
L 198.0672 83.301203 
L 199.2576 85.17104 
L 199.8528 86.240766 
L 201.0432 89.352861 
L 202.2336 94.041393 
L 203.424 100.023923 
L 204.6144 106.429341 
L 205.2096 108.655741 
L 205.8048 109.712892 
L 206.4 109.052476 
L 206.9952 106.669307 
L 207.5904 103.196761 
L 209.376 90.996099 
L 209.9712 87.719736 
L 210.5664 85.120398 
L 211.1616 83.06348 
L 212.352 80.536683 
L 213.5424 79.118494 
L 214.7328 78.354535 
L 215.328 78.137144 
L 217.1136 77.18343 
L 217.7088 76.896102 
L 218.8992 75.860436 
L 219.4944 75.225126 
L 220.0896 74.386189 
L 221.28 71.94902 
L 221.8752 70.212744 
L 222.4704 68.11751 
L 223.6608 62.194802 
L 224.8512 54.399509 
L 225.4464 50.207864 
L 226.0416 46.952576 
L 226.6368 45.029647 
L 227.232 45.430409 
L 227.8272 48.219112 
L 228.4224 52.696327 
L 230.208 68.54404 
L 230.8032 72.610411 
L 231.3984 75.781714 
L 231.9936 78.230168 
L 232.5888 80.157048 
L 233.7792 82.731977 
L 234.9696 84.675529 
L 236.16 86.548281 
L 237.3504 89.019655 
L 238.5408 92.444088 
L 239.7312 96.899451 
L 241.5168 104.125538 
L 242.112 105.761253 
L 242.7072 106.508751 
L 243.3024 106.188144 
L 243.8976 104.770203 
L 244.4928 102.37494 
L 246.8736 90.740686 
L 247.4688 88.607043 
L 248.064 86.903677 
L 248.6592 85.599968 
L 249.2544 84.736213 
L 250.4448 83.950031 
L 251.04 83.915076 
L 251.6352 84.097015 
L 252.2304 84.472597 
L 252.8256 85.10268 
L 254.016 87.047927 
L 254.6112 88.340354 
L 255.2064 89.937996 
L 256.3968 94.238867 
L 259.3728 107.456393 
L 259.968 108.333566 
L 260.5632 107.868532 
L 261.1584 105.956071 
L 261.7536 102.942823 
L 263.5392 92.120918 
L 264.1344 89.085939 
L 264.7296 86.747184 
L 265.3248 84.860281 
L 265.92 83.459756 
L 267.1104 81.707383 
L 267.7056 81.276892 
L 268.3008 81.065492 
L 268.896 80.978706 
L 269.4912 81.030279 
L 271.2768 81.880614 
L 271.872 82.363158 
L 273.0624 83.898164 
L 273.6576 84.903237 
L 274.2528 86.266161 
L 275.4432 89.978958 
L 276.0384 92.528613 
L 277.2288 99.01373 
L 278.4192 106.647736 
L 279.0144 109.821335 
L 279.6096 111.68689 
L 280.2048 111.474107 
L 280.8 109.194538 
L 281.3952 105.204846 
L 283.1808 90.691328 
L 283.776 86.666219 
L 284.3712 83.579808 
L 284.9664 81.128944 
L 285.5616 79.348447 
L 286.752 76.872545 
L 289.728 72.799074 
L 290.3232 71.809218 
L 291.5136 69.099425 
L 292.704 65.242627 
L 293.2992 62.874767 
L 295.68 51.770276 
L 296.2752 50.074456 
L 296.8704 49.619475 
L 297.4656 50.574897 
L 298.0608 52.856671 
L 299.2512 59.754294 
L 300.4416 66.688436 
L 301.0368 69.498116 
L 301.632 71.77012 
L 302.2272 73.464657 
L 302.8224 74.695959 
L 303.4176 75.548695 
L 304.0128 76.18547 
L 304.608 76.521474 
L 305.7984 76.750916 
L 306.3936 76.642917 
L 307.584 76.053237 
L 308.1792 75.661889 
L 308.7744 75.100727 
L 309.3696 74.327387 
L 310.56 72.062958 
L 311.1552 70.631745 
L 312.3456 66.397512 
L 312.9408 63.656355 
L 314.1312 56.630248 
L 315.3216 49.389631 
L 315.9168 46.916381 
L 316.512 46.219173 
L 317.1072 47.609919 
L 317.7024 50.924454 
L 320.6784 72.914213 
L 321.2736 75.569041 
L 321.8688 77.685174 
L 323.0592 80.353953 
L 324.2496 82.022886 
L 326.6304 85.205285 
L 327.2256 86.255263 
L 328.416 89.150868 
L 329.0112 90.992731 
L 330.2016 95.762126 
L 332.5824 106.911687 
L 333.1776 108.279169 
L 333.7728 108.379185 
L 334.368 106.957843 
L 334.9632 104.21832 
L 337.9392 87.374684 
L 338.5344 85.217537 
L 339.1296 83.62145 
L 339.7248 82.473888 
L 340.32 81.673073 
L 341.5104 80.754037 
L 342.7008 80.634701 
L 343.8912 80.860843 
L 344.4864 81.058828 
L 345.0816 81.399136 
L 346.272 82.487865 
L 347.4624 84.141005 
L 348.0576 85.335872 
L 348.6528 86.830117 
L 349.248 88.663127 
L 350.4384 93.823079 
L 351.6288 101.096121 
L 352.8192 108.893759 
L 353.4144 111.554483 
L 354.0096 112.451539 
L 354.6048 111.118085 
L 355.2 107.647782 
L 357.5808 87.953834 
L 358.176 84.341013 
L 358.7712 81.508075 
L 359.3664 79.368657 
L 359.9616 77.769003 
L 361.152 75.501149 
L 364.128 70.810686 
L 365.3184 67.923419 
L 366.5088 64.022203 
L 367.6992 58.912019 
L 368.8896 53.75583 
L 369.4848 51.73985 
L 370.08 50.741788 
L 370.6752 50.829957 
L 371.2704 52.187236 
L 371.8656 54.640733 
L 374.2464 67.264605 
L 375.4368 71.604461 
L 376.6272 73.955277 
L 377.2224 74.576831 
L 377.8176 74.95916 
L 378.4128 75.102227 
L 379.008 75.009946 
L 379.6032 74.776822 
L 380.1984 74.381871 
L 380.7936 73.781639 
L 381.984 71.982169 
L 382.5792 70.763185 
L 383.1744 69.232505 
L 384.3648 65.046597 
L 385.5552 59.339232 
L 386.7456 52.85225 
L 387.3408 50.198198 
L 387.936 48.619497 
L 388.5312 48.508602 
L 389.1264 50.019328 
L 389.7216 52.994526 
L 392.1024 68.581811 
L 393.2928 73.78409 
L 393.888 75.477626 
L 394.4832 76.682233 
L 395.6736 78.305594 
L 397.4592 79.317469 
L 398.6496 79.783114 
L 399.84 80.176798 
L 401.0304 80.861952 
L 402.2208 81.861455 
L 403.4112 83.340329 
L 404.0064 84.462178 
L 404.6016 85.871291 
L 405.1968 87.600407 
L 405.792 89.82096 
L 406.3872 92.541989 
L 407.5776 99.832858 
L 408.768 108.426913 
L 409.3632 111.806621 
L 409.9584 113.543062 
L 410.5536 112.789209 
L 411.1488 109.679425 
L 412.3392 98.938543 
L 413.5296 88.364306 
L 414.1248 84.162821 
L 414.72 81.103428 
L 414.72 81.103428 
" clip-path="url(#p5f9a4f8ac0)" style="fill: none; stroke: #0000cc; stroke-width: 1.5; stroke-linecap: square"/>
   </g>
   <g id="line2d_14">
    <path d="M 57.6 84.761855 
L 58.195191 85.647889 
L 58.790405 86.772005 
L 59.385595 88.171991 
L 59.980809 89.889698 
L 61.171191 94.417017 
L 62.361595 100.310775 
L 63.552 106.277981 
L 64.147191 108.327496 
L 64.742405 109.111472 
L 65.337595 108.33476 
L 65.932786 106.047468 
L 67.123191 98.682118 
L 68.313595 91.090132 
L 68.908809 88.029632 
L 69.504 85.575611 
L 70.099191 83.688819 
L 70.694405 82.287415 
L 71.289595 81.276221 
L 71.884809 80.565396 
L 72.48 80.078404 
L 73.670405 79.545977 
L 74.860786 79.353721 
L 76.646405 79.377642 
L 78.432 79.655482 
L 79.622405 80.021193 
L 80.812809 80.625768 
L 82.003191 81.625172 
L 82.598405 82.350091 
L 83.193595 83.285911 
L 83.788809 84.492673 
L 84.384 86.046501 
L 84.979191 88.039954 
L 85.574405 90.5747 
L 86.169595 93.749836 
L 87.36 102.129588 
L 88.550405 111.487522 
L 89.145595 114.631062 
L 89.740786 115.314002 
L 90.336 112.999276 
L 90.931191 108.112872 
L 92.716809 89.343746 
L 93.312 84.417296 
L 93.907191 80.526574 
L 94.502405 77.54376 
L 95.097595 75.276894 
L 96.288 72.124771 
L 99.859191 64.728523 
L 101.644786 59.675745 
L 102.835191 56.445386 
L 103.430405 55.285546 
L 104.025595 54.64981 
L 104.620809 54.655434 
L 105.216 55.333817 
L 105.811191 56.614302 
L 107.001595 60.309744 
L 108.192 64.214514 
L 109.382405 67.232068 
L 109.977595 68.269718 
L 110.572786 68.986737 
L 111.168 69.398093 
L 111.763191 69.523555 
L 112.358405 69.381519 
L 112.953595 68.985635 
L 113.548786 68.344258 
L 114.144 67.461032 
L 115.334405 64.981368 
L 116.524809 61.650062 
L 118.310405 56.196773 
L 118.905595 54.834902 
L 119.500809 54.024025 
L 120.096 53.918349 
L 120.691191 54.575774 
L 121.286405 55.931659 
L 122.476786 59.987947 
L 123.667191 64.330018 
L 124.857595 67.697606 
L 125.452786 68.865814 
L 126.048 69.689258 
L 126.643191 70.188926 
L 127.238405 70.390928 
L 127.833595 70.318537 
L 128.428809 69.988705 
L 129.024 69.410796 
L 129.619191 68.587022 
L 130.214405 67.514953 
L 131.404809 64.618157 
L 132.595191 60.825089 
L 134.380786 54.925019 
L 134.976 53.633854 
L 135.571191 53.057547 
L 136.166405 53.338234 
L 136.761595 54.480042 
L 137.356786 56.338343 
L 140.332809 67.670407 
L 140.928 69.140948 
L 141.523191 70.229486 
L 142.118405 70.962084 
L 142.713595 71.372272 
L 143.308809 71.49333 
L 143.904 71.350562 
L 144.499191 70.960268 
L 145.094405 70.328767 
L 145.689595 69.452909 
L 146.284786 68.323152 
L 147.475191 65.257409 
L 148.665595 61.148352 
L 150.451191 54.415219 
L 151.046405 52.832353 
L 151.641595 52.044593 
L 152.236809 52.249574 
L 152.832 53.476963 
L 153.427191 55.564508 
L 156.403191 68.43783 
L 156.998405 70.094189 
L 157.593595 71.329613 
L 158.188786 72.183335 
L 158.784 72.702569 
L 159.379191 72.930993 
L 159.974405 72.903161 
L 160.569595 72.64212 
L 161.164786 72.157802 
L 161.76 71.448915 
L 162.355191 70.503484 
L 162.950405 69.300914 
L 163.545595 67.816832 
L 164.736 63.924039 
L 165.926405 58.900564 
L 167.116809 53.702221 
L 167.712 51.731717 
L 168.307191 50.670929 
L 168.902405 50.801237 
L 169.497595 52.188096 
L 170.092786 54.636635 
L 172.473595 67.236682 
L 173.068786 69.62307 
L 173.664 71.504236 
L 174.259191 72.915065 
L 174.854405 73.916794 
L 175.449595 74.576265 
L 176.044809 74.954087 
L 176.64 75.09895 
L 177.235191 75.045308 
L 177.830405 74.813794 
L 178.425595 74.411758 
L 179.020809 73.834261 
L 179.616 73.065344 
L 180.211191 72.078233 
L 180.806405 70.836845 
L 181.401595 69.297896 
L 181.996786 67.415135 
L 183.187191 62.483862 
L 185.568 50.294171 
L 186.163191 48.605157 
L 186.758405 48.40928 
L 187.353595 49.892138 
L 187.948809 52.839886 
L 190.329595 68.481626 
L 190.924809 71.384933 
L 191.52 73.665411 
L 192.115191 75.393996 
L 192.710405 76.670056 
L 193.305595 77.595181 
L 193.900786 78.260637 
L 195.091191 79.099944 
L 196.876786 79.841112 
L 198.662405 80.635838 
L 199.852809 81.469185 
L 201.043191 82.779684 
L 201.638382 83.705798 
L 202.233618 84.880198 
L 202.828809 86.367868 
L 203.424 88.24503 
L 204.019191 90.594669 
L 204.614382 93.492723 
L 205.804809 100.991932 
L 206.995236 109.364188 
L 207.590427 112.393231 
L 208.185618 113.488615 
L 208.780809 112.10016 
L 209.376 108.38231 
L 211.756809 87.221558 
L 212.352 83.414383 
L 212.947191 80.45159 
L 213.542382 78.191627 
L 214.137618 76.466314 
L 215.328 73.998608 
L 217.708809 69.867914 
L 218.899236 67.055015 
L 220.089618 63.324666 
L 222.470382 54.394661 
L 223.065618 52.835565 
L 223.660809 52.077671 
L 224.256 52.312247 
L 224.851191 53.562057 
L 225.446382 55.660752 
L 228.422382 68.464335 
L 229.017618 70.1025 
L 229.612809 71.321811 
L 230.208 72.161566 
L 230.803236 72.668475 
L 231.398427 72.885612 
L 231.993618 72.84704 
L 232.588809 72.574941 
L 233.184 72.079025 
L 233.779191 71.357399 
L 234.374382 70.397732 
L 234.969618 69.179503 
L 235.564809 67.678564 
L 236.755191 63.753692 
L 237.945618 58.719924 
L 239.136 53.576083 
L 239.731191 51.668032 
L 240.326382 50.688553 
L 240.921618 50.904996 
L 241.516809 52.364488 
L 242.112 54.857677 
L 244.492809 67.376932 
L 245.088 69.719968 
L 245.683191 71.561019 
L 246.278382 72.936955 
L 246.873618 73.908957 
L 247.468809 74.543128 
L 248.064 74.898706 
L 248.659191 75.022963 
L 249.254382 74.9491 
L 249.849618 74.696266 
L 250.444809 74.270585 
L 251.04 73.665843 
L 251.635191 72.865053 
L 252.230382 71.840095 
L 252.825618 70.55432 
L 253.420809 68.964192 
L 254.016 67.024669 
L 255.206427 61.981411 
L 257.587191 49.996127 
L 258.182382 48.545889 
L 258.777618 48.630017 
L 259.372809 50.367816 
L 259.968 53.486097 
L 262.348809 68.937808 
L 262.944 71.718764 
L 263.539191 73.889504 
L 264.134382 75.526289 
L 264.729618 76.728628 
L 265.324809 77.595648 
L 265.92 78.215109 
L 267.110427 78.984285 
L 268.896 79.629319 
L 270.681618 80.277172 
L 271.872 80.945576 
L 273.062382 81.995652 
L 273.657618 82.740275 
L 274.252809 83.687047 
L 274.848 84.892202 
L 275.443191 86.424688 
L 276.038382 88.364815 
L 276.633618 90.79971 
L 277.228809 93.808496 
L 278.419236 101.590022 
L 279.609618 110.137232 
L 280.204809 113.069892 
L 280.8 113.891262 
L 281.395191 112.099061 
L 281.990382 107.966109 
L 284.371191 86.256676 
L 284.966382 82.497848 
L 285.561618 79.58981 
L 286.156809 77.375061 
L 286.752 75.677544 
L 287.942382 73.20463 
L 289.728 70.066047 
L 290.918427 67.468399 
L 292.108809 64.070524 
L 295.084809 53.933647 
L 295.68 52.877566 
L 296.275191 52.670396 
L 296.870382 53.402812 
L 297.465618 55.001391 
L 298.656 59.833073 
L 299.846382 64.934577 
L 301.036809 68.815414 
L 301.632 70.154015 
L 302.227236 71.109262 
L 302.822427 71.717491 
L 303.417618 72.017755 
L 304.012809 72.043517 
L 304.608 71.818553 
L 305.203191 71.355673 
L 305.798382 70.656839 
L 306.393618 69.714476 
L 306.988809 68.514107 
L 308.179191 65.275756 
L 309.369618 60.931684 
L 311.155191 53.829984 
L 311.750382 52.2063 
L 312.345618 51.465404 
L 312.940809 51.812864 
L 313.536 53.258071 
L 314.131236 55.59743 
L 316.512 67.042671 
L 317.107191 69.180515 
L 317.702382 70.856815 
L 318.297618 72.098761 
L 318.892809 72.955675 
L 319.488 73.481984 
L 320.083191 73.726641 
L 320.678382 73.727644 
L 321.273618 73.509616 
L 321.868809 73.08438 
L 322.464 72.451173 
L 323.059191 71.597221 
L 323.654382 70.50053 
L 324.249618 69.131295 
L 324.844809 67.456724 
L 326.035236 63.0994 
L 328.416 52.165155 
L 329.011191 50.378677 
L 329.606382 49.749577 
L 330.201618 50.51202 
L 330.796809 52.608138 
L 331.987191 59.290856 
L 333.177618 66.246542 
L 333.772809 69.082013 
L 334.368 71.367477 
L 334.963191 73.125428 
L 335.558382 74.420631 
L 336.153618 75.332158 
L 336.748809 75.93594 
L 337.344 76.2969 
L 337.939236 76.465628 
L 338.534427 76.477762 
L 339.129618 76.355649 
L 339.724809 76.109828 
L 340.32 75.739729 
L 340.915191 75.235258 
L 341.510382 74.576984 
L 342.105618 73.735504 
L 342.700809 72.672215 
L 343.296 71.338155 
L 343.891191 69.676972 
L 344.486382 67.624951 
L 345.676809 62.152858 
L 348.057618 48.420739 
L 348.652809 46.737014 
L 349.248 46.927591 
L 349.843236 49.130377 
L 350.438427 52.952474 
L 352.224 66.957461 
L 352.819191 70.729468 
L 353.414382 73.757758 
L 354.009618 76.100314 
L 354.604809 77.8733 
L 355.2 79.208665 
L 356.390382 81.046807 
L 359.366382 84.676018 
L 360.556809 86.942004 
L 361.152 88.447926 
L 362.342427 92.44792 
L 363.532809 97.905502 
L 365.318382 106.877146 
L 365.913618 108.689942 
L 366.508809 109.136284 
L 367.104 107.988314 
L 367.699191 105.382727 
L 368.889618 97.744969 
L 370.08 90.288675 
L 370.675191 87.355056 
L 371.270382 85.028372 
L 371.865618 83.254568 
L 372.460809 81.945592 
L 373.056 81.005244 
L 373.651236 80.34546 
L 374.246427 79.892545 
L 375.436809 79.388459 
L 376.627191 79.184283 
L 378.412809 79.125174 
L 380.793618 79.267991 
L 382.579191 79.568609 
L 383.769618 79.943048 
L 384.96 80.569227 
L 386.150427 81.623301 
L 386.745618 82.398347 
L 387.340809 83.406726 
L 387.936 84.718385 
L 388.531191 86.42064 
L 389.126382 88.617175 
L 389.721618 91.424525 
L 390.316809 94.945972 
L 391.507191 104.137048 
L 392.697618 113.675626 
L 393.292809 116.182588 
L 393.888 115.695538 
L 394.483191 112.008164 
L 395.673618 99.015501 
L 396.864 86.466189 
L 397.459236 81.770619 
L 398.054427 78.136065 
L 398.649618 75.376928 
L 399.244809 73.278856 
L 400.435191 70.297777 
L 403.411191 64.333491 
L 406.387191 57.327722 
L 406.982382 56.384522 
L 407.577618 55.860289 
L 408.172809 55.83864 
L 408.768 56.342922 
L 409.363236 57.325473 
L 410.553618 60.248004 
L 412.339191 64.866502 
L 412.934382 66.040138 
L 413.529618 66.947859 
L 414.124809 67.578492 
L 414.72 67.935363 
L 414.72 67.935363 
" clip-path="url(#p5f9a4f8ac0)" style="fill: none; stroke-dasharray: 9.6,2.4,1.5,2.4; stroke-dashoffset: 0; stroke: #ff0000; stroke-width: 1.5"/>
   </g>
   <g id="patch_3">
    <path d="M 57.6 119.740235 
L 57.6 41.472 
" style="fill: none; stroke: #000000; stroke-width: 0.8; stroke-linejoin: miter; stroke-linecap: square"/>
   </g>
   <g id="patch_4">
    <path d="M 414.72 119.740235 
L 414.72 41.472 
" style="fill: none; stroke: #000000; stroke-width: 0.8; stroke-linejoin: miter; stroke-linecap: square"/>
   </g>
   <g id="patch_5">
    <path d="M 57.6 119.740235 
L 414.72 119.740235 
" style="fill: none; stroke: #000000; stroke-width: 0.8; stroke-linejoin: miter; stroke-linecap: square"/>
   </g>
   <g id="patch_6">
    <path d="M 57.6 41.472 
L 414.72 41.472 
" style="fill: none; stroke: #000000; stroke-width: 0.8; stroke-linejoin: miter; stroke-linecap: square"/>
   </g>
  </g>
  <g id="axes_2">
   <g id="patch_7">
    <path d="M 57.6 213.662118 
L 414.72 213.662118 
L 414.72 135.393882 
L 57.6 135.393882 
z
" style="fill: #ffffff"/>
   </g>
   <g id="matplotlib.axis_3">
    <g id="xtick_10">
     <g id="line2d_15">
      <g>
       <use xlink:href="#m3398176c05" x="57.6" y="213.662118" style="stroke: #000000; stroke-width: 0.8"/>
      </g>
     </g>
    </g>
    <g id="xtick_11">
     <g id="line2d_16">
      <g>
       <use xlink:href="#m3398176c05" x="105.216" y="213.662118" style="stroke: #000000; stroke-width: 0.8"/>
      </g>
     </g>
    </g>
    <g id="xtick_12">
     <g id="line2d_17">
      <g>
       <use xlink:href="#m3398176c05" x="152.832" y="213.662118" style="stroke: #000000; stroke-width: 0.8"/>
      </g>
     </g>
    </g>
    <g id="xtick_13">
     <g id="line2d_18">
      <g>
       <use xlink:href="#m3398176c05" x="200.448" y="213.662118" style="stroke: #000000; stroke-width: 0.8"/>
      </g>
     </g>
    </g>
    <g id="xtick_14">
     <g id="line2d_19">
      <g>
       <use xlink:href="#m3398176c05" x="248.064" y="213.662118" style="stroke: #000000; stroke-width: 0.8"/>
      </g>
     </g>
    </g>
    <g id="xtick_15">
     <g id="line2d_20">
      <g>
       <use xlink:href="#m3398176c05" x="295.68" y="213.662118" style="stroke: #000000; stroke-width: 0.8"/>
      </g>
     </g>
    </g>
    <g id="xtick_16">
     <g id="line2d_21">
      <g>
       <use xlink:href="#m3398176c05" x="343.296" y="213.662118" style="stroke: #000000; stroke-width: 0.8"/>
      </g>
     </g>
    </g>
    <g id="xtick_17">
     <g id="line2d_22">
      <g>
       <use xlink:href="#m3398176c05" x="390.912" y="213.662118" style="stroke: #000000; stroke-width: 0.8"/>
      </g>
     </g>
    </g>
    <g id="xtick_18">
     <g id="line2d_23">
      <g>
       <use xlink:href="#m3398176c05" x="414.72" y="213.662118" style="stroke: #000000; stroke-width: 0.8"/>
      </g>
     </g>
    </g>
   </g>
   <g id="matplotlib.axis_4">
    <g id="ytick_4">
     <g id="line2d_24">
      <g>
       <use xlink:href="#m7eb6f89f6c" x="57.6" y="203.149134" style="stroke: #000000; stroke-width: 0.8"/>
      </g>
     </g>
     <g id="text_4">
      <!-- −20 -->
      <g transform="translate(29.495313 206.948353) scale(0.1 -0.1)">
       <defs>
        <path id="DejaVuSans-32" d="M 1228 531 
L 3431 531 
L 3431 0 
L 469 0 
L 469 531 
Q 828 903 1448 1529 
Q 2069 2156 2228 2338 
Q 2531 2678 2651 2914 
Q 2772 3150 2772 3378 
Q 2772 3750 2511 3984 
Q 2250 4219 1831 4219 
Q 1534 4219 1204 4116 
Q 875 4013 500 3803 
L 500 4441 
Q 881 4594 1212 4672 
Q 1544 4750 1819 4750 
Q 2544 4750 2975 4387 
Q 3406 4025 3406 3419 
Q 3406 3131 3298 2873 
Q 3191 2616 2906 2266 
Q 2828 2175 2409 1742 
Q 1991 1309 1228 531 
z
" transform="scale(0.015625)"/>
       </defs>
       <use xlink:href="#DejaVuSans-2212"/>
       <use xlink:href="#DejaVuSans-32" x="83.789062"/>
       <use xlink:href="#DejaVuSans-30" x="147.412109"/>
      </g>
     </g>
    </g>
    <g id="ytick_5">
     <g id="line2d_25">
      <g>
       <use xlink:href="#m7eb6f89f6c" x="57.6" y="172.265702" style="stroke: #000000; stroke-width: 0.8"/>
      </g>
     </g>
     <g id="text_5">
      <!-- 0 -->
      <g transform="translate(44.2375 176.06492) scale(0.1 -0.1)">
       <use xlink:href="#DejaVuSans-30"/>
      </g>
     </g>
    </g>
    <g id="ytick_6">
     <g id="line2d_26">
      <g>
       <use xlink:href="#m7eb6f89f6c" x="57.6" y="141.382269" style="stroke: #000000; stroke-width: 0.8"/>
      </g>
     </g>
     <g id="text_6">
      <!-- 20 -->
      <g transform="translate(37.875 145.181488) scale(0.1 -0.1)">
       <use xlink:href="#DejaVuSans-32"/>
       <use xlink:href="#DejaVuSans-30" x="63.623047"/>
      </g>
     </g>
    </g>
   </g>
   <g id="line2d_27">
    <path d="M 57.6 179.007072 
L 58.1952 180.313127 
L 58.7904 181.901035 
L 59.9808 186.218827 
L 61.1712 191.872278 
L 62.3616 197.882386 
L 62.9568 199.953956 
L 63.552 200.529634 
L 64.1472 198.98313 
L 64.7424 195.232593 
L 66.528 178.791887 
L 67.1232 175.010006 
L 67.7184 172.627934 
L 68.3136 171.357919 
L 68.9088 170.814615 
L 69.504 170.816052 
L 70.6944 171.188013 
L 71.8848 171.714217 
L 73.6704 172.289109 
L 77.8368 173.162614 
L 79.0272 173.719158 
L 80.2176 174.543906 
L 80.8128 175.145861 
L 82.0032 176.9353 
L 82.5984 178.259347 
L 83.1936 179.92136 
L 83.7888 182.100356 
L 84.384 184.835687 
L 84.9792 188.228154 
L 86.1696 197.163463 
L 87.36 206.585737 
L 87.9552 208.784723 
L 88.5504 207.026598 
L 89.1456 200.492037 
L 90.9312 172.081249 
L 91.5264 166.89511 
L 92.1216 164.413713 
L 92.7168 163.449333 
L 93.312 163.367778 
L 95.0976 163.757973 
L 95.6928 163.607742 
L 96.288 163.170158 
L 96.8832 162.539933 
L 97.4784 161.657594 
L 98.6688 159.197354 
L 101.6448 151.655657 
L 102.24 150.922501 
L 102.8352 150.956724 
L 103.4304 151.923848 
L 104.0256 153.719289 
L 106.4064 163.659056 
L 107.0016 165.350503 
L 107.5968 166.49881 
L 108.192 167.079468 
L 108.7872 167.324984 
L 109.3824 167.260003 
L 109.9776 166.945874 
L 111.168 165.779513 
L 112.3584 163.970543 
L 113.5488 161.563138 
L 115.3344 156.569826 
L 116.5248 152.935208 
L 117.12 151.31398 
L 117.7152 150.314003 
L 118.3104 150.013724 
L 118.9056 150.754416 
L 119.5008 152.535472 
L 120.6912 158.102291 
L 121.8816 163.71941 
L 122.4768 165.737843 
L 123.072 167.08052 
L 123.6672 167.841737 
L 124.2624 168.156754 
L 124.8576 168.096549 
L 126.048 167.401054 
L 126.6432 166.781028 
L 127.8336 165.146588 
L 128.4288 164.081102 
L 129.6192 161.417363 
L 130.8096 157.899836 
L 132.5952 151.773268 
L 133.1904 150.113594 
L 133.7856 149.058884 
L 134.3808 148.987553 
L 134.976 150.181762 
L 135.5712 152.448991 
L 137.952 165.184535 
L 138.5472 167.227648 
L 139.1424 168.383152 
L 139.7376 169.031527 
L 140.3328 169.213355 
L 140.928 169.088745 
L 141.5232 168.778992 
L 142.1184 168.28129 
L 143.3088 166.880108 
L 143.904 166.054431 
L 145.0944 163.807289 
L 146.2848 160.749971 
L 147.4752 156.698637 
L 149.2608 149.770184 
L 149.856 148.137774 
L 150.4512 147.480461 
L 151.0464 148.124228 
L 151.6416 150.272417 
L 152.2368 153.681513 
L 153.4272 161.815326 
L 154.0224 165.291012 
L 154.6176 167.815159 
L 155.2128 169.410874 
L 155.808 170.196572 
L 156.4032 170.56908 
L 156.9984 170.457898 
L 157.5936 170.188059 
L 158.784 169.274114 
L 159.9744 168.042013 
L 161.1648 166.278215 
L 161.76 165.225571 
L 162.3552 163.91547 
L 163.5456 160.469389 
L 164.736 155.742003 
L 166.5216 147.693837 
L 167.1168 145.82351 
L 167.712 145.374955 
L 168.3072 146.764772 
L 168.9024 150.067028 
L 171.2832 168.074324 
L 171.8784 170.391176 
L 172.4736 171.827663 
L 173.0688 172.390696 
L 173.664 172.536014 
L 174.8544 172.021993 
L 176.0448 171.326716 
L 178.4256 169.515263 
L 179.0208 168.934976 
L 180.2112 167.336549 
L 180.8064 166.258041 
L 181.4016 164.941321 
L 182.592 161.229857 
L 183.1872 158.814311 
L 184.3776 152.462275 
L 185.568 145.221772 
L 186.1632 142.479218 
L 186.7584 141.502095 
L 187.3536 143.08525 
L 187.9488 147.563154 
L 189.7344 167.473686 
L 190.3296 171.794341 
L 190.9248 174.383392 
L 191.52 175.61184 
L 192.1152 176.022652 
L 192.7104 176.057836 
L 193.9008 175.683202 
L 194.496 175.545318 
L 195.0912 175.525972 
L 195.6864 175.691341 
L 196.8768 176.412847 
L 197.472 177.021604 
L 198.0672 177.815087 
L 199.2576 180.058967 
L 200.448 183.587598 
L 201.6384 188.617123 
L 204.0192 200.510652 
L 204.6144 201.376929 
L 205.2096 199.946674 
L 205.8048 196.072428 
L 207.5904 178.555561 
L 208.1856 174.489664 
L 208.7808 171.971869 
L 209.376 170.600428 
L 209.9712 170.055384 
L 210.5664 169.995615 
L 212.352 170.670958 
L 213.5424 170.904792 
L 214.7328 170.943372 
L 216.5184 170.31909 
L 217.7088 169.593733 
L 218.8992 168.152033 
L 219.4944 167.173143 
L 220.0896 165.977533 
L 220.6848 164.381704 
L 221.28 162.396527 
L 221.8752 159.917526 
L 222.4704 156.880252 
L 223.6608 149.074585 
L 224.8512 141.060139 
L 225.4464 138.951529 
L 226.0416 139.75025 
L 226.6368 144.287106 
L 229.0176 173.437274 
L 229.6128 176.555657 
L 230.208 178.003503 
L 230.8032 178.390915 
L 231.3984 178.380757 
L 231.9936 178.165396 
L 233.184 178.114548 
L 233.7792 178.290642 
L 234.3744 178.669557 
L 234.9696 179.264879 
L 235.5648 180.125232 
L 236.16 181.211082 
L 237.3504 184.234978 
L 238.5408 188.388833 
L 240.3264 195.285487 
L 240.9216 196.875588 
L 241.5168 197.316859 
L 242.112 196.337621 
L 242.7072 193.836871 
L 243.8976 185.774064 
L 245.088 178.428083 
L 245.6832 176.079011 
L 246.2784 174.651901 
L 246.8736 173.927529 
L 247.4688 173.734445 
L 248.064 173.809872 
L 249.2544 174.541161 
L 249.8496 175.019237 
L 251.04 176.307478 
L 252.2304 178.075137 
L 252.8256 179.05202 
L 254.016 181.929227 
L 255.2064 185.962203 
L 256.3968 191.257606 
L 257.5872 196.920313 
L 258.1824 198.906519 
L 258.7776 199.557143 
L 259.3728 198.369413 
L 259.968 195.117091 
L 262.3488 176.32166 
L 262.944 173.802379 
L 263.5392 172.38093 
L 264.1344 171.786782 
L 264.7296 171.689375 
L 265.3248 171.817849 
L 267.7056 173.055291 
L 270.6816 175.19336 
L 271.872 176.635094 
L 272.4672 177.587725 
L 273.6576 180.361055 
L 274.2528 182.273179 
L 275.4432 187.492646 
L 276.6336 194.722479 
L 277.824 202.031152 
L 278.4192 204.022489 
L 279.0144 203.51069 
L 279.6096 199.713738 
L 280.8 185.301154 
L 281.3952 178.151952 
L 281.9904 172.966129 
L 282.5856 169.782953 
L 283.1808 168.187835 
L 283.776 167.557803 
L 284.3712 167.489183 
L 286.1568 167.865992 
L 286.752 167.839242 
L 287.3472 167.662175 
L 288.5376 166.641488 
L 289.1328 165.884153 
L 289.728 164.820009 
L 290.3232 163.516686 
L 291.5136 160.027352 
L 292.704 155.188966 
L 294.4896 146.964011 
L 295.0848 145.316253 
L 295.68 145.211108 
L 296.2752 147.029129 
L 296.8704 150.853435 
L 298.656 165.753615 
L 299.2512 169.065052 
L 299.8464 171.165915 
L 300.4416 172.325588 
L 301.0368 172.751572 
L 301.632 172.819587 
L 302.2272 172.61885 
L 305.7984 170.519696 
L 306.9888 169.521251 
L 307.584 168.979587 
L 308.7744 167.329258 
L 309.3696 166.211109 
L 309.9648 164.760257 
L 310.56 162.994395 
L 311.1552 160.862095 
L 311.7504 158.24003 
L 312.9408 151.522087 
L 314.1312 143.912318 
L 314.7264 141.281166 
L 315.3216 140.689 
L 315.9168 143.087725 
L 316.512 148.552423 
L 318.2976 169.442061 
L 318.8928 173.400959 
L 319.488 175.653245 
L 320.0832 176.577841 
L 320.6784 176.836733 
L 321.2736 176.761438 
L 321.8688 176.538184 
L 323.0592 176.412254 
L 324.2496 176.797483 
L 324.8448 177.268694 
L 325.44 177.959237 
L 326.0352 178.869442 
L 326.6304 179.992759 
L 327.2256 181.37539 
L 327.8208 183.079677 
L 329.0112 187.527603 
L 331.392 198.45607 
L 331.9872 199.727695 
L 332.5824 199.32614 
L 333.1776 196.825609 
L 333.7728 192.433217 
L 334.9632 181.72884 
L 335.5584 177.431555 
L 336.1536 174.377198 
L 336.7488 172.566538 
L 337.344 171.719994 
L 337.9392 171.458508 
L 338.5344 171.489082 
L 339.7248 172.017801 
L 342.1056 173.266719 
L 343.296 173.876983 
L 344.4864 174.787203 
L 345.0816 175.322219 
L 346.272 176.887586 
L 346.8672 178.019806 
L 347.4624 179.39763 
L 348.0576 181.144427 
L 348.6528 183.33556 
L 349.248 185.964312 
L 350.4384 192.946676 
L 351.6288 201.026653 
L 352.224 204.035047 
L 352.8192 204.979633 
L 353.4144 202.672037 
L 354.0096 196.927338 
L 355.7952 174.448984 
L 356.3904 170.160892 
L 356.9856 167.929177 
L 357.5808 166.953741 
L 358.176 166.753476 
L 358.7712 166.813301 
L 359.9616 167.088047 
L 360.5568 167.103633 
L 361.152 166.826887 
L 361.7472 166.423109 
L 362.9376 164.975642 
L 364.128 162.501997 
L 365.3184 158.853932 
L 366.5088 154.101731 
L 367.6992 149.014657 
L 368.2944 147.118977 
L 368.8896 146.318659 
L 369.4848 146.982697 
L 370.08 149.476161 
L 370.6752 153.388404 
L 371.8656 162.616363 
L 372.4608 166.282405 
L 373.056 168.915728 
L 373.6512 170.565454 
L 374.2464 171.367537 
L 374.8416 171.683903 
L 375.4368 171.610992 
L 376.032 171.329256 
L 377.8176 170.010933 
L 379.008 168.834316 
L 380.1984 167.364365 
L 381.3888 165.122001 
L 381.984 163.695171 
L 383.1744 159.779284 
L 384.3648 154.31456 
L 386.1504 145.133823 
L 386.7456 143.507022 
L 387.3408 143.811677 
L 387.936 146.541379 
L 388.5312 151.355979 
L 389.7216 163.393548 
L 390.3168 168.089647 
L 390.912 171.375447 
L 391.5072 173.216585 
L 392.1024 174.093838 
L 392.6976 174.338213 
L 393.2928 174.244314 
L 395.0784 173.539528 
L 395.6736 173.34108 
L 397.4592 173.305591 
L 398.6496 173.487758 
L 399.84 174.037035 
L 401.0304 174.875529 
L 402.2208 176.2894 
L 402.816 177.277823 
L 403.4112 178.56921 
L 404.0064 180.135227 
L 404.6016 182.204984 
L 405.1968 184.751301 
L 406.3872 191.714604 
L 408.1728 204.485668 
L 408.768 206.518061 
L 409.3632 205.369419 
L 409.9584 200.170776 
L 411.744 174.920822 
L 412.3392 169.705804 
L 412.9344 166.902765 
L 413.5296 165.637841 
L 414.1248 165.314833 
L 414.72 165.383389 
L 414.72 165.383389 
" clip-path="url(#pb74169688a)" style="fill: none; stroke: #0000cc; stroke-width: 1.5; stroke-linecap: square"/>
   </g>
   <g id="line2d_28">
    <path d="M 57.6 179.007072 
L 58.195191 180.345363 
L 58.790405 181.966619 
L 59.980809 186.237695 
L 61.171191 191.922582 
L 62.361595 197.921262 
L 62.956786 199.98763 
L 63.552 200.527125 
L 64.147191 198.937948 
L 64.742405 195.115622 
L 66.528 178.730593 
L 67.123191 174.941489 
L 67.718405 172.5537 
L 68.313595 171.293741 
L 68.908809 170.797668 
L 69.504 170.75077 
L 70.694405 171.194435 
L 72.48 171.925079 
L 74.265595 172.346262 
L 77.836786 173.032428 
L 79.027191 173.471777 
L 80.217595 174.183861 
L 80.812809 174.697971 
L 81.408 175.360234 
L 82.003191 176.214853 
L 82.598405 177.319193 
L 83.193595 178.745314 
L 83.788809 180.582273 
L 84.384 182.93515 
L 84.979191 185.917365 
L 85.574405 189.624325 
L 86.764786 199.095033 
L 87.36 204.121945 
L 87.955191 207.995261 
L 88.550405 208.979763 
L 89.145595 205.453425 
L 89.740786 197.289238 
L 90.931191 176.699644 
L 91.526405 169.561852 
L 92.121595 165.479764 
L 92.716809 163.649423 
L 93.312 163.114976 
L 93.907191 163.169202 
L 95.097595 163.531587 
L 95.692809 163.50097 
L 96.288 163.245645 
L 96.883191 162.75052 
L 97.478405 162.015148 
L 98.073595 161.047058 
L 99.264 158.479477 
L 101.644786 152.423693 
L 102.24 151.476151 
L 102.835191 151.154513 
L 103.430405 151.62648 
L 104.025595 152.941436 
L 104.620809 154.980961 
L 106.406405 162.405727 
L 107.001595 164.314002 
L 107.596809 165.691986 
L 108.192 166.556608 
L 108.787191 166.981118 
L 109.382405 167.054689 
L 109.977595 166.857043 
L 110.572786 166.447865 
L 111.168 165.86445 
L 112.358405 164.233133 
L 113.548786 161.964659 
L 114.739191 159.004947 
L 117.12 152.089786 
L 117.715191 150.890454 
L 118.310405 150.352977 
L 118.905595 150.697439 
L 119.500809 152.019545 
L 120.096 154.216198 
L 121.881595 162.569994 
L 122.476786 164.733822 
L 123.072 166.288537 
L 123.667191 167.259828 
L 124.262405 167.741206 
L 124.857595 167.842936 
L 125.452786 167.661853 
L 126.048 167.268805 
L 127.238405 165.998297 
L 128.428809 164.135592 
L 129.619191 161.590389 
L 130.809595 158.26454 
L 133.190405 150.71287 
L 133.785595 149.608518 
L 134.380786 149.377805 
L 134.976 150.247455 
L 135.571191 152.244927 
L 136.761595 158.443022 
L 137.952 164.400726 
L 138.547191 166.443538 
L 139.142405 167.782954 
L 139.737595 168.51887 
L 140.332809 168.790004 
L 140.928 168.725857 
L 141.523191 168.42524 
L 142.713595 167.340874 
L 143.904 165.726564 
L 145.094405 163.492733 
L 146.284786 160.44417 
L 147.475191 156.480784 
L 149.260786 149.984222 
L 149.856 148.539936 
L 150.451191 148.054145 
L 151.046405 148.850834 
L 151.641595 151.024144 
L 152.832 158.180643 
L 154.022405 165.111664 
L 154.617595 167.43482 
L 155.212809 168.921955 
L 155.808 169.71661 
L 156.403191 170.001939 
L 156.998405 169.940933 
L 157.593595 169.653443 
L 158.784 168.666333 
L 159.974405 167.264133 
L 161.164786 165.34794 
L 162.355191 162.665518 
L 163.545595 158.936798 
L 164.736 154.110032 
L 165.926405 149.010435 
L 166.521595 147.103031 
L 167.116809 146.266519 
L 167.712 146.974463 
L 168.307191 149.428539 
L 168.902405 153.355049 
L 170.092786 162.564255 
L 170.688 166.29877 
L 171.283191 168.952684 
L 171.878405 170.579852 
L 172.473595 171.40232 
L 173.068786 171.671953 
L 173.664 171.598189 
L 174.854405 170.949707 
L 176.044809 170.024879 
L 177.235191 168.887788 
L 178.425595 167.373214 
L 179.616 165.194814 
L 180.211191 163.740854 
L 180.806405 161.973426 
L 181.996786 157.317043 
L 183.187191 151.212629 
L 184.377595 145.185252 
L 184.972786 143.507121 
L 185.568 143.723463 
L 186.163191 146.340233 
L 186.758405 151.17345 
L 187.948809 163.200939 
L 188.544 168.021067 
L 189.139191 171.312804 
L 189.734405 173.217372 
L 190.329595 174.108688 
L 190.924809 174.369093 
L 191.52 174.292835 
L 193.900786 173.450247 
L 195.091191 173.328024 
L 196.281595 173.460183 
L 197.472 173.848836 
L 198.662405 174.555789 
L 199.852809 175.729603 
L 200.448 176.570194 
L 201.043191 177.641159 
L 201.638382 179.003738 
L 202.233618 180.73205 
L 202.828809 182.911023 
L 203.424 185.628456 
L 204.614382 192.88426 
L 205.804809 201.650114 
L 206.4 205.138475 
L 206.995236 206.408695 
L 207.590427 204.15196 
L 208.185618 198.013675 
L 209.971191 173.417969 
L 210.566382 168.924966 
L 211.161618 166.581479 
L 211.756809 165.650592 
L 212.352 165.472628 
L 214.137618 165.827785 
L 214.732809 165.71515 
L 215.328 165.394531 
L 215.923191 164.84958 
L 216.518382 164.069032 
L 217.113618 163.041884 
L 217.708809 161.75642 
L 218.899236 158.389475 
L 221.875191 148.536879 
L 222.470382 148.096522 
L 223.065618 148.937182 
L 223.660809 151.142466 
L 224.851191 158.297154 
L 226.041618 165.162988 
L 226.636809 167.452847 
L 227.232 168.913867 
L 227.827191 169.690361 
L 228.422382 169.963826 
L 229.017618 169.895214 
L 229.612809 169.602291 
L 230.803236 168.605307 
L 231.993618 167.189154 
L 233.184 165.251747 
L 234.374382 162.540614 
L 235.564809 158.780758 
L 236.755191 153.941116 
L 237.945618 148.895136 
L 238.540809 147.058726 
L 239.136 146.323919 
L 239.731191 147.148482 
L 240.326382 149.703445 
L 241.516809 158.342542 
L 242.707236 166.464216 
L 243.302427 169.03529 
L 243.897618 170.597559 
L 244.492809 171.37562 
L 245.088 171.61764 
L 245.683191 171.527469 
L 246.873618 170.861224 
L 248.064 169.919162 
L 249.254382 168.753078 
L 250.444809 167.190492 
L 251.635191 164.938834 
L 252.230382 163.437351 
L 252.825618 161.615771 
L 254.016 156.845219 
L 256.396809 144.894246 
L 256.992 143.505695 
L 257.587191 144.108041 
L 258.182382 147.108125 
L 258.777618 152.183663 
L 259.968 164.037669 
L 260.563191 168.578973 
L 261.158382 171.605659 
L 261.753618 173.311351 
L 262.348809 174.076023 
L 262.944 174.266176 
L 263.539191 174.156489 
L 265.92 173.291426 
L 267.110427 173.146957 
L 268.300809 173.228449 
L 269.491191 173.527428 
L 270.681618 174.087254 
L 271.872 175.025025 
L 272.467191 175.698708 
L 273.062382 176.560564 
L 273.657618 177.661503 
L 274.252809 179.066502 
L 274.848 180.854034 
L 275.443191 183.113969 
L 276.038382 185.939578 
L 277.228809 193.496892 
L 278.419236 202.537338 
L 279.014427 205.98435 
L 279.609618 206.951343 
L 280.204809 204.101757 
L 280.8 197.246868 
L 281.990382 178.972336 
L 282.585618 172.104235 
L 283.180809 167.885753 
L 283.776 165.794107 
L 284.371191 165.034024 
L 284.966382 164.94808 
L 286.156809 165.261931 
L 286.752 165.286288 
L 287.347191 165.117368 
L 287.942382 164.72727 
L 288.537618 164.102926 
L 289.132809 163.236177 
L 289.728 162.120023 
L 290.918427 159.127974 
L 292.108809 155.254563 
L 293.299191 151.220308 
L 293.894382 149.673375 
L 294.489618 148.867345 
L 295.084809 149.120743 
L 295.68 150.606261 
L 296.275191 153.2273 
L 298.060809 163.346378 
L 298.656 165.878613 
L 299.251191 167.63799 
L 299.846382 168.692341 
L 300.441618 169.186885 
L 301.036809 169.275028 
L 301.632 169.082348 
L 302.227236 168.69617 
L 303.417618 167.518411 
L 304.608 165.847761 
L 305.798382 163.540782 
L 306.988809 160.363744 
L 308.179191 156.189949 
L 309.964809 149.305038 
L 310.56 147.808401 
L 311.155191 147.381 
L 311.750382 148.377213 
L 312.345618 150.876134 
L 313.536 158.748511 
L 314.726427 165.987673 
L 315.321618 168.298387 
L 315.916809 169.720174 
L 316.512 170.436848 
L 317.107191 170.655579 
L 317.702382 170.550493 
L 318.297618 170.244004 
L 319.488 169.288033 
L 320.678382 167.993967 
L 321.868809 166.250372 
L 323.059191 163.790669 
L 324.249618 160.281572 
L 325.44 155.499919 
L 327.225618 147.339287 
L 327.820809 145.61386 
L 328.416 145.305314 
L 329.011191 146.884753 
L 329.606382 150.385771 
L 331.392 165.07283 
L 331.987191 168.555424 
L 332.582382 170.812148 
L 333.177618 172.048634 
L 333.772809 172.564369 
L 334.368 172.631317 
L 334.963191 172.449445 
L 336.748809 171.425492 
L 338.534427 170.232298 
L 339.724809 169.201043 
L 340.915191 167.724776 
L 341.510382 166.723916 
L 342.105618 165.482285 
L 342.700809 163.940632 
L 343.296 162.033261 
L 343.891191 159.695807 
L 345.081618 153.578893 
L 346.867191 142.945951 
L 347.462382 141.158471 
L 348.057618 141.816421 
L 348.652809 145.506058 
L 349.843236 159.183064 
L 350.438427 165.942252 
L 351.033618 170.978675 
L 351.628809 174.108074 
L 352.224 175.715062 
L 352.819191 176.333687 
L 353.414382 176.415852 
L 355.2 175.968743 
L 355.795191 175.965303 
L 356.390382 176.103144 
L 356.985618 176.395732 
L 357.580809 176.8548 
L 358.176 177.495403 
L 358.771191 178.339423 
L 359.366382 179.416595 
L 359.961618 180.764353 
L 360.556809 182.42514 
L 361.747236 186.837995 
L 362.937618 192.661603 
L 364.128 198.550021 
L 364.723191 200.347915 
L 365.318382 200.448447 
L 365.913618 198.320871 
L 366.508809 194.020703 
L 368.294382 177.670566 
L 368.889618 174.200679 
L 369.484809 172.099268 
L 370.08 171.048056 
L 370.675191 170.682471 
L 371.270382 170.705441 
L 372.460809 171.182641 
L 374.246427 171.865137 
L 376.032 172.207935 
L 381.984 172.979323 
L 383.174382 173.421712 
L 384.364809 174.162098 
L 384.96 174.705909 
L 385.555236 175.413653 
L 386.150427 176.335518 
L 386.745618 177.536954 
L 387.340809 179.100483 
L 387.936 181.128448 
L 388.531191 183.741695 
L 389.126382 187.066142 
L 389.721618 191.200212 
L 392.102382 210.104471 
L 392.697618 209.605501 
L 393.292809 203.804568 
L 395.078382 172.346828 
L 395.673618 166.245832 
L 396.268809 163.176306 
L 396.864 162.045127 
L 397.459236 161.894629 
L 399.244809 162.44448 
L 399.84 162.330321 
L 400.435191 161.981695 
L 401.030382 161.400045 
L 401.625618 160.599165 
L 402.816 158.441646 
L 405.196809 153.530786 
L 405.792 152.810843 
L 406.387191 152.587644 
L 406.982382 152.972957 
L 407.577618 153.994027 
L 408.172809 155.565925 
L 410.553618 163.083239 
L 411.148809 164.308094 
L 411.744 165.123824 
L 412.339191 165.563862 
L 412.934382 165.683355 
L 413.529618 165.53915 
L 414.124809 165.178065 
L 414.72 164.633547 
L 414.72 164.633547 
" clip-path="url(#pb74169688a)" style="fill: none; stroke-dasharray: 9.6,2.4,1.5,2.4; stroke-dashoffset: 0; stroke: #ff0000; stroke-width: 1.5"/>
   </g>
   <g id="patch_8">
    <path d="M 57.6 213.662118 
L 57.6 135.393882 
" style="fill: none; stroke: #000000; stroke-width: 0.8; stroke-linejoin: miter; stroke-linecap: square"/>
   </g>
   <g id="patch_9">
    <path d="M 414.72 213.662118 
L 414.72 135.393882 
" style="fill: none; stroke: #000000; stroke-width: 0.8; stroke-linejoin: miter; stroke-linecap: square"/>
   </g>
   <g id="patch_10">
    <path d="M 57.6 213.662118 
L 414.72 213.662118 
" style="fill: none; stroke: #000000; stroke-width: 0.8; stroke-linejoin: miter; stroke-linecap: square"/>
   </g>
   <g id="patch_11">
    <path d="M 57.6 135.393882 
L 414.72 135.393882 
" style="fill: none; stroke: #000000; stroke-width: 0.8; stroke-linejoin: miter; stroke-linecap: square"/>
   </g>
  </g>
  <g id="axes_3">
   <g id="patch_12">
    <path d="M 57.6 307.584 
L 414.72 307.584 
L 414.72 229.315765 
L 57.6 229.315765 
z
" style="fill: #ffffff"/>
   </g>
   <g id="matplotlib.axis_5">
    <g id="xtick_19">
     <g id="line2d_29">
      <g>
       <use xlink:href="#m3398176c05" x="57.6" y="307.584" style="stroke: #000000; stroke-width: 0.8"/>
      </g>
     </g>
     <g id="text_7">
      <!-- 10 -->
      <g transform="translate(51.2375 322.182437) scale(0.1 -0.1)">
       <use xlink:href="#DejaVuSans-31"/>
       <use xlink:href="#DejaVuSans-30" x="63.623047"/>
      </g>
     </g>
    </g>
    <g id="xtick_20">
     <g id="line2d_30">
      <g>
       <use xlink:href="#m3398176c05" x="105.216" y="307.584" style="stroke: #000000; stroke-width: 0.8"/>
      </g>
     </g>
     <g id="text_8">
      <!-- 12 -->
      <g transform="translate(98.8535 322.182437) scale(0.1 -0.1)">
       <use xlink:href="#DejaVuSans-31"/>
       <use xlink:href="#DejaVuSans-32" x="63.623047"/>
      </g>
     </g>
    </g>
    <g id="xtick_21">
     <g id="line2d_31">
      <g>
       <use xlink:href="#m3398176c05" x="152.832" y="307.584" style="stroke: #000000; stroke-width: 0.8"/>
      </g>
     </g>
     <g id="text_9">
      <!-- 14 -->
      <g transform="translate(146.4695 322.182437) scale(0.1 -0.1)">
       <defs>
        <path id="DejaVuSans-34" d="M 2419 4116 
L 825 1625 
L 2419 1625 
L 2419 4116 
z
M 2253 4666 
L 3047 4666 
L 3047 1625 
L 3713 1625 
L 3713 1100 
L 3047 1100 
L 3047 0 
L 2419 0 
L 2419 1100 
L 313 1100 
L 313 1709 
L 2253 4666 
z
" transform="scale(0.015625)"/>
       </defs>
       <use xlink:href="#DejaVuSans-31"/>
       <use xlink:href="#DejaVuSans-34" x="63.623047"/>
      </g>
     </g>
    </g>
    <g id="xtick_22">
     <g id="line2d_32">
      <g>
       <use xlink:href="#m3398176c05" x="200.448" y="307.584" style="stroke: #000000; stroke-width: 0.8"/>
      </g>
     </g>
     <g id="text_10">
      <!-- 16 -->
      <g transform="translate(194.0855 322.182437) scale(0.1 -0.1)">
       <defs>
        <path id="DejaVuSans-36" d="M 2113 2584 
Q 1688 2584 1439 2293 
Q 1191 2003 1191 1497 
Q 1191 994 1439 701 
Q 1688 409 2113 409 
Q 2538 409 2786 701 
Q 3034 994 3034 1497 
Q 3034 2003 2786 2293 
Q 2538 2584 2113 2584 
z
M 3366 4563 
L 3366 3988 
Q 3128 4100 2886 4159 
Q 2644 4219 2406 4219 
Q 1781 4219 1451 3797 
Q 1122 3375 1075 2522 
Q 1259 2794 1537 2939 
Q 1816 3084 2150 3084 
Q 2853 3084 3261 2657 
Q 3669 2231 3669 1497 
Q 3669 778 3244 343 
Q 2819 -91 2113 -91 
Q 1303 -91 875 529 
Q 447 1150 447 2328 
Q 447 3434 972 4092 
Q 1497 4750 2381 4750 
Q 2619 4750 2861 4703 
Q 3103 4656 3366 4563 
z
" transform="scale(0.015625)"/>
       </defs>
       <use xlink:href="#DejaVuSans-31"/>
       <use xlink:href="#DejaVuSans-36" x="63.623047"/>
      </g>
     </g>
    </g>
    <g id="xtick_23">
     <g id="line2d_33">
      <g>
       <use xlink:href="#m3398176c05" x="248.064" y="307.584" style="stroke: #000000; stroke-width: 0.8"/>
      </g>
     </g>
     <g id="text_11">
      <!-- 18 -->
      <g transform="translate(241.7015 322.182437) scale(0.1 -0.1)">
       <defs>
        <path id="DejaVuSans-38" d="M 2034 2216 
Q 1584 2216 1326 1975 
Q 1069 1734 1069 1313 
Q 1069 891 1326 650 
Q 1584 409 2034 409 
Q 2484 409 2743 651 
Q 3003 894 3003 1313 
Q 3003 1734 2745 1975 
Q 2488 2216 2034 2216 
z
M 1403 2484 
Q 997 2584 770 2862 
Q 544 3141 544 3541 
Q 544 4100 942 4425 
Q 1341 4750 2034 4750 
Q 2731 4750 3128 4425 
Q 3525 4100 3525 3541 
Q 3525 3141 3298 2862 
Q 3072 2584 2669 2484 
Q 3125 2378 3379 2068 
Q 3634 1759 3634 1313 
Q 3634 634 3220 271 
Q 2806 -91 2034 -91 
Q 1263 -91 848 271 
Q 434 634 434 1313 
Q 434 1759 690 2068 
Q 947 2378 1403 2484 
z
M 1172 3481 
Q 1172 3119 1398 2916 
Q 1625 2713 2034 2713 
Q 2441 2713 2670 2916 
Q 2900 3119 2900 3481 
Q 2900 3844 2670 4047 
Q 2441 4250 2034 4250 
Q 1625 4250 1398 4047 
Q 1172 3844 1172 3481 
z
" transform="scale(0.015625)"/>
       </defs>
       <use xlink:href="#DejaVuSans-31"/>
       <use xlink:href="#DejaVuSans-38" x="63.623047"/>
      </g>
     </g>
    </g>
    <g id="xtick_24">
     <g id="line2d_34">
      <g>
       <use xlink:href="#m3398176c05" x="295.68" y="307.584" style="stroke: #000000; stroke-width: 0.8"/>
      </g>
     </g>
     <g id="text_12">
      <!-- 20 -->
      <g transform="translate(289.3175 322.182437) scale(0.1 -0.1)">
       <use xlink:href="#DejaVuSans-32"/>
       <use xlink:href="#DejaVuSans-30" x="63.623047"/>
      </g>
     </g>
    </g>
    <g id="xtick_25">
     <g id="line2d_35">
      <g>
       <use xlink:href="#m3398176c05" x="343.296" y="307.584" style="stroke: #000000; stroke-width: 0.8"/>
      </g>
     </g>
     <g id="text_13">
      <!-- 22 -->
      <g transform="translate(336.9335 322.182437) scale(0.1 -0.1)">
       <use xlink:href="#DejaVuSans-32"/>
       <use xlink:href="#DejaVuSans-32" x="63.623047"/>
      </g>
     </g>
    </g>
    <g id="xtick_26">
     <g id="line2d_36">
      <g>
       <use xlink:href="#m3398176c05" x="390.912" y="307.584" style="stroke: #000000; stroke-width: 0.8"/>
      </g>
     </g>
     <g id="text_14">
      <!-- 24 -->
      <g transform="translate(384.5495 322.182437) scale(0.1 -0.1)">
       <use xlink:href="#DejaVuSans-32"/>
       <use xlink:href="#DejaVuSans-34" x="63.623047"/>
      </g>
     </g>
    </g>
    <g id="xtick_27">
     <g id="line2d_37">
      <g>
       <use xlink:href="#m3398176c05" x="414.72" y="307.584" style="stroke: #000000; stroke-width: 0.8"/>
      </g>
     </g>
     <g id="text_15">
      <!-- 25 -->
      <g transform="translate(408.3575 322.182437) scale(0.1 -0.1)">
       <defs>
        <path id="DejaVuSans-35" d="M 691 4666 
L 3169 4666 
L 3169 4134 
L 1269 4134 
L 1269 2991 
Q 1406 3038 1543 3061 
Q 1681 3084 1819 3084 
Q 2600 3084 3056 2656 
Q 3513 2228 3513 1497 
Q 3513 744 3044 326 
Q 2575 -91 1722 -91 
Q 1428 -91 1123 -41 
Q 819 9 494 109 
L 494 744 
Q 775 591 1075 516 
Q 1375 441 1709 441 
Q 2250 441 2565 725 
Q 2881 1009 2881 1497 
Q 2881 1984 2565 2268 
Q 2250 2553 1709 2553 
Q 1456 2553 1204 2497 
Q 953 2441 691 2322 
L 691 4666 
z
" transform="scale(0.015625)"/>
       </defs>
       <use xlink:href="#DejaVuSans-32"/>
       <use xlink:href="#DejaVuSans-35" x="63.623047"/>
      </g>
     </g>
    </g>
   </g>
   <g id="matplotlib.axis_6">
    <g id="ytick_7">
     <g id="line2d_38">
      <g>
       <use xlink:href="#m7eb6f89f6c" x="57.6" y="277.376276" style="stroke: #000000; stroke-width: 0.8"/>
      </g>
     </g>
     <g id="text_16">
      <!-- 20 -->
      <g transform="translate(37.875 281.175495) scale(0.1 -0.1)">
       <use xlink:href="#DejaVuSans-32"/>
       <use xlink:href="#DejaVuSans-30" x="63.623047"/>
      </g>
     </g>
    </g>
    <g id="ytick_8">
     <g id="line2d_39">
      <g>
       <use xlink:href="#m7eb6f89f6c" x="57.6" y="242.159958" style="stroke: #000000; stroke-width: 0.8"/>
      </g>
     </g>
     <g id="text_17">
      <!-- 40 -->
      <g transform="translate(37.875 245.959177) scale(0.1 -0.1)">
       <use xlink:href="#DejaVuSans-34"/>
       <use xlink:href="#DejaVuSans-30" x="63.623047"/>
      </g>
     </g>
    </g>
   </g>
   <g id="line2d_40">
    <path d="M 57.6 285.454622 
L 58.1952 286.597169 
L 58.7904 287.309833 
L 59.3856 287.718791 
L 59.9808 287.592248 
L 60.576 286.725825 
L 61.1712 284.936002 
L 61.7664 281.903933 
L 62.3616 277.423428 
L 62.9568 271.470173 
L 64.7424 250.309184 
L 65.3376 246.208667 
L 65.9328 244.824813 
L 66.528 246.188774 
L 67.1232 249.114801 
L 70.0992 267.293673 
L 71.2896 273.058217 
L 73.0752 280.24623 
L 74.2656 284.288338 
L 76.0512 289.396375 
L 77.2416 292.26775 
L 79.0272 295.963974 
L 80.8128 298.811369 
L 82.0032 300.296771 
L 82.5984 300.863854 
L 83.1936 301.134618 
L 83.7888 301.269239 
L 84.384 300.81763 
L 84.9792 299.746686 
L 85.5744 297.60932 
L 86.1696 293.890691 
L 86.7648 287.978761 
L 87.36 279.174893 
L 89.1456 242.901092 
L 89.7408 235.973656 
L 90.336 235.109531 
L 90.9312 238.710687 
L 92.7168 255.279565 
L 93.9072 263.147281 
L 95.0976 268.775251 
L 95.6928 271.007632 
L 96.8832 274.368227 
L 97.4784 275.646879 
L 98.0736 276.48511 
L 98.6688 276.889303 
L 99.264 276.884162 
L 99.8592 276.21089 
L 100.4544 274.967913 
L 101.0496 272.972597 
L 101.6448 270.354422 
L 102.8352 263.475529 
L 104.0256 256.88052 
L 104.6208 254.776895 
L 105.216 253.734921 
L 105.8112 253.932506 
L 106.4064 254.956808 
L 107.0016 256.715176 
L 108.7872 263.790264 
L 110.5728 270.556856 
L 111.7632 274.23208 
L 112.9536 277.008596 
L 113.5488 277.863777 
L 114.144 278.405777 
L 114.7392 278.409948 
L 115.3344 277.927243 
L 115.9296 276.715636 
L 116.5248 274.806408 
L 117.12 272.029084 
L 118.3104 264.643185 
L 119.5008 256.948056 
L 120.096 254.237663 
L 120.6912 252.764928 
L 121.2864 252.666378 
L 121.8816 253.61828 
L 122.4768 255.524241 
L 123.6672 260.439221 
L 125.4528 268.165902 
L 126.6432 272.556461 
L 127.8336 276.207353 
L 128.4288 277.69804 
L 129.024 278.865055 
L 129.6192 279.664697 
L 130.2144 280.136342 
L 130.8096 280.034894 
L 131.4048 279.249265 
L 132 277.772792 
L 132.5952 275.443335 
L 133.1904 272.204824 
L 134.3808 263.54414 
L 135.5712 254.983823 
L 136.1664 252.323837 
L 136.7616 251.132424 
L 137.3568 251.492244 
L 137.952 253.109656 
L 139.1424 258.145236 
L 140.928 266.590698 
L 142.1184 271.655715 
L 143.3088 275.843316 
L 144.4992 279.237805 
L 145.0944 280.61182 
L 145.6896 281.561164 
L 146.2848 282.241382 
L 146.88 282.297167 
L 147.4752 281.815237 
L 148.0704 280.61551 
L 148.6656 278.420616 
L 149.2608 275.241128 
L 149.856 270.979479 
L 151.6416 255.40807 
L 152.2368 251.561711 
L 152.832 249.595206 
L 153.4272 249.479179 
L 154.0224 250.879603 
L 155.2128 256.413955 
L 157.5936 268.574817 
L 158.784 273.596408 
L 159.9744 278.003536 
L 161.1648 281.578163 
L 161.76 283.051523 
L 162.3552 284.225169 
L 162.9504 285.060211 
L 163.5456 285.519581 
L 164.1408 285.427935 
L 164.736 284.691974 
L 165.3312 283.007557 
L 165.9264 280.219936 
L 166.5216 276.121512 
L 167.712 264.315235 
L 168.9024 251.901578 
L 169.4976 248.031234 
L 170.0928 246.629448 
L 170.688 247.441725 
L 171.2832 249.92724 
L 174.8544 269.959957 
L 176.64 277.604143 
L 177.8304 281.829744 
L 179.0208 285.471508 
L 180.2112 288.454474 
L 181.4016 290.754297 
L 181.9968 291.411784 
L 182.592 291.776865 
L 183.1872 291.67276 
L 183.7824 290.721287 
L 184.3776 288.879473 
L 184.9728 285.580438 
L 185.568 280.604314 
L 186.1632 273.774549 
L 187.9488 248.238888 
L 188.544 243.132074 
L 189.1392 241.814789 
L 189.7344 243.608222 
L 190.3296 247.271412 
L 192.1152 260.221887 
L 193.3056 267.223191 
L 194.496 272.959123 
L 195.6864 277.836729 
L 196.8768 281.9439 
L 198.0672 285.336317 
L 198.6624 286.691756 
L 199.8528 288.59336 
L 200.448 289.037988 
L 201.0432 288.948797 
L 201.6384 288.074953 
L 202.2336 286.305535 
L 202.8288 283.374255 
L 203.424 278.813951 
L 204.0192 272.575177 
L 205.8048 250.065084 
L 206.4 245.453506 
L 206.9952 243.909409 
L 207.5904 245.1957 
L 208.1856 248.252339 
L 210.5664 263.805 
L 211.7568 270.050935 
L 212.9472 275.470348 
L 214.1376 280.13574 
L 215.328 284.146095 
L 217.1136 289.264233 
L 218.304 291.998864 
L 219.4944 294.261093 
L 220.0896 295.130408 
L 220.6848 295.754707 
L 221.28 296.024555 
L 221.8752 295.89363 
L 222.4704 295.19537 
L 223.0656 293.512884 
L 223.6608 290.433064 
L 224.256 285.4828 
L 224.8512 278.28175 
L 226.0416 257.946593 
L 226.6368 247.930105 
L 227.232 240.89845 
L 227.8272 238.571082 
L 228.4224 240.3383 
L 229.0176 244.535844 
L 230.208 254.607665 
L 231.3984 262.823124 
L 232.5888 269.145004 
L 233.7792 274.144598 
L 234.9696 278.177508 
L 235.5648 279.817458 
L 236.7552 282.081606 
L 237.3504 282.626483 
L 237.9456 282.645753 
L 238.5408 281.990096 
L 239.136 280.555353 
L 239.7312 278.197467 
L 240.3264 274.710638 
L 241.5168 264.846875 
L 242.7072 254.258624 
L 243.3024 250.682949 
L 243.8976 249.042148 
L 244.4928 249.300139 
L 245.088 251.108467 
L 246.2784 256.967662 
L 248.6592 269.168575 
L 249.8496 274.197999 
L 251.04 278.550752 
L 252.2304 282.072367 
L 252.8256 283.599724 
L 253.4208 284.784697 
L 254.016 285.696997 
L 254.6112 286.153501 
L 255.2064 286.133146 
L 255.8016 285.479936 
L 256.3968 283.8248 
L 256.992 281.109741 
L 257.5872 276.964448 
L 258.1824 271.585823 
L 259.968 251.936482 
L 260.5632 247.808643 
L 261.1584 246.164743 
L 261.7536 246.908431 
L 262.3488 249.347787 
L 265.92 269.740576 
L 267.1104 275.073824 
L 268.3008 279.728815 
L 269.4912 283.761329 
L 271.2768 288.738542 
L 272.4672 291.28523 
L 273.0624 292.309089 
L 273.6576 293.06407 
L 274.2528 293.542321 
L 274.848 293.53263 
L 275.4432 292.927346 
L 276.0384 291.343857 
L 276.6336 288.563224 
L 277.2288 284.039692 
L 277.824 277.434422 
L 279.0144 259.186438 
L 279.6096 249.845241 
L 280.2048 243.172789 
L 280.8 240.501442 
L 281.3952 241.44624 
L 281.9904 245.079934 
L 283.776 258.719314 
L 284.9664 266.034693 
L 286.1568 271.913 
L 287.3472 276.751229 
L 288.5376 280.701661 
L 289.728 283.798657 
L 290.3232 284.925786 
L 290.9184 285.812495 
L 291.5136 286.115351 
L 292.1088 285.845179 
L 292.704 284.883822 
L 293.2992 282.959453 
L 293.8944 279.85412 
L 294.4896 275.318598 
L 295.68 262.844141 
L 296.8704 250.508156 
L 297.4656 247.06497 
L 298.0608 246.249695 
L 298.656 247.602013 
L 299.2512 250.431861 
L 302.2272 267.749475 
L 303.4176 273.334164 
L 304.608 278.15328 
L 305.7984 282.435912 
L 306.9888 286.015862 
L 308.1792 289.138742 
L 309.3696 291.52211 
L 309.9648 292.402239 
L 310.56 293.042716 
L 311.1552 293.247593 
L 311.7504 292.892225 
L 312.3456 291.768543 
L 312.9408 289.504481 
L 313.536 285.858927 
L 314.1312 280.155266 
L 314.7264 272.560669 
L 316.512 245.804547 
L 317.1072 241.348179 
L 317.7024 240.920227 
L 318.2976 243.57843 
L 321.2736 264.64324 
L 322.464 270.769758 
L 323.6544 275.866877 
L 324.8448 280.096061 
L 326.0352 283.40316 
L 326.6304 284.764136 
L 327.2256 285.799984 
L 327.8208 286.490362 
L 328.416 286.635491 
L 329.0112 286.252905 
L 329.6064 285.04571 
L 330.2016 282.636123 
L 330.7968 279.073271 
L 331.392 274.028182 
L 332.5824 260.654451 
L 333.1776 253.945318 
L 333.7728 248.81969 
L 334.368 246.06259 
L 334.9632 246.037937 
L 335.5584 247.999756 
L 336.7488 254.992242 
L 338.5344 265.616133 
L 339.7248 271.549944 
L 340.9152 276.668329 
L 342.1056 281.102363 
L 343.8912 286.751686 
L 345.0816 289.811772 
L 346.272 292.344925 
L 346.8672 293.403093 
L 348.0576 294.813653 
L 348.6528 294.97038 
L 349.248 294.634161 
L 349.8432 293.52509 
L 350.4384 291.363339 
L 351.0336 287.623123 
L 351.6288 281.86433 
L 352.224 273.88086 
L 354.0096 245.089362 
L 354.6048 240.163057 
L 355.2 239.655388 
L 355.7952 242.502175 
L 358.7712 264.386267 
L 359.9616 270.46865 
L 361.152 275.391661 
L 362.3424 279.345567 
L 363.5328 282.310496 
L 364.128 283.36722 
L 364.7232 283.972411 
L 365.3184 284.149448 
L 365.9136 283.586702 
L 366.5088 282.275125 
L 367.104 279.965559 
L 367.6992 276.453542 
L 368.2944 271.816301 
L 370.08 254.330927 
L 370.6752 250.147756 
L 371.2704 248.024466 
L 371.8656 248.068132 
L 372.4608 249.81697 
L 373.6512 255.997621 
L 375.4368 265.903964 
L 377.2224 274.180188 
L 378.4128 278.665036 
L 379.6032 282.580199 
L 380.7936 285.754991 
L 381.984 287.954559 
L 382.5792 288.568103 
L 383.1744 288.671116 
L 383.7696 288.283522 
L 384.3648 287.002191 
L 384.96 284.693823 
L 385.5552 280.878789 
L 386.1504 275.535848 
L 387.3408 260.744144 
L 387.936 253.296357 
L 388.5312 247.474632 
L 389.1264 244.397266 
L 389.7216 244.486044 
L 390.3168 246.81719 
L 391.5072 254.468254 
L 392.6976 262.152151 
L 393.888 268.708048 
L 395.0784 274.300164 
L 396.864 281.321017 
L 398.6496 286.955931 
L 400.4352 291.457182 
L 401.6256 293.983452 
L 402.816 296.027082 
L 403.4112 296.76579 
L 404.0064 297.322109 
L 404.6016 297.56977 
L 405.1968 297.316973 
L 405.792 296.440647 
L 406.3872 294.624532 
L 406.9824 291.30624 
L 407.5776 286.011971 
L 408.1728 278.262858 
L 410.5536 239.3166 
L 411.1488 237.49966 
L 411.744 239.931449 
L 412.9344 249.936298 
L 414.1248 259.291005 
L 414.72 263.093222 
L 414.72 263.093222 
" clip-path="url(#p4e5f885ea4)" style="fill: none; stroke: #0000cc; stroke-width: 1.5; stroke-linecap: square"/>
   </g>
   <g id="line2d_41">
    <path d="M 57.6 285.454622 
L 58.195191 286.580783 
L 58.790405 287.389129 
L 59.385595 287.78872 
L 59.980809 287.647519 
L 60.576 286.78223 
L 61.171191 284.956172 
L 61.766405 281.899752 
L 62.361595 277.381248 
L 62.956786 271.350921 
L 64.742405 250.240134 
L 65.337595 246.113263 
L 65.932786 244.859509 
L 66.528 246.153613 
L 67.123191 249.126234 
L 70.099191 267.34108 
L 71.289595 273.087809 
L 72.48 278.045147 
L 74.265595 284.312667 
L 76.051191 289.436586 
L 77.836786 293.624654 
L 79.622405 297.028461 
L 80.812809 298.901357 
L 82.003191 300.431452 
L 83.193595 301.476556 
L 83.788809 301.701816 
L 84.384 301.596492 
L 84.979191 300.98003 
L 85.574405 299.5655 
L 86.169595 296.916222 
L 86.764786 292.429105 
L 87.36 285.413405 
L 87.955191 275.406324 
L 89.740786 239.404041 
L 90.336 234.678313 
L 90.931191 235.722356 
L 91.526405 240.435258 
L 92.716809 252.038616 
L 93.907191 260.903391 
L 95.097595 267.051589 
L 96.288 271.497468 
L 97.478405 274.616671 
L 98.073595 275.662354 
L 98.668786 276.31526 
L 99.264 276.516909 
L 99.859191 276.196707 
L 100.454405 275.279959 
L 101.049595 273.705241 
L 101.644786 271.451135 
L 102.835191 265.247799 
L 104.025595 258.563054 
L 104.620809 256.028285 
L 105.216 254.483305 
L 105.811191 254.046664 
L 106.406405 254.635104 
L 107.001595 256.028625 
L 108.192 260.199254 
L 110.572786 269.348004 
L 111.763191 273.137924 
L 112.953595 276.0361 
L 113.548786 277.054066 
L 114.144 277.712032 
L 114.739191 277.937743 
L 115.334405 277.645401 
L 115.929595 276.740676 
L 116.524809 275.136165 
L 117.12 272.780054 
L 118.310405 266.050026 
L 119.500809 258.455904 
L 120.096 255.46982 
L 120.691191 253.586312 
L 121.286405 252.972114 
L 121.881595 253.541568 
L 122.476786 255.034666 
L 123.667191 259.564101 
L 126.048 269.415748 
L 127.238405 273.524321 
L 128.428809 276.779173 
L 129.024 278.005444 
L 129.619191 278.899518 
L 130.214405 279.392473 
L 130.809595 279.396854 
L 131.404809 278.80684 
L 132 277.507835 
L 132.595191 275.397803 
L 133.190405 272.429025 
L 134.380786 264.363798 
L 135.571191 256.060719 
L 136.166405 253.226891 
L 136.761595 251.817736 
L 137.356786 251.865783 
L 137.952 253.125788 
L 138.547191 255.220427 
L 140.332809 263.311651 
L 142.118405 270.933261 
L 143.308809 275.151008 
L 144.499191 278.511116 
L 145.094405 279.797962 
L 145.689595 280.75897 
L 146.284786 281.323053 
L 146.88 281.394977 
L 147.475191 280.853964 
L 148.070405 279.558992 
L 148.665595 277.369071 
L 149.260786 274.187833 
L 150.451191 265.150609 
L 151.641595 255.383132 
L 152.236809 251.953096 
L 152.832 250.214567 
L 153.427191 250.222421 
L 154.022405 251.661744 
L 154.617595 254.049132 
L 158.188786 271.215182 
L 159.379191 275.788851 
L 160.569595 279.583358 
L 161.76 282.455216 
L 162.355191 283.448313 
L 162.950405 284.055344 
L 163.545595 284.172561 
L 164.140809 283.660479 
L 164.736 282.344679 
L 165.331191 280.031523 
L 165.926405 276.554256 
L 166.521595 271.865347 
L 168.902405 250.101178 
L 169.497595 247.972535 
L 170.092786 248.023546 
L 170.688 249.804225 
L 171.878405 255.989466 
L 173.664 265.90263 
L 174.854405 271.58321 
L 176.044809 276.502 
L 177.235191 280.725242 
L 178.425595 284.25563 
L 179.616 286.9891 
L 180.211191 287.972388 
L 180.806405 288.612848 
L 181.401595 288.802673 
L 181.996786 288.385585 
L 182.592 287.147307 
L 183.187191 284.816648 
L 183.782405 281.101681 
L 184.377595 275.790519 
L 185.568 261.119169 
L 186.163191 253.498597 
L 186.758405 247.570274 
L 187.353595 244.465791 
L 187.948809 244.384315 
L 188.544 246.641843 
L 189.734405 254.255625 
L 190.924809 262.003302 
L 192.115191 268.600209 
L 193.305595 274.18913 
L 194.496 279.006536 
L 195.686405 283.195696 
L 196.876786 286.844511 
L 198.067191 290.011052 
L 199.257595 292.725564 
L 200.448 294.968379 
L 201.638382 296.607098 
L 202.233618 297.091096 
L 202.828809 297.231855 
L 203.424 296.871499 
L 204.019191 295.765347 
L 204.614382 293.556191 
L 205.209618 289.765849 
L 205.804809 283.862299 
L 206.4 275.489383 
L 208.185618 244.001342 
L 208.780809 238.558057 
L 209.376 238.01176 
L 209.971191 241.180318 
L 212.352 260.431824 
L 213.542382 267.220564 
L 214.732809 272.472513 
L 215.923191 276.584964 
L 217.113618 279.576985 
L 217.708809 280.576362 
L 218.304 281.16306 
L 218.899236 281.244948 
L 219.494427 280.703479 
L 220.089618 279.400109 
L 220.684809 277.19707 
L 221.28 274.002729 
L 222.470382 264.969317 
L 223.660809 255.28505 
L 224.256 251.91967 
L 224.851191 250.242882 
L 225.446382 250.297832 
L 226.041618 251.764173 
L 226.636809 254.161105 
L 230.208 271.27489 
L 231.398427 275.827797 
L 232.588809 279.597741 
L 233.779191 282.435702 
L 234.374382 283.405498 
L 234.969618 283.982926 
L 235.564809 284.062133 
L 236.16 283.50198 
L 236.755191 282.12707 
L 237.350382 279.745631 
L 237.945618 276.197815 
L 238.540809 271.451258 
L 240.326382 254.0426 
L 240.921618 249.957312 
L 241.516809 247.989933 
L 242.112 248.170169 
L 242.707236 250.029077 
L 243.897618 256.24632 
L 245.683191 266.103564 
L 246.873618 271.746966 
L 248.064 276.632468 
L 249.254382 280.821518 
L 250.444809 284.309409 
L 251.635191 286.979093 
L 252.230382 287.915096 
L 252.825618 288.491859 
L 253.420809 288.594336 
L 254.016 288.058291 
L 254.611236 286.660688 
L 255.206427 284.126886 
L 255.801618 280.173809 
L 256.396809 274.625027 
L 258.777618 246.967662 
L 259.372809 244.399861 
L 259.968 244.758471 
L 260.563191 247.273969 
L 264.134382 269.099068 
L 265.324809 274.614298 
L 266.515236 279.3769 
L 267.705618 283.523344 
L 269.491191 288.769451 
L 270.681618 291.699725 
L 271.872 294.209399 
L 273.062382 296.274116 
L 274.252809 297.752291 
L 274.848 298.156069 
L 275.443191 298.209356 
L 276.038382 297.742462 
L 276.633618 296.492587 
L 277.228809 294.075046 
L 277.824 289.976386 
L 278.419236 283.631694 
L 279.014427 274.69618 
L 280.8 242.362625 
L 281.395191 237.452622 
L 281.990382 237.60528 
L 282.585618 241.332598 
L 284.371191 256.742344 
L 285.561618 264.405595 
L 286.752 270.144447 
L 287.942382 274.578414 
L 289.132809 277.862484 
L 289.728 279.026685 
L 290.323236 279.80835 
L 290.918427 280.132252 
L 291.513618 279.900246 
L 292.108809 278.994363 
L 292.704 277.291403 
L 293.299191 274.694593 
L 293.894382 271.188951 
L 296.275191 254.034723 
L 296.870382 251.724191 
L 297.465618 251.00823 
L 298.060809 251.751808 
L 298.656 253.585525 
L 299.846382 258.89946 
L 301.632 267.32951 
L 302.822427 272.243988 
L 304.012809 276.413378 
L 305.203191 279.717989 
L 305.798382 280.97395 
L 306.393618 281.89913 
L 306.988809 282.417324 
L 307.584 282.425389 
L 308.179191 281.79058 
L 308.774382 280.355902 
L 309.369618 277.961577 
L 309.964809 274.497421 
L 311.155191 264.697968 
L 312.345618 254.310308 
L 312.940809 250.828652 
L 313.536 249.235612 
L 314.131236 249.518607 
L 314.726427 251.269372 
L 315.916809 257.032424 
L 317.702382 266.347722 
L 318.892809 271.756898 
L 320.083191 276.4265 
L 321.273618 280.351232 
L 322.464 283.437356 
L 323.059191 284.591766 
L 323.654382 285.412562 
L 324.249618 285.810444 
L 324.844809 285.658854 
L 325.44 284.788001 
L 326.035236 282.987148 
L 326.630427 280.031026 
L 327.225618 275.748041 
L 328.416 263.599457 
L 329.606382 251.220796 
L 330.201618 247.57152 
L 330.796809 246.429193 
L 331.392 247.535047 
L 331.987191 250.17738 
L 335.558382 270.28602 
L 336.748809 275.524996 
L 337.939236 280.068495 
L 339.129618 283.995895 
L 340.32 287.333778 
L 341.510382 290.034189 
L 342.105618 291.092729 
L 342.700809 291.896507 
L 343.296 292.365389 
L 343.891191 292.375645 
L 344.486382 291.742198 
L 345.081618 290.200979 
L 345.676809 287.40669 
L 346.272 282.971869 
L 346.867191 276.601782 
L 348.057618 259.046948 
L 348.652809 250.259669 
L 349.248 243.945774 
L 349.843236 241.34114 
L 350.438427 242.304499 
L 351.033618 245.659997 
L 353.414382 262.711202 
L 354.604809 269.243899 
L 355.795191 274.633565 
L 356.985618 279.159508 
L 358.176 282.910427 
L 359.366382 285.823643 
L 359.961618 286.892543 
L 360.556809 287.623487 
L 361.152 287.917872 
L 361.747236 287.632684 
L 362.342427 286.571485 
L 362.937618 284.485305 
L 363.532809 281.102026 
L 364.128 276.211884 
L 365.318382 262.424477 
L 366.508809 248.972511 
L 367.104 245.468617 
L 367.699191 244.860786 
L 368.294382 246.645169 
L 369.484809 253.755316 
L 371.270382 264.870235 
L 372.460809 270.984081 
L 373.651236 276.225784 
L 374.841618 280.777103 
L 376.627191 286.54744 
L 378.412809 291.269129 
L 380.198382 295.133337 
L 381.984 298.291274 
L 383.769618 300.853928 
L 384.96 302.252988 
L 386.150427 303.363377 
L 386.745618 303.765867 
L 387.340809 304.012956 
L 387.936 304.026353 
L 388.531191 303.672475 
L 389.126382 302.731855 
L 389.721618 300.851763 
L 390.316809 297.499574 
L 390.912 291.955151 
L 391.507191 283.455466 
L 392.102382 271.674524 
L 393.292809 244.141217 
L 393.888 235.187353 
L 394.483191 232.873412 
L 395.078382 236.104066 
L 396.864 253.80578 
L 397.459236 258.302997 
L 398.649618 264.894693 
L 399.84 269.402819 
L 400.435191 271.100421 
L 401.030382 272.459413 
L 401.625618 273.46984 
L 402.220809 274.102966 
L 402.816 274.317291 
L 403.411191 274.063773 
L 404.006382 273.294848 
L 404.601618 271.97858 
L 405.196809 270.119459 
L 406.387191 265.115457 
L 407.577618 259.792015 
L 408.172809 257.735226 
L 408.768 256.415152 
L 409.363236 255.939066 
L 409.958427 256.276576 
L 410.553618 257.292905 
L 411.148809 258.80405 
L 412.339191 262.608365 
L 414.124809 268.498857 
L 414.72 270.23799 
L 414.72 270.23799 
" clip-path="url(#p4e5f885ea4)" style="fill: none; stroke-dasharray: 9.6,2.4,1.5,2.4; stroke-dashoffset: 0; stroke: #ff0000; stroke-width: 1.5"/>
   </g>
   <g id="patch_13">
    <path d="M 57.6 307.584 
L 57.6 229.315765 
" style="fill: none; stroke: #000000; stroke-width: 0.8; stroke-linejoin: miter; stroke-linecap: square"/>
   </g>
   <g id="patch_14">
    <path d="M 414.72 307.584 
L 414.72 229.315765 
" style="fill: none; stroke: #000000; stroke-width: 0.8; stroke-linejoin: miter; stroke-linecap: square"/>
   </g>
   <g id="patch_15">
    <path d="M 57.6 307.584 
L 414.72 307.584 
" style="fill: none; stroke: #000000; stroke-width: 0.8; stroke-linejoin: miter; stroke-linecap: square"/>
   </g>
   <g id="patch_16">
    <path d="M 57.6 229.315765 
L 414.72 229.315765 
" style="fill: none; stroke: #000000; stroke-width: 0.8; stroke-linejoin: miter; stroke-linecap: square"/>
   </g>
  </g>
 </g>
 <defs>
  <clipPath id="p5f9a4f8ac0">
   <rect x="57.6" y="41.472" width="357.12" height="78.268235"/>
  </clipPath>
  <clipPath id="pb74169688a">
   <rect x="57.6" y="135.393882" width="357.12" height="78.268235"/>
  </clipPath>
  <clipPath id="p4e5f885ea4">
   <rect x="57.6" y="229.315765" width="357.12" height="78.268235"/>
  </clipPath>
 </defs>
</svg>
