<?xml version="1.0" encoding="utf-8" standalone="no"?>
<!DOCTYPE svg PUBLIC "-//W3C//DTD SVG 1.1//EN"
  "http://www.w3.org/Graphics/SVG/1.1/DTD/svg11.dtd">
<svg xmlns:xlink="http://www.w3.org/1999/xlink" width="460.8pt" height="345.6pt" viewBox="0 0 460.8 345.6" xmlns="http://www.w3.org/2000/svg" version="1.1">
 <metadata>
  <rdf:RDF xmlns:dc="http://purl.org/dc/elements/1.1/" xmlns:cc="http://creativecommons.org/ns#" xmlns:rdf="http://www.w3.org/1999/02/22-rdf-syntax-ns#">
   <cc:Work>
    <dc:type rdf:resource="http://purl.org/dc/dcmitype/StillImage"/>
    <dc:date>2023-12-13T17:02:12.848502</dc:date>
    <dc:format>image/svg+xml</dc:format>
    <dc:creator>
     <cc:Agent>
      <dc:title>Matplotlib v3.7.3, https://matplotlib.org/</dc:title>
     </cc:Agent>
    </dc:creator>
   </cc:Work>
  </rdf:RDF>
 </metadata>
 <defs>
  <style type="text/css">*{stroke-linejoin: round; stroke-linecap: butt}</style>
 </defs>
 <g id="figure_1">
  <g id="patch_1">
   <path d="M 0 345.6 
L 460.8 345.6 
L 460.8 0 
L 0 0 
z
" style="fill: #ffffff"/>
  </g>
  <g id="axes_1">
   <g id="patch_2">
    <path d="M 57.6 119.740235 
L 414.72 119.740235 
L 414.72 41.472 
L 57.6 41.472 
z
" style="fill: #ffffff"/>
   </g>
   <g id="matplotlib.axis_1">
    <g id="xtick_1">
     <g id="line2d_1">
      <defs>
       <path id="m9cdb8e12ae" d="M 0 0 
L 0 3.5 
" style="stroke: #000000; stroke-width: 0.8"/>
      </defs>
      <g>
       <use xlink:href="#m9cdb8e12ae" x="57.6" y="119.740235" style="stroke: #000000; stroke-width: 0.8"/>
      </g>
     </g>
    </g>
    <g id="xtick_2">
     <g id="line2d_2">
      <g>
       <use xlink:href="#m9cdb8e12ae" x="105.216" y="119.740235" style="stroke: #000000; stroke-width: 0.8"/>
      </g>
     </g>
    </g>
    <g id="xtick_3">
     <g id="line2d_3">
      <g>
       <use xlink:href="#m9cdb8e12ae" x="152.832" y="119.740235" style="stroke: #000000; stroke-width: 0.8"/>
      </g>
     </g>
    </g>
    <g id="xtick_4">
     <g id="line2d_4">
      <g>
       <use xlink:href="#m9cdb8e12ae" x="200.448" y="119.740235" style="stroke: #000000; stroke-width: 0.8"/>
      </g>
     </g>
    </g>
    <g id="xtick_5">
     <g id="line2d_5">
      <g>
       <use xlink:href="#m9cdb8e12ae" x="248.064" y="119.740235" style="stroke: #000000; stroke-width: 0.8"/>
      </g>
     </g>
    </g>
    <g id="xtick_6">
     <g id="line2d_6">
      <g>
       <use xlink:href="#m9cdb8e12ae" x="295.68" y="119.740235" style="stroke: #000000; stroke-width: 0.8"/>
      </g>
     </g>
    </g>
    <g id="xtick_7">
     <g id="line2d_7">
      <g>
       <use xlink:href="#m9cdb8e12ae" x="343.296" y="119.740235" style="stroke: #000000; stroke-width: 0.8"/>
      </g>
     </g>
    </g>
    <g id="xtick_8">
     <g id="line2d_8">
      <g>
       <use xlink:href="#m9cdb8e12ae" x="390.912" y="119.740235" style="stroke: #000000; stroke-width: 0.8"/>
      </g>
     </g>
    </g>
    <g id="xtick_9">
     <g id="line2d_9">
      <g>
       <use xlink:href="#m9cdb8e12ae" x="414.72" y="119.740235" style="stroke: #000000; stroke-width: 0.8"/>
      </g>
     </g>
    </g>
   </g>
   <g id="matplotlib.axis_2">
    <g id="ytick_1">
     <g id="line2d_10">
      <defs>
       <path id="ma076baded1" d="M 0 0 
L -3.5 0 
" style="stroke: #000000; stroke-width: 0.8"/>
      </defs>
      <g>
       <use xlink:href="#ma076baded1" x="57.6" y="100.725872" style="stroke: #000000; stroke-width: 0.8"/>
      </g>
     </g>
     <g id="text_1">
      <!-- −10 -->
      <g transform="translate(29.495313 104.52509) scale(0.1 -0.1)">
       <defs>
        <path id="DejaVuSans-2212" d="M 678 2272 
L 4684 2272 
L 4684 1741 
L 678 1741 
L 678 2272 
z
" transform="scale(0.015625)"/>
        <path id="DejaVuSans-31" d="M 794 531 
L 1825 531 
L 1825 4091 
L 703 3866 
L 703 4441 
L 1819 4666 
L 2450 4666 
L 2450 531 
L 3481 531 
L 3481 0 
L 794 0 
L 794 531 
z
" transform="scale(0.015625)"/>
        <path id="DejaVuSans-30" d="M 2034 4250 
Q 1547 4250 1301 3770 
Q 1056 3291 1056 2328 
Q 1056 1369 1301 889 
Q 1547 409 2034 409 
Q 2525 409 2770 889 
Q 3016 1369 3016 2328 
Q 3016 3291 2770 3770 
Q 2525 4250 2034 4250 
z
M 2034 4750 
Q 2819 4750 3233 4129 
Q 3647 3509 3647 2328 
Q 3647 1150 3233 529 
Q 2819 -91 2034 -91 
Q 1250 -91 836 529 
Q 422 1150 422 2328 
Q 422 3509 836 4129 
Q 1250 4750 2034 4750 
z
" transform="scale(0.015625)"/>
       </defs>
       <use xlink:href="#DejaVuSans-2212"/>
       <use xlink:href="#DejaVuSans-31" x="83.789062"/>
       <use xlink:href="#DejaVuSans-30" x="147.412109"/>
      </g>
     </g>
    </g>
    <g id="ytick_2">
     <g id="line2d_11">
      <g>
       <use xlink:href="#ma076baded1" x="57.6" y="80.660973" style="stroke: #000000; stroke-width: 0.8"/>
      </g>
     </g>
     <g id="text_2">
      <!-- 0 -->
      <g transform="translate(44.2375 84.460191) scale(0.1 -0.1)">
       <use xlink:href="#DejaVuSans-30"/>
      </g>
     </g>
    </g>
    <g id="ytick_3">
     <g id="line2d_12">
      <g>
       <use xlink:href="#ma076baded1" x="57.6" y="60.596073" style="stroke: #000000; stroke-width: 0.8"/>
      </g>
     </g>
     <g id="text_3">
      <!-- 10 -->
      <g transform="translate(37.875 64.395292) scale(0.1 -0.1)">
       <use xlink:href="#DejaVuSans-31"/>
       <use xlink:href="#DejaVuSans-30" x="63.623047"/>
      </g>
     </g>
    </g>
   </g>
   <g id="line2d_13">
    <path d="M 57.6 86.368187 
L 58.7904 88.300931 
L 59.9808 91.402963 
L 61.1712 95.764916 
L 64.1472 109.515795 
L 64.7424 110.203925 
L 65.3376 109.458653 
L 65.9328 107.21457 
L 67.1232 100.115816 
L 68.3136 92.61388 
L 68.9088 89.63177 
L 69.504 87.23229 
L 70.0992 85.356818 
L 70.6944 83.95877 
L 71.2896 82.971028 
L 71.8848 82.289632 
L 73.0752 81.488456 
L 73.6704 81.264087 
L 74.8608 81.083629 
L 77.8368 81.346837 
L 79.0272 81.643527 
L 80.8128 82.592586 
L 82.0032 83.755978 
L 82.5984 84.607414 
L 83.1936 85.72873 
L 83.7888 87.172559 
L 84.384 88.927752 
L 84.9792 91.13841 
L 85.5744 93.989251 
L 86.7648 101.722694 
L 87.9552 110.996223 
L 88.5504 114.569861 
L 89.1456 116.182588 
L 89.7408 115.08293 
L 90.336 111.14061 
L 92.7168 87.812172 
L 93.312 83.729873 
L 93.9072 80.493143 
L 94.5024 78.054778 
L 95.0976 76.122633 
L 96.288 73.467219 
L 98.0736 70.155339 
L 98.6688 69.004723 
L 100.4544 64.370277 
L 102.24 59.174184 
L 102.8352 57.761967 
L 103.4304 56.804111 
L 104.0256 56.506094 
L 104.6208 56.908562 
L 105.216 57.901905 
L 105.8112 59.465062 
L 108.7872 68.748518 
L 109.3824 69.960942 
L 109.9776 70.853691 
L 110.5728 71.422987 
L 111.168 71.722978 
L 111.7632 71.726887 
L 112.3584 71.43683 
L 112.9536 70.928189 
L 113.5488 70.190991 
L 114.144 69.205455 
L 115.3344 66.549663 
L 118.9056 56.428103 
L 119.5008 55.817146 
L 120.096 56.013112 
L 120.6912 56.981875 
L 121.2864 58.620404 
L 124.2624 69.012895 
L 124.8576 70.417945 
L 125.4528 71.522347 
L 126.6432 72.636702 
L 127.8336 72.509535 
L 128.4288 72.090482 
L 129.024 71.464934 
L 129.6192 70.594466 
L 130.8096 68.046918 
L 132 64.643409 
L 133.7856 58.252607 
L 134.3808 56.588368 
L 134.976 55.321702 
L 135.5712 54.904951 
L 136.1664 55.411895 
L 136.7616 56.703868 
L 137.3568 58.773969 
L 139.7376 68.486499 
L 140.3328 70.267346 
L 140.928 71.646943 
L 141.5232 72.702105 
L 142.1184 73.390571 
L 142.7136 73.790596 
L 143.3088 73.862657 
L 143.904 73.659525 
L 144.4992 73.281754 
L 145.6896 71.775879 
L 146.2848 70.658523 
L 147.4752 67.633771 
L 148.6656 63.516628 
L 150.4512 56.51981 
L 151.0464 54.766001 
L 151.6416 53.87909 
L 152.2368 53.969973 
L 152.832 55.145581 
L 153.4272 57.277802 
L 156.4032 70.652861 
L 156.9984 72.343381 
L 157.5936 73.594211 
L 158.1888 74.582833 
L 158.784 75.107287 
L 159.3792 75.41977 
L 159.9744 75.452285 
L 160.5696 75.293919 
L 161.1648 74.884061 
L 161.76 74.301571 
L 162.3552 73.470775 
L 162.9504 72.413912 
L 163.5456 71.126056 
L 164.736 67.61998 
L 165.9264 62.804079 
L 167.712 54.720981 
L 168.3072 52.900035 
L 168.9024 52.105428 
L 169.4976 52.720132 
L 170.0928 54.667931 
L 171.2832 60.994714 
L 172.4736 67.831402 
L 173.664 72.900942 
L 174.2592 74.685437 
L 174.8544 75.999681 
L 175.4496 76.873683 
L 176.0448 77.472129 
L 176.64 77.824186 
L 177.2352 78.036752 
L 178.4256 77.889969 
L 179.616 77.196131 
L 180.2112 76.699241 
L 180.8064 76.0161 
L 181.9968 74.04131 
L 183.1872 70.901727 
L 184.3776 66.111701 
L 185.568 59.685571 
L 186.7584 52.787075 
L 187.3536 50.231323 
L 187.9488 49.181224 
L 188.544 50.005249 
L 189.1392 52.638527 
L 190.3296 61.343716 
L 191.52 69.973897 
L 192.1152 73.357532 
L 192.7104 76.059642 
L 193.3056 78.19264 
L 194.496 80.914757 
L 195.6864 82.499783 
L 198.0672 84.9359 
L 199.2576 86.769426 
L 199.8528 87.81838 
L 201.0432 90.870042 
L 202.2336 95.467528 
L 203.424 101.333884 
L 204.6144 107.614916 
L 205.2096 109.798082 
L 205.8048 110.834704 
L 206.4 110.187113 
L 206.9952 107.850222 
L 207.5904 104.445109 
L 209.376 92.48137 
L 209.9712 89.26863 
L 210.5664 86.719768 
L 211.1616 84.702793 
L 212.352 82.225063 
L 213.5424 80.834414 
L 214.7328 80.08529 
L 215.328 79.87212 
L 217.1136 78.936927 
L 217.7088 78.655179 
L 218.8992 77.639624 
L 219.4944 77.016651 
L 220.0896 76.194005 
L 221.28 73.804163 
L 221.8752 72.101603 
L 222.4704 70.047056 
L 223.6608 64.23936 
L 224.8512 56.595443 
L 225.4464 52.485195 
L 226.0416 49.293121 
L 226.6368 47.407533 
L 227.232 47.800512 
L 227.8272 50.535062 
L 228.4224 54.925334 
L 230.208 70.465304 
L 230.8032 74.45271 
L 231.3984 77.562431 
L 231.9936 79.963338 
L 232.5888 81.852801 
L 233.7792 84.377727 
L 234.9696 86.283538 
L 236.16 88.119924 
L 237.3504 90.543306 
L 238.5408 93.90124 
L 239.7312 98.270085 
L 241.5168 105.35585 
L 242.112 106.959802 
L 242.7072 107.692784 
L 243.3024 107.378403 
L 243.8976 105.987996 
L 244.4928 103.639247 
L 246.8736 92.230916 
L 247.4688 90.138707 
L 248.064 88.468418 
L 248.6592 87.190026 
L 249.2544 86.343043 
L 250.4448 85.572128 
L 251.04 85.537852 
L 251.6352 85.716258 
L 252.2304 86.084546 
L 252.8256 86.702394 
L 254.016 88.609866 
L 254.6112 89.877196 
L 255.2064 91.443814 
L 256.3968 95.661167 
L 259.3728 108.622024 
L 259.968 109.482164 
L 260.5632 109.02616 
L 261.1584 107.150836 
L 261.7536 104.196102 
L 263.5392 93.584346 
L 264.1344 90.608303 
L 264.7296 88.314963 
L 265.3248 86.464702 
L 265.92 85.091374 
L 267.1104 83.37303 
L 267.7056 82.950899 
L 268.3008 82.743603 
L 268.896 82.658503 
L 269.4912 82.709074 
L 271.2768 83.542897 
L 271.872 84.016071 
L 273.0624 85.521268 
L 273.6576 86.506824 
L 274.2528 87.843282 
L 275.4432 91.48398 
L 276.0384 93.984125 
L 277.2288 100.343307 
L 278.4192 107.82907 
L 279.0144 110.941041 
L 279.6096 112.77037 
L 280.2048 112.561719 
L 280.8 110.326416 
L 281.3952 106.414199 
L 283.1808 92.182517 
L 283.776 88.235571 
L 284.3712 85.209095 
L 284.9664 82.805823 
L 285.5616 81.059901 
L 286.752 78.632078 
L 289.728 74.63771 
L 290.3232 73.667076 
L 291.5136 71.009903 
L 292.704 67.228 
L 293.2992 64.906121 
L 295.68 54.017266 
L 296.2752 52.354377 
L 296.8704 51.908231 
L 297.4656 52.845101 
L 298.0608 55.082565 
L 299.2512 61.846244 
L 300.4416 68.645734 
L 301.0368 71.400853 
L 301.632 73.628737 
L 302.2272 75.290368 
L 302.8224 76.497759 
L 303.4176 77.333936 
L 304.0128 77.958346 
L 304.608 78.287825 
L 305.7984 78.512812 
L 306.3936 78.40691 
L 307.584 77.828681 
L 308.1792 77.444932 
L 308.7744 76.894667 
L 309.3696 76.136345 
L 310.56 73.915889 
L 311.1552 72.512468 
L 312.3456 68.360459 
L 312.9408 65.672531 
L 314.1312 58.782864 
L 315.3216 51.68285 
L 315.9168 49.257629 
L 316.512 48.573959 
L 317.1072 49.937699 
L 317.7024 53.187869 
L 320.6784 74.750612 
L 321.2736 77.353887 
L 321.8688 79.428928 
L 323.0592 82.045882 
L 324.2496 83.682406 
L 326.6304 86.803007 
L 327.2256 87.832595 
L 328.416 90.671971 
L 329.0112 92.478067 
L 330.2016 97.154846 
L 332.5824 108.087896 
L 333.1776 109.428822 
L 333.7728 109.526896 
L 334.368 108.133155 
L 334.9632 105.446831 
L 337.9392 88.930278 
L 338.5344 86.815021 
L 339.1296 85.249928 
L 339.7248 84.12465 
L 340.32 83.339386 
L 341.5104 82.438197 
L 342.7008 82.321178 
L 343.8912 82.542928 
L 344.4864 82.737069 
L 345.0816 83.070768 
L 346.272 84.138356 
L 347.4624 85.759394 
L 348.0576 86.931058 
L 348.6528 88.396286 
L 349.248 90.193701 
L 350.4384 95.253453 
L 351.6288 102.385262 
L 352.8192 110.031479 
L 353.4144 112.640534 
L 354.0096 113.52017 
L 354.6048 112.21261 
L 355.2 108.809697 
L 357.5808 89.498182 
L 358.176 85.955517 
L 358.7712 83.177592 
L 359.3664 81.079719 
L 359.9616 79.511129 
L 361.152 77.287313 
L 364.128 72.687934 
L 365.3184 69.856735 
L 366.5088 66.031276 
L 367.6992 61.020325 
L 368.8896 55.964263 
L 369.4848 53.987431 
L 370.08 53.00875 
L 370.6752 53.095207 
L 371.2704 54.42613 
L 371.8656 56.831982 
L 374.2464 69.210714 
L 375.4368 73.466295 
L 376.6272 75.771461 
L 377.2224 76.380945 
L 377.8176 76.75585 
L 378.4128 76.896138 
L 379.008 76.805649 
L 379.6032 76.577052 
L 380.1984 76.189771 
L 380.7936 75.601194 
L 381.984 73.836668 
L 382.5792 72.641355 
L 383.1744 71.140399 
L 384.3648 67.035777 
L 385.5552 61.439242 
L 386.7456 55.078229 
L 387.3408 52.475716 
L 387.936 50.927672 
L 388.5312 50.81893 
L 389.1264 52.300319 
L 389.7216 55.217743 
L 392.1024 70.502341 
L 393.2928 75.603598 
L 393.888 77.264247 
L 394.4832 78.445462 
L 395.6736 80.037299 
L 397.4592 81.029525 
L 398.6496 81.486128 
L 399.84 81.872167 
L 401.0304 82.544017 
L 402.2208 83.52411 
L 403.4112 84.974266 
L 404.0064 86.07433 
L 404.6016 87.456079 
L 405.1968 89.151619 
L 405.792 91.329051 
L 406.3872 93.997241 
L 407.5776 101.146529 
L 408.768 109.573698 
L 409.3632 112.887776 
L 409.9584 114.590497 
L 410.5536 113.851283 
L 411.1488 110.801888 
L 412.3392 100.269581 
L 413.5296 89.900684 
L 414.1248 85.780786 
L 414.72 82.780803 
L 414.72 82.780803 
" clip-path="url(#p9382d3af72)" style="fill: none; stroke: #0000cc; stroke-width: 1.5; stroke-linecap: square"/>
   </g>
   <g id="line2d_14">
    <path d="M 57.6 86.368187 
L 58.790405 88.358415 
L 59.385595 89.736679 
L 59.980809 91.423195 
L 61.171191 95.866889 
L 62.361595 101.645611 
L 63.552 107.479409 
L 64.147191 109.47516 
L 64.742405 110.234395 
L 65.337595 109.467849 
L 65.932809 107.216001 
L 67.123191 99.977183 
L 68.313595 92.542755 
L 68.908809 89.547539 
L 69.504 87.146159 
L 70.099191 85.301049 
L 70.694405 83.93141 
L 71.289595 82.943789 
L 71.884809 82.249907 
L 72.48 81.774722 
L 73.670405 81.256178 
L 74.860809 81.071654 
L 76.646405 81.107021 
L 78.432 81.40576 
L 79.622405 81.796535 
L 80.812809 82.442083 
L 82.003191 83.508054 
L 82.598405 84.280433 
L 83.193595 85.275709 
L 83.788809 86.557598 
L 84.384 88.204917 
L 84.979191 90.310887 
L 85.574405 92.976278 
L 86.169595 96.288891 
L 87.36 104.818593 
L 88.550405 113.599153 
L 89.145595 116.011633 
L 89.740809 115.82472 
L 90.336 112.741116 
L 91.526405 101.075289 
L 92.716809 89.405443 
L 93.312 84.923212 
L 93.907191 81.408637 
L 94.502405 78.723219 
L 95.097595 76.678547 
L 96.288 73.789473 
L 99.264 67.938919 
L 100.454405 64.862162 
L 102.835191 58.206556 
L 103.430405 57.130197 
L 104.025595 56.613602 
L 104.620809 56.762461 
L 105.216 57.588043 
L 105.811191 58.996577 
L 107.001595 62.82585 
L 108.192 66.696783 
L 109.382405 69.593968 
L 109.977595 70.564502 
L 110.572809 71.217958 
L 111.168 71.572524 
L 111.763191 71.649104 
L 112.358405 71.465908 
L 112.953595 71.035744 
L 113.548809 70.365466 
L 114.144 69.457243 
L 115.334405 66.932696 
L 116.524809 63.557602 
L 118.310405 58.074202 
L 118.905595 56.735252 
L 119.500809 55.973448 
L 120.096 55.941273 
L 120.691191 56.687336 
L 121.286405 58.13208 
L 122.476809 62.309164 
L 123.667191 66.663917 
L 124.857595 69.979647 
L 125.452809 71.115588 
L 126.048 71.908682 
L 126.643191 72.383281 
L 127.238405 72.566867 
L 127.833595 72.483389 
L 128.428809 72.149744 
L 129.024 71.574627 
L 129.619191 70.759125 
L 130.214405 69.698896 
L 131.404809 66.82611 
L 132.595191 63.030465 
L 134.380809 57.008647 
L 134.976 55.65173 
L 135.571191 55.014037 
L 136.166405 55.251527 
L 136.761595 56.378038 
L 137.356809 58.249818 
L 140.332809 69.771855 
L 140.928 71.271176 
L 141.523191 72.385628 
L 142.118405 73.143286 
L 142.713595 73.580711 
L 143.308809 73.732994 
L 143.904 73.627893 
L 144.499191 73.283175 
L 145.094405 72.706004 
L 145.689595 71.893696 
L 146.284809 70.835678 
L 146.88 69.516933 
L 148.070405 66.05221 
L 149.260809 61.599886 
L 150.451191 56.964688 
L 151.046405 55.144063 
L 151.641595 54.057921 
L 152.236809 53.953859 
L 152.832 54.92304 
L 153.427191 56.851708 
L 154.617595 62.364274 
L 155.808 67.889272 
L 156.403191 70.132205 
L 156.998405 71.933486 
L 157.593595 73.300871 
L 158.188809 74.273281 
L 158.784 74.90095 
L 159.379191 75.232984 
L 159.974405 75.309909 
L 160.569595 75.160342 
L 161.164809 74.800118 
L 161.76 74.232555 
L 162.355191 73.449415 
L 162.950405 72.432438 
L 163.545595 71.155643 
L 164.140809 69.58925 
L 165.331191 65.496544 
L 168.307191 53.118563 
L 168.902405 52.304475 
L 169.497595 52.789845 
L 170.092809 54.573857 
L 170.688 57.379838 
L 173.068809 70.307282 
L 173.664 72.60196 
L 174.259191 74.382728 
L 174.854405 75.703068 
L 175.449595 76.634196 
L 176.044809 77.248432 
L 176.64 77.609093 
L 177.235191 77.765762 
L 177.830405 77.753723 
L 178.425595 77.594676 
L 179.020809 77.297851 
L 179.616 76.86127 
L 180.211191 76.272614 
L 180.806405 75.509606 
L 181.401595 74.540182 
L 181.996809 73.322752 
L 182.592 71.807277 
L 183.187191 69.938618 
L 184.377595 64.952942 
L 185.568 58.389127 
L 186.758405 51.917287 
L 187.353595 49.958099 
L 187.948809 49.609408 
L 188.544 51.117971 
L 189.139191 54.273884 
L 191.52 71.085391 
L 192.115191 74.162262 
L 192.710405 76.570098 
L 193.305595 78.400466 
L 193.900809 79.76851 
L 194.496 80.789324 
L 195.686405 82.191251 
L 198.067191 84.36626 
L 199.257595 85.902424 
L 199.852809 86.929866 
L 200.448 88.194231 
L 201.043191 89.749687 
L 201.638382 91.652378 
L 202.828809 96.67518 
L 205.209618 109.391275 
L 205.804809 111.181447 
L 206.4 111.382104 
L 206.995191 109.778171 
L 207.590382 106.600823 
L 209.971191 90.186689 
L 210.566382 87.211462 
L 211.161618 84.884665 
L 211.756809 83.120041 
L 212.352 81.805287 
L 212.947191 80.828079 
L 214.137618 79.5062 
L 217.113618 76.979898 
L 218.304 75.389164 
L 218.899191 74.308678 
L 219.494382 72.971023 
L 220.089618 71.318212 
L 220.684809 69.290018 
L 221.875191 63.927006 
L 224.256 50.826545 
L 224.851191 49.346311 
L 225.446382 49.665071 
L 226.041618 51.876769 
L 226.636809 55.597597 
L 228.422382 68.955072 
L 229.017618 72.532948 
L 229.612809 75.406147 
L 230.208 77.624963 
L 230.803191 79.301365 
L 231.398382 80.556115 
L 232.588809 82.253061 
L 235.564809 85.402016 
L 236.755191 87.331944 
L 237.350382 88.625672 
L 237.945618 90.207211 
L 238.540809 92.128481 
L 239.731191 97.132183 
L 242.112 109.217702 
L 242.707191 110.740885 
L 243.302382 110.725656 
L 243.897618 109.022948 
L 244.492809 105.892167 
L 246.873618 90.297478 
L 247.468809 87.494841 
L 248.064 85.307146 
L 248.659191 83.654995 
L 249.254382 82.435255 
L 249.849618 81.545068 
L 251.04 80.407157 
L 252.230382 79.703275 
L 254.016 78.757343 
L 255.206382 77.879623 
L 256.396809 76.546995 
L 256.992 75.619106 
L 257.587191 74.452525 
L 258.182382 72.986846 
L 258.777618 71.152628 
L 259.372809 68.87651 
L 260.563191 62.783751 
L 262.348809 51.304959 
L 262.944 48.597201 
L 263.539191 47.667529 
L 264.134382 48.964978 
L 264.729618 52.355556 
L 267.110382 71.84401 
L 267.705618 75.418673 
L 268.300809 78.209469 
L 268.896 80.340139 
L 269.491191 81.959694 
L 270.681618 84.22185 
L 273.062382 87.778461 
L 274.252809 90.197214 
L 275.443191 93.56299 
L 276.633618 98.043104 
L 278.419191 105.571042 
L 279.014382 107.374752 
L 279.609618 108.264366 
L 280.204809 107.992799 
L 280.8 106.523511 
L 281.395191 104.0665 
L 283.776 91.943757 
L 284.371191 89.693375 
L 284.966382 87.929861 
L 285.561618 86.617123 
L 286.156809 85.695854 
L 286.752 85.102636 
L 287.347191 84.78096 
L 287.942382 84.686394 
L 288.537618 84.788264 
L 289.132809 85.069567 
L 289.728 85.526148 
L 290.323191 86.165717 
L 290.918382 87.006916 
L 291.513618 88.078319 
L 292.108809 89.416849 
L 292.704 91.06463 
L 293.894382 95.437601 
L 295.084809 101.214344 
L 296.275191 107.238113 
L 296.870382 109.424614 
L 297.465618 110.41254 
L 298.060809 109.863688 
L 298.656 107.764045 
L 299.846382 100.543987 
L 301.036809 92.889458 
L 301.632 89.767411 
L 302.227191 87.250408 
L 302.822382 85.306694 
L 303.417618 83.855595 
L 304.012809 82.800755 
L 304.608 82.049672 
L 305.203191 81.522841 
L 306.393618 80.900711 
L 307.584 80.585602 
L 311.750382 79.792601 
L 312.940809 79.322728 
L 314.131191 78.55796 
L 314.726382 78.006153 
L 315.321618 77.295788 
L 315.916809 76.380227 
L 316.512 75.200077 
L 317.107191 73.681132 
L 317.702382 71.733902 
L 318.297618 69.257669 
L 318.892809 66.155067 
L 320.083191 57.953385 
L 321.273618 48.778593 
L 321.868809 45.706926 
L 322.464 45.029647 
L 323.059191 47.243568 
L 323.654382 51.979927 
L 325.44 70.375315 
L 326.035191 75.218543 
L 326.630382 79.069996 
L 327.225618 82.016564 
L 327.820809 84.261574 
L 328.416 85.993178 
L 329.606382 88.565196 
L 331.392 91.938236 
L 332.582382 94.635775 
L 334.368 99.577623 
L 335.558382 102.727308 
L 336.153618 103.853458 
L 336.748809 104.465982 
L 337.344 104.451077 
L 337.939191 103.778438 
L 338.534382 102.517719 
L 339.724809 98.89345 
L 340.915191 95.0765 
L 342.105618 92.136323 
L 342.700809 91.129063 
L 343.296 90.436342 
L 343.891191 90.043043 
L 344.486382 89.929727 
L 345.081618 90.078469 
L 345.676809 90.475899 
L 346.272 91.114021 
L 346.867191 91.989119 
L 348.057618 94.437351 
L 349.248 97.71306 
L 351.033618 103.029339 
L 351.628809 104.336741 
L 352.224 105.097038 
L 352.819191 105.163269 
L 353.414382 104.483448 
L 354.009618 103.125654 
L 355.2 99.125266 
L 356.390382 94.888764 
L 357.580809 91.62933 
L 358.176 90.506816 
L 358.771191 89.722045 
L 359.366382 89.253367 
L 359.961618 89.075334 
L 360.556809 89.165361 
L 361.152 89.507237 
L 361.747191 90.092267 
L 362.342382 90.918587 
L 362.937618 91.988799 
L 364.128 94.865788 
L 365.318382 98.607197 
L 366.508809 102.622411 
L 367.104 104.330465 
L 367.699191 105.538554 
L 368.294382 106.032633 
L 368.889618 105.683068 
L 369.484809 104.496872 
L 370.08 102.626007 
L 372.460809 93.359195 
L 373.056 91.577205 
L 373.651191 90.173934 
L 374.246382 89.143928 
L 374.841618 88.460535 
L 375.436809 88.090008 
L 376.032 88.000718 
L 376.627191 88.168306 
L 377.222382 88.57794 
L 377.817618 89.224602 
L 378.412809 90.111952 
L 379.008 91.249799 
L 380.198382 94.318638 
L 381.388809 98.395953 
L 383.174382 104.927293 
L 383.769618 106.390347 
L 384.364809 107.046773 
L 384.96 106.719655 
L 385.555191 105.400724 
L 386.150382 103.268155 
L 388.531191 92.730556 
L 389.126382 90.737165 
L 389.721618 89.171139 
L 390.316809 88.01431 
L 390.912 87.226183 
L 391.507191 86.760385 
L 392.102382 86.574854 
L 392.697618 86.637183 
L 393.292809 86.926823 
L 393.888 87.435431 
L 394.483191 88.166146 
L 395.078382 89.132107 
L 395.673618 90.354039 
L 396.864 93.65983 
L 398.054382 98.164418 
L 399.84 105.766783 
L 400.435191 107.568681 
L 401.030382 108.427914 
L 401.625618 108.096865 
L 402.220809 106.548253 
L 402.816 104.008131 
L 405.196809 91.715694 
L 405.792 89.46183 
L 406.387191 87.700856 
L 406.982382 86.392514 
L 407.577618 85.474543 
L 408.172809 84.881592 
L 408.768 84.555925 
L 409.363191 84.452291 
L 409.958382 84.539378 
L 410.553618 84.799579 
L 411.148809 85.228083 
L 411.744 85.831874 
L 412.339191 86.628865 
L 412.934382 87.647088 
L 413.529618 88.923486 
L 414.124809 90.501481 
L 414.72 92.425703 
L 414.72 92.425703 
" clip-path="url(#p9382d3af72)" style="fill: none; stroke-dasharray: 9.6,2.4,1.5,2.4; stroke-dashoffset: 0; stroke: #ff0000; stroke-width: 1.5"/>
   </g>
   <g id="patch_3">
    <path d="M 57.6 119.740235 
L 57.6 41.472 
" style="fill: none; stroke: #000000; stroke-width: 0.8; stroke-linejoin: miter; stroke-linecap: square"/>
   </g>
   <g id="patch_4">
    <path d="M 414.72 119.740235 
L 414.72 41.472 
" style="fill: none; stroke: #000000; stroke-width: 0.8; stroke-linejoin: miter; stroke-linecap: square"/>
   </g>
   <g id="patch_5">
    <path d="M 57.6 119.740235 
L 414.72 119.740235 
" style="fill: none; stroke: #000000; stroke-width: 0.8; stroke-linejoin: miter; stroke-linecap: square"/>
   </g>
   <g id="patch_6">
    <path d="M 57.6 41.472 
L 414.72 41.472 
" style="fill: none; stroke: #000000; stroke-width: 0.8; stroke-linejoin: miter; stroke-linecap: square"/>
   </g>
  </g>
  <g id="axes_2">
   <g id="patch_7">
    <path d="M 57.6 213.662118 
L 414.72 213.662118 
L 414.72 135.393882 
L 57.6 135.393882 
z
" style="fill: #ffffff"/>
   </g>
   <g id="matplotlib.axis_3">
    <g id="xtick_10">
     <g id="line2d_15">
      <g>
       <use xlink:href="#m9cdb8e12ae" x="57.6" y="213.662118" style="stroke: #000000; stroke-width: 0.8"/>
      </g>
     </g>
    </g>
    <g id="xtick_11">
     <g id="line2d_16">
      <g>
       <use xlink:href="#m9cdb8e12ae" x="105.216" y="213.662118" style="stroke: #000000; stroke-width: 0.8"/>
      </g>
     </g>
    </g>
    <g id="xtick_12">
     <g id="line2d_17">
      <g>
       <use xlink:href="#m9cdb8e12ae" x="152.832" y="213.662118" style="stroke: #000000; stroke-width: 0.8"/>
      </g>
     </g>
    </g>
    <g id="xtick_13">
     <g id="line2d_18">
      <g>
       <use xlink:href="#m9cdb8e12ae" x="200.448" y="213.662118" style="stroke: #000000; stroke-width: 0.8"/>
      </g>
     </g>
    </g>
    <g id="xtick_14">
     <g id="line2d_19">
      <g>
       <use xlink:href="#m9cdb8e12ae" x="248.064" y="213.662118" style="stroke: #000000; stroke-width: 0.8"/>
      </g>
     </g>
    </g>
    <g id="xtick_15">
     <g id="line2d_20">
      <g>
       <use xlink:href="#m9cdb8e12ae" x="295.68" y="213.662118" style="stroke: #000000; stroke-width: 0.8"/>
      </g>
     </g>
    </g>
    <g id="xtick_16">
     <g id="line2d_21">
      <g>
       <use xlink:href="#m9cdb8e12ae" x="343.296" y="213.662118" style="stroke: #000000; stroke-width: 0.8"/>
      </g>
     </g>
    </g>
    <g id="xtick_17">
     <g id="line2d_22">
      <g>
       <use xlink:href="#m9cdb8e12ae" x="390.912" y="213.662118" style="stroke: #000000; stroke-width: 0.8"/>
      </g>
     </g>
    </g>
    <g id="xtick_18">
     <g id="line2d_23">
      <g>
       <use xlink:href="#m9cdb8e12ae" x="414.72" y="213.662118" style="stroke: #000000; stroke-width: 0.8"/>
      </g>
     </g>
    </g>
   </g>
   <g id="matplotlib.axis_4">
    <g id="ytick_4">
     <g id="line2d_24">
      <g>
       <use xlink:href="#ma076baded1" x="57.6" y="204.622064" style="stroke: #000000; stroke-width: 0.8"/>
      </g>
     </g>
     <g id="text_4">
      <!-- −20 -->
      <g transform="translate(29.495313 208.421283) scale(0.1 -0.1)">
       <defs>
        <path id="DejaVuSans-32" d="M 1228 531 
L 3431 531 
L 3431 0 
L 469 0 
L 469 531 
Q 828 903 1448 1529 
Q 2069 2156 2228 2338 
Q 2531 2678 2651 2914 
Q 2772 3150 2772 3378 
Q 2772 3750 2511 3984 
Q 2250 4219 1831 4219 
Q 1534 4219 1204 4116 
Q 875 4013 500 3803 
L 500 4441 
Q 881 4594 1212 4672 
Q 1544 4750 1819 4750 
Q 2544 4750 2975 4387 
Q 3406 4025 3406 3419 
Q 3406 3131 3298 2873 
Q 3191 2616 2906 2266 
Q 2828 2175 2409 1742 
Q 1991 1309 1228 531 
z
" transform="scale(0.015625)"/>
       </defs>
       <use xlink:href="#DejaVuSans-2212"/>
       <use xlink:href="#DejaVuSans-32" x="83.789062"/>
       <use xlink:href="#DejaVuSans-30" x="147.412109"/>
      </g>
     </g>
    </g>
    <g id="ytick_5">
     <g id="line2d_25">
      <g>
       <use xlink:href="#ma076baded1" x="57.6" y="174.578088" style="stroke: #000000; stroke-width: 0.8"/>
      </g>
     </g>
     <g id="text_5">
      <!-- 0 -->
      <g transform="translate(44.2375 178.377307) scale(0.1 -0.1)">
       <use xlink:href="#DejaVuSans-30"/>
      </g>
     </g>
    </g>
    <g id="ytick_6">
     <g id="line2d_26">
      <g>
       <use xlink:href="#ma076baded1" x="57.6" y="144.534112" style="stroke: #000000; stroke-width: 0.8"/>
      </g>
     </g>
     <g id="text_6">
      <!-- 20 -->
      <g transform="translate(37.875 148.33333) scale(0.1 -0.1)">
       <use xlink:href="#DejaVuSans-32"/>
       <use xlink:href="#DejaVuSans-30" x="63.623047"/>
      </g>
     </g>
    </g>
   </g>
   <g id="line2d_27">
    <path d="M 57.6 181.136218 
L 58.1952 182.406773 
L 58.7904 183.951519 
L 59.9808 188.151948 
L 61.1712 193.65173 
L 62.3616 199.498475 
L 62.9568 201.513736 
L 63.552 202.073766 
L 64.1472 200.569299 
L 64.7424 196.920706 
L 66.528 180.926883 
L 67.1232 177.247798 
L 67.7184 174.930474 
L 68.3136 173.69498 
L 68.9088 173.166444 
L 69.504 173.167842 
L 70.6944 173.529692 
L 71.8848 174.041594 
L 73.6704 174.60086 
L 77.8368 175.450621 
L 79.0272 175.992037 
L 80.2176 176.794367 
L 80.8128 177.379961 
L 82.0032 179.12076 
L 82.5984 180.408818 
L 83.1936 182.025655 
L 83.7888 184.145423 
L 84.384 186.806404 
L 84.9792 190.106658 
L 86.1696 198.799093 
L 87.36 207.965256 
L 87.9552 210.104471 
L 88.5504 208.394134 
L 89.1456 202.037191 
L 90.9312 174.398649 
L 91.5264 169.353477 
L 92.1216 166.939527 
L 92.7168 166.001361 
L 93.312 165.922023 
L 95.0976 166.301612 
L 95.6928 166.155464 
L 96.288 165.729774 
L 96.8832 165.11668 
L 97.4784 164.258324 
L 98.6688 161.864957 
L 101.6448 154.528253 
L 102.24 153.815026 
L 102.8352 153.848318 
L 103.4304 154.789155 
L 104.0256 156.535794 
L 106.4064 166.205384 
L 107.0016 167.850854 
L 107.5968 168.967949 
L 108.192 169.532824 
L 108.7872 169.771667 
L 109.3824 169.708451 
L 109.9776 169.402861 
L 111.168 168.268204 
L 112.3584 166.508404 
L 113.5488 164.166435 
L 115.3344 159.308848 
L 116.5248 155.773024 
L 117.12 154.195864 
L 117.7152 153.223068 
L 118.3104 152.930951 
L 118.9056 153.65151 
L 119.5008 155.384154 
L 120.6912 160.799659 
L 121.8816 166.264097 
L 122.4768 168.227666 
L 123.072 169.533847 
L 123.6672 170.274373 
L 124.2624 170.580827 
L 124.8576 170.522259 
L 126.048 169.845669 
L 126.6432 169.242496 
L 127.8336 167.652482 
L 128.4288 166.615957 
L 129.6192 164.024623 
L 130.8096 160.602707 
L 132.5952 154.642668 
L 133.1904 153.028106 
L 133.7856 152.002065 
L 134.3808 151.932673 
L 134.976 153.094421 
L 135.5712 155.300024 
L 137.952 167.689397 
L 138.5472 169.676976 
L 139.1424 170.801071 
L 139.7376 171.431823 
L 140.3328 171.608709 
L 140.928 171.487486 
L 141.5232 171.186152 
L 142.1184 170.701978 
L 143.3088 169.338883 
L 143.904 168.535649 
L 145.0944 166.349587 
L 146.2848 163.375372 
L 147.4752 159.434159 
L 149.2608 152.694031 
L 149.856 151.105992 
L 150.4512 150.466546 
L 151.0464 151.092814 
L 151.6416 153.182613 
L 152.2368 156.499045 
L 153.4272 164.411768 
L 154.0224 167.79298 
L 154.6176 170.248518 
L 155.2128 171.800859 
L 155.808 172.5652 
L 156.4032 172.927583 
L 156.9984 172.819423 
L 157.5936 172.556919 
L 158.784 171.667816 
L 159.9744 170.469205 
L 161.1648 168.75335 
L 161.76 167.729319 
L 162.3552 166.454828 
L 163.5456 163.102416 
L 164.736 158.503527 
L 166.5216 150.674122 
L 167.1168 148.854633 
L 167.712 148.41827 
L 168.3072 149.77031 
L 168.9024 152.982806 
L 171.2832 170.500638 
L 171.8784 172.754515 
L 172.4736 174.151956 
L 173.0688 174.699685 
L 173.664 174.841053 
L 174.8544 174.341003 
L 176.0448 173.664625 
L 178.4256 171.902411 
L 179.0208 171.337896 
L 180.2112 169.782917 
L 180.8064 168.733724 
L 181.4016 167.452794 
L 182.592 163.842214 
L 183.1872 161.492326 
L 184.3776 155.312947 
L 185.568 148.269251 
L 186.1632 145.601244 
L 186.7584 144.65068 
L 187.3536 146.190803 
L 187.9488 150.546991 
L 189.7344 169.916326 
L 190.3296 174.11954 
L 190.9248 176.638217 
L 191.52 177.833274 
L 192.1152 178.232919 
L 192.7104 178.267147 
L 193.9008 177.902696 
L 194.496 177.76856 
L 195.0912 177.749739 
L 195.6864 177.910614 
L 196.8768 178.612508 
L 197.472 179.204718 
L 198.0672 179.976633 
L 199.2576 182.159521 
L 200.448 185.592239 
L 201.6384 190.485055 
L 204.0192 202.0553 
L 204.6144 202.89803 
L 205.2096 201.506652 
L 205.8048 197.737714 
L 207.5904 180.69698 
L 208.1856 176.7416 
L 208.7808 174.292242 
L 209.376 172.958079 
L 209.9712 172.42785 
L 210.5664 172.369705 
L 212.352 173.026692 
L 213.5424 173.25417 
L 214.7328 173.291701 
L 216.5184 172.684388 
L 217.7088 171.978747 
L 218.8992 170.576235 
L 219.4944 169.623953 
L 220.0896 168.460841 
L 220.6848 166.908389 
L 221.28 164.977172 
L 221.8752 162.565553 
L 222.4704 159.610837 
L 223.6608 152.017339 
L 224.8512 144.220738 
L 225.4464 142.169443 
L 226.0416 142.946453 
L 226.6368 147.35999 
L 229.0176 175.717815 
L 229.6128 178.751437 
L 230.208 180.159927 
L 230.8032 180.536809 
L 231.3984 180.526928 
L 231.9936 180.317421 
L 233.184 180.267955 
L 233.7792 180.439262 
L 234.3744 180.807878 
L 234.9696 181.387018 
L 235.5648 182.223985 
L 236.16 183.28032 
L 237.3504 186.222023 
L 238.5408 190.26297 
L 240.3264 196.972163 
L 240.9216 198.519043 
L 241.5168 198.948319 
L 242.112 197.995699 
L 242.7072 195.562923 
L 243.8976 187.719274 
L 245.088 180.572967 
L 245.6832 178.287746 
L 246.2784 176.899427 
L 246.8736 176.194744 
L 247.4688 176.006909 
L 248.064 176.080286 
L 249.2544 176.791698 
L 249.8496 177.256779 
L 251.04 178.510003 
L 252.2304 180.229615 
L 252.8256 181.179945 
L 254.016 183.978945 
L 255.2064 187.902299 
L 256.3968 193.053765 
L 257.5872 198.562552 
L 258.1824 200.49477 
L 258.7776 201.127709 
L 259.3728 199.972263 
L 259.968 196.808344 
L 262.3488 178.5238 
L 262.944 176.072996 
L 263.5392 174.690184 
L 264.1344 174.112186 
L 264.7296 174.017427 
L 265.3248 174.142409 
L 267.7056 175.346215 
L 270.6816 177.426169 
L 271.872 178.828714 
L 272.4672 179.755451 
L 273.6576 182.453398 
L 274.2528 184.313548 
L 275.4432 189.391142 
L 276.6336 196.424458 
L 277.824 203.534471 
L 278.4192 205.47168 
L 279.0144 204.973793 
L 279.6096 201.280047 
L 280.8 187.259218 
L 281.3952 180.304342 
L 281.9904 175.259477 
L 282.5856 172.162824 
L 283.1808 170.611064 
L 283.776 169.998157 
L 284.3712 169.931402 
L 286.1568 170.297969 
L 286.752 170.271946 
L 287.3472 170.099692 
L 288.5376 169.106749 
L 289.1328 168.369999 
L 289.728 167.33478 
L 290.3232 166.066883 
L 291.5136 162.672394 
L 292.704 157.965523 
L 294.4896 149.964134 
L 295.0848 148.361164 
L 295.68 148.258877 
L 296.2752 150.027481 
L 296.8704 153.747838 
L 298.656 168.24301 
L 299.2512 171.464436 
L 299.8464 173.508195 
L 300.4416 174.636347 
L 301.0368 175.050752 
L 301.632 175.116918 
L 302.2272 174.921637 
L 305.7984 172.879541 
L 306.9888 171.908236 
L 307.584 171.381295 
L 308.7744 169.775824 
L 309.3696 168.688068 
L 309.9648 167.276652 
L 310.56 165.558789 
L 311.1552 163.484448 
L 311.7504 160.933654 
L 312.9408 154.398315 
L 314.1312 146.99539 
L 314.7264 144.435757 
L 315.3216 143.859686 
L 315.9168 146.193211 
L 316.512 151.509371 
L 318.2976 171.831198 
L 318.8928 175.682488 
L 319.488 177.873554 
L 320.0832 178.773017 
L 320.6784 179.024873 
L 321.2736 178.951624 
L 321.8688 178.734438 
L 323.0592 178.611931 
L 324.2496 178.986689 
L 324.8448 179.445092 
L 325.44 180.116865 
L 326.0352 181.00233 
L 326.6304 182.095113 
L 327.2256 183.440162 
L 327.8208 185.098124 
L 329.0112 189.42515 
L 331.392 200.056565 
L 331.9872 201.293625 
L 332.5824 200.902985 
L 333.1776 198.470422 
L 333.7728 194.197422 
L 334.9632 183.784005 
L 335.5584 179.603526 
L 336.1536 176.632191 
L 336.7488 174.870748 
L 337.344 174.047213 
L 337.9392 173.792835 
L 338.5344 173.822578 
L 340.32 174.664995 
L 343.296 176.145573 
L 344.4864 177.031051 
L 345.0816 177.551525 
L 346.272 179.074343 
L 346.8672 180.175788 
L 347.4624 181.516161 
L 348.0576 183.215477 
L 348.6528 185.347051 
L 349.248 187.904351 
L 350.4384 194.696924 
L 351.6288 202.557276 
L 352.224 205.483897 
L 352.8192 206.402808 
L 353.4144 204.157936 
L 354.0096 198.569386 
L 355.7952 176.702026 
L 356.3904 172.53049 
L 356.9856 170.359436 
L 357.5808 169.410514 
L 358.176 169.215692 
L 359.3664 169.441398 
L 360.5568 169.556332 
L 361.152 169.287108 
L 361.7472 168.894305 
L 362.9376 167.486183 
L 364.128 165.079775 
L 365.3184 161.53087 
L 366.5088 156.907841 
L 367.6992 151.95904 
L 368.2944 150.114887 
L 368.8896 149.336323 
L 369.4848 149.982312 
L 370.08 152.408 
L 370.6752 156.213902 
L 371.8656 165.191032 
L 372.4608 168.757426 
L 373.056 171.319172 
L 373.6512 172.924056 
L 374.2464 173.704337 
L 374.8416 174.012103 
L 375.4368 173.941174 
L 376.032 173.667096 
L 377.8176 172.384607 
L 379.008 171.239972 
L 380.1984 169.809976 
L 381.3888 167.628563 
L 381.984 166.240516 
L 383.1744 162.431069 
L 384.3648 157.114884 
L 386.1504 148.183693 
L 386.7456 146.60111 
L 387.3408 146.897484 
L 387.936 149.552989 
L 388.5312 154.236722 
L 389.7216 165.947092 
L 390.3168 170.515545 
L 390.912 173.712032 
L 391.5072 175.503125 
L 392.1024 176.356533 
L 392.6976 176.594266 
L 393.2928 176.502919 
L 395.0784 175.81729 
L 395.6736 175.624237 
L 397.4592 175.589712 
L 398.6496 175.766927 
L 399.84 176.301274 
L 401.0304 177.116976 
L 402.2208 178.492416 
L 402.816 179.453972 
L 403.4112 180.710258 
L 404.0064 182.233708 
L 404.6016 184.247206 
L 405.1968 186.724311 
L 406.3872 193.498342 
L 408.1728 205.92227 
L 408.768 207.899419 
L 409.3632 206.781999 
L 409.9584 201.724662 
L 411.744 177.161039 
L 412.3392 172.087772 
L 412.9344 169.360923 
L 413.5296 168.130383 
L 414.1248 167.816154 
L 414.72 167.882847 
L 414.72 167.882847 
" clip-path="url(#p8e9488d437)" style="fill: none; stroke: #0000cc; stroke-width: 1.5; stroke-linecap: square"/>
   </g>
   <g id="line2d_28">
    <path d="M 57.6 181.136218 
L 58.790405 184.035461 
L 59.980809 188.200133 
L 61.171191 193.727113 
L 62.361595 199.550137 
L 62.956809 201.546159 
L 63.552 202.051849 
L 64.147191 200.486661 
L 64.742405 196.755399 
L 66.528 180.809627 
L 67.123191 177.136224 
L 67.718405 174.830158 
L 68.313595 173.617565 
L 68.908809 173.143313 
L 69.504 173.102724 
L 70.694405 173.538794 
L 72.48 174.252954 
L 74.265595 174.668256 
L 77.836809 175.372662 
L 79.027191 175.833133 
L 80.217595 176.582346 
L 80.812809 177.12375 
L 81.408 177.821618 
L 82.003191 178.722298 
L 82.598405 179.88501 
L 83.193595 181.384236 
L 83.788809 183.310874 
L 84.384 185.769653 
L 84.979191 188.867248 
L 86.169595 197.183363 
L 87.36 206.775638 
L 87.955191 209.853959 
L 88.550405 209.607731 
L 89.145595 204.782811 
L 91.526405 170.661749 
L 92.121595 167.47538 
L 92.716809 166.149836 
L 93.312 165.843016 
L 95.097595 166.266051 
L 95.692809 166.176893 
L 96.288 165.863697 
L 96.883191 165.316153 
L 97.478405 164.535345 
L 98.668809 162.307709 
L 99.859191 159.354004 
L 101.049595 156.204432 
L 101.644809 154.899617 
L 102.24 154.046074 
L 102.835191 153.860159 
L 103.430405 154.497119 
L 104.025595 155.977922 
L 105.216 160.698051 
L 106.406405 165.540712 
L 107.001595 167.333206 
L 107.596809 168.587963 
L 108.192 169.34276 
L 108.787191 169.680491 
L 109.382405 169.691512 
L 109.977595 169.452464 
L 110.572809 169.018159 
L 111.763191 167.676073 
L 112.953595 165.733406 
L 114.144 163.122904 
L 115.334405 159.83868 
L 117.12 154.647532 
L 117.715191 153.476924 
L 118.310405 152.993412 
L 118.905595 153.4185 
L 119.500809 154.838038 
L 120.096 157.127744 
L 121.881595 165.533913 
L 122.476809 167.636426 
L 123.072 169.118217 
L 123.667191 170.022243 
L 124.262405 170.45127 
L 124.857595 170.518145 
L 125.452809 170.31844 
L 126.048 169.920437 
L 127.238405 168.670402 
L 128.428809 166.854512 
L 129.619191 164.367839 
L 130.809595 161.091794 
L 133.190405 153.45711 
L 133.785595 152.273999 
L 134.380809 151.956476 
L 134.976 152.753536 
L 135.571191 154.714609 
L 136.761595 160.968699 
L 137.952 167.039223 
L 138.547191 169.117138 
L 139.142405 170.476988 
L 139.737595 171.225672 
L 140.332809 171.5081 
L 140.928 171.45799 
L 141.523191 171.177082 
L 142.713595 170.156538 
L 143.904 168.645086 
L 145.094405 166.554814 
L 146.284809 163.676626 
L 147.475191 159.854319 
L 149.260809 153.174837 
L 149.856 151.46048 
L 150.451191 150.596847 
L 151.046405 150.968175 
L 151.641595 152.772668 
L 152.236809 155.863394 
L 154.022405 167.111658 
L 154.617595 169.700446 
L 155.212809 171.405576 
L 155.808 172.361026 
L 156.403191 172.75911 
L 156.998405 172.778219 
L 157.593595 172.553914 
L 158.784 171.691239 
L 159.974405 170.464082 
L 161.164809 168.811855 
L 162.355191 166.499869 
L 163.545595 163.219591 
L 164.736 158.749006 
L 166.521595 150.953293 
L 167.116809 149.160523 
L 167.712 148.608963 
L 168.307191 149.773723 
L 168.902405 152.770178 
L 171.283191 170.143974 
L 171.878405 172.508628 
L 172.473595 173.865853 
L 173.068809 174.485423 
L 173.664 174.627019 
L 174.259191 174.489328 
L 175.449595 173.85086 
L 177.235191 172.623546 
L 178.425595 171.605931 
L 179.616 170.209931 
L 180.211191 169.282439 
L 180.806405 168.142776 
L 181.401595 166.737947 
L 181.996809 165.009434 
L 182.592 162.898319 
L 183.782405 157.378429 
L 185.568 147.415215 
L 186.163191 145.361338 
L 186.758405 145.303799 
L 187.353595 147.907861 
L 187.948809 153.059885 
L 189.139191 166.198725 
L 189.734405 171.396339 
L 190.329595 174.849345 
L 190.924809 176.779482 
L 191.52 177.643518 
L 192.115191 177.875945 
L 193.305595 177.605808 
L 194.496 177.322422 
L 195.091191 177.321134 
L 195.686405 177.437398 
L 196.281595 177.679276 
L 196.876809 178.055254 
L 197.472 178.578755 
L 198.067191 179.270008 
L 198.662405 180.157527 
L 199.257595 181.278909 
L 199.852809 182.680376 
L 200.448 184.414526 
L 201.043191 186.534081 
L 202.233618 192.044555 
L 204.019191 201.711467 
L 204.614382 203.548592 
L 205.209618 203.375076 
L 205.804809 200.608433 
L 206.4 195.440574 
L 207.590382 182.679634 
L 208.185618 177.705145 
L 208.780809 174.412413 
L 209.376 172.580652 
L 209.971191 171.770296 
L 210.566382 171.566626 
L 211.756809 171.862423 
L 212.947191 172.178137 
L 214.137618 172.133375 
L 214.732809 171.946447 
L 215.328 171.641255 
L 215.923191 171.207227 
L 216.518382 170.627449 
L 217.113618 169.877179 
L 217.708809 168.922798 
L 218.304 167.721215 
L 218.899191 166.220291 
L 219.494382 164.361514 
L 220.089618 162.087415 
L 221.28 156.184349 
L 223.065618 146.215005 
L 223.660809 144.699575 
L 224.256 145.545635 
L 224.851191 149.227095 
L 226.041618 162.223002 
L 226.636809 168.529439 
L 227.232 173.188728 
L 227.827191 176.070318 
L 228.422382 177.553287 
L 229.017618 178.128174 
L 229.612809 178.205554 
L 231.993618 177.707341 
L 232.588809 177.794543 
L 233.184 178.01694 
L 233.779191 178.383908 
L 234.374382 178.907962 
L 234.969618 179.608048 
L 235.564809 180.510801 
L 236.16 181.651429 
L 236.755191 183.072996 
L 237.350382 184.823336 
L 238.540809 189.474132 
L 240.921618 201.444649 
L 241.516809 202.930866 
L 242.112 202.435942 
L 242.707191 199.51253 
L 243.302382 194.451966 
L 244.492809 182.483556 
L 245.088 177.899101 
L 245.683191 174.866921 
L 246.278382 173.174954 
L 246.873618 172.425431 
L 247.468809 172.243631 
L 248.659191 172.568027 
L 249.849618 172.971585 
L 251.04 173.115555 
L 252.230382 172.948472 
L 253.420809 172.453011 
L 254.611191 171.552118 
L 255.206382 170.898722 
L 255.801618 170.067016 
L 256.396809 169.01262 
L 256.992 167.680132 
L 257.587191 166.003125 
L 258.182382 163.906997 
L 258.777618 161.318191 
L 259.968 154.529593 
L 261.158382 146.584996 
L 261.753618 143.556728 
L 262.348809 142.595571 
L 262.944 144.788588 
L 263.539191 150.360151 
L 265.324809 172.522207 
L 265.92 176.683028 
L 266.515191 178.925692 
L 267.110382 179.875406 
L 267.705618 180.103917 
L 270.086382 179.806461 
L 270.681618 180.027164 
L 271.276809 180.441318 
L 271.872 181.063336 
L 272.467191 181.907641 
L 273.062382 182.99344 
L 273.657618 184.343135 
L 274.848 187.908688 
L 276.038382 192.551473 
L 277.228809 197.350869 
L 277.824 199.052757 
L 278.419191 199.669738 
L 279.014382 198.777076 
L 279.609618 196.236673 
L 280.8 187.884325 
L 281.395191 183.614526 
L 281.990382 180.155169 
L 282.585618 177.731944 
L 283.180809 176.269248 
L 283.776 175.548953 
L 284.371191 175.33563 
L 284.966382 175.437268 
L 286.156809 176.107719 
L 287.347191 177.057956 
L 288.537618 178.249719 
L 289.728 179.859665 
L 290.918382 182.181511 
L 291.513618 183.724647 
L 292.704 187.811357 
L 293.894382 193.3254 
L 295.084809 199.332426 
L 295.68 201.549125 
L 296.275191 202.353653 
L 296.870382 201.100546 
L 297.465618 197.588971 
L 299.846382 177.345787 
L 300.441618 174.835995 
L 301.036809 173.48986 
L 301.632 172.938845 
L 302.227191 172.858443 
L 303.417618 173.261303 
L 305.203191 173.913623 
L 306.393618 174.121291 
L 308.179191 174.152631 
L 309.964809 173.924044 
L 311.155191 173.600953 
L 312.345618 173.062277 
L 313.536 172.171935 
L 314.131191 171.526639 
L 314.726382 170.694391 
L 315.321618 169.620399 
L 315.916809 168.23517 
L 316.512 166.452745 
L 317.107191 164.171616 
L 317.702382 161.282724 
L 318.297618 157.69352 
L 319.488 148.5239 
L 320.083191 143.653686 
L 320.678382 139.899747 
L 321.273618 138.951529 
L 321.868809 142.37388 
L 322.464 150.268196 
L 323.654382 170.267737 
L 324.249618 177.188678 
L 324.844809 181.117299 
L 325.44 182.906081 
L 326.035191 183.441872 
L 326.630382 183.406745 
L 327.820809 183.083688 
L 328.416 183.116673 
L 329.011191 183.37014 
L 329.606382 183.853775 
L 330.201618 184.570506 
L 330.796809 185.514844 
L 331.987191 188.014462 
L 334.368 193.888462 
L 334.963191 194.799096 
L 335.558382 195.099316 
L 336.153618 194.627921 
L 336.748809 193.339445 
L 337.344 191.351219 
L 339.129618 184.14745 
L 339.724809 182.304278 
L 340.32 180.977415 
L 340.915191 180.148645 
L 341.510382 179.746008 
L 342.105618 179.682919 
L 342.700809 179.88222 
L 343.296 180.286615 
L 344.486382 181.585945 
L 345.676809 183.489415 
L 346.867191 186.045097 
L 348.057618 189.245133 
L 349.843191 194.272488 
L 350.438382 195.406926 
L 351.033618 195.886304 
L 351.628809 195.501645 
L 352.224 194.169059 
L 352.819191 191.99909 
L 354.604809 183.894292 
L 355.2 181.824328 
L 355.795191 180.348467 
L 356.390382 179.436126 
L 356.985618 178.994128 
L 357.580809 178.915377 
L 358.176 179.107167 
L 358.771191 179.502335 
L 359.961618 180.761408 
L 361.152 182.599474 
L 362.342382 185.106313 
L 363.532809 188.370399 
L 365.913618 195.658345 
L 366.508809 196.663764 
L 367.104 196.796845 
L 367.699191 195.850881 
L 368.294382 193.821081 
L 369.484809 187.732302 
L 370.675191 182.029859 
L 371.270382 180.110794 
L 371.865618 178.870693 
L 372.460809 178.205562 
L 373.056 177.979642 
L 373.651191 178.069397 
L 374.246382 178.382131 
L 375.436809 179.468788 
L 376.627191 181.07327 
L 377.817618 183.290925 
L 379.008 186.31072 
L 380.198382 190.212125 
L 381.984 196.461405 
L 382.579191 197.763175 
L 383.174382 198.087724 
L 383.769618 197.140737 
L 384.364809 194.870012 
L 385.555191 187.790543 
L 386.745618 181.20365 
L 387.340809 179.056789 
L 387.936 177.710997 
L 388.531191 177.015726 
L 389.126382 176.792925 
L 389.721618 176.889101 
L 390.316809 177.193634 
L 391.507191 178.188708 
L 392.697618 179.589758 
L 393.888 181.507344 
L 395.078382 184.192317 
L 396.268809 187.909998 
L 397.459191 192.668999 
L 398.649618 197.551675 
L 399.244809 199.262146 
L 399.84 199.847707 
L 400.435191 198.87676 
L 401.030382 196.221495 
L 402.220809 187.65119 
L 402.816 183.332958 
L 403.411191 179.870061 
L 404.006382 177.471207 
L 404.601618 176.042441 
L 405.196809 175.353402 
L 405.792 175.162966 
L 406.387191 175.277677 
L 407.577618 175.947953 
L 408.768 176.870199 
L 409.958382 178.009861 
L 411.148809 179.541048 
L 412.339191 181.752453 
L 412.934382 183.228446 
L 413.529618 185.01955 
L 414.72 189.709332 
L 414.72 189.709332 
" clip-path="url(#p8e9488d437)" style="fill: none; stroke-dasharray: 9.6,2.4,1.5,2.4; stroke-dashoffset: 0; stroke: #ff0000; stroke-width: 1.5"/>
   </g>
   <g id="patch_8">
    <path d="M 57.6 213.662118 
L 57.6 135.393882 
" style="fill: none; stroke: #000000; stroke-width: 0.8; stroke-linejoin: miter; stroke-linecap: square"/>
   </g>
   <g id="patch_9">
    <path d="M 414.72 213.662118 
L 414.72 135.393882 
" style="fill: none; stroke: #000000; stroke-width: 0.8; stroke-linejoin: miter; stroke-linecap: square"/>
   </g>
   <g id="patch_10">
    <path d="M 57.6 213.662118 
L 414.72 213.662118 
" style="fill: none; stroke: #000000; stroke-width: 0.8; stroke-linejoin: miter; stroke-linecap: square"/>
   </g>
   <g id="patch_11">
    <path d="M 57.6 135.393882 
L 414.72 135.393882 
" style="fill: none; stroke: #000000; stroke-width: 0.8; stroke-linejoin: miter; stroke-linecap: square"/>
   </g>
  </g>
  <g id="axes_3">
   <g id="patch_12">
    <path d="M 57.6 307.584 
L 414.72 307.584 
L 414.72 229.315765 
L 57.6 229.315765 
z
" style="fill: #ffffff"/>
   </g>
   <g id="matplotlib.axis_5">
    <g id="xtick_19">
     <g id="line2d_29">
      <g>
       <use xlink:href="#m9cdb8e12ae" x="57.6" y="307.584" style="stroke: #000000; stroke-width: 0.8"/>
      </g>
     </g>
     <g id="text_7">
      <!-- 10 -->
      <g transform="translate(51.2375 322.182437) scale(0.1 -0.1)">
       <use xlink:href="#DejaVuSans-31"/>
       <use xlink:href="#DejaVuSans-30" x="63.623047"/>
      </g>
     </g>
    </g>
    <g id="xtick_20">
     <g id="line2d_30">
      <g>
       <use xlink:href="#m9cdb8e12ae" x="105.216" y="307.584" style="stroke: #000000; stroke-width: 0.8"/>
      </g>
     </g>
     <g id="text_8">
      <!-- 12 -->
      <g transform="translate(98.8535 322.182437) scale(0.1 -0.1)">
       <use xlink:href="#DejaVuSans-31"/>
       <use xlink:href="#DejaVuSans-32" x="63.623047"/>
      </g>
     </g>
    </g>
    <g id="xtick_21">
     <g id="line2d_31">
      <g>
       <use xlink:href="#m9cdb8e12ae" x="152.832" y="307.584" style="stroke: #000000; stroke-width: 0.8"/>
      </g>
     </g>
     <g id="text_9">
      <!-- 14 -->
      <g transform="translate(146.4695 322.182437) scale(0.1 -0.1)">
       <defs>
        <path id="DejaVuSans-34" d="M 2419 4116 
L 825 1625 
L 2419 1625 
L 2419 4116 
z
M 2253 4666 
L 3047 4666 
L 3047 1625 
L 3713 1625 
L 3713 1100 
L 3047 1100 
L 3047 0 
L 2419 0 
L 2419 1100 
L 313 1100 
L 313 1709 
L 2253 4666 
z
" transform="scale(0.015625)"/>
       </defs>
       <use xlink:href="#DejaVuSans-31"/>
       <use xlink:href="#DejaVuSans-34" x="63.623047"/>
      </g>
     </g>
    </g>
    <g id="xtick_22">
     <g id="line2d_32">
      <g>
       <use xlink:href="#m9cdb8e12ae" x="200.448" y="307.584" style="stroke: #000000; stroke-width: 0.8"/>
      </g>
     </g>
     <g id="text_10">
      <!-- 16 -->
      <g transform="translate(194.0855 322.182437) scale(0.1 -0.1)">
       <defs>
        <path id="DejaVuSans-36" d="M 2113 2584 
Q 1688 2584 1439 2293 
Q 1191 2003 1191 1497 
Q 1191 994 1439 701 
Q 1688 409 2113 409 
Q 2538 409 2786 701 
Q 3034 994 3034 1497 
Q 3034 2003 2786 2293 
Q 2538 2584 2113 2584 
z
M 3366 4563 
L 3366 3988 
Q 3128 4100 2886 4159 
Q 2644 4219 2406 4219 
Q 1781 4219 1451 3797 
Q 1122 3375 1075 2522 
Q 1259 2794 1537 2939 
Q 1816 3084 2150 3084 
Q 2853 3084 3261 2657 
Q 3669 2231 3669 1497 
Q 3669 778 3244 343 
Q 2819 -91 2113 -91 
Q 1303 -91 875 529 
Q 447 1150 447 2328 
Q 447 3434 972 4092 
Q 1497 4750 2381 4750 
Q 2619 4750 2861 4703 
Q 3103 4656 3366 4563 
z
" transform="scale(0.015625)"/>
       </defs>
       <use xlink:href="#DejaVuSans-31"/>
       <use xlink:href="#DejaVuSans-36" x="63.623047"/>
      </g>
     </g>
    </g>
    <g id="xtick_23">
     <g id="line2d_33">
      <g>
       <use xlink:href="#m9cdb8e12ae" x="248.064" y="307.584" style="stroke: #000000; stroke-width: 0.8"/>
      </g>
     </g>
     <g id="text_11">
      <!-- 18 -->
      <g transform="translate(241.7015 322.182437) scale(0.1 -0.1)">
       <defs>
        <path id="DejaVuSans-38" d="M 2034 2216 
Q 1584 2216 1326 1975 
Q 1069 1734 1069 1313 
Q 1069 891 1326 650 
Q 1584 409 2034 409 
Q 2484 409 2743 651 
Q 3003 894 3003 1313 
Q 3003 1734 2745 1975 
Q 2488 2216 2034 2216 
z
M 1403 2484 
Q 997 2584 770 2862 
Q 544 3141 544 3541 
Q 544 4100 942 4425 
Q 1341 4750 2034 4750 
Q 2731 4750 3128 4425 
Q 3525 4100 3525 3541 
Q 3525 3141 3298 2862 
Q 3072 2584 2669 2484 
Q 3125 2378 3379 2068 
Q 3634 1759 3634 1313 
Q 3634 634 3220 271 
Q 2806 -91 2034 -91 
Q 1263 -91 848 271 
Q 434 634 434 1313 
Q 434 1759 690 2068 
Q 947 2378 1403 2484 
z
M 1172 3481 
Q 1172 3119 1398 2916 
Q 1625 2713 2034 2713 
Q 2441 2713 2670 2916 
Q 2900 3119 2900 3481 
Q 2900 3844 2670 4047 
Q 2441 4250 2034 4250 
Q 1625 4250 1398 4047 
Q 1172 3844 1172 3481 
z
" transform="scale(0.015625)"/>
       </defs>
       <use xlink:href="#DejaVuSans-31"/>
       <use xlink:href="#DejaVuSans-38" x="63.623047"/>
      </g>
     </g>
    </g>
    <g id="xtick_24">
     <g id="line2d_34">
      <g>
       <use xlink:href="#m9cdb8e12ae" x="295.68" y="307.584" style="stroke: #000000; stroke-width: 0.8"/>
      </g>
     </g>
     <g id="text_12">
      <!-- 20 -->
      <g transform="translate(289.3175 322.182437) scale(0.1 -0.1)">
       <use xlink:href="#DejaVuSans-32"/>
       <use xlink:href="#DejaVuSans-30" x="63.623047"/>
      </g>
     </g>
    </g>
    <g id="xtick_25">
     <g id="line2d_35">
      <g>
       <use xlink:href="#m9cdb8e12ae" x="343.296" y="307.584" style="stroke: #000000; stroke-width: 0.8"/>
      </g>
     </g>
     <g id="text_13">
      <!-- 22 -->
      <g transform="translate(336.9335 322.182437) scale(0.1 -0.1)">
       <use xlink:href="#DejaVuSans-32"/>
       <use xlink:href="#DejaVuSans-32" x="63.623047"/>
      </g>
     </g>
    </g>
    <g id="xtick_26">
     <g id="line2d_36">
      <g>
       <use xlink:href="#m9cdb8e12ae" x="390.912" y="307.584" style="stroke: #000000; stroke-width: 0.8"/>
      </g>
     </g>
     <g id="text_14">
      <!-- 24 -->
      <g transform="translate(384.5495 322.182437) scale(0.1 -0.1)">
       <use xlink:href="#DejaVuSans-32"/>
       <use xlink:href="#DejaVuSans-34" x="63.623047"/>
      </g>
     </g>
    </g>
    <g id="xtick_27">
     <g id="line2d_37">
      <g>
       <use xlink:href="#m9cdb8e12ae" x="414.72" y="307.584" style="stroke: #000000; stroke-width: 0.8"/>
      </g>
     </g>
     <g id="text_15">
      <!-- 25 -->
      <g transform="translate(408.3575 322.182437) scale(0.1 -0.1)">
       <defs>
        <path id="DejaVuSans-35" d="M 691 4666 
L 3169 4666 
L 3169 4134 
L 1269 4134 
L 1269 2991 
Q 1406 3038 1543 3061 
Q 1681 3084 1819 3084 
Q 2600 3084 3056 2656 
Q 3513 2228 3513 1497 
Q 3513 744 3044 326 
Q 2575 -91 1722 -91 
Q 1428 -91 1123 -41 
Q 819 9 494 109 
L 494 744 
Q 775 591 1075 516 
Q 1375 441 1709 441 
Q 2250 441 2565 725 
Q 2881 1009 2881 1497 
Q 2881 1984 2565 2268 
Q 2250 2553 1709 2553 
Q 1456 2553 1204 2497 
Q 953 2441 691 2322 
L 691 4666 
z
" transform="scale(0.015625)"/>
       </defs>
       <use xlink:href="#DejaVuSans-32"/>
       <use xlink:href="#DejaVuSans-35" x="63.623047"/>
      </g>
     </g>
    </g>
   </g>
   <g id="matplotlib.axis_6">
    <g id="ytick_7">
     <g id="line2d_38">
      <g>
       <use xlink:href="#ma076baded1" x="57.6" y="278.304245" style="stroke: #000000; stroke-width: 0.8"/>
      </g>
     </g>
     <g id="text_16">
      <!-- 20 -->
      <g transform="translate(37.875 282.103464) scale(0.1 -0.1)">
       <use xlink:href="#DejaVuSans-32"/>
       <use xlink:href="#DejaVuSans-30" x="63.623047"/>
      </g>
     </g>
    </g>
    <g id="ytick_8">
     <g id="line2d_39">
      <g>
       <use xlink:href="#ma076baded1" x="57.6" y="240.829581" style="stroke: #000000; stroke-width: 0.8"/>
      </g>
     </g>
     <g id="text_17">
      <!-- 40 -->
      <g transform="translate(37.875 244.6288) scale(0.1 -0.1)">
       <use xlink:href="#DejaVuSans-34"/>
       <use xlink:href="#DejaVuSans-30" x="63.623047"/>
      </g>
     </g>
    </g>
   </g>
   <g id="line2d_40">
    <path d="M 57.6 286.900638 
L 58.1952 288.116454 
L 58.7904 288.87482 
L 59.3856 289.310003 
L 59.9808 289.175345 
L 60.576 288.25336 
L 61.1712 286.34876 
L 61.7664 283.122251 
L 62.3616 278.354421 
L 62.9568 272.019396 
L 64.7424 249.501399 
L 65.3376 245.137925 
L 65.9328 243.665327 
L 66.528 245.116756 
L 67.1232 248.230423 
L 70.0992 267.575066 
L 71.2896 273.709278 
L 73.0752 281.358243 
L 74.2656 285.659562 
L 76.0512 291.095167 
L 77.2416 294.150677 
L 79.0272 298.083932 
L 80.8128 301.113924 
L 82.0032 302.694582 
L 82.5984 303.29803 
L 83.1936 303.586157 
L 83.7888 303.729412 
L 84.384 303.248842 
L 84.9792 302.109221 
L 85.5744 299.83479 
L 86.1696 295.877694 
L 86.7648 289.586645 
L 87.36 280.218203 
L 89.1456 241.618242 
L 89.7408 234.246565 
L 90.336 233.327025 
L 90.9312 237.159116 
L 92.7168 254.79052 
L 93.9072 263.162775 
L 95.0976 269.151655 
L 95.6928 271.527193 
L 96.8832 275.103296 
L 97.4784 276.463946 
L 98.0736 277.35593 
L 98.6688 277.786044 
L 99.264 277.780573 
L 99.8592 277.064125 
L 100.4544 275.741439 
L 101.0496 273.618168 
L 101.6448 270.832095 
L 102.8352 263.512073 
L 104.0256 256.494141 
L 104.6208 254.255615 
L 105.216 253.146821 
L 105.8112 253.357077 
L 106.4064 254.447066 
L 107.0016 256.318194 
L 108.7872 263.846992 
L 110.5728 271.04751 
L 111.7632 274.958419 
L 112.9536 277.912987 
L 113.5488 278.823009 
L 114.144 279.399766 
L 114.7392 279.404205 
L 115.3344 278.890544 
L 115.9296 277.60124 
L 116.5248 275.569577 
L 117.12 272.61415 
L 118.3104 264.754608 
L 119.5008 256.566007 
L 120.096 253.681803 
L 120.6912 252.114625 
L 121.2864 252.009755 
L 121.8816 253.022701 
L 122.4768 255.050886 
L 123.6672 260.281053 
L 125.4528 268.50323 
L 126.6432 273.175346 
L 127.8336 277.060361 
L 128.4288 278.646643 
L 129.024 279.888496 
L 129.6192 280.739418 
L 130.2144 281.241309 
L 130.8096 281.133354 
L 131.4048 280.297345 
L 132 278.726189 
L 132.5952 276.247348 
L 133.1904 272.801159 
L 134.3808 263.585085 
L 135.5712 254.475813 
L 136.1664 251.645247 
L 136.7616 250.377432 
L 137.3568 250.760326 
L 137.952 252.481459 
L 139.1424 257.83996 
L 140.928 266.827011 
L 142.1184 272.216837 
L 143.3088 276.67298 
L 144.4992 280.28515 
L 145.0944 281.747278 
L 145.6896 282.757501 
L 146.2848 283.48134 
L 146.88 283.540702 
L 147.4752 283.027867 
L 148.0704 281.751204 
L 148.6656 279.415557 
L 149.2608 276.032175 
L 149.856 271.497235 
L 151.6416 254.927266 
L 152.2368 250.834248 
L 152.832 248.741635 
L 153.4272 248.618168 
L 154.0224 250.108398 
L 155.2128 255.997655 
L 157.5936 268.938367 
L 158.784 274.281982 
L 159.9744 278.97173 
L 161.1648 282.77559 
L 161.76 284.343433 
L 162.3552 285.592343 
L 162.9504 286.480934 
L 163.5456 286.969763 
L 164.1408 286.872239 
L 164.736 286.089083 
L 165.3312 284.296648 
L 165.9264 281.330263 
L 166.5216 276.969016 
L 167.712 264.405628 
L 168.9024 251.195909 
L 169.4976 247.077369 
L 170.0928 245.58569 
L 170.688 246.450056 
L 171.2832 249.094962 
L 174.8544 270.412334 
L 176.64 278.546725 
L 177.8304 283.043304 
L 179.0208 286.918607 
L 180.2112 290.092864 
L 181.4016 292.540169 
L 181.9968 293.23982 
L 182.592 293.628313 
L 183.1872 293.517532 
L 183.7824 292.505043 
L 184.3776 290.545117 
L 184.9728 287.034522 
L 185.568 281.73929 
L 186.1632 274.471547 
L 187.9488 247.298339 
L 188.544 241.864037 
L 189.1392 240.462277 
L 189.7344 242.370719 
L 190.3296 246.268822 
L 192.1152 260.049783 
L 193.3056 267.500064 
L 194.496 273.603829 
L 195.6864 278.794226 
L 196.8768 283.164781 
L 198.0672 286.774747 
L 198.6624 288.217107 
L 199.8528 290.240656 
L 200.448 290.713797 
L 201.0432 290.618887 
L 201.6384 289.689005 
L 202.2336 287.806118 
L 202.8288 284.686862 
L 203.424 279.834115 
L 204.0192 273.195262 
L 205.8048 249.241646 
L 206.4 244.334337 
L 206.9952 242.691221 
L 207.5904 244.059999 
L 208.1856 247.312653 
L 210.5664 263.862672 
L 211.7568 270.509145 
L 212.9472 276.276094 
L 214.1376 281.240668 
L 215.328 285.508198 
L 216.5184 289.259503 
L 217.7088 292.469261 
L 218.8992 295.093266 
L 219.4944 296.271849 
L 220.0896 297.196911 
L 220.6848 297.861245 
L 221.28 298.148397 
L 221.8752 298.009077 
L 222.4704 297.266038 
L 223.0656 295.475658 
L 223.6608 292.198337 
L 224.256 286.930623 
L 224.8512 279.267785 
L 226.0416 257.628579 
L 226.6368 246.969755 
L 227.232 239.487176 
L 227.8272 237.010558 
L 228.4224 238.891104 
L 229.0176 243.357828 
L 230.208 254.075533 
L 231.3984 262.817831 
L 232.5888 269.54512 
L 233.7792 274.865326 
L 234.9696 279.156859 
L 235.5648 280.901975 
L 236.7552 283.311317 
L 237.3504 283.891136 
L 237.9456 283.911643 
L 238.5408 283.213939 
L 239.136 281.68719 
L 239.7312 279.178098 
L 240.3264 275.467665 
L 241.5168 264.971361 
L 242.7072 253.704108 
L 243.3024 249.899133 
L 243.8976 248.153111 
L 244.4928 248.427647 
L 245.088 250.351939 
L 246.2784 256.586871 
L 248.6592 269.570202 
L 249.8496 274.922152 
L 251.04 279.554038 
L 252.2304 283.301487 
L 252.8256 284.926789 
L 253.4208 286.187752 
L 254.016 287.158556 
L 254.6112 287.644334 
L 255.2064 287.622674 
L 255.8016 286.927575 
L 256.3968 285.166299 
L 256.992 282.277129 
L 257.5872 277.866007 
L 258.1824 272.142463 
L 259.968 251.233052 
L 260.5632 246.840504 
L 261.1584 245.091185 
L 261.7536 245.882564 
L 262.3488 248.47835 
L 265.92 270.178885 
L 267.1104 275.854141 
L 268.3008 280.807647 
L 269.4912 285.098757 
L 271.2768 290.395148 
L 272.4672 293.10515 
L 273.0624 294.194667 
L 273.6576 294.998063 
L 274.2528 295.506983 
L 274.848 295.496671 
L 275.4432 294.852571 
L 276.0384 293.167537 
L 276.6336 290.208587 
L 277.2288 285.394971 
L 277.824 278.36612 
L 279.0144 258.947932 
L 279.6096 249.007705 
L 280.2048 241.907362 
L 280.8 239.064708 
L 281.3952 240.070094 
L 281.9904 243.936808 
L 283.776 258.450852 
L 284.9664 266.235351 
L 286.1568 272.490621 
L 287.3472 277.639115 
L 288.5376 281.84288 
L 289.728 285.138479 
L 290.3232 286.337888 
L 290.9184 287.28146 
L 291.5136 287.603738 
L 292.1088 287.31624 
L 292.704 286.293234 
L 293.2992 284.245459 
L 293.8944 280.940988 
L 294.4896 276.114612 
L 295.68 262.840195 
L 296.8704 249.713131 
L 297.4656 246.049141 
L 298.0608 245.181584 
L 298.656 246.620623 
L 299.2512 249.631943 
L 302.2272 268.060098 
L 303.4176 274.002921 
L 304.608 279.131077 
L 305.7984 283.688344 
L 306.9888 287.497869 
L 308.1792 290.821013 
L 309.3696 293.357221 
L 309.9648 294.29379 
L 310.56 294.97534 
L 311.1552 295.193355 
L 311.7504 294.815198 
L 312.3456 293.619457 
L 312.9408 291.210205 
L 313.536 287.33087 
L 314.1312 281.261445 
L 314.7264 273.179824 
L 316.512 244.707889 
L 317.1072 239.965745 
L 317.7024 239.510349 
L 318.2976 242.339017 
L 321.2736 264.754667 
L 322.464 271.274065 
L 323.6544 276.698052 
L 324.8448 281.198444 
L 326.0352 284.71762 
L 326.6304 286.165872 
L 327.2256 287.268147 
L 327.8208 288.002798 
L 328.416 288.157234 
L 329.0112 287.750113 
L 329.6064 286.465504 
L 330.2016 283.901395 
L 330.7968 280.110064 
L 331.392 274.741445 
L 332.5824 260.510086 
L 333.1776 253.370711 
L 333.7728 247.916387 
L 334.368 244.98248 
L 334.9632 244.956246 
L 335.5584 247.043873 
L 336.7488 254.484772 
L 338.5344 265.789949 
L 339.7248 272.104283 
L 340.9152 277.550899 
L 342.1056 282.269277 
L 343.8912 288.28088 
L 345.0816 291.537202 
L 346.272 294.232801 
L 346.8672 295.358827 
L 348.0576 296.859843 
L 348.6528 297.026621 
L 349.248 296.66884 
L 349.8432 295.488648 
L 350.4384 293.188268 
L 351.0336 289.2082 
L 351.6288 283.080108 
L 352.224 274.584676 
L 354.0096 243.946841 
L 354.6048 238.704623 
L 355.2 238.164398 
L 355.7952 241.193743 
L 358.7712 264.481215 
L 359.9616 270.953648 
L 361.152 276.192361 
L 362.3424 280.399822 
L 363.5328 283.554886 
L 364.128 284.679376 
L 364.7232 285.323376 
L 365.3184 285.511766 
L 365.9136 284.912932 
L 366.5088 283.517246 
L 367.104 281.059574 
L 367.6992 277.322338 
L 368.2944 272.387721 
L 370.08 253.781048 
L 370.6752 249.329619 
L 371.2704 247.070167 
L 371.8656 247.116633 
L 372.4608 248.977621 
L 373.6512 255.554624 
L 375.4368 266.096239 
L 377.2224 274.903199 
L 378.4128 279.67565 
L 379.6032 283.841884 
L 380.7936 287.220269 
L 381.984 289.56089 
L 382.5792 290.21378 
L 383.1744 290.323399 
L 383.7696 289.910949 
L 384.3648 288.547449 
L 384.96 286.09105 
L 385.5552 282.031367 
L 386.1504 276.345794 
L 387.3408 260.60553 
L 387.936 252.680133 
L 388.5312 246.485074 
L 389.1264 243.210363 
L 389.7216 243.304834 
L 390.3168 245.785471 
L 391.5072 253.927182 
L 392.6976 262.10383 
L 393.888 269.080143 
L 395.0784 275.030869 
L 396.864 282.501954 
L 398.6496 288.498222 
L 400.4352 293.288129 
L 401.6256 295.976403 
L 402.816 298.151087 
L 403.4112 298.937166 
L 404.0064 299.529161 
L 404.6016 299.792704 
L 405.1968 299.523695 
L 405.792 298.591173 
L 406.3872 296.658594 
L 406.9824 293.127507 
L 407.5776 287.493729 
L 408.1728 279.247681 
L 410.5536 237.803885 
L 411.1488 235.870428 
L 411.744 238.458163 
L 412.9344 249.104601 
L 414.1248 259.059205 
L 414.72 263.10525 
L 414.72 263.10525 
" clip-path="url(#p6e523551db)" style="fill: none; stroke: #0000cc; stroke-width: 1.5; stroke-linecap: square"/>
   </g>
   <g id="line2d_41">
    <path d="M 57.6 286.900638 
L 58.195191 288.046527 
L 58.790405 288.921727 
L 59.385595 289.350143 
L 59.980809 289.196293 
L 60.576 288.274846 
L 61.171191 286.3296 
L 61.766405 283.0732 
L 62.361595 278.258138 
L 62.956809 271.832581 
L 64.742405 249.379355 
L 65.337595 245.009873 
L 65.932809 243.693857 
L 66.528 245.085605 
L 67.123191 248.261974 
L 70.099191 267.65724 
L 71.289595 273.763928 
L 72.48 279.034518 
L 74.265595 285.70126 
L 76.051191 291.149742 
L 77.836809 295.597117 
L 79.622405 299.201275 
L 80.812809 301.172551 
L 82.003191 302.759172 
L 82.598405 303.362045 
L 83.193595 303.781184 
L 83.788809 303.935242 
L 84.384 303.688636 
L 84.979191 302.820724 
L 85.574405 300.984707 
L 86.169595 297.666786 
L 86.764809 292.185701 
L 87.36 283.832665 
L 87.955191 272.312868 
L 89.145595 245.195565 
L 89.740809 235.915763 
L 90.336 232.873412 
L 90.931191 235.398913 
L 93.312 257.916741 
L 94.502405 265.342479 
L 95.692809 270.677683 
L 96.883191 274.554636 
L 97.478405 275.975783 
L 98.073595 277.016832 
L 98.668809 277.62706 
L 99.264 277.738447 
L 99.859191 277.270252 
L 100.454405 276.139376 
L 101.049595 274.280354 
L 101.644809 271.678563 
L 102.835191 264.703384 
L 104.025595 257.497326 
L 104.620809 254.917685 
L 105.216 253.478135 
L 105.811191 253.258221 
L 106.406405 254.121205 
L 107.001595 255.800811 
L 108.192 260.481552 
L 110.572809 270.338476 
L 111.763191 274.3657 
L 112.953595 277.423401 
L 113.548809 278.484319 
L 114.144 279.153293 
L 114.739191 279.350187 
L 115.334405 278.978791 
L 115.929595 277.933291 
L 116.524809 276.115491 
L 117.12 273.467958 
L 118.310405 265.968198 
L 119.500809 257.641589 
L 120.096 254.451906 
L 120.691191 252.519059 
L 121.286405 251.996795 
L 121.881595 252.75809 
L 122.476809 254.494641 
L 123.667191 259.529094 
L 126.048 270.194513 
L 127.238405 274.615899 
L 128.428809 278.129208 
L 129.024 279.462491 
L 129.619191 280.445373 
L 130.214405 281.004581 
L 130.809595 281.045205 
L 131.404809 280.45089 
L 132 279.091771 
L 132.595191 276.84699 
L 133.190405 273.649348 
L 134.380809 264.814448 
L 135.571191 255.53842 
L 136.166405 252.321586 
L 136.761595 250.688088 
L 137.356809 250.687148 
L 137.952 252.045443 
L 138.547191 254.334817 
L 140.332809 263.175511 
L 142.118405 271.473321 
L 143.308809 276.083071 
L 144.499191 279.806405 
L 145.094405 281.269325 
L 145.689595 282.405524 
L 146.284809 283.145041 
L 146.88 283.39202 
L 147.475191 283.020769 
L 148.070405 281.877402 
L 148.665595 279.79473 
L 149.260809 276.631715 
L 149.856 272.348156 
L 152.236809 251.624469 
L 152.832 249.121206 
L 153.427191 248.623643 
L 154.022405 249.86038 
L 154.617595 252.296606 
L 156.403191 262.054109 
L 158.188809 271.127237 
L 159.379191 276.212655 
L 160.569595 280.502176 
L 161.76 283.902868 
L 162.355191 285.196631 
L 162.950405 286.146147 
L 163.545595 286.663571 
L 164.140809 286.624706 
L 164.736 285.862117 
L 165.331191 284.166212 
L 165.926405 281.30712 
L 166.521595 277.097228 
L 167.116809 271.512565 
L 168.902405 251.760963 
L 169.497595 247.551957 
L 170.092809 245.87427 
L 170.688 246.600366 
L 171.283191 249.073745 
L 172.473595 256.294928 
L 174.259191 267.021613 
L 175.449595 273.054017 
L 176.64 278.277061 
L 177.830405 282.79204 
L 179.020809 286.638481 
L 180.211191 289.777798 
L 180.806405 291.033748 
L 181.401595 292.024446 
L 181.996809 292.675572 
L 182.592 292.872587 
L 183.187191 292.44469 
L 183.782405 291.148433 
L 184.377595 288.661185 
L 184.972809 284.608871 
L 185.568 278.671677 
L 186.758405 261.616097 
L 187.353595 252.469618 
L 187.948809 245.261477 
L 188.544 241.468863 
L 189.139191 241.369318 
L 189.734405 244.088532 
L 193.305595 268.771962 
L 194.496 274.715947 
L 195.686405 279.769128 
L 196.876809 284.07476 
L 198.067191 287.662475 
L 199.257595 290.438162 
L 199.852809 291.434908 
L 200.448 292.078122 
L 201.043191 292.250183 
L 201.638382 291.777143 
L 202.233618 290.414048 
L 202.828809 287.842071 
L 203.424 283.702548 
L 204.019191 277.710152 
L 205.209618 260.859813 
L 205.804809 252.03841 
L 206.4 245.232069 
L 206.995191 241.791067 
L 207.590382 241.899577 
L 208.185618 244.670579 
L 211.756809 269.0392 
L 212.947191 274.958094 
L 214.137618 280.014213 
L 215.328 284.350919 
L 216.518382 288.015381 
L 217.708809 290.960524 
L 218.304 292.105986 
L 218.899191 292.967519 
L 219.494382 293.458137 
L 220.089618 293.444211 
L 220.684809 292.727737 
L 221.28 291.030163 
L 221.875191 287.99232 
L 222.470382 283.222814 
L 223.065618 276.447185 
L 225.446382 242.973983 
L 226.041618 240.524118 
L 226.636809 241.667382 
L 227.232 245.209383 
L 229.612809 263.004327 
L 230.803191 269.901109 
L 231.993618 275.638487 
L 233.184 280.49859 
L 234.374382 284.587661 
L 235.564809 287.881146 
L 236.16 289.176936 
L 236.755191 290.177285 
L 237.350382 290.802 
L 237.945618 290.930054 
L 238.540809 290.385767 
L 239.136 288.927622 
L 239.731191 286.251819 
L 240.326382 282.035653 
L 240.921618 276.058688 
L 242.112 259.842122 
L 242.707191 251.674857 
L 243.302382 245.571124 
L 243.897618 242.662062 
L 244.492809 243.009558 
L 245.088 245.761229 
L 248.659191 269.407028 
L 249.849618 275.288481 
L 251.04 280.35403 
L 252.230382 284.749002 
L 253.420809 288.553953 
L 254.611191 291.806879 
L 255.801618 294.486415 
L 256.992 296.44507 
L 257.587191 297.035153 
L 258.182382 297.237774 
L 258.777618 296.886948 
L 259.372809 295.731836 
L 259.968 293.413675 
L 260.563191 289.467038 
L 261.158382 283.397209 
L 261.753618 274.916294 
L 263.539191 243.917556 
L 264.134382 238.595089 
L 264.729618 237.953932 
L 265.324809 240.957405 
L 267.705618 260.527414 
L 268.896 267.812486 
L 270.086382 273.602482 
L 271.276809 278.293742 
L 272.467191 281.959176 
L 273.062382 283.358305 
L 273.657618 284.405081 
L 274.252809 285.020936 
L 274.848 285.094596 
L 275.443191 284.477083 
L 276.038382 282.98426 
L 276.633618 280.417099 
L 277.228809 276.615571 
L 277.824 271.559859 
L 279.609618 253.305184 
L 280.204809 249.12135 
L 280.8 247.167955 
L 281.395191 247.449941 
L 281.990382 249.466989 
L 283.180809 256.067036 
L 284.966382 266.473498 
L 286.156809 272.429491 
L 287.347191 277.584821 
L 288.537618 281.994939 
L 289.728 285.639087 
L 290.918382 288.365742 
L 291.513618 289.272459 
L 292.108809 289.762744 
L 292.704 289.701766 
L 293.299191 288.899872 
L 293.894382 287.107091 
L 294.489618 284.02918 
L 295.084809 279.392475 
L 295.68 273.090164 
L 297.465618 249.997563 
L 298.060809 245.116849 
L 298.656 243.349497 
L 299.251191 244.456125 
L 299.846382 247.522389 
L 302.822382 267.189254 
L 304.012809 273.377857 
L 305.203191 278.705971 
L 306.393618 283.343432 
L 308.179191 289.224355 
L 309.964809 294.027314 
L 311.750382 297.934684 
L 312.940809 300.101774 
L 314.131191 301.921999 
L 315.321618 303.320049 
L 315.916809 303.79061 
L 316.512 304.026353 
L 317.107191 303.91132 
L 317.702382 303.255123 
L 318.297618 301.754304 
L 318.892809 298.948283 
L 319.488 294.197981 
L 320.083191 286.766359 
L 320.678382 276.152696 
L 322.464 238.001162 
L 323.059191 232.992197 
L 323.654382 234.039781 
L 324.249618 239.015813 
L 325.44 251.388495 
L 326.630382 260.82013 
L 327.820809 267.33205 
L 329.011191 272.039165 
L 330.201618 275.339489 
L 330.796809 276.444713 
L 331.392 277.133081 
L 331.987191 277.342307 
L 332.582382 276.996589 
L 333.177618 276.016747 
L 333.772809 274.3375 
L 334.368 271.936784 
L 335.558382 265.340092 
L 336.748809 258.249749 
L 337.344 255.56979 
L 337.939191 253.943452 
L 338.534382 253.494618 
L 339.129618 254.133342 
L 339.724809 255.625277 
L 340.915191 260.071262 
L 343.296 269.792813 
L 344.486382 273.810621 
L 345.676809 276.873946 
L 346.272 277.943479 
L 346.867191 278.62673 
L 347.462382 278.846339 
L 348.057618 278.510295 
L 348.652809 277.518401 
L 349.248 275.778819 
L 349.843191 273.239271 
L 351.033618 266.036545 
L 352.224 257.995298 
L 352.819191 254.873256 
L 353.414382 252.936855 
L 354.009618 252.350267 
L 354.604809 253.012029 
L 355.2 254.640851 
L 356.390382 259.495975 
L 358.771191 269.955299 
L 359.961618 274.298722 
L 361.152 277.724647 
L 361.747191 279.005355 
L 362.342382 279.927015 
L 362.937618 280.41492 
L 363.532809 280.374139 
L 364.128 279.691168 
L 364.723191 278.244021 
L 365.318382 275.927205 
L 365.913618 272.697711 
L 367.104 264.03732 
L 368.294382 255.313515 
L 368.889618 252.42346 
L 369.484809 251.063141 
L 370.08 251.239115 
L 370.675191 252.673332 
L 371.270382 254.960947 
L 375.436809 273.990104 
L 376.627191 277.996616 
L 377.817618 280.962002 
L 378.412809 281.940965 
L 379.008 282.486423 
L 379.603191 282.493868 
L 380.198382 281.831748 
L 380.793618 280.348638 
L 381.388809 277.897262 
L 381.984 274.385672 
L 383.174382 264.60095 
L 384.364809 254.363081 
L 384.96 250.923298 
L 385.555191 249.31251 
L 386.150382 249.534663 
L 386.745618 251.221475 
L 387.936 256.961492 
L 390.316809 269.381265 
L 391.507191 274.586525 
L 392.697618 278.991192 
L 393.888 282.496563 
L 394.483191 283.839787 
L 395.078382 284.839549 
L 395.673618 285.412582 
L 396.268809 285.442714 
L 396.864 284.775442 
L 397.459191 283.220144 
L 398.054382 280.571024 
L 398.649618 276.663338 
L 399.244809 271.479183 
L 401.030382 252.913484 
L 401.625618 248.746683 
L 402.220809 246.877636 
L 402.816 247.277691 
L 403.411191 249.409908 
L 404.601618 256.161563 
L 406.387191 266.638948 
L 407.577618 272.60793 
L 408.768 277.774905 
L 409.958382 282.20573 
L 411.148809 285.892439 
L 412.339191 288.706813 
L 412.934382 289.687047 
L 413.529618 290.281143 
L 414.124809 290.364763 
L 414.72 289.75963 
L 414.72 289.75963 
" clip-path="url(#p6e523551db)" style="fill: none; stroke-dasharray: 9.6,2.4,1.5,2.4; stroke-dashoffset: 0; stroke: #ff0000; stroke-width: 1.5"/>
   </g>
   <g id="patch_13">
    <path d="M 57.6 307.584 
L 57.6 229.315765 
" style="fill: none; stroke: #000000; stroke-width: 0.8; stroke-linejoin: miter; stroke-linecap: square"/>
   </g>
   <g id="patch_14">
    <path d="M 414.72 307.584 
L 414.72 229.315765 
" style="fill: none; stroke: #000000; stroke-width: 0.8; stroke-linejoin: miter; stroke-linecap: square"/>
   </g>
   <g id="patch_15">
    <path d="M 57.6 307.584 
L 414.72 307.584 
" style="fill: none; stroke: #000000; stroke-width: 0.8; stroke-linejoin: miter; stroke-linecap: square"/>
   </g>
   <g id="patch_16">
    <path d="M 57.6 229.315765 
L 414.72 229.315765 
" style="fill: none; stroke: #000000; stroke-width: 0.8; stroke-linejoin: miter; stroke-linecap: square"/>
   </g>
  </g>
 </g>
 <defs>
  <clipPath id="p9382d3af72">
   <rect x="57.6" y="41.472" width="357.12" height="78.268235"/>
  </clipPath>
  <clipPath id="p8e9488d437">
   <rect x="57.6" y="135.393882" width="357.12" height="78.268235"/>
  </clipPath>
  <clipPath id="p6e523551db">
   <rect x="57.6" y="229.315765" width="357.12" height="78.268235"/>
  </clipPath>
 </defs>
</svg>
