<?xml version="1.0" encoding="utf-8" standalone="no"?>
<!DOCTYPE svg PUBLIC "-//W3C//DTD SVG 1.1//EN"
  "http://www.w3.org/Graphics/SVG/1.1/DTD/svg11.dtd">
<svg xmlns:xlink="http://www.w3.org/1999/xlink" width="460.8pt" height="345.6pt" viewBox="0 0 460.8 345.6" xmlns="http://www.w3.org/2000/svg" version="1.1">
 <metadata>
  <rdf:RDF xmlns:dc="http://purl.org/dc/elements/1.1/" xmlns:cc="http://creativecommons.org/ns#" xmlns:rdf="http://www.w3.org/1999/02/22-rdf-syntax-ns#">
   <cc:Work>
    <dc:type rdf:resource="http://purl.org/dc/dcmitype/StillImage"/>
    <dc:date>2023-10-31T11:57:30.280811</dc:date>
    <dc:format>image/svg+xml</dc:format>
    <dc:creator>
     <cc:Agent>
      <dc:title>Matplotlib v3.5.2, https://matplotlib.org/</dc:title>
     </cc:Agent>
    </dc:creator>
   </cc:Work>
  </rdf:RDF>
 </metadata>
 <defs>
  <style type="text/css">*{stroke-linejoin: round; stroke-linecap: butt}</style>
 </defs>
 <g id="figure_1">
  <g id="patch_1">
   <path d="M 0 345.6 
L 460.8 345.6 
L 460.8 0 
L 0 0 
z
" style="fill: #ffffff"/>
  </g>
  <g id="axes_1">
   <g id="patch_2">
    <path d="M 57.6 119.740235 
L 414.72 119.740235 
L 414.72 41.472 
L 57.6 41.472 
z
" style="fill: #ffffff"/>
   </g>
   <g id="matplotlib.axis_1">
    <g id="xtick_1">
     <g id="line2d_1">
      <defs>
       <path id="m8e813733b8" d="M 0 0 
L 0 3.5 
" style="stroke: #000000; stroke-width: 0.8"/>
      </defs>
      <g>
       <use xlink:href="#m8e813733b8" x="73.289835" y="119.740235" style="stroke: #000000; stroke-width: 0.8"/>
      </g>
     </g>
     <g id="text_1">
      <!-- 10 -->
      <g transform="translate(66.927335 134.338673)scale(0.1 -0.1)">
       <defs>
        <path id="DejaVuSans-31" d="M 794 531 
L 1825 531 
L 1825 4091 
L 703 3866 
L 703 4441 
L 1819 4666 
L 2450 4666 
L 2450 531 
L 3481 531 
L 3481 0 
L 794 0 
L 794 531 
z
" transform="scale(0.015625)"/>
        <path id="DejaVuSans-30" d="M 2034 4250 
Q 1547 4250 1301 3770 
Q 1056 3291 1056 2328 
Q 1056 1369 1301 889 
Q 1547 409 2034 409 
Q 2525 409 2770 889 
Q 3016 1369 3016 2328 
Q 3016 3291 2770 3770 
Q 2525 4250 2034 4250 
z
M 2034 4750 
Q 2819 4750 3233 4129 
Q 3647 3509 3647 2328 
Q 3647 1150 3233 529 
Q 2819 -91 2034 -91 
Q 1250 -91 836 529 
Q 422 1150 422 2328 
Q 422 3509 836 4129 
Q 1250 4750 2034 4750 
z
" transform="scale(0.015625)"/>
       </defs>
       <use xlink:href="#DejaVuSans-31"/>
       <use xlink:href="#DejaVuSans-30" x="63.623047"/>
      </g>
     </g>
    </g>
    <g id="xtick_2">
     <g id="line2d_2">
      <g>
       <use xlink:href="#m8e813733b8" x="116.721879" y="119.740235" style="stroke: #000000; stroke-width: 0.8"/>
      </g>
     </g>
     <g id="text_2">
      <!-- 12 -->
      <g transform="translate(110.359379 134.338673)scale(0.1 -0.1)">
       <defs>
        <path id="DejaVuSans-32" d="M 1228 531 
L 3431 531 
L 3431 0 
L 469 0 
L 469 531 
Q 828 903 1448 1529 
Q 2069 2156 2228 2338 
Q 2531 2678 2651 2914 
Q 2772 3150 2772 3378 
Q 2772 3750 2511 3984 
Q 2250 4219 1831 4219 
Q 1534 4219 1204 4116 
Q 875 4013 500 3803 
L 500 4441 
Q 881 4594 1212 4672 
Q 1544 4750 1819 4750 
Q 2544 4750 2975 4387 
Q 3406 4025 3406 3419 
Q 3406 3131 3298 2873 
Q 3191 2616 2906 2266 
Q 2828 2175 2409 1742 
Q 1991 1309 1228 531 
z
" transform="scale(0.015625)"/>
       </defs>
       <use xlink:href="#DejaVuSans-31"/>
       <use xlink:href="#DejaVuSans-32" x="63.623047"/>
      </g>
     </g>
    </g>
    <g id="xtick_3">
     <g id="line2d_3">
      <g>
       <use xlink:href="#m8e813733b8" x="160.153923" y="119.740235" style="stroke: #000000; stroke-width: 0.8"/>
      </g>
     </g>
     <g id="text_3">
      <!-- 14 -->
      <g transform="translate(153.791423 134.338673)scale(0.1 -0.1)">
       <defs>
        <path id="DejaVuSans-34" d="M 2419 4116 
L 825 1625 
L 2419 1625 
L 2419 4116 
z
M 2253 4666 
L 3047 4666 
L 3047 1625 
L 3713 1625 
L 3713 1100 
L 3047 1100 
L 3047 0 
L 2419 0 
L 2419 1100 
L 313 1100 
L 313 1709 
L 2253 4666 
z
" transform="scale(0.015625)"/>
       </defs>
       <use xlink:href="#DejaVuSans-31"/>
       <use xlink:href="#DejaVuSans-34" x="63.623047"/>
      </g>
     </g>
    </g>
    <g id="xtick_4">
     <g id="line2d_4">
      <g>
       <use xlink:href="#m8e813733b8" x="203.585967" y="119.740235" style="stroke: #000000; stroke-width: 0.8"/>
      </g>
     </g>
     <g id="text_4">
      <!-- 16 -->
      <g transform="translate(197.223467 134.338673)scale(0.1 -0.1)">
       <defs>
        <path id="DejaVuSans-36" d="M 2113 2584 
Q 1688 2584 1439 2293 
Q 1191 2003 1191 1497 
Q 1191 994 1439 701 
Q 1688 409 2113 409 
Q 2538 409 2786 701 
Q 3034 994 3034 1497 
Q 3034 2003 2786 2293 
Q 2538 2584 2113 2584 
z
M 3366 4563 
L 3366 3988 
Q 3128 4100 2886 4159 
Q 2644 4219 2406 4219 
Q 1781 4219 1451 3797 
Q 1122 3375 1075 2522 
Q 1259 2794 1537 2939 
Q 1816 3084 2150 3084 
Q 2853 3084 3261 2657 
Q 3669 2231 3669 1497 
Q 3669 778 3244 343 
Q 2819 -91 2113 -91 
Q 1303 -91 875 529 
Q 447 1150 447 2328 
Q 447 3434 972 4092 
Q 1497 4750 2381 4750 
Q 2619 4750 2861 4703 
Q 3103 4656 3366 4563 
z
" transform="scale(0.015625)"/>
       </defs>
       <use xlink:href="#DejaVuSans-31"/>
       <use xlink:href="#DejaVuSans-36" x="63.623047"/>
      </g>
     </g>
    </g>
    <g id="xtick_5">
     <g id="line2d_5">
      <g>
       <use xlink:href="#m8e813733b8" x="247.018011" y="119.740235" style="stroke: #000000; stroke-width: 0.8"/>
      </g>
     </g>
     <g id="text_5">
      <!-- 18 -->
      <g transform="translate(240.655511 134.338673)scale(0.1 -0.1)">
       <defs>
        <path id="DejaVuSans-38" d="M 2034 2216 
Q 1584 2216 1326 1975 
Q 1069 1734 1069 1313 
Q 1069 891 1326 650 
Q 1584 409 2034 409 
Q 2484 409 2743 651 
Q 3003 894 3003 1313 
Q 3003 1734 2745 1975 
Q 2488 2216 2034 2216 
z
M 1403 2484 
Q 997 2584 770 2862 
Q 544 3141 544 3541 
Q 544 4100 942 4425 
Q 1341 4750 2034 4750 
Q 2731 4750 3128 4425 
Q 3525 4100 3525 3541 
Q 3525 3141 3298 2862 
Q 3072 2584 2669 2484 
Q 3125 2378 3379 2068 
Q 3634 1759 3634 1313 
Q 3634 634 3220 271 
Q 2806 -91 2034 -91 
Q 1263 -91 848 271 
Q 434 634 434 1313 
Q 434 1759 690 2068 
Q 947 2378 1403 2484 
z
M 1172 3481 
Q 1172 3119 1398 2916 
Q 1625 2713 2034 2713 
Q 2441 2713 2670 2916 
Q 2900 3119 2900 3481 
Q 2900 3844 2670 4047 
Q 2441 4250 2034 4250 
Q 1625 4250 1398 4047 
Q 1172 3844 1172 3481 
z
" transform="scale(0.015625)"/>
       </defs>
       <use xlink:href="#DejaVuSans-31"/>
       <use xlink:href="#DejaVuSans-38" x="63.623047"/>
      </g>
     </g>
    </g>
    <g id="xtick_6">
     <g id="line2d_6">
      <g>
       <use xlink:href="#m8e813733b8" x="290.450055" y="119.740235" style="stroke: #000000; stroke-width: 0.8"/>
      </g>
     </g>
     <g id="text_6">
      <!-- 20 -->
      <g transform="translate(284.087555 134.338673)scale(0.1 -0.1)">
       <use xlink:href="#DejaVuSans-32"/>
       <use xlink:href="#DejaVuSans-30" x="63.623047"/>
      </g>
     </g>
    </g>
    <g id="xtick_7">
     <g id="line2d_7">
      <g>
       <use xlink:href="#m8e813733b8" x="333.882099" y="119.740235" style="stroke: #000000; stroke-width: 0.8"/>
      </g>
     </g>
     <g id="text_7">
      <!-- 22 -->
      <g transform="translate(327.519599 134.338673)scale(0.1 -0.1)">
       <use xlink:href="#DejaVuSans-32"/>
       <use xlink:href="#DejaVuSans-32" x="63.623047"/>
      </g>
     </g>
    </g>
    <g id="xtick_8">
     <g id="line2d_8">
      <g>
       <use xlink:href="#m8e813733b8" x="377.314143" y="119.740235" style="stroke: #000000; stroke-width: 0.8"/>
      </g>
     </g>
     <g id="text_8">
      <!-- 24 -->
      <g transform="translate(370.951643 134.338673)scale(0.1 -0.1)">
       <use xlink:href="#DejaVuSans-32"/>
       <use xlink:href="#DejaVuSans-34" x="63.623047"/>
      </g>
     </g>
    </g>
    <g id="xtick_9">
     <g id="line2d_9">
      <g>
       <use xlink:href="#m8e813733b8" x="399.030165" y="119.740235" style="stroke: #000000; stroke-width: 0.8"/>
      </g>
     </g>
     <g id="text_9">
      <!-- 25 -->
      <g transform="translate(392.667665 134.338673)scale(0.1 -0.1)">
       <defs>
        <path id="DejaVuSans-35" d="M 691 4666 
L 3169 4666 
L 3169 4134 
L 1269 4134 
L 1269 2991 
Q 1406 3038 1543 3061 
Q 1681 3084 1819 3084 
Q 2600 3084 3056 2656 
Q 3513 2228 3513 1497 
Q 3513 744 3044 326 
Q 2575 -91 1722 -91 
Q 1428 -91 1123 -41 
Q 819 9 494 109 
L 494 744 
Q 775 591 1075 516 
Q 1375 441 1709 441 
Q 2250 441 2565 725 
Q 2881 1009 2881 1497 
Q 2881 1984 2565 2268 
Q 2250 2553 1709 2553 
Q 1456 2553 1204 2497 
Q 953 2441 691 2322 
L 691 4666 
z
" transform="scale(0.015625)"/>
       </defs>
       <use xlink:href="#DejaVuSans-32"/>
       <use xlink:href="#DejaVuSans-35" x="63.623047"/>
      </g>
     </g>
    </g>
   </g>
   <g id="matplotlib.axis_2">
    <g id="ytick_1">
     <g id="line2d_10">
      <defs>
       <path id="m450dd27977" d="M 0 0 
L -3.5 0 
" style="stroke: #000000; stroke-width: 0.8"/>
      </defs>
      <g>
       <use xlink:href="#m450dd27977" x="57.6" y="116.189022" style="stroke: #000000; stroke-width: 0.8"/>
      </g>
     </g>
     <g id="text_10">
      <!-- 0.0 -->
      <g transform="translate(34.696875 119.988241)scale(0.1 -0.1)">
       <defs>
        <path id="DejaVuSans-2e" d="M 684 794 
L 1344 794 
L 1344 0 
L 684 0 
L 684 794 
z
" transform="scale(0.015625)"/>
       </defs>
       <use xlink:href="#DejaVuSans-30"/>
       <use xlink:href="#DejaVuSans-2e" x="63.623047"/>
       <use xlink:href="#DejaVuSans-30" x="95.410156"/>
      </g>
     </g>
    </g>
    <g id="ytick_2">
     <g id="line2d_11">
      <g>
       <use xlink:href="#m450dd27977" x="57.6" y="86.024046" style="stroke: #000000; stroke-width: 0.8"/>
      </g>
     </g>
     <g id="text_11">
      <!-- 2.5 -->
      <g transform="translate(34.696875 89.823264)scale(0.1 -0.1)">
       <use xlink:href="#DejaVuSans-32"/>
       <use xlink:href="#DejaVuSans-2e" x="63.623047"/>
       <use xlink:href="#DejaVuSans-35" x="95.410156"/>
      </g>
     </g>
    </g>
    <g id="ytick_3">
     <g id="line2d_12">
      <g>
       <use xlink:href="#m450dd27977" x="57.6" y="55.859069" style="stroke: #000000; stroke-width: 0.8"/>
      </g>
     </g>
     <g id="text_12">
      <!-- 5.0 -->
      <g transform="translate(34.696875 59.658288)scale(0.1 -0.1)">
       <use xlink:href="#DejaVuSans-35"/>
       <use xlink:href="#DejaVuSans-2e" x="63.623047"/>
       <use xlink:href="#DejaVuSans-30" x="95.410156"/>
      </g>
     </g>
    </g>
   </g>
   <g id="line2d_13">
    <path d="M 73.832727 114.261464 
L 74.37564 114.576933 
L 74.918533 113.760062 
L 75.461445 114.226148 
L 76.004338 113.453539 
L 76.54723 112.894875 
L 77.090143 113.64172 
L 77.633035 113.088413 
L 78.175948 114.771528 
L 78.718841 114.564112 
L 79.261733 113.592937 
L 79.804646 110.860932 
L 80.347538 110.26836 
L 80.890451 109.99446 
L 81.433343 105.340737 
L 81.976236 105.578239 
L 82.519148 108.571341 
L 83.062041 108.56776 
L 83.604954 109.711035 
L 84.147846 111.582666 
L 84.690738 111.145455 
L 85.233651 114.254161 
L 85.776544 115.622938 
L 86.319456 115.544758 
L 86.862349 114.924454 
L 87.405241 114.825766 
L 87.948154 116.052342 
L 88.491046 114.963714 
L 89.033959 115.747677 
L 89.576852 115.98403 
L 90.119744 115.519165 
L 90.662657 116.13347 
L 91.205549 116.179608 
L 91.748462 115.774176 
L 92.291354 116.122729 
L 93.377159 115.639748 
L 93.920052 115.656712 
L 95.005857 115.153957 
L 95.548749 114.938096 
L 97.177467 113.731174 
L 97.72036 113.058722 
L 98.263252 112.117871 
L 98.806165 110.678569 
L 99.89197 106.932314 
L 100.434863 107.832241 
L 100.977755 115.878702 
L 101.520668 103.581184 
L 102.06356 103.618271 
L 102.606473 113.401871 
L 103.149365 115.723699 
L 103.692258 104.97368 
L 104.23517 114.507558 
L 104.778063 112.686685 
L 105.320976 102.678449 
L 105.863868 114.013607 
L 106.40676 110.45904 
L 106.949673 98.052047 
L 108.035478 115.50271 
L 108.578371 105.249016 
L 109.121263 103.412694 
L 109.664176 113.28821 
L 110.207068 110.095174 
L 110.749981 105.389177 
L 111.292874 109.327701 
L 111.835766 114.363702 
L 112.378679 109.092209 
L 112.921571 106.966266 
L 113.464484 112.500686 
L 114.007376 111.875821 
L 114.550269 108.74125 
L 115.093181 101.786649 
L 115.636074 115.885135 
L 116.178987 113.093409 
L 116.721879 98.144283 
L 117.264771 109.597745 
L 117.807684 101.664052 
L 118.350577 109.636557 
L 118.893489 110.74914 
L 119.436382 97.163346 
L 119.979274 109.058532 
L 120.522187 111.860541 
L 121.065079 104.222235 
L 121.607992 103.682405 
L 122.150885 104.907795 
L 122.693777 115.496921 
L 123.23669 107.367624 
L 123.779582 105.166378 
L 124.322495 110.223291 
L 124.865387 112.94564 
L 125.40828 109.222984 
L 125.951192 108.091336 
L 126.494085 115.725494 
L 127.036998 113.219233 
L 127.57989 107.892714 
L 128.122782 110.51661 
L 128.665695 115.376124 
L 129.208588 113.442852 
L 129.7515 101.166336 
L 130.294393 114.369051 
L 130.837285 106.376888 
L 131.380198 103.753676 
L 131.92309 112.06943 
L 132.466003 99.353612 
L 133.008896 115.965137 
L 133.551788 114.287396 
L 134.094701 101.846074 
L 134.637593 107.511314 
L 135.180506 106.309402 
L 135.723398 112.32671 
L 136.266291 107.713244 
L 136.809203 104.811566 
L 137.352096 111.316163 
L 137.895009 112.859917 
L 138.437901 108.689931 
L 138.980793 108.811085 
L 139.523706 115.887529 
L 140.066599 113.387495 
L 140.609511 109.104777 
L 141.152404 114.48319 
L 141.695296 115.451454 
L 142.238209 110.347104 
L 142.781101 111.108429 
L 143.324014 114.498607 
L 143.866907 114.313743 
L 144.409799 104.218657 
L 144.952712 115.630262 
L 145.495604 102.883051 
L 146.581409 114.819854 
L 147.124302 101.367263 
L 147.667214 113.824324 
L 148.210107 108.274469 
L 148.75302 108.340858 
L 149.295912 110.844053 
L 149.838804 104.968997 
L 150.381717 113.986546 
L 150.92461 113.581988 
L 151.467522 108.145353 
L 152.010415 109.188372 
L 152.553307 115.077618 
L 153.09622 113.232946 
L 153.639112 109.839622 
L 154.182025 114.141676 
L 154.724918 115.511672 
L 155.26781 111.338262 
L 155.810723 114.997349 
L 156.353615 113.108642 
L 156.896528 112.519502 
L 157.43942 114.40928 
L 157.982313 113.071956 
L 158.525225 113.505039 
L 159.068118 109.326889 
L 159.611031 114.090317 
L 160.153923 103.292344 
L 160.696815 110.437476 
L 161.239728 109.368577 
L 161.782621 104.803321 
L 162.325533 115.715296 
L 162.868426 106.002523 
L 163.411318 112.447837 
L 163.954231 115.548456 
L 164.497123 107.300353 
L 165.040036 112.525479 
L 165.582929 113.844511 
L 166.125821 112.990223 
L 166.668734 110.578496 
L 167.754539 115.105582 
L 168.297431 112.434291 
L 168.840324 114.187041 
L 169.383236 113.536782 
L 169.926129 113.857935 
L 170.469042 116.077602 
L 171.011934 112.923824 
L 172.097739 114.824558 
L 172.640632 112.581261 
L 173.183544 115.201993 
L 173.726437 115.85317 
L 174.269329 115.739769 
L 174.812242 110.375361 
L 175.355134 111.438524 
L 175.898047 107.274096 
L 176.44094 105.771268 
L 176.983832 109.037425 
L 177.526745 105.691357 
L 178.069637 110.661079 
L 179.155442 109.417441 
L 179.698335 114.92822 
L 180.241247 111.48144 
L 180.78414 115.498193 
L 181.327053 114.918797 
L 182.412837 113.509862 
L 182.95575 115.310187 
L 183.498643 116.027805 
L 184.041555 113.447181 
L 184.584448 115.802647 
L 185.12734 115.263195 
L 185.670253 114.119102 
L 186.213145 115.438347 
L 186.756058 114.628608 
L 187.298951 114.282776 
L 187.841843 114.814284 
L 188.384756 114.505414 
L 188.927648 114.937564 
L 189.470561 116.053235 
L 190.556346 114.782975 
L 191.099258 115.954195 
L 192.185064 105.977309 
L 192.727956 107.68367 
L 193.270848 114.885753 
L 193.813761 103.909867 
L 194.356654 98.823305 
L 194.899566 98.690517 
L 195.985351 107.203899 
L 196.528264 108.275552 
L 197.071156 110.944876 
L 198.156962 114.377503 
L 198.699854 115.740363 
L 199.242767 115.932363 
L 199.785659 115.185159 
L 200.328572 114.89092 
L 200.871464 115.967606 
L 201.414357 115.558673 
L 201.957269 116.058233 
L 202.500162 115.257758 
L 203.043075 115.303782 
L 203.585967 114.087228 
L 204.671752 113.00661 
L 205.214685 111.68345 
L 205.757577 111.958189 
L 206.30047 112.493327 
L 206.843362 114.77667 
L 207.386254 111.558823 
L 207.929188 107.488264 
L 208.47208 106.197199 
L 209.014973 106.771489 
L 209.557865 109.342117 
L 210.100757 109.239146 
L 210.643691 109.826613 
L 211.186583 111.390201 
L 211.729475 110.842926 
L 212.272368 110.529609 
L 213.358193 111.896175 
L 213.901086 114.195116 
L 214.443978 115.883743 
L 214.98687 115.900075 
L 215.529763 115.632036 
L 216.072696 115.623247 
L 216.615588 116.164392 
L 217.158481 115.915745 
L 217.701373 115.966055 
L 218.244265 115.555323 
L 218.787199 115.606065 
L 219.330091 115.073574 
L 220.415876 114.545473 
L 222.587486 112.34115 
L 223.130379 112.062213 
L 223.673271 112.388123 
L 224.216204 114.24168 
L 224.759097 113.238561 
L 225.301989 103.405288 
L 225.844881 87.484596 
L 226.387774 67.92805 
L 226.930707 54.360282 
L 227.473599 60.919524 
L 228.016492 93.965986 
L 228.559384 94.532385 
L 229.102276 64.834107 
L 229.64521 49.588298 
L 230.188102 45.763584 
L 230.730995 69.681706 
L 231.273887 101.395548 
L 232.359713 115.388811 
L 232.902605 106.711579 
L 233.445497 114.702476 
L 234.531282 101.556315 
L 235.074215 115.865908 
L 235.617108 106.891338 
L 236.16 106.753356 
L 236.702892 114.049529 
L 237.245785 108.662109 
L 237.788718 113.370708 
L 238.33161 111.616399 
L 238.874503 115.401759 
L 239.960287 100.1482 
L 240.503221 100.631945 
L 241.046113 89.755311 
L 241.589005 95.745314 
L 242.131898 108.696567 
L 242.67479 115.613546 
L 243.217724 89.79698 
L 243.760616 86.394229 
L 244.303508 85.11058 
L 244.846401 81.066417 
L 245.389293 101.220422 
L 245.932226 98.643339 
L 246.475119 107.879587 
L 247.018011 114.03622 
L 247.560903 108.411345 
L 248.103796 110.30112 
L 248.646729 114.520488 
L 249.189621 112.769712 
L 249.732514 108.35709 
L 250.275406 113.299686 
L 250.818298 115.446684 
L 251.361232 112.237151 
L 251.904124 111.385768 
L 252.447016 115.887918 
L 253.532801 113.886251 
L 254.618627 108.679816 
L 255.161519 104.630638 
L 255.704412 92.592888 
L 256.247304 89.697922 
L 256.790237 87.952507 
L 257.33313 93.215666 
L 257.876022 113.356082 
L 258.961807 76.877934 
L 259.50474 70.226295 
L 260.047632 82.825231 
L 260.590525 86.29647 
L 261.133417 102.990821 
L 261.676309 110.574226 
L 262.219243 111.107676 
L 262.762135 109.870641 
L 263.305027 115.475537 
L 263.84792 113.119194 
L 264.390812 109.028648 
L 264.933746 115.376806 
L 265.476638 112.114655 
L 266.01953 113.494402 
L 266.562423 114.371769 
L 267.105315 113.884433 
L 267.648248 115.657151 
L 268.191141 114.45042 
L 269.276925 115.832062 
L 269.819818 114.724095 
L 270.362751 110.645842 
L 270.905643 108.560607 
L 271.448536 103.260557 
L 271.991428 99.983716 
L 273.077254 106.957613 
L 273.620146 115.26071 
L 274.163038 111.511777 
L 274.705931 116.119471 
L 275.248823 115.730321 
L 275.791757 113.871223 
L 276.877541 80.816191 
L 277.420434 79.87197 
L 277.963326 84.985564 
L 278.506259 100.725231 
L 279.049152 112.208967 
L 279.592044 115.138883 
L 280.134936 108.039301 
L 280.677829 109.256404 
L 281.220762 109.670904 
L 281.763654 108.638855 
L 282.306547 112.111764 
L 282.849439 112.149993 
L 283.392331 112.594343 
L 283.935265 114.583917 
L 284.478157 114.196222 
L 285.563942 115.259791 
L 286.106834 114.652251 
L 286.649768 114.37599 
L 287.19266 113.496638 
L 287.735552 111.371499 
L 288.278445 108.531774 
L 289.36427 101.635743 
L 289.907163 103.368156 
L 290.450055 112.955435 
L 290.992947 102.355629 
L 291.53584 87.407998 
L 292.078773 85.872492 
L 292.621665 94.238817 
L 293.164558 105.623153 
L 293.70745 114.031098 
L 294.250342 115.361147 
L 294.793276 115.731819 
L 295.336168 114.855283 
L 295.87906 115.434887 
L 296.964845 115.948102 
L 297.507779 115.04918 
L 298.050671 115.395373 
L 299.136456 114.431527 
L 299.679348 115.066606 
L 300.222281 114.453784 
L 300.765174 114.571878 
L 301.308066 114.901647 
L 301.850958 114.582913 
L 302.393851 115.518589 
L 302.936784 115.846011 
L 303.479676 114.019706 
L 304.565461 105.684183 
L 305.108353 100.645818 
L 305.651287 97.724704 
L 306.194179 101.600532 
L 307.279964 114.736934 
L 307.822856 112.228465 
L 308.36579 112.077262 
L 308.908682 110.859734 
L 309.451574 100.679373 
L 309.994467 85.623532 
L 310.537359 78.309167 
L 311.080292 82.14354 
L 311.623185 93.931801 
L 312.166077 108.364367 
L 312.708969 115.039658 
L 313.251862 110.401252 
L 313.794795 107.605316 
L 315.423472 110.074782 
L 315.966364 112.002834 
L 317.595082 114.147468 
L 318.137975 114.126318 
L 319.223801 114.494312 
L 319.766693 114.423593 
L 320.309585 114.826583 
L 320.852478 115.649988 
L 321.39537 115.123952 
L 321.938303 112.107789 
L 322.481196 107.613957 
L 323.56698 97.339563 
L 324.109873 97.126192 
L 324.652806 104.396974 
L 325.195698 113.432323 
L 326.281483 80.665627 
L 326.824375 68.255197 
L 327.367309 61.581007 
L 327.910201 69.083719 
L 328.453093 94.263006 
L 328.995986 109.474233 
L 330.081812 56.815692 
L 330.624704 63.569508 
L 331.167596 97.033114 
L 331.710489 102.692948 
L 332.253381 105.272507 
L 332.796314 109.541242 
L 333.339207 108.973552 
L 333.882099 113.950138 
L 334.424991 98.303316 
L 334.967884 112.240512 
L 335.510817 112.631164 
L 336.053709 101.121273 
L 336.596602 109.927765 
L 337.139494 109.753161 
L 337.682386 107.59912 
L 338.22532 109.174122 
L 338.768212 109.487491 
L 339.311104 116.116777 
L 339.853997 105.723496 
L 340.396889 115.095727 
L 340.939823 99.209445 
L 341.482715 95.016363 
L 342.025607 100.389649 
L 342.5685 78.716314 
L 343.111392 107.547586 
L 343.654325 107.309682 
L 344.197218 90.208196 
L 344.74011 53.828761 
L 345.283002 80.600818 
L 345.825895 82.37247 
L 346.368828 92.018843 
L 346.91172 108.318816 
L 347.454613 105.564629 
L 347.997505 108.637155 
L 348.540397 103.783461 
L 349.083331 109.130344 
L 349.626223 101.959059 
L 350.169115 113.198606 
L 350.712008 112.584354 
L 351.2549 104.030905 
L 351.797834 114.338201 
L 352.340726 114.525942 
L 352.883618 105.448244 
L 353.426511 115.903467 
L 353.969403 107.043643 
L 354.512336 104.605985 
L 355.055229 115.799203 
L 355.598121 106.591074 
L 356.141013 109.755916 
L 356.683906 96.36503 
L 357.226839 100.015323 
L 357.769731 77.536508 
L 358.312624 95.386266 
L 358.855516 105.041294 
L 359.398408 105.756803 
L 359.941342 98.327805 
L 360.484234 114.234858 
L 361.570019 103.998039 
L 362.112911 105.816182 
L 362.655845 109.330262 
L 363.198737 114.413352 
L 363.741629 106.265876 
L 364.284522 109.07547 
L 364.827414 109.510838 
L 365.370347 112.860997 
L 365.91324 110.611142 
L 366.456132 110.944829 
L 366.999024 113.514334 
L 367.541917 109.923945 
L 368.08485 115.327668 
L 368.627742 104.798286 
L 369.170635 104.630544 
L 369.713527 107.480783 
L 370.256419 99.4479 
L 370.799353 114.173823 
L 371.342245 112.021365 
L 371.885137 105.498589 
L 372.42803 82.521902 
L 372.970922 87.359637 
L 373.513856 75.710659 
L 374.056748 76.60813 
L 374.59964 99.307996 
L 375.142533 102.642381 
L 375.685425 99.629439 
L 376.228358 91.814035 
L 376.771251 101.090332 
L 377.314143 92.054237 
L 377.857035 111.691345 
L 378.399928 115.762329 
L 379.485753 107.423178 
L 380.028646 114.031873 
L 380.571538 115.327754 
L 381.11443 109.135557 
L 381.657364 115.591621 
L 382.200256 116.122065 
L 382.743148 115.414953 
L 383.286041 109.233791 
L 383.828933 109.016683 
L 384.371867 105.928112 
L 384.914759 100.010074 
L 385.457651 107.520919 
L 386.000544 110.799582 
L 386.543436 110.695635 
L 387.086369 94.242359 
L 387.629262 95.435475 
L 388.172154 87.695663 
L 388.715046 93.563858 
L 389.257939 102.068854 
L 389.800872 98.723904 
L 390.343764 111.571565 
L 390.886657 108.833969 
L 391.429549 111.787781 
L 391.972441 107.657759 
L 392.515375 108.456601 
L 393.058267 89.810311 
L 393.601159 77.631327 
L 394.144052 83.200635 
L 394.686944 94.503104 
L 395.229878 102.95505 
L 395.77277 77.041167 
L 396.315662 77.53012 
L 396.858555 85.645289 
L 397.94438 115.305922 
L 398.487273 111.401628 
L 398.487273 111.401628 
" clip-path="url(#pcaeda447a1)" style="fill: none; stroke: #385989; stroke-width: 1.5; stroke-linecap: square"/>
   </g>
   <g id="line2d_14">
    <path d="M 73.832727 113.982123 
L 74.37564 115.086279 
L 76.54723 113.737138 
L 77.090143 113.530722 
L 77.633035 113.730039 
L 78.718841 115.485561 
L 79.261733 114.807383 
L 80.890451 108.01158 
L 81.433343 107.001203 
L 81.976236 106.899731 
L 82.519148 107.648767 
L 84.147846 111.581455 
L 84.690738 113.307511 
L 85.233651 113.697567 
L 86.319456 114.976329 
L 87.405241 115.635843 
L 88.491046 115.98772 
L 90.119744 116.181681 
L 94.462965 115.675035 
L 95.005857 114.032225 
L 95.548749 114.094017 
L 96.091662 115.017138 
L 97.177467 114.289123 
L 98.806165 113.004814 
L 99.349057 112.935616 
L 99.89197 113.175418 
L 100.434863 113.88523 
L 100.977755 114.991857 
L 101.520668 113.989451 
L 102.06356 114.154796 
L 102.606473 113.453941 
L 103.149365 106.253788 
L 103.692258 102.819408 
L 104.23517 100.694568 
L 104.778063 101.773073 
L 105.863868 109.990363 
L 106.40676 109.964677 
L 106.949673 112.752322 
L 107.492566 113.953846 
L 108.035478 114.773901 
L 108.578371 115.260887 
L 109.121263 115.533132 
L 110.207068 115.643524 
L 112.378679 115.509688 
L 112.921571 115.691989 
L 113.464484 116.078454 
L 114.007376 115.780273 
L 115.093181 114.083714 
L 116.178987 112.359909 
L 117.264771 109.027976 
L 117.807684 110.362927 
L 118.350577 110.504906 
L 118.893489 110.847082 
L 119.979274 112.143171 
L 121.607992 114.186858 
L 122.693777 115.192526 
L 123.779582 115.985624 
L 124.322495 116.081409 
L 125.40828 115.544315 
L 125.951192 115.359004 
L 127.036998 115.269469 
L 127.57989 114.598255 
L 128.122782 113.735028 
L 128.665695 115.54982 
L 129.208588 113.888485 
L 129.7515 113.300371 
L 130.294393 111.761811 
L 130.837285 111.258828 
L 131.380198 110.367665 
L 131.92309 110.10257 
L 132.466003 110.152559 
L 133.008896 110.554051 
L 134.094701 111.899009 
L 135.723398 114.056013 
L 136.809203 115.135293 
L 137.895009 115.919435 
L 138.437901 115.52138 
L 138.980793 115.789737 
L 140.066599 115.18826 
L 140.609511 114.943822 
L 141.152404 114.843912 
L 141.695296 114.932157 
L 142.238209 115.315691 
L 142.781101 116.082124 
L 143.324014 115.079559 
L 144.952712 111.049127 
L 145.495604 110.250333 
L 146.038517 109.79713 
L 146.581409 109.764322 
L 147.124302 110.01163 
L 147.667214 110.563701 
L 150.92461 114.830836 
L 152.010415 115.723824 
L 152.553307 116.087402 
L 153.09622 115.937808 
L 155.810723 114.226422 
L 156.353615 114.161063 
L 156.896528 114.471219 
L 157.43942 114.915992 
L 157.982313 115.804032 
L 159.611031 109.739912 
L 160.153923 108.771208 
L 161.782621 109.700829 
L 165.582929 114.654873 
L 166.668734 115.559418 
L 167.754539 116.140063 
L 169.383236 115.149018 
L 170.469042 114.321051 
L 171.011934 114.657731 
L 171.554826 114.097519 
L 172.097739 112.766296 
L 172.640632 112.892121 
L 173.183544 114.457156 
L 173.726437 114.986312 
L 174.812242 107.736073 
L 175.355134 106.396293 
L 176.44094 108.81045 
L 176.983832 109.989645 
L 177.526745 110.822498 
L 178.069637 111.183438 
L 179.155442 112.354487 
L 180.78414 114.296813 
L 181.327053 114.79745 
L 181.869945 115.072257 
L 182.412837 114.861933 
L 182.95575 115.806606 
L 184.041555 116.153627 
L 185.670253 115.501514 
L 186.213145 115.163855 
L 186.756058 114.629459 
L 187.298951 113.879391 
L 187.841843 112.665231 
L 188.384756 110.985859 
L 189.470561 106.522115 
L 190.013453 106.271788 
L 190.556346 110.763425 
L 191.099258 110.988749 
L 191.642151 96.928864 
L 192.185064 90.05205 
L 192.727956 93.886436 
L 193.813761 113.935402 
L 194.356654 115.151134 
L 194.899566 115.811313 
L 195.985351 113.622961 
L 196.528264 113.146585 
L 197.071156 113.225252 
L 197.614069 113.581736 
L 198.699854 114.468773 
L 199.785659 115.125495 
L 200.871464 115.350877 
L 201.957269 115.339987 
L 202.500162 115.138071 
L 203.043075 115.211248 
L 204.128859 114.561345 
L 204.671752 114.735131 
L 205.757577 114.803084 
L 206.30047 114.616059 
L 206.843362 113.918014 
L 207.929188 111.095235 
L 208.47208 112.367598 
L 209.014973 114.816829 
L 209.557865 107.600095 
L 210.100757 102.349262 
L 210.643691 101.100995 
L 211.186583 103.042124 
L 212.272368 108.823079 
L 212.81526 111.20049 
L 213.358193 112.817197 
L 214.443978 115.361924 
L 214.98687 115.843491 
L 215.529763 115.753163 
L 216.615588 116.132286 
L 217.701373 116.101515 
L 218.787199 116.121044 
L 219.330091 116.182588 
L 219.872984 115.950562 
L 220.415876 115.526814 
L 220.958768 114.662048 
L 221.501702 113.061607 
L 222.044594 110.330351 
L 222.587486 105.892177 
L 223.673271 93.168249 
L 224.216204 90.077682 
L 224.759097 97.15204 
L 225.301989 113.227693 
L 226.387774 52.847916 
L 226.930707 45.029647 
L 227.473599 64.673839 
L 228.016492 102.464456 
L 228.559384 96.88296 
L 229.102276 83.73494 
L 229.64521 88.326338 
L 230.730995 109.907935 
L 231.273887 115.942698 
L 231.816779 112.769938 
L 232.359713 111.602316 
L 232.902605 111.619192 
L 235.617108 114.70916 
L 237.245785 115.709901 
L 237.788718 116.163255 
L 238.874503 114.985722 
L 239.417395 114.66587 
L 239.960287 115.52585 
L 240.503221 113.587942 
L 241.589005 99.790993 
L 242.131898 96.260121 
L 242.67479 103.419574 
L 243.217724 112.616983 
L 243.760616 96.245788 
L 244.303508 89.298139 
L 244.846401 91.729643 
L 246.475119 110.315743 
L 247.560903 114.37104 
L 248.103796 115.969375 
L 249.189621 115.095475 
L 251.361232 114.258221 
L 252.447016 113.831636 
L 252.989909 113.842375 
L 253.532801 114.324567 
L 254.075735 115.567966 
L 254.618627 114.165288 
L 255.161519 109.368024 
L 255.704412 102.128201 
L 256.790237 84.168902 
L 257.33313 80.139792 
L 257.876022 87.078079 
L 258.418914 105.777833 
L 258.961807 100.52335 
L 259.50474 77.84265 
L 260.047632 67.950763 
L 260.590525 70.744 
L 262.219243 106.593371 
L 262.762135 113.894068 
L 263.305027 114.440398 
L 263.84792 112.603375 
L 264.390812 112.219264 
L 264.933746 112.606273 
L 267.648248 115.899123 
L 268.191141 115.985373 
L 268.734033 115.306073 
L 269.276925 115.197163 
L 269.819818 114.677024 
L 270.905643 114.191328 
L 271.448536 114.093571 
L 271.991428 114.588949 
L 272.53432 115.923086 
L 273.077254 112.063518 
L 273.620146 105.555573 
L 274.705931 87.375228 
L 275.248823 86.124335 
L 275.791757 99.466849 
L 276.334649 106.10453 
L 276.877541 78.011132 
L 277.420434 59.280072 
L 277.963326 52.809215 
L 278.506259 59.042249 
L 279.592044 105.161388 
L 280.134936 65.216 
L 280.677829 54.436085 
L 281.220762 61.239129 
L 282.306547 95.573203 
L 282.849439 106.974417 
L 283.392331 113.602966 
L 283.935265 115.570164 
L 284.478157 114.566976 
L 285.021049 114.201971 
L 285.563942 114.624223 
L 286.106834 115.352205 
L 286.649768 115.552659 
L 287.19266 115.465621 
L 287.735552 114.866226 
L 288.278445 113.168527 
L 288.821337 110.132182 
L 289.907163 103.164411 
L 290.450055 100.579278 
L 290.992947 107.902719 
L 291.53584 109.170277 
L 292.078773 96.172868 
L 292.621665 90.184606 
L 293.164558 94.755365 
L 293.70745 106.179237 
L 294.250342 112.618153 
L 294.793276 102.09345 
L 295.336168 97.819063 
L 295.87906 97.885221 
L 296.421953 100.778005 
L 297.507779 108.073289 
L 298.050671 110.944589 
L 298.593563 113.009425 
L 299.136456 114.412484 
L 299.679348 115.319772 
L 300.222281 115.914934 
L 300.765174 116.0954 
L 301.308066 115.687989 
L 301.850958 115.487308 
L 302.393851 115.047624 
L 302.936784 114.429431 
L 303.479676 113.604399 
L 304.022569 112.340232 
L 305.651287 106.916323 
L 306.194179 106.619875 
L 307.279964 112.972145 
L 308.36579 83.220196 
L 308.908682 79.060378 
L 309.451574 91.285553 
L 309.994467 112.722182 
L 310.537359 103.63109 
L 311.080292 99.87516 
L 311.623185 104.748536 
L 312.166077 112.044106 
L 312.708969 114.735791 
L 313.251862 111.914109 
L 313.794795 110.815939 
L 314.337687 110.871419 
L 316.509298 113.214548 
L 317.595082 113.737617 
L 318.680867 114.27635 
L 319.223801 114.92507 
L 319.766693 116.094617 
L 320.309585 113.727528 
L 320.852478 109.717921 
L 321.39537 104.116275 
L 322.481196 91.149642 
L 323.024088 90.318403 
L 323.56698 96.666933 
L 324.109873 109.521971 
L 324.652806 104.368676 
L 325.195698 87.863015 
L 325.738591 77.02779 
L 326.281483 76.348968 
L 326.824375 83.567515 
L 327.910201 105.229525 
L 328.453093 112.999232 
L 328.995986 114.762953 
L 329.538878 112.49438 
L 330.081812 111.840214 
L 330.624704 112.14118 
L 331.710489 113.636146 
L 333.339207 116.003303 
L 333.882099 115.539245 
L 334.424991 116.129924 
L 334.967884 115.065008 
L 335.510817 114.868402 
L 336.053709 114.99512 
L 336.596602 115.648504 
L 337.139494 114.899705 
L 337.682386 111.608489 
L 338.22532 106.161574 
L 338.768212 99.253646 
L 339.311104 93.969282 
L 339.853997 94.837897 
L 340.396889 105.507999 
L 340.939823 110.852794 
L 341.482715 100.405032 
L 342.025607 103.055947 
L 342.5685 114.275322 
L 343.111392 113.385573 
L 343.654325 108.577684 
L 344.197218 89.909903 
L 344.74011 79.603326 
L 345.283002 83.241736 
L 346.368828 107.885598 
L 346.91172 115.523508 
L 347.454613 110.703843 
L 347.997505 108.929092 
L 348.540397 108.864381 
L 349.626223 110.537851 
L 350.712008 112.128415 
L 351.2549 112.634704 
L 352.883618 113.581708 
L 353.426511 114.493118 
L 353.969403 116.088651 
L 354.512336 112.293104 
L 355.055229 105.841605 
L 355.598121 90.31521 
L 356.683906 76.182548 
L 357.226839 80.590024 
L 357.769731 100.75704 
L 358.312624 104.34717 
L 358.855516 76.461209 
L 359.398408 65.51662 
L 359.941342 67.303562 
L 362.112911 113.484999 
L 362.655845 114.919048 
L 363.198737 112.177897 
L 363.741629 110.302059 
L 364.284522 110.867548 
L 364.827414 113.361888 
L 365.370347 114.408121 
L 365.91324 113.143446 
L 366.456132 113.97862 
L 366.999024 115.195036 
L 368.08485 116.112573 
L 368.627742 115.880393 
L 369.170635 115.446786 
L 369.713527 114.820135 
L 370.256419 114.014531 
L 370.799353 112.817252 
L 371.342245 111.049506 
L 372.42803 106.999036 
L 372.970922 107.196021 
L 373.513856 112.124738 
L 374.056748 109.725709 
L 374.59964 98.142098 
L 375.142533 92.789407 
L 375.685425 96.574321 
L 376.771251 111.789518 
L 377.314143 115.721734 
L 377.857035 115.618037 
L 378.399928 114.530662 
L 379.485753 114.034708 
L 380.028646 114.074605 
L 381.657364 115.147855 
L 382.200256 115.505065 
L 383.828933 116.127268 
L 386.000544 115.941405 
L 386.543436 116.044519 
L 387.086369 115.812936 
L 387.629262 115.067881 
L 388.172154 70.126025 
L 388.715046 45.918989 
L 389.257939 105.013397 
L 390.343764 91.40617 
L 390.886657 88.899241 
L 391.429549 95.132342 
L 391.972441 115.564513 
L 393.058267 60.680469 
L 393.601159 45.660246 
L 394.144052 50.872893 
L 394.686944 78.020911 
L 395.229878 114.677976 
L 395.77277 83.83395 
L 396.315662 77.204278 
L 396.858555 87.459456 
L 397.94438 112.913852 
L 398.487273 111.086243 
L 398.487273 111.086243 
" clip-path="url(#pcaeda447a1)" style="fill: none; stroke: #d22027; stroke-width: 1.5; stroke-linecap: square"/>
   </g>
   <g id="patch_3">
    <path d="M 57.6 119.740235 
L 57.6 41.472 
" style="fill: none; stroke: #000000; stroke-width: 0.8; stroke-linejoin: miter; stroke-linecap: square"/>
   </g>
   <g id="patch_4">
    <path d="M 414.72 119.740235 
L 414.72 41.472 
" style="fill: none; stroke: #000000; stroke-width: 0.8; stroke-linejoin: miter; stroke-linecap: square"/>
   </g>
   <g id="patch_5">
    <path d="M 57.6 119.740235 
L 414.72 119.740235 
" style="fill: none; stroke: #000000; stroke-width: 0.8; stroke-linejoin: miter; stroke-linecap: square"/>
   </g>
   <g id="patch_6">
    <path d="M 57.6 41.472 
L 414.72 41.472 
" style="fill: none; stroke: #000000; stroke-width: 0.8; stroke-linejoin: miter; stroke-linecap: square"/>
   </g>
  </g>
  <g id="axes_2">
   <g id="patch_7">
    <path d="M 57.6 213.662118 
L 414.72 213.662118 
L 414.72 135.393882 
L 57.6 135.393882 
z
" style="fill: #ffffff"/>
   </g>
   <g id="matplotlib.axis_3">
    <g id="xtick_10">
     <g id="line2d_15">
      <g>
       <use xlink:href="#m8e813733b8" x="73.289835" y="213.662118" style="stroke: #000000; stroke-width: 0.8"/>
      </g>
     </g>
     <g id="text_13">
      <!-- 10 -->
      <g transform="translate(66.927335 228.260555)scale(0.1 -0.1)">
       <use xlink:href="#DejaVuSans-31"/>
       <use xlink:href="#DejaVuSans-30" x="63.623047"/>
      </g>
     </g>
    </g>
    <g id="xtick_11">
     <g id="line2d_16">
      <g>
       <use xlink:href="#m8e813733b8" x="116.721879" y="213.662118" style="stroke: #000000; stroke-width: 0.8"/>
      </g>
     </g>
     <g id="text_14">
      <!-- 12 -->
      <g transform="translate(110.359379 228.260555)scale(0.1 -0.1)">
       <use xlink:href="#DejaVuSans-31"/>
       <use xlink:href="#DejaVuSans-32" x="63.623047"/>
      </g>
     </g>
    </g>
    <g id="xtick_12">
     <g id="line2d_17">
      <g>
       <use xlink:href="#m8e813733b8" x="160.153923" y="213.662118" style="stroke: #000000; stroke-width: 0.8"/>
      </g>
     </g>
     <g id="text_15">
      <!-- 14 -->
      <g transform="translate(153.791423 228.260555)scale(0.1 -0.1)">
       <use xlink:href="#DejaVuSans-31"/>
       <use xlink:href="#DejaVuSans-34" x="63.623047"/>
      </g>
     </g>
    </g>
    <g id="xtick_13">
     <g id="line2d_18">
      <g>
       <use xlink:href="#m8e813733b8" x="203.585967" y="213.662118" style="stroke: #000000; stroke-width: 0.8"/>
      </g>
     </g>
     <g id="text_16">
      <!-- 16 -->
      <g transform="translate(197.223467 228.260555)scale(0.1 -0.1)">
       <use xlink:href="#DejaVuSans-31"/>
       <use xlink:href="#DejaVuSans-36" x="63.623047"/>
      </g>
     </g>
    </g>
    <g id="xtick_14">
     <g id="line2d_19">
      <g>
       <use xlink:href="#m8e813733b8" x="247.018011" y="213.662118" style="stroke: #000000; stroke-width: 0.8"/>
      </g>
     </g>
     <g id="text_17">
      <!-- 18 -->
      <g transform="translate(240.655511 228.260555)scale(0.1 -0.1)">
       <use xlink:href="#DejaVuSans-31"/>
       <use xlink:href="#DejaVuSans-38" x="63.623047"/>
      </g>
     </g>
    </g>
    <g id="xtick_15">
     <g id="line2d_20">
      <g>
       <use xlink:href="#m8e813733b8" x="290.450055" y="213.662118" style="stroke: #000000; stroke-width: 0.8"/>
      </g>
     </g>
     <g id="text_18">
      <!-- 20 -->
      <g transform="translate(284.087555 228.260555)scale(0.1 -0.1)">
       <use xlink:href="#DejaVuSans-32"/>
       <use xlink:href="#DejaVuSans-30" x="63.623047"/>
      </g>
     </g>
    </g>
    <g id="xtick_16">
     <g id="line2d_21">
      <g>
       <use xlink:href="#m8e813733b8" x="333.882099" y="213.662118" style="stroke: #000000; stroke-width: 0.8"/>
      </g>
     </g>
     <g id="text_19">
      <!-- 22 -->
      <g transform="translate(327.519599 228.260555)scale(0.1 -0.1)">
       <use xlink:href="#DejaVuSans-32"/>
       <use xlink:href="#DejaVuSans-32" x="63.623047"/>
      </g>
     </g>
    </g>
    <g id="xtick_17">
     <g id="line2d_22">
      <g>
       <use xlink:href="#m8e813733b8" x="377.314143" y="213.662118" style="stroke: #000000; stroke-width: 0.8"/>
      </g>
     </g>
     <g id="text_20">
      <!-- 24 -->
      <g transform="translate(370.951643 228.260555)scale(0.1 -0.1)">
       <use xlink:href="#DejaVuSans-32"/>
       <use xlink:href="#DejaVuSans-34" x="63.623047"/>
      </g>
     </g>
    </g>
    <g id="xtick_18">
     <g id="line2d_23">
      <g>
       <use xlink:href="#m8e813733b8" x="399.030165" y="213.662118" style="stroke: #000000; stroke-width: 0.8"/>
      </g>
     </g>
     <g id="text_21">
      <!-- 25 -->
      <g transform="translate(392.667665 228.260555)scale(0.1 -0.1)">
       <use xlink:href="#DejaVuSans-32"/>
       <use xlink:href="#DejaVuSans-35" x="63.623047"/>
      </g>
     </g>
    </g>
   </g>
   <g id="matplotlib.axis_4">
    <g id="ytick_4">
     <g id="line2d_24">
      <g>
       <use xlink:href="#m450dd27977" x="57.6" y="210.106271" style="stroke: #000000; stroke-width: 0.8"/>
      </g>
     </g>
     <g id="text_22">
      <!-- 0 -->
      <g transform="translate(44.2375 213.90549)scale(0.1 -0.1)">
       <use xlink:href="#DejaVuSans-30"/>
      </g>
     </g>
    </g>
    <g id="ytick_5">
     <g id="line2d_25">
      <g>
       <use xlink:href="#m450dd27977" x="57.6" y="168.274159" style="stroke: #000000; stroke-width: 0.8"/>
      </g>
     </g>
     <g id="text_23">
      <!-- 10 -->
      <g transform="translate(37.875 172.073378)scale(0.1 -0.1)">
       <use xlink:href="#DejaVuSans-31"/>
       <use xlink:href="#DejaVuSans-30" x="63.623047"/>
      </g>
     </g>
    </g>
   </g>
   <g id="line2d_26">
    <path d="M 73.832727 209.654268 
L 74.37564 210.072446 
L 74.918533 209.861564 
L 75.461445 210.026391 
L 76.54723 210.076055 
L 77.090143 209.709474 
L 77.633035 210.013021 
L 78.175948 209.724639 
L 78.718841 209.888574 
L 79.261733 209.825469 
L 80.347538 207.666371 
L 80.890451 209.508653 
L 81.433343 209.719885 
L 81.976236 209.32353 
L 82.519148 210.047019 
L 83.062041 209.030617 
L 83.604954 208.918902 
L 84.147846 210.0561 
L 84.690738 209.468859 
L 85.233651 209.994117 
L 85.776544 209.549654 
L 86.319456 209.67103 
L 86.862349 210.011791 
L 87.405241 209.900541 
L 87.948154 209.669226 
L 88.491046 210.049141 
L 89.033959 210.021036 
L 89.576852 209.809586 
L 90.119744 210.075361 
L 91.205549 210.018836 
L 92.834247 209.988996 
L 95.005857 209.724555 
L 97.177467 209.397474 
L 97.72036 209.234985 
L 98.263252 208.953487 
L 98.806165 208.444285 
L 99.349057 207.666589 
L 99.89197 207.09651 
L 100.434863 208.550637 
L 100.977755 205.045959 
L 101.520668 195.667904 
L 102.06356 199.010287 
L 102.606473 199.143566 
L 103.149365 187.407392 
L 103.692258 199.58826 
L 104.23517 205.211986 
L 104.778063 207.820573 
L 105.320976 202.721252 
L 105.863868 207.744275 
L 106.40676 206.48078 
L 106.949673 204.354611 
L 107.492566 203.557668 
L 108.035478 208.049422 
L 108.578371 206.09223 
L 109.121263 203.552177 
L 109.664176 209.26811 
L 110.207068 208.642995 
L 110.749981 205.156903 
L 111.835766 209.584325 
L 112.378679 206.919788 
L 112.921571 205.883924 
L 113.464484 207.363716 
L 114.007376 207.918737 
L 114.550269 205.304074 
L 115.093181 203.863492 
L 115.636074 208.516325 
L 116.178987 205.543914 
L 116.721879 204.141097 
L 117.264771 202.275778 
L 117.807684 208.910579 
L 118.350577 208.102533 
L 118.893489 203.965207 
L 119.436382 203.835401 
L 119.979274 207.005426 
L 120.522187 209.494699 
L 121.065079 205.598304 
L 121.607992 205.184064 
L 122.150885 206.908916 
L 122.693777 209.739013 
L 123.23669 206.862482 
L 123.779582 206.341551 
L 124.322495 207.668504 
L 124.865387 209.37858 
L 125.951192 206.560292 
L 126.494085 209.145658 
L 127.036998 209.262401 
L 127.57989 206.194394 
L 128.122782 206.701986 
L 128.665695 209.911568 
L 129.7515 204.066745 
L 130.294393 205.927998 
L 130.837285 208.209809 
L 131.380198 206.710741 
L 131.92309 202.740717 
L 132.466003 206.217764 
L 133.008896 208.952075 
L 133.551788 207.573747 
L 134.094701 204.985519 
L 134.637593 206.17265 
L 135.180506 208.065216 
L 135.723398 208.361903 
L 136.266291 206.625457 
L 136.809203 206.514745 
L 137.352096 208.608371 
L 137.895009 208.987494 
L 138.437901 207.607537 
L 138.980793 207.512705 
L 139.523706 209.453153 
L 140.066599 209.430911 
L 140.609511 207.507628 
L 141.152404 208.659273 
L 141.695296 209.495572 
L 142.238209 207.859457 
L 142.781101 206.833995 
L 143.324014 209.07024 
L 143.866907 209.390478 
L 144.409799 205.607378 
L 144.952712 205.464106 
L 145.495604 209.719875 
L 146.038517 209.57493 
L 146.581409 205.082228 
L 147.124302 206.028068 
L 147.667214 207.437461 
L 148.210107 209.635146 
L 148.75302 207.243759 
L 149.295912 207.081275 
L 149.838804 207.049391 
L 150.381717 209.721729 
L 151.467522 207.405645 
L 152.010415 208.012425 
L 152.553307 209.693111 
L 153.09622 209.103594 
L 153.639112 208.265373 
L 154.724918 209.724249 
L 155.26781 208.9163 
L 155.810723 209.072526 
L 156.353615 208.882191 
L 156.896528 209.432918 
L 157.43942 208.405355 
L 158.525225 209.079013 
L 159.068118 207.533572 
L 159.611031 207.294128 
L 160.153923 208.586739 
L 160.696815 209.033763 
L 161.239728 207.464405 
L 162.325533 207.609785 
L 163.411318 209.175955 
L 163.954231 208.853084 
L 164.497123 207.515265 
L 165.040036 208.922008 
L 165.582929 209.96298 
L 166.125821 208.80979 
L 166.668734 208.404657 
L 167.754539 209.997405 
L 168.297431 209.192073 
L 169.383236 209.4581 
L 169.926129 209.939728 
L 171.011934 209.488002 
L 171.554826 209.82732 
L 172.097739 209.784983 
L 172.640632 209.491747 
L 173.183544 209.582896 
L 173.726437 210.034174 
L 174.269329 208.810101 
L 174.812242 208.826397 
L 175.355134 210.063103 
L 175.898047 210.05675 
L 176.44094 208.612894 
L 176.983832 208.942293 
L 177.526745 208.932922 
L 178.069637 210.025856 
L 178.61255 210.078246 
L 179.155442 208.792627 
L 179.698335 209.5764 
L 180.241247 209.368678 
L 180.78414 209.901905 
L 181.327053 209.398392 
L 182.412837 209.46116 
L 182.95575 209.779863 
L 183.498643 209.931917 
L 184.041555 209.393354 
L 184.584448 210.034693 
L 185.12734 209.926616 
L 185.670253 209.659733 
L 186.213145 210.068747 
L 186.756058 209.932709 
L 187.298951 210.088188 
L 188.384756 209.090983 
L 189.470561 206.784186 
L 190.013453 206.547577 
L 190.556346 208.859279 
L 191.099258 204.840611 
L 191.642151 197.173201 
L 192.185064 197.757316 
L 192.727956 209.151077 
L 193.270848 199.438898 
L 193.813761 197.953067 
L 194.899566 209.400526 
L 195.442459 208.41988 
L 195.985351 207.827348 
L 196.528264 208.879652 
L 197.071156 209.220526 
L 197.614069 209.382687 
L 198.156962 209.718465 
L 198.699854 209.427222 
L 199.242767 209.6657 
L 199.785659 209.700244 
L 200.328572 209.538409 
L 200.871464 209.900274 
L 201.414357 209.801421 
L 203.043075 210.06713 
L 204.128859 209.526083 
L 204.671752 209.527335 
L 205.214685 209.254776 
L 205.757577 209.680182 
L 206.30047 209.39909 
L 206.843362 207.90211 
L 207.386254 205.280931 
L 207.929188 204.737628 
L 208.47208 208.376748 
L 209.014973 207.917859 
L 209.557865 205.88283 
L 210.100757 207.136274 
L 210.643691 209.97942 
L 211.729475 208.034823 
L 212.272368 208.233241 
L 212.81526 209.184045 
L 213.358193 209.425041 
L 213.901086 209.882384 
L 214.443978 210.027793 
L 214.98687 209.855232 
L 215.529763 210.008134 
L 216.072696 209.966573 
L 216.615588 209.669895 
L 217.158481 209.746762 
L 220.415876 208.718166 
L 222.044594 207.705073 
L 222.587486 207.513198 
L 223.130379 207.802236 
L 223.673271 209.127646 
L 224.216204 207.749745 
L 224.759097 201.03565 
L 226.387774 169.423407 
L 226.930707 179.265302 
L 227.473599 208.881342 
L 228.016492 166.407478 
L 228.559384 138.951529 
L 229.102276 150.602713 
L 229.64521 191.611066 
L 230.188102 197.793306 
L 230.730995 186.17501 
L 231.273887 184.846744 
L 231.816779 197.1433 
L 232.359713 202.804337 
L 232.902605 201.138918 
L 233.445497 209.950168 
L 233.98839 208.265455 
L 234.531282 205.352393 
L 235.074215 207.683253 
L 235.617108 207.811984 
L 236.16 207.532404 
L 236.702892 208.341505 
L 237.245785 208.006085 
L 237.788718 209.276471 
L 238.33161 206.011396 
L 238.874503 206.380482 
L 239.417395 199.877446 
L 239.960287 196.761088 
L 240.503221 198.061435 
L 241.046113 197.695316 
L 241.589005 209.550053 
L 242.131898 195.983057 
L 242.67479 192.033574 
L 243.217724 185.345309 
L 243.760616 194.153667 
L 244.303508 206.995659 
L 244.846401 208.225649 
L 245.389293 201.68932 
L 245.932226 204.68462 
L 246.475119 206.179874 
L 247.018011 203.850768 
L 247.560903 209.653898 
L 248.103796 207.879908 
L 248.646729 209.342109 
L 249.189621 207.752964 
L 249.732514 208.812874 
L 250.275406 208.015048 
L 250.818298 208.516365 
L 251.361232 210.050449 
L 251.904124 207.5753 
L 252.447016 209.934803 
L 252.989909 209.614289 
L 253.532801 209.142794 
L 254.075735 204.251325 
L 254.618627 201.133222 
L 255.161519 196.398708 
L 255.704412 190.274196 
L 256.247304 193.207319 
L 256.790237 202.197852 
L 257.33313 202.896989 
L 257.876022 181.505581 
L 258.418914 177.89795 
L 258.961807 186.066525 
L 259.50474 198.046073 
L 260.047632 205.419429 
L 261.133417 200.775568 
L 261.676309 201.802182 
L 262.219243 206.866944 
L 262.762135 205.83656 
L 263.305027 209.227259 
L 263.84792 209.932329 
L 264.390812 209.010069 
L 264.933746 208.420645 
L 265.476638 209.740833 
L 266.01953 209.559444 
L 266.562423 208.226129 
L 267.105315 209.594329 
L 267.648248 208.763271 
L 268.191141 208.862423 
L 268.734033 210.101259 
L 269.276925 209.843501 
L 269.819818 207.559731 
L 270.362751 204.556169 
L 271.448536 199.756973 
L 271.991428 201.190944 
L 272.53432 208.150976 
L 273.620146 205.610121 
L 274.163038 207.896756 
L 274.705931 199.209247 
L 275.248823 207.341585 
L 276.334649 179.606085 
L 276.877541 183.472621 
L 277.420434 202.288983 
L 277.963326 204.51933 
L 278.506259 198.680033 
L 279.049152 199.289166 
L 279.592044 203.374296 
L 280.134936 205.222777 
L 280.677829 207.777859 
L 281.220762 209.293651 
L 281.763654 209.345415 
L 282.306547 209.817721 
L 283.392331 209.931343 
L 283.935265 209.539745 
L 284.478157 209.765589 
L 285.563942 209.676652 
L 286.106834 210.017909 
L 286.649768 209.800868 
L 287.19266 208.771619 
L 287.735552 206.907043 
L 288.821337 202.085427 
L 289.36427 202.850219 
L 289.907163 209.577567 
L 290.450055 196.293584 
L 290.992947 187.506294 
L 291.53584 193.383521 
L 292.078773 209.975567 
L 292.621665 198.305308 
L 293.164558 197.874183 
L 294.250342 207.526684 
L 294.793276 210.013787 
L 295.336168 208.8201 
L 295.87906 209.090324 
L 296.421953 209.630503 
L 296.964845 209.915518 
L 297.507779 209.599582 
L 298.593563 209.236316 
L 299.136456 208.855653 
L 299.679348 208.931352 
L 300.765174 208.548841 
L 301.850958 208.755808 
L 302.393851 209.450347 
L 302.936784 209.38588 
L 303.479676 207.197011 
L 304.565461 199.368826 
L 305.108353 197.0837 
L 305.651287 199.376316 
L 306.194179 208.615553 
L 306.737071 202.385836 
L 307.279964 203.498387 
L 307.822856 208.595499 
L 308.908682 202.91227 
L 309.451574 185.388738 
L 309.994467 181.150483 
L 311.080292 208.672907 
L 311.623185 200.045293 
L 312.166077 198.403141 
L 312.708969 201.246625 
L 313.251862 204.700146 
L 314.337687 208.633618 
L 314.88058 209.605852 
L 315.966364 209.963093 
L 317.05219 210.009323 
L 317.595082 209.996543 
L 318.680867 209.682255 
L 319.223801 209.738592 
L 319.766693 209.917028 
L 320.309585 209.679749 
L 320.852478 208.442353 
L 321.39537 206.332875 
L 323.024088 196.862473 
L 323.56698 198.458472 
L 324.109873 206.847152 
L 324.652806 199.927555 
L 325.195698 187.948666 
L 325.738591 182.559637 
L 326.281483 181.218623 
L 326.824375 179.143695 
L 327.367309 181.973709 
L 327.910201 206.229418 
L 328.453093 169.677753 
L 328.995986 147.868229 
L 329.538878 174.332635 
L 330.081812 208.604338 
L 330.624704 196.002472 
L 331.167596 187.843169 
L 332.253381 205.908233 
L 332.796314 198.460137 
L 333.339207 208.892916 
L 333.882099 209.665256 
L 334.424991 201.292919 
L 334.967884 207.662635 
L 335.510817 209.005326 
L 336.053709 204.007779 
L 336.596602 207.288818 
L 337.139494 207.013838 
L 337.682386 207.342198 
L 338.22532 206.69325 
L 338.768212 208.00267 
L 339.311104 206.869029 
L 339.853997 201.50385 
L 340.396889 205.263053 
L 340.939823 193.458326 
L 341.482715 189.894242 
L 342.025607 196.883044 
L 342.5685 195.665438 
L 343.111392 192.573968 
L 343.654325 168.788056 
L 344.74011 181.825539 
L 345.283002 206.15013 
L 345.825895 197.278163 
L 346.368828 201.036911 
L 346.91172 194.317823 
L 347.454613 207.244471 
L 348.540397 205.183392 
L 349.083331 206.49725 
L 349.626223 206.805832 
L 350.169115 209.871451 
L 351.2549 206.431983 
L 351.797834 208.99206 
L 352.340726 208.3111 
L 352.883618 205.041569 
L 353.426511 209.049215 
L 353.969403 203.992513 
L 354.512336 204.901032 
L 355.055229 207.471691 
L 355.598121 209.145214 
L 356.141013 198.128878 
L 356.683906 189.995799 
L 357.226839 200.283063 
L 357.769731 199.430088 
L 358.312624 203.555807 
L 358.855516 191.157231 
L 359.398408 198.775732 
L 359.941342 194.585438 
L 360.484234 208.552132 
L 361.027126 207.156834 
L 361.570019 210.058631 
L 362.112911 202.267371 
L 362.655845 209.141741 
L 363.198737 208.563895 
L 363.741629 205.881812 
L 364.284522 207.947033 
L 364.827414 208.066993 
L 365.370347 209.567491 
L 365.91324 207.760375 
L 366.456132 209.074642 
L 366.999024 207.124621 
L 367.541917 205.984474 
L 368.08485 206.862891 
L 368.627742 201.376707 
L 369.170635 202.603159 
L 369.713527 205.712771 
L 370.256419 205.004558 
L 370.799353 203.232165 
L 371.342245 196.668413 
L 371.885137 196.60436 
L 372.42803 187.158116 
L 372.970922 194.342582 
L 373.513856 198.095739 
L 374.056748 205.855979 
L 374.59964 191.800557 
L 375.142533 186.889285 
L 375.685425 184.509203 
L 376.228358 194.975207 
L 376.771251 208.557658 
L 377.314143 206.826292 
L 377.857035 201.681034 
L 378.399928 202.56011 
L 378.942861 207.411197 
L 379.485753 205.178246 
L 380.028646 208.691191 
L 380.571538 209.694724 
L 381.11443 208.423638 
L 382.200256 208.785549 
L 382.743148 207.613352 
L 383.286041 203.622642 
L 383.828933 203.340146 
L 384.371867 201.939149 
L 384.914759 201.929597 
L 385.457651 209.127682 
L 386.543436 197.403639 
L 387.086369 192.733991 
L 387.629262 202.038533 
L 388.715046 209.488886 
L 389.257939 205.826671 
L 389.800872 209.970819 
L 390.343764 207.280542 
L 390.886657 208.078885 
L 391.429549 206.999526 
L 391.972441 198.415463 
L 392.515375 193.037553 
L 393.058267 184.020139 
L 393.601159 185.98426 
L 394.144052 209.682644 
L 394.686944 178.530296 
L 395.229878 161.611378 
L 395.77277 176.029489 
L 396.315662 204.016964 
L 397.401447 196.120099 
L 397.94438 197.811018 
L 398.487273 201.009974 
L 398.487273 201.009974 
" clip-path="url(#pdadd86401d)" style="fill: none; stroke: #385989; stroke-width: 1.5; stroke-linecap: square"/>
   </g>
   <g id="line2d_27">
    <path d="M 73.832727 209.331444 
L 74.37564 210.001338 
L 77.090143 209.856911 
L 78.175948 209.648445 
L 79.261733 209.873433 
L 79.804646 209.735185 
L 80.347538 210.100117 
L 80.890451 209.818985 
L 86.862349 210.095371 
L 94.462965 210.090035 
L 95.005857 209.12203 
L 95.548749 209.373242 
L 96.091662 210.090605 
L 97.177467 210.013076 
L 98.263252 209.635042 
L 98.806165 209.149621 
L 99.349057 208.457242 
L 99.89197 208.091838 
L 100.434863 208.608034 
L 100.977755 208.608962 
L 101.520668 204.55201 
L 102.06356 204.457461 
L 102.606473 208.926827 
L 103.149365 204.194875 
L 103.692258 206.266547 
L 104.23517 209.272466 
L 104.778063 210.021968 
L 105.320976 209.348299 
L 105.863868 205.320341 
L 106.40676 205.595382 
L 106.949673 209.853094 
L 108.578371 209.995361 
L 111.292874 209.91614 
L 114.007376 209.754695 
L 116.178987 210.026981 
L 116.721879 209.628315 
L 117.264771 210.012467 
L 118.350577 209.793729 
L 120.522187 209.978506 
L 124.322495 209.989036 
L 125.951192 209.921094 
L 127.036998 209.877104 
L 127.57989 209.865278 
L 128.122782 209.576562 
L 128.665695 209.476668 
L 129.208588 209.876355 
L 130.294393 210.08419 
L 131.380198 210.036534 
L 132.466003 209.855216 
L 134.637593 209.957854 
L 137.895009 210.004706 
L 138.980793 209.893358 
L 139.523706 210.016256 
L 141.152404 209.928051 
L 142.238209 209.646136 
L 143.324014 209.384451 
L 143.866907 209.536592 
L 144.409799 209.86952 
L 144.952712 210.015262 
L 145.495604 209.872316 
L 146.581409 210.039828 
L 147.667214 209.846745 
L 156.353615 210.081171 
L 157.43942 209.432161 
L 157.982313 208.84083 
L 158.525225 208.557718 
L 159.068118 209.150161 
L 159.611031 209.91408 
L 160.153923 209.236473 
L 160.696815 209.179773 
L 161.239728 209.726359 
L 161.782621 210.053732 
L 162.325533 209.855211 
L 163.411318 209.785301 
L 166.125821 209.999659 
L 169.383236 210.08095 
L 172.097739 209.542087 
L 172.640632 209.909268 
L 173.726437 206.504555 
L 174.269329 206.240652 
L 174.812242 208.15897 
L 175.355134 209.011429 
L 175.898047 207.257231 
L 176.44094 207.538172 
L 177.526745 210.08164 
L 178.069637 209.534077 
L 178.61255 209.426256 
L 181.327053 209.957029 
L 181.869945 209.283307 
L 182.412837 209.415938 
L 182.95575 209.987784 
L 185.670253 209.971919 
L 186.213145 210.071781 
L 186.756058 209.870774 
L 187.298951 209.37517 
L 187.841843 208.475056 
L 188.927648 205.803561 
L 189.470561 205.557085 
L 190.013453 208.717507 
L 190.556346 202.949444 
L 191.099258 193.147609 
L 191.642151 191.634394 
L 192.185064 204.423986 
L 193.270848 194.210982 
L 193.813761 199.837178 
L 194.356654 207.4941 
L 194.899566 208.476824 
L 195.442459 207.353336 
L 195.985351 207.754514 
L 197.071156 209.11933 
L 197.614069 209.551993 
L 198.699854 210.017942 
L 199.785659 210.068975 
L 203.585967 209.723456 
L 204.128859 209.544257 
L 204.671752 209.098145 
L 205.214685 208.851183 
L 205.757577 208.908826 
L 206.30047 209.843184 
L 206.843362 208.192531 
L 207.386254 205.448161 
L 207.929188 204.732837 
L 208.47208 208.499768 
L 209.557865 203.460061 
L 210.100757 205.456695 
L 210.643691 208.894762 
L 211.186583 209.226698 
L 211.729475 208.736113 
L 212.81526 209.373711 
L 213.358193 209.686266 
L 213.901086 209.826292 
L 214.98687 209.907447 
L 216.072696 209.917893 
L 219.330091 209.579944 
L 219.872984 209.701189 
L 220.415876 210.064914 
L 220.958768 209.300254 
L 221.501702 207.64817 
L 222.044594 204.818428 
L 223.130379 196.10233 
L 223.673271 194.371894 
L 224.216204 200.975656 
L 224.759097 200.233981 
L 225.301989 174.585039 
L 225.844881 157.768557 
L 226.387774 164.896448 
L 226.930707 197.936081 
L 227.473599 180.829102 
L 228.016492 158.964255 
L 228.559384 169.297965 
L 229.102276 195.119934 
L 229.64521 205.959113 
L 230.188102 199.354137 
L 230.730995 200.212554 
L 231.816779 205.959896 
L 232.359713 207.865136 
L 232.902605 209.066057 
L 233.445497 209.740765 
L 233.98839 210.104471 
L 235.074215 209.743223 
L 236.16 209.437424 
L 236.702892 209.175092 
L 237.788718 208.21912 
L 238.33161 207.607663 
L 238.874503 207.289805 
L 239.417395 207.919457 
L 239.960287 209.540394 
L 240.503221 203.914884 
L 241.046113 196.77711 
L 241.589005 193.795845 
L 242.131898 201.500206 
L 242.67479 202.037958 
L 243.217724 189.731219 
L 243.760616 191.749545 
L 244.303508 202.837944 
L 244.846401 208.157923 
L 245.389293 204.77178 
L 245.932226 205.017851 
L 246.475119 206.602269 
L 247.018011 208.741685 
L 247.560903 209.658071 
L 248.103796 209.362254 
L 248.646729 209.541076 
L 249.732514 209.424197 
L 252.447016 208.557768 
L 252.989909 208.818523 
L 253.532801 209.608579 
L 254.075735 208.851427 
L 254.618627 205.714169 
L 255.161519 200.866282 
L 256.247304 189.873891 
L 256.790237 190.038372 
L 257.33313 198.493182 
L 257.876022 204.801883 
L 258.418914 184.596105 
L 258.961807 173.912367 
L 259.50474 178.386546 
L 260.590525 209.608004 
L 261.133417 200.779626 
L 261.676309 198.530323 
L 262.219243 200.261106 
L 263.305027 205.911839 
L 263.84792 207.873256 
L 264.390812 209.145 
L 264.933746 209.901321 
L 265.476638 209.910514 
L 266.562423 209.590902 
L 268.734033 209.278997 
L 269.276925 208.96762 
L 269.819818 209.22532 
L 270.362751 209.201112 
L 270.905643 209.404053 
L 271.448536 210.050234 
L 271.991428 208.71366 
L 272.53432 205.808574 
L 273.077254 200.880533 
L 274.163038 188.209881 
L 274.705931 189.647626 
L 275.248823 205.160651 
L 275.791757 188.50725 
L 276.334649 167.549954 
L 276.877541 165.087808 
L 277.420434 174.270135 
L 277.963326 186.703695 
L 278.506259 207.737463 
L 279.592044 156.377059 
L 280.134936 161.035609 
L 280.677829 191.081348 
L 281.220762 204.746497 
L 281.763654 195.814264 
L 282.306547 197.171315 
L 283.392331 205.134741 
L 283.935265 207.692462 
L 284.478157 209.215783 
L 285.021049 210.020562 
L 285.563942 209.812341 
L 286.106834 209.811891 
L 286.649768 209.96845 
L 287.19266 209.090906 
L 287.735552 207.536807 
L 289.36427 200.603668 
L 289.907163 202.298207 
L 290.450055 209.156209 
L 291.53584 187.806463 
L 292.078773 187.202776 
L 293.164558 207.870202 
L 293.70745 197.500809 
L 294.250342 194.83895 
L 294.793276 197.971919 
L 295.87906 207.986649 
L 296.421953 209.484637 
L 296.964845 208.351289 
L 297.507779 208.22619 
L 298.593563 209.005674 
L 299.679348 209.728277 
L 300.765174 210.053251 
L 301.850958 209.813541 
L 302.393851 209.727234 
L 302.936784 209.296259 
L 303.479676 208.6453 
L 304.565461 206.543918 
L 305.108353 205.546287 
L 305.651287 205.602141 
L 306.194179 208.356819 
L 306.737071 204.6528 
L 307.822856 183.9172 
L 308.36579 186.657054 
L 308.908682 206.57994 
L 309.451574 188.779037 
L 309.994467 179.583414 
L 310.537359 189.883555 
L 311.080292 205.738637 
L 311.623185 204.894183 
L 312.166077 202.414654 
L 312.708969 203.680918 
L 313.251862 205.804143 
L 313.794795 207.439038 
L 314.337687 208.451004 
L 314.88058 209.004363 
L 315.423472 209.226551 
L 316.509298 209.125047 
L 317.595082 208.838827 
L 318.137975 208.831692 
L 318.680867 209.09077 
L 319.223801 209.851542 
L 319.766693 208.804991 
L 320.309585 206.101842 
L 321.938303 194.081472 
L 322.481196 194.251321 
L 323.024088 200.212439 
L 323.56698 207.822182 
L 324.109873 194.189533 
L 324.652806 184.725833 
L 325.195698 183.348999 
L 325.738591 190.938942 
L 326.281483 203.093577 
L 326.824375 206.671508 
L 327.367309 201.592624 
L 327.910201 201.095345 
L 328.453093 202.943004 
L 329.538878 207.311646 
L 330.081812 208.770663 
L 330.624704 209.774735 
L 331.167596 209.873628 
L 332.253381 209.212511 
L 332.796314 209.074008 
L 333.339207 208.802689 
L 333.882099 209.227006 
L 334.424991 209.027 
L 334.967884 208.398049 
L 335.510817 208.422903 
L 336.053709 208.865891 
L 336.596602 209.970953 
L 337.139494 207.87907 
L 337.682386 204.071087 
L 338.768212 195.083037 
L 339.311104 197.02068 
L 339.853997 207.57377 
L 340.396889 198.055113 
L 340.939823 192.703632 
L 341.482715 204.40828 
L 342.025607 197.777822 
L 342.5685 193.210267 
L 343.111392 209.196846 
L 343.654325 184.393161 
L 344.197218 177.343448 
L 345.283002 208.202424 
L 345.825895 198.720209 
L 346.368828 197.695199 
L 347.997505 206.609223 
L 348.540397 208.119477 
L 349.083331 208.889202 
L 349.626223 209.207726 
L 350.169115 209.220234 
L 352.340726 208.469029 
L 352.883618 208.767224 
L 353.426511 209.810657 
L 353.969403 208.010823 
L 354.512336 203.663924 
L 355.055229 196.757635 
L 355.598121 179.647188 
L 356.141013 176.914081 
L 356.683906 190.594046 
L 357.226839 208.203494 
L 357.769731 184.930665 
L 358.312624 168.774416 
L 358.855516 174.113232 
L 359.941342 207.018012 
L 361.027126 199.190616 
L 361.570019 199.948935 
L 362.655845 205.355014 
L 363.198737 206.977844 
L 363.741629 208.02755 
L 364.284522 209.362761 
L 365.370347 209.675505 
L 365.91324 209.465596 
L 366.456132 210.01206 
L 366.999024 209.557244 
L 367.541917 210.058824 
L 368.627742 209.979096 
L 369.170635 210.059803 
L 369.713527 209.915475 
L 370.256419 209.423607 
L 370.799353 208.499746 
L 371.885137 205.820026 
L 372.42803 205.834368 
L 372.970922 209.38764 
L 373.513856 202.887995 
L 374.056748 195.016667 
L 374.59964 195.879836 
L 375.142533 206.984648 
L 375.685425 201.926651 
L 376.228358 198.963199 
L 377.857035 210.07507 
L 378.399928 208.555423 
L 378.942861 208.657611 
L 380.571538 209.758053 
L 381.11443 210.006482 
L 381.657364 210.079429 
L 383.286041 209.734347 
L 384.371867 209.560884 
L 385.457651 209.337992 
L 386.543436 209.396841 
L 387.086369 209.744727 
L 387.629262 209.474886 
L 388.172154 184.327555 
L 388.715046 192.719242 
L 389.257939 199.309901 
L 389.800872 194.870659 
L 390.343764 193.34763 
L 390.886657 200.471899 
L 391.429549 201.993726 
L 391.972441 178.718402 
L 392.515375 164.59362 
L 393.058267 165.336117 
L 393.601159 179.72981 
L 394.144052 207.513713 
L 394.686944 171.311398 
L 395.229878 155.615175 
L 395.77277 172.597588 
L 396.315662 201.345134 
L 396.858555 201.037984 
L 397.401447 197.338919 
L 397.94438 199.560749 
L 398.487273 201.024407 
L 398.487273 201.024407 
" clip-path="url(#pdadd86401d)" style="fill: none; stroke: #d22027; stroke-width: 1.5; stroke-linecap: square"/>
   </g>
   <g id="patch_8">
    <path d="M 57.6 213.662118 
L 57.6 135.393882 
" style="fill: none; stroke: #000000; stroke-width: 0.8; stroke-linejoin: miter; stroke-linecap: square"/>
   </g>
   <g id="patch_9">
    <path d="M 414.72 213.662118 
L 414.72 135.393882 
" style="fill: none; stroke: #000000; stroke-width: 0.8; stroke-linejoin: miter; stroke-linecap: square"/>
   </g>
   <g id="patch_10">
    <path d="M 57.6 213.662118 
L 414.72 213.662118 
" style="fill: none; stroke: #000000; stroke-width: 0.8; stroke-linejoin: miter; stroke-linecap: square"/>
   </g>
   <g id="patch_11">
    <path d="M 57.6 135.393882 
L 414.72 135.393882 
" style="fill: none; stroke: #000000; stroke-width: 0.8; stroke-linejoin: miter; stroke-linecap: square"/>
   </g>
  </g>
  <g id="axes_3">
   <g id="patch_12">
    <path d="M 57.6 307.584 
L 414.72 307.584 
L 414.72 229.315765 
L 57.6 229.315765 
z
" style="fill: #ffffff"/>
   </g>
   <g id="matplotlib.axis_5">
    <g id="xtick_19">
     <g id="line2d_28">
      <g>
       <use xlink:href="#m8e813733b8" x="73.289835" y="307.584" style="stroke: #000000; stroke-width: 0.8"/>
      </g>
     </g>
     <g id="text_24">
      <!-- 10 -->
      <g transform="translate(66.927335 322.182437)scale(0.1 -0.1)">
       <use xlink:href="#DejaVuSans-31"/>
       <use xlink:href="#DejaVuSans-30" x="63.623047"/>
      </g>
     </g>
    </g>
    <g id="xtick_20">
     <g id="line2d_29">
      <g>
       <use xlink:href="#m8e813733b8" x="116.721879" y="307.584" style="stroke: #000000; stroke-width: 0.8"/>
      </g>
     </g>
     <g id="text_25">
      <!-- 12 -->
      <g transform="translate(110.359379 322.182437)scale(0.1 -0.1)">
       <use xlink:href="#DejaVuSans-31"/>
       <use xlink:href="#DejaVuSans-32" x="63.623047"/>
      </g>
     </g>
    </g>
    <g id="xtick_21">
     <g id="line2d_30">
      <g>
       <use xlink:href="#m8e813733b8" x="160.153923" y="307.584" style="stroke: #000000; stroke-width: 0.8"/>
      </g>
     </g>
     <g id="text_26">
      <!-- 14 -->
      <g transform="translate(153.791423 322.182437)scale(0.1 -0.1)">
       <use xlink:href="#DejaVuSans-31"/>
       <use xlink:href="#DejaVuSans-34" x="63.623047"/>
      </g>
     </g>
    </g>
    <g id="xtick_22">
     <g id="line2d_31">
      <g>
       <use xlink:href="#m8e813733b8" x="203.585967" y="307.584" style="stroke: #000000; stroke-width: 0.8"/>
      </g>
     </g>
     <g id="text_27">
      <!-- 16 -->
      <g transform="translate(197.223467 322.182437)scale(0.1 -0.1)">
       <use xlink:href="#DejaVuSans-31"/>
       <use xlink:href="#DejaVuSans-36" x="63.623047"/>
      </g>
     </g>
    </g>
    <g id="xtick_23">
     <g id="line2d_32">
      <g>
       <use xlink:href="#m8e813733b8" x="247.018011" y="307.584" style="stroke: #000000; stroke-width: 0.8"/>
      </g>
     </g>
     <g id="text_28">
      <!-- 18 -->
      <g transform="translate(240.655511 322.182437)scale(0.1 -0.1)">
       <use xlink:href="#DejaVuSans-31"/>
       <use xlink:href="#DejaVuSans-38" x="63.623047"/>
      </g>
     </g>
    </g>
    <g id="xtick_24">
     <g id="line2d_33">
      <g>
       <use xlink:href="#m8e813733b8" x="290.450055" y="307.584" style="stroke: #000000; stroke-width: 0.8"/>
      </g>
     </g>
     <g id="text_29">
      <!-- 20 -->
      <g transform="translate(284.087555 322.182437)scale(0.1 -0.1)">
       <use xlink:href="#DejaVuSans-32"/>
       <use xlink:href="#DejaVuSans-30" x="63.623047"/>
      </g>
     </g>
    </g>
    <g id="xtick_25">
     <g id="line2d_34">
      <g>
       <use xlink:href="#m8e813733b8" x="333.882099" y="307.584" style="stroke: #000000; stroke-width: 0.8"/>
      </g>
     </g>
     <g id="text_30">
      <!-- 22 -->
      <g transform="translate(327.519599 322.182437)scale(0.1 -0.1)">
       <use xlink:href="#DejaVuSans-32"/>
       <use xlink:href="#DejaVuSans-32" x="63.623047"/>
      </g>
     </g>
    </g>
    <g id="xtick_26">
     <g id="line2d_35">
      <g>
       <use xlink:href="#m8e813733b8" x="377.314143" y="307.584" style="stroke: #000000; stroke-width: 0.8"/>
      </g>
     </g>
     <g id="text_31">
      <!-- 24 -->
      <g transform="translate(370.951643 322.182437)scale(0.1 -0.1)">
       <use xlink:href="#DejaVuSans-32"/>
       <use xlink:href="#DejaVuSans-34" x="63.623047"/>
      </g>
     </g>
    </g>
    <g id="xtick_27">
     <g id="line2d_36">
      <g>
       <use xlink:href="#m8e813733b8" x="399.030165" y="307.584" style="stroke: #000000; stroke-width: 0.8"/>
      </g>
     </g>
     <g id="text_32">
      <!-- 25 -->
      <g transform="translate(392.667665 322.182437)scale(0.1 -0.1)">
       <use xlink:href="#DejaVuSans-32"/>
       <use xlink:href="#DejaVuSans-35" x="63.623047"/>
      </g>
     </g>
    </g>
   </g>
   <g id="matplotlib.axis_6">
    <g id="ytick_6">
     <g id="line2d_37">
      <g>
       <use xlink:href="#m450dd27977" x="57.6" y="304.026883" style="stroke: #000000; stroke-width: 0.8"/>
      </g>
     </g>
     <g id="text_33">
      <!-- 0 -->
      <g transform="translate(44.2375 307.826102)scale(0.1 -0.1)">
       <use xlink:href="#DejaVuSans-30"/>
      </g>
     </g>
    </g>
    <g id="ytick_7">
     <g id="line2d_38">
      <g>
       <use xlink:href="#m450dd27977" x="57.6" y="255.569399" style="stroke: #000000; stroke-width: 0.8"/>
      </g>
     </g>
     <g id="text_34">
      <!-- 20 -->
      <g transform="translate(37.875 259.368618)scale(0.1 -0.1)">
       <use xlink:href="#DejaVuSans-32"/>
       <use xlink:href="#DejaVuSans-30" x="63.623047"/>
      </g>
     </g>
    </g>
   </g>
   <g id="line2d_39">
    <path d="M 73.832727 303.854528 
L 74.918533 303.88467 
L 76.54723 303.903116 
L 77.633035 303.746001 
L 78.175948 303.476452 
L 78.718841 303.50625 
L 79.261733 303.726764 
L 79.804646 303.615627 
L 80.347538 303.93697 
L 80.890451 303.916134 
L 81.433343 303.738129 
L 82.519148 303.739696 
L 83.062041 303.931025 
L 83.604954 303.52722 
L 84.690738 303.987355 
L 85.233651 303.482259 
L 85.776544 303.883138 
L 86.319456 303.899199 
L 86.862349 303.520139 
L 87.405241 303.984816 
L 88.491046 303.681308 
L 89.033959 304.012111 
L 89.576852 303.801137 
L 90.119744 303.795797 
L 90.662657 303.937323 
L 91.205549 303.771755 
L 92.291354 303.830809 
L 92.834247 303.732248 
L 93.920052 303.720197 
L 97.72036 303.388853 
L 98.263252 303.439427 
L 98.806165 303.707613 
L 99.349057 303.599564 
L 99.89197 302.093945 
L 100.434863 300.188043 
L 100.977755 300.099191 
L 101.520668 302.92698 
L 102.06356 295.720521 
L 102.606473 295.306335 
L 103.149365 302.085883 
L 103.692258 301.582702 
L 104.23517 302.6367 
L 104.778063 300.775506 
L 105.320976 303.777706 
L 105.863868 300.005229 
L 106.40676 301.010476 
L 106.949673 303.192197 
L 107.492566 299.973805 
L 108.035478 299.888481 
L 108.578371 301.620386 
L 109.121263 301.580139 
L 109.664176 300.032293 
L 110.207068 300.352591 
L 110.749981 303.66725 
L 111.292874 301.14887 
L 111.835766 299.947108 
L 112.378679 302.368907 
L 112.921571 302.512274 
L 113.464484 300.229629 
L 114.007376 300.451132 
L 114.550269 302.841055 
L 115.093181 300.67414 
L 115.636074 300.645898 
L 116.178987 298.656808 
L 116.721879 303.740543 
L 117.264771 303.219655 
L 117.807684 300.15256 
L 118.350577 300.40621 
L 118.893489 301.429775 
L 119.436382 303.834475 
L 119.979274 301.465355 
L 120.522187 299.726029 
L 121.065079 301.116562 
L 121.607992 303.622937 
L 122.150885 300.863841 
L 122.693777 300.114257 
L 123.23669 301.190609 
L 123.779582 303.141825 
L 124.322495 301.090836 
L 124.865387 300.35408 
L 125.40828 303.088161 
L 125.951192 302.599887 
L 126.494085 300.654682 
L 127.036998 301.627826 
L 127.57989 303.92985 
L 128.122782 301.482803 
L 128.665695 300.603619 
L 129.208588 301.220977 
L 129.7515 302.237867 
L 130.294393 302.366615 
L 130.837285 298.891065 
L 131.380198 302.156627 
L 131.92309 302.935132 
L 132.466003 302.452991 
L 133.008896 301.353393 
L 133.551788 300.935074 
L 134.094701 302.476473 
L 134.637593 303.627976 
L 135.180506 301.059941 
L 135.723398 300.873204 
L 136.809203 302.981033 
L 137.352096 301.333356 
L 137.895009 300.85142 
L 138.437901 303.305145 
L 138.980793 302.809637 
L 139.523706 301.096767 
L 140.609511 303.969186 
L 141.152404 301.923602 
L 141.695296 301.774264 
L 142.238209 303.118176 
L 142.781101 303.056758 
L 143.324014 301.618591 
L 143.866907 300.822294 
L 144.409799 303.560523 
L 144.952712 303.770999 
L 145.495604 300.275011 
L 146.038517 302.18754 
L 146.581409 302.120216 
L 147.124302 303.903003 
L 147.667214 302.965713 
L 148.210107 301.751711 
L 148.75302 302.063569 
L 149.295912 302.840987 
L 149.838804 302.928818 
L 150.381717 301.909148 
L 150.92461 301.514061 
L 151.467522 303.423873 
L 152.010415 303.043943 
L 152.553307 301.60515 
L 153.639112 303.774178 
L 154.182025 302.374987 
L 154.724918 302.619207 
L 155.26781 303.07171 
L 155.810723 303.173403 
L 156.353615 302.729017 
L 156.896528 302.812097 
L 157.43942 303.901352 
L 158.525225 301.939807 
L 159.068118 303.764701 
L 160.153923 301.476371 
L 160.696815 303.236044 
L 161.239728 302.1993 
L 161.782621 303.437602 
L 162.325533 303.920875 
L 162.868426 303.042018 
L 163.411318 302.851495 
L 163.954231 302.517148 
L 164.497123 303.826785 
L 165.040036 303.450404 
L 165.582929 302.305092 
L 166.668734 303.642134 
L 167.211626 302.94381 
L 167.754539 302.867353 
L 168.297431 303.088551 
L 168.840324 303.635435 
L 169.926129 303.040128 
L 170.469042 304.021052 
L 171.011934 303.765659 
L 171.554826 303.099648 
L 172.097739 303.951401 
L 172.640632 303.82365 
L 173.183544 303.019384 
L 173.726437 303.617866 
L 174.269329 303.580406 
L 174.812242 303.206193 
L 175.355134 303.8868 
L 175.898047 302.457549 
L 176.44094 303.874913 
L 176.983832 303.315449 
L 177.526745 303.477848 
L 178.069637 303.988002 
L 178.61255 303.229991 
L 179.155442 303.867391 
L 180.241247 303.478966 
L 180.78414 303.603629 
L 181.327053 303.358889 
L 181.869945 303.979908 
L 182.412837 303.778745 
L 182.95575 303.379008 
L 183.498643 303.824267 
L 184.041555 303.988458 
L 184.584448 303.597607 
L 185.12734 303.809224 
L 186.213145 303.890492 
L 186.756058 303.754024 
L 187.298951 303.942504 
L 188.384756 303.602102 
L 188.927648 304.016001 
L 189.470561 303.261639 
L 190.013453 301.58858 
L 190.556346 299.27044 
L 191.099258 298.815647 
L 191.642151 302.476614 
L 192.727956 295.653644 
L 193.270848 299.103098 
L 193.813761 303.590131 
L 194.356654 300.547783 
L 194.899566 300.424855 
L 195.442459 302.042185 
L 195.985351 303.097171 
L 196.528264 303.589198 
L 197.071156 303.80322 
L 197.614069 303.738403 
L 198.156962 303.957399 
L 199.242767 303.85222 
L 199.785659 304.007997 
L 200.328572 303.861124 
L 201.414357 303.943902 
L 201.957269 303.825379 
L 203.043075 303.864297 
L 203.585967 303.852472 
L 204.128859 303.953871 
L 204.671752 303.932842 
L 205.757577 303.235151 
L 206.30047 302.840128 
L 206.843362 303.096876 
L 207.386254 303.592134 
L 207.929188 301.630965 
L 208.47208 300.180952 
L 209.014973 301.201899 
L 209.557865 303.755105 
L 210.100757 302.853291 
L 210.643691 302.702308 
L 211.729475 303.81687 
L 212.81526 303.690704 
L 213.358193 303.745445 
L 213.901086 303.59456 
L 214.443978 303.755195 
L 214.98687 303.77571 
L 215.529763 303.674229 
L 216.072696 303.857225 
L 217.158481 303.799264 
L 217.701373 303.919932 
L 218.787199 303.874125 
L 220.415876 303.970823 
L 220.958768 304.004109 
L 222.044594 303.701347 
L 223.130379 303.03791 
L 223.673271 302.613488 
L 224.216204 302.432515 
L 224.759097 303.196595 
L 225.301989 301.8455 
L 225.844881 295.446125 
L 226.387774 287.243348 
L 226.930707 285.372407 
L 227.473599 300.156497 
L 228.016492 282.157424 
L 228.559384 271.171644 
L 229.64521 299.318082 
L 230.188102 290.546738 
L 230.730995 292.342982 
L 231.273887 298.821538 
L 231.816779 303.501002 
L 232.359713 301.726957 
L 232.902605 303.41638 
L 233.445497 302.025051 
L 233.98839 301.464454 
L 234.531282 302.795697 
L 235.074215 303.032101 
L 235.617108 301.388808 
L 236.16 302.124712 
L 236.702892 304.014096 
L 237.245785 302.362148 
L 237.788718 301.774256 
L 238.33161 303.357384 
L 238.874503 303.203218 
L 239.417395 302.654248 
L 239.960287 301.187188 
L 240.503221 301.439061 
L 241.046113 301.962544 
L 241.589005 298.860009 
L 242.131898 303.719866 
L 242.67479 301.947913 
L 243.217724 302.646272 
L 243.760616 299.143567 
L 244.303508 303.353129 
L 244.846401 304.01403 
L 245.389293 303.454784 
L 245.932226 301.374607 
L 246.475119 303.340164 
L 247.018011 302.134906 
L 247.560903 303.444575 
L 248.103796 303.059647 
L 248.646729 301.770343 
L 249.189621 303.010967 
L 249.732514 303.939252 
L 250.275406 302.274259 
L 251.904124 303.137592 
L 252.989909 302.773098 
L 253.532801 303.909533 
L 254.075735 302.731256 
L 254.618627 303.854899 
L 255.161519 301.947891 
L 255.704412 301.925392 
L 256.247304 303.582458 
L 256.790237 303.437408 
L 257.33313 298.91144 
L 257.876022 297.493225 
L 258.418914 301.593832 
L 258.961807 302.477394 
L 259.50474 301.275748 
L 260.047632 302.003487 
L 260.590525 303.163147 
L 261.133417 302.773353 
L 261.676309 302.860754 
L 262.219243 303.829745 
L 262.762135 303.761883 
L 263.305027 302.702376 
L 263.84792 303.243867 
L 264.390812 303.063581 
L 264.933746 303.392174 
L 265.476638 303.469661 
L 266.01953 302.656572 
L 266.562423 303.699608 
L 267.105315 303.735216 
L 267.648248 302.302943 
L 268.191141 303.213361 
L 269.276925 301.744092 
L 269.819818 302.794585 
L 270.362751 303.084245 
L 270.905643 302.910818 
L 271.991428 293.807413 
L 272.53432 289.935644 
L 273.077254 290.864566 
L 273.620146 299.840449 
L 274.163038 297.481228 
L 274.705931 284.76284 
L 275.248823 277.325685 
L 275.791757 281.014726 
L 276.334649 294.987903 
L 276.877541 296.640704 
L 277.420434 290.371391 
L 277.963326 292.733528 
L 279.049152 302.381355 
L 279.592044 303.826844 
L 280.134936 303.53391 
L 280.677829 302.912575 
L 281.220762 303.778341 
L 281.763654 303.524936 
L 282.306547 303.483181 
L 282.849439 304.017218 
L 283.392331 303.588738 
L 284.478157 303.82341 
L 285.021049 303.433416 
L 285.563942 303.425534 
L 286.106834 303.251273 
L 286.649768 302.797999 
L 287.735552 302.507744 
L 288.278445 303.06809 
L 288.821337 302.679686 
L 289.907163 294.732714 
L 290.450055 295.762945 
L 290.992947 303.321029 
L 291.53584 293.714122 
L 292.078773 292.032533 
L 293.164558 303.069797 
L 293.70745 301.932545 
L 294.250342 301.477223 
L 295.336168 303.332516 
L 295.87906 303.788095 
L 296.964845 303.933308 
L 298.050671 303.774797 
L 298.593563 303.869847 
L 299.679348 303.627124 
L 300.222281 303.552367 
L 301.850958 302.728749 
L 302.936784 302.07991 
L 303.479676 302.202677 
L 304.022569 303.309809 
L 304.565461 301.917971 
L 305.651287 290.799211 
L 306.194179 287.638265 
L 306.737071 291.386144 
L 307.279964 303.139769 
L 308.36579 278.658126 
L 308.908682 276.717344 
L 309.451574 287.735629 
L 309.994467 303.37912 
L 310.537359 292.242273 
L 311.080292 290.956843 
L 312.166077 300.553003 
L 312.708969 303.185317 
L 313.251862 303.461839 
L 313.794795 303.208409 
L 314.337687 303.480763 
L 314.88058 303.444941 
L 315.966364 303.867015 
L 316.509298 303.829047 
L 317.05219 304.019218 
L 318.137975 303.884803 
L 319.766693 303.148353 
L 320.852478 302.396874 
L 321.39537 302.247932 
L 321.938303 302.730851 
L 322.481196 303.523443 
L 323.024088 299.839314 
L 324.109873 289.949033 
L 324.652806 289.180775 
L 325.195698 293.57798 
L 325.738591 300.372672 
L 326.281483 301.540604 
L 326.824375 294.66788 
L 327.910201 272.342908 
L 328.453093 275.772865 
L 328.995986 298.986088 
L 329.538878 285.773656 
L 330.081812 280.998429 
L 330.624704 287.80772 
L 331.167596 297.30066 
L 331.710489 302.695037 
L 332.253381 302.338074 
L 332.796314 303.773253 
L 333.339207 299.531819 
L 333.882099 300.707535 
L 334.424991 303.967289 
L 334.967884 300.842512 
L 335.510817 299.303211 
L 336.053709 302.810936 
L 336.596602 302.699276 
L 337.139494 299.602269 
L 337.682386 301.411936 
L 338.22532 303.891031 
L 338.768212 302.128161 
L 339.311104 298.115522 
L 339.853997 301.422032 
L 340.396889 298.972681 
L 340.939823 293.147843 
L 341.482715 303.430996 
L 342.025607 301.190464 
L 343.111392 276.906889 
L 343.654325 291.456284 
L 344.197218 301.482261 
L 344.74011 292.891276 
L 345.283002 289.080363 
L 345.825895 300.053301 
L 346.368828 298.546917 
L 346.91172 303.07674 
L 347.454613 300.848466 
L 347.997505 301.506111 
L 348.540397 299.680033 
L 349.083331 303.786014 
L 349.626223 302.445922 
L 350.169115 299.605057 
L 350.712008 302.331717 
L 351.2549 303.579046 
L 351.797834 300.537001 
L 352.340726 301.789915 
L 352.883618 302.483768 
L 353.426511 302.96329 
L 353.969403 299.589403 
L 354.512336 303.042925 
L 355.055229 298.778787 
L 355.598121 295.870331 
L 356.141013 303.347826 
L 356.683906 302.13882 
L 357.226839 296.903796 
L 357.769731 290.038726 
L 358.312624 295.109307 
L 358.855516 294.063904 
L 359.398408 303.413324 
L 359.941342 299.805596 
L 360.484234 301.424379 
L 361.027126 297.413554 
L 361.570019 303.946427 
L 362.112911 303.268884 
L 363.198737 300.534154 
L 363.741629 302.574488 
L 364.284522 303.838308 
L 364.827414 300.8577 
L 365.370347 302.342848 
L 366.456132 301.63956 
L 366.999024 303.145411 
L 367.541917 301.142458 
L 368.08485 303.244227 
L 368.627742 301.828819 
L 369.170635 303.496582 
L 369.713527 297.690071 
L 370.256419 295.619512 
L 370.799353 298.283008 
L 371.342245 295.520949 
L 371.885137 303.08951 
L 372.42803 301.117616 
L 372.970922 298.344861 
L 373.513856 289.370766 
L 374.056748 289.20316 
L 374.59964 288.119733 
L 375.142533 295.941945 
L 375.685425 299.625813 
L 376.228358 297.4903 
L 376.771251 294.023877 
L 377.314143 297.673771 
L 377.857035 303.293549 
L 378.399928 301.336168 
L 378.942861 302.794776 
L 379.485753 302.31747 
L 380.028646 303.270943 
L 380.571538 301.439678 
L 381.11443 302.666961 
L 381.657364 303.455536 
L 382.200256 300.799344 
L 382.743148 302.676423 
L 383.286041 303.090888 
L 383.828933 302.788166 
L 384.914759 298.477836 
L 385.457651 297.075812 
L 386.000544 295.160082 
L 386.543436 301.814816 
L 387.086369 302.451993 
L 388.172154 297.151166 
L 388.715046 300.8493 
L 389.257939 301.135722 
L 389.800872 303.955779 
L 390.343764 301.858381 
L 390.886657 302.021501 
L 391.429549 298.372106 
L 391.972441 299.583116 
L 392.515375 301.814427 
L 393.058267 301.003011 
L 393.601159 286.752421 
L 394.144052 278.3528 
L 394.686944 283.054732 
L 395.229878 300.222124 
L 395.77277 289.010435 
L 396.315662 286.173705 
L 397.401447 299.942549 
L 397.94438 302.680589 
L 398.487273 300.450996 
L 398.487273 300.450996 
" clip-path="url(#p1f8aba9c80)" style="fill: none; stroke: #385989; stroke-width: 1.5; stroke-linecap: square"/>
   </g>
   <g id="line2d_40">
    <path d="M 73.832727 303.457319 
L 74.37564 303.870664 
L 77.633035 303.853702 
L 78.175948 303.667374 
L 78.718841 303.747772 
L 79.804646 303.630033 
L 81.433343 303.678222 
L 82.519148 303.649963 
L 83.604954 303.677718 
L 84.147846 303.571445 
L 85.776544 303.786412 
L 94.462965 303.95099 
L 95.005857 303.341962 
L 95.548749 303.278958 
L 96.091662 303.999363 
L 97.177467 303.979199 
L 98.806165 303.91892 
L 99.349057 303.959035 
L 100.434863 302.159186 
L 100.977755 301.059079 
L 101.520668 302.681342 
L 102.606473 300.53618 
L 103.149365 302.546416 
L 103.692258 303.250292 
L 104.23517 302.102361 
L 104.778063 302.530228 
L 105.320976 303.406741 
L 105.863868 303.10256 
L 106.40676 302.951098 
L 106.949673 303.839991 
L 111.292874 303.842484 
L 113.464484 303.721712 
L 115.093181 303.570969 
L 116.178987 303.663473 
L 116.721879 303.082726 
L 117.264771 303.204982 
L 117.807684 303.748534 
L 119.979274 303.712018 
L 127.036998 303.827243 
L 127.57989 302.649169 
L 128.122782 302.774754 
L 128.665695 303.615688 
L 130.294393 303.587869 
L 131.380198 303.762375 
L 137.895009 303.787402 
L 138.437901 303.379187 
L 138.980793 303.423098 
L 139.523706 303.837361 
L 142.238209 303.912493 
L 143.324014 303.636829 
L 144.409799 303.357407 
L 145.495604 303.610171 
L 146.581409 303.820287 
L 148.75302 303.743394 
L 149.295912 303.548814 
L 149.838804 303.526075 
L 150.381717 303.764792 
L 155.810723 303.973018 
L 156.896528 303.912766 
L 157.43942 303.82161 
L 157.982313 303.917379 
L 159.068118 303.017029 
L 159.611031 302.815267 
L 160.153923 303.039034 
L 161.239728 303.944448 
L 162.325533 303.937199 
L 163.411318 303.780147 
L 165.582929 303.770279 
L 169.926129 303.773071 
L 170.469042 303.698992 
L 171.011934 303.260493 
L 171.554826 303.675874 
L 172.097739 303.493528 
L 172.640632 303.090863 
L 173.183544 302.983287 
L 173.726437 303.721292 
L 174.269329 302.822583 
L 174.812242 301.398049 
L 175.355134 301.450089 
L 176.44094 303.969467 
L 176.983832 303.52522 
L 177.526745 303.557509 
L 178.069637 303.872422 
L 178.61255 303.938961 
L 179.698335 303.755352 
L 185.670253 303.636651 
L 187.841843 303.309171 
L 188.384756 303.668733 
L 188.927648 303.359069 
L 190.013453 298.512102 
L 190.556346 297.462465 
L 191.099258 301.208491 
L 191.642151 297.942247 
L 192.185064 291.648965 
L 192.727956 293.846948 
L 193.270848 301.728968 
L 194.356654 299.898299 
L 195.442459 303.02728 
L 195.985351 303.953091 
L 196.528264 303.708189 
L 197.614069 303.65373 
L 200.328572 303.864695 
L 204.128859 303.911871 
L 204.671752 303.799808 
L 205.214685 303.486487 
L 206.30047 302.292872 
L 206.843362 302.019209 
L 207.386254 303.011554 
L 207.929188 302.543993 
L 208.47208 300.347488 
L 209.014973 300.87133 
L 209.557865 303.74314 
L 210.100757 301.906088 
L 210.643691 301.476917 
L 211.729475 303.148933 
L 212.272368 303.626897 
L 212.81526 303.845783 
L 213.901086 303.839268 
L 214.443978 303.693172 
L 214.98687 303.683797 
L 215.529763 303.799762 
L 217.701373 303.68831 
L 218.787199 303.492575 
L 219.872984 303.042094 
L 221.501702 301.820424 
L 222.044594 301.748543 
L 222.587486 302.668663 
L 223.130379 302.370313 
L 223.673271 296.540414 
L 224.216204 288.769727 
L 224.759097 283.949975 
L 225.301989 288.748412 
L 225.844881 303.196784 
L 226.387774 282.656087 
L 226.930707 269.47458 
L 227.473599 273.948174 
L 228.016492 293.965606 
L 228.559384 294.342728 
L 229.102276 287.58242 
L 229.64521 291.626797 
L 230.188102 298.116414 
L 230.730995 302.51066 
L 231.273887 303.606497 
L 231.816779 303.089817 
L 232.359713 303.163774 
L 233.98839 303.750856 
L 235.617108 303.985077 
L 236.702892 303.857999 
L 237.245785 303.996482 
L 237.788718 303.786769 
L 238.33161 303.30583 
L 238.874503 302.417569 
L 239.960287 299.580353 
L 240.503221 299.162351 
L 241.046113 301.624275 
L 241.589005 300.143113 
L 242.131898 293.069981 
L 242.67479 291.907339 
L 243.217724 299.150734 
L 243.760616 299.796839 
L 244.303508 296.069216 
L 244.846401 297.574955 
L 245.389293 300.719003 
L 245.932226 302.986572 
L 246.475119 304.023354 
L 247.018011 303.807921 
L 248.103796 303.894483 
L 249.189621 303.99878 
L 251.904124 303.835318 
L 253.532801 303.4814 
L 254.075735 303.549858 
L 254.618627 304.016638 
L 255.161519 302.789796 
L 255.704412 300.480853 
L 256.247304 297.528449 
L 256.790237 295.705744 
L 257.33313 298.255645 
L 257.876022 302.059547 
L 258.418914 292.927151 
L 258.961807 290.248116 
L 260.047632 303.112458 
L 260.590525 298.52073 
L 261.133417 298.396889 
L 262.219243 302.130726 
L 262.762135 303.236932 
L 263.305027 303.742134 
L 263.84792 303.900578 
L 266.01953 303.886371 
L 268.191141 304.026353 
L 268.734033 303.786611 
L 269.276925 303.919694 
L 270.905643 302.786343 
L 272.53432 300.692248 
L 273.077254 300.761953 
L 273.620146 302.800627 
L 274.163038 299.588926 
L 275.248823 281.494158 
L 275.791757 281.336939 
L 276.334649 292.652742 
L 276.877541 300.36555 
L 277.420434 289.417675 
L 278.506259 274.084738 
L 279.049152 275.477442 
L 279.592044 295.062763 
L 280.134936 290.500304 
L 280.677829 282.716654 
L 281.220762 287.139364 
L 281.763654 295.603371 
L 282.306547 301.552718 
L 282.849439 303.842526 
L 283.392331 303.135411 
L 283.935265 303.159659 
L 285.021049 303.482827 
L 285.563942 303.462879 
L 286.649768 303.11717 
L 287.19266 302.827132 
L 287.735552 302.737658 
L 288.278445 303.056236 
L 288.821337 303.677938 
L 289.36427 301.00204 
L 290.450055 292.463267 
L 290.992947 293.186037 
L 291.53584 299.573656 
L 292.078773 299.229433 
L 292.621665 292.495364 
L 293.164558 291.616657 
L 293.70745 295.844814 
L 294.250342 301.577754 
L 294.793276 302.159635 
L 295.336168 300.335564 
L 295.87906 300.375715 
L 297.507779 302.850067 
L 298.050671 303.276303 
L 299.136456 303.59345 
L 300.765174 303.591478 
L 301.308066 303.293921 
L 301.850958 303.216298 
L 302.393851 303.426934 
L 303.479676 303.404701 
L 304.565461 303.854481 
L 305.108353 302.65123 
L 305.651287 300.613704 
L 306.194179 298.003277 
L 306.737071 296.104602 
L 307.279964 297.573303 
L 307.822856 303.179178 
L 308.36579 291.578537 
L 308.908682 283.905299 
L 309.451574 288.247722 
L 309.994467 301.561238 
L 310.537359 295.99244 
L 311.080292 294.138874 
L 312.708969 304.020428 
L 313.251862 303.289466 
L 313.794795 303.116826 
L 315.966364 303.535416 
L 317.05219 303.498634 
L 319.766693 303.093992 
L 320.309585 303.550465 
L 320.852478 303.245887 
L 321.39537 300.9768 
L 321.938303 297.777728 
L 322.481196 295.530826 
L 323.024088 297.21134 
L 323.56698 303.762043 
L 324.109873 294.180323 
L 324.652806 288.702149 
L 325.195698 291.717002 
L 325.738591 299.937319 
L 326.281483 301.1761 
L 326.824375 298.782196 
L 327.367309 299.699958 
L 327.910201 301.597761 
L 328.453093 303.087861 
L 328.995986 303.924999 
L 330.081812 303.676131 
L 333.339207 303.57541 
L 334.424991 303.083936 
L 334.967884 303.002266 
L 336.053709 302.100377 
L 336.596602 301.547475 
L 337.139494 301.227193 
L 337.682386 301.70814 
L 338.22532 303.994119 
L 338.768212 298.814269 
L 339.853997 284.950817 
L 340.396889 286.020206 
L 340.939823 295.965991 
L 341.482715 297.682113 
L 342.025607 285.017079 
L 342.5685 276.486295 
L 343.111392 275.774188 
L 343.654325 287.430249 
L 344.197218 301.938763 
L 344.74011 289.466624 
L 345.283002 288.808263 
L 346.368828 300.319867 
L 346.91172 303.491919 
L 347.997505 303.122327 
L 350.712008 303.672618 
L 351.797834 303.529162 
L 352.340726 303.357282 
L 353.426511 302.711601 
L 353.969403 302.332843 
L 354.512336 302.246637 
L 355.055229 302.846225 
L 355.598121 302.909326 
L 356.141013 302.759369 
L 356.683906 293.978657 
L 357.226839 294.040428 
L 357.769731 302.506834 
L 358.312624 295.244911 
L 358.855516 290.328173 
L 359.398408 294.100175 
L 359.941342 300.987304 
L 360.484234 302.518458 
L 361.027126 301.157391 
L 361.570019 301.72695 
L 362.112911 302.738906 
L 362.655845 303.424703 
L 363.198737 303.849832 
L 363.741629 303.881621 
L 364.284522 303.789995 
L 365.370347 303.900327 
L 365.91324 303.719037 
L 366.456132 303.659851 
L 367.541917 303.761111 
L 369.170635 303.514599 
L 370.256419 303.236779 
L 370.799353 303.234366 
L 371.342245 303.606646 
L 371.885137 303.335571 
L 372.970922 298.781838 
L 373.513856 298.361888 
L 374.056748 302.52459 
L 375.142533 294.290174 
L 375.685425 296.825431 
L 376.228358 302.363581 
L 376.771251 302.12328 
L 377.314143 301.479287 
L 378.942861 303.895709 
L 384.914759 303.580657 
L 386.000544 303.209413 
L 387.086369 302.405267 
L 387.629262 301.725687 
L 388.172154 234.743847 
L 388.715046 232.873412 
L 389.257939 302.612029 
L 389.800872 302.417058 
L 391.429549 284.224163 
L 391.972441 288.712543 
L 392.515375 300.148574 
L 393.058267 291.365589 
L 393.601159 277.332514 
L 394.144052 270.139768 
L 394.686944 278.105248 
L 395.229878 299.835183 
L 395.77277 289.511065 
L 396.315662 285.508408 
L 396.858555 291.466171 
L 397.401447 298.922193 
L 397.94438 303.401778 
L 398.487273 303.433118 
L 398.487273 303.433118 
" clip-path="url(#p1f8aba9c80)" style="fill: none; stroke: #d22027; stroke-width: 1.5; stroke-linecap: square"/>
   </g>
   <g id="patch_13">
    <path d="M 57.6 307.584 
L 57.6 229.315765 
" style="fill: none; stroke: #000000; stroke-width: 0.8; stroke-linejoin: miter; stroke-linecap: square"/>
   </g>
   <g id="patch_14">
    <path d="M 414.72 307.584 
L 414.72 229.315765 
" style="fill: none; stroke: #000000; stroke-width: 0.8; stroke-linejoin: miter; stroke-linecap: square"/>
   </g>
   <g id="patch_15">
    <path d="M 57.6 307.584 
L 414.72 307.584 
" style="fill: none; stroke: #000000; stroke-width: 0.8; stroke-linejoin: miter; stroke-linecap: square"/>
   </g>
   <g id="patch_16">
    <path d="M 57.6 229.315765 
L 414.72 229.315765 
" style="fill: none; stroke: #000000; stroke-width: 0.8; stroke-linejoin: miter; stroke-linecap: square"/>
   </g>
  </g>
 </g>
 <defs>
  <clipPath id="pcaeda447a1">
   <rect x="57.6" y="41.472" width="357.12" height="78.268235"/>
  </clipPath>
  <clipPath id="pdadd86401d">
   <rect x="57.6" y="135.393882" width="357.12" height="78.268235"/>
  </clipPath>
  <clipPath id="p1f8aba9c80">
   <rect x="57.6" y="229.315765" width="357.12" height="78.268235"/>
  </clipPath>
 </defs>
</svg>
