<?xml version="1.0" encoding="utf-8" standalone="no"?>
<!DOCTYPE svg PUBLIC "-//W3C//DTD SVG 1.1//EN"
  "http://www.w3.org/Graphics/SVG/1.1/DTD/svg11.dtd">
<svg xmlns:xlink="http://www.w3.org/1999/xlink" width="460.8pt" height="345.6pt" viewBox="0 0 460.8 345.6" xmlns="http://www.w3.org/2000/svg" version="1.1">
 <metadata>
  <rdf:RDF xmlns:dc="http://purl.org/dc/elements/1.1/" xmlns:cc="http://creativecommons.org/ns#" xmlns:rdf="http://www.w3.org/1999/02/22-rdf-syntax-ns#">
   <cc:Work>
    <dc:type rdf:resource="http://purl.org/dc/dcmitype/StillImage"/>
    <dc:date>2023-10-31T11:57:29.584946</dc:date>
    <dc:format>image/svg+xml</dc:format>
    <dc:creator>
     <cc:Agent>
      <dc:title>Matplotlib v3.5.2, https://matplotlib.org/</dc:title>
     </cc:Agent>
    </dc:creator>
   </cc:Work>
  </rdf:RDF>
 </metadata>
 <defs>
  <style type="text/css">*{stroke-linejoin: round; stroke-linecap: butt}</style>
 </defs>
 <g id="figure_1">
  <g id="patch_1">
   <path d="M 0 345.6 
L 460.8 345.6 
L 460.8 0 
L 0 0 
z
" style="fill: #ffffff"/>
  </g>
  <g id="axes_1">
   <g id="patch_2">
    <path d="M 57.6 119.740235 
L 414.72 119.740235 
L 414.72 41.472 
L 57.6 41.472 
z
" style="fill: #ffffff"/>
   </g>
   <g id="matplotlib.axis_1">
    <g id="xtick_1">
     <g id="line2d_1">
      <defs>
       <path id="mcdf3159b9e" d="M 0 0 
L 0 3.5 
" style="stroke: #000000; stroke-width: 0.8"/>
      </defs>
      <g>
       <use xlink:href="#mcdf3159b9e" x="57.6" y="119.740235" style="stroke: #000000; stroke-width: 0.8"/>
      </g>
     </g>
    </g>
    <g id="xtick_2">
     <g id="line2d_2">
      <g>
       <use xlink:href="#mcdf3159b9e" x="105.216" y="119.740235" style="stroke: #000000; stroke-width: 0.8"/>
      </g>
     </g>
    </g>
    <g id="xtick_3">
     <g id="line2d_3">
      <g>
       <use xlink:href="#mcdf3159b9e" x="152.832" y="119.740235" style="stroke: #000000; stroke-width: 0.8"/>
      </g>
     </g>
    </g>
    <g id="xtick_4">
     <g id="line2d_4">
      <g>
       <use xlink:href="#mcdf3159b9e" x="200.448" y="119.740235" style="stroke: #000000; stroke-width: 0.8"/>
      </g>
     </g>
    </g>
    <g id="xtick_5">
     <g id="line2d_5">
      <g>
       <use xlink:href="#mcdf3159b9e" x="248.064" y="119.740235" style="stroke: #000000; stroke-width: 0.8"/>
      </g>
     </g>
    </g>
    <g id="xtick_6">
     <g id="line2d_6">
      <g>
       <use xlink:href="#mcdf3159b9e" x="295.68" y="119.740235" style="stroke: #000000; stroke-width: 0.8"/>
      </g>
     </g>
    </g>
    <g id="xtick_7">
     <g id="line2d_7">
      <g>
       <use xlink:href="#mcdf3159b9e" x="343.296" y="119.740235" style="stroke: #000000; stroke-width: 0.8"/>
      </g>
     </g>
    </g>
    <g id="xtick_8">
     <g id="line2d_8">
      <g>
       <use xlink:href="#mcdf3159b9e" x="390.912" y="119.740235" style="stroke: #000000; stroke-width: 0.8"/>
      </g>
     </g>
    </g>
    <g id="xtick_9">
     <g id="line2d_9">
      <g>
       <use xlink:href="#mcdf3159b9e" x="414.72" y="119.740235" style="stroke: #000000; stroke-width: 0.8"/>
      </g>
     </g>
    </g>
   </g>
   <g id="matplotlib.axis_2">
    <g id="ytick_1">
     <g id="line2d_10">
      <defs>
       <path id="m3ecc5f0746" d="M 0 0 
L -3.5 0 
" style="stroke: #000000; stroke-width: 0.8"/>
      </defs>
      <g>
       <use xlink:href="#m3ecc5f0746" x="57.6" y="116.183447" style="stroke: #000000; stroke-width: 0.8"/>
      </g>
     </g>
     <g id="text_1">
      <!-- 0 -->
      <g transform="translate(44.2375 119.982666)scale(0.1 -0.1)">
       <defs>
        <path id="DejaVuSans-30" d="M 2034 4250 
Q 1547 4250 1301 3770 
Q 1056 3291 1056 2328 
Q 1056 1369 1301 889 
Q 1547 409 2034 409 
Q 2525 409 2770 889 
Q 3016 1369 3016 2328 
Q 3016 3291 2770 3770 
Q 2525 4250 2034 4250 
z
M 2034 4750 
Q 2819 4750 3233 4129 
Q 3647 3509 3647 2328 
Q 3647 1150 3233 529 
Q 2819 -91 2034 -91 
Q 1250 -91 836 529 
Q 422 1150 422 2328 
Q 422 3509 836 4129 
Q 1250 4750 2034 4750 
z
" transform="scale(0.015625)"/>
       </defs>
       <use xlink:href="#DejaVuSans-30"/>
      </g>
     </g>
    </g>
    <g id="ytick_2">
     <g id="line2d_11">
      <g>
       <use xlink:href="#m3ecc5f0746" x="57.6" y="72.593544" style="stroke: #000000; stroke-width: 0.8"/>
      </g>
     </g>
     <g id="text_2">
      <!-- 20 -->
      <g transform="translate(37.875 76.392762)scale(0.1 -0.1)">
       <defs>
        <path id="DejaVuSans-32" d="M 1228 531 
L 3431 531 
L 3431 0 
L 469 0 
L 469 531 
Q 828 903 1448 1529 
Q 2069 2156 2228 2338 
Q 2531 2678 2651 2914 
Q 2772 3150 2772 3378 
Q 2772 3750 2511 3984 
Q 2250 4219 1831 4219 
Q 1534 4219 1204 4116 
Q 875 4013 500 3803 
L 500 4441 
Q 881 4594 1212 4672 
Q 1544 4750 1819 4750 
Q 2544 4750 2975 4387 
Q 3406 4025 3406 3419 
Q 3406 3131 3298 2873 
Q 3191 2616 2906 2266 
Q 2828 2175 2409 1742 
Q 1991 1309 1228 531 
z
" transform="scale(0.015625)"/>
       </defs>
       <use xlink:href="#DejaVuSans-32"/>
       <use xlink:href="#DejaVuSans-30" x="63.623047"/>
      </g>
     </g>
    </g>
   </g>
   <g id="line2d_12">
    <path d="M 57.6 116.145759 
L 65.932809 116.172494 
L 69.504 116.096642 
L 78.432 116.086065 
L 82.003191 115.842566 
L 83.788809 115.523457 
L 85.574405 114.957431 
L 86.764809 114.577314 
L 87.36 114.561263 
L 87.955191 114.821843 
L 89.145595 115.961784 
L 89.740809 114.908417 
L 90.336 114.099382 
L 90.931191 113.833631 
L 92.121595 114.235343 
L 93.907191 115.318357 
L 95.097595 115.821378 
L 95.692809 115.761812 
L 96.288 115.91105 
L 98.073595 115.832924 
L 99.264 115.598631 
L 99.859191 115.619669 
L 100.454405 115.475938 
L 102.24 115.504187 
L 104.025595 116.113601 
L 104.620809 115.818992 
L 105.811191 115.494912 
L 106.406405 115.299516 
L 107.001595 115.454288 
L 107.596809 115.352341 
L 108.787191 115.683236 
L 109.382405 115.665359 
L 109.977595 115.937911 
L 112.358405 116.137502 
L 113.548809 115.865523 
L 114.144 115.87042 
L 115.334405 115.626548 
L 115.929595 115.607328 
L 116.524809 115.476652 
L 118.310405 115.59805 
L 119.500809 116.102238 
L 120.096 116.043043 
L 120.691191 115.649507 
L 121.286405 115.592156 
L 121.881595 115.386159 
L 122.476809 115.351748 
L 123.072 115.48431 
L 123.667191 115.43245 
L 124.262405 115.654593 
L 127.833595 116.11197 
L 128.428809 116.134122 
L 129.619191 115.91713 
L 130.214405 115.889369 
L 131.404809 115.695387 
L 133.190405 115.567997 
L 134.380809 115.670552 
L 135.571191 116.13015 
L 136.166405 115.971797 
L 136.761595 115.660958 
L 137.356809 115.603571 
L 137.952 115.409705 
L 139.737595 115.533983 
L 140.332809 115.738084 
L 141.523191 115.866724 
L 142.118405 116.013136 
L 142.713595 115.991735 
L 143.904 116.17226 
L 145.094405 116.076441 
L 146.284809 116.01193 
L 148.070405 115.809781 
L 149.260809 115.719426 
L 150.451191 115.72174 
L 152.236809 116.13811 
L 152.832 115.904656 
L 154.617595 115.640226 
L 155.808 115.659822 
L 156.403191 115.784406 
L 157.593595 115.894965 
L 159.974405 116.032727 
L 167.116809 116.09447 
L 168.902405 116.022986 
L 170.688 116.124178 
L 171.878405 116.117696 
L 179.616 115.670915 
L 181.401595 115.343961 
L 183.187191 114.749395 
L 185.568 113.744204 
L 186.163191 113.75328 
L 186.758405 114.097334 
L 187.353595 114.877501 
L 187.948809 116.065159 
L 189.139191 113.734685 
L 189.734405 113.005509 
L 190.329595 112.836025 
L 190.924809 113.109035 
L 193.900809 115.686696 
L 194.496 115.988871 
L 195.091191 116.140697 
L 196.876809 115.712387 
L 201.638382 115.075784 
L 202.828809 115.086586 
L 203.424 115.222353 
L 204.019191 115.504775 
L 204.614382 115.943734 
L 205.209618 115.864918 
L 206.4 114.821726 
L 206.995191 114.619394 
L 207.590382 114.69423 
L 208.780809 115.372773 
L 209.971191 116.155337 
L 211.756809 115.41135 
L 215.328 114.299511 
L 216.518382 113.62487 
L 217.708809 112.572657 
L 218.304 111.834395 
L 218.899191 110.905806 
L 219.494382 109.731817 
L 220.089618 108.246142 
L 220.684809 106.365314 
L 221.28 103.982457 
L 221.875191 100.970196 
L 222.470382 97.178675 
L 223.065618 92.446289 
L 223.660809 86.629025 
L 224.851191 71.648518 
L 226.041618 54.783488 
L 226.636809 48.255226 
L 227.232 45.029647 
L 227.827191 46.251884 
L 228.422382 52.096738 
L 229.017618 61.587419 
L 230.803191 94.742821 
L 231.398382 103.49532 
L 231.993618 110.370897 
L 232.588809 115.759945 
L 233.779191 109.358447 
L 234.969618 104.434972 
L 236.16 100.115621 
L 237.350382 95.135843 
L 238.540809 88.470554 
L 239.731191 79.769525 
L 241.516809 65.180928 
L 242.112 61.500388 
L 242.707191 59.269097 
L 243.302382 59.126394 
L 243.897618 61.183578 
L 244.492809 65.064576 
L 245.683191 76.397835 
L 246.873618 87.909095 
L 248.064 96.397599 
L 248.659191 99.269487 
L 249.254382 101.31056 
L 249.849618 102.716082 
L 250.444809 103.346756 
L 251.04 103.514188 
L 251.635191 103.173668 
L 252.230382 102.283167 
L 252.825618 101.025379 
L 253.420809 99.224968 
L 254.016 96.891455 
L 254.611191 94.044045 
L 255.801618 86.344429 
L 256.992 76.13766 
L 258.777618 59.992227 
L 259.372809 56.739207 
L 259.968 55.755928 
L 260.563191 57.413959 
L 261.158382 61.70383 
L 262.348809 74.880078 
L 263.539191 88.571746 
L 264.134382 94.233603 
L 264.729618 98.721903 
L 265.324809 102.205363 
L 265.92 104.762837 
L 266.515191 106.455518 
L 267.110382 107.575518 
L 267.705618 108.107437 
L 268.300809 108.183362 
L 268.896 107.923391 
L 269.491191 107.250566 
L 270.086382 106.255349 
L 270.681618 104.90837 
L 271.276809 103.130007 
L 271.872 100.930985 
L 272.467191 98.225089 
L 273.657618 91.106839 
L 274.848 81.830104 
L 276.633618 67.460256 
L 277.228809 64.029256 
L 277.824 61.691073 
L 278.419191 60.635238 
L 279.014382 60.946078 
L 279.609618 62.897724 
L 280.204809 66.763035 
L 280.8 72.391536 
L 283.180809 99.581878 
L 283.776 104.480279 
L 284.371191 108.284342 
L 284.966382 111.119446 
L 285.561618 113.127358 
L 286.156809 114.540047 
L 286.752 115.47702 
L 287.347191 116.065524 
L 289.132809 115.755351 
L 289.728 115.840964 
L 290.323191 116.042197 
L 290.918382 116.013679 
L 291.513618 115.57832 
L 292.704 114.270874 
L 294.489618 111.626466 
L 295.084809 111.132158 
L 295.68 111.316944 
L 296.275191 112.420858 
L 296.870382 114.371677 
L 297.465618 115.60117 
L 298.060809 113.311734 
L 298.656 111.566876 
L 299.251191 110.497174 
L 299.846382 110.03227 
L 300.441618 109.981527 
L 302.822382 110.714456 
L 303.417618 110.682443 
L 304.012809 110.494296 
L 304.608 110.141787 
L 305.203191 109.59498 
L 305.798382 108.844041 
L 306.393618 107.854788 
L 306.988809 106.582145 
L 307.584 104.98414 
L 308.179191 102.990225 
L 308.774382 100.530194 
L 309.369618 97.532093 
L 310.56 89.667316 
L 311.750382 79.461235 
L 312.940809 68.721951 
L 313.536 64.269556 
L 314.131191 61.045711 
L 314.726382 59.290732 
L 315.321618 59.119652 
L 315.916809 60.684247 
L 316.512 64.157269 
L 317.107191 69.513744 
L 320.083191 103.45363 
L 320.678382 107.871004 
L 321.273618 111.259029 
L 321.868809 113.790358 
L 322.464 115.650233 
L 323.059191 115.332102 
L 324.249618 113.437898 
L 326.630382 110.430707 
L 327.820809 108.347065 
L 329.011191 105.422694 
L 330.201618 101.533068 
L 331.392 97.25291 
L 331.987191 95.588307 
L 332.582382 94.863693 
L 333.177618 95.669022 
L 333.772809 98.514797 
L 334.368 103.626511 
L 334.963191 110.807176 
L 335.558382 112.94176 
L 336.748809 95.725952 
L 337.344 89.863669 
L 337.939191 87.429671 
L 338.534382 88.677788 
L 339.129618 92.727788 
L 341.510382 113.498443 
L 342.105618 115.35573 
L 342.700809 112.497015 
L 343.891191 108.451187 
L 346.867191 99.597208 
L 348.057618 94.175923 
L 348.652809 90.803635 
L 349.843191 82.380963 
L 352.819191 57.971401 
L 353.414382 56.107149 
L 354.009618 56.582417 
L 354.604809 60.2429 
L 355.2 66.169681 
L 357.580809 94.867227 
L 358.176 99.82275 
L 358.771191 103.453319 
L 359.366382 106.296465 
L 359.961618 108.059944 
L 360.556809 109.213796 
L 361.152 109.952355 
L 361.747191 110.088983 
L 362.342382 110.069988 
L 362.937618 109.802793 
L 365.318382 107.680476 
L 365.913618 107.547088 
L 366.508809 107.763601 
L 367.104 108.661177 
L 367.699191 110.508359 
L 368.889618 115.933591 
L 370.08 109.155837 
L 370.675191 106.663397 
L 371.270382 105.671693 
L 371.865618 105.812565 
L 372.460809 106.940534 
L 374.841618 114.918365 
L 375.436809 115.845887 
L 376.627191 112.946163 
L 379.008 108.032171 
L 380.793618 103.642113 
L 381.984 100.799594 
L 382.579191 99.814983 
L 383.174382 99.602927 
L 383.769618 100.497916 
L 384.364809 102.624706 
L 384.96 106.36738 
L 385.555191 111.363622 
L 386.150382 115.086494 
L 387.340809 103.068981 
L 387.936 98.555672 
L 388.531191 96.081096 
L 389.126382 95.876665 
L 389.721618 97.507741 
L 390.912 104.467827 
L 392.102382 112.076421 
L 392.697618 115.280226 
L 393.292809 114.225817 
L 394.483191 109.437858 
L 396.864 100.164668 
L 399.84 86.427539 
L 400.435191 84.905888 
L 401.030382 84.573397 
L 401.625618 85.343656 
L 402.220809 87.115535 
L 404.006382 94.154026 
L 404.601618 95.630948 
L 405.196809 96.258892 
L 405.792 95.944051 
L 406.387191 94.472243 
L 406.982382 92.031895 
L 407.577618 88.577787 
L 409.363191 76.216802 
L 409.958382 74.064741 
L 410.553618 74.32066 
L 411.148809 76.955682 
L 413.529618 94.274823 
L 414.124809 96.415129 
L 414.72 97.218558 
L 414.72 97.218558 
" clip-path="url(#p0508ee61d2)" style="fill: none; stroke-dasharray: 9.6,2.4,1.5,2.4; stroke-dashoffset: 0; stroke: #0000cc; stroke-width: 1.5"/>
   </g>
   <g id="line2d_13">
    <path d="M 57.6 116.145759 
L 63.552 116.159989 
L 71.289595 116.14963 
L 78.432 116.159159 
L 82.598405 116.034255 
L 84.979191 115.778635 
L 87.36 115.405844 
L 87.955191 115.463066 
L 88.550405 115.700514 
L 89.145595 116.111244 
L 90.931191 115.108247 
L 91.526405 115.086915 
L 92.716809 115.357672 
L 95.097595 115.983359 
L 96.883191 116.169211 
L 101.049595 116.122001 
L 104.025595 116.053659 
L 106.406405 116.112702 
L 109.382405 116.013567 
L 124.857595 116.036271 
L 132 116.00242 
L 134.976 116.089161 
L 136.761595 115.962826 
L 141.523191 116.03608 
L 149.260809 115.794314 
L 150.451191 115.97935 
L 151.046405 116.135908 
L 152.236809 115.874279 
L 153.427191 115.692065 
L 154.617595 115.767064 
L 156.998405 116.166832 
L 162.355191 115.649449 
L 166.521595 115.194355 
L 167.116809 115.334262 
L 167.712 115.613413 
L 168.307191 116.020369 
L 168.902405 115.859816 
L 170.092809 115.066634 
L 170.688 114.917527 
L 171.283191 114.947316 
L 172.473595 115.327435 
L 174.259191 115.991955 
L 174.854405 116.157198 
L 179.020809 115.461208 
L 180.806405 114.952694 
L 181.996809 114.41348 
L 183.782405 113.249954 
L 184.972809 112.550976 
L 185.568 112.514613 
L 186.163191 112.923172 
L 186.758405 113.940916 
L 187.353595 115.573695 
L 187.948809 114.822657 
L 188.544 112.988981 
L 189.139191 111.775367 
L 189.734405 111.340736 
L 190.329595 111.585488 
L 190.924809 112.24787 
L 192.710405 114.617521 
L 193.900809 115.653725 
L 194.496 115.990929 
L 195.091191 116.128843 
L 196.281595 115.815928 
L 199.257595 115.404153 
L 202.233618 115.038303 
L 203.424 115.149328 
L 204.019191 115.392463 
L 204.614382 115.810383 
L 205.209618 115.977504 
L 206.4 114.776928 
L 206.995191 114.472701 
L 207.590382 114.482297 
L 208.185618 114.75298 
L 209.971191 116.074025 
L 210.566382 115.916377 
L 211.756809 115.34829 
L 215.923191 113.725982 
L 217.113618 112.846551 
L 218.304 111.511212 
L 219.494382 109.518217 
L 220.684809 106.717514 
L 222.470382 102.007799 
L 223.065618 101.336461 
L 223.660809 102.008211 
L 224.256 104.632234 
L 224.851191 109.494775 
L 225.446382 116.134391 
L 226.636809 102.066523 
L 227.232 97.754714 
L 227.827191 96.35886 
L 228.422382 97.545391 
L 229.017618 100.391331 
L 230.803191 110.404764 
L 231.398382 112.858465 
L 231.993618 114.748046 
L 232.588809 116.154807 
L 233.184 115.186402 
L 233.779191 114.442475 
L 234.969618 113.479952 
L 236.16 112.865291 
L 237.945618 112.217627 
L 238.540809 112.114892 
L 239.136 112.143133 
L 239.731191 112.386015 
L 240.326382 112.952854 
L 240.921618 113.958809 
L 241.516809 115.471173 
L 242.112 114.93716 
L 243.302382 111.001775 
L 243.897618 110.014458 
L 244.492809 110.117048 
L 245.088 111.198123 
L 246.278382 114.780401 
L 246.873618 115.799767 
L 248.064 112.995793 
L 249.254382 111.11481 
L 251.635191 107.85561 
L 252.230382 106.761314 
L 252.825618 105.432146 
L 253.420809 103.802458 
L 254.016 101.798427 
L 254.611191 99.337999 
L 255.206382 96.333784 
L 255.801618 92.696847 
L 256.992 83.276602 
L 259.968 55.423018 
L 260.563191 53.725922 
L 261.158382 54.936905 
L 261.753618 59.0428 
L 262.348809 65.474801 
L 264.729618 95.337243 
L 265.324809 100.655779 
L 265.92 104.796367 
L 266.515191 107.89645 
L 267.110382 110.136565 
L 267.705618 111.69736 
L 268.300809 112.737878 
L 268.896 113.387131 
L 269.491191 113.742465 
L 270.086382 113.872577 
L 270.681618 113.822347 
L 271.276809 113.617441 
L 271.872 113.267648 
L 272.467191 112.781768 
L 273.062382 112.112764 
L 273.657618 111.252462 
L 274.252809 110.163353 
L 274.848 108.80053 
L 275.443191 107.117678 
L 276.633618 102.686927 
L 278.419191 94.971133 
L 279.014382 93.761575 
L 279.609618 94.541652 
L 280.204809 98.045233 
L 280.8 104.466241 
L 281.395191 113.260936 
L 281.990382 109.130624 
L 282.585618 99.501043 
L 283.180809 91.813425 
L 283.776 87.308951 
L 284.371191 86.403714 
L 284.966382 88.66971 
L 286.156809 97.714234 
L 287.347191 106.235572 
L 287.942382 109.256642 
L 288.537618 111.427342 
L 289.132809 112.851566 
L 289.728 113.659797 
L 290.323191 113.967529 
L 290.918382 113.861833 
L 291.513618 113.410671 
L 292.108809 112.660013 
L 293.299191 110.412479 
L 295.084809 106.581421 
L 295.68 106.075966 
L 296.275191 106.572575 
L 296.870382 108.312968 
L 297.465618 111.347572 
L 298.060809 115.30861 
L 298.656 112.820042 
L 299.251191 109.029319 
L 299.846382 106.219485 
L 300.441618 104.596487 
L 301.036809 104.086763 
L 301.632 104.424621 
L 302.227191 105.292848 
L 304.012809 108.610459 
L 305.203191 110.182376 
L 305.798382 110.67529 
L 306.393618 110.986679 
L 306.988809 111.135427 
L 307.584 111.141125 
L 308.774382 110.797732 
L 309.964809 110.104707 
L 311.155191 109.31392 
L 311.750382 109.047836 
L 312.345618 109.031145 
L 312.940809 109.450524 
L 313.536 110.524899 
L 314.131191 112.449818 
L 314.726382 115.275376 
L 315.321618 113.609746 
L 315.916809 110.085217 
L 316.512 107.355124 
L 317.107191 106.107353 
L 317.702382 106.529599 
L 318.297618 108.282169 
L 320.083191 115.871812 
L 322.464 109.901224 
L 324.249618 106.395464 
L 325.44 103.390488 
L 326.035191 101.442296 
L 326.630382 99.087342 
L 327.225618 96.241202 
L 328.416 88.778225 
L 329.606382 78.792432 
L 331.392 62.21991 
L 331.987191 58.276956 
L 332.582382 56.26791 
L 333.177618 56.66186 
L 333.772809 59.582885 
L 334.368 64.692424 
L 337.344 97.370184 
L 337.939191 101.648723 
L 338.534382 104.901095 
L 339.129618 107.260004 
L 339.724809 108.877863 
L 340.32 109.897494 
L 340.915191 110.438895 
L 341.510382 110.591722 
L 342.105618 110.414996 
L 342.700809 109.943112 
L 343.296 109.182121 
L 343.891191 108.129384 
L 344.486382 106.733663 
L 345.081618 104.950162 
L 345.676809 102.709874 
L 346.272 99.933997 
L 346.867191 96.542147 
L 348.057618 87.738405 
L 350.438382 66.860967 
L 351.033618 63.504293 
L 351.628809 61.606977 
L 352.224 61.054584 
L 352.819191 61.702797 
L 353.414382 63.619552 
L 354.009618 67.108193 
L 354.604809 72.366947 
L 355.795191 86.698927 
L 356.985618 100.958584 
L 357.580809 106.667057 
L 358.176 111.265662 
L 358.771191 114.874295 
L 359.366382 114.675084 
L 360.556809 110.563277 
L 362.937618 103.546461 
L 363.532809 101.245197 
L 364.128 98.485952 
L 364.723191 95.152819 
L 365.318382 91.134058 
L 366.508809 80.764561 
L 368.889618 56.375945 
L 369.484809 53.335547 
L 370.08 53.286974 
L 370.675191 56.380312 
L 371.270382 62.188847 
L 374.246382 98.624656 
L 374.841618 103.329505 
L 375.436809 106.955371 
L 376.032 109.678677 
L 376.627191 111.67905 
L 377.222382 113.115119 
L 377.817618 114.130024 
L 378.412809 114.859735 
L 379.603191 115.801374 
L 380.198382 116.123452 
L 381.388809 115.6851 
L 383.174382 114.690927 
L 385.555191 112.945714 
L 386.150382 112.798821 
L 386.745618 113.065495 
L 387.340809 113.894813 
L 387.936 115.278062 
L 388.531191 115.3904 
L 389.126382 113.78041 
L 389.721618 112.613968 
L 390.316809 112.038392 
L 390.912 111.98425 
L 391.507191 112.272359 
L 393.888 114.037347 
L 395.078382 114.458193 
L 396.268809 114.512982 
L 397.459191 114.249022 
L 398.649618 113.657436 
L 399.84 112.650489 
L 400.435191 111.938174 
L 401.030382 111.045842 
L 401.625618 109.937906 
L 402.220809 108.575401 
L 402.816 106.923912 
L 403.411191 104.535817 
L 405.196809 98.934697 
L 405.792 98.008691 
L 406.387191 98.521998 
L 406.982382 101.137822 
L 407.577618 106.181613 
L 408.172809 113.453163 
L 408.768 110.415001 
L 409.363191 102.137734 
L 409.958382 95.716192 
L 410.553618 92.333856 
L 411.148809 92.251629 
L 411.744 94.799234 
L 414.124809 110.889514 
L 414.72 113.668823 
L 414.72 113.668823 
" clip-path="url(#p0508ee61d2)" style="fill: none; stroke: #ff0000; stroke-width: 1.5; stroke-linecap: square"/>
   </g>
   <g id="patch_3">
    <path d="M 57.6 119.740235 
L 57.6 41.472 
" style="fill: none; stroke: #000000; stroke-width: 0.8; stroke-linejoin: miter; stroke-linecap: square"/>
   </g>
   <g id="patch_4">
    <path d="M 414.72 119.740235 
L 414.72 41.472 
" style="fill: none; stroke: #000000; stroke-width: 0.8; stroke-linejoin: miter; stroke-linecap: square"/>
   </g>
   <g id="patch_5">
    <path d="M 57.6 119.740235 
L 414.72 119.740235 
" style="fill: none; stroke: #000000; stroke-width: 0.8; stroke-linejoin: miter; stroke-linecap: square"/>
   </g>
   <g id="patch_6">
    <path d="M 57.6 41.472 
L 414.72 41.472 
" style="fill: none; stroke: #000000; stroke-width: 0.8; stroke-linejoin: miter; stroke-linecap: square"/>
   </g>
  </g>
  <g id="axes_2">
   <g id="patch_7">
    <path d="M 57.6 213.662118 
L 414.72 213.662118 
L 414.72 135.393882 
L 57.6 135.393882 
z
" style="fill: #ffffff"/>
   </g>
   <g id="matplotlib.axis_3">
    <g id="xtick_10">
     <g id="line2d_14">
      <g>
       <use xlink:href="#mcdf3159b9e" x="57.6" y="213.662118" style="stroke: #000000; stroke-width: 0.8"/>
      </g>
     </g>
    </g>
    <g id="xtick_11">
     <g id="line2d_15">
      <g>
       <use xlink:href="#mcdf3159b9e" x="105.216" y="213.662118" style="stroke: #000000; stroke-width: 0.8"/>
      </g>
     </g>
    </g>
    <g id="xtick_12">
     <g id="line2d_16">
      <g>
       <use xlink:href="#mcdf3159b9e" x="152.832" y="213.662118" style="stroke: #000000; stroke-width: 0.8"/>
      </g>
     </g>
    </g>
    <g id="xtick_13">
     <g id="line2d_17">
      <g>
       <use xlink:href="#mcdf3159b9e" x="200.448" y="213.662118" style="stroke: #000000; stroke-width: 0.8"/>
      </g>
     </g>
    </g>
    <g id="xtick_14">
     <g id="line2d_18">
      <g>
       <use xlink:href="#mcdf3159b9e" x="248.064" y="213.662118" style="stroke: #000000; stroke-width: 0.8"/>
      </g>
     </g>
    </g>
    <g id="xtick_15">
     <g id="line2d_19">
      <g>
       <use xlink:href="#mcdf3159b9e" x="295.68" y="213.662118" style="stroke: #000000; stroke-width: 0.8"/>
      </g>
     </g>
    </g>
    <g id="xtick_16">
     <g id="line2d_20">
      <g>
       <use xlink:href="#mcdf3159b9e" x="343.296" y="213.662118" style="stroke: #000000; stroke-width: 0.8"/>
      </g>
     </g>
    </g>
    <g id="xtick_17">
     <g id="line2d_21">
      <g>
       <use xlink:href="#mcdf3159b9e" x="390.912" y="213.662118" style="stroke: #000000; stroke-width: 0.8"/>
      </g>
     </g>
    </g>
    <g id="xtick_18">
     <g id="line2d_22">
      <g>
       <use xlink:href="#mcdf3159b9e" x="414.72" y="213.662118" style="stroke: #000000; stroke-width: 0.8"/>
      </g>
     </g>
    </g>
   </g>
   <g id="matplotlib.axis_4">
    <g id="ytick_3">
     <g id="line2d_23">
      <g>
       <use xlink:href="#m3ecc5f0746" x="57.6" y="210.105723" style="stroke: #000000; stroke-width: 0.8"/>
      </g>
     </g>
     <g id="text_3">
      <!-- 0 -->
      <g transform="translate(44.2375 213.904941)scale(0.1 -0.1)">
       <use xlink:href="#DejaVuSans-30"/>
      </g>
     </g>
    </g>
    <g id="ytick_4">
     <g id="line2d_24">
      <g>
       <use xlink:href="#m3ecc5f0746" x="57.6" y="176.429949" style="stroke: #000000; stroke-width: 0.8"/>
      </g>
     </g>
     <g id="text_4">
      <!-- 20 -->
      <g transform="translate(37.875 180.229168)scale(0.1 -0.1)">
       <use xlink:href="#DejaVuSans-32"/>
       <use xlink:href="#DejaVuSans-30" x="63.623047"/>
      </g>
     </g>
    </g>
    <g id="ytick_5">
     <g id="line2d_25">
      <g>
       <use xlink:href="#m3ecc5f0746" x="57.6" y="142.754176" style="stroke: #000000; stroke-width: 0.8"/>
      </g>
     </g>
     <g id="text_5">
      <!-- 40 -->
      <g transform="translate(37.875 146.553394)scale(0.1 -0.1)">
       <defs>
        <path id="DejaVuSans-34" d="M 2419 4116 
L 825 1625 
L 2419 1625 
L 2419 4116 
z
M 2253 4666 
L 3047 4666 
L 3047 1625 
L 3713 1625 
L 3713 1100 
L 3047 1100 
L 3047 0 
L 2419 0 
L 2419 1100 
L 313 1100 
L 313 1709 
L 2253 4666 
z
" transform="scale(0.015625)"/>
       </defs>
       <use xlink:href="#DejaVuSans-34"/>
       <use xlink:href="#DejaVuSans-30" x="63.623047"/>
      </g>
     </g>
    </g>
   </g>
   <g id="line2d_26">
    <path d="M 57.6 210.061808 
L 71.884809 210.098663 
L 80.812809 209.776682 
L 82.598405 209.46436 
L 84.384 208.88589 
L 85.574405 208.415987 
L 86.169595 208.300638 
L 86.764809 208.457188 
L 87.955191 209.785014 
L 88.550405 208.048208 
L 89.145595 206.659478 
L 89.740809 206.281961 
L 90.336 206.840837 
L 91.526405 209.056851 
L 92.121595 209.644415 
L 92.716809 210.065942 
L 93.312 209.914602 
L 93.907191 210.051517 
L 96.883191 209.830873 
L 97.478405 209.654905 
L 98.073595 209.653752 
L 99.264 209.429821 
L 101.049595 209.506316 
L 102.24 209.927527 
L 102.835191 209.864121 
L 103.430405 209.469472 
L 104.025595 209.24638 
L 104.620809 208.903079 
L 106.406405 209.157373 
L 107.001595 209.532586 
L 108.192 209.833097 
L 108.787191 210.055088 
L 111.168 209.93322 
L 111.763191 209.765454 
L 112.953595 209.697008 
L 114.144 209.571445 
L 115.334405 209.410583 
L 116.524809 209.433926 
L 117.715191 209.863105 
L 118.310405 210.072681 
L 119.500809 209.266308 
L 120.691191 208.859626 
L 123.072 209.693282 
L 123.667191 209.761981 
L 124.857595 210.093312 
L 125.452809 210.090095 
L 126.048 209.956547 
L 127.238405 209.924814 
L 127.833595 209.809012 
L 128.428809 209.827245 
L 130.809595 209.50515 
L 132.595191 209.481719 
L 134.380809 210.015252 
L 134.976 209.561223 
L 136.166405 209.060353 
L 136.761595 208.947544 
L 137.356809 209.167694 
L 137.952 209.266338 
L 139.142405 209.745943 
L 139.737595 209.820606 
L 140.332809 210.01191 
L 141.523191 210.085086 
L 142.713595 210.051597 
L 147.475191 209.647724 
L 148.665595 209.571895 
L 149.856 209.75423 
L 150.451191 209.979738 
L 151.046405 209.886812 
L 152.236809 209.321281 
L 152.832 209.181443 
L 154.617595 209.55297 
L 156.403191 209.946636 
L 164.140809 210.06933 
L 168.307191 209.952349 
L 168.902405 210.063489 
L 169.497595 210.03907 
L 170.688 209.849513 
L 171.878405 209.79566 
L 175.449595 209.874692 
L 179.020809 209.587277 
L 180.806405 209.203309 
L 182.592 208.53283 
L 184.377595 207.72975 
L 184.972809 207.667849 
L 185.568 207.940836 
L 186.163191 208.754059 
L 186.758405 209.977043 
L 187.948809 206.097922 
L 188.544 205.051259 
L 189.139191 205.260463 
L 189.734405 206.433402 
L 190.924809 209.196489 
L 191.52 210.056109 
L 192.115191 209.661496 
L 192.710405 209.432398 
L 193.900809 209.36223 
L 196.876809 209.444716 
L 199.257595 209.227991 
L 201.043191 209.046644 
L 202.233618 209.182906 
L 202.828809 209.467558 
L 203.424 209.95781 
L 204.019191 209.535111 
L 205.209618 207.967858 
L 205.804809 207.654399 
L 206.4 207.905465 
L 208.185618 210.070784 
L 208.780809 209.578434 
L 209.376 209.286097 
L 210.566382 209.044993 
L 212.947191 208.762063 
L 214.137618 208.410136 
L 215.328 207.806767 
L 216.518382 206.836211 
L 217.113618 206.150941 
L 217.708809 205.28615 
L 218.304 204.189807 
L 218.899191 202.802587 
L 219.494382 201.043041 
L 220.089618 198.809308 
L 220.684809 195.977998 
L 221.28 192.397406 
L 221.875191 187.897369 
L 222.470382 182.306013 
L 223.660809 167.473029 
L 225.446382 142.32423 
L 226.041618 138.951529 
L 226.636809 141.784819 
L 227.232 151.729646 
L 229.017618 201.037659 
L 229.612809 207.383813 
L 230.208 200.344912 
L 230.803191 196.869182 
L 231.398382 195.651209 
L 231.993618 195.657295 
L 233.184 196.024691 
L 233.779191 195.982135 
L 234.374382 195.361256 
L 234.969618 194.355172 
L 235.564809 192.885312 
L 236.16 190.763963 
L 236.755191 188.175144 
L 237.350382 184.989701 
L 238.540809 176.8546 
L 240.326382 162.654274 
L 240.921618 159.10081 
L 241.516809 157.428997 
L 242.112 158.439926 
L 242.707191 162.363314 
L 243.302382 168.975894 
L 245.088 192.739545 
L 245.683191 198.251302 
L 246.278382 201.985774 
L 246.873618 204.189342 
L 247.468809 205.063562 
L 248.064 205.203481 
L 248.659191 204.738448 
L 249.849618 202.824196 
L 251.04 199.941232 
L 251.635191 198.193119 
L 252.825618 193.614903 
L 253.420809 190.683827 
L 254.611191 183.13592 
L 255.801618 173.121258 
L 257.587191 157.000139 
L 258.182382 153.949612 
L 258.777618 153.759527 
L 259.372809 157.31545 
L 259.968 164.504017 
L 261.753618 193.701927 
L 262.348809 200.708407 
L 262.944 205.298101 
L 263.539191 207.803682 
L 264.134382 208.909359 
L 264.729618 209.003857 
L 265.324809 208.552754 
L 265.92 207.839762 
L 267.705618 204.817073 
L 268.896 202.245437 
L 270.086382 198.784607 
L 270.681618 196.573529 
L 271.872 190.729228 
L 273.062382 182.681726 
L 275.443191 163.990087 
L 276.038382 161.280652 
L 276.633618 160.271082 
L 277.228809 160.91228 
L 277.824 162.828656 
L 278.419191 166.039796 
L 279.014382 170.920608 
L 279.609618 177.959275 
L 281.395191 204.093638 
L 281.990382 209.682605 
L 282.585618 207.352747 
L 283.180809 205.958081 
L 283.776 205.715225 
L 284.371191 206.063522 
L 287.347191 208.791915 
L 289.132809 209.895677 
L 289.728 209.905722 
L 290.918382 208.800078 
L 292.108809 207.132421 
L 293.299191 205.075498 
L 293.894382 204.328456 
L 294.489618 204.311243 
L 295.084809 205.545796 
L 295.68 208.291897 
L 296.275191 208.099506 
L 296.870382 204.390611 
L 297.465618 201.99645 
L 298.060809 201.347288 
L 298.656 202.042811 
L 299.846382 204.568411 
L 300.441618 205.51688 
L 301.036809 206.088237 
L 301.632 206.321793 
L 302.227191 206.267938 
L 302.822382 205.995257 
L 303.417618 205.531705 
L 304.012809 204.886202 
L 304.608 204.066366 
L 305.203191 203.035068 
L 305.798382 201.762515 
L 306.393618 200.20074 
L 306.988809 198.275194 
L 307.584 195.921538 
L 308.179191 193.053615 
L 309.369618 185.480454 
L 310.56 175.442016 
L 311.750382 164.760278 
L 312.345618 160.630384 
L 312.940809 158.270555 
L 313.536 158.025401 
L 314.131191 159.795315 
L 314.726382 163.231633 
L 315.321618 168.230678 
L 315.916809 175.087712 
L 318.297618 208.658701 
L 318.892809 207.388838 
L 319.488 205.277739 
L 320.083191 204.529392 
L 320.678382 204.548356 
L 323.059191 205.769272 
L 323.654382 205.767376 
L 324.249618 205.589041 
L 324.844809 205.221896 
L 325.44 204.667151 
L 326.035191 203.913134 
L 326.630382 202.939345 
L 327.225618 201.728343 
L 328.416 198.51531 
L 330.796809 190.369993 
L 331.392 189.467239 
L 331.987191 190.240041 
L 332.582382 193.493408 
L 333.177618 199.73382 
L 333.772809 208.789479 
L 334.368 200.53389 
L 335.558382 179.638582 
L 336.153618 173.249615 
L 336.748809 171.963748 
L 337.344 176.647238 
L 337.939191 186.153084 
L 339.129618 207.445937 
L 339.724809 206.075832 
L 340.32 202.286543 
L 340.915191 200.456591 
L 341.510382 199.940852 
L 343.296 199.350498 
L 343.891191 198.723335 
L 344.486382 197.800305 
L 345.081618 196.661522 
L 345.676809 194.908658 
L 346.272 192.80085 
L 346.867191 190.256852 
L 348.057618 183.394286 
L 349.248 174.379347 
L 351.033618 159.421473 
L 351.628809 155.870836 
L 352.224 154.209594 
L 352.819191 155.779488 
L 353.414382 161.426324 
L 354.009618 170.574396 
L 355.2 192.942998 
L 355.795191 201.395601 
L 356.390382 207.009382 
L 356.985618 209.769528 
L 357.580809 209.350024 
L 358.176 209.330336 
L 358.771191 210.043386 
L 359.366382 209.411945 
L 361.747191 205.629451 
L 363.532809 203.140512 
L 364.128 202.573158 
L 364.723191 202.254371 
L 365.318382 202.410412 
L 365.913618 203.400672 
L 366.508809 205.316595 
L 367.104 208.40111 
L 367.699191 207.616977 
L 368.889618 198.859157 
L 369.484809 196.099496 
L 370.08 195.664944 
L 370.675191 197.211861 
L 372.460809 207.722411 
L 373.056 209.631421 
L 373.651191 207.749362 
L 374.246382 206.434236 
L 374.841618 205.487814 
L 376.627191 203.642586 
L 377.222382 202.945437 
L 378.412809 200.956646 
L 379.603191 198.316227 
L 380.793618 195.612092 
L 381.388809 194.677755 
L 381.984 194.521843 
L 382.579191 195.489401 
L 383.174382 198.11786 
L 383.769618 202.628762 
L 384.364809 208.758107 
L 384.96 204.037167 
L 386.150382 189.901956 
L 386.745618 185.21902 
L 387.340809 183.691545 
L 387.936 185.454493 
L 388.531191 190.246983 
L 390.316809 209.099847 
L 390.912 207.007571 
L 391.507191 204.350639 
L 392.102382 202.540445 
L 393.292809 200.355718 
L 394.483191 198.019884 
L 395.078382 196.429656 
L 396.268809 192.215064 
L 398.649618 181.96186 
L 399.244809 180.786601 
L 399.84 181.071247 
L 400.435191 183.001841 
L 401.625618 190.514239 
L 402.220809 194.397442 
L 402.816 197.362351 
L 403.411191 198.84691 
L 404.006382 198.985624 
L 404.601618 197.723621 
L 405.196809 195.261302 
L 405.792 191.811607 
L 406.982382 182.220749 
L 408.172809 171.928087 
L 408.768 169.04405 
L 409.363191 169.569022 
L 409.958382 174.334217 
L 411.744 198.143413 
L 412.339191 202.058066 
L 412.934382 203.040314 
L 413.529618 201.872912 
L 414.124809 199.31521 
L 414.72 196.009204 
L 414.72 196.009204 
" clip-path="url(#p9710a99146)" style="fill: none; stroke-dasharray: 9.6,2.4,1.5,2.4; stroke-dashoffset: 0; stroke: #0000cc; stroke-width: 1.5"/>
   </g>
   <g id="line2d_27">
    <path d="M 57.6 210.061808 
L 62.956809 210.086312 
L 67.123191 210.072649 
L 82.598405 209.889178 
L 84.979191 209.537995 
L 86.169595 209.338973 
L 86.764809 209.346795 
L 87.36 209.542434 
L 87.955191 210.021189 
L 89.740809 208.391134 
L 90.336 208.57753 
L 92.121595 209.955998 
L 92.716809 210.059833 
L 94.502405 209.886431 
L 99.859191 210.044803 
L 102.835191 209.943087 
L 105.216 210.041911 
L 107.596809 209.994636 
L 115.929595 210.077467 
L 119.500809 209.927965 
L 121.881595 210.061921 
L 124.857595 209.995396 
L 132 210.010408 
L 133.190405 210.049777 
L 135.571191 209.74962 
L 137.356809 209.963146 
L 138.547191 210.078236 
L 140.928 209.950739 
L 148.665595 209.801503 
L 149.856 210.085895 
L 151.641595 209.390008 
L 152.236809 209.319942 
L 153.427191 209.547151 
L 155.212809 210.092224 
L 157.593595 209.869989 
L 161.164809 209.612051 
L 165.331191 209.122679 
L 165.926405 209.257936 
L 166.521595 209.563903 
L 167.116809 210.073171 
L 168.902405 208.277809 
L 169.497595 208.139532 
L 170.092809 208.373639 
L 171.878405 209.78369 
L 172.473595 210.092805 
L 173.664 209.804967 
L 179.020809 209.150333 
L 180.211191 208.734468 
L 181.401595 208.118264 
L 183.782405 206.488551 
L 184.377595 206.343466 
L 184.972809 206.653485 
L 185.568 207.707812 
L 186.163191 209.715275 
L 186.758405 207.670286 
L 187.353595 204.740486 
L 187.948809 202.811751 
L 188.544 202.617974 
L 189.139191 203.982554 
L 190.329595 207.969635 
L 190.924809 209.376843 
L 191.52 209.973859 
L 192.115191 209.528072 
L 192.710405 209.343872 
L 193.900809 209.332146 
L 196.876809 209.466128 
L 199.257595 209.277987 
L 201.638382 209.092333 
L 202.233618 209.182474 
L 202.828809 209.418281 
L 203.424 209.863263 
L 204.019191 209.66369 
L 205.209618 207.981532 
L 205.804809 207.538524 
L 206.4 207.712735 
L 206.995191 208.449049 
L 207.590382 209.417185 
L 208.185618 209.932478 
L 208.780809 209.334164 
L 209.376 208.994642 
L 210.566382 208.765939 
L 212.947191 208.532271 
L 214.137618 208.174032 
L 215.328 207.547508 
L 216.518382 206.545406 
L 217.708809 205.001916 
L 218.899191 202.711191 
L 220.089618 199.582066 
L 221.28 196.251493 
L 221.875191 195.276628 
L 222.470382 195.640203 
L 223.065618 198.272174 
L 223.660809 203.980859 
L 224.256 207.421083 
L 225.446382 187.233402 
L 226.041618 181.568574 
L 226.636809 181.622077 
L 227.232 186.857768 
L 228.422382 202.390117 
L 229.017618 208.123441 
L 229.612809 208.568832 
L 230.208 206.784064 
L 230.803191 206.100614 
L 231.398382 206.011094 
L 232.588809 206.433146 
L 233.779191 206.81157 
L 234.969618 206.889006 
L 237.945618 206.609751 
L 238.540809 206.839347 
L 239.136 207.386473 
L 239.731191 208.402165 
L 240.326382 210.030742 
L 240.921618 207.897376 
L 242.112 202.604897 
L 242.707191 201.142631 
L 243.302382 201.60107 
L 243.897618 204.022446 
L 244.492809 207.526638 
L 245.088 209.291137 
L 245.683191 206.77075 
L 246.278382 205.26455 
L 246.873618 204.518294 
L 247.468809 204.205957 
L 249.254382 203.665376 
L 249.849618 203.238294 
L 250.444809 202.604286 
L 251.04 201.729808 
L 251.635191 200.578906 
L 252.230382 199.106209 
L 252.825618 197.254976 
L 253.420809 194.956044 
L 254.016 192.12727 
L 254.611191 188.680904 
L 255.801618 179.640012 
L 256.992 167.854651 
L 258.182382 155.873508 
L 258.777618 151.902309 
L 259.372809 150.891348 
L 259.968 153.85652 
L 260.563191 160.957199 
L 262.944 201.990589 
L 263.539191 207.702096 
L 264.134382 209.251781 
L 264.729618 207.787373 
L 265.324809 207.454051 
L 265.92 207.739453 
L 267.110382 208.959903 
L 267.705618 209.6022 
L 268.300809 210.013998 
L 271.276809 207.26914 
L 272.467191 205.679425 
L 273.062382 204.619075 
L 273.657618 203.308883 
L 274.252809 201.69414 
L 275.443191 197.37511 
L 277.228809 189.134219 
L 277.824 187.438233 
L 278.419191 187.858636 
L 279.014382 191.700059 
L 280.204809 208.642941 
L 281.395191 182.567028 
L 281.990382 173.480705 
L 282.585618 169.663602 
L 283.180809 171.96913 
L 283.776 179.593589 
L 284.966382 199.678364 
L 285.561618 206.82416 
L 286.156809 209.207841 
L 286.752 207.35014 
L 287.347191 206.967357 
L 287.942382 207.399288 
L 289.728 209.852647 
L 290.918382 207.4399 
L 292.108809 204.64546 
L 293.894382 200.294578 
L 294.489618 199.600458 
L 295.084809 200.01659 
L 295.68 202.065862 
L 296.275191 206.021608 
L 296.870382 208.710422 
L 298.060809 197.74965 
L 298.656 194.802304 
L 299.251191 194.240257 
L 299.846382 195.608714 
L 302.227191 204.971769 
L 302.822382 206.215907 
L 303.417618 206.95849 
L 304.012809 207.319577 
L 304.608 207.410984 
L 305.203191 207.319495 
L 306.393618 206.805687 
L 307.584 206.029554 
L 310.56 203.818032 
L 311.155191 203.719706 
L 311.750382 204.051862 
L 312.345618 205.073256 
L 312.940809 207.078668 
L 313.536 209.928345 
L 315.321618 196.831629 
L 315.916809 195.212275 
L 316.512 196.791392 
L 317.107191 200.997413 
L 317.702382 206.183566 
L 318.297618 209.445353 
L 318.892809 206.215876 
L 319.488 204.293856 
L 320.083191 203.286499 
L 320.678382 202.776697 
L 321.868809 202.100006 
L 322.464 201.605116 
L 323.059191 200.887583 
L 323.654382 199.891996 
L 324.249618 198.57012 
L 324.844809 196.871429 
L 325.44 194.73673 
L 326.035191 192.099154 
L 326.630382 188.888418 
L 327.820809 180.527655 
L 329.011191 169.783812 
L 330.201618 158.951189 
L 330.796809 155.244581 
L 331.392 153.966998 
L 331.987191 155.900429 
L 332.582382 161.2287 
L 333.177618 169.408645 
L 334.963191 197.379017 
L 335.558382 203.617867 
L 336.153618 207.603017 
L 336.748809 209.721654 
L 337.939191 209.71823 
L 338.534382 210.008008 
L 339.724809 208.480414 
L 341.510382 205.725083 
L 342.700809 203.377138 
L 343.891191 200.099445 
L 344.486382 197.908731 
L 345.081618 195.228689 
L 345.676809 191.962568 
L 346.867191 183.392463 
L 349.248 162.477444 
L 349.843191 159.814717 
L 350.438382 159.536042 
L 351.033618 161.364132 
L 352.224 167.846747 
L 352.819191 172.006148 
L 353.414382 177.809447 
L 354.604809 195.201594 
L 355.2 204.137681 
L 355.795191 209.156741 
L 356.390382 204.768656 
L 356.985618 202.476671 
L 357.580809 201.541591 
L 358.176 201.300201 
L 359.366382 201.225716 
L 359.961618 200.946931 
L 360.556809 200.361 
L 361.152 199.408288 
L 361.747191 198.03728 
L 362.342382 196.191476 
L 362.937618 193.802892 
L 363.532809 190.788545 
L 364.128 187.056312 
L 365.318382 177.142975 
L 367.699191 152.395662 
L 368.294382 149.531418 
L 368.889618 150.672974 
L 369.484809 156.563761 
L 370.08 166.384329 
L 371.270382 189.680444 
L 371.865618 199.076839 
L 372.460809 205.761148 
L 373.056 209.902504 
L 373.651191 208.129351 
L 374.246382 207.267849 
L 374.841618 207.181963 
L 375.436809 207.480562 
L 377.222382 208.728617 
L 378.412809 209.204924 
L 379.603191 209.300588 
L 380.793618 209.071672 
L 381.984 208.528741 
L 383.174382 207.679584 
L 384.364809 206.739558 
L 384.96 206.486791 
L 385.555191 206.662898 
L 386.150382 207.550878 
L 386.745618 209.333971 
L 387.340809 208.365174 
L 387.936 205.791822 
L 388.531191 204.05453 
L 389.126382 203.685982 
L 389.721618 204.501275 
L 390.912 207.216073 
L 391.507191 208.235813 
L 392.102382 208.8979 
L 392.697618 209.252043 
L 393.292809 209.386518 
L 394.483191 209.274972 
L 395.673618 208.896662 
L 396.864 208.328693 
L 398.054382 207.502304 
L 399.244809 206.258234 
L 399.84 205.405749 
L 400.435191 204.350047 
L 401.030382 203.048105 
L 402.220809 199.555289 
L 403.411191 195.418397 
L 404.006382 193.439812 
L 404.601618 192.169359 
L 405.196809 192.370752 
L 405.792 195.046149 
L 406.387191 201.001937 
L 406.982382 209.885903 
L 408.172809 187.073101 
L 408.768 178.743751 
L 409.363191 175.631363 
L 409.958382 178.613127 
L 410.553618 186.348556 
L 411.744 204.303542 
L 412.339191 210.01393 
L 412.934382 206.635073 
L 413.529618 205.076254 
L 414.124809 204.581984 
L 414.72 204.584608 
L 414.72 204.584608 
" clip-path="url(#p9710a99146)" style="fill: none; stroke: #ff0000; stroke-width: 1.5; stroke-linecap: square"/>
   </g>
   <g id="patch_8">
    <path d="M 57.6 213.662118 
L 57.6 135.393882 
" style="fill: none; stroke: #000000; stroke-width: 0.8; stroke-linejoin: miter; stroke-linecap: square"/>
   </g>
   <g id="patch_9">
    <path d="M 414.72 213.662118 
L 414.72 135.393882 
" style="fill: none; stroke: #000000; stroke-width: 0.8; stroke-linejoin: miter; stroke-linecap: square"/>
   </g>
   <g id="patch_10">
    <path d="M 57.6 213.662118 
L 414.72 213.662118 
" style="fill: none; stroke: #000000; stroke-width: 0.8; stroke-linejoin: miter; stroke-linecap: square"/>
   </g>
   <g id="patch_11">
    <path d="M 57.6 135.393882 
L 414.72 135.393882 
" style="fill: none; stroke: #000000; stroke-width: 0.8; stroke-linejoin: miter; stroke-linecap: square"/>
   </g>
  </g>
  <g id="axes_3">
   <g id="patch_12">
    <path d="M 57.6 307.584 
L 414.72 307.584 
L 414.72 229.315765 
L 57.6 229.315765 
z
" style="fill: #ffffff"/>
   </g>
   <g id="matplotlib.axis_5">
    <g id="xtick_19">
     <g id="line2d_28">
      <g>
       <use xlink:href="#mcdf3159b9e" x="57.6" y="307.584" style="stroke: #000000; stroke-width: 0.8"/>
      </g>
     </g>
     <g id="text_6">
      <!-- 10 -->
      <g transform="translate(51.2375 322.182437)scale(0.1 -0.1)">
       <defs>
        <path id="DejaVuSans-31" d="M 794 531 
L 1825 531 
L 1825 4091 
L 703 3866 
L 703 4441 
L 1819 4666 
L 2450 4666 
L 2450 531 
L 3481 531 
L 3481 0 
L 794 0 
L 794 531 
z
" transform="scale(0.015625)"/>
       </defs>
       <use xlink:href="#DejaVuSans-31"/>
       <use xlink:href="#DejaVuSans-30" x="63.623047"/>
      </g>
     </g>
    </g>
    <g id="xtick_20">
     <g id="line2d_29">
      <g>
       <use xlink:href="#mcdf3159b9e" x="105.216" y="307.584" style="stroke: #000000; stroke-width: 0.8"/>
      </g>
     </g>
     <g id="text_7">
      <!-- 12 -->
      <g transform="translate(98.8535 322.182437)scale(0.1 -0.1)">
       <use xlink:href="#DejaVuSans-31"/>
       <use xlink:href="#DejaVuSans-32" x="63.623047"/>
      </g>
     </g>
    </g>
    <g id="xtick_21">
     <g id="line2d_30">
      <g>
       <use xlink:href="#mcdf3159b9e" x="152.832" y="307.584" style="stroke: #000000; stroke-width: 0.8"/>
      </g>
     </g>
     <g id="text_8">
      <!-- 14 -->
      <g transform="translate(146.4695 322.182437)scale(0.1 -0.1)">
       <use xlink:href="#DejaVuSans-31"/>
       <use xlink:href="#DejaVuSans-34" x="63.623047"/>
      </g>
     </g>
    </g>
    <g id="xtick_22">
     <g id="line2d_31">
      <g>
       <use xlink:href="#mcdf3159b9e" x="200.448" y="307.584" style="stroke: #000000; stroke-width: 0.8"/>
      </g>
     </g>
     <g id="text_9">
      <!-- 16 -->
      <g transform="translate(194.0855 322.182437)scale(0.1 -0.1)">
       <defs>
        <path id="DejaVuSans-36" d="M 2113 2584 
Q 1688 2584 1439 2293 
Q 1191 2003 1191 1497 
Q 1191 994 1439 701 
Q 1688 409 2113 409 
Q 2538 409 2786 701 
Q 3034 994 3034 1497 
Q 3034 2003 2786 2293 
Q 2538 2584 2113 2584 
z
M 3366 4563 
L 3366 3988 
Q 3128 4100 2886 4159 
Q 2644 4219 2406 4219 
Q 1781 4219 1451 3797 
Q 1122 3375 1075 2522 
Q 1259 2794 1537 2939 
Q 1816 3084 2150 3084 
Q 2853 3084 3261 2657 
Q 3669 2231 3669 1497 
Q 3669 778 3244 343 
Q 2819 -91 2113 -91 
Q 1303 -91 875 529 
Q 447 1150 447 2328 
Q 447 3434 972 4092 
Q 1497 4750 2381 4750 
Q 2619 4750 2861 4703 
Q 3103 4656 3366 4563 
z
" transform="scale(0.015625)"/>
       </defs>
       <use xlink:href="#DejaVuSans-31"/>
       <use xlink:href="#DejaVuSans-36" x="63.623047"/>
      </g>
     </g>
    </g>
    <g id="xtick_23">
     <g id="line2d_32">
      <g>
       <use xlink:href="#mcdf3159b9e" x="248.064" y="307.584" style="stroke: #000000; stroke-width: 0.8"/>
      </g>
     </g>
     <g id="text_10">
      <!-- 18 -->
      <g transform="translate(241.7015 322.182437)scale(0.1 -0.1)">
       <defs>
        <path id="DejaVuSans-38" d="M 2034 2216 
Q 1584 2216 1326 1975 
Q 1069 1734 1069 1313 
Q 1069 891 1326 650 
Q 1584 409 2034 409 
Q 2484 409 2743 651 
Q 3003 894 3003 1313 
Q 3003 1734 2745 1975 
Q 2488 2216 2034 2216 
z
M 1403 2484 
Q 997 2584 770 2862 
Q 544 3141 544 3541 
Q 544 4100 942 4425 
Q 1341 4750 2034 4750 
Q 2731 4750 3128 4425 
Q 3525 4100 3525 3541 
Q 3525 3141 3298 2862 
Q 3072 2584 2669 2484 
Q 3125 2378 3379 2068 
Q 3634 1759 3634 1313 
Q 3634 634 3220 271 
Q 2806 -91 2034 -91 
Q 1263 -91 848 271 
Q 434 634 434 1313 
Q 434 1759 690 2068 
Q 947 2378 1403 2484 
z
M 1172 3481 
Q 1172 3119 1398 2916 
Q 1625 2713 2034 2713 
Q 2441 2713 2670 2916 
Q 2900 3119 2900 3481 
Q 2900 3844 2670 4047 
Q 2441 4250 2034 4250 
Q 1625 4250 1398 4047 
Q 1172 3844 1172 3481 
z
" transform="scale(0.015625)"/>
       </defs>
       <use xlink:href="#DejaVuSans-31"/>
       <use xlink:href="#DejaVuSans-38" x="63.623047"/>
      </g>
     </g>
    </g>
    <g id="xtick_24">
     <g id="line2d_33">
      <g>
       <use xlink:href="#mcdf3159b9e" x="295.68" y="307.584" style="stroke: #000000; stroke-width: 0.8"/>
      </g>
     </g>
     <g id="text_11">
      <!-- 20 -->
      <g transform="translate(289.3175 322.182437)scale(0.1 -0.1)">
       <use xlink:href="#DejaVuSans-32"/>
       <use xlink:href="#DejaVuSans-30" x="63.623047"/>
      </g>
     </g>
    </g>
    <g id="xtick_25">
     <g id="line2d_34">
      <g>
       <use xlink:href="#mcdf3159b9e" x="343.296" y="307.584" style="stroke: #000000; stroke-width: 0.8"/>
      </g>
     </g>
     <g id="text_12">
      <!-- 22 -->
      <g transform="translate(336.9335 322.182437)scale(0.1 -0.1)">
       <use xlink:href="#DejaVuSans-32"/>
       <use xlink:href="#DejaVuSans-32" x="63.623047"/>
      </g>
     </g>
    </g>
    <g id="xtick_26">
     <g id="line2d_35">
      <g>
       <use xlink:href="#mcdf3159b9e" x="390.912" y="307.584" style="stroke: #000000; stroke-width: 0.8"/>
      </g>
     </g>
     <g id="text_13">
      <!-- 24 -->
      <g transform="translate(384.5495 322.182437)scale(0.1 -0.1)">
       <use xlink:href="#DejaVuSans-32"/>
       <use xlink:href="#DejaVuSans-34" x="63.623047"/>
      </g>
     </g>
    </g>
    <g id="xtick_27">
     <g id="line2d_36">
      <g>
       <use xlink:href="#mcdf3159b9e" x="414.72" y="307.584" style="stroke: #000000; stroke-width: 0.8"/>
      </g>
     </g>
     <g id="text_14">
      <!-- 25 -->
      <g transform="translate(408.3575 322.182437)scale(0.1 -0.1)">
       <defs>
        <path id="DejaVuSans-35" d="M 691 4666 
L 3169 4666 
L 3169 4134 
L 1269 4134 
L 1269 2991 
Q 1406 3038 1543 3061 
Q 1681 3084 1819 3084 
Q 2600 3084 3056 2656 
Q 3513 2228 3513 1497 
Q 3513 744 3044 326 
Q 2575 -91 1722 -91 
Q 1428 -91 1123 -41 
Q 819 9 494 109 
L 494 744 
Q 775 591 1075 516 
Q 1375 441 1709 441 
Q 2250 441 2565 725 
Q 2881 1009 2881 1497 
Q 2881 1984 2565 2268 
Q 2250 2553 1709 2553 
Q 1456 2553 1204 2497 
Q 953 2441 691 2322 
L 691 4666 
z
" transform="scale(0.015625)"/>
       </defs>
       <use xlink:href="#DejaVuSans-32"/>
       <use xlink:href="#DejaVuSans-35" x="63.623047"/>
      </g>
     </g>
    </g>
   </g>
   <g id="matplotlib.axis_6">
    <g id="ytick_6">
     <g id="line2d_37">
      <g>
       <use xlink:href="#m3ecc5f0746" x="57.6" y="304.026557" style="stroke: #000000; stroke-width: 0.8"/>
      </g>
     </g>
     <g id="text_15">
      <!-- 0 -->
      <g transform="translate(44.2375 307.825776)scale(0.1 -0.1)">
       <use xlink:href="#DejaVuSans-30"/>
      </g>
     </g>
    </g>
    <g id="ytick_7">
     <g id="line2d_38">
      <g>
       <use xlink:href="#m3ecc5f0746" x="57.6" y="254.263119" style="stroke: #000000; stroke-width: 0.8"/>
      </g>
     </g>
     <g id="text_16">
      <!-- 20 -->
      <g transform="translate(37.875 258.062338)scale(0.1 -0.1)">
       <use xlink:href="#DejaVuSans-32"/>
       <use xlink:href="#DejaVuSans-30" x="63.623047"/>
      </g>
     </g>
    </g>
   </g>
   <g id="line2d_39">
    <path d="M 57.6 303.997154 
L 64.147191 303.960356 
L 65.932809 304.015427 
L 78.432 303.969187 
L 82.003191 303.835255 
L 83.193595 303.648951 
L 84.384 303.195248 
L 84.979191 302.767024 
L 85.574405 302.12041 
L 86.169595 301.191901 
L 87.36 298.682611 
L 87.955191 297.837606 
L 88.550405 298.242902 
L 89.145595 300.235634 
L 89.740809 303.040994 
L 90.336 302.593801 
L 90.931191 301.25898 
L 91.526405 301.082589 
L 92.716809 301.656552 
L 93.312 302.180095 
L 93.907191 302.478854 
L 94.502405 302.508563 
L 95.097595 302.889879 
L 96.288 302.994244 
L 96.883191 303.371273 
L 97.478405 303.399514 
L 98.073595 303.575673 
L 98.668809 303.9802 
L 99.264 303.959818 
L 102.24 302.123068 
L 103.430405 302.153388 
L 105.216 303.722287 
L 105.811191 303.585807 
L 107.596809 302.70929 
L 108.192 302.834784 
L 108.787191 302.621687 
L 109.977595 302.887831 
L 110.572809 302.775281 
L 111.168 303.08839 
L 112.358405 303.146967 
L 112.953595 303.472611 
L 113.548809 303.479212 
L 114.739191 303.973506 
L 115.334405 303.820077 
L 116.524809 302.95651 
L 117.12 302.68367 
L 117.715191 302.23782 
L 118.310405 302.095357 
L 119.500809 302.40213 
L 120.691191 303.639852 
L 121.286405 303.867709 
L 121.881595 303.272639 
L 122.476809 303.112905 
L 123.072 302.820786 
L 123.667191 302.776988 
L 124.262405 302.862402 
L 124.857595 302.718199 
L 125.452809 302.944307 
L 126.643191 302.942664 
L 127.238405 303.201274 
L 127.833595 303.144726 
L 130.214405 303.795351 
L 130.809595 304.006145 
L 131.404809 303.821757 
L 132.595191 303.039608 
L 133.785595 302.314445 
L 134.380809 302.220872 
L 134.976 302.31983 
L 135.571191 302.593329 
L 136.761595 303.780394 
L 137.356809 303.717271 
L 137.952 303.272173 
L 139.737595 302.954619 
L 140.928 302.911376 
L 141.523191 303.104672 
L 142.118405 303.043551 
L 146.88 303.80883 
L 147.475191 303.960785 
L 148.665595 303.545534 
L 150.451191 302.667275 
L 151.046405 302.56647 
L 151.641595 302.68513 
L 153.427191 304.001066 
L 154.022405 303.622186 
L 155.212809 303.231651 
L 157.593595 303.32817 
L 158.188809 303.268383 
L 159.379191 303.403856 
L 159.974405 303.372141 
L 160.569595 303.480876 
L 161.76 303.474373 
L 162.950405 303.526088 
L 166.521595 303.819692 
L 167.116809 303.980495 
L 168.307191 303.750952 
L 168.902405 303.605117 
L 170.092809 303.63647 
L 172.473595 304.012385 
L 176.044809 303.901258 
L 177.830405 303.882769 
L 180.211191 303.724552 
L 181.401595 303.494886 
L 182.592 302.970531 
L 183.187191 302.523398 
L 183.782405 301.861399 
L 184.377595 300.93754 
L 184.972809 299.708322 
L 186.163191 296.682412 
L 186.758405 295.647885 
L 187.353595 295.814559 
L 187.948809 297.680507 
L 189.139191 303.63493 
L 189.734405 301.052955 
L 190.329595 299.809386 
L 190.924809 299.57585 
L 191.52 299.867872 
L 192.710405 300.733978 
L 193.900809 301.326008 
L 195.091191 301.679181 
L 196.876809 301.961893 
L 198.662405 301.999653 
L 199.852809 301.820919 
L 201.043191 301.370044 
L 202.233618 300.593053 
L 203.424 299.791147 
L 204.019191 299.732749 
L 204.614382 300.218905 
L 205.209618 301.381395 
L 205.804809 303.050245 
L 206.4 303.29334 
L 206.995191 302.044039 
L 207.590382 301.459939 
L 208.185618 301.416808 
L 209.376 301.988847 
L 210.566382 302.54812 
L 212.352 302.999071 
L 215.328 303.33121 
L 217.708809 303.387675 
L 218.899191 303.285742 
L 220.089618 302.950896 
L 220.684809 302.611154 
L 221.28 302.068517 
L 221.875191 301.214323 
L 222.470382 299.885797 
L 223.065618 297.860654 
L 223.660809 294.873054 
L 224.256 290.705054 
L 225.446382 279.865638 
L 226.041618 275.960408 
L 226.636809 276.497091 
L 227.232 283.23887 
L 227.827191 294.704832 
L 228.422382 301.559965 
L 229.017618 293.510774 
L 229.612809 290.278807 
L 230.208 290.3013 
L 230.803191 291.679668 
L 231.398382 293.409778 
L 231.993618 294.78589 
L 233.184 296.651484 
L 234.969618 298.160241 
L 236.16 298.831932 
L 237.945618 300.397136 
L 239.136 302.187445 
L 239.731191 303.576384 
L 240.326382 302.819744 
L 242.112 297.759998 
L 242.707191 297.293086 
L 243.302382 297.834556 
L 243.897618 299.49504 
L 245.088 303.56156 
L 245.683191 302.795459 
L 246.278382 301.758004 
L 246.873618 300.993773 
L 247.468809 300.63362 
L 248.659191 300.272736 
L 249.254382 300.326836 
L 250.444809 300.175981 
L 251.04 300.221596 
L 252.230382 299.970285 
L 252.825618 299.839055 
L 254.611191 298.813634 
L 256.992 296.435233 
L 257.587191 296.315012 
L 258.182382 296.798315 
L 258.777618 298.262469 
L 259.968 303.688588 
L 261.158382 299.617922 
L 261.753618 298.824668 
L 262.348809 298.849438 
L 264.134382 300.835631 
L 264.729618 301.464574 
L 267.705618 303.591271 
L 268.300809 303.971043 
L 268.896 303.569564 
L 270.086382 302.200331 
L 270.681618 301.159202 
L 271.276809 299.787625 
L 271.872 297.951164 
L 272.467191 295.373535 
L 273.062382 291.892703 
L 273.657618 287.244941 
L 274.252809 281.210438 
L 276.038382 258.555337 
L 276.633618 253.8315 
L 277.228809 253.909462 
L 277.824 260.287932 
L 278.419191 272.930519 
L 279.014382 289.821162 
L 279.609618 300.54145 
L 280.204809 285.982759 
L 280.8 276.989847 
L 281.395191 273.579962 
L 281.990382 274.071688 
L 282.585618 276.33093 
L 283.776 281.52202 
L 284.966382 285.269126 
L 286.156809 287.849769 
L 287.347191 289.837223 
L 289.132809 292.205632 
L 290.918382 294.467568 
L 291.513618 295.444091 
L 292.108809 296.722157 
L 292.704 298.48886 
L 293.894382 303.667604 
L 295.68 291.242143 
L 296.275191 290.036482 
L 296.870382 291.907616 
L 298.060809 300.851944 
L 298.656 303.312108 
L 299.251191 300.827371 
L 299.846382 299.557723 
L 300.441618 299.095446 
L 301.036809 299.087178 
L 302.227191 299.578563 
L 304.012809 300.660872 
L 305.203191 301.545884 
L 306.393618 302.752324 
L 306.988809 303.581123 
L 307.584 303.393142 
L 308.179191 301.953622 
L 308.774382 299.982865 
L 309.369618 297.267788 
L 309.964809 293.538167 
L 310.56 288.506599 
L 311.155191 281.990876 
L 312.940809 258.28087 
L 313.536 254.361902 
L 314.131191 256.226864 
L 314.726382 264.994571 
L 315.321618 279.698157 
L 315.916809 297.286061 
L 316.512 294.386486 
L 317.107191 282.61673 
L 317.702382 276.651308 
L 318.297618 275.384554 
L 318.892809 276.787437 
L 320.678382 283.671495 
L 321.868809 286.781714 
L 323.059191 288.923167 
L 324.249618 290.450282 
L 325.44 291.43686 
L 326.035191 291.686669 
L 326.630382 291.713478 
L 327.225618 291.448709 
L 327.820809 290.790819 
L 328.416 289.586477 
L 329.011191 287.63193 
L 329.606382 284.659616 
L 330.201618 280.35494 
L 330.796809 274.424362 
L 331.392 266.74198 
L 333.177618 239.679495 
L 333.772809 234.912689 
L 334.368 235.651062 
L 334.963191 242.981247 
L 335.558382 256.985767 
L 336.748809 299.833294 
L 337.344 285.977264 
L 337.939191 269.388156 
L 338.534382 261.143056 
L 339.129618 260.360356 
L 339.724809 263.694604 
L 340.915191 272.147963 
L 341.510382 275.324696 
L 342.700809 279.239129 
L 343.296 280.46286 
L 344.486382 281.888458 
L 345.081618 282.120807 
L 346.272 281.946929 
L 346.867191 281.202085 
L 347.462382 280.18183 
L 348.057618 278.925896 
L 350.438382 271.540077 
L 351.033618 271.766183 
L 351.628809 274.554773 
L 352.224 280.8834 
L 352.819191 291.291718 
L 353.414382 303.772482 
L 354.009618 292.368487 
L 354.604809 284.144354 
L 355.2 281.211919 
L 355.795191 281.982502 
L 358.176 294.171805 
L 359.366382 297.657098 
L 359.961618 299.247994 
L 360.556809 300.395455 
L 361.747191 303.344518 
L 362.342382 303.238778 
L 363.532809 299.026358 
L 364.128 296.440074 
L 365.318382 289.642469 
L 366.508809 282.039614 
L 367.104 279.393565 
L 367.699191 278.451488 
L 368.294382 280.237308 
L 368.889618 285.30702 
L 369.484809 292.761008 
L 370.08 301.627369 
L 370.675191 298.212865 
L 371.270382 292.138854 
L 371.865618 288.410953 
L 372.460809 287.244095 
L 373.056 287.403741 
L 373.651191 288.41146 
L 376.032 294.418831 
L 376.627191 295.805365 
L 378.412809 301.333332 
L 379.008 303.912043 
L 379.603191 301.211742 
L 380.198382 297.518167 
L 381.388809 287.362781 
L 383.769618 260.392542 
L 384.364809 256.770871 
L 384.96 256.826212 
L 385.555191 261.082989 
L 386.150382 269.917177 
L 387.340809 297.086078 
L 387.936 296.088842 
L 388.531191 283.786234 
L 389.126382 275.387491 
L 389.721618 271.559884 
L 390.316809 271.237209 
L 390.912 272.787461 
L 395.078382 291.545119 
L 395.673618 294.747382 
L 396.268809 298.657518 
L 396.864 303.436075 
L 397.459191 298.789207 
L 398.054382 291.514891 
L 399.244809 272.991866 
L 400.435191 252.868301 
L 401.030382 245.108195 
L 401.625618 240.160312 
L 402.220809 238.391945 
L 402.816 239.142657 
L 403.411191 241.74549 
L 404.601618 249.751153 
L 405.792 260.2773 
L 406.387191 267.027591 
L 406.982382 275.587813 
L 407.577618 286.558235 
L 408.172809 300.859732 
L 408.768 289.808644 
L 409.958382 253.425972 
L 410.553618 241.539444 
L 411.148809 236.989191 
L 411.744 238.744364 
L 412.339191 244.31631 
L 414.124809 266.136226 
L 414.72 274.112661 
L 414.72 274.112661 
" clip-path="url(#pbf4b13f929)" style="fill: none; stroke-dasharray: 9.6,2.4,1.5,2.4; stroke-dashoffset: 0; stroke: #0000cc; stroke-width: 1.5"/>
   </g>
   <g id="line2d_40">
    <path d="M 57.6 303.997154 
L 61.766405 303.911737 
L 64.742405 304.008445 
L 72.48 304.014131 
L 84.384 303.835978 
L 85.574405 303.424613 
L 86.169595 303.048295 
L 87.955191 301.39603 
L 88.550405 301.361654 
L 89.145595 302.012738 
L 89.740809 303.22147 
L 90.336 303.631074 
L 90.931191 302.951774 
L 91.526405 302.775664 
L 92.716809 303.069379 
L 94.502405 303.537495 
L 96.883191 303.644683 
L 100.454405 303.754033 
L 102.835191 303.936606 
L 104.620809 303.739814 
L 106.406405 303.919108 
L 107.596809 304.008279 
L 111.168 303.814739 
L 116.524809 303.719795 
L 119.500809 303.940425 
L 120.691191 303.786076 
L 122.476809 303.841601 
L 125.452809 303.985338 
L 130.809595 303.562631 
L 133.190405 303.377192 
L 134.380809 303.531325 
L 135.571191 303.929713 
L 136.166405 303.909569 
L 137.356809 303.650107 
L 138.547191 303.640272 
L 143.904 303.937614 
L 146.284809 303.595967 
L 148.070405 303.122501 
L 149.856 302.655336 
L 150.451191 302.683697 
L 151.046405 302.884089 
L 152.236809 303.746616 
L 152.832 303.839863 
L 153.427191 303.488535 
L 154.022405 303.278492 
L 155.212809 303.218953 
L 159.379191 303.726133 
L 161.76 303.946782 
L 162.950405 303.613159 
L 164.140809 303.060897 
L 165.331191 302.149471 
L 166.521595 301.080098 
L 167.116809 300.71979 
L 167.712 300.71719 
L 168.307191 301.231327 
L 168.902405 302.238079 
L 169.497595 303.499342 
L 170.092809 303.400618 
L 170.688 302.601799 
L 171.283191 302.208162 
L 171.878405 302.113338 
L 173.068809 302.33003 
L 176.044809 302.997194 
L 179.616 303.734566 
L 180.211191 303.935084 
L 180.806405 303.854368 
L 181.401595 303.494972 
L 181.996809 302.993744 
L 182.592 302.285788 
L 183.187191 301.289044 
L 183.782405 299.910453 
L 184.377595 298.087406 
L 186.163191 291.728471 
L 186.758405 291.510704 
L 187.353595 293.672327 
L 188.544 303.188336 
L 189.734405 298.260856 
L 190.329595 297.481489 
L 190.924809 297.654254 
L 193.305595 299.751121 
L 194.496 300.37454 
L 196.281595 300.981915 
L 198.067191 301.331628 
L 199.257595 301.393805 
L 200.448 301.246153 
L 201.638382 300.782253 
L 203.424 299.633653 
L 204.019191 299.50921 
L 204.614382 299.890803 
L 205.209618 300.989802 
L 205.804809 302.729256 
L 206.4 303.402264 
L 206.995191 301.913006 
L 207.590382 301.191098 
L 208.185618 301.143152 
L 209.376 301.876525 
L 210.566382 302.511527 
L 211.756809 302.816466 
L 213.542382 302.930784 
L 215.328 302.778751 
L 216.518382 302.426889 
L 217.113618 302.10855 
L 217.708809 301.634862 
L 218.304 300.93275 
L 218.899191 299.893477 
L 219.494382 298.359133 
L 220.089618 296.109276 
L 220.684809 292.855869 
L 221.28 288.271095 
L 221.875191 282.086855 
L 223.660809 258.04384 
L 224.256 254.110462 
L 224.851191 256.804944 
L 225.446382 267.421771 
L 226.636809 303.081575 
L 227.232 289.334661 
L 227.827191 279.956994 
L 228.422382 276.736188 
L 229.017618 277.498108 
L 230.803191 284.814615 
L 231.398382 286.583367 
L 231.993618 287.940585 
L 233.184 289.821528 
L 234.374382 290.998646 
L 234.969618 291.380925 
L 235.564809 291.621244 
L 236.16 291.709039 
L 236.755191 291.609943 
L 237.350382 291.314424 
L 237.945618 290.79418 
L 239.136 289.132474 
L 239.731191 288.200035 
L 240.326382 287.578708 
L 240.921618 287.820919 
L 241.516809 289.6283 
L 242.112 293.570069 
L 242.707191 299.515281 
L 243.302382 301.801665 
L 243.897618 296.176503 
L 244.492809 293.068026 
L 245.088 292.579699 
L 245.683191 293.787322 
L 246.873618 297.368992 
L 247.468809 298.785225 
L 248.064 299.843502 
L 248.659191 300.62124 
L 249.849618 301.680619 
L 252.825618 303.635228 
L 253.420809 303.890949 
L 254.016 303.225562 
L 254.611191 302.358739 
L 255.206382 301.205102 
L 255.801618 299.664942 
L 256.396809 297.634067 
L 257.587191 291.979241 
L 258.777618 286.131622 
L 259.372809 285.233136 
L 259.968 287.158682 
L 260.563191 292.184723 
L 261.158382 299.180558 
L 261.753618 301.936589 
L 262.348809 296.842168 
L 262.944 294.150263 
L 263.539191 293.397211 
L 264.134382 293.755219 
L 266.515191 296.910982 
L 267.705618 298.004809 
L 269.491191 299.287268 
L 271.872 300.937775 
L 273.062382 302.094433 
L 274.252809 303.957348 
L 274.848 302.316347 
L 275.443191 299.932853 
L 276.038382 296.440965 
L 276.633618 291.362078 
L 277.228809 284.162636 
L 277.824 274.460101 
L 279.609618 238.473771 
L 280.204809 232.873412 
L 280.8 235.403813 
L 281.395191 246.622428 
L 281.990382 265.066628 
L 282.585618 287.83824 
L 283.180809 297.239989 
L 283.776 278.706404 
L 284.371191 267.672336 
L 284.966382 264.337672 
L 285.561618 266.006879 
L 287.347191 277.023323 
L 287.942382 279.712579 
L 289.132809 283.70261 
L 291.513618 290.520501 
L 292.108809 292.779412 
L 292.704 295.603451 
L 293.299191 299.215164 
L 293.894382 303.830278 
L 294.489618 298.522262 
L 296.275191 279.803435 
L 296.870382 277.15656 
L 297.465618 278.476388 
L 298.060809 283.709144 
L 299.251191 299.939817 
L 299.846382 300.727273 
L 300.441618 295.252396 
L 301.036809 291.772523 
L 301.632 289.899461 
L 302.227191 289.111146 
L 302.822382 288.963268 
L 303.417618 289.147714 
L 306.988809 291.034393 
L 307.584 291.095205 
L 308.179191 290.986425 
L 308.774382 290.688279 
L 309.369618 290.129223 
L 309.964809 289.24157 
L 310.56 287.956129 
L 311.155191 286.219212 
L 312.345618 281.557954 
L 312.940809 279.172668 
L 313.536 277.642591 
L 314.131191 278.094035 
L 314.726382 281.716331 
L 315.321618 289.03914 
L 315.916809 299.099901 
L 316.512 298.67491 
L 317.107191 290.99376 
L 317.702382 287.272898 
L 318.297618 286.976519 
L 318.892809 288.595992 
L 320.083191 292.899395 
L 320.678382 294.601206 
L 321.273618 295.934815 
L 322.464 297.858326 
L 326.035191 302.554192 
L 326.630382 303.749161 
L 327.225618 302.784258 
L 327.820809 300.820053 
L 328.416 298.287209 
L 329.011191 295.098173 
L 330.796809 283.573535 
L 331.392 281.579096 
L 331.987191 282.510028 
L 332.582382 287.002541 
L 333.772809 302.603474 
L 334.963191 293.810528 
L 335.558382 291.655278 
L 336.153618 291.228436 
L 336.748809 291.731764 
L 339.724809 295.868026 
L 343.296 299.795967 
L 344.486382 301.73515 
L 345.081618 303.119426 
L 345.676809 303.064964 
L 346.272 300.475715 
L 346.867191 296.846015 
L 347.462382 291.787852 
L 348.057618 284.920773 
L 349.248 265.664856 
L 349.843191 255.106401 
L 350.438382 246.920478 
L 351.033618 244.109778 
L 351.628809 248.804983 
L 352.224 261.192181 
L 353.414382 299.776215 
L 354.009618 289.973246 
L 354.604809 277.255455 
L 355.2 271.201786 
L 355.795191 270.380213 
L 356.390382 272.424432 
L 357.580809 278.265025 
L 358.771191 282.666483 
L 359.961618 285.637962 
L 361.152 287.864157 
L 364.723191 293.746308 
L 365.318382 295.311936 
L 365.913618 297.4488 
L 367.104 303.659259 
L 368.889618 288.87972 
L 369.484809 286.914109 
L 370.08 288.449179 
L 370.675191 292.943976 
L 371.865618 303.840503 
L 372.460809 300.571004 
L 373.056 298.472754 
L 373.651191 297.506144 
L 374.246382 297.220104 
L 374.841618 297.284776 
L 376.032 297.794309 
L 380.793618 300.363663 
L 381.984 301.242577 
L 382.579191 301.84861 
L 383.174382 302.65007 
L 383.769618 303.737859 
L 384.364809 302.839661 
L 384.96 300.901555 
L 386.745618 294.07399 
L 387.340809 293.539566 
L 387.936 295.08349 
L 388.531191 298.439508 
L 389.126382 302.4364 
L 389.721618 302.274134 
L 390.316809 300.192922 
L 390.912 299.279459 
L 391.507191 299.106363 
L 392.102382 299.299307 
L 395.078382 300.846144 
L 398.649618 302.47453 
L 399.84 303.346713 
L 400.435191 303.991122 
L 401.030382 303.170959 
L 401.625618 301.903072 
L 402.220809 300.063435 
L 402.816 297.366284 
L 403.411191 290.035296 
L 404.006382 284.725813 
L 404.601618 277.576174 
L 406.387191 249.767794 
L 406.982382 244.400576 
L 407.577618 245.518703 
L 408.172809 254.713883 
L 408.768 271.272537 
L 409.363191 292.221213 
L 409.958382 295.2343 
L 410.553618 279.684516 
L 411.148809 271.513403 
L 411.744 269.797057 
L 412.339191 271.80972 
L 413.529618 278.262616 
L 414.124809 280.84508 
L 414.72 282.808963 
L 414.72 282.808963 
" clip-path="url(#pbf4b13f929)" style="fill: none; stroke: #ff0000; stroke-width: 1.5; stroke-linecap: square"/>
   </g>
   <g id="patch_13">
    <path d="M 57.6 307.584 
L 57.6 229.315765 
" style="fill: none; stroke: #000000; stroke-width: 0.8; stroke-linejoin: miter; stroke-linecap: square"/>
   </g>
   <g id="patch_14">
    <path d="M 414.72 307.584 
L 414.72 229.315765 
" style="fill: none; stroke: #000000; stroke-width: 0.8; stroke-linejoin: miter; stroke-linecap: square"/>
   </g>
   <g id="patch_15">
    <path d="M 57.6 307.584 
L 414.72 307.584 
" style="fill: none; stroke: #000000; stroke-width: 0.8; stroke-linejoin: miter; stroke-linecap: square"/>
   </g>
   <g id="patch_16">
    <path d="M 57.6 229.315765 
L 414.72 229.315765 
" style="fill: none; stroke: #000000; stroke-width: 0.8; stroke-linejoin: miter; stroke-linecap: square"/>
   </g>
  </g>
 </g>
 <defs>
  <clipPath id="p0508ee61d2">
   <rect x="57.6" y="41.472" width="357.12" height="78.268235"/>
  </clipPath>
  <clipPath id="p9710a99146">
   <rect x="57.6" y="135.393882" width="357.12" height="78.268235"/>
  </clipPath>
  <clipPath id="pbf4b13f929">
   <rect x="57.6" y="229.315765" width="357.12" height="78.268235"/>
  </clipPath>
 </defs>
</svg>
