<?xml version="1.0" encoding="utf-8" standalone="no"?>
<!DOCTYPE svg PUBLIC "-//W3C//DTD SVG 1.1//EN"
  "http://www.w3.org/Graphics/SVG/1.1/DTD/svg11.dtd">
<svg xmlns:xlink="http://www.w3.org/1999/xlink" width="460.8pt" height="345.6pt" viewBox="0 0 460.8 345.6" xmlns="http://www.w3.org/2000/svg" version="1.1">
 <metadata>
  <rdf:RDF xmlns:dc="http://purl.org/dc/elements/1.1/" xmlns:cc="http://creativecommons.org/ns#" xmlns:rdf="http://www.w3.org/1999/02/22-rdf-syntax-ns#">
   <cc:Work>
    <dc:type rdf:resource="http://purl.org/dc/dcmitype/StillImage"/>
    <dc:date>2023-10-31T11:57:30.398220</dc:date>
    <dc:format>image/svg+xml</dc:format>
    <dc:creator>
     <cc:Agent>
      <dc:title>Matplotlib v3.5.2, https://matplotlib.org/</dc:title>
     </cc:Agent>
    </dc:creator>
   </cc:Work>
  </rdf:RDF>
 </metadata>
 <defs>
  <style type="text/css">*{stroke-linejoin: round; stroke-linecap: butt}</style>
 </defs>
 <g id="figure_1">
  <g id="patch_1">
   <path d="M 0 345.6 
L 460.8 345.6 
L 460.8 0 
L 0 0 
z
" style="fill: #ffffff"/>
  </g>
  <g id="axes_1">
   <g id="patch_2">
    <path d="M 57.6 119.740235 
L 414.72 119.740235 
L 414.72 41.472 
L 57.6 41.472 
z
" style="fill: #ffffff"/>
   </g>
   <g id="matplotlib.axis_1">
    <g id="xtick_1">
     <g id="line2d_1">
      <defs>
       <path id="m2fef1d1359" d="M 0 0 
L 0 3.5 
" style="stroke: #000000; stroke-width: 0.8"/>
      </defs>
      <g>
       <use xlink:href="#m2fef1d1359" x="72.474361" y="119.740235" style="stroke: #000000; stroke-width: 0.8"/>
      </g>
     </g>
     <g id="text_1">
      <!-- 10 -->
      <g transform="translate(66.111861 134.338673)scale(0.1 -0.1)">
       <defs>
        <path id="DejaVuSans-31" d="M 794 531 
L 1825 531 
L 1825 4091 
L 703 3866 
L 703 4441 
L 1819 4666 
L 2450 4666 
L 2450 531 
L 3481 531 
L 3481 0 
L 794 0 
L 794 531 
z
" transform="scale(0.015625)"/>
        <path id="DejaVuSans-30" d="M 2034 4250 
Q 1547 4250 1301 3770 
Q 1056 3291 1056 2328 
Q 1056 1369 1301 889 
Q 1547 409 2034 409 
Q 2525 409 2770 889 
Q 3016 1369 3016 2328 
Q 3016 3291 2770 3770 
Q 2525 4250 2034 4250 
z
M 2034 4750 
Q 2819 4750 3233 4129 
Q 3647 3509 3647 2328 
Q 3647 1150 3233 529 
Q 2819 -91 2034 -91 
Q 1250 -91 836 529 
Q 422 1150 422 2328 
Q 422 3509 836 4129 
Q 1250 4750 2034 4750 
z
" transform="scale(0.015625)"/>
       </defs>
       <use xlink:href="#DejaVuSans-31"/>
       <use xlink:href="#DejaVuSans-30" x="63.623047"/>
      </g>
     </g>
    </g>
    <g id="xtick_2">
     <g id="line2d_2">
      <g>
       <use xlink:href="#m2fef1d1359" x="181.145331" y="119.740235" style="stroke: #000000; stroke-width: 0.8"/>
      </g>
     </g>
     <g id="text_2">
      <!-- 12 -->
      <g transform="translate(174.782831 134.338673)scale(0.1 -0.1)">
       <defs>
        <path id="DejaVuSans-32" d="M 1228 531 
L 3431 531 
L 3431 0 
L 469 0 
L 469 531 
Q 828 903 1448 1529 
Q 2069 2156 2228 2338 
Q 2531 2678 2651 2914 
Q 2772 3150 2772 3378 
Q 2772 3750 2511 3984 
Q 2250 4219 1831 4219 
Q 1534 4219 1204 4116 
Q 875 4013 500 3803 
L 500 4441 
Q 881 4594 1212 4672 
Q 1544 4750 1819 4750 
Q 2544 4750 2975 4387 
Q 3406 4025 3406 3419 
Q 3406 3131 3298 2873 
Q 3191 2616 2906 2266 
Q 2828 2175 2409 1742 
Q 1991 1309 1228 531 
z
" transform="scale(0.015625)"/>
       </defs>
       <use xlink:href="#DejaVuSans-31"/>
       <use xlink:href="#DejaVuSans-32" x="63.623047"/>
      </g>
     </g>
    </g>
    <g id="xtick_3">
     <g id="line2d_3">
      <g>
       <use xlink:href="#m2fef1d1359" x="289.816302" y="119.740235" style="stroke: #000000; stroke-width: 0.8"/>
      </g>
     </g>
     <g id="text_3">
      <!-- 14 -->
      <g transform="translate(283.453802 134.338673)scale(0.1 -0.1)">
       <defs>
        <path id="DejaVuSans-34" d="M 2419 4116 
L 825 1625 
L 2419 1625 
L 2419 4116 
z
M 2253 4666 
L 3047 4666 
L 3047 1625 
L 3713 1625 
L 3713 1100 
L 3047 1100 
L 3047 0 
L 2419 0 
L 2419 1100 
L 313 1100 
L 313 1709 
L 2253 4666 
z
" transform="scale(0.015625)"/>
       </defs>
       <use xlink:href="#DejaVuSans-31"/>
       <use xlink:href="#DejaVuSans-34" x="63.623047"/>
      </g>
     </g>
    </g>
    <g id="xtick_4">
     <g id="line2d_4">
      <g>
       <use xlink:href="#m2fef1d1359" x="398.487273" y="119.740235" style="stroke: #000000; stroke-width: 0.8"/>
      </g>
     </g>
     <g id="text_4">
      <!-- 16 -->
      <g transform="translate(392.124773 134.338673)scale(0.1 -0.1)">
       <defs>
        <path id="DejaVuSans-36" d="M 2113 2584 
Q 1688 2584 1439 2293 
Q 1191 2003 1191 1497 
Q 1191 994 1439 701 
Q 1688 409 2113 409 
Q 2538 409 2786 701 
Q 3034 994 3034 1497 
Q 3034 2003 2786 2293 
Q 2538 2584 2113 2584 
z
M 3366 4563 
L 3366 3988 
Q 3128 4100 2886 4159 
Q 2644 4219 2406 4219 
Q 1781 4219 1451 3797 
Q 1122 3375 1075 2522 
Q 1259 2794 1537 2939 
Q 1816 3084 2150 3084 
Q 2853 3084 3261 2657 
Q 3669 2231 3669 1497 
Q 3669 778 3244 343 
Q 2819 -91 2113 -91 
Q 1303 -91 875 529 
Q 447 1150 447 2328 
Q 447 3434 972 4092 
Q 1497 4750 2381 4750 
Q 2619 4750 2861 4703 
Q 3103 4656 3366 4563 
z
" transform="scale(0.015625)"/>
       </defs>
       <use xlink:href="#DejaVuSans-31"/>
       <use xlink:href="#DejaVuSans-36" x="63.623047"/>
      </g>
     </g>
    </g>
   </g>
   <g id="matplotlib.axis_2">
    <g id="ytick_1">
     <g id="line2d_5">
      <defs>
       <path id="mf008b24536" d="M 0 0 
L -3.5 0 
" style="stroke: #000000; stroke-width: 0.8"/>
      </defs>
      <g>
       <use xlink:href="#mf008b24536" x="57.6" y="116.202578" style="stroke: #000000; stroke-width: 0.8"/>
      </g>
     </g>
     <g id="text_5">
      <!-- 0 -->
      <g transform="translate(44.2375 120.001796)scale(0.1 -0.1)">
       <use xlink:href="#DejaVuSans-30"/>
      </g>
     </g>
    </g>
    <g id="ytick_2">
     <g id="line2d_6">
      <g>
       <use xlink:href="#mf008b24536" x="57.6" y="83.345983" style="stroke: #000000; stroke-width: 0.8"/>
      </g>
     </g>
     <g id="text_6">
      <!-- 1 -->
      <g transform="translate(44.2375 87.145202)scale(0.1 -0.1)">
       <use xlink:href="#DejaVuSans-31"/>
      </g>
     </g>
    </g>
    <g id="ytick_3">
     <g id="line2d_7">
      <g>
       <use xlink:href="#mf008b24536" x="57.6" y="50.489388" style="stroke: #000000; stroke-width: 0.8"/>
      </g>
     </g>
     <g id="text_7">
      <!-- 2 -->
      <g transform="translate(44.2375 54.288607)scale(0.1 -0.1)">
       <use xlink:href="#DejaVuSans-32"/>
      </g>
     </g>
    </g>
   </g>
   <g id="line2d_8">
    <path d="M 73.832727 110.953694 
L 75.191145 111.812739 
L 76.549512 109.588339 
L 77.90793 110.857525 
L 79.266297 108.753652 
L 80.624663 107.23237 
L 81.983081 109.266083 
L 83.341448 107.759389 
L 84.699866 112.342636 
L 86.058232 111.777827 
L 87.416599 109.133245 
L 88.775017 101.69379 
L 90.133383 100.080173 
L 91.491801 99.334322 
L 92.850168 86.661887 
L 94.208534 87.308623 
L 95.566952 95.459063 
L 96.925319 95.449313 
L 98.283737 98.562534 
L 99.642104 103.659126 
L 101.00047 102.468567 
L 102.358888 110.933806 
L 103.717255 114.66109 
L 105.075673 114.448199 
L 106.434039 112.759065 
L 107.792406 112.49033 
L 109.150824 115.830388 
L 110.50919 112.865973 
L 111.867608 115.000761 
L 113.225975 115.64437 
L 114.584341 114.378506 
L 115.942759 116.051306 
L 117.301126 116.176942 
L 118.659544 115.072921 
L 120.017911 116.022058 
L 121.376277 115.247298 
L 122.734695 114.706863 
L 124.093062 114.753058 
L 125.45148 113.897636 
L 128.168213 112.796212 
L 130.884997 110.84746 
L 132.243415 109.509674 
L 133.601782 107.678537 
L 134.960148 105.116529 
L 136.318566 101.197202 
L 139.035351 90.995868 
L 140.393718 93.446438 
L 141.752084 115.357552 
L 143.110502 81.870491 
L 144.468869 81.971484 
L 145.827287 108.612957 
L 147.185653 114.935468 
L 148.54402 85.662362 
L 149.902438 111.623826 
L 151.260804 106.665453 
L 152.619222 79.412278 
L 153.977589 110.278761 
L 155.335955 100.599408 
L 156.694373 66.814238 
L 158.05274 93.253675 
L 159.411158 114.333698 
L 160.769524 86.412124 
L 162.127891 81.411682 
L 163.486309 108.30345 
L 164.844676 99.608573 
L 166.203094 86.793792 
L 167.56146 97.518686 
L 168.919827 111.232096 
L 170.278245 96.877425 
L 171.636611 91.088323 
L 172.995029 106.158964 
L 174.353396 104.45741 
L 175.711762 95.921739 
L 177.07018 76.983838 
L 178.428547 115.37507 
L 179.786965 107.772992 
L 181.145331 67.065404 
L 182.503698 98.254037 
L 183.862116 76.649998 
L 185.220483 98.359725 
L 186.578901 101.389373 
L 187.937267 64.394238 
L 189.295634 96.785719 
L 190.654052 104.415802 
L 192.012418 83.616121 
L 193.370836 82.146125 
L 194.729203 85.482953 
L 196.087569 114.317935 
L 197.445987 92.181252 
L 198.804354 86.187093 
L 200.162772 99.957447 
L 201.521138 107.370605 
L 202.879505 97.233535 
L 204.237923 94.151973 
L 205.59629 114.940355 
L 206.954708 108.115619 
L 208.313074 93.61111 
L 209.671441 100.756177 
L 211.029859 113.988996 
L 212.388225 108.724552 
L 213.746643 75.294679 
L 215.10501 111.246662 
L 216.463376 89.483403 
L 217.821794 82.340199 
L 219.180161 104.984619 
L 220.538579 70.358498 
L 221.896945 115.592922 
L 223.255312 111.024308 
L 224.61373 77.145657 
L 225.972097 92.57253 
L 227.330515 89.299635 
L 228.688881 105.685212 
L 230.047248 93.122401 
L 231.405666 85.220913 
L 232.764032 102.933419 
L 234.12245 107.137176 
L 235.480817 95.781992 
L 236.839183 96.111902 
L 238.197601 115.381591 
L 239.555968 108.573809 
L 240.914386 96.911648 
L 242.272752 111.55747 
L 243.631119 114.194124 
L 244.989537 100.294598 
L 246.347903 102.367744 
L 247.706322 111.59945 
L 249.064688 111.096053 
L 250.423055 83.60638 
L 251.781473 114.681033 
L 253.139839 79.969424 
L 255.856624 112.47423 
L 257.21499 75.841819 
L 258.573408 109.763327 
L 259.931775 94.650657 
L 261.290193 94.831439 
L 262.648559 101.647827 
L 264.006926 85.64961 
L 265.365344 110.205071 
L 266.72371 109.103428 
L 268.082129 94.299065 
L 269.440495 97.139284 
L 270.798862 113.176142 
L 272.15728 108.152961 
L 273.515646 98.912685 
L 274.874064 110.627503 
L 276.232431 114.358103 
L 277.590797 102.993595 
L 278.949215 112.957564 
L 280.307582 107.814472 
L 281.666 106.2102 
L 283.024366 111.356208 
L 284.382733 107.714575 
L 285.741151 108.89389 
L 287.099517 97.516477 
L 288.457936 110.487647 
L 289.816302 81.083959 
L 291.174669 100.540687 
L 292.533087 97.629996 
L 293.891453 85.198462 
L 295.249871 114.912586 
L 296.608238 88.463979 
L 297.966604 106.01505 
L 299.325022 114.458268 
L 300.683389 91.998068 
L 302.041807 106.226477 
L 303.400173 109.818298 
L 304.75854 107.492008 
L 306.116958 100.924696 
L 307.475324 107.606148 
L 308.833743 113.25229 
L 310.192109 105.978164 
L 311.550476 110.751034 
L 312.908894 108.980329 
L 314.26726 109.854852 
L 315.625678 115.899172 
L 316.984045 107.311198 
L 318.342411 110.194818 
L 319.700829 112.487041 
L 321.059196 106.378375 
L 322.417614 113.514823 
L 323.77598 115.288028 
L 325.134347 114.979228 
L 326.492765 100.371543 
L 327.851131 103.266617 
L 329.20955 91.926568 
L 330.567916 87.834254 
L 331.926282 96.728244 
L 333.284701 87.616652 
L 334.643067 101.149575 
L 336.001485 99.349144 
L 337.359852 97.763056 
L 338.718218 112.76932 
L 340.076636 103.38348 
L 341.435003 114.321398 
L 342.793421 112.74366 
L 344.151787 110.646161 
L 345.510154 108.907024 
L 346.868572 113.809444 
L 348.226938 115.76357 
L 349.585357 108.736339 
L 350.943723 115.15045 
L 352.302089 113.681482 
L 353.660508 110.566029 
L 355.018874 114.158434 
L 356.377292 111.953454 
L 357.735659 111.011728 
L 359.094025 112.459064 
L 360.452443 111.617988 
L 361.81081 112.794763 
L 363.169228 115.832818 
L 365.885961 112.373807 
L 367.244379 115.563126 
L 368.602745 100.807176 
L 369.961164 88.395321 
L 371.31953 93.041868 
L 372.677896 112.653678 
L 374.036315 82.76552 
L 375.394681 68.914431 
L 376.753099 68.55284 
L 379.469832 91.735415 
L 380.82825 94.653606 
L 382.186617 101.922377 
L 383.545035 107.097583 
L 384.903401 111.269675 
L 386.261768 114.980847 
L 387.620186 115.503677 
L 388.978552 113.468984 
L 390.336971 112.667749 
L 391.695337 115.599646 
L 393.053703 114.48609 
L 394.412122 115.846429 
L 395.770488 113.666677 
L 397.128906 113.792004 
L 398.487273 110.479235 
L 398.487273 110.479235 
" clip-path="url(#p3071e0ac35)" style="fill: none; stroke: #385989; stroke-width: 1.5; stroke-linecap: square"/>
   </g>
   <g id="line2d_9">
    <path d="M 73.832727 110.193027 
L 75.191145 113.199726 
L 80.624663 109.525914 
L 81.983081 108.963827 
L 83.341448 109.506583 
L 84.699866 111.741761 
L 86.058232 114.287 
L 87.416599 112.440271 
L 90.133383 99.30367 
L 91.491801 93.934791 
L 92.850168 91.18346 
L 94.208534 90.907143 
L 95.566952 92.946824 
L 98.283737 99.622337 
L 99.642104 103.655828 
L 101.00047 108.356009 
L 102.358888 109.41816 
L 103.717255 111.350333 
L 105.075673 112.900324 
L 106.434039 113.943167 
L 107.792406 114.696229 
L 109.150824 115.277224 
L 110.50919 115.654417 
L 113.225975 116.053614 
L 114.584341 116.182588 
L 122.734695 115.343004 
L 125.45148 114.802952 
L 126.809846 110.329457 
L 128.168213 110.497722 
L 129.526631 113.011451 
L 130.884997 112.172082 
L 133.601782 109.894444 
L 134.960148 108.484557 
L 136.318566 107.531742 
L 137.676933 107.343311 
L 139.035351 107.996309 
L 140.393718 109.929179 
L 141.752084 112.942608 
L 143.110502 110.21298 
L 144.468869 110.663229 
L 145.827287 108.754749 
L 147.185653 89.148194 
L 148.54402 79.796118 
L 149.902438 74.010022 
L 151.260804 76.946871 
L 152.619222 87.555867 
L 153.977589 99.323167 
L 155.335955 99.25322 
L 156.694373 106.844187 
L 158.05274 110.116027 
L 159.411158 112.349098 
L 160.769524 113.675197 
L 162.127891 114.41654 
L 163.486309 114.680348 
L 164.844676 114.717145 
L 168.919827 114.283356 
L 170.278245 114.352699 
L 171.636611 114.849118 
L 172.995029 115.901493 
L 174.353396 115.089523 
L 175.711762 112.948926 
L 178.428547 107.843104 
L 179.786965 105.775618 
L 181.145331 100.719164 
L 182.503698 96.702513 
L 183.862116 100.337685 
L 185.220483 100.724304 
L 186.578901 101.656075 
L 187.937267 103.330914 
L 193.370836 110.750535 
L 194.729203 112.236741 
L 197.445987 114.644115 
L 198.804354 115.648711 
L 200.162772 115.909541 
L 201.521138 115.104042 
L 202.879505 114.446992 
L 204.237923 113.942377 
L 206.954708 113.698565 
L 208.313074 111.870799 
L 209.671441 109.520168 
L 211.029859 114.461982 
L 212.388225 109.938042 
L 213.746643 108.336564 
L 215.10501 104.146951 
L 216.463376 102.777291 
L 217.821794 100.350586 
L 219.180161 99.628715 
L 220.538579 99.764838 
L 221.896945 100.858129 
L 223.255312 102.479572 
L 227.330515 108.587447 
L 228.688881 110.394235 
L 230.047248 111.967597 
L 231.405666 113.333194 
L 232.764032 114.527092 
L 234.12245 115.468473 
L 235.480817 114.384539 
L 236.839183 115.115295 
L 238.197601 114.178035 
L 240.914386 112.811805 
L 242.272752 112.539742 
L 243.631119 112.780041 
L 244.989537 113.824433 
L 246.347903 115.911487 
L 247.706322 113.181427 
L 250.423055 105.385185 
L 251.781473 102.206259 
L 253.139839 100.031082 
L 254.498257 98.796977 
L 255.856624 98.70764 
L 257.21499 99.381076 
L 258.573408 100.884409 
L 259.931775 102.8405 
L 262.648559 107.055782 
L 264.006926 108.834706 
L 265.365344 110.981039 
L 266.72371 112.504137 
L 268.082129 113.815921 
L 270.798862 115.925859 
L 272.15728 115.518502 
L 273.515646 114.64129 
L 276.232431 112.748203 
L 278.949215 110.858272 
L 280.307582 110.680293 
L 281.666 111.524872 
L 283.024366 112.736021 
L 284.382733 115.154221 
L 288.457936 98.641169 
L 289.816302 96.003316 
L 291.174669 96.818651 
L 292.533087 97.7988 
L 293.891453 98.534744 
L 295.249871 100.451263 
L 296.608238 102.098854 
L 299.325022 106.549099 
L 302.041807 110.492668 
L 303.400173 112.024974 
L 304.75854 113.345537 
L 306.116958 114.488118 
L 307.475324 115.455794 
L 308.833743 116.069258 
L 311.550476 114.310373 
L 312.908894 113.37057 
L 314.26726 112.126583 
L 315.625678 111.115953 
L 316.984045 112.032757 
L 318.342411 110.507259 
L 319.700829 106.882238 
L 321.059196 107.224869 
L 322.417614 111.486576 
L 323.77598 112.927508 
L 325.134347 102.135233 
L 326.492765 93.184564 
L 327.851131 89.536245 
L 329.20955 92.512798 
L 330.567916 96.110174 
L 331.926282 99.321212 
L 333.284701 101.58913 
L 334.643067 102.571998 
L 336.001485 104.073269 
L 338.718218 107.618536 
L 340.076636 109.429446 
L 341.435003 111.049952 
L 342.793421 112.413222 
L 344.151787 113.161544 
L 345.510154 112.588816 
L 346.868572 115.16123 
L 348.226938 115.749241 
L 349.585357 116.106195 
L 352.302089 115.04887 
L 353.660508 114.330442 
L 355.018874 113.410971 
L 356.377292 111.955771 
L 357.735659 109.91328 
L 359.094025 106.607032 
L 360.452443 102.033975 
L 363.169228 89.878867 
L 364.527594 89.197208 
L 365.885961 101.428272 
L 367.244379 102.041846 
L 368.602745 63.755726 
L 369.961164 45.029647 
L 371.31953 55.470968 
L 374.036315 110.065803 
L 375.394681 113.376331 
L 376.753099 115.174048 
L 378.111466 112.489802 
L 379.469832 109.215001 
L 380.82825 107.917795 
L 382.186617 108.132011 
L 383.545035 109.102742 
L 384.903401 110.437939 
L 387.620186 112.553572 
L 388.978552 113.306514 
L 391.695337 113.920245 
L 393.053703 113.99883 
L 394.412122 113.890593 
L 395.770488 113.34076 
L 397.128906 113.540027 
L 398.487273 112.596053 
L 398.487273 112.596053 
" clip-path="url(#p3071e0ac35)" style="fill: none; stroke: #d22027; stroke-width: 1.5; stroke-linecap: square"/>
   </g>
   <g id="patch_3">
    <path d="M 57.6 119.740235 
L 57.6 41.472 
" style="fill: none; stroke: #000000; stroke-width: 0.8; stroke-linejoin: miter; stroke-linecap: square"/>
   </g>
   <g id="patch_4">
    <path d="M 414.72 119.740235 
L 414.72 41.472 
" style="fill: none; stroke: #000000; stroke-width: 0.8; stroke-linejoin: miter; stroke-linecap: square"/>
   </g>
   <g id="patch_5">
    <path d="M 57.6 119.740235 
L 414.72 119.740235 
" style="fill: none; stroke: #000000; stroke-width: 0.8; stroke-linejoin: miter; stroke-linecap: square"/>
   </g>
   <g id="patch_6">
    <path d="M 57.6 41.472 
L 414.72 41.472 
" style="fill: none; stroke: #000000; stroke-width: 0.8; stroke-linejoin: miter; stroke-linecap: square"/>
   </g>
  </g>
  <g id="axes_2">
   <g id="patch_7">
    <path d="M 57.6 213.662118 
L 414.72 213.662118 
L 414.72 135.393882 
L 57.6 135.393882 
z
" style="fill: #ffffff"/>
   </g>
   <g id="matplotlib.axis_3">
    <g id="xtick_5">
     <g id="line2d_10">
      <g>
       <use xlink:href="#m2fef1d1359" x="72.474361" y="213.662118" style="stroke: #000000; stroke-width: 0.8"/>
      </g>
     </g>
     <g id="text_8">
      <!-- 10 -->
      <g transform="translate(66.111861 228.260555)scale(0.1 -0.1)">
       <use xlink:href="#DejaVuSans-31"/>
       <use xlink:href="#DejaVuSans-30" x="63.623047"/>
      </g>
     </g>
    </g>
    <g id="xtick_6">
     <g id="line2d_11">
      <g>
       <use xlink:href="#m2fef1d1359" x="181.145331" y="213.662118" style="stroke: #000000; stroke-width: 0.8"/>
      </g>
     </g>
     <g id="text_9">
      <!-- 12 -->
      <g transform="translate(174.782831 228.260555)scale(0.1 -0.1)">
       <use xlink:href="#DejaVuSans-31"/>
       <use xlink:href="#DejaVuSans-32" x="63.623047"/>
      </g>
     </g>
    </g>
    <g id="xtick_7">
     <g id="line2d_12">
      <g>
       <use xlink:href="#m2fef1d1359" x="289.816302" y="213.662118" style="stroke: #000000; stroke-width: 0.8"/>
      </g>
     </g>
     <g id="text_10">
      <!-- 14 -->
      <g transform="translate(283.453802 228.260555)scale(0.1 -0.1)">
       <use xlink:href="#DejaVuSans-31"/>
       <use xlink:href="#DejaVuSans-34" x="63.623047"/>
      </g>
     </g>
    </g>
    <g id="xtick_8">
     <g id="line2d_13">
      <g>
       <use xlink:href="#m2fef1d1359" x="398.487273" y="213.662118" style="stroke: #000000; stroke-width: 0.8"/>
      </g>
     </g>
     <g id="text_11">
      <!-- 16 -->
      <g transform="translate(392.124773 228.260555)scale(0.1 -0.1)">
       <use xlink:href="#DejaVuSans-31"/>
       <use xlink:href="#DejaVuSans-36" x="63.623047"/>
      </g>
     </g>
    </g>
   </g>
   <g id="matplotlib.axis_4">
    <g id="ytick_4">
     <g id="line2d_14">
      <g>
       <use xlink:href="#mf008b24536" x="57.6" y="210.112196" style="stroke: #000000; stroke-width: 0.8"/>
      </g>
     </g>
     <g id="text_12">
      <!-- 0 -->
      <g transform="translate(44.2375 213.911414)scale(0.1 -0.1)">
       <use xlink:href="#DejaVuSans-30"/>
      </g>
     </g>
    </g>
    <g id="ytick_5">
     <g id="line2d_15">
      <g>
       <use xlink:href="#mf008b24536" x="57.6" y="183.88358" style="stroke: #000000; stroke-width: 0.8"/>
      </g>
     </g>
     <g id="text_13">
      <!-- 2 -->
      <g transform="translate(44.2375 187.682799)scale(0.1 -0.1)">
       <use xlink:href="#DejaVuSans-32"/>
      </g>
     </g>
    </g>
    <g id="ytick_6">
     <g id="line2d_16">
      <g>
       <use xlink:href="#mf008b24536" x="57.6" y="157.654964" style="stroke: #000000; stroke-width: 0.8"/>
      </g>
     </g>
     <g id="text_14">
      <!-- 4 -->
      <g transform="translate(44.2375 161.454183)scale(0.1 -0.1)">
       <use xlink:href="#DejaVuSans-34"/>
      </g>
     </g>
    </g>
   </g>
   <g id="line2d_17">
    <path d="M 73.832727 208.695171 
L 75.191145 210.006154 
L 76.549512 209.34504 
L 77.90793 209.861773 
L 79.266297 209.86588 
L 80.624663 210.017468 
L 81.983081 208.868241 
L 83.341448 209.819858 
L 84.699866 208.915783 
L 86.058232 209.429717 
L 87.416599 209.231884 
L 88.775017 206.002183 
L 90.133383 202.463144 
L 91.491801 208.238671 
L 92.850168 208.900881 
L 94.208534 207.658314 
L 95.566952 209.926442 
L 96.925319 206.740035 
L 98.283737 206.38981 
L 99.642104 209.954908 
L 101.00047 208.113916 
L 102.358888 209.760594 
L 103.717255 208.367209 
L 105.075673 208.74772 
L 106.434039 209.816002 
L 107.792406 209.467233 
L 109.150824 208.742064 
L 110.50919 209.933092 
L 111.867608 209.844984 
L 113.225975 209.182092 
L 114.584341 210.015293 
L 115.942759 209.767401 
L 120.017911 210.025882 
L 122.734695 209.465401 
L 124.093062 209.414131 
L 126.809846 208.915522 
L 129.526631 208.468237 
L 132.243415 207.890127 
L 133.601782 207.380726 
L 134.960148 206.498235 
L 136.318566 204.901891 
L 137.676933 202.463825 
L 139.035351 200.676635 
L 140.393718 205.235303 
L 141.752084 194.248187 
L 143.110502 164.84812 
L 144.468869 175.326443 
L 145.827287 175.744269 
L 147.185653 138.951529 
L 148.54402 177.13838 
L 149.902438 194.768682 
L 151.260804 202.946565 
L 152.619222 186.960266 
L 153.977589 202.70737 
L 155.335955 198.746333 
L 156.694373 192.080821 
L 158.05274 189.582418 
L 159.411158 203.664002 
L 160.769524 197.528233 
L 162.127891 189.565204 
L 163.486309 207.484571 
L 164.844676 205.524846 
L 166.203094 194.595996 
L 167.56146 201.214625 
L 168.919827 208.475901 
L 170.278245 200.122617 
L 171.636611 196.875195 
L 172.995029 201.514323 
L 174.353396 203.254307 
L 175.711762 195.057376 
L 177.07018 190.541171 
L 178.428547 205.127736 
L 179.786965 195.809269 
L 181.145331 191.41146 
L 182.503698 185.563709 
L 183.862116 206.363717 
L 185.220483 203.830503 
L 186.578901 190.860046 
L 187.937267 190.453107 
L 189.295634 200.391091 
L 190.654052 208.194925 
L 192.012418 195.979782 
L 193.370836 194.681144 
L 194.729203 200.088532 
L 196.087569 208.960848 
L 197.445987 199.942963 
L 198.804354 198.30985 
L 200.162772 202.469828 
L 201.521138 207.830895 
L 202.879505 202.891351 
L 204.237923 198.995601 
L 205.59629 207.100686 
L 206.954708 207.466673 
L 208.313074 197.848517 
L 209.671441 199.439809 
L 211.029859 209.501804 
L 213.746643 191.178366 
L 215.10501 197.013367 
L 216.463376 204.166815 
L 217.821794 199.467257 
L 219.180161 187.021287 
L 220.538579 197.921781 
L 221.896945 206.493808 
L 223.255312 202.172767 
L 224.61373 194.058709 
L 225.972097 197.780348 
L 227.330515 203.713515 
L 228.688881 204.643624 
L 230.047248 199.199892 
L 231.405666 198.852811 
L 232.764032 205.416298 
L 234.12245 206.604845 
L 235.480817 202.2787 
L 236.839183 201.981403 
L 238.197601 208.064679 
L 239.555968 207.994952 
L 240.914386 201.965485 
L 242.272752 205.575875 
L 243.631119 208.197662 
L 244.989537 203.068466 
L 246.347903 199.853656 
L 247.706322 206.864251 
L 249.064688 207.868193 
L 250.423055 196.008229 
L 251.781473 195.559073 
L 253.139839 208.900847 
L 254.498257 208.446447 
L 255.856624 194.361891 
L 257.21499 197.327086 
L 258.573408 201.745513 
L 259.931775 208.635225 
L 261.290193 201.138261 
L 262.648559 200.628876 
L 264.006926 200.528918 
L 265.365344 208.90666 
L 266.72371 205.494603 
L 268.082129 201.64577 
L 269.440495 203.548016 
L 270.798862 208.816945 
L 272.15728 206.968817 
L 273.515646 204.341006 
L 276.232431 208.914562 
L 277.590797 206.381652 
L 278.949215 206.87142 
L 280.307582 206.274723 
L 281.666 208.001242 
L 283.024366 204.779847 
L 284.382733 205.914582 
L 285.741151 206.891754 
L 287.099517 202.046819 
L 288.457936 201.296166 
L 289.816302 205.348482 
L 291.174669 206.749896 
L 292.533087 201.829982 
L 295.249871 202.285746 
L 296.608238 204.485576 
L 297.966604 207.195668 
L 299.325022 206.183472 
L 300.683389 201.989428 
L 302.041807 206.399548 
L 303.400173 209.66298 
L 304.75854 206.047744 
L 306.116958 204.777658 
L 307.475324 207.009187 
L 308.833743 209.770902 
L 310.192109 207.246196 
L 311.550476 207.496242 
L 312.908894 208.080188 
L 314.26726 209.590084 
L 316.984045 208.173929 
L 318.342411 209.237689 
L 319.700829 209.104961 
L 321.059196 208.185671 
L 322.417614 208.47142 
L 323.77598 209.886171 
L 325.134347 206.048722 
L 326.492765 206.099808 
L 327.851131 209.976863 
L 329.20955 209.956946 
L 330.567916 205.430479 
L 331.926282 206.46314 
L 333.284701 206.433763 
L 334.643067 209.860094 
L 336.001485 210.024335 
L 337.359852 205.993938 
L 338.718218 208.451056 
L 340.076636 207.799852 
L 341.435003 209.471511 
L 342.793421 207.893003 
L 344.151787 208.162044 
L 345.510154 208.089782 
L 346.868572 209.08891 
L 348.226938 209.565597 
L 349.585357 207.87721 
L 350.943723 209.887797 
L 352.302089 209.548979 
L 353.660508 208.712306 
L 355.018874 209.994559 
L 356.377292 209.56808 
L 357.735659 210.055505 
L 360.452443 206.929281 
L 363.169228 199.697505 
L 364.527594 198.955739 
L 365.885961 206.202892 
L 367.244379 193.604426 
L 368.602745 169.567204 
L 369.961164 171.398397 
L 371.31953 207.117675 
L 372.677896 176.670131 
L 374.036315 172.012071 
L 375.394681 191.924803 
L 376.753099 207.899694 
L 378.111466 204.825382 
L 379.469832 202.967803 
L 380.82825 206.266763 
L 382.186617 207.335396 
L 383.545035 207.843771 
L 384.903401 208.896428 
L 386.261768 207.983385 
L 387.620186 208.731011 
L 388.978552 208.839306 
L 390.336971 208.331956 
L 391.695337 209.466396 
L 393.053703 209.156493 
L 397.128906 209.989487 
L 398.487273 209.046067 
L 398.487273 209.046067 
" clip-path="url(#p79b9aa1eb9)" style="fill: none; stroke: #385989; stroke-width: 1.5; stroke-linecap: square"/>
   </g>
   <g id="line2d_18">
    <path d="M 73.832727 207.683123 
L 75.191145 209.783231 
L 79.266297 209.643035 
L 83.341448 209.017544 
L 84.699866 208.676916 
L 86.058232 208.923099 
L 87.416599 209.382252 
L 88.775017 208.948847 
L 90.133383 210.092901 
L 91.491801 209.211558 
L 96.925319 209.622936 
L 98.283737 209.917768 
L 101.00047 209.889498 
L 103.717255 210.039822 
L 114.584341 210.101394 
L 125.45148 210.061296 
L 126.809846 207.026612 
L 128.168213 207.814158 
L 129.526631 210.063081 
L 132.243415 209.820031 
L 133.601782 209.325753 
L 134.960148 208.6349 
L 136.318566 207.11311 
L 137.676933 204.942512 
L 139.035351 203.796976 
L 140.393718 205.415244 
L 141.752084 205.418153 
L 143.110502 192.699666 
L 144.468869 192.403257 
L 145.827287 206.414654 
L 147.185653 191.580053 
L 148.54402 198.074714 
L 149.902438 207.498228 
L 151.260804 209.847906 
L 152.619222 207.735963 
L 153.977589 195.108374 
L 155.335955 195.97062 
L 156.694373 209.318488 
L 159.411158 209.717181 
L 162.127891 209.770557 
L 166.203094 209.612682 
L 168.919827 209.36463 
L 172.995029 208.833228 
L 175.711762 209.257859 
L 177.07018 209.730503 
L 178.428547 210.0428 
L 179.786965 209.863621 
L 181.145331 208.613808 
L 182.503698 209.81812 
L 183.862116 209.311965 
L 185.220483 209.132381 
L 187.937267 209.462953 
L 190.654052 209.711653 
L 194.729203 209.815513 
L 202.879505 209.602548 
L 204.237923 209.531667 
L 205.59629 209.287261 
L 206.954708 209.393759 
L 208.313074 209.356686 
L 209.671441 208.451566 
L 211.029859 208.138399 
L 212.388225 209.391412 
L 213.746643 209.853438 
L 215.10501 210.04297 
L 216.463376 210.061752 
L 217.821794 209.893571 
L 219.180161 209.454351 
L 220.538579 209.32514 
L 223.255312 209.389382 
L 227.330515 209.71581 
L 232.764032 209.823055 
L 234.12245 209.793791 
L 235.480817 209.470842 
L 236.839183 209.444717 
L 238.197601 209.829999 
L 240.914386 209.754693 
L 242.272752 209.553478 
L 243.631119 209.21428 
L 246.347903 208.115408 
L 247.706322 207.849298 
L 249.064688 208.326258 
L 250.423055 209.369985 
L 251.781473 209.826884 
L 253.139839 209.378748 
L 254.498257 209.746418 
L 255.856624 209.903897 
L 257.21499 209.462656 
L 258.573408 209.298584 
L 261.290193 209.459413 
L 262.648559 209.708317 
L 264.006926 209.648364 
L 266.72371 209.803486 
L 273.515646 209.929928 
L 276.232431 210.081672 
L 278.949215 209.846671 
L 280.307582 210.033508 
L 283.024366 207.99887 
L 284.382733 206.145055 
L 285.741151 205.257503 
L 287.099517 207.114805 
L 288.457936 209.50968 
L 289.816302 207.385391 
L 291.174669 207.207636 
L 292.533087 208.921177 
L 293.891453 209.947487 
L 295.249871 209.325125 
L 296.608238 209.078592 
L 297.966604 209.105958 
L 302.041807 209.639302 
L 306.116958 209.820403 
L 308.833743 209.840472 
L 312.908894 210.032815 
L 314.26726 209.699861 
L 316.984045 208.745898 
L 318.342411 208.402341 
L 319.700829 208.343486 
L 321.059196 209.494592 
L 322.417614 204.658329 
L 323.77598 198.820866 
L 325.134347 197.993534 
L 326.492765 204.007434 
L 327.851131 206.67988 
L 329.20955 201.180494 
L 330.567916 202.061241 
L 331.926282 206.441126 
L 333.284701 210.034977 
L 334.643067 208.318375 
L 336.001485 207.980356 
L 337.359852 208.326483 
L 340.076636 209.196739 
L 341.435003 209.482131 
L 342.793421 209.644323 
L 344.151787 207.532214 
L 345.510154 207.94801 
L 346.868572 209.740741 
L 352.302089 209.547266 
L 353.660508 209.691003 
L 355.018874 210.004068 
L 356.377292 209.373914 
L 357.735659 207.820204 
L 359.094025 204.998358 
L 360.452443 201.02599 
L 361.81081 196.62326 
L 363.169228 195.85056 
L 364.527594 205.758438 
L 365.885961 187.675644 
L 367.244379 156.947029 
L 368.602745 152.203121 
L 369.961164 192.298311 
L 371.31953 175.499626 
L 372.677896 160.280688 
L 374.036315 177.918734 
L 375.394681 201.923076 
L 376.753099 205.003901 
L 378.111466 201.481781 
L 379.469832 202.739469 
L 382.186617 207.01815 
L 383.545035 208.374542 
L 384.903401 209.254081 
L 386.261768 209.835285 
L 387.620186 210.057193 
L 393.053703 209.832865 
L 394.412122 209.623941 
L 395.770488 209.55211 
L 397.128906 208.981925 
L 398.487273 208.912074 
L 398.487273 208.912074 
" clip-path="url(#p79b9aa1eb9)" style="fill: none; stroke: #d22027; stroke-width: 1.5; stroke-linecap: square"/>
   </g>
   <g id="patch_8">
    <path d="M 57.6 213.662118 
L 57.6 135.393882 
" style="fill: none; stroke: #000000; stroke-width: 0.8; stroke-linejoin: miter; stroke-linecap: square"/>
   </g>
   <g id="patch_9">
    <path d="M 414.72 213.662118 
L 414.72 135.393882 
" style="fill: none; stroke: #000000; stroke-width: 0.8; stroke-linejoin: miter; stroke-linecap: square"/>
   </g>
   <g id="patch_10">
    <path d="M 57.6 213.662118 
L 414.72 213.662118 
" style="fill: none; stroke: #000000; stroke-width: 0.8; stroke-linejoin: miter; stroke-linecap: square"/>
   </g>
   <g id="patch_11">
    <path d="M 57.6 135.393882 
L 414.72 135.393882 
" style="fill: none; stroke: #000000; stroke-width: 0.8; stroke-linejoin: miter; stroke-linecap: square"/>
   </g>
  </g>
  <g id="axes_3">
   <g id="patch_12">
    <path d="M 57.6 307.584 
L 414.72 307.584 
L 414.72 229.315765 
L 57.6 229.315765 
z
" style="fill: #ffffff"/>
   </g>
   <g id="matplotlib.axis_5">
    <g id="xtick_9">
     <g id="line2d_19">
      <g>
       <use xlink:href="#m2fef1d1359" x="72.474361" y="307.584" style="stroke: #000000; stroke-width: 0.8"/>
      </g>
     </g>
     <g id="text_15">
      <!-- 10 -->
      <g transform="translate(66.111861 322.182437)scale(0.1 -0.1)">
       <use xlink:href="#DejaVuSans-31"/>
       <use xlink:href="#DejaVuSans-30" x="63.623047"/>
      </g>
     </g>
    </g>
    <g id="xtick_10">
     <g id="line2d_20">
      <g>
       <use xlink:href="#m2fef1d1359" x="181.145331" y="307.584" style="stroke: #000000; stroke-width: 0.8"/>
      </g>
     </g>
     <g id="text_16">
      <!-- 12 -->
      <g transform="translate(174.782831 322.182437)scale(0.1 -0.1)">
       <use xlink:href="#DejaVuSans-31"/>
       <use xlink:href="#DejaVuSans-32" x="63.623047"/>
      </g>
     </g>
    </g>
    <g id="xtick_11">
     <g id="line2d_21">
      <g>
       <use xlink:href="#m2fef1d1359" x="289.816302" y="307.584" style="stroke: #000000; stroke-width: 0.8"/>
      </g>
     </g>
     <g id="text_17">
      <!-- 14 -->
      <g transform="translate(283.453802 322.182437)scale(0.1 -0.1)">
       <use xlink:href="#DejaVuSans-31"/>
       <use xlink:href="#DejaVuSans-34" x="63.623047"/>
      </g>
     </g>
    </g>
    <g id="xtick_12">
     <g id="line2d_22">
      <g>
       <use xlink:href="#m2fef1d1359" x="398.487273" y="307.584" style="stroke: #000000; stroke-width: 0.8"/>
      </g>
     </g>
     <g id="text_18">
      <!-- 16 -->
      <g transform="translate(392.124773 322.182437)scale(0.1 -0.1)">
       <use xlink:href="#DejaVuSans-31"/>
       <use xlink:href="#DejaVuSans-36" x="63.623047"/>
      </g>
     </g>
    </g>
   </g>
   <g id="matplotlib.axis_6">
    <g id="ytick_7">
     <g id="line2d_23">
      <g>
       <use xlink:href="#mf008b24536" x="57.6" y="304.045805" style="stroke: #000000; stroke-width: 0.8"/>
      </g>
     </g>
     <g id="text_19">
      <!-- 0 -->
      <g transform="translate(44.2375 307.845023)scale(0.1 -0.1)">
       <use xlink:href="#DejaVuSans-30"/>
      </g>
     </g>
    </g>
    <g id="ytick_8">
     <g id="line2d_24">
      <g>
       <use xlink:href="#mf008b24536" x="57.6" y="276.183" style="stroke: #000000; stroke-width: 0.8"/>
      </g>
     </g>
     <g id="text_20">
      <!-- 2 -->
      <g transform="translate(44.2375 279.982219)scale(0.1 -0.1)">
       <use xlink:href="#DejaVuSans-32"/>
      </g>
     </g>
    </g>
    <g id="ytick_9">
     <g id="line2d_25">
      <g>
       <use xlink:href="#mf008b24536" x="57.6" y="248.320196" style="stroke: #000000; stroke-width: 0.8"/>
      </g>
     </g>
     <g id="text_21">
      <!-- 4 -->
      <g transform="translate(44.2375 252.119415)scale(0.1 -0.1)">
       <use xlink:href="#DejaVuSans-34"/>
      </g>
     </g>
    </g>
   </g>
   <g id="line2d_26">
    <path d="M 73.832727 303.054767 
L 75.191145 302.852172 
L 76.549512 303.228082 
L 77.90793 303.449785 
L 80.624663 303.334148 
L 83.341448 302.430748 
L 84.699866 300.880851 
L 86.058232 301.052192 
L 87.416599 302.320135 
L 88.775017 301.681098 
L 90.133383 303.528807 
L 91.491801 303.409002 
L 92.850168 302.385479 
L 94.208534 302.194105 
L 95.566952 302.394491 
L 96.925319 303.494621 
L 98.283737 301.172764 
L 99.642104 302.650583 
L 101.00047 303.818519 
L 102.358888 300.914241 
L 103.717255 303.219278 
L 105.075673 303.311625 
L 106.434039 301.132051 
L 107.792406 303.803917 
L 110.50919 302.058766 
L 111.867608 303.960862 
L 113.225975 302.747773 
L 114.584341 302.717068 
L 115.942759 303.530836 
L 117.301126 302.578828 
L 118.659544 302.807984 
L 120.017911 302.918385 
L 121.376277 302.351668 
L 122.734695 302.459996 
L 124.093062 302.282371 
L 125.45148 301.944823 
L 126.809846 301.844254 
L 133.601782 300.377165 
L 134.960148 300.667959 
L 136.318566 302.210014 
L 137.676933 301.588742 
L 139.035351 292.931507 
L 140.393718 281.97267 
L 141.752084 281.461776 
L 143.110502 297.721416 
L 144.468869 256.28465 
L 145.827287 253.903102 
L 147.185653 292.885154 
L 148.54402 289.991889 
L 149.902438 296.052321 
L 151.260804 285.35055 
L 152.619222 302.61305 
L 153.977589 280.9215 
L 155.335955 286.701616 
L 156.694373 299.246401 
L 158.05274 280.740813 
L 159.411158 280.250205 
L 160.769524 290.208566 
L 162.127891 289.97715 
L 163.486309 281.077112 
L 164.844676 282.918811 
L 166.203094 301.977932 
L 167.56146 287.497375 
L 168.919827 280.587307 
L 170.278245 294.512524 
L 171.636611 295.33688 
L 172.995029 282.211785 
L 174.353396 283.485418 
L 175.711762 297.227354 
L 177.07018 284.767702 
L 178.428547 284.605313 
L 179.786965 273.168145 
L 181.145331 302.399361 
L 182.503698 299.404281 
L 183.862116 281.768647 
L 185.220483 283.227116 
L 186.578901 289.112567 
L 187.937267 302.939468 
L 189.295634 289.31715 
L 190.654052 279.316115 
L 192.012418 287.311606 
L 193.370836 301.723131 
L 194.729203 285.858474 
L 196.087569 281.548406 
L 197.445987 287.73737 
L 198.804354 298.956763 
L 200.162772 287.163682 
L 201.521138 282.927372 
L 202.879505 298.648199 
L 204.237923 295.840646 
L 205.59629 284.65582 
L 206.954708 290.251347 
L 208.313074 303.487866 
L 209.671441 289.417471 
L 211.029859 284.362213 
L 212.388225 287.911988 
L 213.746643 293.759052 
L 215.10501 294.499344 
L 216.463376 274.515115 
L 217.821794 293.291925 
L 219.180161 297.768288 
L 220.538579 294.996002 
L 221.896945 288.673371 
L 223.255312 286.268058 
L 224.61373 295.131024 
L 225.972097 301.752107 
L 227.330515 286.986039 
L 228.688881 285.912307 
L 231.405666 298.03222 
L 232.764032 288.55816 
L 234.12245 285.78705 
L 235.480817 299.895844 
L 236.839183 297.046698 
L 238.197601 287.197783 
L 239.555968 294.844205 
L 240.914386 303.714045 
L 242.272752 291.952047 
L 243.631119 291.09336 
L 244.989537 298.820786 
L 246.347903 298.467633 
L 247.706322 290.198244 
L 249.064688 285.619582 
L 250.423055 301.364256 
L 251.781473 302.574483 
L 253.139839 282.472732 
L 254.498257 293.469672 
L 255.856624 293.082563 
L 257.21499 303.3335 
L 258.573408 297.94413 
L 259.931775 290.96368 
L 261.290193 292.756848 
L 262.648559 297.226962 
L 264.006926 297.731985 
L 265.365344 291.868937 
L 266.72371 289.597202 
L 268.082129 300.578523 
L 269.440495 298.393949 
L 270.798862 290.120965 
L 272.15728 295.838972 
L 273.515646 302.592763 
L 274.874064 294.547485 
L 276.232431 295.951736 
L 277.590797 298.553607 
L 278.949215 299.138335 
L 280.307582 296.583139 
L 281.666 297.060844 
L 283.024366 303.324004 
L 284.382733 297.09206 
L 285.741151 292.045224 
L 287.099517 302.538266 
L 288.457936 296.310528 
L 289.816302 289.38049 
L 291.174669 299.498516 
L 292.533087 293.537294 
L 293.891453 300.657468 
L 295.249871 303.436263 
L 296.608238 298.382878 
L 297.966604 297.287383 
L 299.325022 295.364906 
L 300.683389 302.895251 
L 302.041807 300.731078 
L 303.400173 294.145593 
L 304.75854 297.52194 
L 306.116958 301.833512 
L 307.475324 297.818189 
L 308.833743 297.378567 
L 310.192109 298.650442 
L 311.550476 301.794997 
L 314.26726 298.372011 
L 315.625678 304.012273 
L 316.984045 302.543777 
L 318.342411 298.71425 
L 319.700829 303.611786 
L 321.059196 302.877223 
L 322.417614 298.252733 
L 323.77598 301.693975 
L 325.134347 301.478581 
L 326.492765 299.326875 
L 327.851131 303.24033 
L 329.20955 295.022215 
L 330.567916 303.171985 
L 331.926282 299.955096 
L 333.284701 300.888879 
L 334.643067 303.822236 
L 336.001485 299.463716 
L 337.359852 303.128729 
L 338.718218 301.83654 
L 340.076636 300.895308 
L 341.435003 301.612115 
L 342.793421 300.20487 
L 344.151787 303.775696 
L 345.510154 302.619022 
L 346.868572 300.320556 
L 348.226938 302.880769 
L 349.585357 303.824862 
L 350.943723 301.577487 
L 352.302089 302.794272 
L 353.660508 303.281841 
L 355.018874 303.26156 
L 356.377292 302.476876 
L 357.735659 303.560627 
L 360.452443 301.603335 
L 361.81081 303.983229 
L 363.169228 299.645689 
L 364.527594 290.025687 
L 365.885961 276.696501 
L 367.244379 274.081462 
L 368.602745 295.131834 
L 371.31953 255.900106 
L 372.677896 275.734289 
L 374.036315 301.534498 
L 375.394681 284.041159 
L 376.753099 283.334326 
L 378.111466 292.63389 
L 379.469832 298.700005 
L 380.82825 301.529135 
L 382.186617 302.759753 
L 383.545035 302.387057 
L 384.903401 303.646271 
L 386.261768 303.260977 
L 387.620186 303.041501 
L 388.978552 303.937209 
L 390.336971 303.092697 
L 393.053703 303.568665 
L 394.412122 302.887163 
L 395.770488 303.183619 
L 398.487273 303.042949 
L 398.487273 303.042949 
" clip-path="url(#pa0d41305d3)" style="fill: none; stroke: #385989; stroke-width: 1.5; stroke-linecap: square"/>
   </g>
   <g id="line2d_27">
    <path d="M 73.832727 300.77084 
L 75.191145 303.14755 
L 81.983081 303.209599 
L 83.341448 303.050022 
L 84.699866 301.978642 
L 86.058232 302.440931 
L 87.416599 301.806453 
L 88.775017 301.763934 
L 90.133383 302.000003 
L 91.491801 301.76385 
L 92.850168 302.041017 
L 94.208534 301.837738 
L 95.566952 301.878529 
L 96.925319 302.093341 
L 98.283737 302.038124 
L 99.642104 301.427059 
L 102.358888 302.581105 
L 114.584341 303.214624 
L 125.45148 303.609423 
L 126.809846 300.107542 
L 128.168213 299.745272 
L 129.526631 303.887564 
L 130.884997 304.026353 
L 134.960148 303.170323 
L 137.676933 303.655677 
L 139.035351 298.750805 
L 140.393718 293.306642 
L 141.752084 286.981081 
L 143.110502 296.309008 
L 145.827287 283.974439 
L 147.185653 295.533196 
L 148.54402 299.580444 
L 149.902438 292.979898 
L 151.260804 295.440115 
L 152.619222 300.480016 
L 153.977589 298.730994 
L 155.335955 297.860094 
L 156.694373 302.971182 
L 160.769524 302.840379 
L 166.203094 302.952927 
L 168.919827 302.952523 
L 170.278245 302.871067 
L 171.636611 302.67352 
L 175.711762 301.625448 
L 177.07018 301.424317 
L 178.428547 301.981314 
L 179.786965 301.956215 
L 181.145331 298.616948 
L 182.503698 299.319914 
L 183.862116 302.44531 
L 186.578901 302.162527 
L 189.295634 302.235344 
L 200.162772 302.871886 
L 205.59629 303.028018 
L 206.954708 302.897882 
L 208.313074 296.12402 
L 209.671441 296.846123 
L 211.029859 301.681451 
L 213.746643 301.219833 
L 215.10501 301.521495 
L 216.463376 302.204462 
L 217.821794 302.524893 
L 219.180161 302.543037 
L 223.255312 302.273739 
L 228.688881 302.519226 
L 232.764032 302.739926 
L 234.12245 302.668796 
L 235.480817 300.321582 
L 236.839183 300.57407 
L 238.197601 302.956062 
L 240.914386 303.227578 
L 243.631119 303.512127 
L 244.989537 303.388068 
L 246.347903 302.879361 
L 249.064688 300.755963 
L 250.423055 300.196349 
L 251.781473 300.689736 
L 254.498257 302.477659 
L 255.856624 302.857886 
L 258.573408 302.583489 
L 259.931775 302.428088 
L 261.290193 302.415754 
L 262.648559 301.296929 
L 264.006926 301.16618 
L 265.365344 302.538792 
L 272.15728 302.770499 
L 273.515646 302.760714 
L 276.232431 302.937651 
L 277.590797 303.20195 
L 278.949215 303.736083 
L 280.307582 303.833099 
L 283.024366 302.865493 
L 284.382733 303.41616 
L 287.099517 298.239193 
L 288.457936 297.079071 
L 289.816302 298.365721 
L 292.533087 303.571808 
L 293.891453 303.632616 
L 295.249871 303.530122 
L 296.608238 302.909883 
L 297.966604 302.627085 
L 299.325022 302.488497 
L 302.041807 302.52318 
L 308.833743 302.669269 
L 314.26726 302.586393 
L 315.625678 302.160444 
L 316.984045 299.639101 
L 318.342411 302.027519 
L 319.700829 300.979036 
L 321.059196 298.663734 
L 322.417614 298.04518 
L 323.77598 302.28867 
L 325.134347 297.121139 
L 326.492765 288.930143 
L 327.851131 289.229369 
L 329.20955 296.120078 
L 330.567916 303.715662 
L 331.926282 301.161264 
L 333.284701 301.346928 
L 334.643067 303.157658 
L 336.001485 303.540257 
L 337.359852 302.769791 
L 338.718218 302.484512 
L 341.435003 302.523864 
L 342.793421 302.612125 
L 344.151787 301.993155 
L 345.510154 301.823466 
L 346.868572 302.767008 
L 349.585357 302.637164 
L 352.302089 302.207805 
L 353.660508 301.80199 
L 356.377292 300.524279 
L 357.735659 299.887371 
L 359.094025 299.918993 
L 360.452443 301.986458 
L 361.81081 300.205906 
L 363.169228 287.546197 
L 364.527594 272.336094 
L 365.885961 266.300735 
L 367.244379 287.840192 
L 368.602745 269.059456 
L 369.961164 232.873412 
L 371.31953 245.511698 
L 372.677896 290.832909 
L 374.036315 285.074128 
L 375.394681 280.306656 
L 378.111466 298.298136 
L 379.469832 303.6215 
L 380.82825 302.213331 
L 382.186617 301.778664 
L 383.545035 301.90019 
L 386.261768 302.535142 
L 390.336971 303.113228 
L 394.412122 303.522176 
L 395.770488 303.743435 
L 397.128906 303.465929 
L 398.487273 303.349407 
L 398.487273 303.349407 
" clip-path="url(#pa0d41305d3)" style="fill: none; stroke: #d22027; stroke-width: 1.5; stroke-linecap: square"/>
   </g>
   <g id="patch_13">
    <path d="M 57.6 307.584 
L 57.6 229.315765 
" style="fill: none; stroke: #000000; stroke-width: 0.8; stroke-linejoin: miter; stroke-linecap: square"/>
   </g>
   <g id="patch_14">
    <path d="M 414.72 307.584 
L 414.72 229.315765 
" style="fill: none; stroke: #000000; stroke-width: 0.8; stroke-linejoin: miter; stroke-linecap: square"/>
   </g>
   <g id="patch_15">
    <path d="M 57.6 307.584 
L 414.72 307.584 
" style="fill: none; stroke: #000000; stroke-width: 0.8; stroke-linejoin: miter; stroke-linecap: square"/>
   </g>
   <g id="patch_16">
    <path d="M 57.6 229.315765 
L 414.72 229.315765 
" style="fill: none; stroke: #000000; stroke-width: 0.8; stroke-linejoin: miter; stroke-linecap: square"/>
   </g>
  </g>
 </g>
 <defs>
  <clipPath id="p3071e0ac35">
   <rect x="57.6" y="41.472" width="357.12" height="78.268235"/>
  </clipPath>
  <clipPath id="p79b9aa1eb9">
   <rect x="57.6" y="135.393882" width="357.12" height="78.268235"/>
  </clipPath>
  <clipPath id="pa0d41305d3">
   <rect x="57.6" y="229.315765" width="357.12" height="78.268235"/>
  </clipPath>
 </defs>
</svg>
