<?xml version="1.0" encoding="utf-8" standalone="no"?>
<!DOCTYPE svg PUBLIC "-//W3C//DTD SVG 1.1//EN"
  "http://www.w3.org/Graphics/SVG/1.1/DTD/svg11.dtd">
<svg xmlns:xlink="http://www.w3.org/1999/xlink" width="460.8pt" height="345.6pt" viewBox="0 0 460.8 345.6" xmlns="http://www.w3.org/2000/svg" version="1.1">
 <metadata>
  <rdf:RDF xmlns:dc="http://purl.org/dc/elements/1.1/" xmlns:cc="http://creativecommons.org/ns#" xmlns:rdf="http://www.w3.org/1999/02/22-rdf-syntax-ns#">
   <cc:Work>
    <dc:type rdf:resource="http://purl.org/dc/dcmitype/StillImage"/>
    <dc:date>2023-10-31T11:57:29.691451</dc:date>
    <dc:format>image/svg+xml</dc:format>
    <dc:creator>
     <cc:Agent>
      <dc:title>Matplotlib v3.5.2, https://matplotlib.org/</dc:title>
     </cc:Agent>
    </dc:creator>
   </cc:Work>
  </rdf:RDF>
 </metadata>
 <defs>
  <style type="text/css">*{stroke-linejoin: round; stroke-linecap: butt}</style>
 </defs>
 <g id="figure_1">
  <g id="patch_1">
   <path d="M 0 345.6 
L 460.8 345.6 
L 460.8 0 
L 0 0 
z
" style="fill: #ffffff"/>
  </g>
  <g id="axes_1">
   <g id="patch_2">
    <path d="M 57.6 119.740235 
L 414.72 119.740235 
L 414.72 41.472 
L 57.6 41.472 
z
" style="fill: #ffffff"/>
   </g>
   <g id="matplotlib.axis_1">
    <g id="xtick_1">
     <g id="line2d_1">
      <defs>
       <path id="m75bf243aaf" d="M 0 0 
L 0 3.5 
" style="stroke: #000000; stroke-width: 0.8"/>
      </defs>
      <g>
       <use xlink:href="#m75bf243aaf" x="57.6" y="119.740235" style="stroke: #000000; stroke-width: 0.8"/>
      </g>
     </g>
    </g>
    <g id="xtick_2">
     <g id="line2d_2">
      <g>
       <use xlink:href="#m75bf243aaf" x="236.16" y="119.740235" style="stroke: #000000; stroke-width: 0.8"/>
      </g>
     </g>
    </g>
    <g id="xtick_3">
     <g id="line2d_3">
      <g>
       <use xlink:href="#m75bf243aaf" x="414.72" y="119.740235" style="stroke: #000000; stroke-width: 0.8"/>
      </g>
     </g>
    </g>
   </g>
   <g id="matplotlib.axis_2">
    <g id="ytick_1">
     <g id="line2d_4">
      <defs>
       <path id="m5e081296ab" d="M 0 0 
L -3.5 0 
" style="stroke: #000000; stroke-width: 0.8"/>
      </defs>
      <g>
       <use xlink:href="#m5e081296ab" x="57.6" y="116.195205" style="stroke: #000000; stroke-width: 0.8"/>
      </g>
     </g>
     <g id="text_1">
      <!-- 0 -->
      <g transform="translate(44.2375 119.994424)scale(0.1 -0.1)">
       <defs>
        <path id="DejaVuSans-30" d="M 2034 4250 
Q 1547 4250 1301 3770 
Q 1056 3291 1056 2328 
Q 1056 1369 1301 889 
Q 1547 409 2034 409 
Q 2525 409 2770 889 
Q 3016 1369 3016 2328 
Q 3016 3291 2770 3770 
Q 2525 4250 2034 4250 
z
M 2034 4750 
Q 2819 4750 3233 4129 
Q 3647 3509 3647 2328 
Q 3647 1150 3233 529 
Q 2819 -91 2034 -91 
Q 1250 -91 836 529 
Q 422 1150 422 2328 
Q 422 3509 836 4129 
Q 1250 4750 2034 4750 
z
" transform="scale(0.015625)"/>
       </defs>
       <use xlink:href="#DejaVuSans-30"/>
      </g>
     </g>
    </g>
    <g id="ytick_2">
     <g id="line2d_5">
      <g>
       <use xlink:href="#m5e081296ab" x="57.6" y="84.166658" style="stroke: #000000; stroke-width: 0.8"/>
      </g>
     </g>
     <g id="text_2">
      <!-- 1 -->
      <g transform="translate(44.2375 87.965876)scale(0.1 -0.1)">
       <defs>
        <path id="DejaVuSans-31" d="M 794 531 
L 1825 531 
L 1825 4091 
L 703 3866 
L 703 4441 
L 1819 4666 
L 2450 4666 
L 2450 531 
L 3481 531 
L 3481 0 
L 794 0 
L 794 531 
z
" transform="scale(0.015625)"/>
       </defs>
       <use xlink:href="#DejaVuSans-31"/>
      </g>
     </g>
    </g>
    <g id="ytick_3">
     <g id="line2d_6">
      <g>
       <use xlink:href="#m5e081296ab" x="57.6" y="52.13811" style="stroke: #000000; stroke-width: 0.8"/>
      </g>
     </g>
     <g id="text_3">
      <!-- 2 -->
      <g transform="translate(44.2375 55.937329)scale(0.1 -0.1)">
       <defs>
        <path id="DejaVuSans-32" d="M 1228 531 
L 3431 531 
L 3431 0 
L 469 0 
L 469 531 
Q 828 903 1448 1529 
Q 2069 2156 2228 2338 
Q 2531 2678 2651 2914 
Q 2772 3150 2772 3378 
Q 2772 3750 2511 3984 
Q 2250 4219 1831 4219 
Q 1534 4219 1204 4116 
Q 875 4013 500 3803 
L 500 4441 
Q 881 4594 1212 4672 
Q 1544 4750 1819 4750 
Q 2544 4750 2975 4387 
Q 3406 4025 3406 3419 
Q 3406 3131 3298 2873 
Q 3191 2616 2906 2266 
Q 2828 2175 2409 1742 
Q 1991 1309 1228 531 
z
" transform="scale(0.015625)"/>
       </defs>
       <use xlink:href="#DejaVuSans-32"/>
      </g>
     </g>
    </g>
   </g>
   <g id="line2d_7">
    <path d="M 57.6 115.641368 
L 59.831966 115.763595 
L 64.295983 115.788058 
L 73.224017 116.073021 
L 75.455983 116.182588 
L 77.688034 115.992787 
L 84.384017 115.859467 
L 86.615983 116.112646 
L 88.848034 116.034251 
L 91.08 115.640745 
L 93.311966 115.071697 
L 95.544017 114.914904 
L 97.775983 114.962194 
L 100.008034 114.847148 
L 106.704017 114.968244 
L 108.935983 115.307153 
L 111.168034 115.475495 
L 113.4 115.514713 
L 115.631966 115.768068 
L 126.791966 115.532869 
L 131.255983 115.2051 
L 135.72 114.764138 
L 140.184017 114.051678 
L 142.415983 113.552286 
L 144.648034 112.933904 
L 146.88 112.165818 
L 149.111966 111.185831 
L 151.344017 109.959123 
L 153.575983 108.418463 
L 155.808034 106.496395 
L 158.04 104.142348 
L 160.271966 101.336711 
L 164.735983 95.005604 
L 166.968034 92.59244 
L 169.2 92.356572 
L 171.431966 96.185894 
L 173.664017 105.452683 
L 175.895983 112.937783 
L 178.128034 97.458139 
L 180.36 85.569048 
L 182.591966 81.663726 
L 184.824017 83.990941 
L 187.055983 87.567044 
L 189.288034 93.452786 
L 191.52 100.353106 
L 193.751966 103.48237 
L 195.984017 107.983875 
L 198.215983 110.874464 
L 200.448034 109.999114 
L 202.68 112.192232 
L 204.911966 111.871384 
L 207.144017 110.044376 
L 209.375983 111.044131 
L 211.608034 109.130076 
L 213.84 107.601105 
L 216.071966 107.910268 
L 218.304017 105.798086 
L 220.535983 105.518453 
L 222.768034 106.659664 
L 225 106.213219 
L 227.231966 109.384293 
L 229.464017 112.905028 
L 231.695983 115.168793 
L 233.928034 110.839393 
L 236.16 108.872172 
L 240.624017 103.205498 
L 242.855983 105.479931 
L 245.088034 103.981781 
L 249.551966 108.844409 
L 251.784017 108.581702 
L 254.015983 112.586961 
L 256.248034 113.139592 
L 260.711966 115.06817 
L 262.944017 115.520029 
L 267.408034 111.523182 
L 269.64 111.595153 
L 271.871966 109.173621 
L 274.104017 108.011352 
L 276.335983 107.728917 
L 278.568034 105.808576 
L 280.8 106.138702 
L 283.031966 107.164611 
L 285.264017 107.592572 
L 287.495983 111.672309 
L 289.728034 115.001814 
L 291.96 114.131912 
L 294.191966 108.348754 
L 296.424017 107.505955 
L 298.655983 104.47874 
L 300.888034 103.973061 
L 303.12 105.921115 
L 305.351966 105.159015 
L 307.584017 108.423484 
L 309.815983 109.698691 
L 312.048034 110.401989 
L 314.28 113.757924 
L 316.511966 113.552317 
L 318.744017 115.269998 
L 320.975983 115.14482 
L 323.208034 115.470364 
L 325.44 113.30052 
L 327.671966 112.28157 
L 329.904017 111.87362 
L 332.135983 109.728903 
L 336.6 108.246031 
L 338.831966 106.711568 
L 343.295983 107.694169 
L 345.528034 108.658007 
L 347.76 112.547597 
L 349.991966 115.411981 
L 352.224017 113.084921 
L 354.455983 108.517021 
L 356.688034 107.673694 
L 358.92 104.824768 
L 361.151966 105.558935 
L 363.384017 106.53961 
L 365.615983 106.651072 
L 367.848034 109.650427 
L 370.08 110.072857 
L 372.311966 111.540838 
L 374.544017 113.692414 
L 376.775983 113.377924 
L 379.008034 115.269834 
L 381.24 116.030808 
L 383.471966 116.051055 
L 385.704017 114.622711 
L 387.935983 114.361352 
L 390.168034 113.674696 
L 392.4 112.204119 
L 394.631966 111.773248 
L 399.095983 109.514156 
L 401.328034 109.376232 
L 403.56 108.971589 
L 405.791966 109.410236 
L 408.024017 111.579567 
L 410.255983 113.44307 
L 412.488034 115.528966 
L 414.72 112.098267 
L 416.951966 110.498499 
L 419.184017 107.805134 
L 421.415983 108.212365 
L 423.648034 108.050545 
L 425.88 108.50033 
L 428.111966 110.331148 
L 430.344017 110.415852 
L 432.575983 111.955854 
L 434.808034 112.848392 
L 437.04 112.774439 
L 439.271966 114.139566 
L 441.504017 113.980313 
L 443.735983 114.175912 
L 445.968034 114.923382 
L 448.2 114.540542 
L 452.664017 115.240909 
L 454.895983 115.080257 
L 457.128034 115.527114 
L 461.591966 115.935727 
L 461.8 115.925734 
L 461.8 115.925734 
" clip-path="url(#p0111dedf31)" style="fill: none; stroke-dasharray: 9.6,2.4,1.5,2.4; stroke-dashoffset: 0; stroke: #0000cc; stroke-width: 1.5"/>
   </g>
   <g id="line2d_8">
    <path d="M 57.6 115.641368 
L 59.831966 115.825543 
L 68.76 115.902481 
L 75.455983 116.149736 
L 82.151966 115.726144 
L 84.384017 115.783922 
L 88.848034 116.078467 
L 93.311966 115.387079 
L 97.775983 115.098157 
L 102.24 115.187533 
L 106.704017 115.553936 
L 115.631966 116.035561 
L 122.328034 116.162812 
L 137.951966 115.74417 
L 142.415983 115.471691 
L 146.88 115.019451 
L 153.575983 113.370421 
L 155.808034 112.557989 
L 158.04 111.521447 
L 160.271966 110.246332 
L 166.968034 105.561263 
L 169.2 104.768027 
L 171.431966 105.608918 
L 173.664017 109.098312 
L 175.895983 115.134154 
L 178.128034 109.998161 
L 180.36 103.684511 
L 182.591966 100.394715 
L 184.824017 100.081237 
L 187.055983 101.562803 
L 191.52 106.670578 
L 193.751966 109.295584 
L 195.984017 111.535762 
L 198.215983 113.254842 
L 200.448034 114.51995 
L 202.68 115.404489 
L 204.911966 115.986002 
L 207.144017 116.06302 
L 209.375983 115.914456 
L 211.608034 115.920549 
L 213.84 116.06255 
L 216.071966 116.070654 
L 220.535983 115.292234 
L 225 114.428543 
L 227.231966 114.134325 
L 229.464017 114.07076 
L 231.695983 114.287927 
L 233.928034 114.795315 
L 236.16 115.512718 
L 238.391966 115.892314 
L 240.624017 115.155588 
L 242.855983 114.545683 
L 245.088034 114.098237 
L 247.32 113.82864 
L 249.551966 113.706237 
L 254.015983 113.767247 
L 265.175983 114.436442 
L 271.871966 114.963917 
L 276.335983 115.538974 
L 278.568034 115.931074 
L 280.8 115.983532 
L 283.031966 115.75606 
L 285.264017 115.060562 
L 289.728034 114.294269 
L 291.96 114.304593 
L 294.191966 114.568752 
L 296.424017 115.116384 
L 298.655983 115.811217 
L 300.888034 115.85763 
L 303.12 115.211467 
L 305.351966 114.684475 
L 307.584017 114.298378 
L 312.048034 113.861594 
L 318.744017 113.624424 
L 325.44 113.430439 
L 327.671966 113.265887 
L 332.135983 113.236215 
L 334.368034 113.321294 
L 336.6 113.534952 
L 338.831966 113.923418 
L 341.064017 114.541294 
L 343.295983 115.398378 
L 345.528034 115.934225 
L 349.991966 113.803801 
L 352.224017 113.145742 
L 354.455983 112.953098 
L 356.688034 113.249442 
L 358.92 113.918306 
L 363.384017 115.702479 
L 365.615983 115.844575 
L 367.848034 115.114684 
L 372.311966 114.029594 
L 376.775983 113.295029 
L 385.704017 111.925683 
L 394.631966 110.26726 
L 396.864017 110.028324 
L 399.095983 110.049917 
L 401.328034 110.476738 
L 403.56 111.474629 
L 405.791966 113.195924 
L 408.024017 115.4966 
L 410.255983 114.214526 
L 412.488034 111.651857 
L 414.72 109.868681 
L 416.951966 108.974154 
L 419.184017 109.11148 
L 421.415983 110.076298 
L 423.648034 111.488949 
L 428.111966 114.594803 
L 430.344017 115.951044 
L 432.575983 115.272411 
L 434.808034 114.285948 
L 439.271966 112.658331 
L 445.968034 110.323198 
L 448.2 109.397473 
L 450.431966 108.347898 
L 452.664017 107.157069 
L 457.128034 104.42955 
L 459.36 103.016758 
L 461.8 101.698561 
L 461.8 101.698561 
" clip-path="url(#p0111dedf31)" style="fill: none; stroke: #ff0000; stroke-width: 1.5; stroke-linecap: square"/>
   </g>
   <g id="patch_3">
    <path d="M 57.6 119.740235 
L 57.6 41.472 
" style="fill: none; stroke: #000000; stroke-width: 0.8; stroke-linejoin: miter; stroke-linecap: square"/>
   </g>
   <g id="patch_4">
    <path d="M 414.72 119.740235 
L 414.72 41.472 
" style="fill: none; stroke: #000000; stroke-width: 0.8; stroke-linejoin: miter; stroke-linecap: square"/>
   </g>
   <g id="patch_5">
    <path d="M 57.6 119.740235 
L 414.72 119.740235 
" style="fill: none; stroke: #000000; stroke-width: 0.8; stroke-linejoin: miter; stroke-linecap: square"/>
   </g>
   <g id="patch_6">
    <path d="M 57.6 41.472 
L 414.72 41.472 
" style="fill: none; stroke: #000000; stroke-width: 0.8; stroke-linejoin: miter; stroke-linecap: square"/>
   </g>
  </g>
  <g id="axes_2">
   <g id="patch_7">
    <path d="M 57.6 213.662118 
L 414.72 213.662118 
L 414.72 135.393882 
L 57.6 135.393882 
z
" style="fill: #ffffff"/>
   </g>
   <g id="matplotlib.axis_3">
    <g id="xtick_4">
     <g id="line2d_9">
      <g>
       <use xlink:href="#m75bf243aaf" x="57.6" y="213.662118" style="stroke: #000000; stroke-width: 0.8"/>
      </g>
     </g>
    </g>
    <g id="xtick_5">
     <g id="line2d_10">
      <g>
       <use xlink:href="#m75bf243aaf" x="236.16" y="213.662118" style="stroke: #000000; stroke-width: 0.8"/>
      </g>
     </g>
    </g>
    <g id="xtick_6">
     <g id="line2d_11">
      <g>
       <use xlink:href="#m75bf243aaf" x="414.72" y="213.662118" style="stroke: #000000; stroke-width: 0.8"/>
      </g>
     </g>
    </g>
   </g>
   <g id="matplotlib.axis_4">
    <g id="ytick_4">
     <g id="line2d_12">
      <g>
       <use xlink:href="#m5e081296ab" x="57.6" y="210.116371" style="stroke: #000000; stroke-width: 0.8"/>
      </g>
     </g>
     <g id="text_4">
      <!-- 0 -->
      <g transform="translate(44.2375 213.915589)scale(0.1 -0.1)">
       <use xlink:href="#DejaVuSans-30"/>
      </g>
     </g>
    </g>
    <g id="ytick_5">
     <g id="line2d_13">
      <g>
       <use xlink:href="#m5e081296ab" x="57.6" y="178.110339" style="stroke: #000000; stroke-width: 0.8"/>
      </g>
     </g>
     <g id="text_5">
      <!-- 2 -->
      <g transform="translate(44.2375 181.909558)scale(0.1 -0.1)">
       <use xlink:href="#DejaVuSans-32"/>
      </g>
     </g>
    </g>
    <g id="ytick_6">
     <g id="line2d_14">
      <g>
       <use xlink:href="#m5e081296ab" x="57.6" y="146.104307" style="stroke: #000000; stroke-width: 0.8"/>
      </g>
     </g>
     <g id="text_6">
      <!-- 4 -->
      <g transform="translate(44.2375 149.903526)scale(0.1 -0.1)">
       <defs>
        <path id="DejaVuSans-34" d="M 2419 4116 
L 825 1625 
L 2419 1625 
L 2419 4116 
z
M 2253 4666 
L 3047 4666 
L 3047 1625 
L 3713 1625 
L 3713 1100 
L 3047 1100 
L 3047 0 
L 2419 0 
L 2419 1100 
L 313 1100 
L 313 1709 
L 2253 4666 
z
" transform="scale(0.015625)"/>
       </defs>
       <use xlink:href="#DejaVuSans-34"/>
      </g>
     </g>
    </g>
   </g>
   <g id="line2d_15">
    <path d="M 57.6 209.698999 
L 62.064017 209.703435 
L 68.76 209.7177 
L 75.455983 210.025061 
L 77.688034 209.921 
L 79.92 209.662043 
L 84.384017 209.467197 
L 88.848034 210.011781 
L 91.08 209.912118 
L 93.311966 209.995759 
L 97.775983 209.78935 
L 100.008034 209.973351 
L 115.631966 209.941164 
L 131.255983 209.22461 
L 135.72 208.797561 
L 140.184017 208.096006 
L 142.415983 207.608257 
L 144.648034 206.989115 
L 146.88 206.218943 
L 149.111966 205.2424 
L 151.344017 204.020749 
L 153.575983 202.509628 
L 155.808034 200.6713 
L 158.04 198.522875 
L 160.271966 196.192675 
L 162.504017 194.056829 
L 164.735983 192.960533 
L 166.968034 194.448416 
L 171.431966 207.068296 
L 173.664017 190.561402 
L 175.895983 177.362672 
L 178.128034 173.77469 
L 180.36 179.086336 
L 184.824017 200.147715 
L 187.055983 205.732022 
L 189.288034 209.738285 
L 191.52 208.299925 
L 193.751966 209.601189 
L 195.984017 209.23777 
L 198.215983 209.643316 
L 200.448034 208.429185 
L 202.68 208.5356 
L 204.911966 207.504155 
L 207.144017 205.831718 
L 209.375983 205.820769 
L 211.608034 204.578864 
L 213.84 203.692482 
L 216.071966 203.932979 
L 218.304017 203.473625 
L 220.535983 204.419511 
L 222.768034 206.535407 
L 225 208.42277 
L 227.231966 207.820144 
L 229.464017 204.069333 
L 231.695983 201.949034 
L 233.928034 198.686235 
L 236.16 199.30496 
L 238.391966 200.272305 
L 240.624017 201.103094 
L 242.855983 204.669186 
L 245.088034 205.589156 
L 247.32 207.525287 
L 249.551966 209.635128 
L 251.784017 209.478119 
L 256.248034 208.466612 
L 258.48 208.476876 
L 260.711966 206.882399 
L 262.944017 207.029743 
L 265.175983 206.231876 
L 267.408034 205.099512 
L 269.64 205.038508 
L 271.871966 203.950679 
L 274.104017 203.509649 
L 276.335983 203.74646 
L 278.568034 203.731496 
L 280.8 205.345273 
L 283.031966 207.810487 
L 285.264017 209.802337 
L 287.495983 205.335903 
L 289.728034 202.138432 
L 291.96 200.292854 
L 294.191966 198.273255 
L 296.424017 200.258232 
L 298.655983 201.278237 
L 300.888034 203.219462 
L 303.12 206.19646 
L 305.351966 206.849387 
L 307.584017 208.867416 
L 309.815983 209.998421 
L 312.048034 209.967838 
L 314.28 208.698582 
L 316.511966 208.801745 
L 318.744017 208.396982 
L 320.975983 207.296384 
L 323.208034 207.469672 
L 325.44 206.478042 
L 327.671966 205.756508 
L 329.904017 205.446221 
L 332.135983 204.408426 
L 334.368034 204.111376 
L 336.6 204.061003 
L 338.831966 204.18573 
L 341.064017 205.804508 
L 343.295983 208.049854 
L 345.528034 209.256521 
L 347.76 204.941348 
L 349.991966 202.166973 
L 352.224017 200.181003 
L 354.455983 199.108846 
L 356.688034 201.201181 
L 358.92 202.138718 
L 361.151966 204.551344 
L 363.384017 206.696961 
L 365.615983 207.406577 
L 367.848034 209.224754 
L 370.08 209.654615 
L 372.311966 209.92024 
L 374.544017 209.238985 
L 376.775983 209.601947 
L 381.24 208.489168 
L 383.471966 208.600136 
L 385.704017 207.746133 
L 390.168034 206.973592 
L 392.4 206.131329 
L 394.631966 205.763472 
L 396.864017 205.273268 
L 399.095983 205.042785 
L 401.328034 205.680412 
L 403.56 206.775724 
L 405.791966 208.918993 
L 408.024017 208.035803 
L 412.488034 202.660905 
L 414.72 201.331859 
L 416.951966 202.217098 
L 419.184017 202.735177 
L 421.415983 204.862919 
L 423.648034 206.271836 
L 425.88 207.199646 
L 428.111966 208.604381 
L 430.344017 208.767326 
L 434.808034 209.748039 
L 437.04 209.386263 
L 439.271966 209.870041 
L 443.735983 209.630969 
L 445.968034 209.988975 
L 448.2 209.799241 
L 454.895983 210.07828 
L 461.8 209.121642 
L 461.8 209.121642 
" clip-path="url(#p8e4ea95717)" style="fill: none; stroke-dasharray: 9.6,2.4,1.5,2.4; stroke-dashoffset: 0; stroke: #0000cc; stroke-width: 1.5"/>
   </g>
   <g id="line2d_16">
    <path d="M 57.6 209.698999 
L 59.831966 209.827463 
L 68.76 209.800265 
L 75.455983 210.104056 
L 82.151966 209.632244 
L 95.544017 209.770911 
L 104.471966 209.766531 
L 120.095983 209.983973 
L 131.255983 209.904982 
L 137.951966 209.710033 
L 144.648034 209.27189 
L 146.88 209.031681 
L 153.575983 207.457511 
L 155.808034 206.703356 
L 158.04 205.778309 
L 162.504017 203.628772 
L 164.735983 202.829046 
L 166.968034 202.903397 
L 169.2 204.762778 
L 171.431966 209.312952 
L 173.664017 203.852091 
L 175.895983 197.092318 
L 178.128034 193.820625 
L 180.36 195.592167 
L 184.824017 205.287328 
L 187.055983 208.693358 
L 189.288034 209.680227 
L 193.751966 207.878198 
L 195.984017 208.032188 
L 211.608034 210.048201 
L 213.84 209.875943 
L 222.768034 208.589902 
L 225 208.477039 
L 227.231966 208.570654 
L 229.464017 208.928779 
L 233.928034 210.09975 
L 236.16 209.509894 
L 238.391966 209.193908 
L 240.624017 209.023958 
L 245.088034 209.060585 
L 254.015983 209.432088 
L 269.64 209.719826 
L 274.104017 210.091746 
L 278.568034 209.503012 
L 285.264017 208.370514 
L 287.495983 208.278461 
L 289.728034 208.42693 
L 291.96 208.858495 
L 296.424017 210.046845 
L 300.888034 209.380176 
L 305.351966 209.118637 
L 318.744017 208.857333 
L 329.904017 208.507242 
L 332.135983 208.595037 
L 334.368034 208.813801 
L 336.6 209.210488 
L 338.831966 209.82021 
L 341.064017 209.584656 
L 345.528034 207.657981 
L 347.76 206.962355 
L 349.991966 206.731914 
L 352.224017 207.06091 
L 354.455983 207.813471 
L 358.92 209.660982 
L 361.151966 209.855134 
L 363.384017 209.350446 
L 367.848034 208.801091 
L 379.008034 207.979388 
L 385.704017 207.160316 
L 390.168034 206.568962 
L 392.4 206.36638 
L 394.631966 206.320239 
L 396.864017 206.55761 
L 399.095983 207.225017 
L 401.328034 208.455021 
L 403.56 209.927929 
L 408.024017 205.170779 
L 410.255983 203.314095 
L 412.488034 202.64818 
L 414.72 203.295653 
L 416.951966 204.807611 
L 419.184017 206.781995 
L 421.415983 208.574333 
L 423.648034 209.988074 
L 428.111966 208.613605 
L 430.344017 208.187132 
L 441.504017 206.553686 
L 445.968034 205.424434 
L 450.431966 203.865057 
L 457.128034 201.175824 
L 459.36 200.653196 
L 461.8 200.893169 
L 461.8 200.893169 
" clip-path="url(#p8e4ea95717)" style="fill: none; stroke: #ff0000; stroke-width: 1.5; stroke-linecap: square"/>
   </g>
   <g id="patch_8">
    <path d="M 57.6 213.662118 
L 57.6 135.393882 
" style="fill: none; stroke: #000000; stroke-width: 0.8; stroke-linejoin: miter; stroke-linecap: square"/>
   </g>
   <g id="patch_9">
    <path d="M 414.72 213.662118 
L 414.72 135.393882 
" style="fill: none; stroke: #000000; stroke-width: 0.8; stroke-linejoin: miter; stroke-linecap: square"/>
   </g>
   <g id="patch_10">
    <path d="M 57.6 213.662118 
L 414.72 213.662118 
" style="fill: none; stroke: #000000; stroke-width: 0.8; stroke-linejoin: miter; stroke-linecap: square"/>
   </g>
   <g id="patch_11">
    <path d="M 57.6 135.393882 
L 414.72 135.393882 
" style="fill: none; stroke: #000000; stroke-width: 0.8; stroke-linejoin: miter; stroke-linecap: square"/>
   </g>
  </g>
  <g id="axes_3">
   <g id="patch_12">
    <path d="M 57.6 307.584 
L 414.72 307.584 
L 414.72 229.315765 
L 57.6 229.315765 
z
" style="fill: #ffffff"/>
   </g>
   <g id="matplotlib.axis_5">
    <g id="xtick_7">
     <g id="line2d_17">
      <g>
       <use xlink:href="#m75bf243aaf" x="57.6" y="307.584" style="stroke: #000000; stroke-width: 0.8"/>
      </g>
     </g>
     <g id="text_7">
      <!-- 10 -->
      <g transform="translate(51.2375 322.182437)scale(0.1 -0.1)">
       <use xlink:href="#DejaVuSans-31"/>
       <use xlink:href="#DejaVuSans-30" x="63.623047"/>
      </g>
     </g>
    </g>
    <g id="xtick_8">
     <g id="line2d_18">
      <g>
       <use xlink:href="#m75bf243aaf" x="236.16" y="307.584" style="stroke: #000000; stroke-width: 0.8"/>
      </g>
     </g>
     <g id="text_8">
      <!-- 12 -->
      <g transform="translate(229.7975 322.182437)scale(0.1 -0.1)">
       <use xlink:href="#DejaVuSans-31"/>
       <use xlink:href="#DejaVuSans-32" x="63.623047"/>
      </g>
     </g>
    </g>
    <g id="xtick_9">
     <g id="line2d_19">
      <g>
       <use xlink:href="#m75bf243aaf" x="414.72" y="307.584" style="stroke: #000000; stroke-width: 0.8"/>
      </g>
     </g>
     <g id="text_9">
      <!-- 14 -->
      <g transform="translate(408.3575 322.182437)scale(0.1 -0.1)">
       <use xlink:href="#DejaVuSans-31"/>
       <use xlink:href="#DejaVuSans-34" x="63.623047"/>
      </g>
     </g>
    </g>
   </g>
   <g id="matplotlib.axis_6">
    <g id="ytick_7">
     <g id="line2d_20">
      <g>
       <use xlink:href="#m5e081296ab" x="57.6" y="304.027513" style="stroke: #000000; stroke-width: 0.8"/>
      </g>
     </g>
     <g id="text_10">
      <!-- 0 -->
      <g transform="translate(44.2375 307.826732)scale(0.1 -0.1)">
       <use xlink:href="#DejaVuSans-30"/>
      </g>
     </g>
    </g>
    <g id="ytick_8">
     <g id="line2d_21">
      <g>
       <use xlink:href="#m5e081296ab" x="57.6" y="275.736411" style="stroke: #000000; stroke-width: 0.8"/>
      </g>
     </g>
     <g id="text_11">
      <!-- 2 -->
      <g transform="translate(44.2375 279.53563)scale(0.1 -0.1)">
       <use xlink:href="#DejaVuSans-32"/>
      </g>
     </g>
    </g>
    <g id="ytick_9">
     <g id="line2d_22">
      <g>
       <use xlink:href="#m5e081296ab" x="57.6" y="247.445309" style="stroke: #000000; stroke-width: 0.8"/>
      </g>
     </g>
     <g id="text_12">
      <!-- 4 -->
      <g transform="translate(44.2375 251.244528)scale(0.1 -0.1)">
       <use xlink:href="#DejaVuSans-34"/>
      </g>
     </g>
    </g>
   </g>
   <g id="line2d_23">
    <path d="M 57.6 303.860353 
L 77.688034 303.34828 
L 82.151966 303.651154 
L 84.384017 303.895325 
L 88.848034 303.964237 
L 106.704017 303.986869 
L 108.935983 303.901072 
L 111.168034 303.970985 
L 115.631966 303.840099 
L 117.864017 303.885288 
L 122.328034 303.809598 
L 131.255983 303.75584 
L 142.415983 303.512546 
L 146.88 303.2082 
L 149.111966 302.939937 
L 151.344017 302.523395 
L 153.575983 301.88078 
L 155.808034 300.874867 
L 158.04 299.301423 
L 160.271966 296.86692 
L 162.504017 293.19084 
L 164.735983 287.91216 
L 166.968034 281.030152 
L 169.2 273.646548 
L 171.431966 268.842597 
L 173.664017 271.146749 
L 175.895983 282.475668 
L 178.128034 298.42447 
L 180.36 295.882128 
L 182.591966 288.293508 
L 184.824017 287.290709 
L 187.055983 288.992282 
L 189.288034 290.553757 
L 191.52 293.530157 
L 193.751966 295.228638 
L 195.984017 295.397537 
L 198.215983 297.565362 
L 200.448034 298.038781 
L 202.68 298.158691 
L 204.911966 300.302146 
L 207.144017 300.4627 
L 209.375983 301.464184 
L 211.608034 303.76397 
L 213.84 303.648096 
L 216.071966 301.463632 
L 218.304017 298.81919 
L 220.535983 297.510234 
L 222.768034 294.821337 
L 225 293.205952 
L 227.231966 293.440196 
L 229.464017 293.378324 
L 231.695983 296.122639 
L 233.928034 299.501574 
L 236.16 302.297704 
L 238.391966 301.521795 
L 240.624017 299.831175 
L 242.855983 297.948298 
L 245.088034 296.538693 
L 247.32 297.25214 
L 249.551966 296.040662 
L 251.784017 296.930115 
L 254.015983 297.553722 
L 256.248034 296.913861 
L 258.48 298.693924 
L 260.711966 298.673765 
L 262.944017 299.026941 
L 265.175983 300.878267 
L 267.408034 300.915793 
L 271.871966 303.72591 
L 274.104017 302.853648 
L 278.568034 297.94417 
L 280.8 296.393042 
L 283.031966 293.858333 
L 285.264017 293.048414 
L 287.495983 293.747591 
L 289.728034 294.792453 
L 291.96 298.496526 
L 294.191966 301.829051 
L 296.424017 303.124444 
L 298.655983 299.741399 
L 300.888034 298.833294 
L 303.12 297.17256 
L 305.351966 296.923568 
L 307.584017 297.409156 
L 309.815983 296.589345 
L 312.048034 297.874793 
L 316.511966 297.865455 
L 318.744017 299.33568 
L 320.975983 299.014201 
L 323.208034 299.835838 
L 325.44 301.086557 
L 327.671966 301.159188 
L 329.904017 302.713079 
L 332.135983 303.91147 
L 334.368034 302.863198 
L 336.6 300.429547 
L 338.831966 298.416592 
L 341.064017 296.609777 
L 343.295983 294.293954 
L 345.528034 293.761981 
L 347.76 294.32457 
L 349.991966 295.87944 
L 352.224017 299.570533 
L 354.455983 302.62805 
L 356.688034 302.269183 
L 358.92 299.738751 
L 361.151966 298.960795 
L 363.384017 297.617942 
L 365.615983 297.933421 
L 367.848034 297.959787 
L 370.08 297.687575 
L 372.311966 298.78649 
L 374.544017 298.439005 
L 376.775983 298.907592 
L 379.008034 299.744987 
L 381.24 299.398089 
L 383.471966 300.311123 
L 385.704017 300.83183 
L 387.935983 300.93426 
L 390.168034 302.112912 
L 392.4 302.789711 
L 394.631966 303.653594 
L 396.864017 302.675951 
L 399.095983 301.292841 
L 401.328034 299.516925 
L 403.56 297.3981 
L 405.791966 296.299834 
L 408.024017 295.726744 
L 410.255983 296.401341 
L 414.72 301.257523 
L 416.951966 303.882591 
L 419.184017 301.728618 
L 423.648034 299.50838 
L 425.88 299.69177 
L 428.111966 299.395155 
L 430.344017 299.499394 
L 432.575983 300.057103 
L 434.808034 299.717206 
L 437.04 300.298454 
L 439.271966 300.487384 
L 441.504017 300.30708 
L 443.735983 300.925254 
L 445.968034 300.835052 
L 448.2 300.888281 
L 450.431966 301.317468 
L 452.664017 301.182286 
L 461.8 302.0138 
L 461.8 302.0138 
" clip-path="url(#p91e99da92c)" style="fill: none; stroke-dasharray: 9.6,2.4,1.5,2.4; stroke-dashoffset: 0; stroke: #0000cc; stroke-width: 1.5"/>
   </g>
   <g id="line2d_24">
    <path d="M 57.6 303.860353 
L 62.064017 303.652995 
L 75.455983 303.364138 
L 79.92 303.517206 
L 84.384017 303.924543 
L 88.848034 303.934635 
L 102.24 303.972151 
L 108.935983 304.004394 
L 133.488034 303.845162 
L 149.111966 303.829227 
L 151.344017 303.968949 
L 153.575983 303.865557 
L 155.808034 303.512839 
L 158.04 302.944047 
L 160.271966 302.033094 
L 162.504017 300.605388 
L 164.735983 298.465976 
L 166.968034 295.497823 
L 169.2 292.07346 
L 171.431966 289.072656 
L 173.664017 288.877227 
L 175.895983 292.578716 
L 178.128034 299.450501 
L 180.36 301.779143 
L 182.591966 297.917245 
L 184.824017 296.916036 
L 187.055983 297.47492 
L 193.751966 300.758957 
L 195.984017 301.247139 
L 198.215983 301.537408 
L 202.68 301.802329 
L 216.071966 302.235369 
L 218.304017 302.478183 
L 220.535983 302.836056 
L 225 303.905506 
L 227.231966 303.516132 
L 229.464017 302.939192 
L 231.695983 302.55809 
L 233.928034 302.397343 
L 236.16 302.56719 
L 240.624017 303.416652 
L 242.855983 303.795969 
L 245.088034 303.923598 
L 249.551966 303.421954 
L 256.248034 302.948148 
L 269.64 302.28283 
L 274.104017 302.159483 
L 278.568034 302.283533 
L 280.8 302.514699 
L 283.031966 302.585522 
L 287.495983 303.824836 
L 289.728034 303.537844 
L 291.96 302.983693 
L 294.191966 302.660351 
L 296.424017 302.589763 
L 298.655983 302.723487 
L 309.815983 304.009022 
L 325.44 302.483846 
L 329.904017 301.749134 
L 338.831966 300.403017 
L 341.064017 300.335796 
L 343.295983 300.576541 
L 345.528034 301.212063 
L 347.76 302.22913 
L 349.991966 303.476941 
L 352.224017 303.362421 
L 354.455983 302.424095 
L 356.688034 301.887348 
L 358.92 301.729414 
L 361.151966 301.831435 
L 365.615983 302.380239 
L 376.775983 303.909161 
L 379.008034 303.847976 
L 383.471966 303.152423 
L 387.935983 302.206062 
L 390.168034 301.57956 
L 392.4 300.823403 
L 394.631966 299.917438 
L 401.328034 296.828505 
L 403.56 296.231959 
L 405.791966 296.393196 
L 408.024017 297.532447 
L 410.255983 299.680892 
L 412.488034 302.436014 
L 414.72 302.966135 
L 416.951966 300.968793 
L 419.184017 299.774675 
L 421.415983 299.365714 
L 423.648034 299.436189 
L 428.111966 300.197437 
L 445.968034 303.807783 
L 448.2 303.573984 
L 450.431966 302.739906 
L 452.664017 301.677295 
L 454.895983 300.304126 
L 457.128034 298.537623 
L 459.36 296.254023 
L 461.8 293.068632 
L 461.8 293.068632 
" clip-path="url(#p91e99da92c)" style="fill: none; stroke: #ff0000; stroke-width: 1.5; stroke-linecap: square"/>
   </g>
   <g id="patch_13">
    <path d="M 57.6 307.584 
L 57.6 229.315765 
" style="fill: none; stroke: #000000; stroke-width: 0.8; stroke-linejoin: miter; stroke-linecap: square"/>
   </g>
   <g id="patch_14">
    <path d="M 414.72 307.584 
L 414.72 229.315765 
" style="fill: none; stroke: #000000; stroke-width: 0.8; stroke-linejoin: miter; stroke-linecap: square"/>
   </g>
   <g id="patch_15">
    <path d="M 57.6 307.584 
L 414.72 307.584 
" style="fill: none; stroke: #000000; stroke-width: 0.8; stroke-linejoin: miter; stroke-linecap: square"/>
   </g>
   <g id="patch_16">
    <path d="M 57.6 229.315765 
L 414.72 229.315765 
" style="fill: none; stroke: #000000; stroke-width: 0.8; stroke-linejoin: miter; stroke-linecap: square"/>
   </g>
  </g>
 </g>
 <defs>
  <clipPath id="p0111dedf31">
   <rect x="57.6" y="41.472" width="357.12" height="78.268235"/>
  </clipPath>
  <clipPath id="p8e4ea95717">
   <rect x="57.6" y="135.393882" width="357.12" height="78.268235"/>
  </clipPath>
  <clipPath id="p91e99da92c">
   <rect x="57.6" y="229.315765" width="357.12" height="78.268235"/>
  </clipPath>
 </defs>
</svg>
