<?xml version="1.0" encoding="utf-8" standalone="no"?>
<!DOCTYPE svg PUBLIC "-//W3C//DTD SVG 1.1//EN"
  "http://www.w3.org/Graphics/SVG/1.1/DTD/svg11.dtd">
<svg xmlns:xlink="http://www.w3.org/1999/xlink" width="460.8pt" height="345.6pt" viewBox="0 0 460.8 345.6" xmlns="http://www.w3.org/2000/svg" version="1.1">
 <metadata>
  <rdf:RDF xmlns:dc="http://purl.org/dc/elements/1.1/" xmlns:cc="http://creativecommons.org/ns#" xmlns:rdf="http://www.w3.org/1999/02/22-rdf-syntax-ns#">
   <cc:Work>
    <dc:type rdf:resource="http://purl.org/dc/dcmitype/StillImage"/>
    <dc:date>2024-02-20T17:48:17.524675</dc:date>
    <dc:format>image/svg+xml</dc:format>
    <dc:creator>
     <cc:Agent>
      <dc:title>Matplotlib v3.5.2, https://matplotlib.org/</dc:title>
     </cc:Agent>
    </dc:creator>
   </cc:Work>
  </rdf:RDF>
 </metadata>
 <defs>
  <style type="text/css">*{stroke-linejoin: round; stroke-linecap: butt}</style>
 </defs>
 <g id="figure_1">
  <g id="patch_1">
   <path d="M 0 345.6 
L 460.8 345.6 
L 460.8 0 
L 0 0 
z
" style="fill: #ffffff"/>
  </g>
  <g id="patch_2">
   <path d="M 103.104 307.584 
L 369.216 307.584 
L 369.216 41.472 
L 103.104 41.472 
z
" style="fill: #ffffff"/>
  </g>
  <g id="pane3d_1">
   <g id="patch_3">
    <path d="M 123.197291 241.969309 
L 211.076164 168.307495 
L 209.854564 62.073991 
L 117.770234 129.272941 
" style="fill: #f2f2f2; opacity: 0.5; stroke: #f2f2f2; stroke-linejoin: miter"/>
   </g>
  </g>
  <g id="pane3d_2">
   <g id="patch_4">
    <path d="M 211.076164 168.307495 
L 352.090401 209.294766 
L 357.122702 99.402171 
L 209.854564 62.073991 
" style="fill: #e6e6e6; opacity: 0.5; stroke: #e6e6e6; stroke-linejoin: miter"/>
   </g>
  </g>
  <g id="pane3d_3">
   <g id="patch_5">
    <path d="M 123.197291 241.969309 
L 272.679269 290.790123 
L 352.090401 209.294766 
L 211.076164 168.307495 
" style="fill: #ececec; opacity: 0.5; stroke: #ececec; stroke-linejoin: miter"/>
   </g>
  </g>
  <g id="axis3d_1">
   <g id="line2d_1">
    <path d="M 123.197291 241.969309 
L 272.679269 290.790123 
" style="fill: none; stroke: #000000; stroke-width: 0.8; stroke-linecap: square"/>
   </g>
   <g id="Line3DCollection_1">
    <path d="M 142.481574 248.267556 
L 229.338117 173.615523 
L 228.891403 66.899275 
" style="fill: none; stroke: #b0b0b0; stroke-width: 0.8"/>
    <path d="M 160.83226 254.26089 
L 246.696628 178.660957 
L 246.996111 71.48829 
" style="fill: none; stroke: #b0b0b0; stroke-width: 0.8"/>
    <path d="M 179.426855 260.333884 
L 264.266657 183.767871 
L 265.331008 76.135652 
" style="fill: none; stroke: #b0b0b0; stroke-width: 0.8"/>
    <path d="M 198.270254 266.488139 
L 282.052092 188.937395 
L 283.900514 80.842481 
" style="fill: none; stroke: #b0b0b0; stroke-width: 0.8"/>
    <path d="M 217.367484 272.725294 
L 300.05692 194.170688 
L 302.709159 85.609924 
" style="fill: none; stroke: #b0b0b0; stroke-width: 0.8"/>
    <path d="M 236.723709 279.047037 
L 318.285226 199.468937 
L 321.761593 90.439161 
" style="fill: none; stroke: #b0b0b0; stroke-width: 0.8"/>
    <path d="M 256.344234 285.4551 
L 336.741196 204.833358 
L 341.062587 95.3314 
" style="fill: none; stroke: #b0b0b0; stroke-width: 0.8"/>
   </g>
   <g id="xtick_1">
    <g id="line2d_2">
     <path d="M 143.238143 247.617295 
L 140.965178 249.570878 
" style="fill: none; stroke: #000000; stroke-width: 0.8; stroke-linecap: square"/>
    </g>
    <g id="text_1">
     <!-- −15 -->
     <g transform="translate(124.410434 271.647428)scale(0.1 -0.1)">
      <defs>
       <path id="DejaVuSans-2212" d="M 678 2272 
L 4684 2272 
L 4684 1741 
L 678 1741 
L 678 2272 
z
" transform="scale(0.015625)"/>
       <path id="DejaVuSans-31" d="M 794 531 
L 1825 531 
L 1825 4091 
L 703 3866 
L 703 4441 
L 1819 4666 
L 2450 4666 
L 2450 531 
L 3481 531 
L 3481 0 
L 794 0 
L 794 531 
z
" transform="scale(0.015625)"/>
       <path id="DejaVuSans-35" d="M 691 4666 
L 3169 4666 
L 3169 4134 
L 1269 4134 
L 1269 2991 
Q 1406 3038 1543 3061 
Q 1681 3084 1819 3084 
Q 2600 3084 3056 2656 
Q 3513 2228 3513 1497 
Q 3513 744 3044 326 
Q 2575 -91 1722 -91 
Q 1428 -91 1123 -41 
Q 819 9 494 109 
L 494 744 
Q 775 591 1075 516 
Q 1375 441 1709 441 
Q 2250 441 2565 725 
Q 2881 1009 2881 1497 
Q 2881 1984 2565 2268 
Q 2250 2553 1709 2553 
Q 1456 2553 1204 2497 
Q 953 2441 691 2322 
L 691 4666 
z
" transform="scale(0.015625)"/>
      </defs>
      <use xlink:href="#DejaVuSans-2212"/>
      <use xlink:href="#DejaVuSans-31" x="83.789062"/>
      <use xlink:href="#DejaVuSans-35" x="147.412109"/>
     </g>
    </g>
   </g>
   <g id="xtick_2">
    <g id="line2d_3">
     <path d="M 161.580589 253.602018 
L 159.332358 255.58149 
" style="fill: none; stroke: #000000; stroke-width: 0.8; stroke-linecap: square"/>
    </g>
    <g id="text_2">
     <!-- −10 -->
     <g transform="translate(142.780217 277.76785)scale(0.1 -0.1)">
      <defs>
       <path id="DejaVuSans-30" d="M 2034 4250 
Q 1547 4250 1301 3770 
Q 1056 3291 1056 2328 
Q 1056 1369 1301 889 
Q 1547 409 2034 409 
Q 2525 409 2770 889 
Q 3016 1369 3016 2328 
Q 3016 3291 2770 3770 
Q 2525 4250 2034 4250 
z
M 2034 4750 
Q 2819 4750 3233 4129 
Q 3647 3509 3647 2328 
Q 3647 1150 3233 529 
Q 2819 -91 2034 -91 
Q 1250 -91 836 529 
Q 422 1150 422 2328 
Q 422 3509 836 4129 
Q 1250 4750 2034 4750 
z
" transform="scale(0.015625)"/>
      </defs>
      <use xlink:href="#DejaVuSans-2212"/>
      <use xlink:href="#DejaVuSans-31" x="83.789062"/>
      <use xlink:href="#DejaVuSans-30" x="147.412109"/>
     </g>
    </g>
   </g>
   <g id="xtick_3">
    <g id="line2d_4">
     <path d="M 180.166658 259.666229 
L 177.944021 261.672109 
" style="fill: none; stroke: #000000; stroke-width: 0.8; stroke-linecap: square"/>
    </g>
    <g id="text_3">
     <!-- −5 -->
     <g transform="translate(164.576335 283.96993)scale(0.1 -0.1)">
      <use xlink:href="#DejaVuSans-2212"/>
      <use xlink:href="#DejaVuSans-35" x="83.789062"/>
     </g>
    </g>
   </g>
   <g id="xtick_4">
    <g id="line2d_5">
     <path d="M 199.001234 265.811523 
L 196.805082 267.844342 
" style="fill: none; stroke: #000000; stroke-width: 0.8; stroke-linecap: square"/>
    </g>
    <g id="text_4">
     <!-- 0 -->
     <g transform="translate(187.63107 290.255312)scale(0.1 -0.1)">
      <use xlink:href="#DejaVuSans-30"/>
     </g>
    </g>
   </g>
   <g id="xtick_5">
    <g id="line2d_6">
     <path d="M 218.089337 272.039537 
L 215.920586 274.099841 
" style="fill: none; stroke: #000000; stroke-width: 0.8; stroke-linecap: square"/>
    </g>
    <g id="text_5">
     <!-- 5 -->
     <g transform="translate(206.751056 296.625686)scale(0.1 -0.1)">
      <use xlink:href="#DejaVuSans-35"/>
     </g>
    </g>
   </g>
   <g id="xtick_6">
    <g id="line2d_7">
     <path d="M 237.436119 278.351952 
L 235.295717 280.440303 
" style="fill: none; stroke: #000000; stroke-width: 0.8; stroke-linecap: square"/>
    </g>
    <g id="text_6">
     <!-- 10 -->
     <g transform="translate(222.950096 303.082788)scale(0.1 -0.1)">
      <use xlink:href="#DejaVuSans-31"/>
      <use xlink:href="#DejaVuSans-30" x="63.623047"/>
     </g>
    </g>
   </g>
   <g id="xtick_7">
    <g id="line2d_8">
     <path d="M 257.046875 284.750495 
L 254.935802 286.86747 
" style="fill: none; stroke: #000000; stroke-width: 0.8; stroke-linecap: square"/>
    </g>
    <g id="text_7">
     <!-- 15 -->
     <g transform="translate(242.596042 309.628401)scale(0.1 -0.1)">
      <use xlink:href="#DejaVuSans-31"/>
      <use xlink:href="#DejaVuSans-35" x="63.623047"/>
     </g>
    </g>
   </g>
  </g>
  <g id="axis3d_2">
   <g id="line2d_9">
    <path d="M 352.090401 209.294766 
L 272.679269 290.790123 
" style="fill: none; stroke: #000000; stroke-width: 0.8; stroke-linecap: square"/>
   </g>
   <g id="Line3DCollection_2">
    <path d="M 131.754867 119.067592 
L 136.500328 230.81844 
L 284.745574 278.407125 
" style="fill: none; stroke: #b0b0b0; stroke-width: 0.8"/>
    <path d="M 150.179054 105.62246 
L 154.049947 216.108001 
L 300.638985 262.096576 
" style="fill: none; stroke: #b0b0b0; stroke-width: 0.8"/>
    <path d="M 167.977749 92.633783 
L 171.029094 201.875744 
L 315.98909 246.343592 
" style="fill: none; stroke: #b0b0b0; stroke-width: 0.8"/>
    <path d="M 185.182272 80.078706 
L 187.465138 188.098725 
L 330.823281 231.120063 
" style="fill: none; stroke: #b0b0b0; stroke-width: 0.8"/>
    <path d="M 201.821889 67.935871 
L 203.383728 174.755448 
L 345.167137 216.399738 
" style="fill: none; stroke: #b0b0b0; stroke-width: 0.8"/>
   </g>
   <g id="xtick_8">
    <g id="line2d_10">
     <path d="M 283.496759 278.006239 
L 287.246412 279.209927 
" style="fill: none; stroke: #000000; stroke-width: 0.8; stroke-linecap: square"/>
    </g>
    <g id="text_8">
     <!-- −20 -->
     <g transform="translate(286.985763 299.328961)scale(0.1 -0.1)">
      <defs>
       <path id="DejaVuSans-32" d="M 1228 531 
L 3431 531 
L 3431 0 
L 469 0 
L 469 531 
Q 828 903 1448 1529 
Q 2069 2156 2228 2338 
Q 2531 2678 2651 2914 
Q 2772 3150 2772 3378 
Q 2772 3750 2511 3984 
Q 2250 4219 1831 4219 
Q 1534 4219 1204 4116 
Q 875 4013 500 3803 
L 500 4441 
Q 881 4594 1212 4672 
Q 1544 4750 1819 4750 
Q 2544 4750 2975 4387 
Q 3406 4025 3406 3419 
Q 3406 3131 3298 2873 
Q 3191 2616 2906 2266 
Q 2828 2175 2409 1742 
Q 1991 1309 1228 531 
z
" transform="scale(0.015625)"/>
      </defs>
      <use xlink:href="#DejaVuSans-2212"/>
      <use xlink:href="#DejaVuSans-32" x="83.789062"/>
      <use xlink:href="#DejaVuSans-30" x="147.412109"/>
     </g>
    </g>
   </g>
   <g id="xtick_9">
    <g id="line2d_11">
     <path d="M 299.405201 261.709508 
L 303.109664 262.871689 
" style="fill: none; stroke: #000000; stroke-width: 0.8; stroke-linecap: square"/>
    </g>
    <g id="text_9">
     <!-- −10 -->
     <g transform="translate(302.665874 282.777064)scale(0.1 -0.1)">
      <use xlink:href="#DejaVuSans-2212"/>
      <use xlink:href="#DejaVuSans-31" x="83.789062"/>
      <use xlink:href="#DejaVuSans-30" x="147.412109"/>
     </g>
    </g>
   </g>
   <g id="xtick_10">
    <g id="line2d_12">
     <path d="M 314.770049 245.96964 
L 318.430194 247.092424 
" style="fill: none; stroke: #000000; stroke-width: 0.8; stroke-linecap: square"/>
    </g>
    <g id="text_10">
     <!-- 0 -->
     <g transform="translate(325.180756 266.791306)scale(0.1 -0.1)">
      <use xlink:href="#DejaVuSans-30"/>
     </g>
    </g>
   </g>
   <g id="xtick_11">
    <g id="line2d_13">
     <path d="M 329.618697 230.758571 
L 333.235384 231.843928 
" style="fill: none; stroke: #000000; stroke-width: 0.8; stroke-linecap: square"/>
    </g>
    <g id="text_11">
     <!-- 10 -->
     <g transform="translate(336.634028 251.34313)scale(0.1 -0.1)">
      <use xlink:href="#DejaVuSans-31"/>
      <use xlink:href="#DejaVuSans-30" x="63.623047"/>
     </g>
    </g>
   </g>
   <g id="xtick_12">
    <g id="line2d_14">
     <path d="M 343.976728 216.050094 
L 347.550808 217.099865 
" style="fill: none; stroke: #000000; stroke-width: 0.8; stroke-linecap: square"/>
    </g>
    <g id="text_12">
     <!-- 20 -->
     <g transform="translate(350.784546 236.405868)scale(0.1 -0.1)">
      <use xlink:href="#DejaVuSans-32"/>
      <use xlink:href="#DejaVuSans-30" x="63.623047"/>
     </g>
    </g>
   </g>
  </g>
  <g id="axis3d_3">
   <g id="line2d_15">
    <path d="M 352.090401 209.294766 
L 357.122702 99.402171 
" style="fill: none; stroke: #000000; stroke-width: 0.8; stroke-linecap: square"/>
   </g>
   <g id="Line3DCollection_3">
    <path d="M 352.638723 197.32081 
L 210.942808 156.710444 
L 122.606844 229.708289 
" style="fill: none; stroke: #b0b0b0; stroke-width: 0.8"/>
    <path d="M 353.261821 183.713933 
L 210.791339 143.538351 
L 121.935612 215.769733 
" style="fill: none; stroke: #b0b0b0; stroke-width: 0.8"/>
    <path d="M 353.891837 169.956005 
L 210.63827 130.227037 
L 121.256645 201.670529 
" style="fill: none; stroke: #b0b0b0; stroke-width: 0.8"/>
    <path d="M 354.528885 156.044497 
L 210.483574 116.774284 
L 120.569806 187.407883 
" style="fill: none; stroke: #b0b0b0; stroke-width: 0.8"/>
    <path d="M 355.173085 141.976823 
L 210.327225 103.177825 
L 119.874959 172.978937 
" style="fill: none; stroke: #b0b0b0; stroke-width: 0.8"/>
    <path d="M 355.824557 127.75034 
L 210.169198 89.435345 
L 119.171963 158.380766 
" style="fill: none; stroke: #b0b0b0; stroke-width: 0.8"/>
    <path d="M 356.483425 113.362341 
L 210.009464 75.544479 
L 118.460673 143.610373 
" style="fill: none; stroke: #b0b0b0; stroke-width: 0.8"/>
   </g>
   <g id="xtick_13">
    <g id="line2d_16">
     <path d="M 351.449232 196.9799 
L 355.020547 198.003446 
" style="fill: none; stroke: #000000; stroke-width: 0.8; stroke-linecap: square"/>
    </g>
    <g id="text_13">
     <!-- 10 -->
     <g transform="translate(364.612016 202.337648)scale(0.1 -0.1)">
      <use xlink:href="#DejaVuSans-31"/>
      <use xlink:href="#DejaVuSans-30" x="63.623047"/>
     </g>
    </g>
   </g>
   <g id="xtick_14">
    <g id="line2d_17">
     <path d="M 352.065518 183.376584 
L 355.657302 184.38944 
" style="fill: none; stroke: #000000; stroke-width: 0.8; stroke-linecap: square"/>
    </g>
    <g id="text_14">
     <!-- 15 -->
     <g transform="translate(365.334132 188.757784)scale(0.1 -0.1)">
      <use xlink:href="#DejaVuSans-31"/>
      <use xlink:href="#DejaVuSans-35" x="63.623047"/>
     </g>
    </g>
   </g>
   <g id="xtick_15">
    <g id="line2d_18">
     <path d="M 352.688643 169.622319 
L 356.301132 170.624182 
" style="fill: none; stroke: #000000; stroke-width: 0.8; stroke-linecap: square"/>
    </g>
    <g id="text_15">
     <!-- 20 -->
     <g transform="translate(366.064239 175.027629)scale(0.1 -0.1)">
      <use xlink:href="#DejaVuSans-32"/>
      <use xlink:href="#DejaVuSans-30" x="63.623047"/>
     </g>
    </g>
   </g>
   <g id="xtick_16">
    <g id="line2d_19">
     <path d="M 353.31872 155.714577 
L 356.952155 156.705138 
" style="fill: none; stroke: #000000; stroke-width: 0.8; stroke-linecap: square"/>
    </g>
    <g id="text_16">
     <!-- 25 -->
     <g transform="translate(366.802472 161.144673)scale(0.1 -0.1)">
      <use xlink:href="#DejaVuSans-32"/>
      <use xlink:href="#DejaVuSans-35" x="63.623047"/>
     </g>
    </g>
   </g>
   <g id="xtick_17">
    <g id="line2d_20">
     <path d="M 353.955868 141.650775 
L 357.610492 142.629717 
" style="fill: none; stroke: #000000; stroke-width: 0.8; stroke-linecap: square"/>
    </g>
    <g id="text_17">
     <!-- 30 -->
     <g transform="translate(367.548966 147.106353)scale(0.1 -0.1)">
      <defs>
       <path id="DejaVuSans-33" d="M 2597 2516 
Q 3050 2419 3304 2112 
Q 3559 1806 3559 1356 
Q 3559 666 3084 287 
Q 2609 -91 1734 -91 
Q 1441 -91 1130 -33 
Q 819 25 488 141 
L 488 750 
Q 750 597 1062 519 
Q 1375 441 1716 441 
Q 2309 441 2620 675 
Q 2931 909 2931 1356 
Q 2931 1769 2642 2001 
Q 2353 2234 1838 2234 
L 1294 2234 
L 1294 2753 
L 1863 2753 
Q 2328 2753 2575 2939 
Q 2822 3125 2822 3475 
Q 2822 3834 2567 4026 
Q 2313 4219 1838 4219 
Q 1578 4219 1281 4162 
Q 984 4106 628 3988 
L 628 4550 
Q 988 4650 1302 4700 
Q 1616 4750 1894 4750 
Q 2613 4750 3031 4423 
Q 3450 4097 3450 3541 
Q 3450 3153 3228 2886 
Q 3006 2619 2597 2516 
z
" transform="scale(0.015625)"/>
      </defs>
      <use xlink:href="#DejaVuSans-33"/>
      <use xlink:href="#DejaVuSans-30" x="63.623047"/>
     </g>
    </g>
   </g>
   <g id="xtick_18">
    <g id="line2d_21">
     <path d="M 354.600206 127.428271 
L 358.276266 128.395268 
" style="fill: none; stroke: #000000; stroke-width: 0.8; stroke-linecap: square"/>
    </g>
    <g id="text_18">
     <!-- 35 -->
     <g transform="translate(368.303861 132.910044)scale(0.1 -0.1)">
      <use xlink:href="#DejaVuSans-33"/>
      <use xlink:href="#DejaVuSans-35" x="63.623047"/>
     </g>
    </g>
   </g>
   <g id="xtick_19">
    <g id="line2d_22">
     <path d="M 355.251856 113.044365 
L 358.949606 113.99908 
" style="fill: none; stroke: #000000; stroke-width: 0.8; stroke-linecap: square"/>
    </g>
    <g id="text_19">
     <!-- 40 -->
     <g transform="translate(369.067301 118.553065)scale(0.1 -0.1)">
      <defs>
       <path id="DejaVuSans-34" d="M 2419 4116 
L 825 1625 
L 2419 1625 
L 2419 4116 
z
M 2253 4666 
L 3047 4666 
L 3047 1625 
L 3713 1625 
L 3713 1100 
L 3047 1100 
L 3047 0 
L 2419 0 
L 2419 1100 
L 313 1100 
L 313 1709 
L 2253 4666 
z
" transform="scale(0.015625)"/>
      </defs>
      <use xlink:href="#DejaVuSans-34"/>
      <use xlink:href="#DejaVuSans-30" x="63.623047"/>
     </g>
    </g>
   </g>
  </g>
  <g id="axes_1">
   <g id="line2d_23">
    <path d="M 226.295993 200.290705 
L 223.287049 202.855063 
L 219.538337 205.057026 
L 214.924111 206.781497 
L 209.318593 207.833898 
L 202.629235 207.907197 
L 194.858572 206.548934 
L 186.206655 203.151903 
L 177.213387 197.021503 
L 168.896181 187.603307 
L 162.753982 174.92789 
L 160.444083 160.139481 
L 163.075726 145.636497 
L 170.498048 134.31511 
L 181.236224 128.183468 
L 193.224497 127.481866 
L 204.699311 130.996345 
L 214.626681 137.023909 
L 222.642161 144.123287 
L 228.802459 151.365076 
L 233.362757 158.263024 
L 236.636954 164.617206 
L 238.92553 170.382751 
L 240.48478 175.587448 
L 241.518472 180.287265 
L 242.180609 184.544593 
L 242.58287 188.418553 
L 242.803208 191.961294 
L 242.887712 198.223448 
L 242.650078 203.606178 
L 242.126085 208.306032 
L 241.734531 210.448517 
L 241.230881 212.475573 
L 240.585888 214.403467 
L 239.760319 216.248114 
L 238.702335 218.024993 
L 237.343946 219.748469 
L 235.596376 221.430085 
L 233.344212 223.074979 
L 230.438422 224.674943 
L 226.688823 226.195519 
L 221.857905 227.5527 
L 215.660962 228.572227 
L 207.783853 228.921619 
L 197.942302 228.005654 
L 186.027053 224.831813 
L 172.39856 217.913495 
L 158.362934 205.432276 
L 146.643419 186.091832 
L 141.157005 160.924102 
L 145.198306 134.869436 
L 158.741205 115.22365 
L 177.937621 106.717698 
L 197.887195 108.591301 
L 215.382722 116.713841 
L 229.335478 127.070137 
L 239.910379 137.254479 
L 247.735113 146.265357 
L 253.505577 153.875684 
L 257.842734 160.172677 
L 264.149076 169.491263 
L 266.829339 172.787844 
L 269.531967 175.287367 
L 272.432632 177.019881 
L 275.65887 177.978061 
L 279.294077 178.123647 
L 283.373474 177.397205 
L 287.87137 175.734426 
L 292.680501 173.092979 
L 297.587478 169.493022 
L 302.25428 165.069564 
L 306.22326 160.123634 
L 308.967387 155.143017 
L 309.998409 150.753647 
L 309.015053 147.581186 
L 306.03141 146.05973 
L 301.40943 146.28633 
L 295.762738 148.015098 
L 289.779067 150.792613 
L 284.053571 154.140523 
L 278.99863 157.683345 
L 274.835788 161.18621 
L 271.637172 164.529154 
L 269.380815 167.660516 
L 267.998788 170.55688 
L 267.411132 173.198037 
L 267.546262 175.554711 
L 268.351106 177.583847 
L 269.794131 179.227174 
L 271.863423 180.410608 
L 274.560753 181.0438 
L 277.891474 181.020538 
L 281.849161 180.222048 
L 286.393462 178.526764 
L 291.420186 175.831591 
L 296.725318 172.09011 
L 301.970724 167.369921 
L 306.669202 161.920456 
L 310.216372 156.222113 
L 311.995175 150.966137 
L 311.549592 146.919458 
L 308.76735 144.689738 
L 303.96781 144.502632 
L 297.822839 146.138044 
L 291.145029 149.071102 
L 284.663379 152.711092 
L 278.890127 156.586563 
L 274.099539 160.408462 
L 270.377464 164.040402 
L 267.691677 167.436548 
L 265.953072 170.587845 
L 265.058148 173.489217 
L 264.914123 176.124464 
L 265.451388 178.461395 
L 266.627759 180.451081 
L 268.427616 182.027725 
L 270.857505 183.107752 
L 273.93846 183.588273 
L 277.694062 183.346285 
L 282.132271 182.241451 
L 287.218495 180.127209 
L 292.838112 176.87718 
L 298.750247 172.434751 
L 304.543348 166.889316 
L 309.61758 160.566615 
L 313.233482 154.08956 
L 314.661784 148.334863 
L 313.421161 144.225397 
L 309.504383 142.402741 
L 303.443663 142.965724 
L 296.143585 145.469855 
L 288.576533 149.187099 
L 281.521508 153.423892 
L 275.454317 157.705459 
L 270.572684 161.79246 
L 266.882726 165.606981 
L 264.287543 169.148239 
L 262.652827 172.434871 
L 261.847085 175.476476 
L 261.76261 178.264227 
L 262.324141 180.770276 
L 263.490493 182.949371 
L 265.252381 184.739488 
L 267.627997 186.060473 
L 270.656466 186.810899 
L 274.388067 186.864282 
L 278.86886 186.066989 
L 284.116185 184.242204 
L 290.080972 181.207468 
L 296.594482 176.816816 
L 303.30402 171.039271 
L 309.618155 164.075133 
L 314.706601 156.478836 
L 317.617523 149.201884 
L 317.546291 143.435336 
L 314.181466 140.212024 
L 307.922835 139.951238 
L 299.78044 142.284593 
L 290.992233 146.31712 
L 282.617257 151.096639 
L 275.325075 155.94518 
L 269.401043 160.526588 
L 264.860862 164.748852 
L 261.575387 168.637211 
L 259.362412 172.246032 
L 258.041256 175.616731 
L 257.459959 178.765706 
L 257.505813 181.685917 
L 258.107028 184.351951 
L 259.230378 186.723801 
L 260.877437 188.747785 
L 263.080515 190.354446 
L 265.898232 191.453794 
L 269.409668 191.928547 
L 273.704799 191.626597 
L 278.867437 190.355411 
L 284.945013 187.8842 
L 291.89828 183.964983 
L 299.525734 178.390622 
L 307.367999 171.110956 
L 314.624331 162.412363 
L 320.1577 153.107309 
L 322.69596 144.577189 
L 321.27404 138.459115 
L 315.748049 135.960661 
L 307.001888 137.221994 
L 296.604937 141.298192 
L 286.154217 146.790798 
L 276.777568 152.545432 
L 269.015852 157.941081 
L 262.962078 162.799908 
L 258.459114 167.17461 
L 255.251531 171.183438 
L 253.074483 174.928577 
L 251.696102 178.472643 
L 250.932593 181.842352 
L 250.649447 185.039933 
L 250.756722 188.0535 
L 251.20268 190.863736 
L 251.967946 193.446886 
L 253.061132 195.774807 
L 254.516182 197.812764 
L 256.391345 199.515317 
L 258.769344 200.820259 
L 261.757999 201.64028 
L 265.489881 201.85194 
L 270.118399 201.281886 
L 275.805532 199.69177 
L 282.692969 196.767161 
L 290.843784 192.124193 
L 300.138614 185.362659 
L 310.117202 176.212803 
L 319.792362 164.823003 
L 327.551377 152.157173 
L 331.374415 140.246493 
L 329.570034 131.789734 
L 321.79821 128.854829 
L 309.542401 131.520826 
L 295.403125 137.894429 
L 281.791391 145.535372 
L 270.131278 152.773278 
L 260.870897 158.987884 
L 253.861602 164.222535 
L 248.70485 168.75177 
L 244.954323 172.841679 
L 242.205728 176.672965 
L 240.125072 180.343138 
L 238.448462 183.892377 
L 235.529514 190.645063 
L 233.992666 193.8292 
L 232.24324 196.866579 
L 230.169556 199.739599 
L 227.656128 202.422981 
L 224.577059 204.87551 
L 220.792543 207.027055 
L 216.150631 208.759016 
L 210.498678 209.87613 
L 203.712505 210.069042 
L 195.755846 208.87321 
L 186.785078 205.645968 
L 177.304525 199.616097 
L 168.334621 190.101385 
L 161.45997 176.981575 
L 158.527787 161.324616 
L 160.878692 145.655271 
L 168.486966 133.205167 
L 179.798691 126.322759 
L 192.534423 125.366449 
L 204.733285 129.005978 
L 215.259969 135.340189 
L 223.732233 142.774157 
L 230.230981 150.300851 
L 235.047753 157.410873 
L 238.531555 163.907404 
L 241.012799 169.756881 
L 242.772569 174.998315 
L 244.035645 179.696012 
L 245.721094 187.723005 
L 247.003763 194.280141 
L 247.677815 197.101072 
L 248.449045 199.646142 
L 249.371313 201.924835 
L 250.502801 203.936223 
L 251.91091 205.667473 
L 253.677087 207.090964 
L 255.901747 208.159476 
L 258.709144 208.798704 
L 262.251472 208.896178 
L 266.710326 208.285686 
L 272.291471 206.727126 
L 279.204868 203.884636 
L 287.615495 199.313654 
L 297.54244 192.484672 
L 308.680814 182.900885 
L 320.144873 170.39576 
L 330.223977 155.658993 
L 336.429989 140.794173 
L 336.24198 129.227344 
L 328.554223 124.202647 
L 314.765643 126.523541 
L 298.160422 133.934845 
L 282.009474 143.03329 
L 268.243158 151.434903 
L 257.419017 158.31489 
L 249.294213 163.810472 
L 243.326492 168.356656 
L 238.940432 172.343675 
L 235.630997 176.023278 
L 232.98827 179.52341 
L 228.486138 186.116407 
L 226.175587 189.175806 
L 223.593639 192.019789 
L 220.597248 194.583884 
L 217.058211 196.779528 
L 212.86298 198.481482 
L 207.922304 199.510917 
L 202.194866 199.617125 
L 195.729934 198.465514 
L 188.731671 195.648811 
L 181.637231 190.751116 
L 175.175959 183.500675 
L 170.340925 174.019464 
L 168.1897 163.083166 
L 169.465817 152.173688 
L 174.212381 143.110432 
L 181.668263 137.351341 
L 190.569056 135.428548 
L 199.636839 136.91677 
L 207.934063 140.849924 
L 214.956246 146.200064 
L 220.54791 152.156524 
L 224.768647 158.191157 
L 227.780441 164.009189 
L 229.773672 169.472236 
L 230.925595 174.533663 
L 231.380467 179.194941 
L 231.242437 183.479138 
L 230.575135 187.415464 
L 229.404188 191.029972 
L 227.720595 194.339062 
L 225.484043 197.343415 
L 222.626309 200.02046 
L 219.055835 202.313582 
L 214.665902 204.116321 
L 209.350663 205.2503 
L 203.035909 205.437712 
L 195.734045 204.275193 
L 187.632461 201.229297 
L 179.213467 195.696895 
L 171.368717 187.196331 
L 165.405597 175.733333 
L 162.792372 162.240994 
L 164.586271 148.733548 
L 170.814735 137.755126 
L 180.330896 131.251933 
L 191.344823 129.721456 
L 202.194057 132.306237 
L 211.80054 137.548362 
L 219.699103 144.0923 
L 225.850004 150.992423 
L 230.436949 157.710164 
L 233.726663 163.993965 
L 235.989926 169.76013 
L 237.464037 175.010761 
L 238.339201 179.786159 
L 238.757452 184.139884 
L 238.817288 188.126667 
L 238.580114 191.797061 
L 238.076367 195.195443 
L 237.310316 198.35955 
L 236.263111 201.320462 
L 234.894064 204.102331 
L 233.140269 206.721182 
L 230.91483 209.181999 
L 228.104179 211.472934 
L 224.565458 213.554868 
L 220.125969 215.343594 
L 214.588858 216.680878 
L 207.753207 217.290199 
L 199.46345 216.715872 
L 189.711763 214.25688 
L 178.820471 208.942214 
L 167.704271 199.66491 
L 158.103528 185.665399 
L 152.471588 167.452101 
L 153.115456 147.674114 
L 160.763545 130.717386 
L 173.795462 120.467934 
L 189.146058 118.059092 
L 204.009274 121.850317 
L 216.781357 129.151474 
L 226.973974 137.715255 
L 234.745288 146.19995 
L 240.516342 153.9948 
L 244.761354 160.9121 
L 247.916188 166.960016 
L 254.160405 180.709799 
L 255.96206 184.080157 
L 257.910148 186.916905 
L 260.139322 189.224048 
L 262.77528 190.975501 
L 265.941775 192.111116 
L 269.763007 192.531272 
L 274.359236 192.09093 
L 279.831791 190.596116 
L 286.231597 187.809632 
L 293.50407 183.479098 
L 301.405916 177.408033 
L 309.402908 169.592348 
L 316.590607 160.421437 
L 321.729786 150.868487 
L 323.511584 142.479044 
L 321.068457 136.943434 
L 314.489458 135.320831 
L 304.917869 137.459781 
L 294.067491 142.169351 
L 283.518697 147.981887 
L 274.28565 153.819484 
L 266.784171 159.177452 
L 261.015724 163.964228 
L 256.77077 168.27517 
L 253.770097 172.241088 
L 251.741868 175.962701 
L 250.455459 179.497388 
L 249.731334 182.867574 
L 249.439358 186.07358 
L 249.492583 189.104026 
L 249.840179 191.942183 
L 250.461304 194.568725 
L 251.360628 196.961839 
L 252.56569 199.095415 
L 254.125981 200.935701 
L 256.113492 202.436395 
L 258.624245 203.531842 
L 261.780006 204.12774 
L 265.728621 204.08873 
L 270.639984 203.222731 
L 276.69203 201.263738 
L 284.036875 197.859609 
L 292.731644 192.581934 
L 302.615011 184.99384 
L 313.12063 174.833818 
L 323.067656 162.368002 
L 330.582442 148.849349 
L 333.436716 136.726077 
L 329.991481 128.982021 
L 320.328182 127.497318 
L 306.504923 131.717061 
L 291.46236 139.167706 
L 277.578812 147.264921 
L 266.045355 154.528601 
L 257.079056 160.583158 
L 250.380587 165.627134 
L 245.473928 169.997232 
L 241.880266 173.968997 
L 239.185321 177.712512 
L 237.05415 181.311049 
L 231.67937 191.381898 
L 229.657627 194.449596 
L 227.293022 197.326999 
L 224.458743 199.97104 
L 221.024417 202.316901 
L 216.855099 204.262888 
L 211.818311 205.648877 
L 205.804545 206.228188 
L 198.769764 205.636605 
L 190.810278 203.372517 
L 182.275257 198.822468 
L 173.897589 191.394081 
L 166.866156 180.824474 
L 162.689187 167.641821 
L 162.716231 153.511135 
L 167.446216 140.979685 
L 176.122001 132.448902 
L 187.040764 129.042042 
L 198.351679 130.310066 
L 208.699988 134.859342 
L 217.400719 141.184993 
L 224.289828 148.148126 
L 229.501384 155.061003 
L 233.296216 161.582027 
L 235.960425 167.58168 
L 237.754786 173.042408 
L 238.89442 177.998313 
L 239.544741 182.502982 
L 239.825194 186.613717 
L 239.815954 190.384474 
L 239.564884 193.8632 
L 239.093435 197.091287 
L 238.400899 200.103913 
L 237.466896 202.930572 
L 236.252152 205.595281 
L 234.697684 208.11599 
L 232.722602 210.502616 
L 230.220791 212.752772 
L 227.057064 214.843724 
L 223.064094 216.718217 
L 218.042988 218.260568 
L 211.773507 219.258227 
L 204.045771 219.344216 
L 194.734523 217.922102 
L 183.947031 214.098195 
L 172.27113 206.703874 
L 161.086247 194.588933 
L 152.713001 177.406703 
L 149.931313 156.771602 
L 154.585174 136.743361 
L 166.115301 122.238436 
L 181.66172 116.068095 
L 197.830716 117.588495 
L 212.289756 124.05958 
L 224.087186 132.688008 
L 233.195154 141.622005 
L 240.006142 149.947317 
L 245.030719 157.341726 
L 248.759967 163.771599 
L 253.941284 174.067776 
L 256.009032 178.124792 
L 258.035168 181.549962 
L 260.195217 184.379958 
L 262.638086 186.620308 
L 265.496915 188.243143 
L 268.895519 189.184108 
L 272.9489 189.338771 
L 277.755286 188.560304 
L 283.375823 186.662762 
L 289.796879 183.43842 
L 296.870874 178.702939 
L 304.23859 172.385296 
L 311.254753 164.670162 
L 316.971681 156.161566 
L 320.265525 147.960999 
L 320.162437 141.492738 
L 316.280589 138.001645 
L 309.114466 137.958989 
L 299.896678 140.847332 
L 290.095763 145.53115 
L 280.910296 150.874047 
L 273.04156 156.130202 
L 266.737746 160.98153 
L 261.952716 165.385883 
L 258.497208 169.415423 
L 256.140388 173.157208 
L 254.665178 176.67254 
L 253.89286 179.990089 
L 253.690414 183.112308 
L 253.969461 186.023964 
L 254.681959 188.69827 
L 255.815426 191.099542 
L 257.388923 193.182606 
L 259.450148 194.889409 
L 262.073309 196.143141 
L 265.356752 196.840005 
L 269.418422 196.838929 
L 274.385747 195.950396 
L 280.374269 193.927986 
L 287.446413 190.471381 
L 295.539543 185.258713 
L 304.3556 178.037952 
L 313.223767 168.810916 
L 320.996792 158.108835 
L 326.117329 147.240951 
L 327.018444 138.21974 
L 322.843843 133.068693 
L 314.065972 132.735191 
L 302.404568 136.517619 
L 290.005288 142.631061 
L 278.560438 149.328922 
L 268.955956 155.58078 
L 261.403014 161.064382 
L 255.725184 165.852984 
L 251.590563 170.1409 
L 248.645254 174.103093 
L 246.574057 177.853882 
L 245.120195 181.452171 
L 244.08515 184.92002 
L 243.320251 188.259988 
L 240.526953 202.904293 
L 239.790438 205.42948 
L 238.88649 207.837339 
L 237.759726 210.13901 
L 236.342363 212.345156 
L 234.549428 214.463543 
L 232.273374 216.49497 
L 229.378182 218.426189 
L 225.693612 220.217558 
L 221.011527 221.78181 
L 215.088866 222.948481 
L 207.667211 223.407107 
L 198.528498 222.624369 
L 187.620686 219.745334 
L 175.29716 213.537912 
L 162.681604 202.548995 
L 152.00853 185.772421 
L 146.450217 163.984267 
L 148.810124 140.94337 
L 159.487825 122.479838 
L 175.779073 112.997637 
L 193.64443 112.781684 
L 209.99468 118.92236 
L 223.450962 127.973423 
L 233.86546 137.540656 
L 241.659092 146.432009 
L 247.414609 154.234339 
L 247.414609 154.234339 
" clip-path="url(#p6c0aff2625)" style="fill: none; stroke: #0000cc; stroke-linecap: square"/>
   </g>
   <g id="line2d_24">
    <path d="M 225.402583 200.073653 
L 223.401292 202.349235 
L 218.656473 204.469551 
L 209.991555 207.520276 
L 201.889569 208.184836 
L 195.784802 206.826073 
L 186.381385 203.365901 
L 177.159657 196.962133 
L 169.536321 186.83384 
L 162.316021 174.250876 
L 160.448419 159.875107 
L 162.76991 145.656301 
L 170.446874 133.837622 
L 180.548644 128.172527 
L 192.232179 128.132291 
L 204.526343 131.251827 
L 215.18812 137.329136 
L 223.030996 144.010595 
L 228.422513 150.82525 
L 237.132477 165.177408 
L 238.46474 170.791727 
L 240.937328 175.377954 
L 240.968822 179.762176 
L 241.664669 185.04582 
L 242.835333 188.977625 
L 243.625682 192.260805 
L 242.821399 194.962362 
L 242.220265 198.095282 
L 242.670694 201.248156 
L 242.715928 204.056656 
L 242.635498 206.290175 
L 242.060301 208.243325 
L 242.196155 209.625704 
L 240.255029 212.419065 
L 240.830552 216.910815 
L 238.170688 217.441631 
L 237.365915 219.076982 
L 236.696072 221.528682 
L 233.615952 224.029052 
L 231.258131 224.486301 
L 227.623878 226.996838 
L 221.45029 226.919017 
L 215.832145 227.786153 
L 207.398399 229.594166 
L 198.126855 228.431472 
L 186.726824 225.145934 
L 172.567104 217.681466 
L 158.333764 204.612507 
L 145.955267 186.919672 
L 141.046793 160.403877 
L 145.124254 134.298177 
L 157.470787 115.631263 
L 177.690076 107.426165 
L 198.00042 108.798664 
L 215.282641 117.033951 
L 229.680691 126.722509 
L 240.043546 136.824908 
L 248.699124 146.213414 
L 254.588803 154.051785 
L 257.533575 160.334961 
L 262.49715 166.232288 
L 264.122086 169.917271 
L 266.079676 172.989019 
L 269.305018 174.850823 
L 272.964008 177.234519 
L 275.07134 178.439922 
L 280.24189 178.163853 
L 287.756035 175.44031 
L 292.362071 173.337969 
L 297.545863 169.152592 
L 301.379155 165.521901 
L 306.29104 160.018818 
L 308.859537 155.205051 
L 310.055506 151.169989 
L 307.565624 146.570211 
L 306.564017 147.049791 
L 301.410829 146.338489 
L 295.783269 147.506726 
L 289.089937 149.952079 
L 284.359305 155.685272 
L 280.429441 157.420388 
L 274.909742 160.611218 
L 271.960358 165.217678 
L 269.809129 167.469816 
L 268.535422 170.257183 
L 268.356915 173.118991 
L 267.489724 174.715285 
L 268.615667 177.768801 
L 268.722064 179.390141 
L 270.960837 179.898809 
L 273.983536 181.318557 
L 277.075522 180.495555 
L 282.466988 180.475219 
L 286.553763 179.129506 
L 290.530653 177.117533 
L 296.931142 171.956341 
L 303.613747 167.720163 
L 305.893121 161.605634 
L 310.349325 156.520204 
L 312.520157 150.701808 
L 311.77726 147.151054 
L 310.074625 144.699911 
L 304.375765 145.601851 
L 298.336528 145.97426 
L 290.923432 150.048335 
L 284.502184 152.688912 
L 278.982368 156.664048 
L 274.096474 159.151564 
L 270.059597 164.515493 
L 267.088533 167.769114 
L 266.543594 170.69047 
L 265.218263 173.127629 
L 265.088845 176.230494 
L 264.841627 178.842567 
L 268.606686 181.997565 
L 271.162982 183.433944 
L 273.889232 183.604028 
L 277.896789 183.595686 
L 281.717597 182.086582 
L 287.208119 180.210101 
L 291.06484 177.617727 
L 298.604523 172.24695 
L 304.718036 166.851303 
L 310.223118 160.19768 
L 312.545878 154.211452 
L 314.337661 148.902316 
L 313.49412 144.369725 
L 309.285614 142.216557 
L 304.148385 142.262067 
L 296.060717 145.725284 
L 289.417669 149.55127 
L 281.596583 152.4175 
L 275.32331 157.984455 
L 271.471085 161.707342 
L 266.886438 165.333345 
L 264.696103 168.54457 
L 262.236511 172.683193 
L 262.193045 174.570942 
L 261.307394 178.883016 
L 262.520747 180.143356 
L 262.419367 183.083945 
L 265.142285 184.427443 
L 267.015826 186.13192 
L 271.246397 187.003904 
L 275.252107 186.758757 
L 278.024109 186.388437 
L 284.925152 184.555592 
L 291.205065 180.535316 
L 297.889125 177.430984 
L 303.962765 171.349051 
L 309.263822 163.862165 
L 315.086055 156.623015 
L 318.092215 149.331249 
L 317.556823 143.394454 
L 313.783194 139.729526 
L 299.941075 142.252635 
L 290.611137 146.584589 
L 282.110645 151.310171 
L 276.630362 156.095359 
L 269.777326 160.324033 
L 265.322185 165.50512 
L 261.244309 168.648492 
L 260.483252 172.032226 
L 258.144458 174.918401 
L 257.572651 178.903028 
L 256.461784 181.060543 
L 258.667003 184.556347 
L 259.148466 186.221688 
L 260.96984 188.233169 
L 262.585707 190.543426 
L 264.777226 191.978338 
L 270.323255 192.151135 
L 272.758862 191.904635 
L 279.052826 190.76478 
L 285.507338 188.971852 
L 292.410047 183.736835 
L 298.683464 178.419187 
L 307.331199 171.481861 
L 313.036341 162.743757 
L 319.8773 153.475239 
L 323.28768 144.714892 
L 320.364532 139.087422 
L 315.704797 136.661311 
L 307.04536 137.172509 
L 297.114328 140.807059 
L 285.721328 146.87897 
L 276.692348 152.265994 
L 262.821482 163.500759 
L 258.672027 166.441219 
L 255.545283 171.53993 
L 253.755231 175.344684 
L 250.787216 177.937293 
L 251.224435 182.28269 
L 249.889452 185.59095 
L 249.96756 188.487829 
L 250.27345 191.292262 
L 252.571243 193.056993 
L 253.003827 196.087165 
L 254.201268 198.123755 
L 256.099273 199.179307 
L 259.786249 200.867436 
L 261.447407 200.843729 
L 266.186483 202.578422 
L 270.200119 201.03092 
L 276.816048 199.294051 
L 283.017941 197.003925 
L 291.328222 191.824396 
L 299.123317 184.509402 
L 308.617453 176.13482 
L 318.076239 164.307886 
L 327.299127 152.054251 
L 332.304803 140.41045 
L 328.715815 132.336082 
L 320.899869 128.924141 
L 309.86663 132.739563 
L 295.277923 137.294377 
L 282.035868 144.614778 
L 268.961637 152.618919 
L 259.99875 158.662263 
L 253.833256 164.098286 
L 248.607956 169.665356 
L 245.14621 172.761894 
L 241.997519 175.874557 
L 239.614886 181.181828 
L 239.24833 184.209305 
L 237.21775 186.662345 
L 235.365087 190.51856 
L 234.260517 194.166951 
L 232.293519 197.201534 
L 230.711397 199.238198 
L 227.549307 202.933366 
L 224.779665 204.731032 
L 220.861299 207.010048 
L 216.066029 208.368362 
L 211.520341 210.013533 
L 202.399255 209.785971 
L 195.347191 208.811356 
L 187.175706 205.477075 
L 178.811282 199.51981 
L 168.345155 190.466617 
L 161.156735 177.114797 
L 158.292423 160.925861 
L 160.549255 146.622403 
L 168.580248 133.760477 
L 179.697559 127.126945 
L 193.31049 126.034705 
L 204.851792 129.024508 
L 225.240652 143.095965 
L 230.149907 150.682645 
L 234.540828 156.905646 
L 240.470664 169.663928 
L 242.223272 174.982932 
L 244.466698 179.739678 
L 246.022746 183.33916 
L 245.930759 187.938311 
L 244.696424 190.397669 
L 247.234296 194.492387 
L 246.123024 197.507514 
L 249.069458 200.101206 
L 250.045674 201.252365 
L 250.872812 203.822837 
L 251.871699 205.003248 
L 251.282631 207.406056 
L 257.020845 208.635246 
L 258.389314 208.538433 
L 261.759344 208.002893 
L 266.557881 208.218452 
L 273.051636 206.144152 
L 279.026513 204.452384 
L 288.228674 198.705981 
L 297.197467 192.28509 
L 308.702946 181.973383 
L 319.941941 170.216915 
L 330.261506 155.664554 
L 336.276325 140.514679 
L 336.688836 128.109432 
L 328.558414 124.810918 
L 315.017422 127.348913 
L 297.602754 134.618152 
L 280.99591 142.234966 
L 256.658015 158.24654 
L 248.852545 163.629636 
L 242.423129 168.238897 
L 236.064585 175.792929 
L 233.289472 179.037284 
L 230.641143 182.544959 
L 227.13114 189.465013 
L 222.853295 192.7873 
L 220.504147 194.38007 
L 216.933834 197.095755 
L 213.428386 198.400176 
L 209.300073 200.141816 
L 201.720673 199.922088 
L 189.551331 196.121777 
L 180.686049 190.465608 
L 174.408161 183.58822 
L 170.759687 174.830202 
L 167.183738 162.643705 
L 169.820073 151.747987 
L 173.335697 142.635774 
L 181.712846 139.101276 
L 190.547033 135.888905 
L 201.068567 137.65861 
L 207.57407 140.939769 
L 214.787244 145.836851 
L 220.609922 152.084221 
L 224.552195 158.283349 
L 226.802903 164.435387 
L 229.416807 169.758744 
L 230.699321 174.593481 
L 230.852428 179.101254 
L 230.009233 184.543957 
L 230.660027 187.887215 
L 230.528776 191.352959 
L 226.84924 194.080177 
L 224.837137 198.196587 
L 223.16197 199.979259 
L 218.877457 201.675359 
L 215.115384 203.740596 
L 209.785458 205.001059 
L 202.936198 205.431996 
L 195.478809 203.845814 
L 186.845664 201.741462 
L 179.391828 195.69735 
L 170.351427 185.674364 
L 164.924751 175.41347 
L 161.7282 161.776439 
L 164.446899 149.458194 
L 170.854146 137.6917 
L 180.808764 131.82636 
L 191.345928 129.684744 
L 203.274607 132.074472 
L 212.150603 137.762967 
L 218.20985 143.733403 
L 225.92135 150.467475 
L 233.2494 163.219174 
L 236.44907 170.161017 
L 238.044137 174.826282 
L 237.876049 180.142685 
L 238.941836 183.289326 
L 238.32286 187.892451 
L 238.175118 191.408247 
L 235.829704 195.308032 
L 237.249521 198.480668 
L 235.868859 202.033894 
L 233.209835 206.239863 
L 230.709094 209.228023 
L 228.568792 211.50242 
L 225.250693 212.557354 
L 220.274832 214.989911 
L 213.694458 216.841012 
L 208.744363 217.945705 
L 189.97338 214.127912 
L 178.957047 208.624183 
L 167.374111 199.841041 
L 157.317121 186.142993 
L 152.28001 167.563145 
L 154.247348 148.419186 
L 161.249607 130.427867 
L 173.014083 120.018803 
L 188.83621 117.938046 
L 203.817443 120.799483 
L 216.969731 128.819427 
L 226.404641 138.326358 
L 234.894994 145.710823 
L 239.71387 154.503882 
L 243.911485 160.256382 
L 248.177558 166.62654 
L 249.730714 173.017104 
L 252.801151 176.707491 
L 254.661519 180.129834 
L 255.336353 183.86952 
L 258.868531 186.831708 
L 259.204078 189.004373 
L 262.164733 190.785334 
L 266.091216 192.24422 
L 269.829194 192.354939 
L 274.803233 191.336618 
L 279.115562 189.849864 
L 286.8005 188.480723 
L 294.742142 183.266832 
L 301.177688 176.760069 
L 308.695142 169.697357 
L 316.671057 159.829082 
L 321.969395 150.189718 
L 322.617264 142.701496 
L 320.712278 136.969533 
L 314.069836 135.000169 
L 304.797908 136.500109 
L 294.695809 142.149128 
L 273.207432 153.715748 
L 267.103825 159.585001 
L 261.617018 163.350008 
L 257.286116 168.286439 
L 253.968707 171.718174 
L 252.23592 175.424358 
L 250.433433 179.816953 
L 250.196338 183.125015 
L 249.064259 185.617403 
L 249.762013 188.310321 
L 250.340753 192.272013 
L 249.791959 194.508819 
L 251.949801 196.875787 
L 252.853427 198.068946 
L 253.843305 200.78501 
L 256.37176 201.171497 
L 259.131596 203.405889 
L 263.216845 204.440692 
L 266.122058 204.00445 
L 270.216568 203.698737 
L 276.376939 201.842148 
L 285.013859 198.033016 
L 293.856408 192.931904 
L 302.517519 184.780276 
L 313.091212 174.59575 
L 322.090504 162.253714 
L 330.697572 149.226052 
L 333.401354 136.171405 
L 329.137188 128.439158 
L 320.53641 127.251304 
L 306.399152 131.956724 
L 290.768533 138.667787 
L 276.652382 147.620441 
L 265.278901 153.997225 
L 256.311406 159.735083 
L 250.698108 164.952818 
L 244.587417 169.350267 
L 239.173902 177.462439 
L 236.681624 181.93754 
L 234.305931 184.367061 
L 234.179333 188.034277 
L 230.795551 190.08032 
L 229.708386 194.966179 
L 226.869622 197.148219 
L 225.228081 200.369921 
L 221.876059 202.824709 
L 217.385677 204.526486 
L 210.053681 206.115646 
L 205.538521 205.885194 
L 198.944826 206.178599 
L 191.413558 204.438525 
L 183.199419 198.950931 
L 173.845116 192.51588 
L 168.536899 181.575164 
L 162.286058 166.972556 
L 163.187679 152.810892 
L 167.178388 140.788557 
L 175.764569 131.270637 
L 186.750827 128.538769 
L 197.980951 130.771589 
L 208.294023 134.734536 
L 218.271412 142.276896 
L 224.675068 148.127299 
L 228.214037 155.031595 
L 233.576539 161.300555 
L 235.990315 167.506867 
L 236.407905 173.226061 
L 238.900201 177.115582 
L 238.747127 182.704417 
L 240.817911 186.055967 
L 240.011061 189.938926 
L 238.62678 193.719274 
L 239.432029 196.803607 
L 237.02588 200.472096 
L 237.483267 202.382803 
L 236.970522 205.650961 
L 234.26501 208.851741 
L 233.676501 210.154104 
L 231.274008 213.039719 
L 226.710859 215.126733 
L 223.26461 217.027621 
L 218.816087 218.524164 
L 210.845152 218.730436 
L 204.566399 219.212453 
L 194.42076 217.270727 
L 183.664149 213.037668 
L 173.395119 206.667865 
L 161.531342 194.408009 
L 154.010077 176.408442 
L 150.714545 156.37579 
L 153.584131 135.43412 
L 167.338979 122.345222 
L 180.962752 115.241061 
L 197.995831 117.038346 
L 212.300131 124.291592 
L 223.633723 133.047097 
L 234.379423 141.976993 
L 245.639785 157.339691 
L 247.784343 163.79551 
L 250.709585 169.217169 
L 253.886997 174.011617 
L 256.708206 177.762025 
L 258.624911 182.247996 
L 260.046167 184.583176 
L 262.394671 186.20605 
L 265.365206 187.754079 
L 268.705422 188.815536 
L 272.251032 187.532095 
L 278.19538 189.015159 
L 283.034996 187.319585 
L 290.712131 183.589143 
L 295.719762 178.893662 
L 303.875223 171.935503 
L 312.727733 164.660355 
L 317.230923 155.881586 
L 320.423059 147.747943 
L 320.584287 141.541343 
L 315.791128 137.153498 
L 308.879463 137.928971 
L 299.986841 140.443602 
L 289.773193 144.398334 
L 280.653479 150.255186 
L 271.962551 155.625824 
L 266.705583 160.691229 
L 262.486612 164.974808 
L 259.862854 169.520772 
L 255.578251 173.827812 
L 254.206517 175.665973 
L 253.433557 180.390793 
L 253.369721 182.843351 
L 253.17633 185.375959 
L 255.079323 187.452378 
L 255.862848 191.452129 
L 257.674646 193.346732 
L 260.233587 195.460642 
L 262.084179 196.196804 
L 265.120671 197.687535 
L 275.638713 195.563195 
L 280.018468 194.447136 
L 286.651157 190.023453 
L 295.998796 185.063463 
L 305.074763 178.209179 
L 313.694855 167.943947 
L 321.726671 159.613965 
L 325.808474 147.129363 
L 326.854441 138.274048 
L 321.958092 133.320451 
L 313.67107 131.770125 
L 289.621024 142.708006 
L 279.002207 149.215685 
L 268.248958 155.099865 
L 260.046798 161.346792 
L 255.451449 166.04021 
L 252.146584 169.210717 
L 248.798444 172.985132 
L 246.855717 177.734504 
L 245.495416 180.658959 
L 243.743373 184.705935 
L 243.880256 189.000411 
L 242.597711 192.172944 
L 241.759853 195.0033 
L 241.270819 197.243197 
L 241.056912 200.092323 
L 240.263632 204.455195 
L 240.154453 205.76533 
L 238.692626 207.600854 
L 237.188003 210.187275 
L 236.922659 211.779332 
L 234.722339 214.877372 
L 233.031371 216.481459 
L 228.983297 218.064415 
L 225.706291 219.618548 
L 220.297885 221.944933 
L 214.829994 223.222726 
L 198.419556 223.060441 
L 186.945905 219.762166 
L 174.478559 212.541514 
L 162.11976 202.169269 
L 150.935893 185.054276 
L 146.708124 163.63689 
L 148.312278 140.765301 
L 158.780489 121.963635 
L 175.641351 112.014439 
L 192.458227 112.627029 
L 209.928494 119.31201 
L 223.553668 127.723376 
L 233.048333 137.477841 
L 241.193777 146.835215 
L 247.358102 154.11685 
L 247.358102 154.11685 
" clip-path="url(#p6c0aff2625)" style="fill: none; stroke: #ff0000; stroke-linecap: square"/>
   </g>
  </g>
 </g>
 <defs>
  <clipPath id="p6c0aff2625">
   <rect x="103.104" y="41.472" width="266.112" height="266.112"/>
  </clipPath>
 </defs>
</svg>
