<?xml version="1.0" encoding="utf-8" standalone="no"?>
<!DOCTYPE svg PUBLIC "-//W3C//DTD SVG 1.1//EN"
  "http://www.w3.org/Graphics/SVG/1.1/DTD/svg11.dtd">
<svg xmlns:xlink="http://www.w3.org/1999/xlink" width="460.8pt" height="345.6pt" viewBox="0 0 460.8 345.6" xmlns="http://www.w3.org/2000/svg" version="1.1">
 <metadata>
  <rdf:RDF xmlns:dc="http://purl.org/dc/elements/1.1/" xmlns:cc="http://creativecommons.org/ns#" xmlns:rdf="http://www.w3.org/1999/02/22-rdf-syntax-ns#">
   <cc:Work>
    <dc:type rdf:resource="http://purl.org/dc/dcmitype/StillImage"/>
    <dc:date>2023-11-26T02:11:53.959513</dc:date>
    <dc:format>image/svg+xml</dc:format>
    <dc:creator>
     <cc:Agent>
      <dc:title>Matplotlib v3.5.2, https://matplotlib.org/</dc:title>
     </cc:Agent>
    </dc:creator>
   </cc:Work>
  </rdf:RDF>
 </metadata>
 <defs>
  <style type="text/css">*{stroke-linejoin: round; stroke-linecap: butt}</style>
 </defs>
 <g id="figure_1">
  <g id="patch_1">
   <path d="M 0 345.6 
L 460.8 345.6 
L 460.8 0 
L 0 0 
z
" style="fill: #ffffff"/>
  </g>
  <g id="patch_2">
   <path d="M 103.104 307.584 
L 369.216 307.584 
L 369.216 41.472 
L 103.104 41.472 
z
" style="fill: #ffffff"/>
  </g>
  <g id="pane3d_1">
   <g id="patch_3">
    <path d="M 120.911085 228.053836 
L 239.756108 177.34737 
L 239.756108 67.498279 
L 116.340379 111.613074 
" style="fill: #f2f2f2; opacity: 0.5; stroke: #f2f2f2; stroke-linejoin: miter"/>
   </g>
  </g>
  <g id="pane3d_2">
   <g id="patch_4">
    <path d="M 239.756108 177.34737 
L 358.601131 228.053836 
L 363.171838 111.613074 
L 239.756108 67.498279 
" style="fill: #e6e6e6; opacity: 0.5; stroke: #e6e6e6; stroke-linejoin: miter"/>
   </g>
  </g>
  <g id="pane3d_3">
   <g id="patch_5">
    <path d="M 120.911085 228.053836 
L 239.756108 286.968713 
L 358.601131 228.053836 
L 239.756108 177.34737 
" style="fill: #ececec; opacity: 0.5; stroke: #ececec; stroke-linejoin: miter"/>
   </g>
  </g>
  <g id="axis3d_1">
   <g id="line2d_1">
    <path d="M 120.911085 228.053836 
L 239.756108 286.968713 
" style="fill: none; stroke: #000000; stroke-width: 0.8; stroke-linecap: square"/>
   </g>
   <g id="Line3DCollection_1">
    <path d="M 133.433308 234.26146 
L 252.341462 182.717042 
L 252.794254 72.158748 
" style="fill: none; stroke: #b0b0b0; stroke-width: 0.8"/>
    <path d="M 148.153135 241.558499 
L 267.116401 189.020923 
L 268.110184 77.633407 
" style="fill: none; stroke: #b0b0b0; stroke-width: 0.8"/>
    <path d="M 163.168539 249.002064 
L 282.166805 195.442335 
L 283.722136 83.213879 
" style="fill: none; stroke: #b0b0b0; stroke-width: 0.8"/>
    <path d="M 178.488513 256.596613 
L 297.500448 201.984593 
L 299.638775 88.903262 
" style="fill: none; stroke: #b0b0b0; stroke-width: 0.8"/>
    <path d="M 194.122419 264.346788 
L 313.125402 208.651142 
L 315.869109 94.704774 
" style="fill: none; stroke: #b0b0b0; stroke-width: 0.8"/>
    <path d="M 210.080006 272.25742 
L 329.050048 215.445558 
L 332.422504 100.621764 
" style="fill: none; stroke: #b0b0b0; stroke-width: 0.8"/>
    <path d="M 226.371431 280.333546 
L 345.283092 222.371556 
L 349.308703 106.657714 
" style="fill: none; stroke: #b0b0b0; stroke-width: 0.8"/>
   </g>
   <g id="xtick_1">
    <g id="line2d_2">
     <path d="M 134.455793 233.818232 
L 131.384626 235.149524 
" style="fill: none; stroke: #000000; stroke-width: 0.8; stroke-linecap: square"/>
    </g>
    <g id="text_1">
     <!-- −15 -->
     <g transform="translate(112.566616 255.867693)scale(0.1 -0.1)">
      <defs>
       <path id="DejaVuSans-2212" d="M 678 2272 
L 4684 2272 
L 4684 1741 
L 678 1741 
L 678 2272 
z
" transform="scale(0.015625)"/>
       <path id="DejaVuSans-31" d="M 794 531 
L 1825 531 
L 1825 4091 
L 703 3866 
L 703 4441 
L 1819 4666 
L 2450 4666 
L 2450 531 
L 3481 531 
L 3481 0 
L 794 0 
L 794 531 
z
" transform="scale(0.015625)"/>
       <path id="DejaVuSans-35" d="M 691 4666 
L 3169 4666 
L 3169 4134 
L 1269 4134 
L 1269 2991 
Q 1406 3038 1543 3061 
Q 1681 3084 1819 3084 
Q 2600 3084 3056 2656 
Q 3513 2228 3513 1497 
Q 3513 744 3044 326 
Q 2575 -91 1722 -91 
Q 1428 -91 1123 -41 
Q 819 9 494 109 
L 494 744 
Q 775 591 1075 516 
Q 1375 441 1709 441 
Q 2250 441 2565 725 
Q 2881 1009 2881 1497 
Q 2881 1984 2565 2268 
Q 2250 2553 1709 2553 
Q 1456 2553 1204 2497 
Q 953 2441 691 2322 
L 691 4666 
z
" transform="scale(0.015625)"/>
      </defs>
      <use xlink:href="#DejaVuSans-2212"/>
      <use xlink:href="#DejaVuSans-31" x="83.789062"/>
      <use xlink:href="#DejaVuSans-35" x="147.412109"/>
     </g>
    </g>
   </g>
   <g id="xtick_2">
    <g id="line2d_3">
     <path d="M 149.176802 241.106418 
L 146.102048 242.464317 
" style="fill: none; stroke: #000000; stroke-width: 0.8; stroke-linecap: square"/>
    </g>
    <g id="text_2">
     <!-- −10 -->
     <g transform="translate(127.230816 263.327834)scale(0.1 -0.1)">
      <defs>
       <path id="DejaVuSans-30" d="M 2034 4250 
Q 1547 4250 1301 3770 
Q 1056 3291 1056 2328 
Q 1056 1369 1301 889 
Q 1547 409 2034 409 
Q 2525 409 2770 889 
Q 3016 1369 3016 2328 
Q 3016 3291 2770 3770 
Q 2525 4250 2034 4250 
z
M 2034 4750 
Q 2819 4750 3233 4129 
Q 3647 3509 3647 2328 
Q 3647 1150 3233 529 
Q 2819 -91 2034 -91 
Q 1250 -91 836 529 
Q 422 1150 422 2328 
Q 422 3509 836 4129 
Q 1250 4750 2034 4750 
z
" transform="scale(0.015625)"/>
      </defs>
      <use xlink:href="#DejaVuSans-2212"/>
      <use xlink:href="#DejaVuSans-31" x="83.789062"/>
      <use xlink:href="#DejaVuSans-30" x="147.412109"/>
     </g>
    </g>
   </g>
   <g id="xtick_3">
    <g id="line2d_4">
     <path d="M 164.193229 248.540863 
L 161.115364 249.926174 
" style="fill: none; stroke: #000000; stroke-width: 0.8; stroke-linecap: square"/>
    </g>
    <g id="text_3">
     <!-- −5 -->
     <g transform="translate(145.371681 270.938261)scale(0.1 -0.1)">
      <use xlink:href="#DejaVuSans-2212"/>
      <use xlink:href="#DejaVuSans-35" x="83.789062"/>
     </g>
    </g>
   </g>
   <g id="xtick_4">
    <g id="line2d_5">
     <path d="M 179.514058 256.126013 
L 176.433587 257.539575 
" style="fill: none; stroke: #000000; stroke-width: 0.8; stroke-linecap: square"/>
    </g>
    <g id="text_4">
     <!-- 0 -->
     <g transform="translate(164.825571 278.703563)scale(0.1 -0.1)">
      <use xlink:href="#DejaVuSans-30"/>
     </g>
    </g>
   </g>
   <g id="xtick_5">
    <g id="line2d_6">
     <path d="M 195.148639 263.866497 
L 192.066101 265.309183 
" style="fill: none; stroke: #000000; stroke-width: 0.8; stroke-linecap: square"/>
    </g>
    <g id="text_5">
     <!-- 5 -->
     <g transform="translate(180.403438 286.628515)scale(0.1 -0.1)">
      <use xlink:href="#DejaVuSans-35"/>
     </g>
    </g>
   </g>
   <g id="xtick_6">
    <g id="line2d_7">
     <path d="M 211.106709 271.767137 
L 208.022679 273.239857 
" style="fill: none; stroke: #000000; stroke-width: 0.8; stroke-linecap: square"/>
    </g>
    <g id="text_6">
     <!-- 10 -->
     <g transform="translate(193.123653 294.718091)scale(0.1 -0.1)">
      <use xlink:href="#DejaVuSans-31"/>
      <use xlink:href="#DejaVuSans-30" x="63.623047"/>
     </g>
    </g>
   </g>
   <g id="xtick_7">
    <g id="line2d_8">
     <path d="M 227.398414 279.832956 
L 224.313505 281.336656 
" style="fill: none; stroke: #000000; stroke-width: 0.8; stroke-linecap: square"/>
    </g>
    <g id="text_7">
     <!-- 15 -->
     <g transform="translate(209.358907 302.977477)scale(0.1 -0.1)">
      <use xlink:href="#DejaVuSans-31"/>
      <use xlink:href="#DejaVuSans-35" x="63.623047"/>
     </g>
    </g>
   </g>
  </g>
  <g id="axis3d_2">
   <g id="line2d_9">
    <path d="M 358.601131 228.053836 
L 239.756108 286.968713 
" style="fill: none; stroke: #000000; stroke-width: 0.8; stroke-linecap: square"/>
   </g>
   <g id="Line3DCollection_2">
    <path d="M 130.383097 106.593522 
L 134.4017 222.297924 
L 253.314113 280.247622 
" style="fill: none; stroke: #b0b0b0; stroke-width: 0.8"/>
    <path d="M 156.246117 97.348818 
L 159.269373 211.687873 
L 278.260608 267.880931 
" style="fill: none; stroke: #b0b0b0; stroke-width: 0.8"/>
    <path d="M 181.332427 88.381749 
L 183.416873 201.38509 
L 302.428481 255.900225 
" style="fill: none; stroke: #b0b0b0; stroke-width: 0.8"/>
    <path d="M 205.676498 79.679992 
L 206.875039 191.37642 
L 325.853624 244.287711 
" style="fill: none; stroke: #b0b0b0; stroke-width: 0.8"/>
    <path d="M 229.310791 71.231944 
L 229.672972 181.649445 
L 348.569759 233.026674 
" style="fill: none; stroke: #b0b0b0; stroke-width: 0.8"/>
   </g>
   <g id="xtick_8">
    <g id="line2d_10">
     <path d="M 252.287132 279.747143 
L 255.372035 281.250511 
" style="fill: none; stroke: #000000; stroke-width: 0.8; stroke-linecap: square"/>
    </g>
    <g id="text_8">
     <!-- −20 -->
     <g transform="translate(253.411202 302.8896)scale(0.1 -0.1)">
      <defs>
       <path id="DejaVuSans-32" d="M 1228 531 
L 3431 531 
L 3431 0 
L 469 0 
L 469 531 
Q 828 903 1448 1529 
Q 2069 2156 2228 2338 
Q 2531 2678 2651 2914 
Q 2772 3150 2772 3378 
Q 2772 3750 2511 3984 
Q 2250 4219 1831 4219 
Q 1534 4219 1204 4116 
Q 875 4013 500 3803 
L 500 4441 
Q 881 4594 1212 4672 
Q 1544 4750 1819 4750 
Q 2544 4750 2975 4387 
Q 3406 4025 3406 3419 
Q 3406 3131 3298 2873 
Q 3191 2616 2906 2266 
Q 2828 2175 2409 1742 
Q 1991 1309 1228 531 
z
" transform="scale(0.015625)"/>
      </defs>
      <use xlink:href="#DejaVuSans-2212"/>
      <use xlink:href="#DejaVuSans-32" x="83.789062"/>
      <use xlink:href="#DejaVuSans-30" x="147.412109"/>
     </g>
    </g>
   </g>
   <g id="xtick_9">
    <g id="line2d_11">
     <path d="M 277.234146 267.396189 
L 280.317428 268.852254 
" style="fill: none; stroke: #000000; stroke-width: 0.8; stroke-linecap: square"/>
    </g>
    <g id="text_9">
     <!-- −10 -->
     <g transform="translate(278.271203 290.242534)scale(0.1 -0.1)">
      <use xlink:href="#DejaVuSans-2212"/>
      <use xlink:href="#DejaVuSans-31" x="83.789062"/>
      <use xlink:href="#DejaVuSans-30" x="147.412109"/>
     </g>
    </g>
   </g>
   <g id="xtick_10">
    <g id="line2d_12">
     <path d="M 301.403006 255.43049 
L 304.483262 256.84145 
" style="fill: none; stroke: #000000; stroke-width: 0.8; stroke-linecap: square"/>
    </g>
    <g id="text_10">
     <!-- 0 -->
     <g transform="translate(309.723836 277.991496)scale(0.1 -0.1)">
      <use xlink:href="#DejaVuSans-30"/>
     </g>
    </g>
   </g>
   <g id="xtick_11">
    <g id="line2d_13">
     <path d="M 324.829561 243.832297 
L 327.905519 245.200215 
" style="fill: none; stroke: #000000; stroke-width: 0.8; stroke-linecap: square"/>
    </g>
    <g id="text_11">
     <!-- 10 -->
     <g transform="translate(329.881666 266.11817)scale(0.1 -0.1)">
      <use xlink:href="#DejaVuSans-31"/>
      <use xlink:href="#DejaVuSans-30" x="63.623047"/>
     </g>
    </g>
   </g>
   <g id="xtick_12">
    <g id="line2d_14">
     <path d="M 347.547491 232.584935 
L 350.617998 233.911752 
" style="fill: none; stroke: #000000; stroke-width: 0.8; stroke-linecap: square"/>
    </g>
    <g id="text_12">
     <!-- 20 -->
     <g transform="translate(352.512102 254.605354)scale(0.1 -0.1)">
      <use xlink:href="#DejaVuSans-32"/>
      <use xlink:href="#DejaVuSans-30" x="63.623047"/>
     </g>
    </g>
   </g>
  </g>
  <g id="axis3d_3">
   <g id="line2d_15">
    <path d="M 358.601131 228.053836 
L 363.171838 111.613074 
" style="fill: none; stroke: #000000; stroke-width: 0.8; stroke-linecap: square"/>
   </g>
   <g id="Line3DCollection_3">
    <path d="M 358.912247 220.128022 
L 239.756108 169.851568 
L 120.599969 220.128022 
" style="fill: none; stroke: #b0b0b0; stroke-width: 0.8"/>
    <path d="M 359.529142 204.412353 
L 239.756108 154.996626 
L 119.983074 204.412353 
" style="fill: none; stroke: #b0b0b0; stroke-width: 0.8"/>
    <path d="M 360.152458 188.53311 
L 239.756108 139.997972 
L 119.359759 188.53311 
" style="fill: none; stroke: #b0b0b0; stroke-width: 0.8"/>
    <path d="M 360.782295 172.487727 
L 239.756108 124.853509 
L 118.729921 172.487727 
" style="fill: none; stroke: #b0b0b0; stroke-width: 0.8"/>
    <path d="M 361.418757 156.273582 
L 239.756108 109.561101 
L 118.093459 156.273582 
" style="fill: none; stroke: #b0b0b0; stroke-width: 0.8"/>
    <path d="M 362.061948 139.888 
L 239.756108 94.118569 
L 117.450268 139.888 
" style="fill: none; stroke: #b0b0b0; stroke-width: 0.8"/>
    <path d="M 362.711976 123.328246 
L 239.756108 78.523693 
L 116.80024 123.328246 
" style="fill: none; stroke: #b0b0b0; stroke-width: 0.8"/>
   </g>
   <g id="xtick_13">
    <g id="line2d_16">
     <path d="M 357.888047 219.695874 
L 360.964342 220.993878 
" style="fill: none; stroke: #000000; stroke-width: 0.8; stroke-linecap: square"/>
    </g>
    <g id="text_13">
     <!-- 10 -->
     <g transform="translate(372.323132 227.72646)scale(0.1 -0.1)">
      <use xlink:href="#DejaVuSans-31"/>
      <use xlink:href="#DejaVuSans-30" x="63.623047"/>
     </g>
    </g>
   </g>
   <g id="xtick_14">
    <g id="line2d_17">
     <path d="M 358.499271 203.98745 
L 361.59262 205.263698 
" style="fill: none; stroke: #000000; stroke-width: 0.8; stroke-linecap: square"/>
    </g>
    <g id="text_14">
     <!-- 15 -->
     <g transform="translate(373.042398 212.01079)scale(0.1 -0.1)">
      <use xlink:href="#DejaVuSans-31"/>
      <use xlink:href="#DejaVuSans-35" x="63.623047"/>
     </g>
    </g>
   </g>
   <g id="xtick_15">
    <g id="line2d_18">
     <path d="M 359.116852 188.115628 
L 362.227444 189.369595 
" style="fill: none; stroke: #000000; stroke-width: 0.8; stroke-linecap: square"/>
    </g>
    <g id="text_15">
     <!-- 20 -->
     <g transform="translate(373.76915 196.131547)scale(0.1 -0.1)">
      <use xlink:href="#DejaVuSans-32"/>
      <use xlink:href="#DejaVuSans-30" x="63.623047"/>
     </g>
    </g>
   </g>
   <g id="xtick_16">
    <g id="line2d_19">
     <path d="M 359.740891 172.077845 
L 362.868919 173.308993 
" style="fill: none; stroke: #000000; stroke-width: 0.8; stroke-linecap: square"/>
    </g>
    <g id="text_16">
     <!-- 25 -->
     <g transform="translate(374.503506 180.086164)scale(0.1 -0.1)">
      <use xlink:href="#DejaVuSans-32"/>
      <use xlink:href="#DejaVuSans-35" x="63.623047"/>
     </g>
    </g>
   </g>
   <g id="xtick_17">
    <g id="line2d_20">
     <path d="M 360.371489 155.871483 
L 363.517149 157.079262 
" style="fill: none; stroke: #000000; stroke-width: 0.8; stroke-linecap: square"/>
    </g>
    <g id="text_17">
     <!-- 30 -->
     <g transform="translate(375.245585 163.87202)scale(0.1 -0.1)">
      <defs>
       <path id="DejaVuSans-33" d="M 2597 2516 
Q 3050 2419 3304 2112 
Q 3559 1806 3559 1356 
Q 3559 666 3084 287 
Q 2609 -91 1734 -91 
Q 1441 -91 1130 -33 
Q 819 25 488 141 
L 488 750 
Q 750 597 1062 519 
Q 1375 441 1716 441 
Q 2309 441 2620 675 
Q 2931 909 2931 1356 
Q 2931 1769 2642 2001 
Q 2353 2234 1838 2234 
L 1294 2234 
L 1294 2753 
L 1863 2753 
Q 2328 2753 2575 2939 
Q 2822 3125 2822 3475 
Q 2822 3834 2567 4026 
Q 2313 4219 1838 4219 
Q 1578 4219 1281 4162 
Q 984 4106 628 3988 
L 628 4550 
Q 988 4650 1302 4700 
Q 1616 4750 1894 4750 
Q 2613 4750 3031 4423 
Q 3450 4097 3450 3541 
Q 3450 3153 3228 2886 
Q 3006 2619 2597 2516 
z
" transform="scale(0.015625)"/>
      </defs>
      <use xlink:href="#DejaVuSans-33"/>
      <use xlink:href="#DejaVuSans-30" x="63.623047"/>
     </g>
    </g>
   </g>
   <g id="xtick_18">
    <g id="line2d_21">
     <path d="M 361.008751 139.493871 
L 364.172242 140.677717 
" style="fill: none; stroke: #000000; stroke-width: 0.8; stroke-linecap: square"/>
    </g>
    <g id="text_18">
     <!-- 35 -->
     <g transform="translate(375.995511 147.486437)scale(0.1 -0.1)">
      <use xlink:href="#DejaVuSans-33"/>
      <use xlink:href="#DejaVuSans-35" x="63.623047"/>
     </g>
    </g>
   </g>
   <g id="xtick_19">
    <g id="line2d_22">
     <path d="M 361.652783 122.942281 
L 364.834306 124.101614 
" style="fill: none; stroke: #000000; stroke-width: 0.8; stroke-linecap: square"/>
    </g>
    <g id="text_19">
     <!-- 40 -->
     <g transform="translate(376.753408 130.926684)scale(0.1 -0.1)">
      <defs>
       <path id="DejaVuSans-34" d="M 2419 4116 
L 825 1625 
L 2419 1625 
L 2419 4116 
z
M 2253 4666 
L 3047 4666 
L 3047 1625 
L 3713 1625 
L 3713 1100 
L 3047 1100 
L 3047 0 
L 2419 0 
L 2419 1100 
L 313 1100 
L 313 1709 
L 2253 4666 
z
" transform="scale(0.015625)"/>
      </defs>
      <use xlink:href="#DejaVuSans-34"/>
      <use xlink:href="#DejaVuSans-30" x="63.623047"/>
     </g>
    </g>
   </g>
  </g>
  <g id="axes_1">
   <g id="line2d_23">
    <path d="M 233.083057 148.358615 
L 242.707601 162.965626 
L 248.075221 171.496291 
L 252.908724 180.628217 
L 255.944968 187.185923 
L 263.93165 194.130317 
L 267.473083 196.338081 
L 271.946234 198.300946 
L 279.47208 198.375433 
L 285.409694 197.294065 
L 292.671704 194.636861 
L 309.207579 184.369226 
L 314.852285 176.169151 
L 322.086015 166.398628 
L 323.206891 157.174278 
L 322.511881 149.566871 
L 316.234796 143.272516 
L 307.288179 142.572025 
L 294.484825 143.235839 
L 285.446595 147.576608 
L 272.265113 151.454119 
L 260.364205 161.866718 
L 256.559209 167.052368 
L 253.744718 171.511735 
L 251.646638 176.206925 
L 250.139517 180.035317 
L 250.227352 184.053386 
L 250.847523 188.998581 
L 250.556752 191.619248 
L 251.389495 194.579826 
L 254.837641 198.286101 
L 254.500873 200.480239 
L 256.786604 203.436567 
L 260.914196 204.318218 
L 264.806666 206.933346 
L 268.794208 207.144584 
L 273.140553 207.025735 
L 281.119533 206.399284 
L 289.485736 202.753604 
L 297.559562 199.083151 
L 308.330861 192.183879 
L 318.178818 183.538043 
L 326.946498 171.870269 
L 330.895554 158.612907 
L 330.694651 147.978278 
L 323.563896 139.029821 
L 311.3495 135.382223 
L 298.384959 137.274528 
L 284.021088 143.061359 
L 272.721959 149.258045 
L 263.360825 155.875 
L 255.150441 160.261689 
L 249.054451 165.864503 
L 245.448339 169.948515 
L 242.989189 175.459202 
L 239.53753 188.492783 
L 239.485761 191.952512 
L 238.979891 194.772866 
L 239.20224 198.936945 
L 236.80921 202.757394 
L 237.231369 205.899514 
L 236.024524 207.559008 
L 233.496821 212.75136 
L 229.813184 218.918958 
L 226.663192 220.458187 
L 223.11982 222.891675 
L 219.255864 222.251044 
L 213.266773 224.357688 
L 206.696007 224.489549 
L 198.032286 222.584995 
L 186.751384 220.696281 
L 176.93729 214.512607 
L 162.294441 204.255326 
L 151.840028 189.781895 
L 141.971679 169.783364 
L 138.626385 146.613631 
L 148.229412 124.609551 
L 162.564688 108.797611 
L 181.201422 103.860543 
L 200.331792 109.262934 
L 215.073896 117.891111 
L 228.302581 128.333151 
L 236.387871 138.915031 
L 242.665051 149.533728 
L 247.834433 157.52155 
L 251.270069 165.937012 
L 253.530564 172.625871 
L 255.902729 177.883663 
L 256.602813 182.008044 
L 259.40705 186.037951 
L 261.263668 190.7293 
L 264.386393 192.28467 
L 268.035008 194.572081 
L 272.596884 195.088703 
L 278.098596 195.926134 
L 282.7201 195.646825 
L 288.858537 194.02755 
L 295.114498 190.79371 
L 303.345024 185.553501 
L 310.322152 177.926478 
L 320.415276 161.076478 
L 320.005204 153.291788 
L 316.784538 146.763649 
L 309.267098 145.222977 
L 300.529787 143.135694 
L 289.264997 146.882068 
L 280.807132 150.357499 
L 270.459792 155.838378 
L 265.791267 160.599187 
L 261.480218 164.622695 
L 257.671371 169.206835 
L 256.432213 173.491045 
L 254.254174 177.275847 
L 254.531257 182.302115 
L 254.016407 185.959067 
L 254.965488 189.351488 
L 259.036867 195.92213 
L 259.955181 197.846783 
L 263.05703 199.31336 
L 266.356872 201.786012 
L 270.26594 202.486718 
L 275.660064 202.852199 
L 281.581998 201.197715 
L 290.518928 198.877633 
L 298.681678 195.046116 
L 306.42482 188.510087 
L 315.759965 180.214974 
L 322.123163 169.108232 
L 325.92527 159.45588 
L 324.604947 149.705447 
L 320.108496 143.039752 
L 311.472737 138.897051 
L 300.244094 140.376952 
L 285.747169 144.527059 
L 274.725882 148.698694 
L 267.754938 156.411567 
L 260.250995 161.159691 
L 255.348702 164.858241 
L 252.19649 170.775023 
L 248.494132 175.115198 
L 248.477866 178.431862 
L 247.876914 184.751622 
L 246.490905 187.337292 
L 247.284885 191.661293 
L 246.939895 194.586404 
L 247.938093 197.487727 
L 248.513589 200.948054 
L 249.815798 203.670616 
L 252.604061 205.53449 
L 252.62158 209.419207 
L 257.254186 211.032987 
L 259.523037 211.577866 
L 263.150897 213.788171 
L 269.070248 213.596248 
L 274.161565 212.556928 
L 282.173842 212.166706 
L 291.299442 208.078372 
L 300.392911 202.94715 
L 312.145208 194.660756 
L 323.151402 182.87613 
L 332.641359 169.645228 
L 336.457933 153.556277 
L 335.08822 140.86234 
L 324.220597 133.374395 
L 309.280303 130.620722 
L 292.349004 135.792623 
L 264.008693 149.544511 
L 254.850546 156.954862 
L 247.722688 163.528508 
L 241.545138 168.25221 
L 238.643151 173.170459 
L 236.316526 176.38988 
L 234.207978 181.191556 
L 231.918972 185.26221 
L 231.162117 189.115901 
L 229.314874 193.5982 
L 228.120008 196.055016 
L 224.912535 198.760342 
L 222.551801 202.188897 
L 219.593609 203.476628 
L 215.102159 205.804852 
L 210.100432 207.662892 
L 205.139918 209.326948 
L 198.444106 208.474788 
L 190.909972 205.298407 
L 180.826756 201.997978 
L 171.80754 195.157923 
L 162.828571 185.052094 
L 156.568771 171.026077 
L 152.658588 155.186594 
L 156.756103 140.411985 
L 165.00253 128.026371 
L 175.574342 120.995909 
L 189.224466 119.626187 
L 201.137942 123.889388 
L 211.744187 129.388294 
L 221.035722 138.669263 
L 226.690998 147.569881 
L 230.807963 154.968993 
L 234.24307 162.768203 
L 236.947781 169.715925 
L 237.708413 175.377397 
L 238.827257 181.743622 
L 237.639761 186.268919 
L 239.276485 194.591916 
L 238.524025 199.516579 
L 237.830663 202.424551 
L 238.654605 205.724135 
L 236.778396 210.194115 
L 234.454316 218.471648 
L 232.503821 218.797736 
L 231.366043 219.731143 
L 226.689163 223.982837 
L 222.969103 226.304908 
L 217.221156 227.570718 
L 210.4306 227.778062 
L 201.72909 226.767356 
L 192.4912 224.141191 
L 180.943043 221.702429 
L 166.907276 211.937484 
L 154.831466 199.898347 
L 142.457721 180.543861 
L 138.459798 157.56989 
L 141.233865 131.87831 
L 153.508985 112.342986 
L 172.868035 102.80524 
L 194.50814 103.21861 
L 210.614759 111.958497 
L 225.972175 122.814354 
L 235.783309 134.976633 
L 242.558963 145.123486 
L 248.282963 155.53674 
L 255.043977 168.637204 
L 256.232484 174.76766 
L 259.679665 178.258431 
L 261.573361 183.665186 
L 264.297839 186.825814 
L 268.384156 190.313812 
L 271.81442 189.663724 
L 275.671672 192.482607 
L 279.907563 192.513617 
L 285.703744 191.474517 
L 292.39664 189.795175 
L 298.554568 186.587448 
L 305.094046 180.358694 
L 310.084029 174.917582 
L 315.698782 167.454159 
L 316.898407 159.32769 
L 316.616012 154.406934 
L 312.151943 148.231098 
L 304.29502 147.092889 
L 297.034614 147.417736 
L 287.041641 148.827532 
L 280.12719 154.123545 
L 272.635599 157.108148 
L 266.412199 161.69594 
L 263.705039 166.930976 
L 260.820361 170.493522 
L 258.727765 173.530971 
L 258.327822 179.050497 
L 258.487289 181.663757 
L 257.448164 185.871032 
L 260.09841 188.849597 
L 260.845983 191.691098 
L 264.687894 194.159617 
L 266.704153 194.515022 
L 270.833798 196.193492 
L 276.401175 197.099381 
L 280.943423 197.506858 
L 286.662993 196.0598 
L 294.947753 193.504056 
L 300.823453 187.455084 
L 309.142726 181.456307 
L 314.536142 174.665014 
L 320.137594 165.59623 
L 321.640545 156.577669 
L 318.496665 148.671751 
L 313.469789 144.1431 
L 303.263365 143.045554 
L 293.298351 145.076766 
L 283.398859 149.767193 
L 274.216301 153.900975 
L 266.967414 158.924419 
L 263.010588 163.179981 
L 256.713493 167.776825 
L 256.209971 172.714344 
L 253.040086 176.47295 
L 254.309442 179.568637 
L 252.809764 184.363436 
L 252.957155 187.982793 
L 253.535898 190.743984 
L 255.549002 194.781189 
L 258.392406 196.635012 
L 260.25145 199.811202 
L 262.842572 201.219781 
L 267.155272 202.809499 
L 271.927237 204.033524 
L 275.598002 202.456316 
L 282.742519 202.27687 
L 292.108098 198.604122 
L 300.512244 193.762701 
L 309.563941 187.52786 
L 318.356662 179.421526 
L 325.362671 167.562316 
L 328.056802 157.247609 
L 326.203032 146.087021 
L 319.616248 141.591251 
L 307.282578 137.6324 
L 294.584964 140.282336 
L 270.77279 151.225942 
L 262.10292 157.262223 
L 256.340273 163.359406 
L 252.431085 167.753594 
L 249.661708 172.502293 
L 247.552421 177.184338 
L 245.539803 180.969412 
L 245.830115 184.748381 
L 244.703513 189.765207 
L 244.962377 191.584191 
L 244.647491 195.773641 
L 245.245333 199.925852 
L 247.257288 203.379688 
L 246.749004 205.451302 
L 247.855879 208.489964 
L 249.589672 209.97397 
L 250.398952 212.546713 
L 253.336526 214.295238 
L 255.620155 217.936822 
L 263.750347 218.338162 
L 268.63218 218.001601 
L 274.725033 216.149798 
L 283.476364 214.612008 
L 292.30441 209.858052 
L 304.982142 204.64009 
L 316.721152 193.625736 
L 328.840889 180.463768 
L 337.920774 164.276634 
L 341.239039 149.273828 
L 336.757016 134.927576 
L 324.185204 129.925721 
L 305.469653 129.905604 
L 286.286801 135.673302 
L 269.804596 144.750716 
L 255.161859 151.170169 
L 248.514071 159.170943 
L 240.590582 163.701978 
L 237.017844 169.580486 
L 232.188454 173.081877 
L 230.114682 177.887943 
L 228.131708 181.023237 
L 227.529788 185.095227 
L 225.491017 188.615395 
L 221.999471 191.399009 
L 219.938655 195.311599 
L 216.85797 197.086859 
L 207.630231 200.518671 
L 204.046432 200.6646 
L 197.084422 200.633635 
L 189.562894 198.324283 
L 182.065711 193.746649 
L 174.287446 188.424148 
L 167.246755 177.975405 
L 161.831672 167.528823 
L 160.1404 154.634724 
L 161.634805 142.092024 
L 170.130061 133.186249 
L 178.534986 127.300673 
L 189.430198 126.051588 
L 199.605988 129.385069 
L 208.478839 136.20331 
L 215.800396 141.602853 
L 221.627665 149.138697 
L 225.175049 156.797075 
L 227.519607 162.914993 
L 230.21154 169.426994 
L 230.743077 175.836517 
L 230.566607 180.160297 
L 230.669116 185.65547 
L 228.97521 190.065569 
L 228.114116 193.947389 
L 226.766776 197.45456 
L 224.146039 199.970283 
L 221.053872 203.224797 
L 221.053872 203.224797 
" clip-path="url(#pd3cf62bad7)" style="fill: none; stroke: #0000cc; stroke-linecap: square"/>
   </g>
   <g id="line2d_24">
    <path d="M 233.302424 148.859116 
L 242.080015 162.310482 
L 252.739171 180.281543 
L 256.617853 186.256977 
L 260.277109 190.831094 
L 264.072854 194.245818 
L 268.275506 196.62066 
L 273.093938 197.965001 
L 278.681743 198.195301 
L 285.125003 197.148497 
L 292.398595 194.595791 
L 300.298425 190.293344 
L 308.34751 184.073094 
L 315.714281 176.008777 
L 321.224648 166.618703 
L 323.55706 157.013546 
L 321.71219 148.761801 
L 315.544259 143.387368 
L 306.022187 141.662494 
L 294.869682 143.289752 
L 283.850912 147.200962 
L 274.184201 152.216553 
L 266.405299 157.488517 
L 260.54026 162.596084 
L 256.351156 167.414318 
L 253.518882 171.953489 
L 251.740325 176.259183 
L 250.767978 180.367306 
L 250.419173 184.291702 
L 250.571458 188.027013 
L 251.153446 191.555602 
L 252.136002 194.85269 
L 253.525657 197.888019 
L 255.360312 200.624258 
L 257.706428 203.012618 
L 260.656842 204.985994 
L 264.328656 206.449805 
L 268.85957 207.269895 
L 274.397617 207.256288 
L 281.075516 206.145436 
L 288.960882 203.591489 
L 297.972813 199.181754 
L 307.74787 192.504294 
L 317.467849 183.323723 
L 325.740501 171.89071 
L 330.681294 159.296459 
L 330.457087 147.59787 
L 324.201146 139.234259 
L 312.782158 135.880003 
L 298.608675 137.41445 
L 284.367175 142.26514 
L 271.95463 148.525549 
L 262.125835 154.874533 
L 254.827825 160.745116 
L 249.634031 166.056417 
L 246.037426 170.921136 
L 243.584554 175.472987 
L 241.91462 179.804777 
L 240.757611 183.963945 
L 239.918164 187.965907 
L 237.471735 202.296955 
L 236.741942 205.430696 
L 235.859506 208.381931 
L 234.769573 211.151859 
L 233.408196 213.741408 
L 231.697064 216.148287 
L 229.537567 218.361934 
L 226.805222 220.357033 
L 223.345122 222.084425 
L 218.967981 223.455539 
L 213.448741 224.316048 
L 206.537602 224.405417 
L 197.998438 223.29911 
L 187.691873 220.338157 
L 175.755882 214.577519 
L 162.861236 204.800657 
L 150.767444 189.972748 
L 141.937713 169.783451 
L 139.488101 145.986258 
L 147.535747 124.122352 
L 162.236876 109.450355 
L 181.30678 104.309431 
L 200.075457 108.152815 
L 215.843981 117.293592 
L 227.923819 128.424185 
L 236.692057 139.442221 
L 242.90797 149.417861 
L 247.317445 158.107766 
L 250.537449 165.573685 
L 255.196732 177.456605 
L 257.260719 182.159349 
L 259.441453 186.167015 
L 261.903825 189.528039 
L 264.787431 192.25169 
L 268.215514 194.306779 
L 272.298864 195.618759 
L 277.13099 196.066225 
L 282.76909 195.479394 
L 289.197531 193.646786 
L 296.27344 190.34114 
L 303.656358 185.380383 
L 310.734591 178.738769 
L 316.596124 170.702392 
L 320.131043 162.011086 
L 320.320896 153.859689 
L 316.665404 147.619417 
L 309.53427 144.313351 
L 300.117724 144.169635 
L 289.964864 146.609211 
L 280.421607 150.654345 
L 272.299815 155.404454 
L 265.891683 160.277539 
L 261.143465 165.002122 
L 257.832394 169.499059 
L 255.694043 173.770441 
L 254.490379 177.835447 
L 254.035062 181.703971 
L 254.197218 185.369848 
L 254.897101 188.811835 
L 256.099832 191.99645 
L 257.80946 194.879668 
L 260.063824 197.405743 
L 262.929853 199.50242 
L 266.498223 201.072694 
L 270.875271 201.984009 
L 276.168659 202.056526 
L 282.461364 201.053442 
L 289.76592 198.680165 
L 297.948689 194.607304 
L 306.621087 188.54309 
L 315.021821 180.38476 
L 321.956379 170.454338 
L 325.916811 159.735305 
L 325.517926 149.88795 
L 320.173631 142.796182 
L 310.590886 139.717971 
L 298.596806 140.650416 
L 286.31017 144.485933 
L 275.322063 149.783322 
L 266.393446 155.443891 
L 259.619776 160.901855 
L 254.740035 165.988742 
L 251.376608 170.730129 
L 249.164892 175.201741 
L 247.803792 179.463887 
L 247.065669 183.54711 
L 246.790102 187.458733 
L 246.8727 191.192611 
L 247.253678 194.735959 
L 247.908312 198.072993 
L 248.840072 201.186413 
L 250.076515 204.057261 
L 251.667627 206.662992 
L 253.686226 208.973372 
L 256.229871 210.943893 
L 259.423292 212.506536 
L 263.419571 213.557651 
L 268.397216 213.942265 
L 274.548985 213.433524 
L 282.054783 211.707741 
L 291.021367 208.324964 
L 301.363869 202.743431 
L 312.617989 194.415887 
L 323.695453 183.042291 
L 332.712241 169.028153 
L 337.134277 154.023914 
L 334.795831 140.938183 
L 324.920639 132.938679 
L 309.722428 131.503589 
L 292.530633 135.486695 
L 276.590231 142.348541 
L 263.620489 149.761347 
L 253.871524 156.565306 
L 246.893842 162.487201 
L 242.007556 167.682728 
L 238.585587 172.386269 
L 236.119736 176.774876 
L 234.225707 180.9473 
L 231.09582 188.759393 
L 229.48765 192.380923 
L 227.662776 195.777375 
L 225.500945 198.913736 
L 222.884119 201.745412 
L 219.688203 204.209337 
L 215.778477 206.21223 
L 211.011756 207.615121 
L 205.250385 208.210834 
L 198.393061 207.694626 
L 190.429409 205.637929 
L 181.53697 201.486451 
L 172.227396 194.620154 
L 163.488957 184.54378 
L 156.832761 171.271472 
L 154.032333 155.811637 
L 156.44838 140.409269 
L 164.176957 128.001776 
L 175.777519 120.934185 
L 188.911264 119.844588 
L 201.444649 123.67503 
L 212.102592 130.587535 
L 220.474329 138.884138 
L 226.69243 147.411178 
L 231.123077 155.547789 
L 234.172846 163.037895 
L 236.202735 169.823825 
L 237.503168 175.940494 
L 238.292206 181.458067 
L 238.723792 186.453219 
L 238.901305 190.996781 
L 238.89107 195.149983 
L 238.732337 198.964305 
L 238.443555 202.482411 
L 238.026363 205.739262 
L 237.468327 208.763223 
L 236.744635 211.577056 
L 235.818472 214.198599 
L 234.639756 216.640873 
L 233.142091 218.911279 
L 231.238134 221.009386 
L 228.814087 222.922607 
L 225.724412 224.618585 
L 221.78756 226.032434 
L 216.78279 227.045682 
L 210.451118 227.451878 
L 202.515432 226.903108 
L 192.744091 224.83588 
L 181.081984 220.388478 
L 167.903308 212.363018 
L 154.419984 199.401601 
L 143.035636 180.595767 
L 137.396919 156.879173 
L 140.461033 132.013224 
L 153.332525 112.110941 
L 172.802144 102.312602 
L 193.528262 103.355553 
L 211.330644 111.443303 
L 225.49134 122.776469 
L 235.786812 134.470503 
L 243.107025 145.17732 
L 248.279031 154.478752 
L 252.02315 162.395639 
L 257.303477 174.775411 
L 259.563569 179.573085 
L 261.904993 183.598939 
L 264.506673 186.912689 
L 267.513067 189.52871 
L 271.044023 191.419444 
L 275.195401 192.513573 
L 280.031883 192.695351 
L 285.567774 191.811292 
L 291.729242 189.685491 
L 298.303897 186.153368 
L 304.886812 181.133122 
L 310.837684 174.733787 
L 315.305928 167.368177 
L 317.378564 159.825479 
L 316.35633 153.183857 
L 312.08431 148.501456 
L 305.114977 146.426387 
L 296.556556 146.944815 
L 287.671172 149.484592 
L 279.477198 153.263754 
L 272.569079 157.599232 
L 267.150461 162.052724 
L 263.169439 166.411756 
L 260.452347 170.598437 
L 258.796429 174.591969 
L 258.019498 178.386052 
L 257.980344 181.969697 
L 258.583773 185.319486 
L 259.778959 188.397298 
L 261.55504 191.150375 
L 263.934992 193.510984 
L 266.967887 195.393303 
L 270.719712 196.686614 
L 275.261779 197.246314 
L 280.651643 196.886632 
L 286.898009 195.380968 
L 293.905628 192.478265 
L 301.404568 187.9484 
L 308.869413 181.675305 
L 315.457898 173.808474 
L 320.056804 164.935512 
L 321.515196 156.155605 
L 319.064979 148.897192 
L 312.766534 144.425374 
L 303.622508 143.278711 
L 293.212772 145.0788 
L 283.064575 148.859846 
L 274.210294 153.603533 
L 267.09595 158.592046 
L 261.736338 163.462927 
L 257.92715 168.095806 
L 255.392452 172.485686 
L 253.867168 176.659893 
L 253.136256 180.638362 
L 253.044807 184.422538 
L 253.493201 187.997602 
L 254.428743 191.337319 
L 255.839128 194.406453 
L 257.748029 197.159755 
L 260.211208 199.538309 
L 263.311683 201.463706 
L 267.153425 202.829455 
L 271.853169 203.489028 
L 277.526485 203.242089 
L 284.256713 201.824217 
L 292.034967 198.909691 
L 300.672569 194.144519 
L 309.681125 187.241139 
L 318.139586 178.16849 
L 324.667343 167.424943 
L 327.621216 156.26858 
L 325.682965 146.620374 
L 318.587864 140.411005 
L 307.523944 138.613217 
L 294.658968 140.777238 
L 282.155574 145.473016 
L 271.409169 151.212522 
L 262.935947 157.016748 
L 256.649863 162.470255 
L 252.195221 167.507666 
L 249.157633 172.200136 
L 247.166211 176.634748 
L 245.927602 180.871474 
L 245.225913 184.93833 
L 244.910406 188.840128 
L 244.881679 192.569566 
L 245.080183 196.115319 
L 245.477282 199.466118 
L 246.068346 202.612101 
L 246.867931 205.544555 
L 247.907411 208.254336 
L 249.235219 210.729228 
L 250.919228 212.950554 
L 253.049986 214.888734 
L 255.743652 216.49672 
L 259.144772 217.700174 
L 263.42959 218.383413 
L 268.806497 218.369543 
L 275.503338 217.393513 
L 283.73017 215.071201 
L 293.60523 210.877478 
L 305.007273 204.164638 
L 317.326613 194.291221 
L 329.162693 180.979967 
L 338.12743 164.914315 
L 341.209302 148.421706 
L 336.083323 135.172483 
L 322.860354 128.65597 
L 304.680005 129.548268 
L 285.809924 135.68177 
L 269.441291 143.775975 
L 256.749023 151.612568 
L 247.538861 158.358469 
L 241.067134 164.04197 
L 236.542013 168.965506 
L 233.298927 173.411329 
L 230.830017 177.556872 
L 226.816674 185.207509 
L 224.786765 188.708111 
L 222.506191 191.941839 
L 219.83468 194.849513 
L 216.643077 197.353281 
L 212.808493 199.347517 
L 208.218533 200.685985 
L 202.783255 201.16557 
L 196.462426 200.508741 
L 189.319825 198.354289 
L 181.601484 194.276547 
L 173.827797 187.863593 
L 166.870806 178.887741 
L 161.919357 167.58584 
L 160.228595 154.937388 
L 162.639731 142.709665 
L 169.078997 132.997145 
L 178.460379 127.4067 
L 189.109982 126.396969 
L 199.462168 129.295992 
L 208.484006 134.844379 
L 215.746475 141.784944 
L 221.242475 149.179398 
L 225.178965 156.4554 
L 227.836132 163.322664 
L 229.481188 169.666298 
L 230.332434 175.466001 
L 230.553312 180.746805 
L 230.253689 185.54954 
L 229.49337 189.914097 
L 228.290611 193.872999 
L 226.630923 197.448243 
L 224.466769 200.644164 
L 221.716961 203.440199 
L 221.716961 203.440199 
" clip-path="url(#pd3cf62bad7)" style="fill: none; stroke: #ff0000; stroke-linecap: square"/>
   </g>
  </g>
 </g>
 <defs>
  <clipPath id="pd3cf62bad7">
   <rect x="103.104" y="41.472" width="266.112" height="266.112"/>
  </clipPath>
 </defs>
</svg>
