<?xml version="1.0" encoding="utf-8" standalone="no"?>
<!DOCTYPE svg PUBLIC "-//W3C//DTD SVG 1.1//EN"
  "http://www.w3.org/Graphics/SVG/1.1/DTD/svg11.dtd">
<svg xmlns:xlink="http://www.w3.org/1999/xlink" width="460.8pt" height="345.6pt" viewBox="0 0 460.8 345.6" xmlns="http://www.w3.org/2000/svg" version="1.1">
 <metadata>
  <rdf:RDF xmlns:dc="http://purl.org/dc/elements/1.1/" xmlns:cc="http://creativecommons.org/ns#" xmlns:rdf="http://www.w3.org/1999/02/22-rdf-syntax-ns#">
   <cc:Work>
    <dc:type rdf:resource="http://purl.org/dc/dcmitype/StillImage"/>
    <dc:date>2023-11-20T16:37:19.471301</dc:date>
    <dc:format>image/svg+xml</dc:format>
    <dc:creator>
     <cc:Agent>
      <dc:title>Matplotlib v3.7.3, https://matplotlib.org/</dc:title>
     </cc:Agent>
    </dc:creator>
   </cc:Work>
  </rdf:RDF>
 </metadata>
 <defs>
  <style type="text/css">*{stroke-linejoin: round; stroke-linecap: butt}</style>
 </defs>
 <g id="figure_1">
  <g id="patch_1">
   <path d="M 0 345.6 
L 460.8 345.6 
L 460.8 0 
L 0 0 
z
" style="fill: #ffffff"/>
  </g>
  <g id="patch_2">
   <path d="M 103.104 307.584 
L 369.216 307.584 
L 369.216 41.472 
L 103.104 41.472 
z
" style="fill: #ffffff"/>
  </g>
  <g id="pane3d_1">
   <g id="patch_3">
    <path d="M 123.197291 241.969309 
L 211.076164 168.307495 
L 209.854564 62.073991 
L 117.770234 129.272941 
" style="fill: #f2f2f2; opacity: 0.5; stroke: #f2f2f2; stroke-linejoin: miter"/>
   </g>
  </g>
  <g id="pane3d_2">
   <g id="patch_4">
    <path d="M 211.076164 168.307495 
L 352.090401 209.294766 
L 357.122702 99.402171 
L 209.854564 62.073991 
" style="fill: #e6e6e6; opacity: 0.5; stroke: #e6e6e6; stroke-linejoin: miter"/>
   </g>
  </g>
  <g id="pane3d_3">
   <g id="patch_5">
    <path d="M 123.197291 241.969309 
L 272.679269 290.790123 
L 352.090401 209.294766 
L 211.076164 168.307495 
" style="fill: #ececec; opacity: 0.5; stroke: #ececec; stroke-linejoin: miter"/>
   </g>
  </g>
  <g id="axis3d_1">
   <g id="line2d_1">
    <path d="M 123.197291 241.969309 
L 272.679269 290.790123 
" style="fill: none; stroke: #000000; stroke-width: 0.8; stroke-linecap: square"/>
   </g>
   <g id="Line3DCollection_1">
    <path d="M 142.481574 248.267556 
L 229.338117 173.615523 
L 228.891403 66.899275 
" style="fill: none; stroke: #b0b0b0; stroke-width: 0.8"/>
    <path d="M 160.83226 254.26089 
L 246.696628 178.660957 
L 246.996111 71.48829 
" style="fill: none; stroke: #b0b0b0; stroke-width: 0.8"/>
    <path d="M 179.426855 260.333884 
L 264.266657 183.767871 
L 265.331008 76.135652 
" style="fill: none; stroke: #b0b0b0; stroke-width: 0.8"/>
    <path d="M 198.270254 266.488139 
L 282.052092 188.937395 
L 283.900514 80.842481 
" style="fill: none; stroke: #b0b0b0; stroke-width: 0.8"/>
    <path d="M 217.367484 272.725294 
L 300.05692 194.170688 
L 302.709159 85.609924 
" style="fill: none; stroke: #b0b0b0; stroke-width: 0.8"/>
    <path d="M 236.723709 279.047037 
L 318.285226 199.468937 
L 321.761593 90.439161 
" style="fill: none; stroke: #b0b0b0; stroke-width: 0.8"/>
    <path d="M 256.344234 285.4551 
L 336.741196 204.833358 
L 341.062587 95.3314 
" style="fill: none; stroke: #b0b0b0; stroke-width: 0.8"/>
   </g>
   <g id="xtick_1">
    <g id="line2d_2">
     <path d="M 143.238143 247.617295 
L 140.965178 249.570878 
" style="fill: none; stroke: #000000; stroke-width: 0.8; stroke-linecap: square"/>
    </g>
    <g id="text_1">
     <!-- −15 -->
     <g transform="translate(124.410434 271.647428) scale(0.1 -0.1)">
      <defs>
       <path id="DejaVuSans-2212" d="M 678 2272 
L 4684 2272 
L 4684 1741 
L 678 1741 
L 678 2272 
z
" transform="scale(0.015625)"/>
       <path id="DejaVuSans-31" d="M 794 531 
L 1825 531 
L 1825 4091 
L 703 3866 
L 703 4441 
L 1819 4666 
L 2450 4666 
L 2450 531 
L 3481 531 
L 3481 0 
L 794 0 
L 794 531 
z
" transform="scale(0.015625)"/>
       <path id="DejaVuSans-35" d="M 691 4666 
L 3169 4666 
L 3169 4134 
L 1269 4134 
L 1269 2991 
Q 1406 3038 1543 3061 
Q 1681 3084 1819 3084 
Q 2600 3084 3056 2656 
Q 3513 2228 3513 1497 
Q 3513 744 3044 326 
Q 2575 -91 1722 -91 
Q 1428 -91 1123 -41 
Q 819 9 494 109 
L 494 744 
Q 775 591 1075 516 
Q 1375 441 1709 441 
Q 2250 441 2565 725 
Q 2881 1009 2881 1497 
Q 2881 1984 2565 2268 
Q 2250 2553 1709 2553 
Q 1456 2553 1204 2497 
Q 953 2441 691 2322 
L 691 4666 
z
" transform="scale(0.015625)"/>
      </defs>
      <use xlink:href="#DejaVuSans-2212"/>
      <use xlink:href="#DejaVuSans-31" x="83.789062"/>
      <use xlink:href="#DejaVuSans-35" x="147.412109"/>
     </g>
    </g>
   </g>
   <g id="xtick_2">
    <g id="line2d_3">
     <path d="M 161.580589 253.602018 
L 159.332358 255.58149 
" style="fill: none; stroke: #000000; stroke-width: 0.8; stroke-linecap: square"/>
    </g>
    <g id="text_2">
     <!-- −10 -->
     <g transform="translate(142.780217 277.76785) scale(0.1 -0.1)">
      <defs>
       <path id="DejaVuSans-30" d="M 2034 4250 
Q 1547 4250 1301 3770 
Q 1056 3291 1056 2328 
Q 1056 1369 1301 889 
Q 1547 409 2034 409 
Q 2525 409 2770 889 
Q 3016 1369 3016 2328 
Q 3016 3291 2770 3770 
Q 2525 4250 2034 4250 
z
M 2034 4750 
Q 2819 4750 3233 4129 
Q 3647 3509 3647 2328 
Q 3647 1150 3233 529 
Q 2819 -91 2034 -91 
Q 1250 -91 836 529 
Q 422 1150 422 2328 
Q 422 3509 836 4129 
Q 1250 4750 2034 4750 
z
" transform="scale(0.015625)"/>
      </defs>
      <use xlink:href="#DejaVuSans-2212"/>
      <use xlink:href="#DejaVuSans-31" x="83.789062"/>
      <use xlink:href="#DejaVuSans-30" x="147.412109"/>
     </g>
    </g>
   </g>
   <g id="xtick_3">
    <g id="line2d_4">
     <path d="M 180.166658 259.666229 
L 177.944021 261.672109 
" style="fill: none; stroke: #000000; stroke-width: 0.8; stroke-linecap: square"/>
    </g>
    <g id="text_3">
     <!-- −5 -->
     <g transform="translate(164.576335 283.96993) scale(0.1 -0.1)">
      <use xlink:href="#DejaVuSans-2212"/>
      <use xlink:href="#DejaVuSans-35" x="83.789062"/>
     </g>
    </g>
   </g>
   <g id="xtick_4">
    <g id="line2d_5">
     <path d="M 199.001234 265.811523 
L 196.805082 267.844342 
" style="fill: none; stroke: #000000; stroke-width: 0.8; stroke-linecap: square"/>
    </g>
    <g id="text_4">
     <!-- 0 -->
     <g transform="translate(187.63107 290.255312) scale(0.1 -0.1)">
      <use xlink:href="#DejaVuSans-30"/>
     </g>
    </g>
   </g>
   <g id="xtick_5">
    <g id="line2d_6">
     <path d="M 218.089337 272.039537 
L 215.920586 274.099841 
" style="fill: none; stroke: #000000; stroke-width: 0.8; stroke-linecap: square"/>
    </g>
    <g id="text_5">
     <!-- 5 -->
     <g transform="translate(206.751056 296.625686) scale(0.1 -0.1)">
      <use xlink:href="#DejaVuSans-35"/>
     </g>
    </g>
   </g>
   <g id="xtick_6">
    <g id="line2d_7">
     <path d="M 237.436119 278.351952 
L 235.295717 280.440303 
" style="fill: none; stroke: #000000; stroke-width: 0.8; stroke-linecap: square"/>
    </g>
    <g id="text_6">
     <!-- 10 -->
     <g transform="translate(222.950096 303.082788) scale(0.1 -0.1)">
      <use xlink:href="#DejaVuSans-31"/>
      <use xlink:href="#DejaVuSans-30" x="63.623047"/>
     </g>
    </g>
   </g>
   <g id="xtick_7">
    <g id="line2d_8">
     <path d="M 257.046875 284.750495 
L 254.935802 286.86747 
" style="fill: none; stroke: #000000; stroke-width: 0.8; stroke-linecap: square"/>
    </g>
    <g id="text_7">
     <!-- 15 -->
     <g transform="translate(242.596042 309.628401) scale(0.1 -0.1)">
      <use xlink:href="#DejaVuSans-31"/>
      <use xlink:href="#DejaVuSans-35" x="63.623047"/>
     </g>
    </g>
   </g>
  </g>
  <g id="axis3d_2">
   <g id="line2d_9">
    <path d="M 352.090401 209.294766 
L 272.679269 290.790123 
" style="fill: none; stroke: #000000; stroke-width: 0.8; stroke-linecap: square"/>
   </g>
   <g id="Line3DCollection_2">
    <path d="M 131.754867 119.067592 
L 136.500328 230.81844 
L 284.745574 278.407125 
" style="fill: none; stroke: #b0b0b0; stroke-width: 0.8"/>
    <path d="M 150.179054 105.62246 
L 154.049947 216.108001 
L 300.638985 262.096576 
" style="fill: none; stroke: #b0b0b0; stroke-width: 0.8"/>
    <path d="M 167.977749 92.633783 
L 171.029094 201.875744 
L 315.98909 246.343592 
" style="fill: none; stroke: #b0b0b0; stroke-width: 0.8"/>
    <path d="M 185.182272 80.078706 
L 187.465138 188.098725 
L 330.823281 231.120063 
" style="fill: none; stroke: #b0b0b0; stroke-width: 0.8"/>
    <path d="M 201.821889 67.935871 
L 203.383728 174.755448 
L 345.167137 216.399738 
" style="fill: none; stroke: #b0b0b0; stroke-width: 0.8"/>
   </g>
   <g id="xtick_8">
    <g id="line2d_10">
     <path d="M 283.496759 278.006239 
L 287.246412 279.209927 
" style="fill: none; stroke: #000000; stroke-width: 0.8; stroke-linecap: square"/>
    </g>
    <g id="text_8">
     <!-- −20 -->
     <g transform="translate(286.985763 299.328961) scale(0.1 -0.1)">
      <defs>
       <path id="DejaVuSans-32" d="M 1228 531 
L 3431 531 
L 3431 0 
L 469 0 
L 469 531 
Q 828 903 1448 1529 
Q 2069 2156 2228 2338 
Q 2531 2678 2651 2914 
Q 2772 3150 2772 3378 
Q 2772 3750 2511 3984 
Q 2250 4219 1831 4219 
Q 1534 4219 1204 4116 
Q 875 4013 500 3803 
L 500 4441 
Q 881 4594 1212 4672 
Q 1544 4750 1819 4750 
Q 2544 4750 2975 4387 
Q 3406 4025 3406 3419 
Q 3406 3131 3298 2873 
Q 3191 2616 2906 2266 
Q 2828 2175 2409 1742 
Q 1991 1309 1228 531 
z
" transform="scale(0.015625)"/>
      </defs>
      <use xlink:href="#DejaVuSans-2212"/>
      <use xlink:href="#DejaVuSans-32" x="83.789062"/>
      <use xlink:href="#DejaVuSans-30" x="147.412109"/>
     </g>
    </g>
   </g>
   <g id="xtick_9">
    <g id="line2d_11">
     <path d="M 299.405201 261.709508 
L 303.109664 262.871689 
" style="fill: none; stroke: #000000; stroke-width: 0.8; stroke-linecap: square"/>
    </g>
    <g id="text_9">
     <!-- −10 -->
     <g transform="translate(302.665874 282.777064) scale(0.1 -0.1)">
      <use xlink:href="#DejaVuSans-2212"/>
      <use xlink:href="#DejaVuSans-31" x="83.789062"/>
      <use xlink:href="#DejaVuSans-30" x="147.412109"/>
     </g>
    </g>
   </g>
   <g id="xtick_10">
    <g id="line2d_12">
     <path d="M 314.770049 245.96964 
L 318.430194 247.092424 
" style="fill: none; stroke: #000000; stroke-width: 0.8; stroke-linecap: square"/>
    </g>
    <g id="text_10">
     <!-- 0 -->
     <g transform="translate(325.180756 266.791306) scale(0.1 -0.1)">
      <use xlink:href="#DejaVuSans-30"/>
     </g>
    </g>
   </g>
   <g id="xtick_11">
    <g id="line2d_13">
     <path d="M 329.618697 230.758571 
L 333.235384 231.843928 
" style="fill: none; stroke: #000000; stroke-width: 0.8; stroke-linecap: square"/>
    </g>
    <g id="text_11">
     <!-- 10 -->
     <g transform="translate(336.634028 251.34313) scale(0.1 -0.1)">
      <use xlink:href="#DejaVuSans-31"/>
      <use xlink:href="#DejaVuSans-30" x="63.623047"/>
     </g>
    </g>
   </g>
   <g id="xtick_12">
    <g id="line2d_14">
     <path d="M 343.976728 216.050094 
L 347.550808 217.099865 
" style="fill: none; stroke: #000000; stroke-width: 0.8; stroke-linecap: square"/>
    </g>
    <g id="text_12">
     <!-- 20 -->
     <g transform="translate(350.784546 236.405868) scale(0.1 -0.1)">
      <use xlink:href="#DejaVuSans-32"/>
      <use xlink:href="#DejaVuSans-30" x="63.623047"/>
     </g>
    </g>
   </g>
  </g>
  <g id="axis3d_3">
   <g id="line2d_15">
    <path d="M 352.090401 209.294766 
L 357.122702 99.402171 
" style="fill: none; stroke: #000000; stroke-width: 0.8; stroke-linecap: square"/>
   </g>
   <g id="Line3DCollection_3">
    <path d="M 352.650539 197.062775 
L 210.939934 156.460589 
L 122.594118 229.444017 
" style="fill: none; stroke: #b0b0b0; stroke-width: 0.8"/>
    <path d="M 353.267744 183.584604 
L 210.7899 143.413188 
L 121.929231 215.637224 
" style="fill: none; stroke: #b0b0b0; stroke-width: 0.8"/>
    <path d="M 353.891734 169.958251 
L 210.638295 130.22921 
L 121.256756 201.672832 
" style="fill: none; stroke: #b0b0b0; stroke-width: 0.8"/>
    <path d="M 354.522622 156.181257 
L 210.485094 116.906499 
L 120.57656 187.548126 
" style="fill: none; stroke: #b0b0b0; stroke-width: 0.8"/>
    <path d="M 355.160524 142.251112 
L 210.330273 103.442855 
L 119.88851 173.260329 
" style="fill: none; stroke: #b0b0b0; stroke-width: 0.8"/>
    <path d="M 355.805557 128.165246 
L 210.173805 89.836029 
L 119.19247 158.806602 
" style="fill: none; stroke: #b0b0b0; stroke-width: 0.8"/>
    <path d="M 356.457841 113.921034 
L 210.015665 76.083724 
L 118.488299 144.184036 
" style="fill: none; stroke: #b0b0b0; stroke-width: 0.8"/>
   </g>
   <g id="xtick_13">
    <g id="line2d_16">
     <path d="M 351.460919 196.721931 
L 355.032622 197.745277 
" style="fill: none; stroke: #000000; stroke-width: 0.8; stroke-linecap: square"/>
    </g>
    <g id="text_13">
     <!-- 10 -->
     <g transform="translate(364.62571 202.080121) scale(0.1 -0.1)">
      <use xlink:href="#DejaVuSans-31"/>
      <use xlink:href="#DejaVuSans-30" x="63.623047"/>
     </g>
    </g>
   </g>
   <g id="xtick_14">
    <g id="line2d_17">
     <path d="M 352.071376 183.24729 
L 355.663354 184.260043 
" style="fill: none; stroke: #000000; stroke-width: 0.8; stroke-linecap: square"/>
    </g>
    <g id="text_14">
     <!-- 15 -->
     <g transform="translate(365.340995 188.628715) scale(0.1 -0.1)">
      <use xlink:href="#DejaVuSans-31"/>
      <use xlink:href="#DejaVuSans-35" x="63.623047"/>
     </g>
    </g>
   </g>
   <g id="xtick_15">
    <g id="line2d_18">
     <path d="M 352.688541 169.624565 
L 356.301027 170.62643 
" style="fill: none; stroke: #000000; stroke-width: 0.8; stroke-linecap: square"/>
    </g>
    <g id="text_15">
     <!-- 20 -->
     <g transform="translate(366.06412 175.029871) scale(0.1 -0.1)">
      <use xlink:href="#DejaVuSans-32"/>
      <use xlink:href="#DejaVuSans-30" x="63.623047"/>
     </g>
    </g>
   </g>
   <g id="xtick_16">
    <g id="line2d_19">
     <path d="M 353.312526 155.8513 
L 356.945755 156.841974 
" style="fill: none; stroke: #000000; stroke-width: 0.8; stroke-linecap: square"/>
    </g>
    <g id="text_16">
     <!-- 25 -->
     <g transform="translate(366.795215 161.281151) scale(0.1 -0.1)">
      <use xlink:href="#DejaVuSans-32"/>
      <use xlink:href="#DejaVuSans-35" x="63.623047"/>
     </g>
    </g>
   </g>
   <g id="xtick_17">
    <g id="line2d_20">
     <path d="M 353.943445 141.924987 
L 357.597655 142.904158 
" style="fill: none; stroke: #000000; stroke-width: 0.8; stroke-linecap: square"/>
    </g>
    <g id="text_17">
     <!-- 30 -->
     <g transform="translate(367.534411 147.380064) scale(0.1 -0.1)">
      <defs>
       <path id="DejaVuSans-33" d="M 2597 2516 
Q 3050 2419 3304 2112 
Q 3559 1806 3559 1356 
Q 3559 666 3084 287 
Q 2609 -91 1734 -91 
Q 1441 -91 1130 -33 
Q 819 25 488 141 
L 488 750 
Q 750 597 1062 519 
Q 1375 441 1716 441 
Q 2309 441 2620 675 
Q 2931 909 2931 1356 
Q 2931 1769 2642 2001 
Q 2353 2234 1838 2234 
L 1294 2234 
L 1294 2753 
L 1863 2753 
Q 2328 2753 2575 2939 
Q 2822 3125 2822 3475 
Q 2822 3834 2567 4026 
Q 2313 4219 1838 4219 
Q 1578 4219 1281 4162 
Q 984 4106 628 3988 
L 628 4550 
Q 988 4650 1302 4700 
Q 1616 4750 1894 4750 
Q 2613 4750 3031 4423 
Q 3450 4097 3450 3541 
Q 3450 3153 3228 2886 
Q 3006 2619 2597 2516 
z
" transform="scale(0.015625)"/>
      </defs>
      <use xlink:href="#DejaVuSans-33"/>
      <use xlink:href="#DejaVuSans-30" x="63.623047"/>
     </g>
    </g>
   </g>
   <g id="xtick_18">
    <g id="line2d_21">
     <path d="M 354.581414 127.84306 
L 358.25685 128.810408 
" style="fill: none; stroke: #000000; stroke-width: 0.8; stroke-linecap: square"/>
    </g>
    <g id="text_18">
     <!-- 35 -->
     <g transform="translate(368.281846 133.324063) scale(0.1 -0.1)">
      <use xlink:href="#DejaVuSans-33"/>
      <use xlink:href="#DejaVuSans-35" x="63.623047"/>
     </g>
    </g>
   </g>
   <g id="xtick_19">
    <g id="line2d_22">
     <path d="M 355.226552 113.602897 
L 358.92346 114.558093 
" style="fill: none; stroke: #000000; stroke-width: 0.8; stroke-linecap: square"/>
    </g>
    <g id="text_19">
     <!-- 40 -->
     <g transform="translate(369.037656 119.110544) scale(0.1 -0.1)">
      <defs>
       <path id="DejaVuSans-34" d="M 2419 4116 
L 825 1625 
L 2419 1625 
L 2419 4116 
z
M 2253 4666 
L 3047 4666 
L 3047 1625 
L 3713 1625 
L 3713 1100 
L 3047 1100 
L 3047 0 
L 2419 0 
L 2419 1100 
L 313 1100 
L 313 1709 
L 2253 4666 
z
" transform="scale(0.015625)"/>
      </defs>
      <use xlink:href="#DejaVuSans-34"/>
      <use xlink:href="#DejaVuSans-30" x="63.623047"/>
     </g>
    </g>
   </g>
  </g>
  <g id="axes_1">
   <g id="line2d_23">
    <path d="M 225.401884 199.95372 
L 223.400384 202.212656 
L 218.655239 204.325856 
L 209.989696 207.366995 
L 201.887351 208.041098 
L 195.78277 206.712591 
L 186.379841 203.294772 
L 177.159699 196.963818 
L 169.53912 186.932535 
L 162.322601 174.462296 
L 160.458815 160.203144 
L 162.783057 146.086068 
L 170.460617 134.338979 
L 180.560804 128.69298 
L 192.241354 128.621558 
L 204.532558 131.698312 
L 215.191908 137.718513 
L 223.033133 144.332339 
L 228.423719 151.092534 
L 237.132638 165.331406 
L 238.464796 170.901112 
L 240.937296 175.445892 
L 240.968807 179.793407 
L 241.664677 185.034578 
L 242.835391 188.93065 
L 243.625804 192.182678 
L 242.821531 194.85581 
L 242.220399 197.961382 
L 242.670879 201.092289 
L 242.716143 203.877527 
L 242.635736 206.086884 
L 242.060508 208.023292 
L 242.196386 209.393177 
L 240.255081 212.163689 
L 240.83068 216.61954 
L 238.170494 217.143859 
L 237.36561 218.765956 
L 236.695665 221.203661 
L 233.615083 223.683656 
L 231.25693 224.141741 
L 227.622107 226.641223 
L 221.447647 226.567429 
L 215.828747 227.440417 
L 207.393908 229.256533 
L 198.12167 228.128317 
L 186.721452 224.899045 
L 172.562794 217.524669 
L 158.333181 204.594928 
L 145.961128 187.074357 
L 141.061334 160.772441 
L 145.145198 134.857708 
L 157.49218 116.29338 
L 177.706445 108.099991 
L 198.010477 109.413731 
L 215.287652 117.555076 
L 229.682411 127.15542 
L 240.043506 137.174308 
L 248.698124 146.494738 
L 254.587492 154.273514 
L 257.53233 160.510167 
L 262.495955 166.363459 
L 264.121139 170.014138 
L 266.078933 173.059245 
L 269.304361 174.906103 
L 272.963605 177.264659 
L 275.071161 178.452463 
L 280.241727 178.173829 
L 287.755705 175.457395 
L 292.361307 173.374142 
L 297.544181 169.225171 
L 301.376498 165.629575 
L 306.286865 160.175842 
L 308.853483 155.424709 
L 310.047802 151.44517 
L 307.5567 146.901311 
L 306.554735 147.399265 
L 301.401768 146.708242 
L 295.774891 147.88281 
L 289.082882 150.311394 
L 284.353721 155.999076 
L 280.424683 157.713378 
L 274.906083 160.87162 
L 271.957672 165.426024 
L 269.806987 167.647665 
L 268.533742 170.402688 
L 268.355651 173.229028 
L 267.488826 174.795836 
L 268.615068 177.820386 
L 268.721745 179.417485 
L 270.960693 179.910266 
L 273.983687 181.307621 
L 277.075676 180.485303 
L 282.467267 180.459021 
L 286.553937 179.120261 
L 290.530653 177.117541 
L 296.930068 172.003143 
L 303.611724 167.79918 
L 305.889478 161.74339 
L 310.343837 156.715015 
L 312.512502 150.966048 
L 311.768055 147.472506 
L 310.064311 145.069227 
L 304.366008 145.981841 
L 298.327391 146.366729 
L 290.915892 150.418547 
L 284.495951 153.038532 
L 278.977497 156.975224 
L 274.092733 159.424308 
L 270.056869 164.740376 
L 267.086562 167.948998 
L 266.542026 170.836311 
L 265.217103 173.241111 
L 265.088065 176.307026 
L 264.841218 178.883125 
L 268.606694 181.996827 
L 271.163263 183.411724 
L 273.889715 183.568929 
L 277.897457 183.55224 
L 281.718228 182.049253 
L 287.208522 180.189041 
L 291.065116 177.604369 
L 298.603719 172.28097 
L 304.715989 166.929937 
L 310.218942 160.34596 
L 312.539611 154.427405 
L 314.329258 149.185515 
L 313.483819 144.721485 
L 309.274698 142.612214 
L 304.137648 142.682298 
L 296.051496 146.137425 
L 289.410034 149.937624 
L 281.59062 152.775224 
L 275.318995 158.288265 
L 271.467809 161.965634 
L 266.884082 165.550203 
L 264.694356 168.719287 
L 262.235338 172.813006 
L 262.192149 174.670372 
L 261.306947 178.93451 
L 262.520471 180.17346 
L 262.419342 183.086668 
L 265.142525 184.404045 
L 267.016348 186.084475 
L 271.247208 186.940109 
L 275.253118 186.688243 
L 278.02525 186.314619 
L 284.926391 184.4876 
L 291.20591 180.494571 
L 297.889511 177.414449 
L 303.961957 171.38043 
L 309.26104 163.962166 
L 315.080716 156.800628 
L 318.083883 149.598533 
L 317.546225 143.737584 
L 313.771003 140.144942 
L 299.930454 142.697358 
L 290.602716 147.001186 
L 282.104239 151.689941 
L 276.625491 156.42646 
L 269.773936 160.606627 
L 265.319828 165.735282 
L 261.242731 168.831574 
L 260.482088 172.172104 
L 258.143716 175.018711 
L 257.572252 178.958681 
L 256.461604 181.08736 
L 258.667074 184.547132 
L 259.148732 186.187642 
L 260.970371 188.171173 
L 262.586486 190.459117 
L 264.778317 191.870677 
L 270.324697 192.034622 
L 272.760544 191.778719 
L 279.054745 190.644124 
L 285.509482 188.855963 
L 292.411775 183.655452 
L 298.684571 178.372529 
L 307.330764 171.497906 
L 313.03339 162.844422 
L 319.870884 153.676174 
L 323.277416 145.024244 
L 320.351884 139.483366 
L 315.690872 137.124394 
L 307.032196 137.666511 
L 297.10326 141.293657 
L 285.713345 147.315845 
L 276.686712 152.648971 
L 262.819057 163.763417 
L 258.670367 166.660299 
L 255.544266 171.700262 
L 253.754581 175.460011 
L 250.786882 178.012662 
L 251.224262 182.320107 
L 249.889474 185.585539 
L 249.967723 188.448411 
L 250.273758 191.219903 
L 252.571716 192.96582 
L 253.004461 195.969272 
L 254.202107 197.980752 
L 256.100355 199.016256 
L 259.787705 200.688459 
L 261.449085 200.653316 
L 266.188748 202.367575 
L 270.202722 200.820411 
L 276.819175 199.086241 
L 283.021385 196.807707 
L 291.331675 191.65897 
L 299.126035 184.395938 
L 308.618844 176.084602 
L 318.074477 164.364076 
L 327.292473 152.245044 
L 332.292706 140.740104 
L 328.699774 132.79228 
L 320.882404 129.46944 
L 309.851021 133.30272 
L 295.265706 137.849996 
L 282.027527 145.111451 
L 268.95687 153.028613 
L 259.995999 159.002476 
L 253.831705 164.373592 
L 248.60723 169.869878 
L 245.145861 172.923444 
L 241.997414 175.992034 
L 239.614889 181.246001 
L 239.248336 184.235757 
L 237.217748 186.660052 
L 235.365029 190.485898 
L 234.260358 194.095515 
L 232.293229 197.105766 
L 230.710993 199.128261 
L 227.548629 202.796619 
L 224.77873 204.577599 
L 220.859999 206.841078 
L 216.064433 208.203132 
L 211.518407 209.845552 
L 202.396808 209.62529 
L 195.344757 208.676899 
L 187.173829 205.389394 
L 178.810838 199.501859 
L 168.347271 190.539871 
L 161.16288 177.309089 
L 158.30292 161.248206 
L 160.562759 147.051329 
L 168.594683 134.2733 
L 179.710195 127.66034 
L 193.319802 126.543208 
L 204.858157 129.486432 
L 225.242557 143.426675 
L 230.150928 150.949639 
L 234.541277 157.121487 
L 240.470631 169.777583 
L 242.223203 175.052225 
L 244.466641 179.769647 
L 246.02275 183.337611 
L 245.930861 187.89749 
L 244.696558 190.3306 
L 247.234599 194.392373 
L 246.123374 197.37206 
L 249.070054 199.943514 
L 250.046386 201.082067 
L 250.873695 203.62757 
L 251.872743 204.791591 
L 251.28374 207.170042 
L 257.022586 208.38784 
L 258.391288 208.278503 
L 261.761697 207.740445 
L 266.560859 207.945762 
L 273.055289 205.874648 
L 279.03078 204.185271 
L 288.2333 198.470872 
L 297.201847 192.096706 
L 308.706187 181.856778 
L 319.94221 170.208555 
L 330.256715 155.79727 
L 336.264666 140.819327 
L 336.670603 128.58612 
L 328.538094 125.391574 
L 314.998836 127.974956 
L 297.589011 135.218695 
L 280.987134 142.771268 
L 256.655553 158.611342 
L 248.851468 163.925596 
L 242.422881 168.470627 
L 236.064786 175.92816 
L 233.289706 179.127099 
L 230.641345 182.599846 
L 227.131093 189.455849 
L 222.853016 192.746458 
L 220.503765 194.331154 
L 216.933174 197.024461 
L 213.427583 198.325093 
L 209.299056 200.059582 
L 201.719512 199.846956 
L 189.551072 196.109032 
L 180.687244 190.515642 
L 174.411174 183.702515 
L 170.765077 175.024548 
L 167.192204 162.935301 
L 169.83043 152.119802 
L 173.347044 143.066253 
L 181.722911 139.538798 
L 190.555664 136.331999 
L 201.074832 138.067478 
L 207.578794 141.309929 
L 214.790459 146.160871 
L 220.611955 152.350784 
L 224.553533 158.503646 
L 226.80378 164.604422 
L 229.417343 169.88801 
L 230.699637 174.680147 
L 230.852606 179.150806 
L 230.00927 184.553146 
L 230.659953 187.867208 
L 230.528605 191.307181 
L 226.848877 194.010762 
L 224.83655 198.099658 
L 223.161198 199.864731 
L 218.876432 201.554518 
L 215.114095 203.611987 
L 209.783854 204.869555 
L 202.934359 205.309286 
L 195.477128 203.752475 
L 186.844328 201.679337 
L 179.392078 195.707573 
L 170.354283 185.776296 
L 164.930782 175.61391 
L 161.737795 162.08394 
L 164.45893 149.859625 
L 170.86711 138.166706 
L 180.820286 132.321009 
L 191.355161 130.167793 
L 203.281056 132.521783 
L 212.154838 138.150225 
L 218.212672 144.063316 
L 225.922843 150.738646 
L 233.249842 163.38907 
L 236.449222 170.275264 
L 238.04419 174.903428 
L 237.876077 180.179257 
L 238.941837 183.293521 
L 238.322843 187.862079 
L 238.175082 191.351846 
L 235.829553 195.212745 
L 237.249395 198.356707 
L 235.868621 201.882908 
L 233.209345 206.056133 
L 230.708326 209.019942 
L 228.567766 211.277658 
L 225.249382 212.335894 
L 220.272949 214.753348 
L 213.691869 216.598082 
L 208.741353 217.708452 
L 189.970029 213.96311 
L 178.954614 208.525976 
L 167.374148 199.842295 
L 157.321361 186.270344 
L 152.290108 167.851155 
L 154.262139 148.854051 
L 161.26658 130.975269 
L 173.029617 120.610554 
L 188.847639 118.509139 
L 203.824851 121.3234 
L 216.973709 129.261758 
L 226.406527 138.682848 
L 234.895561 146.004166 
L 239.713873 154.729115 
L 243.911188 160.435463 
L 248.17711 166.759191 
L 249.730398 173.096125 
L 252.800909 176.753645 
L 254.661419 180.14647 
L 255.336502 183.845729 
L 258.86888 186.786501 
L 259.204662 188.93011 
L 262.165599 190.689842 
L 266.092413 192.131988 
L 269.830723 192.229314 
L 274.804954 191.215268 
L 279.117437 189.73211 
L 286.802662 188.367036 
L 294.743865 183.189161 
L 301.178466 176.728562 
L 308.694274 169.728729 
L 316.667198 159.954635 
L 321.961789 150.422139 
L 322.606448 143.030395 
L 320.698817 137.389461 
L 314.055581 135.484978 
L 304.784833 137.007871 
L 294.685369 142.628048 
L 273.202453 154.08909 
L 267.100431 159.895562 
L 261.614735 163.611054 
L 257.284696 168.488517 
L 253.967828 171.872256 
L 252.235348 175.538358 
L 250.433183 179.875012 
L 250.196236 183.149036 
L 249.064299 185.606691 
L 249.762159 188.274209 
L 250.341096 192.191933 
L 249.792375 194.406402 
L 251.950432 196.748112 
L 252.854203 197.922964 
L 253.844294 200.612145 
L 256.373021 200.984668 
L 259.133251 203.195867 
L 263.218968 204.218255 
L 266.124478 203.778872 
L 270.219523 203.460211 
L 276.380429 201.607652 
L 285.017788 197.819089 
L 293.86034 192.75242 
L 302.520698 184.654793 
L 313.092264 174.560088 
L 322.087988 162.330114 
L 330.689762 149.441876 
L 333.387254 136.551773 
L 329.119254 128.947579 
L 320.517975 127.829862 
L 306.383706 132.543224 
L 290.757421 139.217536 
L 276.645471 148.091527 
L 265.274867 154.39366 
L 256.309206 160.067598 
L 250.696936 165.220346 
L 244.587025 169.552597 
L 239.173928 177.570686 
L 236.681694 181.993685 
L 234.305985 184.391716 
L 234.179313 188.02545 
L 230.795442 190.050465 
L 229.708086 194.892645 
L 226.869166 197.060991 
L 225.227411 200.25639 
L 221.875092 202.691807 
L 217.384497 204.396828 
L 210.051931 205.970954 
L 205.536741 205.757409 
L 198.942958 206.066209 
L 191.411874 204.352878 
L 183.198989 198.932189 
L 173.846345 192.561924 
L 168.541045 181.71957 
L 162.294328 167.238936 
L 163.199345 153.19326 
L 167.191598 141.247541 
L 175.777443 131.779854 
L 186.761338 129.041242 
L 197.988561 131.23278 
L 208.29918 135.148842 
L 218.274367 142.623503 
L 224.67684 148.422736 
L 228.215128 155.268719 
L 233.577001 161.487469 
L 235.990525 167.646224 
L 236.408024 173.314088 
L 238.900219 177.169057 
L 238.747131 182.714621 
L 240.817918 186.040314 
L 240.011066 189.887763 
L 238.626741 193.635922 
L 239.432015 196.694454 
L 237.025719 200.327082 
L 237.483119 202.222097 
L 236.970315 205.468435 
L 234.264546 208.644378 
L 233.675949 209.931182 
L 231.273173 212.798592 
L 226.709522 214.875832 
L 223.262862 216.768455 
L 218.813854 218.263525 
L 210.842185 218.479673 
L 204.562861 218.966836 
L 194.416922 217.063738 
L 183.660817 212.892163 
L 173.393341 206.602048 
L 161.533263 194.468603 
L 154.01751 176.623937 
L 150.728203 156.760203 
L 153.602167 135.963 
L 167.356018 122.942853 
L 180.976825 115.850749 
L 198.004957 117.594569 
L 212.305261 124.765852 
L 223.63627 133.446706 
L 234.380116 142.301704 
L 245.639308 157.543057 
L 247.783858 163.94625 
L 250.70912 169.322969 
L 253.886618 174.078326 
L 256.70794 177.801108 
L 258.624946 182.243407 
L 260.046411 184.553329 
L 262.395116 186.157435 
L 265.365923 187.684871 
L 268.706422 188.730101 
L 272.252148 187.447064 
L 278.196915 188.916378 
L 283.036585 187.228717 
L 290.713716 183.512017 
L 295.720598 178.856574 
L 303.874813 171.951428 
L 312.725101 164.750452 
L 317.225459 156.058358 
L 320.414323 148.020265 
L 320.572566 141.906895 
L 315.777868 137.593878 
L 308.866585 138.399305 
L 299.975602 140.914185 
L 289.764313 144.845369 
L 280.647014 150.65232 
L 271.958175 155.966446 
L 266.702516 160.975877 
L 262.484463 165.210897 
L 259.861417 169.698928 
L 255.577434 173.956252 
L 254.205956 175.762587 
L 253.433284 180.44037 
L 253.369632 182.8596 
L 253.176393 185.364382 
L 255.079568 187.412844 
L 255.863363 191.37322 
L 257.675405 193.242265 
L 260.234667 195.330554 
L 262.085502 196.050759 
L 265.122353 197.524097 
L 275.641061 195.401804 
L 280.021211 194.279008 
L 286.653781 189.885119 
L 296.001113 184.96139 
L 305.076112 178.157858 
L 313.69375 167.981228 
L 321.722504 159.741197 
L 325.79956 147.389897 
L 326.841292 138.655118 
L 321.942552 133.79858 
L 313.655575 132.30061 
L 289.611258 143.20145 
L 278.995399 149.651603 
L 268.244756 155.46957 
L 260.044388 161.643771 
L 255.449977 166.274461 
L 252.145645 169.399733 
L 248.797909 173.132322 
L 246.85545 177.827959 
L 245.495288 180.714467 
L 243.743361 184.713406 
L 243.880303 188.972173 
L 242.597781 192.112161 
L 241.759925 194.915366 
L 241.270886 197.133942 
L 241.056985 199.95412 
L 240.263669 204.279307 
L 240.154484 205.576579 
L 238.692536 207.392709 
L 237.187763 209.958107 
L 236.922377 211.535024 
L 234.721797 214.613667 
L 233.030611 216.204959 
L 228.982048 217.780972 
L 225.70462 219.328127 
L 220.295452 221.639782 
L 214.826996 222.929366 
L 198.415132 222.799372 
L 186.941345 219.551252 
L 174.475198 212.415373 
L 162.119467 202.159959 
L 150.941238 185.203363 
L 146.72048 163.968699 
L 148.330323 141.26292 
L 158.800239 122.583229 
L 175.657611 112.661221 
L 192.469313 113.224654 
L 209.934548 119.828174 
L 223.556459 128.159991 
L 233.049261 137.827489 
L 241.193617 147.114228 
L 247.357423 154.34106 
L 247.357423 154.34106 
" clip-path="url(#p166e37fd42)" style="fill: none; stroke: #0000cc; stroke-linecap: square"/>
   </g>
   <g id="line2d_24">
    <path d="M 226.218638 200.12888 
L 223.176098 202.627978 
L 219.445323 204.827516 
L 214.838454 206.545922 
L 209.233418 207.59205 
L 202.543563 207.661971 
L 194.775318 206.306386 
L 186.130979 202.922604 
L 177.155601 196.824011 
L 168.871885 187.464239 
L 162.780967 174.882343 
L 160.530864 160.225554 
L 163.214181 145.877211 
L 170.665323 134.699619 
L 181.404328 128.667902 
L 193.370296 128.00833 
L 204.81112 131.50928 
L 214.704217 137.487357 
L 222.691787 144.523414 
L 228.828936 151.697313 
L 233.370385 158.528129 
L 236.712104 164.792079 
L 238.998635 170.506018 
L 240.558374 175.66203 
L 241.594903 180.316608 
L 242.262298 184.531813 
L 242.672587 188.366233 
L 243.009128 195.092169 
L 242.960987 200.820165 
L 242.651777 205.776699 
L 242.067988 210.129188 
L 241.641243 212.121889 
L 241.094495 214.013135 
L 240.39419 215.81864 
L 239.496283 217.553749 
L 238.343438 219.233259 
L 236.859499 220.870683 
L 234.990493 222.456225 
L 232.526256 224.02727 
L 229.343277 225.555796 
L 225.231384 226.993415 
L 219.933327 228.230996 
L 213.145115 229.049345 
L 204.543556 229.03725 
L 193.876967 227.471452 
L 181.153385 223.177696 
L 167.012004 214.484494 
L 153.254977 199.574754 
L 143.193735 177.711281 
L 140.910645 151.273947 
L 148.811034 126.570948 
L 165.268855 110.682383 
L 185.527265 106.392281 
L 205.027834 111.191356 
L 221.391466 120.591624 
L 234.126136 131.090646 
L 243.655971 140.874341 
L 250.513822 149.352317 
L 255.698659 156.387263 
L 262.838511 166.863466 
L 265.629033 170.623738 
L 268.301229 173.548828 
L 271.064566 175.695377 
L 274.073877 177.080323 
L 277.437165 177.68611 
L 281.215546 177.46845 
L 285.41832 176.370202 
L 289.985171 174.33903 
L 294.765521 171.361998 
L 299.497329 167.50756 
L 303.797339 162.977339 
L 307.185472 158.144313 
L 309.157396 153.543983 
L 309.30939 149.791114 
L 307.477789 147.418126 
L 303.827706 146.704803 
L 298.796249 147.625968 
L 293.107787 149.774073 
L 287.349698 152.727716 
L 282.025508 156.067417 
L 277.456669 159.492117 
L 273.794622 162.825706 
L 271.070668 165.982375 
L 269.244819 168.923484 
L 268.247191 171.625757 
L 268.004689 174.064124 
L 268.456003 176.201703 
L 269.559312 177.988379 
L 271.291784 179.358775 
L 273.646712 180.232115 
L 276.625113 180.51287 
L 280.223655 180.092007 
L 284.41599 178.854159 
L 289.127185 176.692659 
L 294.202588 173.538449 
L 299.372351 169.406573 
L 304.24745 164.454563 
L 308.256152 159.039237 
L 310.814246 153.741078 
L 311.398131 149.272637 
L 309.73708 146.300976 
L 305.946697 145.21977 
L 300.528342 146.012036 
L 294.220425 148.297159 
L 287.77764 151.525654 
L 281.800275 155.185983 
L 276.663849 158.919827 
L 272.536441 162.530005 
L 269.441946 165.93293 
L 267.320074 169.102618 
L 266.078947 172.03038 
L 265.624646 174.703024 
L 265.880302 177.093612 
L 266.793414 179.159547 
L 268.336938 180.841549 
L 270.506964 182.063938 
L 273.353531 182.623728 
L 276.826207 182.633873 
L 280.962903 181.844566 
L 285.737402 180.122127 
L 291.055679 177.343162 
L 296.725334 173.434513 
L 302.404128 168.442835 
L 307.564329 162.610177 
L 311.536378 156.437109 
L 313.616215 150.689884 
L 313.255533 146.238402 
L 310.297262 143.785032 
L 305.084692 143.601922 
L 298.380358 145.421101 
L 291.108228 148.632882 
L 284.088565 152.560429 
L 277.874541 156.676751 
L 272.746263 160.683186 
L 268.781647 164.4582 
L 265.917518 167.972491 
L 264.047745 171.244748 
L 263.033885 174.25943 
L 262.774929 177.022911 
L 263.189655 179.510356 
L 264.22936 181.678817 
L 265.876691 183.46889 
L 268.140467 184.803449 
L 271.050347 185.58513 
L 274.648321 185.694152 
L 278.970682 184.986277 
L 284.027523 183.297582 
L 289.766536 180.46171 
L 296.022838 176.348059 
L 302.463388 170.934023 
L 308.535274 164.40789 
L 313.468986 157.276649 
L 316.381871 150.404241 
L 316.516373 144.877024 
L 313.551547 141.65663 
L 307.810012 141.175364 
L 300.184975 143.166326 
L 291.835049 146.829561 
L 283.766548 151.299699 
L 276.65472 155.920342 
L 270.816891 160.340228 
L 266.305037 164.442215 
L 263.020509 168.230306 
L 260.803769 171.744684 
L 259.48838 175.019732 
L 258.931704 178.066973 
L 259.026734 180.876725 
L 259.705092 183.420545 
L 260.935629 185.653616 
L 262.721186 187.517129 
L 265.093716 188.934451 
L 268.109478 189.807199 
L 271.840486 190.009292 
L 276.362376 189.381309 
L 281.732363 187.728771 
L 287.952256 184.833251 
L 294.889639 180.431483 
L 302.309399 174.520631 
L 309.597091 167.117413 
L 315.868812 158.695984 
L 320.001584 150.236096 
L 320.912036 143.128838 
L 317.999487 138.749461 
L 311.518895 137.828697 
L 302.569427 140.08564 
L 292.646622 144.463382 
L 283.082782 149.752747 
L 274.72605 155.081927 
L 267.931195 160.035644 
L 262.707504 164.52552 
L 258.883529 168.613744 
L 256.22579 172.394984 
L 254.50454 175.941807 
L 253.524926 179.292832 
L 253.138488 182.458154 
L 253.241932 185.427027 
L 253.711469 188.171334 
L 254.639454 190.679811 
L 255.976733 192.900564 
L 257.76007 194.785514 
L 260.05269 196.271186 
L 262.943353 197.271768 
L 266.544015 197.669982 
L 270.983516 197.306229 
L 276.39508 195.967043 
L 282.887071 193.377875 
L 290.49157 189.214763 
L 299.074171 183.156172 
L 308.202985 175.008216 
L 317.007103 164.938812 
L 324.108478 153.78126 
L 327.810214 143.211602 
L 326.670941 135.43911 
L 320.303801 132.237207 
L 309.794829 133.879917 
L 297.250757 139.023536 
L 284.777941 145.687708 
L 273.800436 152.354055 
L 264.887987 158.309277 
L 258.037934 163.458458 
L 252.966286 167.972649 
L 249.303128 172.06201 
L 246.692382 175.88573 
L 244.832198 179.535331 
L 243.482492 183.053362 
L 242.459129 186.451946 
L 239.301065 198.785136 
L 238.352341 201.541921 
L 237.210614 204.173741 
L 235.805732 206.686839 
L 234.055541 209.085163 
L 231.860138 211.367179 
L 229.096039 213.51902 
L 225.514458 215.281312 
L 221.163646 217.057781 
L 215.690112 218.428969 
L 208.875263 219.132908 
L 200.529628 218.723928 
L 190.600873 216.500566 
L 179.358117 211.459086 
L 167.667605 202.389706 
L 157.284713 188.340598 
L 150.823502 169.598779 
L 150.905356 148.768496 
L 158.527276 130.541308 
L 172.068399 119.29181 
L 188.220174 116.430837 
L 203.900664 120.241714 
L 217.346639 127.796942 
L 228.039294 136.639872 
L 236.171214 145.323369 
L 242.210373 153.228381 
L 246.666417 160.181284 
L 250.016955 166.213436 
L 256.857629 179.564966 
L 258.922748 182.714191 
L 261.184209 185.277698 
L 263.783842 187.248009 
L 266.850682 188.58344 
L 270.504562 189.20435 
L 274.855606 188.990409 
L 279.988832 187.77981 
L 285.94041 185.377196 
L 292.649317 181.580001 
L 299.889118 176.241021 
L 307.19073 169.378106 
L 313.780834 161.330571 
L 318.616583 152.902966 
L 320.589991 145.355451 
L 318.92453 140.09417 
L 313.587886 138.085109 
L 305.411717 139.375236 
L 295.808921 143.125307 
L 286.16892 148.145006 
L 277.491803 153.448617 
L 270.274565 158.488955 
L 264.624321 163.08841 
L 260.421276 167.269871 
L 257.451319 171.119627 
L 255.486124 174.715082 
L 254.322979 178.103403 
L 253.802893 181.300604 
L 253.81196 184.300745 
L 254.278982 187.082957 
L 255.171819 189.615843 
L 256.491733 191.860396 
L 258.269923 193.766136 
L 260.565647 195.268016 
L 263.464024 196.279093 
L 267.071371 196.68139 
L 271.51173 196.315285 
L 276.962476 195.007107 
L 283.39015 192.391073 
L 290.898827 188.227563 
L 299.332508 182.210105 
L 308.242655 174.174181 
L 316.758196 164.321517 
L 323.53758 153.496376 
L 326.956809 143.334218 
L 325.67002 135.941017 
L 319.366734 132.958155 
L 309.121317 134.603835 
L 296.942986 139.589849 
L 284.849618 146.047819 
L 274.184656 152.536137 
L 265.506018 158.377388 
L 258.824175 163.463119 
L 253.873595 167.945593 
L 250.307417 172.018336 
L 247.788341 175.828111 
L 246.022787 179.46295 
L 244.732338 182.960661 
L 243.841702 186.334747 
L 242.628362 192.693982 
L 241.118731 201.199417 
L 240.499858 203.764953 
L 239.752418 206.20772 
L 238.829129 208.538508 
L 237.673968 210.768642 
L 236.217239 212.908983 
L 234.370717 214.967574 
L 232.023402 216.943961 
L 229.034119 218.822685 
L 225.225709 220.560532 
L 220.383117 222.063347 
L 214.256469 223.147115 
L 206.584411 223.478405 
L 197.157131 222.487114 
L 185.893289 219.23727 
L 173.343592 212.469124 
L 160.73639 200.712078 
L 150.503767 183.10032 
L 145.921734 160.782317 
L 149.606314 137.976007 
L 161.477199 120.605844 
L 178.422349 112.588721 
L 196.365029 113.577731 
L 212.441611 120.381945 
L 225.504903 129.631463 
L 235.540382 139.124542 
L 243.023323 147.822567 
L 248.548247 155.396531 
L 252.674332 161.846685 
L 258.538714 171.829996 
L 260.959722 175.590938 
L 263.375673 178.633202 
L 265.974283 180.987725 
L 268.953734 182.669498 
L 272.34916 183.584557 
L 276.301835 183.68579 
L 280.874117 182.862226 
L 286.075906 180.983946 
L 291.832023 177.926907 
L 297.935758 173.620688 
L 304.003442 168.127092 
L 309.444138 161.738804 
L 313.499049 155.055082 
L 315.379345 148.965537 
L 314.515321 144.455738 
L 310.81096 142.265844 
L 304.757095 142.580682 
L 297.277529 144.984517 
L 289.41052 148.719315 
L 282.00879 153.034465 
L 275.603738 157.408764 
L 270.423263 161.577102 
L 266.480968 165.457592 
L 263.682616 169.052462 
L 261.869113 172.392422 
L 260.904166 175.494011 
L 260.668902 178.354498 
L 261.078184 180.952168 
L 262.082503 183.24744 
L 263.666891 185.184649 
L 265.846019 186.691224 
L 268.658792 187.674043 
L 272.161169 188.016042 
L 276.412546 187.571101 
L 281.456752 186.164375 
L 287.288926 183.601348 
L 293.80509 179.698896 
L 300.738996 174.348228 
L 307.589886 167.623941 
L 313.584738 159.923272 
L 317.737037 152.070991 
L 319.065704 145.265356 
L 316.962459 140.746115 
L 311.516041 139.281071 
L 303.606493 140.787821 
L 294.51355 144.45991 
L 285.487573 149.23516 
L 277.403524 154.258762 
L 270.694855 159.056886 
L 265.454179 163.470606 
L 261.574793 167.511524 
L 258.867302 171.244917 
L 257.128329 174.731183 
L 256.179589 178.003481 
L 255.881349 181.068345 
L 256.13819 183.911777 
L 256.894546 186.50385 
L 258.132689 188.80415 
L 259.868274 190.758557 
L 262.145697 192.299107 
L 265.036632 193.335224 
L 268.631837 193.748286 
L 273.036174 193.381341 
L 278.39358 192.086676 
L 284.660379 189.488341 
L 291.883947 185.396796 
L 299.86837 179.57175 
L 308.139341 171.931534 
L 315.843787 162.754302 
L 321.746203 152.898943 
L 324.437026 143.869943 
L 322.837705 137.474798 
L 316.802331 135.027633 
L 307.337321 136.62262 
L 296.20016 141.143233 
L 285.13442 147.020569 
L 275.316826 153.022545 
L 267.271574 158.538258 
L 261.045221 163.435286 
L 256.42963 167.810962 
L 253.130821 171.81352 
L 250.858024 175.560013 
L 249.357464 179.121066 
L 248.360735 182.516004 
L 247.849916 185.778662 
L 247.657911 188.886105 
L 247.717275 191.825778 
L 247.989739 194.584688 
L 248.460872 197.15001 
L 249.135967 199.508582 
L 250.037835 201.645211 
L 251.206156 203.539705 
L 252.699131 205.164564 
L 254.595406 206.479409 
L 256.996796 207.424411 
L 260.031936 207.911299 
L 263.85865 207.810841 
L 268.663729 206.935819 
L 274.652009 205.019657 
L 282.018913 201.698123 
L 290.887058 196.505013 
L 301.179951 188.922972 
L 312.423805 178.548115 
L 323.462938 165.462415 
L 332.368859 150.774172 
L 336.561318 137.028568 
L 333.88959 127.700363 
L 324.055694 125.316074 
L 309.1945 129.577817 
L 292.707206 137.674086 
L 277.430135 146.492851 
L 264.780054 154.247001 
L 254.994728 160.519295 
L 247.710036 165.585817 
L 242.370022 169.870858 
L 238.428359 173.710297 
L 235.418779 177.304737 
L 232.96697 180.748475 
L 228.628085 187.250711 
L 226.326016 190.264849 
L 223.717669 193.061879 
L 220.665027 195.578107 
L 217.050227 197.75632 
L 212.734717 199.401064 
L 207.64237 200.36132 
L 201.732853 200.3739 
L 195.061048 199.086733 
L 187.849206 196.068811 
L 180.570813 190.883924 
L 174.011318 183.257788 
L 169.232026 173.352304 
L 167.336782 162.037427 
L 169.05595 150.920297 
L 174.344264 141.90691 
L 182.316308 136.439895 
L 191.607914 134.942531 
L 200.908767 136.858763 
L 209.302225 141.13581 
L 216.327076 146.717234 
L 221.871264 152.804746 
L 226.026579 158.894953 
L 228.975866 164.71845 
L 231.037785 170.109134 
L 232.180475 175.14135 
L 232.65201 179.766185 
L 232.559891 184.013256 
L 231.969635 187.918059 
L 230.908625 191.512013 
L 229.370146 194.817703 
L 227.315672 197.844729 
L 224.678404 200.581585 
L 221.365315 202.988599 
L 217.263099 204.983646 
L 212.249351 206.42067 
L 206.214566 207.062432 
L 199.10947 206.548139 
L 191.018839 204.369449 
L 182.282628 199.890761 
L 173.636532 192.477348 
L 166.30036 181.808319 
L 161.854644 168.370367 
L 161.743861 153.84502 
L 166.525038 140.882366 
L 175.447595 132.021418 
L 186.718432 128.467937 
L 198.387917 129.754325 
L 209.041175 134.411505 
L 217.975411 140.863868 
L 225.034743 147.931883 
L 230.37142 154.915103 
L 234.263681 161.471907 
L 237.014147 167.479517 
L 238.896146 172.927239 
L 240.136167 177.854424 
L 240.908318 182.318957 
L 241.341225 186.379754 
L 241.524375 190.092543 
L 241.516018 193.505906 
L 241.350632 196.661307 
L 241.043229 199.594534 
L 240.593516 202.335046 
L 239.987753 204.90956 
L 239.245271 207.354898 
L 238.227143 209.652547 
L 236.935475 211.848648 
L 235.294488 213.954663 
L 233.206247 215.976811 
L 230.546031 217.909529 
L 227.155681 219.725581 
L 222.838136 221.359064 
L 217.359846 222.674946 
L 210.460444 223.42109 
L 201.893945 223.153273 
L 191.526163 221.137256 
L 179.53232 216.263716 
L 166.73253 207.101881 
L 154.978987 192.353305 
L 147.244256 171.99425 
L 146.725813 148.729544 
L 154.852202 128.024914 
L 169.84348 115.250763 
L 187.759783 112.161219 
L 204.964409 116.601346 
L 219.543524 125.020062 
L 231.007915 134.586348 
L 239.656914 143.742898 
L 246.057509 151.87548 
L 250.797451 158.860792 
L 254.395089 164.773497 
L 259.781092 173.871133 
L 262.173022 177.256619 
L 264.661497 179.944732 
L 267.41389 181.947586 
L 270.567167 183.240725 
L 274.231826 183.762807 
L 278.489945 183.418625 
L 283.381842 182.086118 
L 288.879523 179.632902 
L 294.849344 175.953499 
L 301.000724 171.032538 
L 306.84772 165.033027 
L 311.692273 158.382728 
L 314.75533 151.871927 
L 315.313262 146.453762 
L 313.006232 143.039566 
L 308.033483 142.118165 
L 301.135406 143.558837 
L 293.337098 146.730138 
L 285.612642 150.838453 
L 278.661971 155.232099 
L 272.854844 159.523573 
L 268.299387 163.551719 
L 264.940886 167.288089 
L 262.648818 170.754317 
L 261.275516 173.975081 
L 260.687351 176.95856 
L 260.781613 179.692753 
L 261.491127 182.146572 
L 262.78407 184.272552 
L 264.660472 186.00651 
L 267.148298 187.266455 
L 267.148298 187.266455 
" clip-path="url(#p166e37fd42)" style="fill: none; stroke: #ff0000; stroke-linecap: square"/>
   </g>
  </g>
 </g>
 <defs>
  <clipPath id="p166e37fd42">
   <rect x="103.104" y="41.472" width="266.112" height="266.112"/>
  </clipPath>
 </defs>
</svg>
