<?xml version="1.0" encoding="utf-8" standalone="no"?>
<!DOCTYPE svg PUBLIC "-//W3C//DTD SVG 1.1//EN"
  "http://www.w3.org/Graphics/SVG/1.1/DTD/svg11.dtd">
<svg xmlns:xlink="http://www.w3.org/1999/xlink" width="460.8pt" height="345.6pt" viewBox="0 0 460.8 345.6" xmlns="http://www.w3.org/2000/svg" version="1.1">
 <metadata>
  <rdf:RDF xmlns:dc="http://purl.org/dc/elements/1.1/" xmlns:cc="http://creativecommons.org/ns#" xmlns:rdf="http://www.w3.org/1999/02/22-rdf-syntax-ns#">
   <cc:Work>
    <dc:type rdf:resource="http://purl.org/dc/dcmitype/StillImage"/>
    <dc:date>2023-10-31T11:57:28.158017</dc:date>
    <dc:format>image/svg+xml</dc:format>
    <dc:creator>
     <cc:Agent>
      <dc:title>Matplotlib v3.5.2, https://matplotlib.org/</dc:title>
     </cc:Agent>
    </dc:creator>
   </cc:Work>
  </rdf:RDF>
 </metadata>
 <defs>
  <style type="text/css">*{stroke-linejoin: round; stroke-linecap: butt}</style>
 </defs>
 <g id="figure_1">
  <g id="patch_1">
   <path d="M 0 345.6 
L 460.8 345.6 
L 460.8 0 
L 0 0 
z
" style="fill: #ffffff"/>
  </g>
  <g id="axes_1">
   <g id="patch_2">
    <path d="M 57.6 119.740235 
L 414.72 119.740235 
L 414.72 41.472 
L 57.6 41.472 
z
" style="fill: #ffffff"/>
   </g>
   <g id="matplotlib.axis_1">
    <g id="xtick_1">
     <g id="line2d_1">
      <defs>
       <path id="mb5b791efdc" d="M 0 0 
L 0 3.5 
" style="stroke: #000000; stroke-width: 0.8"/>
      </defs>
      <g>
       <use xlink:href="#mb5b791efdc" x="57.6" y="119.740235" style="stroke: #000000; stroke-width: 0.8"/>
      </g>
     </g>
    </g>
    <g id="xtick_2">
     <g id="line2d_2">
      <g>
       <use xlink:href="#mb5b791efdc" x="105.216" y="119.740235" style="stroke: #000000; stroke-width: 0.8"/>
      </g>
     </g>
    </g>
    <g id="xtick_3">
     <g id="line2d_3">
      <g>
       <use xlink:href="#mb5b791efdc" x="152.832" y="119.740235" style="stroke: #000000; stroke-width: 0.8"/>
      </g>
     </g>
    </g>
    <g id="xtick_4">
     <g id="line2d_4">
      <g>
       <use xlink:href="#mb5b791efdc" x="200.448" y="119.740235" style="stroke: #000000; stroke-width: 0.8"/>
      </g>
     </g>
    </g>
    <g id="xtick_5">
     <g id="line2d_5">
      <g>
       <use xlink:href="#mb5b791efdc" x="248.064" y="119.740235" style="stroke: #000000; stroke-width: 0.8"/>
      </g>
     </g>
    </g>
    <g id="xtick_6">
     <g id="line2d_6">
      <g>
       <use xlink:href="#mb5b791efdc" x="295.68" y="119.740235" style="stroke: #000000; stroke-width: 0.8"/>
      </g>
     </g>
    </g>
    <g id="xtick_7">
     <g id="line2d_7">
      <g>
       <use xlink:href="#mb5b791efdc" x="343.296" y="119.740235" style="stroke: #000000; stroke-width: 0.8"/>
      </g>
     </g>
    </g>
    <g id="xtick_8">
     <g id="line2d_8">
      <g>
       <use xlink:href="#mb5b791efdc" x="390.912" y="119.740235" style="stroke: #000000; stroke-width: 0.8"/>
      </g>
     </g>
    </g>
    <g id="xtick_9">
     <g id="line2d_9">
      <g>
       <use xlink:href="#mb5b791efdc" x="414.72" y="119.740235" style="stroke: #000000; stroke-width: 0.8"/>
      </g>
     </g>
    </g>
   </g>
   <g id="matplotlib.axis_2">
    <g id="ytick_1">
     <g id="line2d_10">
      <defs>
       <path id="m43dc4cb394" d="M 0 0 
L -3.5 0 
" style="stroke: #000000; stroke-width: 0.8"/>
      </defs>
      <g>
       <use xlink:href="#m43dc4cb394" x="57.6" y="116.184137" style="stroke: #000000; stroke-width: 0.8"/>
      </g>
     </g>
     <g id="text_1">
      <!-- 0 -->
      <g transform="translate(44.2375 119.983356)scale(0.1 -0.1)">
       <defs>
        <path id="DejaVuSans-30" d="M 2034 4250 
Q 1547 4250 1301 3770 
Q 1056 3291 1056 2328 
Q 1056 1369 1301 889 
Q 1547 409 2034 409 
Q 2525 409 2770 889 
Q 3016 1369 3016 2328 
Q 3016 3291 2770 3770 
Q 2525 4250 2034 4250 
z
M 2034 4750 
Q 2819 4750 3233 4129 
Q 3647 3509 3647 2328 
Q 3647 1150 3233 529 
Q 2819 -91 2034 -91 
Q 1250 -91 836 529 
Q 422 1150 422 2328 
Q 422 3509 836 4129 
Q 1250 4750 2034 4750 
z
" transform="scale(0.015625)"/>
       </defs>
       <use xlink:href="#DejaVuSans-30"/>
      </g>
     </g>
    </g>
    <g id="ytick_2">
     <g id="line2d_11">
      <g>
       <use xlink:href="#m43dc4cb394" x="57.6" y="67.40546" style="stroke: #000000; stroke-width: 0.8"/>
      </g>
     </g>
     <g id="text_2">
      <!-- 20 -->
      <g transform="translate(37.875 71.204679)scale(0.1 -0.1)">
       <defs>
        <path id="DejaVuSans-32" d="M 1228 531 
L 3431 531 
L 3431 0 
L 469 0 
L 469 531 
Q 828 903 1448 1529 
Q 2069 2156 2228 2338 
Q 2531 2678 2651 2914 
Q 2772 3150 2772 3378 
Q 2772 3750 2511 3984 
Q 2250 4219 1831 4219 
Q 1534 4219 1204 4116 
Q 875 4013 500 3803 
L 500 4441 
Q 881 4594 1212 4672 
Q 1544 4750 1819 4750 
Q 2544 4750 2975 4387 
Q 3406 4025 3406 3419 
Q 3406 3131 3298 2873 
Q 3191 2616 2906 2266 
Q 2828 2175 2409 1742 
Q 1991 1309 1228 531 
z
" transform="scale(0.015625)"/>
       </defs>
       <use xlink:href="#DejaVuSans-32"/>
       <use xlink:href="#DejaVuSans-30" x="63.623047"/>
      </g>
     </g>
    </g>
   </g>
   <g id="line2d_12">
    <path d="M 57.6 115.103902 
L 58.195191 115.917253 
L 58.790405 115.771316 
L 59.385595 115.471404 
L 59.980809 115.644023 
L 61.171191 115.42772 
L 62.956809 115.494304 
L 64.742405 116.04956 
L 65.932809 115.113399 
L 66.528 114.985545 
L 67.123191 115.040577 
L 70.099191 115.790809 
L 71.884809 116.148473 
L 73.670405 115.987873 
L 76.646405 115.617463 
L 78.432 115.153691 
L 79.622405 114.601769 
L 80.812809 113.708146 
L 81.408 113.072313 
L 82.003191 112.267543 
L 82.598405 111.256726 
L 83.193595 110.004223 
L 84.384 106.729276 
L 85.574405 103.066419 
L 86.169595 101.947566 
L 86.764809 102.297866 
L 87.36 105.158003 
L 87.955191 111.239684 
L 88.550405 112.669474 
L 89.145595 104.549506 
L 89.740809 99.065982 
L 90.336 96.909836 
L 90.931191 97.60404 
L 91.526405 99.992431 
L 93.312 108.7213 
L 93.907191 110.782848 
L 94.502405 112.271298 
L 95.097595 113.257599 
L 95.692809 113.827026 
L 96.288 114.060962 
L 96.883191 114.033372 
L 97.478405 113.802534 
L 98.668809 112.924868 
L 99.859191 111.855543 
L 100.454405 111.451132 
L 101.049595 111.294278 
L 101.644809 111.524396 
L 102.24 112.253963 
L 102.835191 113.513753 
L 103.430405 115.204907 
L 104.025595 115.269665 
L 105.216 112.019069 
L 105.811191 111.077007 
L 106.406405 110.67122 
L 107.001595 110.730956 
L 107.596809 111.1293 
L 108.787191 112.417902 
L 110.572809 114.398373 
L 112.358405 115.996566 
L 112.953595 115.868504 
L 114.739191 114.234928 
L 116.524809 112.630591 
L 117.12 112.378484 
L 117.715191 112.462055 
L 118.310405 112.991093 
L 118.905595 113.997898 
L 119.500809 115.387846 
L 120.096 115.425748 
L 120.691191 113.973167 
L 121.286405 112.834607 
L 121.881595 112.114012 
L 122.476809 111.811154 
L 123.072 111.853774 
L 123.667191 112.131994 
L 126.643191 114.127762 
L 128.428809 114.879211 
L 130.809595 115.816799 
L 131.404809 116.150136 
L 132 115.82014 
L 134.380809 114.102363 
L 134.976 114.025482 
L 135.571191 114.267577 
L 136.166405 114.819392 
L 136.761595 115.573671 
L 137.356809 115.986094 
L 138.547191 114.632615 
L 139.142405 114.19605 
L 139.737595 113.926623 
L 140.928 113.704165 
L 143.308809 113.411884 
L 144.499191 113.047532 
L 145.689595 112.470808 
L 148.665595 110.601999 
L 149.260809 110.545607 
L 149.856 110.874473 
L 150.451191 111.764208 
L 151.046405 113.343993 
L 151.641595 115.593044 
L 152.236809 114.120758 
L 152.832 111.559885 
L 153.427191 109.655143 
L 154.022405 108.765944 
L 154.617595 108.911551 
L 155.212809 109.878447 
L 157.593595 115.944546 
L 158.188809 115.243672 
L 159.379191 113.338862 
L 161.76 109.925349 
L 162.950405 107.596327 
L 164.140809 104.33257 
L 165.331191 99.858742 
L 167.712 89.652993 
L 168.307191 88.638443 
L 168.902405 89.267009 
L 169.497595 91.92502 
L 170.092809 96.680686 
L 170.688 103.267036 
L 171.283191 111.204734 
L 171.878405 112.419933 
L 173.068809 94.854843 
L 173.664 87.561502 
L 174.259191 82.607112 
L 174.854405 80.918779 
L 175.449595 82.76974 
L 176.044809 87.365808 
L 178.425595 111.692699 
L 179.020809 116.058159 
L 180.211191 109.665106 
L 182.592 98.984136 
L 183.782405 91.929145 
L 184.972809 82.200587 
L 187.353595 57.698002 
L 187.948809 53.646676 
L 188.544 51.921252 
L 189.139191 52.752828 
L 189.734405 55.876853 
L 190.329595 60.752428 
L 191.52 73.436831 
L 193.305595 92.507672 
L 194.496 101.908485 
L 195.091191 105.389111 
L 195.686405 108.135478 
L 196.281595 110.260262 
L 196.876809 111.891441 
L 198.067191 114.159133 
L 199.257595 115.763161 
L 199.852809 115.859676 
L 201.043191 114.197733 
L 202.233618 112.0648 
L 204.019191 108.523877 
L 204.614382 108.004029 
L 205.209618 108.420253 
L 205.804809 110.091161 
L 206.995191 115.679003 
L 207.590382 112.018254 
L 208.185618 109.081541 
L 208.780809 107.210058 
L 209.376 106.403332 
L 209.971191 106.454436 
L 210.566382 107.067431 
L 212.352 109.642267 
L 212.947191 110.232134 
L 213.542382 110.600398 
L 214.137618 110.748959 
L 214.732809 110.686909 
L 215.328 110.420811 
L 215.923191 109.949134 
L 216.518382 109.259363 
L 217.113618 108.327131 
L 217.708809 107.114629 
L 218.304 105.569664 
L 218.899191 103.624524 
L 219.494382 101.195632 
L 220.089618 98.184553 
L 220.684809 94.483504 
L 221.28 89.987453 
L 222.470382 78.370212 
L 224.851191 50.517615 
L 225.446382 46.374862 
L 226.041618 45.029647 
L 226.636809 46.909997 
L 227.232 52.126171 
L 227.827191 60.245041 
L 230.208 98.429418 
L 230.803191 105.045786 
L 231.398382 110.146452 
L 231.993618 113.983455 
L 232.588809 115.522803 
L 233.184 113.362407 
L 234.374382 110.253206 
L 236.16 106.287822 
L 237.350382 102.893239 
L 238.540809 98.214918 
L 239.731191 91.930947 
L 242.112 77.079362 
L 242.707191 74.276098 
L 243.302382 72.282618 
L 243.897618 71.00173 
L 245.088 69.064183 
L 245.683191 67.581615 
L 246.873618 63.774009 
L 247.468809 63.021537 
L 248.064 64.520547 
L 248.659191 68.86029 
L 249.849618 82.956323 
L 251.04 97.212687 
L 251.635191 102.617161 
L 252.230382 106.454466 
L 252.825618 109.042024 
L 253.420809 110.629451 
L 254.016 111.322482 
L 254.611191 111.305743 
L 255.206382 110.709358 
L 255.801618 109.597267 
L 256.396809 108.057874 
L 258.777618 100.939683 
L 259.372809 100.605182 
L 259.968 101.795068 
L 260.563191 104.782787 
L 261.158382 109.438485 
L 261.753618 115.195318 
L 262.348809 111.158719 
L 262.944 105.753662 
L 263.539191 101.614535 
L 264.134382 99.055502 
L 264.729618 98.043598 
L 265.324809 98.299732 
L 265.92 99.440479 
L 268.896 107.581142 
L 269.491191 108.613567 
L 270.086382 109.383636 
L 270.681618 109.926228 
L 271.276809 110.281441 
L 272.467191 110.58763 
L 274.848 110.736125 
L 275.443191 111.013398 
L 276.038382 111.575304 
L 276.633618 112.553012 
L 277.228809 114.071379 
L 277.824 116.179468 
L 279.609618 108.574711 
L 280.204809 107.49247 
L 280.8 107.953498 
L 281.395191 109.798241 
L 282.585618 115.304882 
L 283.180809 114.464171 
L 283.776 112.295912 
L 284.371191 110.562809 
L 285.561618 108.029755 
L 287.347191 104.891819 
L 288.537618 102.146462 
L 289.132809 100.337546 
L 289.728 98.132212 
L 290.323191 95.447828 
L 290.918382 92.200619 
L 292.108809 83.731886 
L 293.299191 72.555591 
L 295.084809 54.609186 
L 295.68 50.719394 
L 296.275191 49.209186 
L 296.870382 50.539302 
L 297.465618 54.635912 
L 298.060809 60.92451 
L 300.441618 90.553399 
L 301.036809 95.930249 
L 301.632 100.099063 
L 302.227191 103.16626 
L 302.822382 105.292515 
L 303.417618 106.642969 
L 304.012809 107.361331 
L 304.608 107.55886 
L 305.203191 107.311458 
L 305.798382 106.6618 
L 306.393618 105.62258 
L 306.988809 104.180192 
L 307.584 102.298607 
L 308.179191 99.923894 
L 308.774382 96.991356 
L 309.964809 89.217506 
L 311.155191 78.914128 
L 312.940809 62.586394 
L 313.536 58.781273 
L 314.131191 56.371202 
L 314.726382 55.274358 
L 315.321618 55.43678 
L 315.916809 57.09098 
L 316.512 60.608215 
L 317.107191 66.129959 
L 318.297618 81.243281 
L 319.488 96.161612 
L 320.083191 102.067841 
L 320.678382 106.749508 
L 321.273618 110.313221 
L 321.868809 112.945685 
L 322.464 114.850172 
L 323.059191 116.154214 
L 323.654382 115.174163 
L 324.844809 113.89937 
L 326.630382 112.625439 
L 330.201618 110.138396 
L 330.796809 110.118339 
L 331.392 110.578261 
L 331.987191 111.774086 
L 332.582382 113.924484 
L 333.177618 115.337467 
L 334.368 108.672929 
L 334.963191 107.214502 
L 335.558382 107.523317 
L 336.153618 108.937035 
L 337.344 113.378475 
L 337.939191 115.731446 
L 338.534382 114.53789 
L 339.129618 112.829962 
L 339.724809 111.476047 
L 340.915191 109.477716 
L 342.700809 106.668409 
L 343.891191 104.02074 
L 344.486382 102.276861 
L 345.081618 100.172379 
L 346.272 94.660218 
L 347.462382 87.218409 
L 350.438382 65.800371 
L 351.033618 62.782623 
L 351.628809 60.405275 
L 352.224 58.643467 
L 352.819191 57.67801 
L 353.414382 57.988208 
L 354.009618 60.186404 
L 354.604809 64.61842 
L 355.795191 78.541449 
L 356.985618 93.067027 
L 357.580809 98.808727 
L 358.176 103.261434 
L 358.771191 106.498452 
L 359.366382 108.685081 
L 359.961618 110.005381 
L 360.556809 110.626512 
L 361.152 110.681842 
L 361.747191 110.269388 
L 362.342382 109.457962 
L 362.937618 108.299305 
L 364.128 105.180337 
L 365.318382 101.884263 
L 365.913618 100.875266 
L 366.508809 100.899497 
L 367.104 102.440723 
L 367.699191 105.78771 
L 368.889618 115.40654 
L 370.08 103.579188 
L 370.675191 99.661044 
L 371.270382 97.731728 
L 371.865618 97.702911 
L 372.460809 99.113823 
L 373.651191 103.974294 
L 374.841618 108.821377 
L 376.032 112.373218 
L 377.222382 114.722126 
L 377.817618 115.60305 
L 378.412809 115.989179 
L 380.198382 113.684673 
L 381.388809 111.631706 
L 382.579191 108.77001 
L 384.364809 103.613657 
L 384.96 102.671416 
L 385.555191 103.035214 
L 386.150382 105.32169 
L 386.745618 109.768758 
L 387.340809 115.872105 
L 388.531191 104.398831 
L 389.126382 100.699393 
L 389.721618 99.186997 
L 390.316809 99.582421 
L 390.912 101.231418 
L 392.697618 107.557438 
L 393.292809 109.11331 
L 393.888 110.251798 
L 394.483191 111.001306 
L 395.078382 111.402008 
L 395.673618 111.496712 
L 396.268809 111.318854 
L 396.864 110.886561 
L 397.459191 110.202623 
L 398.054382 109.25458 
L 398.649618 108.016233 
L 399.244809 106.450613 
L 399.84 104.515781 
L 401.030382 99.421058 
L 403.411191 87.253569 
L 404.006382 86.180486 
L 404.601618 87.354678 
L 405.196809 91.204887 
L 405.792 97.471325 
L 406.982382 114.56997 
L 407.577618 108.177788 
L 408.768 89.841856 
L 409.363191 82.80151 
L 409.958382 78.524336 
L 410.553618 77.728328 
L 411.148809 80.337204 
L 411.744 85.423042 
L 413.529618 103.362639 
L 414.124809 107.794328 
L 414.72 111.15252 
L 414.72 111.15252 
" clip-path="url(#p0c324548af)" style="fill: none; stroke-dasharray: 9.6,2.4,1.5,2.4; stroke-dashoffset: 0; stroke: #0000cc; stroke-width: 1.5"/>
   </g>
   <g id="line2d_13">
    <path d="M 57.6 116.141963 
L 62.956809 116.168483 
L 70.694405 116.135305 
L 77.836809 116.162615 
L 82.598405 116.017187 
L 84.979191 115.731138 
L 87.36 115.313972 
L 87.955191 115.378005 
L 88.550405 115.643718 
L 89.145595 116.103339 
L 90.931191 114.98095 
L 91.526405 114.957079 
L 92.716809 115.260065 
L 95.097595 115.960232 
L 96.883191 116.168207 
L 101.049595 116.115377 
L 104.025595 116.0389 
L 106.406405 116.104972 
L 108.787191 115.994605 
L 114.739191 116.090376 
L 118.310405 116.097735 
L 120.691191 116.060285 
L 122.476809 116.158431 
L 125.452809 116.006436 
L 132.595191 116.011143 
L 134.380809 116.164264 
L 136.166405 115.951924 
L 137.952 116.010754 
L 139.737595 116.157437 
L 142.713595 115.963292 
L 149.260809 115.748683 
L 150.451191 115.955746 
L 151.046405 116.130939 
L 152.236809 115.838167 
L 153.427191 115.634263 
L 154.617595 115.71819 
L 156.998405 116.165545 
L 161.76 115.666498 
L 166.521595 115.077308 
L 167.116809 115.233869 
L 167.712 115.546249 
L 168.307191 116.001647 
L 168.902405 115.821983 
L 170.092809 114.934384 
L 170.688 114.767527 
L 171.283191 114.800862 
L 172.473595 115.226229 
L 174.259191 115.969851 
L 174.854405 116.154763 
L 178.425595 115.507863 
L 180.211191 115.033489 
L 181.401595 114.532768 
L 182.592 113.816099 
L 184.972809 112.11927 
L 185.568 112.078579 
L 186.163191 112.535772 
L 186.758405 113.674665 
L 187.353595 115.501803 
L 187.948809 114.661364 
L 188.544 112.609414 
L 189.139191 111.251336 
L 189.734405 110.764969 
L 190.329595 111.038855 
L 190.924809 111.780084 
L 192.710405 114.43181 
L 193.900809 115.591359 
L 194.496 115.968702 
L 195.091191 116.123034 
L 196.281595 115.772871 
L 198.662405 115.396316 
L 202.828809 114.911892 
L 203.424 115.026921 
L 204.019191 115.298998 
L 204.614382 115.766665 
L 205.209618 115.95368 
L 206.4 114.610191 
L 206.995191 114.26975 
L 207.590382 114.280489 
L 208.185618 114.583393 
L 209.971191 116.06169 
L 210.566382 115.885277 
L 211.756809 115.249567 
L 215.923191 113.434145 
L 217.113618 112.45003 
L 218.304 110.955737 
L 219.494382 108.725504 
L 220.684809 105.591416 
L 222.470382 100.321075 
L 223.065618 99.569823 
L 223.660809 100.321536 
L 224.256 103.257912 
L 224.851191 108.699271 
L 225.446382 116.129242 
L 226.636809 100.386789 
L 227.232 95.561719 
L 227.827191 93.999708 
L 228.422382 95.32748 
L 229.017618 98.512189 
L 230.803191 109.717582 
L 231.398382 112.463363 
L 231.993618 114.577871 
L 232.588809 116.152088 
L 233.184 115.068408 
L 233.779191 114.235926 
L 234.969618 113.158828 
L 236.16 112.471001 
L 237.945618 111.746242 
L 238.540809 111.631278 
L 239.136 111.66288 
L 239.731191 111.934674 
L 240.326382 112.568988 
L 240.921618 113.694687 
L 241.516809 115.387077 
L 242.112 114.789497 
L 243.302382 110.385659 
L 243.897618 109.280816 
L 244.492809 109.395618 
L 245.088 110.605379 
L 246.278382 114.614078 
L 246.873618 115.754785 
L 248.064 112.617037 
L 249.254382 110.51215 
L 251.635191 106.864986 
L 252.230382 105.640429 
L 252.825618 104.153043 
L 253.420809 102.329363 
L 254.016 100.086781 
L 254.611191 97.333472 
L 255.206382 93.971647 
L 255.801618 89.901783 
L 256.992 79.360188 
L 259.968 48.191021 
L 260.563191 46.29191 
L 261.158382 47.647044 
L 261.753618 52.241688 
L 262.348809 59.43933 
L 264.729618 92.856482 
L 265.324809 98.808116 
L 265.92 103.441583 
L 266.515191 106.910688 
L 267.110382 109.417458 
L 267.705618 111.164044 
L 268.300809 112.328422 
L 268.896 113.054959 
L 269.491191 113.45259 
L 270.086382 113.598191 
L 270.681618 113.541982 
L 271.276809 113.312684 
L 271.872 112.921253 
L 272.467191 112.377536 
L 273.062382 111.628896 
L 273.657618 110.666187 
L 274.252809 109.447434 
L 274.848 107.922386 
L 275.443191 106.039215 
L 276.633618 101.081044 
L 278.419191 92.446792 
L 279.014382 91.093252 
L 279.609618 91.966187 
L 280.204809 95.886821 
L 280.8 103.07216 
L 281.395191 112.913741 
L 281.990382 108.291774 
L 282.585618 97.515924 
L 283.180809 88.913202 
L 283.776 83.872533 
L 284.371191 82.85954 
L 284.966382 85.395272 
L 286.156809 95.516421 
L 287.347191 105.052106 
L 287.942382 108.432792 
L 288.537618 110.861884 
L 289.132809 112.455642 
L 289.728 113.360081 
L 290.323191 113.704445 
L 290.918382 113.586168 
L 291.513618 113.0813 
L 292.108809 112.241287 
L 292.704 111.105352 
L 293.894382 108.195067 
L 295.084809 105.439123 
L 295.68 104.8735 
L 296.275191 105.429224 
L 296.870382 107.376787 
L 297.465618 110.772618 
L 298.060809 115.205163 
L 298.656 112.420366 
L 299.251191 108.17841 
L 299.846382 105.034104 
L 300.441618 103.217911 
L 301.036809 102.647511 
L 301.632 103.025586 
L 302.227191 103.997164 
L 304.012809 107.709691 
L 304.608 108.698475 
L 305.203191 109.468722 
L 305.798382 110.020311 
L 306.393618 110.368766 
L 306.988809 110.53522 
L 307.584 110.541597 
L 308.179191 110.409432 
L 309.369618 109.805906 
L 311.750382 108.199131 
L 312.345618 108.180453 
L 312.940809 108.649754 
L 313.536 109.852018 
L 314.131191 112.006071 
L 314.726382 115.167973 
L 315.321618 113.304073 
L 315.916809 109.359997 
L 316.512 106.304925 
L 317.107191 104.908624 
L 317.702382 105.381133 
L 318.297618 107.342322 
L 320.083191 115.835406 
L 322.464 109.154103 
L 324.249618 105.231031 
L 325.44 101.868354 
L 326.035191 99.688257 
L 326.630382 97.052978 
L 327.225618 93.868045 
L 328.416 85.516703 
L 329.606382 74.34224 
L 331.392 55.79699 
L 331.987191 51.384681 
L 332.582382 49.136486 
L 333.177618 49.57733 
L 333.772809 52.846063 
L 334.368 58.563822 
L 337.344 95.131416 
L 337.939191 99.919256 
L 338.534382 103.558778 
L 339.129618 106.198482 
L 339.724809 108.008925 
L 340.32 109.149929 
L 340.915191 109.755776 
L 341.510382 109.926794 
L 342.105618 109.729032 
L 342.700809 109.200977 
L 343.296 108.3494 
L 343.891191 107.17135 
L 344.486382 105.609488 
L 345.081618 103.613685 
L 345.676809 101.106722 
L 346.272 98.000416 
L 346.867191 94.204812 
L 348.057618 84.353107 
L 350.438382 60.990499 
L 351.033618 57.234261 
L 351.628809 55.111095 
L 352.224 54.492947 
L 352.819191 55.218321 
L 353.414382 57.363239 
L 354.009618 61.267155 
L 354.604809 67.15189 
L 355.795191 83.189894 
L 356.985618 99.146965 
L 357.580809 105.534953 
L 358.176 110.680958 
L 358.771191 114.719149 
L 359.366382 114.496225 
L 360.556809 109.894964 
L 362.937618 102.042893 
L 363.532809 99.467696 
L 364.128 96.380001 
L 364.723191 92.650104 
L 365.318382 88.152965 
L 366.508809 76.549124 
L 368.889618 49.257381 
L 369.484809 45.855066 
L 370.08 45.800711 
L 370.675191 49.262268 
L 371.270382 55.762228 
L 374.246382 96.535216 
L 374.841618 101.800112 
L 375.436809 105.857586 
L 376.032 108.905064 
L 376.627191 111.143554 
L 377.222382 112.750567 
L 377.817618 113.886283 
L 378.412809 114.702856 
L 379.008 115.31008 
L 380.198382 116.117001 
L 380.793618 115.934369 
L 382.579191 114.933983 
L 383.769618 114.033925 
L 385.555191 112.560997 
L 386.150382 112.396618 
L 386.745618 112.695036 
L 387.340809 113.623073 
L 387.936 115.170979 
L 388.531191 115.296689 
L 389.126382 113.495052 
L 389.721618 112.189761 
L 390.316809 111.54567 
L 390.912 111.485084 
L 391.507191 111.807489 
L 393.888 113.782573 
L 395.078382 114.253516 
L 396.268809 114.314826 
L 397.459191 114.019446 
L 398.649618 113.357439 
L 399.84 112.23063 
L 400.435191 111.433524 
L 401.030382 110.434972 
L 401.625618 109.195151 
L 402.220809 107.670458 
L 402.816 105.822383 
L 403.411191 103.150018 
L 405.196809 96.882163 
L 405.792 95.845928 
L 406.387191 96.420338 
L 406.982382 99.347539 
L 407.577618 104.991724 
L 408.172809 113.128851 
L 408.768 109.729038 
L 409.363191 100.466477 
L 409.958382 93.280539 
L 410.553618 89.495583 
L 411.148809 89.403568 
L 411.744 92.25443 
L 414.124809 110.260035 
L 414.72 113.370182 
L 414.72 113.370182 
" clip-path="url(#p0c324548af)" style="fill: none; stroke: #ff0000; stroke-width: 1.5; stroke-linecap: square"/>
   </g>
   <g id="patch_3">
    <path d="M 57.6 119.740235 
L 57.6 41.472 
" style="fill: none; stroke: #000000; stroke-width: 0.8; stroke-linejoin: miter; stroke-linecap: square"/>
   </g>
   <g id="patch_4">
    <path d="M 414.72 119.740235 
L 414.72 41.472 
" style="fill: none; stroke: #000000; stroke-width: 0.8; stroke-linejoin: miter; stroke-linecap: square"/>
   </g>
   <g id="patch_5">
    <path d="M 57.6 119.740235 
L 414.72 119.740235 
" style="fill: none; stroke: #000000; stroke-width: 0.8; stroke-linejoin: miter; stroke-linecap: square"/>
   </g>
   <g id="patch_6">
    <path d="M 57.6 41.472 
L 414.72 41.472 
" style="fill: none; stroke: #000000; stroke-width: 0.8; stroke-linejoin: miter; stroke-linecap: square"/>
   </g>
  </g>
  <g id="axes_2">
   <g id="patch_7">
    <path d="M 57.6 213.662118 
L 414.72 213.662118 
L 414.72 135.393882 
L 57.6 135.393882 
z
" style="fill: #ffffff"/>
   </g>
   <g id="matplotlib.axis_3">
    <g id="xtick_10">
     <g id="line2d_14">
      <g>
       <use xlink:href="#mb5b791efdc" x="57.6" y="213.662118" style="stroke: #000000; stroke-width: 0.8"/>
      </g>
     </g>
    </g>
    <g id="xtick_11">
     <g id="line2d_15">
      <g>
       <use xlink:href="#mb5b791efdc" x="105.216" y="213.662118" style="stroke: #000000; stroke-width: 0.8"/>
      </g>
     </g>
    </g>
    <g id="xtick_12">
     <g id="line2d_16">
      <g>
       <use xlink:href="#mb5b791efdc" x="152.832" y="213.662118" style="stroke: #000000; stroke-width: 0.8"/>
      </g>
     </g>
    </g>
    <g id="xtick_13">
     <g id="line2d_17">
      <g>
       <use xlink:href="#mb5b791efdc" x="200.448" y="213.662118" style="stroke: #000000; stroke-width: 0.8"/>
      </g>
     </g>
    </g>
    <g id="xtick_14">
     <g id="line2d_18">
      <g>
       <use xlink:href="#mb5b791efdc" x="248.064" y="213.662118" style="stroke: #000000; stroke-width: 0.8"/>
      </g>
     </g>
    </g>
    <g id="xtick_15">
     <g id="line2d_19">
      <g>
       <use xlink:href="#mb5b791efdc" x="295.68" y="213.662118" style="stroke: #000000; stroke-width: 0.8"/>
      </g>
     </g>
    </g>
    <g id="xtick_16">
     <g id="line2d_20">
      <g>
       <use xlink:href="#mb5b791efdc" x="343.296" y="213.662118" style="stroke: #000000; stroke-width: 0.8"/>
      </g>
     </g>
    </g>
    <g id="xtick_17">
     <g id="line2d_21">
      <g>
       <use xlink:href="#mb5b791efdc" x="390.912" y="213.662118" style="stroke: #000000; stroke-width: 0.8"/>
      </g>
     </g>
    </g>
    <g id="xtick_18">
     <g id="line2d_22">
      <g>
       <use xlink:href="#mb5b791efdc" x="414.72" y="213.662118" style="stroke: #000000; stroke-width: 0.8"/>
      </g>
     </g>
    </g>
   </g>
   <g id="matplotlib.axis_4">
    <g id="ytick_3">
     <g id="line2d_23">
      <g>
       <use xlink:href="#m43dc4cb394" x="57.6" y="210.105993" style="stroke: #000000; stroke-width: 0.8"/>
      </g>
     </g>
     <g id="text_3">
      <!-- 0 -->
      <g transform="translate(44.2375 213.905211)scale(0.1 -0.1)">
       <use xlink:href="#DejaVuSans-30"/>
      </g>
     </g>
    </g>
    <g id="ytick_4">
     <g id="line2d_24">
      <g>
       <use xlink:href="#m43dc4cb394" x="57.6" y="170.548269" style="stroke: #000000; stroke-width: 0.8"/>
      </g>
     </g>
     <g id="text_4">
      <!-- 20 -->
      <g transform="translate(37.875 174.347488)scale(0.1 -0.1)">
       <use xlink:href="#DejaVuSans-32"/>
       <use xlink:href="#DejaVuSans-30" x="63.623047"/>
      </g>
     </g>
    </g>
   </g>
   <g id="line2d_25">
    <path d="M 57.6 209.996524 
L 58.195191 209.512487 
L 58.790405 209.571316 
L 59.385595 209.501307 
L 59.980809 209.271255 
L 61.766405 209.120131 
L 62.361595 209.307127 
L 63.552 209.945385 
L 64.742405 208.628375 
L 65.337595 208.372892 
L 65.932809 208.454945 
L 67.123191 209.232725 
L 68.313595 209.871217 
L 68.908809 210.046128 
L 70.694405 209.923475 
L 75.456 209.628702 
L 77.241595 209.20076 
L 78.432 208.675132 
L 79.622405 207.811357 
L 80.217595 207.189794 
L 80.812809 206.395465 
L 81.408 205.385025 
L 82.003191 204.110887 
L 82.598405 202.529683 
L 83.788809 198.442425 
L 84.384 196.200753 
L 84.979191 194.421979 
L 85.574405 194.129905 
L 86.169595 196.887905 
L 86.764809 204.24435 
L 87.36 203.964196 
L 87.955191 190.192467 
L 88.550405 179.831759 
L 89.145595 177.263728 
L 89.740809 182.660659 
L 90.931191 200.661865 
L 91.526405 206.66103 
L 92.121595 210.066815 
L 92.716809 208.655433 
L 93.312 208.356782 
L 93.907191 208.667162 
L 95.097595 209.98957 
L 95.692809 209.463964 
L 98.073595 206.482086 
L 99.264 205.354028 
L 99.859191 205.153363 
L 100.454405 205.406239 
L 101.049595 206.28706 
L 101.644809 207.900768 
L 102.24 210.032841 
L 103.430405 204.941508 
L 104.025595 203.181995 
L 104.620809 202.448677 
L 105.216 202.730663 
L 105.811191 203.740423 
L 107.596809 207.62475 
L 108.192 208.560689 
L 108.787191 209.266441 
L 109.382405 209.79214 
L 109.977595 210.014324 
L 112.953595 208.230727 
L 115.334405 206.281843 
L 115.929595 206.031711 
L 116.524809 206.139847 
L 117.12 206.788031 
L 117.715191 208.099772 
L 118.310405 210.029711 
L 119.500809 205.853325 
L 120.096 204.436768 
L 120.691191 203.927576 
L 121.286405 204.249467 
L 122.476809 206.136314 
L 123.667191 207.885558 
L 124.262405 208.461887 
L 124.857595 208.858671 
L 126.048 209.291668 
L 129.619191 210.089041 
L 130.809595 209.494204 
L 133.190405 207.645553 
L 133.785595 207.49661 
L 134.380809 207.781771 
L 134.976 208.589019 
L 135.571191 209.814771 
L 136.166405 209.047939 
L 136.761595 207.91449 
L 137.356809 207.216343 
L 137.952 206.979025 
L 138.547191 207.06604 
L 140.332809 207.693009 
L 141.523191 207.802353 
L 142.713595 207.601081 
L 143.904 207.133274 
L 145.094405 206.425814 
L 147.475191 204.749884 
L 148.070405 204.604186 
L 148.665595 204.847242 
L 149.260809 205.71862 
L 149.856 207.470529 
L 150.451191 209.968372 
L 152.236809 199.678343 
L 152.832 198.744999 
L 153.427191 200.048847 
L 154.617595 206.404101 
L 155.212809 209.409173 
L 155.808 208.652081 
L 156.403191 207.288661 
L 156.998405 206.46446 
L 157.593595 205.964738 
L 159.379191 204.935251 
L 159.974405 204.438607 
L 160.569595 203.777819 
L 161.164809 202.913816 
L 161.76 201.810902 
L 162.355191 200.432229 
L 162.950405 198.740534 
L 164.140809 194.316947 
L 166.521595 183.519953 
L 167.116809 182.391614 
L 167.712 183.289592 
L 168.307191 186.920884 
L 168.902405 193.497647 
L 169.497595 202.493438 
L 170.092809 207.404402 
L 171.283191 187.11265 
L 171.878405 178.412651 
L 172.473595 171.350132 
L 173.068809 166.910748 
L 173.664 166.583378 
L 174.259191 171.580264 
L 174.854405 181.447475 
L 176.044809 205.069788 
L 176.64 206.634405 
L 177.235191 201.561896 
L 177.830405 198.998313 
L 178.425595 197.688345 
L 180.211191 195.381098 
L 180.806405 194.060119 
L 181.401595 192.17074 
L 181.996809 189.619803 
L 182.592 186.286178 
L 183.187191 182.083881 
L 184.377595 170.938738 
L 186.163191 151.08585 
L 186.758405 146.915411 
L 187.353595 146.138922 
L 187.948809 149.448244 
L 188.544 156.292297 
L 190.924809 190.670011 
L 191.52 197.252559 
L 192.115191 202.522054 
L 192.710405 206.383651 
L 193.305595 208.932868 
L 193.900809 209.790362 
L 194.496 209.059705 
L 195.091191 208.805369 
L 196.281595 208.873949 
L 197.472 208.904129 
L 198.067191 208.758648 
L 198.662405 208.469504 
L 199.257595 208.016931 
L 199.852809 207.382138 
L 200.448 206.549853 
L 201.638382 204.306014 
L 202.828809 201.822189 
L 203.424 201.114312 
L 204.019191 201.433412 
L 204.614382 203.397424 
L 205.209618 207.35542 
L 205.804809 207.30251 
L 206.4 201.49081 
L 206.995191 197.164641 
L 207.590382 195.451124 
L 208.185618 196.262591 
L 210.566382 205.418757 
L 211.161618 206.469668 
L 211.756809 206.962815 
L 212.352 207.048408 
L 212.947191 206.851166 
L 213.542382 206.450536 
L 214.732809 205.175745 
L 215.923191 203.230956 
L 216.518382 201.923286 
L 217.113618 200.316633 
L 217.708809 198.335058 
L 218.304 195.886174 
L 218.899191 192.86101 
L 219.494382 189.137414 
L 220.089618 184.589581 
L 221.28 172.661944 
L 223.660809 143.447682 
L 224.256 139.630667 
L 224.851191 139.538605 
L 225.446382 143.881779 
L 226.041618 152.804337 
L 227.232 180.655399 
L 227.827191 195.108916 
L 228.422382 206.623186 
L 229.017618 206.040671 
L 229.612809 202.039342 
L 230.208 200.468146 
L 230.803191 200.250527 
L 232.588809 201.4858 
L 233.184 201.602074 
L 233.779191 201.414425 
L 234.374382 200.9004 
L 234.969618 200.047013 
L 235.564809 198.838489 
L 236.16 197.251964 
L 236.755191 195.257596 
L 237.945618 189.929265 
L 239.136 182.84279 
L 240.921618 171.564614 
L 241.516809 169.135311 
L 242.112 168.057988 
L 242.707191 168.328999 
L 243.897618 170.336503 
L 244.492809 170.159036 
L 245.088 168.422592 
L 246.278382 162.952317 
L 246.873618 162.91063 
L 247.468809 167.546969 
L 248.064 177.156357 
L 249.254382 200.840395 
L 249.849618 209.081572 
L 250.444809 206.859869 
L 251.04 205.604445 
L 251.635191 205.937192 
L 252.230382 207.10555 
L 252.825618 208.773982 
L 253.420809 209.490799 
L 255.206382 202.951042 
L 256.992 195.732494 
L 257.587191 194.00163 
L 258.182382 193.468931 
L 258.777618 194.883788 
L 259.372809 198.857282 
L 259.968 205.426337 
L 260.563191 206.471973 
L 261.753618 191.074485 
L 262.348809 186.859824 
L 262.944 185.686595 
L 263.539191 187.137147 
L 264.134382 190.33403 
L 265.324809 198.113704 
L 265.92 201.332187 
L 266.515191 203.733027 
L 267.110382 205.34383 
L 267.705618 206.303074 
L 268.300809 206.781508 
L 268.896 206.935176 
L 269.491191 206.884665 
L 270.681618 206.479667 
L 273.062382 205.550615 
L 273.657618 205.494843 
L 274.252809 205.632206 
L 274.848 206.075613 
L 275.443191 206.977619 
L 276.038382 208.518137 
L 276.633618 209.357427 
L 277.824 202.550176 
L 278.419191 199.215779 
L 279.014382 197.47105 
L 279.609618 198.435328 
L 280.204809 202.186068 
L 280.8 207.464516 
L 281.395191 207.703158 
L 281.990382 204.041745 
L 282.585618 201.945537 
L 283.180809 201.001053 
L 283.776 200.674006 
L 284.966382 200.389781 
L 285.561618 200.038817 
L 286.156809 199.423796 
L 286.752 198.496304 
L 287.347191 197.215875 
L 287.942382 195.538374 
L 288.537618 193.410303 
L 289.132809 190.766289 
L 289.728 187.53112 
L 290.918382 178.991619 
L 292.108809 167.529987 
L 293.894382 148.825835 
L 294.489618 145.055599 
L 295.084809 144.384652 
L 295.68 147.703531 
L 296.275191 155.119264 
L 298.656 197.376784 
L 299.251191 203.483974 
L 299.846382 207.078639 
L 300.441618 208.745996 
L 301.036809 209.125611 
L 301.632 208.733658 
L 302.227191 207.916785 
L 303.417618 205.710081 
L 304.608 203.044881 
L 305.798382 199.667346 
L 306.393618 197.534823 
L 306.988809 194.98727 
L 307.584 191.926661 
L 308.774382 183.905389 
L 309.964809 173.17639 
L 311.155191 161.305298 
L 311.750382 156.372998 
L 312.345618 153.155501 
L 312.940809 152.129062 
L 313.536 153.16002 
L 314.131191 155.652705 
L 314.726382 159.154562 
L 315.321618 163.921702 
L 315.916809 170.747422 
L 317.107191 190.461313 
L 317.702382 200.297998 
L 318.297618 207.844575 
L 318.892809 207.597423 
L 319.488 205.178669 
L 320.083191 204.345507 
L 320.678382 204.399123 
L 321.868809 205.404261 
L 323.059191 206.282225 
L 323.654382 206.515008 
L 324.249618 206.605434 
L 324.844809 206.566023 
L 326.035191 206.158093 
L 327.225618 205.420347 
L 328.416 204.573414 
L 329.011191 204.269546 
L 329.606382 204.22608 
L 330.201618 204.677562 
L 330.796809 205.948096 
L 331.392 208.396026 
L 331.987191 207.991963 
L 333.177618 198.38167 
L 333.772809 195.64195 
L 334.368 196.326844 
L 334.963191 200.294251 
L 335.558382 205.815331 
L 336.153618 209.404495 
L 336.748809 206.055751 
L 337.344 204.178112 
L 337.939191 203.210881 
L 338.534382 202.838043 
L 339.724809 202.602021 
L 340.32 202.316758 
L 340.915191 201.83168 
L 341.510382 201.099094 
L 342.105618 200.091849 
L 342.700809 198.784406 
L 343.296 197.136622 
L 343.891191 195.103663 
L 344.486382 192.637036 
L 345.676809 186.230955 
L 346.867191 177.875037 
L 348.652809 164.524166 
L 349.248 161.315327 
L 349.843191 159.273333 
L 350.438382 158.315822 
L 351.033618 158.062875 
L 351.628809 158.199149 
L 352.224 158.970258 
L 352.819191 161.387047 
L 353.414382 166.742721 
L 354.009618 175.468941 
L 355.2 196.731572 
L 355.795191 204.781454 
L 356.390382 209.753241 
L 356.985618 208.13182 
L 357.580809 207.616789 
L 358.176 208.161605 
L 358.771191 209.252386 
L 359.366382 209.616323 
L 361.152 205.0274 
L 362.342382 201.482216 
L 364.128 195.745086 
L 364.723191 194.471212 
L 365.318382 194.302394 
L 365.913618 195.9532 
L 366.508809 200.058722 
L 367.104 206.770892 
L 367.699191 204.835967 
L 368.889618 188.586758 
L 369.484809 184.438671 
L 370.08 184.098393 
L 370.675191 187.065413 
L 373.056 206.092785 
L 373.651191 208.60582 
L 374.246382 210.070695 
L 374.841618 209.213101 
L 375.436809 208.766453 
L 378.412809 207.491361 
L 379.008 206.935961 
L 379.603191 206.192532 
L 380.198382 205.229796 
L 380.793618 204.018951 
L 381.984 200.816657 
L 383.174382 197.105374 
L 383.769618 195.800591 
L 384.364809 195.775646 
L 384.96 198.046008 
L 386.150382 208.094153 
L 387.340809 189.175001 
L 387.936 184.418776 
L 388.531191 184.688898 
L 389.126382 188.893505 
L 390.316809 200.141388 
L 390.912 204.208329 
L 391.507191 206.800657 
L 392.102382 208.173774 
L 392.697618 208.682343 
L 393.292809 208.647389 
L 393.888 208.283194 
L 395.078382 206.996435 
L 396.268809 205.170016 
L 397.459191 202.623445 
L 398.054382 200.952372 
L 398.649618 198.931591 
L 399.84 193.617718 
L 402.220809 180.141673 
L 402.816 178.861129 
L 403.411191 180.410053 
L 404.006382 185.666648 
L 404.601618 194.601595 
L 405.196809 206.076351 
L 405.792 201.873574 
L 406.982382 180.263461 
L 407.577618 171.8774 
L 408.172809 165.622362 
L 408.768 162.610844 
L 409.363191 164.245389 
L 409.958382 171.176061 
L 411.744 204.182272 
L 412.339191 209.339647 
L 412.934382 205.779197 
L 413.529618 204.431364 
L 414.124809 204.386453 
L 414.72 205.000354 
L 414.72 205.000354 
" clip-path="url(#pea14b4f35b)" style="fill: none; stroke-dasharray: 9.6,2.4,1.5,2.4; stroke-dashoffset: 0; stroke: #0000cc; stroke-width: 1.5"/>
   </g>
   <g id="line2d_26">
    <path d="M 57.6 210.054408 
L 62.361595 210.104471 
L 65.932809 210.06522 
L 78.432 210.066126 
L 82.003191 209.90942 
L 84.384 209.569832 
L 86.169595 209.205319 
L 86.764809 209.214508 
L 87.36 209.444317 
L 87.955191 210.006694 
L 89.740809 208.091927 
L 90.336 208.31088 
L 91.526405 209.509149 
L 92.121595 209.930116 
L 92.716809 210.052088 
L 93.907191 209.829367 
L 98.073595 210.062117 
L 99.264 210.076277 
L 102.835191 209.91495 
L 105.216 210.031035 
L 107.596809 209.975503 
L 115.929595 210.072802 
L 119.500809 209.897187 
L 121.881595 210.054541 
L 124.262405 209.978643 
L 132 209.99403 
L 133.190405 210.040275 
L 134.976 209.716173 
L 136.166405 209.728354 
L 138.547191 210.073705 
L 140.928 209.923939 
L 146.284809 209.667552 
L 148.070405 209.666149 
L 149.260809 209.900659 
L 149.856 210.082702 
L 151.641595 209.265268 
L 152.236809 209.182965 
L 153.427191 209.449859 
L 155.212809 210.090136 
L 157.593595 209.829084 
L 161.164809 209.526095 
L 165.331191 208.951246 
L 165.926405 209.110128 
L 166.521595 209.469536 
L 167.116809 210.067755 
L 168.902405 207.958808 
L 169.497595 207.796378 
L 170.092809 208.071376 
L 171.878405 209.727712 
L 172.473595 210.090819 
L 173.664 209.752706 
L 176.64 209.465196 
L 177.830405 209.296224 
L 179.020809 208.983731 
L 180.211191 208.495229 
L 181.401595 207.771396 
L 183.782405 205.85703 
L 184.377595 205.686605 
L 184.972809 206.050773 
L 185.568 207.289253 
L 186.163191 209.647348 
L 186.758405 207.245173 
L 187.353595 203.803641 
L 187.948809 201.538026 
L 188.544 201.310403 
L 189.139191 202.913325 
L 190.329595 207.596807 
L 190.924809 209.249803 
L 191.52 209.951098 
L 192.115191 209.427447 
L 192.710405 209.211074 
L 193.900809 209.197299 
L 196.281595 209.362163 
L 198.067191 209.276284 
L 201.638382 208.915601 
L 202.233618 209.021485 
L 202.828809 209.29848 
L 203.424 209.821184 
L 204.019191 209.586753 
L 205.209618 207.610782 
L 205.804809 207.090397 
L 206.4 207.295036 
L 206.995191 208.159957 
L 207.590382 209.297193 
L 208.185618 209.902489 
L 208.780809 209.199671 
L 209.376 208.800846 
L 210.566382 208.532197 
L 212.352 208.378485 
L 213.542382 208.08075 
L 214.732809 207.514828 
L 215.923191 206.578028 
L 217.113618 205.111435 
L 217.708809 204.110734 
L 218.899191 201.419901 
L 220.089618 197.74423 
L 221.28 193.831926 
L 221.875191 192.686787 
L 222.470382 193.113865 
L 223.065618 196.205548 
L 223.660809 202.911335 
L 224.256 206.952443 
L 225.446382 183.238698 
L 226.041618 176.584427 
L 226.636809 176.647276 
L 227.232 182.797454 
L 228.422382 201.042748 
L 229.017618 207.777478 
L 229.612809 208.300662 
L 230.208 206.204159 
L 230.803191 205.401335 
L 231.398382 205.29618 
L 232.588809 205.791949 
L 233.779191 206.236469 
L 234.969618 206.327431 
L 237.945618 205.999399 
L 238.540809 206.269098 
L 239.136 206.911788 
L 239.731191 208.104885 
L 240.326382 210.017915 
L 240.921618 207.511927 
L 242.112 201.295042 
L 242.707191 199.57737 
L 243.302382 200.115882 
L 243.897618 202.960186 
L 244.492809 207.076434 
L 245.088 209.149129 
L 245.683191 206.18852 
L 246.278382 204.419241 
L 246.873618 203.542641 
L 247.468809 203.17575 
L 248.659191 202.845315 
L 249.254382 202.540748 
L 249.849618 202.039071 
L 250.444809 201.294324 
L 251.04 200.267106 
L 251.635191 198.915183 
L 252.230382 197.185259 
L 252.825618 195.010681 
L 253.420809 192.310209 
L 254.016 188.987349 
L 254.611191 184.939027 
L 255.801618 174.319015 
L 256.992 160.475174 
L 258.182382 146.401355 
L 258.777618 141.736531 
L 259.372809 140.54899 
L 259.968 144.032072 
L 260.563191 152.372984 
L 262.944 200.573436 
L 263.539191 207.282538 
L 264.134382 209.102898 
L 264.729618 207.38271 
L 265.324809 206.991169 
L 265.92 207.326421 
L 267.110382 208.760039 
L 267.705618 209.514523 
L 268.300809 209.998247 
L 271.276809 206.773961 
L 272.467191 204.90658 
L 273.062382 203.661024 
L 273.657618 202.121989 
L 274.252809 200.225208 
L 274.848 197.912396 
L 276.038382 191.983469 
L 277.228809 185.471519 
L 277.824 183.479305 
L 278.419191 183.973137 
L 279.014382 188.48552 
L 280.204809 208.387715 
L 281.395191 177.757275 
L 281.990382 167.083898 
L 282.585618 162.600085 
L 283.180809 165.308306 
L 283.776 174.264483 
L 284.966382 197.857348 
L 285.561618 206.251258 
L 286.156809 209.051283 
L 286.752 206.869108 
L 287.347191 206.419467 
L 287.942382 206.92684 
L 288.537618 207.907784 
L 289.132809 209.104299 
L 289.728 209.808713 
L 290.918382 206.974546 
L 292.108809 203.692018 
L 293.894382 198.581192 
L 294.489618 197.765835 
L 295.084809 198.25465 
L 295.68 200.661856 
L 296.275191 205.308529 
L 296.870382 208.466983 
L 298.060809 195.591757 
L 298.656 192.129615 
L 299.251191 191.469399 
L 299.846382 193.076876 
L 302.227191 204.075321 
L 302.822382 205.536766 
L 303.417618 206.409052 
L 304.012809 206.833207 
L 304.608 206.94058 
L 305.203191 206.833111 
L 306.393618 206.229559 
L 307.584 205.317863 
L 310.56 202.720068 
L 311.155191 202.604568 
L 311.750382 202.994739 
L 312.345618 204.194535 
L 312.940809 206.55022 
L 313.536 209.897633 
L 315.321618 194.513391 
L 315.916809 192.611194 
L 316.512 194.466126 
L 317.107191 199.406789 
L 317.702382 205.498776 
L 318.297618 209.33028 
L 318.892809 205.536729 
L 319.488 203.279001 
L 320.083191 202.095695 
L 320.678382 201.496849 
L 321.868809 200.701965 
L 322.464 200.120635 
L 323.059191 199.277774 
L 323.654382 198.108294 
L 324.249618 196.555534 
L 324.844809 194.560142 
L 325.44 192.052588 
L 326.035191 188.954322 
L 326.630382 185.182786 
L 327.820809 175.361698 
L 329.011191 162.74129 
L 330.201618 150.016596 
L 330.796809 145.662577 
L 331.392 144.161847 
L 331.987191 146.432979 
L 332.582382 152.691908 
L 333.177618 162.300595 
L 334.963191 195.156388 
L 335.558382 202.484942 
L 336.153618 207.166154 
L 336.748809 209.654841 
L 337.939191 209.650819 
L 338.534382 209.99121 
L 339.724809 208.1968 
L 341.510382 204.960212 
L 342.700809 202.202166 
L 343.891191 198.351978 
L 344.486382 195.778624 
L 345.081618 192.630474 
L 345.676809 188.79388 
L 346.867191 178.726885 
L 349.248 154.158762 
L 349.843191 151.030952 
L 350.438382 150.703602 
L 351.033618 152.850994 
L 352.224 160.46589 
L 352.819191 165.35179 
L 353.414382 172.168717 
L 354.604809 192.598647 
L 355.2 203.095548 
L 355.795191 208.991257 
L 356.390382 203.836732 
L 356.985618 201.144419 
L 357.580809 200.046014 
L 358.176 199.762462 
L 359.366382 199.674967 
L 359.961618 199.347489 
L 360.556809 198.659217 
L 361.152 197.5401 
L 361.747191 195.929626 
L 362.342382 193.761427 
L 362.937618 190.955642 
L 363.532809 187.414797 
L 364.128 183.030676 
L 365.318382 171.385836 
L 367.699191 142.316054 
L 368.294382 138.951529 
L 368.889618 140.292474 
L 369.484809 147.212171 
L 370.08 158.74804 
L 371.270382 186.11315 
L 371.865618 197.150759 
L 372.460809 205.002577 
L 373.056 209.867279 
L 373.651191 207.78442 
L 374.246382 206.772444 
L 374.841618 206.671557 
L 375.436809 207.02231 
L 377.222382 208.488356 
L 378.412809 209.047856 
L 379.603191 209.16023 
L 380.793618 208.89133 
L 381.984 208.253568 
L 383.174382 207.256095 
L 384.364809 206.15188 
L 384.96 205.854963 
L 385.555191 206.06183 
L 386.150382 207.104908 
L 386.745618 209.199444 
L 387.340809 208.061432 
L 387.936 205.038609 
L 388.531191 202.997873 
L 389.126382 202.564953 
L 389.721618 203.522649 
L 390.912 206.711625 
L 391.507191 207.909477 
L 392.102382 208.687206 
L 392.697618 209.103206 
L 393.292809 209.261169 
L 394.483191 209.13014 
L 395.673618 208.685753 
L 396.864 208.018579 
L 398.054382 207.04785 
L 399.244809 205.586486 
L 399.84 204.585102 
L 400.435191 203.345007 
L 401.030382 201.815663 
L 401.625618 199.94828 
L 403.411191 192.853318 
L 404.006382 190.529145 
L 404.601618 189.036789 
L 405.196809 189.273358 
L 405.792 192.416051 
L 406.387191 199.412103 
L 406.982382 209.847778 
L 408.172809 183.050398 
L 408.768 173.266209 
L 409.363191 169.610199 
L 409.958382 173.11277 
L 410.553618 182.199301 
L 411.744 203.290379 
L 412.339191 209.998167 
L 412.934382 206.029145 
L 413.529618 204.198056 
L 414.124809 203.617455 
L 414.72 203.620538 
L 414.72 203.620538 
" clip-path="url(#pea14b4f35b)" style="fill: none; stroke: #ff0000; stroke-width: 1.5; stroke-linecap: square"/>
   </g>
   <g id="patch_8">
    <path d="M 57.6 213.662118 
L 57.6 135.393882 
" style="fill: none; stroke: #000000; stroke-width: 0.8; stroke-linejoin: miter; stroke-linecap: square"/>
   </g>
   <g id="patch_9">
    <path d="M 414.72 213.662118 
L 414.72 135.393882 
" style="fill: none; stroke: #000000; stroke-width: 0.8; stroke-linejoin: miter; stroke-linecap: square"/>
   </g>
   <g id="patch_10">
    <path d="M 57.6 213.662118 
L 414.72 213.662118 
" style="fill: none; stroke: #000000; stroke-width: 0.8; stroke-linejoin: miter; stroke-linecap: square"/>
   </g>
   <g id="patch_11">
    <path d="M 57.6 135.393882 
L 414.72 135.393882 
" style="fill: none; stroke: #000000; stroke-width: 0.8; stroke-linejoin: miter; stroke-linecap: square"/>
   </g>
  </g>
  <g id="axes_3">
   <g id="patch_12">
    <path d="M 57.6 307.584 
L 414.72 307.584 
L 414.72 229.315765 
L 57.6 229.315765 
z
" style="fill: #ffffff"/>
   </g>
   <g id="matplotlib.axis_5">
    <g id="xtick_19">
     <g id="line2d_27">
      <g>
       <use xlink:href="#mb5b791efdc" x="57.6" y="307.584" style="stroke: #000000; stroke-width: 0.8"/>
      </g>
     </g>
     <g id="text_5">
      <!-- 10 -->
      <g transform="translate(51.2375 322.182437)scale(0.1 -0.1)">
       <defs>
        <path id="DejaVuSans-31" d="M 794 531 
L 1825 531 
L 1825 4091 
L 703 3866 
L 703 4441 
L 1819 4666 
L 2450 4666 
L 2450 531 
L 3481 531 
L 3481 0 
L 794 0 
L 794 531 
z
" transform="scale(0.015625)"/>
       </defs>
       <use xlink:href="#DejaVuSans-31"/>
       <use xlink:href="#DejaVuSans-30" x="63.623047"/>
      </g>
     </g>
    </g>
    <g id="xtick_20">
     <g id="line2d_28">
      <g>
       <use xlink:href="#mb5b791efdc" x="105.216" y="307.584" style="stroke: #000000; stroke-width: 0.8"/>
      </g>
     </g>
     <g id="text_6">
      <!-- 12 -->
      <g transform="translate(98.8535 322.182437)scale(0.1 -0.1)">
       <use xlink:href="#DejaVuSans-31"/>
       <use xlink:href="#DejaVuSans-32" x="63.623047"/>
      </g>
     </g>
    </g>
    <g id="xtick_21">
     <g id="line2d_29">
      <g>
       <use xlink:href="#mb5b791efdc" x="152.832" y="307.584" style="stroke: #000000; stroke-width: 0.8"/>
      </g>
     </g>
     <g id="text_7">
      <!-- 14 -->
      <g transform="translate(146.4695 322.182437)scale(0.1 -0.1)">
       <defs>
        <path id="DejaVuSans-34" d="M 2419 4116 
L 825 1625 
L 2419 1625 
L 2419 4116 
z
M 2253 4666 
L 3047 4666 
L 3047 1625 
L 3713 1625 
L 3713 1100 
L 3047 1100 
L 3047 0 
L 2419 0 
L 2419 1100 
L 313 1100 
L 313 1709 
L 2253 4666 
z
" transform="scale(0.015625)"/>
       </defs>
       <use xlink:href="#DejaVuSans-31"/>
       <use xlink:href="#DejaVuSans-34" x="63.623047"/>
      </g>
     </g>
    </g>
    <g id="xtick_22">
     <g id="line2d_30">
      <g>
       <use xlink:href="#mb5b791efdc" x="200.448" y="307.584" style="stroke: #000000; stroke-width: 0.8"/>
      </g>
     </g>
     <g id="text_8">
      <!-- 16 -->
      <g transform="translate(194.0855 322.182437)scale(0.1 -0.1)">
       <defs>
        <path id="DejaVuSans-36" d="M 2113 2584 
Q 1688 2584 1439 2293 
Q 1191 2003 1191 1497 
Q 1191 994 1439 701 
Q 1688 409 2113 409 
Q 2538 409 2786 701 
Q 3034 994 3034 1497 
Q 3034 2003 2786 2293 
Q 2538 2584 2113 2584 
z
M 3366 4563 
L 3366 3988 
Q 3128 4100 2886 4159 
Q 2644 4219 2406 4219 
Q 1781 4219 1451 3797 
Q 1122 3375 1075 2522 
Q 1259 2794 1537 2939 
Q 1816 3084 2150 3084 
Q 2853 3084 3261 2657 
Q 3669 2231 3669 1497 
Q 3669 778 3244 343 
Q 2819 -91 2113 -91 
Q 1303 -91 875 529 
Q 447 1150 447 2328 
Q 447 3434 972 4092 
Q 1497 4750 2381 4750 
Q 2619 4750 2861 4703 
Q 3103 4656 3366 4563 
z
" transform="scale(0.015625)"/>
       </defs>
       <use xlink:href="#DejaVuSans-31"/>
       <use xlink:href="#DejaVuSans-36" x="63.623047"/>
      </g>
     </g>
    </g>
    <g id="xtick_23">
     <g id="line2d_31">
      <g>
       <use xlink:href="#mb5b791efdc" x="248.064" y="307.584" style="stroke: #000000; stroke-width: 0.8"/>
      </g>
     </g>
     <g id="text_9">
      <!-- 18 -->
      <g transform="translate(241.7015 322.182437)scale(0.1 -0.1)">
       <defs>
        <path id="DejaVuSans-38" d="M 2034 2216 
Q 1584 2216 1326 1975 
Q 1069 1734 1069 1313 
Q 1069 891 1326 650 
Q 1584 409 2034 409 
Q 2484 409 2743 651 
Q 3003 894 3003 1313 
Q 3003 1734 2745 1975 
Q 2488 2216 2034 2216 
z
M 1403 2484 
Q 997 2584 770 2862 
Q 544 3141 544 3541 
Q 544 4100 942 4425 
Q 1341 4750 2034 4750 
Q 2731 4750 3128 4425 
Q 3525 4100 3525 3541 
Q 3525 3141 3298 2862 
Q 3072 2584 2669 2484 
Q 3125 2378 3379 2068 
Q 3634 1759 3634 1313 
Q 3634 634 3220 271 
Q 2806 -91 2034 -91 
Q 1263 -91 848 271 
Q 434 634 434 1313 
Q 434 1759 690 2068 
Q 947 2378 1403 2484 
z
M 1172 3481 
Q 1172 3119 1398 2916 
Q 1625 2713 2034 2713 
Q 2441 2713 2670 2916 
Q 2900 3119 2900 3481 
Q 2900 3844 2670 4047 
Q 2441 4250 2034 4250 
Q 1625 4250 1398 4047 
Q 1172 3844 1172 3481 
z
" transform="scale(0.015625)"/>
       </defs>
       <use xlink:href="#DejaVuSans-31"/>
       <use xlink:href="#DejaVuSans-38" x="63.623047"/>
      </g>
     </g>
    </g>
    <g id="xtick_24">
     <g id="line2d_32">
      <g>
       <use xlink:href="#mb5b791efdc" x="295.68" y="307.584" style="stroke: #000000; stroke-width: 0.8"/>
      </g>
     </g>
     <g id="text_10">
      <!-- 20 -->
      <g transform="translate(289.3175 322.182437)scale(0.1 -0.1)">
       <use xlink:href="#DejaVuSans-32"/>
       <use xlink:href="#DejaVuSans-30" x="63.623047"/>
      </g>
     </g>
    </g>
    <g id="xtick_25">
     <g id="line2d_33">
      <g>
       <use xlink:href="#mb5b791efdc" x="343.296" y="307.584" style="stroke: #000000; stroke-width: 0.8"/>
      </g>
     </g>
     <g id="text_11">
      <!-- 22 -->
      <g transform="translate(336.9335 322.182437)scale(0.1 -0.1)">
       <use xlink:href="#DejaVuSans-32"/>
       <use xlink:href="#DejaVuSans-32" x="63.623047"/>
      </g>
     </g>
    </g>
    <g id="xtick_26">
     <g id="line2d_34">
      <g>
       <use xlink:href="#mb5b791efdc" x="390.912" y="307.584" style="stroke: #000000; stroke-width: 0.8"/>
      </g>
     </g>
     <g id="text_12">
      <!-- 24 -->
      <g transform="translate(384.5495 322.182437)scale(0.1 -0.1)">
       <use xlink:href="#DejaVuSans-32"/>
       <use xlink:href="#DejaVuSans-34" x="63.623047"/>
      </g>
     </g>
    </g>
    <g id="xtick_27">
     <g id="line2d_35">
      <g>
       <use xlink:href="#mb5b791efdc" x="414.72" y="307.584" style="stroke: #000000; stroke-width: 0.8"/>
      </g>
     </g>
     <g id="text_13">
      <!-- 25 -->
      <g transform="translate(408.3575 322.182437)scale(0.1 -0.1)">
       <defs>
        <path id="DejaVuSans-35" d="M 691 4666 
L 3169 4666 
L 3169 4134 
L 1269 4134 
L 1269 2991 
Q 1406 3038 1543 3061 
Q 1681 3084 1819 3084 
Q 2600 3084 3056 2656 
Q 3513 2228 3513 1497 
Q 3513 744 3044 326 
Q 2575 -91 1722 -91 
Q 1428 -91 1123 -41 
Q 819 9 494 109 
L 494 744 
Q 775 591 1075 516 
Q 1375 441 1709 441 
Q 2250 441 2565 725 
Q 2881 1009 2881 1497 
Q 2881 1984 2565 2268 
Q 2250 2553 1709 2553 
Q 1456 2553 1204 2497 
Q 953 2441 691 2322 
L 691 4666 
z
" transform="scale(0.015625)"/>
       </defs>
       <use xlink:href="#DejaVuSans-32"/>
       <use xlink:href="#DejaVuSans-35" x="63.623047"/>
      </g>
     </g>
    </g>
   </g>
   <g id="matplotlib.axis_6">
    <g id="ytick_5">
     <g id="line2d_36">
      <g>
       <use xlink:href="#m43dc4cb394" x="57.6" y="304.026545" style="stroke: #000000; stroke-width: 0.8"/>
      </g>
     </g>
     <g id="text_14">
      <!-- 0 -->
      <g transform="translate(44.2375 307.825764)scale(0.1 -0.1)">
       <use xlink:href="#DejaVuSans-30"/>
      </g>
     </g>
    </g>
    <g id="ytick_6">
     <g id="line2d_37">
      <g>
       <use xlink:href="#m43dc4cb394" x="57.6" y="257.192769" style="stroke: #000000; stroke-width: 0.8"/>
      </g>
     </g>
     <g id="text_15">
      <!-- 20 -->
      <g transform="translate(37.875 260.991988)scale(0.1 -0.1)">
       <use xlink:href="#DejaVuSans-32"/>
       <use xlink:href="#DejaVuSans-30" x="63.623047"/>
      </g>
     </g>
    </g>
   </g>
   <g id="line2d_38">
    <path d="M 57.6 303.413232 
L 58.195191 303.996781 
L 59.385595 304.018808 
L 61.171191 303.25808 
L 62.956809 301.965091 
L 63.552 301.766173 
L 64.147191 301.985525 
L 64.742405 302.631921 
L 65.337595 303.461448 
L 65.932809 303.805651 
L 66.528 303.26804 
L 67.123191 302.981729 
L 67.718405 302.880186 
L 69.504 303.010553 
L 73.075191 303.438625 
L 79.622405 303.852565 
L 80.217595 304.006356 
L 80.812809 303.807955 
L 81.408 303.432343 
L 82.003191 302.835769 
L 82.598405 301.883484 
L 83.193595 300.365246 
L 83.788809 297.968073 
L 84.384 294.26795 
L 84.979191 288.798928 
L 85.574405 281.322226 
L 86.764809 264.360915 
L 87.36 261.000659 
L 87.955191 266.04893 
L 88.550405 279.93561 
L 89.145595 298.032041 
L 89.740809 294.593147 
L 90.336 285.910479 
L 90.931191 283.688003 
L 91.526405 285.124178 
L 92.716809 290.172305 
L 93.312 292.208073 
L 93.907191 293.755064 
L 95.097595 295.976361 
L 96.883191 298.768993 
L 98.073595 301.155338 
L 98.668809 302.694817 
L 99.264 303.525176 
L 100.454405 299.060822 
L 101.644809 294.748088 
L 102.24 293.601385 
L 102.835191 293.704364 
L 103.430405 295.218653 
L 104.025595 297.905545 
L 104.620809 301.1877 
L 105.216 303.653692 
L 105.811191 301.00165 
L 106.406405 299.10598 
L 107.001595 297.923471 
L 107.596809 297.295452 
L 108.192 297.046812 
L 108.787191 297.035596 
L 109.977595 297.387843 
L 111.168 298.00953 
L 112.358405 298.884347 
L 113.548809 300.17976 
L 114.144 301.082565 
L 114.739191 302.223466 
L 115.334405 303.649613 
L 115.929595 302.675101 
L 117.715191 296.8604 
L 118.310405 295.774801 
L 118.905595 295.798522 
L 119.500809 297.068985 
L 121.286405 303.566667 
L 121.881595 301.61151 
L 122.476809 300.285451 
L 123.072 299.49298 
L 123.667191 299.081114 
L 124.262405 298.908838 
L 125.452809 298.904581 
L 128.428809 299.349239 
L 130.214405 299.798536 
L 130.809595 300.066621 
L 131.404809 300.461018 
L 132 301.043607 
L 132.595191 301.881631 
L 133.190405 303.020274 
L 133.785595 303.618502 
L 134.976 300.730494 
L 135.571191 299.921597 
L 136.166405 299.886169 
L 136.761595 300.565339 
L 138.547191 303.784123 
L 139.142405 303.536834 
L 139.737595 303.018022 
L 140.928 302.398653 
L 143.904 301.272949 
L 145.094405 300.490783 
L 145.689595 299.923969 
L 146.284809 299.184184 
L 146.88 298.219109 
L 147.475191 296.974404 
L 148.665595 293.538762 
L 149.856 289.554362 
L 150.451191 288.329986 
L 151.046405 288.579534 
L 151.641595 290.980274 
L 152.236809 295.612186 
L 152.832 301.593976 
L 153.427191 300.704425 
L 154.022405 296.564127 
L 154.617595 294.512013 
L 155.212809 294.14841 
L 155.808 294.728522 
L 158.188809 298.279898 
L 161.164809 301.727953 
L 162.355191 303.644209 
L 162.950405 303.100722 
L 163.545595 301.409457 
L 164.140809 299.16812 
L 164.736 296.155724 
L 165.331191 292.100767 
L 165.926405 286.711706 
L 166.521595 279.76398 
L 167.712 261.663533 
L 168.902405 243.911649 
L 169.497595 238.869992 
L 170.092809 237.858268 
L 170.688 241.007806 
L 171.283191 247.95965 
L 171.878405 258.380237 
L 172.473595 272.178785 
L 173.068809 289.196448 
L 173.664 299.606468 
L 174.259191 280.630319 
L 174.854405 265.568424 
L 175.449595 257.188154 
L 176.044809 255.433484 
L 176.64 258.018318 
L 177.830405 266.339557 
L 179.020809 272.699796 
L 180.211191 276.932513 
L 182.592 284.287104 
L 183.187191 286.605002 
L 183.782405 289.488626 
L 184.377595 293.251043 
L 185.568 303.186735 
L 186.758405 285.488347 
L 187.353595 276.509323 
L 187.948809 270.384394 
L 188.544 269.360893 
L 189.139191 274.112025 
L 189.734405 283.225107 
L 190.924809 303.913905 
L 191.52 296.135615 
L 192.115191 291.05571 
L 192.710405 288.303642 
L 193.305595 287.196316 
L 193.900809 287.08266 
L 194.496 287.491321 
L 195.686405 288.864201 
L 199.257595 293.466647 
L 200.448 295.48822 
L 201.043191 296.842717 
L 201.638382 298.597823 
L 202.233618 300.932205 
L 202.828809 304.015036 
L 203.424 300.012322 
L 205.209618 286.165373 
L 205.804809 284.587166 
L 206.4 286.501748 
L 206.995191 291.600248 
L 207.590382 298.247788 
L 208.185618 303.574039 
L 208.780809 299.000234 
L 209.376 296.31283 
L 209.971191 295.101926 
L 210.566382 294.803871 
L 211.161618 294.972151 
L 215.328 297.391872 
L 216.518382 297.774953 
L 217.113618 297.854903 
L 217.708809 297.821195 
L 218.304 297.627914 
L 218.899191 297.208568 
L 219.494382 296.468345 
L 220.089618 295.274525 
L 220.684809 293.451069 
L 221.28 290.785353 
L 221.875191 287.070664 
L 223.065618 276.497908 
L 223.660809 270.827203 
L 224.256 267.002593 
L 224.851191 267.368684 
L 225.446382 273.721505 
L 226.041618 285.802985 
L 226.636809 300.607089 
L 227.232 294.342245 
L 227.827191 286.107149 
L 228.422382 283.074592 
L 229.017618 283.521061 
L 230.803191 289.453795 
L 231.398382 290.859783 
L 231.993618 291.89275 
L 232.588809 292.640268 
L 233.184 293.171073 
L 233.779191 293.527147 
L 234.374382 293.723381 
L 234.969618 293.753265 
L 235.564809 293.590888 
L 236.16 293.189282 
L 236.755191 292.4769 
L 237.350382 291.351645 
L 237.945618 289.675053 
L 238.540809 287.269237 
L 239.136 283.925105 
L 239.731191 279.433013 
L 240.326382 273.65305 
L 241.516809 258.79655 
L 242.707191 244.44783 
L 243.302382 240.530174 
L 243.897618 240.253884 
L 244.492809 244.13781 
L 245.088 252.334834 
L 245.683191 264.867677 
L 246.278382 281.553574 
L 246.873618 301.383168 
L 248.064 269.624356 
L 248.659191 260.007278 
L 249.254382 257.800578 
L 249.849618 260.536757 
L 251.04 269.574139 
L 252.230382 276.254221 
L 253.420809 280.77095 
L 254.611191 285.199698 
L 255.206382 287.8134 
L 255.801618 290.999911 
L 256.396809 294.989823 
L 256.992 300.041984 
L 257.587191 301.697229 
L 259.968 272.286748 
L 260.563191 270.166037 
L 261.158382 272.499249 
L 261.753618 278.856714 
L 262.944 297.641159 
L 263.539191 301.320934 
L 264.134382 293.978003 
L 264.729618 288.779385 
L 265.324809 285.590689 
L 265.92 283.976421 
L 266.515191 283.430279 
L 267.110382 283.523648 
L 267.705618 283.954443 
L 270.681618 286.833671 
L 271.872 287.545497 
L 272.467191 287.712239 
L 273.062382 287.71787 
L 273.657618 287.537394 
L 274.252809 287.156323 
L 275.443191 285.905171 
L 276.038382 285.292379 
L 276.633618 285.10829 
L 277.228809 285.92888 
L 277.824 288.477745 
L 278.419191 293.314061 
L 279.014382 300.262733 
L 279.609618 300.083653 
L 280.204809 293.770152 
L 280.8 290.495515 
L 281.395191 290.361395 
L 281.990382 292.219274 
L 283.180809 297.0429 
L 283.776 298.861602 
L 284.371191 300.197676 
L 284.966382 301.168891 
L 286.156809 302.470239 
L 287.942382 303.841471 
L 288.537618 303.742061 
L 289.728 302.556874 
L 290.323191 301.743339 
L 290.918382 300.701701 
L 291.513618 299.365504 
L 292.108809 297.682122 
L 294.489618 289.81606 
L 295.084809 289.863514 
L 295.68 292.003426 
L 296.275191 296.191043 
L 296.870382 301.5117 
L 297.465618 301.493831 
L 298.060809 297.836337 
L 298.656 295.897596 
L 299.251191 295.34499 
L 299.846382 295.616625 
L 301.036809 296.986005 
L 302.822382 298.946665 
L 305.798382 301.852676 
L 306.393618 302.644458 
L 306.988809 303.635387 
L 307.584 303.125902 
L 308.179191 301.390615 
L 308.774382 299.018648 
L 309.369618 295.762376 
L 309.964809 291.341284 
L 310.56 285.51563 
L 311.750382 269.970815 
L 312.345618 261.839849 
L 312.940809 255.765182 
L 313.536 253.955048 
L 314.131191 258.077998 
L 314.726382 268.456266 
L 315.916809 300.926672 
L 317.107191 280.649919 
L 317.702382 275.263328 
L 318.297618 274.324383 
L 318.892809 275.893918 
L 320.678382 282.942028 
L 321.868809 286.13422 
L 323.059191 288.36031 
L 324.249618 290.000997 
L 325.44 291.168801 
L 326.035191 291.561825 
L 326.630382 291.800802 
L 327.225618 291.85218 
L 327.820809 291.669434 
L 328.416 291.193959 
L 329.011191 290.360821 
L 329.606382 289.118464 
L 331.392 283.890984 
L 331.987191 283.236095 
L 332.582382 284.789672 
L 333.177618 289.50059 
L 333.772809 297.144951 
L 334.368 302.203076 
L 334.963191 295.132097 
L 335.558382 291.466468 
L 336.153618 290.977761 
L 336.748809 292.331023 
L 337.939191 295.86202 
L 338.534382 297.08873 
L 339.129618 297.896611 
L 339.724809 298.330837 
L 340.32 298.525845 
L 340.915191 298.55859 
L 341.510382 298.455236 
L 342.105618 298.225545 
L 342.700809 297.853027 
L 343.296 297.298015 
L 343.891191 296.50085 
L 344.486382 295.379372 
L 345.081618 293.821457 
L 345.676809 291.685418 
L 346.272 288.803229 
L 346.867191 285.000377 
L 347.462382 280.146973 
L 348.652809 267.609189 
L 349.843191 255.46067 
L 350.438382 252.720699 
L 351.033618 254.210575 
L 351.628809 260.888236 
L 352.224 272.802139 
L 352.819191 288.805956 
L 353.414382 301.675852 
L 354.009618 286.029611 
L 354.604809 275.351372 
L 355.2 270.628727 
L 355.795191 270.59605 
L 356.390382 273.075717 
L 357.580809 279.403496 
L 358.771191 284.286835 
L 360.556809 289.763186 
L 361.747191 293.616216 
L 362.342382 295.985921 
L 362.937618 298.875119 
L 363.532809 302.492881 
L 364.128 300.99409 
L 364.723191 295.317648 
L 367.104 269.00489 
L 367.699191 267.571657 
L 368.294382 270.882738 
L 368.889618 278.739704 
L 370.08 301.341543 
L 370.675191 296.385627 
L 371.270382 288.819732 
L 371.865618 284.351163 
L 372.460809 282.473549 
L 373.056 282.308242 
L 373.651191 283.053515 
L 377.817618 290.737452 
L 379.603191 293.781106 
L 380.793618 296.399481 
L 381.388809 298.17113 
L 381.984 300.482064 
L 382.579191 303.581779 
L 383.174382 300.288883 
L 383.769618 294.76596 
L 385.555191 273.208618 
L 386.150382 269.352599 
L 386.745618 270.984779 
L 387.340809 278.737968 
L 388.531191 303.086328 
L 389.126382 295.167099 
L 389.721618 289.342775 
L 390.316809 286.971161 
L 390.912 286.833007 
L 391.507191 287.799576 
L 393.292809 291.531339 
L 394.483191 293.480443 
L 397.459191 297.856779 
L 398.054382 298.996388 
L 398.649618 300.404448 
L 399.244809 302.230344 
L 399.84 303.36506 
L 400.435191 299.978947 
L 401.030382 295.282483 
L 401.625618 288.848721 
L 402.220809 280.338342 
L 403.411191 257.900092 
L 404.006382 246.372635 
L 404.601618 237.401856 
L 405.196809 232.873412 
L 405.792 233.524513 
L 406.387191 238.911126 
L 406.982382 248.1916 
L 407.577618 260.819673 
L 408.768 295.285252 
L 409.363191 292.82341 
L 409.958382 274.636853 
L 410.553618 261.668337 
L 411.148809 255.636482 
L 411.744 255.496506 
L 412.339191 258.676459 
L 413.529618 266.871006 
L 414.72 272.938264 
L 414.72 272.938264 
" clip-path="url(#p3ae5778a09)" style="fill: none; stroke-dasharray: 9.6,2.4,1.5,2.4; stroke-dashoffset: 0; stroke: #0000cc; stroke-width: 1.5"/>
   </g>
   <g id="line2d_39">
    <path d="M 57.6 303.998873 
L 61.766405 303.918485 
L 67.123191 304.013269 
L 83.788809 303.941345 
L 84.979191 303.696384 
L 86.169595 303.105875 
L 87.955191 301.550882 
L 88.550405 301.51853 
L 89.145595 302.131283 
L 89.740809 303.268855 
L 90.336 303.654344 
L 90.931191 303.015036 
L 91.526405 302.849294 
L 92.716809 303.125718 
L 94.502405 303.566275 
L 96.883191 303.667153 
L 100.454405 303.770065 
L 102.835191 303.94189 
L 104.620809 303.756683 
L 106.406405 303.925422 
L 107.596809 304.009343 
L 111.168 303.827197 
L 116.524809 303.737842 
L 119.500809 303.945484 
L 120.691191 303.800222 
L 122.476809 303.852478 
L 125.452809 303.987753 
L 130.809595 303.589931 
L 133.190405 303.415409 
L 134.380809 303.560469 
L 135.571191 303.935402 
L 136.166405 303.916444 
L 137.356809 303.672257 
L 139.142405 303.704297 
L 143.308809 303.996824 
L 146.284809 303.621305 
L 148.070405 303.175713 
L 149.856 302.73605 
L 150.451191 302.762742 
L 151.046405 302.951336 
L 152.236809 303.763084 
L 152.832 303.850842 
L 153.427191 303.520197 
L 154.022405 303.32252 
L 155.212809 303.266486 
L 159.974405 303.816957 
L 161.76 303.951467 
L 162.950405 303.637484 
L 164.140809 303.117735 
L 165.331191 302.259967 
L 166.521595 301.253549 
L 167.116809 300.914453 
L 167.712 300.912006 
L 168.307191 301.395875 
L 168.902405 302.343358 
L 169.497595 303.530368 
L 170.092809 303.437456 
L 170.688 302.685665 
L 171.283191 302.315203 
L 171.878405 302.22596 
L 173.068809 302.429895 
L 176.044809 303.057782 
L 179.616 303.751744 
L 180.211191 303.940457 
L 180.806405 303.864493 
L 181.401595 303.526255 
L 181.996809 303.054535 
L 182.592 302.388258 
L 183.187191 301.450195 
L 183.782405 300.152764 
L 184.377595 298.437042 
L 186.163191 292.452469 
L 186.758405 292.247523 
L 187.353595 294.281886 
L 188.544 303.237672 
L 189.734405 298.600281 
L 190.329595 297.866797 
L 190.924809 298.02939 
L 193.305595 300.002811 
L 194.496 300.589528 
L 196.281595 301.161146 
L 198.067191 301.490271 
L 199.257595 301.548788 
L 200.448 301.409828 
L 201.638382 300.973239 
L 203.424 299.892259 
L 204.019191 299.775142 
L 204.614382 300.13427 
L 205.209618 301.168569 
L 205.804809 302.805619 
L 206.4 303.439006 
L 206.995191 302.037423 
L 207.590382 301.358014 
L 208.185618 301.312891 
L 209.376 302.003089 
L 210.566382 302.600707 
L 211.756809 302.887694 
L 213.542382 302.995282 
L 215.328 302.8522 
L 216.518382 302.521052 
L 217.113618 302.221455 
L 217.708809 301.775653 
L 218.304 301.114876 
L 218.899191 300.136787 
L 219.494382 298.692772 
L 220.089618 296.575368 
L 220.684809 293.513495 
L 221.28 289.198635 
L 221.875191 283.378472 
L 223.660809 260.750912 
L 224.256 257.049099 
L 224.851191 259.584952 
L 225.446382 269.576748 
L 226.636809 303.137196 
L 227.232 290.199587 
L 227.827191 281.374 
L 228.422382 278.342808 
L 229.017618 279.059873 
L 230.803191 285.945644 
L 231.398382 287.610266 
L 231.993618 288.887583 
L 233.184 290.657791 
L 234.374382 291.76561 
L 234.969618 292.125384 
L 235.564809 292.351555 
L 236.16 292.434182 
L 236.755191 292.340919 
L 237.350382 292.062798 
L 237.945618 291.573182 
L 239.136 290.009303 
L 239.731191 289.131758 
L 240.326382 288.54701 
L 240.921618 288.774961 
L 241.516809 290.475938 
L 242.112 294.185649 
L 242.707191 299.780855 
L 243.302382 301.932636 
L 243.897618 296.638638 
L 244.492809 293.713162 
L 245.088 293.253584 
L 245.683191 294.390111 
L 246.873618 297.760922 
L 247.468809 299.093779 
L 248.064 300.089754 
L 248.659191 300.821705 
L 249.849618 301.818717 
L 252.825618 303.658254 
L 253.420809 303.898921 
L 254.016 303.272706 
L 254.611191 302.456915 
L 255.206382 301.371194 
L 255.801618 299.921706 
L 256.396809 298.010392 
L 257.587191 292.688476 
L 258.777618 287.185116 
L 259.372809 286.339526 
L 259.968 288.151712 
L 260.563191 292.881861 
L 261.158382 299.465838 
L 261.753618 302.059617 
L 262.348809 297.265114 
L 262.944 294.731686 
L 263.539191 294.022967 
L 264.134382 294.359899 
L 266.515191 297.329876 
L 267.705618 298.359308 
L 269.491191 299.566267 
L 271.872 301.119605 
L 273.062382 302.208168 
L 274.252809 303.96141 
L 274.848 302.417018 
L 275.443191 300.173844 
L 276.038382 296.88753 
L 276.633618 292.107647 
L 277.228809 285.332048 
L 277.824 276.200718 
L 279.609618 242.332967 
L 280.204809 237.062311 
L 280.8 239.443744 
L 281.395191 250.001899 
L 281.990382 267.360256 
L 282.585618 288.791263 
L 283.180809 297.639515 
L 283.776 280.197035 
L 284.371191 269.812562 
L 284.966382 266.674215 
L 285.561618 268.245153 
L 287.347191 278.613039 
L 287.942382 281.143974 
L 289.132809 284.899105 
L 291.513618 291.315615 
L 292.108809 293.441539 
L 292.704 296.099322 
L 293.299191 299.498407 
L 293.894382 303.841821 
L 294.489618 298.846298 
L 296.275191 281.229481 
L 296.870382 278.738432 
L 297.465618 279.98056 
L 298.060809 284.905254 
L 299.251191 300.180399 
L 299.846382 300.921496 
L 300.441618 295.768934 
L 301.036809 292.493928 
L 301.632 290.731136 
L 302.227191 289.98923 
L 302.822382 289.850059 
L 303.417618 290.023646 
L 306.988809 291.799253 
L 307.584 291.856485 
L 308.179191 291.754108 
L 308.774382 291.473515 
L 309.369618 290.947372 
L 309.964809 290.111976 
L 310.56 288.902212 
L 311.155191 287.26755 
L 312.345618 282.880708 
L 312.940809 280.635848 
L 313.536 279.19585 
L 314.131191 279.620717 
L 314.726382 283.029761 
L 315.321618 289.921464 
L 315.916809 299.38993 
L 316.512 298.989959 
L 317.107191 291.761012 
L 317.702382 288.259204 
L 318.297618 287.980273 
L 318.892809 289.504405 
L 320.083191 293.554458 
L 320.678382 295.156081 
L 321.273618 296.411178 
L 322.464 298.221449 
L 326.035191 302.640861 
L 326.630382 303.76548 
L 327.225618 302.857382 
L 327.820809 301.008814 
L 328.416 298.625083 
L 329.011191 295.623791 
L 330.796809 284.777628 
L 331.392 282.900605 
L 331.987191 283.776733 
L 332.582382 288.004763 
L 333.772809 302.687241 
L 334.963191 294.411952 
L 335.558382 292.383585 
L 336.153618 291.981872 
L 336.748809 292.455568 
L 339.724809 296.348321 
L 343.296 300.045017 
L 344.486382 301.870037 
L 345.081618 303.172818 
L 345.676809 303.121562 
L 346.272 300.684748 
L 346.867191 297.268734 
L 347.462382 292.508354 
L 348.057618 286.045552 
L 349.248 267.923265 
L 349.843191 257.986405 
L 350.438382 250.282402 
L 351.033618 247.637173 
L 351.628809 252.055963 
L 352.224 263.713904 
L 353.414382 300.026428 
L 354.009618 290.800577 
L 354.604809 278.831505 
L 355.2 273.134226 
L 355.795191 272.361021 
L 356.390382 274.284893 
L 357.580809 279.78164 
L 358.771191 283.923976 
L 359.961618 286.720519 
L 361.152 288.815654 
L 364.723191 294.351512 
L 365.318382 295.824969 
L 365.913618 297.836032 
L 367.104 303.680871 
L 368.889618 289.771429 
L 369.484809 287.921537 
L 370.08 289.366235 
L 370.675191 293.596415 
L 371.865618 303.851444 
L 372.460809 300.774427 
L 373.056 298.799704 
L 373.651191 297.89 
L 374.246382 297.6208 
L 374.841618 297.681665 
L 376.032 298.1612 
L 380.793618 300.579292 
L 381.984 301.406463 
L 382.579191 301.976818 
L 383.174382 302.731094 
L 383.769618 303.754843 
L 384.364809 302.909524 
L 384.96 301.085517 
L 386.745618 294.659903 
L 387.340809 294.156942 
L 387.936 295.609972 
L 388.531191 298.768415 
L 389.126382 302.530004 
L 389.721618 302.37729 
L 390.316809 300.418602 
L 390.912 299.558917 
L 391.507191 299.396011 
L 392.102382 299.577597 
L 395.673618 301.275941 
L 398.649618 302.565889 
L 399.84 303.386725 
L 400.435191 303.993196 
L 401.030382 303.221318 
L 401.625618 302.028073 
L 402.220809 300.296739 
L 402.816 297.758374 
L 403.411191 290.858974 
L 404.006382 285.86207 
L 404.601618 279.133343 
L 406.387191 252.962092 
L 406.982382 247.910851 
L 407.577618 248.963152 
L 408.172809 257.616996 
L 408.768 273.200812 
L 409.363191 292.916203 
L 409.958382 295.751903 
L 410.553618 281.117563 
L 411.148809 273.427498 
L 411.744 271.812197 
L 412.339191 273.70637 
L 413.529618 279.779373 
L 414.124809 282.209803 
L 414.72 284.058068 
L 414.72 284.058068 
" clip-path="url(#p3ae5778a09)" style="fill: none; stroke: #ff0000; stroke-width: 1.5; stroke-linecap: square"/>
   </g>
   <g id="patch_13">
    <path d="M 57.6 307.584 
L 57.6 229.315765 
" style="fill: none; stroke: #000000; stroke-width: 0.8; stroke-linejoin: miter; stroke-linecap: square"/>
   </g>
   <g id="patch_14">
    <path d="M 414.72 307.584 
L 414.72 229.315765 
" style="fill: none; stroke: #000000; stroke-width: 0.8; stroke-linejoin: miter; stroke-linecap: square"/>
   </g>
   <g id="patch_15">
    <path d="M 57.6 307.584 
L 414.72 307.584 
" style="fill: none; stroke: #000000; stroke-width: 0.8; stroke-linejoin: miter; stroke-linecap: square"/>
   </g>
   <g id="patch_16">
    <path d="M 57.6 229.315765 
L 414.72 229.315765 
" style="fill: none; stroke: #000000; stroke-width: 0.8; stroke-linejoin: miter; stroke-linecap: square"/>
   </g>
  </g>
 </g>
 <defs>
  <clipPath id="p0c324548af">
   <rect x="57.6" y="41.472" width="357.12" height="78.268235"/>
  </clipPath>
  <clipPath id="pea14b4f35b">
   <rect x="57.6" y="135.393882" width="357.12" height="78.268235"/>
  </clipPath>
  <clipPath id="p3ae5778a09">
   <rect x="57.6" y="229.315765" width="357.12" height="78.268235"/>
  </clipPath>
 </defs>
</svg>
