<?xml version="1.0" encoding="utf-8" standalone="no"?>
<!DOCTYPE svg PUBLIC "-//W3C//DTD SVG 1.1//EN"
  "http://www.w3.org/Graphics/SVG/1.1/DTD/svg11.dtd">
<svg xmlns:xlink="http://www.w3.org/1999/xlink" width="460.8pt" height="345.6pt" viewBox="0 0 460.8 345.6" xmlns="http://www.w3.org/2000/svg" version="1.1">
 <metadata>
  <rdf:RDF xmlns:dc="http://purl.org/dc/elements/1.1/" xmlns:cc="http://creativecommons.org/ns#" xmlns:rdf="http://www.w3.org/1999/02/22-rdf-syntax-ns#">
   <cc:Work>
    <dc:type rdf:resource="http://purl.org/dc/dcmitype/StillImage"/>
    <dc:date>2023-10-31T11:57:28.313610</dc:date>
    <dc:format>image/svg+xml</dc:format>
    <dc:creator>
     <cc:Agent>
      <dc:title>Matplotlib v3.5.2, https://matplotlib.org/</dc:title>
     </cc:Agent>
    </dc:creator>
   </cc:Work>
  </rdf:RDF>
 </metadata>
 <defs>
  <style type="text/css">*{stroke-linejoin: round; stroke-linecap: butt}</style>
 </defs>
 <g id="figure_1">
  <g id="patch_1">
   <path d="M 0 345.6 
L 460.8 345.6 
L 460.8 0 
L 0 0 
z
" style="fill: #ffffff"/>
  </g>
  <g id="axes_1">
   <g id="patch_2">
    <path d="M 57.6 119.740235 
L 414.72 119.740235 
L 414.72 41.472 
L 57.6 41.472 
z
" style="fill: #ffffff"/>
   </g>
   <g id="matplotlib.axis_1">
    <g id="xtick_1">
     <g id="line2d_1">
      <defs>
       <path id="mc83b4984c4" d="M 0 0 
L 0 3.5 
" style="stroke: #000000; stroke-width: 0.8"/>
      </defs>
      <g>
       <use xlink:href="#mc83b4984c4" x="57.6" y="119.740235" style="stroke: #000000; stroke-width: 0.8"/>
      </g>
     </g>
    </g>
    <g id="xtick_2">
     <g id="line2d_2">
      <g>
       <use xlink:href="#mc83b4984c4" x="236.16" y="119.740235" style="stroke: #000000; stroke-width: 0.8"/>
      </g>
     </g>
    </g>
    <g id="xtick_3">
     <g id="line2d_3">
      <g>
       <use xlink:href="#mc83b4984c4" x="414.72" y="119.740235" style="stroke: #000000; stroke-width: 0.8"/>
      </g>
     </g>
    </g>
   </g>
   <g id="matplotlib.axis_2">
    <g id="ytick_1">
     <g id="line2d_4">
      <defs>
       <path id="m965006980a" d="M 0 0 
L -3.5 0 
" style="stroke: #000000; stroke-width: 0.8"/>
      </defs>
      <g>
       <use xlink:href="#m965006980a" x="57.6" y="116.188306" style="stroke: #000000; stroke-width: 0.8"/>
      </g>
     </g>
     <g id="text_1">
      <!-- 0 -->
      <g transform="translate(44.2375 119.987525)scale(0.1 -0.1)">
       <defs>
        <path id="DejaVuSans-30" d="M 2034 4250 
Q 1547 4250 1301 3770 
Q 1056 3291 1056 2328 
Q 1056 1369 1301 889 
Q 1547 409 2034 409 
Q 2525 409 2770 889 
Q 3016 1369 3016 2328 
Q 3016 3291 2770 3770 
Q 2525 4250 2034 4250 
z
M 2034 4750 
Q 2819 4750 3233 4129 
Q 3647 3509 3647 2328 
Q 3647 1150 3233 529 
Q 2819 -91 2034 -91 
Q 1250 -91 836 529 
Q 422 1150 422 2328 
Q 422 3509 836 4129 
Q 1250 4750 2034 4750 
z
" transform="scale(0.015625)"/>
       </defs>
       <use xlink:href="#DejaVuSans-30"/>
      </g>
     </g>
    </g>
    <g id="ytick_2">
     <g id="line2d_5">
      <g>
       <use xlink:href="#m965006980a" x="57.6" y="71.16689" style="stroke: #000000; stroke-width: 0.8"/>
      </g>
     </g>
     <g id="text_2">
      <!-- 5 -->
      <g transform="translate(44.2375 74.966109)scale(0.1 -0.1)">
       <defs>
        <path id="DejaVuSans-35" d="M 691 4666 
L 3169 4666 
L 3169 4134 
L 1269 4134 
L 1269 2991 
Q 1406 3038 1543 3061 
Q 1681 3084 1819 3084 
Q 2600 3084 3056 2656 
Q 3513 2228 3513 1497 
Q 3513 744 3044 326 
Q 2575 -91 1722 -91 
Q 1428 -91 1123 -41 
Q 819 9 494 109 
L 494 744 
Q 775 591 1075 516 
Q 1375 441 1709 441 
Q 2250 441 2565 725 
Q 2881 1009 2881 1497 
Q 2881 1984 2565 2268 
Q 2250 2553 1709 2553 
Q 1456 2553 1204 2497 
Q 953 2441 691 2322 
L 691 4666 
z
" transform="scale(0.015625)"/>
       </defs>
       <use xlink:href="#DejaVuSans-35"/>
      </g>
     </g>
    </g>
   </g>
   <g id="line2d_6">
    <path d="M 57.6 112.200195 
L 59.831966 115.203 
L 62.064017 114.664215 
L 64.295983 113.55697 
L 66.528034 114.194262 
L 70.991966 113.395695 
L 77.688034 113.641518 
L 79.92 114.265213 
L 82.151966 115.281294 
L 84.384017 115.691463 
L 86.615983 113.766699 
L 88.848034 112.235255 
L 91.08 111.763232 
L 93.311966 111.966405 
L 97.775983 113.223914 
L 106.704017 115.218181 
L 111.168034 116.056638 
L 113.4 115.987211 
L 120.095983 115.235853 
L 126.791966 114.455397 
L 131.255983 113.650614 
L 133.488034 113.091141 
L 135.72 112.384009 
L 137.951966 111.486936 
L 140.184017 110.346373 
L 142.415983 108.894664 
L 144.648034 107.047211 
L 146.88 104.699783 
L 149.111966 101.728658 
L 151.344017 97.996833 
L 153.575983 93.372725 
L 155.808034 87.777931 
L 158.04 81.281968 
L 160.271966 74.279075 
L 162.504017 67.759091 
L 164.735983 63.628408 
L 166.968034 64.921676 
L 169.2 75.480997 
L 171.431966 97.933914 
L 173.664017 103.212547 
L 175.895983 73.234491 
L 178.128034 52.989907 
L 180.36 45.029647 
L 182.591966 47.592572 
L 184.824017 56.410258 
L 189.288034 78.982438 
L 191.52 88.636308 
L 193.751966 96.247325 
L 195.984017 101.742523 
L 198.215983 105.383841 
L 200.448034 107.486103 
L 202.68 108.349771 
L 204.911966 108.247911 
L 207.144017 107.395681 
L 209.375983 105.973315 
L 211.608034 104.155432 
L 216.071966 100.207599 
L 218.304017 98.714558 
L 220.535983 98.135469 
L 222.768034 98.985042 
L 225 101.678523 
L 227.231966 106.329532 
L 229.464017 112.573093 
L 231.695983 112.812174 
L 233.928034 106.160531 
L 236.16 100.811322 
L 238.391966 97.333328 
L 240.624017 95.835206 
L 242.855983 96.055746 
L 245.088034 97.526389 
L 247.32 99.741881 
L 254.015983 107.32403 
L 256.248034 109.595456 
L 260.711966 113.628605 
L 262.944017 115.495812 
L 265.175983 115.023024 
L 269.64 111.103997 
L 276.335983 104.766063 
L 278.568034 103.068995 
L 280.8 102.138241 
L 283.031966 102.446778 
L 285.264017 104.39993 
L 287.495983 108.116946 
L 289.728034 113.248486 
L 291.96 113.388413 
L 294.191966 108.025641 
L 296.424017 103.8222 
L 298.655983 101.161839 
L 300.888034 100.043721 
L 303.12 100.201067 
L 305.351966 101.228226 
L 307.584017 102.715771 
L 312.048034 105.934266 
L 314.28 107.360746 
L 316.511966 108.596388 
L 318.744017 109.651181 
L 323.208034 111.370657 
L 327.671966 112.931748 
L 329.904017 113.807381 
L 332.135983 114.832135 
L 334.368034 116.062779 
L 336.6 114.844467 
L 343.295983 109.683946 
L 345.528034 108.502618 
L 347.76 108.218784 
L 349.991966 109.112573 
L 352.224017 111.149814 
L 354.455983 113.934531 
L 356.688034 115.457152 
L 358.92 112.707054 
L 361.151966 110.460251 
L 363.384017 108.848503 
L 365.615983 107.853805 
L 367.848034 107.31583 
L 372.311966 106.848803 
L 376.775983 106.369956 
L 379.008034 105.953443 
L 381.24 105.373657 
L 383.471966 104.608295 
L 385.704017 103.644616 
L 387.935983 102.479093 
L 390.168034 101.124885 
L 396.864017 96.623158 
L 399.095983 95.57965 
L 401.328034 95.371456 
L 403.56 96.585593 
L 405.791966 99.870399 
L 408.024017 105.702797 
L 410.255983 114.006055 
L 412.488034 108.570532 
L 412.488034 108.570532 
" clip-path="url(#pca5722cf5d)" style="fill: none; stroke-dasharray: 9.6,2.4,1.5,2.4; stroke-dashoffset: 0; stroke: #0000cc; stroke-width: 1.5"/>
   </g>
   <g id="line2d_7">
    <path d="M 57.6 116.032605 
L 64.295983 116.087994 
L 88.848034 116.155487 
L 95.544017 115.907815 
L 102.24 115.905016 
L 113.4 116.117514 
L 124.56 116.166264 
L 142.415983 115.984903 
L 149.111966 115.708713 
L 153.575983 115.394166 
L 158.04 114.874359 
L 162.504017 114.086813 
L 166.968034 113.198754 
L 169.2 112.975749 
L 171.431966 113.212151 
L 173.664017 114.193135 
L 175.895983 115.89001 
L 178.128034 114.446113 
L 180.36 112.671137 
L 182.591966 111.746267 
L 184.824017 111.658137 
L 187.055983 112.074655 
L 195.984017 114.878383 
L 198.215983 115.361673 
L 202.68 115.96601 
L 204.911966 116.129492 
L 216.071966 116.153291 
L 229.464017 115.591055 
L 233.928034 115.794751 
L 238.391966 116.103154 
L 242.855983 115.724571 
L 247.32 115.522987 
L 254.015983 115.505727 
L 271.871966 115.842151 
L 280.8 116.128798 
L 283.031966 116.064848 
L 287.495983 115.757027 
L 291.96 115.656793 
L 296.424017 115.885014 
L 298.655983 116.080355 
L 300.888034 116.093403 
L 307.584017 115.655046 
L 314.28 115.501898 
L 334.368034 115.380355 
L 338.831966 115.549632 
L 345.528034 116.114936 
L 349.991966 115.516004 
L 352.224017 115.331001 
L 354.455983 115.276843 
L 358.92 115.548195 
L 363.384017 116.049785 
L 365.615983 116.089733 
L 372.311966 115.579482 
L 396.864017 114.454592 
L 399.095983 114.460663 
L 401.328034 114.580656 
L 403.56 114.861196 
L 405.791966 115.345109 
L 408.024017 115.991905 
L 410.255983 115.631472 
L 412.488034 114.911021 
L 412.488034 114.911021 
" clip-path="url(#pca5722cf5d)" style="fill: none; stroke: #ff0000; stroke-width: 1.5; stroke-linecap: square"/>
   </g>
   <g id="patch_3">
    <path d="M 57.6 119.740235 
L 57.6 41.472 
" style="fill: none; stroke: #000000; stroke-width: 0.8; stroke-linejoin: miter; stroke-linecap: square"/>
   </g>
   <g id="patch_4">
    <path d="M 414.72 119.740235 
L 414.72 41.472 
" style="fill: none; stroke: #000000; stroke-width: 0.8; stroke-linejoin: miter; stroke-linecap: square"/>
   </g>
   <g id="patch_5">
    <path d="M 57.6 119.740235 
L 414.72 119.740235 
" style="fill: none; stroke: #000000; stroke-width: 0.8; stroke-linejoin: miter; stroke-linecap: square"/>
   </g>
   <g id="patch_6">
    <path d="M 57.6 41.472 
L 414.72 41.472 
" style="fill: none; stroke: #000000; stroke-width: 0.8; stroke-linejoin: miter; stroke-linecap: square"/>
   </g>
  </g>
  <g id="axes_2">
   <g id="patch_7">
    <path d="M 57.6 213.662118 
L 414.72 213.662118 
L 414.72 135.393882 
L 57.6 135.393882 
z
" style="fill: #ffffff"/>
   </g>
   <g id="matplotlib.axis_3">
    <g id="xtick_4">
     <g id="line2d_8">
      <g>
       <use xlink:href="#mc83b4984c4" x="57.6" y="213.662118" style="stroke: #000000; stroke-width: 0.8"/>
      </g>
     </g>
    </g>
    <g id="xtick_5">
     <g id="line2d_9">
      <g>
       <use xlink:href="#mc83b4984c4" x="236.16" y="213.662118" style="stroke: #000000; stroke-width: 0.8"/>
      </g>
     </g>
    </g>
    <g id="xtick_6">
     <g id="line2d_10">
      <g>
       <use xlink:href="#mc83b4984c4" x="414.72" y="213.662118" style="stroke: #000000; stroke-width: 0.8"/>
      </g>
     </g>
    </g>
   </g>
   <g id="matplotlib.axis_4">
    <g id="ytick_3">
     <g id="line2d_11">
      <g>
       <use xlink:href="#m965006980a" x="57.6" y="210.107768" style="stroke: #000000; stroke-width: 0.8"/>
      </g>
     </g>
     <g id="text_3">
      <!-- 0 -->
      <g transform="translate(44.2375 213.906987)scale(0.1 -0.1)">
       <use xlink:href="#DejaVuSans-30"/>
      </g>
     </g>
    </g>
    <g id="ytick_4">
     <g id="line2d_12">
      <g>
       <use xlink:href="#m965006980a" x="57.6" y="167.254773" style="stroke: #000000; stroke-width: 0.8"/>
      </g>
     </g>
     <g id="text_4">
      <!-- 10 -->
      <g transform="translate(37.875 171.053992)scale(0.1 -0.1)">
       <defs>
        <path id="DejaVuSans-31" d="M 794 531 
L 1825 531 
L 1825 4091 
L 703 3866 
L 703 4441 
L 1819 4666 
L 2450 4666 
L 2450 531 
L 3481 531 
L 3481 0 
L 794 0 
L 794 531 
z
" transform="scale(0.015625)"/>
       </defs>
       <use xlink:href="#DejaVuSans-31"/>
       <use xlink:href="#DejaVuSans-30" x="63.623047"/>
      </g>
     </g>
    </g>
   </g>
   <g id="line2d_13">
    <path d="M 57.6 209.870594 
L 59.831966 208.821875 
L 62.064017 208.949334 
L 64.295983 208.797652 
L 66.528034 208.299222 
L 73.224017 207.971795 
L 75.455983 208.376942 
L 77.688034 209.205867 
L 79.92 209.759794 
L 82.151966 208.189242 
L 84.384017 206.906354 
L 86.615983 206.352822 
L 88.848034 206.530598 
L 91.08 207.249242 
L 93.311966 208.215742 
L 95.544017 209.042413 
L 97.775983 209.599102 
L 100.008034 209.978065 
L 102.24 209.968106 
L 106.704017 209.712326 
L 122.328034 209.253964 
L 126.791966 208.838783 
L 131.255983 208.146486 
L 133.488034 207.647411 
L 135.72 207.007658 
L 137.951966 206.187537 
L 140.184017 205.136197 
L 142.415983 203.789516 
L 144.648034 202.068518 
L 146.88 199.879292 
L 149.111966 197.118738 
L 151.344017 193.692892 
L 153.575983 189.561376 
L 158.04 179.980596 
L 160.271966 176.126695 
L 162.504017 175.493884 
L 164.735983 181.469383 
L 166.968034 197.407899 
L 169.2 196.800915 
L 171.431966 166.96301 
L 173.664017 144.51544 
L 175.895983 138.951529 
L 178.128034 150.64455 
L 180.36 170.891796 
L 182.591966 189.646067 
L 184.824017 202.643893 
L 187.055983 210.022886 
L 189.288034 206.964978 
L 191.52 206.317918 
L 193.751966 206.990389 
L 195.984017 208.286144 
L 198.215983 209.855525 
L 200.448034 208.716746 
L 207.144017 203.807214 
L 209.375983 202.256192 
L 211.608034 200.864766 
L 213.84 199.812133 
L 216.071966 199.377373 
L 218.304017 199.925255 
L 220.535983 201.833647 
L 222.768034 205.329916 
L 225 209.949277 
L 227.231966 204.25303 
L 229.464017 198.918366 
L 231.695983 195.106195 
L 233.928034 193.517384 
L 236.16 194.128336 
L 238.391966 196.316088 
L 242.855983 202.176765 
L 245.088034 204.731893 
L 247.32 206.759704 
L 249.551966 208.288791 
L 251.784017 209.427773 
L 254.015983 209.909159 
L 262.944017 206.957509 
L 267.408034 205.015679 
L 271.871966 202.782534 
L 274.104017 201.822343 
L 276.335983 201.280406 
L 278.568034 201.514694 
L 280.8 202.919054 
L 283.031966 205.761079 
L 285.264017 209.942497 
L 289.728034 200.893914 
L 291.96 197.824793 
L 294.191966 196.721575 
L 296.424017 197.418986 
L 298.655983 199.265183 
L 303.12 203.602039 
L 305.351966 205.296963 
L 307.584017 206.545639 
L 309.815983 207.405315 
L 312.048034 207.971819 
L 314.28 208.343447 
L 325.44 209.620618 
L 327.671966 210.07104 
L 329.904017 209.548551 
L 332.135983 208.782264 
L 334.368034 207.840406 
L 338.831966 205.662614 
L 341.064017 204.776966 
L 343.295983 204.454264 
L 345.528034 205.072095 
L 347.76 206.821084 
L 349.991966 209.476805 
L 352.224017 207.815382 
L 354.455983 205.359646 
L 356.688034 203.847036 
L 358.92 203.332862 
L 361.151966 203.521389 
L 367.848034 204.879785 
L 370.08 205.088112 
L 372.311966 205.11669 
L 374.544017 204.975547 
L 376.775983 204.680612 
L 379.008034 204.242199 
L 381.24 203.66706 
L 383.471966 202.961293 
L 387.935983 201.206026 
L 392.4 199.268145 
L 394.631966 198.503192 
L 396.864017 198.187523 
L 399.095983 198.714128 
L 401.328034 200.602061 
L 403.56 204.397759 
L 405.791966 209.809599 
L 410.255983 193.744338 
L 412.488034 187.515163 
L 412.488034 187.515163 
" clip-path="url(#p7e33e50771)" style="fill: none; stroke-dasharray: 9.6,2.4,1.5,2.4; stroke-dashoffset: 0; stroke: #0000cc; stroke-width: 1.5"/>
   </g>
   <g id="line2d_14">
    <path d="M 57.6 209.996004 
L 64.295983 210.017641 
L 142.415983 209.931554 
L 149.111966 209.681873 
L 153.575983 209.395777 
L 158.04 208.946119 
L 164.735983 208.156363 
L 166.968034 208.176273 
L 169.2 208.674179 
L 171.431966 209.892628 
L 173.664017 208.430315 
L 175.895983 206.620178 
L 178.128034 205.744081 
L 180.36 206.218466 
L 184.824017 208.814643 
L 187.055983 209.726713 
L 189.288034 209.990977 
L 193.751966 209.508429 
L 200.448034 209.706645 
L 211.608034 210.089514 
L 218.304017 209.859362 
L 225 209.668787 
L 229.464017 209.789754 
L 233.928034 210.103317 
L 238.391966 209.86075 
L 245.088034 209.825049 
L 262.944017 209.949401 
L 278.568034 209.943523 
L 287.495983 209.615611 
L 291.96 209.770933 
L 296.424017 210.08915 
L 303.12 209.862695 
L 329.904017 209.676874 
L 334.368034 209.758965 
L 338.831966 210.028462 
L 341.064017 209.965385 
L 347.76 209.263184 
L 349.991966 209.201476 
L 352.224017 209.289575 
L 361.151966 210.037814 
L 365.615983 209.814142 
L 394.631966 209.091237 
L 396.864017 209.1548 
L 399.095983 209.333519 
L 403.56 210.057307 
L 408.024017 208.783434 
L 410.255983 208.28625 
L 412.488034 208.107931 
L 412.488034 208.107931 
" clip-path="url(#p7e33e50771)" style="fill: none; stroke: #ff0000; stroke-width: 1.5; stroke-linecap: square"/>
   </g>
   <g id="patch_8">
    <path d="M 57.6 213.662118 
L 57.6 135.393882 
" style="fill: none; stroke: #000000; stroke-width: 0.8; stroke-linejoin: miter; stroke-linecap: square"/>
   </g>
   <g id="patch_9">
    <path d="M 414.72 213.662118 
L 414.72 135.393882 
" style="fill: none; stroke: #000000; stroke-width: 0.8; stroke-linejoin: miter; stroke-linecap: square"/>
   </g>
   <g id="patch_10">
    <path d="M 57.6 213.662118 
L 414.72 213.662118 
" style="fill: none; stroke: #000000; stroke-width: 0.8; stroke-linejoin: miter; stroke-linecap: square"/>
   </g>
   <g id="patch_11">
    <path d="M 57.6 135.393882 
L 414.72 135.393882 
" style="fill: none; stroke: #000000; stroke-width: 0.8; stroke-linejoin: miter; stroke-linecap: square"/>
   </g>
  </g>
  <g id="axes_3">
   <g id="patch_12">
    <path d="M 57.6 307.584 
L 414.72 307.584 
L 414.72 229.315765 
L 57.6 229.315765 
z
" style="fill: #ffffff"/>
   </g>
   <g id="matplotlib.axis_5">
    <g id="xtick_7">
     <g id="line2d_15">
      <g>
       <use xlink:href="#mc83b4984c4" x="57.6" y="307.584" style="stroke: #000000; stroke-width: 0.8"/>
      </g>
     </g>
     <g id="text_5">
      <!-- 10 -->
      <g transform="translate(51.2375 322.182437)scale(0.1 -0.1)">
       <use xlink:href="#DejaVuSans-31"/>
       <use xlink:href="#DejaVuSans-30" x="63.623047"/>
      </g>
     </g>
    </g>
    <g id="xtick_8">
     <g id="line2d_16">
      <g>
       <use xlink:href="#mc83b4984c4" x="236.16" y="307.584" style="stroke: #000000; stroke-width: 0.8"/>
      </g>
     </g>
     <g id="text_6">
      <!-- 12 -->
      <g transform="translate(229.7975 322.182437)scale(0.1 -0.1)">
       <defs>
        <path id="DejaVuSans-32" d="M 1228 531 
L 3431 531 
L 3431 0 
L 469 0 
L 469 531 
Q 828 903 1448 1529 
Q 2069 2156 2228 2338 
Q 2531 2678 2651 2914 
Q 2772 3150 2772 3378 
Q 2772 3750 2511 3984 
Q 2250 4219 1831 4219 
Q 1534 4219 1204 4116 
Q 875 4013 500 3803 
L 500 4441 
Q 881 4594 1212 4672 
Q 1544 4750 1819 4750 
Q 2544 4750 2975 4387 
Q 3406 4025 3406 3419 
Q 3406 3131 3298 2873 
Q 3191 2616 2906 2266 
Q 2828 2175 2409 1742 
Q 1991 1309 1228 531 
z
" transform="scale(0.015625)"/>
       </defs>
       <use xlink:href="#DejaVuSans-31"/>
       <use xlink:href="#DejaVuSans-32" x="63.623047"/>
      </g>
     </g>
    </g>
    <g id="xtick_9">
     <g id="line2d_17">
      <g>
       <use xlink:href="#mc83b4984c4" x="414.72" y="307.584" style="stroke: #000000; stroke-width: 0.8"/>
      </g>
     </g>
     <g id="text_7">
      <!-- 14 -->
      <g transform="translate(408.3575 322.182437)scale(0.1 -0.1)">
       <defs>
        <path id="DejaVuSans-34" d="M 2419 4116 
L 825 1625 
L 2419 1625 
L 2419 4116 
z
M 2253 4666 
L 3047 4666 
L 3047 1625 
L 3713 1625 
L 3713 1100 
L 3047 1100 
L 3047 0 
L 2419 0 
L 2419 1100 
L 313 1100 
L 313 1709 
L 2253 4666 
z
" transform="scale(0.015625)"/>
       </defs>
       <use xlink:href="#DejaVuSans-31"/>
       <use xlink:href="#DejaVuSans-34" x="63.623047"/>
      </g>
     </g>
    </g>
   </g>
   <g id="matplotlib.axis_6">
    <g id="ytick_5">
     <g id="line2d_18">
      <g>
       <use xlink:href="#m965006980a" x="57.6" y="304.026671" style="stroke: #000000; stroke-width: 0.8"/>
      </g>
     </g>
     <g id="text_8">
      <!-- 0 -->
      <g transform="translate(44.2375 307.825889)scale(0.1 -0.1)">
       <use xlink:href="#DejaVuSans-30"/>
      </g>
     </g>
    </g>
    <g id="ytick_6">
     <g id="line2d_19">
      <g>
       <use xlink:href="#m965006980a" x="57.6" y="265.301427" style="stroke: #000000; stroke-width: 0.8"/>
      </g>
     </g>
     <g id="text_9">
      <!-- 10 -->
      <g transform="translate(37.875 269.100646)scale(0.1 -0.1)">
       <use xlink:href="#DejaVuSans-31"/>
       <use xlink:href="#DejaVuSans-30" x="63.623047"/>
      </g>
     </g>
    </g>
   </g>
   <g id="line2d_20">
    <path d="M 57.6 303.012415 
L 59.831966 303.977449 
L 64.295983 304.013876 
L 70.991966 302.755836 
L 75.455983 301.233362 
L 77.688034 300.61758 
L 79.92 300.288622 
L 82.151966 300.651372 
L 84.384017 301.720337 
L 86.615983 303.092151 
L 88.848034 303.661371 
L 91.08 302.772307 
L 93.311966 302.298826 
L 95.544017 302.130901 
L 100.008034 302.235475 
L 120.095983 303.159696 
L 135.72 303.460793 
L 140.184017 303.738954 
L 142.415983 303.993283 
L 144.648034 303.665182 
L 146.88 303.044021 
L 149.111966 302.057447 
L 151.344017 300.482624 
L 153.575983 297.971865 
L 155.808034 294.007584 
L 158.04 287.888575 
L 160.271966 278.844282 
L 162.504017 266.479825 
L 164.735983 251.78063 
L 166.968034 238.430372 
L 169.2 232.873412 
L 171.431966 241.221896 
L 173.664017 264.186734 
L 175.895983 294.11337 
L 178.128034 288.426364 
L 180.36 274.067562 
L 182.591966 270.392185 
L 184.824017 272.767233 
L 189.288034 281.115478 
L 191.52 284.482091 
L 193.751966 287.0404 
L 195.984017 289.041877 
L 198.215983 290.713829 
L 204.911966 295.332092 
L 207.144017 297.147609 
L 209.375983 299.278465 
L 211.608034 301.82435 
L 213.84 303.197542 
L 216.071966 299.680669 
L 220.535983 291.948876 
L 222.768034 288.682595 
L 225 286.786256 
L 227.231966 286.956555 
L 229.464017 289.460783 
L 231.695983 293.904181 
L 233.928034 299.331983 
L 236.16 303.410072 
L 238.391966 299.024307 
L 240.624017 295.889377 
L 242.855983 293.933826 
L 245.088034 292.895251 
L 247.32 292.484066 
L 249.551966 292.465518 
L 251.784017 292.683436 
L 256.248034 293.516294 
L 260.711966 294.736129 
L 262.944017 295.522856 
L 265.175983 296.479043 
L 267.408034 297.665121 
L 269.64 299.158118 
L 271.871966 301.044863 
L 274.104017 303.403327 
L 276.335983 301.791746 
L 283.031966 292.175792 
L 285.264017 290.380503 
L 287.495983 290.419731 
L 289.728034 292.520735 
L 291.96 296.246446 
L 294.191966 300.659498 
L 296.424017 303.266156 
L 298.655983 300.032852 
L 300.888034 297.839905 
L 303.12 296.529371 
L 305.351966 295.848256 
L 307.584017 295.563357 
L 309.815983 295.501662 
L 314.28 295.668399 
L 323.208034 296.291663 
L 327.671966 296.721822 
L 329.904017 297.03468 
L 332.135983 297.478019 
L 334.368034 298.130247 
L 336.6 299.093693 
L 338.831966 300.47956 
L 341.064017 302.362568 
L 343.295983 303.351877 
L 345.528034 300.813319 
L 347.76 298.575887 
L 349.991966 297.238189 
L 352.224017 297.1796 
L 354.455983 298.302766 
L 361.151966 303.62577 
L 363.384017 303.21682 
L 365.615983 302.358844 
L 367.848034 301.764361 
L 372.311966 300.983234 
L 379.008034 299.932338 
L 383.471966 298.903887 
L 385.704017 298.179469 
L 387.935983 297.242113 
L 390.168034 296.018706 
L 392.4 294.422731 
L 394.631966 292.364324 
L 396.864017 289.77829 
L 399.095983 286.682694 
L 401.328034 283.279901 
L 403.56 280.093566 
L 405.791966 278.068778 
L 408.024017 278.481463 
L 410.255983 282.451642 
L 412.488034 290.111581 
L 412.488034 290.111581 
" clip-path="url(#p39af729a30)" style="fill: none; stroke-dasharray: 9.6,2.4,1.5,2.4; stroke-dashoffset: 0; stroke: #0000cc; stroke-width: 1.5"/>
   </g>
   <g id="line2d_21">
    <path d="M 57.6 303.980908 
L 66.528034 303.89302 
L 79.92 303.886967 
L 86.615983 304.011336 
L 108.935983 304.020341 
L 149.111966 303.972387 
L 153.575983 303.982333 
L 158.04 303.730058 
L 160.271966 303.480673 
L 162.504017 303.08982 
L 164.735983 302.504129 
L 166.968034 301.69156 
L 171.431966 299.932588 
L 173.664017 299.879087 
L 175.895983 300.892417 
L 178.128034 302.773655 
L 180.36 303.411151 
L 182.591966 302.353907 
L 184.824017 302.079813 
L 187.055983 302.232815 
L 193.751966 303.131862 
L 198.215983 303.344973 
L 207.144017 303.442878 
L 218.304017 303.602522 
L 227.231966 303.886673 
L 231.695983 303.624397 
L 236.16 303.626888 
L 242.855983 303.963282 
L 247.32 303.92241 
L 258.48 303.697003 
L 276.335983 303.519613 
L 283.031966 303.631907 
L 287.495983 303.971185 
L 298.655983 303.669677 
L 309.815983 304.021608 
L 329.904017 303.402935 
L 341.064017 303.016016 
L 345.528034 303.255905 
L 349.991966 303.875944 
L 352.224017 303.844593 
L 356.688034 303.440773 
L 361.151966 303.425466 
L 379.008034 303.97752 
L 387.935983 303.528025 
L 392.4 303.149505 
L 403.56 301.892538 
L 405.791966 301.936679 
L 408.024017 302.248564 
L 410.255983 302.836728 
L 412.488034 303.590977 
L 412.488034 303.590977 
" clip-path="url(#p39af729a30)" style="fill: none; stroke: #ff0000; stroke-width: 1.5; stroke-linecap: square"/>
   </g>
   <g id="patch_13">
    <path d="M 57.6 307.584 
L 57.6 229.315765 
" style="fill: none; stroke: #000000; stroke-width: 0.8; stroke-linejoin: miter; stroke-linecap: square"/>
   </g>
   <g id="patch_14">
    <path d="M 414.72 307.584 
L 414.72 229.315765 
" style="fill: none; stroke: #000000; stroke-width: 0.8; stroke-linejoin: miter; stroke-linecap: square"/>
   </g>
   <g id="patch_15">
    <path d="M 57.6 307.584 
L 414.72 307.584 
" style="fill: none; stroke: #000000; stroke-width: 0.8; stroke-linejoin: miter; stroke-linecap: square"/>
   </g>
   <g id="patch_16">
    <path d="M 57.6 229.315765 
L 414.72 229.315765 
" style="fill: none; stroke: #000000; stroke-width: 0.8; stroke-linejoin: miter; stroke-linecap: square"/>
   </g>
  </g>
 </g>
 <defs>
  <clipPath id="pca5722cf5d">
   <rect x="57.6" y="41.472" width="357.12" height="78.268235"/>
  </clipPath>
  <clipPath id="p7e33e50771">
   <rect x="57.6" y="135.393882" width="357.12" height="78.268235"/>
  </clipPath>
  <clipPath id="p39af729a30">
   <rect x="57.6" y="229.315765" width="357.12" height="78.268235"/>
  </clipPath>
 </defs>
</svg>
