<?xml version="1.0" encoding="utf-8" standalone="no"?>
<!DOCTYPE svg PUBLIC "-//W3C//DTD SVG 1.1//EN"
  "http://www.w3.org/Graphics/SVG/1.1/DTD/svg11.dtd">
<svg xmlns:xlink="http://www.w3.org/1999/xlink" width="460.8pt" height="345.6pt" viewBox="0 0 460.8 345.6" xmlns="http://www.w3.org/2000/svg" version="1.1">
 <metadata>
  <rdf:RDF xmlns:dc="http://purl.org/dc/elements/1.1/" xmlns:cc="http://creativecommons.org/ns#" xmlns:rdf="http://www.w3.org/1999/02/22-rdf-syntax-ns#">
   <cc:Work>
    <dc:type rdf:resource="http://purl.org/dc/dcmitype/StillImage"/>
    <dc:date>2023-10-31T11:57:29.057294</dc:date>
    <dc:format>image/svg+xml</dc:format>
    <dc:creator>
     <cc:Agent>
      <dc:title>Matplotlib v3.5.2, https://matplotlib.org/</dc:title>
     </cc:Agent>
    </dc:creator>
   </cc:Work>
  </rdf:RDF>
 </metadata>
 <defs>
  <style type="text/css">*{stroke-linejoin: round; stroke-linecap: butt}</style>
 </defs>
 <g id="figure_1">
  <g id="patch_1">
   <path d="M 0 345.6 
L 460.8 345.6 
L 460.8 0 
L 0 0 
z
" style="fill: #ffffff"/>
  </g>
  <g id="axes_1">
   <g id="patch_2">
    <path d="M 57.6 119.740235 
L 414.72 119.740235 
L 414.72 41.472 
L 57.6 41.472 
z
" style="fill: #ffffff"/>
   </g>
   <g id="matplotlib.axis_1">
    <g id="xtick_1">
     <g id="line2d_1">
      <defs>
       <path id="m196da0eee5" d="M 0 0 
L 0 3.5 
" style="stroke: #000000; stroke-width: 0.8"/>
      </defs>
      <g>
       <use xlink:href="#m196da0eee5" x="71.790906" y="119.740235" style="stroke: #000000; stroke-width: 0.8"/>
      </g>
     </g>
     <g id="text_1">
      <!-- 10 -->
      <g transform="translate(65.428406 134.338673)scale(0.1 -0.1)">
       <defs>
        <path id="DejaVuSans-31" d="M 794 531 
L 1825 531 
L 1825 4091 
L 703 3866 
L 703 4441 
L 1819 4666 
L 2450 4666 
L 2450 531 
L 3481 531 
L 3481 0 
L 794 0 
L 794 531 
z
" transform="scale(0.015625)"/>
        <path id="DejaVuSans-30" d="M 2034 4250 
Q 1547 4250 1301 3770 
Q 1056 3291 1056 2328 
Q 1056 1369 1301 889 
Q 1547 409 2034 409 
Q 2525 409 2770 889 
Q 3016 1369 3016 2328 
Q 3016 3291 2770 3770 
Q 2525 4250 2034 4250 
z
M 2034 4750 
Q 2819 4750 3233 4129 
Q 3647 3509 3647 2328 
Q 3647 1150 3233 529 
Q 2819 -91 2034 -91 
Q 1250 -91 836 529 
Q 422 1150 422 2328 
Q 422 3509 836 4129 
Q 1250 4750 2034 4750 
z
" transform="scale(0.015625)"/>
       </defs>
       <use xlink:href="#DejaVuSans-31"/>
       <use xlink:href="#DejaVuSans-30" x="63.623047"/>
      </g>
     </g>
    </g>
    <g id="xtick_2">
     <g id="line2d_2">
      <g>
       <use xlink:href="#m196da0eee5" x="235.139089" y="119.740235" style="stroke: #000000; stroke-width: 0.8"/>
      </g>
     </g>
     <g id="text_2">
      <!-- 12 -->
      <g transform="translate(228.776589 134.338673)scale(0.1 -0.1)">
       <defs>
        <path id="DejaVuSans-32" d="M 1228 531 
L 3431 531 
L 3431 0 
L 469 0 
L 469 531 
Q 828 903 1448 1529 
Q 2069 2156 2228 2338 
Q 2531 2678 2651 2914 
Q 2772 3150 2772 3378 
Q 2772 3750 2511 3984 
Q 2250 4219 1831 4219 
Q 1534 4219 1204 4116 
Q 875 4013 500 3803 
L 500 4441 
Q 881 4594 1212 4672 
Q 1544 4750 1819 4750 
Q 2544 4750 2975 4387 
Q 3406 4025 3406 3419 
Q 3406 3131 3298 2873 
Q 3191 2616 2906 2266 
Q 2828 2175 2409 1742 
Q 1991 1309 1228 531 
z
" transform="scale(0.015625)"/>
       </defs>
       <use xlink:href="#DejaVuSans-31"/>
       <use xlink:href="#DejaVuSans-32" x="63.623047"/>
      </g>
     </g>
    </g>
    <g id="xtick_3">
     <g id="line2d_3">
      <g>
       <use xlink:href="#m196da0eee5" x="398.487273" y="119.740235" style="stroke: #000000; stroke-width: 0.8"/>
      </g>
     </g>
     <g id="text_3">
      <!-- 14 -->
      <g transform="translate(392.124773 134.338673)scale(0.1 -0.1)">
       <defs>
        <path id="DejaVuSans-34" d="M 2419 4116 
L 825 1625 
L 2419 1625 
L 2419 4116 
z
M 2253 4666 
L 3047 4666 
L 3047 1625 
L 3713 1625 
L 3713 1100 
L 3047 1100 
L 3047 0 
L 2419 0 
L 2419 1100 
L 313 1100 
L 313 1709 
L 2253 4666 
z
" transform="scale(0.015625)"/>
       </defs>
       <use xlink:href="#DejaVuSans-31"/>
       <use xlink:href="#DejaVuSans-34" x="63.623047"/>
      </g>
     </g>
    </g>
   </g>
   <g id="matplotlib.axis_2">
    <g id="ytick_1">
     <g id="line2d_4">
      <defs>
       <path id="m2eeafe2b9e" d="M 0 0 
L -3.5 0 
" style="stroke: #000000; stroke-width: 0.8"/>
      </defs>
      <g>
       <use xlink:href="#m2eeafe2b9e" x="57.6" y="116.187123" style="stroke: #000000; stroke-width: 0.8"/>
      </g>
     </g>
     <g id="text_4">
      <!-- 0 -->
      <g transform="translate(44.2375 119.986341)scale(0.1 -0.1)">
       <use xlink:href="#DejaVuSans-30"/>
      </g>
     </g>
    </g>
    <g id="ytick_2">
     <g id="line2d_5">
      <g>
       <use xlink:href="#m2eeafe2b9e" x="57.6" y="67.973648" style="stroke: #000000; stroke-width: 0.8"/>
      </g>
     </g>
     <g id="text_5">
      <!-- 5 -->
      <g transform="translate(44.2375 71.772866)scale(0.1 -0.1)">
       <defs>
        <path id="DejaVuSans-35" d="M 691 4666 
L 3169 4666 
L 3169 4134 
L 1269 4134 
L 1269 2991 
Q 1406 3038 1543 3061 
Q 1681 3084 1819 3084 
Q 2600 3084 3056 2656 
Q 3513 2228 3513 1497 
Q 3513 744 3044 326 
Q 2575 -91 1722 -91 
Q 1428 -91 1123 -41 
Q 819 9 494 109 
L 494 744 
Q 775 591 1075 516 
Q 1375 441 1709 441 
Q 2250 441 2565 725 
Q 2881 1009 2881 1497 
Q 2881 1984 2565 2268 
Q 2250 2553 1709 2553 
Q 1456 2553 1204 2497 
Q 953 2441 691 2322 
L 691 4666 
z
" transform="scale(0.015625)"/>
       </defs>
       <use xlink:href="#DejaVuSans-35"/>
      </g>
     </g>
    </g>
   </g>
   <g id="line2d_6">
    <path d="M 73.832727 45.029647 
L 75.874626 90.677912 
L 77.916447 107.422659 
L 79.958346 91.434124 
L 82.000168 115.169866 
L 84.041989 105.914488 
L 86.083888 94.223855 
L 88.125709 102.62918 
L 90.167608 107.284391 
L 92.209429 109.499088 
L 94.25125 115.133674 
L 96.293149 111.611828 
L 98.33497 100.727738 
L 100.376869 111.436493 
L 102.418691 105.038022 
L 104.460512 100.976652 
L 106.502411 103.745152 
L 108.544232 112.058922 
L 110.586131 114.876836 
L 112.627952 113.699369 
L 114.669773 114.378767 
L 116.711672 115.506016 
L 118.753493 113.824462 
L 120.795392 112.860004 
L 122.837213 112.266111 
L 124.879035 112.206222 
L 131.004654 112.355457 
L 135.088296 112.147839 
L 139.172016 111.616884 
L 143.255736 110.844922 
L 149.381278 109.590235 
L 151.423177 109.346957 
L 153.464998 109.400947 
L 155.506819 110.051795 
L 157.548718 111.771866 
L 159.590539 115.317858 
L 161.632438 110.764756 
L 163.674259 101.206965 
L 165.71608 89.99026 
L 167.757979 84.056671 
L 171.8417 106.800231 
L 173.883521 87.874637 
L 175.925342 99.646515 
L 177.967241 90.152727 
L 180.009062 50.702616 
L 182.050961 59.0395 
L 184.092782 111.433336 
L 186.134603 85.769073 
L 188.176502 76.283849 
L 190.218323 83.109999 
L 192.260222 93.793084 
L 194.302044 105.625904 
L 196.343865 113.210769 
L 198.385764 116.182588 
L 200.427585 114.552516 
L 202.469484 114.54954 
L 206.553126 116.118014 
L 210.636846 114.069842 
L 212.678745 113.296431 
L 214.720567 112.893753 
L 216.762388 113.054675 
L 218.804287 113.810971 
L 220.846108 114.834928 
L 222.888007 115.35239 
L 224.929828 114.536629 
L 226.971649 112.2065 
L 229.013548 109.15682 
L 231.055369 106.984442 
L 233.097268 107.294655 
L 235.139089 110.357479 
L 237.180911 114.345774 
L 239.22281 115.521819 
L 241.264631 115.270855 
L 243.30653 116.121509 
L 245.348351 115.079374 
L 247.390172 114.423034 
L 249.432071 114.189941 
L 251.473892 114.275549 
L 255.557612 114.68104 
L 257.599433 114.783717 
L 259.641333 114.708084 
L 261.683154 114.411377 
L 263.725053 113.885109 
L 267.808695 112.418325 
L 269.850594 111.897055 
L 271.892415 111.939379 
L 273.934314 112.769428 
L 275.976135 114.150043 
L 278.017956 115.284447 
L 280.059855 115.107496 
L 282.101677 113.221671 
L 284.143576 110.217494 
L 286.185397 107.581148 
L 288.227218 107.276291 
L 290.269117 110.103901 
L 292.310938 114.055262 
L 294.352837 116.117205 
L 296.394658 115.641737 
L 298.436479 114.290197 
L 300.478378 113.431499 
L 302.520199 113.211639 
L 304.562098 113.467921 
L 310.68764 115.016376 
L 312.729461 115.313808 
L 314.77136 115.372747 
L 316.813181 115.132607 
L 318.855002 114.5436 
L 320.896901 113.565515 
L 322.938722 112.23061 
L 324.980621 110.722464 
L 327.022443 109.431254 
L 329.064264 109.004957 
L 331.106163 110.050574 
L 333.147984 112.643518 
L 335.189883 115.811958 
L 337.231704 114.515307 
L 339.273525 114.986802 
L 341.315424 113.923449 
L 343.357245 108.777853 
L 345.399144 105.971783 
L 347.440965 108.054908 
L 349.482787 111.956495 
L 351.524686 113.356575 
L 353.566507 112.174337 
L 355.608406 111.15388 
L 357.650227 111.292705 
L 359.692048 112.012705 
L 365.817667 115.145285 
L 367.859488 115.883602 
L 369.901309 115.952727 
L 371.943209 115.671528 
L 373.98503 115.712813 
L 376.026929 116.170714 
L 378.06875 115.165107 
L 380.110571 113.389196 
L 382.15247 110.747687 
L 386.23619 103.674205 
L 388.278011 101.258895 
L 390.319832 102.373391 
L 392.361731 108.915807 
L 394.403553 112.345733 
L 396.445452 101.783228 
L 398.487273 98.251899 
L 398.487273 98.251899 
" clip-path="url(#p38f7ec7c6e)" style="fill: none; stroke: #385989; stroke-width: 1.5; stroke-linecap: square"/>
   </g>
   <g id="line2d_7">
    <path d="M 73.832727 114.42345 
L 75.874626 115.305851 
L 84.041989 114.227667 
L 86.083888 114.062707 
L 88.125709 114.221994 
L 92.209429 115.624942 
L 94.25125 115.082968 
L 98.33497 111.227661 
L 100.376869 109.652012 
L 102.418691 108.844557 
L 104.460512 108.763463 
L 106.502411 109.362065 
L 110.586131 111.321183 
L 112.627952 112.504925 
L 114.669773 113.884325 
L 116.711672 114.196044 
L 120.795392 115.217983 
L 124.879035 115.745042 
L 128.962755 116.026249 
L 135.088296 116.181256 
L 151.423177 115.776363 
L 153.464998 114.46349 
L 155.506819 114.512872 
L 157.548718 115.250596 
L 161.632438 114.668793 
L 167.757979 113.642421 
L 169.799801 113.587121 
L 171.8417 113.778761 
L 173.883521 114.346017 
L 175.925342 115.230392 
L 177.967241 114.429306 
L 180.009062 114.561444 
L 182.050961 114.001347 
L 184.092782 108.24725 
L 186.134603 105.50262 
L 188.176502 103.804526 
L 190.218323 104.666427 
L 192.260222 107.779937 
L 194.302044 111.233383 
L 196.343865 111.212855 
L 198.385764 113.440639 
L 200.427585 114.400853 
L 202.469484 115.05621 
L 204.511305 115.445391 
L 206.553126 115.662959 
L 210.636846 115.75118 
L 218.804287 115.644223 
L 220.846108 115.789912 
L 222.888007 116.098761 
L 224.929828 115.860465 
L 229.013548 114.504638 
L 231.055369 113.733799 
L 233.097268 113.127037 
L 235.139089 111.643078 
L 237.180911 110.464278 
L 239.22281 111.531122 
L 241.264631 111.644586 
L 243.30653 111.918041 
L 247.390172 112.953828 
L 251.473892 114.083377 
L 255.557612 115.023236 
L 261.683154 116.024575 
L 263.725053 116.101123 
L 267.808695 115.671897 
L 271.892415 115.47607 
L 273.934314 115.452249 
L 275.976135 114.91584 
L 278.017956 114.225981 
L 280.059855 115.676296 
L 282.101677 114.348618 
L 284.143576 113.878619 
L 286.185397 112.649059 
L 288.227218 112.247093 
L 290.269117 111.534908 
L 292.310938 111.323055 
L 294.352837 111.363004 
L 296.394658 111.683861 
L 298.436479 112.159719 
L 306.60392 114.482501 
L 310.68764 115.345021 
L 314.77136 115.971679 
L 316.813181 115.653568 
L 318.855002 115.868029 
L 322.938722 115.38735 
L 324.980621 115.192005 
L 327.022443 115.11216 
L 329.064264 115.182683 
L 331.106163 115.489189 
L 333.147984 116.101694 
L 335.189883 115.300481 
L 339.273525 113.012454 
L 341.315424 112.079508 
L 343.357245 111.441141 
L 345.399144 111.078958 
L 347.440965 111.052739 
L 349.482787 111.250378 
L 351.524686 111.691574 
L 363.775768 115.101711 
L 367.859488 115.815353 
L 369.901309 116.105912 
L 371.943209 115.986361 
L 382.15247 114.618685 
L 384.194291 114.566452 
L 388.278011 115.169764 
L 390.319832 115.879453 
L 396.445452 111.033232 
L 398.487273 110.259079 
L 398.487273 110.259079 
" clip-path="url(#p38f7ec7c6e)" style="fill: none; stroke: #d22027; stroke-width: 1.5; stroke-linecap: square"/>
   </g>
   <g id="patch_3">
    <path d="M 57.6 119.740235 
L 57.6 41.472 
" style="fill: none; stroke: #000000; stroke-width: 0.8; stroke-linejoin: miter; stroke-linecap: square"/>
   </g>
   <g id="patch_4">
    <path d="M 414.72 119.740235 
L 414.72 41.472 
" style="fill: none; stroke: #000000; stroke-width: 0.8; stroke-linejoin: miter; stroke-linecap: square"/>
   </g>
   <g id="patch_5">
    <path d="M 57.6 119.740235 
L 414.72 119.740235 
" style="fill: none; stroke: #000000; stroke-width: 0.8; stroke-linejoin: miter; stroke-linecap: square"/>
   </g>
   <g id="patch_6">
    <path d="M 57.6 41.472 
L 414.72 41.472 
" style="fill: none; stroke: #000000; stroke-width: 0.8; stroke-linejoin: miter; stroke-linecap: square"/>
   </g>
  </g>
  <g id="axes_2">
   <g id="patch_7">
    <path d="M 57.6 213.662118 
L 414.72 213.662118 
L 414.72 135.393882 
L 57.6 135.393882 
z
" style="fill: #ffffff"/>
   </g>
   <g id="matplotlib.axis_3">
    <g id="xtick_4">
     <g id="line2d_8">
      <g>
       <use xlink:href="#m196da0eee5" x="71.790906" y="213.662118" style="stroke: #000000; stroke-width: 0.8"/>
      </g>
     </g>
     <g id="text_6">
      <!-- 10 -->
      <g transform="translate(65.428406 228.260555)scale(0.1 -0.1)">
       <use xlink:href="#DejaVuSans-31"/>
       <use xlink:href="#DejaVuSans-30" x="63.623047"/>
      </g>
     </g>
    </g>
    <g id="xtick_5">
     <g id="line2d_9">
      <g>
       <use xlink:href="#m196da0eee5" x="235.139089" y="213.662118" style="stroke: #000000; stroke-width: 0.8"/>
      </g>
     </g>
     <g id="text_7">
      <!-- 12 -->
      <g transform="translate(228.776589 228.260555)scale(0.1 -0.1)">
       <use xlink:href="#DejaVuSans-31"/>
       <use xlink:href="#DejaVuSans-32" x="63.623047"/>
      </g>
     </g>
    </g>
    <g id="xtick_6">
     <g id="line2d_10">
      <g>
       <use xlink:href="#m196da0eee5" x="398.487273" y="213.662118" style="stroke: #000000; stroke-width: 0.8"/>
      </g>
     </g>
     <g id="text_8">
      <!-- 14 -->
      <g transform="translate(392.124773 228.260555)scale(0.1 -0.1)">
       <use xlink:href="#DejaVuSans-31"/>
       <use xlink:href="#DejaVuSans-34" x="63.623047"/>
      </g>
     </g>
    </g>
   </g>
   <g id="matplotlib.axis_4">
    <g id="ytick_3">
     <g id="line2d_11">
      <g>
       <use xlink:href="#m2eeafe2b9e" x="57.6" y="210.106692" style="stroke: #000000; stroke-width: 0.8"/>
      </g>
     </g>
     <g id="text_9">
      <!-- 0 -->
      <g transform="translate(44.2375 213.905911)scale(0.1 -0.1)">
       <use xlink:href="#DejaVuSans-30"/>
      </g>
     </g>
    </g>
    <g id="ytick_4">
     <g id="line2d_12">
      <g>
       <use xlink:href="#m2eeafe2b9e" x="57.6" y="172.39645" style="stroke: #000000; stroke-width: 0.8"/>
      </g>
     </g>
     <g id="text_10">
      <!-- 10 -->
      <g transform="translate(37.875 176.195669)scale(0.1 -0.1)">
       <use xlink:href="#DejaVuSans-31"/>
       <use xlink:href="#DejaVuSans-30" x="63.623047"/>
      </g>
     </g>
    </g>
   </g>
   <g id="line2d_13">
    <path d="M 73.832727 189.697075 
L 75.874626 203.07351 
L 77.916447 207.451656 
L 79.958346 206.641555 
L 82.000168 208.75357 
L 84.041989 209.443483 
L 86.083888 208.225052 
L 88.125709 210.099972 
L 90.167608 210.007103 
L 92.209429 209.053852 
L 94.25125 207.085784 
L 96.293149 206.411925 
L 98.33497 203.176987 
L 100.376869 200.879019 
L 102.418691 205.628651 
L 104.460512 209.938634 
L 106.502411 209.146407 
L 108.544232 208.911087 
L 110.586131 207.719105 
L 112.627952 206.889415 
L 114.669773 207.199617 
L 122.837213 209.659272 
L 124.879035 209.991771 
L 126.920934 209.968569 
L 131.004654 209.715896 
L 137.130195 209.589984 
L 151.423177 209.410195 
L 155.506819 209.175977 
L 157.548718 208.873623 
L 159.590539 208.195632 
L 161.632438 206.679054 
L 163.674259 203.499006 
L 165.71608 197.809419 
L 167.757979 191.046807 
L 169.799801 192.015731 
L 171.8417 203.188539 
L 173.883521 156.830048 
L 175.925342 138.951529 
L 177.967241 187.67095 
L 182.050961 156.277313 
L 184.092782 172.38379 
L 186.134603 195.596358 
L 188.176502 203.981366 
L 190.218323 195.186512 
L 192.260222 197.63054 
L 194.302044 202.002008 
L 196.343865 204.503795 
L 198.385764 206.562359 
L 200.427585 207.877022 
L 202.469484 208.236578 
L 204.511305 208.308835 
L 206.553126 208.149049 
L 210.636846 207.266261 
L 212.678745 206.797754 
L 214.720567 206.500075 
L 216.762388 206.674521 
L 218.804287 207.732344 
L 220.846108 209.985196 
L 222.888007 206.91255 
L 224.929828 203.577067 
L 226.971649 202.127068 
L 229.013548 204.026977 
L 231.055369 208.597748 
L 233.097268 207.029021 
L 235.139089 204.599299 
L 237.180911 204.37697 
L 239.22281 205.197615 
L 241.264631 206.182111 
L 243.30653 206.997817 
L 245.348351 207.521442 
L 247.390172 207.761022 
L 251.473892 207.87004 
L 257.599433 207.786059 
L 261.683154 207.487192 
L 265.766874 206.889152 
L 267.808695 206.557766 
L 269.850594 206.394481 
L 271.892415 206.69085 
L 273.934314 207.859205 
L 275.976135 209.954558 
L 280.059855 203.079631 
L 282.101677 201.966539 
L 284.143576 204.59463 
L 286.185397 209.663489 
L 288.227218 206.456614 
L 290.269117 205.215084 
L 292.310938 205.825487 
L 294.352837 206.622214 
L 298.436479 207.578793 
L 300.478378 207.862718 
L 306.60392 208.111867 
L 312.729461 208.241163 
L 316.813181 208.151337 
L 322.938722 207.651927 
L 324.980621 207.494991 
L 327.022443 207.482059 
L 329.064264 207.767541 
L 331.106163 208.587006 
L 333.147984 210.003105 
L 335.189883 207.507776 
L 337.231704 204.826882 
L 339.273525 203.753738 
L 341.315424 205.873485 
L 343.357245 209.720619 
L 345.399144 208.206036 
L 347.440965 208.198407 
L 349.482787 208.49727 
L 353.566507 207.645589 
L 355.608406 207.751624 
L 359.692048 208.128585 
L 369.901309 208.87207 
L 376.026929 209.226213 
L 378.06875 209.501998 
L 380.110571 209.931728 
L 382.15247 209.708083 
L 384.194291 209.185819 
L 388.278011 209.418853 
L 390.319832 205.749951 
L 392.361731 201.061379 
L 394.403553 199.244425 
L 396.445452 204.72183 
L 398.487273 204.024082 
L 398.487273 204.024082 
" clip-path="url(#p6fd281ff7c)" style="fill: none; stroke: #385989; stroke-width: 1.5; stroke-linecap: square"/>
   </g>
   <g id="line2d_14">
    <path d="M 73.832727 209.408211 
L 75.874626 210.012098 
L 86.083888 209.881902 
L 90.167608 209.693977 
L 94.25125 209.896796 
L 96.293149 209.772171 
L 98.33497 210.101144 
L 100.376869 209.847713 
L 122.837213 210.096866 
L 151.423177 210.092056 
L 153.464998 209.219431 
L 155.506819 209.44589 
L 157.548718 210.092569 
L 161.632438 210.02268 
L 165.71608 209.681895 
L 167.757979 209.244304 
L 169.799801 208.620147 
L 171.8417 208.290748 
L 173.883521 208.756082 
L 175.925342 208.756918 
L 177.967241 205.099712 
L 180.009062 205.01448 
L 182.050961 209.043462 
L 184.092782 204.777768 
L 186.134603 206.64531 
L 188.176502 209.355045 
L 190.218323 210.030695 
L 192.260222 209.423405 
L 194.302044 205.792337 
L 196.343865 206.040277 
L 198.385764 209.878461 
L 204.511305 210.00671 
L 214.720567 209.935295 
L 224.929828 209.789758 
L 233.097268 210.035214 
L 235.139089 209.67583 
L 237.180911 210.02213 
L 241.264631 209.824946 
L 251.473892 210.006484 
L 265.766874 209.993909 
L 275.976135 209.889445 
L 278.017956 209.629177 
L 280.059855 209.539126 
L 282.101677 209.89943 
L 286.185397 210.086786 
L 290.269117 210.043826 
L 294.352837 209.880374 
L 302.520199 209.972899 
L 314.77136 210.015134 
L 318.855002 209.914758 
L 320.896901 210.025546 
L 327.022443 209.946032 
L 331.106163 209.691896 
L 335.189883 209.455995 
L 337.231704 209.593145 
L 339.273525 209.893269 
L 341.315424 210.02465 
L 343.357245 209.895789 
L 347.440965 210.046796 
L 351.524686 209.872738 
L 384.194291 210.084065 
L 388.278011 209.499004 
L 390.319832 208.965939 
L 392.361731 208.710723 
L 394.403553 209.244791 
L 396.445452 209.933438 
L 398.487273 209.322598 
L 398.487273 209.322598 
" clip-path="url(#p6fd281ff7c)" style="fill: none; stroke: #d22027; stroke-width: 1.5; stroke-linecap: square"/>
   </g>
   <g id="patch_8">
    <path d="M 57.6 213.662118 
L 57.6 135.393882 
" style="fill: none; stroke: #000000; stroke-width: 0.8; stroke-linejoin: miter; stroke-linecap: square"/>
   </g>
   <g id="patch_9">
    <path d="M 414.72 213.662118 
L 414.72 135.393882 
" style="fill: none; stroke: #000000; stroke-width: 0.8; stroke-linejoin: miter; stroke-linecap: square"/>
   </g>
   <g id="patch_10">
    <path d="M 57.6 213.662118 
L 414.72 213.662118 
" style="fill: none; stroke: #000000; stroke-width: 0.8; stroke-linejoin: miter; stroke-linecap: square"/>
   </g>
   <g id="patch_11">
    <path d="M 57.6 135.393882 
L 414.72 135.393882 
" style="fill: none; stroke: #000000; stroke-width: 0.8; stroke-linejoin: miter; stroke-linecap: square"/>
   </g>
  </g>
  <g id="axes_3">
   <g id="patch_12">
    <path d="M 57.6 307.584 
L 414.72 307.584 
L 414.72 229.315765 
L 57.6 229.315765 
z
" style="fill: #ffffff"/>
   </g>
   <g id="matplotlib.axis_5">
    <g id="xtick_7">
     <g id="line2d_15">
      <g>
       <use xlink:href="#m196da0eee5" x="71.790906" y="307.584" style="stroke: #000000; stroke-width: 0.8"/>
      </g>
     </g>
     <g id="text_11">
      <!-- 10 -->
      <g transform="translate(65.428406 322.182437)scale(0.1 -0.1)">
       <use xlink:href="#DejaVuSans-31"/>
       <use xlink:href="#DejaVuSans-30" x="63.623047"/>
      </g>
     </g>
    </g>
    <g id="xtick_8">
     <g id="line2d_16">
      <g>
       <use xlink:href="#m196da0eee5" x="235.139089" y="307.584" style="stroke: #000000; stroke-width: 0.8"/>
      </g>
     </g>
     <g id="text_12">
      <!-- 12 -->
      <g transform="translate(228.776589 322.182437)scale(0.1 -0.1)">
       <use xlink:href="#DejaVuSans-31"/>
       <use xlink:href="#DejaVuSans-32" x="63.623047"/>
      </g>
     </g>
    </g>
    <g id="xtick_9">
     <g id="line2d_17">
      <g>
       <use xlink:href="#m196da0eee5" x="398.487273" y="307.584" style="stroke: #000000; stroke-width: 0.8"/>
      </g>
     </g>
     <g id="text_13">
      <!-- 14 -->
      <g transform="translate(392.124773 322.182437)scale(0.1 -0.1)">
       <use xlink:href="#DejaVuSans-31"/>
       <use xlink:href="#DejaVuSans-34" x="63.623047"/>
      </g>
     </g>
    </g>
   </g>
   <g id="matplotlib.axis_6">
    <g id="ytick_5">
     <g id="line2d_18">
      <g>
       <use xlink:href="#m2eeafe2b9e" x="57.6" y="304.027453" style="stroke: #000000; stroke-width: 0.8"/>
      </g>
     </g>
     <g id="text_14">
      <!-- 0 -->
      <g transform="translate(44.2375 307.826672)scale(0.1 -0.1)">
       <use xlink:href="#DejaVuSans-30"/>
      </g>
     </g>
    </g>
    <g id="ytick_6">
     <g id="line2d_19">
      <g>
       <use xlink:href="#m2eeafe2b9e" x="57.6" y="273.949303" style="stroke: #000000; stroke-width: 0.8"/>
      </g>
     </g>
     <g id="text_15">
      <!-- 10 -->
      <g transform="translate(37.875 277.748522)scale(0.1 -0.1)">
       <use xlink:href="#DejaVuSans-31"/>
       <use xlink:href="#DejaVuSans-30" x="63.623047"/>
      </g>
     </g>
    </g>
    <g id="ytick_7">
     <g id="line2d_20">
      <g>
       <use xlink:href="#m2eeafe2b9e" x="57.6" y="243.871154" style="stroke: #000000; stroke-width: 0.8"/>
      </g>
     </g>
     <g id="text_16">
      <!-- 20 -->
      <g transform="translate(37.875 247.670372)scale(0.1 -0.1)">
       <use xlink:href="#DejaVuSans-32"/>
       <use xlink:href="#DejaVuSans-30" x="63.623047"/>
      </g>
     </g>
    </g>
   </g>
   <g id="line2d_21">
    <path d="M 73.832727 291.981802 
L 75.874626 297.152549 
L 77.916447 298.86684 
L 79.958346 303.471901 
L 82.000168 301.138274 
L 84.041989 301.832819 
L 86.083888 303.245617 
L 88.125709 303.542562 
L 90.167608 302.766811 
L 92.209429 302.814772 
L 94.25125 302.995606 
L 96.293149 301.714483 
L 98.33497 297.27105 
L 100.376869 296.617871 
L 102.418691 299.248718 
L 104.460512 302.852133 
L 106.502411 303.70698 
L 108.544232 303.197555 
L 110.586131 302.808474 
L 112.627952 303.612912 
L 114.669773 303.624011 
L 116.711672 303.311806 
L 118.753493 303.198027 
L 120.795392 303.378689 
L 122.837213 303.735207 
L 124.879035 303.951432 
L 128.962755 303.309763 
L 133.046475 302.940968 
L 137.130195 302.845665 
L 143.255736 303.015226 
L 149.381278 303.415881 
L 153.464998 303.960524 
L 155.506819 303.574724 
L 157.548718 302.729663 
L 159.590539 301.426112 
L 161.632438 299.69879 
L 163.674259 298.279621 
L 165.71608 299.686325 
L 167.757979 299.102662 
L 171.8417 256.947864 
L 173.883521 267.472343 
L 175.925342 285.952968 
L 177.967241 232.873412 
L 180.009062 234.952738 
L 182.050961 282.913046 
L 184.092782 284.515914 
L 186.134603 278.146661 
L 188.176502 285.825361 
L 190.218323 295.272887 
L 192.260222 303.413399 
L 194.302044 301.45469 
L 196.343865 300.981431 
L 198.385764 300.973291 
L 202.469484 301.803833 
L 204.511305 302.01856 
L 210.636846 302.187598 
L 212.678745 302.501374 
L 214.720567 303.250521 
L 216.762388 303.513669 
L 220.846108 300.237606 
L 222.888007 299.711344 
L 224.929828 300.992925 
L 226.971649 303.82583 
L 229.013548 301.334427 
L 231.055369 300.113558 
L 233.097268 301.067368 
L 235.139089 303.18672 
L 237.180911 302.980056 
L 239.22281 302.055923 
L 241.264631 302.082652 
L 245.348351 303.211973 
L 247.390172 303.593374 
L 251.473892 303.898217 
L 253.515791 304.002353 
L 255.557612 303.892545 
L 259.641333 303.319639 
L 263.725053 302.588135 
L 265.766874 302.363506 
L 267.808695 302.44452 
L 269.850594 303.031422 
L 271.892415 303.788822 
L 275.976135 300.351102 
L 278.017956 299.840036 
L 280.059855 301.347714 
L 282.101677 303.686818 
L 284.143576 301.095334 
L 286.185397 300.677935 
L 288.227218 302.314207 
L 290.269117 303.650527 
L 292.310938 302.37624 
L 294.352837 302.151811 
L 296.394658 302.634418 
L 298.436479 303.362355 
L 300.478378 303.877037 
L 304.562098 304.026353 
L 308.645741 303.909384 
L 312.729461 303.941168 
L 316.813181 303.298919 
L 322.938722 302.064702 
L 324.980621 301.964447 
L 327.022443 302.313763 
L 329.064264 303.306427 
L 331.106163 303.165136 
L 333.147984 301.498805 
L 335.189883 300.736115 
L 337.231704 301.585585 
L 339.273525 303.444254 
L 341.315424 303.313145 
L 345.399144 303.663607 
L 347.440965 303.099384 
L 349.482787 303.193125 
L 353.566507 303.913006 
L 355.608406 303.359123 
L 357.650227 303.244461 
L 363.775768 303.909536 
L 365.817667 303.655312 
L 367.859488 303.52183 
L 371.943209 303.6132 
L 373.98503 303.823064 
L 376.026929 303.908382 
L 378.06875 303.443913 
L 380.110571 302.76753 
L 382.15247 301.779314 
L 384.194291 300.380563 
L 386.23619 298.63861 
L 388.278011 297.168128 
L 390.319832 297.418178 
L 392.361731 301.130709 
L 394.403553 299.774704 
L 396.445452 292.909355 
L 398.487273 291.423138 
L 398.487273 291.423138 
" clip-path="url(#p2ea6464927)" style="fill: none; stroke: #385989; stroke-width: 1.5; stroke-linecap: square"/>
   </g>
   <g id="line2d_22">
    <path d="M 73.832727 303.320382 
L 75.874626 303.833519 
L 88.125709 303.812462 
L 90.167608 303.581149 
L 92.209429 303.680958 
L 94.25125 303.543973 
L 106.502411 303.559535 
L 110.586131 303.593991 
L 112.627952 303.462061 
L 118.753493 303.728927 
L 147.339456 303.911289 
L 151.423177 303.933238 
L 153.464998 303.177175 
L 155.506819 303.098961 
L 157.548718 303.993289 
L 161.632438 303.968256 
L 165.71608 303.838435 
L 169.799801 303.943224 
L 173.883521 301.708849 
L 175.925342 300.343149 
L 177.967241 302.357065 
L 182.050961 299.694009 
L 184.092782 302.189566 
L 186.134603 303.063374 
L 188.176502 301.638304 
L 190.218323 302.169469 
L 192.260222 303.257593 
L 194.302044 302.879976 
L 196.343865 302.691947 
L 198.385764 303.79544 
L 210.636846 303.781909 
L 220.846108 303.731175 
L 229.013548 303.461469 
L 231.055369 303.581726 
L 233.097268 303.576307 
L 235.139089 302.855353 
L 237.180911 303.007125 
L 239.22281 303.681904 
L 245.348351 303.623693 
L 273.934314 303.779615 
L 275.976135 302.317126 
L 278.017956 302.473029 
L 280.059855 303.516985 
L 286.185397 303.48245 
L 290.269117 303.699086 
L 314.77136 303.730155 
L 316.813181 303.223387 
L 318.855002 303.277899 
L 320.896901 303.792176 
L 331.106163 303.885447 
L 333.147984 303.775616 
L 337.231704 303.317171 
L 339.273525 303.196349 
L 343.357245 303.510137 
L 347.440965 303.770979 
L 355.608406 303.675522 
L 357.650227 303.433966 
L 359.692048 303.405737 
L 361.733947 303.702087 
L 380.110571 303.845264 
L 384.194291 303.98153 
L 388.278011 303.772622 
L 390.319832 303.891512 
L 394.403553 302.773795 
L 396.445452 302.523323 
L 398.487273 302.801113 
L 398.487273 302.801113 
" clip-path="url(#p2ea6464927)" style="fill: none; stroke: #d22027; stroke-width: 1.5; stroke-linecap: square"/>
   </g>
   <g id="patch_13">
    <path d="M 57.6 307.584 
L 57.6 229.315765 
" style="fill: none; stroke: #000000; stroke-width: 0.8; stroke-linejoin: miter; stroke-linecap: square"/>
   </g>
   <g id="patch_14">
    <path d="M 414.72 307.584 
L 414.72 229.315765 
" style="fill: none; stroke: #000000; stroke-width: 0.8; stroke-linejoin: miter; stroke-linecap: square"/>
   </g>
   <g id="patch_15">
    <path d="M 57.6 307.584 
L 414.72 307.584 
" style="fill: none; stroke: #000000; stroke-width: 0.8; stroke-linejoin: miter; stroke-linecap: square"/>
   </g>
   <g id="patch_16">
    <path d="M 57.6 229.315765 
L 414.72 229.315765 
" style="fill: none; stroke: #000000; stroke-width: 0.8; stroke-linejoin: miter; stroke-linecap: square"/>
   </g>
  </g>
 </g>
 <defs>
  <clipPath id="p38f7ec7c6e">
   <rect x="57.6" y="41.472" width="357.12" height="78.268235"/>
  </clipPath>
  <clipPath id="p6fd281ff7c">
   <rect x="57.6" y="135.393882" width="357.12" height="78.268235"/>
  </clipPath>
  <clipPath id="p2ea6464927">
   <rect x="57.6" y="229.315765" width="357.12" height="78.268235"/>
  </clipPath>
 </defs>
</svg>
