<?xml version="1.0" encoding="utf-8" standalone="no"?>
<!DOCTYPE svg PUBLIC "-//W3C//DTD SVG 1.1//EN"
  "http://www.w3.org/Graphics/SVG/1.1/DTD/svg11.dtd">
<svg xmlns:xlink="http://www.w3.org/1999/xlink" width="460.8pt" height="345.6pt" viewBox="0 0 460.8 345.6" xmlns="http://www.w3.org/2000/svg" version="1.1">
 <metadata>
  <rdf:RDF xmlns:dc="http://purl.org/dc/elements/1.1/" xmlns:cc="http://creativecommons.org/ns#" xmlns:rdf="http://www.w3.org/1999/02/22-rdf-syntax-ns#">
   <cc:Work>
    <dc:type rdf:resource="http://purl.org/dc/dcmitype/StillImage"/>
    <dc:date>2023-10-31T11:57:28.954061</dc:date>
    <dc:format>image/svg+xml</dc:format>
    <dc:creator>
     <cc:Agent>
      <dc:title>Matplotlib v3.5.2, https://matplotlib.org/</dc:title>
     </cc:Agent>
    </dc:creator>
   </cc:Work>
  </rdf:RDF>
 </metadata>
 <defs>
  <style type="text/css">*{stroke-linejoin: round; stroke-linecap: butt}</style>
 </defs>
 <g id="figure_1">
  <g id="patch_1">
   <path d="M 0 345.6 
L 460.8 345.6 
L 460.8 0 
L 0 0 
z
" style="fill: #ffffff"/>
  </g>
  <g id="axes_1">
   <g id="patch_2">
    <path d="M 57.6 119.740235 
L 414.72 119.740235 
L 414.72 41.472 
L 57.6 41.472 
z
" style="fill: #ffffff"/>
   </g>
   <g id="matplotlib.axis_1">
    <g id="xtick_1">
     <g id="line2d_1">
      <defs>
       <path id="ma725043327" d="M 0 0 
L 0 3.5 
" style="stroke: #000000; stroke-width: 0.8"/>
      </defs>
      <g>
       <use xlink:href="#ma725043327" x="73.289835" y="119.740235" style="stroke: #000000; stroke-width: 0.8"/>
      </g>
     </g>
     <g id="text_1">
      <!-- 10 -->
      <g transform="translate(66.927335 134.338673)scale(0.1 -0.1)">
       <defs>
        <path id="DejaVuSans-31" d="M 794 531 
L 1825 531 
L 1825 4091 
L 703 3866 
L 703 4441 
L 1819 4666 
L 2450 4666 
L 2450 531 
L 3481 531 
L 3481 0 
L 794 0 
L 794 531 
z
" transform="scale(0.015625)"/>
        <path id="DejaVuSans-30" d="M 2034 4250 
Q 1547 4250 1301 3770 
Q 1056 3291 1056 2328 
Q 1056 1369 1301 889 
Q 1547 409 2034 409 
Q 2525 409 2770 889 
Q 3016 1369 3016 2328 
Q 3016 3291 2770 3770 
Q 2525 4250 2034 4250 
z
M 2034 4750 
Q 2819 4750 3233 4129 
Q 3647 3509 3647 2328 
Q 3647 1150 3233 529 
Q 2819 -91 2034 -91 
Q 1250 -91 836 529 
Q 422 1150 422 2328 
Q 422 3509 836 4129 
Q 1250 4750 2034 4750 
z
" transform="scale(0.015625)"/>
       </defs>
       <use xlink:href="#DejaVuSans-31"/>
       <use xlink:href="#DejaVuSans-30" x="63.623047"/>
      </g>
     </g>
    </g>
    <g id="xtick_2">
     <g id="line2d_2">
      <g>
       <use xlink:href="#ma725043327" x="116.721879" y="119.740235" style="stroke: #000000; stroke-width: 0.8"/>
      </g>
     </g>
     <g id="text_2">
      <!-- 12 -->
      <g transform="translate(110.359379 134.338673)scale(0.1 -0.1)">
       <defs>
        <path id="DejaVuSans-32" d="M 1228 531 
L 3431 531 
L 3431 0 
L 469 0 
L 469 531 
Q 828 903 1448 1529 
Q 2069 2156 2228 2338 
Q 2531 2678 2651 2914 
Q 2772 3150 2772 3378 
Q 2772 3750 2511 3984 
Q 2250 4219 1831 4219 
Q 1534 4219 1204 4116 
Q 875 4013 500 3803 
L 500 4441 
Q 881 4594 1212 4672 
Q 1544 4750 1819 4750 
Q 2544 4750 2975 4387 
Q 3406 4025 3406 3419 
Q 3406 3131 3298 2873 
Q 3191 2616 2906 2266 
Q 2828 2175 2409 1742 
Q 1991 1309 1228 531 
z
" transform="scale(0.015625)"/>
       </defs>
       <use xlink:href="#DejaVuSans-31"/>
       <use xlink:href="#DejaVuSans-32" x="63.623047"/>
      </g>
     </g>
    </g>
    <g id="xtick_3">
     <g id="line2d_3">
      <g>
       <use xlink:href="#ma725043327" x="160.153923" y="119.740235" style="stroke: #000000; stroke-width: 0.8"/>
      </g>
     </g>
     <g id="text_3">
      <!-- 14 -->
      <g transform="translate(153.791423 134.338673)scale(0.1 -0.1)">
       <defs>
        <path id="DejaVuSans-34" d="M 2419 4116 
L 825 1625 
L 2419 1625 
L 2419 4116 
z
M 2253 4666 
L 3047 4666 
L 3047 1625 
L 3713 1625 
L 3713 1100 
L 3047 1100 
L 3047 0 
L 2419 0 
L 2419 1100 
L 313 1100 
L 313 1709 
L 2253 4666 
z
" transform="scale(0.015625)"/>
       </defs>
       <use xlink:href="#DejaVuSans-31"/>
       <use xlink:href="#DejaVuSans-34" x="63.623047"/>
      </g>
     </g>
    </g>
    <g id="xtick_4">
     <g id="line2d_4">
      <g>
       <use xlink:href="#ma725043327" x="203.585967" y="119.740235" style="stroke: #000000; stroke-width: 0.8"/>
      </g>
     </g>
     <g id="text_4">
      <!-- 16 -->
      <g transform="translate(197.223467 134.338673)scale(0.1 -0.1)">
       <defs>
        <path id="DejaVuSans-36" d="M 2113 2584 
Q 1688 2584 1439 2293 
Q 1191 2003 1191 1497 
Q 1191 994 1439 701 
Q 1688 409 2113 409 
Q 2538 409 2786 701 
Q 3034 994 3034 1497 
Q 3034 2003 2786 2293 
Q 2538 2584 2113 2584 
z
M 3366 4563 
L 3366 3988 
Q 3128 4100 2886 4159 
Q 2644 4219 2406 4219 
Q 1781 4219 1451 3797 
Q 1122 3375 1075 2522 
Q 1259 2794 1537 2939 
Q 1816 3084 2150 3084 
Q 2853 3084 3261 2657 
Q 3669 2231 3669 1497 
Q 3669 778 3244 343 
Q 2819 -91 2113 -91 
Q 1303 -91 875 529 
Q 447 1150 447 2328 
Q 447 3434 972 4092 
Q 1497 4750 2381 4750 
Q 2619 4750 2861 4703 
Q 3103 4656 3366 4563 
z
" transform="scale(0.015625)"/>
       </defs>
       <use xlink:href="#DejaVuSans-31"/>
       <use xlink:href="#DejaVuSans-36" x="63.623047"/>
      </g>
     </g>
    </g>
    <g id="xtick_5">
     <g id="line2d_5">
      <g>
       <use xlink:href="#ma725043327" x="247.018011" y="119.740235" style="stroke: #000000; stroke-width: 0.8"/>
      </g>
     </g>
     <g id="text_5">
      <!-- 18 -->
      <g transform="translate(240.655511 134.338673)scale(0.1 -0.1)">
       <defs>
        <path id="DejaVuSans-38" d="M 2034 2216 
Q 1584 2216 1326 1975 
Q 1069 1734 1069 1313 
Q 1069 891 1326 650 
Q 1584 409 2034 409 
Q 2484 409 2743 651 
Q 3003 894 3003 1313 
Q 3003 1734 2745 1975 
Q 2488 2216 2034 2216 
z
M 1403 2484 
Q 997 2584 770 2862 
Q 544 3141 544 3541 
Q 544 4100 942 4425 
Q 1341 4750 2034 4750 
Q 2731 4750 3128 4425 
Q 3525 4100 3525 3541 
Q 3525 3141 3298 2862 
Q 3072 2584 2669 2484 
Q 3125 2378 3379 2068 
Q 3634 1759 3634 1313 
Q 3634 634 3220 271 
Q 2806 -91 2034 -91 
Q 1263 -91 848 271 
Q 434 634 434 1313 
Q 434 1759 690 2068 
Q 947 2378 1403 2484 
z
M 1172 3481 
Q 1172 3119 1398 2916 
Q 1625 2713 2034 2713 
Q 2441 2713 2670 2916 
Q 2900 3119 2900 3481 
Q 2900 3844 2670 4047 
Q 2441 4250 2034 4250 
Q 1625 4250 1398 4047 
Q 1172 3844 1172 3481 
z
" transform="scale(0.015625)"/>
       </defs>
       <use xlink:href="#DejaVuSans-31"/>
       <use xlink:href="#DejaVuSans-38" x="63.623047"/>
      </g>
     </g>
    </g>
    <g id="xtick_6">
     <g id="line2d_6">
      <g>
       <use xlink:href="#ma725043327" x="290.450055" y="119.740235" style="stroke: #000000; stroke-width: 0.8"/>
      </g>
     </g>
     <g id="text_6">
      <!-- 20 -->
      <g transform="translate(284.087555 134.338673)scale(0.1 -0.1)">
       <use xlink:href="#DejaVuSans-32"/>
       <use xlink:href="#DejaVuSans-30" x="63.623047"/>
      </g>
     </g>
    </g>
    <g id="xtick_7">
     <g id="line2d_7">
      <g>
       <use xlink:href="#ma725043327" x="333.882099" y="119.740235" style="stroke: #000000; stroke-width: 0.8"/>
      </g>
     </g>
     <g id="text_7">
      <!-- 22 -->
      <g transform="translate(327.519599 134.338673)scale(0.1 -0.1)">
       <use xlink:href="#DejaVuSans-32"/>
       <use xlink:href="#DejaVuSans-32" x="63.623047"/>
      </g>
     </g>
    </g>
    <g id="xtick_8">
     <g id="line2d_8">
      <g>
       <use xlink:href="#ma725043327" x="377.314143" y="119.740235" style="stroke: #000000; stroke-width: 0.8"/>
      </g>
     </g>
     <g id="text_8">
      <!-- 24 -->
      <g transform="translate(370.951643 134.338673)scale(0.1 -0.1)">
       <use xlink:href="#DejaVuSans-32"/>
       <use xlink:href="#DejaVuSans-34" x="63.623047"/>
      </g>
     </g>
    </g>
    <g id="xtick_9">
     <g id="line2d_9">
      <g>
       <use xlink:href="#ma725043327" x="399.030165" y="119.740235" style="stroke: #000000; stroke-width: 0.8"/>
      </g>
     </g>
     <g id="text_9">
      <!-- 25 -->
      <g transform="translate(392.667665 134.338673)scale(0.1 -0.1)">
       <defs>
        <path id="DejaVuSans-35" d="M 691 4666 
L 3169 4666 
L 3169 4134 
L 1269 4134 
L 1269 2991 
Q 1406 3038 1543 3061 
Q 1681 3084 1819 3084 
Q 2600 3084 3056 2656 
Q 3513 2228 3513 1497 
Q 3513 744 3044 326 
Q 2575 -91 1722 -91 
Q 1428 -91 1123 -41 
Q 819 9 494 109 
L 494 744 
Q 775 591 1075 516 
Q 1375 441 1709 441 
Q 2250 441 2565 725 
Q 2881 1009 2881 1497 
Q 2881 1984 2565 2268 
Q 2250 2553 1709 2553 
Q 1456 2553 1204 2497 
Q 953 2441 691 2322 
L 691 4666 
z
" transform="scale(0.015625)"/>
       </defs>
       <use xlink:href="#DejaVuSans-32"/>
       <use xlink:href="#DejaVuSans-35" x="63.623047"/>
      </g>
     </g>
    </g>
   </g>
   <g id="matplotlib.axis_2">
    <g id="ytick_1">
     <g id="line2d_10">
      <defs>
       <path id="m13f689c90e" d="M 0 0 
L -3.5 0 
" style="stroke: #000000; stroke-width: 0.8"/>
      </defs>
      <g>
       <use xlink:href="#m13f689c90e" x="57.6" y="116.18276" style="stroke: #000000; stroke-width: 0.8"/>
      </g>
     </g>
     <g id="text_10">
      <!-- 0 -->
      <g transform="translate(44.2375 119.981978)scale(0.1 -0.1)">
       <use xlink:href="#DejaVuSans-30"/>
      </g>
     </g>
    </g>
    <g id="ytick_2">
     <g id="line2d_11">
      <g>
       <use xlink:href="#m13f689c90e" x="57.6" y="68.923502" style="stroke: #000000; stroke-width: 0.8"/>
      </g>
     </g>
     <g id="text_11">
      <!-- 5 -->
      <g transform="translate(44.2375 72.72272)scale(0.1 -0.1)">
       <use xlink:href="#DejaVuSans-35"/>
      </g>
     </g>
    </g>
   </g>
   <g id="line2d_12">
    <path d="M 73.832727 46.433597 
L 74.37564 91.178415 
L 74.918533 107.591758 
L 75.461445 91.91966 
L 76.004338 115.185636 
L 76.54723 106.113436 
L 77.090143 94.654178 
L 77.633035 102.893149 
L 78.175948 107.456226 
L 78.718841 109.627091 
L 79.261733 115.150161 
L 79.804646 111.698017 
L 80.347538 101.02934 
L 80.890451 111.526152 
L 81.433343 105.254317 
L 81.976236 101.273327 
L 82.519148 103.987034 
L 83.062041 112.136262 
L 83.604954 114.898405 
L 84.147846 113.744242 
L 84.690738 114.410194 
L 85.233651 115.515133 
L 85.776544 113.86686 
L 86.319456 112.921489 
L 86.862349 112.33935 
L 87.405241 112.280647 
L 89.033959 112.426928 
L 90.119744 112.223419 
L 91.205549 111.702973 
L 92.834247 110.52036 
L 93.920052 109.716434 
L 94.462965 109.477971 
L 95.005857 109.530892 
L 95.548749 110.16886 
L 96.091662 111.854887 
L 96.634555 115.330699 
L 97.177467 110.86771 
L 98.263252 90.504373 
L 98.806165 84.688217 
L 99.89197 106.981649 
L 100.434863 88.43062 
L 100.977755 99.969515 
L 101.520668 90.663624 
L 102.06356 51.99429 
L 102.606473 60.166174 
L 103.149365 111.523058 
L 103.692258 86.366728 
L 104.23517 77.069232 
L 104.778063 83.760282 
L 106.40676 113.265313 
L 106.949673 116.178315 
L 107.492566 114.580505 
L 108.035478 114.577588 
L 109.121263 116.115018 
L 110.207068 114.107384 
L 110.749981 113.349279 
L 111.292874 112.954571 
L 111.835766 113.112308 
L 112.378679 113.853636 
L 112.921571 114.857327 
L 113.464484 115.364548 
L 114.007376 114.564932 
L 114.550269 112.280919 
L 115.093181 109.291598 
L 115.636074 107.162214 
L 116.178987 107.466287 
L 116.721879 110.468493 
L 117.264771 114.377854 
L 117.807684 115.530624 
L 118.350577 115.284626 
L 118.893489 116.118444 
L 119.436382 115.096935 
L 119.979274 114.453585 
L 120.522187 114.225106 
L 121.065079 114.309019 
L 122.150885 114.706485 
L 122.693777 114.80713 
L 123.23669 114.732993 
L 123.779582 114.442159 
L 124.322495 113.926307 
L 125.951192 111.977599 
L 126.494085 112.019085 
L 127.036998 112.832706 
L 128.122782 115.29795 
L 128.665695 115.124501 
L 129.208588 113.275999 
L 130.294393 107.747111 
L 130.837285 107.448287 
L 131.380198 110.219934 
L 131.92309 114.093092 
L 132.466003 116.114226 
L 133.008896 115.648168 
L 133.551788 114.323377 
L 134.094701 113.481674 
L 134.637593 113.266165 
L 135.180506 113.517375 
L 136.809203 115.035184 
L 137.352096 115.32673 
L 137.895009 115.384502 
L 138.437901 115.149114 
L 138.980793 114.571765 
L 139.523706 113.613038 
L 141.152404 109.5606 
L 141.695296 109.14274 
L 142.238209 110.167662 
L 142.781101 112.709289 
L 143.324014 115.81502 
L 143.866907 114.544032 
L 144.409799 115.006195 
L 144.952712 113.963887 
L 145.495604 108.920131 
L 146.038517 106.169597 
L 146.581409 108.211494 
L 147.124302 112.035863 
L 147.667214 113.408233 
L 148.75302 111.249132 
L 149.295912 111.38521 
L 149.838804 112.09096 
L 151.467522 115.161541 
L 152.010415 115.885246 
L 152.553307 115.953003 
L 153.09622 115.677369 
L 153.639112 115.717837 
L 154.182025 116.166676 
L 154.724918 115.180972 
L 155.26781 113.440208 
L 155.810723 110.850979 
L 156.896528 103.917491 
L 157.43942 101.549984 
L 157.982313 102.642422 
L 158.525225 109.055354 
L 159.068118 112.417396 
L 159.611031 102.063939 
L 160.153923 98.602501 
L 161.239728 112.205363 
L 161.782621 97.473075 
L 162.325533 94.177392 
L 163.411318 107.514428 
L 163.954231 107.865745 
L 164.497123 107.096733 
L 165.040036 108.523554 
L 166.668734 114.215823 
L 167.211626 115.699699 
L 167.754539 115.587771 
L 168.840324 113.883761 
L 169.383236 113.301386 
L 169.926129 112.930353 
L 170.469042 112.894973 
L 171.011934 113.448249 
L 171.554826 114.847917 
L 172.097739 114.975604 
L 173.726437 104.628302 
L 174.269329 105.644452 
L 174.812242 110.921035 
L 175.355134 114.447798 
L 175.898047 110.34577 
L 176.44094 111.845422 
L 176.983832 115.034261 
L 177.526745 110.482504 
L 178.069637 112.586313 
L 178.61255 108.626528 
L 179.155442 94.887204 
L 179.698335 91.236713 
L 180.241247 100.733545 
L 180.78414 107.471978 
L 181.327053 67.822936 
L 181.869945 51.524743 
L 182.95575 105.095773 
L 183.498643 106.016149 
L 184.041555 97.419947 
L 185.12734 109.29975 
L 185.670253 110.805146 
L 186.213145 114.084395 
L 186.756058 115.895669 
L 187.298951 115.816603 
L 187.841843 116.051422 
L 188.384756 115.290053 
L 188.927648 112.469719 
L 189.470561 107.483012 
L 190.013453 99.929129 
L 191.099258 81.967518 
L 191.642151 80.290163 
L 192.185064 88.813634 
L 192.727956 104.286609 
L 193.270848 114.557178 
L 193.813761 109.194397 
L 194.356654 111.037711 
L 194.899566 113.93055 
L 195.442459 112.396136 
L 195.985351 107.225224 
L 196.528264 103.888085 
L 197.071156 105.461119 
L 198.156962 115.197613 
L 199.242767 113.063705 
L 199.785659 113.516946 
L 200.871464 115.287061 
L 201.414357 115.775107 
L 201.957269 115.858087 
L 202.500162 115.582578 
L 203.043075 115.025005 
L 204.128859 113.321865 
L 205.214685 111.56406 
L 205.757577 111.214494 
L 206.30047 111.489989 
L 206.843362 112.081086 
L 207.386254 111.725734 
L 207.929188 108.510121 
L 208.47208 101.595513 
L 209.014973 92.759023 
L 209.557865 86.456667 
L 210.100757 88.677871 
L 210.643691 102.588469 
L 211.186583 110.515552 
L 211.729475 97.901197 
L 212.272368 96.728278 
L 213.901086 113.805468 
L 214.443978 115.517329 
L 214.98687 115.323141 
L 216.072696 113.802107 
L 216.615588 113.31556 
L 217.158481 113.103468 
L 218.244265 113.13673 
L 219.330091 113.478762 
L 219.872984 113.845386 
L 220.415876 114.516267 
L 220.958768 115.719364 
L 221.501702 114.608929 
L 222.044594 111.363138 
L 222.587486 106.621345 
L 223.673271 94.824754 
L 224.216204 91.670173 
L 224.759097 92.630954 
L 225.301989 93.842524 
L 225.844881 88.628148 
L 226.387774 82.226465 
L 227.473599 105.58951 
L 228.016492 74.642011 
L 228.559384 64.385161 
L 229.102276 73.977716 
L 230.188102 108.972368 
L 230.730995 113.889884 
L 231.273887 110.655254 
L 231.816779 110.572506 
L 232.359713 111.690471 
L 233.445497 114.524899 
L 233.98839 115.56995 
L 234.531282 115.951626 
L 235.617108 114.821033 
L 237.245785 113.590772 
L 237.788718 112.985792 
L 238.33161 112.06359 
L 238.874503 110.678317 
L 240.503221 104.523757 
L 241.046113 104.413809 
L 241.589005 107.862257 
L 242.131898 115.656135 
L 243.760616 88.412782 
L 244.303508 88.023412 
L 244.846401 96.780972 
L 245.389293 115.619939 
L 245.932226 94.775737 
L 246.475119 84.802391 
L 247.018011 91.222808 
L 247.560903 113.467548 
L 248.103796 72.40264 
L 248.646729 45.029647 
L 249.189621 70.781164 
L 249.732514 104.862627 
L 250.275406 107.51391 
L 250.818298 93.701957 
L 251.361232 99.331078 
L 251.904124 107.071572 
L 252.447016 107.627072 
L 253.532801 113.500894 
L 254.075735 113.844 
L 254.618627 114.819753 
L 255.161519 115.492173 
L 256.247304 111.328485 
L 256.790237 111.350052 
L 257.33313 116.070196 
L 257.876022 105.981001 
L 258.418914 93.108745 
L 258.961807 83.299224 
L 259.50474 80.723069 
L 260.047632 85.133376 
L 261.133417 102.333203 
L 261.676309 111.901025 
L 262.219243 111.150919 
L 262.762135 104.444399 
L 263.305027 102.416462 
L 263.84792 104.598415 
L 264.933746 112.50031 
L 265.476638 115.005509 
L 266.01953 116.140288 
L 266.562423 115.923262 
L 267.648248 115.820601 
L 268.191141 115.486854 
L 268.734033 114.832254 
L 269.276925 113.809296 
L 269.819818 112.363071 
L 270.362751 110.446645 
L 271.448536 105.117546 
L 271.991428 102.027972 
L 272.53432 99.583955 
L 273.077254 99.214142 
L 273.620146 102.63145 
L 274.163038 110.545214 
L 274.705931 112.121604 
L 275.248823 107.06159 
L 275.791757 111.70116 
L 276.334649 109.670366 
L 276.877541 102.160758 
L 277.420434 103.054197 
L 278.506259 114.210524 
L 279.049152 115.136883 
L 279.592044 113.839189 
L 280.677829 112.68906 
L 281.220762 112.295857 
L 281.763654 112.171512 
L 282.306547 112.339625 
L 282.849439 112.753969 
L 283.392331 113.36496 
L 284.478157 115.120869 
L 285.021049 115.965978 
L 285.563942 114.208817 
L 286.106834 111.715569 
L 286.649768 108.25397 
L 287.735552 98.345038 
L 288.278445 92.909233 
L 288.821337 88.720799 
L 289.36427 86.834708 
L 289.907163 87.117961 
L 290.450055 89.673853 
L 290.992947 98.004759 
L 291.53584 115.797873 
L 292.078773 94.756057 
L 292.621665 81.471547 
L 293.164558 82.377725 
L 294.793276 113.411812 
L 295.336168 114.375236 
L 295.87906 113.119764 
L 296.421953 113.530829 
L 297.507779 115.519747 
L 298.050671 116.036977 
L 298.593563 115.486775 
L 299.136456 115.168561 
L 299.679348 115.093095 
L 300.222281 115.286222 
L 300.765174 115.833006 
L 301.308066 115.4581 
L 301.850958 113.608902 
L 302.393851 110.696051 
L 302.936784 106.56036 
L 304.022569 96.34491 
L 304.565461 93.619007 
L 305.108353 95.346133 
L 305.651287 100.293199 
L 306.194179 102.825801 
L 306.737071 101.196116 
L 307.279964 103.799168 
L 307.822856 114.282667 
L 308.36579 109.795134 
L 308.908682 107.783052 
L 309.451574 104.230788 
L 309.994467 97.396889 
L 310.537359 93.611642 
L 311.080292 96.395031 
L 312.166077 109.737913 
L 312.708969 114.49916 
L 313.251862 115.461711 
L 313.794795 114.618118 
L 314.337687 114.714812 
L 315.423472 116.075041 
L 315.966364 115.502764 
L 317.05219 114.096613 
L 318.137975 113.027584 
L 319.223801 112.31932 
L 319.766693 112.12947 
L 320.309585 112.138459 
L 320.852478 112.464272 
L 321.39537 113.35975 
L 321.938303 115.188657 
L 322.481196 113.919015 
L 323.56698 103.614228 
L 324.109873 102.001197 
L 325.195698 113.778999 
L 326.281483 83.995879 
L 326.824375 113.276753 
L 327.367309 71.722149 
L 327.910201 66.21687 
L 328.995986 114.202186 
L 329.538878 104.659231 
L 330.081812 101.28345 
L 330.624704 103.841132 
L 331.167596 109.294467 
L 331.710489 112.611151 
L 332.253381 114.52959 
L 332.796314 115.661428 
L 333.339207 115.683987 
L 333.882099 115.304921 
L 334.424991 114.669082 
L 335.510817 112.678463 
L 336.596602 110.720925 
L 337.139494 110.517027 
L 337.682386 111.524113 
L 338.22532 113.997599 
L 338.768212 114.90225 
L 339.311104 111.887785 
L 339.853997 111.189834 
L 340.939823 115.49754 
L 341.482715 114.209938 
L 342.025607 113.847687 
L 342.5685 106.15612 
L 343.111392 104.877434 
L 343.654325 115.15108 
L 344.197218 95.802406 
L 344.74011 84.08749 
L 345.283002 85.713573 
L 346.91172 113.994987 
L 347.454613 113.882511 
L 347.997505 111.968586 
L 348.540397 111.592214 
L 349.083331 112.124827 
L 349.626223 113.127884 
L 350.712008 115.867396 
L 351.2549 114.938497 
L 351.797834 113.419465 
L 352.340726 112.322224 
L 352.883618 112.308677 
L 353.426511 114.134798 
L 353.969403 114.246106 
L 354.512336 109.446199 
L 355.055229 107.067487 
L 355.598121 110.554946 
L 356.141013 111.376108 
L 357.226839 82.915658 
L 357.769731 81.16959 
L 358.312624 92.840454 
L 358.855516 108.696427 
L 359.398408 113.120883 
L 359.941342 109.115763 
L 360.484234 108.856971 
L 361.027126 110.87879 
L 361.570019 113.743572 
L 362.112911 115.933475 
L 362.655845 115.180927 
L 363.198737 114.655886 
L 363.741629 114.731824 
L 364.827414 115.680724 
L 365.370347 116.182588 
L 365.91324 115.836741 
L 366.456132 115.731113 
L 366.999024 115.964479 
L 367.541917 115.753244 
L 368.08485 114.581853 
L 368.627742 112.858539 
L 369.713527 108.779389 
L 370.256419 107.994779 
L 370.799353 110.021746 
L 371.342245 115.981701 
L 371.885137 108.371642 
L 372.42803 104.704251 
L 372.970922 111.372796 
L 373.513856 104.524639 
L 374.056748 82.220292 
L 374.59964 66.865242 
L 375.142533 77.361855 
L 375.685425 106.518179 
L 376.228358 106.268412 
L 376.771251 107.417268 
L 377.314143 114.930413 
L 377.857035 114.133732 
L 378.399928 111.985865 
L 378.942861 110.831051 
L 380.571538 113.467066 
L 381.657364 115.438591 
L 382.200256 116.145746 
L 382.743148 115.698951 
L 383.286041 115.452963 
L 383.828933 115.607068 
L 384.371867 116.047231 
L 384.914759 114.51691 
L 385.457651 111.773889 
L 386.000544 107.450134 
L 387.629262 89.59478 
L 388.172154 90.021493 
L 389.257939 103.201114 
L 389.800872 103.099195 
L 390.343764 107.54262 
L 390.886657 103.567321 
L 391.429549 81.536645 
L 391.972441 78.167172 
L 392.515375 86.425148 
L 393.058267 92.475451 
L 393.601159 93.099957 
L 394.144052 95.536451 
L 394.686944 108.485692 
L 395.229878 102.316997 
L 395.77277 85.961148 
L 396.315662 84.817297 
L 396.858555 94.883514 
L 397.401447 107.124486 
L 397.94438 115.99977 
L 398.487273 110.857241 
L 398.487273 110.857241 
" clip-path="url(#p19cf1d4b37)" style="fill: none; stroke: #385989; stroke-width: 1.5; stroke-linecap: square"/>
   </g>
   <g id="line2d_13">
    <path d="M 73.832727 114.453993 
L 74.37564 115.31893 
L 77.090143 114.100389 
L 77.633035 114.256524 
L 78.718841 115.631706 
L 79.261733 115.100458 
L 80.890451 109.776989 
L 81.433343 108.985514 
L 81.976236 108.906026 
L 82.519148 109.492781 
L 84.147846 112.573438 
L 84.690738 113.925538 
L 85.233651 114.231087 
L 86.319456 115.232801 
L 87.405241 115.749429 
L 88.491046 116.02507 
L 90.119744 116.177009 
L 94.462965 115.780129 
L 95.005857 114.49324 
L 95.548749 114.541645 
L 96.091662 115.264769 
L 97.177467 114.69448 
L 98.806165 113.688422 
L 99.349057 113.634216 
L 99.89197 113.822063 
L 100.434863 114.378092 
L 100.977755 115.244965 
L 101.520668 114.459733 
L 102.06356 114.589256 
L 102.606473 114.040244 
L 103.149365 108.400029 
L 103.692258 105.709719 
L 104.23517 104.045233 
L 104.778063 104.890076 
L 105.863868 111.327062 
L 106.40676 111.30694 
L 106.949673 113.490633 
L 107.492566 114.431843 
L 108.035478 115.07423 
L 108.578371 115.455708 
L 109.121263 115.66897 
L 110.207068 115.755445 
L 112.378679 115.650605 
L 112.921571 115.79341 
L 113.464484 116.096147 
L 114.007376 115.862567 
L 115.093181 114.533574 
L 116.178987 113.183238 
L 117.264771 110.573179 
L 117.807684 111.618908 
L 118.350577 111.730127 
L 118.893489 111.998169 
L 120.522187 113.589105 
L 122.150885 115.041908 
L 123.779582 116.023429 
L 124.322495 116.098462 
L 125.40828 115.677731 
L 126.494085 115.48578 
L 127.036998 115.462431 
L 128.122782 114.260432 
L 128.665695 115.682043 
L 129.208588 114.380642 
L 129.7515 113.919945 
L 130.294393 112.714719 
L 130.837285 112.320709 
L 131.380198 111.62262 
L 131.92309 111.414959 
L 132.466003 111.454117 
L 133.008896 111.768624 
L 134.094701 112.822193 
L 135.723398 114.511875 
L 136.809203 115.357324 
L 137.895009 115.97158 
L 138.437901 115.659765 
L 138.980793 115.869981 
L 140.066599 115.398816 
L 141.152404 115.129072 
L 141.695296 115.198199 
L 142.238209 115.498639 
L 142.781101 116.099022 
L 143.324014 115.313666 
L 144.952712 112.156441 
L 145.495604 111.530708 
L 146.038517 111.175693 
L 146.581409 111.149994 
L 147.124302 111.343721 
L 148.210107 112.338893 
L 149.838804 114.063245 
L 150.381717 114.68068 
L 151.467522 115.496191 
L 152.553307 116.103156 
L 153.09622 115.985972 
L 156.353615 114.594165 
L 157.43942 115.185536 
L 157.982313 115.881179 
L 159.611031 111.130872 
L 160.153923 110.372041 
L 161.782621 111.100257 
L 166.125821 115.360875 
L 167.211626 115.967932 
L 167.754539 116.144407 
L 169.383236 115.368076 
L 170.469042 114.719491 
L 171.011934 114.983228 
L 171.554826 114.544388 
L 172.097739 113.501579 
L 172.640632 113.600144 
L 173.183544 114.826108 
L 173.726437 115.240621 
L 174.812242 109.561171 
L 175.355134 108.51166 
L 176.44094 110.402781 
L 176.983832 111.3265 
L 177.526745 111.978911 
L 178.069637 112.261653 
L 179.155442 113.17899 
L 180.78414 114.700504 
L 181.327053 115.092676 
L 181.869945 115.307946 
L 182.412837 115.143189 
L 182.95575 115.883195 
L 184.041555 116.155033 
L 185.670253 115.644203 
L 186.213145 115.379698 
L 186.756058 114.961081 
L 187.298951 114.373518 
L 187.841843 113.42241 
L 188.384756 112.10688 
L 189.470561 108.610222 
L 190.013453 108.414129 
L 190.556346 111.932637 
L 191.099258 112.109144 
L 191.642151 101.095382 
L 192.185064 95.708453 
L 192.727956 98.712107 
L 193.813761 114.417394 
L 194.356654 115.369734 
L 194.899566 115.886883 
L 195.985351 114.172644 
L 196.528264 113.799477 
L 197.071156 113.861101 
L 198.156962 114.524447 
L 199.785659 115.349649 
L 201.414357 115.548808 
L 201.957269 115.517671 
L 202.500162 115.359501 
L 203.043075 115.416824 
L 204.128859 114.907724 
L 204.671752 115.043859 
L 206.30047 114.950585 
L 206.843362 114.403773 
L 207.929188 112.19256 
L 208.47208 113.18926 
L 209.014973 115.107857 
L 209.557865 109.454653 
L 210.100757 105.341432 
L 210.643691 104.363606 
L 211.186583 105.884183 
L 212.272368 110.412674 
L 212.81526 112.27501 
L 213.901086 114.531791 
L 214.443978 115.534855 
L 214.98687 115.912089 
L 215.529763 115.841331 
L 216.615588 116.138315 
L 219.330091 116.17772 
L 219.872984 115.995963 
L 220.415876 115.664021 
L 220.958768 114.98661 
L 221.501702 113.73291 
L 222.044594 111.59339 
L 222.587486 108.116762 
L 223.673271 98.149518 
L 224.216204 95.728532 
L 224.759097 101.270206 
L 225.301989 113.863013 
L 226.387774 66.564725 
L 226.930707 60.440312 
L 227.473599 75.82852 
L 228.016492 105.431669 
L 228.559384 101.059423 
L 229.102276 90.759968 
L 229.64521 94.356623 
L 230.730995 111.262492 
L 231.273887 115.989803 
L 231.816779 113.504432 
L 232.359713 112.589779 
L 232.902605 112.602999 
L 235.617108 115.023515 
L 237.245785 115.807442 
L 237.788718 116.162575 
L 238.874503 115.240159 
L 239.417395 114.989604 
L 239.960287 115.663266 
L 240.503221 114.145213 
L 241.589005 103.337421 
L 242.131898 100.571524 
L 242.67479 106.179857 
L 243.217724 113.384616 
L 243.760616 100.560297 
L 244.303508 95.117881 
L 244.846401 97.02259 
L 246.475119 111.581947 
L 247.560903 114.75865 
L 248.103796 116.0107 
L 249.189621 115.326134 
L 252.989909 114.344522 
L 253.532801 114.722245 
L 254.075735 115.696258 
L 254.618627 114.597475 
L 255.161519 110.839555 
L 255.704412 105.168264 
L 256.790237 91.099911 
L 257.33313 87.943721 
L 257.876022 93.378804 
L 258.418914 108.027191 
L 258.961807 103.91111 
L 259.50474 86.144263 
L 260.047632 78.395488 
L 260.590525 80.58356 
L 262.219243 108.66604 
L 262.762135 114.385015 
L 263.305027 114.812981 
L 263.84792 113.373955 
L 264.390812 113.073064 
L 264.933746 113.376226 
L 267.648248 115.955668 
L 268.191141 116.023232 
L 268.734033 115.491105 
L 269.276925 115.405791 
L 269.819818 114.998341 
L 270.905643 114.617873 
L 271.448536 114.541296 
L 271.991428 114.929348 
L 272.53432 115.97444 
L 273.077254 112.951061 
L 273.620146 107.853084 
L 274.705931 93.611574 
L 275.248823 92.631692 
L 275.791757 103.083504 
L 276.334649 108.283108 
L 276.877541 86.276243 
L 277.420434 71.603332 
L 277.963326 66.534409 
L 278.506259 71.417035 
L 279.592044 107.544301 
L 280.134936 76.25322 
L 280.677829 67.808812 
L 281.220762 73.137953 
L 282.306547 100.03343 
L 282.849439 108.964531 
L 283.392331 114.156982 
L 283.935265 115.697979 
L 284.478157 114.912136 
L 285.021049 114.62621 
L 285.563942 114.95698 
L 286.106834 115.527242 
L 286.649768 115.684267 
L 287.19266 115.616086 
L 287.735552 115.146552 
L 288.278445 113.816666 
L 288.821337 111.438155 
L 289.907163 105.979976 
L 290.450055 103.954921 
L 290.992947 109.691713 
L 291.53584 110.68465 
L 292.078773 100.503175 
L 292.621665 95.812291 
L 293.164558 99.392779 
L 293.70745 108.34163 
L 294.250342 113.385532 
L 294.793276 105.141043 
L 295.336168 101.792716 
L 295.87906 101.844541 
L 296.421953 104.110593 
L 297.507779 109.825328 
L 298.050671 112.074551 
L 298.593563 113.692033 
L 299.136456 114.791115 
L 299.679348 115.501835 
L 300.222281 115.968054 
L 300.765174 116.109421 
L 301.308066 115.790277 
L 301.850958 115.633074 
L 302.393851 115.28865 
L 302.936784 114.80439 
L 303.479676 114.158104 
L 304.022569 113.167823 
L 305.651287 108.919023 
L 306.194179 108.686801 
L 307.279964 113.66283 
L 308.36579 90.356745 
L 308.908682 87.098166 
L 309.451574 96.674714 
L 309.994467 113.467022 
L 310.537359 106.345547 
L 311.080292 103.403352 
L 311.623185 107.220894 
L 312.166077 112.935854 
L 312.708969 115.044376 
L 313.251862 112.834021 
L 313.794795 111.973774 
L 314.337687 112.017234 
L 316.509298 113.852715 
L 318.680867 114.684475 
L 319.223801 115.192647 
L 319.766693 116.108808 
L 320.309585 114.254557 
L 320.852478 111.113645 
L 321.39537 106.725616 
L 322.481196 96.568249 
L 323.024088 95.9171 
L 323.56698 100.8902 
L 324.109873 110.960148 
L 324.652806 106.923333 
L 325.195698 93.993681 
L 325.738591 85.505945 
L 326.281483 84.974192 
L 326.824375 90.628816 
L 327.910201 107.597676 
L 328.453093 113.684048 
L 328.995986 115.065654 
L 329.538878 113.288575 
L 330.081812 112.776136 
L 330.624704 113.011897 
L 331.710489 114.182973 
L 333.339207 116.037277 
L 333.882099 115.673759 
L 334.424991 116.136466 
L 334.967884 115.302267 
L 335.510817 115.148256 
L 336.053709 115.247521 
L 336.596602 115.759347 
L 337.139494 115.172778 
L 337.682386 112.594615 
L 338.22532 108.327793 
L 338.768212 102.916492 
L 339.311104 98.777004 
L 339.853997 99.45743 
L 340.396889 107.815817 
L 340.939823 112.002644 
L 341.482715 103.818426 
L 342.025607 105.895011 
L 342.5685 114.68367 
L 343.111392 113.986687 
L 343.654325 110.220445 
L 344.197218 95.597104 
L 344.74011 87.523482 
L 345.283002 90.373618 
L 346.368828 109.678302 
L 346.91172 115.661432 
L 347.454613 111.885963 
L 347.997505 110.495719 
L 348.540397 110.445027 
L 349.626223 111.755934 
L 350.712008 113.001897 
L 351.2549 113.398497 
L 352.883618 114.140329 
L 353.426511 114.854279 
L 353.969403 116.104134 
L 354.512336 113.130906 
L 355.055229 108.077147 
L 355.598121 95.914599 
L 356.683906 84.843828 
L 357.226839 88.296409 
L 357.769731 104.094171 
L 358.312624 106.906486 
L 358.855516 85.062116 
L 359.398408 76.48871 
L 359.941342 77.888505 
L 362.112911 114.064573 
L 362.655845 115.18793 
L 363.198737 113.040658 
L 363.741629 111.571227 
L 364.284522 112.014202 
L 364.827414 113.968134 
L 365.370347 114.787697 
L 365.91324 113.797018 
L 366.456132 114.451249 
L 366.999024 115.404124 
L 368.08485 116.122873 
L 368.627742 115.940996 
L 369.170635 115.601332 
L 370.256419 114.47938 
L 370.799353 113.541495 
L 371.342245 112.156738 
L 372.42803 108.983816 
L 372.970922 109.138124 
L 373.513856 112.999017 
L 374.056748 111.119746 
L 374.59964 102.045765 
L 375.142533 97.852753 
L 375.685425 100.817652 
L 376.771251 112.736423 
L 377.314143 115.816711 
L 377.857035 115.735481 
L 378.399928 114.883689 
L 379.485753 114.495185 
L 380.028646 114.526439 
L 381.657364 115.367165 
L 382.743148 115.822507 
L 383.828933 116.134384 
L 386.000544 115.98879 
L 386.543436 116.069564 
L 387.086369 115.888154 
L 387.629262 115.304518 
L 388.172154 80.099471 
L 388.715046 61.136975 
L 389.257939 107.428373 
L 390.343764 96.769199 
L 390.886657 94.805405 
L 391.429549 99.688083 
L 391.972441 115.693553 
L 393.058267 72.700329 
L 393.601159 60.934289 
L 394.144052 65.017598 
L 394.686944 86.283903 
L 395.229878 114.999087 
L 395.77277 90.837527 
L 396.315662 85.644197 
L 396.858555 93.677554 
L 397.94438 113.617167 
L 398.487273 112.185515 
L 398.487273 112.185515 
" clip-path="url(#p19cf1d4b37)" style="fill: none; stroke: #d22027; stroke-width: 1.5; stroke-linecap: square"/>
   </g>
   <g id="patch_3">
    <path d="M 57.6 119.740235 
L 57.6 41.472 
" style="fill: none; stroke: #000000; stroke-width: 0.8; stroke-linejoin: miter; stroke-linecap: square"/>
   </g>
   <g id="patch_4">
    <path d="M 414.72 119.740235 
L 414.72 41.472 
" style="fill: none; stroke: #000000; stroke-width: 0.8; stroke-linejoin: miter; stroke-linecap: square"/>
   </g>
   <g id="patch_5">
    <path d="M 57.6 119.740235 
L 414.72 119.740235 
" style="fill: none; stroke: #000000; stroke-width: 0.8; stroke-linejoin: miter; stroke-linecap: square"/>
   </g>
   <g id="patch_6">
    <path d="M 57.6 41.472 
L 414.72 41.472 
" style="fill: none; stroke: #000000; stroke-width: 0.8; stroke-linejoin: miter; stroke-linecap: square"/>
   </g>
  </g>
  <g id="axes_2">
   <g id="patch_7">
    <path d="M 57.6 213.662118 
L 414.72 213.662118 
L 414.72 135.393882 
L 57.6 135.393882 
z
" style="fill: #ffffff"/>
   </g>
   <g id="matplotlib.axis_3">
    <g id="xtick_10">
     <g id="line2d_14">
      <g>
       <use xlink:href="#ma725043327" x="73.289835" y="213.662118" style="stroke: #000000; stroke-width: 0.8"/>
      </g>
     </g>
     <g id="text_12">
      <!-- 10 -->
      <g transform="translate(66.927335 228.260555)scale(0.1 -0.1)">
       <use xlink:href="#DejaVuSans-31"/>
       <use xlink:href="#DejaVuSans-30" x="63.623047"/>
      </g>
     </g>
    </g>
    <g id="xtick_11">
     <g id="line2d_15">
      <g>
       <use xlink:href="#ma725043327" x="116.721879" y="213.662118" style="stroke: #000000; stroke-width: 0.8"/>
      </g>
     </g>
     <g id="text_13">
      <!-- 12 -->
      <g transform="translate(110.359379 228.260555)scale(0.1 -0.1)">
       <use xlink:href="#DejaVuSans-31"/>
       <use xlink:href="#DejaVuSans-32" x="63.623047"/>
      </g>
     </g>
    </g>
    <g id="xtick_12">
     <g id="line2d_16">
      <g>
       <use xlink:href="#ma725043327" x="160.153923" y="213.662118" style="stroke: #000000; stroke-width: 0.8"/>
      </g>
     </g>
     <g id="text_14">
      <!-- 14 -->
      <g transform="translate(153.791423 228.260555)scale(0.1 -0.1)">
       <use xlink:href="#DejaVuSans-31"/>
       <use xlink:href="#DejaVuSans-34" x="63.623047"/>
      </g>
     </g>
    </g>
    <g id="xtick_13">
     <g id="line2d_17">
      <g>
       <use xlink:href="#ma725043327" x="203.585967" y="213.662118" style="stroke: #000000; stroke-width: 0.8"/>
      </g>
     </g>
     <g id="text_15">
      <!-- 16 -->
      <g transform="translate(197.223467 228.260555)scale(0.1 -0.1)">
       <use xlink:href="#DejaVuSans-31"/>
       <use xlink:href="#DejaVuSans-36" x="63.623047"/>
      </g>
     </g>
    </g>
    <g id="xtick_14">
     <g id="line2d_18">
      <g>
       <use xlink:href="#ma725043327" x="247.018011" y="213.662118" style="stroke: #000000; stroke-width: 0.8"/>
      </g>
     </g>
     <g id="text_16">
      <!-- 18 -->
      <g transform="translate(240.655511 228.260555)scale(0.1 -0.1)">
       <use xlink:href="#DejaVuSans-31"/>
       <use xlink:href="#DejaVuSans-38" x="63.623047"/>
      </g>
     </g>
    </g>
    <g id="xtick_15">
     <g id="line2d_19">
      <g>
       <use xlink:href="#ma725043327" x="290.450055" y="213.662118" style="stroke: #000000; stroke-width: 0.8"/>
      </g>
     </g>
     <g id="text_17">
      <!-- 20 -->
      <g transform="translate(284.087555 228.260555)scale(0.1 -0.1)">
       <use xlink:href="#DejaVuSans-32"/>
       <use xlink:href="#DejaVuSans-30" x="63.623047"/>
      </g>
     </g>
    </g>
    <g id="xtick_16">
     <g id="line2d_20">
      <g>
       <use xlink:href="#ma725043327" x="333.882099" y="213.662118" style="stroke: #000000; stroke-width: 0.8"/>
      </g>
     </g>
     <g id="text_18">
      <!-- 22 -->
      <g transform="translate(327.519599 228.260555)scale(0.1 -0.1)">
       <use xlink:href="#DejaVuSans-32"/>
       <use xlink:href="#DejaVuSans-32" x="63.623047"/>
      </g>
     </g>
    </g>
    <g id="xtick_17">
     <g id="line2d_21">
      <g>
       <use xlink:href="#ma725043327" x="377.314143" y="213.662118" style="stroke: #000000; stroke-width: 0.8"/>
      </g>
     </g>
     <g id="text_19">
      <!-- 24 -->
      <g transform="translate(370.951643 228.260555)scale(0.1 -0.1)">
       <use xlink:href="#DejaVuSans-32"/>
       <use xlink:href="#DejaVuSans-34" x="63.623047"/>
      </g>
     </g>
    </g>
    <g id="xtick_18">
     <g id="line2d_22">
      <g>
       <use xlink:href="#ma725043327" x="399.030165" y="213.662118" style="stroke: #000000; stroke-width: 0.8"/>
      </g>
     </g>
     <g id="text_20">
      <!-- 25 -->
      <g transform="translate(392.667665 228.260555)scale(0.1 -0.1)">
       <use xlink:href="#DejaVuSans-32"/>
       <use xlink:href="#DejaVuSans-35" x="63.623047"/>
      </g>
     </g>
    </g>
   </g>
   <g id="matplotlib.axis_4">
    <g id="ytick_3">
     <g id="line2d_23">
      <g>
       <use xlink:href="#m13f689c90e" x="57.6" y="210.106013" style="stroke: #000000; stroke-width: 0.8"/>
      </g>
     </g>
     <g id="text_21">
      <!-- 0 -->
      <g transform="translate(44.2375 213.905232)scale(0.1 -0.1)">
       <use xlink:href="#DejaVuSans-30"/>
      </g>
     </g>
    </g>
    <g id="ytick_4">
     <g id="line2d_24">
      <g>
       <use xlink:href="#m13f689c90e" x="57.6" y="172.396131" style="stroke: #000000; stroke-width: 0.8"/>
      </g>
     </g>
     <g id="text_22">
      <!-- 10 -->
      <g transform="translate(37.875 176.19535)scale(0.1 -0.1)">
       <use xlink:href="#DejaVuSans-31"/>
       <use xlink:href="#DejaVuSans-30" x="63.623047"/>
      </g>
     </g>
    </g>
   </g>
   <g id="line2d_25">
    <path d="M 73.832727 189.69659 
L 74.37564 203.072898 
L 74.918533 207.451002 
L 75.461445 206.640909 
L 76.004338 208.752904 
L 76.54723 209.44281 
L 77.090143 208.22439 
L 77.633035 210.099293 
L 78.175948 210.006425 
L 78.718841 209.053183 
L 79.261733 207.085133 
L 79.804646 206.411281 
L 80.347538 203.176374 
L 80.890451 200.878428 
L 81.976236 209.937957 
L 82.519148 209.145737 
L 83.062041 208.91042 
L 83.604954 207.718448 
L 84.147846 206.888766 
L 84.690738 207.198966 
L 86.862349 209.658597 
L 87.405241 209.991093 
L 87.948154 209.967891 
L 89.033959 209.715221 
L 90.662657 209.58931 
L 94.462965 209.409523 
L 95.548749 209.175307 
L 96.091662 208.872955 
L 96.634555 208.194971 
L 97.177467 206.678408 
L 97.72036 203.49839 
L 98.806165 191.04631 
L 99.349057 192.015225 
L 99.89197 203.187926 
L 100.434863 156.829877 
L 100.977755 138.951529 
L 101.520668 187.670485 
L 102.606473 156.277148 
L 103.149365 172.383471 
L 103.692258 195.595817 
L 104.23517 203.980746 
L 104.778063 195.185975 
L 105.320976 197.62998 
L 105.863868 202.001407 
L 106.949673 206.561714 
L 107.492566 207.876364 
L 108.035478 208.235917 
L 108.578371 208.308173 
L 109.121263 208.148388 
L 110.207068 207.265609 
L 110.749981 206.797106 
L 111.292874 206.49943 
L 111.835766 206.673875 
L 112.378679 207.731688 
L 112.921571 209.984518 
L 114.007376 203.57645 
L 114.550269 202.126465 
L 115.093181 204.026356 
L 115.636074 208.597083 
L 116.178987 207.028371 
L 116.721879 204.598673 
L 117.264771 204.376345 
L 119.436382 207.520788 
L 119.979274 207.760365 
L 121.065079 207.869382 
L 122.693777 207.785402 
L 123.779582 207.486538 
L 125.951192 206.393838 
L 126.494085 206.690203 
L 127.036998 207.858547 
L 127.57989 209.95388 
L 128.665695 203.079019 
L 129.208588 201.965937 
L 129.7515 204.594004 
L 130.294393 209.662814 
L 130.837285 206.45597 
L 131.380198 205.214451 
L 131.92309 205.824849 
L 132.466003 206.621568 
L 133.551788 207.578138 
L 134.094701 207.86206 
L 135.723398 208.111207 
L 137.352096 208.240502 
L 138.437901 208.150677 
L 140.066599 207.651272 
L 140.609511 207.494336 
L 141.152404 207.481405 
L 141.695296 207.766884 
L 142.238209 208.586342 
L 142.781101 210.002427 
L 143.866907 204.826254 
L 144.409799 203.75312 
L 144.952712 205.872846 
L 145.495604 209.719944 
L 146.038517 208.205375 
L 146.581409 208.197746 
L 147.124302 208.496606 
L 148.210107 207.644934 
L 148.75302 207.750967 
L 149.838804 208.127924 
L 152.553307 208.871403 
L 154.182025 209.225542 
L 154.724918 209.501324 
L 155.26781 209.93105 
L 155.810723 209.707407 
L 156.353615 209.185149 
L 157.43942 209.41818 
L 157.982313 205.749314 
L 158.525225 201.060786 
L 159.068118 199.24385 
L 159.611031 204.721202 
L 160.153923 204.023461 
L 160.696815 195.808806 
L 161.239728 197.645543 
L 161.782621 204.380778 
L 162.325533 208.454979 
L 162.868426 210.085629 
L 163.411318 208.103813 
L 163.954231 206.559733 
L 164.497123 206.850289 
L 165.040036 207.826333 
L 165.582929 208.378977 
L 167.211626 209.353674 
L 169.926129 209.949197 
L 170.469042 209.191829 
L 171.011934 207.843699 
L 171.554826 205.752449 
L 172.640632 200.535846 
L 173.183544 200.195544 
L 173.726437 204.366493 
L 174.269329 206.70575 
L 174.812242 196.508358 
L 175.355134 191.299177 
L 175.898047 193.290036 
L 176.44094 198.532444 
L 176.983832 201.544511 
L 177.526745 200.319918 
L 178.069637 197.294029 
L 178.61255 198.539711 
L 179.155442 208.420434 
L 179.698335 181.954216 
L 180.241247 162.684556 
L 180.78414 179.517216 
L 181.327053 206.166646 
L 181.869945 194.64454 
L 182.412837 202.751838 
L 182.95575 206.159191 
L 183.498643 203.558936 
L 184.584448 208.967749 
L 185.12734 207.841508 
L 185.670253 208.786461 
L 186.213145 208.518069 
L 186.756058 208.389346 
L 187.298951 208.802121 
L 187.841843 208.434814 
L 188.384756 207.117549 
L 188.927648 204.568752 
L 189.470561 200.237551 
L 190.013453 194.862409 
L 190.556346 191.484021 
L 191.099258 195.263778 
L 191.642151 208.932825 
L 192.185064 194.732864 
L 192.727956 188.42998 
L 193.270848 195.903411 
L 193.813761 206.921304 
L 194.356654 207.732064 
L 194.899566 206.911721 
L 195.442459 206.813581 
L 195.985351 206.35615 
L 196.528264 206.066858 
L 197.071156 206.097194 
L 197.614069 206.696471 
L 198.699854 209.446549 
L 199.242767 209.796038 
L 199.785659 209.382951 
L 200.328572 209.382398 
L 201.414357 209.987501 
L 201.957269 209.889377 
L 202.500162 209.630472 
L 203.043075 209.523164 
L 203.585967 209.67355 
L 204.128859 209.964812 
L 204.671752 208.745817 
L 205.214685 206.662302 
L 206.30047 201.229973 
L 206.843362 201.586945 
L 207.386254 208.403272 
L 207.929188 198.206628 
L 208.47208 185.452979 
L 209.014973 184.792079 
L 209.557865 197.745934 
L 210.100757 207.516903 
L 210.643691 200.798782 
L 211.186583 201.459449 
L 212.272368 208.232937 
L 212.81526 209.819644 
L 213.901086 209.607599 
L 214.443978 209.00976 
L 214.98687 208.819369 
L 215.529763 208.90367 
L 217.158481 209.606997 
L 218.244265 209.765709 
L 219.330091 209.602937 
L 220.958768 209.118989 
L 221.501702 209.196812 
L 222.044594 209.777017 
L 222.587486 208.843981 
L 223.130379 205.639951 
L 224.759097 190.59902 
L 225.301989 192.521821 
L 226.387774 206.051918 
L 226.930707 203.049585 
L 227.473599 183.923056 
L 228.016492 172.696302 
L 228.559384 184.951496 
L 229.102276 207.459285 
L 229.64521 199.693378 
L 230.188102 198.090871 
L 231.816779 207.595137 
L 232.359713 209.045842 
L 232.902605 209.709491 
L 233.445497 209.945566 
L 234.531282 209.794447 
L 236.16 209.419644 
L 236.702892 209.480626 
L 237.245785 209.755294 
L 237.788718 209.844738 
L 238.33161 208.755447 
L 238.874503 207.114111 
L 239.960287 203.243996 
L 240.503221 202.897925 
L 241.046113 205.464552 
L 241.589005 209.133905 
L 242.131898 203.023346 
L 242.67479 200.698304 
L 243.217724 204.646866 
L 243.760616 206.654414 
L 244.303508 196.307686 
L 244.846401 188.398432 
L 245.389293 187.75521 
L 245.932226 201.53198 
L 246.475119 187.62302 
L 247.018011 159.655373 
L 247.560903 173.717403 
L 248.103796 204.556488 
L 248.646729 189.343813 
L 249.189621 200.914443 
L 249.732514 207.783047 
L 250.275406 204.64007 
L 250.818298 207.436434 
L 251.361232 206.49518 
L 251.904124 204.733834 
L 252.447016 206.400305 
L 252.989909 206.528732 
L 253.532801 206.920595 
L 254.075735 209.07628 
L 254.618627 208.599924 
L 255.704412 202.463309 
L 256.247304 201.530186 
L 256.790237 205.495447 
L 257.33313 205.026884 
L 257.876022 193.420468 
L 258.418914 186.99679 
L 258.961807 189.588013 
L 260.047632 207.87767 
L 260.590525 205.385089 
L 261.133417 202.247519 
L 261.676309 202.745705 
L 262.762135 208.320063 
L 263.305027 209.742466 
L 263.84792 208.633909 
L 264.390812 208.566832 
L 265.476638 209.857727 
L 266.01953 209.88562 
L 266.562423 209.707163 
L 267.105315 209.765354 
L 267.648248 209.96915 
L 268.191141 209.971771 
L 271.448536 208.155441 
L 271.991428 208.255075 
L 272.53432 209.197073 
L 273.077254 208.473262 
L 273.620146 203.792857 
L 274.163038 198.111081 
L 274.705931 196.311345 
L 275.248823 205.088602 
L 275.791757 196.519285 
L 276.334649 182.178115 
L 276.877541 185.001513 
L 277.420434 199.692758 
L 277.963326 207.895565 
L 278.506259 202.963753 
L 279.049152 202.948411 
L 280.677829 207.065504 
L 281.220762 207.961436 
L 281.763654 208.619482 
L 282.306547 209.078257 
L 282.849439 209.356182 
L 283.935265 209.552461 
L 285.021049 209.579683 
L 286.106834 209.934439 
L 286.649768 208.782318 
L 287.19266 206.651575 
L 287.735552 203.186582 
L 288.821337 194.200112 
L 289.36427 193.0141 
L 289.907163 198.2448 
L 290.450055 210.040816 
L 290.992947 196.913487 
L 291.53584 189.147068 
L 292.078773 190.350253 
L 292.621665 198.716481 
L 293.164558 208.928518 
L 293.70745 204.574293 
L 294.250342 203.088595 
L 294.793276 204.692544 
L 295.87906 208.673201 
L 296.421953 209.786056 
L 296.964845 209.876417 
L 297.507779 209.665004 
L 298.593563 209.631199 
L 300.222281 209.607431 
L 301.308066 209.51277 
L 301.850958 209.631181 
L 302.393851 210.101599 
L 302.936784 208.99895 
L 303.479676 206.870457 
L 304.565461 200.129027 
L 305.108353 198.987644 
L 305.651287 203.042382 
L 306.194179 209.773417 
L 307.279964 204.913215 
L 307.822856 196.122683 
L 308.36579 199.188012 
L 308.908682 204.837687 
L 309.451574 187.246527 
L 309.994467 182.766775 
L 310.537359 193.569958 
L 311.080292 208.218373 
L 311.623185 203.592721 
L 312.166077 202.054452 
L 312.708969 203.715764 
L 313.794795 207.625086 
L 314.337687 208.714828 
L 314.88058 209.304088 
L 315.423472 209.574893 
L 316.509298 209.622731 
L 318.680867 209.381782 
L 319.223801 209.483548 
L 319.766693 209.77867 
L 320.309585 209.828305 
L 320.852478 208.75674 
L 322.481196 204.154608 
L 323.024088 206.451196 
L 323.56698 204.842085 
L 324.109873 189.839114 
L 324.652806 180.264812 
L 325.195698 192.88156 
L 325.738591 198.617925 
L 326.281483 187.334704 
L 326.824375 199.353245 
L 327.367309 205.620275 
L 327.910201 207.375233 
L 328.453093 205.364653 
L 328.995986 202.774506 
L 329.538878 208.232612 
L 330.624704 207.880859 
L 331.710489 208.25028 
L 332.253381 208.900633 
L 332.796314 209.248821 
L 333.882099 209.383307 
L 334.424991 209.245431 
L 334.967884 208.918427 
L 335.510817 208.410153 
L 336.053709 207.667238 
L 337.682386 204.78874 
L 338.22532 204.916173 
L 338.768212 206.868921 
L 339.311104 209.258973 
L 339.853997 204.489128 
L 340.396889 202.8716 
L 340.939823 208.183486 
L 341.482715 201.014699 
L 342.025607 192.285953 
L 342.5685 195.982752 
L 343.111392 205.250454 
L 343.654325 183.978286 
L 344.197218 179.700829 
L 345.283002 207.471738 
L 345.825895 197.989424 
L 346.368828 197.086055 
L 347.997505 205.818898 
L 348.540397 207.424612 
L 349.083331 208.299606 
L 349.626223 208.642008 
L 350.169115 208.566699 
L 350.712008 208.125049 
L 351.2549 207.303448 
L 351.797834 206.098519 
L 352.883618 202.855808 
L 353.426511 201.757866 
L 353.969403 202.595856 
L 354.512336 207.250997 
L 355.055229 203.521146 
L 355.598121 191.716726 
L 356.141013 184.217124 
L 356.683906 186.690973 
L 357.769731 210.104471 
L 358.312624 198.86793 
L 358.855516 191.680403 
L 359.398408 191.454057 
L 359.941342 197.61536 
L 360.484234 205.274923 
L 361.027126 209.839497 
L 361.570019 207.76016 
L 362.112911 207.482632 
L 362.655845 208.004396 
L 363.741629 209.329234 
L 364.827414 210.058583 
L 365.91324 209.781526 
L 366.999024 209.304 
L 367.541917 208.852418 
L 368.08485 208.155313 
L 368.627742 207.092973 
L 369.170635 205.506393 
L 370.799353 199.131848 
L 371.342245 200.490143 
L 371.885137 208.713345 
L 372.42803 194.041386 
L 372.970922 173.387577 
L 373.513856 167.643502 
L 374.056748 188.685436 
L 374.59964 200.333117 
L 375.142533 183.504019 
L 375.685425 185.002541 
L 376.771251 203.717741 
L 377.314143 208.405216 
L 377.857035 204.500225 
L 378.399928 204.649481 
L 378.942861 205.998119 
L 380.028646 207.853716 
L 380.571538 208.580962 
L 381.657364 209.26779 
L 382.743148 209.639805 
L 383.828933 209.847961 
L 384.371867 209.873586 
L 384.914759 209.756193 
L 385.457651 209.296295 
L 386.000544 208.168118 
L 386.543436 205.884106 
L 387.086369 202.072242 
L 387.629262 197.281447 
L 388.172154 194.447753 
L 388.715046 198.875533 
L 389.257939 207.891675 
L 389.800872 194.907006 
L 390.343764 194.667683 
L 390.886657 202.8749 
L 391.429549 206.594139 
L 391.972441 204.66573 
L 392.515375 199.689867 
L 393.058267 192.060792 
L 393.601159 190.877359 
L 394.144052 208.38105 
L 394.686944 182.744148 
L 395.229878 168.58926 
L 395.77277 181.874875 
L 396.315662 205.546795 
L 396.858555 199.959336 
L 397.401447 197.053161 
L 397.94438 199.896348 
L 398.487273 203.701288 
L 398.487273 203.701288 
" clip-path="url(#pae6b7cc20d)" style="fill: none; stroke: #385989; stroke-width: 1.5; stroke-linecap: square"/>
   </g>
   <g id="line2d_26">
    <path d="M 73.832727 209.407539 
L 74.37564 210.01142 
L 77.090143 209.881225 
L 78.175948 209.693302 
L 79.261733 209.896119 
L 79.804646 209.771495 
L 80.347538 210.100465 
L 80.890451 209.847037 
L 86.862349 210.096187 
L 94.462965 210.091377 
L 95.005857 209.218761 
L 95.548749 209.445217 
L 96.091662 210.09189 
L 97.177467 210.022001 
L 98.263252 209.68122 
L 98.806165 209.243633 
L 99.349057 208.619482 
L 99.89197 208.290086 
L 100.434863 208.755416 
L 100.977755 208.756252 
L 101.520668 205.099081 
L 102.06356 205.01385 
L 102.606473 209.042793 
L 103.149365 204.777139 
L 103.692258 206.644663 
L 104.23517 209.354373 
L 104.778063 210.030017 
L 105.320976 209.422733 
L 105.863868 205.791699 
L 106.40676 206.039636 
L 106.949673 209.877784 
L 108.578371 210.006032 
L 111.292874 209.934618 
L 114.007376 209.789082 
L 116.178987 210.034536 
L 116.721879 209.675155 
L 117.264771 210.021452 
L 118.350577 209.82427 
L 121.065079 210.005806 
L 124.865387 209.993231 
L 127.57989 209.888768 
L 128.122782 209.628503 
L 128.665695 209.538452 
L 129.208588 209.898753 
L 130.294393 210.086107 
L 131.380198 210.043148 
L 132.466003 209.879697 
L 134.637593 209.972221 
L 137.895009 210.014456 
L 138.980793 209.914081 
L 139.523706 210.024868 
L 141.152404 209.945355 
L 142.238209 209.69122 
L 143.324014 209.455322 
L 143.866907 209.592471 
L 144.409799 209.892592 
L 144.952712 210.023972 
L 145.495604 209.895112 
L 146.581409 210.046117 
L 147.667214 209.872061 
L 156.353615 210.083386 
L 157.43942 209.498331 
L 157.982313 208.965271 
L 158.525225 208.710057 
L 159.611031 209.932761 
L 160.153923 209.321927 
L 160.696815 209.270814 
L 161.239728 209.763538 
L 161.782621 210.058651 
L 162.868426 209.808803 
L 164.497123 209.923955 
L 166.668734 210.022108 
L 169.926129 209.987447 
L 171.554826 209.614348 
L 172.097739 209.597425 
L 172.640632 209.928422 
L 173.726437 206.859218 
L 174.269329 206.62132 
L 174.812242 208.350603 
L 175.355134 209.119059 
L 175.898047 207.537723 
L 176.44094 207.79098 
L 177.526745 210.083809 
L 178.069637 209.590204 
L 178.61255 209.493007 
L 181.327053 209.971477 
L 181.869945 209.364145 
L 182.412837 209.483706 
L 182.95575 209.999202 
L 185.670253 209.9849 
L 186.213145 210.074921 
L 186.756058 209.893722 
L 187.298951 209.446956 
L 187.841843 208.635541 
L 188.927648 206.227301 
L 189.470561 206.005113 
L 190.013453 208.8541 
L 190.556346 203.654436 
L 191.099258 194.818495 
L 191.642151 193.454396 
L 192.185064 204.983673 
L 193.270848 195.777081 
L 193.813761 200.848859 
L 194.356654 207.751251 
L 194.899566 208.637135 
L 195.442459 207.624358 
L 195.985351 207.986003 
L 197.071156 209.216327 
L 197.614069 209.606355 
L 198.699854 210.026388 
L 199.785659 210.072391 
L 203.585967 209.760921 
L 204.128859 209.599381 
L 204.671752 209.19723 
L 205.214685 208.974604 
L 205.757577 209.026567 
L 206.30047 209.868851 
L 206.843362 208.380857 
L 207.386254 205.906923 
L 207.929188 205.262089 
L 208.47208 208.657818 
L 209.557865 204.114735 
L 210.100757 205.914616 
L 210.643691 209.013888 
L 211.186583 209.313114 
L 211.729475 208.870873 
L 212.81526 209.445641 
L 213.358193 209.727396 
L 213.901086 209.853624 
L 214.98687 209.926781 
L 216.072696 209.936198 
L 219.330091 209.631551 
L 219.872984 209.740848 
L 220.415876 210.068731 
L 220.958768 209.379422 
L 221.501702 207.890139 
L 222.044594 205.339245 
L 223.130379 197.482052 
L 223.673271 195.922137 
L 224.216204 201.875149 
L 224.759097 201.20656 
L 225.301989 178.085123 
L 225.844881 162.925775 
L 226.387774 169.351268 
L 226.930707 199.135101 
L 227.473599 183.713882 
L 228.016492 164.003647 
L 228.559384 173.319049 
L 229.102276 196.596463 
L 229.64521 206.367525 
L 230.188102 200.413418 
L 230.730995 201.187245 
L 231.816779 206.368231 
L 232.359713 208.085724 
L 232.902605 209.168304 
L 233.445497 209.776524 
L 233.98839 210.10439 
L 235.074215 209.77874 
L 236.16 209.503075 
L 236.702892 209.266594 
L 237.788718 208.404826 
L 238.33161 207.853623 
L 238.874503 207.567088 
L 239.417395 208.134692 
L 239.960287 209.595899 
L 240.503221 204.524739 
L 241.046113 198.090337 
L 241.589005 195.402853 
L 242.131898 202.348009 
L 242.67479 202.832769 
L 243.217724 191.738764 
L 243.760616 193.5582 
L 244.303508 203.553923 
L 244.846401 208.34966 
L 245.389293 205.297194 
L 245.932226 205.519017 
L 246.475119 206.947303 
L 247.018011 208.875896 
L 247.560903 209.70198 
L 248.103796 209.435313 
L 248.646729 209.596514 
L 249.732514 209.491151 
L 252.447016 208.710103 
L 252.989909 208.945162 
L 253.532801 209.657365 
L 254.075735 208.974823 
L 254.618627 206.146718 
L 255.161519 201.776553 
L 256.247304 191.867377 
L 256.790237 192.015649 
L 257.33313 199.637304 
L 257.876022 205.324331 
L 258.418914 187.109676 
L 258.961807 177.478737 
L 259.50474 181.512021 
L 260.590525 209.656846 
L 261.133417 201.698436 
L 261.676309 199.670785 
L 262.219243 201.231012 
L 263.305027 206.32491 
L 263.84792 208.093044 
L 264.390812 209.239467 
L 264.933746 209.921259 
L 265.476638 209.929546 
L 266.562423 209.641429 
L 268.734033 209.36026 
L 269.276925 209.079567 
L 269.819818 209.311873 
L 270.362751 209.29005 
L 270.905643 209.472993 
L 271.448536 210.055498 
L 271.991428 208.850633 
L 272.53432 206.23182 
L 273.077254 201.7894 
L 274.163038 190.367342 
L 274.705931 191.663409 
L 275.248823 205.647745 
L 275.791757 190.635408 
L 276.334649 171.743291 
L 276.877541 169.523771 
L 277.420434 177.80125 
L 277.963326 189.009579 
L 278.506259 207.970632 
L 279.592044 161.671399 
L 280.134936 165.870885 
L 280.677829 192.955849 
L 281.220762 205.274403 
L 281.763654 197.222372 
L 282.306547 198.445696 
L 283.392331 205.624388 
L 283.935265 207.930065 
L 284.478157 209.303275 
L 285.021049 210.02875 
L 285.563942 209.841047 
L 286.106834 209.840641 
L 286.649768 209.981773 
L 287.19266 209.190704 
L 287.735552 207.78975 
L 289.36427 201.539817 
L 289.907163 203.067373 
L 290.450055 209.249572 
L 291.53584 190.003678 
L 292.078773 189.459479 
L 293.164558 208.090291 
L 293.70745 198.742721 
L 294.250342 196.343168 
L 294.793276 199.167407 
L 295.87906 208.195263 
L 296.421953 209.545636 
L 296.964845 208.52397 
L 297.507779 208.411199 
L 298.593563 209.113871 
L 299.679348 209.765267 
L 300.765174 210.058217 
L 301.850958 209.842129 
L 302.393851 209.764327 
L 302.936784 209.375821 
L 303.479676 208.789009 
L 304.565461 206.894701 
L 305.108353 205.99538 
L 305.651287 206.04573 
L 306.194179 208.528955 
L 306.737071 205.189939 
L 307.822856 186.497672 
L 308.36579 188.967534 
L 308.908682 206.927174 
L 309.451574 190.880412 
L 309.994467 182.590947 
L 310.537359 191.876089 
L 311.080292 206.168775 
L 311.623185 205.407535 
L 312.166077 203.172345 
L 312.708969 204.313828 
L 313.251862 206.227826 
L 313.794795 207.701615 
L 314.337687 208.613859 
L 314.88058 209.112689 
L 315.423472 209.312982 
L 316.509298 209.221481 
L 317.595082 208.963465 
L 318.137975 208.957034 
L 318.680867 209.190582 
L 319.223801 209.876385 
L 319.766693 208.932964 
L 320.309585 206.496189 
L 321.938303 195.660333 
L 322.481196 195.813445 
L 323.024088 201.187142 
L 323.56698 208.047003 
L 324.109873 195.757746 
L 324.652806 187.22662 
L 325.195698 185.985463 
L 325.738591 192.827476 
L 326.281483 203.784366 
L 326.824375 207.009719 
L 327.367309 202.43132 
L 327.910201 201.983044 
L 328.453093 203.64863 
L 329.538878 207.586776 
L 330.081812 208.902018 
L 330.624704 209.807147 
L 331.167596 209.896294 
L 332.253381 209.300326 
L 332.796314 209.175471 
L 333.339207 208.930889 
L 333.882099 209.313392 
L 334.424991 209.133096 
L 334.967884 208.566123 
L 335.510817 208.588527 
L 336.053709 208.987863 
L 336.596602 209.984029 
L 337.139494 208.098285 
L 337.682386 204.665549 
L 338.768212 196.563202 
L 339.311104 198.309905 
L 339.853997 207.82307 
L 340.396889 199.242403 
L 340.939823 194.418269 
L 341.482715 204.969514 
L 342.025607 198.992436 
L 342.5685 194.874979 
L 343.111392 209.286205 
L 343.654325 186.926731 
L 344.197218 180.571712 
L 345.283002 208.389775 
L 345.825895 199.841959 
L 346.368828 198.917956 
L 347.997505 206.953571 
L 348.540397 208.315002 
L 349.083331 209.008876 
L 349.626223 209.296012 
L 350.169115 209.307288 
L 352.340726 208.630108 
L 352.883618 208.898918 
L 353.426511 209.839529 
L 353.969403 208.217055 
L 354.512336 204.298509 
L 355.055229 198.072781 
L 355.598121 182.648436 
L 356.141013 180.184656 
L 356.683906 192.516566 
L 357.226839 208.39074 
L 357.769731 187.411268 
L 358.312624 172.847092 
L 358.855516 177.659809 
L 359.941342 207.322078 
L 361.027126 200.266011 
L 361.570019 200.949603 
L 362.655845 205.822955 
L 363.198737 207.285868 
L 363.741629 208.232134 
L 364.284522 209.43577 
L 365.370347 209.717695 
L 365.91324 209.528471 
L 366.456132 210.021086 
L 366.999024 209.611088 
L 367.541917 210.063241 
L 368.627742 209.99137 
L 369.170635 210.064123 
L 369.713527 209.934018 
L 370.256419 209.49062 
L 370.799353 208.657798 
L 371.885137 206.242144 
L 372.42803 206.255072 
L 372.970922 209.458197 
L 373.513856 203.599042 
L 374.056748 196.503373 
L 374.59964 197.281483 
L 375.142533 207.292001 
L 375.685425 202.732431 
L 376.228358 200.061004 
L 377.857035 210.077887 
L 378.399928 208.707988 
L 378.942861 208.800107 
L 380.571538 209.792109 
L 381.11443 210.016057 
L 381.657364 210.081815 
L 383.286041 209.770739 
L 384.914759 209.493824 
L 386.000544 209.395368 
L 386.543436 209.466491 
L 387.086369 209.780096 
L 387.629262 209.536846 
L 388.172154 186.867589 
L 388.715046 194.432341 
L 389.257939 200.373541 
L 389.800872 196.371752 
L 390.343764 194.998806 
L 390.886657 201.421033 
L 391.429549 202.792896 
L 391.972441 181.811175 
L 392.515375 169.078281 
L 393.058267 169.74761 
L 393.601159 182.722917 
L 394.144052 207.768931 
L 394.686944 175.134074 
L 395.229878 160.984592 
L 395.77277 176.29352 
L 396.315662 202.208218 
L 396.858555 201.931335 
L 397.401447 198.596784 
L 397.94438 200.59967 
L 398.487273 201.919096 
L 398.487273 201.919096 
" clip-path="url(#pae6b7cc20d)" style="fill: none; stroke: #d22027; stroke-width: 1.5; stroke-linecap: square"/>
   </g>
   <g id="patch_8">
    <path d="M 57.6 213.662118 
L 57.6 135.393882 
" style="fill: none; stroke: #000000; stroke-width: 0.8; stroke-linejoin: miter; stroke-linecap: square"/>
   </g>
   <g id="patch_9">
    <path d="M 414.72 213.662118 
L 414.72 135.393882 
" style="fill: none; stroke: #000000; stroke-width: 0.8; stroke-linejoin: miter; stroke-linecap: square"/>
   </g>
   <g id="patch_10">
    <path d="M 57.6 213.662118 
L 414.72 213.662118 
" style="fill: none; stroke: #000000; stroke-width: 0.8; stroke-linejoin: miter; stroke-linecap: square"/>
   </g>
   <g id="patch_11">
    <path d="M 57.6 135.393882 
L 414.72 135.393882 
" style="fill: none; stroke: #000000; stroke-width: 0.8; stroke-linejoin: miter; stroke-linecap: square"/>
   </g>
  </g>
  <g id="axes_3">
   <g id="patch_12">
    <path d="M 57.6 307.584 
L 414.72 307.584 
L 414.72 229.315765 
L 57.6 229.315765 
z
" style="fill: #ffffff"/>
   </g>
   <g id="matplotlib.axis_5">
    <g id="xtick_19">
     <g id="line2d_27">
      <g>
       <use xlink:href="#ma725043327" x="73.289835" y="307.584" style="stroke: #000000; stroke-width: 0.8"/>
      </g>
     </g>
     <g id="text_23">
      <!-- 10 -->
      <g transform="translate(66.927335 322.182437)scale(0.1 -0.1)">
       <use xlink:href="#DejaVuSans-31"/>
       <use xlink:href="#DejaVuSans-30" x="63.623047"/>
      </g>
     </g>
    </g>
    <g id="xtick_20">
     <g id="line2d_28">
      <g>
       <use xlink:href="#ma725043327" x="116.721879" y="307.584" style="stroke: #000000; stroke-width: 0.8"/>
      </g>
     </g>
     <g id="text_24">
      <!-- 12 -->
      <g transform="translate(110.359379 322.182437)scale(0.1 -0.1)">
       <use xlink:href="#DejaVuSans-31"/>
       <use xlink:href="#DejaVuSans-32" x="63.623047"/>
      </g>
     </g>
    </g>
    <g id="xtick_21">
     <g id="line2d_29">
      <g>
       <use xlink:href="#ma725043327" x="160.153923" y="307.584" style="stroke: #000000; stroke-width: 0.8"/>
      </g>
     </g>
     <g id="text_25">
      <!-- 14 -->
      <g transform="translate(153.791423 322.182437)scale(0.1 -0.1)">
       <use xlink:href="#DejaVuSans-31"/>
       <use xlink:href="#DejaVuSans-34" x="63.623047"/>
      </g>
     </g>
    </g>
    <g id="xtick_22">
     <g id="line2d_30">
      <g>
       <use xlink:href="#ma725043327" x="203.585967" y="307.584" style="stroke: #000000; stroke-width: 0.8"/>
      </g>
     </g>
     <g id="text_26">
      <!-- 16 -->
      <g transform="translate(197.223467 322.182437)scale(0.1 -0.1)">
       <use xlink:href="#DejaVuSans-31"/>
       <use xlink:href="#DejaVuSans-36" x="63.623047"/>
      </g>
     </g>
    </g>
    <g id="xtick_23">
     <g id="line2d_31">
      <g>
       <use xlink:href="#ma725043327" x="247.018011" y="307.584" style="stroke: #000000; stroke-width: 0.8"/>
      </g>
     </g>
     <g id="text_27">
      <!-- 18 -->
      <g transform="translate(240.655511 322.182437)scale(0.1 -0.1)">
       <use xlink:href="#DejaVuSans-31"/>
       <use xlink:href="#DejaVuSans-38" x="63.623047"/>
      </g>
     </g>
    </g>
    <g id="xtick_24">
     <g id="line2d_32">
      <g>
       <use xlink:href="#ma725043327" x="290.450055" y="307.584" style="stroke: #000000; stroke-width: 0.8"/>
      </g>
     </g>
     <g id="text_28">
      <!-- 20 -->
      <g transform="translate(284.087555 322.182437)scale(0.1 -0.1)">
       <use xlink:href="#DejaVuSans-32"/>
       <use xlink:href="#DejaVuSans-30" x="63.623047"/>
      </g>
     </g>
    </g>
    <g id="xtick_25">
     <g id="line2d_33">
      <g>
       <use xlink:href="#ma725043327" x="333.882099" y="307.584" style="stroke: #000000; stroke-width: 0.8"/>
      </g>
     </g>
     <g id="text_29">
      <!-- 22 -->
      <g transform="translate(327.519599 322.182437)scale(0.1 -0.1)">
       <use xlink:href="#DejaVuSans-32"/>
       <use xlink:href="#DejaVuSans-32" x="63.623047"/>
      </g>
     </g>
    </g>
    <g id="xtick_26">
     <g id="line2d_34">
      <g>
       <use xlink:href="#ma725043327" x="377.314143" y="307.584" style="stroke: #000000; stroke-width: 0.8"/>
      </g>
     </g>
     <g id="text_30">
      <!-- 24 -->
      <g transform="translate(370.951643 322.182437)scale(0.1 -0.1)">
       <use xlink:href="#DejaVuSans-32"/>
       <use xlink:href="#DejaVuSans-34" x="63.623047"/>
      </g>
     </g>
    </g>
    <g id="xtick_27">
     <g id="line2d_35">
      <g>
       <use xlink:href="#ma725043327" x="399.030165" y="307.584" style="stroke: #000000; stroke-width: 0.8"/>
      </g>
     </g>
     <g id="text_31">
      <!-- 25 -->
      <g transform="translate(392.667665 322.182437)scale(0.1 -0.1)">
       <use xlink:href="#DejaVuSans-32"/>
       <use xlink:href="#DejaVuSans-35" x="63.623047"/>
      </g>
     </g>
    </g>
   </g>
   <g id="matplotlib.axis_6">
    <g id="ytick_5">
     <g id="line2d_36">
      <g>
       <use xlink:href="#m13f689c90e" x="57.6" y="304.026883" style="stroke: #000000; stroke-width: 0.8"/>
      </g>
     </g>
     <g id="text_32">
      <!-- 0 -->
      <g transform="translate(44.2375 307.826102)scale(0.1 -0.1)">
       <use xlink:href="#DejaVuSans-30"/>
      </g>
     </g>
    </g>
    <g id="ytick_6">
     <g id="line2d_37">
      <g>
       <use xlink:href="#m13f689c90e" x="57.6" y="255.569399" style="stroke: #000000; stroke-width: 0.8"/>
      </g>
     </g>
     <g id="text_33">
      <!-- 20 -->
      <g transform="translate(37.875 259.368618)scale(0.1 -0.1)">
       <use xlink:href="#DejaVuSans-32"/>
       <use xlink:href="#DejaVuSans-30" x="63.623047"/>
      </g>
     </g>
    </g>
   </g>
   <g id="line2d_38">
    <path d="M 73.832727 294.323794 
L 74.37564 298.488967 
L 74.918533 299.869874 
L 75.461445 303.579371 
L 76.004338 301.699573 
L 76.54723 302.259047 
L 77.090143 303.397094 
L 77.633035 303.63629 
L 78.175948 303.011403 
L 79.261733 303.195703 
L 79.804646 302.163725 
L 80.347538 298.584423 
L 80.890451 298.05827 
L 81.433343 300.177486 
L 81.976236 303.080132 
L 82.519148 303.768734 
L 83.604954 303.044964 
L 84.147846 303.69296 
L 84.690738 303.7019 
L 85.233651 303.450411 
L 85.776544 303.358759 
L 86.319456 303.504287 
L 87.405241 303.965646 
L 88.491046 303.448765 
L 89.576852 303.151691 
L 90.662657 303.074922 
L 92.291354 303.211508 
L 93.920052 303.534246 
L 95.005857 303.972971 
L 95.548749 303.662198 
L 96.091662 302.98148 
L 96.634555 301.931435 
L 97.72036 299.396853 
L 98.263252 300.52999 
L 98.806165 300.059835 
L 99.89197 266.103034 
L 100.434863 274.580779 
L 100.977755 289.46741 
L 101.520668 246.710429 
L 102.06356 248.38538 
L 102.606473 287.018672 
L 103.149365 288.309825 
L 103.692258 283.179223 
L 104.23517 289.364619 
L 105.320976 303.532246 
L 105.863868 301.954455 
L 106.40676 301.573232 
L 106.949673 301.566676 
L 108.578371 302.408667 
L 110.207068 302.544832 
L 110.749981 302.797587 
L 111.292874 303.401044 
L 111.835766 303.613016 
L 112.921571 300.974062 
L 113.464484 300.550144 
L 114.007376 301.582491 
L 114.550269 303.86447 
L 115.093181 301.85758 
L 115.636074 300.874138 
L 116.178987 301.642457 
L 116.721879 303.34965 
L 117.264771 303.183177 
L 117.807684 302.438764 
L 118.350577 302.460295 
L 119.979274 303.677221 
L 121.065079 303.92278 
L 121.607992 304.006665 
L 122.693777 303.720292 
L 124.865387 302.68653 
L 125.40828 302.751789 
L 126.494085 303.83466 
L 127.57989 301.065486 
L 128.122782 300.653809 
L 128.665695 301.868283 
L 129.208588 303.752493 
L 129.7515 301.664984 
L 130.294393 301.328758 
L 131.380198 303.72326 
L 131.92309 302.696788 
L 132.466003 302.516005 
L 133.008896 302.904757 
L 133.551788 303.491129 
L 134.094701 303.905719 
L 135.180506 304.025997 
L 136.266291 303.931775 
L 137.352096 303.957378 
L 138.437901 303.44003 
L 140.066599 302.445835 
L 140.609511 302.365078 
L 141.152404 302.646461 
L 141.695296 303.446078 
L 142.238209 303.332264 
L 142.781101 301.989991 
L 143.324014 301.375623 
L 143.866907 302.059894 
L 144.409799 303.557101 
L 144.952712 303.451489 
L 146.038517 303.733796 
L 146.581409 303.279299 
L 147.124302 303.35481 
L 148.210107 303.934693 
L 148.75302 303.488526 
L 149.295912 303.396163 
L 150.92461 303.931898 
L 152.010415 303.619591 
L 153.09622 303.693192 
L 154.182025 303.930968 
L 154.724918 303.556827 
L 155.26781 303.011982 
L 155.810723 302.215948 
L 156.353615 301.089217 
L 157.43942 298.501517 
L 157.982313 298.702938 
L 158.525225 301.69348 
L 159.068118 300.601182 
L 159.611031 295.070962 
L 160.153923 293.873775 
L 160.696815 297.596153 
L 161.239728 302.676218 
L 161.782621 302.32486 
L 162.325533 301.471549 
L 162.868426 301.536959 
L 163.954231 302.41514 
L 164.497123 302.216002 
L 165.040036 302.203235 
L 166.668734 303.896433 
L 167.211626 303.63355 
L 168.297431 302.849252 
L 170.469042 301.660851 
L 171.011934 301.541057 
L 171.554826 301.835991 
L 172.097739 303.026876 
L 172.640632 302.380643 
L 173.726437 293.401199 
L 174.269329 290.789397 
L 174.812242 292.613094 
L 175.898047 303.031999 
L 176.44094 303.222462 
L 176.983832 303.691595 
L 177.526745 302.912919 
L 178.069637 297.555571 
L 179.155442 279.405424 
L 179.698335 283.445203 
L 180.241247 300.139013 
L 180.78414 291.952721 
L 181.327053 287.787109 
L 182.412837 296.425149 
L 182.95575 298.078426 
L 183.498643 300.220183 
L 184.041555 299.060281 
L 184.584448 297.534529 
L 185.670253 301.150473 
L 186.213145 302.116457 
L 186.756058 303.548573 
L 187.298951 303.064198 
L 188.384756 300.863823 
L 188.927648 300.197671 
L 189.470561 300.766906 
L 190.013453 303.67618 
L 190.556346 298.215322 
L 191.099258 290.255187 
L 191.642151 286.046877 
L 192.185064 291.812171 
L 192.727956 301.852729 
L 193.270848 288.819044 
L 193.813761 285.194278 
L 194.356654 290.672163 
L 194.899566 299.961319 
L 195.442459 300.333335 
L 195.985351 296.799843 
L 196.528264 297.068561 
L 197.614069 301.27339 
L 198.156962 302.788863 
L 198.699854 303.532666 
L 199.242767 303.755985 
L 200.871464 303.957987 
L 201.957269 303.21987 
L 203.585967 301.644622 
L 204.128859 301.117921 
L 204.671752 300.757877 
L 205.214685 300.879946 
L 206.30047 303.108729 
L 207.386254 293.583898 
L 207.929188 293.163526 
L 208.47208 300.440552 
L 209.014973 296.306369 
L 209.557865 290.368519 
L 210.100757 294.338253 
L 210.643691 303.015422 
L 211.186583 299.031603 
L 211.729475 297.875267 
L 212.272368 299.494394 
L 212.81526 301.577352 
L 213.358193 303.095394 
L 213.901086 303.750692 
L 214.443978 303.78126 
L 215.529763 303.648536 
L 216.072696 303.76942 
L 216.615588 304.023964 
L 218.787199 302.849503 
L 219.872984 302.593599 
L 220.415876 302.635895 
L 220.958768 302.833194 
L 222.587486 304.011697 
L 223.130379 303.607776 
L 223.673271 301.217126 
L 224.216204 295.825044 
L 224.759097 288.66532 
L 225.301989 285.835883 
L 225.844881 295.612356 
L 226.387774 290.064499 
L 226.930707 269.707124 
L 227.473599 269.045386 
L 228.016492 288.850178 
L 228.559384 297.393396 
L 229.102276 288.705095 
L 229.64521 291.362103 
L 230.188102 297.564401 
L 230.730995 302.42837 
L 231.273887 303.29384 
L 231.816779 302.629289 
L 232.359713 302.743238 
L 233.98839 303.948546 
L 235.074215 303.311924 
L 236.702892 302.740432 
L 237.788718 302.524394 
L 238.33161 302.609608 
L 238.874503 303.071237 
L 239.417395 303.818529 
L 239.960287 301.5859 
L 241.589005 292.204219 
L 242.131898 292.713997 
L 243.760616 302.324234 
L 244.303508 302.946105 
L 244.846401 296.935896 
L 245.932226 275.964123 
L 246.475119 278.866519 
L 247.018011 297.688156 
L 248.103796 284.698232 
L 249.189621 295.745447 
L 249.732514 297.06443 
L 250.275406 299.732543 
L 250.818298 298.638952 
L 251.361232 296.289071 
L 252.447016 300.788622 
L 252.989909 301.865655 
L 253.532801 303.435332 
L 254.075735 303.12697 
L 254.618627 302.594378 
L 255.161519 302.957071 
L 255.704412 303.180837 
L 257.33313 292.302032 
L 257.876022 294.907202 
L 258.418914 302.328155 
L 259.50474 292.989978 
L 260.047632 292.81235 
L 260.590525 296.034007 
L 261.133417 301.047714 
L 261.676309 302.114925 
L 262.219243 299.045174 
L 262.762135 298.351243 
L 263.305027 299.335251 
L 264.390812 302.2386 
L 264.933746 303.101494 
L 265.476638 303.516397 
L 267.105315 303.894224 
L 267.648248 303.958986 
L 270.362751 302.588166 
L 271.448536 301.878139 
L 271.991428 301.258572 
L 273.077254 299.471504 
L 273.620146 299.529684 
L 274.163038 302.468275 
L 274.705931 298.397268 
L 275.248823 289.663261 
L 275.791757 286.919718 
L 276.877541 302.106696 
L 277.420434 296.278483 
L 277.963326 297.320477 
L 278.506259 300.750003 
L 279.049152 303.310619 
L 279.592044 303.543834 
L 280.134936 303.168215 
L 280.677829 303.164075 
L 281.763654 303.602672 
L 282.306547 303.927061 
L 282.849439 303.780463 
L 284.478157 302.8897 
L 285.563942 302.657468 
L 287.19266 302.66223 
L 287.735552 302.239455 
L 288.278445 301.179403 
L 288.821337 299.669422 
L 289.36427 299.010659 
L 289.907163 301.504762 
L 290.450055 299.953327 
L 290.992947 292.69557 
L 291.53584 290.63502 
L 292.078773 295.363631 
L 292.621665 302.380456 
L 293.70745 300.270579 
L 294.250342 301.163945 
L 295.336168 303.596802 
L 295.87906 303.836663 
L 296.421953 303.639635 
L 296.964845 303.709241 
L 297.507779 303.963282 
L 298.050671 303.757478 
L 299.136456 303.144287 
L 300.222281 302.807849 
L 300.765174 302.815881 
L 301.308066 303.000835 
L 301.850958 303.37994 
L 302.393851 303.939321 
L 302.936784 303.523989 
L 303.479676 303.364438 
L 304.022569 303.487693 
L 304.565461 299.807221 
L 305.651287 287.872938 
L 306.194179 288.348484 
L 306.737071 297.791696 
L 307.279964 296.114832 
L 307.822856 283.757824 
L 308.36579 276.702477 
L 308.908682 277.86188 
L 309.994467 301.650088 
L 310.537359 290.8848 
L 311.080292 290.622981 
L 312.166077 300.828599 
L 312.708969 303.676534 
L 313.251862 303.403941 
L 313.794795 303.4256 
L 314.337687 303.817895 
L 314.88058 303.792683 
L 315.966364 303.130669 
L 317.05219 302.737542 
L 320.309585 302.026473 
L 320.852478 302.230921 
L 321.39537 303.00972 
L 321.938303 303.195103 
L 322.481196 299.799737 
L 323.024088 295.263639 
L 323.56698 292.456917 
L 324.109873 297.26771 
L 324.652806 294.954827 
L 325.195698 278.39509 
L 325.738591 280.958921 
L 326.281483 303.137954 
L 326.824375 286.655022 
L 327.367309 285.593069 
L 327.910201 294.621556 
L 328.453093 301.270585 
L 328.995986 303.801223 
L 329.538878 301.663788 
L 330.081812 302.433976 
L 330.624704 303.854795 
L 331.167596 303.11296 
L 331.710489 302.72434 
L 332.253381 302.532084 
L 333.339207 302.607059 
L 334.424991 302.306273 
L 336.053709 301.500849 
L 336.596602 301.654691 
L 337.139494 302.489348 
L 337.682386 303.686342 
L 338.22532 300.664169 
L 339.311104 293.953146 
L 339.853997 293.07026 
L 340.396889 294.981663 
L 341.482715 302.596498 
L 342.5685 283.81217 
L 343.111392 279.737455 
L 343.654325 288.670832 
L 344.197218 302.180994 
L 344.74011 290.493085 
L 345.283002 289.934711 
L 346.368828 300.606123 
L 346.91172 303.520534 
L 347.454613 303.453779 
L 347.997505 303.231977 
L 349.083331 303.131364 
L 349.626223 302.882088 
L 350.712008 301.948934 
L 351.2549 301.423674 
L 351.797834 301.094589 
L 352.340726 301.287831 
L 352.883618 302.487729 
L 353.426511 302.867056 
L 354.512336 294.105272 
L 355.055229 291.800175 
L 355.598121 294.123688 
L 356.141013 300.881506 
L 356.683906 299.002062 
L 357.226839 292.717672 
L 357.769731 290.223241 
L 358.312624 292.217407 
L 359.398408 303.463918 
L 359.941342 299.744342 
L 360.484234 299.387661 
L 362.112911 303.081697 
L 362.655845 303.532146 
L 363.741629 303.637314 
L 364.827414 303.752857 
L 365.370347 303.948518 
L 365.91324 303.802799 
L 366.999024 302.8463 
L 369.170635 300.18082 
L 369.713527 300.343691 
L 370.256419 301.991798 
L 370.799353 301.952104 
L 371.885137 287.859816 
L 372.42803 285.947734 
L 372.970922 294.540125 
L 373.513856 297.126612 
L 374.056748 283.470228 
L 374.59964 281.514035 
L 375.142533 290.496469 
L 375.685425 302.069931 
L 376.228358 298.540809 
L 376.771251 297.426524 
L 377.314143 301.015987 
L 377.857035 303.668633 
L 378.399928 302.64176 
L 378.942861 302.601565 
L 379.485753 302.944391 
L 380.028646 303.642473 
L 380.571538 303.775266 
L 381.657364 302.971076 
L 382.200256 302.718195 
L 383.286041 302.571497 
L 383.828933 302.673962 
L 384.371867 302.958798 
L 384.914759 303.476232 
L 385.457651 303.781525 
L 386.543436 301.868569 
L 387.086369 302.027172 
L 387.629262 303.250536 
L 388.172154 296.654764 
L 388.715046 288.430557 
L 389.257939 285.689472 
L 389.800872 294.048468 
L 390.343764 299.990016 
L 390.886657 292.065347 
L 391.429549 294.141488 
L 391.972441 300.424731 
L 392.515375 303.38109 
L 393.058267 299.459625 
L 394.144052 279.038925 
L 394.686944 282.62668 
L 395.229878 301.206636 
L 395.77277 289.630853 
L 396.315662 286.066527 
L 397.94438 303.222464 
L 398.487273 303.311521 
L 398.487273 303.311521 
" clip-path="url(#p02e10f2a9d)" style="fill: none; stroke: #385989; stroke-width: 1.5; stroke-linecap: square"/>
   </g>
   <g id="line2d_39">
    <path d="M 73.832727 303.457319 
L 74.37564 303.870664 
L 77.633035 303.853702 
L 78.175948 303.667374 
L 78.718841 303.747772 
L 79.804646 303.630033 
L 81.433343 303.678222 
L 82.519148 303.649963 
L 83.604954 303.677718 
L 84.147846 303.571445 
L 85.776544 303.786412 
L 94.462965 303.95099 
L 95.005857 303.341962 
L 95.548749 303.278958 
L 96.091662 303.999363 
L 97.177467 303.979199 
L 98.806165 303.91892 
L 99.349057 303.959035 
L 100.434863 302.159186 
L 100.977755 301.059079 
L 101.520668 302.681342 
L 102.606473 300.53618 
L 103.149365 302.546416 
L 103.692258 303.250292 
L 104.23517 302.102361 
L 104.778063 302.530228 
L 105.320976 303.406741 
L 105.863868 303.10256 
L 106.40676 302.951098 
L 106.949673 303.839991 
L 111.292874 303.842484 
L 113.464484 303.721712 
L 115.093181 303.570969 
L 116.178987 303.663473 
L 116.721879 303.082726 
L 117.264771 303.204982 
L 117.807684 303.748534 
L 119.979274 303.712018 
L 127.036998 303.827243 
L 127.57989 302.649169 
L 128.122782 302.774754 
L 128.665695 303.615688 
L 130.294393 303.587869 
L 131.380198 303.762375 
L 137.895009 303.787402 
L 138.437901 303.379187 
L 138.980793 303.423098 
L 139.523706 303.837361 
L 142.238209 303.912493 
L 143.324014 303.636829 
L 144.409799 303.357407 
L 145.495604 303.610171 
L 146.581409 303.820287 
L 148.75302 303.743394 
L 149.295912 303.548814 
L 149.838804 303.526075 
L 150.381717 303.764792 
L 155.810723 303.973018 
L 156.896528 303.912766 
L 157.43942 303.82161 
L 157.982313 303.917379 
L 159.068118 303.017029 
L 159.611031 302.815267 
L 160.153923 303.039034 
L 161.239728 303.944448 
L 162.325533 303.937199 
L 163.411318 303.780147 
L 165.582929 303.770279 
L 169.926129 303.773071 
L 170.469042 303.698992 
L 171.011934 303.260493 
L 171.554826 303.675874 
L 172.097739 303.493528 
L 172.640632 303.090863 
L 173.183544 302.983287 
L 173.726437 303.721292 
L 174.269329 302.822583 
L 174.812242 301.398049 
L 175.355134 301.450089 
L 176.44094 303.969467 
L 176.983832 303.52522 
L 177.526745 303.557509 
L 178.069637 303.872422 
L 178.61255 303.938961 
L 179.698335 303.755352 
L 185.670253 303.636651 
L 187.841843 303.309171 
L 188.384756 303.668733 
L 188.927648 303.359069 
L 190.013453 298.512102 
L 190.556346 297.462465 
L 191.099258 301.208491 
L 191.642151 297.942247 
L 192.185064 291.648965 
L 192.727956 293.846948 
L 193.270848 301.728968 
L 194.356654 299.898299 
L 195.442459 303.02728 
L 195.985351 303.953091 
L 196.528264 303.708189 
L 197.614069 303.65373 
L 200.328572 303.864695 
L 204.128859 303.911871 
L 204.671752 303.799808 
L 205.214685 303.486487 
L 206.30047 302.292872 
L 206.843362 302.019209 
L 207.386254 303.011554 
L 207.929188 302.543993 
L 208.47208 300.347488 
L 209.014973 300.87133 
L 209.557865 303.74314 
L 210.100757 301.906088 
L 210.643691 301.476917 
L 211.729475 303.148933 
L 212.272368 303.626897 
L 212.81526 303.845783 
L 213.901086 303.839268 
L 214.443978 303.693172 
L 214.98687 303.683797 
L 215.529763 303.799762 
L 217.701373 303.68831 
L 218.787199 303.492575 
L 219.872984 303.042094 
L 221.501702 301.820424 
L 222.044594 301.748543 
L 222.587486 302.668663 
L 223.130379 302.370313 
L 223.673271 296.540414 
L 224.216204 288.769727 
L 224.759097 283.949975 
L 225.301989 288.748412 
L 225.844881 303.196784 
L 226.387774 282.656087 
L 226.930707 269.47458 
L 227.473599 273.948174 
L 228.016492 293.965606 
L 228.559384 294.342728 
L 229.102276 287.58242 
L 229.64521 291.626797 
L 230.188102 298.116414 
L 230.730995 302.51066 
L 231.273887 303.606497 
L 231.816779 303.089817 
L 232.359713 303.163774 
L 233.98839 303.750856 
L 235.617108 303.985077 
L 236.702892 303.857999 
L 237.245785 303.996482 
L 237.788718 303.786769 
L 238.33161 303.30583 
L 238.874503 302.417569 
L 239.960287 299.580353 
L 240.503221 299.162351 
L 241.046113 301.624275 
L 241.589005 300.143113 
L 242.131898 293.069981 
L 242.67479 291.907339 
L 243.217724 299.150734 
L 243.760616 299.796839 
L 244.303508 296.069216 
L 244.846401 297.574955 
L 245.389293 300.719003 
L 245.932226 302.986572 
L 246.475119 304.023354 
L 247.018011 303.807921 
L 248.103796 303.894483 
L 249.189621 303.99878 
L 251.904124 303.835318 
L 253.532801 303.4814 
L 254.075735 303.549858 
L 254.618627 304.016638 
L 255.161519 302.789796 
L 255.704412 300.480853 
L 256.247304 297.528449 
L 256.790237 295.705744 
L 257.33313 298.255645 
L 257.876022 302.059547 
L 258.418914 292.927151 
L 258.961807 290.248116 
L 260.047632 303.112458 
L 260.590525 298.52073 
L 261.133417 298.396889 
L 262.219243 302.130726 
L 262.762135 303.236932 
L 263.305027 303.742134 
L 263.84792 303.900578 
L 266.01953 303.886371 
L 268.191141 304.026353 
L 268.734033 303.786611 
L 269.276925 303.919694 
L 270.905643 302.786343 
L 272.53432 300.692248 
L 273.077254 300.761953 
L 273.620146 302.800627 
L 274.163038 299.588926 
L 275.248823 281.494158 
L 275.791757 281.336939 
L 276.334649 292.652742 
L 276.877541 300.36555 
L 277.420434 289.417675 
L 278.506259 274.084738 
L 279.049152 275.477442 
L 279.592044 295.062763 
L 280.134936 290.500304 
L 280.677829 282.716654 
L 281.220762 287.139364 
L 281.763654 295.603371 
L 282.306547 301.552718 
L 282.849439 303.842526 
L 283.392331 303.135411 
L 283.935265 303.159659 
L 285.021049 303.482827 
L 285.563942 303.462879 
L 286.649768 303.11717 
L 287.19266 302.827132 
L 287.735552 302.737658 
L 288.278445 303.056236 
L 288.821337 303.677938 
L 289.36427 301.00204 
L 290.450055 292.463267 
L 290.992947 293.186037 
L 291.53584 299.573656 
L 292.078773 299.229433 
L 292.621665 292.495364 
L 293.164558 291.616657 
L 293.70745 295.844814 
L 294.250342 301.577754 
L 294.793276 302.159635 
L 295.336168 300.335564 
L 295.87906 300.375715 
L 297.507779 302.850067 
L 298.050671 303.276303 
L 299.136456 303.59345 
L 300.765174 303.591478 
L 301.308066 303.293921 
L 301.850958 303.216298 
L 302.393851 303.426934 
L 303.479676 303.404701 
L 304.565461 303.854481 
L 305.108353 302.65123 
L 305.651287 300.613704 
L 306.194179 298.003277 
L 306.737071 296.104602 
L 307.279964 297.573303 
L 307.822856 303.179178 
L 308.36579 291.578537 
L 308.908682 283.905299 
L 309.451574 288.247722 
L 309.994467 301.561238 
L 310.537359 295.99244 
L 311.080292 294.138874 
L 312.708969 304.020428 
L 313.251862 303.289466 
L 313.794795 303.116826 
L 315.966364 303.535416 
L 317.05219 303.498634 
L 319.766693 303.093992 
L 320.309585 303.550465 
L 320.852478 303.245887 
L 321.39537 300.9768 
L 321.938303 297.777728 
L 322.481196 295.530826 
L 323.024088 297.21134 
L 323.56698 303.762043 
L 324.109873 294.180323 
L 324.652806 288.702149 
L 325.195698 291.717002 
L 325.738591 299.937319 
L 326.281483 301.1761 
L 326.824375 298.782196 
L 327.367309 299.699958 
L 327.910201 301.597761 
L 328.453093 303.087861 
L 328.995986 303.924999 
L 330.081812 303.676131 
L 333.339207 303.57541 
L 334.424991 303.083936 
L 334.967884 303.002266 
L 336.053709 302.100377 
L 336.596602 301.547475 
L 337.139494 301.227193 
L 337.682386 301.70814 
L 338.22532 303.994119 
L 338.768212 298.814269 
L 339.853997 284.950817 
L 340.396889 286.020206 
L 340.939823 295.965991 
L 341.482715 297.682113 
L 342.025607 285.017079 
L 342.5685 276.486295 
L 343.111392 275.774188 
L 343.654325 287.430249 
L 344.197218 301.938763 
L 344.74011 289.466624 
L 345.283002 288.808263 
L 346.368828 300.319867 
L 346.91172 303.491919 
L 347.997505 303.122327 
L 350.712008 303.672618 
L 351.797834 303.529162 
L 352.340726 303.357282 
L 353.426511 302.711601 
L 353.969403 302.332843 
L 354.512336 302.246637 
L 355.055229 302.846225 
L 355.598121 302.909326 
L 356.141013 302.759369 
L 356.683906 293.978657 
L 357.226839 294.040428 
L 357.769731 302.506834 
L 358.312624 295.244911 
L 358.855516 290.328173 
L 359.398408 294.100175 
L 359.941342 300.987304 
L 360.484234 302.518458 
L 361.027126 301.157391 
L 361.570019 301.72695 
L 362.112911 302.738906 
L 362.655845 303.424703 
L 363.198737 303.849832 
L 363.741629 303.881621 
L 364.284522 303.789995 
L 365.370347 303.900327 
L 365.91324 303.719037 
L 366.456132 303.659851 
L 367.541917 303.761111 
L 369.170635 303.514599 
L 370.256419 303.236779 
L 370.799353 303.234366 
L 371.342245 303.606646 
L 371.885137 303.335571 
L 372.970922 298.781838 
L 373.513856 298.361888 
L 374.056748 302.52459 
L 375.142533 294.290174 
L 375.685425 296.825431 
L 376.228358 302.363581 
L 376.771251 302.12328 
L 377.314143 301.479287 
L 378.942861 303.895709 
L 384.914759 303.580657 
L 386.000544 303.209413 
L 387.086369 302.405267 
L 387.629262 301.725687 
L 388.172154 234.743847 
L 388.715046 232.873412 
L 389.257939 302.612029 
L 389.800872 302.417058 
L 391.429549 284.224163 
L 391.972441 288.712543 
L 392.515375 300.148574 
L 393.058267 291.365589 
L 393.601159 277.332514 
L 394.144052 270.139768 
L 394.686944 278.105248 
L 395.229878 299.835183 
L 395.77277 289.511065 
L 396.315662 285.508408 
L 396.858555 291.466171 
L 397.401447 298.922193 
L 397.94438 303.401778 
L 398.487273 303.433118 
L 398.487273 303.433118 
" clip-path="url(#p02e10f2a9d)" style="fill: none; stroke: #d22027; stroke-width: 1.5; stroke-linecap: square"/>
   </g>
   <g id="patch_13">
    <path d="M 57.6 307.584 
L 57.6 229.315765 
" style="fill: none; stroke: #000000; stroke-width: 0.8; stroke-linejoin: miter; stroke-linecap: square"/>
   </g>
   <g id="patch_14">
    <path d="M 414.72 307.584 
L 414.72 229.315765 
" style="fill: none; stroke: #000000; stroke-width: 0.8; stroke-linejoin: miter; stroke-linecap: square"/>
   </g>
   <g id="patch_15">
    <path d="M 57.6 307.584 
L 414.72 307.584 
" style="fill: none; stroke: #000000; stroke-width: 0.8; stroke-linejoin: miter; stroke-linecap: square"/>
   </g>
   <g id="patch_16">
    <path d="M 57.6 229.315765 
L 414.72 229.315765 
" style="fill: none; stroke: #000000; stroke-width: 0.8; stroke-linejoin: miter; stroke-linecap: square"/>
   </g>
  </g>
 </g>
 <defs>
  <clipPath id="p19cf1d4b37">
   <rect x="57.6" y="41.472" width="357.12" height="78.268235"/>
  </clipPath>
  <clipPath id="pae6b7cc20d">
   <rect x="57.6" y="135.393882" width="357.12" height="78.268235"/>
  </clipPath>
  <clipPath id="p02e10f2a9d">
   <rect x="57.6" y="229.315765" width="357.12" height="78.268235"/>
  </clipPath>
 </defs>
</svg>
